M48
INCH,TZ
T1C0.0118
T2C0.0354
T3C0.0394
T4C0.0400
T5C0.0512
T6C0.0630
%
G90
G05
T1
X30315Y-24409
X30315Y-26378
X30315Y-30709
X30315Y-34646
X30315Y-36614
X30315Y-38583
X30315Y-40551
X31693Y-29921
X32283Y-24409
X32283Y-40551
X34252Y-24409
X34252Y-40551
X35827Y-31890
X35984Y-30709
X36142Y-27677
X36142Y-28228
X36142Y-29370
X36142Y-29843
X36220Y-34449
X36220Y-40551
X37598Y-28701
X37598Y-29134
X37598Y-29724
X37598Y-30315
X37913Y-26732
X38189Y-24409
X38189Y-33858
X38386Y-30709
X38583Y-34646
X38858Y-29449
X38858Y-33076
X38976Y-36220
X39646Y-29567
X40103Y-34277
X40354Y-31496
X40551Y-24409
X40551Y-27559
X40846Y-37205
X41732Y-29921
X42402Y-24409
X42913Y-25433
X42913Y-33071
X42953Y-26732
X42953Y-27402
X43898Y-34449
X44488Y-24409
X44488Y-40551
X45000Y-35906
X45197Y-33071
X46457Y-24409
X46457Y-40551
X48425Y-24409
X48425Y-40551
X50394Y-24409
X50394Y-26378
X50394Y-28346
X50394Y-30709
X50394Y-32677
X50394Y-34646
X50394Y-36614
X50394Y-38583
X50394Y-40551
T2
X44571Y-28579
X44571Y-29579
X45571Y-29079
X45571Y-30079
X33248Y-28447
X33248Y-29447
X33248Y-30447
X33248Y-31447
X34248Y-28947
X34248Y-29947
X34248Y-30947
X34248Y-31947
T3
X45906Y-35866
X44882Y-25591
X46457Y-25591
X46457Y-38583
X39665Y-36811
T4
X38520Y-38976
X38520Y-39976
X39520Y-38976
X39520Y-39976
X40520Y-38976
X40520Y-39976
X41520Y-38976
X41520Y-39976
X42520Y-38976
X42520Y-39976
T5
X31378Y-36319
X33346Y-34941
T6
X31948Y-27247
X31948Y-33147
T0
M30
