G04 #@! TF.GenerationSoftware,KiCad,Pcbnew,(5.0.2)-1*
G04 #@! TF.CreationDate,2019-05-12T17:47:40+02:00*
G04 #@! TF.ProjectId,MotorController,4d6f746f-7243-46f6-9e74-726f6c6c6572,rev?*
G04 #@! TF.SameCoordinates,Original*
G04 #@! TF.FileFunction,Legend,Top*
G04 #@! TF.FilePolarity,Positive*
%FSLAX46Y46*%
G04 Gerber Fmt 4.6, Leading zero omitted, Abs format (unit mm)*
G04 Created by KiCad (PCBNEW (5.0.2)-1) date 12.05.2019 17:47:40*
%MOMM*%
%LPD*%
G01*
G04 APERTURE LIST*
%ADD10C,0.200000*%
%ADD11C,0.300000*%
%ADD12C,0.010000*%
%ADD13C,0.150000*%
%ADD14C,0.120000*%
%ADD15C,0.100000*%
G04 APERTURE END LIST*
D10*
X126602380Y-95847619D02*
X125602380Y-95847619D01*
X126316666Y-95514285D01*
X125602380Y-95180952D01*
X126602380Y-95180952D01*
X126602380Y-94561904D02*
X126554761Y-94657142D01*
X126507142Y-94704761D01*
X126411904Y-94752380D01*
X126126190Y-94752380D01*
X126030952Y-94704761D01*
X125983333Y-94657142D01*
X125935714Y-94561904D01*
X125935714Y-94419047D01*
X125983333Y-94323809D01*
X126030952Y-94276190D01*
X126126190Y-94228571D01*
X126411904Y-94228571D01*
X126507142Y-94276190D01*
X126554761Y-94323809D01*
X126602380Y-94419047D01*
X126602380Y-94561904D01*
X125935714Y-93942857D02*
X125935714Y-93561904D01*
X125602380Y-93800000D02*
X126459523Y-93800000D01*
X126554761Y-93752380D01*
X126602380Y-93657142D01*
X126602380Y-93561904D01*
X126602380Y-93085714D02*
X126554761Y-93180952D01*
X126507142Y-93228571D01*
X126411904Y-93276190D01*
X126126190Y-93276190D01*
X126030952Y-93228571D01*
X125983333Y-93180952D01*
X125935714Y-93085714D01*
X125935714Y-92942857D01*
X125983333Y-92847619D01*
X126030952Y-92800000D01*
X126126190Y-92752380D01*
X126411904Y-92752380D01*
X126507142Y-92800000D01*
X126554761Y-92847619D01*
X126602380Y-92942857D01*
X126602380Y-93085714D01*
X126602380Y-92323809D02*
X125935714Y-92323809D01*
X126126190Y-92323809D02*
X126030952Y-92276190D01*
X125983333Y-92228571D01*
X125935714Y-92133333D01*
X125935714Y-92038095D01*
X126507142Y-91133333D02*
X126554761Y-91180952D01*
X126602380Y-91323809D01*
X126602380Y-91419047D01*
X126554761Y-91561904D01*
X126459523Y-91657142D01*
X126364285Y-91704761D01*
X126173809Y-91752380D01*
X126030952Y-91752380D01*
X125840476Y-91704761D01*
X125745238Y-91657142D01*
X125650000Y-91561904D01*
X125602380Y-91419047D01*
X125602380Y-91323809D01*
X125650000Y-91180952D01*
X125697619Y-91133333D01*
X126602380Y-90561904D02*
X126554761Y-90657142D01*
X126507142Y-90704761D01*
X126411904Y-90752380D01*
X126126190Y-90752380D01*
X126030952Y-90704761D01*
X125983333Y-90657142D01*
X125935714Y-90561904D01*
X125935714Y-90419047D01*
X125983333Y-90323809D01*
X126030952Y-90276190D01*
X126126190Y-90228571D01*
X126411904Y-90228571D01*
X126507142Y-90276190D01*
X126554761Y-90323809D01*
X126602380Y-90419047D01*
X126602380Y-90561904D01*
X125935714Y-89800000D02*
X126602380Y-89800000D01*
X126030952Y-89800000D02*
X125983333Y-89752380D01*
X125935714Y-89657142D01*
X125935714Y-89514285D01*
X125983333Y-89419047D01*
X126078571Y-89371428D01*
X126602380Y-89371428D01*
X125935714Y-89038095D02*
X125935714Y-88657142D01*
X125602380Y-88895238D02*
X126459523Y-88895238D01*
X126554761Y-88847619D01*
X126602380Y-88752380D01*
X126602380Y-88657142D01*
X126602380Y-88323809D02*
X125935714Y-88323809D01*
X126126190Y-88323809D02*
X126030952Y-88276190D01*
X125983333Y-88228571D01*
X125935714Y-88133333D01*
X125935714Y-88038095D01*
X126602380Y-87561904D02*
X126554761Y-87657142D01*
X126507142Y-87704761D01*
X126411904Y-87752380D01*
X126126190Y-87752380D01*
X126030952Y-87704761D01*
X125983333Y-87657142D01*
X125935714Y-87561904D01*
X125935714Y-87419047D01*
X125983333Y-87323809D01*
X126030952Y-87276190D01*
X126126190Y-87228571D01*
X126411904Y-87228571D01*
X126507142Y-87276190D01*
X126554761Y-87323809D01*
X126602380Y-87419047D01*
X126602380Y-87561904D01*
X126602380Y-86657142D02*
X126554761Y-86752380D01*
X126459523Y-86800000D01*
X125602380Y-86800000D01*
X126602380Y-86133333D02*
X126554761Y-86228571D01*
X126459523Y-86276190D01*
X125602380Y-86276190D01*
X126554761Y-85371428D02*
X126602380Y-85466666D01*
X126602380Y-85657142D01*
X126554761Y-85752380D01*
X126459523Y-85800000D01*
X126078571Y-85800000D01*
X125983333Y-85752380D01*
X125935714Y-85657142D01*
X125935714Y-85466666D01*
X125983333Y-85371428D01*
X126078571Y-85323809D01*
X126173809Y-85323809D01*
X126269047Y-85800000D01*
X126602380Y-84895238D02*
X125935714Y-84895238D01*
X126126190Y-84895238D02*
X126030952Y-84847619D01*
X125983333Y-84800000D01*
X125935714Y-84704761D01*
X125935714Y-84609523D01*
X127635714Y-96395238D02*
X128302380Y-96157142D01*
X127635714Y-95919047D01*
X128302380Y-95014285D02*
X128302380Y-95585714D01*
X128302380Y-95300000D02*
X127302380Y-95300000D01*
X127445238Y-95395238D01*
X127540476Y-95490476D01*
X127588095Y-95585714D01*
X128207142Y-94585714D02*
X128254761Y-94538095D01*
X128302380Y-94585714D01*
X128254761Y-94633333D01*
X128207142Y-94585714D01*
X128302380Y-94585714D01*
X127302380Y-93919047D02*
X127302380Y-93823809D01*
X127350000Y-93728571D01*
X127397619Y-93680952D01*
X127492857Y-93633333D01*
X127683333Y-93585714D01*
X127921428Y-93585714D01*
X128111904Y-93633333D01*
X128207142Y-93680952D01*
X128254761Y-93728571D01*
X128302380Y-93823809D01*
X128302380Y-93919047D01*
X128254761Y-94014285D01*
X128207142Y-94061904D01*
X128111904Y-94109523D01*
X127921428Y-94157142D01*
X127683333Y-94157142D01*
X127492857Y-94109523D01*
X127397619Y-94061904D01*
X127350000Y-94014285D01*
X127302380Y-93919047D01*
X128302380Y-91871428D02*
X128302380Y-92442857D01*
X128302380Y-92157142D02*
X127302380Y-92157142D01*
X127445238Y-92252380D01*
X127540476Y-92347619D01*
X127588095Y-92442857D01*
X127397619Y-91490476D02*
X127350000Y-91442857D01*
X127302380Y-91347619D01*
X127302380Y-91109523D01*
X127350000Y-91014285D01*
X127397619Y-90966666D01*
X127492857Y-90919047D01*
X127588095Y-90919047D01*
X127730952Y-90966666D01*
X128302380Y-91538095D01*
X128302380Y-90919047D01*
X128207142Y-90490476D02*
X128254761Y-90442857D01*
X128302380Y-90490476D01*
X128254761Y-90538095D01*
X128207142Y-90490476D01*
X128302380Y-90490476D01*
X127302380Y-89823809D02*
X127302380Y-89728571D01*
X127350000Y-89633333D01*
X127397619Y-89585714D01*
X127492857Y-89538095D01*
X127683333Y-89490476D01*
X127921428Y-89490476D01*
X128111904Y-89538095D01*
X128207142Y-89585714D01*
X128254761Y-89633333D01*
X128302380Y-89728571D01*
X128302380Y-89823809D01*
X128254761Y-89919047D01*
X128207142Y-89966666D01*
X128111904Y-90014285D01*
X127921428Y-90061904D01*
X127683333Y-90061904D01*
X127492857Y-90014285D01*
X127397619Y-89966666D01*
X127350000Y-89919047D01*
X127302380Y-89823809D01*
X127302380Y-88585714D02*
X127302380Y-89061904D01*
X127778571Y-89109523D01*
X127730952Y-89061904D01*
X127683333Y-88966666D01*
X127683333Y-88728571D01*
X127730952Y-88633333D01*
X127778571Y-88585714D01*
X127873809Y-88538095D01*
X128111904Y-88538095D01*
X128207142Y-88585714D01*
X128254761Y-88633333D01*
X128302380Y-88728571D01*
X128302380Y-88966666D01*
X128254761Y-89061904D01*
X128207142Y-89109523D01*
X128207142Y-88109523D02*
X128254761Y-88061904D01*
X128302380Y-88109523D01*
X128254761Y-88157142D01*
X128207142Y-88109523D01*
X128302380Y-88109523D01*
X127397619Y-87680952D02*
X127350000Y-87633333D01*
X127302380Y-87538095D01*
X127302380Y-87300000D01*
X127350000Y-87204761D01*
X127397619Y-87157142D01*
X127492857Y-87109523D01*
X127588095Y-87109523D01*
X127730952Y-87157142D01*
X128302380Y-87728571D01*
X128302380Y-87109523D01*
X127302380Y-86490476D02*
X127302380Y-86395238D01*
X127350000Y-86300000D01*
X127397619Y-86252380D01*
X127492857Y-86204761D01*
X127683333Y-86157142D01*
X127921428Y-86157142D01*
X128111904Y-86204761D01*
X128207142Y-86252380D01*
X128254761Y-86300000D01*
X128302380Y-86395238D01*
X128302380Y-86490476D01*
X128254761Y-86585714D01*
X128207142Y-86633333D01*
X128111904Y-86680952D01*
X127921428Y-86728571D01*
X127683333Y-86728571D01*
X127492857Y-86680952D01*
X127397619Y-86633333D01*
X127350000Y-86585714D01*
X127302380Y-86490476D01*
X128302380Y-85204761D02*
X128302380Y-85776190D01*
X128302380Y-85490476D02*
X127302380Y-85490476D01*
X127445238Y-85585714D01*
X127540476Y-85680952D01*
X127588095Y-85776190D01*
X128302380Y-84728571D02*
X128302380Y-84538095D01*
X128254761Y-84442857D01*
X128207142Y-84395238D01*
X128064285Y-84300000D01*
X127873809Y-84252380D01*
X127492857Y-84252380D01*
X127397619Y-84300000D01*
X127350000Y-84347619D01*
X127302380Y-84442857D01*
X127302380Y-84633333D01*
X127350000Y-84728571D01*
X127397619Y-84776190D01*
X127492857Y-84823809D01*
X127730952Y-84823809D01*
X127826190Y-84776190D01*
X127873809Y-84728571D01*
X127921428Y-84633333D01*
X127921428Y-84442857D01*
X127873809Y-84347619D01*
X127826190Y-84300000D01*
X127730952Y-84252380D01*
D11*
X84380952Y-100809523D02*
X84666666Y-100904761D01*
X85142857Y-100904761D01*
X85333333Y-100809523D01*
X85428571Y-100714285D01*
X85523809Y-100523809D01*
X85523809Y-100333333D01*
X85428571Y-100142857D01*
X85333333Y-100047619D01*
X85142857Y-99952380D01*
X84761904Y-99857142D01*
X84571428Y-99761904D01*
X84476190Y-99666666D01*
X84380952Y-99476190D01*
X84380952Y-99285714D01*
X84476190Y-99095238D01*
X84571428Y-99000000D01*
X84761904Y-98904761D01*
X85238095Y-98904761D01*
X85523809Y-99000000D01*
X86380952Y-99857142D02*
X87047619Y-99857142D01*
X87333333Y-100904761D02*
X86380952Y-100904761D01*
X86380952Y-98904761D01*
X87333333Y-98904761D01*
X88190476Y-100904761D02*
X88190476Y-98904761D01*
X88857142Y-100333333D01*
X89523809Y-98904761D01*
X89523809Y-100904761D01*
D12*
G04 #@! TO.C,G1*
G36*
X122428601Y-90973010D02*
X122439822Y-90856518D01*
X122459344Y-90754438D01*
X122460368Y-90750506D01*
X122473897Y-90704751D01*
X122493166Y-90646644D01*
X122515966Y-90582118D01*
X122540088Y-90517106D01*
X122563322Y-90457542D01*
X122583459Y-90409359D01*
X122598289Y-90378490D01*
X122599949Y-90375671D01*
X122611973Y-90368463D01*
X122639394Y-90364078D01*
X122685368Y-90362275D01*
X122753049Y-90362812D01*
X122764753Y-90363067D01*
X122919554Y-90366650D01*
X122854161Y-90455550D01*
X122782393Y-90566717D01*
X122721376Y-90688173D01*
X122675901Y-90809963D01*
X122665228Y-90848107D01*
X122648657Y-90938264D01*
X122640579Y-91038848D01*
X122641113Y-91140305D01*
X122650379Y-91233083D01*
X122659819Y-91279217D01*
X122703039Y-91398403D01*
X122767046Y-91504439D01*
X122850425Y-91596515D01*
X122951764Y-91673821D01*
X123069647Y-91735547D01*
X123202660Y-91780884D01*
X123349391Y-91809020D01*
X123508424Y-91819148D01*
X123598550Y-91816864D01*
X123761940Y-91798464D01*
X123908788Y-91762465D01*
X124038449Y-91709334D01*
X124150280Y-91639536D01*
X124243640Y-91553536D01*
X124317884Y-91451799D01*
X124372371Y-91334792D01*
X124400030Y-91236600D01*
X124411832Y-91147992D01*
X124414048Y-91046208D01*
X124407018Y-90941452D01*
X124391083Y-90843928D01*
X124386261Y-90823850D01*
X124357444Y-90738055D01*
X124314298Y-90643369D01*
X124261121Y-90548176D01*
X124202211Y-90460855D01*
X124195784Y-90452375D01*
X124125136Y-90360300D01*
X124439339Y-90360300D01*
X124478546Y-90446025D01*
X124520423Y-90541232D01*
X124552385Y-90623235D01*
X124577543Y-90700633D01*
X124596660Y-90772306D01*
X124609870Y-90842638D01*
X124619885Y-90928138D01*
X124626294Y-91020610D01*
X124628682Y-91111859D01*
X124626637Y-91193692D01*
X124620803Y-91251663D01*
X124592111Y-91390587D01*
X124552070Y-91510848D01*
X124498158Y-91617596D01*
X124427858Y-91715984D01*
X124354840Y-91795400D01*
X124262331Y-91878955D01*
X124177767Y-91938579D01*
X124157132Y-91950131D01*
X124027402Y-92006231D01*
X123881774Y-92047623D01*
X123725256Y-92074024D01*
X123562856Y-92085150D01*
X123399582Y-92080717D01*
X123240444Y-92060443D01*
X123090450Y-92024043D01*
X123055303Y-92012507D01*
X122912269Y-91950162D01*
X122785378Y-91868602D01*
X122675713Y-91769065D01*
X122584354Y-91652787D01*
X122512380Y-91521005D01*
X122460873Y-91374954D01*
X122446947Y-91316241D01*
X122431944Y-91212143D01*
X122425902Y-91094643D01*
X122428601Y-90973010D01*
X122428601Y-90973010D01*
G37*
X122428601Y-90973010D02*
X122439822Y-90856518D01*
X122459344Y-90754438D01*
X122460368Y-90750506D01*
X122473897Y-90704751D01*
X122493166Y-90646644D01*
X122515966Y-90582118D01*
X122540088Y-90517106D01*
X122563322Y-90457542D01*
X122583459Y-90409359D01*
X122598289Y-90378490D01*
X122599949Y-90375671D01*
X122611973Y-90368463D01*
X122639394Y-90364078D01*
X122685368Y-90362275D01*
X122753049Y-90362812D01*
X122764753Y-90363067D01*
X122919554Y-90366650D01*
X122854161Y-90455550D01*
X122782393Y-90566717D01*
X122721376Y-90688173D01*
X122675901Y-90809963D01*
X122665228Y-90848107D01*
X122648657Y-90938264D01*
X122640579Y-91038848D01*
X122641113Y-91140305D01*
X122650379Y-91233083D01*
X122659819Y-91279217D01*
X122703039Y-91398403D01*
X122767046Y-91504439D01*
X122850425Y-91596515D01*
X122951764Y-91673821D01*
X123069647Y-91735547D01*
X123202660Y-91780884D01*
X123349391Y-91809020D01*
X123508424Y-91819148D01*
X123598550Y-91816864D01*
X123761940Y-91798464D01*
X123908788Y-91762465D01*
X124038449Y-91709334D01*
X124150280Y-91639536D01*
X124243640Y-91553536D01*
X124317884Y-91451799D01*
X124372371Y-91334792D01*
X124400030Y-91236600D01*
X124411832Y-91147992D01*
X124414048Y-91046208D01*
X124407018Y-90941452D01*
X124391083Y-90843928D01*
X124386261Y-90823850D01*
X124357444Y-90738055D01*
X124314298Y-90643369D01*
X124261121Y-90548176D01*
X124202211Y-90460855D01*
X124195784Y-90452375D01*
X124125136Y-90360300D01*
X124439339Y-90360300D01*
X124478546Y-90446025D01*
X124520423Y-90541232D01*
X124552385Y-90623235D01*
X124577543Y-90700633D01*
X124596660Y-90772306D01*
X124609870Y-90842638D01*
X124619885Y-90928138D01*
X124626294Y-91020610D01*
X124628682Y-91111859D01*
X124626637Y-91193692D01*
X124620803Y-91251663D01*
X124592111Y-91390587D01*
X124552070Y-91510848D01*
X124498158Y-91617596D01*
X124427858Y-91715984D01*
X124354840Y-91795400D01*
X124262331Y-91878955D01*
X124177767Y-91938579D01*
X124157132Y-91950131D01*
X124027402Y-92006231D01*
X123881774Y-92047623D01*
X123725256Y-92074024D01*
X123562856Y-92085150D01*
X123399582Y-92080717D01*
X123240444Y-92060443D01*
X123090450Y-92024043D01*
X123055303Y-92012507D01*
X122912269Y-91950162D01*
X122785378Y-91868602D01*
X122675713Y-91769065D01*
X122584354Y-91652787D01*
X122512380Y-91521005D01*
X122460873Y-91374954D01*
X122446947Y-91316241D01*
X122431944Y-91212143D01*
X122425902Y-91094643D01*
X122428601Y-90973010D01*
G36*
X119903607Y-87555950D02*
X119924304Y-87334511D01*
X119964693Y-87117183D01*
X120024542Y-86908702D01*
X120025162Y-86906899D01*
X120059303Y-86818383D01*
X120104269Y-86717365D01*
X120156394Y-86610991D01*
X120212009Y-86506404D01*
X120267448Y-86410752D01*
X120319041Y-86331177D01*
X120325037Y-86322717D01*
X120444820Y-86171169D01*
X120582033Y-86024432D01*
X120730756Y-85888088D01*
X120885070Y-85767723D01*
X120982350Y-85702701D01*
X121192844Y-85586005D01*
X121410901Y-85492833D01*
X121634777Y-85423076D01*
X121862731Y-85376624D01*
X122093020Y-85353365D01*
X122323903Y-85353190D01*
X122553637Y-85375989D01*
X122780480Y-85421651D01*
X123002691Y-85490067D01*
X123218527Y-85581126D01*
X123426246Y-85694718D01*
X123624106Y-85830733D01*
X123677945Y-85873179D01*
X123762310Y-85946049D01*
X123848144Y-86027956D01*
X123929453Y-86112718D01*
X124000245Y-86194155D01*
X124043292Y-86249974D01*
X124069951Y-86285431D01*
X124091491Y-86310953D01*
X124103303Y-86321085D01*
X124103375Y-86321091D01*
X124106816Y-86309383D01*
X124109703Y-86276826D01*
X124111790Y-86227972D01*
X124112829Y-86167368D01*
X124112900Y-86146017D01*
X124113287Y-86074793D01*
X124114716Y-86025303D01*
X124117581Y-85993889D01*
X124122280Y-85976892D01*
X124129209Y-85970655D01*
X124131950Y-85970334D01*
X124142423Y-85975664D01*
X124148354Y-85994785D01*
X124150777Y-86032397D01*
X124151000Y-86056824D01*
X124151000Y-86143314D01*
X124376261Y-86146782D01*
X124458406Y-86148333D01*
X124518494Y-86150305D01*
X124559867Y-86153037D01*
X124585870Y-86156866D01*
X124599844Y-86162131D01*
X124605132Y-86169169D01*
X124605300Y-86169920D01*
X124603725Y-86192498D01*
X124600172Y-86198495D01*
X124585139Y-86201403D01*
X124549014Y-86203913D01*
X124496103Y-86205858D01*
X124430715Y-86207071D01*
X124371133Y-86207400D01*
X124151000Y-86207400D01*
X124151000Y-86414800D01*
X122423800Y-86406486D01*
X120696599Y-86398172D01*
X120696600Y-86734586D01*
X120696600Y-87071000D01*
X121207775Y-87073963D01*
X121323117Y-87074625D01*
X121433710Y-87075245D01*
X121536239Y-87075808D01*
X121627392Y-87076294D01*
X121703855Y-87076688D01*
X121762316Y-87076970D01*
X121799462Y-87077123D01*
X121804696Y-87077138D01*
X121890443Y-87077350D01*
X121890421Y-87664725D01*
X121890400Y-88252100D01*
X119975715Y-88252100D01*
X119961986Y-88197576D01*
X119922216Y-87992219D01*
X119902833Y-87776765D01*
X119903607Y-87555950D01*
X119903607Y-87555950D01*
G37*
X119903607Y-87555950D02*
X119924304Y-87334511D01*
X119964693Y-87117183D01*
X120024542Y-86908702D01*
X120025162Y-86906899D01*
X120059303Y-86818383D01*
X120104269Y-86717365D01*
X120156394Y-86610991D01*
X120212009Y-86506404D01*
X120267448Y-86410752D01*
X120319041Y-86331177D01*
X120325037Y-86322717D01*
X120444820Y-86171169D01*
X120582033Y-86024432D01*
X120730756Y-85888088D01*
X120885070Y-85767723D01*
X120982350Y-85702701D01*
X121192844Y-85586005D01*
X121410901Y-85492833D01*
X121634777Y-85423076D01*
X121862731Y-85376624D01*
X122093020Y-85353365D01*
X122323903Y-85353190D01*
X122553637Y-85375989D01*
X122780480Y-85421651D01*
X123002691Y-85490067D01*
X123218527Y-85581126D01*
X123426246Y-85694718D01*
X123624106Y-85830733D01*
X123677945Y-85873179D01*
X123762310Y-85946049D01*
X123848144Y-86027956D01*
X123929453Y-86112718D01*
X124000245Y-86194155D01*
X124043292Y-86249974D01*
X124069951Y-86285431D01*
X124091491Y-86310953D01*
X124103303Y-86321085D01*
X124103375Y-86321091D01*
X124106816Y-86309383D01*
X124109703Y-86276826D01*
X124111790Y-86227972D01*
X124112829Y-86167368D01*
X124112900Y-86146017D01*
X124113287Y-86074793D01*
X124114716Y-86025303D01*
X124117581Y-85993889D01*
X124122280Y-85976892D01*
X124129209Y-85970655D01*
X124131950Y-85970334D01*
X124142423Y-85975664D01*
X124148354Y-85994785D01*
X124150777Y-86032397D01*
X124151000Y-86056824D01*
X124151000Y-86143314D01*
X124376261Y-86146782D01*
X124458406Y-86148333D01*
X124518494Y-86150305D01*
X124559867Y-86153037D01*
X124585870Y-86156866D01*
X124599844Y-86162131D01*
X124605132Y-86169169D01*
X124605300Y-86169920D01*
X124603725Y-86192498D01*
X124600172Y-86198495D01*
X124585139Y-86201403D01*
X124549014Y-86203913D01*
X124496103Y-86205858D01*
X124430715Y-86207071D01*
X124371133Y-86207400D01*
X124151000Y-86207400D01*
X124151000Y-86414800D01*
X122423800Y-86406486D01*
X120696599Y-86398172D01*
X120696600Y-86734586D01*
X120696600Y-87071000D01*
X121207775Y-87073963D01*
X121323117Y-87074625D01*
X121433710Y-87075245D01*
X121536239Y-87075808D01*
X121627392Y-87076294D01*
X121703855Y-87076688D01*
X121762316Y-87076970D01*
X121799462Y-87077123D01*
X121804696Y-87077138D01*
X121890443Y-87077350D01*
X121890421Y-87664725D01*
X121890400Y-88252100D01*
X119975715Y-88252100D01*
X119961986Y-88197576D01*
X119922216Y-87992219D01*
X119902833Y-87776765D01*
X119903607Y-87555950D01*
G36*
X124113349Y-85663903D02*
X124115004Y-85618224D01*
X124118322Y-85590294D01*
X124123761Y-85576293D01*
X124131781Y-85572401D01*
X124131950Y-85572400D01*
X124140649Y-85576489D01*
X124146308Y-85591487D01*
X124149513Y-85621495D01*
X124150849Y-85670614D01*
X124151000Y-85705750D01*
X124151000Y-85839100D01*
X124316100Y-85839100D01*
X124316100Y-85712100D01*
X124316729Y-85652878D01*
X124319035Y-85614856D01*
X124323645Y-85593856D01*
X124331185Y-85585702D01*
X124335150Y-85585100D01*
X124344033Y-85589297D01*
X124349736Y-85604673D01*
X124352886Y-85635405D01*
X124354109Y-85685671D01*
X124354200Y-85712100D01*
X124354200Y-85839100D01*
X124557400Y-85839100D01*
X124557400Y-85704819D01*
X124557778Y-85644997D01*
X124559396Y-85606321D01*
X124562981Y-85584541D01*
X124569260Y-85575409D01*
X124578957Y-85574676D01*
X124579625Y-85574799D01*
X124589100Y-85579369D01*
X124595698Y-85591592D01*
X124600092Y-85615647D01*
X124602958Y-85655712D01*
X124604971Y-85715964D01*
X124605415Y-85734480D01*
X124608981Y-85889900D01*
X124112900Y-85889900D01*
X124112900Y-85731150D01*
X124113349Y-85663903D01*
X124113349Y-85663903D01*
G37*
X124113349Y-85663903D02*
X124115004Y-85618224D01*
X124118322Y-85590294D01*
X124123761Y-85576293D01*
X124131781Y-85572401D01*
X124131950Y-85572400D01*
X124140649Y-85576489D01*
X124146308Y-85591487D01*
X124149513Y-85621495D01*
X124150849Y-85670614D01*
X124151000Y-85705750D01*
X124151000Y-85839100D01*
X124316100Y-85839100D01*
X124316100Y-85712100D01*
X124316729Y-85652878D01*
X124319035Y-85614856D01*
X124323645Y-85593856D01*
X124331185Y-85585702D01*
X124335150Y-85585100D01*
X124344033Y-85589297D01*
X124349736Y-85604673D01*
X124352886Y-85635405D01*
X124354109Y-85685671D01*
X124354200Y-85712100D01*
X124354200Y-85839100D01*
X124557400Y-85839100D01*
X124557400Y-85704819D01*
X124557778Y-85644997D01*
X124559396Y-85606321D01*
X124562981Y-85584541D01*
X124569260Y-85575409D01*
X124578957Y-85574676D01*
X124579625Y-85574799D01*
X124589100Y-85579369D01*
X124595698Y-85591592D01*
X124600092Y-85615647D01*
X124602958Y-85655712D01*
X124604971Y-85715964D01*
X124605415Y-85734480D01*
X124608981Y-85889900D01*
X124112900Y-85889900D01*
X124112900Y-85731150D01*
X124113349Y-85663903D01*
G36*
X124349673Y-85184830D02*
X124422831Y-85157545D01*
X124487916Y-85133235D01*
X124541155Y-85113312D01*
X124578776Y-85099188D01*
X124597007Y-85092274D01*
X124597907Y-85091917D01*
X124605747Y-85099208D01*
X124608200Y-85117396D01*
X124604140Y-85135795D01*
X124588409Y-85150545D01*
X124555674Y-85165732D01*
X124535175Y-85173367D01*
X124462150Y-85199625D01*
X124462150Y-85423580D01*
X124535175Y-85449653D01*
X124580254Y-85468495D01*
X124603373Y-85485654D01*
X124608200Y-85498663D01*
X124600989Y-85517536D01*
X124592325Y-85520894D01*
X124575934Y-85516391D01*
X124539761Y-85504277D01*
X124487772Y-85485951D01*
X124423934Y-85462812D01*
X124406684Y-85456427D01*
X124406684Y-85403217D01*
X124413349Y-85395269D01*
X124416621Y-85372692D01*
X124417654Y-85330867D01*
X124417700Y-85312050D01*
X124417153Y-85262856D01*
X124414744Y-85234431D01*
X124409322Y-85222155D01*
X124399734Y-85221408D01*
X124395475Y-85222898D01*
X124373825Y-85231114D01*
X124335297Y-85245405D01*
X124286887Y-85263183D01*
X124267802Y-85270151D01*
X124221517Y-85287617D01*
X124186572Y-85301943D01*
X124168089Y-85310976D01*
X124166530Y-85312765D01*
X124179536Y-85318793D01*
X124210609Y-85331261D01*
X124253964Y-85347871D01*
X124271978Y-85354614D01*
X124321310Y-85373034D01*
X124363387Y-85388867D01*
X124391022Y-85399407D01*
X124395475Y-85401153D01*
X124406684Y-85403217D01*
X124406684Y-85456427D01*
X124352212Y-85436261D01*
X124347850Y-85434629D01*
X124268780Y-85404894D01*
X124210347Y-85382267D01*
X124169360Y-85365055D01*
X124142630Y-85351564D01*
X124126966Y-85340102D01*
X124119179Y-85328976D01*
X124116078Y-85316490D01*
X124115490Y-85311289D01*
X124111731Y-85273509D01*
X124349673Y-85184830D01*
X124349673Y-85184830D01*
G37*
X124349673Y-85184830D02*
X124422831Y-85157545D01*
X124487916Y-85133235D01*
X124541155Y-85113312D01*
X124578776Y-85099188D01*
X124597007Y-85092274D01*
X124597907Y-85091917D01*
X124605747Y-85099208D01*
X124608200Y-85117396D01*
X124604140Y-85135795D01*
X124588409Y-85150545D01*
X124555674Y-85165732D01*
X124535175Y-85173367D01*
X124462150Y-85199625D01*
X124462150Y-85423580D01*
X124535175Y-85449653D01*
X124580254Y-85468495D01*
X124603373Y-85485654D01*
X124608200Y-85498663D01*
X124600989Y-85517536D01*
X124592325Y-85520894D01*
X124575934Y-85516391D01*
X124539761Y-85504277D01*
X124487772Y-85485951D01*
X124423934Y-85462812D01*
X124406684Y-85456427D01*
X124406684Y-85403217D01*
X124413349Y-85395269D01*
X124416621Y-85372692D01*
X124417654Y-85330867D01*
X124417700Y-85312050D01*
X124417153Y-85262856D01*
X124414744Y-85234431D01*
X124409322Y-85222155D01*
X124399734Y-85221408D01*
X124395475Y-85222898D01*
X124373825Y-85231114D01*
X124335297Y-85245405D01*
X124286887Y-85263183D01*
X124267802Y-85270151D01*
X124221517Y-85287617D01*
X124186572Y-85301943D01*
X124168089Y-85310976D01*
X124166530Y-85312765D01*
X124179536Y-85318793D01*
X124210609Y-85331261D01*
X124253964Y-85347871D01*
X124271978Y-85354614D01*
X124321310Y-85373034D01*
X124363387Y-85388867D01*
X124391022Y-85399407D01*
X124395475Y-85401153D01*
X124406684Y-85403217D01*
X124406684Y-85456427D01*
X124352212Y-85436261D01*
X124347850Y-85434629D01*
X124268780Y-85404894D01*
X124210347Y-85382267D01*
X124169360Y-85365055D01*
X124142630Y-85351564D01*
X124126966Y-85340102D01*
X124119179Y-85328976D01*
X124116078Y-85316490D01*
X124115490Y-85311289D01*
X124111731Y-85273509D01*
X124349673Y-85184830D01*
G36*
X124114697Y-84962420D02*
X124122594Y-84948491D01*
X124140346Y-84933626D01*
X124171711Y-84915017D01*
X124220444Y-84889861D01*
X124252600Y-84873900D01*
X124306100Y-84846945D01*
X124350133Y-84823699D01*
X124380313Y-84806553D01*
X124392258Y-84797898D01*
X124392300Y-84797700D01*
X124381589Y-84789631D01*
X124352380Y-84772927D01*
X124309055Y-84749980D01*
X124255999Y-84723180D01*
X124252600Y-84721500D01*
X124193743Y-84692005D01*
X124154138Y-84670464D01*
X124130029Y-84654072D01*
X124117659Y-84640024D01*
X124113273Y-84625515D01*
X124112900Y-84617186D01*
X124112900Y-84581800D01*
X124360550Y-84581800D01*
X124445614Y-84581910D01*
X124508592Y-84582461D01*
X124552795Y-84583790D01*
X124581535Y-84586233D01*
X124598127Y-84590125D01*
X124605881Y-84595802D01*
X124608111Y-84603600D01*
X124608200Y-84606901D01*
X124606937Y-84616024D01*
X124600801Y-84622712D01*
X124586272Y-84627424D01*
X124559828Y-84630621D01*
X124517948Y-84632763D01*
X124457112Y-84634312D01*
X124389732Y-84635476D01*
X124171264Y-84638950D01*
X124319882Y-84711494D01*
X124375321Y-84739505D01*
X124421367Y-84764577D01*
X124453735Y-84784243D01*
X124468144Y-84796036D01*
X124468500Y-84797116D01*
X124457788Y-84807398D01*
X124428472Y-84826297D01*
X124384779Y-84851298D01*
X124330935Y-84879888D01*
X124319275Y-84885839D01*
X124170050Y-84961483D01*
X124389125Y-84962142D01*
X124468450Y-84962512D01*
X124525897Y-84963351D01*
X124564986Y-84965078D01*
X124589239Y-84968113D01*
X124602177Y-84972873D01*
X124607322Y-84979778D01*
X124608200Y-84988200D01*
X124607181Y-84996924D01*
X124601916Y-85003381D01*
X124589091Y-85007914D01*
X124565390Y-85010861D01*
X124527500Y-85012563D01*
X124472106Y-85013359D01*
X124395895Y-85013590D01*
X124360550Y-85013600D01*
X124112900Y-85013600D01*
X124112900Y-84978215D01*
X124114697Y-84962420D01*
X124114697Y-84962420D01*
G37*
X124114697Y-84962420D02*
X124122594Y-84948491D01*
X124140346Y-84933626D01*
X124171711Y-84915017D01*
X124220444Y-84889861D01*
X124252600Y-84873900D01*
X124306100Y-84846945D01*
X124350133Y-84823699D01*
X124380313Y-84806553D01*
X124392258Y-84797898D01*
X124392300Y-84797700D01*
X124381589Y-84789631D01*
X124352380Y-84772927D01*
X124309055Y-84749980D01*
X124255999Y-84723180D01*
X124252600Y-84721500D01*
X124193743Y-84692005D01*
X124154138Y-84670464D01*
X124130029Y-84654072D01*
X124117659Y-84640024D01*
X124113273Y-84625515D01*
X124112900Y-84617186D01*
X124112900Y-84581800D01*
X124360550Y-84581800D01*
X124445614Y-84581910D01*
X124508592Y-84582461D01*
X124552795Y-84583790D01*
X124581535Y-84586233D01*
X124598127Y-84590125D01*
X124605881Y-84595802D01*
X124608111Y-84603600D01*
X124608200Y-84606901D01*
X124606937Y-84616024D01*
X124600801Y-84622712D01*
X124586272Y-84627424D01*
X124559828Y-84630621D01*
X124517948Y-84632763D01*
X124457112Y-84634312D01*
X124389732Y-84635476D01*
X124171264Y-84638950D01*
X124319882Y-84711494D01*
X124375321Y-84739505D01*
X124421367Y-84764577D01*
X124453735Y-84784243D01*
X124468144Y-84796036D01*
X124468500Y-84797116D01*
X124457788Y-84807398D01*
X124428472Y-84826297D01*
X124384779Y-84851298D01*
X124330935Y-84879888D01*
X124319275Y-84885839D01*
X124170050Y-84961483D01*
X124389125Y-84962142D01*
X124468450Y-84962512D01*
X124525897Y-84963351D01*
X124564986Y-84965078D01*
X124589239Y-84968113D01*
X124602177Y-84972873D01*
X124607322Y-84979778D01*
X124608200Y-84988200D01*
X124607181Y-84996924D01*
X124601916Y-85003381D01*
X124589091Y-85007914D01*
X124565390Y-85010861D01*
X124527500Y-85012563D01*
X124472106Y-85013359D01*
X124395895Y-85013590D01*
X124360550Y-85013600D01*
X124112900Y-85013600D01*
X124112900Y-84978215D01*
X124114697Y-84962420D01*
G36*
X122677800Y-94056000D02*
X122677800Y-94818000D01*
X124595500Y-94818000D01*
X124595500Y-95084700D01*
X122677800Y-95084700D01*
X122677800Y-95840350D01*
X122461900Y-95840350D01*
X122461900Y-94056000D01*
X122677800Y-94056000D01*
X122677800Y-94056000D01*
G37*
X122677800Y-94056000D02*
X122677800Y-94818000D01*
X124595500Y-94818000D01*
X124595500Y-95084700D01*
X122677800Y-95084700D01*
X122677800Y-95840350D01*
X122461900Y-95840350D01*
X122461900Y-94056000D01*
X122677800Y-94056000D01*
G36*
X122677800Y-92366900D02*
X122677800Y-93497200D01*
X123312800Y-93497200D01*
X123312800Y-92392300D01*
X123541400Y-92392300D01*
X123541400Y-93497200D01*
X124366900Y-93497200D01*
X124366900Y-92366900D01*
X124595500Y-92366900D01*
X124595500Y-93751200D01*
X122461900Y-93751200D01*
X122461900Y-92366900D01*
X122677800Y-92366900D01*
X122677800Y-92366900D01*
G37*
X122677800Y-92366900D02*
X122677800Y-93497200D01*
X123312800Y-93497200D01*
X123312800Y-92392300D01*
X123541400Y-92392300D01*
X123541400Y-93497200D01*
X124366900Y-93497200D01*
X124366900Y-92366900D01*
X124595500Y-92366900D01*
X124595500Y-93751200D01*
X122461900Y-93751200D01*
X122461900Y-92366900D01*
X122677800Y-92366900D01*
G36*
X122002717Y-88928330D02*
X123731900Y-88925110D01*
X123731900Y-88252100D01*
X122563500Y-88252100D01*
X122563500Y-87083700D01*
X124453764Y-87083700D01*
X124472983Y-87169425D01*
X124497051Y-87300946D01*
X124514274Y-87445873D01*
X124524001Y-87594677D01*
X124525581Y-87737829D01*
X124519669Y-87852050D01*
X124485531Y-88097392D01*
X124428070Y-88332856D01*
X124347533Y-88557927D01*
X124244165Y-88772093D01*
X124118210Y-88974840D01*
X123969915Y-89165655D01*
X123812535Y-89331600D01*
X123666110Y-89462365D01*
X123516863Y-89574353D01*
X123356422Y-89673575D01*
X123274700Y-89717542D01*
X123053198Y-89817985D01*
X122826519Y-89894004D01*
X122596135Y-89945689D01*
X122363518Y-89973130D01*
X122130141Y-89976418D01*
X121897477Y-89955642D01*
X121666998Y-89910892D01*
X121440177Y-89842258D01*
X121218486Y-89749831D01*
X121003399Y-89633701D01*
X120907808Y-89572832D01*
X120811718Y-89502383D01*
X120708512Y-89415933D01*
X120604205Y-89319223D01*
X120504812Y-89217993D01*
X120416348Y-89117986D01*
X120369716Y-89059232D01*
X120273535Y-88931550D01*
X122002717Y-88928330D01*
X122002717Y-88928330D01*
G37*
X122002717Y-88928330D02*
X123731900Y-88925110D01*
X123731900Y-88252100D01*
X122563500Y-88252100D01*
X122563500Y-87083700D01*
X124453764Y-87083700D01*
X124472983Y-87169425D01*
X124497051Y-87300946D01*
X124514274Y-87445873D01*
X124524001Y-87594677D01*
X124525581Y-87737829D01*
X124519669Y-87852050D01*
X124485531Y-88097392D01*
X124428070Y-88332856D01*
X124347533Y-88557927D01*
X124244165Y-88772093D01*
X124118210Y-88974840D01*
X123969915Y-89165655D01*
X123812535Y-89331600D01*
X123666110Y-89462365D01*
X123516863Y-89574353D01*
X123356422Y-89673575D01*
X123274700Y-89717542D01*
X123053198Y-89817985D01*
X122826519Y-89894004D01*
X122596135Y-89945689D01*
X122363518Y-89973130D01*
X122130141Y-89976418D01*
X121897477Y-89955642D01*
X121666998Y-89910892D01*
X121440177Y-89842258D01*
X121218486Y-89749831D01*
X121003399Y-89633701D01*
X120907808Y-89572832D01*
X120811718Y-89502383D01*
X120708512Y-89415933D01*
X120604205Y-89319223D01*
X120504812Y-89217993D01*
X120416348Y-89117986D01*
X120369716Y-89059232D01*
X120273535Y-88931550D01*
X122002717Y-88928330D01*
G36*
X120125100Y-94437000D02*
X120125100Y-95006384D01*
X120125213Y-95124130D01*
X120125539Y-95233885D01*
X120126054Y-95333080D01*
X120126734Y-95419141D01*
X120127554Y-95489500D01*
X120128493Y-95541585D01*
X120129526Y-95572825D01*
X120130372Y-95581059D01*
X120143990Y-95582367D01*
X120179537Y-95583275D01*
X120233547Y-95583766D01*
X120302551Y-95583820D01*
X120383083Y-95583420D01*
X120454605Y-95582749D01*
X120773566Y-95579147D01*
X120770008Y-95020769D01*
X120766450Y-94462390D01*
X120877442Y-94462395D01*
X120988435Y-94462400D01*
X120991742Y-95021565D01*
X120995050Y-95580730D01*
X121833250Y-95580730D01*
X121839858Y-94437000D01*
X122068200Y-94437000D01*
X122068200Y-95846700D01*
X119896500Y-95846700D01*
X119896500Y-94437000D01*
X120125100Y-94437000D01*
X120125100Y-94437000D01*
G37*
X120125100Y-94437000D02*
X120125100Y-95006384D01*
X120125213Y-95124130D01*
X120125539Y-95233885D01*
X120126054Y-95333080D01*
X120126734Y-95419141D01*
X120127554Y-95489500D01*
X120128493Y-95541585D01*
X120129526Y-95572825D01*
X120130372Y-95581059D01*
X120143990Y-95582367D01*
X120179537Y-95583275D01*
X120233547Y-95583766D01*
X120302551Y-95583820D01*
X120383083Y-95583420D01*
X120454605Y-95582749D01*
X120773566Y-95579147D01*
X120770008Y-95020769D01*
X120766450Y-94462390D01*
X120877442Y-94462395D01*
X120988435Y-94462400D01*
X120991742Y-95021565D01*
X120995050Y-95580730D01*
X121833250Y-95580730D01*
X121839858Y-94437000D01*
X122068200Y-94437000D01*
X122068200Y-95846700D01*
X119896500Y-95846700D01*
X119896500Y-94437000D01*
X120125100Y-94437000D01*
G36*
X119901471Y-92995266D02*
X119917221Y-92872491D01*
X119945727Y-92751918D01*
X119988693Y-92625732D01*
X120025974Y-92535175D01*
X120077065Y-92417700D01*
X120228082Y-92417700D01*
X120286629Y-92418232D01*
X120334600Y-92419679D01*
X120367067Y-92421822D01*
X120379099Y-92424440D01*
X120379100Y-92424458D01*
X120372270Y-92437104D01*
X120353907Y-92465586D01*
X120327203Y-92505043D01*
X120308870Y-92531441D01*
X120225116Y-92665967D01*
X120164749Y-92798464D01*
X120126456Y-92932824D01*
X120108924Y-93072943D01*
X120107432Y-93128900D01*
X120117721Y-93268405D01*
X120149169Y-93393909D01*
X120201924Y-93505685D01*
X120276136Y-93604006D01*
X120371954Y-93689147D01*
X120436250Y-93731857D01*
X120544713Y-93784518D01*
X120670230Y-93824284D01*
X120807437Y-93850200D01*
X120950969Y-93861311D01*
X121095463Y-93856662D01*
X121122314Y-93853948D01*
X121278384Y-93827758D01*
X121414974Y-93786173D01*
X121533272Y-93728563D01*
X121634463Y-93654297D01*
X121719737Y-93562746D01*
X121749781Y-93520955D01*
X121794957Y-93444262D01*
X121826218Y-93367589D01*
X121845365Y-93284140D01*
X121854197Y-93187119D01*
X121855304Y-93122550D01*
X121847557Y-92981621D01*
X121823755Y-92855452D01*
X121781825Y-92737950D01*
X121719698Y-92623024D01*
X121653034Y-92527487D01*
X121618441Y-92481845D01*
X121598157Y-92450982D01*
X121594230Y-92432016D01*
X121608712Y-92422064D01*
X121643653Y-92418242D01*
X121701103Y-92417667D01*
X121731117Y-92417700D01*
X121879352Y-92417700D01*
X121922842Y-92511829D01*
X121961601Y-92602931D01*
X121997274Y-92700199D01*
X122027161Y-92795419D01*
X122048561Y-92880374D01*
X122054692Y-92913000D01*
X122062086Y-92980530D01*
X122065899Y-93063254D01*
X122066232Y-93152806D01*
X122063186Y-93240819D01*
X122056860Y-93318926D01*
X122049200Y-93370200D01*
X122007117Y-93520367D01*
X121944621Y-93655645D01*
X121862314Y-93775414D01*
X121760797Y-93879054D01*
X121640672Y-93965944D01*
X121502540Y-94035463D01*
X121357000Y-94084369D01*
X121316763Y-94094402D01*
X121278807Y-94101823D01*
X121238244Y-94107015D01*
X121190184Y-94110360D01*
X121129741Y-94112239D01*
X121052025Y-94113034D01*
X120988700Y-94113150D01*
X120871716Y-94111918D01*
X120774754Y-94107533D01*
X120692523Y-94098967D01*
X120619733Y-94085191D01*
X120551093Y-94065176D01*
X120481314Y-94037893D01*
X120405105Y-94002312D01*
X120396181Y-93997886D01*
X120265625Y-93919716D01*
X120154266Y-93825112D01*
X120062429Y-93714638D01*
X119990437Y-93588858D01*
X119938614Y-93448335D01*
X119907284Y-93293636D01*
X119896774Y-93128058D01*
X119901471Y-92995266D01*
X119901471Y-92995266D01*
G37*
X119901471Y-92995266D02*
X119917221Y-92872491D01*
X119945727Y-92751918D01*
X119988693Y-92625732D01*
X120025974Y-92535175D01*
X120077065Y-92417700D01*
X120228082Y-92417700D01*
X120286629Y-92418232D01*
X120334600Y-92419679D01*
X120367067Y-92421822D01*
X120379099Y-92424440D01*
X120379100Y-92424458D01*
X120372270Y-92437104D01*
X120353907Y-92465586D01*
X120327203Y-92505043D01*
X120308870Y-92531441D01*
X120225116Y-92665967D01*
X120164749Y-92798464D01*
X120126456Y-92932824D01*
X120108924Y-93072943D01*
X120107432Y-93128900D01*
X120117721Y-93268405D01*
X120149169Y-93393909D01*
X120201924Y-93505685D01*
X120276136Y-93604006D01*
X120371954Y-93689147D01*
X120436250Y-93731857D01*
X120544713Y-93784518D01*
X120670230Y-93824284D01*
X120807437Y-93850200D01*
X120950969Y-93861311D01*
X121095463Y-93856662D01*
X121122314Y-93853948D01*
X121278384Y-93827758D01*
X121414974Y-93786173D01*
X121533272Y-93728563D01*
X121634463Y-93654297D01*
X121719737Y-93562746D01*
X121749781Y-93520955D01*
X121794957Y-93444262D01*
X121826218Y-93367589D01*
X121845365Y-93284140D01*
X121854197Y-93187119D01*
X121855304Y-93122550D01*
X121847557Y-92981621D01*
X121823755Y-92855452D01*
X121781825Y-92737950D01*
X121719698Y-92623024D01*
X121653034Y-92527487D01*
X121618441Y-92481845D01*
X121598157Y-92450982D01*
X121594230Y-92432016D01*
X121608712Y-92422064D01*
X121643653Y-92418242D01*
X121701103Y-92417667D01*
X121731117Y-92417700D01*
X121879352Y-92417700D01*
X121922842Y-92511829D01*
X121961601Y-92602931D01*
X121997274Y-92700199D01*
X122027161Y-92795419D01*
X122048561Y-92880374D01*
X122054692Y-92913000D01*
X122062086Y-92980530D01*
X122065899Y-93063254D01*
X122066232Y-93152806D01*
X122063186Y-93240819D01*
X122056860Y-93318926D01*
X122049200Y-93370200D01*
X122007117Y-93520367D01*
X121944621Y-93655645D01*
X121862314Y-93775414D01*
X121760797Y-93879054D01*
X121640672Y-93965944D01*
X121502540Y-94035463D01*
X121357000Y-94084369D01*
X121316763Y-94094402D01*
X121278807Y-94101823D01*
X121238244Y-94107015D01*
X121190184Y-94110360D01*
X121129741Y-94112239D01*
X121052025Y-94113034D01*
X120988700Y-94113150D01*
X120871716Y-94111918D01*
X120774754Y-94107533D01*
X120692523Y-94098967D01*
X120619733Y-94085191D01*
X120551093Y-94065176D01*
X120481314Y-94037893D01*
X120405105Y-94002312D01*
X120396181Y-93997886D01*
X120265625Y-93919716D01*
X120154266Y-93825112D01*
X120062429Y-93714638D01*
X119990437Y-93588858D01*
X119938614Y-93448335D01*
X119907284Y-93293636D01*
X119896774Y-93128058D01*
X119901471Y-92995266D01*
G36*
X119907258Y-91090048D02*
X119908268Y-91054619D01*
X119908950Y-91004353D01*
X119909200Y-90944673D01*
X119909200Y-90792446D01*
X120044649Y-90750998D01*
X120180099Y-90709550D01*
X120210948Y-90639803D01*
X120241796Y-90570056D01*
X120174353Y-90433365D01*
X120106909Y-90296674D01*
X120189029Y-90213230D01*
X120229992Y-90172714D01*
X120268536Y-90136506D01*
X120298310Y-90110506D01*
X120306049Y-90104496D01*
X120340949Y-90079207D01*
X120467049Y-90145151D01*
X120593149Y-90211096D01*
X120663610Y-90181892D01*
X120734070Y-90152687D01*
X120779885Y-90015194D01*
X120825700Y-89877700D01*
X121148995Y-89877700D01*
X121231927Y-90151374D01*
X121308293Y-90179186D01*
X121384658Y-90206999D01*
X121512509Y-90142840D01*
X121640359Y-90078682D01*
X121864275Y-90303150D01*
X121798698Y-90431417D01*
X121733122Y-90559684D01*
X121765466Y-90634579D01*
X121797811Y-90709474D01*
X121929830Y-90755628D01*
X122061850Y-90801783D01*
X122068922Y-91117363D01*
X121933048Y-91161107D01*
X121797174Y-91204850D01*
X121765377Y-91279254D01*
X121733580Y-91353657D01*
X121798271Y-91483733D01*
X121862962Y-91613808D01*
X121751547Y-91724707D01*
X121640132Y-91835605D01*
X121381144Y-91705639D01*
X121305861Y-91734645D01*
X121230578Y-91763650D01*
X121146738Y-92030350D01*
X120986342Y-92033896D01*
X120983265Y-92033964D01*
X120983265Y-91397279D01*
X121075471Y-91389944D01*
X121158785Y-91365647D01*
X121166500Y-91362180D01*
X121245607Y-91317890D01*
X121307461Y-91265064D01*
X121350549Y-91211346D01*
X121400877Y-91117643D01*
X121427113Y-91018343D01*
X121429030Y-90916460D01*
X121406402Y-90815010D01*
X121384208Y-90762100D01*
X121328059Y-90674068D01*
X121254406Y-90603769D01*
X121168024Y-90552517D01*
X121125516Y-90534794D01*
X121085551Y-90524552D01*
X121038177Y-90519937D01*
X120988432Y-90519050D01*
X120931053Y-90520163D01*
X120888717Y-90524987D01*
X120851112Y-90535757D01*
X120807924Y-90554703D01*
X120795291Y-90560859D01*
X120709574Y-90614754D01*
X120641125Y-90684747D01*
X120586621Y-90774274D01*
X120584167Y-90779400D01*
X120566627Y-90821227D01*
X120556499Y-90860934D01*
X120551952Y-90908378D01*
X120551099Y-90957200D01*
X120552581Y-91017722D01*
X120558281Y-91063031D01*
X120570080Y-91103211D01*
X120584736Y-91137496D01*
X120635389Y-91219513D01*
X120704299Y-91292348D01*
X120784408Y-91348946D01*
X120808404Y-91361164D01*
X120891224Y-91387677D01*
X120983265Y-91397279D01*
X120983265Y-92033964D01*
X120825947Y-92037442D01*
X120779677Y-91898584D01*
X120733408Y-91759726D01*
X120591854Y-91702274D01*
X120461973Y-91766868D01*
X120332092Y-91831463D01*
X120219202Y-91718048D01*
X120106313Y-91604633D01*
X120174435Y-91474592D01*
X120242557Y-91344550D01*
X120211904Y-91275601D01*
X120181250Y-91206651D01*
X120042050Y-91160234D01*
X119987634Y-91141320D01*
X119943752Y-91124596D01*
X119915036Y-91111931D01*
X119906025Y-91105359D01*
X119907258Y-91090048D01*
X119907258Y-91090048D01*
G37*
X119907258Y-91090048D02*
X119908268Y-91054619D01*
X119908950Y-91004353D01*
X119909200Y-90944673D01*
X119909200Y-90792446D01*
X120044649Y-90750998D01*
X120180099Y-90709550D01*
X120210948Y-90639803D01*
X120241796Y-90570056D01*
X120174353Y-90433365D01*
X120106909Y-90296674D01*
X120189029Y-90213230D01*
X120229992Y-90172714D01*
X120268536Y-90136506D01*
X120298310Y-90110506D01*
X120306049Y-90104496D01*
X120340949Y-90079207D01*
X120467049Y-90145151D01*
X120593149Y-90211096D01*
X120663610Y-90181892D01*
X120734070Y-90152687D01*
X120779885Y-90015194D01*
X120825700Y-89877700D01*
X121148995Y-89877700D01*
X121231927Y-90151374D01*
X121308293Y-90179186D01*
X121384658Y-90206999D01*
X121512509Y-90142840D01*
X121640359Y-90078682D01*
X121864275Y-90303150D01*
X121798698Y-90431417D01*
X121733122Y-90559684D01*
X121765466Y-90634579D01*
X121797811Y-90709474D01*
X121929830Y-90755628D01*
X122061850Y-90801783D01*
X122068922Y-91117363D01*
X121933048Y-91161107D01*
X121797174Y-91204850D01*
X121765377Y-91279254D01*
X121733580Y-91353657D01*
X121798271Y-91483733D01*
X121862962Y-91613808D01*
X121751547Y-91724707D01*
X121640132Y-91835605D01*
X121381144Y-91705639D01*
X121305861Y-91734645D01*
X121230578Y-91763650D01*
X121146738Y-92030350D01*
X120986342Y-92033896D01*
X120983265Y-92033964D01*
X120983265Y-91397279D01*
X121075471Y-91389944D01*
X121158785Y-91365647D01*
X121166500Y-91362180D01*
X121245607Y-91317890D01*
X121307461Y-91265064D01*
X121350549Y-91211346D01*
X121400877Y-91117643D01*
X121427113Y-91018343D01*
X121429030Y-90916460D01*
X121406402Y-90815010D01*
X121384208Y-90762100D01*
X121328059Y-90674068D01*
X121254406Y-90603769D01*
X121168024Y-90552517D01*
X121125516Y-90534794D01*
X121085551Y-90524552D01*
X121038177Y-90519937D01*
X120988432Y-90519050D01*
X120931053Y-90520163D01*
X120888717Y-90524987D01*
X120851112Y-90535757D01*
X120807924Y-90554703D01*
X120795291Y-90560859D01*
X120709574Y-90614754D01*
X120641125Y-90684747D01*
X120586621Y-90774274D01*
X120584167Y-90779400D01*
X120566627Y-90821227D01*
X120556499Y-90860934D01*
X120551952Y-90908378D01*
X120551099Y-90957200D01*
X120552581Y-91017722D01*
X120558281Y-91063031D01*
X120570080Y-91103211D01*
X120584736Y-91137496D01*
X120635389Y-91219513D01*
X120704299Y-91292348D01*
X120784408Y-91348946D01*
X120808404Y-91361164D01*
X120891224Y-91387677D01*
X120983265Y-91397279D01*
X120983265Y-92033964D01*
X120825947Y-92037442D01*
X120779677Y-91898584D01*
X120733408Y-91759726D01*
X120591854Y-91702274D01*
X120461973Y-91766868D01*
X120332092Y-91831463D01*
X120219202Y-91718048D01*
X120106313Y-91604633D01*
X120174435Y-91474592D01*
X120242557Y-91344550D01*
X120211904Y-91275601D01*
X120181250Y-91206651D01*
X120042050Y-91160234D01*
X119987634Y-91141320D01*
X119943752Y-91124596D01*
X119915036Y-91111931D01*
X119906025Y-91105359D01*
X119907258Y-91090048D01*
D13*
G04 #@! TO.C,J3*
X75086000Y-84600000D02*
X75086000Y-68852000D01*
X88514000Y-68826000D02*
X75052000Y-68826000D01*
X88514000Y-84574000D02*
X88514000Y-68826000D01*
X88514000Y-84574000D02*
X75052000Y-84574000D01*
D14*
G04 #@! TO.C,Y1*
X90200000Y-68250000D02*
X102800000Y-68250000D01*
X102800000Y-68250000D02*
X102800000Y-63150000D01*
X102800000Y-63150000D02*
X90200000Y-63150000D01*
D13*
G04 #@! TO.C,J1*
X111900000Y-80100000D02*
X129900000Y-80100000D01*
X129900000Y-68900000D02*
X111900000Y-68900000D01*
X111900000Y-68900000D02*
X111900000Y-80100000D01*
X130000000Y-80100000D02*
X130000000Y-68875000D01*
G04 #@! TO.C,J4*
X75000000Y-94000000D02*
X75000000Y-85500000D01*
X75000000Y-85500000D02*
X87000000Y-85500000D01*
X87000000Y-85500000D02*
X87000000Y-94000000D01*
X87000000Y-94000000D02*
X75000000Y-94000000D01*
D14*
G04 #@! TO.C,TP1*
X119500000Y-98000000D02*
G75*
G03X119500000Y-98000000I-1500000J0D01*
G01*
G04 #@! TO.C,TP2*
X102250000Y-93500000D02*
G75*
G03X102250000Y-93500000I-1500000J0D01*
G01*
G04 #@! TO.C,TP3*
X118100000Y-91100000D02*
G75*
G03X118100000Y-91100000I-1500000J0D01*
G01*
G04 #@! TO.C,TP4*
X115500000Y-65000000D02*
G75*
G03X115500000Y-65000000I-1500000J0D01*
G01*
G04 #@! TO.C,TP5*
X119500000Y-65000000D02*
G75*
G03X119500000Y-65000000I-1500000J0D01*
G01*
G04 #@! TO.C,J2*
X113600000Y-95345000D02*
X113600000Y-97885000D01*
X113600000Y-95345000D02*
X111060000Y-95345000D01*
X113350000Y-95595000D02*
X113350000Y-104945000D01*
X92490000Y-95595000D02*
X113350000Y-95595000D01*
X92490000Y-104945000D02*
X92490000Y-95595000D01*
X113350000Y-104945000D02*
X92490000Y-104945000D01*
D13*
G04 #@! TO.C,U3*
X101500000Y-71875000D02*
X101500000Y-70450000D01*
X101725000Y-79125000D02*
X101725000Y-78800000D01*
X94475000Y-79125000D02*
X94475000Y-78800000D01*
X94475000Y-71875000D02*
X94475000Y-72200000D01*
X101725000Y-71875000D02*
X101725000Y-72200000D01*
X94475000Y-71875000D02*
X94800000Y-71875000D01*
X94475000Y-79125000D02*
X94800000Y-79125000D01*
X101725000Y-79125000D02*
X101400000Y-79125000D01*
X101725000Y-71875000D02*
X101500000Y-71875000D01*
G04 #@! TO.C,U2*
X109625000Y-66825000D02*
X109625000Y-65425000D01*
X104525000Y-66825000D02*
X104525000Y-70975000D01*
X109675000Y-66825000D02*
X109675000Y-70975000D01*
X104525000Y-66825000D02*
X104670000Y-66825000D01*
X104525000Y-70975000D02*
X104670000Y-70975000D01*
X109675000Y-70975000D02*
X109530000Y-70975000D01*
X109675000Y-66825000D02*
X109625000Y-66825000D01*
D14*
G04 #@! TO.C,C5*
X96437221Y-69510000D02*
X96762779Y-69510000D01*
X96437221Y-68490000D02*
X96762779Y-68490000D01*
G04 #@! TO.C,SW2*
X92350000Y-88250000D02*
X92350000Y-85750000D01*
X94100000Y-89750000D02*
X96100000Y-89750000D01*
X97850000Y-88250000D02*
X97850000Y-85750000D01*
X94100000Y-84250000D02*
X96100000Y-84250000D01*
X92800000Y-88700000D02*
X92350000Y-88250000D01*
X92800000Y-85300000D02*
X92350000Y-85750000D01*
X97400000Y-85300000D02*
X97850000Y-85750000D01*
X97400000Y-88700000D02*
X97850000Y-88250000D01*
G04 #@! TO.C,C2*
X106462779Y-91590000D02*
X106137221Y-91590000D01*
X106462779Y-92610000D02*
X106137221Y-92610000D01*
G04 #@! TO.C,C4*
X99437221Y-69510000D02*
X99762779Y-69510000D01*
X99437221Y-68490000D02*
X99762779Y-68490000D01*
G04 #@! TO.C,C6*
X111010000Y-70562779D02*
X111010000Y-70237221D01*
X109990000Y-70562779D02*
X109990000Y-70237221D01*
G04 #@! TO.C,C7*
X99762779Y-61690000D02*
X99437221Y-61690000D01*
X99762779Y-62710000D02*
X99437221Y-62710000D01*
G04 #@! TO.C,C8*
X92437221Y-62710000D02*
X92762779Y-62710000D01*
X92437221Y-61690000D02*
X92762779Y-61690000D01*
G04 #@! TO.C,C9*
X97937221Y-82010000D02*
X98262779Y-82010000D01*
X97937221Y-80990000D02*
X98262779Y-80990000D01*
G04 #@! TO.C,C1*
X106458578Y-93090000D02*
X105941422Y-93090000D01*
X106458578Y-94510000D02*
X105941422Y-94510000D01*
G04 #@! TO.C,C3*
X99390000Y-87741422D02*
X99390000Y-88258578D01*
X100810000Y-87741422D02*
X100810000Y-88258578D01*
G04 #@! TO.C,D1*
X108450000Y-92300000D02*
X108450000Y-83900000D01*
X114950000Y-92300000D02*
X114950000Y-83900000D01*
X114950000Y-92300000D02*
X108450000Y-92300000D01*
G04 #@! TO.C,JP1*
X111475000Y-76300000D02*
X108675000Y-76300000D01*
X108675000Y-76300000D02*
X108675000Y-74300000D01*
X108675000Y-74300000D02*
X111475000Y-74300000D01*
X111475000Y-74300000D02*
X111475000Y-76300000D01*
G04 #@! TO.C,D8*
X125585000Y-81040000D02*
X122900000Y-81040000D01*
X125585000Y-82960000D02*
X125585000Y-81040000D01*
X122900000Y-82960000D02*
X125585000Y-82960000D01*
G04 #@! TO.C,D4*
X111085000Y-77540000D02*
X108400000Y-77540000D01*
X111085000Y-79460000D02*
X111085000Y-77540000D01*
X108400000Y-79460000D02*
X111085000Y-79460000D01*
G04 #@! TO.C,D3*
X111085000Y-79440000D02*
X108400000Y-79440000D01*
X111085000Y-81360000D02*
X111085000Y-79440000D01*
X108400000Y-81360000D02*
X111085000Y-81360000D01*
G04 #@! TO.C,U1*
X101290000Y-91100000D02*
X101290000Y-85090000D01*
X108110000Y-88850000D02*
X108110000Y-85090000D01*
X101290000Y-85090000D02*
X102550000Y-85090000D01*
X108110000Y-85090000D02*
X106850000Y-85090000D01*
G04 #@! TO.C,D2*
X105940000Y-72820000D02*
X107400000Y-72820000D01*
X105940000Y-75980000D02*
X108100000Y-75980000D01*
X105940000Y-75980000D02*
X105940000Y-75050000D01*
X105940000Y-72820000D02*
X105940000Y-73750000D01*
G04 #@! TO.C,D6*
X91860000Y-78480000D02*
X90400000Y-78480000D01*
X91860000Y-75320000D02*
X89700000Y-75320000D01*
X91860000Y-75320000D02*
X91860000Y-76250000D01*
X91860000Y-78480000D02*
X91860000Y-77550000D01*
G04 #@! TO.C,Q1*
X108360000Y-64880000D02*
X106900000Y-64880000D01*
X108360000Y-61720000D02*
X106200000Y-61720000D01*
X108360000Y-61720000D02*
X108360000Y-62650000D01*
X108360000Y-64880000D02*
X108360000Y-63950000D01*
G04 #@! TO.C,D5*
X91860000Y-74980000D02*
X90400000Y-74980000D01*
X91860000Y-71820000D02*
X89700000Y-71820000D01*
X91860000Y-71820000D02*
X91860000Y-72750000D01*
X91860000Y-74980000D02*
X91860000Y-74050000D01*
G04 #@! TO.C,R1*
X110062779Y-72890000D02*
X109737221Y-72890000D01*
X110062779Y-73910000D02*
X109737221Y-73910000D01*
G04 #@! TO.C,R4*
X104690000Y-63137221D02*
X104690000Y-63462779D01*
X105710000Y-63137221D02*
X105710000Y-63462779D01*
G04 #@! TO.C,R7*
X120537221Y-82510000D02*
X120862779Y-82510000D01*
X120537221Y-81490000D02*
X120862779Y-81490000D01*
G04 #@! TO.C,R6*
X106124721Y-79210000D02*
X106450279Y-79210000D01*
X106124721Y-78190000D02*
X106450279Y-78190000D01*
G04 #@! TO.C,R5*
X106124721Y-80710000D02*
X106450279Y-80710000D01*
X106124721Y-79690000D02*
X106450279Y-79690000D01*
G04 #@! TO.C,R3*
X111010000Y-67562779D02*
X111010000Y-67237221D01*
X109990000Y-67562779D02*
X109990000Y-67237221D01*
G04 #@! TO.C,R2*
X100610000Y-84962779D02*
X100610000Y-84637221D01*
X99590000Y-84962779D02*
X99590000Y-84637221D01*
G04 #@! TO.C,J3*
D15*
X87033333Y-67926190D02*
X87033333Y-68283333D01*
X87009523Y-68354761D01*
X86961904Y-68402380D01*
X86890476Y-68426190D01*
X86842857Y-68426190D01*
X87223809Y-67926190D02*
X87533333Y-67926190D01*
X87366666Y-68116666D01*
X87438095Y-68116666D01*
X87485714Y-68140476D01*
X87509523Y-68164285D01*
X87533333Y-68211904D01*
X87533333Y-68330952D01*
X87509523Y-68378571D01*
X87485714Y-68402380D01*
X87438095Y-68426190D01*
X87295238Y-68426190D01*
X87247619Y-68402380D01*
X87223809Y-68378571D01*
G04 #@! TO.C,Y1*
D13*
X95623809Y-69226190D02*
X95623809Y-69702380D01*
X95290476Y-68702380D02*
X95623809Y-69226190D01*
X95957142Y-68702380D01*
X96814285Y-69702380D02*
X96242857Y-69702380D01*
X96528571Y-69702380D02*
X96528571Y-68702380D01*
X96433333Y-68845238D01*
X96338095Y-68940476D01*
X96242857Y-68988095D01*
G04 #@! TO.C,J1*
D15*
X115033333Y-68126190D02*
X115033333Y-68483333D01*
X115009523Y-68554761D01*
X114961904Y-68602380D01*
X114890476Y-68626190D01*
X114842857Y-68626190D01*
X115533333Y-68626190D02*
X115247619Y-68626190D01*
X115390476Y-68626190D02*
X115390476Y-68126190D01*
X115342857Y-68197619D01*
X115295238Y-68245238D01*
X115247619Y-68269047D01*
G04 #@! TO.C,J4*
X85933333Y-94626190D02*
X85933333Y-94983333D01*
X85909523Y-95054761D01*
X85861904Y-95102380D01*
X85790476Y-95126190D01*
X85742857Y-95126190D01*
X86385714Y-94792857D02*
X86385714Y-95126190D01*
X86266666Y-94602380D02*
X86147619Y-94959523D01*
X86457142Y-94959523D01*
G04 #@! TO.C,TP1*
X117369047Y-100226190D02*
X117654761Y-100226190D01*
X117511904Y-100726190D02*
X117511904Y-100226190D01*
X117821428Y-100726190D02*
X117821428Y-100226190D01*
X118011904Y-100226190D01*
X118059523Y-100250000D01*
X118083333Y-100273809D01*
X118107142Y-100321428D01*
X118107142Y-100392857D01*
X118083333Y-100440476D01*
X118059523Y-100464285D01*
X118011904Y-100488095D01*
X117821428Y-100488095D01*
X118583333Y-100726190D02*
X118297619Y-100726190D01*
X118440476Y-100726190D02*
X118440476Y-100226190D01*
X118392857Y-100297619D01*
X118345238Y-100345238D01*
X118297619Y-100369047D01*
G04 #@! TO.C,TP2*
X99069047Y-91226190D02*
X99354761Y-91226190D01*
X99211904Y-91726190D02*
X99211904Y-91226190D01*
X99521428Y-91726190D02*
X99521428Y-91226190D01*
X99711904Y-91226190D01*
X99759523Y-91250000D01*
X99783333Y-91273809D01*
X99807142Y-91321428D01*
X99807142Y-91392857D01*
X99783333Y-91440476D01*
X99759523Y-91464285D01*
X99711904Y-91488095D01*
X99521428Y-91488095D01*
X99997619Y-91273809D02*
X100021428Y-91250000D01*
X100069047Y-91226190D01*
X100188095Y-91226190D01*
X100235714Y-91250000D01*
X100259523Y-91273809D01*
X100283333Y-91321428D01*
X100283333Y-91369047D01*
X100259523Y-91440476D01*
X99973809Y-91726190D01*
X100283333Y-91726190D01*
G04 #@! TO.C,TP3*
X115969047Y-88626190D02*
X116254761Y-88626190D01*
X116111904Y-89126190D02*
X116111904Y-88626190D01*
X116421428Y-89126190D02*
X116421428Y-88626190D01*
X116611904Y-88626190D01*
X116659523Y-88650000D01*
X116683333Y-88673809D01*
X116707142Y-88721428D01*
X116707142Y-88792857D01*
X116683333Y-88840476D01*
X116659523Y-88864285D01*
X116611904Y-88888095D01*
X116421428Y-88888095D01*
X116873809Y-88626190D02*
X117183333Y-88626190D01*
X117016666Y-88816666D01*
X117088095Y-88816666D01*
X117135714Y-88840476D01*
X117159523Y-88864285D01*
X117183333Y-88911904D01*
X117183333Y-89030952D01*
X117159523Y-89078571D01*
X117135714Y-89102380D01*
X117088095Y-89126190D01*
X116945238Y-89126190D01*
X116897619Y-89102380D01*
X116873809Y-89078571D01*
G04 #@! TO.C,TP4*
X113369047Y-62526190D02*
X113654761Y-62526190D01*
X113511904Y-63026190D02*
X113511904Y-62526190D01*
X113821428Y-63026190D02*
X113821428Y-62526190D01*
X114011904Y-62526190D01*
X114059523Y-62550000D01*
X114083333Y-62573809D01*
X114107142Y-62621428D01*
X114107142Y-62692857D01*
X114083333Y-62740476D01*
X114059523Y-62764285D01*
X114011904Y-62788095D01*
X113821428Y-62788095D01*
X114535714Y-62692857D02*
X114535714Y-63026190D01*
X114416666Y-62502380D02*
X114297619Y-62859523D01*
X114607142Y-62859523D01*
G04 #@! TO.C,TP5*
X117369047Y-62526190D02*
X117654761Y-62526190D01*
X117511904Y-63026190D02*
X117511904Y-62526190D01*
X117821428Y-63026190D02*
X117821428Y-62526190D01*
X118011904Y-62526190D01*
X118059523Y-62550000D01*
X118083333Y-62573809D01*
X118107142Y-62621428D01*
X118107142Y-62692857D01*
X118083333Y-62740476D01*
X118059523Y-62764285D01*
X118011904Y-62788095D01*
X117821428Y-62788095D01*
X118559523Y-62526190D02*
X118321428Y-62526190D01*
X118297619Y-62764285D01*
X118321428Y-62740476D01*
X118369047Y-62716666D01*
X118488095Y-62716666D01*
X118535714Y-62740476D01*
X118559523Y-62764285D01*
X118583333Y-62811904D01*
X118583333Y-62930952D01*
X118559523Y-62978571D01*
X118535714Y-63002380D01*
X118488095Y-63026190D01*
X118369047Y-63026190D01*
X118321428Y-63002380D01*
X118297619Y-62978571D01*
G04 #@! TO.C,J2*
X92833333Y-94826190D02*
X92833333Y-95183333D01*
X92809523Y-95254761D01*
X92761904Y-95302380D01*
X92690476Y-95326190D01*
X92642857Y-95326190D01*
X93047619Y-94873809D02*
X93071428Y-94850000D01*
X93119047Y-94826190D01*
X93238095Y-94826190D01*
X93285714Y-94850000D01*
X93309523Y-94873809D01*
X93333333Y-94921428D01*
X93333333Y-94969047D01*
X93309523Y-95040476D01*
X93023809Y-95326190D01*
X93333333Y-95326190D01*
G04 #@! TO.C,U3*
X93019047Y-70426190D02*
X93019047Y-70830952D01*
X93042857Y-70878571D01*
X93066666Y-70902380D01*
X93114285Y-70926190D01*
X93209523Y-70926190D01*
X93257142Y-70902380D01*
X93280952Y-70878571D01*
X93304761Y-70830952D01*
X93304761Y-70426190D01*
X93495238Y-70426190D02*
X93804761Y-70426190D01*
X93638095Y-70616666D01*
X93709523Y-70616666D01*
X93757142Y-70640476D01*
X93780952Y-70664285D01*
X93804761Y-70711904D01*
X93804761Y-70830952D01*
X93780952Y-70878571D01*
X93757142Y-70902380D01*
X93709523Y-70926190D01*
X93566666Y-70926190D01*
X93519047Y-70902380D01*
X93495238Y-70878571D01*
G04 #@! TO.C,U2*
X103526190Y-69180952D02*
X103930952Y-69180952D01*
X103978571Y-69157142D01*
X104002380Y-69133333D01*
X104026190Y-69085714D01*
X104026190Y-68990476D01*
X104002380Y-68942857D01*
X103978571Y-68919047D01*
X103930952Y-68895238D01*
X103526190Y-68895238D01*
X103573809Y-68680952D02*
X103550000Y-68657142D01*
X103526190Y-68609523D01*
X103526190Y-68490476D01*
X103550000Y-68442857D01*
X103573809Y-68419047D01*
X103621428Y-68395238D01*
X103669047Y-68395238D01*
X103740476Y-68419047D01*
X104026190Y-68704761D01*
X104026190Y-68395238D01*
G04 #@! TO.C,C5*
X94316666Y-69178571D02*
X94292857Y-69202380D01*
X94221428Y-69226190D01*
X94173809Y-69226190D01*
X94102380Y-69202380D01*
X94054761Y-69154761D01*
X94030952Y-69107142D01*
X94007142Y-69011904D01*
X94007142Y-68940476D01*
X94030952Y-68845238D01*
X94054761Y-68797619D01*
X94102380Y-68750000D01*
X94173809Y-68726190D01*
X94221428Y-68726190D01*
X94292857Y-68750000D01*
X94316666Y-68773809D01*
X94769047Y-68726190D02*
X94530952Y-68726190D01*
X94507142Y-68964285D01*
X94530952Y-68940476D01*
X94578571Y-68916666D01*
X94697619Y-68916666D01*
X94745238Y-68940476D01*
X94769047Y-68964285D01*
X94792857Y-69011904D01*
X94792857Y-69130952D01*
X94769047Y-69178571D01*
X94745238Y-69202380D01*
X94697619Y-69226190D01*
X94578571Y-69226190D01*
X94530952Y-69202380D01*
X94507142Y-69178571D01*
G04 #@! TO.C,SW2*
X92633333Y-82502380D02*
X92704761Y-82526190D01*
X92823809Y-82526190D01*
X92871428Y-82502380D01*
X92895238Y-82478571D01*
X92919047Y-82430952D01*
X92919047Y-82383333D01*
X92895238Y-82335714D01*
X92871428Y-82311904D01*
X92823809Y-82288095D01*
X92728571Y-82264285D01*
X92680952Y-82240476D01*
X92657142Y-82216666D01*
X92633333Y-82169047D01*
X92633333Y-82121428D01*
X92657142Y-82073809D01*
X92680952Y-82050000D01*
X92728571Y-82026190D01*
X92847619Y-82026190D01*
X92919047Y-82050000D01*
X93085714Y-82026190D02*
X93204761Y-82526190D01*
X93300000Y-82169047D01*
X93395238Y-82526190D01*
X93514285Y-82026190D01*
X93680952Y-82073809D02*
X93704761Y-82050000D01*
X93752380Y-82026190D01*
X93871428Y-82026190D01*
X93919047Y-82050000D01*
X93942857Y-82073809D01*
X93966666Y-82121428D01*
X93966666Y-82169047D01*
X93942857Y-82240476D01*
X93657142Y-82526190D01*
X93966666Y-82526190D01*
G04 #@! TO.C,C2*
X103916666Y-92278571D02*
X103892857Y-92302380D01*
X103821428Y-92326190D01*
X103773809Y-92326190D01*
X103702380Y-92302380D01*
X103654761Y-92254761D01*
X103630952Y-92207142D01*
X103607142Y-92111904D01*
X103607142Y-92040476D01*
X103630952Y-91945238D01*
X103654761Y-91897619D01*
X103702380Y-91850000D01*
X103773809Y-91826190D01*
X103821428Y-91826190D01*
X103892857Y-91850000D01*
X103916666Y-91873809D01*
X104107142Y-91873809D02*
X104130952Y-91850000D01*
X104178571Y-91826190D01*
X104297619Y-91826190D01*
X104345238Y-91850000D01*
X104369047Y-91873809D01*
X104392857Y-91921428D01*
X104392857Y-91969047D01*
X104369047Y-92040476D01*
X104083333Y-92326190D01*
X104392857Y-92326190D01*
G04 #@! TO.C,C4*
X101716666Y-69178571D02*
X101692857Y-69202380D01*
X101621428Y-69226190D01*
X101573809Y-69226190D01*
X101502380Y-69202380D01*
X101454761Y-69154761D01*
X101430952Y-69107142D01*
X101407142Y-69011904D01*
X101407142Y-68940476D01*
X101430952Y-68845238D01*
X101454761Y-68797619D01*
X101502380Y-68750000D01*
X101573809Y-68726190D01*
X101621428Y-68726190D01*
X101692857Y-68750000D01*
X101716666Y-68773809D01*
X102145238Y-68892857D02*
X102145238Y-69226190D01*
X102026190Y-68702380D02*
X101907142Y-69059523D01*
X102216666Y-69059523D01*
G04 #@! TO.C,C6*
X111716666Y-68478571D02*
X111692857Y-68502380D01*
X111621428Y-68526190D01*
X111573809Y-68526190D01*
X111502380Y-68502380D01*
X111454761Y-68454761D01*
X111430952Y-68407142D01*
X111407142Y-68311904D01*
X111407142Y-68240476D01*
X111430952Y-68145238D01*
X111454761Y-68097619D01*
X111502380Y-68050000D01*
X111573809Y-68026190D01*
X111621428Y-68026190D01*
X111692857Y-68050000D01*
X111716666Y-68073809D01*
X112145238Y-68026190D02*
X112050000Y-68026190D01*
X112002380Y-68050000D01*
X111978571Y-68073809D01*
X111930952Y-68145238D01*
X111907142Y-68240476D01*
X111907142Y-68430952D01*
X111930952Y-68478571D01*
X111954761Y-68502380D01*
X112002380Y-68526190D01*
X112097619Y-68526190D01*
X112145238Y-68502380D01*
X112169047Y-68478571D01*
X112192857Y-68430952D01*
X112192857Y-68311904D01*
X112169047Y-68264285D01*
X112145238Y-68240476D01*
X112097619Y-68216666D01*
X112002380Y-68216666D01*
X111954761Y-68240476D01*
X111930952Y-68264285D01*
X111907142Y-68311904D01*
G04 #@! TO.C,C7*
X97416666Y-62378571D02*
X97392857Y-62402380D01*
X97321428Y-62426190D01*
X97273809Y-62426190D01*
X97202380Y-62402380D01*
X97154761Y-62354761D01*
X97130952Y-62307142D01*
X97107142Y-62211904D01*
X97107142Y-62140476D01*
X97130952Y-62045238D01*
X97154761Y-61997619D01*
X97202380Y-61950000D01*
X97273809Y-61926190D01*
X97321428Y-61926190D01*
X97392857Y-61950000D01*
X97416666Y-61973809D01*
X97583333Y-61926190D02*
X97916666Y-61926190D01*
X97702380Y-62426190D01*
G04 #@! TO.C,C8*
X94716666Y-62378571D02*
X94692857Y-62402380D01*
X94621428Y-62426190D01*
X94573809Y-62426190D01*
X94502380Y-62402380D01*
X94454761Y-62354761D01*
X94430952Y-62307142D01*
X94407142Y-62211904D01*
X94407142Y-62140476D01*
X94430952Y-62045238D01*
X94454761Y-61997619D01*
X94502380Y-61950000D01*
X94573809Y-61926190D01*
X94621428Y-61926190D01*
X94692857Y-61950000D01*
X94716666Y-61973809D01*
X95002380Y-62140476D02*
X94954761Y-62116666D01*
X94930952Y-62092857D01*
X94907142Y-62045238D01*
X94907142Y-62021428D01*
X94930952Y-61973809D01*
X94954761Y-61950000D01*
X95002380Y-61926190D01*
X95097619Y-61926190D01*
X95145238Y-61950000D01*
X95169047Y-61973809D01*
X95192857Y-62021428D01*
X95192857Y-62045238D01*
X95169047Y-62092857D01*
X95145238Y-62116666D01*
X95097619Y-62140476D01*
X95002380Y-62140476D01*
X94954761Y-62164285D01*
X94930952Y-62188095D01*
X94907142Y-62235714D01*
X94907142Y-62330952D01*
X94930952Y-62378571D01*
X94954761Y-62402380D01*
X95002380Y-62426190D01*
X95097619Y-62426190D01*
X95145238Y-62402380D01*
X95169047Y-62378571D01*
X95192857Y-62330952D01*
X95192857Y-62235714D01*
X95169047Y-62188095D01*
X95145238Y-62164285D01*
X95097619Y-62140476D01*
G04 #@! TO.C,C9*
X100116666Y-81778571D02*
X100092857Y-81802380D01*
X100021428Y-81826190D01*
X99973809Y-81826190D01*
X99902380Y-81802380D01*
X99854761Y-81754761D01*
X99830952Y-81707142D01*
X99807142Y-81611904D01*
X99807142Y-81540476D01*
X99830952Y-81445238D01*
X99854761Y-81397619D01*
X99902380Y-81350000D01*
X99973809Y-81326190D01*
X100021428Y-81326190D01*
X100092857Y-81350000D01*
X100116666Y-81373809D01*
X100354761Y-81826190D02*
X100450000Y-81826190D01*
X100497619Y-81802380D01*
X100521428Y-81778571D01*
X100569047Y-81707142D01*
X100592857Y-81611904D01*
X100592857Y-81421428D01*
X100569047Y-81373809D01*
X100545238Y-81350000D01*
X100497619Y-81326190D01*
X100402380Y-81326190D01*
X100354761Y-81350000D01*
X100330952Y-81373809D01*
X100307142Y-81421428D01*
X100307142Y-81540476D01*
X100330952Y-81588095D01*
X100354761Y-81611904D01*
X100402380Y-81635714D01*
X100497619Y-81635714D01*
X100545238Y-81611904D01*
X100569047Y-81588095D01*
X100592857Y-81540476D01*
G04 #@! TO.C,C1*
X103816666Y-93978571D02*
X103792857Y-94002380D01*
X103721428Y-94026190D01*
X103673809Y-94026190D01*
X103602380Y-94002380D01*
X103554761Y-93954761D01*
X103530952Y-93907142D01*
X103507142Y-93811904D01*
X103507142Y-93740476D01*
X103530952Y-93645238D01*
X103554761Y-93597619D01*
X103602380Y-93550000D01*
X103673809Y-93526190D01*
X103721428Y-93526190D01*
X103792857Y-93550000D01*
X103816666Y-93573809D01*
X104292857Y-94026190D02*
X104007142Y-94026190D01*
X104150000Y-94026190D02*
X104150000Y-93526190D01*
X104102380Y-93597619D01*
X104054761Y-93645238D01*
X104007142Y-93669047D01*
G04 #@! TO.C,C3*
X98878571Y-87983333D02*
X98902380Y-88007142D01*
X98926190Y-88078571D01*
X98926190Y-88126190D01*
X98902380Y-88197619D01*
X98854761Y-88245238D01*
X98807142Y-88269047D01*
X98711904Y-88292857D01*
X98640476Y-88292857D01*
X98545238Y-88269047D01*
X98497619Y-88245238D01*
X98450000Y-88197619D01*
X98426190Y-88126190D01*
X98426190Y-88078571D01*
X98450000Y-88007142D01*
X98473809Y-87983333D01*
X98426190Y-87816666D02*
X98426190Y-87507142D01*
X98616666Y-87673809D01*
X98616666Y-87602380D01*
X98640476Y-87554761D01*
X98664285Y-87530952D01*
X98711904Y-87507142D01*
X98830952Y-87507142D01*
X98878571Y-87530952D01*
X98902380Y-87554761D01*
X98926190Y-87602380D01*
X98926190Y-87745238D01*
X98902380Y-87792857D01*
X98878571Y-87816666D01*
G04 #@! TO.C,D1*
X111430952Y-93226190D02*
X111430952Y-92726190D01*
X111550000Y-92726190D01*
X111621428Y-92750000D01*
X111669047Y-92797619D01*
X111692857Y-92845238D01*
X111716666Y-92940476D01*
X111716666Y-93011904D01*
X111692857Y-93107142D01*
X111669047Y-93154761D01*
X111621428Y-93202380D01*
X111550000Y-93226190D01*
X111430952Y-93226190D01*
X112192857Y-93226190D02*
X111907142Y-93226190D01*
X112050000Y-93226190D02*
X112050000Y-92726190D01*
X112002380Y-92797619D01*
X111954761Y-92845238D01*
X111907142Y-92869047D01*
G04 #@! TO.C,JP1*
X109658333Y-76426190D02*
X109658333Y-76783333D01*
X109634523Y-76854761D01*
X109586904Y-76902380D01*
X109515476Y-76926190D01*
X109467857Y-76926190D01*
X109896428Y-76926190D02*
X109896428Y-76426190D01*
X110086904Y-76426190D01*
X110134523Y-76450000D01*
X110158333Y-76473809D01*
X110182142Y-76521428D01*
X110182142Y-76592857D01*
X110158333Y-76640476D01*
X110134523Y-76664285D01*
X110086904Y-76688095D01*
X109896428Y-76688095D01*
X110658333Y-76926190D02*
X110372619Y-76926190D01*
X110515476Y-76926190D02*
X110515476Y-76426190D01*
X110467857Y-76497619D01*
X110420238Y-76545238D01*
X110372619Y-76569047D01*
G04 #@! TO.C,D8*
X123530952Y-83726190D02*
X123530952Y-83226190D01*
X123650000Y-83226190D01*
X123721428Y-83250000D01*
X123769047Y-83297619D01*
X123792857Y-83345238D01*
X123816666Y-83440476D01*
X123816666Y-83511904D01*
X123792857Y-83607142D01*
X123769047Y-83654761D01*
X123721428Y-83702380D01*
X123650000Y-83726190D01*
X123530952Y-83726190D01*
X124102380Y-83440476D02*
X124054761Y-83416666D01*
X124030952Y-83392857D01*
X124007142Y-83345238D01*
X124007142Y-83321428D01*
X124030952Y-83273809D01*
X124054761Y-83250000D01*
X124102380Y-83226190D01*
X124197619Y-83226190D01*
X124245238Y-83250000D01*
X124269047Y-83273809D01*
X124292857Y-83321428D01*
X124292857Y-83345238D01*
X124269047Y-83392857D01*
X124245238Y-83416666D01*
X124197619Y-83440476D01*
X124102380Y-83440476D01*
X124054761Y-83464285D01*
X124030952Y-83488095D01*
X124007142Y-83535714D01*
X124007142Y-83630952D01*
X124030952Y-83678571D01*
X124054761Y-83702380D01*
X124102380Y-83726190D01*
X124197619Y-83726190D01*
X124245238Y-83702380D01*
X124269047Y-83678571D01*
X124292857Y-83630952D01*
X124292857Y-83535714D01*
X124269047Y-83488095D01*
X124245238Y-83464285D01*
X124197619Y-83440476D01*
G04 #@! TO.C,D4*
X107930952Y-77426190D02*
X107930952Y-76926190D01*
X108050000Y-76926190D01*
X108121428Y-76950000D01*
X108169047Y-76997619D01*
X108192857Y-77045238D01*
X108216666Y-77140476D01*
X108216666Y-77211904D01*
X108192857Y-77307142D01*
X108169047Y-77354761D01*
X108121428Y-77402380D01*
X108050000Y-77426190D01*
X107930952Y-77426190D01*
X108645238Y-77092857D02*
X108645238Y-77426190D01*
X108526190Y-76902380D02*
X108407142Y-77259523D01*
X108716666Y-77259523D01*
G04 #@! TO.C,D3*
X107830952Y-82126190D02*
X107830952Y-81626190D01*
X107950000Y-81626190D01*
X108021428Y-81650000D01*
X108069047Y-81697619D01*
X108092857Y-81745238D01*
X108116666Y-81840476D01*
X108116666Y-81911904D01*
X108092857Y-82007142D01*
X108069047Y-82054761D01*
X108021428Y-82102380D01*
X107950000Y-82126190D01*
X107830952Y-82126190D01*
X108283333Y-81626190D02*
X108592857Y-81626190D01*
X108426190Y-81816666D01*
X108497619Y-81816666D01*
X108545238Y-81840476D01*
X108569047Y-81864285D01*
X108592857Y-81911904D01*
X108592857Y-82030952D01*
X108569047Y-82078571D01*
X108545238Y-82102380D01*
X108497619Y-82126190D01*
X108354761Y-82126190D01*
X108307142Y-82102380D01*
X108283333Y-82078571D01*
G04 #@! TO.C,U1*
X101419047Y-84126190D02*
X101419047Y-84530952D01*
X101442857Y-84578571D01*
X101466666Y-84602380D01*
X101514285Y-84626190D01*
X101609523Y-84626190D01*
X101657142Y-84602380D01*
X101680952Y-84578571D01*
X101704761Y-84530952D01*
X101704761Y-84126190D01*
X102204761Y-84626190D02*
X101919047Y-84626190D01*
X102061904Y-84626190D02*
X102061904Y-84126190D01*
X102014285Y-84197619D01*
X101966666Y-84245238D01*
X101919047Y-84269047D01*
G04 #@! TO.C,D2*
X104830952Y-75726190D02*
X104830952Y-75226190D01*
X104950000Y-75226190D01*
X105021428Y-75250000D01*
X105069047Y-75297619D01*
X105092857Y-75345238D01*
X105116666Y-75440476D01*
X105116666Y-75511904D01*
X105092857Y-75607142D01*
X105069047Y-75654761D01*
X105021428Y-75702380D01*
X104950000Y-75726190D01*
X104830952Y-75726190D01*
X105307142Y-75273809D02*
X105330952Y-75250000D01*
X105378571Y-75226190D01*
X105497619Y-75226190D01*
X105545238Y-75250000D01*
X105569047Y-75273809D01*
X105592857Y-75321428D01*
X105592857Y-75369047D01*
X105569047Y-75440476D01*
X105283333Y-75726190D01*
X105592857Y-75726190D01*
G04 #@! TO.C,D6*
X90530952Y-79326190D02*
X90530952Y-78826190D01*
X90650000Y-78826190D01*
X90721428Y-78850000D01*
X90769047Y-78897619D01*
X90792857Y-78945238D01*
X90816666Y-79040476D01*
X90816666Y-79111904D01*
X90792857Y-79207142D01*
X90769047Y-79254761D01*
X90721428Y-79302380D01*
X90650000Y-79326190D01*
X90530952Y-79326190D01*
X91245238Y-78826190D02*
X91150000Y-78826190D01*
X91102380Y-78850000D01*
X91078571Y-78873809D01*
X91030952Y-78945238D01*
X91007142Y-79040476D01*
X91007142Y-79230952D01*
X91030952Y-79278571D01*
X91054761Y-79302380D01*
X91102380Y-79326190D01*
X91197619Y-79326190D01*
X91245238Y-79302380D01*
X91269047Y-79278571D01*
X91292857Y-79230952D01*
X91292857Y-79111904D01*
X91269047Y-79064285D01*
X91245238Y-79040476D01*
X91197619Y-79016666D01*
X91102380Y-79016666D01*
X91054761Y-79040476D01*
X91030952Y-79064285D01*
X91007142Y-79111904D01*
G04 #@! TO.C,Q1*
X109352380Y-62473809D02*
X109304761Y-62450000D01*
X109257142Y-62402380D01*
X109185714Y-62330952D01*
X109138095Y-62307142D01*
X109090476Y-62307142D01*
X109114285Y-62426190D02*
X109066666Y-62402380D01*
X109019047Y-62354761D01*
X108995238Y-62259523D01*
X108995238Y-62092857D01*
X109019047Y-61997619D01*
X109066666Y-61950000D01*
X109114285Y-61926190D01*
X109209523Y-61926190D01*
X109257142Y-61950000D01*
X109304761Y-61997619D01*
X109328571Y-62092857D01*
X109328571Y-62259523D01*
X109304761Y-62354761D01*
X109257142Y-62402380D01*
X109209523Y-62426190D01*
X109114285Y-62426190D01*
X109804761Y-62426190D02*
X109519047Y-62426190D01*
X109661904Y-62426190D02*
X109661904Y-61926190D01*
X109614285Y-61997619D01*
X109566666Y-62045238D01*
X109519047Y-62069047D01*
G04 #@! TO.C,D5*
X90430952Y-71526190D02*
X90430952Y-71026190D01*
X90550000Y-71026190D01*
X90621428Y-71050000D01*
X90669047Y-71097619D01*
X90692857Y-71145238D01*
X90716666Y-71240476D01*
X90716666Y-71311904D01*
X90692857Y-71407142D01*
X90669047Y-71454761D01*
X90621428Y-71502380D01*
X90550000Y-71526190D01*
X90430952Y-71526190D01*
X91169047Y-71026190D02*
X90930952Y-71026190D01*
X90907142Y-71264285D01*
X90930952Y-71240476D01*
X90978571Y-71216666D01*
X91097619Y-71216666D01*
X91145238Y-71240476D01*
X91169047Y-71264285D01*
X91192857Y-71311904D01*
X91192857Y-71430952D01*
X91169047Y-71478571D01*
X91145238Y-71502380D01*
X91097619Y-71526190D01*
X90978571Y-71526190D01*
X90930952Y-71502380D01*
X90907142Y-71478571D01*
G04 #@! TO.C,R1*
X110416666Y-72526190D02*
X110250000Y-72288095D01*
X110130952Y-72526190D02*
X110130952Y-72026190D01*
X110321428Y-72026190D01*
X110369047Y-72050000D01*
X110392857Y-72073809D01*
X110416666Y-72121428D01*
X110416666Y-72192857D01*
X110392857Y-72240476D01*
X110369047Y-72264285D01*
X110321428Y-72288095D01*
X110130952Y-72288095D01*
X110892857Y-72526190D02*
X110607142Y-72526190D01*
X110750000Y-72526190D02*
X110750000Y-72026190D01*
X110702380Y-72097619D01*
X110654761Y-72145238D01*
X110607142Y-72169047D01*
G04 #@! TO.C,R4*
X104226190Y-63383333D02*
X103988095Y-63550000D01*
X104226190Y-63669047D02*
X103726190Y-63669047D01*
X103726190Y-63478571D01*
X103750000Y-63430952D01*
X103773809Y-63407142D01*
X103821428Y-63383333D01*
X103892857Y-63383333D01*
X103940476Y-63407142D01*
X103964285Y-63430952D01*
X103988095Y-63478571D01*
X103988095Y-63669047D01*
X103892857Y-62954761D02*
X104226190Y-62954761D01*
X103702380Y-63073809D02*
X104059523Y-63192857D01*
X104059523Y-62883333D01*
G04 #@! TO.C,R7*
X120716666Y-83726190D02*
X120550000Y-83488095D01*
X120430952Y-83726190D02*
X120430952Y-83226190D01*
X120621428Y-83226190D01*
X120669047Y-83250000D01*
X120692857Y-83273809D01*
X120716666Y-83321428D01*
X120716666Y-83392857D01*
X120692857Y-83440476D01*
X120669047Y-83464285D01*
X120621428Y-83488095D01*
X120430952Y-83488095D01*
X120883333Y-83226190D02*
X121216666Y-83226190D01*
X121002380Y-83726190D01*
G04 #@! TO.C,R6*
X104016666Y-78926190D02*
X103850000Y-78688095D01*
X103730952Y-78926190D02*
X103730952Y-78426190D01*
X103921428Y-78426190D01*
X103969047Y-78450000D01*
X103992857Y-78473809D01*
X104016666Y-78521428D01*
X104016666Y-78592857D01*
X103992857Y-78640476D01*
X103969047Y-78664285D01*
X103921428Y-78688095D01*
X103730952Y-78688095D01*
X104445238Y-78426190D02*
X104350000Y-78426190D01*
X104302380Y-78450000D01*
X104278571Y-78473809D01*
X104230952Y-78545238D01*
X104207142Y-78640476D01*
X104207142Y-78830952D01*
X104230952Y-78878571D01*
X104254761Y-78902380D01*
X104302380Y-78926190D01*
X104397619Y-78926190D01*
X104445238Y-78902380D01*
X104469047Y-78878571D01*
X104492857Y-78830952D01*
X104492857Y-78711904D01*
X104469047Y-78664285D01*
X104445238Y-78640476D01*
X104397619Y-78616666D01*
X104302380Y-78616666D01*
X104254761Y-78640476D01*
X104230952Y-78664285D01*
X104207142Y-78711904D01*
G04 #@! TO.C,R5*
X104016666Y-80426190D02*
X103850000Y-80188095D01*
X103730952Y-80426190D02*
X103730952Y-79926190D01*
X103921428Y-79926190D01*
X103969047Y-79950000D01*
X103992857Y-79973809D01*
X104016666Y-80021428D01*
X104016666Y-80092857D01*
X103992857Y-80140476D01*
X103969047Y-80164285D01*
X103921428Y-80188095D01*
X103730952Y-80188095D01*
X104469047Y-79926190D02*
X104230952Y-79926190D01*
X104207142Y-80164285D01*
X104230952Y-80140476D01*
X104278571Y-80116666D01*
X104397619Y-80116666D01*
X104445238Y-80140476D01*
X104469047Y-80164285D01*
X104492857Y-80211904D01*
X104492857Y-80330952D01*
X104469047Y-80378571D01*
X104445238Y-80402380D01*
X104397619Y-80426190D01*
X104278571Y-80426190D01*
X104230952Y-80402380D01*
X104207142Y-80378571D01*
G04 #@! TO.C,R3*
X111716666Y-67826190D02*
X111550000Y-67588095D01*
X111430952Y-67826190D02*
X111430952Y-67326190D01*
X111621428Y-67326190D01*
X111669047Y-67350000D01*
X111692857Y-67373809D01*
X111716666Y-67421428D01*
X111716666Y-67492857D01*
X111692857Y-67540476D01*
X111669047Y-67564285D01*
X111621428Y-67588095D01*
X111430952Y-67588095D01*
X111883333Y-67326190D02*
X112192857Y-67326190D01*
X112026190Y-67516666D01*
X112097619Y-67516666D01*
X112145238Y-67540476D01*
X112169047Y-67564285D01*
X112192857Y-67611904D01*
X112192857Y-67730952D01*
X112169047Y-67778571D01*
X112145238Y-67802380D01*
X112097619Y-67826190D01*
X111954761Y-67826190D01*
X111907142Y-67802380D01*
X111883333Y-67778571D01*
G04 #@! TO.C,R2*
X98896190Y-84883333D02*
X98658095Y-85050000D01*
X98896190Y-85169047D02*
X98396190Y-85169047D01*
X98396190Y-84978571D01*
X98420000Y-84930952D01*
X98443809Y-84907142D01*
X98491428Y-84883333D01*
X98562857Y-84883333D01*
X98610476Y-84907142D01*
X98634285Y-84930952D01*
X98658095Y-84978571D01*
X98658095Y-85169047D01*
X98443809Y-84692857D02*
X98420000Y-84669047D01*
X98396190Y-84621428D01*
X98396190Y-84502380D01*
X98420000Y-84454761D01*
X98443809Y-84430952D01*
X98491428Y-84407142D01*
X98539047Y-84407142D01*
X98610476Y-84430952D01*
X98896190Y-84716666D01*
X98896190Y-84407142D01*
G04 #@! TD*
M02*
