G04 #@! TF.GenerationSoftware,KiCad,Pcbnew,(5.0.2)-1*
G04 #@! TF.CreationDate,2019-05-09T18:05:01+02:00*
G04 #@! TF.ProjectId,MotorController,4d6f746f-7243-46f6-9e74-726f6c6c6572,rev?*
G04 #@! TF.SameCoordinates,Original*
G04 #@! TF.FileFunction,Legend,Top*
G04 #@! TF.FilePolarity,Positive*
%FSLAX46Y46*%
G04 Gerber Fmt 4.6, Leading zero omitted, Abs format (unit mm)*
G04 Created by KiCad (PCBNEW (5.0.2)-1) date 09.05.2019 18:05:01*
%MOMM*%
%LPD*%
G01*
G04 APERTURE LIST*
%ADD10C,0.300000*%
%ADD11C,0.010000*%
%ADD12C,0.150000*%
%ADD13C,0.120000*%
%ADD14C,0.100000*%
G04 APERTURE END LIST*
D10*
X84826190Y-98211904D02*
X85183333Y-98330952D01*
X85778571Y-98330952D01*
X86016666Y-98211904D01*
X86135714Y-98092857D01*
X86254761Y-97854761D01*
X86254761Y-97616666D01*
X86135714Y-97378571D01*
X86016666Y-97259523D01*
X85778571Y-97140476D01*
X85302380Y-97021428D01*
X85064285Y-96902380D01*
X84945238Y-96783333D01*
X84826190Y-96545238D01*
X84826190Y-96307142D01*
X84945238Y-96069047D01*
X85064285Y-95950000D01*
X85302380Y-95830952D01*
X85897619Y-95830952D01*
X86254761Y-95950000D01*
X87326190Y-97021428D02*
X88159523Y-97021428D01*
X88516666Y-98330952D02*
X87326190Y-98330952D01*
X87326190Y-95830952D01*
X88516666Y-95830952D01*
X89588095Y-98330952D02*
X89588095Y-95830952D01*
X90421428Y-97616666D01*
X91254761Y-95830952D01*
X91254761Y-98330952D01*
D11*
G04 #@! TO.C,G1*
G36*
X124028601Y-90373010D02*
X124039822Y-90256518D01*
X124059344Y-90154438D01*
X124060368Y-90150506D01*
X124073897Y-90104751D01*
X124093166Y-90046644D01*
X124115966Y-89982118D01*
X124140088Y-89917106D01*
X124163322Y-89857542D01*
X124183459Y-89809359D01*
X124198289Y-89778490D01*
X124199949Y-89775671D01*
X124211973Y-89768463D01*
X124239394Y-89764078D01*
X124285368Y-89762275D01*
X124353049Y-89762812D01*
X124364753Y-89763067D01*
X124519554Y-89766650D01*
X124454161Y-89855550D01*
X124382393Y-89966717D01*
X124321376Y-90088173D01*
X124275901Y-90209963D01*
X124265228Y-90248107D01*
X124248657Y-90338264D01*
X124240579Y-90438848D01*
X124241113Y-90540305D01*
X124250379Y-90633083D01*
X124259819Y-90679217D01*
X124303039Y-90798403D01*
X124367046Y-90904439D01*
X124450425Y-90996515D01*
X124551764Y-91073821D01*
X124669647Y-91135547D01*
X124802660Y-91180884D01*
X124949391Y-91209020D01*
X125108424Y-91219148D01*
X125198550Y-91216864D01*
X125361940Y-91198464D01*
X125508788Y-91162465D01*
X125638449Y-91109334D01*
X125750280Y-91039536D01*
X125843640Y-90953536D01*
X125917884Y-90851799D01*
X125972371Y-90734792D01*
X126000030Y-90636600D01*
X126011832Y-90547992D01*
X126014048Y-90446208D01*
X126007018Y-90341452D01*
X125991083Y-90243928D01*
X125986261Y-90223850D01*
X125957444Y-90138055D01*
X125914298Y-90043369D01*
X125861121Y-89948176D01*
X125802211Y-89860855D01*
X125795784Y-89852375D01*
X125725136Y-89760300D01*
X126039339Y-89760300D01*
X126078546Y-89846025D01*
X126120423Y-89941232D01*
X126152385Y-90023235D01*
X126177543Y-90100633D01*
X126196660Y-90172306D01*
X126209870Y-90242638D01*
X126219885Y-90328138D01*
X126226294Y-90420610D01*
X126228682Y-90511859D01*
X126226637Y-90593692D01*
X126220803Y-90651663D01*
X126192111Y-90790587D01*
X126152070Y-90910848D01*
X126098158Y-91017596D01*
X126027858Y-91115984D01*
X125954840Y-91195400D01*
X125862331Y-91278955D01*
X125777767Y-91338579D01*
X125757132Y-91350131D01*
X125627402Y-91406231D01*
X125481774Y-91447623D01*
X125325256Y-91474024D01*
X125162856Y-91485150D01*
X124999582Y-91480717D01*
X124840444Y-91460443D01*
X124690450Y-91424043D01*
X124655303Y-91412507D01*
X124512269Y-91350162D01*
X124385378Y-91268602D01*
X124275713Y-91169065D01*
X124184354Y-91052787D01*
X124112380Y-90921005D01*
X124060873Y-90774954D01*
X124046947Y-90716241D01*
X124031944Y-90612143D01*
X124025902Y-90494643D01*
X124028601Y-90373010D01*
X124028601Y-90373010D01*
G37*
X124028601Y-90373010D02*
X124039822Y-90256518D01*
X124059344Y-90154438D01*
X124060368Y-90150506D01*
X124073897Y-90104751D01*
X124093166Y-90046644D01*
X124115966Y-89982118D01*
X124140088Y-89917106D01*
X124163322Y-89857542D01*
X124183459Y-89809359D01*
X124198289Y-89778490D01*
X124199949Y-89775671D01*
X124211973Y-89768463D01*
X124239394Y-89764078D01*
X124285368Y-89762275D01*
X124353049Y-89762812D01*
X124364753Y-89763067D01*
X124519554Y-89766650D01*
X124454161Y-89855550D01*
X124382393Y-89966717D01*
X124321376Y-90088173D01*
X124275901Y-90209963D01*
X124265228Y-90248107D01*
X124248657Y-90338264D01*
X124240579Y-90438848D01*
X124241113Y-90540305D01*
X124250379Y-90633083D01*
X124259819Y-90679217D01*
X124303039Y-90798403D01*
X124367046Y-90904439D01*
X124450425Y-90996515D01*
X124551764Y-91073821D01*
X124669647Y-91135547D01*
X124802660Y-91180884D01*
X124949391Y-91209020D01*
X125108424Y-91219148D01*
X125198550Y-91216864D01*
X125361940Y-91198464D01*
X125508788Y-91162465D01*
X125638449Y-91109334D01*
X125750280Y-91039536D01*
X125843640Y-90953536D01*
X125917884Y-90851799D01*
X125972371Y-90734792D01*
X126000030Y-90636600D01*
X126011832Y-90547992D01*
X126014048Y-90446208D01*
X126007018Y-90341452D01*
X125991083Y-90243928D01*
X125986261Y-90223850D01*
X125957444Y-90138055D01*
X125914298Y-90043369D01*
X125861121Y-89948176D01*
X125802211Y-89860855D01*
X125795784Y-89852375D01*
X125725136Y-89760300D01*
X126039339Y-89760300D01*
X126078546Y-89846025D01*
X126120423Y-89941232D01*
X126152385Y-90023235D01*
X126177543Y-90100633D01*
X126196660Y-90172306D01*
X126209870Y-90242638D01*
X126219885Y-90328138D01*
X126226294Y-90420610D01*
X126228682Y-90511859D01*
X126226637Y-90593692D01*
X126220803Y-90651663D01*
X126192111Y-90790587D01*
X126152070Y-90910848D01*
X126098158Y-91017596D01*
X126027858Y-91115984D01*
X125954840Y-91195400D01*
X125862331Y-91278955D01*
X125777767Y-91338579D01*
X125757132Y-91350131D01*
X125627402Y-91406231D01*
X125481774Y-91447623D01*
X125325256Y-91474024D01*
X125162856Y-91485150D01*
X124999582Y-91480717D01*
X124840444Y-91460443D01*
X124690450Y-91424043D01*
X124655303Y-91412507D01*
X124512269Y-91350162D01*
X124385378Y-91268602D01*
X124275713Y-91169065D01*
X124184354Y-91052787D01*
X124112380Y-90921005D01*
X124060873Y-90774954D01*
X124046947Y-90716241D01*
X124031944Y-90612143D01*
X124025902Y-90494643D01*
X124028601Y-90373010D01*
G36*
X121503607Y-86955950D02*
X121524304Y-86734511D01*
X121564693Y-86517183D01*
X121624542Y-86308702D01*
X121625162Y-86306899D01*
X121659303Y-86218383D01*
X121704269Y-86117365D01*
X121756394Y-86010991D01*
X121812009Y-85906404D01*
X121867448Y-85810752D01*
X121919041Y-85731177D01*
X121925037Y-85722717D01*
X122044820Y-85571169D01*
X122182033Y-85424432D01*
X122330756Y-85288088D01*
X122485070Y-85167723D01*
X122582350Y-85102701D01*
X122792844Y-84986005D01*
X123010901Y-84892833D01*
X123234777Y-84823076D01*
X123462731Y-84776624D01*
X123693020Y-84753365D01*
X123923903Y-84753190D01*
X124153637Y-84775989D01*
X124380480Y-84821651D01*
X124602691Y-84890067D01*
X124818527Y-84981126D01*
X125026246Y-85094718D01*
X125224106Y-85230733D01*
X125277945Y-85273179D01*
X125362310Y-85346049D01*
X125448144Y-85427956D01*
X125529453Y-85512718D01*
X125600245Y-85594155D01*
X125643292Y-85649974D01*
X125669951Y-85685431D01*
X125691491Y-85710953D01*
X125703303Y-85721085D01*
X125703375Y-85721091D01*
X125706816Y-85709383D01*
X125709703Y-85676826D01*
X125711790Y-85627972D01*
X125712829Y-85567368D01*
X125712900Y-85546017D01*
X125713287Y-85474793D01*
X125714716Y-85425303D01*
X125717581Y-85393889D01*
X125722280Y-85376892D01*
X125729209Y-85370655D01*
X125731950Y-85370334D01*
X125742423Y-85375664D01*
X125748354Y-85394785D01*
X125750777Y-85432397D01*
X125751000Y-85456824D01*
X125751000Y-85543314D01*
X125976261Y-85546782D01*
X126058406Y-85548333D01*
X126118494Y-85550305D01*
X126159867Y-85553037D01*
X126185870Y-85556866D01*
X126199844Y-85562131D01*
X126205132Y-85569169D01*
X126205300Y-85569920D01*
X126203725Y-85592498D01*
X126200172Y-85598495D01*
X126185139Y-85601403D01*
X126149014Y-85603913D01*
X126096103Y-85605858D01*
X126030715Y-85607071D01*
X125971133Y-85607400D01*
X125751000Y-85607400D01*
X125751000Y-85814800D01*
X124023800Y-85806486D01*
X122296599Y-85798172D01*
X122296600Y-86134586D01*
X122296600Y-86471000D01*
X122807775Y-86473963D01*
X122923117Y-86474625D01*
X123033710Y-86475245D01*
X123136239Y-86475808D01*
X123227392Y-86476294D01*
X123303855Y-86476688D01*
X123362316Y-86476970D01*
X123399462Y-86477123D01*
X123404696Y-86477138D01*
X123490443Y-86477350D01*
X123490421Y-87064725D01*
X123490400Y-87652100D01*
X121575715Y-87652100D01*
X121561986Y-87597576D01*
X121522216Y-87392219D01*
X121502833Y-87176765D01*
X121503607Y-86955950D01*
X121503607Y-86955950D01*
G37*
X121503607Y-86955950D02*
X121524304Y-86734511D01*
X121564693Y-86517183D01*
X121624542Y-86308702D01*
X121625162Y-86306899D01*
X121659303Y-86218383D01*
X121704269Y-86117365D01*
X121756394Y-86010991D01*
X121812009Y-85906404D01*
X121867448Y-85810752D01*
X121919041Y-85731177D01*
X121925037Y-85722717D01*
X122044820Y-85571169D01*
X122182033Y-85424432D01*
X122330756Y-85288088D01*
X122485070Y-85167723D01*
X122582350Y-85102701D01*
X122792844Y-84986005D01*
X123010901Y-84892833D01*
X123234777Y-84823076D01*
X123462731Y-84776624D01*
X123693020Y-84753365D01*
X123923903Y-84753190D01*
X124153637Y-84775989D01*
X124380480Y-84821651D01*
X124602691Y-84890067D01*
X124818527Y-84981126D01*
X125026246Y-85094718D01*
X125224106Y-85230733D01*
X125277945Y-85273179D01*
X125362310Y-85346049D01*
X125448144Y-85427956D01*
X125529453Y-85512718D01*
X125600245Y-85594155D01*
X125643292Y-85649974D01*
X125669951Y-85685431D01*
X125691491Y-85710953D01*
X125703303Y-85721085D01*
X125703375Y-85721091D01*
X125706816Y-85709383D01*
X125709703Y-85676826D01*
X125711790Y-85627972D01*
X125712829Y-85567368D01*
X125712900Y-85546017D01*
X125713287Y-85474793D01*
X125714716Y-85425303D01*
X125717581Y-85393889D01*
X125722280Y-85376892D01*
X125729209Y-85370655D01*
X125731950Y-85370334D01*
X125742423Y-85375664D01*
X125748354Y-85394785D01*
X125750777Y-85432397D01*
X125751000Y-85456824D01*
X125751000Y-85543314D01*
X125976261Y-85546782D01*
X126058406Y-85548333D01*
X126118494Y-85550305D01*
X126159867Y-85553037D01*
X126185870Y-85556866D01*
X126199844Y-85562131D01*
X126205132Y-85569169D01*
X126205300Y-85569920D01*
X126203725Y-85592498D01*
X126200172Y-85598495D01*
X126185139Y-85601403D01*
X126149014Y-85603913D01*
X126096103Y-85605858D01*
X126030715Y-85607071D01*
X125971133Y-85607400D01*
X125751000Y-85607400D01*
X125751000Y-85814800D01*
X124023800Y-85806486D01*
X122296599Y-85798172D01*
X122296600Y-86134586D01*
X122296600Y-86471000D01*
X122807775Y-86473963D01*
X122923117Y-86474625D01*
X123033710Y-86475245D01*
X123136239Y-86475808D01*
X123227392Y-86476294D01*
X123303855Y-86476688D01*
X123362316Y-86476970D01*
X123399462Y-86477123D01*
X123404696Y-86477138D01*
X123490443Y-86477350D01*
X123490421Y-87064725D01*
X123490400Y-87652100D01*
X121575715Y-87652100D01*
X121561986Y-87597576D01*
X121522216Y-87392219D01*
X121502833Y-87176765D01*
X121503607Y-86955950D01*
G36*
X125713349Y-85063903D02*
X125715004Y-85018224D01*
X125718322Y-84990294D01*
X125723761Y-84976293D01*
X125731781Y-84972401D01*
X125731950Y-84972400D01*
X125740649Y-84976489D01*
X125746308Y-84991487D01*
X125749513Y-85021495D01*
X125750849Y-85070614D01*
X125751000Y-85105750D01*
X125751000Y-85239100D01*
X125916100Y-85239100D01*
X125916100Y-85112100D01*
X125916729Y-85052878D01*
X125919035Y-85014856D01*
X125923645Y-84993856D01*
X125931185Y-84985702D01*
X125935150Y-84985100D01*
X125944033Y-84989297D01*
X125949736Y-85004673D01*
X125952886Y-85035405D01*
X125954109Y-85085671D01*
X125954200Y-85112100D01*
X125954200Y-85239100D01*
X126157400Y-85239100D01*
X126157400Y-85104819D01*
X126157778Y-85044997D01*
X126159396Y-85006321D01*
X126162981Y-84984541D01*
X126169260Y-84975409D01*
X126178957Y-84974676D01*
X126179625Y-84974799D01*
X126189100Y-84979369D01*
X126195698Y-84991592D01*
X126200092Y-85015647D01*
X126202958Y-85055712D01*
X126204971Y-85115964D01*
X126205415Y-85134480D01*
X126208981Y-85289900D01*
X125712900Y-85289900D01*
X125712900Y-85131150D01*
X125713349Y-85063903D01*
X125713349Y-85063903D01*
G37*
X125713349Y-85063903D02*
X125715004Y-85018224D01*
X125718322Y-84990294D01*
X125723761Y-84976293D01*
X125731781Y-84972401D01*
X125731950Y-84972400D01*
X125740649Y-84976489D01*
X125746308Y-84991487D01*
X125749513Y-85021495D01*
X125750849Y-85070614D01*
X125751000Y-85105750D01*
X125751000Y-85239100D01*
X125916100Y-85239100D01*
X125916100Y-85112100D01*
X125916729Y-85052878D01*
X125919035Y-85014856D01*
X125923645Y-84993856D01*
X125931185Y-84985702D01*
X125935150Y-84985100D01*
X125944033Y-84989297D01*
X125949736Y-85004673D01*
X125952886Y-85035405D01*
X125954109Y-85085671D01*
X125954200Y-85112100D01*
X125954200Y-85239100D01*
X126157400Y-85239100D01*
X126157400Y-85104819D01*
X126157778Y-85044997D01*
X126159396Y-85006321D01*
X126162981Y-84984541D01*
X126169260Y-84975409D01*
X126178957Y-84974676D01*
X126179625Y-84974799D01*
X126189100Y-84979369D01*
X126195698Y-84991592D01*
X126200092Y-85015647D01*
X126202958Y-85055712D01*
X126204971Y-85115964D01*
X126205415Y-85134480D01*
X126208981Y-85289900D01*
X125712900Y-85289900D01*
X125712900Y-85131150D01*
X125713349Y-85063903D01*
G36*
X125949673Y-84584830D02*
X126022831Y-84557545D01*
X126087916Y-84533235D01*
X126141155Y-84513312D01*
X126178776Y-84499188D01*
X126197007Y-84492274D01*
X126197907Y-84491917D01*
X126205747Y-84499208D01*
X126208200Y-84517396D01*
X126204140Y-84535795D01*
X126188409Y-84550545D01*
X126155674Y-84565732D01*
X126135175Y-84573367D01*
X126062150Y-84599625D01*
X126062150Y-84823580D01*
X126135175Y-84849653D01*
X126180254Y-84868495D01*
X126203373Y-84885654D01*
X126208200Y-84898663D01*
X126200989Y-84917536D01*
X126192325Y-84920894D01*
X126175934Y-84916391D01*
X126139761Y-84904277D01*
X126087772Y-84885951D01*
X126023934Y-84862812D01*
X126006684Y-84856427D01*
X126006684Y-84803217D01*
X126013349Y-84795269D01*
X126016621Y-84772692D01*
X126017654Y-84730867D01*
X126017700Y-84712050D01*
X126017153Y-84662856D01*
X126014744Y-84634431D01*
X126009322Y-84622155D01*
X125999734Y-84621408D01*
X125995475Y-84622898D01*
X125973825Y-84631114D01*
X125935297Y-84645405D01*
X125886887Y-84663183D01*
X125867802Y-84670151D01*
X125821517Y-84687617D01*
X125786572Y-84701943D01*
X125768089Y-84710976D01*
X125766530Y-84712765D01*
X125779536Y-84718793D01*
X125810609Y-84731261D01*
X125853964Y-84747871D01*
X125871978Y-84754614D01*
X125921310Y-84773034D01*
X125963387Y-84788867D01*
X125991022Y-84799407D01*
X125995475Y-84801153D01*
X126006684Y-84803217D01*
X126006684Y-84856427D01*
X125952212Y-84836261D01*
X125947850Y-84834629D01*
X125868780Y-84804894D01*
X125810347Y-84782267D01*
X125769360Y-84765055D01*
X125742630Y-84751564D01*
X125726966Y-84740102D01*
X125719179Y-84728976D01*
X125716078Y-84716490D01*
X125715490Y-84711289D01*
X125711731Y-84673509D01*
X125949673Y-84584830D01*
X125949673Y-84584830D01*
G37*
X125949673Y-84584830D02*
X126022831Y-84557545D01*
X126087916Y-84533235D01*
X126141155Y-84513312D01*
X126178776Y-84499188D01*
X126197007Y-84492274D01*
X126197907Y-84491917D01*
X126205747Y-84499208D01*
X126208200Y-84517396D01*
X126204140Y-84535795D01*
X126188409Y-84550545D01*
X126155674Y-84565732D01*
X126135175Y-84573367D01*
X126062150Y-84599625D01*
X126062150Y-84823580D01*
X126135175Y-84849653D01*
X126180254Y-84868495D01*
X126203373Y-84885654D01*
X126208200Y-84898663D01*
X126200989Y-84917536D01*
X126192325Y-84920894D01*
X126175934Y-84916391D01*
X126139761Y-84904277D01*
X126087772Y-84885951D01*
X126023934Y-84862812D01*
X126006684Y-84856427D01*
X126006684Y-84803217D01*
X126013349Y-84795269D01*
X126016621Y-84772692D01*
X126017654Y-84730867D01*
X126017700Y-84712050D01*
X126017153Y-84662856D01*
X126014744Y-84634431D01*
X126009322Y-84622155D01*
X125999734Y-84621408D01*
X125995475Y-84622898D01*
X125973825Y-84631114D01*
X125935297Y-84645405D01*
X125886887Y-84663183D01*
X125867802Y-84670151D01*
X125821517Y-84687617D01*
X125786572Y-84701943D01*
X125768089Y-84710976D01*
X125766530Y-84712765D01*
X125779536Y-84718793D01*
X125810609Y-84731261D01*
X125853964Y-84747871D01*
X125871978Y-84754614D01*
X125921310Y-84773034D01*
X125963387Y-84788867D01*
X125991022Y-84799407D01*
X125995475Y-84801153D01*
X126006684Y-84803217D01*
X126006684Y-84856427D01*
X125952212Y-84836261D01*
X125947850Y-84834629D01*
X125868780Y-84804894D01*
X125810347Y-84782267D01*
X125769360Y-84765055D01*
X125742630Y-84751564D01*
X125726966Y-84740102D01*
X125719179Y-84728976D01*
X125716078Y-84716490D01*
X125715490Y-84711289D01*
X125711731Y-84673509D01*
X125949673Y-84584830D01*
G36*
X125714697Y-84362420D02*
X125722594Y-84348491D01*
X125740346Y-84333626D01*
X125771711Y-84315017D01*
X125820444Y-84289861D01*
X125852600Y-84273900D01*
X125906100Y-84246945D01*
X125950133Y-84223699D01*
X125980313Y-84206553D01*
X125992258Y-84197898D01*
X125992300Y-84197700D01*
X125981589Y-84189631D01*
X125952380Y-84172927D01*
X125909055Y-84149980D01*
X125855999Y-84123180D01*
X125852600Y-84121500D01*
X125793743Y-84092005D01*
X125754138Y-84070464D01*
X125730029Y-84054072D01*
X125717659Y-84040024D01*
X125713273Y-84025515D01*
X125712900Y-84017186D01*
X125712900Y-83981800D01*
X125960550Y-83981800D01*
X126045614Y-83981910D01*
X126108592Y-83982461D01*
X126152795Y-83983790D01*
X126181535Y-83986233D01*
X126198127Y-83990125D01*
X126205881Y-83995802D01*
X126208111Y-84003600D01*
X126208200Y-84006901D01*
X126206937Y-84016024D01*
X126200801Y-84022712D01*
X126186272Y-84027424D01*
X126159828Y-84030621D01*
X126117948Y-84032763D01*
X126057112Y-84034312D01*
X125989732Y-84035476D01*
X125771264Y-84038950D01*
X125919882Y-84111494D01*
X125975321Y-84139505D01*
X126021367Y-84164577D01*
X126053735Y-84184243D01*
X126068144Y-84196036D01*
X126068500Y-84197116D01*
X126057788Y-84207398D01*
X126028472Y-84226297D01*
X125984779Y-84251298D01*
X125930935Y-84279888D01*
X125919275Y-84285839D01*
X125770050Y-84361483D01*
X125989125Y-84362142D01*
X126068450Y-84362512D01*
X126125897Y-84363351D01*
X126164986Y-84365078D01*
X126189239Y-84368113D01*
X126202177Y-84372873D01*
X126207322Y-84379778D01*
X126208200Y-84388200D01*
X126207181Y-84396924D01*
X126201916Y-84403381D01*
X126189091Y-84407914D01*
X126165390Y-84410861D01*
X126127500Y-84412563D01*
X126072106Y-84413359D01*
X125995895Y-84413590D01*
X125960550Y-84413600D01*
X125712900Y-84413600D01*
X125712900Y-84378215D01*
X125714697Y-84362420D01*
X125714697Y-84362420D01*
G37*
X125714697Y-84362420D02*
X125722594Y-84348491D01*
X125740346Y-84333626D01*
X125771711Y-84315017D01*
X125820444Y-84289861D01*
X125852600Y-84273900D01*
X125906100Y-84246945D01*
X125950133Y-84223699D01*
X125980313Y-84206553D01*
X125992258Y-84197898D01*
X125992300Y-84197700D01*
X125981589Y-84189631D01*
X125952380Y-84172927D01*
X125909055Y-84149980D01*
X125855999Y-84123180D01*
X125852600Y-84121500D01*
X125793743Y-84092005D01*
X125754138Y-84070464D01*
X125730029Y-84054072D01*
X125717659Y-84040024D01*
X125713273Y-84025515D01*
X125712900Y-84017186D01*
X125712900Y-83981800D01*
X125960550Y-83981800D01*
X126045614Y-83981910D01*
X126108592Y-83982461D01*
X126152795Y-83983790D01*
X126181535Y-83986233D01*
X126198127Y-83990125D01*
X126205881Y-83995802D01*
X126208111Y-84003600D01*
X126208200Y-84006901D01*
X126206937Y-84016024D01*
X126200801Y-84022712D01*
X126186272Y-84027424D01*
X126159828Y-84030621D01*
X126117948Y-84032763D01*
X126057112Y-84034312D01*
X125989732Y-84035476D01*
X125771264Y-84038950D01*
X125919882Y-84111494D01*
X125975321Y-84139505D01*
X126021367Y-84164577D01*
X126053735Y-84184243D01*
X126068144Y-84196036D01*
X126068500Y-84197116D01*
X126057788Y-84207398D01*
X126028472Y-84226297D01*
X125984779Y-84251298D01*
X125930935Y-84279888D01*
X125919275Y-84285839D01*
X125770050Y-84361483D01*
X125989125Y-84362142D01*
X126068450Y-84362512D01*
X126125897Y-84363351D01*
X126164986Y-84365078D01*
X126189239Y-84368113D01*
X126202177Y-84372873D01*
X126207322Y-84379778D01*
X126208200Y-84388200D01*
X126207181Y-84396924D01*
X126201916Y-84403381D01*
X126189091Y-84407914D01*
X126165390Y-84410861D01*
X126127500Y-84412563D01*
X126072106Y-84413359D01*
X125995895Y-84413590D01*
X125960550Y-84413600D01*
X125712900Y-84413600D01*
X125712900Y-84378215D01*
X125714697Y-84362420D01*
G36*
X124277800Y-93456000D02*
X124277800Y-94218000D01*
X126195500Y-94218000D01*
X126195500Y-94484700D01*
X124277800Y-94484700D01*
X124277800Y-95240350D01*
X124061900Y-95240350D01*
X124061900Y-93456000D01*
X124277800Y-93456000D01*
X124277800Y-93456000D01*
G37*
X124277800Y-93456000D02*
X124277800Y-94218000D01*
X126195500Y-94218000D01*
X126195500Y-94484700D01*
X124277800Y-94484700D01*
X124277800Y-95240350D01*
X124061900Y-95240350D01*
X124061900Y-93456000D01*
X124277800Y-93456000D01*
G36*
X124277800Y-91766900D02*
X124277800Y-92897200D01*
X124912800Y-92897200D01*
X124912800Y-91792300D01*
X125141400Y-91792300D01*
X125141400Y-92897200D01*
X125966900Y-92897200D01*
X125966900Y-91766900D01*
X126195500Y-91766900D01*
X126195500Y-93151200D01*
X124061900Y-93151200D01*
X124061900Y-91766900D01*
X124277800Y-91766900D01*
X124277800Y-91766900D01*
G37*
X124277800Y-91766900D02*
X124277800Y-92897200D01*
X124912800Y-92897200D01*
X124912800Y-91792300D01*
X125141400Y-91792300D01*
X125141400Y-92897200D01*
X125966900Y-92897200D01*
X125966900Y-91766900D01*
X126195500Y-91766900D01*
X126195500Y-93151200D01*
X124061900Y-93151200D01*
X124061900Y-91766900D01*
X124277800Y-91766900D01*
G36*
X123602717Y-88328330D02*
X125331900Y-88325110D01*
X125331900Y-87652100D01*
X124163500Y-87652100D01*
X124163500Y-86483700D01*
X126053764Y-86483700D01*
X126072983Y-86569425D01*
X126097051Y-86700946D01*
X126114274Y-86845873D01*
X126124001Y-86994677D01*
X126125581Y-87137829D01*
X126119669Y-87252050D01*
X126085531Y-87497392D01*
X126028070Y-87732856D01*
X125947533Y-87957927D01*
X125844165Y-88172093D01*
X125718210Y-88374840D01*
X125569915Y-88565655D01*
X125412535Y-88731600D01*
X125266110Y-88862365D01*
X125116863Y-88974353D01*
X124956422Y-89073575D01*
X124874700Y-89117542D01*
X124653198Y-89217985D01*
X124426519Y-89294004D01*
X124196135Y-89345689D01*
X123963518Y-89373130D01*
X123730141Y-89376418D01*
X123497477Y-89355642D01*
X123266998Y-89310892D01*
X123040177Y-89242258D01*
X122818486Y-89149831D01*
X122603399Y-89033701D01*
X122507808Y-88972832D01*
X122411718Y-88902383D01*
X122308512Y-88815933D01*
X122204205Y-88719223D01*
X122104812Y-88617993D01*
X122016348Y-88517986D01*
X121969716Y-88459232D01*
X121873535Y-88331550D01*
X123602717Y-88328330D01*
X123602717Y-88328330D01*
G37*
X123602717Y-88328330D02*
X125331900Y-88325110D01*
X125331900Y-87652100D01*
X124163500Y-87652100D01*
X124163500Y-86483700D01*
X126053764Y-86483700D01*
X126072983Y-86569425D01*
X126097051Y-86700946D01*
X126114274Y-86845873D01*
X126124001Y-86994677D01*
X126125581Y-87137829D01*
X126119669Y-87252050D01*
X126085531Y-87497392D01*
X126028070Y-87732856D01*
X125947533Y-87957927D01*
X125844165Y-88172093D01*
X125718210Y-88374840D01*
X125569915Y-88565655D01*
X125412535Y-88731600D01*
X125266110Y-88862365D01*
X125116863Y-88974353D01*
X124956422Y-89073575D01*
X124874700Y-89117542D01*
X124653198Y-89217985D01*
X124426519Y-89294004D01*
X124196135Y-89345689D01*
X123963518Y-89373130D01*
X123730141Y-89376418D01*
X123497477Y-89355642D01*
X123266998Y-89310892D01*
X123040177Y-89242258D01*
X122818486Y-89149831D01*
X122603399Y-89033701D01*
X122507808Y-88972832D01*
X122411718Y-88902383D01*
X122308512Y-88815933D01*
X122204205Y-88719223D01*
X122104812Y-88617993D01*
X122016348Y-88517986D01*
X121969716Y-88459232D01*
X121873535Y-88331550D01*
X123602717Y-88328330D01*
G36*
X121725100Y-93837000D02*
X121725100Y-94406384D01*
X121725213Y-94524130D01*
X121725539Y-94633885D01*
X121726054Y-94733080D01*
X121726734Y-94819141D01*
X121727554Y-94889500D01*
X121728493Y-94941585D01*
X121729526Y-94972825D01*
X121730372Y-94981059D01*
X121743990Y-94982367D01*
X121779537Y-94983275D01*
X121833547Y-94983766D01*
X121902551Y-94983820D01*
X121983083Y-94983420D01*
X122054605Y-94982749D01*
X122373566Y-94979147D01*
X122370008Y-94420769D01*
X122366450Y-93862390D01*
X122477442Y-93862395D01*
X122588435Y-93862400D01*
X122591742Y-94421565D01*
X122595050Y-94980730D01*
X123433250Y-94980730D01*
X123439858Y-93837000D01*
X123668200Y-93837000D01*
X123668200Y-95246700D01*
X121496500Y-95246700D01*
X121496500Y-93837000D01*
X121725100Y-93837000D01*
X121725100Y-93837000D01*
G37*
X121725100Y-93837000D02*
X121725100Y-94406384D01*
X121725213Y-94524130D01*
X121725539Y-94633885D01*
X121726054Y-94733080D01*
X121726734Y-94819141D01*
X121727554Y-94889500D01*
X121728493Y-94941585D01*
X121729526Y-94972825D01*
X121730372Y-94981059D01*
X121743990Y-94982367D01*
X121779537Y-94983275D01*
X121833547Y-94983766D01*
X121902551Y-94983820D01*
X121983083Y-94983420D01*
X122054605Y-94982749D01*
X122373566Y-94979147D01*
X122370008Y-94420769D01*
X122366450Y-93862390D01*
X122477442Y-93862395D01*
X122588435Y-93862400D01*
X122591742Y-94421565D01*
X122595050Y-94980730D01*
X123433250Y-94980730D01*
X123439858Y-93837000D01*
X123668200Y-93837000D01*
X123668200Y-95246700D01*
X121496500Y-95246700D01*
X121496500Y-93837000D01*
X121725100Y-93837000D01*
G36*
X121501471Y-92395266D02*
X121517221Y-92272491D01*
X121545727Y-92151918D01*
X121588693Y-92025732D01*
X121625974Y-91935175D01*
X121677065Y-91817700D01*
X121828082Y-91817700D01*
X121886629Y-91818232D01*
X121934600Y-91819679D01*
X121967067Y-91821822D01*
X121979099Y-91824440D01*
X121979100Y-91824458D01*
X121972270Y-91837104D01*
X121953907Y-91865586D01*
X121927203Y-91905043D01*
X121908870Y-91931441D01*
X121825116Y-92065967D01*
X121764749Y-92198464D01*
X121726456Y-92332824D01*
X121708924Y-92472943D01*
X121707432Y-92528900D01*
X121717721Y-92668405D01*
X121749169Y-92793909D01*
X121801924Y-92905685D01*
X121876136Y-93004006D01*
X121971954Y-93089147D01*
X122036250Y-93131857D01*
X122144713Y-93184518D01*
X122270230Y-93224284D01*
X122407437Y-93250200D01*
X122550969Y-93261311D01*
X122695463Y-93256662D01*
X122722314Y-93253948D01*
X122878384Y-93227758D01*
X123014974Y-93186173D01*
X123133272Y-93128563D01*
X123234463Y-93054297D01*
X123319737Y-92962746D01*
X123349781Y-92920955D01*
X123394957Y-92844262D01*
X123426218Y-92767589D01*
X123445365Y-92684140D01*
X123454197Y-92587119D01*
X123455304Y-92522550D01*
X123447557Y-92381621D01*
X123423755Y-92255452D01*
X123381825Y-92137950D01*
X123319698Y-92023024D01*
X123253034Y-91927487D01*
X123218441Y-91881845D01*
X123198157Y-91850982D01*
X123194230Y-91832016D01*
X123208712Y-91822064D01*
X123243653Y-91818242D01*
X123301103Y-91817667D01*
X123331117Y-91817700D01*
X123479352Y-91817700D01*
X123522842Y-91911829D01*
X123561601Y-92002931D01*
X123597274Y-92100199D01*
X123627161Y-92195419D01*
X123648561Y-92280374D01*
X123654692Y-92313000D01*
X123662086Y-92380530D01*
X123665899Y-92463254D01*
X123666232Y-92552806D01*
X123663186Y-92640819D01*
X123656860Y-92718926D01*
X123649200Y-92770200D01*
X123607117Y-92920367D01*
X123544621Y-93055645D01*
X123462314Y-93175414D01*
X123360797Y-93279054D01*
X123240672Y-93365944D01*
X123102540Y-93435463D01*
X122957000Y-93484369D01*
X122916763Y-93494402D01*
X122878807Y-93501823D01*
X122838244Y-93507015D01*
X122790184Y-93510360D01*
X122729741Y-93512239D01*
X122652025Y-93513034D01*
X122588700Y-93513150D01*
X122471716Y-93511918D01*
X122374754Y-93507533D01*
X122292523Y-93498967D01*
X122219733Y-93485191D01*
X122151093Y-93465176D01*
X122081314Y-93437893D01*
X122005105Y-93402312D01*
X121996181Y-93397886D01*
X121865625Y-93319716D01*
X121754266Y-93225112D01*
X121662429Y-93114638D01*
X121590437Y-92988858D01*
X121538614Y-92848335D01*
X121507284Y-92693636D01*
X121496774Y-92528058D01*
X121501471Y-92395266D01*
X121501471Y-92395266D01*
G37*
X121501471Y-92395266D02*
X121517221Y-92272491D01*
X121545727Y-92151918D01*
X121588693Y-92025732D01*
X121625974Y-91935175D01*
X121677065Y-91817700D01*
X121828082Y-91817700D01*
X121886629Y-91818232D01*
X121934600Y-91819679D01*
X121967067Y-91821822D01*
X121979099Y-91824440D01*
X121979100Y-91824458D01*
X121972270Y-91837104D01*
X121953907Y-91865586D01*
X121927203Y-91905043D01*
X121908870Y-91931441D01*
X121825116Y-92065967D01*
X121764749Y-92198464D01*
X121726456Y-92332824D01*
X121708924Y-92472943D01*
X121707432Y-92528900D01*
X121717721Y-92668405D01*
X121749169Y-92793909D01*
X121801924Y-92905685D01*
X121876136Y-93004006D01*
X121971954Y-93089147D01*
X122036250Y-93131857D01*
X122144713Y-93184518D01*
X122270230Y-93224284D01*
X122407437Y-93250200D01*
X122550969Y-93261311D01*
X122695463Y-93256662D01*
X122722314Y-93253948D01*
X122878384Y-93227758D01*
X123014974Y-93186173D01*
X123133272Y-93128563D01*
X123234463Y-93054297D01*
X123319737Y-92962746D01*
X123349781Y-92920955D01*
X123394957Y-92844262D01*
X123426218Y-92767589D01*
X123445365Y-92684140D01*
X123454197Y-92587119D01*
X123455304Y-92522550D01*
X123447557Y-92381621D01*
X123423755Y-92255452D01*
X123381825Y-92137950D01*
X123319698Y-92023024D01*
X123253034Y-91927487D01*
X123218441Y-91881845D01*
X123198157Y-91850982D01*
X123194230Y-91832016D01*
X123208712Y-91822064D01*
X123243653Y-91818242D01*
X123301103Y-91817667D01*
X123331117Y-91817700D01*
X123479352Y-91817700D01*
X123522842Y-91911829D01*
X123561601Y-92002931D01*
X123597274Y-92100199D01*
X123627161Y-92195419D01*
X123648561Y-92280374D01*
X123654692Y-92313000D01*
X123662086Y-92380530D01*
X123665899Y-92463254D01*
X123666232Y-92552806D01*
X123663186Y-92640819D01*
X123656860Y-92718926D01*
X123649200Y-92770200D01*
X123607117Y-92920367D01*
X123544621Y-93055645D01*
X123462314Y-93175414D01*
X123360797Y-93279054D01*
X123240672Y-93365944D01*
X123102540Y-93435463D01*
X122957000Y-93484369D01*
X122916763Y-93494402D01*
X122878807Y-93501823D01*
X122838244Y-93507015D01*
X122790184Y-93510360D01*
X122729741Y-93512239D01*
X122652025Y-93513034D01*
X122588700Y-93513150D01*
X122471716Y-93511918D01*
X122374754Y-93507533D01*
X122292523Y-93498967D01*
X122219733Y-93485191D01*
X122151093Y-93465176D01*
X122081314Y-93437893D01*
X122005105Y-93402312D01*
X121996181Y-93397886D01*
X121865625Y-93319716D01*
X121754266Y-93225112D01*
X121662429Y-93114638D01*
X121590437Y-92988858D01*
X121538614Y-92848335D01*
X121507284Y-92693636D01*
X121496774Y-92528058D01*
X121501471Y-92395266D01*
G36*
X121507258Y-90490048D02*
X121508268Y-90454619D01*
X121508950Y-90404353D01*
X121509200Y-90344673D01*
X121509200Y-90192446D01*
X121644649Y-90150998D01*
X121780099Y-90109550D01*
X121810948Y-90039803D01*
X121841796Y-89970056D01*
X121774353Y-89833365D01*
X121706909Y-89696674D01*
X121789029Y-89613230D01*
X121829992Y-89572714D01*
X121868536Y-89536506D01*
X121898310Y-89510506D01*
X121906049Y-89504496D01*
X121940949Y-89479207D01*
X122067049Y-89545151D01*
X122193149Y-89611096D01*
X122263610Y-89581892D01*
X122334070Y-89552687D01*
X122379885Y-89415194D01*
X122425700Y-89277700D01*
X122748995Y-89277700D01*
X122831927Y-89551374D01*
X122908293Y-89579186D01*
X122984658Y-89606999D01*
X123112509Y-89542840D01*
X123240359Y-89478682D01*
X123464275Y-89703150D01*
X123398698Y-89831417D01*
X123333122Y-89959684D01*
X123365466Y-90034579D01*
X123397811Y-90109474D01*
X123529830Y-90155628D01*
X123661850Y-90201783D01*
X123668922Y-90517363D01*
X123533048Y-90561107D01*
X123397174Y-90604850D01*
X123365377Y-90679254D01*
X123333580Y-90753657D01*
X123398271Y-90883733D01*
X123462962Y-91013808D01*
X123351547Y-91124707D01*
X123240132Y-91235605D01*
X122981144Y-91105639D01*
X122905861Y-91134645D01*
X122830578Y-91163650D01*
X122746738Y-91430350D01*
X122586342Y-91433896D01*
X122583265Y-91433964D01*
X122583265Y-90797279D01*
X122675471Y-90789944D01*
X122758785Y-90765647D01*
X122766500Y-90762180D01*
X122845607Y-90717890D01*
X122907461Y-90665064D01*
X122950549Y-90611346D01*
X123000877Y-90517643D01*
X123027113Y-90418343D01*
X123029030Y-90316460D01*
X123006402Y-90215010D01*
X122984208Y-90162100D01*
X122928059Y-90074068D01*
X122854406Y-90003769D01*
X122768024Y-89952517D01*
X122725516Y-89934794D01*
X122685551Y-89924552D01*
X122638177Y-89919937D01*
X122588432Y-89919050D01*
X122531053Y-89920163D01*
X122488717Y-89924987D01*
X122451112Y-89935757D01*
X122407924Y-89954703D01*
X122395291Y-89960859D01*
X122309574Y-90014754D01*
X122241125Y-90084747D01*
X122186621Y-90174274D01*
X122184167Y-90179400D01*
X122166627Y-90221227D01*
X122156499Y-90260934D01*
X122151952Y-90308378D01*
X122151099Y-90357200D01*
X122152581Y-90417722D01*
X122158281Y-90463031D01*
X122170080Y-90503211D01*
X122184736Y-90537496D01*
X122235389Y-90619513D01*
X122304299Y-90692348D01*
X122384408Y-90748946D01*
X122408404Y-90761164D01*
X122491224Y-90787677D01*
X122583265Y-90797279D01*
X122583265Y-91433964D01*
X122425947Y-91437442D01*
X122379677Y-91298584D01*
X122333408Y-91159726D01*
X122191854Y-91102274D01*
X122061973Y-91166868D01*
X121932092Y-91231463D01*
X121819202Y-91118048D01*
X121706313Y-91004633D01*
X121774435Y-90874592D01*
X121842557Y-90744550D01*
X121811904Y-90675601D01*
X121781250Y-90606651D01*
X121642050Y-90560234D01*
X121587634Y-90541320D01*
X121543752Y-90524596D01*
X121515036Y-90511931D01*
X121506025Y-90505359D01*
X121507258Y-90490048D01*
X121507258Y-90490048D01*
G37*
X121507258Y-90490048D02*
X121508268Y-90454619D01*
X121508950Y-90404353D01*
X121509200Y-90344673D01*
X121509200Y-90192446D01*
X121644649Y-90150998D01*
X121780099Y-90109550D01*
X121810948Y-90039803D01*
X121841796Y-89970056D01*
X121774353Y-89833365D01*
X121706909Y-89696674D01*
X121789029Y-89613230D01*
X121829992Y-89572714D01*
X121868536Y-89536506D01*
X121898310Y-89510506D01*
X121906049Y-89504496D01*
X121940949Y-89479207D01*
X122067049Y-89545151D01*
X122193149Y-89611096D01*
X122263610Y-89581892D01*
X122334070Y-89552687D01*
X122379885Y-89415194D01*
X122425700Y-89277700D01*
X122748995Y-89277700D01*
X122831927Y-89551374D01*
X122908293Y-89579186D01*
X122984658Y-89606999D01*
X123112509Y-89542840D01*
X123240359Y-89478682D01*
X123464275Y-89703150D01*
X123398698Y-89831417D01*
X123333122Y-89959684D01*
X123365466Y-90034579D01*
X123397811Y-90109474D01*
X123529830Y-90155628D01*
X123661850Y-90201783D01*
X123668922Y-90517363D01*
X123533048Y-90561107D01*
X123397174Y-90604850D01*
X123365377Y-90679254D01*
X123333580Y-90753657D01*
X123398271Y-90883733D01*
X123462962Y-91013808D01*
X123351547Y-91124707D01*
X123240132Y-91235605D01*
X122981144Y-91105639D01*
X122905861Y-91134645D01*
X122830578Y-91163650D01*
X122746738Y-91430350D01*
X122586342Y-91433896D01*
X122583265Y-91433964D01*
X122583265Y-90797279D01*
X122675471Y-90789944D01*
X122758785Y-90765647D01*
X122766500Y-90762180D01*
X122845607Y-90717890D01*
X122907461Y-90665064D01*
X122950549Y-90611346D01*
X123000877Y-90517643D01*
X123027113Y-90418343D01*
X123029030Y-90316460D01*
X123006402Y-90215010D01*
X122984208Y-90162100D01*
X122928059Y-90074068D01*
X122854406Y-90003769D01*
X122768024Y-89952517D01*
X122725516Y-89934794D01*
X122685551Y-89924552D01*
X122638177Y-89919937D01*
X122588432Y-89919050D01*
X122531053Y-89920163D01*
X122488717Y-89924987D01*
X122451112Y-89935757D01*
X122407924Y-89954703D01*
X122395291Y-89960859D01*
X122309574Y-90014754D01*
X122241125Y-90084747D01*
X122186621Y-90174274D01*
X122184167Y-90179400D01*
X122166627Y-90221227D01*
X122156499Y-90260934D01*
X122151952Y-90308378D01*
X122151099Y-90357200D01*
X122152581Y-90417722D01*
X122158281Y-90463031D01*
X122170080Y-90503211D01*
X122184736Y-90537496D01*
X122235389Y-90619513D01*
X122304299Y-90692348D01*
X122384408Y-90748946D01*
X122408404Y-90761164D01*
X122491224Y-90787677D01*
X122583265Y-90797279D01*
X122583265Y-91433964D01*
X122425947Y-91437442D01*
X122379677Y-91298584D01*
X122333408Y-91159726D01*
X122191854Y-91102274D01*
X122061973Y-91166868D01*
X121932092Y-91231463D01*
X121819202Y-91118048D01*
X121706313Y-91004633D01*
X121774435Y-90874592D01*
X121842557Y-90744550D01*
X121811904Y-90675601D01*
X121781250Y-90606651D01*
X121642050Y-90560234D01*
X121587634Y-90541320D01*
X121543752Y-90524596D01*
X121515036Y-90511931D01*
X121506025Y-90505359D01*
X121507258Y-90490048D01*
D12*
G04 #@! TO.C,J3*
X75086000Y-84600000D02*
X75086000Y-68852000D01*
X88514000Y-68826000D02*
X75052000Y-68826000D01*
X88514000Y-84574000D02*
X88514000Y-68826000D01*
X88514000Y-84574000D02*
X75052000Y-84574000D01*
D13*
G04 #@! TO.C,Y1*
X90200000Y-68250000D02*
X102800000Y-68250000D01*
X102800000Y-68250000D02*
X102800000Y-63150000D01*
X102800000Y-63150000D02*
X90200000Y-63150000D01*
D12*
G04 #@! TO.C,J1*
X111900000Y-80100000D02*
X129900000Y-80100000D01*
X129900000Y-68900000D02*
X111900000Y-68900000D01*
X111900000Y-68900000D02*
X111900000Y-80100000D01*
X130000000Y-80100000D02*
X130000000Y-68875000D01*
G04 #@! TO.C,J4*
X75000000Y-94000000D02*
X75000000Y-85500000D01*
X75000000Y-85500000D02*
X87000000Y-85500000D01*
X87000000Y-85500000D02*
X87000000Y-94000000D01*
X87000000Y-94000000D02*
X75000000Y-94000000D01*
D13*
G04 #@! TO.C,TP1*
X119500000Y-98000000D02*
G75*
G03X119500000Y-98000000I-1500000J0D01*
G01*
G04 #@! TO.C,TP2*
X102250000Y-93500000D02*
G75*
G03X102250000Y-93500000I-1500000J0D01*
G01*
G04 #@! TO.C,TP3*
X119500000Y-91000000D02*
G75*
G03X119500000Y-91000000I-1500000J0D01*
G01*
G04 #@! TO.C,TP4*
X115500000Y-65000000D02*
G75*
G03X115500000Y-65000000I-1500000J0D01*
G01*
G04 #@! TO.C,TP5*
X119500000Y-65000000D02*
G75*
G03X119500000Y-65000000I-1500000J0D01*
G01*
G04 #@! TO.C,J2*
X113600000Y-95345000D02*
X113600000Y-97885000D01*
X113600000Y-95345000D02*
X111060000Y-95345000D01*
X113350000Y-95595000D02*
X113350000Y-104945000D01*
X92490000Y-95595000D02*
X113350000Y-95595000D01*
X92490000Y-104945000D02*
X92490000Y-95595000D01*
X113350000Y-104945000D02*
X92490000Y-104945000D01*
D12*
G04 #@! TO.C,U3*
X101500000Y-71875000D02*
X101500000Y-70450000D01*
X101725000Y-79125000D02*
X101725000Y-78800000D01*
X94475000Y-79125000D02*
X94475000Y-78800000D01*
X94475000Y-71875000D02*
X94475000Y-72200000D01*
X101725000Y-71875000D02*
X101725000Y-72200000D01*
X94475000Y-71875000D02*
X94800000Y-71875000D01*
X94475000Y-79125000D02*
X94800000Y-79125000D01*
X101725000Y-79125000D02*
X101400000Y-79125000D01*
X101725000Y-71875000D02*
X101500000Y-71875000D01*
G04 #@! TO.C,U2*
X109625000Y-66825000D02*
X109625000Y-65425000D01*
X104525000Y-66825000D02*
X104525000Y-70975000D01*
X109675000Y-66825000D02*
X109675000Y-70975000D01*
X104525000Y-66825000D02*
X104670000Y-66825000D01*
X104525000Y-70975000D02*
X104670000Y-70975000D01*
X109675000Y-70975000D02*
X109530000Y-70975000D01*
X109675000Y-66825000D02*
X109625000Y-66825000D01*
D13*
G04 #@! TO.C,C5*
X96437221Y-69510000D02*
X96762779Y-69510000D01*
X96437221Y-68490000D02*
X96762779Y-68490000D01*
G04 #@! TO.C,SW2*
X92250000Y-88250000D02*
X92250000Y-85750000D01*
X94000000Y-89750000D02*
X96000000Y-89750000D01*
X97750000Y-88250000D02*
X97750000Y-85750000D01*
X94000000Y-84250000D02*
X96000000Y-84250000D01*
X92700000Y-88700000D02*
X92250000Y-88250000D01*
X92700000Y-85300000D02*
X92250000Y-85750000D01*
X97300000Y-85300000D02*
X97750000Y-85750000D01*
X97300000Y-88700000D02*
X97750000Y-88250000D01*
G04 #@! TO.C,C2*
X106462779Y-91590000D02*
X106137221Y-91590000D01*
X106462779Y-92610000D02*
X106137221Y-92610000D01*
G04 #@! TO.C,C4*
X99437221Y-69510000D02*
X99762779Y-69510000D01*
X99437221Y-68490000D02*
X99762779Y-68490000D01*
G04 #@! TO.C,C6*
X111010000Y-70562779D02*
X111010000Y-70237221D01*
X109990000Y-70562779D02*
X109990000Y-70237221D01*
G04 #@! TO.C,C7*
X99762779Y-61690000D02*
X99437221Y-61690000D01*
X99762779Y-62710000D02*
X99437221Y-62710000D01*
G04 #@! TO.C,C8*
X92437221Y-62710000D02*
X92762779Y-62710000D01*
X92437221Y-61690000D02*
X92762779Y-61690000D01*
G04 #@! TO.C,C9*
X97937221Y-82010000D02*
X98262779Y-82010000D01*
X97937221Y-80990000D02*
X98262779Y-80990000D01*
G04 #@! TO.C,C1*
X106458578Y-93090000D02*
X105941422Y-93090000D01*
X106458578Y-94510000D02*
X105941422Y-94510000D01*
G04 #@! TO.C,C3*
X99390000Y-87741422D02*
X99390000Y-88258578D01*
X100810000Y-87741422D02*
X100810000Y-88258578D01*
G04 #@! TO.C,D1*
X108450000Y-92300000D02*
X108450000Y-83900000D01*
X114950000Y-92300000D02*
X114950000Y-83900000D01*
X114950000Y-92300000D02*
X108450000Y-92300000D01*
G04 #@! TO.C,JP1*
X111475000Y-76300000D02*
X108675000Y-76300000D01*
X108675000Y-76300000D02*
X108675000Y-74300000D01*
X108675000Y-74300000D02*
X111475000Y-74300000D01*
X111475000Y-74300000D02*
X111475000Y-76300000D01*
G04 #@! TO.C,D8*
X125585000Y-81040000D02*
X122900000Y-81040000D01*
X125585000Y-82960000D02*
X125585000Y-81040000D01*
X122900000Y-82960000D02*
X125585000Y-82960000D01*
G04 #@! TO.C,D4*
X111085000Y-77540000D02*
X108400000Y-77540000D01*
X111085000Y-79460000D02*
X111085000Y-77540000D01*
X108400000Y-79460000D02*
X111085000Y-79460000D01*
G04 #@! TO.C,D3*
X111085000Y-79440000D02*
X108400000Y-79440000D01*
X111085000Y-81360000D02*
X111085000Y-79440000D01*
X108400000Y-81360000D02*
X111085000Y-81360000D01*
G04 #@! TO.C,U1*
X101290000Y-91100000D02*
X101290000Y-85090000D01*
X108110000Y-88850000D02*
X108110000Y-85090000D01*
X101290000Y-85090000D02*
X102550000Y-85090000D01*
X108110000Y-85090000D02*
X106850000Y-85090000D01*
G04 #@! TO.C,D2*
X105940000Y-72820000D02*
X107400000Y-72820000D01*
X105940000Y-75980000D02*
X108100000Y-75980000D01*
X105940000Y-75980000D02*
X105940000Y-75050000D01*
X105940000Y-72820000D02*
X105940000Y-73750000D01*
G04 #@! TO.C,D6*
X91860000Y-78480000D02*
X90400000Y-78480000D01*
X91860000Y-75320000D02*
X89700000Y-75320000D01*
X91860000Y-75320000D02*
X91860000Y-76250000D01*
X91860000Y-78480000D02*
X91860000Y-77550000D01*
G04 #@! TO.C,Q1*
X108360000Y-64880000D02*
X106900000Y-64880000D01*
X108360000Y-61720000D02*
X106200000Y-61720000D01*
X108360000Y-61720000D02*
X108360000Y-62650000D01*
X108360000Y-64880000D02*
X108360000Y-63950000D01*
G04 #@! TO.C,D5*
X91860000Y-74980000D02*
X90400000Y-74980000D01*
X91860000Y-71820000D02*
X89700000Y-71820000D01*
X91860000Y-71820000D02*
X91860000Y-72750000D01*
X91860000Y-74980000D02*
X91860000Y-74050000D01*
G04 #@! TO.C,R1*
X110062779Y-72890000D02*
X109737221Y-72890000D01*
X110062779Y-73910000D02*
X109737221Y-73910000D01*
G04 #@! TO.C,R4*
X104690000Y-63137221D02*
X104690000Y-63462779D01*
X105710000Y-63137221D02*
X105710000Y-63462779D01*
G04 #@! TO.C,R7*
X120537221Y-82510000D02*
X120862779Y-82510000D01*
X120537221Y-81490000D02*
X120862779Y-81490000D01*
G04 #@! TO.C,R6*
X106124721Y-79210000D02*
X106450279Y-79210000D01*
X106124721Y-78190000D02*
X106450279Y-78190000D01*
G04 #@! TO.C,R5*
X106124721Y-80710000D02*
X106450279Y-80710000D01*
X106124721Y-79690000D02*
X106450279Y-79690000D01*
G04 #@! TO.C,R3*
X111010000Y-67562779D02*
X111010000Y-67237221D01*
X109990000Y-67562779D02*
X109990000Y-67237221D01*
G04 #@! TO.C,R2*
X100610000Y-84962779D02*
X100610000Y-84637221D01*
X99590000Y-84962779D02*
X99590000Y-84637221D01*
G04 #@! TO.C,J3*
D14*
X87033333Y-67926190D02*
X87033333Y-68283333D01*
X87009523Y-68354761D01*
X86961904Y-68402380D01*
X86890476Y-68426190D01*
X86842857Y-68426190D01*
X87223809Y-67926190D02*
X87533333Y-67926190D01*
X87366666Y-68116666D01*
X87438095Y-68116666D01*
X87485714Y-68140476D01*
X87509523Y-68164285D01*
X87533333Y-68211904D01*
X87533333Y-68330952D01*
X87509523Y-68378571D01*
X87485714Y-68402380D01*
X87438095Y-68426190D01*
X87295238Y-68426190D01*
X87247619Y-68402380D01*
X87223809Y-68378571D01*
G04 #@! TO.C,Y1*
D12*
X95623809Y-69226190D02*
X95623809Y-69702380D01*
X95290476Y-68702380D02*
X95623809Y-69226190D01*
X95957142Y-68702380D01*
X96814285Y-69702380D02*
X96242857Y-69702380D01*
X96528571Y-69702380D02*
X96528571Y-68702380D01*
X96433333Y-68845238D01*
X96338095Y-68940476D01*
X96242857Y-68988095D01*
G04 #@! TO.C,J1*
D14*
X115033333Y-68126190D02*
X115033333Y-68483333D01*
X115009523Y-68554761D01*
X114961904Y-68602380D01*
X114890476Y-68626190D01*
X114842857Y-68626190D01*
X115533333Y-68626190D02*
X115247619Y-68626190D01*
X115390476Y-68626190D02*
X115390476Y-68126190D01*
X115342857Y-68197619D01*
X115295238Y-68245238D01*
X115247619Y-68269047D01*
G04 #@! TO.C,J4*
X85933333Y-94626190D02*
X85933333Y-94983333D01*
X85909523Y-95054761D01*
X85861904Y-95102380D01*
X85790476Y-95126190D01*
X85742857Y-95126190D01*
X86385714Y-94792857D02*
X86385714Y-95126190D01*
X86266666Y-94602380D02*
X86147619Y-94959523D01*
X86457142Y-94959523D01*
G04 #@! TO.C,TP1*
X117369047Y-100226190D02*
X117654761Y-100226190D01*
X117511904Y-100726190D02*
X117511904Y-100226190D01*
X117821428Y-100726190D02*
X117821428Y-100226190D01*
X118011904Y-100226190D01*
X118059523Y-100250000D01*
X118083333Y-100273809D01*
X118107142Y-100321428D01*
X118107142Y-100392857D01*
X118083333Y-100440476D01*
X118059523Y-100464285D01*
X118011904Y-100488095D01*
X117821428Y-100488095D01*
X118583333Y-100726190D02*
X118297619Y-100726190D01*
X118440476Y-100726190D02*
X118440476Y-100226190D01*
X118392857Y-100297619D01*
X118345238Y-100345238D01*
X118297619Y-100369047D01*
G04 #@! TO.C,TP2*
X99069047Y-91226190D02*
X99354761Y-91226190D01*
X99211904Y-91726190D02*
X99211904Y-91226190D01*
X99521428Y-91726190D02*
X99521428Y-91226190D01*
X99711904Y-91226190D01*
X99759523Y-91250000D01*
X99783333Y-91273809D01*
X99807142Y-91321428D01*
X99807142Y-91392857D01*
X99783333Y-91440476D01*
X99759523Y-91464285D01*
X99711904Y-91488095D01*
X99521428Y-91488095D01*
X99997619Y-91273809D02*
X100021428Y-91250000D01*
X100069047Y-91226190D01*
X100188095Y-91226190D01*
X100235714Y-91250000D01*
X100259523Y-91273809D01*
X100283333Y-91321428D01*
X100283333Y-91369047D01*
X100259523Y-91440476D01*
X99973809Y-91726190D01*
X100283333Y-91726190D01*
G04 #@! TO.C,TP3*
X117369047Y-88526190D02*
X117654761Y-88526190D01*
X117511904Y-89026190D02*
X117511904Y-88526190D01*
X117821428Y-89026190D02*
X117821428Y-88526190D01*
X118011904Y-88526190D01*
X118059523Y-88550000D01*
X118083333Y-88573809D01*
X118107142Y-88621428D01*
X118107142Y-88692857D01*
X118083333Y-88740476D01*
X118059523Y-88764285D01*
X118011904Y-88788095D01*
X117821428Y-88788095D01*
X118273809Y-88526190D02*
X118583333Y-88526190D01*
X118416666Y-88716666D01*
X118488095Y-88716666D01*
X118535714Y-88740476D01*
X118559523Y-88764285D01*
X118583333Y-88811904D01*
X118583333Y-88930952D01*
X118559523Y-88978571D01*
X118535714Y-89002380D01*
X118488095Y-89026190D01*
X118345238Y-89026190D01*
X118297619Y-89002380D01*
X118273809Y-88978571D01*
G04 #@! TO.C,TP4*
X113369047Y-62526190D02*
X113654761Y-62526190D01*
X113511904Y-63026190D02*
X113511904Y-62526190D01*
X113821428Y-63026190D02*
X113821428Y-62526190D01*
X114011904Y-62526190D01*
X114059523Y-62550000D01*
X114083333Y-62573809D01*
X114107142Y-62621428D01*
X114107142Y-62692857D01*
X114083333Y-62740476D01*
X114059523Y-62764285D01*
X114011904Y-62788095D01*
X113821428Y-62788095D01*
X114535714Y-62692857D02*
X114535714Y-63026190D01*
X114416666Y-62502380D02*
X114297619Y-62859523D01*
X114607142Y-62859523D01*
G04 #@! TO.C,TP5*
X117369047Y-62526190D02*
X117654761Y-62526190D01*
X117511904Y-63026190D02*
X117511904Y-62526190D01*
X117821428Y-63026190D02*
X117821428Y-62526190D01*
X118011904Y-62526190D01*
X118059523Y-62550000D01*
X118083333Y-62573809D01*
X118107142Y-62621428D01*
X118107142Y-62692857D01*
X118083333Y-62740476D01*
X118059523Y-62764285D01*
X118011904Y-62788095D01*
X117821428Y-62788095D01*
X118559523Y-62526190D02*
X118321428Y-62526190D01*
X118297619Y-62764285D01*
X118321428Y-62740476D01*
X118369047Y-62716666D01*
X118488095Y-62716666D01*
X118535714Y-62740476D01*
X118559523Y-62764285D01*
X118583333Y-62811904D01*
X118583333Y-62930952D01*
X118559523Y-62978571D01*
X118535714Y-63002380D01*
X118488095Y-63026190D01*
X118369047Y-63026190D01*
X118321428Y-63002380D01*
X118297619Y-62978571D01*
G04 #@! TO.C,J2*
X92833333Y-94826190D02*
X92833333Y-95183333D01*
X92809523Y-95254761D01*
X92761904Y-95302380D01*
X92690476Y-95326190D01*
X92642857Y-95326190D01*
X93047619Y-94873809D02*
X93071428Y-94850000D01*
X93119047Y-94826190D01*
X93238095Y-94826190D01*
X93285714Y-94850000D01*
X93309523Y-94873809D01*
X93333333Y-94921428D01*
X93333333Y-94969047D01*
X93309523Y-95040476D01*
X93023809Y-95326190D01*
X93333333Y-95326190D01*
G04 #@! TO.C,U3*
X93019047Y-70426190D02*
X93019047Y-70830952D01*
X93042857Y-70878571D01*
X93066666Y-70902380D01*
X93114285Y-70926190D01*
X93209523Y-70926190D01*
X93257142Y-70902380D01*
X93280952Y-70878571D01*
X93304761Y-70830952D01*
X93304761Y-70426190D01*
X93495238Y-70426190D02*
X93804761Y-70426190D01*
X93638095Y-70616666D01*
X93709523Y-70616666D01*
X93757142Y-70640476D01*
X93780952Y-70664285D01*
X93804761Y-70711904D01*
X93804761Y-70830952D01*
X93780952Y-70878571D01*
X93757142Y-70902380D01*
X93709523Y-70926190D01*
X93566666Y-70926190D01*
X93519047Y-70902380D01*
X93495238Y-70878571D01*
G04 #@! TO.C,U2*
X103526190Y-69180952D02*
X103930952Y-69180952D01*
X103978571Y-69157142D01*
X104002380Y-69133333D01*
X104026190Y-69085714D01*
X104026190Y-68990476D01*
X104002380Y-68942857D01*
X103978571Y-68919047D01*
X103930952Y-68895238D01*
X103526190Y-68895238D01*
X103573809Y-68680952D02*
X103550000Y-68657142D01*
X103526190Y-68609523D01*
X103526190Y-68490476D01*
X103550000Y-68442857D01*
X103573809Y-68419047D01*
X103621428Y-68395238D01*
X103669047Y-68395238D01*
X103740476Y-68419047D01*
X104026190Y-68704761D01*
X104026190Y-68395238D01*
G04 #@! TO.C,C5*
X94316666Y-69178571D02*
X94292857Y-69202380D01*
X94221428Y-69226190D01*
X94173809Y-69226190D01*
X94102380Y-69202380D01*
X94054761Y-69154761D01*
X94030952Y-69107142D01*
X94007142Y-69011904D01*
X94007142Y-68940476D01*
X94030952Y-68845238D01*
X94054761Y-68797619D01*
X94102380Y-68750000D01*
X94173809Y-68726190D01*
X94221428Y-68726190D01*
X94292857Y-68750000D01*
X94316666Y-68773809D01*
X94769047Y-68726190D02*
X94530952Y-68726190D01*
X94507142Y-68964285D01*
X94530952Y-68940476D01*
X94578571Y-68916666D01*
X94697619Y-68916666D01*
X94745238Y-68940476D01*
X94769047Y-68964285D01*
X94792857Y-69011904D01*
X94792857Y-69130952D01*
X94769047Y-69178571D01*
X94745238Y-69202380D01*
X94697619Y-69226190D01*
X94578571Y-69226190D01*
X94530952Y-69202380D01*
X94507142Y-69178571D01*
G04 #@! TO.C,SW2*
X92533333Y-82502380D02*
X92604761Y-82526190D01*
X92723809Y-82526190D01*
X92771428Y-82502380D01*
X92795238Y-82478571D01*
X92819047Y-82430952D01*
X92819047Y-82383333D01*
X92795238Y-82335714D01*
X92771428Y-82311904D01*
X92723809Y-82288095D01*
X92628571Y-82264285D01*
X92580952Y-82240476D01*
X92557142Y-82216666D01*
X92533333Y-82169047D01*
X92533333Y-82121428D01*
X92557142Y-82073809D01*
X92580952Y-82050000D01*
X92628571Y-82026190D01*
X92747619Y-82026190D01*
X92819047Y-82050000D01*
X92985714Y-82026190D02*
X93104761Y-82526190D01*
X93200000Y-82169047D01*
X93295238Y-82526190D01*
X93414285Y-82026190D01*
X93580952Y-82073809D02*
X93604761Y-82050000D01*
X93652380Y-82026190D01*
X93771428Y-82026190D01*
X93819047Y-82050000D01*
X93842857Y-82073809D01*
X93866666Y-82121428D01*
X93866666Y-82169047D01*
X93842857Y-82240476D01*
X93557142Y-82526190D01*
X93866666Y-82526190D01*
G04 #@! TO.C,C2*
X103916666Y-92278571D02*
X103892857Y-92302380D01*
X103821428Y-92326190D01*
X103773809Y-92326190D01*
X103702380Y-92302380D01*
X103654761Y-92254761D01*
X103630952Y-92207142D01*
X103607142Y-92111904D01*
X103607142Y-92040476D01*
X103630952Y-91945238D01*
X103654761Y-91897619D01*
X103702380Y-91850000D01*
X103773809Y-91826190D01*
X103821428Y-91826190D01*
X103892857Y-91850000D01*
X103916666Y-91873809D01*
X104107142Y-91873809D02*
X104130952Y-91850000D01*
X104178571Y-91826190D01*
X104297619Y-91826190D01*
X104345238Y-91850000D01*
X104369047Y-91873809D01*
X104392857Y-91921428D01*
X104392857Y-91969047D01*
X104369047Y-92040476D01*
X104083333Y-92326190D01*
X104392857Y-92326190D01*
G04 #@! TO.C,C4*
X101716666Y-69178571D02*
X101692857Y-69202380D01*
X101621428Y-69226190D01*
X101573809Y-69226190D01*
X101502380Y-69202380D01*
X101454761Y-69154761D01*
X101430952Y-69107142D01*
X101407142Y-69011904D01*
X101407142Y-68940476D01*
X101430952Y-68845238D01*
X101454761Y-68797619D01*
X101502380Y-68750000D01*
X101573809Y-68726190D01*
X101621428Y-68726190D01*
X101692857Y-68750000D01*
X101716666Y-68773809D01*
X102145238Y-68892857D02*
X102145238Y-69226190D01*
X102026190Y-68702380D02*
X101907142Y-69059523D01*
X102216666Y-69059523D01*
G04 #@! TO.C,C6*
X111716666Y-68478571D02*
X111692857Y-68502380D01*
X111621428Y-68526190D01*
X111573809Y-68526190D01*
X111502380Y-68502380D01*
X111454761Y-68454761D01*
X111430952Y-68407142D01*
X111407142Y-68311904D01*
X111407142Y-68240476D01*
X111430952Y-68145238D01*
X111454761Y-68097619D01*
X111502380Y-68050000D01*
X111573809Y-68026190D01*
X111621428Y-68026190D01*
X111692857Y-68050000D01*
X111716666Y-68073809D01*
X112145238Y-68026190D02*
X112050000Y-68026190D01*
X112002380Y-68050000D01*
X111978571Y-68073809D01*
X111930952Y-68145238D01*
X111907142Y-68240476D01*
X111907142Y-68430952D01*
X111930952Y-68478571D01*
X111954761Y-68502380D01*
X112002380Y-68526190D01*
X112097619Y-68526190D01*
X112145238Y-68502380D01*
X112169047Y-68478571D01*
X112192857Y-68430952D01*
X112192857Y-68311904D01*
X112169047Y-68264285D01*
X112145238Y-68240476D01*
X112097619Y-68216666D01*
X112002380Y-68216666D01*
X111954761Y-68240476D01*
X111930952Y-68264285D01*
X111907142Y-68311904D01*
G04 #@! TO.C,C7*
X97416666Y-62378571D02*
X97392857Y-62402380D01*
X97321428Y-62426190D01*
X97273809Y-62426190D01*
X97202380Y-62402380D01*
X97154761Y-62354761D01*
X97130952Y-62307142D01*
X97107142Y-62211904D01*
X97107142Y-62140476D01*
X97130952Y-62045238D01*
X97154761Y-61997619D01*
X97202380Y-61950000D01*
X97273809Y-61926190D01*
X97321428Y-61926190D01*
X97392857Y-61950000D01*
X97416666Y-61973809D01*
X97583333Y-61926190D02*
X97916666Y-61926190D01*
X97702380Y-62426190D01*
G04 #@! TO.C,C8*
X94716666Y-62378571D02*
X94692857Y-62402380D01*
X94621428Y-62426190D01*
X94573809Y-62426190D01*
X94502380Y-62402380D01*
X94454761Y-62354761D01*
X94430952Y-62307142D01*
X94407142Y-62211904D01*
X94407142Y-62140476D01*
X94430952Y-62045238D01*
X94454761Y-61997619D01*
X94502380Y-61950000D01*
X94573809Y-61926190D01*
X94621428Y-61926190D01*
X94692857Y-61950000D01*
X94716666Y-61973809D01*
X95002380Y-62140476D02*
X94954761Y-62116666D01*
X94930952Y-62092857D01*
X94907142Y-62045238D01*
X94907142Y-62021428D01*
X94930952Y-61973809D01*
X94954761Y-61950000D01*
X95002380Y-61926190D01*
X95097619Y-61926190D01*
X95145238Y-61950000D01*
X95169047Y-61973809D01*
X95192857Y-62021428D01*
X95192857Y-62045238D01*
X95169047Y-62092857D01*
X95145238Y-62116666D01*
X95097619Y-62140476D01*
X95002380Y-62140476D01*
X94954761Y-62164285D01*
X94930952Y-62188095D01*
X94907142Y-62235714D01*
X94907142Y-62330952D01*
X94930952Y-62378571D01*
X94954761Y-62402380D01*
X95002380Y-62426190D01*
X95097619Y-62426190D01*
X95145238Y-62402380D01*
X95169047Y-62378571D01*
X95192857Y-62330952D01*
X95192857Y-62235714D01*
X95169047Y-62188095D01*
X95145238Y-62164285D01*
X95097619Y-62140476D01*
G04 #@! TO.C,C9*
X100116666Y-81778571D02*
X100092857Y-81802380D01*
X100021428Y-81826190D01*
X99973809Y-81826190D01*
X99902380Y-81802380D01*
X99854761Y-81754761D01*
X99830952Y-81707142D01*
X99807142Y-81611904D01*
X99807142Y-81540476D01*
X99830952Y-81445238D01*
X99854761Y-81397619D01*
X99902380Y-81350000D01*
X99973809Y-81326190D01*
X100021428Y-81326190D01*
X100092857Y-81350000D01*
X100116666Y-81373809D01*
X100354761Y-81826190D02*
X100450000Y-81826190D01*
X100497619Y-81802380D01*
X100521428Y-81778571D01*
X100569047Y-81707142D01*
X100592857Y-81611904D01*
X100592857Y-81421428D01*
X100569047Y-81373809D01*
X100545238Y-81350000D01*
X100497619Y-81326190D01*
X100402380Y-81326190D01*
X100354761Y-81350000D01*
X100330952Y-81373809D01*
X100307142Y-81421428D01*
X100307142Y-81540476D01*
X100330952Y-81588095D01*
X100354761Y-81611904D01*
X100402380Y-81635714D01*
X100497619Y-81635714D01*
X100545238Y-81611904D01*
X100569047Y-81588095D01*
X100592857Y-81540476D01*
G04 #@! TO.C,C1*
X103816666Y-93978571D02*
X103792857Y-94002380D01*
X103721428Y-94026190D01*
X103673809Y-94026190D01*
X103602380Y-94002380D01*
X103554761Y-93954761D01*
X103530952Y-93907142D01*
X103507142Y-93811904D01*
X103507142Y-93740476D01*
X103530952Y-93645238D01*
X103554761Y-93597619D01*
X103602380Y-93550000D01*
X103673809Y-93526190D01*
X103721428Y-93526190D01*
X103792857Y-93550000D01*
X103816666Y-93573809D01*
X104292857Y-94026190D02*
X104007142Y-94026190D01*
X104150000Y-94026190D02*
X104150000Y-93526190D01*
X104102380Y-93597619D01*
X104054761Y-93645238D01*
X104007142Y-93669047D01*
G04 #@! TO.C,C3*
X98878571Y-87983333D02*
X98902380Y-88007142D01*
X98926190Y-88078571D01*
X98926190Y-88126190D01*
X98902380Y-88197619D01*
X98854761Y-88245238D01*
X98807142Y-88269047D01*
X98711904Y-88292857D01*
X98640476Y-88292857D01*
X98545238Y-88269047D01*
X98497619Y-88245238D01*
X98450000Y-88197619D01*
X98426190Y-88126190D01*
X98426190Y-88078571D01*
X98450000Y-88007142D01*
X98473809Y-87983333D01*
X98426190Y-87816666D02*
X98426190Y-87507142D01*
X98616666Y-87673809D01*
X98616666Y-87602380D01*
X98640476Y-87554761D01*
X98664285Y-87530952D01*
X98711904Y-87507142D01*
X98830952Y-87507142D01*
X98878571Y-87530952D01*
X98902380Y-87554761D01*
X98926190Y-87602380D01*
X98926190Y-87745238D01*
X98902380Y-87792857D01*
X98878571Y-87816666D01*
G04 #@! TO.C,D1*
X111430952Y-93226190D02*
X111430952Y-92726190D01*
X111550000Y-92726190D01*
X111621428Y-92750000D01*
X111669047Y-92797619D01*
X111692857Y-92845238D01*
X111716666Y-92940476D01*
X111716666Y-93011904D01*
X111692857Y-93107142D01*
X111669047Y-93154761D01*
X111621428Y-93202380D01*
X111550000Y-93226190D01*
X111430952Y-93226190D01*
X112192857Y-93226190D02*
X111907142Y-93226190D01*
X112050000Y-93226190D02*
X112050000Y-92726190D01*
X112002380Y-92797619D01*
X111954761Y-92845238D01*
X111907142Y-92869047D01*
G04 #@! TO.C,JP1*
X109658333Y-76426190D02*
X109658333Y-76783333D01*
X109634523Y-76854761D01*
X109586904Y-76902380D01*
X109515476Y-76926190D01*
X109467857Y-76926190D01*
X109896428Y-76926190D02*
X109896428Y-76426190D01*
X110086904Y-76426190D01*
X110134523Y-76450000D01*
X110158333Y-76473809D01*
X110182142Y-76521428D01*
X110182142Y-76592857D01*
X110158333Y-76640476D01*
X110134523Y-76664285D01*
X110086904Y-76688095D01*
X109896428Y-76688095D01*
X110658333Y-76926190D02*
X110372619Y-76926190D01*
X110515476Y-76926190D02*
X110515476Y-76426190D01*
X110467857Y-76497619D01*
X110420238Y-76545238D01*
X110372619Y-76569047D01*
G04 #@! TO.C,D8*
X123530952Y-83726190D02*
X123530952Y-83226190D01*
X123650000Y-83226190D01*
X123721428Y-83250000D01*
X123769047Y-83297619D01*
X123792857Y-83345238D01*
X123816666Y-83440476D01*
X123816666Y-83511904D01*
X123792857Y-83607142D01*
X123769047Y-83654761D01*
X123721428Y-83702380D01*
X123650000Y-83726190D01*
X123530952Y-83726190D01*
X124102380Y-83440476D02*
X124054761Y-83416666D01*
X124030952Y-83392857D01*
X124007142Y-83345238D01*
X124007142Y-83321428D01*
X124030952Y-83273809D01*
X124054761Y-83250000D01*
X124102380Y-83226190D01*
X124197619Y-83226190D01*
X124245238Y-83250000D01*
X124269047Y-83273809D01*
X124292857Y-83321428D01*
X124292857Y-83345238D01*
X124269047Y-83392857D01*
X124245238Y-83416666D01*
X124197619Y-83440476D01*
X124102380Y-83440476D01*
X124054761Y-83464285D01*
X124030952Y-83488095D01*
X124007142Y-83535714D01*
X124007142Y-83630952D01*
X124030952Y-83678571D01*
X124054761Y-83702380D01*
X124102380Y-83726190D01*
X124197619Y-83726190D01*
X124245238Y-83702380D01*
X124269047Y-83678571D01*
X124292857Y-83630952D01*
X124292857Y-83535714D01*
X124269047Y-83488095D01*
X124245238Y-83464285D01*
X124197619Y-83440476D01*
G04 #@! TO.C,D4*
X107930952Y-77426190D02*
X107930952Y-76926190D01*
X108050000Y-76926190D01*
X108121428Y-76950000D01*
X108169047Y-76997619D01*
X108192857Y-77045238D01*
X108216666Y-77140476D01*
X108216666Y-77211904D01*
X108192857Y-77307142D01*
X108169047Y-77354761D01*
X108121428Y-77402380D01*
X108050000Y-77426190D01*
X107930952Y-77426190D01*
X108645238Y-77092857D02*
X108645238Y-77426190D01*
X108526190Y-76902380D02*
X108407142Y-77259523D01*
X108716666Y-77259523D01*
G04 #@! TO.C,D3*
X107830952Y-82126190D02*
X107830952Y-81626190D01*
X107950000Y-81626190D01*
X108021428Y-81650000D01*
X108069047Y-81697619D01*
X108092857Y-81745238D01*
X108116666Y-81840476D01*
X108116666Y-81911904D01*
X108092857Y-82007142D01*
X108069047Y-82054761D01*
X108021428Y-82102380D01*
X107950000Y-82126190D01*
X107830952Y-82126190D01*
X108283333Y-81626190D02*
X108592857Y-81626190D01*
X108426190Y-81816666D01*
X108497619Y-81816666D01*
X108545238Y-81840476D01*
X108569047Y-81864285D01*
X108592857Y-81911904D01*
X108592857Y-82030952D01*
X108569047Y-82078571D01*
X108545238Y-82102380D01*
X108497619Y-82126190D01*
X108354761Y-82126190D01*
X108307142Y-82102380D01*
X108283333Y-82078571D01*
G04 #@! TO.C,U1*
X101419047Y-84126190D02*
X101419047Y-84530952D01*
X101442857Y-84578571D01*
X101466666Y-84602380D01*
X101514285Y-84626190D01*
X101609523Y-84626190D01*
X101657142Y-84602380D01*
X101680952Y-84578571D01*
X101704761Y-84530952D01*
X101704761Y-84126190D01*
X102204761Y-84626190D02*
X101919047Y-84626190D01*
X102061904Y-84626190D02*
X102061904Y-84126190D01*
X102014285Y-84197619D01*
X101966666Y-84245238D01*
X101919047Y-84269047D01*
G04 #@! TO.C,D2*
X104830952Y-75726190D02*
X104830952Y-75226190D01*
X104950000Y-75226190D01*
X105021428Y-75250000D01*
X105069047Y-75297619D01*
X105092857Y-75345238D01*
X105116666Y-75440476D01*
X105116666Y-75511904D01*
X105092857Y-75607142D01*
X105069047Y-75654761D01*
X105021428Y-75702380D01*
X104950000Y-75726190D01*
X104830952Y-75726190D01*
X105307142Y-75273809D02*
X105330952Y-75250000D01*
X105378571Y-75226190D01*
X105497619Y-75226190D01*
X105545238Y-75250000D01*
X105569047Y-75273809D01*
X105592857Y-75321428D01*
X105592857Y-75369047D01*
X105569047Y-75440476D01*
X105283333Y-75726190D01*
X105592857Y-75726190D01*
G04 #@! TO.C,D6*
X90530952Y-79326190D02*
X90530952Y-78826190D01*
X90650000Y-78826190D01*
X90721428Y-78850000D01*
X90769047Y-78897619D01*
X90792857Y-78945238D01*
X90816666Y-79040476D01*
X90816666Y-79111904D01*
X90792857Y-79207142D01*
X90769047Y-79254761D01*
X90721428Y-79302380D01*
X90650000Y-79326190D01*
X90530952Y-79326190D01*
X91245238Y-78826190D02*
X91150000Y-78826190D01*
X91102380Y-78850000D01*
X91078571Y-78873809D01*
X91030952Y-78945238D01*
X91007142Y-79040476D01*
X91007142Y-79230952D01*
X91030952Y-79278571D01*
X91054761Y-79302380D01*
X91102380Y-79326190D01*
X91197619Y-79326190D01*
X91245238Y-79302380D01*
X91269047Y-79278571D01*
X91292857Y-79230952D01*
X91292857Y-79111904D01*
X91269047Y-79064285D01*
X91245238Y-79040476D01*
X91197619Y-79016666D01*
X91102380Y-79016666D01*
X91054761Y-79040476D01*
X91030952Y-79064285D01*
X91007142Y-79111904D01*
G04 #@! TO.C,Q1*
X109352380Y-62473809D02*
X109304761Y-62450000D01*
X109257142Y-62402380D01*
X109185714Y-62330952D01*
X109138095Y-62307142D01*
X109090476Y-62307142D01*
X109114285Y-62426190D02*
X109066666Y-62402380D01*
X109019047Y-62354761D01*
X108995238Y-62259523D01*
X108995238Y-62092857D01*
X109019047Y-61997619D01*
X109066666Y-61950000D01*
X109114285Y-61926190D01*
X109209523Y-61926190D01*
X109257142Y-61950000D01*
X109304761Y-61997619D01*
X109328571Y-62092857D01*
X109328571Y-62259523D01*
X109304761Y-62354761D01*
X109257142Y-62402380D01*
X109209523Y-62426190D01*
X109114285Y-62426190D01*
X109804761Y-62426190D02*
X109519047Y-62426190D01*
X109661904Y-62426190D02*
X109661904Y-61926190D01*
X109614285Y-61997619D01*
X109566666Y-62045238D01*
X109519047Y-62069047D01*
G04 #@! TO.C,D5*
X90430952Y-71526190D02*
X90430952Y-71026190D01*
X90550000Y-71026190D01*
X90621428Y-71050000D01*
X90669047Y-71097619D01*
X90692857Y-71145238D01*
X90716666Y-71240476D01*
X90716666Y-71311904D01*
X90692857Y-71407142D01*
X90669047Y-71454761D01*
X90621428Y-71502380D01*
X90550000Y-71526190D01*
X90430952Y-71526190D01*
X91169047Y-71026190D02*
X90930952Y-71026190D01*
X90907142Y-71264285D01*
X90930952Y-71240476D01*
X90978571Y-71216666D01*
X91097619Y-71216666D01*
X91145238Y-71240476D01*
X91169047Y-71264285D01*
X91192857Y-71311904D01*
X91192857Y-71430952D01*
X91169047Y-71478571D01*
X91145238Y-71502380D01*
X91097619Y-71526190D01*
X90978571Y-71526190D01*
X90930952Y-71502380D01*
X90907142Y-71478571D01*
G04 #@! TO.C,R1*
X110416666Y-72526190D02*
X110250000Y-72288095D01*
X110130952Y-72526190D02*
X110130952Y-72026190D01*
X110321428Y-72026190D01*
X110369047Y-72050000D01*
X110392857Y-72073809D01*
X110416666Y-72121428D01*
X110416666Y-72192857D01*
X110392857Y-72240476D01*
X110369047Y-72264285D01*
X110321428Y-72288095D01*
X110130952Y-72288095D01*
X110892857Y-72526190D02*
X110607142Y-72526190D01*
X110750000Y-72526190D02*
X110750000Y-72026190D01*
X110702380Y-72097619D01*
X110654761Y-72145238D01*
X110607142Y-72169047D01*
G04 #@! TO.C,R4*
X104226190Y-63383333D02*
X103988095Y-63550000D01*
X104226190Y-63669047D02*
X103726190Y-63669047D01*
X103726190Y-63478571D01*
X103750000Y-63430952D01*
X103773809Y-63407142D01*
X103821428Y-63383333D01*
X103892857Y-63383333D01*
X103940476Y-63407142D01*
X103964285Y-63430952D01*
X103988095Y-63478571D01*
X103988095Y-63669047D01*
X103892857Y-62954761D02*
X104226190Y-62954761D01*
X103702380Y-63073809D02*
X104059523Y-63192857D01*
X104059523Y-62883333D01*
G04 #@! TO.C,R7*
X120716666Y-83726190D02*
X120550000Y-83488095D01*
X120430952Y-83726190D02*
X120430952Y-83226190D01*
X120621428Y-83226190D01*
X120669047Y-83250000D01*
X120692857Y-83273809D01*
X120716666Y-83321428D01*
X120716666Y-83392857D01*
X120692857Y-83440476D01*
X120669047Y-83464285D01*
X120621428Y-83488095D01*
X120430952Y-83488095D01*
X120883333Y-83226190D02*
X121216666Y-83226190D01*
X121002380Y-83726190D01*
G04 #@! TO.C,R6*
X104016666Y-78926190D02*
X103850000Y-78688095D01*
X103730952Y-78926190D02*
X103730952Y-78426190D01*
X103921428Y-78426190D01*
X103969047Y-78450000D01*
X103992857Y-78473809D01*
X104016666Y-78521428D01*
X104016666Y-78592857D01*
X103992857Y-78640476D01*
X103969047Y-78664285D01*
X103921428Y-78688095D01*
X103730952Y-78688095D01*
X104445238Y-78426190D02*
X104350000Y-78426190D01*
X104302380Y-78450000D01*
X104278571Y-78473809D01*
X104230952Y-78545238D01*
X104207142Y-78640476D01*
X104207142Y-78830952D01*
X104230952Y-78878571D01*
X104254761Y-78902380D01*
X104302380Y-78926190D01*
X104397619Y-78926190D01*
X104445238Y-78902380D01*
X104469047Y-78878571D01*
X104492857Y-78830952D01*
X104492857Y-78711904D01*
X104469047Y-78664285D01*
X104445238Y-78640476D01*
X104397619Y-78616666D01*
X104302380Y-78616666D01*
X104254761Y-78640476D01*
X104230952Y-78664285D01*
X104207142Y-78711904D01*
G04 #@! TO.C,R5*
X104016666Y-80426190D02*
X103850000Y-80188095D01*
X103730952Y-80426190D02*
X103730952Y-79926190D01*
X103921428Y-79926190D01*
X103969047Y-79950000D01*
X103992857Y-79973809D01*
X104016666Y-80021428D01*
X104016666Y-80092857D01*
X103992857Y-80140476D01*
X103969047Y-80164285D01*
X103921428Y-80188095D01*
X103730952Y-80188095D01*
X104469047Y-79926190D02*
X104230952Y-79926190D01*
X104207142Y-80164285D01*
X104230952Y-80140476D01*
X104278571Y-80116666D01*
X104397619Y-80116666D01*
X104445238Y-80140476D01*
X104469047Y-80164285D01*
X104492857Y-80211904D01*
X104492857Y-80330952D01*
X104469047Y-80378571D01*
X104445238Y-80402380D01*
X104397619Y-80426190D01*
X104278571Y-80426190D01*
X104230952Y-80402380D01*
X104207142Y-80378571D01*
G04 #@! TO.C,R3*
X111716666Y-67826190D02*
X111550000Y-67588095D01*
X111430952Y-67826190D02*
X111430952Y-67326190D01*
X111621428Y-67326190D01*
X111669047Y-67350000D01*
X111692857Y-67373809D01*
X111716666Y-67421428D01*
X111716666Y-67492857D01*
X111692857Y-67540476D01*
X111669047Y-67564285D01*
X111621428Y-67588095D01*
X111430952Y-67588095D01*
X111883333Y-67326190D02*
X112192857Y-67326190D01*
X112026190Y-67516666D01*
X112097619Y-67516666D01*
X112145238Y-67540476D01*
X112169047Y-67564285D01*
X112192857Y-67611904D01*
X112192857Y-67730952D01*
X112169047Y-67778571D01*
X112145238Y-67802380D01*
X112097619Y-67826190D01*
X111954761Y-67826190D01*
X111907142Y-67802380D01*
X111883333Y-67778571D01*
G04 #@! TO.C,R2*
X98896190Y-84883333D02*
X98658095Y-85050000D01*
X98896190Y-85169047D02*
X98396190Y-85169047D01*
X98396190Y-84978571D01*
X98420000Y-84930952D01*
X98443809Y-84907142D01*
X98491428Y-84883333D01*
X98562857Y-84883333D01*
X98610476Y-84907142D01*
X98634285Y-84930952D01*
X98658095Y-84978571D01*
X98658095Y-85169047D01*
X98443809Y-84692857D02*
X98420000Y-84669047D01*
X98396190Y-84621428D01*
X98396190Y-84502380D01*
X98420000Y-84454761D01*
X98443809Y-84430952D01*
X98491428Y-84407142D01*
X98539047Y-84407142D01*
X98610476Y-84430952D01*
X98896190Y-84716666D01*
X98896190Y-84407142D01*
G04 #@! TD*
M02*
