G04 #@! TF.GenerationSoftware,KiCad,Pcbnew,(5.0.2)-1*
G04 #@! TF.CreationDate,2019-05-09T18:05:01+02:00*
G04 #@! TF.ProjectId,MotorController,4d6f746f-7243-46f6-9e74-726f6c6c6572,rev?*
G04 #@! TF.SameCoordinates,Original*
G04 #@! TF.FileFunction,Soldermask,Top*
G04 #@! TF.FilePolarity,Negative*
%FSLAX46Y46*%
G04 Gerber Fmt 4.6, Leading zero omitted, Abs format (unit mm)*
G04 Created by KiCad (PCBNEW (5.0.2)-1) date 09.05.2019 18:05:01*
%MOMM*%
%LPD*%
G01*
G04 APERTURE LIST*
%ADD10C,0.100000*%
G04 APERTURE END LIST*
D10*
G36*
X97988452Y-100586359D02*
X98028899Y-100590343D01*
X98113449Y-100615991D01*
X98210537Y-100645442D01*
X98377939Y-100734920D01*
X98524665Y-100855335D01*
X98645080Y-101002061D01*
X98734558Y-101169463D01*
X98764009Y-101266551D01*
X98789657Y-101351101D01*
X98789657Y-101351103D01*
X98808263Y-101540000D01*
X98798938Y-101634669D01*
X98789657Y-101728899D01*
X98764009Y-101813449D01*
X98734558Y-101910537D01*
X98645080Y-102077939D01*
X98524665Y-102224665D01*
X98377939Y-102345080D01*
X98210537Y-102434558D01*
X98113449Y-102464009D01*
X98028899Y-102489657D01*
X97988452Y-102493641D01*
X97887339Y-102503600D01*
X97792661Y-102503600D01*
X97691548Y-102493641D01*
X97651101Y-102489657D01*
X97566551Y-102464009D01*
X97469463Y-102434558D01*
X97302061Y-102345080D01*
X97155335Y-102224665D01*
X97034920Y-102077939D01*
X96945442Y-101910537D01*
X96915991Y-101813449D01*
X96890343Y-101728899D01*
X96881062Y-101634669D01*
X96871737Y-101540000D01*
X96890343Y-101351103D01*
X96890343Y-101351101D01*
X96915991Y-101266551D01*
X96945442Y-101169463D01*
X97034920Y-101002061D01*
X97155335Y-100855335D01*
X97302061Y-100734920D01*
X97469463Y-100645442D01*
X97566551Y-100615991D01*
X97651101Y-100590343D01*
X97691548Y-100586359D01*
X97792661Y-100576400D01*
X97887339Y-100576400D01*
X97988452Y-100586359D01*
X97988452Y-100586359D01*
G37*
G36*
X105608452Y-100586359D02*
X105648899Y-100590343D01*
X105733449Y-100615991D01*
X105830537Y-100645442D01*
X105997939Y-100734920D01*
X106144665Y-100855335D01*
X106265080Y-101002061D01*
X106354558Y-101169463D01*
X106384009Y-101266551D01*
X106409657Y-101351101D01*
X106409657Y-101351103D01*
X106428263Y-101540000D01*
X106418938Y-101634669D01*
X106409657Y-101728899D01*
X106384009Y-101813449D01*
X106354558Y-101910537D01*
X106265080Y-102077939D01*
X106144665Y-102224665D01*
X105997939Y-102345080D01*
X105830537Y-102434558D01*
X105733449Y-102464009D01*
X105648899Y-102489657D01*
X105608452Y-102493641D01*
X105507339Y-102503600D01*
X105412661Y-102503600D01*
X105311548Y-102493641D01*
X105271101Y-102489657D01*
X105186551Y-102464009D01*
X105089463Y-102434558D01*
X104922061Y-102345080D01*
X104775335Y-102224665D01*
X104654920Y-102077939D01*
X104565442Y-101910537D01*
X104535991Y-101813449D01*
X104510343Y-101728899D01*
X104501062Y-101634669D01*
X104491737Y-101540000D01*
X104510343Y-101351103D01*
X104510343Y-101351101D01*
X104535991Y-101266551D01*
X104565442Y-101169463D01*
X104654920Y-101002061D01*
X104775335Y-100855335D01*
X104922061Y-100734920D01*
X105089463Y-100645442D01*
X105186551Y-100615991D01*
X105271101Y-100590343D01*
X105311548Y-100586359D01*
X105412661Y-100576400D01*
X105507339Y-100576400D01*
X105608452Y-100586359D01*
X105608452Y-100586359D01*
G37*
G36*
X108148452Y-100586359D02*
X108188899Y-100590343D01*
X108273449Y-100615991D01*
X108370537Y-100645442D01*
X108537939Y-100734920D01*
X108684665Y-100855335D01*
X108805080Y-101002061D01*
X108894558Y-101169463D01*
X108924009Y-101266551D01*
X108949657Y-101351101D01*
X108949657Y-101351103D01*
X108968263Y-101540000D01*
X108958938Y-101634669D01*
X108949657Y-101728899D01*
X108924009Y-101813449D01*
X108894558Y-101910537D01*
X108805080Y-102077939D01*
X108684665Y-102224665D01*
X108537939Y-102345080D01*
X108370537Y-102434558D01*
X108273449Y-102464009D01*
X108188899Y-102489657D01*
X108148452Y-102493641D01*
X108047339Y-102503600D01*
X107952661Y-102503600D01*
X107851548Y-102493641D01*
X107811101Y-102489657D01*
X107726551Y-102464009D01*
X107629463Y-102434558D01*
X107462061Y-102345080D01*
X107315335Y-102224665D01*
X107194920Y-102077939D01*
X107105442Y-101910537D01*
X107075991Y-101813449D01*
X107050343Y-101728899D01*
X107041062Y-101634669D01*
X107031737Y-101540000D01*
X107050343Y-101351103D01*
X107050343Y-101351101D01*
X107075991Y-101266551D01*
X107105442Y-101169463D01*
X107194920Y-101002061D01*
X107315335Y-100855335D01*
X107462061Y-100734920D01*
X107629463Y-100645442D01*
X107726551Y-100615991D01*
X107811101Y-100590343D01*
X107851548Y-100586359D01*
X107952661Y-100576400D01*
X108047339Y-100576400D01*
X108148452Y-100586359D01*
X108148452Y-100586359D01*
G37*
G36*
X100528452Y-100586359D02*
X100568899Y-100590343D01*
X100653449Y-100615991D01*
X100750537Y-100645442D01*
X100917939Y-100734920D01*
X101064665Y-100855335D01*
X101185080Y-101002061D01*
X101274558Y-101169463D01*
X101304009Y-101266551D01*
X101329657Y-101351101D01*
X101329657Y-101351103D01*
X101348263Y-101540000D01*
X101338938Y-101634669D01*
X101329657Y-101728899D01*
X101304009Y-101813449D01*
X101274558Y-101910537D01*
X101185080Y-102077939D01*
X101064665Y-102224665D01*
X100917939Y-102345080D01*
X100750537Y-102434558D01*
X100653449Y-102464009D01*
X100568899Y-102489657D01*
X100528452Y-102493641D01*
X100427339Y-102503600D01*
X100332661Y-102503600D01*
X100231548Y-102493641D01*
X100191101Y-102489657D01*
X100106551Y-102464009D01*
X100009463Y-102434558D01*
X99842061Y-102345080D01*
X99695335Y-102224665D01*
X99574920Y-102077939D01*
X99485442Y-101910537D01*
X99455991Y-101813449D01*
X99430343Y-101728899D01*
X99421062Y-101634669D01*
X99411737Y-101540000D01*
X99430343Y-101351103D01*
X99430343Y-101351101D01*
X99455991Y-101266551D01*
X99485442Y-101169463D01*
X99574920Y-101002061D01*
X99695335Y-100855335D01*
X99842061Y-100734920D01*
X100009463Y-100645442D01*
X100106551Y-100615991D01*
X100191101Y-100590343D01*
X100231548Y-100586359D01*
X100332661Y-100576400D01*
X100427339Y-100576400D01*
X100528452Y-100586359D01*
X100528452Y-100586359D01*
G37*
G36*
X103068452Y-100586359D02*
X103108899Y-100590343D01*
X103193449Y-100615991D01*
X103290537Y-100645442D01*
X103457939Y-100734920D01*
X103604665Y-100855335D01*
X103725080Y-101002061D01*
X103814558Y-101169463D01*
X103844009Y-101266551D01*
X103869657Y-101351101D01*
X103869657Y-101351103D01*
X103888263Y-101540000D01*
X103878938Y-101634669D01*
X103869657Y-101728899D01*
X103844009Y-101813449D01*
X103814558Y-101910537D01*
X103725080Y-102077939D01*
X103604665Y-102224665D01*
X103457939Y-102345080D01*
X103290537Y-102434558D01*
X103193449Y-102464009D01*
X103108899Y-102489657D01*
X103068452Y-102493641D01*
X102967339Y-102503600D01*
X102872661Y-102503600D01*
X102771548Y-102493641D01*
X102731101Y-102489657D01*
X102646551Y-102464009D01*
X102549463Y-102434558D01*
X102382061Y-102345080D01*
X102235335Y-102224665D01*
X102114920Y-102077939D01*
X102025442Y-101910537D01*
X101995991Y-101813449D01*
X101970343Y-101728899D01*
X101961062Y-101634669D01*
X101951737Y-101540000D01*
X101970343Y-101351103D01*
X101970343Y-101351101D01*
X101995991Y-101266551D01*
X102025442Y-101169463D01*
X102114920Y-101002061D01*
X102235335Y-100855335D01*
X102382061Y-100734920D01*
X102549463Y-100645442D01*
X102646551Y-100615991D01*
X102731101Y-100590343D01*
X102771548Y-100586359D01*
X102872661Y-100576400D01*
X102967339Y-100576400D01*
X103068452Y-100586359D01*
X103068452Y-100586359D01*
G37*
G36*
X125495872Y-98365330D02*
X125495874Y-98365331D01*
X125495875Y-98365331D01*
X125556284Y-98390353D01*
X125805252Y-98493479D01*
X126083687Y-98679523D01*
X126320477Y-98916313D01*
X126506521Y-99194748D01*
X126634670Y-99504128D01*
X126700000Y-99832565D01*
X126700000Y-100167435D01*
X126634670Y-100495872D01*
X126506521Y-100805252D01*
X126320477Y-101083687D01*
X126083687Y-101320477D01*
X125805252Y-101506521D01*
X125556284Y-101609647D01*
X125495875Y-101634669D01*
X125495874Y-101634669D01*
X125495872Y-101634670D01*
X125167435Y-101700000D01*
X124832565Y-101700000D01*
X124504128Y-101634670D01*
X124504126Y-101634669D01*
X124504125Y-101634669D01*
X124443716Y-101609647D01*
X124194748Y-101506521D01*
X123916313Y-101320477D01*
X123679523Y-101083687D01*
X123493479Y-100805252D01*
X123365330Y-100495872D01*
X123300000Y-100167435D01*
X123300000Y-99832565D01*
X123365330Y-99504128D01*
X123493479Y-99194748D01*
X123679523Y-98916313D01*
X123916313Y-98679523D01*
X124194748Y-98493479D01*
X124443716Y-98390353D01*
X124504125Y-98365331D01*
X124504126Y-98365331D01*
X124504128Y-98365330D01*
X124832565Y-98300000D01*
X125167435Y-98300000D01*
X125495872Y-98365330D01*
X125495872Y-98365330D01*
G37*
G36*
X80495872Y-98365330D02*
X80495874Y-98365331D01*
X80495875Y-98365331D01*
X80556284Y-98390353D01*
X80805252Y-98493479D01*
X81083687Y-98679523D01*
X81320477Y-98916313D01*
X81506521Y-99194748D01*
X81634670Y-99504128D01*
X81700000Y-99832565D01*
X81700000Y-100167435D01*
X81634670Y-100495872D01*
X81506521Y-100805252D01*
X81320477Y-101083687D01*
X81083687Y-101320477D01*
X80805252Y-101506521D01*
X80556284Y-101609647D01*
X80495875Y-101634669D01*
X80495874Y-101634669D01*
X80495872Y-101634670D01*
X80167435Y-101700000D01*
X79832565Y-101700000D01*
X79504128Y-101634670D01*
X79504126Y-101634669D01*
X79504125Y-101634669D01*
X79443716Y-101609647D01*
X79194748Y-101506521D01*
X78916313Y-101320477D01*
X78679523Y-101083687D01*
X78493479Y-100805252D01*
X78365330Y-100495872D01*
X78300000Y-100167435D01*
X78300000Y-99832565D01*
X78365330Y-99504128D01*
X78493479Y-99194748D01*
X78679523Y-98916313D01*
X78916313Y-98679523D01*
X79194748Y-98493479D01*
X79443716Y-98390353D01*
X79504125Y-98365331D01*
X79504126Y-98365331D01*
X79504128Y-98365330D01*
X79832565Y-98300000D01*
X80167435Y-98300000D01*
X80495872Y-98365330D01*
X80495872Y-98365330D01*
G37*
G36*
X105608452Y-98046359D02*
X105648899Y-98050343D01*
X105733449Y-98075991D01*
X105830537Y-98105442D01*
X105997939Y-98194920D01*
X106144665Y-98315335D01*
X106265080Y-98462061D01*
X106354558Y-98629463D01*
X106384009Y-98726551D01*
X106409657Y-98811101D01*
X106409657Y-98811103D01*
X106428263Y-99000000D01*
X106418413Y-99100000D01*
X106409657Y-99188899D01*
X106384009Y-99273449D01*
X106354558Y-99370537D01*
X106265080Y-99537939D01*
X106144665Y-99684665D01*
X105997939Y-99805080D01*
X105830537Y-99894558D01*
X105733449Y-99924009D01*
X105648899Y-99949657D01*
X105608452Y-99953641D01*
X105507339Y-99963600D01*
X105412661Y-99963600D01*
X105311548Y-99953641D01*
X105271101Y-99949657D01*
X105186551Y-99924009D01*
X105089463Y-99894558D01*
X104922061Y-99805080D01*
X104775335Y-99684665D01*
X104654920Y-99537939D01*
X104565442Y-99370537D01*
X104535991Y-99273449D01*
X104510343Y-99188899D01*
X104501587Y-99100000D01*
X104491737Y-99000000D01*
X104510343Y-98811103D01*
X104510343Y-98811101D01*
X104535991Y-98726551D01*
X104565442Y-98629463D01*
X104654920Y-98462061D01*
X104775335Y-98315335D01*
X104922061Y-98194920D01*
X105089463Y-98105442D01*
X105186551Y-98075991D01*
X105271101Y-98050343D01*
X105311548Y-98046359D01*
X105412661Y-98036400D01*
X105507339Y-98036400D01*
X105608452Y-98046359D01*
X105608452Y-98046359D01*
G37*
G36*
X108963600Y-99963600D02*
X107036400Y-99963600D01*
X107036400Y-98036400D01*
X108963600Y-98036400D01*
X108963600Y-99963600D01*
X108963600Y-99963600D01*
G37*
G36*
X103068452Y-98046359D02*
X103108899Y-98050343D01*
X103193449Y-98075991D01*
X103290537Y-98105442D01*
X103457939Y-98194920D01*
X103604665Y-98315335D01*
X103725080Y-98462061D01*
X103814558Y-98629463D01*
X103844009Y-98726551D01*
X103869657Y-98811101D01*
X103869657Y-98811103D01*
X103888263Y-99000000D01*
X103878413Y-99100000D01*
X103869657Y-99188899D01*
X103844009Y-99273449D01*
X103814558Y-99370537D01*
X103725080Y-99537939D01*
X103604665Y-99684665D01*
X103457939Y-99805080D01*
X103290537Y-99894558D01*
X103193449Y-99924009D01*
X103108899Y-99949657D01*
X103068452Y-99953641D01*
X102967339Y-99963600D01*
X102872661Y-99963600D01*
X102771548Y-99953641D01*
X102731101Y-99949657D01*
X102646551Y-99924009D01*
X102549463Y-99894558D01*
X102382061Y-99805080D01*
X102235335Y-99684665D01*
X102114920Y-99537939D01*
X102025442Y-99370537D01*
X101995991Y-99273449D01*
X101970343Y-99188899D01*
X101961587Y-99100000D01*
X101951737Y-99000000D01*
X101970343Y-98811103D01*
X101970343Y-98811101D01*
X101995991Y-98726551D01*
X102025442Y-98629463D01*
X102114920Y-98462061D01*
X102235335Y-98315335D01*
X102382061Y-98194920D01*
X102549463Y-98105442D01*
X102646551Y-98075991D01*
X102731101Y-98050343D01*
X102771548Y-98046359D01*
X102872661Y-98036400D01*
X102967339Y-98036400D01*
X103068452Y-98046359D01*
X103068452Y-98046359D01*
G37*
G36*
X100528452Y-98046359D02*
X100568899Y-98050343D01*
X100653449Y-98075991D01*
X100750537Y-98105442D01*
X100917939Y-98194920D01*
X101064665Y-98315335D01*
X101185080Y-98462061D01*
X101274558Y-98629463D01*
X101304009Y-98726551D01*
X101329657Y-98811101D01*
X101329657Y-98811103D01*
X101348263Y-99000000D01*
X101338413Y-99100000D01*
X101329657Y-99188899D01*
X101304009Y-99273449D01*
X101274558Y-99370537D01*
X101185080Y-99537939D01*
X101064665Y-99684665D01*
X100917939Y-99805080D01*
X100750537Y-99894558D01*
X100653449Y-99924009D01*
X100568899Y-99949657D01*
X100528452Y-99953641D01*
X100427339Y-99963600D01*
X100332661Y-99963600D01*
X100231548Y-99953641D01*
X100191101Y-99949657D01*
X100106551Y-99924009D01*
X100009463Y-99894558D01*
X99842061Y-99805080D01*
X99695335Y-99684665D01*
X99574920Y-99537939D01*
X99485442Y-99370537D01*
X99455991Y-99273449D01*
X99430343Y-99188899D01*
X99421587Y-99100000D01*
X99411737Y-99000000D01*
X99430343Y-98811103D01*
X99430343Y-98811101D01*
X99455991Y-98726551D01*
X99485442Y-98629463D01*
X99574920Y-98462061D01*
X99695335Y-98315335D01*
X99842061Y-98194920D01*
X100009463Y-98105442D01*
X100106551Y-98075991D01*
X100191101Y-98050343D01*
X100231548Y-98046359D01*
X100332661Y-98036400D01*
X100427339Y-98036400D01*
X100528452Y-98046359D01*
X100528452Y-98046359D01*
G37*
G36*
X97988452Y-98046359D02*
X98028899Y-98050343D01*
X98113449Y-98075991D01*
X98210537Y-98105442D01*
X98377939Y-98194920D01*
X98524665Y-98315335D01*
X98645080Y-98462061D01*
X98734558Y-98629463D01*
X98764009Y-98726551D01*
X98789657Y-98811101D01*
X98789657Y-98811103D01*
X98808263Y-99000000D01*
X98798413Y-99100000D01*
X98789657Y-99188899D01*
X98764009Y-99273449D01*
X98734558Y-99370537D01*
X98645080Y-99537939D01*
X98524665Y-99684665D01*
X98377939Y-99805080D01*
X98210537Y-99894558D01*
X98113449Y-99924009D01*
X98028899Y-99949657D01*
X97988452Y-99953641D01*
X97887339Y-99963600D01*
X97792661Y-99963600D01*
X97691548Y-99953641D01*
X97651101Y-99949657D01*
X97566551Y-99924009D01*
X97469463Y-99894558D01*
X97302061Y-99805080D01*
X97155335Y-99684665D01*
X97034920Y-99537939D01*
X96945442Y-99370537D01*
X96915991Y-99273449D01*
X96890343Y-99188899D01*
X96881587Y-99100000D01*
X96871737Y-99000000D01*
X96890343Y-98811103D01*
X96890343Y-98811101D01*
X96915991Y-98726551D01*
X96945442Y-98629463D01*
X97034920Y-98462061D01*
X97155335Y-98315335D01*
X97302061Y-98194920D01*
X97469463Y-98105442D01*
X97566551Y-98075991D01*
X97651101Y-98050343D01*
X97691548Y-98046359D01*
X97792661Y-98036400D01*
X97887339Y-98036400D01*
X97988452Y-98046359D01*
X97988452Y-98046359D01*
G37*
G36*
X118320856Y-96942272D02*
X118521045Y-97025193D01*
X118701207Y-97145573D01*
X118854427Y-97298793D01*
X118974807Y-97478955D01*
X119057728Y-97679144D01*
X119100000Y-97891657D01*
X119100000Y-98108343D01*
X119057728Y-98320856D01*
X118974807Y-98521045D01*
X118854427Y-98701207D01*
X118701207Y-98854427D01*
X118521045Y-98974807D01*
X118320856Y-99057728D01*
X118108343Y-99100000D01*
X117891657Y-99100000D01*
X117679144Y-99057728D01*
X117478955Y-98974807D01*
X117298793Y-98854427D01*
X117145573Y-98701207D01*
X117025193Y-98521045D01*
X116942272Y-98320856D01*
X116900000Y-98108343D01*
X116900000Y-97891657D01*
X116942272Y-97679144D01*
X117025193Y-97478955D01*
X117145573Y-97298793D01*
X117298793Y-97145573D01*
X117478955Y-97025193D01*
X117679144Y-96942272D01*
X117891657Y-96900000D01*
X118108343Y-96900000D01*
X118320856Y-96942272D01*
X118320856Y-96942272D01*
G37*
G36*
X101070856Y-92442272D02*
X101271045Y-92525193D01*
X101451207Y-92645573D01*
X101604427Y-92798793D01*
X101724807Y-92978955D01*
X101807728Y-93179144D01*
X101850000Y-93391657D01*
X101850000Y-93608343D01*
X101807728Y-93820856D01*
X101724807Y-94021045D01*
X101604427Y-94201207D01*
X101451207Y-94354427D01*
X101271045Y-94474807D01*
X101070856Y-94557728D01*
X100858343Y-94600000D01*
X100641657Y-94600000D01*
X100429144Y-94557728D01*
X100228955Y-94474807D01*
X100048793Y-94354427D01*
X99895573Y-94201207D01*
X99775193Y-94021045D01*
X99692272Y-93820856D01*
X99650000Y-93608343D01*
X99650000Y-93391657D01*
X99692272Y-93179144D01*
X99775193Y-92978955D01*
X99895573Y-92798793D01*
X100048793Y-92645573D01*
X100228955Y-92525193D01*
X100429144Y-92442272D01*
X100641657Y-92400000D01*
X100858343Y-92400000D01*
X101070856Y-92442272D01*
X101070856Y-92442272D01*
G37*
G36*
X105653708Y-93005158D02*
X105699343Y-93019001D01*
X105741402Y-93041482D01*
X105778265Y-93071735D01*
X105808518Y-93108598D01*
X105830999Y-93150657D01*
X105844842Y-93196292D01*
X105850000Y-93248658D01*
X105850000Y-94351342D01*
X105844842Y-94403708D01*
X105830999Y-94449343D01*
X105808518Y-94491402D01*
X105778265Y-94528265D01*
X105741402Y-94558518D01*
X105699343Y-94580999D01*
X105653708Y-94594842D01*
X105601342Y-94600000D01*
X104923658Y-94600000D01*
X104871292Y-94594842D01*
X104825657Y-94580999D01*
X104783598Y-94558518D01*
X104746735Y-94528265D01*
X104716482Y-94491402D01*
X104694001Y-94449343D01*
X104680158Y-94403708D01*
X104675000Y-94351342D01*
X104675000Y-93248658D01*
X104680158Y-93196292D01*
X104694001Y-93150657D01*
X104716482Y-93108598D01*
X104746735Y-93071735D01*
X104783598Y-93041482D01*
X104825657Y-93019001D01*
X104871292Y-93005158D01*
X104923658Y-93000000D01*
X105601342Y-93000000D01*
X105653708Y-93005158D01*
X105653708Y-93005158D01*
G37*
G36*
X107528708Y-93005158D02*
X107574343Y-93019001D01*
X107616402Y-93041482D01*
X107653265Y-93071735D01*
X107683518Y-93108598D01*
X107705999Y-93150657D01*
X107719842Y-93196292D01*
X107725000Y-93248658D01*
X107725000Y-94351342D01*
X107719842Y-94403708D01*
X107705999Y-94449343D01*
X107683518Y-94491402D01*
X107653265Y-94528265D01*
X107616402Y-94558518D01*
X107574343Y-94580999D01*
X107528708Y-94594842D01*
X107476342Y-94600000D01*
X106798658Y-94600000D01*
X106746292Y-94594842D01*
X106700657Y-94580999D01*
X106658598Y-94558518D01*
X106621735Y-94528265D01*
X106591482Y-94491402D01*
X106569001Y-94449343D01*
X106555158Y-94403708D01*
X106550000Y-94351342D01*
X106550000Y-93248658D01*
X106555158Y-93196292D01*
X106569001Y-93150657D01*
X106591482Y-93108598D01*
X106621735Y-93071735D01*
X106658598Y-93041482D01*
X106700657Y-93019001D01*
X106746292Y-93005158D01*
X106798658Y-93000000D01*
X107476342Y-93000000D01*
X107528708Y-93005158D01*
X107528708Y-93005158D01*
G37*
G36*
X81100000Y-93650000D02*
X78300000Y-93650000D01*
X78300000Y-90850000D01*
X81100000Y-90850000D01*
X81100000Y-93650000D01*
X81100000Y-93650000D01*
G37*
G36*
X107448830Y-91529677D02*
X107489776Y-91542098D01*
X107527510Y-91562267D01*
X107560587Y-91589413D01*
X107587733Y-91622490D01*
X107607902Y-91660224D01*
X107620323Y-91701170D01*
X107625000Y-91748658D01*
X107625000Y-92451342D01*
X107620323Y-92498830D01*
X107607902Y-92539776D01*
X107587733Y-92577510D01*
X107560587Y-92610587D01*
X107527510Y-92637733D01*
X107489776Y-92657902D01*
X107448830Y-92670323D01*
X107401342Y-92675000D01*
X106773658Y-92675000D01*
X106726170Y-92670323D01*
X106685224Y-92657902D01*
X106647490Y-92637733D01*
X106614413Y-92610587D01*
X106587267Y-92577510D01*
X106567098Y-92539776D01*
X106554677Y-92498830D01*
X106550000Y-92451342D01*
X106550000Y-91748658D01*
X106554677Y-91701170D01*
X106567098Y-91660224D01*
X106587267Y-91622490D01*
X106614413Y-91589413D01*
X106647490Y-91562267D01*
X106685224Y-91542098D01*
X106726170Y-91529677D01*
X106773658Y-91525000D01*
X107401342Y-91525000D01*
X107448830Y-91529677D01*
X107448830Y-91529677D01*
G37*
G36*
X105873830Y-91529677D02*
X105914776Y-91542098D01*
X105952510Y-91562267D01*
X105985587Y-91589413D01*
X106012733Y-91622490D01*
X106032902Y-91660224D01*
X106045323Y-91701170D01*
X106050000Y-91748658D01*
X106050000Y-92451342D01*
X106045323Y-92498830D01*
X106032902Y-92539776D01*
X106012733Y-92577510D01*
X105985587Y-92610587D01*
X105952510Y-92637733D01*
X105914776Y-92657902D01*
X105873830Y-92670323D01*
X105826342Y-92675000D01*
X105198658Y-92675000D01*
X105151170Y-92670323D01*
X105110224Y-92657902D01*
X105072490Y-92637733D01*
X105039413Y-92610587D01*
X105012267Y-92577510D01*
X104992098Y-92539776D01*
X104979677Y-92498830D01*
X104975000Y-92451342D01*
X104975000Y-91748658D01*
X104979677Y-91701170D01*
X104992098Y-91660224D01*
X105012267Y-91622490D01*
X105039413Y-91589413D01*
X105072490Y-91562267D01*
X105110224Y-91542098D01*
X105151170Y-91529677D01*
X105198658Y-91525000D01*
X105826342Y-91525000D01*
X105873830Y-91529677D01*
X105873830Y-91529677D01*
G37*
G36*
X113450000Y-92250000D02*
X109950000Y-92250000D01*
X109950000Y-89550000D01*
X113450000Y-89550000D01*
X113450000Y-92250000D01*
X113450000Y-92250000D01*
G37*
G36*
X118320856Y-89942272D02*
X118521045Y-90025193D01*
X118701207Y-90145573D01*
X118854427Y-90298793D01*
X118974807Y-90478955D01*
X119057728Y-90679144D01*
X119100000Y-90891657D01*
X119100000Y-91108343D01*
X119057728Y-91320856D01*
X118974807Y-91521045D01*
X118854427Y-91701207D01*
X118701207Y-91854427D01*
X118521045Y-91974807D01*
X118320856Y-92057728D01*
X118108343Y-92100000D01*
X117891657Y-92100000D01*
X117679144Y-92057728D01*
X117478955Y-91974807D01*
X117298793Y-91854427D01*
X117145573Y-91701207D01*
X117025193Y-91521045D01*
X116942272Y-91320856D01*
X116900000Y-91108343D01*
X116900000Y-90891657D01*
X116942272Y-90679144D01*
X117025193Y-90478955D01*
X117145573Y-90298793D01*
X117298793Y-90145573D01*
X117478955Y-90025193D01*
X117679144Y-89942272D01*
X117891657Y-89900000D01*
X118108343Y-89900000D01*
X118320856Y-89942272D01*
X118320856Y-89942272D01*
G37*
G36*
X107850000Y-91250000D02*
X106150000Y-91250000D01*
X106150000Y-89050000D01*
X107850000Y-89050000D01*
X107850000Y-91250000D01*
X107850000Y-91250000D01*
G37*
G36*
X105550000Y-91250000D02*
X103850000Y-91250000D01*
X103850000Y-89050000D01*
X105550000Y-89050000D01*
X105550000Y-91250000D01*
X105550000Y-91250000D01*
G37*
G36*
X103250000Y-91250000D02*
X101550000Y-91250000D01*
X101550000Y-89050000D01*
X103250000Y-89050000D01*
X103250000Y-91250000D01*
X103250000Y-91250000D01*
G37*
G36*
X93700000Y-91100000D02*
X92500000Y-91100000D01*
X92500000Y-89200000D01*
X93700000Y-89200000D01*
X93700000Y-91100000D01*
X93700000Y-91100000D01*
G37*
G36*
X97500000Y-91100000D02*
X96300000Y-91100000D01*
X96300000Y-89200000D01*
X97500000Y-89200000D01*
X97500000Y-91100000D01*
X97500000Y-91100000D01*
G37*
G36*
X85108365Y-87403801D02*
X85108367Y-87403802D01*
X85108368Y-87403802D01*
X85228851Y-87453708D01*
X85363149Y-87509336D01*
X85592448Y-87662549D01*
X85787451Y-87857552D01*
X85940664Y-88086851D01*
X86046199Y-88341635D01*
X86100000Y-88612112D01*
X86100000Y-88887888D01*
X86046199Y-89158365D01*
X85940664Y-89413149D01*
X85787451Y-89642448D01*
X85592448Y-89837451D01*
X85435571Y-89942273D01*
X85363149Y-89990664D01*
X85108368Y-90096198D01*
X85108367Y-90096198D01*
X85108365Y-90096199D01*
X84837888Y-90150000D01*
X84562112Y-90150000D01*
X84291635Y-90096199D01*
X84291633Y-90096198D01*
X84291632Y-90096198D01*
X84036851Y-89990664D01*
X83964429Y-89942273D01*
X83807552Y-89837451D01*
X83612549Y-89642448D01*
X83459336Y-89413149D01*
X83353801Y-89158365D01*
X83300000Y-88887888D01*
X83300000Y-88612112D01*
X83353801Y-88341635D01*
X83459336Y-88086851D01*
X83612549Y-87857552D01*
X83807552Y-87662549D01*
X84036851Y-87509336D01*
X84171149Y-87453708D01*
X84291632Y-87403802D01*
X84291633Y-87403802D01*
X84291635Y-87403801D01*
X84562112Y-87350000D01*
X84837888Y-87350000D01*
X85108365Y-87403801D01*
X85108365Y-87403801D01*
G37*
G36*
X100703708Y-88355158D02*
X100749343Y-88369001D01*
X100791402Y-88391482D01*
X100828265Y-88421735D01*
X100858518Y-88458598D01*
X100880999Y-88500657D01*
X100894842Y-88546292D01*
X100900000Y-88598658D01*
X100900000Y-89276342D01*
X100894842Y-89328708D01*
X100880999Y-89374343D01*
X100858518Y-89416402D01*
X100828265Y-89453265D01*
X100791402Y-89483518D01*
X100749343Y-89505999D01*
X100703708Y-89519842D01*
X100651342Y-89525000D01*
X99548658Y-89525000D01*
X99496292Y-89519842D01*
X99450657Y-89505999D01*
X99408598Y-89483518D01*
X99371735Y-89453265D01*
X99341482Y-89416402D01*
X99319001Y-89374343D01*
X99305158Y-89328708D01*
X99300000Y-89276342D01*
X99300000Y-88598658D01*
X99305158Y-88546292D01*
X99319001Y-88500657D01*
X99341482Y-88458598D01*
X99371735Y-88421735D01*
X99408598Y-88391482D01*
X99450657Y-88369001D01*
X99496292Y-88355158D01*
X99548658Y-88350000D01*
X100651342Y-88350000D01*
X100703708Y-88355158D01*
X100703708Y-88355158D01*
G37*
G36*
X100703708Y-86480158D02*
X100749343Y-86494001D01*
X100791402Y-86516482D01*
X100828265Y-86546735D01*
X100858518Y-86583598D01*
X100880999Y-86625657D01*
X100894842Y-86671292D01*
X100900000Y-86723658D01*
X100900000Y-87401342D01*
X100894842Y-87453708D01*
X100880999Y-87499343D01*
X100858518Y-87541402D01*
X100828265Y-87578265D01*
X100791402Y-87608518D01*
X100749343Y-87630999D01*
X100703708Y-87644842D01*
X100651342Y-87650000D01*
X99548658Y-87650000D01*
X99496292Y-87644842D01*
X99450657Y-87630999D01*
X99408598Y-87608518D01*
X99371735Y-87578265D01*
X99341482Y-87541402D01*
X99319001Y-87499343D01*
X99305158Y-87453708D01*
X99300000Y-87401342D01*
X99300000Y-86723658D01*
X99305158Y-86671292D01*
X99319001Y-86625657D01*
X99341482Y-86583598D01*
X99371735Y-86546735D01*
X99408598Y-86516482D01*
X99450657Y-86494001D01*
X99496292Y-86480158D01*
X99548658Y-86475000D01*
X100651342Y-86475000D01*
X100703708Y-86480158D01*
X100703708Y-86480158D01*
G37*
G36*
X100498830Y-85054677D02*
X100539776Y-85067098D01*
X100577510Y-85087267D01*
X100610587Y-85114413D01*
X100637733Y-85147490D01*
X100657902Y-85185224D01*
X100670323Y-85226170D01*
X100675000Y-85273658D01*
X100675000Y-85901342D01*
X100670323Y-85948830D01*
X100657902Y-85989776D01*
X100637733Y-86027510D01*
X100610587Y-86060587D01*
X100577510Y-86087733D01*
X100539776Y-86107902D01*
X100498830Y-86120323D01*
X100451342Y-86125000D01*
X99748658Y-86125000D01*
X99701170Y-86120323D01*
X99660224Y-86107902D01*
X99622490Y-86087733D01*
X99589413Y-86060587D01*
X99562267Y-86027510D01*
X99542098Y-85989776D01*
X99529677Y-85948830D01*
X99525000Y-85901342D01*
X99525000Y-85273658D01*
X99529677Y-85226170D01*
X99542098Y-85185224D01*
X99562267Y-85147490D01*
X99589413Y-85114413D01*
X99622490Y-85087267D01*
X99660224Y-85067098D01*
X99701170Y-85054677D01*
X99748658Y-85050000D01*
X100451342Y-85050000D01*
X100498830Y-85054677D01*
X100498830Y-85054677D01*
G37*
G36*
X78603164Y-80756290D02*
X78917094Y-80886324D01*
X79199624Y-81075105D01*
X79439895Y-81315376D01*
X79628676Y-81597906D01*
X79758710Y-81911836D01*
X79825000Y-82245102D01*
X79825000Y-82584898D01*
X79758710Y-82918164D01*
X79758707Y-82918172D01*
X79758471Y-82919357D01*
X79756550Y-82938866D01*
X79758471Y-82958375D01*
X79764162Y-82977134D01*
X79773403Y-82994423D01*
X79785839Y-83009577D01*
X79800993Y-83022013D01*
X79818282Y-83031254D01*
X79837041Y-83036945D01*
X79856550Y-83038866D01*
X79876059Y-83036945D01*
X79894818Y-83031254D01*
X79912107Y-83022013D01*
X79927250Y-83009586D01*
X80064313Y-82872523D01*
X80342748Y-82686479D01*
X80639506Y-82563558D01*
X80652125Y-82558331D01*
X80652126Y-82558331D01*
X80652128Y-82558330D01*
X80980565Y-82493000D01*
X81315435Y-82493000D01*
X81643872Y-82558330D01*
X81643874Y-82558331D01*
X81643875Y-82558331D01*
X81656494Y-82563558D01*
X81953252Y-82686479D01*
X82231687Y-82872523D01*
X82468477Y-83109313D01*
X82654521Y-83387748D01*
X82731043Y-83572490D01*
X82760325Y-83643181D01*
X82782670Y-83697128D01*
X82848000Y-84025565D01*
X82848000Y-84360435D01*
X82782670Y-84688872D01*
X82654521Y-84998252D01*
X82468477Y-85276687D01*
X82231687Y-85513477D01*
X81953252Y-85699521D01*
X81704284Y-85802647D01*
X81643875Y-85827669D01*
X81643874Y-85827669D01*
X81643872Y-85827670D01*
X81315435Y-85893000D01*
X80980565Y-85893000D01*
X80652128Y-85827670D01*
X80652126Y-85827669D01*
X80652125Y-85827669D01*
X80591716Y-85802647D01*
X80342748Y-85699521D01*
X80064313Y-85513477D01*
X79827523Y-85276687D01*
X79641479Y-84998252D01*
X79513330Y-84688872D01*
X79448000Y-84360435D01*
X79448000Y-84025565D01*
X79512570Y-83700950D01*
X79514490Y-83681449D01*
X79512569Y-83661940D01*
X79506878Y-83643181D01*
X79497637Y-83625892D01*
X79485201Y-83610738D01*
X79470047Y-83598302D01*
X79452758Y-83589061D01*
X79433999Y-83583370D01*
X79414490Y-83581449D01*
X79394981Y-83583370D01*
X79376222Y-83589061D01*
X79358933Y-83598302D01*
X79343790Y-83610729D01*
X79199624Y-83754895D01*
X78917094Y-83943676D01*
X78603164Y-84073710D01*
X78269898Y-84140000D01*
X77930102Y-84140000D01*
X77596836Y-84073710D01*
X77282906Y-83943676D01*
X77000376Y-83754895D01*
X76760105Y-83514624D01*
X76571324Y-83232094D01*
X76441290Y-82918164D01*
X76375000Y-82584898D01*
X76375000Y-82245102D01*
X76441290Y-81911836D01*
X76571324Y-81597906D01*
X76760105Y-81315376D01*
X77000376Y-81075105D01*
X77282906Y-80886324D01*
X77596836Y-80756290D01*
X77930102Y-80690000D01*
X78269898Y-80690000D01*
X78603164Y-80756290D01*
X78603164Y-80756290D01*
G37*
G36*
X113450000Y-85450000D02*
X109950000Y-85450000D01*
X109950000Y-82750000D01*
X113450000Y-82750000D01*
X113450000Y-85450000D01*
X113450000Y-85450000D01*
G37*
G36*
X106700000Y-84950000D02*
X102700000Y-84950000D01*
X102700000Y-82750000D01*
X106700000Y-82750000D01*
X106700000Y-84950000D01*
X106700000Y-84950000D01*
G37*
G36*
X97500000Y-84800000D02*
X96300000Y-84800000D01*
X96300000Y-82900000D01*
X97500000Y-82900000D01*
X97500000Y-84800000D01*
X97500000Y-84800000D01*
G37*
G36*
X93700000Y-84800000D02*
X92500000Y-84800000D01*
X92500000Y-82900000D01*
X93700000Y-82900000D01*
X93700000Y-84800000D01*
X93700000Y-84800000D01*
G37*
G36*
X100498830Y-83479677D02*
X100539776Y-83492098D01*
X100577510Y-83512267D01*
X100610587Y-83539413D01*
X100637733Y-83572490D01*
X100657902Y-83610224D01*
X100670323Y-83651170D01*
X100675000Y-83698658D01*
X100675000Y-84326342D01*
X100670323Y-84373830D01*
X100657902Y-84414776D01*
X100637733Y-84452510D01*
X100610587Y-84485587D01*
X100577510Y-84512733D01*
X100539776Y-84532902D01*
X100498830Y-84545323D01*
X100451342Y-84550000D01*
X99748658Y-84550000D01*
X99701170Y-84545323D01*
X99660224Y-84532902D01*
X99622490Y-84512733D01*
X99589413Y-84485587D01*
X99562267Y-84452510D01*
X99542098Y-84414776D01*
X99529677Y-84373830D01*
X99525000Y-84326342D01*
X99525000Y-83698658D01*
X99529677Y-83651170D01*
X99542098Y-83610224D01*
X99562267Y-83572490D01*
X99589413Y-83539413D01*
X99622490Y-83512267D01*
X99660224Y-83492098D01*
X99701170Y-83479677D01*
X99748658Y-83475000D01*
X100451342Y-83475000D01*
X100498830Y-83479677D01*
X100498830Y-83479677D01*
G37*
G36*
X125228708Y-81205158D02*
X125274343Y-81219001D01*
X125316402Y-81241482D01*
X125353265Y-81271735D01*
X125383518Y-81308598D01*
X125405999Y-81350657D01*
X125419842Y-81396292D01*
X125425000Y-81448658D01*
X125425000Y-82551342D01*
X125419842Y-82603708D01*
X125405999Y-82649343D01*
X125383518Y-82691402D01*
X125353265Y-82728265D01*
X125316402Y-82758518D01*
X125274343Y-82780999D01*
X125228708Y-82794842D01*
X125176342Y-82800000D01*
X124498658Y-82800000D01*
X124446292Y-82794842D01*
X124400657Y-82780999D01*
X124358598Y-82758518D01*
X124321735Y-82728265D01*
X124291482Y-82691402D01*
X124269001Y-82649343D01*
X124255158Y-82603708D01*
X124250000Y-82551342D01*
X124250000Y-81448658D01*
X124255158Y-81396292D01*
X124269001Y-81350657D01*
X124291482Y-81308598D01*
X124321735Y-81271735D01*
X124358598Y-81241482D01*
X124400657Y-81219001D01*
X124446292Y-81205158D01*
X124498658Y-81200000D01*
X125176342Y-81200000D01*
X125228708Y-81205158D01*
X125228708Y-81205158D01*
G37*
G36*
X123353708Y-81205158D02*
X123399343Y-81219001D01*
X123441402Y-81241482D01*
X123478265Y-81271735D01*
X123508518Y-81308598D01*
X123530999Y-81350657D01*
X123544842Y-81396292D01*
X123550000Y-81448658D01*
X123550000Y-82551342D01*
X123544842Y-82603708D01*
X123530999Y-82649343D01*
X123508518Y-82691402D01*
X123478265Y-82728265D01*
X123441402Y-82758518D01*
X123399343Y-82780999D01*
X123353708Y-82794842D01*
X123301342Y-82800000D01*
X122623658Y-82800000D01*
X122571292Y-82794842D01*
X122525657Y-82780999D01*
X122483598Y-82758518D01*
X122446735Y-82728265D01*
X122416482Y-82691402D01*
X122394001Y-82649343D01*
X122380158Y-82603708D01*
X122375000Y-82551342D01*
X122375000Y-81448658D01*
X122380158Y-81396292D01*
X122394001Y-81350657D01*
X122416482Y-81308598D01*
X122446735Y-81271735D01*
X122483598Y-81241482D01*
X122525657Y-81219001D01*
X122571292Y-81205158D01*
X122623658Y-81200000D01*
X123301342Y-81200000D01*
X123353708Y-81205158D01*
X123353708Y-81205158D01*
G37*
G36*
X121848830Y-81429677D02*
X121889776Y-81442098D01*
X121927510Y-81462267D01*
X121960587Y-81489413D01*
X121987733Y-81522490D01*
X122007902Y-81560224D01*
X122020323Y-81601170D01*
X122025000Y-81648658D01*
X122025000Y-82351342D01*
X122020323Y-82398830D01*
X122007902Y-82439776D01*
X121987733Y-82477510D01*
X121960587Y-82510587D01*
X121927510Y-82537733D01*
X121889776Y-82557902D01*
X121848830Y-82570323D01*
X121801342Y-82575000D01*
X121173658Y-82575000D01*
X121126170Y-82570323D01*
X121085224Y-82557902D01*
X121047490Y-82537733D01*
X121014413Y-82510587D01*
X120987267Y-82477510D01*
X120967098Y-82439776D01*
X120954677Y-82398830D01*
X120950000Y-82351342D01*
X120950000Y-81648658D01*
X120954677Y-81601170D01*
X120967098Y-81560224D01*
X120987267Y-81522490D01*
X121014413Y-81489413D01*
X121047490Y-81462267D01*
X121085224Y-81442098D01*
X121126170Y-81429677D01*
X121173658Y-81425000D01*
X121801342Y-81425000D01*
X121848830Y-81429677D01*
X121848830Y-81429677D01*
G37*
G36*
X120273830Y-81429677D02*
X120314776Y-81442098D01*
X120352510Y-81462267D01*
X120385587Y-81489413D01*
X120412733Y-81522490D01*
X120432902Y-81560224D01*
X120445323Y-81601170D01*
X120450000Y-81648658D01*
X120450000Y-82351342D01*
X120445323Y-82398830D01*
X120432902Y-82439776D01*
X120412733Y-82477510D01*
X120385587Y-82510587D01*
X120352510Y-82537733D01*
X120314776Y-82557902D01*
X120273830Y-82570323D01*
X120226342Y-82575000D01*
X119598658Y-82575000D01*
X119551170Y-82570323D01*
X119510224Y-82557902D01*
X119472490Y-82537733D01*
X119439413Y-82510587D01*
X119412267Y-82477510D01*
X119392098Y-82439776D01*
X119379677Y-82398830D01*
X119375000Y-82351342D01*
X119375000Y-81648658D01*
X119379677Y-81601170D01*
X119392098Y-81560224D01*
X119412267Y-81522490D01*
X119439413Y-81489413D01*
X119472490Y-81462267D01*
X119510224Y-81442098D01*
X119551170Y-81429677D01*
X119598658Y-81425000D01*
X120226342Y-81425000D01*
X120273830Y-81429677D01*
X120273830Y-81429677D01*
G37*
G36*
X87197520Y-80166687D02*
X87281689Y-80183429D01*
X87463678Y-80258811D01*
X87627463Y-80368249D01*
X87766751Y-80507537D01*
X87876189Y-80671322D01*
X87951571Y-80853311D01*
X87958138Y-80886325D01*
X87990000Y-81046506D01*
X87990000Y-81243494D01*
X87975701Y-81315379D01*
X87951571Y-81436689D01*
X87876189Y-81618678D01*
X87766751Y-81782463D01*
X87627463Y-81921751D01*
X87463678Y-82031189D01*
X87281689Y-82106571D01*
X87204410Y-82121943D01*
X87088494Y-82145000D01*
X86891506Y-82145000D01*
X86775590Y-82121943D01*
X86698311Y-82106571D01*
X86516322Y-82031189D01*
X86352537Y-81921751D01*
X86213249Y-81782463D01*
X86103811Y-81618678D01*
X86028429Y-81436689D01*
X86004299Y-81315379D01*
X85990000Y-81243494D01*
X85990000Y-81046506D01*
X86021862Y-80886325D01*
X86028429Y-80853311D01*
X86103811Y-80671322D01*
X86213249Y-80507537D01*
X86352537Y-80368249D01*
X86516322Y-80258811D01*
X86698311Y-80183429D01*
X86782480Y-80166687D01*
X86891506Y-80145000D01*
X87088494Y-80145000D01*
X87197520Y-80166687D01*
X87197520Y-80166687D01*
G37*
G36*
X99248830Y-80929677D02*
X99289776Y-80942098D01*
X99327510Y-80962267D01*
X99360587Y-80989413D01*
X99387733Y-81022490D01*
X99407902Y-81060224D01*
X99420323Y-81101170D01*
X99425000Y-81148658D01*
X99425000Y-81851342D01*
X99420323Y-81898830D01*
X99407902Y-81939776D01*
X99387733Y-81977510D01*
X99360587Y-82010587D01*
X99327510Y-82037733D01*
X99289776Y-82057902D01*
X99248830Y-82070323D01*
X99201342Y-82075000D01*
X98573658Y-82075000D01*
X98526170Y-82070323D01*
X98485224Y-82057902D01*
X98447490Y-82037733D01*
X98414413Y-82010587D01*
X98387267Y-81977510D01*
X98367098Y-81939776D01*
X98354677Y-81898830D01*
X98350000Y-81851342D01*
X98350000Y-81148658D01*
X98354677Y-81101170D01*
X98367098Y-81060224D01*
X98387267Y-81022490D01*
X98414413Y-80989413D01*
X98447490Y-80962267D01*
X98485224Y-80942098D01*
X98526170Y-80929677D01*
X98573658Y-80925000D01*
X99201342Y-80925000D01*
X99248830Y-80929677D01*
X99248830Y-80929677D01*
G37*
G36*
X97673830Y-80929677D02*
X97714776Y-80942098D01*
X97752510Y-80962267D01*
X97785587Y-80989413D01*
X97812733Y-81022490D01*
X97832902Y-81060224D01*
X97845323Y-81101170D01*
X97850000Y-81148658D01*
X97850000Y-81851342D01*
X97845323Y-81898830D01*
X97832902Y-81939776D01*
X97812733Y-81977510D01*
X97785587Y-82010587D01*
X97752510Y-82037733D01*
X97714776Y-82057902D01*
X97673830Y-82070323D01*
X97626342Y-82075000D01*
X96998658Y-82075000D01*
X96951170Y-82070323D01*
X96910224Y-82057902D01*
X96872490Y-82037733D01*
X96839413Y-82010587D01*
X96812267Y-81977510D01*
X96792098Y-81939776D01*
X96779677Y-81898830D01*
X96775000Y-81851342D01*
X96775000Y-81148658D01*
X96779677Y-81101170D01*
X96792098Y-81060224D01*
X96812267Y-81022490D01*
X96839413Y-80989413D01*
X96872490Y-80962267D01*
X96910224Y-80942098D01*
X96951170Y-80929677D01*
X96998658Y-80925000D01*
X97626342Y-80925000D01*
X97673830Y-80929677D01*
X97673830Y-80929677D01*
G37*
G36*
X108853708Y-79605158D02*
X108899343Y-79619001D01*
X108941402Y-79641482D01*
X108978265Y-79671735D01*
X109008518Y-79708598D01*
X109030999Y-79750657D01*
X109044842Y-79796292D01*
X109050000Y-79848658D01*
X109050000Y-80951342D01*
X109044842Y-81003708D01*
X109030999Y-81049343D01*
X109008518Y-81091402D01*
X108978265Y-81128265D01*
X108941402Y-81158518D01*
X108899343Y-81180999D01*
X108853708Y-81194842D01*
X108801342Y-81200000D01*
X108123658Y-81200000D01*
X108071292Y-81194842D01*
X108025657Y-81180999D01*
X107983598Y-81158518D01*
X107946735Y-81128265D01*
X107916482Y-81091402D01*
X107894001Y-81049343D01*
X107880158Y-81003708D01*
X107875000Y-80951342D01*
X107875000Y-79848658D01*
X107880158Y-79796292D01*
X107894001Y-79750657D01*
X107916482Y-79708598D01*
X107946735Y-79671735D01*
X107983598Y-79641482D01*
X108025657Y-79619001D01*
X108071292Y-79605158D01*
X108123658Y-79600000D01*
X108801342Y-79600000D01*
X108853708Y-79605158D01*
X108853708Y-79605158D01*
G37*
G36*
X110728708Y-79605158D02*
X110774343Y-79619001D01*
X110816402Y-79641482D01*
X110853265Y-79671735D01*
X110883518Y-79708598D01*
X110905999Y-79750657D01*
X110919842Y-79796292D01*
X110925000Y-79848658D01*
X110925000Y-80951342D01*
X110919842Y-81003708D01*
X110905999Y-81049343D01*
X110883518Y-81091402D01*
X110853265Y-81128265D01*
X110816402Y-81158518D01*
X110774343Y-81180999D01*
X110728708Y-81194842D01*
X110676342Y-81200000D01*
X109998658Y-81200000D01*
X109946292Y-81194842D01*
X109900657Y-81180999D01*
X109858598Y-81158518D01*
X109821735Y-81128265D01*
X109791482Y-81091402D01*
X109769001Y-81049343D01*
X109755158Y-81003708D01*
X109750000Y-80951342D01*
X109750000Y-79848658D01*
X109755158Y-79796292D01*
X109769001Y-79750657D01*
X109791482Y-79708598D01*
X109821735Y-79671735D01*
X109858598Y-79641482D01*
X109900657Y-79619001D01*
X109946292Y-79605158D01*
X109998658Y-79600000D01*
X110676342Y-79600000D01*
X110728708Y-79605158D01*
X110728708Y-79605158D01*
G37*
G36*
X84657520Y-78896687D02*
X84741689Y-78913429D01*
X84923678Y-78988811D01*
X85087463Y-79098249D01*
X85226751Y-79237537D01*
X85336189Y-79401322D01*
X85411571Y-79583311D01*
X85423142Y-79641482D01*
X85450000Y-79776506D01*
X85450000Y-79973494D01*
X85426943Y-80089410D01*
X85411571Y-80166689D01*
X85336189Y-80348678D01*
X85226751Y-80512463D01*
X85087463Y-80651751D01*
X84923678Y-80761189D01*
X84741689Y-80836571D01*
X84664410Y-80851943D01*
X84548494Y-80875000D01*
X84351506Y-80875000D01*
X84235590Y-80851943D01*
X84158311Y-80836571D01*
X83976322Y-80761189D01*
X83812537Y-80651751D01*
X83673249Y-80512463D01*
X83563811Y-80348678D01*
X83488429Y-80166689D01*
X83473057Y-80089410D01*
X83450000Y-79973494D01*
X83450000Y-79776506D01*
X83476858Y-79641482D01*
X83488429Y-79583311D01*
X83563811Y-79401322D01*
X83673249Y-79237537D01*
X83812537Y-79098249D01*
X83976322Y-78988811D01*
X84158311Y-78913429D01*
X84242480Y-78896687D01*
X84351506Y-78875000D01*
X84548494Y-78875000D01*
X84657520Y-78896687D01*
X84657520Y-78896687D01*
G37*
G36*
X107436330Y-79629677D02*
X107477276Y-79642098D01*
X107515010Y-79662267D01*
X107548087Y-79689413D01*
X107575233Y-79722490D01*
X107595402Y-79760224D01*
X107607823Y-79801170D01*
X107612500Y-79848658D01*
X107612500Y-80551342D01*
X107607823Y-80598830D01*
X107595402Y-80639776D01*
X107575233Y-80677510D01*
X107548087Y-80710587D01*
X107515010Y-80737733D01*
X107477276Y-80757902D01*
X107436330Y-80770323D01*
X107388842Y-80775000D01*
X106761158Y-80775000D01*
X106713670Y-80770323D01*
X106672724Y-80757902D01*
X106634990Y-80737733D01*
X106601913Y-80710587D01*
X106574767Y-80677510D01*
X106554598Y-80639776D01*
X106542177Y-80598830D01*
X106537500Y-80551342D01*
X106537500Y-79848658D01*
X106542177Y-79801170D01*
X106554598Y-79760224D01*
X106574767Y-79722490D01*
X106601913Y-79689413D01*
X106634990Y-79662267D01*
X106672724Y-79642098D01*
X106713670Y-79629677D01*
X106761158Y-79625000D01*
X107388842Y-79625000D01*
X107436330Y-79629677D01*
X107436330Y-79629677D01*
G37*
G36*
X105861330Y-79629677D02*
X105902276Y-79642098D01*
X105940010Y-79662267D01*
X105973087Y-79689413D01*
X106000233Y-79722490D01*
X106020402Y-79760224D01*
X106032823Y-79801170D01*
X106037500Y-79848658D01*
X106037500Y-80551342D01*
X106032823Y-80598830D01*
X106020402Y-80639776D01*
X106000233Y-80677510D01*
X105973087Y-80710587D01*
X105940010Y-80737733D01*
X105902276Y-80757902D01*
X105861330Y-80770323D01*
X105813842Y-80775000D01*
X105186158Y-80775000D01*
X105138670Y-80770323D01*
X105097724Y-80757902D01*
X105059990Y-80737733D01*
X105026913Y-80710587D01*
X104999767Y-80677510D01*
X104979598Y-80639776D01*
X104967177Y-80598830D01*
X104962500Y-80551342D01*
X104962500Y-79848658D01*
X104967177Y-79801170D01*
X104979598Y-79760224D01*
X104999767Y-79722490D01*
X105026913Y-79689413D01*
X105059990Y-79662267D01*
X105097724Y-79642098D01*
X105138670Y-79629677D01*
X105186158Y-79625000D01*
X105813842Y-79625000D01*
X105861330Y-79629677D01*
X105861330Y-79629677D01*
G37*
G36*
X101275000Y-80650000D02*
X94925000Y-80650000D01*
X94925000Y-78850000D01*
X101275000Y-78850000D01*
X101275000Y-80650000D01*
X101275000Y-80650000D01*
G37*
G36*
X122603164Y-76651290D02*
X122917094Y-76781324D01*
X123199624Y-76970105D01*
X123439895Y-77210376D01*
X123628676Y-77492906D01*
X123758710Y-77806836D01*
X123825000Y-78140102D01*
X123825000Y-78479898D01*
X123758710Y-78813164D01*
X123628676Y-79127094D01*
X123439895Y-79409624D01*
X123199624Y-79649895D01*
X122917094Y-79838676D01*
X122603164Y-79968710D01*
X122269898Y-80035000D01*
X121930102Y-80035000D01*
X121596836Y-79968710D01*
X121282906Y-79838676D01*
X121000376Y-79649895D01*
X120760105Y-79409624D01*
X120571324Y-79127094D01*
X120441290Y-78813164D01*
X120375000Y-78479898D01*
X120375000Y-78140102D01*
X120441290Y-77806836D01*
X120571324Y-77492906D01*
X120760105Y-77210376D01*
X121000376Y-76970105D01*
X121282906Y-76781324D01*
X121596836Y-76651290D01*
X121930102Y-76585000D01*
X122269898Y-76585000D01*
X122603164Y-76651290D01*
X122603164Y-76651290D01*
G37*
G36*
X87197520Y-77626687D02*
X87281689Y-77643429D01*
X87463678Y-77718811D01*
X87627463Y-77828249D01*
X87766751Y-77967537D01*
X87876189Y-78131322D01*
X87951571Y-78313311D01*
X87951571Y-78313313D01*
X87990000Y-78506506D01*
X87990000Y-78703494D01*
X87968185Y-78813164D01*
X87951571Y-78896689D01*
X87876189Y-79078678D01*
X87766751Y-79242463D01*
X87627463Y-79381751D01*
X87463678Y-79491189D01*
X87281689Y-79566571D01*
X87204410Y-79581943D01*
X87088494Y-79605000D01*
X86891506Y-79605000D01*
X86775590Y-79581943D01*
X86698311Y-79566571D01*
X86516322Y-79491189D01*
X86352537Y-79381751D01*
X86213249Y-79242463D01*
X86103811Y-79078678D01*
X86028429Y-78896689D01*
X86011815Y-78813164D01*
X85990000Y-78703494D01*
X85990000Y-78506506D01*
X86028429Y-78313313D01*
X86028429Y-78313311D01*
X86103811Y-78131322D01*
X86213249Y-77967537D01*
X86352537Y-77828249D01*
X86516322Y-77718811D01*
X86698311Y-77643429D01*
X86782480Y-77626687D01*
X86891506Y-77605000D01*
X87088494Y-77605000D01*
X87197520Y-77626687D01*
X87197520Y-77626687D01*
G37*
G36*
X108853708Y-77705158D02*
X108899343Y-77719001D01*
X108941402Y-77741482D01*
X108978265Y-77771735D01*
X109008518Y-77808598D01*
X109030999Y-77850657D01*
X109044842Y-77896292D01*
X109050000Y-77948658D01*
X109050000Y-79051342D01*
X109044842Y-79103708D01*
X109030999Y-79149343D01*
X109008518Y-79191402D01*
X108978265Y-79228265D01*
X108941402Y-79258518D01*
X108899343Y-79280999D01*
X108853708Y-79294842D01*
X108801342Y-79300000D01*
X108123658Y-79300000D01*
X108071292Y-79294842D01*
X108025657Y-79280999D01*
X107983598Y-79258518D01*
X107946735Y-79228265D01*
X107916482Y-79191402D01*
X107894001Y-79149343D01*
X107880158Y-79103708D01*
X107875000Y-79051342D01*
X107875000Y-77948658D01*
X107880158Y-77896292D01*
X107894001Y-77850657D01*
X107916482Y-77808598D01*
X107946735Y-77771735D01*
X107983598Y-77741482D01*
X108025657Y-77719001D01*
X108071292Y-77705158D01*
X108123658Y-77700000D01*
X108801342Y-77700000D01*
X108853708Y-77705158D01*
X108853708Y-77705158D01*
G37*
G36*
X110728708Y-77705158D02*
X110774343Y-77719001D01*
X110816402Y-77741482D01*
X110853265Y-77771735D01*
X110883518Y-77808598D01*
X110905999Y-77850657D01*
X110919842Y-77896292D01*
X110925000Y-77948658D01*
X110925000Y-79051342D01*
X110919842Y-79103708D01*
X110905999Y-79149343D01*
X110883518Y-79191402D01*
X110853265Y-79228265D01*
X110816402Y-79258518D01*
X110774343Y-79280999D01*
X110728708Y-79294842D01*
X110676342Y-79300000D01*
X109998658Y-79300000D01*
X109946292Y-79294842D01*
X109900657Y-79280999D01*
X109858598Y-79258518D01*
X109821735Y-79228265D01*
X109791482Y-79191402D01*
X109769001Y-79149343D01*
X109755158Y-79103708D01*
X109750000Y-79051342D01*
X109750000Y-77948658D01*
X109755158Y-77896292D01*
X109769001Y-77850657D01*
X109791482Y-77808598D01*
X109821735Y-77771735D01*
X109858598Y-77741482D01*
X109900657Y-77719001D01*
X109946292Y-77705158D01*
X109998658Y-77700000D01*
X110676342Y-77700000D01*
X110728708Y-77705158D01*
X110728708Y-77705158D01*
G37*
G36*
X107436330Y-78129677D02*
X107477276Y-78142098D01*
X107515010Y-78162267D01*
X107548087Y-78189413D01*
X107575233Y-78222490D01*
X107595402Y-78260224D01*
X107607823Y-78301170D01*
X107612500Y-78348658D01*
X107612500Y-79051342D01*
X107607823Y-79098830D01*
X107595402Y-79139776D01*
X107575233Y-79177510D01*
X107548087Y-79210587D01*
X107515010Y-79237733D01*
X107477276Y-79257902D01*
X107436330Y-79270323D01*
X107388842Y-79275000D01*
X106761158Y-79275000D01*
X106713670Y-79270323D01*
X106672724Y-79257902D01*
X106634990Y-79237733D01*
X106601913Y-79210587D01*
X106574767Y-79177510D01*
X106554598Y-79139776D01*
X106542177Y-79098830D01*
X106537500Y-79051342D01*
X106537500Y-78348658D01*
X106542177Y-78301170D01*
X106554598Y-78260224D01*
X106574767Y-78222490D01*
X106601913Y-78189413D01*
X106634990Y-78162267D01*
X106672724Y-78142098D01*
X106713670Y-78129677D01*
X106761158Y-78125000D01*
X107388842Y-78125000D01*
X107436330Y-78129677D01*
X107436330Y-78129677D01*
G37*
G36*
X105861330Y-78129677D02*
X105902276Y-78142098D01*
X105940010Y-78162267D01*
X105973087Y-78189413D01*
X106000233Y-78222490D01*
X106020402Y-78260224D01*
X106032823Y-78301170D01*
X106037500Y-78348658D01*
X106037500Y-79051342D01*
X106032823Y-79098830D01*
X106020402Y-79139776D01*
X106000233Y-79177510D01*
X105973087Y-79210587D01*
X105940010Y-79237733D01*
X105902276Y-79257902D01*
X105861330Y-79270323D01*
X105813842Y-79275000D01*
X105186158Y-79275000D01*
X105138670Y-79270323D01*
X105097724Y-79257902D01*
X105059990Y-79237733D01*
X105026913Y-79210587D01*
X104999767Y-79177510D01*
X104979598Y-79139776D01*
X104967177Y-79098830D01*
X104962500Y-79051342D01*
X104962500Y-78348658D01*
X104967177Y-78301170D01*
X104979598Y-78260224D01*
X104999767Y-78222490D01*
X105026913Y-78189413D01*
X105059990Y-78162267D01*
X105097724Y-78142098D01*
X105138670Y-78129677D01*
X105186158Y-78125000D01*
X105813842Y-78125000D01*
X105861330Y-78129677D01*
X105861330Y-78129677D01*
G37*
G36*
X94750000Y-78675000D02*
X92950000Y-78675000D01*
X92950000Y-72325000D01*
X94750000Y-72325000D01*
X94750000Y-78675000D01*
X94750000Y-78675000D01*
G37*
G36*
X103250000Y-78675000D02*
X101450000Y-78675000D01*
X101450000Y-72325000D01*
X103250000Y-72325000D01*
X103250000Y-78675000D01*
X103250000Y-78675000D01*
G37*
G36*
X90650000Y-78350000D02*
X89550000Y-78350000D01*
X89550000Y-77350000D01*
X90650000Y-77350000D01*
X90650000Y-78350000D01*
X90650000Y-78350000D01*
G37*
G36*
X84657520Y-76356687D02*
X84741689Y-76373429D01*
X84923678Y-76448811D01*
X85087463Y-76558249D01*
X85226751Y-76697537D01*
X85336189Y-76861322D01*
X85411571Y-77043311D01*
X85411571Y-77043313D01*
X85450000Y-77236506D01*
X85450000Y-77433494D01*
X85438182Y-77492906D01*
X85411571Y-77626689D01*
X85336189Y-77808678D01*
X85226751Y-77972463D01*
X85087463Y-78111751D01*
X84923678Y-78221189D01*
X84741689Y-78296571D01*
X84664410Y-78311943D01*
X84548494Y-78335000D01*
X84351506Y-78335000D01*
X84235590Y-78311943D01*
X84158311Y-78296571D01*
X83976322Y-78221189D01*
X83812537Y-78111751D01*
X83673249Y-77972463D01*
X83563811Y-77808678D01*
X83488429Y-77626689D01*
X83461818Y-77492906D01*
X83450000Y-77433494D01*
X83450000Y-77236506D01*
X83488429Y-77043313D01*
X83488429Y-77043311D01*
X83563811Y-76861322D01*
X83673249Y-76697537D01*
X83812537Y-76558249D01*
X83976322Y-76448811D01*
X84158311Y-76373429D01*
X84242480Y-76356687D01*
X84351506Y-76335000D01*
X84548494Y-76335000D01*
X84657520Y-76356687D01*
X84657520Y-76356687D01*
G37*
G36*
X115957520Y-75421687D02*
X116041689Y-75438429D01*
X116223678Y-75513811D01*
X116387463Y-75623249D01*
X116526751Y-75762537D01*
X116636189Y-75926322D01*
X116711571Y-76108311D01*
X116720056Y-76150968D01*
X116750000Y-76301506D01*
X116750000Y-76498494D01*
X116738114Y-76558249D01*
X116711571Y-76691689D01*
X116636189Y-76873678D01*
X116526751Y-77037463D01*
X116387463Y-77176751D01*
X116223678Y-77286189D01*
X116041689Y-77361571D01*
X115964410Y-77376943D01*
X115848494Y-77400000D01*
X115651506Y-77400000D01*
X115535590Y-77376943D01*
X115458311Y-77361571D01*
X115276322Y-77286189D01*
X115112537Y-77176751D01*
X114973249Y-77037463D01*
X114863811Y-76873678D01*
X114788429Y-76691689D01*
X114761886Y-76558249D01*
X114750000Y-76498494D01*
X114750000Y-76301506D01*
X114779944Y-76150968D01*
X114788429Y-76108311D01*
X114863811Y-75926322D01*
X114973249Y-75762537D01*
X115112537Y-75623249D01*
X115276322Y-75513811D01*
X115458311Y-75438429D01*
X115542480Y-75421687D01*
X115651506Y-75400000D01*
X115848494Y-75400000D01*
X115957520Y-75421687D01*
X115957520Y-75421687D01*
G37*
G36*
X92650000Y-77400000D02*
X91550000Y-77400000D01*
X91550000Y-76400000D01*
X92650000Y-76400000D01*
X92650000Y-77400000D01*
X92650000Y-77400000D01*
G37*
G36*
X87197520Y-75086687D02*
X87281689Y-75103429D01*
X87463678Y-75178811D01*
X87627463Y-75288249D01*
X87766751Y-75427537D01*
X87876189Y-75591322D01*
X87951571Y-75773311D01*
X87951571Y-75773313D01*
X87990000Y-75966506D01*
X87990000Y-76163494D01*
X87967820Y-76275000D01*
X87951571Y-76356689D01*
X87876189Y-76538678D01*
X87766751Y-76702463D01*
X87627463Y-76841751D01*
X87463678Y-76951189D01*
X87281689Y-77026571D01*
X87204410Y-77041943D01*
X87088494Y-77065000D01*
X86891506Y-77065000D01*
X86775590Y-77041943D01*
X86698311Y-77026571D01*
X86516322Y-76951189D01*
X86352537Y-76841751D01*
X86213249Y-76702463D01*
X86103811Y-76538678D01*
X86028429Y-76356689D01*
X86012180Y-76275000D01*
X85990000Y-76163494D01*
X85990000Y-75966506D01*
X86028429Y-75773313D01*
X86028429Y-75773311D01*
X86103811Y-75591322D01*
X86213249Y-75427537D01*
X86352537Y-75288249D01*
X86516322Y-75178811D01*
X86698311Y-75103429D01*
X86782480Y-75086687D01*
X86891506Y-75065000D01*
X87088494Y-75065000D01*
X87197520Y-75086687D01*
X87197520Y-75086687D01*
G37*
G36*
X90650000Y-76450000D02*
X89550000Y-76450000D01*
X89550000Y-75450000D01*
X90650000Y-75450000D01*
X90650000Y-76450000D01*
X90650000Y-76450000D01*
G37*
G36*
X110014081Y-74450903D02*
X110019603Y-74451447D01*
X110038454Y-74457165D01*
X110052593Y-74464723D01*
X110055830Y-74466453D01*
X110071052Y-74478946D01*
X110072693Y-74480945D01*
X110086555Y-74494807D01*
X110102854Y-74505699D01*
X110120965Y-74513201D01*
X110140192Y-74517025D01*
X110159796Y-74517026D01*
X110179022Y-74513201D01*
X110197134Y-74505700D01*
X110213433Y-74494809D01*
X110227360Y-74480869D01*
X110228873Y-74479021D01*
X110244087Y-74466509D01*
X110261449Y-74457205D01*
X110280293Y-74451467D01*
X110300000Y-74449516D01*
X110300050Y-74449516D01*
X110304937Y-74449032D01*
X111295090Y-74449032D01*
X111314081Y-74450903D01*
X111319603Y-74451447D01*
X111338454Y-74457165D01*
X111352593Y-74464723D01*
X111355830Y-74466453D01*
X111371053Y-74478947D01*
X111383547Y-74494170D01*
X111385277Y-74497407D01*
X111392835Y-74511546D01*
X111392836Y-74511549D01*
X111398553Y-74530398D01*
X111400968Y-74554910D01*
X111400968Y-76045090D01*
X111400484Y-76050000D01*
X111398553Y-76069603D01*
X111392835Y-76088454D01*
X111385277Y-76102593D01*
X111383547Y-76105830D01*
X111371053Y-76121053D01*
X111355830Y-76133547D01*
X111355826Y-76133549D01*
X111338454Y-76142835D01*
X111338451Y-76142836D01*
X111338322Y-76142875D01*
X111319603Y-76148553D01*
X111314081Y-76149097D01*
X111295090Y-76150968D01*
X110304910Y-76150968D01*
X110285919Y-76149097D01*
X110280397Y-76148553D01*
X110261678Y-76142875D01*
X110261549Y-76142836D01*
X110261546Y-76142835D01*
X110244174Y-76133549D01*
X110244170Y-76133547D01*
X110228966Y-76121070D01*
X110228962Y-76121066D01*
X110228947Y-76121053D01*
X110227300Y-76119044D01*
X110213477Y-76105207D01*
X110197183Y-76094308D01*
X110179076Y-76086797D01*
X110159851Y-76082962D01*
X110140248Y-76082953D01*
X110121019Y-76086767D01*
X110102904Y-76094260D01*
X110086599Y-76105143D01*
X110072766Y-76118954D01*
X110072666Y-76119076D01*
X110070977Y-76121129D01*
X110055738Y-76133608D01*
X110038360Y-76142874D01*
X110034960Y-76143901D01*
X110019500Y-76148574D01*
X110019495Y-76148574D01*
X110019477Y-76148580D01*
X109995108Y-76150968D01*
X108854910Y-76150968D01*
X108835919Y-76149097D01*
X108830397Y-76148553D01*
X108811678Y-76142875D01*
X108811549Y-76142836D01*
X108811546Y-76142835D01*
X108794174Y-76133549D01*
X108794170Y-76133547D01*
X108778947Y-76121053D01*
X108766453Y-76105830D01*
X108764723Y-76102593D01*
X108757165Y-76088454D01*
X108751447Y-76069603D01*
X108749516Y-76050000D01*
X108749032Y-76045090D01*
X108749032Y-74554910D01*
X108751447Y-74530398D01*
X108757164Y-74511549D01*
X108757165Y-74511546D01*
X108764723Y-74497407D01*
X108766453Y-74494170D01*
X108778947Y-74478947D01*
X108794170Y-74466453D01*
X108797407Y-74464723D01*
X108811546Y-74457165D01*
X108830397Y-74451447D01*
X108835919Y-74450903D01*
X108854910Y-74449032D01*
X109995090Y-74449032D01*
X110014081Y-74450903D01*
X110014081Y-74450903D01*
G37*
G36*
X113417520Y-74151687D02*
X113501689Y-74168429D01*
X113683678Y-74243811D01*
X113847463Y-74353249D01*
X113986751Y-74492537D01*
X114096189Y-74656322D01*
X114171571Y-74838311D01*
X114186943Y-74915590D01*
X114210000Y-75031506D01*
X114210000Y-75228494D01*
X114188147Y-75338356D01*
X114171571Y-75421689D01*
X114096189Y-75603678D01*
X113986751Y-75767463D01*
X113847463Y-75906751D01*
X113683678Y-76016189D01*
X113501689Y-76091571D01*
X113433457Y-76105143D01*
X113308494Y-76130000D01*
X113111506Y-76130000D01*
X112986543Y-76105143D01*
X112918311Y-76091571D01*
X112736322Y-76016189D01*
X112572537Y-75906751D01*
X112433249Y-75767463D01*
X112323811Y-75603678D01*
X112248429Y-75421689D01*
X112231853Y-75338356D01*
X112210000Y-75228494D01*
X112210000Y-75031506D01*
X112233057Y-74915590D01*
X112248429Y-74838311D01*
X112323811Y-74656322D01*
X112433249Y-74492537D01*
X112572537Y-74353249D01*
X112736322Y-74243811D01*
X112918311Y-74168429D01*
X113002480Y-74151687D01*
X113111506Y-74130000D01*
X113308494Y-74130000D01*
X113417520Y-74151687D01*
X113417520Y-74151687D01*
G37*
G36*
X108250000Y-75850000D02*
X107150000Y-75850000D01*
X107150000Y-74850000D01*
X108250000Y-74850000D01*
X108250000Y-75850000D01*
X108250000Y-75850000D01*
G37*
G36*
X84657520Y-73816687D02*
X84741689Y-73833429D01*
X84923678Y-73908811D01*
X85087463Y-74018249D01*
X85226751Y-74157537D01*
X85336189Y-74321322D01*
X85411571Y-74503311D01*
X85424757Y-74569603D01*
X85450000Y-74696506D01*
X85450000Y-74893494D01*
X85426943Y-75009410D01*
X85411571Y-75086689D01*
X85336189Y-75268678D01*
X85226751Y-75432463D01*
X85087463Y-75571751D01*
X84923678Y-75681189D01*
X84741689Y-75756571D01*
X84664410Y-75771943D01*
X84548494Y-75795000D01*
X84351506Y-75795000D01*
X84235590Y-75771943D01*
X84158311Y-75756571D01*
X83976322Y-75681189D01*
X83812537Y-75571751D01*
X83673249Y-75432463D01*
X83563811Y-75268678D01*
X83488429Y-75086689D01*
X83473057Y-75009410D01*
X83450000Y-74893494D01*
X83450000Y-74696506D01*
X83475243Y-74569603D01*
X83488429Y-74503311D01*
X83563811Y-74321322D01*
X83673249Y-74157537D01*
X83812537Y-74018249D01*
X83976322Y-73908811D01*
X84158311Y-73833429D01*
X84242480Y-73816687D01*
X84351506Y-73795000D01*
X84548494Y-73795000D01*
X84657520Y-73816687D01*
X84657520Y-73816687D01*
G37*
G36*
X106250000Y-74900000D02*
X105150000Y-74900000D01*
X105150000Y-73900000D01*
X106250000Y-73900000D01*
X106250000Y-74900000D01*
X106250000Y-74900000D01*
G37*
G36*
X115957520Y-72881687D02*
X116041689Y-72898429D01*
X116223678Y-72973811D01*
X116387463Y-73083249D01*
X116526751Y-73222537D01*
X116636189Y-73386322D01*
X116711571Y-73568311D01*
X116711571Y-73568313D01*
X116750000Y-73761506D01*
X116750000Y-73958494D01*
X116738114Y-74018249D01*
X116711571Y-74151689D01*
X116636189Y-74333678D01*
X116526751Y-74497463D01*
X116387463Y-74636751D01*
X116223678Y-74746189D01*
X116041689Y-74821571D01*
X115964410Y-74836943D01*
X115848494Y-74860000D01*
X115651506Y-74860000D01*
X115535590Y-74836943D01*
X115458311Y-74821571D01*
X115276322Y-74746189D01*
X115112537Y-74636751D01*
X114973249Y-74497463D01*
X114863811Y-74333678D01*
X114788429Y-74151689D01*
X114761886Y-74018249D01*
X114750000Y-73958494D01*
X114750000Y-73761506D01*
X114788429Y-73568313D01*
X114788429Y-73568311D01*
X114863811Y-73386322D01*
X114973249Y-73222537D01*
X115112537Y-73083249D01*
X115276322Y-72973811D01*
X115458311Y-72898429D01*
X115542480Y-72881687D01*
X115651506Y-72860000D01*
X115848494Y-72860000D01*
X115957520Y-72881687D01*
X115957520Y-72881687D01*
G37*
G36*
X90650000Y-74850000D02*
X89550000Y-74850000D01*
X89550000Y-73850000D01*
X90650000Y-73850000D01*
X90650000Y-74850000D01*
X90650000Y-74850000D01*
G37*
G36*
X87197520Y-72546687D02*
X87281689Y-72563429D01*
X87463678Y-72638811D01*
X87627463Y-72748249D01*
X87766751Y-72887537D01*
X87876189Y-73051322D01*
X87951571Y-73233311D01*
X87951571Y-73233313D01*
X87990000Y-73426506D01*
X87990000Y-73623494D01*
X87966943Y-73739410D01*
X87951571Y-73816689D01*
X87876189Y-73998678D01*
X87766751Y-74162463D01*
X87627463Y-74301751D01*
X87463678Y-74411189D01*
X87281689Y-74486571D01*
X87204410Y-74501943D01*
X87088494Y-74525000D01*
X86891506Y-74525000D01*
X86775590Y-74501943D01*
X86698311Y-74486571D01*
X86516322Y-74411189D01*
X86352537Y-74301751D01*
X86213249Y-74162463D01*
X86103811Y-73998678D01*
X86028429Y-73816689D01*
X86013057Y-73739410D01*
X85990000Y-73623494D01*
X85990000Y-73426506D01*
X86028429Y-73233313D01*
X86028429Y-73233311D01*
X86103811Y-73051322D01*
X86213249Y-72887537D01*
X86352537Y-72748249D01*
X86516322Y-72638811D01*
X86698311Y-72563429D01*
X86782480Y-72546687D01*
X86891506Y-72525000D01*
X87088494Y-72525000D01*
X87197520Y-72546687D01*
X87197520Y-72546687D01*
G37*
G36*
X109473830Y-72829677D02*
X109514776Y-72842098D01*
X109552510Y-72862267D01*
X109585587Y-72889413D01*
X109612733Y-72922490D01*
X109632902Y-72960224D01*
X109645323Y-73001170D01*
X109650000Y-73048658D01*
X109650000Y-73751342D01*
X109645323Y-73798830D01*
X109632902Y-73839776D01*
X109612733Y-73877510D01*
X109585587Y-73910587D01*
X109552510Y-73937733D01*
X109514776Y-73957902D01*
X109473830Y-73970323D01*
X109426342Y-73975000D01*
X108798658Y-73975000D01*
X108751170Y-73970323D01*
X108710224Y-73957902D01*
X108672490Y-73937733D01*
X108639413Y-73910587D01*
X108612267Y-73877510D01*
X108592098Y-73839776D01*
X108579677Y-73798830D01*
X108575000Y-73751342D01*
X108575000Y-73048658D01*
X108579677Y-73001170D01*
X108592098Y-72960224D01*
X108612267Y-72922490D01*
X108639413Y-72889413D01*
X108672490Y-72862267D01*
X108710224Y-72842098D01*
X108751170Y-72829677D01*
X108798658Y-72825000D01*
X109426342Y-72825000D01*
X109473830Y-72829677D01*
X109473830Y-72829677D01*
G37*
G36*
X111048830Y-72829677D02*
X111089776Y-72842098D01*
X111127510Y-72862267D01*
X111160587Y-72889413D01*
X111187733Y-72922490D01*
X111207902Y-72960224D01*
X111220323Y-73001170D01*
X111225000Y-73048658D01*
X111225000Y-73751342D01*
X111220323Y-73798830D01*
X111207902Y-73839776D01*
X111187733Y-73877510D01*
X111160587Y-73910587D01*
X111127510Y-73937733D01*
X111089776Y-73957902D01*
X111048830Y-73970323D01*
X111001342Y-73975000D01*
X110373658Y-73975000D01*
X110326170Y-73970323D01*
X110285224Y-73957902D01*
X110247490Y-73937733D01*
X110214413Y-73910587D01*
X110187267Y-73877510D01*
X110167098Y-73839776D01*
X110154677Y-73798830D01*
X110150000Y-73751342D01*
X110150000Y-73048658D01*
X110154677Y-73001170D01*
X110167098Y-72960224D01*
X110187267Y-72922490D01*
X110214413Y-72889413D01*
X110247490Y-72862267D01*
X110285224Y-72842098D01*
X110326170Y-72829677D01*
X110373658Y-72825000D01*
X111001342Y-72825000D01*
X111048830Y-72829677D01*
X111048830Y-72829677D01*
G37*
G36*
X108250000Y-73950000D02*
X107150000Y-73950000D01*
X107150000Y-72950000D01*
X108250000Y-72950000D01*
X108250000Y-73950000D01*
X108250000Y-73950000D01*
G37*
G36*
X92650000Y-73900000D02*
X91550000Y-73900000D01*
X91550000Y-72900000D01*
X92650000Y-72900000D01*
X92650000Y-73900000D01*
X92650000Y-73900000D01*
G37*
G36*
X113424410Y-71613057D02*
X113501689Y-71628429D01*
X113683678Y-71703811D01*
X113847463Y-71813249D01*
X113986751Y-71952537D01*
X114096189Y-72116322D01*
X114171571Y-72298311D01*
X114181595Y-72348708D01*
X114210000Y-72491506D01*
X114210000Y-72688494D01*
X114198114Y-72748249D01*
X114171571Y-72881689D01*
X114096189Y-73063678D01*
X113986751Y-73227463D01*
X113847463Y-73366751D01*
X113683678Y-73476189D01*
X113501689Y-73551571D01*
X113424410Y-73566943D01*
X113308494Y-73590000D01*
X113111506Y-73590000D01*
X112995590Y-73566943D01*
X112918311Y-73551571D01*
X112736322Y-73476189D01*
X112572537Y-73366751D01*
X112433249Y-73227463D01*
X112323811Y-73063678D01*
X112248429Y-72881689D01*
X112221886Y-72748249D01*
X112210000Y-72688494D01*
X112210000Y-72491506D01*
X112238405Y-72348708D01*
X112248429Y-72298311D01*
X112323811Y-72116322D01*
X112433249Y-71952537D01*
X112572537Y-71813249D01*
X112736322Y-71703811D01*
X112918311Y-71628429D01*
X112995590Y-71613057D01*
X113111506Y-71590000D01*
X113308494Y-71590000D01*
X113424410Y-71613057D01*
X113424410Y-71613057D01*
G37*
G36*
X84664410Y-71278057D02*
X84741689Y-71293429D01*
X84923678Y-71368811D01*
X85087463Y-71478249D01*
X85226751Y-71617537D01*
X85336189Y-71781322D01*
X85411571Y-71963311D01*
X85411571Y-71963313D01*
X85450000Y-72156506D01*
X85450000Y-72353494D01*
X85426943Y-72469410D01*
X85411571Y-72546689D01*
X85336189Y-72728678D01*
X85226751Y-72892463D01*
X85087463Y-73031751D01*
X84923678Y-73141189D01*
X84741689Y-73216571D01*
X84664410Y-73231943D01*
X84548494Y-73255000D01*
X84351506Y-73255000D01*
X84235590Y-73231943D01*
X84158311Y-73216571D01*
X83976322Y-73141189D01*
X83812537Y-73031751D01*
X83673249Y-72892463D01*
X83563811Y-72728678D01*
X83488429Y-72546689D01*
X83473057Y-72469410D01*
X83450000Y-72353494D01*
X83450000Y-72156506D01*
X83488429Y-71963313D01*
X83488429Y-71963311D01*
X83563811Y-71781322D01*
X83673249Y-71617537D01*
X83812537Y-71478249D01*
X83976322Y-71368811D01*
X84158311Y-71293429D01*
X84235590Y-71278057D01*
X84351506Y-71255000D01*
X84548494Y-71255000D01*
X84664410Y-71278057D01*
X84664410Y-71278057D01*
G37*
G36*
X90650000Y-72950000D02*
X89550000Y-72950000D01*
X89550000Y-71950000D01*
X90650000Y-71950000D01*
X90650000Y-72950000D01*
X90650000Y-72950000D01*
G37*
G36*
X81643872Y-67572330D02*
X81643874Y-67572331D01*
X81643875Y-67572331D01*
X81704284Y-67597353D01*
X81953252Y-67700479D01*
X82231687Y-67886523D01*
X82468477Y-68123313D01*
X82654521Y-68401748D01*
X82732872Y-68590904D01*
X82779943Y-68704543D01*
X82782670Y-68711128D01*
X82848000Y-69039565D01*
X82848000Y-69374435D01*
X82783432Y-69699042D01*
X82782669Y-69702875D01*
X82757647Y-69763284D01*
X82654521Y-70012252D01*
X82468477Y-70290687D01*
X82231687Y-70527477D01*
X81953252Y-70713521D01*
X81708013Y-70815102D01*
X81643875Y-70841669D01*
X81643874Y-70841669D01*
X81643872Y-70841670D01*
X81315435Y-70907000D01*
X80980565Y-70907000D01*
X80652128Y-70841670D01*
X80652126Y-70841669D01*
X80652125Y-70841669D01*
X80587987Y-70815102D01*
X80342748Y-70713521D01*
X80064313Y-70527477D01*
X79927250Y-70390414D01*
X79912107Y-70377987D01*
X79894818Y-70368746D01*
X79876059Y-70363055D01*
X79856550Y-70361134D01*
X79837041Y-70363055D01*
X79818282Y-70368746D01*
X79800993Y-70377987D01*
X79785839Y-70390423D01*
X79773403Y-70405577D01*
X79764162Y-70422866D01*
X79758471Y-70441625D01*
X79756550Y-70461134D01*
X79758471Y-70480643D01*
X79758707Y-70481828D01*
X79758710Y-70481836D01*
X79825000Y-70815102D01*
X79825000Y-71154898D01*
X79758710Y-71488164D01*
X79628676Y-71802094D01*
X79439895Y-72084624D01*
X79199624Y-72324895D01*
X78917094Y-72513676D01*
X78603164Y-72643710D01*
X78269898Y-72710000D01*
X77930102Y-72710000D01*
X77596836Y-72643710D01*
X77282906Y-72513676D01*
X77000376Y-72324895D01*
X76760105Y-72084624D01*
X76571324Y-71802094D01*
X76441290Y-71488164D01*
X76375000Y-71154898D01*
X76375000Y-70815102D01*
X76441290Y-70481836D01*
X76571324Y-70167906D01*
X76760105Y-69885376D01*
X77000376Y-69645105D01*
X77282906Y-69456324D01*
X77596836Y-69326290D01*
X77930102Y-69260000D01*
X78269898Y-69260000D01*
X78603164Y-69326290D01*
X78917094Y-69456324D01*
X79199624Y-69645105D01*
X79343790Y-69789271D01*
X79358933Y-69801698D01*
X79376222Y-69810939D01*
X79394981Y-69816630D01*
X79414490Y-69818551D01*
X79433999Y-69816630D01*
X79452758Y-69810939D01*
X79470047Y-69801698D01*
X79485201Y-69789262D01*
X79497637Y-69774108D01*
X79506878Y-69756819D01*
X79512569Y-69738060D01*
X79514490Y-69718551D01*
X79512570Y-69699050D01*
X79448000Y-69374435D01*
X79448000Y-69039565D01*
X79513330Y-68711128D01*
X79516058Y-68704543D01*
X79563128Y-68590904D01*
X79641479Y-68401748D01*
X79827523Y-68123313D01*
X80064313Y-67886523D01*
X80342748Y-67700479D01*
X80591716Y-67597353D01*
X80652125Y-67572331D01*
X80652126Y-67572331D01*
X80652128Y-67572330D01*
X80980565Y-67507000D01*
X81315435Y-67507000D01*
X81643872Y-67572330D01*
X81643872Y-67572330D01*
G37*
G36*
X106865000Y-72475000D02*
X106065000Y-72475000D01*
X106065000Y-70725000D01*
X106865000Y-70725000D01*
X106865000Y-72475000D01*
X106865000Y-72475000D01*
G37*
G36*
X105595000Y-72475000D02*
X104795000Y-72475000D01*
X104795000Y-70725000D01*
X105595000Y-70725000D01*
X105595000Y-72475000D01*
X105595000Y-72475000D01*
G37*
G36*
X109405000Y-72475000D02*
X108605000Y-72475000D01*
X108605000Y-70725000D01*
X109405000Y-70725000D01*
X109405000Y-72475000D01*
X109405000Y-72475000D01*
G37*
G36*
X108135000Y-72475000D02*
X107335000Y-72475000D01*
X107335000Y-70725000D01*
X108135000Y-70725000D01*
X108135000Y-72475000D01*
X108135000Y-72475000D01*
G37*
G36*
X122603164Y-69031290D02*
X122917094Y-69161324D01*
X123199624Y-69350105D01*
X123439895Y-69590376D01*
X123628676Y-69872906D01*
X123758710Y-70186836D01*
X123825000Y-70520102D01*
X123825000Y-70859898D01*
X123758710Y-71193164D01*
X123628676Y-71507094D01*
X123439895Y-71789624D01*
X123199624Y-72029895D01*
X122917094Y-72218676D01*
X122603164Y-72348710D01*
X122269898Y-72415000D01*
X121930102Y-72415000D01*
X121596836Y-72348710D01*
X121282906Y-72218676D01*
X121000376Y-72029895D01*
X120760105Y-71789624D01*
X120571324Y-71507094D01*
X120441290Y-71193164D01*
X120375000Y-70859898D01*
X120375000Y-70520102D01*
X120441290Y-70186836D01*
X120571324Y-69872906D01*
X120760105Y-69590376D01*
X121000376Y-69350105D01*
X121282906Y-69161324D01*
X121596836Y-69031290D01*
X121930102Y-68965000D01*
X122269898Y-68965000D01*
X122603164Y-69031290D01*
X122603164Y-69031290D01*
G37*
G36*
X101275000Y-72150000D02*
X94925000Y-72150000D01*
X94925000Y-70350000D01*
X101275000Y-70350000D01*
X101275000Y-72150000D01*
X101275000Y-72150000D01*
G37*
G36*
X110898830Y-70654677D02*
X110939776Y-70667098D01*
X110977510Y-70687267D01*
X111010587Y-70714413D01*
X111037733Y-70747490D01*
X111057902Y-70785224D01*
X111070323Y-70826170D01*
X111075000Y-70873658D01*
X111075000Y-71501342D01*
X111070323Y-71548830D01*
X111057902Y-71589776D01*
X111037733Y-71627510D01*
X111010587Y-71660587D01*
X110977510Y-71687733D01*
X110939776Y-71707902D01*
X110898830Y-71720323D01*
X110851342Y-71725000D01*
X110148658Y-71725000D01*
X110101170Y-71720323D01*
X110060224Y-71707902D01*
X110022490Y-71687733D01*
X109989413Y-71660587D01*
X109962267Y-71627510D01*
X109942098Y-71589776D01*
X109929677Y-71548830D01*
X109925000Y-71501342D01*
X109925000Y-70873658D01*
X109929677Y-70826170D01*
X109942098Y-70785224D01*
X109962267Y-70747490D01*
X109989413Y-70714413D01*
X110022490Y-70687267D01*
X110060224Y-70667098D01*
X110101170Y-70654677D01*
X110148658Y-70650000D01*
X110851342Y-70650000D01*
X110898830Y-70654677D01*
X110898830Y-70654677D01*
G37*
G36*
X110898830Y-69079677D02*
X110939776Y-69092098D01*
X110977510Y-69112267D01*
X111010587Y-69139413D01*
X111037733Y-69172490D01*
X111057902Y-69210224D01*
X111070323Y-69251170D01*
X111075000Y-69298658D01*
X111075000Y-69926342D01*
X111070323Y-69973830D01*
X111057902Y-70014776D01*
X111037733Y-70052510D01*
X111010587Y-70085587D01*
X110977510Y-70112733D01*
X110939776Y-70132902D01*
X110898830Y-70145323D01*
X110851342Y-70150000D01*
X110148658Y-70150000D01*
X110101170Y-70145323D01*
X110060224Y-70132902D01*
X110022490Y-70112733D01*
X109989413Y-70085587D01*
X109962267Y-70052510D01*
X109942098Y-70014776D01*
X109929677Y-69973830D01*
X109925000Y-69926342D01*
X109925000Y-69298658D01*
X109929677Y-69251170D01*
X109942098Y-69210224D01*
X109962267Y-69172490D01*
X109989413Y-69139413D01*
X110022490Y-69112267D01*
X110060224Y-69092098D01*
X110101170Y-69079677D01*
X110148658Y-69075000D01*
X110851342Y-69075000D01*
X110898830Y-69079677D01*
X110898830Y-69079677D01*
G37*
G36*
X99173830Y-68429677D02*
X99214776Y-68442098D01*
X99252510Y-68462267D01*
X99285587Y-68489413D01*
X99312733Y-68522490D01*
X99332902Y-68560224D01*
X99345323Y-68601170D01*
X99350000Y-68648658D01*
X99350000Y-69351342D01*
X99345323Y-69398830D01*
X99332902Y-69439776D01*
X99312733Y-69477510D01*
X99285587Y-69510587D01*
X99252510Y-69537733D01*
X99214776Y-69557902D01*
X99173830Y-69570323D01*
X99126342Y-69575000D01*
X98498658Y-69575000D01*
X98451170Y-69570323D01*
X98410224Y-69557902D01*
X98372490Y-69537733D01*
X98339413Y-69510587D01*
X98312267Y-69477510D01*
X98292098Y-69439776D01*
X98279677Y-69398830D01*
X98275000Y-69351342D01*
X98275000Y-68648658D01*
X98279677Y-68601170D01*
X98292098Y-68560224D01*
X98312267Y-68522490D01*
X98339413Y-68489413D01*
X98372490Y-68462267D01*
X98410224Y-68442098D01*
X98451170Y-68429677D01*
X98498658Y-68425000D01*
X99126342Y-68425000D01*
X99173830Y-68429677D01*
X99173830Y-68429677D01*
G37*
G36*
X100748830Y-68429677D02*
X100789776Y-68442098D01*
X100827510Y-68462267D01*
X100860587Y-68489413D01*
X100887733Y-68522490D01*
X100907902Y-68560224D01*
X100920323Y-68601170D01*
X100925000Y-68648658D01*
X100925000Y-69351342D01*
X100920323Y-69398830D01*
X100907902Y-69439776D01*
X100887733Y-69477510D01*
X100860587Y-69510587D01*
X100827510Y-69537733D01*
X100789776Y-69557902D01*
X100748830Y-69570323D01*
X100701342Y-69575000D01*
X100073658Y-69575000D01*
X100026170Y-69570323D01*
X99985224Y-69557902D01*
X99947490Y-69537733D01*
X99914413Y-69510587D01*
X99887267Y-69477510D01*
X99867098Y-69439776D01*
X99854677Y-69398830D01*
X99850000Y-69351342D01*
X99850000Y-68648658D01*
X99854677Y-68601170D01*
X99867098Y-68560224D01*
X99887267Y-68522490D01*
X99914413Y-68489413D01*
X99947490Y-68462267D01*
X99985224Y-68442098D01*
X100026170Y-68429677D01*
X100073658Y-68425000D01*
X100701342Y-68425000D01*
X100748830Y-68429677D01*
X100748830Y-68429677D01*
G37*
G36*
X96173830Y-68429677D02*
X96214776Y-68442098D01*
X96252510Y-68462267D01*
X96285587Y-68489413D01*
X96312733Y-68522490D01*
X96332902Y-68560224D01*
X96345323Y-68601170D01*
X96350000Y-68648658D01*
X96350000Y-69351342D01*
X96345323Y-69398830D01*
X96332902Y-69439776D01*
X96312733Y-69477510D01*
X96285587Y-69510587D01*
X96252510Y-69537733D01*
X96214776Y-69557902D01*
X96173830Y-69570323D01*
X96126342Y-69575000D01*
X95498658Y-69575000D01*
X95451170Y-69570323D01*
X95410224Y-69557902D01*
X95372490Y-69537733D01*
X95339413Y-69510587D01*
X95312267Y-69477510D01*
X95292098Y-69439776D01*
X95279677Y-69398830D01*
X95275000Y-69351342D01*
X95275000Y-68648658D01*
X95279677Y-68601170D01*
X95292098Y-68560224D01*
X95312267Y-68522490D01*
X95339413Y-68489413D01*
X95372490Y-68462267D01*
X95410224Y-68442098D01*
X95451170Y-68429677D01*
X95498658Y-68425000D01*
X96126342Y-68425000D01*
X96173830Y-68429677D01*
X96173830Y-68429677D01*
G37*
G36*
X97748830Y-68429677D02*
X97789776Y-68442098D01*
X97827510Y-68462267D01*
X97860587Y-68489413D01*
X97887733Y-68522490D01*
X97907902Y-68560224D01*
X97920323Y-68601170D01*
X97925000Y-68648658D01*
X97925000Y-69351342D01*
X97920323Y-69398830D01*
X97907902Y-69439776D01*
X97887733Y-69477510D01*
X97860587Y-69510587D01*
X97827510Y-69537733D01*
X97789776Y-69557902D01*
X97748830Y-69570323D01*
X97701342Y-69575000D01*
X97073658Y-69575000D01*
X97026170Y-69570323D01*
X96985224Y-69557902D01*
X96947490Y-69537733D01*
X96914413Y-69510587D01*
X96887267Y-69477510D01*
X96867098Y-69439776D01*
X96854677Y-69398830D01*
X96850000Y-69351342D01*
X96850000Y-68648658D01*
X96854677Y-68601170D01*
X96867098Y-68560224D01*
X96887267Y-68522490D01*
X96914413Y-68489413D01*
X96947490Y-68462267D01*
X96985224Y-68442098D01*
X97026170Y-68429677D01*
X97073658Y-68425000D01*
X97701342Y-68425000D01*
X97748830Y-68429677D01*
X97748830Y-68429677D01*
G37*
G36*
X110898830Y-67654677D02*
X110939776Y-67667098D01*
X110977510Y-67687267D01*
X111010587Y-67714413D01*
X111037733Y-67747490D01*
X111057902Y-67785224D01*
X111070323Y-67826170D01*
X111075000Y-67873658D01*
X111075000Y-68501342D01*
X111070323Y-68548830D01*
X111057902Y-68589776D01*
X111037733Y-68627510D01*
X111010587Y-68660587D01*
X110977510Y-68687733D01*
X110939776Y-68707902D01*
X110898830Y-68720323D01*
X110851342Y-68725000D01*
X110148658Y-68725000D01*
X110101170Y-68720323D01*
X110060224Y-68707902D01*
X110022490Y-68687733D01*
X109989413Y-68660587D01*
X109962267Y-68627510D01*
X109942098Y-68589776D01*
X109929677Y-68548830D01*
X109925000Y-68501342D01*
X109925000Y-67873658D01*
X109929677Y-67826170D01*
X109942098Y-67785224D01*
X109962267Y-67747490D01*
X109989413Y-67714413D01*
X110022490Y-67687267D01*
X110060224Y-67667098D01*
X110101170Y-67654677D01*
X110148658Y-67650000D01*
X110851342Y-67650000D01*
X110898830Y-67654677D01*
X110898830Y-67654677D01*
G37*
G36*
X110898830Y-66079677D02*
X110939776Y-66092098D01*
X110977510Y-66112267D01*
X111010587Y-66139413D01*
X111037733Y-66172490D01*
X111057902Y-66210224D01*
X111070323Y-66251170D01*
X111075000Y-66298658D01*
X111075000Y-66926342D01*
X111070323Y-66973830D01*
X111057902Y-67014776D01*
X111037733Y-67052510D01*
X111010587Y-67085587D01*
X110977510Y-67112733D01*
X110939776Y-67132902D01*
X110898830Y-67145323D01*
X110851342Y-67150000D01*
X110148658Y-67150000D01*
X110101170Y-67145323D01*
X110060224Y-67132902D01*
X110022490Y-67112733D01*
X109989413Y-67085587D01*
X109962267Y-67052510D01*
X109942098Y-67014776D01*
X109929677Y-66973830D01*
X109925000Y-66926342D01*
X109925000Y-66298658D01*
X109929677Y-66251170D01*
X109942098Y-66210224D01*
X109962267Y-66172490D01*
X109989413Y-66139413D01*
X110022490Y-66112267D01*
X110060224Y-66092098D01*
X110101170Y-66079677D01*
X110148658Y-66075000D01*
X110851342Y-66075000D01*
X110898830Y-66079677D01*
X110898830Y-66079677D01*
G37*
G36*
X105595000Y-67075000D02*
X104795000Y-67075000D01*
X104795000Y-65325000D01*
X105595000Y-65325000D01*
X105595000Y-67075000D01*
X105595000Y-67075000D01*
G37*
G36*
X106865000Y-67075000D02*
X106065000Y-67075000D01*
X106065000Y-65325000D01*
X106865000Y-65325000D01*
X106865000Y-67075000D01*
X106865000Y-67075000D01*
G37*
G36*
X109405000Y-67075000D02*
X108605000Y-67075000D01*
X108605000Y-65325000D01*
X109405000Y-65325000D01*
X109405000Y-67075000D01*
X109405000Y-67075000D01*
G37*
G36*
X108135000Y-67075000D02*
X107335000Y-67075000D01*
X107335000Y-65325000D01*
X108135000Y-65325000D01*
X108135000Y-67075000D01*
X108135000Y-67075000D01*
G37*
G36*
X94200000Y-66800000D02*
X89500000Y-66800000D01*
X89500000Y-64600000D01*
X94200000Y-64600000D01*
X94200000Y-66800000D01*
X94200000Y-66800000D01*
G37*
G36*
X102700000Y-66800000D02*
X98000000Y-66800000D01*
X98000000Y-64600000D01*
X102700000Y-64600000D01*
X102700000Y-66800000D01*
X102700000Y-66800000D01*
G37*
G36*
X80495872Y-63365330D02*
X80495874Y-63365331D01*
X80495875Y-63365331D01*
X80556284Y-63390353D01*
X80805252Y-63493479D01*
X81083687Y-63679523D01*
X81320477Y-63916313D01*
X81506521Y-64194748D01*
X81634670Y-64504128D01*
X81700000Y-64832565D01*
X81700000Y-65167435D01*
X81634670Y-65495872D01*
X81506521Y-65805252D01*
X81320477Y-66083687D01*
X81083687Y-66320477D01*
X80805252Y-66506521D01*
X80556284Y-66609647D01*
X80495875Y-66634669D01*
X80495874Y-66634669D01*
X80495872Y-66634670D01*
X80167435Y-66700000D01*
X79832565Y-66700000D01*
X79504128Y-66634670D01*
X79504126Y-66634669D01*
X79504125Y-66634669D01*
X79443716Y-66609647D01*
X79194748Y-66506521D01*
X78916313Y-66320477D01*
X78679523Y-66083687D01*
X78493479Y-65805252D01*
X78365330Y-65495872D01*
X78300000Y-65167435D01*
X78300000Y-64832565D01*
X78365330Y-64504128D01*
X78493479Y-64194748D01*
X78679523Y-63916313D01*
X78916313Y-63679523D01*
X79194748Y-63493479D01*
X79443716Y-63390353D01*
X79504125Y-63365331D01*
X79504126Y-63365331D01*
X79504128Y-63365330D01*
X79832565Y-63300000D01*
X80167435Y-63300000D01*
X80495872Y-63365330D01*
X80495872Y-63365330D01*
G37*
G36*
X125495872Y-63365330D02*
X125495874Y-63365331D01*
X125495875Y-63365331D01*
X125556284Y-63390353D01*
X125805252Y-63493479D01*
X126083687Y-63679523D01*
X126320477Y-63916313D01*
X126506521Y-64194748D01*
X126634670Y-64504128D01*
X126700000Y-64832565D01*
X126700000Y-65167435D01*
X126634670Y-65495872D01*
X126506521Y-65805252D01*
X126320477Y-66083687D01*
X126083687Y-66320477D01*
X125805252Y-66506521D01*
X125556284Y-66609647D01*
X125495875Y-66634669D01*
X125495874Y-66634669D01*
X125495872Y-66634670D01*
X125167435Y-66700000D01*
X124832565Y-66700000D01*
X124504128Y-66634670D01*
X124504126Y-66634669D01*
X124504125Y-66634669D01*
X124443716Y-66609647D01*
X124194748Y-66506521D01*
X123916313Y-66320477D01*
X123679523Y-66083687D01*
X123493479Y-65805252D01*
X123365330Y-65495872D01*
X123300000Y-65167435D01*
X123300000Y-64832565D01*
X123365330Y-64504128D01*
X123493479Y-64194748D01*
X123679523Y-63916313D01*
X123916313Y-63679523D01*
X124194748Y-63493479D01*
X124443716Y-63390353D01*
X124504125Y-63365331D01*
X124504126Y-63365331D01*
X124504128Y-63365330D01*
X124832565Y-63300000D01*
X125167435Y-63300000D01*
X125495872Y-63365330D01*
X125495872Y-63365330D01*
G37*
G36*
X118320856Y-63942272D02*
X118521045Y-64025193D01*
X118701207Y-64145573D01*
X118854427Y-64298793D01*
X118974807Y-64478955D01*
X119057728Y-64679144D01*
X119100000Y-64891657D01*
X119100000Y-65108343D01*
X119057728Y-65320856D01*
X118974807Y-65521045D01*
X118854427Y-65701207D01*
X118701207Y-65854427D01*
X118521045Y-65974807D01*
X118320856Y-66057728D01*
X118108343Y-66100000D01*
X117891657Y-66100000D01*
X117679144Y-66057728D01*
X117478955Y-65974807D01*
X117298793Y-65854427D01*
X117145573Y-65701207D01*
X117025193Y-65521045D01*
X116942272Y-65320856D01*
X116900000Y-65108343D01*
X116900000Y-64891657D01*
X116942272Y-64679144D01*
X117025193Y-64478955D01*
X117145573Y-64298793D01*
X117298793Y-64145573D01*
X117478955Y-64025193D01*
X117679144Y-63942272D01*
X117891657Y-63900000D01*
X118108343Y-63900000D01*
X118320856Y-63942272D01*
X118320856Y-63942272D01*
G37*
G36*
X114320856Y-63942272D02*
X114521045Y-64025193D01*
X114701207Y-64145573D01*
X114854427Y-64298793D01*
X114974807Y-64478955D01*
X115057728Y-64679144D01*
X115100000Y-64891657D01*
X115100000Y-65108343D01*
X115057728Y-65320856D01*
X114974807Y-65521045D01*
X114854427Y-65701207D01*
X114701207Y-65854427D01*
X114521045Y-65974807D01*
X114320856Y-66057728D01*
X114108343Y-66100000D01*
X113891657Y-66100000D01*
X113679144Y-66057728D01*
X113478955Y-65974807D01*
X113298793Y-65854427D01*
X113145573Y-65701207D01*
X113025193Y-65521045D01*
X112942272Y-65320856D01*
X112900000Y-65108343D01*
X112900000Y-64891657D01*
X112942272Y-64679144D01*
X113025193Y-64478955D01*
X113145573Y-64298793D01*
X113298793Y-64145573D01*
X113478955Y-64025193D01*
X113679144Y-63942272D01*
X113891657Y-63900000D01*
X114108343Y-63900000D01*
X114320856Y-63942272D01*
X114320856Y-63942272D01*
G37*
G36*
X107150000Y-64750000D02*
X106050000Y-64750000D01*
X106050000Y-63750000D01*
X107150000Y-63750000D01*
X107150000Y-64750000D01*
X107150000Y-64750000D01*
G37*
G36*
X105598830Y-63554677D02*
X105639776Y-63567098D01*
X105677510Y-63587267D01*
X105710587Y-63614413D01*
X105737733Y-63647490D01*
X105757902Y-63685224D01*
X105770323Y-63726170D01*
X105775000Y-63773658D01*
X105775000Y-64401342D01*
X105770323Y-64448830D01*
X105757902Y-64489776D01*
X105737733Y-64527510D01*
X105710587Y-64560587D01*
X105677510Y-64587733D01*
X105639776Y-64607902D01*
X105598830Y-64620323D01*
X105551342Y-64625000D01*
X104848658Y-64625000D01*
X104801170Y-64620323D01*
X104760224Y-64607902D01*
X104722490Y-64587733D01*
X104689413Y-64560587D01*
X104662267Y-64527510D01*
X104642098Y-64489776D01*
X104629677Y-64448830D01*
X104625000Y-64401342D01*
X104625000Y-63773658D01*
X104629677Y-63726170D01*
X104642098Y-63685224D01*
X104662267Y-63647490D01*
X104689413Y-63614413D01*
X104722490Y-63587267D01*
X104760224Y-63567098D01*
X104801170Y-63554677D01*
X104848658Y-63550000D01*
X105551342Y-63550000D01*
X105598830Y-63554677D01*
X105598830Y-63554677D01*
G37*
G36*
X109150000Y-63800000D02*
X108050000Y-63800000D01*
X108050000Y-62800000D01*
X109150000Y-62800000D01*
X109150000Y-63800000D01*
X109150000Y-63800000D01*
G37*
G36*
X105598830Y-61979677D02*
X105639776Y-61992098D01*
X105677510Y-62012267D01*
X105710587Y-62039413D01*
X105737733Y-62072490D01*
X105757902Y-62110224D01*
X105770323Y-62151170D01*
X105775000Y-62198658D01*
X105775000Y-62826342D01*
X105770323Y-62873830D01*
X105757902Y-62914776D01*
X105737733Y-62952510D01*
X105710587Y-62985587D01*
X105677510Y-63012733D01*
X105639776Y-63032902D01*
X105598830Y-63045323D01*
X105551342Y-63050000D01*
X104848658Y-63050000D01*
X104801170Y-63045323D01*
X104760224Y-63032902D01*
X104722490Y-63012733D01*
X104689413Y-62985587D01*
X104662267Y-62952510D01*
X104642098Y-62914776D01*
X104629677Y-62873830D01*
X104625000Y-62826342D01*
X104625000Y-62198658D01*
X104629677Y-62151170D01*
X104642098Y-62110224D01*
X104662267Y-62072490D01*
X104689413Y-62039413D01*
X104722490Y-62012267D01*
X104760224Y-61992098D01*
X104801170Y-61979677D01*
X104848658Y-61975000D01*
X105551342Y-61975000D01*
X105598830Y-61979677D01*
X105598830Y-61979677D01*
G37*
G36*
X107150000Y-62850000D02*
X106050000Y-62850000D01*
X106050000Y-61850000D01*
X107150000Y-61850000D01*
X107150000Y-62850000D01*
X107150000Y-62850000D01*
G37*
G36*
X100748830Y-61629677D02*
X100789776Y-61642098D01*
X100827510Y-61662267D01*
X100860587Y-61689413D01*
X100887733Y-61722490D01*
X100907902Y-61760224D01*
X100920323Y-61801170D01*
X100925000Y-61848658D01*
X100925000Y-62551342D01*
X100920323Y-62598830D01*
X100907902Y-62639776D01*
X100887733Y-62677510D01*
X100860587Y-62710587D01*
X100827510Y-62737733D01*
X100789776Y-62757902D01*
X100748830Y-62770323D01*
X100701342Y-62775000D01*
X100073658Y-62775000D01*
X100026170Y-62770323D01*
X99985224Y-62757902D01*
X99947490Y-62737733D01*
X99914413Y-62710587D01*
X99887267Y-62677510D01*
X99867098Y-62639776D01*
X99854677Y-62598830D01*
X99850000Y-62551342D01*
X99850000Y-61848658D01*
X99854677Y-61801170D01*
X99867098Y-61760224D01*
X99887267Y-61722490D01*
X99914413Y-61689413D01*
X99947490Y-61662267D01*
X99985224Y-61642098D01*
X100026170Y-61629677D01*
X100073658Y-61625000D01*
X100701342Y-61625000D01*
X100748830Y-61629677D01*
X100748830Y-61629677D01*
G37*
G36*
X99173830Y-61629677D02*
X99214776Y-61642098D01*
X99252510Y-61662267D01*
X99285587Y-61689413D01*
X99312733Y-61722490D01*
X99332902Y-61760224D01*
X99345323Y-61801170D01*
X99350000Y-61848658D01*
X99350000Y-62551342D01*
X99345323Y-62598830D01*
X99332902Y-62639776D01*
X99312733Y-62677510D01*
X99285587Y-62710587D01*
X99252510Y-62737733D01*
X99214776Y-62757902D01*
X99173830Y-62770323D01*
X99126342Y-62775000D01*
X98498658Y-62775000D01*
X98451170Y-62770323D01*
X98410224Y-62757902D01*
X98372490Y-62737733D01*
X98339413Y-62710587D01*
X98312267Y-62677510D01*
X98292098Y-62639776D01*
X98279677Y-62598830D01*
X98275000Y-62551342D01*
X98275000Y-61848658D01*
X98279677Y-61801170D01*
X98292098Y-61760224D01*
X98312267Y-61722490D01*
X98339413Y-61689413D01*
X98372490Y-61662267D01*
X98410224Y-61642098D01*
X98451170Y-61629677D01*
X98498658Y-61625000D01*
X99126342Y-61625000D01*
X99173830Y-61629677D01*
X99173830Y-61629677D01*
G37*
G36*
X93748830Y-61629677D02*
X93789776Y-61642098D01*
X93827510Y-61662267D01*
X93860587Y-61689413D01*
X93887733Y-61722490D01*
X93907902Y-61760224D01*
X93920323Y-61801170D01*
X93925000Y-61848658D01*
X93925000Y-62551342D01*
X93920323Y-62598830D01*
X93907902Y-62639776D01*
X93887733Y-62677510D01*
X93860587Y-62710587D01*
X93827510Y-62737733D01*
X93789776Y-62757902D01*
X93748830Y-62770323D01*
X93701342Y-62775000D01*
X93073658Y-62775000D01*
X93026170Y-62770323D01*
X92985224Y-62757902D01*
X92947490Y-62737733D01*
X92914413Y-62710587D01*
X92887267Y-62677510D01*
X92867098Y-62639776D01*
X92854677Y-62598830D01*
X92850000Y-62551342D01*
X92850000Y-61848658D01*
X92854677Y-61801170D01*
X92867098Y-61760224D01*
X92887267Y-61722490D01*
X92914413Y-61689413D01*
X92947490Y-61662267D01*
X92985224Y-61642098D01*
X93026170Y-61629677D01*
X93073658Y-61625000D01*
X93701342Y-61625000D01*
X93748830Y-61629677D01*
X93748830Y-61629677D01*
G37*
G36*
X92173830Y-61629677D02*
X92214776Y-61642098D01*
X92252510Y-61662267D01*
X92285587Y-61689413D01*
X92312733Y-61722490D01*
X92332902Y-61760224D01*
X92345323Y-61801170D01*
X92350000Y-61848658D01*
X92350000Y-62551342D01*
X92345323Y-62598830D01*
X92332902Y-62639776D01*
X92312733Y-62677510D01*
X92285587Y-62710587D01*
X92252510Y-62737733D01*
X92214776Y-62757902D01*
X92173830Y-62770323D01*
X92126342Y-62775000D01*
X91498658Y-62775000D01*
X91451170Y-62770323D01*
X91410224Y-62757902D01*
X91372490Y-62737733D01*
X91339413Y-62710587D01*
X91312267Y-62677510D01*
X91292098Y-62639776D01*
X91279677Y-62598830D01*
X91275000Y-62551342D01*
X91275000Y-61848658D01*
X91279677Y-61801170D01*
X91292098Y-61760224D01*
X91312267Y-61722490D01*
X91339413Y-61689413D01*
X91372490Y-61662267D01*
X91410224Y-61642098D01*
X91451170Y-61629677D01*
X91498658Y-61625000D01*
X92126342Y-61625000D01*
X92173830Y-61629677D01*
X92173830Y-61629677D01*
G37*
M02*
