G04 #@! TF.GenerationSoftware,KiCad,Pcbnew,(5.0.2)-1*
G04 #@! TF.CreationDate,2019-05-12T17:47:40+02:00*
G04 #@! TF.ProjectId,MotorController,4d6f746f-7243-46f6-9e74-726f6c6c6572,rev?*
G04 #@! TF.SameCoordinates,Original*
G04 #@! TF.FileFunction,Copper,L2,Bot*
G04 #@! TF.FilePolarity,Positive*
%FSLAX46Y46*%
G04 Gerber Fmt 4.6, Leading zero omitted, Abs format (unit mm)*
G04 Created by KiCad (PCBNEW (5.0.2)-1) date 12.05.2019 17:47:40*
%MOMM*%
%LPD*%
G01*
G04 APERTURE LIST*
G04 #@! TA.AperFunction,ComponentPad*
%ADD10C,3.200000*%
G04 #@! TD*
G04 #@! TA.AperFunction,ComponentPad*
%ADD11C,1.800000*%
G04 #@! TD*
G04 #@! TA.AperFunction,ComponentPad*
%ADD12R,2.600000X2.600000*%
G04 #@! TD*
G04 #@! TA.AperFunction,ComponentPad*
%ADD13C,2.600000*%
G04 #@! TD*
G04 #@! TA.AperFunction,ComponentPad*
%ADD14C,2.000000*%
G04 #@! TD*
G04 #@! TA.AperFunction,ComponentPad*
%ADD15O,1.727200X1.727200*%
G04 #@! TD*
G04 #@! TA.AperFunction,ComponentPad*
%ADD16R,1.727200X1.727200*%
G04 #@! TD*
G04 #@! TA.AperFunction,ViaPad*
%ADD17C,0.700000*%
G04 #@! TD*
G04 #@! TA.AperFunction,Conductor*
%ADD18C,0.500000*%
G04 #@! TD*
G04 #@! TA.AperFunction,Conductor*
%ADD19C,0.200000*%
G04 #@! TD*
G04 #@! TA.AperFunction,Conductor*
%ADD20C,2.000000*%
G04 #@! TD*
G04 APERTURE END LIST*
D10*
G04 #@! TO.P,J3,0*
G04 #@! TO.N,N/C*
X81148000Y-69207000D03*
X81148000Y-84193000D03*
D11*
G04 #@! TO.P,J3,8*
G04 #@! TO.N,/BH_P*
X86990000Y-81145000D03*
G04 #@! TO.P,J3,7*
G04 #@! TO.N,/BH_N*
X84450000Y-79875000D03*
G04 #@! TO.P,J3,6*
G04 #@! TO.N,/B4*
X86990000Y-78605000D03*
G04 #@! TO.P,J3,5*
G04 #@! TO.N,/B3*
X84450000Y-77335000D03*
G04 #@! TO.P,J3,4*
G04 #@! TO.N,/B2*
X86990000Y-76065000D03*
G04 #@! TO.P,J3,3*
G04 #@! TO.N,/B1*
X84450000Y-74795000D03*
G04 #@! TO.P,J3,2*
G04 #@! TO.N,Net-(J3-Pad2)*
X86990000Y-73525000D03*
G04 #@! TO.P,J3,1*
G04 #@! TO.N,GND*
X84450000Y-72255000D03*
G04 #@! TD*
G04 #@! TO.P,J1,1*
G04 #@! TO.N,GND*
X115750000Y-76400000D03*
G04 #@! TO.P,J1,2*
G04 #@! TO.N,+12V*
X113210000Y-75130000D03*
G04 #@! TO.P,J1,4*
G04 #@! TO.N,/B*
X113210000Y-72590000D03*
G04 #@! TO.P,J1,3*
G04 #@! TO.N,/A*
X115750000Y-73860000D03*
G04 #@! TD*
D12*
G04 #@! TO.P,J4,1*
G04 #@! TO.N,/BH_P*
X79700000Y-92250000D03*
D13*
G04 #@! TO.P,J4,2*
G04 #@! TO.N,/BH_N*
X84700000Y-88750000D03*
G04 #@! TD*
D14*
G04 #@! TO.P,TP1,1*
G04 #@! TO.N,GND*
X118000000Y-98000000D03*
G04 #@! TD*
G04 #@! TO.P,TP2,1*
G04 #@! TO.N,+5V*
X100750000Y-93500000D03*
G04 #@! TD*
G04 #@! TO.P,TP3,1*
G04 #@! TO.N,+12V*
X116600000Y-91100000D03*
G04 #@! TD*
G04 #@! TO.P,TP4,1*
G04 #@! TO.N,/B*
X114000000Y-65000000D03*
G04 #@! TD*
G04 #@! TO.P,TP5,1*
G04 #@! TO.N,/A*
X118000000Y-65000000D03*
G04 #@! TD*
D15*
G04 #@! TO.P,J2,10*
G04 #@! TO.N,GND*
X97840000Y-101540000D03*
G04 #@! TO.P,J2,9*
G04 #@! TO.N,/MISO*
X97840000Y-99000000D03*
G04 #@! TO.P,J2,8*
G04 #@! TO.N,GND*
X100380000Y-101540000D03*
G04 #@! TO.P,J2,7*
G04 #@! TO.N,/SCK*
X100380000Y-99000000D03*
G04 #@! TO.P,J2,6*
G04 #@! TO.N,GND*
X102920000Y-101540000D03*
G04 #@! TO.P,J2,5*
G04 #@! TO.N,/RST*
X102920000Y-99000000D03*
G04 #@! TO.P,J2,4*
G04 #@! TO.N,GND*
X105460000Y-101540000D03*
G04 #@! TO.P,J2,3*
G04 #@! TO.N,Net-(J2-Pad3)*
X105460000Y-99000000D03*
G04 #@! TO.P,J2,2*
G04 #@! TO.N,+5V*
X108000000Y-101540000D03*
D16*
G04 #@! TO.P,J2,1*
G04 #@! TO.N,/MOSI*
X108000000Y-99000000D03*
G04 #@! TD*
D17*
G04 #@! TO.N,+5V*
X109100000Y-67900000D03*
X96300000Y-67900000D03*
X97000000Y-86000000D03*
X101862500Y-87062500D03*
G04 #@! TO.N,/RST*
X100700000Y-75100000D03*
X98700000Y-84012500D03*
G04 #@! TO.N,+12V*
X114300000Y-91200000D03*
G04 #@! TO.N,GND*
X109100000Y-69600000D03*
X128000000Y-62000000D03*
X118000000Y-62000000D03*
X107700000Y-62000000D03*
X97000000Y-62000000D03*
X87000000Y-62000000D03*
X77000000Y-62000000D03*
X77000000Y-103000000D03*
X87000000Y-103000000D03*
X128000000Y-103000000D03*
X118000000Y-103000000D03*
X128000000Y-88000000D03*
X128000000Y-72000000D03*
X109000000Y-84000000D03*
X111500000Y-87500000D03*
X97500000Y-78000000D03*
X102500000Y-80000000D03*
X91000000Y-81000000D03*
X80500000Y-76000000D03*
X92000000Y-87500000D03*
X114800000Y-84000000D03*
X103750000Y-94500000D03*
X106000000Y-76000000D03*
X82000000Y-62000000D03*
X113000000Y-62000000D03*
X123000000Y-62000000D03*
X128000000Y-67000000D03*
X128000000Y-78000000D03*
X128000000Y-83000000D03*
X128000000Y-93000000D03*
X128000000Y-98000000D03*
X123000000Y-103000000D03*
X113000000Y-103000000D03*
X92000000Y-103000000D03*
X82000000Y-103000000D03*
X77000000Y-98000000D03*
X77000000Y-93000000D03*
X77000000Y-88000000D03*
X77000000Y-78000000D03*
X77000000Y-67000000D03*
X103000000Y-70000000D03*
X103000000Y-62000000D03*
X98000000Y-88000000D03*
X99000000Y-92000000D03*
X91800000Y-70300000D03*
X109000000Y-64600000D03*
X98700000Y-74800000D03*
G04 #@! TO.N,/B1*
X95500000Y-72900000D03*
X91800000Y-71699992D03*
G04 #@! TO.N,/B2*
X95500000Y-74000000D03*
X91800000Y-74600000D03*
G04 #@! TO.N,/B4*
X95500000Y-77000000D03*
X91400000Y-78000000D03*
G04 #@! TO.N,/B3*
X95500000Y-75500000D03*
X91800000Y-75800000D03*
G04 #@! TD*
D18*
G04 #@! TO.N,+5V*
X96300000Y-85300000D02*
X97000000Y-86000000D01*
X96300000Y-67900000D02*
X96300000Y-85300000D01*
X96300000Y-67900000D02*
X109100000Y-67900000D01*
X109900000Y-100400000D02*
X109900000Y-95100000D01*
X108000000Y-101540000D02*
X108760000Y-101540000D01*
X109900000Y-95100000D02*
X102000000Y-87200000D01*
X108760000Y-101540000D02*
X109900000Y-100400000D01*
D19*
G04 #@! TO.N,/RST*
X98700000Y-77100000D02*
X98700000Y-84012500D01*
X100700000Y-75100000D02*
X98700000Y-77100000D01*
D18*
G04 #@! TO.N,+12V*
X113210000Y-75130000D02*
X113210000Y-90110000D01*
X113210000Y-90110000D02*
X114300000Y-91200000D01*
X114300000Y-91200000D02*
X114300000Y-91200000D01*
X116500000Y-91200000D02*
X116600000Y-91100000D01*
X114300000Y-91200000D02*
X116500000Y-91200000D01*
D19*
G04 #@! TO.N,GND*
X115750000Y-77672792D02*
X114800000Y-78622792D01*
X115750000Y-76400000D02*
X115750000Y-77672792D01*
X114800000Y-78622792D02*
X114800000Y-84000000D01*
X114800000Y-84000000D02*
X114800000Y-84100000D01*
G04 #@! TO.N,/B1*
X94299992Y-71699992D02*
X91800000Y-71699992D01*
X95500000Y-72900000D02*
X94299992Y-71699992D01*
G04 #@! TO.N,/B2*
X94900000Y-74600000D02*
X91800000Y-74600000D01*
X95500000Y-74000000D02*
X94900000Y-74600000D01*
G04 #@! TO.N,/B4*
X94500000Y-78000000D02*
X91400000Y-78000000D01*
X95500000Y-77000000D02*
X94500000Y-78000000D01*
G04 #@! TO.N,/B3*
X95200000Y-75800000D02*
X91800000Y-75800000D01*
X95500000Y-75500000D02*
X95200000Y-75800000D01*
D20*
G04 #@! TO.N,/BH_N*
X84450000Y-88500000D02*
X84700000Y-88750000D01*
X84450000Y-79875000D02*
X84450000Y-88500000D01*
G04 #@! TO.N,/BH_P*
X88000000Y-82155000D02*
X86990000Y-81145000D01*
X88000000Y-90000000D02*
X88000000Y-82155000D01*
X79700000Y-92250000D02*
X85750000Y-92250000D01*
X85750000Y-92250000D02*
X88000000Y-90000000D01*
G04 #@! TD*
D19*
G04 #@! TO.N,GND*
G36*
X129625000Y-104625000D02*
X75375000Y-104625000D01*
X75375000Y-99622067D01*
X78100000Y-99622067D01*
X78100000Y-100377933D01*
X78389258Y-101076263D01*
X78923737Y-101610742D01*
X79622067Y-101900000D01*
X80377933Y-101900000D01*
X80570770Y-101820124D01*
X96710611Y-101820124D01*
X96903779Y-102230999D01*
X97239478Y-102536676D01*
X97559877Y-102669379D01*
X97740000Y-102623997D01*
X97740000Y-101640000D01*
X97940000Y-101640000D01*
X97940000Y-102623997D01*
X98120123Y-102669379D01*
X98440522Y-102536676D01*
X98776221Y-102230999D01*
X98969389Y-101820124D01*
X99250611Y-101820124D01*
X99443779Y-102230999D01*
X99779478Y-102536676D01*
X100099877Y-102669379D01*
X100280000Y-102623997D01*
X100280000Y-101640000D01*
X100480000Y-101640000D01*
X100480000Y-102623997D01*
X100660123Y-102669379D01*
X100980522Y-102536676D01*
X101316221Y-102230999D01*
X101509389Y-101820124D01*
X101790611Y-101820124D01*
X101983779Y-102230999D01*
X102319478Y-102536676D01*
X102639877Y-102669379D01*
X102820000Y-102623997D01*
X102820000Y-101640000D01*
X103020000Y-101640000D01*
X103020000Y-102623997D01*
X103200123Y-102669379D01*
X103520522Y-102536676D01*
X103856221Y-102230999D01*
X104049389Y-101820124D01*
X104330611Y-101820124D01*
X104523779Y-102230999D01*
X104859478Y-102536676D01*
X105179877Y-102669379D01*
X105360000Y-102623997D01*
X105360000Y-101640000D01*
X105560000Y-101640000D01*
X105560000Y-102623997D01*
X105740123Y-102669379D01*
X106060522Y-102536676D01*
X106396221Y-102230999D01*
X106589389Y-101820124D01*
X106544305Y-101640000D01*
X105560000Y-101640000D01*
X105360000Y-101640000D01*
X104375695Y-101640000D01*
X104330611Y-101820124D01*
X104049389Y-101820124D01*
X104004305Y-101640000D01*
X103020000Y-101640000D01*
X102820000Y-101640000D01*
X101835695Y-101640000D01*
X101790611Y-101820124D01*
X101509389Y-101820124D01*
X101464305Y-101640000D01*
X100480000Y-101640000D01*
X100280000Y-101640000D01*
X99295695Y-101640000D01*
X99250611Y-101820124D01*
X98969389Y-101820124D01*
X98924305Y-101640000D01*
X97940000Y-101640000D01*
X97740000Y-101640000D01*
X96755695Y-101640000D01*
X96710611Y-101820124D01*
X80570770Y-101820124D01*
X81076263Y-101610742D01*
X81427129Y-101259876D01*
X96710611Y-101259876D01*
X96755695Y-101440000D01*
X97740000Y-101440000D01*
X97740000Y-100456003D01*
X97940000Y-100456003D01*
X97940000Y-101440000D01*
X98924305Y-101440000D01*
X98969389Y-101259876D01*
X99250611Y-101259876D01*
X99295695Y-101440000D01*
X100280000Y-101440000D01*
X100280000Y-100456003D01*
X100480000Y-100456003D01*
X100480000Y-101440000D01*
X101464305Y-101440000D01*
X101509389Y-101259876D01*
X101790611Y-101259876D01*
X101835695Y-101440000D01*
X102820000Y-101440000D01*
X102820000Y-100456003D01*
X103020000Y-100456003D01*
X103020000Y-101440000D01*
X104004305Y-101440000D01*
X104049389Y-101259876D01*
X104330611Y-101259876D01*
X104375695Y-101440000D01*
X105360000Y-101440000D01*
X105360000Y-100456003D01*
X105560000Y-100456003D01*
X105560000Y-101440000D01*
X106544305Y-101440000D01*
X106589389Y-101259876D01*
X106396221Y-100849001D01*
X106060522Y-100543324D01*
X105740123Y-100410621D01*
X105560000Y-100456003D01*
X105360000Y-100456003D01*
X105179877Y-100410621D01*
X104859478Y-100543324D01*
X104523779Y-100849001D01*
X104330611Y-101259876D01*
X104049389Y-101259876D01*
X103856221Y-100849001D01*
X103520522Y-100543324D01*
X103200123Y-100410621D01*
X103020000Y-100456003D01*
X102820000Y-100456003D01*
X102639877Y-100410621D01*
X102319478Y-100543324D01*
X101983779Y-100849001D01*
X101790611Y-101259876D01*
X101509389Y-101259876D01*
X101316221Y-100849001D01*
X100980522Y-100543324D01*
X100660123Y-100410621D01*
X100480000Y-100456003D01*
X100280000Y-100456003D01*
X100099877Y-100410621D01*
X99779478Y-100543324D01*
X99443779Y-100849001D01*
X99250611Y-101259876D01*
X98969389Y-101259876D01*
X98776221Y-100849001D01*
X98440522Y-100543324D01*
X98120123Y-100410621D01*
X97940000Y-100456003D01*
X97740000Y-100456003D01*
X97559877Y-100410621D01*
X97239478Y-100543324D01*
X96903779Y-100849001D01*
X96710611Y-101259876D01*
X81427129Y-101259876D01*
X81610742Y-101076263D01*
X81900000Y-100377933D01*
X81900000Y-99622067D01*
X81642332Y-99000000D01*
X96653604Y-99000000D01*
X96743913Y-99454014D01*
X97001091Y-99838909D01*
X97385986Y-100096087D01*
X97725397Y-100163600D01*
X97954603Y-100163600D01*
X98294014Y-100096087D01*
X98678909Y-99838909D01*
X98936087Y-99454014D01*
X99026396Y-99000000D01*
X99193604Y-99000000D01*
X99283913Y-99454014D01*
X99541091Y-99838909D01*
X99925986Y-100096087D01*
X100265397Y-100163600D01*
X100494603Y-100163600D01*
X100834014Y-100096087D01*
X101218909Y-99838909D01*
X101476087Y-99454014D01*
X101566396Y-99000000D01*
X101733604Y-99000000D01*
X101823913Y-99454014D01*
X102081091Y-99838909D01*
X102465986Y-100096087D01*
X102805397Y-100163600D01*
X103034603Y-100163600D01*
X103374014Y-100096087D01*
X103758909Y-99838909D01*
X104016087Y-99454014D01*
X104106396Y-99000000D01*
X104273604Y-99000000D01*
X104363913Y-99454014D01*
X104621091Y-99838909D01*
X105005986Y-100096087D01*
X105345397Y-100163600D01*
X105574603Y-100163600D01*
X105914014Y-100096087D01*
X106298909Y-99838909D01*
X106556087Y-99454014D01*
X106646396Y-99000000D01*
X106556087Y-98545986D01*
X106298909Y-98161091D01*
X106261957Y-98136400D01*
X106830523Y-98136400D01*
X106830523Y-99863600D01*
X106853807Y-99980654D01*
X106920112Y-100079888D01*
X107019346Y-100146193D01*
X107136400Y-100169477D01*
X108863600Y-100169477D01*
X108980654Y-100146193D01*
X109079888Y-100079888D01*
X109146193Y-99980654D01*
X109169477Y-99863600D01*
X109169477Y-98136400D01*
X109146193Y-98019346D01*
X109079888Y-97920112D01*
X108980654Y-97853807D01*
X108863600Y-97830523D01*
X107136400Y-97830523D01*
X107019346Y-97853807D01*
X106920112Y-97920112D01*
X106853807Y-98019346D01*
X106830523Y-98136400D01*
X106261957Y-98136400D01*
X105914014Y-97903913D01*
X105574603Y-97836400D01*
X105345397Y-97836400D01*
X105005986Y-97903913D01*
X104621091Y-98161091D01*
X104363913Y-98545986D01*
X104273604Y-99000000D01*
X104106396Y-99000000D01*
X104016087Y-98545986D01*
X103758909Y-98161091D01*
X103374014Y-97903913D01*
X103034603Y-97836400D01*
X102805397Y-97836400D01*
X102465986Y-97903913D01*
X102081091Y-98161091D01*
X101823913Y-98545986D01*
X101733604Y-99000000D01*
X101566396Y-99000000D01*
X101476087Y-98545986D01*
X101218909Y-98161091D01*
X100834014Y-97903913D01*
X100494603Y-97836400D01*
X100265397Y-97836400D01*
X99925986Y-97903913D01*
X99541091Y-98161091D01*
X99283913Y-98545986D01*
X99193604Y-99000000D01*
X99026396Y-99000000D01*
X98936087Y-98545986D01*
X98678909Y-98161091D01*
X98294014Y-97903913D01*
X97954603Y-97836400D01*
X97725397Y-97836400D01*
X97385986Y-97903913D01*
X97001091Y-98161091D01*
X96743913Y-98545986D01*
X96653604Y-99000000D01*
X81642332Y-99000000D01*
X81610742Y-98923737D01*
X81076263Y-98389258D01*
X80377933Y-98100000D01*
X79622067Y-98100000D01*
X78923737Y-98389258D01*
X78389258Y-98923737D01*
X78100000Y-99622067D01*
X75375000Y-99622067D01*
X75375000Y-90950000D01*
X78094123Y-90950000D01*
X78094123Y-93550000D01*
X78117407Y-93667054D01*
X78183712Y-93766288D01*
X78282946Y-93832593D01*
X78400000Y-93855877D01*
X81000000Y-93855877D01*
X81117054Y-93832593D01*
X81216288Y-93766288D01*
X81282593Y-93667054D01*
X81305877Y-93550000D01*
X85621967Y-93550000D01*
X85750000Y-93575467D01*
X85878033Y-93550000D01*
X85878037Y-93550000D01*
X86257235Y-93474573D01*
X86606180Y-93241414D01*
X99450000Y-93241414D01*
X99450000Y-93758586D01*
X99647913Y-94236391D01*
X100013609Y-94602087D01*
X100491414Y-94800000D01*
X101008586Y-94800000D01*
X101486391Y-94602087D01*
X101852087Y-94236391D01*
X102050000Y-93758586D01*
X102050000Y-93241414D01*
X101852087Y-92763609D01*
X101486391Y-92397913D01*
X101008586Y-92200000D01*
X100491414Y-92200000D01*
X100013609Y-92397913D01*
X99647913Y-92763609D01*
X99450000Y-93241414D01*
X86606180Y-93241414D01*
X86687247Y-93187247D01*
X86759776Y-93078700D01*
X88828703Y-91009774D01*
X88937247Y-90937247D01*
X89224573Y-90507235D01*
X89300000Y-90128037D01*
X89300000Y-90128033D01*
X89325467Y-90000000D01*
X89300000Y-89871967D01*
X89300000Y-86933207D01*
X101212500Y-86933207D01*
X101212500Y-87191793D01*
X101311457Y-87430695D01*
X101494305Y-87613543D01*
X101733207Y-87712500D01*
X101734684Y-87712500D01*
X109350001Y-95327818D01*
X109350000Y-100172182D01*
X108828229Y-100693955D01*
X108454014Y-100443913D01*
X108114603Y-100376400D01*
X107885397Y-100376400D01*
X107545986Y-100443913D01*
X107161091Y-100701091D01*
X106903913Y-101085986D01*
X106813604Y-101540000D01*
X106903913Y-101994014D01*
X107161091Y-102378909D01*
X107545986Y-102636087D01*
X107885397Y-102703600D01*
X108114603Y-102703600D01*
X108454014Y-102636087D01*
X108838909Y-102378909D01*
X109096087Y-101994014D01*
X109100010Y-101974292D01*
X109156528Y-101936528D01*
X109187216Y-101890600D01*
X110250606Y-100827212D01*
X110296528Y-100796528D01*
X110418089Y-100614599D01*
X110450000Y-100454170D01*
X110450000Y-100454166D01*
X110460774Y-100400001D01*
X110450000Y-100345836D01*
X110450000Y-99622067D01*
X123100000Y-99622067D01*
X123100000Y-100377933D01*
X123389258Y-101076263D01*
X123923737Y-101610742D01*
X124622067Y-101900000D01*
X125377933Y-101900000D01*
X126076263Y-101610742D01*
X126610742Y-101076263D01*
X126900000Y-100377933D01*
X126900000Y-99622067D01*
X126610742Y-98923737D01*
X126076263Y-98389258D01*
X125377933Y-98100000D01*
X124622067Y-98100000D01*
X123923737Y-98389258D01*
X123389258Y-98923737D01*
X123100000Y-99622067D01*
X110450000Y-99622067D01*
X110450000Y-98952094D01*
X117189328Y-98952094D01*
X117304032Y-99128049D01*
X117788695Y-99308517D01*
X118305527Y-99289775D01*
X118695968Y-99128049D01*
X118810672Y-98952094D01*
X118000000Y-98141421D01*
X117189328Y-98952094D01*
X110450000Y-98952094D01*
X110450000Y-97788695D01*
X116691483Y-97788695D01*
X116710225Y-98305527D01*
X116871951Y-98695968D01*
X117047906Y-98810672D01*
X117858579Y-98000000D01*
X118141421Y-98000000D01*
X118952094Y-98810672D01*
X119128049Y-98695968D01*
X119308517Y-98211305D01*
X119289775Y-97694473D01*
X119128049Y-97304032D01*
X118952094Y-97189328D01*
X118141421Y-98000000D01*
X117858579Y-98000000D01*
X117047906Y-97189328D01*
X116871951Y-97304032D01*
X116691483Y-97788695D01*
X110450000Y-97788695D01*
X110450000Y-97047906D01*
X117189328Y-97047906D01*
X118000000Y-97858579D01*
X118810672Y-97047906D01*
X118695968Y-96871951D01*
X118211305Y-96691483D01*
X117694473Y-96710225D01*
X117304032Y-96871951D01*
X117189328Y-97047906D01*
X110450000Y-97047906D01*
X110450000Y-95154168D01*
X110460775Y-95099999D01*
X110450000Y-95045830D01*
X110418089Y-94885401D01*
X110296528Y-94703472D01*
X110250603Y-94672786D01*
X102512500Y-86934684D01*
X102512500Y-86933207D01*
X102413543Y-86694305D01*
X102230695Y-86511457D01*
X101991793Y-86412500D01*
X101733207Y-86412500D01*
X101494305Y-86511457D01*
X101311457Y-86694305D01*
X101212500Y-86933207D01*
X89300000Y-86933207D01*
X89300000Y-82283033D01*
X89325467Y-82155000D01*
X89300000Y-82026967D01*
X89300000Y-82026963D01*
X89224573Y-81647765D01*
X88937247Y-81217753D01*
X88828702Y-81145225D01*
X87818702Y-80135226D01*
X87497234Y-79920427D01*
X86990000Y-79819533D01*
X86482766Y-79920427D01*
X86052753Y-80207753D01*
X85765427Y-80637766D01*
X85750000Y-80715324D01*
X85750000Y-79746963D01*
X85674573Y-79367765D01*
X85387247Y-78937753D01*
X84957234Y-78650427D01*
X84450000Y-78549532D01*
X83942765Y-78650427D01*
X83512753Y-78937753D01*
X83225427Y-79367766D01*
X83150000Y-79746964D01*
X83150001Y-88311027D01*
X83100000Y-88431740D01*
X83100000Y-89068260D01*
X83343585Y-89656327D01*
X83793673Y-90106415D01*
X84381740Y-90350000D01*
X85018260Y-90350000D01*
X85606327Y-90106415D01*
X86056415Y-89656327D01*
X86300000Y-89068260D01*
X86300000Y-88431740D01*
X86056415Y-87843673D01*
X85750000Y-87537258D01*
X85750000Y-81574676D01*
X85765427Y-81652234D01*
X85980226Y-81973702D01*
X86700001Y-82693478D01*
X86700000Y-89461523D01*
X85211524Y-90950000D01*
X81305877Y-90950000D01*
X81282593Y-90832946D01*
X81216288Y-90733712D01*
X81117054Y-90667407D01*
X81000000Y-90644123D01*
X78400000Y-90644123D01*
X78282946Y-90667407D01*
X78183712Y-90733712D01*
X78117407Y-90832946D01*
X78094123Y-90950000D01*
X75375000Y-90950000D01*
X75375000Y-82032094D01*
X76175000Y-82032094D01*
X76175000Y-82797906D01*
X76468064Y-83505425D01*
X77009575Y-84046936D01*
X77717094Y-84340000D01*
X78482906Y-84340000D01*
X79190425Y-84046936D01*
X79248000Y-83989361D01*
X79248000Y-84570933D01*
X79537258Y-85269263D01*
X80071737Y-85803742D01*
X80770067Y-86093000D01*
X81525933Y-86093000D01*
X82224263Y-85803742D01*
X82758742Y-85269263D01*
X83048000Y-84570933D01*
X83048000Y-83815067D01*
X82758742Y-83116737D01*
X82224263Y-82582258D01*
X81525933Y-82293000D01*
X80770067Y-82293000D01*
X80071737Y-82582258D01*
X80025000Y-82628995D01*
X80025000Y-82032094D01*
X79731936Y-81324575D01*
X79190425Y-80783064D01*
X78482906Y-80490000D01*
X77717094Y-80490000D01*
X77009575Y-80783064D01*
X76468064Y-81324575D01*
X76175000Y-82032094D01*
X75375000Y-82032094D01*
X75375000Y-77096305D01*
X83250000Y-77096305D01*
X83250000Y-77573695D01*
X83432689Y-78014745D01*
X83770255Y-78352311D01*
X84211305Y-78535000D01*
X84688695Y-78535000D01*
X85095960Y-78366305D01*
X85790000Y-78366305D01*
X85790000Y-78843695D01*
X85972689Y-79284745D01*
X86310255Y-79622311D01*
X86751305Y-79805000D01*
X87228695Y-79805000D01*
X87669745Y-79622311D01*
X88007311Y-79284745D01*
X88190000Y-78843695D01*
X88190000Y-78366305D01*
X88007311Y-77925255D01*
X87952763Y-77870707D01*
X90750000Y-77870707D01*
X90750000Y-78129293D01*
X90848957Y-78368195D01*
X91031805Y-78551043D01*
X91270707Y-78650000D01*
X91529293Y-78650000D01*
X91768195Y-78551043D01*
X91919238Y-78400000D01*
X94460606Y-78400000D01*
X94500000Y-78407836D01*
X94539394Y-78400000D01*
X94656072Y-78376791D01*
X94788384Y-78288384D01*
X94810703Y-78254981D01*
X95415685Y-77650000D01*
X95629293Y-77650000D01*
X95750001Y-77600001D01*
X95750001Y-85245826D01*
X95739225Y-85300000D01*
X95768855Y-85448957D01*
X95781912Y-85514599D01*
X95903473Y-85696528D01*
X95949398Y-85727214D01*
X96350000Y-86127817D01*
X96350000Y-86129293D01*
X96448957Y-86368195D01*
X96631805Y-86551043D01*
X96870707Y-86650000D01*
X97129293Y-86650000D01*
X97368195Y-86551043D01*
X97551043Y-86368195D01*
X97650000Y-86129293D01*
X97650000Y-85870707D01*
X97551043Y-85631805D01*
X97368195Y-85448957D01*
X97129293Y-85350000D01*
X97127817Y-85350000D01*
X96850000Y-85072183D01*
X96850000Y-83883207D01*
X98050000Y-83883207D01*
X98050000Y-84141793D01*
X98148957Y-84380695D01*
X98331805Y-84563543D01*
X98570707Y-84662500D01*
X98829293Y-84662500D01*
X99068195Y-84563543D01*
X99251043Y-84380695D01*
X99350000Y-84141793D01*
X99350000Y-83883207D01*
X99251043Y-83644305D01*
X99100000Y-83493262D01*
X99100000Y-77265684D01*
X100615686Y-75750000D01*
X100829293Y-75750000D01*
X101068195Y-75651043D01*
X101251043Y-75468195D01*
X101350000Y-75229293D01*
X101350000Y-74970707D01*
X101317111Y-74891305D01*
X112010000Y-74891305D01*
X112010000Y-75368695D01*
X112192689Y-75809745D01*
X112530255Y-76147311D01*
X112660000Y-76201053D01*
X112660001Y-90055826D01*
X112649225Y-90110000D01*
X112691912Y-90324599D01*
X112813473Y-90506528D01*
X112859398Y-90537214D01*
X113650000Y-91327817D01*
X113650000Y-91329293D01*
X113748957Y-91568195D01*
X113931805Y-91751043D01*
X114170707Y-91850000D01*
X114429293Y-91850000D01*
X114668195Y-91751043D01*
X114669238Y-91750000D01*
X115462129Y-91750000D01*
X115497913Y-91836391D01*
X115863609Y-92202087D01*
X116341414Y-92400000D01*
X116858586Y-92400000D01*
X117336391Y-92202087D01*
X117702087Y-91836391D01*
X117900000Y-91358586D01*
X117900000Y-90841414D01*
X117702087Y-90363609D01*
X117336391Y-89997913D01*
X116858586Y-89800000D01*
X116341414Y-89800000D01*
X115863609Y-89997913D01*
X115497913Y-90363609D01*
X115379286Y-90650000D01*
X114669238Y-90650000D01*
X114668195Y-90648957D01*
X114429293Y-90550000D01*
X114427817Y-90550000D01*
X113760000Y-89882184D01*
X113760000Y-77927094D01*
X120175000Y-77927094D01*
X120175000Y-78692906D01*
X120468064Y-79400425D01*
X121009575Y-79941936D01*
X121717094Y-80235000D01*
X122482906Y-80235000D01*
X123190425Y-79941936D01*
X123731936Y-79400425D01*
X124025000Y-78692906D01*
X124025000Y-77927094D01*
X123731936Y-77219575D01*
X123190425Y-76678064D01*
X122482906Y-76385000D01*
X121717094Y-76385000D01*
X121009575Y-76678064D01*
X120468064Y-77219575D01*
X120175000Y-77927094D01*
X113760000Y-77927094D01*
X113760000Y-77279745D01*
X115011677Y-77279745D01*
X115114147Y-77445307D01*
X115562571Y-77609068D01*
X116039528Y-77588760D01*
X116385853Y-77445307D01*
X116488323Y-77279745D01*
X115750000Y-76541421D01*
X115011677Y-77279745D01*
X113760000Y-77279745D01*
X113760000Y-76212571D01*
X114540932Y-76212571D01*
X114561240Y-76689528D01*
X114704693Y-77035853D01*
X114870255Y-77138323D01*
X115608579Y-76400000D01*
X115891421Y-76400000D01*
X116629745Y-77138323D01*
X116795307Y-77035853D01*
X116959068Y-76587429D01*
X116938760Y-76110472D01*
X116795307Y-75764147D01*
X116629745Y-75661677D01*
X115891421Y-76400000D01*
X115608579Y-76400000D01*
X114870255Y-75661677D01*
X114704693Y-75764147D01*
X114540932Y-76212571D01*
X113760000Y-76212571D01*
X113760000Y-76201053D01*
X113889745Y-76147311D01*
X114227311Y-75809745D01*
X114347221Y-75520255D01*
X115011677Y-75520255D01*
X115750000Y-76258579D01*
X116488323Y-75520255D01*
X116385853Y-75354693D01*
X115937429Y-75190932D01*
X115460472Y-75211240D01*
X115114147Y-75354693D01*
X115011677Y-75520255D01*
X114347221Y-75520255D01*
X114410000Y-75368695D01*
X114410000Y-74891305D01*
X114227311Y-74450255D01*
X113889745Y-74112689D01*
X113448695Y-73930000D01*
X112971305Y-73930000D01*
X112530255Y-74112689D01*
X112192689Y-74450255D01*
X112010000Y-74891305D01*
X101317111Y-74891305D01*
X101251043Y-74731805D01*
X101068195Y-74548957D01*
X100829293Y-74450000D01*
X100570707Y-74450000D01*
X100331805Y-74548957D01*
X100148957Y-74731805D01*
X100050000Y-74970707D01*
X100050000Y-75184314D01*
X98445019Y-76789297D01*
X98411616Y-76811616D01*
X98323210Y-76943928D01*
X98323209Y-76943929D01*
X98292164Y-77100000D01*
X98300000Y-77139394D01*
X98300001Y-83493261D01*
X98148957Y-83644305D01*
X98050000Y-83883207D01*
X96850000Y-83883207D01*
X96850000Y-72351305D01*
X112010000Y-72351305D01*
X112010000Y-72828695D01*
X112192689Y-73269745D01*
X112530255Y-73607311D01*
X112971305Y-73790000D01*
X113448695Y-73790000D01*
X113855960Y-73621305D01*
X114550000Y-73621305D01*
X114550000Y-74098695D01*
X114732689Y-74539745D01*
X115070255Y-74877311D01*
X115511305Y-75060000D01*
X115988695Y-75060000D01*
X116429745Y-74877311D01*
X116767311Y-74539745D01*
X116950000Y-74098695D01*
X116950000Y-73621305D01*
X116767311Y-73180255D01*
X116429745Y-72842689D01*
X115988695Y-72660000D01*
X115511305Y-72660000D01*
X115070255Y-72842689D01*
X114732689Y-73180255D01*
X114550000Y-73621305D01*
X113855960Y-73621305D01*
X113889745Y-73607311D01*
X114227311Y-73269745D01*
X114410000Y-72828695D01*
X114410000Y-72351305D01*
X114227311Y-71910255D01*
X113889745Y-71572689D01*
X113448695Y-71390000D01*
X112971305Y-71390000D01*
X112530255Y-71572689D01*
X112192689Y-71910255D01*
X112010000Y-72351305D01*
X96850000Y-72351305D01*
X96850000Y-70307094D01*
X120175000Y-70307094D01*
X120175000Y-71072906D01*
X120468064Y-71780425D01*
X121009575Y-72321936D01*
X121717094Y-72615000D01*
X122482906Y-72615000D01*
X123190425Y-72321936D01*
X123731936Y-71780425D01*
X124025000Y-71072906D01*
X124025000Y-70307094D01*
X123731936Y-69599575D01*
X123190425Y-69058064D01*
X122482906Y-68765000D01*
X121717094Y-68765000D01*
X121009575Y-69058064D01*
X120468064Y-69599575D01*
X120175000Y-70307094D01*
X96850000Y-70307094D01*
X96850000Y-68450000D01*
X108730762Y-68450000D01*
X108731805Y-68451043D01*
X108970707Y-68550000D01*
X109229293Y-68550000D01*
X109468195Y-68451043D01*
X109651043Y-68268195D01*
X109750000Y-68029293D01*
X109750000Y-67770707D01*
X109651043Y-67531805D01*
X109468195Y-67348957D01*
X109229293Y-67250000D01*
X108970707Y-67250000D01*
X108731805Y-67348957D01*
X108730762Y-67350000D01*
X96669238Y-67350000D01*
X96668195Y-67348957D01*
X96429293Y-67250000D01*
X96170707Y-67250000D01*
X95931805Y-67348957D01*
X95748957Y-67531805D01*
X95650000Y-67770707D01*
X95650000Y-68029293D01*
X95748957Y-68268195D01*
X95750000Y-68269238D01*
X95750000Y-72299999D01*
X95629293Y-72250000D01*
X95415685Y-72250000D01*
X94610695Y-71445011D01*
X94588376Y-71411608D01*
X94456064Y-71323201D01*
X94339386Y-71299992D01*
X94299992Y-71292156D01*
X94260598Y-71299992D01*
X92319238Y-71299992D01*
X92168195Y-71148949D01*
X91929293Y-71049992D01*
X91670707Y-71049992D01*
X91431805Y-71148949D01*
X91248957Y-71331797D01*
X91150000Y-71570699D01*
X91150000Y-71829285D01*
X91248957Y-72068187D01*
X91431805Y-72251035D01*
X91670707Y-72349992D01*
X91929293Y-72349992D01*
X92168195Y-72251035D01*
X92319238Y-72099992D01*
X94134308Y-72099992D01*
X94850000Y-72815685D01*
X94850000Y-73029293D01*
X94948957Y-73268195D01*
X95130762Y-73450000D01*
X94948957Y-73631805D01*
X94850000Y-73870707D01*
X94850000Y-74084315D01*
X94734316Y-74200000D01*
X92319238Y-74200000D01*
X92168195Y-74048957D01*
X91929293Y-73950000D01*
X91670707Y-73950000D01*
X91431805Y-74048957D01*
X91248957Y-74231805D01*
X91150000Y-74470707D01*
X91150000Y-74729293D01*
X91248957Y-74968195D01*
X91431805Y-75151043D01*
X91549997Y-75200000D01*
X91431805Y-75248957D01*
X91248957Y-75431805D01*
X91150000Y-75670707D01*
X91150000Y-75929293D01*
X91248957Y-76168195D01*
X91431805Y-76351043D01*
X91670707Y-76450000D01*
X91929293Y-76450000D01*
X92168195Y-76351043D01*
X92319238Y-76200000D01*
X95160606Y-76200000D01*
X95200000Y-76207836D01*
X95239394Y-76200000D01*
X95356072Y-76176791D01*
X95396168Y-76150000D01*
X95629293Y-76150000D01*
X95750000Y-76100001D01*
X95750000Y-76399999D01*
X95629293Y-76350000D01*
X95370707Y-76350000D01*
X95131805Y-76448957D01*
X94948957Y-76631805D01*
X94850000Y-76870707D01*
X94850000Y-77084315D01*
X94334316Y-77600000D01*
X91919238Y-77600000D01*
X91768195Y-77448957D01*
X91529293Y-77350000D01*
X91270707Y-77350000D01*
X91031805Y-77448957D01*
X90848957Y-77631805D01*
X90750000Y-77870707D01*
X87952763Y-77870707D01*
X87669745Y-77587689D01*
X87228695Y-77405000D01*
X86751305Y-77405000D01*
X86310255Y-77587689D01*
X85972689Y-77925255D01*
X85790000Y-78366305D01*
X85095960Y-78366305D01*
X85129745Y-78352311D01*
X85467311Y-78014745D01*
X85650000Y-77573695D01*
X85650000Y-77096305D01*
X85467311Y-76655255D01*
X85129745Y-76317689D01*
X84688695Y-76135000D01*
X84211305Y-76135000D01*
X83770255Y-76317689D01*
X83432689Y-76655255D01*
X83250000Y-77096305D01*
X75375000Y-77096305D01*
X75375000Y-74556305D01*
X83250000Y-74556305D01*
X83250000Y-75033695D01*
X83432689Y-75474745D01*
X83770255Y-75812311D01*
X84211305Y-75995000D01*
X84688695Y-75995000D01*
X85095960Y-75826305D01*
X85790000Y-75826305D01*
X85790000Y-76303695D01*
X85972689Y-76744745D01*
X86310255Y-77082311D01*
X86751305Y-77265000D01*
X87228695Y-77265000D01*
X87669745Y-77082311D01*
X88007311Y-76744745D01*
X88190000Y-76303695D01*
X88190000Y-75826305D01*
X88007311Y-75385255D01*
X87669745Y-75047689D01*
X87228695Y-74865000D01*
X86751305Y-74865000D01*
X86310255Y-75047689D01*
X85972689Y-75385255D01*
X85790000Y-75826305D01*
X85095960Y-75826305D01*
X85129745Y-75812311D01*
X85467311Y-75474745D01*
X85650000Y-75033695D01*
X85650000Y-74556305D01*
X85467311Y-74115255D01*
X85129745Y-73777689D01*
X84688695Y-73595000D01*
X84211305Y-73595000D01*
X83770255Y-73777689D01*
X83432689Y-74115255D01*
X83250000Y-74556305D01*
X75375000Y-74556305D01*
X75375000Y-73134745D01*
X83711677Y-73134745D01*
X83814147Y-73300307D01*
X84262571Y-73464068D01*
X84739528Y-73443760D01*
X85085853Y-73300307D01*
X85094519Y-73286305D01*
X85790000Y-73286305D01*
X85790000Y-73763695D01*
X85972689Y-74204745D01*
X86310255Y-74542311D01*
X86751305Y-74725000D01*
X87228695Y-74725000D01*
X87669745Y-74542311D01*
X88007311Y-74204745D01*
X88190000Y-73763695D01*
X88190000Y-73286305D01*
X88007311Y-72845255D01*
X87669745Y-72507689D01*
X87228695Y-72325000D01*
X86751305Y-72325000D01*
X86310255Y-72507689D01*
X85972689Y-72845255D01*
X85790000Y-73286305D01*
X85094519Y-73286305D01*
X85188323Y-73134745D01*
X84450000Y-72396421D01*
X83711677Y-73134745D01*
X75375000Y-73134745D01*
X75375000Y-70602094D01*
X76175000Y-70602094D01*
X76175000Y-71367906D01*
X76468064Y-72075425D01*
X77009575Y-72616936D01*
X77717094Y-72910000D01*
X78482906Y-72910000D01*
X79190425Y-72616936D01*
X79731936Y-72075425D01*
X79735189Y-72067571D01*
X83240932Y-72067571D01*
X83261240Y-72544528D01*
X83404693Y-72890853D01*
X83570255Y-72993323D01*
X84308579Y-72255000D01*
X84591421Y-72255000D01*
X85329745Y-72993323D01*
X85495307Y-72890853D01*
X85659068Y-72442429D01*
X85638760Y-71965472D01*
X85495307Y-71619147D01*
X85329745Y-71516677D01*
X84591421Y-72255000D01*
X84308579Y-72255000D01*
X83570255Y-71516677D01*
X83404693Y-71619147D01*
X83240932Y-72067571D01*
X79735189Y-72067571D01*
X80021955Y-71375255D01*
X83711677Y-71375255D01*
X84450000Y-72113579D01*
X85188323Y-71375255D01*
X85085853Y-71209693D01*
X84637429Y-71045932D01*
X84160472Y-71066240D01*
X83814147Y-71209693D01*
X83711677Y-71375255D01*
X80021955Y-71375255D01*
X80025000Y-71367906D01*
X80025000Y-70771005D01*
X80071737Y-70817742D01*
X80770067Y-71107000D01*
X81525933Y-71107000D01*
X82224263Y-70817742D01*
X82758742Y-70283263D01*
X83048000Y-69584933D01*
X83048000Y-68829067D01*
X82758742Y-68130737D01*
X82224263Y-67596258D01*
X81525933Y-67307000D01*
X80770067Y-67307000D01*
X80071737Y-67596258D01*
X79537258Y-68130737D01*
X79248000Y-68829067D01*
X79248000Y-69410639D01*
X79190425Y-69353064D01*
X78482906Y-69060000D01*
X77717094Y-69060000D01*
X77009575Y-69353064D01*
X76468064Y-69894575D01*
X76175000Y-70602094D01*
X75375000Y-70602094D01*
X75375000Y-64622067D01*
X78100000Y-64622067D01*
X78100000Y-65377933D01*
X78389258Y-66076263D01*
X78923737Y-66610742D01*
X79622067Y-66900000D01*
X80377933Y-66900000D01*
X81076263Y-66610742D01*
X81610742Y-66076263D01*
X81900000Y-65377933D01*
X81900000Y-64741414D01*
X112700000Y-64741414D01*
X112700000Y-65258586D01*
X112897913Y-65736391D01*
X113263609Y-66102087D01*
X113741414Y-66300000D01*
X114258586Y-66300000D01*
X114736391Y-66102087D01*
X115102087Y-65736391D01*
X115300000Y-65258586D01*
X115300000Y-64741414D01*
X116700000Y-64741414D01*
X116700000Y-65258586D01*
X116897913Y-65736391D01*
X117263609Y-66102087D01*
X117741414Y-66300000D01*
X118258586Y-66300000D01*
X118736391Y-66102087D01*
X119102087Y-65736391D01*
X119300000Y-65258586D01*
X119300000Y-64741414D01*
X119250565Y-64622067D01*
X123100000Y-64622067D01*
X123100000Y-65377933D01*
X123389258Y-66076263D01*
X123923737Y-66610742D01*
X124622067Y-66900000D01*
X125377933Y-66900000D01*
X126076263Y-66610742D01*
X126610742Y-66076263D01*
X126900000Y-65377933D01*
X126900000Y-64622067D01*
X126610742Y-63923737D01*
X126076263Y-63389258D01*
X125377933Y-63100000D01*
X124622067Y-63100000D01*
X123923737Y-63389258D01*
X123389258Y-63923737D01*
X123100000Y-64622067D01*
X119250565Y-64622067D01*
X119102087Y-64263609D01*
X118736391Y-63897913D01*
X118258586Y-63700000D01*
X117741414Y-63700000D01*
X117263609Y-63897913D01*
X116897913Y-64263609D01*
X116700000Y-64741414D01*
X115300000Y-64741414D01*
X115102087Y-64263609D01*
X114736391Y-63897913D01*
X114258586Y-63700000D01*
X113741414Y-63700000D01*
X113263609Y-63897913D01*
X112897913Y-64263609D01*
X112700000Y-64741414D01*
X81900000Y-64741414D01*
X81900000Y-64622067D01*
X81610742Y-63923737D01*
X81076263Y-63389258D01*
X80377933Y-63100000D01*
X79622067Y-63100000D01*
X78923737Y-63389258D01*
X78389258Y-63923737D01*
X78100000Y-64622067D01*
X75375000Y-64622067D01*
X75375000Y-60375000D01*
X129625001Y-60375000D01*
X129625000Y-104625000D01*
X129625000Y-104625000D01*
G37*
X129625000Y-104625000D02*
X75375000Y-104625000D01*
X75375000Y-99622067D01*
X78100000Y-99622067D01*
X78100000Y-100377933D01*
X78389258Y-101076263D01*
X78923737Y-101610742D01*
X79622067Y-101900000D01*
X80377933Y-101900000D01*
X80570770Y-101820124D01*
X96710611Y-101820124D01*
X96903779Y-102230999D01*
X97239478Y-102536676D01*
X97559877Y-102669379D01*
X97740000Y-102623997D01*
X97740000Y-101640000D01*
X97940000Y-101640000D01*
X97940000Y-102623997D01*
X98120123Y-102669379D01*
X98440522Y-102536676D01*
X98776221Y-102230999D01*
X98969389Y-101820124D01*
X99250611Y-101820124D01*
X99443779Y-102230999D01*
X99779478Y-102536676D01*
X100099877Y-102669379D01*
X100280000Y-102623997D01*
X100280000Y-101640000D01*
X100480000Y-101640000D01*
X100480000Y-102623997D01*
X100660123Y-102669379D01*
X100980522Y-102536676D01*
X101316221Y-102230999D01*
X101509389Y-101820124D01*
X101790611Y-101820124D01*
X101983779Y-102230999D01*
X102319478Y-102536676D01*
X102639877Y-102669379D01*
X102820000Y-102623997D01*
X102820000Y-101640000D01*
X103020000Y-101640000D01*
X103020000Y-102623997D01*
X103200123Y-102669379D01*
X103520522Y-102536676D01*
X103856221Y-102230999D01*
X104049389Y-101820124D01*
X104330611Y-101820124D01*
X104523779Y-102230999D01*
X104859478Y-102536676D01*
X105179877Y-102669379D01*
X105360000Y-102623997D01*
X105360000Y-101640000D01*
X105560000Y-101640000D01*
X105560000Y-102623997D01*
X105740123Y-102669379D01*
X106060522Y-102536676D01*
X106396221Y-102230999D01*
X106589389Y-101820124D01*
X106544305Y-101640000D01*
X105560000Y-101640000D01*
X105360000Y-101640000D01*
X104375695Y-101640000D01*
X104330611Y-101820124D01*
X104049389Y-101820124D01*
X104004305Y-101640000D01*
X103020000Y-101640000D01*
X102820000Y-101640000D01*
X101835695Y-101640000D01*
X101790611Y-101820124D01*
X101509389Y-101820124D01*
X101464305Y-101640000D01*
X100480000Y-101640000D01*
X100280000Y-101640000D01*
X99295695Y-101640000D01*
X99250611Y-101820124D01*
X98969389Y-101820124D01*
X98924305Y-101640000D01*
X97940000Y-101640000D01*
X97740000Y-101640000D01*
X96755695Y-101640000D01*
X96710611Y-101820124D01*
X80570770Y-101820124D01*
X81076263Y-101610742D01*
X81427129Y-101259876D01*
X96710611Y-101259876D01*
X96755695Y-101440000D01*
X97740000Y-101440000D01*
X97740000Y-100456003D01*
X97940000Y-100456003D01*
X97940000Y-101440000D01*
X98924305Y-101440000D01*
X98969389Y-101259876D01*
X99250611Y-101259876D01*
X99295695Y-101440000D01*
X100280000Y-101440000D01*
X100280000Y-100456003D01*
X100480000Y-100456003D01*
X100480000Y-101440000D01*
X101464305Y-101440000D01*
X101509389Y-101259876D01*
X101790611Y-101259876D01*
X101835695Y-101440000D01*
X102820000Y-101440000D01*
X102820000Y-100456003D01*
X103020000Y-100456003D01*
X103020000Y-101440000D01*
X104004305Y-101440000D01*
X104049389Y-101259876D01*
X104330611Y-101259876D01*
X104375695Y-101440000D01*
X105360000Y-101440000D01*
X105360000Y-100456003D01*
X105560000Y-100456003D01*
X105560000Y-101440000D01*
X106544305Y-101440000D01*
X106589389Y-101259876D01*
X106396221Y-100849001D01*
X106060522Y-100543324D01*
X105740123Y-100410621D01*
X105560000Y-100456003D01*
X105360000Y-100456003D01*
X105179877Y-100410621D01*
X104859478Y-100543324D01*
X104523779Y-100849001D01*
X104330611Y-101259876D01*
X104049389Y-101259876D01*
X103856221Y-100849001D01*
X103520522Y-100543324D01*
X103200123Y-100410621D01*
X103020000Y-100456003D01*
X102820000Y-100456003D01*
X102639877Y-100410621D01*
X102319478Y-100543324D01*
X101983779Y-100849001D01*
X101790611Y-101259876D01*
X101509389Y-101259876D01*
X101316221Y-100849001D01*
X100980522Y-100543324D01*
X100660123Y-100410621D01*
X100480000Y-100456003D01*
X100280000Y-100456003D01*
X100099877Y-100410621D01*
X99779478Y-100543324D01*
X99443779Y-100849001D01*
X99250611Y-101259876D01*
X98969389Y-101259876D01*
X98776221Y-100849001D01*
X98440522Y-100543324D01*
X98120123Y-100410621D01*
X97940000Y-100456003D01*
X97740000Y-100456003D01*
X97559877Y-100410621D01*
X97239478Y-100543324D01*
X96903779Y-100849001D01*
X96710611Y-101259876D01*
X81427129Y-101259876D01*
X81610742Y-101076263D01*
X81900000Y-100377933D01*
X81900000Y-99622067D01*
X81642332Y-99000000D01*
X96653604Y-99000000D01*
X96743913Y-99454014D01*
X97001091Y-99838909D01*
X97385986Y-100096087D01*
X97725397Y-100163600D01*
X97954603Y-100163600D01*
X98294014Y-100096087D01*
X98678909Y-99838909D01*
X98936087Y-99454014D01*
X99026396Y-99000000D01*
X99193604Y-99000000D01*
X99283913Y-99454014D01*
X99541091Y-99838909D01*
X99925986Y-100096087D01*
X100265397Y-100163600D01*
X100494603Y-100163600D01*
X100834014Y-100096087D01*
X101218909Y-99838909D01*
X101476087Y-99454014D01*
X101566396Y-99000000D01*
X101733604Y-99000000D01*
X101823913Y-99454014D01*
X102081091Y-99838909D01*
X102465986Y-100096087D01*
X102805397Y-100163600D01*
X103034603Y-100163600D01*
X103374014Y-100096087D01*
X103758909Y-99838909D01*
X104016087Y-99454014D01*
X104106396Y-99000000D01*
X104273604Y-99000000D01*
X104363913Y-99454014D01*
X104621091Y-99838909D01*
X105005986Y-100096087D01*
X105345397Y-100163600D01*
X105574603Y-100163600D01*
X105914014Y-100096087D01*
X106298909Y-99838909D01*
X106556087Y-99454014D01*
X106646396Y-99000000D01*
X106556087Y-98545986D01*
X106298909Y-98161091D01*
X106261957Y-98136400D01*
X106830523Y-98136400D01*
X106830523Y-99863600D01*
X106853807Y-99980654D01*
X106920112Y-100079888D01*
X107019346Y-100146193D01*
X107136400Y-100169477D01*
X108863600Y-100169477D01*
X108980654Y-100146193D01*
X109079888Y-100079888D01*
X109146193Y-99980654D01*
X109169477Y-99863600D01*
X109169477Y-98136400D01*
X109146193Y-98019346D01*
X109079888Y-97920112D01*
X108980654Y-97853807D01*
X108863600Y-97830523D01*
X107136400Y-97830523D01*
X107019346Y-97853807D01*
X106920112Y-97920112D01*
X106853807Y-98019346D01*
X106830523Y-98136400D01*
X106261957Y-98136400D01*
X105914014Y-97903913D01*
X105574603Y-97836400D01*
X105345397Y-97836400D01*
X105005986Y-97903913D01*
X104621091Y-98161091D01*
X104363913Y-98545986D01*
X104273604Y-99000000D01*
X104106396Y-99000000D01*
X104016087Y-98545986D01*
X103758909Y-98161091D01*
X103374014Y-97903913D01*
X103034603Y-97836400D01*
X102805397Y-97836400D01*
X102465986Y-97903913D01*
X102081091Y-98161091D01*
X101823913Y-98545986D01*
X101733604Y-99000000D01*
X101566396Y-99000000D01*
X101476087Y-98545986D01*
X101218909Y-98161091D01*
X100834014Y-97903913D01*
X100494603Y-97836400D01*
X100265397Y-97836400D01*
X99925986Y-97903913D01*
X99541091Y-98161091D01*
X99283913Y-98545986D01*
X99193604Y-99000000D01*
X99026396Y-99000000D01*
X98936087Y-98545986D01*
X98678909Y-98161091D01*
X98294014Y-97903913D01*
X97954603Y-97836400D01*
X97725397Y-97836400D01*
X97385986Y-97903913D01*
X97001091Y-98161091D01*
X96743913Y-98545986D01*
X96653604Y-99000000D01*
X81642332Y-99000000D01*
X81610742Y-98923737D01*
X81076263Y-98389258D01*
X80377933Y-98100000D01*
X79622067Y-98100000D01*
X78923737Y-98389258D01*
X78389258Y-98923737D01*
X78100000Y-99622067D01*
X75375000Y-99622067D01*
X75375000Y-90950000D01*
X78094123Y-90950000D01*
X78094123Y-93550000D01*
X78117407Y-93667054D01*
X78183712Y-93766288D01*
X78282946Y-93832593D01*
X78400000Y-93855877D01*
X81000000Y-93855877D01*
X81117054Y-93832593D01*
X81216288Y-93766288D01*
X81282593Y-93667054D01*
X81305877Y-93550000D01*
X85621967Y-93550000D01*
X85750000Y-93575467D01*
X85878033Y-93550000D01*
X85878037Y-93550000D01*
X86257235Y-93474573D01*
X86606180Y-93241414D01*
X99450000Y-93241414D01*
X99450000Y-93758586D01*
X99647913Y-94236391D01*
X100013609Y-94602087D01*
X100491414Y-94800000D01*
X101008586Y-94800000D01*
X101486391Y-94602087D01*
X101852087Y-94236391D01*
X102050000Y-93758586D01*
X102050000Y-93241414D01*
X101852087Y-92763609D01*
X101486391Y-92397913D01*
X101008586Y-92200000D01*
X100491414Y-92200000D01*
X100013609Y-92397913D01*
X99647913Y-92763609D01*
X99450000Y-93241414D01*
X86606180Y-93241414D01*
X86687247Y-93187247D01*
X86759776Y-93078700D01*
X88828703Y-91009774D01*
X88937247Y-90937247D01*
X89224573Y-90507235D01*
X89300000Y-90128037D01*
X89300000Y-90128033D01*
X89325467Y-90000000D01*
X89300000Y-89871967D01*
X89300000Y-86933207D01*
X101212500Y-86933207D01*
X101212500Y-87191793D01*
X101311457Y-87430695D01*
X101494305Y-87613543D01*
X101733207Y-87712500D01*
X101734684Y-87712500D01*
X109350001Y-95327818D01*
X109350000Y-100172182D01*
X108828229Y-100693955D01*
X108454014Y-100443913D01*
X108114603Y-100376400D01*
X107885397Y-100376400D01*
X107545986Y-100443913D01*
X107161091Y-100701091D01*
X106903913Y-101085986D01*
X106813604Y-101540000D01*
X106903913Y-101994014D01*
X107161091Y-102378909D01*
X107545986Y-102636087D01*
X107885397Y-102703600D01*
X108114603Y-102703600D01*
X108454014Y-102636087D01*
X108838909Y-102378909D01*
X109096087Y-101994014D01*
X109100010Y-101974292D01*
X109156528Y-101936528D01*
X109187216Y-101890600D01*
X110250606Y-100827212D01*
X110296528Y-100796528D01*
X110418089Y-100614599D01*
X110450000Y-100454170D01*
X110450000Y-100454166D01*
X110460774Y-100400001D01*
X110450000Y-100345836D01*
X110450000Y-99622067D01*
X123100000Y-99622067D01*
X123100000Y-100377933D01*
X123389258Y-101076263D01*
X123923737Y-101610742D01*
X124622067Y-101900000D01*
X125377933Y-101900000D01*
X126076263Y-101610742D01*
X126610742Y-101076263D01*
X126900000Y-100377933D01*
X126900000Y-99622067D01*
X126610742Y-98923737D01*
X126076263Y-98389258D01*
X125377933Y-98100000D01*
X124622067Y-98100000D01*
X123923737Y-98389258D01*
X123389258Y-98923737D01*
X123100000Y-99622067D01*
X110450000Y-99622067D01*
X110450000Y-98952094D01*
X117189328Y-98952094D01*
X117304032Y-99128049D01*
X117788695Y-99308517D01*
X118305527Y-99289775D01*
X118695968Y-99128049D01*
X118810672Y-98952094D01*
X118000000Y-98141421D01*
X117189328Y-98952094D01*
X110450000Y-98952094D01*
X110450000Y-97788695D01*
X116691483Y-97788695D01*
X116710225Y-98305527D01*
X116871951Y-98695968D01*
X117047906Y-98810672D01*
X117858579Y-98000000D01*
X118141421Y-98000000D01*
X118952094Y-98810672D01*
X119128049Y-98695968D01*
X119308517Y-98211305D01*
X119289775Y-97694473D01*
X119128049Y-97304032D01*
X118952094Y-97189328D01*
X118141421Y-98000000D01*
X117858579Y-98000000D01*
X117047906Y-97189328D01*
X116871951Y-97304032D01*
X116691483Y-97788695D01*
X110450000Y-97788695D01*
X110450000Y-97047906D01*
X117189328Y-97047906D01*
X118000000Y-97858579D01*
X118810672Y-97047906D01*
X118695968Y-96871951D01*
X118211305Y-96691483D01*
X117694473Y-96710225D01*
X117304032Y-96871951D01*
X117189328Y-97047906D01*
X110450000Y-97047906D01*
X110450000Y-95154168D01*
X110460775Y-95099999D01*
X110450000Y-95045830D01*
X110418089Y-94885401D01*
X110296528Y-94703472D01*
X110250603Y-94672786D01*
X102512500Y-86934684D01*
X102512500Y-86933207D01*
X102413543Y-86694305D01*
X102230695Y-86511457D01*
X101991793Y-86412500D01*
X101733207Y-86412500D01*
X101494305Y-86511457D01*
X101311457Y-86694305D01*
X101212500Y-86933207D01*
X89300000Y-86933207D01*
X89300000Y-82283033D01*
X89325467Y-82155000D01*
X89300000Y-82026967D01*
X89300000Y-82026963D01*
X89224573Y-81647765D01*
X88937247Y-81217753D01*
X88828702Y-81145225D01*
X87818702Y-80135226D01*
X87497234Y-79920427D01*
X86990000Y-79819533D01*
X86482766Y-79920427D01*
X86052753Y-80207753D01*
X85765427Y-80637766D01*
X85750000Y-80715324D01*
X85750000Y-79746963D01*
X85674573Y-79367765D01*
X85387247Y-78937753D01*
X84957234Y-78650427D01*
X84450000Y-78549532D01*
X83942765Y-78650427D01*
X83512753Y-78937753D01*
X83225427Y-79367766D01*
X83150000Y-79746964D01*
X83150001Y-88311027D01*
X83100000Y-88431740D01*
X83100000Y-89068260D01*
X83343585Y-89656327D01*
X83793673Y-90106415D01*
X84381740Y-90350000D01*
X85018260Y-90350000D01*
X85606327Y-90106415D01*
X86056415Y-89656327D01*
X86300000Y-89068260D01*
X86300000Y-88431740D01*
X86056415Y-87843673D01*
X85750000Y-87537258D01*
X85750000Y-81574676D01*
X85765427Y-81652234D01*
X85980226Y-81973702D01*
X86700001Y-82693478D01*
X86700000Y-89461523D01*
X85211524Y-90950000D01*
X81305877Y-90950000D01*
X81282593Y-90832946D01*
X81216288Y-90733712D01*
X81117054Y-90667407D01*
X81000000Y-90644123D01*
X78400000Y-90644123D01*
X78282946Y-90667407D01*
X78183712Y-90733712D01*
X78117407Y-90832946D01*
X78094123Y-90950000D01*
X75375000Y-90950000D01*
X75375000Y-82032094D01*
X76175000Y-82032094D01*
X76175000Y-82797906D01*
X76468064Y-83505425D01*
X77009575Y-84046936D01*
X77717094Y-84340000D01*
X78482906Y-84340000D01*
X79190425Y-84046936D01*
X79248000Y-83989361D01*
X79248000Y-84570933D01*
X79537258Y-85269263D01*
X80071737Y-85803742D01*
X80770067Y-86093000D01*
X81525933Y-86093000D01*
X82224263Y-85803742D01*
X82758742Y-85269263D01*
X83048000Y-84570933D01*
X83048000Y-83815067D01*
X82758742Y-83116737D01*
X82224263Y-82582258D01*
X81525933Y-82293000D01*
X80770067Y-82293000D01*
X80071737Y-82582258D01*
X80025000Y-82628995D01*
X80025000Y-82032094D01*
X79731936Y-81324575D01*
X79190425Y-80783064D01*
X78482906Y-80490000D01*
X77717094Y-80490000D01*
X77009575Y-80783064D01*
X76468064Y-81324575D01*
X76175000Y-82032094D01*
X75375000Y-82032094D01*
X75375000Y-77096305D01*
X83250000Y-77096305D01*
X83250000Y-77573695D01*
X83432689Y-78014745D01*
X83770255Y-78352311D01*
X84211305Y-78535000D01*
X84688695Y-78535000D01*
X85095960Y-78366305D01*
X85790000Y-78366305D01*
X85790000Y-78843695D01*
X85972689Y-79284745D01*
X86310255Y-79622311D01*
X86751305Y-79805000D01*
X87228695Y-79805000D01*
X87669745Y-79622311D01*
X88007311Y-79284745D01*
X88190000Y-78843695D01*
X88190000Y-78366305D01*
X88007311Y-77925255D01*
X87952763Y-77870707D01*
X90750000Y-77870707D01*
X90750000Y-78129293D01*
X90848957Y-78368195D01*
X91031805Y-78551043D01*
X91270707Y-78650000D01*
X91529293Y-78650000D01*
X91768195Y-78551043D01*
X91919238Y-78400000D01*
X94460606Y-78400000D01*
X94500000Y-78407836D01*
X94539394Y-78400000D01*
X94656072Y-78376791D01*
X94788384Y-78288384D01*
X94810703Y-78254981D01*
X95415685Y-77650000D01*
X95629293Y-77650000D01*
X95750001Y-77600001D01*
X95750001Y-85245826D01*
X95739225Y-85300000D01*
X95768855Y-85448957D01*
X95781912Y-85514599D01*
X95903473Y-85696528D01*
X95949398Y-85727214D01*
X96350000Y-86127817D01*
X96350000Y-86129293D01*
X96448957Y-86368195D01*
X96631805Y-86551043D01*
X96870707Y-86650000D01*
X97129293Y-86650000D01*
X97368195Y-86551043D01*
X97551043Y-86368195D01*
X97650000Y-86129293D01*
X97650000Y-85870707D01*
X97551043Y-85631805D01*
X97368195Y-85448957D01*
X97129293Y-85350000D01*
X97127817Y-85350000D01*
X96850000Y-85072183D01*
X96850000Y-83883207D01*
X98050000Y-83883207D01*
X98050000Y-84141793D01*
X98148957Y-84380695D01*
X98331805Y-84563543D01*
X98570707Y-84662500D01*
X98829293Y-84662500D01*
X99068195Y-84563543D01*
X99251043Y-84380695D01*
X99350000Y-84141793D01*
X99350000Y-83883207D01*
X99251043Y-83644305D01*
X99100000Y-83493262D01*
X99100000Y-77265684D01*
X100615686Y-75750000D01*
X100829293Y-75750000D01*
X101068195Y-75651043D01*
X101251043Y-75468195D01*
X101350000Y-75229293D01*
X101350000Y-74970707D01*
X101317111Y-74891305D01*
X112010000Y-74891305D01*
X112010000Y-75368695D01*
X112192689Y-75809745D01*
X112530255Y-76147311D01*
X112660000Y-76201053D01*
X112660001Y-90055826D01*
X112649225Y-90110000D01*
X112691912Y-90324599D01*
X112813473Y-90506528D01*
X112859398Y-90537214D01*
X113650000Y-91327817D01*
X113650000Y-91329293D01*
X113748957Y-91568195D01*
X113931805Y-91751043D01*
X114170707Y-91850000D01*
X114429293Y-91850000D01*
X114668195Y-91751043D01*
X114669238Y-91750000D01*
X115462129Y-91750000D01*
X115497913Y-91836391D01*
X115863609Y-92202087D01*
X116341414Y-92400000D01*
X116858586Y-92400000D01*
X117336391Y-92202087D01*
X117702087Y-91836391D01*
X117900000Y-91358586D01*
X117900000Y-90841414D01*
X117702087Y-90363609D01*
X117336391Y-89997913D01*
X116858586Y-89800000D01*
X116341414Y-89800000D01*
X115863609Y-89997913D01*
X115497913Y-90363609D01*
X115379286Y-90650000D01*
X114669238Y-90650000D01*
X114668195Y-90648957D01*
X114429293Y-90550000D01*
X114427817Y-90550000D01*
X113760000Y-89882184D01*
X113760000Y-77927094D01*
X120175000Y-77927094D01*
X120175000Y-78692906D01*
X120468064Y-79400425D01*
X121009575Y-79941936D01*
X121717094Y-80235000D01*
X122482906Y-80235000D01*
X123190425Y-79941936D01*
X123731936Y-79400425D01*
X124025000Y-78692906D01*
X124025000Y-77927094D01*
X123731936Y-77219575D01*
X123190425Y-76678064D01*
X122482906Y-76385000D01*
X121717094Y-76385000D01*
X121009575Y-76678064D01*
X120468064Y-77219575D01*
X120175000Y-77927094D01*
X113760000Y-77927094D01*
X113760000Y-77279745D01*
X115011677Y-77279745D01*
X115114147Y-77445307D01*
X115562571Y-77609068D01*
X116039528Y-77588760D01*
X116385853Y-77445307D01*
X116488323Y-77279745D01*
X115750000Y-76541421D01*
X115011677Y-77279745D01*
X113760000Y-77279745D01*
X113760000Y-76212571D01*
X114540932Y-76212571D01*
X114561240Y-76689528D01*
X114704693Y-77035853D01*
X114870255Y-77138323D01*
X115608579Y-76400000D01*
X115891421Y-76400000D01*
X116629745Y-77138323D01*
X116795307Y-77035853D01*
X116959068Y-76587429D01*
X116938760Y-76110472D01*
X116795307Y-75764147D01*
X116629745Y-75661677D01*
X115891421Y-76400000D01*
X115608579Y-76400000D01*
X114870255Y-75661677D01*
X114704693Y-75764147D01*
X114540932Y-76212571D01*
X113760000Y-76212571D01*
X113760000Y-76201053D01*
X113889745Y-76147311D01*
X114227311Y-75809745D01*
X114347221Y-75520255D01*
X115011677Y-75520255D01*
X115750000Y-76258579D01*
X116488323Y-75520255D01*
X116385853Y-75354693D01*
X115937429Y-75190932D01*
X115460472Y-75211240D01*
X115114147Y-75354693D01*
X115011677Y-75520255D01*
X114347221Y-75520255D01*
X114410000Y-75368695D01*
X114410000Y-74891305D01*
X114227311Y-74450255D01*
X113889745Y-74112689D01*
X113448695Y-73930000D01*
X112971305Y-73930000D01*
X112530255Y-74112689D01*
X112192689Y-74450255D01*
X112010000Y-74891305D01*
X101317111Y-74891305D01*
X101251043Y-74731805D01*
X101068195Y-74548957D01*
X100829293Y-74450000D01*
X100570707Y-74450000D01*
X100331805Y-74548957D01*
X100148957Y-74731805D01*
X100050000Y-74970707D01*
X100050000Y-75184314D01*
X98445019Y-76789297D01*
X98411616Y-76811616D01*
X98323210Y-76943928D01*
X98323209Y-76943929D01*
X98292164Y-77100000D01*
X98300000Y-77139394D01*
X98300001Y-83493261D01*
X98148957Y-83644305D01*
X98050000Y-83883207D01*
X96850000Y-83883207D01*
X96850000Y-72351305D01*
X112010000Y-72351305D01*
X112010000Y-72828695D01*
X112192689Y-73269745D01*
X112530255Y-73607311D01*
X112971305Y-73790000D01*
X113448695Y-73790000D01*
X113855960Y-73621305D01*
X114550000Y-73621305D01*
X114550000Y-74098695D01*
X114732689Y-74539745D01*
X115070255Y-74877311D01*
X115511305Y-75060000D01*
X115988695Y-75060000D01*
X116429745Y-74877311D01*
X116767311Y-74539745D01*
X116950000Y-74098695D01*
X116950000Y-73621305D01*
X116767311Y-73180255D01*
X116429745Y-72842689D01*
X115988695Y-72660000D01*
X115511305Y-72660000D01*
X115070255Y-72842689D01*
X114732689Y-73180255D01*
X114550000Y-73621305D01*
X113855960Y-73621305D01*
X113889745Y-73607311D01*
X114227311Y-73269745D01*
X114410000Y-72828695D01*
X114410000Y-72351305D01*
X114227311Y-71910255D01*
X113889745Y-71572689D01*
X113448695Y-71390000D01*
X112971305Y-71390000D01*
X112530255Y-71572689D01*
X112192689Y-71910255D01*
X112010000Y-72351305D01*
X96850000Y-72351305D01*
X96850000Y-70307094D01*
X120175000Y-70307094D01*
X120175000Y-71072906D01*
X120468064Y-71780425D01*
X121009575Y-72321936D01*
X121717094Y-72615000D01*
X122482906Y-72615000D01*
X123190425Y-72321936D01*
X123731936Y-71780425D01*
X124025000Y-71072906D01*
X124025000Y-70307094D01*
X123731936Y-69599575D01*
X123190425Y-69058064D01*
X122482906Y-68765000D01*
X121717094Y-68765000D01*
X121009575Y-69058064D01*
X120468064Y-69599575D01*
X120175000Y-70307094D01*
X96850000Y-70307094D01*
X96850000Y-68450000D01*
X108730762Y-68450000D01*
X108731805Y-68451043D01*
X108970707Y-68550000D01*
X109229293Y-68550000D01*
X109468195Y-68451043D01*
X109651043Y-68268195D01*
X109750000Y-68029293D01*
X109750000Y-67770707D01*
X109651043Y-67531805D01*
X109468195Y-67348957D01*
X109229293Y-67250000D01*
X108970707Y-67250000D01*
X108731805Y-67348957D01*
X108730762Y-67350000D01*
X96669238Y-67350000D01*
X96668195Y-67348957D01*
X96429293Y-67250000D01*
X96170707Y-67250000D01*
X95931805Y-67348957D01*
X95748957Y-67531805D01*
X95650000Y-67770707D01*
X95650000Y-68029293D01*
X95748957Y-68268195D01*
X95750000Y-68269238D01*
X95750000Y-72299999D01*
X95629293Y-72250000D01*
X95415685Y-72250000D01*
X94610695Y-71445011D01*
X94588376Y-71411608D01*
X94456064Y-71323201D01*
X94339386Y-71299992D01*
X94299992Y-71292156D01*
X94260598Y-71299992D01*
X92319238Y-71299992D01*
X92168195Y-71148949D01*
X91929293Y-71049992D01*
X91670707Y-71049992D01*
X91431805Y-71148949D01*
X91248957Y-71331797D01*
X91150000Y-71570699D01*
X91150000Y-71829285D01*
X91248957Y-72068187D01*
X91431805Y-72251035D01*
X91670707Y-72349992D01*
X91929293Y-72349992D01*
X92168195Y-72251035D01*
X92319238Y-72099992D01*
X94134308Y-72099992D01*
X94850000Y-72815685D01*
X94850000Y-73029293D01*
X94948957Y-73268195D01*
X95130762Y-73450000D01*
X94948957Y-73631805D01*
X94850000Y-73870707D01*
X94850000Y-74084315D01*
X94734316Y-74200000D01*
X92319238Y-74200000D01*
X92168195Y-74048957D01*
X91929293Y-73950000D01*
X91670707Y-73950000D01*
X91431805Y-74048957D01*
X91248957Y-74231805D01*
X91150000Y-74470707D01*
X91150000Y-74729293D01*
X91248957Y-74968195D01*
X91431805Y-75151043D01*
X91549997Y-75200000D01*
X91431805Y-75248957D01*
X91248957Y-75431805D01*
X91150000Y-75670707D01*
X91150000Y-75929293D01*
X91248957Y-76168195D01*
X91431805Y-76351043D01*
X91670707Y-76450000D01*
X91929293Y-76450000D01*
X92168195Y-76351043D01*
X92319238Y-76200000D01*
X95160606Y-76200000D01*
X95200000Y-76207836D01*
X95239394Y-76200000D01*
X95356072Y-76176791D01*
X95396168Y-76150000D01*
X95629293Y-76150000D01*
X95750000Y-76100001D01*
X95750000Y-76399999D01*
X95629293Y-76350000D01*
X95370707Y-76350000D01*
X95131805Y-76448957D01*
X94948957Y-76631805D01*
X94850000Y-76870707D01*
X94850000Y-77084315D01*
X94334316Y-77600000D01*
X91919238Y-77600000D01*
X91768195Y-77448957D01*
X91529293Y-77350000D01*
X91270707Y-77350000D01*
X91031805Y-77448957D01*
X90848957Y-77631805D01*
X90750000Y-77870707D01*
X87952763Y-77870707D01*
X87669745Y-77587689D01*
X87228695Y-77405000D01*
X86751305Y-77405000D01*
X86310255Y-77587689D01*
X85972689Y-77925255D01*
X85790000Y-78366305D01*
X85095960Y-78366305D01*
X85129745Y-78352311D01*
X85467311Y-78014745D01*
X85650000Y-77573695D01*
X85650000Y-77096305D01*
X85467311Y-76655255D01*
X85129745Y-76317689D01*
X84688695Y-76135000D01*
X84211305Y-76135000D01*
X83770255Y-76317689D01*
X83432689Y-76655255D01*
X83250000Y-77096305D01*
X75375000Y-77096305D01*
X75375000Y-74556305D01*
X83250000Y-74556305D01*
X83250000Y-75033695D01*
X83432689Y-75474745D01*
X83770255Y-75812311D01*
X84211305Y-75995000D01*
X84688695Y-75995000D01*
X85095960Y-75826305D01*
X85790000Y-75826305D01*
X85790000Y-76303695D01*
X85972689Y-76744745D01*
X86310255Y-77082311D01*
X86751305Y-77265000D01*
X87228695Y-77265000D01*
X87669745Y-77082311D01*
X88007311Y-76744745D01*
X88190000Y-76303695D01*
X88190000Y-75826305D01*
X88007311Y-75385255D01*
X87669745Y-75047689D01*
X87228695Y-74865000D01*
X86751305Y-74865000D01*
X86310255Y-75047689D01*
X85972689Y-75385255D01*
X85790000Y-75826305D01*
X85095960Y-75826305D01*
X85129745Y-75812311D01*
X85467311Y-75474745D01*
X85650000Y-75033695D01*
X85650000Y-74556305D01*
X85467311Y-74115255D01*
X85129745Y-73777689D01*
X84688695Y-73595000D01*
X84211305Y-73595000D01*
X83770255Y-73777689D01*
X83432689Y-74115255D01*
X83250000Y-74556305D01*
X75375000Y-74556305D01*
X75375000Y-73134745D01*
X83711677Y-73134745D01*
X83814147Y-73300307D01*
X84262571Y-73464068D01*
X84739528Y-73443760D01*
X85085853Y-73300307D01*
X85094519Y-73286305D01*
X85790000Y-73286305D01*
X85790000Y-73763695D01*
X85972689Y-74204745D01*
X86310255Y-74542311D01*
X86751305Y-74725000D01*
X87228695Y-74725000D01*
X87669745Y-74542311D01*
X88007311Y-74204745D01*
X88190000Y-73763695D01*
X88190000Y-73286305D01*
X88007311Y-72845255D01*
X87669745Y-72507689D01*
X87228695Y-72325000D01*
X86751305Y-72325000D01*
X86310255Y-72507689D01*
X85972689Y-72845255D01*
X85790000Y-73286305D01*
X85094519Y-73286305D01*
X85188323Y-73134745D01*
X84450000Y-72396421D01*
X83711677Y-73134745D01*
X75375000Y-73134745D01*
X75375000Y-70602094D01*
X76175000Y-70602094D01*
X76175000Y-71367906D01*
X76468064Y-72075425D01*
X77009575Y-72616936D01*
X77717094Y-72910000D01*
X78482906Y-72910000D01*
X79190425Y-72616936D01*
X79731936Y-72075425D01*
X79735189Y-72067571D01*
X83240932Y-72067571D01*
X83261240Y-72544528D01*
X83404693Y-72890853D01*
X83570255Y-72993323D01*
X84308579Y-72255000D01*
X84591421Y-72255000D01*
X85329745Y-72993323D01*
X85495307Y-72890853D01*
X85659068Y-72442429D01*
X85638760Y-71965472D01*
X85495307Y-71619147D01*
X85329745Y-71516677D01*
X84591421Y-72255000D01*
X84308579Y-72255000D01*
X83570255Y-71516677D01*
X83404693Y-71619147D01*
X83240932Y-72067571D01*
X79735189Y-72067571D01*
X80021955Y-71375255D01*
X83711677Y-71375255D01*
X84450000Y-72113579D01*
X85188323Y-71375255D01*
X85085853Y-71209693D01*
X84637429Y-71045932D01*
X84160472Y-71066240D01*
X83814147Y-71209693D01*
X83711677Y-71375255D01*
X80021955Y-71375255D01*
X80025000Y-71367906D01*
X80025000Y-70771005D01*
X80071737Y-70817742D01*
X80770067Y-71107000D01*
X81525933Y-71107000D01*
X82224263Y-70817742D01*
X82758742Y-70283263D01*
X83048000Y-69584933D01*
X83048000Y-68829067D01*
X82758742Y-68130737D01*
X82224263Y-67596258D01*
X81525933Y-67307000D01*
X80770067Y-67307000D01*
X80071737Y-67596258D01*
X79537258Y-68130737D01*
X79248000Y-68829067D01*
X79248000Y-69410639D01*
X79190425Y-69353064D01*
X78482906Y-69060000D01*
X77717094Y-69060000D01*
X77009575Y-69353064D01*
X76468064Y-69894575D01*
X76175000Y-70602094D01*
X75375000Y-70602094D01*
X75375000Y-64622067D01*
X78100000Y-64622067D01*
X78100000Y-65377933D01*
X78389258Y-66076263D01*
X78923737Y-66610742D01*
X79622067Y-66900000D01*
X80377933Y-66900000D01*
X81076263Y-66610742D01*
X81610742Y-66076263D01*
X81900000Y-65377933D01*
X81900000Y-64741414D01*
X112700000Y-64741414D01*
X112700000Y-65258586D01*
X112897913Y-65736391D01*
X113263609Y-66102087D01*
X113741414Y-66300000D01*
X114258586Y-66300000D01*
X114736391Y-66102087D01*
X115102087Y-65736391D01*
X115300000Y-65258586D01*
X115300000Y-64741414D01*
X116700000Y-64741414D01*
X116700000Y-65258586D01*
X116897913Y-65736391D01*
X117263609Y-66102087D01*
X117741414Y-66300000D01*
X118258586Y-66300000D01*
X118736391Y-66102087D01*
X119102087Y-65736391D01*
X119300000Y-65258586D01*
X119300000Y-64741414D01*
X119250565Y-64622067D01*
X123100000Y-64622067D01*
X123100000Y-65377933D01*
X123389258Y-66076263D01*
X123923737Y-66610742D01*
X124622067Y-66900000D01*
X125377933Y-66900000D01*
X126076263Y-66610742D01*
X126610742Y-66076263D01*
X126900000Y-65377933D01*
X126900000Y-64622067D01*
X126610742Y-63923737D01*
X126076263Y-63389258D01*
X125377933Y-63100000D01*
X124622067Y-63100000D01*
X123923737Y-63389258D01*
X123389258Y-63923737D01*
X123100000Y-64622067D01*
X119250565Y-64622067D01*
X119102087Y-64263609D01*
X118736391Y-63897913D01*
X118258586Y-63700000D01*
X117741414Y-63700000D01*
X117263609Y-63897913D01*
X116897913Y-64263609D01*
X116700000Y-64741414D01*
X115300000Y-64741414D01*
X115102087Y-64263609D01*
X114736391Y-63897913D01*
X114258586Y-63700000D01*
X113741414Y-63700000D01*
X113263609Y-63897913D01*
X112897913Y-64263609D01*
X112700000Y-64741414D01*
X81900000Y-64741414D01*
X81900000Y-64622067D01*
X81610742Y-63923737D01*
X81076263Y-63389258D01*
X80377933Y-63100000D01*
X79622067Y-63100000D01*
X78923737Y-63389258D01*
X78389258Y-63923737D01*
X78100000Y-64622067D01*
X75375000Y-64622067D01*
X75375000Y-60375000D01*
X129625001Y-60375000D01*
X129625000Y-104625000D01*
G04 #@! TD*
M02*
