G04 #@! TF.GenerationSoftware,KiCad,Pcbnew,(5.0.2)-1*
G04 #@! TF.CreationDate,2019-05-09T18:05:01+02:00*
G04 #@! TF.ProjectId,MotorController,4d6f746f-7243-46f6-9e74-726f6c6c6572,rev?*
G04 #@! TF.SameCoordinates,Original*
G04 #@! TF.FileFunction,Copper,L2,Bot*
G04 #@! TF.FilePolarity,Positive*
%FSLAX46Y46*%
G04 Gerber Fmt 4.6, Leading zero omitted, Abs format (unit mm)*
G04 Created by KiCad (PCBNEW (5.0.2)-1) date 09.05.2019 18:05:01*
%MOMM*%
%LPD*%
G01*
G04 APERTURE LIST*
G04 #@! TA.AperFunction,ComponentPad*
%ADD10C,3.200000*%
G04 #@! TD*
G04 #@! TA.AperFunction,ComponentPad*
%ADD11C,1.800000*%
G04 #@! TD*
G04 #@! TA.AperFunction,ComponentPad*
%ADD12R,2.600000X2.600000*%
G04 #@! TD*
G04 #@! TA.AperFunction,ComponentPad*
%ADD13C,2.600000*%
G04 #@! TD*
G04 #@! TA.AperFunction,ComponentPad*
%ADD14C,2.000000*%
G04 #@! TD*
G04 #@! TA.AperFunction,ComponentPad*
%ADD15O,1.727200X1.727200*%
G04 #@! TD*
G04 #@! TA.AperFunction,ComponentPad*
%ADD16R,1.727200X1.727200*%
G04 #@! TD*
G04 #@! TA.AperFunction,ViaPad*
%ADD17C,0.600000*%
G04 #@! TD*
G04 #@! TA.AperFunction,Conductor*
%ADD18C,0.500000*%
G04 #@! TD*
G04 #@! TA.AperFunction,Conductor*
%ADD19C,0.250000*%
G04 #@! TD*
G04 #@! TA.AperFunction,Conductor*
%ADD20C,1.000000*%
G04 #@! TD*
G04 #@! TA.AperFunction,Conductor*
%ADD21C,2.000000*%
G04 #@! TD*
G04 APERTURE END LIST*
D10*
G04 #@! TO.P,J3,0*
G04 #@! TO.N,N/C*
X81148000Y-69207000D03*
X81148000Y-84193000D03*
D11*
G04 #@! TO.P,J3,8*
G04 #@! TO.N,/BH_P*
X86990000Y-81145000D03*
G04 #@! TO.P,J3,7*
G04 #@! TO.N,/BH_N*
X84450000Y-79875000D03*
G04 #@! TO.P,J3,6*
G04 #@! TO.N,/B4*
X86990000Y-78605000D03*
G04 #@! TO.P,J3,5*
G04 #@! TO.N,/B3*
X84450000Y-77335000D03*
G04 #@! TO.P,J3,4*
G04 #@! TO.N,/B2*
X86990000Y-76065000D03*
G04 #@! TO.P,J3,3*
G04 #@! TO.N,/B1*
X84450000Y-74795000D03*
G04 #@! TO.P,J3,2*
G04 #@! TO.N,Net-(J3-Pad2)*
X86990000Y-73525000D03*
G04 #@! TO.P,J3,1*
G04 #@! TO.N,GND*
X84450000Y-72255000D03*
G04 #@! TD*
G04 #@! TO.P,J1,1*
G04 #@! TO.N,GND*
X115750000Y-76400000D03*
G04 #@! TO.P,J1,2*
G04 #@! TO.N,+12V*
X113210000Y-75130000D03*
G04 #@! TO.P,J1,4*
G04 #@! TO.N,/B*
X113210000Y-72590000D03*
G04 #@! TO.P,J1,3*
G04 #@! TO.N,/A*
X115750000Y-73860000D03*
G04 #@! TD*
D12*
G04 #@! TO.P,J4,1*
G04 #@! TO.N,/BH_P*
X79700000Y-92250000D03*
D13*
G04 #@! TO.P,J4,2*
G04 #@! TO.N,/BH_N*
X84700000Y-88750000D03*
G04 #@! TD*
D14*
G04 #@! TO.P,TP1,1*
G04 #@! TO.N,GND*
X118000000Y-98000000D03*
G04 #@! TD*
G04 #@! TO.P,TP2,1*
G04 #@! TO.N,+5V*
X100750000Y-93500000D03*
G04 #@! TD*
G04 #@! TO.P,TP3,1*
G04 #@! TO.N,+12V*
X118000000Y-91000000D03*
G04 #@! TD*
G04 #@! TO.P,TP4,1*
G04 #@! TO.N,/B*
X114000000Y-65000000D03*
G04 #@! TD*
G04 #@! TO.P,TP5,1*
G04 #@! TO.N,/A*
X118000000Y-65000000D03*
G04 #@! TD*
D15*
G04 #@! TO.P,J2,10*
G04 #@! TO.N,GND*
X97840000Y-101540000D03*
G04 #@! TO.P,J2,9*
G04 #@! TO.N,/MISO*
X97840000Y-99000000D03*
G04 #@! TO.P,J2,8*
G04 #@! TO.N,GND*
X100380000Y-101540000D03*
G04 #@! TO.P,J2,7*
G04 #@! TO.N,/SCK*
X100380000Y-99000000D03*
G04 #@! TO.P,J2,6*
G04 #@! TO.N,GND*
X102920000Y-101540000D03*
G04 #@! TO.P,J2,5*
G04 #@! TO.N,/RST*
X102920000Y-99000000D03*
G04 #@! TO.P,J2,4*
G04 #@! TO.N,GND*
X105460000Y-101540000D03*
G04 #@! TO.P,J2,3*
G04 #@! TO.N,Net-(J2-Pad3)*
X105460000Y-99000000D03*
G04 #@! TO.P,J2,2*
G04 #@! TO.N,+5V*
X108000000Y-101540000D03*
D16*
G04 #@! TO.P,J2,1*
G04 #@! TO.N,/MOSI*
X108000000Y-99000000D03*
G04 #@! TD*
D17*
G04 #@! TO.N,+5V*
X109100000Y-67900000D03*
X96300000Y-67900000D03*
X97000000Y-86000000D03*
X101862500Y-87062500D03*
G04 #@! TO.N,/RST*
X100700000Y-75100000D03*
X98700000Y-84012500D03*
G04 #@! TO.N,+12V*
X114300000Y-91200000D03*
G04 #@! TO.N,GND*
X109100000Y-69600000D03*
X128000000Y-62000000D03*
X118000000Y-62000000D03*
X107700000Y-62000000D03*
X97000000Y-62000000D03*
X87000000Y-62000000D03*
X77000000Y-62000000D03*
X77000000Y-103000000D03*
X87000000Y-103000000D03*
X128000000Y-103000000D03*
X118000000Y-103000000D03*
X128000000Y-88000000D03*
X128000000Y-72000000D03*
X109000000Y-84000000D03*
X110300000Y-82000000D03*
X111500000Y-87500000D03*
X97500000Y-78000000D03*
X102500000Y-80000000D03*
X91000000Y-81000000D03*
X92000000Y-71000000D03*
X80500000Y-76000000D03*
X92000000Y-87500000D03*
X114800000Y-84000000D03*
X103750000Y-94500000D03*
G04 #@! TO.N,/B1*
X95500000Y-72900000D03*
G04 #@! TO.N,/B2*
X95500000Y-74000000D03*
G04 #@! TO.N,/B4*
X95500000Y-77000000D03*
G04 #@! TO.N,/B3*
X95500000Y-75500000D03*
G04 #@! TD*
D18*
G04 #@! TO.N,+5V*
X96300000Y-85300000D02*
X97000000Y-86000000D01*
X96300000Y-67900000D02*
X96300000Y-85300000D01*
X96300000Y-67900000D02*
X109100000Y-67900000D01*
X109900000Y-100400000D02*
X109900000Y-95100000D01*
X108000000Y-101540000D02*
X108760000Y-101540000D01*
X109900000Y-95100000D02*
X102000000Y-87200000D01*
X108760000Y-101540000D02*
X109900000Y-100400000D01*
D19*
G04 #@! TO.N,/RST*
X98700000Y-77100000D02*
X98700000Y-84012500D01*
X100700000Y-75100000D02*
X98700000Y-77100000D01*
D20*
G04 #@! TO.N,+12V*
X113210000Y-75130000D02*
X113210000Y-90110000D01*
X113210000Y-90110000D02*
X114300000Y-91200000D01*
X114300000Y-91200000D02*
X114300000Y-91200000D01*
G04 #@! TO.N,GND*
X115750000Y-77672792D02*
X114800000Y-78622792D01*
X115750000Y-76400000D02*
X115750000Y-77672792D01*
X114800000Y-78622792D02*
X114800000Y-84000000D01*
X114800000Y-84000000D02*
X114800000Y-84100000D01*
D19*
G04 #@! TO.N,/B1*
X93605000Y-74795000D02*
X84450000Y-74795000D01*
X95500000Y-72900000D02*
X93605000Y-74795000D01*
G04 #@! TO.N,/B2*
X93390000Y-76110000D02*
X86940000Y-76110000D01*
X95500000Y-74000000D02*
X93390000Y-76110000D01*
G04 #@! TO.N,/B4*
X93850000Y-78650000D02*
X86940000Y-78650000D01*
X95500000Y-77000000D02*
X93850000Y-78650000D01*
G04 #@! TO.N,/B3*
X93665000Y-77335000D02*
X84450000Y-77335000D01*
X95500000Y-75500000D02*
X93665000Y-77335000D01*
D21*
G04 #@! TO.N,/BH_N*
X84450000Y-88500000D02*
X84700000Y-88750000D01*
X84450000Y-79875000D02*
X84450000Y-88500000D01*
G04 #@! TO.N,/BH_P*
X88000000Y-82155000D02*
X86990000Y-81145000D01*
X88000000Y-90000000D02*
X88000000Y-82155000D01*
X79700000Y-92250000D02*
X85750000Y-92250000D01*
X85750000Y-92250000D02*
X88000000Y-90000000D01*
G04 #@! TD*
D19*
G04 #@! TO.N,GND*
G36*
X129550000Y-104550000D02*
X75450000Y-104550000D01*
X75450000Y-99607148D01*
X78025000Y-99607148D01*
X78025000Y-100392852D01*
X78325675Y-101118748D01*
X78881252Y-101674325D01*
X79607148Y-101975000D01*
X80392852Y-101975000D01*
X80778362Y-101815317D01*
X96581149Y-101815317D01*
X96782333Y-102276101D01*
X97144537Y-102624820D01*
X97564684Y-102798845D01*
X97765000Y-102719969D01*
X97765000Y-101615000D01*
X97915000Y-101615000D01*
X97915000Y-102719969D01*
X98115316Y-102798845D01*
X98535463Y-102624820D01*
X98897667Y-102276101D01*
X99098851Y-101815317D01*
X99121149Y-101815317D01*
X99322333Y-102276101D01*
X99684537Y-102624820D01*
X100104684Y-102798845D01*
X100305000Y-102719969D01*
X100305000Y-101615000D01*
X100455000Y-101615000D01*
X100455000Y-102719969D01*
X100655316Y-102798845D01*
X101075463Y-102624820D01*
X101437667Y-102276101D01*
X101638851Y-101815317D01*
X101661149Y-101815317D01*
X101862333Y-102276101D01*
X102224537Y-102624820D01*
X102644684Y-102798845D01*
X102845000Y-102719969D01*
X102845000Y-101615000D01*
X102995000Y-101615000D01*
X102995000Y-102719969D01*
X103195316Y-102798845D01*
X103615463Y-102624820D01*
X103977667Y-102276101D01*
X104178851Y-101815317D01*
X104201149Y-101815317D01*
X104402333Y-102276101D01*
X104764537Y-102624820D01*
X105184684Y-102798845D01*
X105385000Y-102719969D01*
X105385000Y-101615000D01*
X104279828Y-101615000D01*
X104201149Y-101815317D01*
X104178851Y-101815317D01*
X104100172Y-101615000D01*
X102995000Y-101615000D01*
X102845000Y-101615000D01*
X101739828Y-101615000D01*
X101661149Y-101815317D01*
X101638851Y-101815317D01*
X101560172Y-101615000D01*
X100455000Y-101615000D01*
X100305000Y-101615000D01*
X99199828Y-101615000D01*
X99121149Y-101815317D01*
X99098851Y-101815317D01*
X99020172Y-101615000D01*
X97915000Y-101615000D01*
X97765000Y-101615000D01*
X96659828Y-101615000D01*
X96581149Y-101815317D01*
X80778362Y-101815317D01*
X81118748Y-101674325D01*
X81528390Y-101264683D01*
X96581149Y-101264683D01*
X96659828Y-101465000D01*
X97765000Y-101465000D01*
X97765000Y-100360031D01*
X97915000Y-100360031D01*
X97915000Y-101465000D01*
X99020172Y-101465000D01*
X99098851Y-101264683D01*
X99121149Y-101264683D01*
X99199828Y-101465000D01*
X100305000Y-101465000D01*
X100305000Y-100360031D01*
X100455000Y-100360031D01*
X100455000Y-101465000D01*
X101560172Y-101465000D01*
X101638851Y-101264683D01*
X101661149Y-101264683D01*
X101739828Y-101465000D01*
X102845000Y-101465000D01*
X102845000Y-100360031D01*
X102995000Y-100360031D01*
X102995000Y-101465000D01*
X104100172Y-101465000D01*
X104178851Y-101264683D01*
X104201149Y-101264683D01*
X104279828Y-101465000D01*
X105385000Y-101465000D01*
X105385000Y-100360031D01*
X105184684Y-100281155D01*
X104764537Y-100455180D01*
X104402333Y-100803899D01*
X104201149Y-101264683D01*
X104178851Y-101264683D01*
X103977667Y-100803899D01*
X103615463Y-100455180D01*
X103195316Y-100281155D01*
X102995000Y-100360031D01*
X102845000Y-100360031D01*
X102644684Y-100281155D01*
X102224537Y-100455180D01*
X101862333Y-100803899D01*
X101661149Y-101264683D01*
X101638851Y-101264683D01*
X101437667Y-100803899D01*
X101075463Y-100455180D01*
X100655316Y-100281155D01*
X100455000Y-100360031D01*
X100305000Y-100360031D01*
X100104684Y-100281155D01*
X99684537Y-100455180D01*
X99322333Y-100803899D01*
X99121149Y-101264683D01*
X99098851Y-101264683D01*
X98897667Y-100803899D01*
X98535463Y-100455180D01*
X98115316Y-100281155D01*
X97915000Y-100360031D01*
X97765000Y-100360031D01*
X97564684Y-100281155D01*
X97144537Y-100455180D01*
X96782333Y-100803899D01*
X96581149Y-101264683D01*
X81528390Y-101264683D01*
X81674325Y-101118748D01*
X81975000Y-100392852D01*
X81975000Y-99607148D01*
X81723512Y-99000000D01*
X96577135Y-99000000D01*
X96673265Y-99483278D01*
X96947020Y-99892980D01*
X97356722Y-100166735D01*
X97718012Y-100238600D01*
X97961988Y-100238600D01*
X98323278Y-100166735D01*
X98732980Y-99892980D01*
X99006735Y-99483278D01*
X99102865Y-99000000D01*
X99117135Y-99000000D01*
X99213265Y-99483278D01*
X99487020Y-99892980D01*
X99896722Y-100166735D01*
X100258012Y-100238600D01*
X100501988Y-100238600D01*
X100863278Y-100166735D01*
X101272980Y-99892980D01*
X101546735Y-99483278D01*
X101642865Y-99000000D01*
X101657135Y-99000000D01*
X101753265Y-99483278D01*
X102027020Y-99892980D01*
X102436722Y-100166735D01*
X102798012Y-100238600D01*
X103041988Y-100238600D01*
X103403278Y-100166735D01*
X103812980Y-99892980D01*
X104086735Y-99483278D01*
X104182865Y-99000000D01*
X104197135Y-99000000D01*
X104293265Y-99483278D01*
X104567020Y-99892980D01*
X104976722Y-100166735D01*
X105338012Y-100238600D01*
X105581988Y-100238600D01*
X105943278Y-100166735D01*
X106352980Y-99892980D01*
X106626735Y-99483278D01*
X106722865Y-99000000D01*
X106626735Y-98516722D01*
X106372612Y-98136400D01*
X106754054Y-98136400D01*
X106754054Y-99863600D01*
X106783158Y-100009917D01*
X106866041Y-100133959D01*
X106990083Y-100216842D01*
X107136400Y-100245946D01*
X108863600Y-100245946D01*
X109009917Y-100216842D01*
X109133959Y-100133959D01*
X109216842Y-100009917D01*
X109245946Y-99863600D01*
X109245946Y-98136400D01*
X109216842Y-97990083D01*
X109133959Y-97866041D01*
X109009917Y-97783158D01*
X108863600Y-97754054D01*
X107136400Y-97754054D01*
X106990083Y-97783158D01*
X106866041Y-97866041D01*
X106783158Y-97990083D01*
X106754054Y-98136400D01*
X106372612Y-98136400D01*
X106352980Y-98107020D01*
X105943278Y-97833265D01*
X105581988Y-97761400D01*
X105338012Y-97761400D01*
X104976722Y-97833265D01*
X104567020Y-98107020D01*
X104293265Y-98516722D01*
X104197135Y-99000000D01*
X104182865Y-99000000D01*
X104086735Y-98516722D01*
X103812980Y-98107020D01*
X103403278Y-97833265D01*
X103041988Y-97761400D01*
X102798012Y-97761400D01*
X102436722Y-97833265D01*
X102027020Y-98107020D01*
X101753265Y-98516722D01*
X101657135Y-99000000D01*
X101642865Y-99000000D01*
X101546735Y-98516722D01*
X101272980Y-98107020D01*
X100863278Y-97833265D01*
X100501988Y-97761400D01*
X100258012Y-97761400D01*
X99896722Y-97833265D01*
X99487020Y-98107020D01*
X99213265Y-98516722D01*
X99117135Y-99000000D01*
X99102865Y-99000000D01*
X99006735Y-98516722D01*
X98732980Y-98107020D01*
X98323278Y-97833265D01*
X97961988Y-97761400D01*
X97718012Y-97761400D01*
X97356722Y-97833265D01*
X96947020Y-98107020D01*
X96673265Y-98516722D01*
X96577135Y-99000000D01*
X81723512Y-99000000D01*
X81674325Y-98881252D01*
X81118748Y-98325675D01*
X80392852Y-98025000D01*
X79607148Y-98025000D01*
X78881252Y-98325675D01*
X78325675Y-98881252D01*
X78025000Y-99607148D01*
X75450000Y-99607148D01*
X75450000Y-82017175D01*
X76100000Y-82017175D01*
X76100000Y-82812825D01*
X76404482Y-83547909D01*
X76967091Y-84110518D01*
X77702175Y-84415000D01*
X78497825Y-84415000D01*
X79173000Y-84135333D01*
X79173000Y-84585852D01*
X79473675Y-85311748D01*
X80029252Y-85867325D01*
X80755148Y-86168000D01*
X81540852Y-86168000D01*
X82266748Y-85867325D01*
X82822325Y-85311748D01*
X83075001Y-84701733D01*
X83075001Y-88296109D01*
X83025000Y-88416822D01*
X83025000Y-89083178D01*
X83280004Y-89698811D01*
X83751189Y-90169996D01*
X84366822Y-90425000D01*
X85033178Y-90425000D01*
X85648811Y-90169996D01*
X86119996Y-89698811D01*
X86375000Y-89083178D01*
X86375000Y-88416822D01*
X86119996Y-87801189D01*
X85825000Y-87506193D01*
X85825000Y-81876386D01*
X85921971Y-82021514D01*
X86625001Y-82724544D01*
X86625000Y-89430457D01*
X85180457Y-90875000D01*
X81367428Y-90875000D01*
X81353242Y-90803683D01*
X81270359Y-90679641D01*
X81146317Y-90596758D01*
X81000000Y-90567654D01*
X78400000Y-90567654D01*
X78253683Y-90596758D01*
X78129641Y-90679641D01*
X78046758Y-90803683D01*
X78017654Y-90950000D01*
X78017654Y-93550000D01*
X78046758Y-93696317D01*
X78129641Y-93820359D01*
X78253683Y-93903242D01*
X78400000Y-93932346D01*
X81000000Y-93932346D01*
X81146317Y-93903242D01*
X81270359Y-93820359D01*
X81353242Y-93696317D01*
X81367428Y-93625000D01*
X85614583Y-93625000D01*
X85750000Y-93651936D01*
X85885417Y-93625000D01*
X85885422Y-93625000D01*
X86286498Y-93545221D01*
X86741319Y-93241319D01*
X86751224Y-93226495D01*
X99375000Y-93226495D01*
X99375000Y-93773505D01*
X99584331Y-94278875D01*
X99971125Y-94665669D01*
X100476495Y-94875000D01*
X101023505Y-94875000D01*
X101528875Y-94665669D01*
X101915669Y-94278875D01*
X102125000Y-93773505D01*
X102125000Y-93226495D01*
X101915669Y-92721125D01*
X101528875Y-92334331D01*
X101023505Y-92125000D01*
X100476495Y-92125000D01*
X99971125Y-92334331D01*
X99584331Y-92721125D01*
X99375000Y-93226495D01*
X86751224Y-93226495D01*
X86818030Y-93126513D01*
X88876515Y-91068028D01*
X88991318Y-90991319D01*
X89069041Y-90875000D01*
X89295221Y-90536498D01*
X89401937Y-90000000D01*
X89375000Y-89864578D01*
X89375000Y-86928234D01*
X101187500Y-86928234D01*
X101187500Y-87196766D01*
X101290263Y-87444857D01*
X101480143Y-87634737D01*
X101600856Y-87684738D01*
X109275001Y-95358884D01*
X109275000Y-100141116D01*
X108818718Y-100597399D01*
X108483278Y-100373265D01*
X108121988Y-100301400D01*
X107878012Y-100301400D01*
X107516722Y-100373265D01*
X107107020Y-100647020D01*
X106833265Y-101056722D01*
X106748600Y-101482362D01*
X106748600Y-101464998D01*
X106640173Y-101464998D01*
X106718851Y-101264683D01*
X106517667Y-100803899D01*
X106155463Y-100455180D01*
X105735316Y-100281155D01*
X105535000Y-100360031D01*
X105535000Y-101465000D01*
X105555000Y-101465000D01*
X105555000Y-101615000D01*
X105535000Y-101615000D01*
X105535000Y-102719969D01*
X105735316Y-102798845D01*
X106155463Y-102624820D01*
X106517667Y-102276101D01*
X106718851Y-101815317D01*
X106640173Y-101615002D01*
X106748600Y-101615002D01*
X106748600Y-101597638D01*
X106833265Y-102023278D01*
X107107020Y-102432980D01*
X107516722Y-102706735D01*
X107878012Y-102778600D01*
X108121988Y-102778600D01*
X108483278Y-102706735D01*
X108892980Y-102432980D01*
X109166735Y-102023278D01*
X109167508Y-102019393D01*
X109210600Y-101990600D01*
X109245472Y-101938410D01*
X110298416Y-100885468D01*
X110350600Y-100850600D01*
X110488737Y-100643863D01*
X110525000Y-100461555D01*
X110525000Y-100461554D01*
X110537244Y-100400001D01*
X110525000Y-100338447D01*
X110525000Y-99607148D01*
X123025000Y-99607148D01*
X123025000Y-100392852D01*
X123325675Y-101118748D01*
X123881252Y-101674325D01*
X124607148Y-101975000D01*
X125392852Y-101975000D01*
X126118748Y-101674325D01*
X126674325Y-101118748D01*
X126975000Y-100392852D01*
X126975000Y-99607148D01*
X126674325Y-98881252D01*
X126118748Y-98325675D01*
X125392852Y-98025000D01*
X124607148Y-98025000D01*
X123881252Y-98325675D01*
X123325675Y-98881252D01*
X123025000Y-99607148D01*
X110525000Y-99607148D01*
X110525000Y-99003793D01*
X117102273Y-99003793D01*
X117207812Y-99217951D01*
X117734204Y-99428397D01*
X118301060Y-99421383D01*
X118792188Y-99217951D01*
X118897727Y-99003793D01*
X118000000Y-98106066D01*
X117102273Y-99003793D01*
X110525000Y-99003793D01*
X110525000Y-97734204D01*
X116571603Y-97734204D01*
X116578617Y-98301060D01*
X116782049Y-98792188D01*
X116996207Y-98897727D01*
X117893934Y-98000000D01*
X118106066Y-98000000D01*
X119003793Y-98897727D01*
X119217951Y-98792188D01*
X119428397Y-98265796D01*
X119421383Y-97698940D01*
X119217951Y-97207812D01*
X119003793Y-97102273D01*
X118106066Y-98000000D01*
X117893934Y-98000000D01*
X116996207Y-97102273D01*
X116782049Y-97207812D01*
X116571603Y-97734204D01*
X110525000Y-97734204D01*
X110525000Y-96996207D01*
X117102273Y-96996207D01*
X118000000Y-97893934D01*
X118897727Y-96996207D01*
X118792188Y-96782049D01*
X118265796Y-96571603D01*
X117698940Y-96578617D01*
X117207812Y-96782049D01*
X117102273Y-96996207D01*
X110525000Y-96996207D01*
X110525000Y-95161554D01*
X110537244Y-95099999D01*
X110488737Y-94856137D01*
X110350600Y-94649400D01*
X110298412Y-94614529D01*
X102484738Y-86800856D01*
X102434737Y-86680143D01*
X102244857Y-86490263D01*
X101996766Y-86387500D01*
X101728234Y-86387500D01*
X101480143Y-86490263D01*
X101290263Y-86680143D01*
X101187500Y-86928234D01*
X89375000Y-86928234D01*
X89375000Y-82290418D01*
X89401936Y-82155000D01*
X89375000Y-82019582D01*
X89375000Y-82019578D01*
X89295221Y-81618502D01*
X88991319Y-81163681D01*
X88876513Y-81086970D01*
X87866514Y-80076971D01*
X87526498Y-79849780D01*
X87384676Y-79821570D01*
X87712230Y-79685893D01*
X88070893Y-79327230D01*
X88144304Y-79150000D01*
X93800759Y-79150000D01*
X93850000Y-79159795D01*
X93899241Y-79150000D01*
X93899243Y-79150000D01*
X94045090Y-79120989D01*
X94210480Y-79010480D01*
X94238376Y-78968730D01*
X95532107Y-77675000D01*
X95634266Y-77675000D01*
X95675001Y-77658127D01*
X95675001Y-85238440D01*
X95662756Y-85300000D01*
X95711263Y-85543862D01*
X95711264Y-85543863D01*
X95849401Y-85750600D01*
X95901588Y-85785470D01*
X96377763Y-86261646D01*
X96427763Y-86382357D01*
X96617643Y-86572237D01*
X96865734Y-86675000D01*
X97134266Y-86675000D01*
X97382357Y-86572237D01*
X97572237Y-86382357D01*
X97675000Y-86134266D01*
X97675000Y-85865734D01*
X97572237Y-85617643D01*
X97382357Y-85427763D01*
X97261646Y-85377763D01*
X96925000Y-85041117D01*
X96925000Y-83878234D01*
X98025000Y-83878234D01*
X98025000Y-84146766D01*
X98127763Y-84394857D01*
X98317643Y-84584737D01*
X98565734Y-84687500D01*
X98834266Y-84687500D01*
X99082357Y-84584737D01*
X99272237Y-84394857D01*
X99375000Y-84146766D01*
X99375000Y-83878234D01*
X99272237Y-83630143D01*
X99200000Y-83557906D01*
X99200000Y-77307106D01*
X100732107Y-75775000D01*
X100834266Y-75775000D01*
X101082357Y-75672237D01*
X101272237Y-75482357D01*
X101375000Y-75234266D01*
X101375000Y-74965734D01*
X101272237Y-74717643D01*
X101082357Y-74527763D01*
X100834266Y-74425000D01*
X100565734Y-74425000D01*
X100317643Y-74527763D01*
X100127763Y-74717643D01*
X100025000Y-74965734D01*
X100025000Y-75067893D01*
X98381270Y-76711623D01*
X98339520Y-76739520D01*
X98229011Y-76904911D01*
X98206861Y-77016267D01*
X98190205Y-77100000D01*
X98200000Y-77149241D01*
X98200001Y-83557905D01*
X98127763Y-83630143D01*
X98025000Y-83878234D01*
X96925000Y-83878234D01*
X96925000Y-72336387D01*
X111935000Y-72336387D01*
X111935000Y-72843613D01*
X112129107Y-73312230D01*
X112487770Y-73670893D01*
X112944316Y-73860000D01*
X112487770Y-74049107D01*
X112129107Y-74407770D01*
X111935000Y-74876387D01*
X111935000Y-75383613D01*
X112129107Y-75852230D01*
X112335000Y-76058123D01*
X112335001Y-90023817D01*
X112317858Y-90110000D01*
X112360625Y-90325000D01*
X112385769Y-90451408D01*
X112579161Y-90740840D01*
X112652221Y-90789657D01*
X113620343Y-91757780D01*
X113669160Y-91830840D01*
X113958592Y-92024232D01*
X114300000Y-92092142D01*
X114386179Y-92075000D01*
X114641408Y-92024232D01*
X114930840Y-91830840D01*
X115124232Y-91541408D01*
X115192142Y-91200000D01*
X115124232Y-90858592D01*
X115035968Y-90726495D01*
X116625000Y-90726495D01*
X116625000Y-91273505D01*
X116834331Y-91778875D01*
X117221125Y-92165669D01*
X117726495Y-92375000D01*
X118273505Y-92375000D01*
X118778875Y-92165669D01*
X119165669Y-91778875D01*
X119375000Y-91273505D01*
X119375000Y-90726495D01*
X119165669Y-90221125D01*
X118778875Y-89834331D01*
X118273505Y-89625000D01*
X117726495Y-89625000D01*
X117221125Y-89834331D01*
X116834331Y-90221125D01*
X116625000Y-90726495D01*
X115035968Y-90726495D01*
X114930840Y-90569160D01*
X114857780Y-90520343D01*
X114085000Y-89747564D01*
X114085000Y-77912175D01*
X120100000Y-77912175D01*
X120100000Y-78707825D01*
X120404482Y-79442909D01*
X120967091Y-80005518D01*
X121702175Y-80310000D01*
X122497825Y-80310000D01*
X123232909Y-80005518D01*
X123795518Y-79442909D01*
X124100000Y-78707825D01*
X124100000Y-77912175D01*
X123795518Y-77177091D01*
X123232909Y-76614482D01*
X122497825Y-76310000D01*
X121702175Y-76310000D01*
X120967091Y-76614482D01*
X120404482Y-77177091D01*
X120100000Y-77912175D01*
X114085000Y-77912175D01*
X114085000Y-77331575D01*
X114924491Y-77331575D01*
X115017827Y-77535347D01*
X115508039Y-77729114D01*
X116035087Y-77720536D01*
X116482173Y-77535347D01*
X116575509Y-77331575D01*
X115750000Y-76506066D01*
X114924491Y-77331575D01*
X114085000Y-77331575D01*
X114085000Y-76158039D01*
X114420886Y-76158039D01*
X114429464Y-76685087D01*
X114614653Y-77132173D01*
X114818425Y-77225509D01*
X115643934Y-76400000D01*
X115856066Y-76400000D01*
X116681575Y-77225509D01*
X116885347Y-77132173D01*
X117079114Y-76641961D01*
X117070536Y-76114913D01*
X116885347Y-75667827D01*
X116681575Y-75574491D01*
X115856066Y-76400000D01*
X115643934Y-76400000D01*
X114818425Y-75574491D01*
X114614653Y-75667827D01*
X114420886Y-76158039D01*
X114085000Y-76158039D01*
X114085000Y-76058123D01*
X114290893Y-75852230D01*
X114485000Y-75383613D01*
X114485000Y-74876387D01*
X114290893Y-74407770D01*
X113932230Y-74049107D01*
X113475684Y-73860000D01*
X113932230Y-73670893D01*
X113996736Y-73606387D01*
X114475000Y-73606387D01*
X114475000Y-74113613D01*
X114669107Y-74582230D01*
X115027770Y-74940893D01*
X115413612Y-75100714D01*
X115017827Y-75264653D01*
X114924491Y-75468425D01*
X115750000Y-76293934D01*
X116575509Y-75468425D01*
X116482173Y-75264653D01*
X116077127Y-75104550D01*
X116472230Y-74940893D01*
X116830893Y-74582230D01*
X117025000Y-74113613D01*
X117025000Y-73606387D01*
X116830893Y-73137770D01*
X116472230Y-72779107D01*
X116003613Y-72585000D01*
X115496387Y-72585000D01*
X115027770Y-72779107D01*
X114669107Y-73137770D01*
X114475000Y-73606387D01*
X113996736Y-73606387D01*
X114290893Y-73312230D01*
X114485000Y-72843613D01*
X114485000Y-72336387D01*
X114290893Y-71867770D01*
X113932230Y-71509107D01*
X113463613Y-71315000D01*
X112956387Y-71315000D01*
X112487770Y-71509107D01*
X112129107Y-71867770D01*
X111935000Y-72336387D01*
X96925000Y-72336387D01*
X96925000Y-70292175D01*
X120100000Y-70292175D01*
X120100000Y-71087825D01*
X120404482Y-71822909D01*
X120967091Y-72385518D01*
X121702175Y-72690000D01*
X122497825Y-72690000D01*
X123232909Y-72385518D01*
X123795518Y-71822909D01*
X124100000Y-71087825D01*
X124100000Y-70292175D01*
X123795518Y-69557091D01*
X123232909Y-68994482D01*
X122497825Y-68690000D01*
X121702175Y-68690000D01*
X120967091Y-68994482D01*
X120404482Y-69557091D01*
X120100000Y-70292175D01*
X96925000Y-70292175D01*
X96925000Y-68525000D01*
X108845024Y-68525000D01*
X108965734Y-68575000D01*
X109234266Y-68575000D01*
X109482357Y-68472237D01*
X109672237Y-68282357D01*
X109775000Y-68034266D01*
X109775000Y-67765734D01*
X109672237Y-67517643D01*
X109482357Y-67327763D01*
X109234266Y-67225000D01*
X108965734Y-67225000D01*
X108845024Y-67275000D01*
X96554976Y-67275000D01*
X96434266Y-67225000D01*
X96165734Y-67225000D01*
X95917643Y-67327763D01*
X95727763Y-67517643D01*
X95625000Y-67765734D01*
X95625000Y-68034266D01*
X95675000Y-68154976D01*
X95675000Y-72241873D01*
X95634266Y-72225000D01*
X95365734Y-72225000D01*
X95117643Y-72327763D01*
X94927763Y-72517643D01*
X94825000Y-72765734D01*
X94825000Y-72867893D01*
X93397894Y-74295000D01*
X88023123Y-74295000D01*
X88070893Y-74247230D01*
X88265000Y-73778613D01*
X88265000Y-73271387D01*
X88070893Y-72802770D01*
X87712230Y-72444107D01*
X87243613Y-72250000D01*
X86736387Y-72250000D01*
X86267770Y-72444107D01*
X85909107Y-72802770D01*
X85715000Y-73271387D01*
X85715000Y-73778613D01*
X85909107Y-74247230D01*
X85956877Y-74295000D01*
X85622943Y-74295000D01*
X85530893Y-74072770D01*
X85172230Y-73714107D01*
X84786388Y-73554286D01*
X85182173Y-73390347D01*
X85275509Y-73186575D01*
X84450000Y-72361066D01*
X83624491Y-73186575D01*
X83717827Y-73390347D01*
X84122873Y-73550450D01*
X83727770Y-73714107D01*
X83369107Y-74072770D01*
X83175000Y-74541387D01*
X83175000Y-75048613D01*
X83369107Y-75517230D01*
X83727770Y-75875893D01*
X84184316Y-76065000D01*
X83727770Y-76254107D01*
X83369107Y-76612770D01*
X83175000Y-77081387D01*
X83175000Y-77588613D01*
X83369107Y-78057230D01*
X83727770Y-78415893D01*
X84055322Y-78551569D01*
X83913502Y-78579779D01*
X83458681Y-78883682D01*
X83154779Y-79338503D01*
X83075000Y-79739579D01*
X83075000Y-83684266D01*
X82822325Y-83074252D01*
X82266748Y-82518675D01*
X81540852Y-82218000D01*
X80755148Y-82218000D01*
X80100000Y-82489370D01*
X80100000Y-82017175D01*
X79795518Y-81282091D01*
X79232909Y-80719482D01*
X78497825Y-80415000D01*
X77702175Y-80415000D01*
X76967091Y-80719482D01*
X76404482Y-81282091D01*
X76100000Y-82017175D01*
X75450000Y-82017175D01*
X75450000Y-70587175D01*
X76100000Y-70587175D01*
X76100000Y-71382825D01*
X76404482Y-72117909D01*
X76967091Y-72680518D01*
X77702175Y-72985000D01*
X78497825Y-72985000D01*
X79232909Y-72680518D01*
X79795518Y-72117909D01*
X79838956Y-72013039D01*
X83120886Y-72013039D01*
X83129464Y-72540087D01*
X83314653Y-72987173D01*
X83518425Y-73080509D01*
X84343934Y-72255000D01*
X84556066Y-72255000D01*
X85381575Y-73080509D01*
X85585347Y-72987173D01*
X85779114Y-72496961D01*
X85770536Y-71969913D01*
X85585347Y-71522827D01*
X85381575Y-71429491D01*
X84556066Y-72255000D01*
X84343934Y-72255000D01*
X83518425Y-71429491D01*
X83314653Y-71522827D01*
X83120886Y-72013039D01*
X79838956Y-72013039D01*
X80100000Y-71382825D01*
X80100000Y-71323425D01*
X83624491Y-71323425D01*
X84450000Y-72148934D01*
X85275509Y-71323425D01*
X85182173Y-71119653D01*
X84691961Y-70925886D01*
X84164913Y-70934464D01*
X83717827Y-71119653D01*
X83624491Y-71323425D01*
X80100000Y-71323425D01*
X80100000Y-70910630D01*
X80755148Y-71182000D01*
X81540852Y-71182000D01*
X82266748Y-70881325D01*
X82822325Y-70325748D01*
X83123000Y-69599852D01*
X83123000Y-68814148D01*
X82822325Y-68088252D01*
X82266748Y-67532675D01*
X81540852Y-67232000D01*
X80755148Y-67232000D01*
X80029252Y-67532675D01*
X79473675Y-68088252D01*
X79173000Y-68814148D01*
X79173000Y-69264667D01*
X78497825Y-68985000D01*
X77702175Y-68985000D01*
X76967091Y-69289482D01*
X76404482Y-69852091D01*
X76100000Y-70587175D01*
X75450000Y-70587175D01*
X75450000Y-64607148D01*
X78025000Y-64607148D01*
X78025000Y-65392852D01*
X78325675Y-66118748D01*
X78881252Y-66674325D01*
X79607148Y-66975000D01*
X80392852Y-66975000D01*
X81118748Y-66674325D01*
X81674325Y-66118748D01*
X81975000Y-65392852D01*
X81975000Y-64726495D01*
X112625000Y-64726495D01*
X112625000Y-65273505D01*
X112834331Y-65778875D01*
X113221125Y-66165669D01*
X113726495Y-66375000D01*
X114273505Y-66375000D01*
X114778875Y-66165669D01*
X115165669Y-65778875D01*
X115375000Y-65273505D01*
X115375000Y-64726495D01*
X116625000Y-64726495D01*
X116625000Y-65273505D01*
X116834331Y-65778875D01*
X117221125Y-66165669D01*
X117726495Y-66375000D01*
X118273505Y-66375000D01*
X118778875Y-66165669D01*
X119165669Y-65778875D01*
X119375000Y-65273505D01*
X119375000Y-64726495D01*
X119325565Y-64607148D01*
X123025000Y-64607148D01*
X123025000Y-65392852D01*
X123325675Y-66118748D01*
X123881252Y-66674325D01*
X124607148Y-66975000D01*
X125392852Y-66975000D01*
X126118748Y-66674325D01*
X126674325Y-66118748D01*
X126975000Y-65392852D01*
X126975000Y-64607148D01*
X126674325Y-63881252D01*
X126118748Y-63325675D01*
X125392852Y-63025000D01*
X124607148Y-63025000D01*
X123881252Y-63325675D01*
X123325675Y-63881252D01*
X123025000Y-64607148D01*
X119325565Y-64607148D01*
X119165669Y-64221125D01*
X118778875Y-63834331D01*
X118273505Y-63625000D01*
X117726495Y-63625000D01*
X117221125Y-63834331D01*
X116834331Y-64221125D01*
X116625000Y-64726495D01*
X115375000Y-64726495D01*
X115165669Y-64221125D01*
X114778875Y-63834331D01*
X114273505Y-63625000D01*
X113726495Y-63625000D01*
X113221125Y-63834331D01*
X112834331Y-64221125D01*
X112625000Y-64726495D01*
X81975000Y-64726495D01*
X81975000Y-64607148D01*
X81674325Y-63881252D01*
X81118748Y-63325675D01*
X80392852Y-63025000D01*
X79607148Y-63025000D01*
X78881252Y-63325675D01*
X78325675Y-63881252D01*
X78025000Y-64607148D01*
X75450000Y-64607148D01*
X75450000Y-60450000D01*
X129550001Y-60450000D01*
X129550000Y-104550000D01*
X129550000Y-104550000D01*
G37*
X129550000Y-104550000D02*
X75450000Y-104550000D01*
X75450000Y-99607148D01*
X78025000Y-99607148D01*
X78025000Y-100392852D01*
X78325675Y-101118748D01*
X78881252Y-101674325D01*
X79607148Y-101975000D01*
X80392852Y-101975000D01*
X80778362Y-101815317D01*
X96581149Y-101815317D01*
X96782333Y-102276101D01*
X97144537Y-102624820D01*
X97564684Y-102798845D01*
X97765000Y-102719969D01*
X97765000Y-101615000D01*
X97915000Y-101615000D01*
X97915000Y-102719969D01*
X98115316Y-102798845D01*
X98535463Y-102624820D01*
X98897667Y-102276101D01*
X99098851Y-101815317D01*
X99121149Y-101815317D01*
X99322333Y-102276101D01*
X99684537Y-102624820D01*
X100104684Y-102798845D01*
X100305000Y-102719969D01*
X100305000Y-101615000D01*
X100455000Y-101615000D01*
X100455000Y-102719969D01*
X100655316Y-102798845D01*
X101075463Y-102624820D01*
X101437667Y-102276101D01*
X101638851Y-101815317D01*
X101661149Y-101815317D01*
X101862333Y-102276101D01*
X102224537Y-102624820D01*
X102644684Y-102798845D01*
X102845000Y-102719969D01*
X102845000Y-101615000D01*
X102995000Y-101615000D01*
X102995000Y-102719969D01*
X103195316Y-102798845D01*
X103615463Y-102624820D01*
X103977667Y-102276101D01*
X104178851Y-101815317D01*
X104201149Y-101815317D01*
X104402333Y-102276101D01*
X104764537Y-102624820D01*
X105184684Y-102798845D01*
X105385000Y-102719969D01*
X105385000Y-101615000D01*
X104279828Y-101615000D01*
X104201149Y-101815317D01*
X104178851Y-101815317D01*
X104100172Y-101615000D01*
X102995000Y-101615000D01*
X102845000Y-101615000D01*
X101739828Y-101615000D01*
X101661149Y-101815317D01*
X101638851Y-101815317D01*
X101560172Y-101615000D01*
X100455000Y-101615000D01*
X100305000Y-101615000D01*
X99199828Y-101615000D01*
X99121149Y-101815317D01*
X99098851Y-101815317D01*
X99020172Y-101615000D01*
X97915000Y-101615000D01*
X97765000Y-101615000D01*
X96659828Y-101615000D01*
X96581149Y-101815317D01*
X80778362Y-101815317D01*
X81118748Y-101674325D01*
X81528390Y-101264683D01*
X96581149Y-101264683D01*
X96659828Y-101465000D01*
X97765000Y-101465000D01*
X97765000Y-100360031D01*
X97915000Y-100360031D01*
X97915000Y-101465000D01*
X99020172Y-101465000D01*
X99098851Y-101264683D01*
X99121149Y-101264683D01*
X99199828Y-101465000D01*
X100305000Y-101465000D01*
X100305000Y-100360031D01*
X100455000Y-100360031D01*
X100455000Y-101465000D01*
X101560172Y-101465000D01*
X101638851Y-101264683D01*
X101661149Y-101264683D01*
X101739828Y-101465000D01*
X102845000Y-101465000D01*
X102845000Y-100360031D01*
X102995000Y-100360031D01*
X102995000Y-101465000D01*
X104100172Y-101465000D01*
X104178851Y-101264683D01*
X104201149Y-101264683D01*
X104279828Y-101465000D01*
X105385000Y-101465000D01*
X105385000Y-100360031D01*
X105184684Y-100281155D01*
X104764537Y-100455180D01*
X104402333Y-100803899D01*
X104201149Y-101264683D01*
X104178851Y-101264683D01*
X103977667Y-100803899D01*
X103615463Y-100455180D01*
X103195316Y-100281155D01*
X102995000Y-100360031D01*
X102845000Y-100360031D01*
X102644684Y-100281155D01*
X102224537Y-100455180D01*
X101862333Y-100803899D01*
X101661149Y-101264683D01*
X101638851Y-101264683D01*
X101437667Y-100803899D01*
X101075463Y-100455180D01*
X100655316Y-100281155D01*
X100455000Y-100360031D01*
X100305000Y-100360031D01*
X100104684Y-100281155D01*
X99684537Y-100455180D01*
X99322333Y-100803899D01*
X99121149Y-101264683D01*
X99098851Y-101264683D01*
X98897667Y-100803899D01*
X98535463Y-100455180D01*
X98115316Y-100281155D01*
X97915000Y-100360031D01*
X97765000Y-100360031D01*
X97564684Y-100281155D01*
X97144537Y-100455180D01*
X96782333Y-100803899D01*
X96581149Y-101264683D01*
X81528390Y-101264683D01*
X81674325Y-101118748D01*
X81975000Y-100392852D01*
X81975000Y-99607148D01*
X81723512Y-99000000D01*
X96577135Y-99000000D01*
X96673265Y-99483278D01*
X96947020Y-99892980D01*
X97356722Y-100166735D01*
X97718012Y-100238600D01*
X97961988Y-100238600D01*
X98323278Y-100166735D01*
X98732980Y-99892980D01*
X99006735Y-99483278D01*
X99102865Y-99000000D01*
X99117135Y-99000000D01*
X99213265Y-99483278D01*
X99487020Y-99892980D01*
X99896722Y-100166735D01*
X100258012Y-100238600D01*
X100501988Y-100238600D01*
X100863278Y-100166735D01*
X101272980Y-99892980D01*
X101546735Y-99483278D01*
X101642865Y-99000000D01*
X101657135Y-99000000D01*
X101753265Y-99483278D01*
X102027020Y-99892980D01*
X102436722Y-100166735D01*
X102798012Y-100238600D01*
X103041988Y-100238600D01*
X103403278Y-100166735D01*
X103812980Y-99892980D01*
X104086735Y-99483278D01*
X104182865Y-99000000D01*
X104197135Y-99000000D01*
X104293265Y-99483278D01*
X104567020Y-99892980D01*
X104976722Y-100166735D01*
X105338012Y-100238600D01*
X105581988Y-100238600D01*
X105943278Y-100166735D01*
X106352980Y-99892980D01*
X106626735Y-99483278D01*
X106722865Y-99000000D01*
X106626735Y-98516722D01*
X106372612Y-98136400D01*
X106754054Y-98136400D01*
X106754054Y-99863600D01*
X106783158Y-100009917D01*
X106866041Y-100133959D01*
X106990083Y-100216842D01*
X107136400Y-100245946D01*
X108863600Y-100245946D01*
X109009917Y-100216842D01*
X109133959Y-100133959D01*
X109216842Y-100009917D01*
X109245946Y-99863600D01*
X109245946Y-98136400D01*
X109216842Y-97990083D01*
X109133959Y-97866041D01*
X109009917Y-97783158D01*
X108863600Y-97754054D01*
X107136400Y-97754054D01*
X106990083Y-97783158D01*
X106866041Y-97866041D01*
X106783158Y-97990083D01*
X106754054Y-98136400D01*
X106372612Y-98136400D01*
X106352980Y-98107020D01*
X105943278Y-97833265D01*
X105581988Y-97761400D01*
X105338012Y-97761400D01*
X104976722Y-97833265D01*
X104567020Y-98107020D01*
X104293265Y-98516722D01*
X104197135Y-99000000D01*
X104182865Y-99000000D01*
X104086735Y-98516722D01*
X103812980Y-98107020D01*
X103403278Y-97833265D01*
X103041988Y-97761400D01*
X102798012Y-97761400D01*
X102436722Y-97833265D01*
X102027020Y-98107020D01*
X101753265Y-98516722D01*
X101657135Y-99000000D01*
X101642865Y-99000000D01*
X101546735Y-98516722D01*
X101272980Y-98107020D01*
X100863278Y-97833265D01*
X100501988Y-97761400D01*
X100258012Y-97761400D01*
X99896722Y-97833265D01*
X99487020Y-98107020D01*
X99213265Y-98516722D01*
X99117135Y-99000000D01*
X99102865Y-99000000D01*
X99006735Y-98516722D01*
X98732980Y-98107020D01*
X98323278Y-97833265D01*
X97961988Y-97761400D01*
X97718012Y-97761400D01*
X97356722Y-97833265D01*
X96947020Y-98107020D01*
X96673265Y-98516722D01*
X96577135Y-99000000D01*
X81723512Y-99000000D01*
X81674325Y-98881252D01*
X81118748Y-98325675D01*
X80392852Y-98025000D01*
X79607148Y-98025000D01*
X78881252Y-98325675D01*
X78325675Y-98881252D01*
X78025000Y-99607148D01*
X75450000Y-99607148D01*
X75450000Y-82017175D01*
X76100000Y-82017175D01*
X76100000Y-82812825D01*
X76404482Y-83547909D01*
X76967091Y-84110518D01*
X77702175Y-84415000D01*
X78497825Y-84415000D01*
X79173000Y-84135333D01*
X79173000Y-84585852D01*
X79473675Y-85311748D01*
X80029252Y-85867325D01*
X80755148Y-86168000D01*
X81540852Y-86168000D01*
X82266748Y-85867325D01*
X82822325Y-85311748D01*
X83075001Y-84701733D01*
X83075001Y-88296109D01*
X83025000Y-88416822D01*
X83025000Y-89083178D01*
X83280004Y-89698811D01*
X83751189Y-90169996D01*
X84366822Y-90425000D01*
X85033178Y-90425000D01*
X85648811Y-90169996D01*
X86119996Y-89698811D01*
X86375000Y-89083178D01*
X86375000Y-88416822D01*
X86119996Y-87801189D01*
X85825000Y-87506193D01*
X85825000Y-81876386D01*
X85921971Y-82021514D01*
X86625001Y-82724544D01*
X86625000Y-89430457D01*
X85180457Y-90875000D01*
X81367428Y-90875000D01*
X81353242Y-90803683D01*
X81270359Y-90679641D01*
X81146317Y-90596758D01*
X81000000Y-90567654D01*
X78400000Y-90567654D01*
X78253683Y-90596758D01*
X78129641Y-90679641D01*
X78046758Y-90803683D01*
X78017654Y-90950000D01*
X78017654Y-93550000D01*
X78046758Y-93696317D01*
X78129641Y-93820359D01*
X78253683Y-93903242D01*
X78400000Y-93932346D01*
X81000000Y-93932346D01*
X81146317Y-93903242D01*
X81270359Y-93820359D01*
X81353242Y-93696317D01*
X81367428Y-93625000D01*
X85614583Y-93625000D01*
X85750000Y-93651936D01*
X85885417Y-93625000D01*
X85885422Y-93625000D01*
X86286498Y-93545221D01*
X86741319Y-93241319D01*
X86751224Y-93226495D01*
X99375000Y-93226495D01*
X99375000Y-93773505D01*
X99584331Y-94278875D01*
X99971125Y-94665669D01*
X100476495Y-94875000D01*
X101023505Y-94875000D01*
X101528875Y-94665669D01*
X101915669Y-94278875D01*
X102125000Y-93773505D01*
X102125000Y-93226495D01*
X101915669Y-92721125D01*
X101528875Y-92334331D01*
X101023505Y-92125000D01*
X100476495Y-92125000D01*
X99971125Y-92334331D01*
X99584331Y-92721125D01*
X99375000Y-93226495D01*
X86751224Y-93226495D01*
X86818030Y-93126513D01*
X88876515Y-91068028D01*
X88991318Y-90991319D01*
X89069041Y-90875000D01*
X89295221Y-90536498D01*
X89401937Y-90000000D01*
X89375000Y-89864578D01*
X89375000Y-86928234D01*
X101187500Y-86928234D01*
X101187500Y-87196766D01*
X101290263Y-87444857D01*
X101480143Y-87634737D01*
X101600856Y-87684738D01*
X109275001Y-95358884D01*
X109275000Y-100141116D01*
X108818718Y-100597399D01*
X108483278Y-100373265D01*
X108121988Y-100301400D01*
X107878012Y-100301400D01*
X107516722Y-100373265D01*
X107107020Y-100647020D01*
X106833265Y-101056722D01*
X106748600Y-101482362D01*
X106748600Y-101464998D01*
X106640173Y-101464998D01*
X106718851Y-101264683D01*
X106517667Y-100803899D01*
X106155463Y-100455180D01*
X105735316Y-100281155D01*
X105535000Y-100360031D01*
X105535000Y-101465000D01*
X105555000Y-101465000D01*
X105555000Y-101615000D01*
X105535000Y-101615000D01*
X105535000Y-102719969D01*
X105735316Y-102798845D01*
X106155463Y-102624820D01*
X106517667Y-102276101D01*
X106718851Y-101815317D01*
X106640173Y-101615002D01*
X106748600Y-101615002D01*
X106748600Y-101597638D01*
X106833265Y-102023278D01*
X107107020Y-102432980D01*
X107516722Y-102706735D01*
X107878012Y-102778600D01*
X108121988Y-102778600D01*
X108483278Y-102706735D01*
X108892980Y-102432980D01*
X109166735Y-102023278D01*
X109167508Y-102019393D01*
X109210600Y-101990600D01*
X109245472Y-101938410D01*
X110298416Y-100885468D01*
X110350600Y-100850600D01*
X110488737Y-100643863D01*
X110525000Y-100461555D01*
X110525000Y-100461554D01*
X110537244Y-100400001D01*
X110525000Y-100338447D01*
X110525000Y-99607148D01*
X123025000Y-99607148D01*
X123025000Y-100392852D01*
X123325675Y-101118748D01*
X123881252Y-101674325D01*
X124607148Y-101975000D01*
X125392852Y-101975000D01*
X126118748Y-101674325D01*
X126674325Y-101118748D01*
X126975000Y-100392852D01*
X126975000Y-99607148D01*
X126674325Y-98881252D01*
X126118748Y-98325675D01*
X125392852Y-98025000D01*
X124607148Y-98025000D01*
X123881252Y-98325675D01*
X123325675Y-98881252D01*
X123025000Y-99607148D01*
X110525000Y-99607148D01*
X110525000Y-99003793D01*
X117102273Y-99003793D01*
X117207812Y-99217951D01*
X117734204Y-99428397D01*
X118301060Y-99421383D01*
X118792188Y-99217951D01*
X118897727Y-99003793D01*
X118000000Y-98106066D01*
X117102273Y-99003793D01*
X110525000Y-99003793D01*
X110525000Y-97734204D01*
X116571603Y-97734204D01*
X116578617Y-98301060D01*
X116782049Y-98792188D01*
X116996207Y-98897727D01*
X117893934Y-98000000D01*
X118106066Y-98000000D01*
X119003793Y-98897727D01*
X119217951Y-98792188D01*
X119428397Y-98265796D01*
X119421383Y-97698940D01*
X119217951Y-97207812D01*
X119003793Y-97102273D01*
X118106066Y-98000000D01*
X117893934Y-98000000D01*
X116996207Y-97102273D01*
X116782049Y-97207812D01*
X116571603Y-97734204D01*
X110525000Y-97734204D01*
X110525000Y-96996207D01*
X117102273Y-96996207D01*
X118000000Y-97893934D01*
X118897727Y-96996207D01*
X118792188Y-96782049D01*
X118265796Y-96571603D01*
X117698940Y-96578617D01*
X117207812Y-96782049D01*
X117102273Y-96996207D01*
X110525000Y-96996207D01*
X110525000Y-95161554D01*
X110537244Y-95099999D01*
X110488737Y-94856137D01*
X110350600Y-94649400D01*
X110298412Y-94614529D01*
X102484738Y-86800856D01*
X102434737Y-86680143D01*
X102244857Y-86490263D01*
X101996766Y-86387500D01*
X101728234Y-86387500D01*
X101480143Y-86490263D01*
X101290263Y-86680143D01*
X101187500Y-86928234D01*
X89375000Y-86928234D01*
X89375000Y-82290418D01*
X89401936Y-82155000D01*
X89375000Y-82019582D01*
X89375000Y-82019578D01*
X89295221Y-81618502D01*
X88991319Y-81163681D01*
X88876513Y-81086970D01*
X87866514Y-80076971D01*
X87526498Y-79849780D01*
X87384676Y-79821570D01*
X87712230Y-79685893D01*
X88070893Y-79327230D01*
X88144304Y-79150000D01*
X93800759Y-79150000D01*
X93850000Y-79159795D01*
X93899241Y-79150000D01*
X93899243Y-79150000D01*
X94045090Y-79120989D01*
X94210480Y-79010480D01*
X94238376Y-78968730D01*
X95532107Y-77675000D01*
X95634266Y-77675000D01*
X95675001Y-77658127D01*
X95675001Y-85238440D01*
X95662756Y-85300000D01*
X95711263Y-85543862D01*
X95711264Y-85543863D01*
X95849401Y-85750600D01*
X95901588Y-85785470D01*
X96377763Y-86261646D01*
X96427763Y-86382357D01*
X96617643Y-86572237D01*
X96865734Y-86675000D01*
X97134266Y-86675000D01*
X97382357Y-86572237D01*
X97572237Y-86382357D01*
X97675000Y-86134266D01*
X97675000Y-85865734D01*
X97572237Y-85617643D01*
X97382357Y-85427763D01*
X97261646Y-85377763D01*
X96925000Y-85041117D01*
X96925000Y-83878234D01*
X98025000Y-83878234D01*
X98025000Y-84146766D01*
X98127763Y-84394857D01*
X98317643Y-84584737D01*
X98565734Y-84687500D01*
X98834266Y-84687500D01*
X99082357Y-84584737D01*
X99272237Y-84394857D01*
X99375000Y-84146766D01*
X99375000Y-83878234D01*
X99272237Y-83630143D01*
X99200000Y-83557906D01*
X99200000Y-77307106D01*
X100732107Y-75775000D01*
X100834266Y-75775000D01*
X101082357Y-75672237D01*
X101272237Y-75482357D01*
X101375000Y-75234266D01*
X101375000Y-74965734D01*
X101272237Y-74717643D01*
X101082357Y-74527763D01*
X100834266Y-74425000D01*
X100565734Y-74425000D01*
X100317643Y-74527763D01*
X100127763Y-74717643D01*
X100025000Y-74965734D01*
X100025000Y-75067893D01*
X98381270Y-76711623D01*
X98339520Y-76739520D01*
X98229011Y-76904911D01*
X98206861Y-77016267D01*
X98190205Y-77100000D01*
X98200000Y-77149241D01*
X98200001Y-83557905D01*
X98127763Y-83630143D01*
X98025000Y-83878234D01*
X96925000Y-83878234D01*
X96925000Y-72336387D01*
X111935000Y-72336387D01*
X111935000Y-72843613D01*
X112129107Y-73312230D01*
X112487770Y-73670893D01*
X112944316Y-73860000D01*
X112487770Y-74049107D01*
X112129107Y-74407770D01*
X111935000Y-74876387D01*
X111935000Y-75383613D01*
X112129107Y-75852230D01*
X112335000Y-76058123D01*
X112335001Y-90023817D01*
X112317858Y-90110000D01*
X112360625Y-90325000D01*
X112385769Y-90451408D01*
X112579161Y-90740840D01*
X112652221Y-90789657D01*
X113620343Y-91757780D01*
X113669160Y-91830840D01*
X113958592Y-92024232D01*
X114300000Y-92092142D01*
X114386179Y-92075000D01*
X114641408Y-92024232D01*
X114930840Y-91830840D01*
X115124232Y-91541408D01*
X115192142Y-91200000D01*
X115124232Y-90858592D01*
X115035968Y-90726495D01*
X116625000Y-90726495D01*
X116625000Y-91273505D01*
X116834331Y-91778875D01*
X117221125Y-92165669D01*
X117726495Y-92375000D01*
X118273505Y-92375000D01*
X118778875Y-92165669D01*
X119165669Y-91778875D01*
X119375000Y-91273505D01*
X119375000Y-90726495D01*
X119165669Y-90221125D01*
X118778875Y-89834331D01*
X118273505Y-89625000D01*
X117726495Y-89625000D01*
X117221125Y-89834331D01*
X116834331Y-90221125D01*
X116625000Y-90726495D01*
X115035968Y-90726495D01*
X114930840Y-90569160D01*
X114857780Y-90520343D01*
X114085000Y-89747564D01*
X114085000Y-77912175D01*
X120100000Y-77912175D01*
X120100000Y-78707825D01*
X120404482Y-79442909D01*
X120967091Y-80005518D01*
X121702175Y-80310000D01*
X122497825Y-80310000D01*
X123232909Y-80005518D01*
X123795518Y-79442909D01*
X124100000Y-78707825D01*
X124100000Y-77912175D01*
X123795518Y-77177091D01*
X123232909Y-76614482D01*
X122497825Y-76310000D01*
X121702175Y-76310000D01*
X120967091Y-76614482D01*
X120404482Y-77177091D01*
X120100000Y-77912175D01*
X114085000Y-77912175D01*
X114085000Y-77331575D01*
X114924491Y-77331575D01*
X115017827Y-77535347D01*
X115508039Y-77729114D01*
X116035087Y-77720536D01*
X116482173Y-77535347D01*
X116575509Y-77331575D01*
X115750000Y-76506066D01*
X114924491Y-77331575D01*
X114085000Y-77331575D01*
X114085000Y-76158039D01*
X114420886Y-76158039D01*
X114429464Y-76685087D01*
X114614653Y-77132173D01*
X114818425Y-77225509D01*
X115643934Y-76400000D01*
X115856066Y-76400000D01*
X116681575Y-77225509D01*
X116885347Y-77132173D01*
X117079114Y-76641961D01*
X117070536Y-76114913D01*
X116885347Y-75667827D01*
X116681575Y-75574491D01*
X115856066Y-76400000D01*
X115643934Y-76400000D01*
X114818425Y-75574491D01*
X114614653Y-75667827D01*
X114420886Y-76158039D01*
X114085000Y-76158039D01*
X114085000Y-76058123D01*
X114290893Y-75852230D01*
X114485000Y-75383613D01*
X114485000Y-74876387D01*
X114290893Y-74407770D01*
X113932230Y-74049107D01*
X113475684Y-73860000D01*
X113932230Y-73670893D01*
X113996736Y-73606387D01*
X114475000Y-73606387D01*
X114475000Y-74113613D01*
X114669107Y-74582230D01*
X115027770Y-74940893D01*
X115413612Y-75100714D01*
X115017827Y-75264653D01*
X114924491Y-75468425D01*
X115750000Y-76293934D01*
X116575509Y-75468425D01*
X116482173Y-75264653D01*
X116077127Y-75104550D01*
X116472230Y-74940893D01*
X116830893Y-74582230D01*
X117025000Y-74113613D01*
X117025000Y-73606387D01*
X116830893Y-73137770D01*
X116472230Y-72779107D01*
X116003613Y-72585000D01*
X115496387Y-72585000D01*
X115027770Y-72779107D01*
X114669107Y-73137770D01*
X114475000Y-73606387D01*
X113996736Y-73606387D01*
X114290893Y-73312230D01*
X114485000Y-72843613D01*
X114485000Y-72336387D01*
X114290893Y-71867770D01*
X113932230Y-71509107D01*
X113463613Y-71315000D01*
X112956387Y-71315000D01*
X112487770Y-71509107D01*
X112129107Y-71867770D01*
X111935000Y-72336387D01*
X96925000Y-72336387D01*
X96925000Y-70292175D01*
X120100000Y-70292175D01*
X120100000Y-71087825D01*
X120404482Y-71822909D01*
X120967091Y-72385518D01*
X121702175Y-72690000D01*
X122497825Y-72690000D01*
X123232909Y-72385518D01*
X123795518Y-71822909D01*
X124100000Y-71087825D01*
X124100000Y-70292175D01*
X123795518Y-69557091D01*
X123232909Y-68994482D01*
X122497825Y-68690000D01*
X121702175Y-68690000D01*
X120967091Y-68994482D01*
X120404482Y-69557091D01*
X120100000Y-70292175D01*
X96925000Y-70292175D01*
X96925000Y-68525000D01*
X108845024Y-68525000D01*
X108965734Y-68575000D01*
X109234266Y-68575000D01*
X109482357Y-68472237D01*
X109672237Y-68282357D01*
X109775000Y-68034266D01*
X109775000Y-67765734D01*
X109672237Y-67517643D01*
X109482357Y-67327763D01*
X109234266Y-67225000D01*
X108965734Y-67225000D01*
X108845024Y-67275000D01*
X96554976Y-67275000D01*
X96434266Y-67225000D01*
X96165734Y-67225000D01*
X95917643Y-67327763D01*
X95727763Y-67517643D01*
X95625000Y-67765734D01*
X95625000Y-68034266D01*
X95675000Y-68154976D01*
X95675000Y-72241873D01*
X95634266Y-72225000D01*
X95365734Y-72225000D01*
X95117643Y-72327763D01*
X94927763Y-72517643D01*
X94825000Y-72765734D01*
X94825000Y-72867893D01*
X93397894Y-74295000D01*
X88023123Y-74295000D01*
X88070893Y-74247230D01*
X88265000Y-73778613D01*
X88265000Y-73271387D01*
X88070893Y-72802770D01*
X87712230Y-72444107D01*
X87243613Y-72250000D01*
X86736387Y-72250000D01*
X86267770Y-72444107D01*
X85909107Y-72802770D01*
X85715000Y-73271387D01*
X85715000Y-73778613D01*
X85909107Y-74247230D01*
X85956877Y-74295000D01*
X85622943Y-74295000D01*
X85530893Y-74072770D01*
X85172230Y-73714107D01*
X84786388Y-73554286D01*
X85182173Y-73390347D01*
X85275509Y-73186575D01*
X84450000Y-72361066D01*
X83624491Y-73186575D01*
X83717827Y-73390347D01*
X84122873Y-73550450D01*
X83727770Y-73714107D01*
X83369107Y-74072770D01*
X83175000Y-74541387D01*
X83175000Y-75048613D01*
X83369107Y-75517230D01*
X83727770Y-75875893D01*
X84184316Y-76065000D01*
X83727770Y-76254107D01*
X83369107Y-76612770D01*
X83175000Y-77081387D01*
X83175000Y-77588613D01*
X83369107Y-78057230D01*
X83727770Y-78415893D01*
X84055322Y-78551569D01*
X83913502Y-78579779D01*
X83458681Y-78883682D01*
X83154779Y-79338503D01*
X83075000Y-79739579D01*
X83075000Y-83684266D01*
X82822325Y-83074252D01*
X82266748Y-82518675D01*
X81540852Y-82218000D01*
X80755148Y-82218000D01*
X80100000Y-82489370D01*
X80100000Y-82017175D01*
X79795518Y-81282091D01*
X79232909Y-80719482D01*
X78497825Y-80415000D01*
X77702175Y-80415000D01*
X76967091Y-80719482D01*
X76404482Y-81282091D01*
X76100000Y-82017175D01*
X75450000Y-82017175D01*
X75450000Y-70587175D01*
X76100000Y-70587175D01*
X76100000Y-71382825D01*
X76404482Y-72117909D01*
X76967091Y-72680518D01*
X77702175Y-72985000D01*
X78497825Y-72985000D01*
X79232909Y-72680518D01*
X79795518Y-72117909D01*
X79838956Y-72013039D01*
X83120886Y-72013039D01*
X83129464Y-72540087D01*
X83314653Y-72987173D01*
X83518425Y-73080509D01*
X84343934Y-72255000D01*
X84556066Y-72255000D01*
X85381575Y-73080509D01*
X85585347Y-72987173D01*
X85779114Y-72496961D01*
X85770536Y-71969913D01*
X85585347Y-71522827D01*
X85381575Y-71429491D01*
X84556066Y-72255000D01*
X84343934Y-72255000D01*
X83518425Y-71429491D01*
X83314653Y-71522827D01*
X83120886Y-72013039D01*
X79838956Y-72013039D01*
X80100000Y-71382825D01*
X80100000Y-71323425D01*
X83624491Y-71323425D01*
X84450000Y-72148934D01*
X85275509Y-71323425D01*
X85182173Y-71119653D01*
X84691961Y-70925886D01*
X84164913Y-70934464D01*
X83717827Y-71119653D01*
X83624491Y-71323425D01*
X80100000Y-71323425D01*
X80100000Y-70910630D01*
X80755148Y-71182000D01*
X81540852Y-71182000D01*
X82266748Y-70881325D01*
X82822325Y-70325748D01*
X83123000Y-69599852D01*
X83123000Y-68814148D01*
X82822325Y-68088252D01*
X82266748Y-67532675D01*
X81540852Y-67232000D01*
X80755148Y-67232000D01*
X80029252Y-67532675D01*
X79473675Y-68088252D01*
X79173000Y-68814148D01*
X79173000Y-69264667D01*
X78497825Y-68985000D01*
X77702175Y-68985000D01*
X76967091Y-69289482D01*
X76404482Y-69852091D01*
X76100000Y-70587175D01*
X75450000Y-70587175D01*
X75450000Y-64607148D01*
X78025000Y-64607148D01*
X78025000Y-65392852D01*
X78325675Y-66118748D01*
X78881252Y-66674325D01*
X79607148Y-66975000D01*
X80392852Y-66975000D01*
X81118748Y-66674325D01*
X81674325Y-66118748D01*
X81975000Y-65392852D01*
X81975000Y-64726495D01*
X112625000Y-64726495D01*
X112625000Y-65273505D01*
X112834331Y-65778875D01*
X113221125Y-66165669D01*
X113726495Y-66375000D01*
X114273505Y-66375000D01*
X114778875Y-66165669D01*
X115165669Y-65778875D01*
X115375000Y-65273505D01*
X115375000Y-64726495D01*
X116625000Y-64726495D01*
X116625000Y-65273505D01*
X116834331Y-65778875D01*
X117221125Y-66165669D01*
X117726495Y-66375000D01*
X118273505Y-66375000D01*
X118778875Y-66165669D01*
X119165669Y-65778875D01*
X119375000Y-65273505D01*
X119375000Y-64726495D01*
X119325565Y-64607148D01*
X123025000Y-64607148D01*
X123025000Y-65392852D01*
X123325675Y-66118748D01*
X123881252Y-66674325D01*
X124607148Y-66975000D01*
X125392852Y-66975000D01*
X126118748Y-66674325D01*
X126674325Y-66118748D01*
X126975000Y-65392852D01*
X126975000Y-64607148D01*
X126674325Y-63881252D01*
X126118748Y-63325675D01*
X125392852Y-63025000D01*
X124607148Y-63025000D01*
X123881252Y-63325675D01*
X123325675Y-63881252D01*
X123025000Y-64607148D01*
X119325565Y-64607148D01*
X119165669Y-64221125D01*
X118778875Y-63834331D01*
X118273505Y-63625000D01*
X117726495Y-63625000D01*
X117221125Y-63834331D01*
X116834331Y-64221125D01*
X116625000Y-64726495D01*
X115375000Y-64726495D01*
X115165669Y-64221125D01*
X114778875Y-63834331D01*
X114273505Y-63625000D01*
X113726495Y-63625000D01*
X113221125Y-63834331D01*
X112834331Y-64221125D01*
X112625000Y-64726495D01*
X81975000Y-64726495D01*
X81975000Y-64607148D01*
X81674325Y-63881252D01*
X81118748Y-63325675D01*
X80392852Y-63025000D01*
X79607148Y-63025000D01*
X78881252Y-63325675D01*
X78325675Y-63881252D01*
X78025000Y-64607148D01*
X75450000Y-64607148D01*
X75450000Y-60450000D01*
X129550001Y-60450000D01*
X129550000Y-104550000D01*
G04 #@! TD*
M02*
