G04 #@! TF.GenerationSoftware,KiCad,Pcbnew,(5.0.2)-1*
G04 #@! TF.CreationDate,2019-05-09T19:07:32+02:00*
G04 #@! TF.ProjectId,SystemSupply,53797374-656d-4537-9570-706c792e6b69,rev?*
G04 #@! TF.SameCoordinates,Original*
G04 #@! TF.FileFunction,Soldermask,Top*
G04 #@! TF.FilePolarity,Negative*
%FSLAX46Y46*%
G04 Gerber Fmt 4.6, Leading zero omitted, Abs format (unit mm)*
G04 Created by KiCad (PCBNEW (5.0.2)-1) date 09.05.2019 19:07:32*
%MOMM*%
%LPD*%
G01*
G04 APERTURE LIST*
%ADD10C,0.100000*%
G04 APERTURE END LIST*
D10*
G36*
X127625000Y-163725000D02*
X123975000Y-163725000D01*
X123975000Y-160075000D01*
X127625000Y-160075000D01*
X127625000Y-163725000D01*
X127625000Y-163725000D01*
G37*
G36*
X110225000Y-163725000D02*
X106575000Y-163725000D01*
X106575000Y-160075000D01*
X110225000Y-160075000D01*
X110225000Y-163725000D01*
X110225000Y-163725000D01*
G37*
G36*
X85200000Y-163400000D02*
X74200000Y-163400000D01*
X74200000Y-153800000D01*
X85200000Y-153800000D01*
X85200000Y-163400000D01*
X85200000Y-163400000D01*
G37*
G36*
X88117250Y-159404834D02*
X88159733Y-159417721D01*
X88198879Y-159438645D01*
X88233193Y-159466807D01*
X88261355Y-159501121D01*
X88282279Y-159540267D01*
X88295166Y-159582750D01*
X88300000Y-159631831D01*
X88300000Y-160353130D01*
X88301921Y-160372639D01*
X88307612Y-160391398D01*
X88316853Y-160408687D01*
X88329289Y-160423841D01*
X88344443Y-160436277D01*
X88361732Y-160445518D01*
X88380491Y-160451209D01*
X88400000Y-160453130D01*
X88419509Y-160451209D01*
X88438268Y-160445518D01*
X88455557Y-160436277D01*
X88470711Y-160423841D01*
X88483147Y-160408687D01*
X88488192Y-160400269D01*
X88491450Y-160394174D01*
X88503947Y-160378947D01*
X88519170Y-160366453D01*
X88522407Y-160364723D01*
X88536546Y-160357165D01*
X88536675Y-160357126D01*
X88549849Y-160353130D01*
X88555397Y-160351447D01*
X88560919Y-160350903D01*
X88579910Y-160349032D01*
X89570090Y-160349032D01*
X89589081Y-160350903D01*
X89594603Y-160351447D01*
X89600151Y-160353130D01*
X89613326Y-160357126D01*
X89613454Y-160357165D01*
X89627593Y-160364723D01*
X89630830Y-160366453D01*
X89646034Y-160378930D01*
X89646038Y-160378934D01*
X89646053Y-160378947D01*
X89647700Y-160380956D01*
X89661523Y-160394793D01*
X89677817Y-160405692D01*
X89695924Y-160413203D01*
X89715149Y-160417038D01*
X89734752Y-160417047D01*
X89753981Y-160413233D01*
X89772096Y-160405740D01*
X89788401Y-160394857D01*
X89802235Y-160381045D01*
X89804021Y-160378873D01*
X89811634Y-160372639D01*
X89819262Y-160366392D01*
X89836640Y-160357126D01*
X89840040Y-160356099D01*
X89855500Y-160351426D01*
X89855505Y-160351426D01*
X89855523Y-160351420D01*
X89879892Y-160349032D01*
X91020090Y-160349032D01*
X91039081Y-160350903D01*
X91044603Y-160351447D01*
X91050151Y-160353130D01*
X91063326Y-160357126D01*
X91063454Y-160357165D01*
X91077593Y-160364723D01*
X91080830Y-160366453D01*
X91086562Y-160371157D01*
X91102862Y-160382048D01*
X91120973Y-160389550D01*
X91140200Y-160393374D01*
X91159804Y-160393373D01*
X91179030Y-160389548D01*
X91197141Y-160382046D01*
X91213441Y-160371155D01*
X91227302Y-160357293D01*
X91238193Y-160340993D01*
X91245695Y-160322882D01*
X91250000Y-160293855D01*
X91250000Y-159631831D01*
X91254834Y-159582750D01*
X91267721Y-159540267D01*
X91288645Y-159501121D01*
X91316807Y-159466807D01*
X91351121Y-159438645D01*
X91390267Y-159417721D01*
X91432750Y-159404834D01*
X91481831Y-159400000D01*
X92518169Y-159400000D01*
X92567250Y-159404834D01*
X92609733Y-159417721D01*
X92648879Y-159438645D01*
X92683193Y-159466807D01*
X92711355Y-159501121D01*
X92732279Y-159540267D01*
X92745166Y-159582750D01*
X92750000Y-159631831D01*
X92750000Y-162768169D01*
X92745166Y-162817250D01*
X92732279Y-162859733D01*
X92711355Y-162898879D01*
X92683193Y-162933193D01*
X92648879Y-162961355D01*
X92609733Y-162982279D01*
X92567250Y-162995166D01*
X92518169Y-163000000D01*
X91481831Y-163000000D01*
X91432750Y-162995166D01*
X91390267Y-162982279D01*
X91351121Y-162961355D01*
X91316807Y-162933193D01*
X91288645Y-162898879D01*
X91267721Y-162859733D01*
X91254834Y-162817250D01*
X91250000Y-162768169D01*
X91250000Y-162106145D01*
X91248079Y-162086636D01*
X91242388Y-162067877D01*
X91233147Y-162050588D01*
X91220711Y-162035434D01*
X91205557Y-162022998D01*
X91188268Y-162013757D01*
X91169509Y-162008066D01*
X91150000Y-162006145D01*
X91130491Y-162008066D01*
X91111732Y-162013757D01*
X91086562Y-162028843D01*
X91080830Y-162033547D01*
X91080826Y-162033549D01*
X91063454Y-162042835D01*
X91044603Y-162048553D01*
X91039081Y-162049097D01*
X91020090Y-162050968D01*
X89879910Y-162050968D01*
X89860919Y-162049097D01*
X89855397Y-162048553D01*
X89836546Y-162042835D01*
X89819174Y-162033549D01*
X89819170Y-162033547D01*
X89803948Y-162021054D01*
X89802307Y-162019055D01*
X89788445Y-162005193D01*
X89772146Y-161994301D01*
X89754035Y-161986799D01*
X89734808Y-161982975D01*
X89715204Y-161982974D01*
X89695978Y-161986799D01*
X89677866Y-161994300D01*
X89661567Y-162005191D01*
X89647642Y-162019129D01*
X89646127Y-162020979D01*
X89630913Y-162033491D01*
X89613551Y-162042795D01*
X89594707Y-162048533D01*
X89575000Y-162050484D01*
X89574950Y-162050484D01*
X89570063Y-162050968D01*
X88579910Y-162050968D01*
X88560919Y-162049097D01*
X88555397Y-162048553D01*
X88536546Y-162042835D01*
X88519174Y-162033549D01*
X88519170Y-162033547D01*
X88503947Y-162021053D01*
X88491450Y-162005826D01*
X88488192Y-161999731D01*
X88477302Y-161983431D01*
X88463440Y-161969569D01*
X88447140Y-161958678D01*
X88429029Y-161951176D01*
X88409802Y-161947352D01*
X88390199Y-161947351D01*
X88370972Y-161951176D01*
X88352861Y-161958678D01*
X88336561Y-161969568D01*
X88322699Y-161983430D01*
X88311808Y-161999730D01*
X88304306Y-162017841D01*
X88300482Y-162037068D01*
X88300000Y-162046870D01*
X88300000Y-162768169D01*
X88295166Y-162817250D01*
X88282279Y-162859733D01*
X88261355Y-162898879D01*
X88233193Y-162933193D01*
X88198879Y-162961355D01*
X88159733Y-162982279D01*
X88117250Y-162995166D01*
X88068169Y-163000000D01*
X87031831Y-163000000D01*
X86982750Y-162995166D01*
X86940267Y-162982279D01*
X86901121Y-162961355D01*
X86866807Y-162933193D01*
X86838645Y-162898879D01*
X86817721Y-162859733D01*
X86804834Y-162817250D01*
X86800000Y-162768169D01*
X86800000Y-159631831D01*
X86804834Y-159582750D01*
X86817721Y-159540267D01*
X86838645Y-159501121D01*
X86866807Y-159466807D01*
X86901121Y-159438645D01*
X86940267Y-159417721D01*
X86982750Y-159404834D01*
X87031831Y-159400000D01*
X88068169Y-159400000D01*
X88117250Y-159404834D01*
X88117250Y-159404834D01*
G37*
G36*
X130495872Y-158365330D02*
X130495874Y-158365331D01*
X130495875Y-158365331D01*
X130556284Y-158390353D01*
X130805252Y-158493479D01*
X131083687Y-158679523D01*
X131320477Y-158916313D01*
X131506521Y-159194748D01*
X131596244Y-159411360D01*
X131633425Y-159501121D01*
X131634670Y-159504128D01*
X131700000Y-159832565D01*
X131700000Y-160167435D01*
X131639916Y-160469500D01*
X131634669Y-160495875D01*
X131609647Y-160556284D01*
X131506521Y-160805252D01*
X131320477Y-161083687D01*
X131083687Y-161320477D01*
X130805252Y-161506521D01*
X130556284Y-161609647D01*
X130495875Y-161634669D01*
X130495874Y-161634669D01*
X130495872Y-161634670D01*
X130167435Y-161700000D01*
X129832565Y-161700000D01*
X129504128Y-161634670D01*
X129504126Y-161634669D01*
X129504125Y-161634669D01*
X129443716Y-161609647D01*
X129194748Y-161506521D01*
X128916313Y-161320477D01*
X128679523Y-161083687D01*
X128493479Y-160805252D01*
X128390353Y-160556284D01*
X128365331Y-160495875D01*
X128360085Y-160469500D01*
X128300000Y-160167435D01*
X128300000Y-159832565D01*
X128365330Y-159504128D01*
X128366576Y-159501121D01*
X128403756Y-159411360D01*
X128493479Y-159194748D01*
X128679523Y-158916313D01*
X128916313Y-158679523D01*
X129194748Y-158493479D01*
X129443716Y-158390353D01*
X129504125Y-158365331D01*
X129504126Y-158365331D01*
X129504128Y-158365330D01*
X129832565Y-158300000D01*
X130167435Y-158300000D01*
X130495872Y-158365330D01*
X130495872Y-158365330D01*
G37*
G36*
X65495872Y-158365330D02*
X65495874Y-158365331D01*
X65495875Y-158365331D01*
X65556284Y-158390353D01*
X65805252Y-158493479D01*
X66083687Y-158679523D01*
X66320477Y-158916313D01*
X66506521Y-159194748D01*
X66596244Y-159411360D01*
X66633425Y-159501121D01*
X66634670Y-159504128D01*
X66700000Y-159832565D01*
X66700000Y-160167435D01*
X66639916Y-160469500D01*
X66634669Y-160495875D01*
X66609647Y-160556284D01*
X66506521Y-160805252D01*
X66320477Y-161083687D01*
X66083687Y-161320477D01*
X65805252Y-161506521D01*
X65556284Y-161609647D01*
X65495875Y-161634669D01*
X65495874Y-161634669D01*
X65495872Y-161634670D01*
X65167435Y-161700000D01*
X64832565Y-161700000D01*
X64504128Y-161634670D01*
X64504126Y-161634669D01*
X64504125Y-161634669D01*
X64443716Y-161609647D01*
X64194748Y-161506521D01*
X63916313Y-161320477D01*
X63679523Y-161083687D01*
X63493479Y-160805252D01*
X63390353Y-160556284D01*
X63365331Y-160495875D01*
X63360085Y-160469500D01*
X63300000Y-160167435D01*
X63300000Y-159832565D01*
X63365330Y-159504128D01*
X63366576Y-159501121D01*
X63403756Y-159411360D01*
X63493479Y-159194748D01*
X63679523Y-158916313D01*
X63916313Y-158679523D01*
X64194748Y-158493479D01*
X64443716Y-158390353D01*
X64504125Y-158365331D01*
X64504126Y-158365331D01*
X64504128Y-158365330D01*
X64832565Y-158300000D01*
X65167435Y-158300000D01*
X65495872Y-158365330D01*
X65495872Y-158365330D01*
G37*
G36*
X102162520Y-158634586D02*
X102162522Y-158634587D01*
X102162523Y-158634587D01*
X102271008Y-158679523D01*
X102326310Y-158702430D01*
X102473717Y-158800924D01*
X102599076Y-158926283D01*
X102697570Y-159073690D01*
X102765414Y-159237480D01*
X102797741Y-159400000D01*
X102801921Y-159421018D01*
X102807612Y-159439777D01*
X102816853Y-159457066D01*
X102829289Y-159472220D01*
X102844443Y-159484656D01*
X102861731Y-159493897D01*
X102880491Y-159499587D01*
X102884679Y-159500000D01*
X102880491Y-159500412D01*
X102861732Y-159506103D01*
X102844443Y-159515344D01*
X102829289Y-159527780D01*
X102816853Y-159542934D01*
X102807612Y-159560222D01*
X102801921Y-159578982D01*
X102800000Y-159588640D01*
X102800000Y-159588642D01*
X102765414Y-159762520D01*
X102765413Y-159762523D01*
X102736400Y-159832567D01*
X102697570Y-159926310D01*
X102599076Y-160073717D01*
X102473717Y-160199076D01*
X102331870Y-160293855D01*
X102326310Y-160297570D01*
X102162523Y-160365413D01*
X102162522Y-160365413D01*
X102162520Y-160365414D01*
X101988642Y-160400000D01*
X101811358Y-160400000D01*
X101637480Y-160365414D01*
X101637478Y-160365413D01*
X101637477Y-160365413D01*
X101473690Y-160297570D01*
X101468130Y-160293855D01*
X101326283Y-160199076D01*
X101200924Y-160073717D01*
X101102430Y-159926310D01*
X101063600Y-159832567D01*
X101034587Y-159762523D01*
X101019856Y-159688462D01*
X101000000Y-159588642D01*
X101000000Y-159411358D01*
X101034586Y-159237480D01*
X101102430Y-159073690D01*
X101200924Y-158926283D01*
X101326283Y-158800924D01*
X101473690Y-158702430D01*
X101528992Y-158679523D01*
X101637477Y-158634587D01*
X101637478Y-158634587D01*
X101637480Y-158634586D01*
X101811358Y-158600000D01*
X101988642Y-158600000D01*
X102162520Y-158634586D01*
X102162520Y-158634586D01*
G37*
G36*
X104162520Y-158634586D02*
X104162522Y-158634587D01*
X104162523Y-158634587D01*
X104271008Y-158679523D01*
X104326310Y-158702430D01*
X104473717Y-158800924D01*
X104599076Y-158926283D01*
X104697570Y-159073690D01*
X104765414Y-159237480D01*
X104800000Y-159411358D01*
X104800000Y-159588642D01*
X104780145Y-159688462D01*
X104765413Y-159762523D01*
X104736400Y-159832567D01*
X104697570Y-159926310D01*
X104599076Y-160073717D01*
X104473717Y-160199076D01*
X104331870Y-160293855D01*
X104326310Y-160297570D01*
X104162523Y-160365413D01*
X104162522Y-160365413D01*
X104162520Y-160365414D01*
X103988642Y-160400000D01*
X103811358Y-160400000D01*
X103637480Y-160365414D01*
X103637478Y-160365413D01*
X103637477Y-160365413D01*
X103473690Y-160297570D01*
X103468130Y-160293855D01*
X103326283Y-160199076D01*
X103200924Y-160073717D01*
X103102430Y-159926310D01*
X103063600Y-159832567D01*
X103034587Y-159762523D01*
X103034586Y-159762520D01*
X103000000Y-159588642D01*
X103000000Y-159588640D01*
X102998079Y-159578982D01*
X102992388Y-159560223D01*
X102983147Y-159542934D01*
X102970711Y-159527780D01*
X102955557Y-159515344D01*
X102938269Y-159506103D01*
X102919509Y-159500413D01*
X102915321Y-159500000D01*
X102919509Y-159499588D01*
X102938268Y-159493897D01*
X102955557Y-159484656D01*
X102970711Y-159472220D01*
X102983147Y-159457066D01*
X102992388Y-159439778D01*
X102998079Y-159421018D01*
X103002260Y-159400000D01*
X103034586Y-159237480D01*
X103102430Y-159073690D01*
X103200924Y-158926283D01*
X103326283Y-158800924D01*
X103473690Y-158702430D01*
X103528992Y-158679523D01*
X103637477Y-158634587D01*
X103637478Y-158634587D01*
X103637480Y-158634586D01*
X103811358Y-158600000D01*
X103988642Y-158600000D01*
X104162520Y-158634586D01*
X104162520Y-158634586D01*
G37*
G36*
X88850000Y-155550095D02*
X88831459Y-155551921D01*
X88812700Y-155557612D01*
X88795411Y-155566853D01*
X88780257Y-155579289D01*
X88767821Y-155594443D01*
X88758580Y-155611732D01*
X88752889Y-155630491D01*
X88750968Y-155650000D01*
X88750968Y-156270090D01*
X88750484Y-156275000D01*
X88748553Y-156294603D01*
X88742835Y-156313454D01*
X88742783Y-156313551D01*
X88733547Y-156330830D01*
X88721070Y-156346034D01*
X88721066Y-156346038D01*
X88721053Y-156346053D01*
X88719044Y-156347700D01*
X88705207Y-156361523D01*
X88694308Y-156377817D01*
X88686797Y-156395924D01*
X88682962Y-156415149D01*
X88682953Y-156434752D01*
X88686767Y-156453981D01*
X88694260Y-156472096D01*
X88705143Y-156488401D01*
X88718955Y-156502235D01*
X88721129Y-156504023D01*
X88733608Y-156519262D01*
X88742874Y-156536640D01*
X88742875Y-156536644D01*
X88748574Y-156555500D01*
X88748574Y-156555505D01*
X88748580Y-156555523D01*
X88750968Y-156579892D01*
X88750968Y-157450000D01*
X88752889Y-157469509D01*
X88758580Y-157488268D01*
X88767821Y-157505557D01*
X88780257Y-157520711D01*
X88795411Y-157533147D01*
X88812700Y-157542388D01*
X88831459Y-157548079D01*
X88850000Y-157549905D01*
X88850000Y-159050000D01*
X86950000Y-159050000D01*
X86950000Y-157549905D01*
X86968541Y-157548079D01*
X86987300Y-157542388D01*
X87004589Y-157533147D01*
X87019743Y-157520711D01*
X87032179Y-157505557D01*
X87041420Y-157488268D01*
X87047111Y-157469509D01*
X87049032Y-157450000D01*
X87049032Y-156579910D01*
X87051447Y-156555398D01*
X87057164Y-156536549D01*
X87057165Y-156536546D01*
X87066451Y-156519174D01*
X87066453Y-156519170D01*
X87078946Y-156503948D01*
X87080945Y-156502307D01*
X87094807Y-156488445D01*
X87105699Y-156472146D01*
X87113201Y-156454035D01*
X87117025Y-156434808D01*
X87117026Y-156415204D01*
X87113201Y-156395978D01*
X87105700Y-156377866D01*
X87094809Y-156361567D01*
X87080869Y-156347640D01*
X87079021Y-156346127D01*
X87066509Y-156330913D01*
X87057205Y-156313551D01*
X87051467Y-156294707D01*
X87049516Y-156275000D01*
X87049516Y-156274950D01*
X87049032Y-156270063D01*
X87049032Y-155650000D01*
X87047111Y-155630491D01*
X87041420Y-155611732D01*
X87032179Y-155594443D01*
X87019743Y-155579289D01*
X87004589Y-155566853D01*
X86987300Y-155557612D01*
X86968541Y-155551921D01*
X86950000Y-155550095D01*
X86950000Y-154050000D01*
X88850000Y-154050000D01*
X88850000Y-155550095D01*
X88850000Y-155550095D01*
G37*
G36*
X90703708Y-156855158D02*
X90749343Y-156869001D01*
X90791402Y-156891482D01*
X90828265Y-156921735D01*
X90858518Y-156958598D01*
X90880999Y-157000657D01*
X90894842Y-157046292D01*
X90900000Y-157098658D01*
X90900000Y-157776342D01*
X90894842Y-157828708D01*
X90880999Y-157874343D01*
X90858518Y-157916402D01*
X90828265Y-157953265D01*
X90791402Y-157983518D01*
X90749343Y-158005999D01*
X90703708Y-158019842D01*
X90651342Y-158025000D01*
X89548658Y-158025000D01*
X89496292Y-158019842D01*
X89450657Y-158005999D01*
X89408598Y-157983518D01*
X89371735Y-157953265D01*
X89341482Y-157916402D01*
X89319001Y-157874343D01*
X89305158Y-157828708D01*
X89300000Y-157776342D01*
X89300000Y-157098658D01*
X89305158Y-157046292D01*
X89319001Y-157000657D01*
X89341482Y-156958598D01*
X89371735Y-156921735D01*
X89408598Y-156891482D01*
X89450657Y-156869001D01*
X89496292Y-156855158D01*
X89548658Y-156850000D01*
X90651342Y-156850000D01*
X90703708Y-156855158D01*
X90703708Y-156855158D01*
G37*
G36*
X64114646Y-153569533D02*
X64369122Y-153646728D01*
X64603649Y-153772085D01*
X64809213Y-153940787D01*
X64977915Y-154146351D01*
X65103272Y-154380878D01*
X65180467Y-154635354D01*
X65206532Y-154900000D01*
X65180467Y-155164646D01*
X65103272Y-155419122D01*
X64977915Y-155653649D01*
X64809213Y-155859213D01*
X64603649Y-156027915D01*
X64369122Y-156153272D01*
X64114646Y-156230467D01*
X63916321Y-156250000D01*
X62283679Y-156250000D01*
X62085354Y-156230467D01*
X61830878Y-156153272D01*
X61596351Y-156027915D01*
X61390787Y-155859213D01*
X61222085Y-155653649D01*
X61096728Y-155419122D01*
X61019533Y-155164646D01*
X60993468Y-154900000D01*
X61019533Y-154635354D01*
X61096728Y-154380878D01*
X61222085Y-154146351D01*
X61390787Y-153940787D01*
X61596351Y-153772085D01*
X61830878Y-153646728D01*
X62085354Y-153569533D01*
X62283679Y-153550000D01*
X63916321Y-153550000D01*
X64114646Y-153569533D01*
X64114646Y-153569533D01*
G37*
G36*
X69100279Y-153613436D02*
X69154845Y-153618810D01*
X69399896Y-153693145D01*
X69482267Y-153737173D01*
X69625734Y-153813858D01*
X69625736Y-153813860D01*
X69823687Y-153976313D01*
X69959406Y-154141689D01*
X69986142Y-154174266D01*
X70062827Y-154317733D01*
X70106855Y-154400104D01*
X70181190Y-154645155D01*
X70181190Y-154645157D01*
X70206291Y-154900000D01*
X70188207Y-155083598D01*
X70181190Y-155154845D01*
X70106855Y-155399896D01*
X70062827Y-155482267D01*
X69986142Y-155625734D01*
X69986140Y-155625736D01*
X69823687Y-155823687D01*
X69665255Y-155953708D01*
X69625734Y-155986142D01*
X69522349Y-156041402D01*
X69399896Y-156106855D01*
X69154845Y-156181190D01*
X69100279Y-156186564D01*
X68963869Y-156200000D01*
X67236131Y-156200000D01*
X67099721Y-156186564D01*
X67045155Y-156181190D01*
X66800104Y-156106855D01*
X66677651Y-156041402D01*
X66574266Y-155986142D01*
X66534745Y-155953708D01*
X66376313Y-155823687D01*
X66213860Y-155625736D01*
X66213858Y-155625734D01*
X66137173Y-155482267D01*
X66093145Y-155399896D01*
X66018810Y-155154845D01*
X66011793Y-155083598D01*
X65993709Y-154900000D01*
X66018810Y-154645157D01*
X66018810Y-154645155D01*
X66093145Y-154400104D01*
X66137173Y-154317733D01*
X66213858Y-154174266D01*
X66240594Y-154141689D01*
X66376313Y-153976313D01*
X66574264Y-153813860D01*
X66574266Y-153813858D01*
X66717733Y-153737173D01*
X66800104Y-153693145D01*
X67045155Y-153618810D01*
X67099721Y-153613436D01*
X67236131Y-153600000D01*
X68963869Y-153600000D01*
X69100279Y-153613436D01*
X69100279Y-153613436D01*
G37*
G36*
X90703708Y-154980158D02*
X90749343Y-154994001D01*
X90791402Y-155016482D01*
X90828265Y-155046735D01*
X90858518Y-155083598D01*
X90880999Y-155125657D01*
X90894842Y-155171292D01*
X90900000Y-155223658D01*
X90900000Y-155901342D01*
X90894842Y-155953708D01*
X90880999Y-155999343D01*
X90858518Y-156041402D01*
X90828265Y-156078265D01*
X90791402Y-156108518D01*
X90749343Y-156130999D01*
X90703708Y-156144842D01*
X90651342Y-156150000D01*
X89548658Y-156150000D01*
X89496292Y-156144842D01*
X89450657Y-156130999D01*
X89408598Y-156108518D01*
X89371735Y-156078265D01*
X89341482Y-156041402D01*
X89319001Y-155999343D01*
X89305158Y-155953708D01*
X89300000Y-155901342D01*
X89300000Y-155223658D01*
X89305158Y-155171292D01*
X89319001Y-155125657D01*
X89341482Y-155083598D01*
X89371735Y-155046735D01*
X89408598Y-155016482D01*
X89450657Y-154994001D01*
X89496292Y-154980158D01*
X89548658Y-154975000D01*
X90651342Y-154975000D01*
X90703708Y-154980158D01*
X90703708Y-154980158D01*
G37*
G36*
X96950000Y-153950000D02*
X93450000Y-153950000D01*
X93450000Y-151250000D01*
X96950000Y-151250000D01*
X96950000Y-153950000D01*
X96950000Y-153950000D01*
G37*
G36*
X110060856Y-151502272D02*
X110261045Y-151585193D01*
X110441207Y-151705573D01*
X110594427Y-151858793D01*
X110714807Y-152038955D01*
X110797728Y-152239144D01*
X110840000Y-152451657D01*
X110840000Y-152668343D01*
X110797728Y-152880856D01*
X110714807Y-153081045D01*
X110594427Y-153261207D01*
X110441207Y-153414427D01*
X110261045Y-153534807D01*
X110060856Y-153617728D01*
X109848343Y-153660000D01*
X109631657Y-153660000D01*
X109419144Y-153617728D01*
X109218955Y-153534807D01*
X109038793Y-153414427D01*
X108885573Y-153261207D01*
X108765193Y-153081045D01*
X108682272Y-152880856D01*
X108640000Y-152668343D01*
X108640000Y-152451657D01*
X108682272Y-152239144D01*
X108765193Y-152038955D01*
X108885573Y-151858793D01*
X109038793Y-151705573D01*
X109218955Y-151585193D01*
X109419144Y-151502272D01*
X109631657Y-151460000D01*
X109848343Y-151460000D01*
X110060856Y-151502272D01*
X110060856Y-151502272D01*
G37*
G36*
X117680856Y-151502272D02*
X117881045Y-151585193D01*
X118061207Y-151705573D01*
X118214427Y-151858793D01*
X118334807Y-152038955D01*
X118417728Y-152239144D01*
X118460000Y-152451657D01*
X118460000Y-152668343D01*
X118417728Y-152880856D01*
X118334807Y-153081045D01*
X118214427Y-153261207D01*
X118061207Y-153414427D01*
X117881045Y-153534807D01*
X117680856Y-153617728D01*
X117468343Y-153660000D01*
X117251657Y-153660000D01*
X117039144Y-153617728D01*
X116838955Y-153534807D01*
X116658793Y-153414427D01*
X116505573Y-153261207D01*
X116385193Y-153081045D01*
X116302272Y-152880856D01*
X116260000Y-152668343D01*
X116260000Y-152451657D01*
X116302272Y-152239144D01*
X116385193Y-152038955D01*
X116505573Y-151858793D01*
X116658793Y-151705573D01*
X116838955Y-151585193D01*
X117039144Y-151502272D01*
X117251657Y-151460000D01*
X117468343Y-151460000D01*
X117680856Y-151502272D01*
X117680856Y-151502272D01*
G37*
G36*
X122760856Y-151502272D02*
X122961045Y-151585193D01*
X123141207Y-151705573D01*
X123294427Y-151858793D01*
X123414807Y-152038955D01*
X123497728Y-152239144D01*
X123540000Y-152451657D01*
X123540000Y-152668343D01*
X123497728Y-152880856D01*
X123414807Y-153081045D01*
X123294427Y-153261207D01*
X123141207Y-153414427D01*
X122961045Y-153534807D01*
X122760856Y-153617728D01*
X122548343Y-153660000D01*
X122331657Y-153660000D01*
X122119144Y-153617728D01*
X121918955Y-153534807D01*
X121738793Y-153414427D01*
X121585573Y-153261207D01*
X121465193Y-153081045D01*
X121382272Y-152880856D01*
X121340000Y-152668343D01*
X121340000Y-152451657D01*
X121382272Y-152239144D01*
X121465193Y-152038955D01*
X121585573Y-151858793D01*
X121738793Y-151705573D01*
X121918955Y-151585193D01*
X122119144Y-151502272D01*
X122331657Y-151460000D01*
X122548343Y-151460000D01*
X122760856Y-151502272D01*
X122760856Y-151502272D01*
G37*
G36*
X90656825Y-151791575D02*
X90807628Y-151837321D01*
X90946608Y-151911607D01*
X91068422Y-152011578D01*
X91168393Y-152133392D01*
X91242679Y-152272372D01*
X91288425Y-152423175D01*
X91303871Y-152580000D01*
X91288425Y-152736825D01*
X91242679Y-152887628D01*
X91168393Y-153026608D01*
X91068422Y-153148422D01*
X90946608Y-153248393D01*
X90807628Y-153322679D01*
X90656825Y-153368425D01*
X90539299Y-153380000D01*
X90460701Y-153380000D01*
X90343175Y-153368425D01*
X90192372Y-153322679D01*
X90053392Y-153248393D01*
X89931578Y-153148422D01*
X89831607Y-153026608D01*
X89757321Y-152887628D01*
X89711575Y-152736825D01*
X89696129Y-152580000D01*
X89711575Y-152423175D01*
X89757321Y-152272372D01*
X89831607Y-152133392D01*
X89931578Y-152011578D01*
X90053392Y-151911607D01*
X90192372Y-151837321D01*
X90343175Y-151791575D01*
X90460701Y-151780000D01*
X90539299Y-151780000D01*
X90656825Y-151791575D01*
X90656825Y-151791575D01*
G37*
G36*
X88578312Y-151577553D02*
X88619258Y-151589974D01*
X88656992Y-151610143D01*
X88690069Y-151637289D01*
X88717215Y-151670366D01*
X88737384Y-151708100D01*
X88749805Y-151749046D01*
X88754482Y-151796534D01*
X88754482Y-152424218D01*
X88749805Y-152471706D01*
X88737384Y-152512652D01*
X88717215Y-152550386D01*
X88690069Y-152583463D01*
X88656992Y-152610609D01*
X88619258Y-152630778D01*
X88578312Y-152643199D01*
X88530824Y-152647876D01*
X87828140Y-152647876D01*
X87780652Y-152643199D01*
X87739706Y-152630778D01*
X87701972Y-152610609D01*
X87668895Y-152583463D01*
X87641749Y-152550386D01*
X87621580Y-152512652D01*
X87609159Y-152471706D01*
X87604482Y-152424218D01*
X87604482Y-151796534D01*
X87609159Y-151749046D01*
X87621580Y-151708100D01*
X87641749Y-151670366D01*
X87668895Y-151637289D01*
X87701972Y-151610143D01*
X87739706Y-151589974D01*
X87780652Y-151577553D01*
X87828140Y-151572876D01*
X88530824Y-151572876D01*
X88578312Y-151577553D01*
X88578312Y-151577553D01*
G37*
G36*
X85153312Y-150752553D02*
X85194258Y-150764974D01*
X85231992Y-150785143D01*
X85265069Y-150812289D01*
X85292215Y-150845366D01*
X85312384Y-150883100D01*
X85324805Y-150924046D01*
X85329482Y-150971534D01*
X85329482Y-151674218D01*
X85324805Y-151721706D01*
X85312384Y-151762652D01*
X85292215Y-151800386D01*
X85265069Y-151833463D01*
X85231992Y-151860609D01*
X85194258Y-151880778D01*
X85153312Y-151893199D01*
X85105824Y-151897876D01*
X84478140Y-151897876D01*
X84430652Y-151893199D01*
X84389706Y-151880778D01*
X84351972Y-151860609D01*
X84318895Y-151833463D01*
X84291749Y-151800386D01*
X84271580Y-151762652D01*
X84259159Y-151721706D01*
X84254482Y-151674218D01*
X84254482Y-150971534D01*
X84259159Y-150924046D01*
X84271580Y-150883100D01*
X84291749Y-150845366D01*
X84318895Y-150812289D01*
X84351972Y-150785143D01*
X84389706Y-150764974D01*
X84430652Y-150752553D01*
X84478140Y-150747876D01*
X85105824Y-150747876D01*
X85153312Y-150752553D01*
X85153312Y-150752553D01*
G37*
G36*
X86728312Y-150752553D02*
X86769258Y-150764974D01*
X86806992Y-150785143D01*
X86840069Y-150812289D01*
X86867215Y-150845366D01*
X86887384Y-150883100D01*
X86899805Y-150924046D01*
X86904482Y-150971534D01*
X86904482Y-151674218D01*
X86899805Y-151721706D01*
X86887384Y-151762652D01*
X86867215Y-151800386D01*
X86840069Y-151833463D01*
X86806992Y-151860609D01*
X86769258Y-151880778D01*
X86728312Y-151893199D01*
X86680824Y-151897876D01*
X86053140Y-151897876D01*
X86005652Y-151893199D01*
X85964706Y-151880778D01*
X85926972Y-151860609D01*
X85893895Y-151833463D01*
X85866749Y-151800386D01*
X85846580Y-151762652D01*
X85834159Y-151721706D01*
X85829482Y-151674218D01*
X85829482Y-150971534D01*
X85834159Y-150924046D01*
X85846580Y-150883100D01*
X85866749Y-150845366D01*
X85893895Y-150812289D01*
X85926972Y-150785143D01*
X85964706Y-150764974D01*
X86005652Y-150752553D01*
X86053140Y-150747876D01*
X86680824Y-150747876D01*
X86728312Y-150752553D01*
X86728312Y-150752553D01*
G37*
G36*
X82890000Y-151850000D02*
X81590000Y-151850000D01*
X81590000Y-147050000D01*
X82890000Y-147050000D01*
X82890000Y-151850000D01*
X82890000Y-151850000D01*
G37*
G36*
X77810000Y-151850000D02*
X76510000Y-151850000D01*
X76510000Y-147050000D01*
X77810000Y-147050000D01*
X77810000Y-151850000D01*
X77810000Y-151850000D01*
G37*
G36*
X73220856Y-149342272D02*
X73421045Y-149425193D01*
X73601207Y-149545573D01*
X73754427Y-149698793D01*
X73874807Y-149878955D01*
X73957728Y-150079144D01*
X74000000Y-150291657D01*
X74000000Y-150508343D01*
X73957728Y-150720856D01*
X73874807Y-150921045D01*
X73754427Y-151101207D01*
X73601207Y-151254427D01*
X73421045Y-151374807D01*
X73220856Y-151457728D01*
X73008343Y-151500000D01*
X72791657Y-151500000D01*
X72579144Y-151457728D01*
X72378955Y-151374807D01*
X72198793Y-151254427D01*
X72045573Y-151101207D01*
X71925193Y-150921045D01*
X71842272Y-150720856D01*
X71800000Y-150508343D01*
X71800000Y-150291657D01*
X71842272Y-150079144D01*
X71925193Y-149878955D01*
X72045573Y-149698793D01*
X72198793Y-149545573D01*
X72378955Y-149425193D01*
X72579144Y-149342272D01*
X72791657Y-149300000D01*
X73008343Y-149300000D01*
X73220856Y-149342272D01*
X73220856Y-149342272D01*
G37*
G36*
X88578312Y-150002553D02*
X88619258Y-150014974D01*
X88656992Y-150035143D01*
X88690069Y-150062289D01*
X88717215Y-150095366D01*
X88737384Y-150133100D01*
X88749805Y-150174046D01*
X88754482Y-150221534D01*
X88754482Y-150849218D01*
X88749805Y-150896706D01*
X88737384Y-150937652D01*
X88717215Y-150975386D01*
X88690069Y-151008463D01*
X88656992Y-151035609D01*
X88619258Y-151055778D01*
X88578312Y-151068199D01*
X88530824Y-151072876D01*
X87828140Y-151072876D01*
X87780652Y-151068199D01*
X87739706Y-151055778D01*
X87701972Y-151035609D01*
X87668895Y-151008463D01*
X87641749Y-150975386D01*
X87621580Y-150937652D01*
X87609159Y-150896706D01*
X87604482Y-150849218D01*
X87604482Y-150221534D01*
X87609159Y-150174046D01*
X87621580Y-150133100D01*
X87641749Y-150095366D01*
X87668895Y-150062289D01*
X87701972Y-150035143D01*
X87739706Y-150014974D01*
X87780652Y-150002553D01*
X87828140Y-149997876D01*
X88530824Y-149997876D01*
X88578312Y-150002553D01*
X88578312Y-150002553D01*
G37*
G36*
X87309482Y-150097876D02*
X86049482Y-150097876D01*
X86049482Y-147347876D01*
X87309482Y-147347876D01*
X87309482Y-150097876D01*
X87309482Y-150097876D01*
G37*
G36*
X85109482Y-150097876D02*
X83849482Y-150097876D01*
X83849482Y-147347876D01*
X85109482Y-147347876D01*
X85109482Y-150097876D01*
X85109482Y-150097876D01*
G37*
G36*
X88598830Y-148654677D02*
X88639776Y-148667098D01*
X88677510Y-148687267D01*
X88710587Y-148714413D01*
X88737733Y-148747490D01*
X88757902Y-148785224D01*
X88770323Y-148826170D01*
X88775000Y-148873658D01*
X88775000Y-149501342D01*
X88770323Y-149548830D01*
X88757902Y-149589776D01*
X88737733Y-149627510D01*
X88710587Y-149660587D01*
X88677510Y-149687733D01*
X88639776Y-149707902D01*
X88598830Y-149720323D01*
X88551342Y-149725000D01*
X87848658Y-149725000D01*
X87801170Y-149720323D01*
X87760224Y-149707902D01*
X87722490Y-149687733D01*
X87689413Y-149660587D01*
X87662267Y-149627510D01*
X87642098Y-149589776D01*
X87629677Y-149548830D01*
X87625000Y-149501342D01*
X87625000Y-148873658D01*
X87629677Y-148826170D01*
X87642098Y-148785224D01*
X87662267Y-148747490D01*
X87689413Y-148714413D01*
X87722490Y-148687267D01*
X87760224Y-148667098D01*
X87801170Y-148654677D01*
X87848658Y-148650000D01*
X88551342Y-148650000D01*
X88598830Y-148654677D01*
X88598830Y-148654677D01*
G37*
G36*
X64114646Y-146569533D02*
X64369122Y-146646728D01*
X64603649Y-146772085D01*
X64809213Y-146940787D01*
X64977915Y-147146351D01*
X65103272Y-147380878D01*
X65180467Y-147635354D01*
X65206532Y-147900000D01*
X65180467Y-148164646D01*
X65103272Y-148419122D01*
X64977915Y-148653649D01*
X64809213Y-148859213D01*
X64603649Y-149027915D01*
X64369122Y-149153272D01*
X64114646Y-149230467D01*
X63916321Y-149250000D01*
X62283679Y-149250000D01*
X62085354Y-149230467D01*
X61830878Y-149153272D01*
X61596351Y-149027915D01*
X61390787Y-148859213D01*
X61222085Y-148653649D01*
X61096728Y-148419122D01*
X61019533Y-148164646D01*
X60993468Y-147900000D01*
X61019533Y-147635354D01*
X61096728Y-147380878D01*
X61222085Y-147146351D01*
X61390787Y-146940787D01*
X61596351Y-146772085D01*
X61830878Y-146646728D01*
X62085354Y-146569533D01*
X62283679Y-146550000D01*
X63916321Y-146550000D01*
X64114646Y-146569533D01*
X64114646Y-146569533D01*
G37*
G36*
X69100279Y-146613436D02*
X69154845Y-146618810D01*
X69399896Y-146693145D01*
X69470236Y-146730743D01*
X69625734Y-146813858D01*
X69625736Y-146813860D01*
X69823687Y-146976313D01*
X69941847Y-147120293D01*
X69986142Y-147174266D01*
X70048708Y-147291319D01*
X70106855Y-147400104D01*
X70181190Y-147645155D01*
X70181190Y-147645157D01*
X70206291Y-147900000D01*
X70195459Y-148009970D01*
X70181190Y-148154845D01*
X70106855Y-148399896D01*
X70062827Y-148482267D01*
X69986142Y-148625734D01*
X69986140Y-148625736D01*
X69823687Y-148823687D01*
X69658311Y-148959406D01*
X69625734Y-148986142D01*
X69482267Y-149062827D01*
X69399896Y-149106855D01*
X69154845Y-149181190D01*
X69100279Y-149186564D01*
X68963869Y-149200000D01*
X67236131Y-149200000D01*
X67099721Y-149186564D01*
X67045155Y-149181190D01*
X66800104Y-149106855D01*
X66717733Y-149062827D01*
X66574266Y-148986142D01*
X66541689Y-148959406D01*
X66376313Y-148823687D01*
X66213860Y-148625736D01*
X66213858Y-148625734D01*
X66137173Y-148482267D01*
X66093145Y-148399896D01*
X66018810Y-148154845D01*
X66004541Y-148009970D01*
X65993709Y-147900000D01*
X66018810Y-147645157D01*
X66018810Y-147645155D01*
X66093145Y-147400104D01*
X66151292Y-147291319D01*
X66213858Y-147174266D01*
X66258153Y-147120293D01*
X66376313Y-146976313D01*
X66574264Y-146813860D01*
X66574266Y-146813858D01*
X66729764Y-146730743D01*
X66800104Y-146693145D01*
X67045155Y-146618810D01*
X67099721Y-146613436D01*
X67236131Y-146600000D01*
X68963869Y-146600000D01*
X69100279Y-146613436D01*
X69100279Y-146613436D01*
G37*
G36*
X90733351Y-146730743D02*
X90733353Y-146730744D01*
X90733354Y-146730744D01*
X90878942Y-146791049D01*
X91009969Y-146878598D01*
X91121402Y-146990031D01*
X91208951Y-147121058D01*
X91262846Y-147251170D01*
X91269257Y-147266649D01*
X91300000Y-147421207D01*
X91300000Y-147578793D01*
X91286800Y-147645157D01*
X91269256Y-147733354D01*
X91208951Y-147878942D01*
X91121402Y-148009969D01*
X91009969Y-148121402D01*
X90878942Y-148208951D01*
X90733354Y-148269256D01*
X90733353Y-148269256D01*
X90733351Y-148269257D01*
X90578793Y-148300000D01*
X90421207Y-148300000D01*
X90266649Y-148269257D01*
X90266647Y-148269256D01*
X90266646Y-148269256D01*
X90121058Y-148208951D01*
X89990031Y-148121402D01*
X89878598Y-148009969D01*
X89791049Y-147878942D01*
X89730744Y-147733354D01*
X89713201Y-147645157D01*
X89700000Y-147578793D01*
X89700000Y-147421207D01*
X89730743Y-147266649D01*
X89737155Y-147251170D01*
X89791049Y-147121058D01*
X89878598Y-146990031D01*
X89990031Y-146878598D01*
X90121058Y-146791049D01*
X90266646Y-146730744D01*
X90266647Y-146730744D01*
X90266649Y-146730743D01*
X90421207Y-146700000D01*
X90578793Y-146700000D01*
X90733351Y-146730743D01*
X90733351Y-146730743D01*
G37*
G36*
X88598830Y-147079677D02*
X88639776Y-147092098D01*
X88677510Y-147112267D01*
X88710587Y-147139413D01*
X88737733Y-147172490D01*
X88757902Y-147210224D01*
X88770323Y-147251170D01*
X88775000Y-147298658D01*
X88775000Y-147926342D01*
X88770323Y-147973830D01*
X88757902Y-148014776D01*
X88737733Y-148052510D01*
X88710587Y-148085587D01*
X88677510Y-148112733D01*
X88639776Y-148132902D01*
X88598830Y-148145323D01*
X88551342Y-148150000D01*
X87848658Y-148150000D01*
X87801170Y-148145323D01*
X87760224Y-148132902D01*
X87722490Y-148112733D01*
X87689413Y-148085587D01*
X87662267Y-148052510D01*
X87642098Y-148014776D01*
X87629677Y-147973830D01*
X87625000Y-147926342D01*
X87625000Y-147298658D01*
X87629677Y-147251170D01*
X87642098Y-147210224D01*
X87662267Y-147172490D01*
X87689413Y-147139413D01*
X87722490Y-147112267D01*
X87760224Y-147092098D01*
X87801170Y-147079677D01*
X87848658Y-147075000D01*
X88551342Y-147075000D01*
X88598830Y-147079677D01*
X88598830Y-147079677D01*
G37*
G36*
X96950000Y-147150000D02*
X93450000Y-147150000D01*
X93450000Y-144450000D01*
X96950000Y-144450000D01*
X96950000Y-147150000D01*
X96950000Y-147150000D01*
G37*
G36*
X102589081Y-145050903D02*
X102594603Y-145051447D01*
X102609137Y-145055856D01*
X102613326Y-145057126D01*
X102613454Y-145057165D01*
X102627593Y-145064723D01*
X102630830Y-145066453D01*
X102646034Y-145078930D01*
X102646038Y-145078934D01*
X102646053Y-145078947D01*
X102647700Y-145080956D01*
X102661523Y-145094793D01*
X102677817Y-145105692D01*
X102695924Y-145113203D01*
X102715149Y-145117038D01*
X102734752Y-145117047D01*
X102753981Y-145113233D01*
X102772096Y-145105740D01*
X102788401Y-145094857D01*
X102802235Y-145081045D01*
X102804021Y-145078873D01*
X102819262Y-145066392D01*
X102836640Y-145057126D01*
X102840040Y-145056099D01*
X102855500Y-145051426D01*
X102855505Y-145051426D01*
X102855523Y-145051420D01*
X102879892Y-145049032D01*
X104020090Y-145049032D01*
X104039081Y-145050903D01*
X104044603Y-145051447D01*
X104059137Y-145055856D01*
X104063326Y-145057126D01*
X104063454Y-145057165D01*
X104077593Y-145064723D01*
X104080830Y-145066453D01*
X104096053Y-145078947D01*
X104108547Y-145094170D01*
X104108549Y-145094174D01*
X104117835Y-145111546D01*
X104117836Y-145111549D01*
X104123553Y-145130398D01*
X104125968Y-145154910D01*
X104125968Y-146645090D01*
X104125484Y-146650000D01*
X104123553Y-146669603D01*
X104117835Y-146688454D01*
X104111663Y-146700000D01*
X104108547Y-146705830D01*
X104096053Y-146721053D01*
X104080830Y-146733547D01*
X104080826Y-146733549D01*
X104063454Y-146742835D01*
X104044603Y-146748553D01*
X104039081Y-146749097D01*
X104020090Y-146750968D01*
X102879910Y-146750968D01*
X102860919Y-146749097D01*
X102855397Y-146748553D01*
X102836546Y-146742835D01*
X102819174Y-146733549D01*
X102819170Y-146733547D01*
X102803948Y-146721054D01*
X102802307Y-146719055D01*
X102788445Y-146705193D01*
X102772146Y-146694301D01*
X102754035Y-146686799D01*
X102734808Y-146682975D01*
X102715204Y-146682974D01*
X102695978Y-146686799D01*
X102677866Y-146694300D01*
X102661567Y-146705191D01*
X102647642Y-146719129D01*
X102646127Y-146720979D01*
X102630913Y-146733491D01*
X102613551Y-146742795D01*
X102594707Y-146748533D01*
X102575000Y-146750484D01*
X102574950Y-146750484D01*
X102570063Y-146750968D01*
X101579910Y-146750968D01*
X101560919Y-146749097D01*
X101555397Y-146748553D01*
X101536546Y-146742835D01*
X101519174Y-146733549D01*
X101519170Y-146733547D01*
X101503947Y-146721053D01*
X101491453Y-146705830D01*
X101488337Y-146700000D01*
X101482165Y-146688454D01*
X101476447Y-146669603D01*
X101474516Y-146650000D01*
X101474032Y-146645090D01*
X101474032Y-145154910D01*
X101476447Y-145130398D01*
X101482164Y-145111549D01*
X101482165Y-145111546D01*
X101491451Y-145094174D01*
X101491453Y-145094170D01*
X101503947Y-145078947D01*
X101519170Y-145066453D01*
X101522407Y-145064723D01*
X101536546Y-145057165D01*
X101536675Y-145057126D01*
X101540863Y-145055856D01*
X101555397Y-145051447D01*
X101560919Y-145050903D01*
X101579910Y-145049032D01*
X102570090Y-145049032D01*
X102589081Y-145050903D01*
X102589081Y-145050903D01*
G37*
G36*
X87026695Y-139333818D02*
X87281719Y-139384545D01*
X87682091Y-139550385D01*
X88042417Y-139791147D01*
X88348853Y-140097583D01*
X88589615Y-140457909D01*
X88755455Y-140858281D01*
X88840000Y-141283321D01*
X88840000Y-141716679D01*
X88755455Y-142141719D01*
X88589615Y-142542091D01*
X88348853Y-142902417D01*
X88042417Y-143208853D01*
X87682091Y-143449615D01*
X87281719Y-143615455D01*
X87026695Y-143666182D01*
X86856681Y-143700000D01*
X86423319Y-143700000D01*
X86253305Y-143666182D01*
X85998281Y-143615455D01*
X85597909Y-143449615D01*
X85237583Y-143208853D01*
X84931147Y-142902417D01*
X84690385Y-142542091D01*
X84524545Y-142141719D01*
X84440000Y-141716679D01*
X84440000Y-141283321D01*
X84524545Y-140858281D01*
X84690385Y-140457909D01*
X84931147Y-140097583D01*
X85237583Y-139791147D01*
X85597909Y-139550385D01*
X85998281Y-139384545D01*
X86253305Y-139333818D01*
X86423319Y-139300000D01*
X86856681Y-139300000D01*
X87026695Y-139333818D01*
X87026695Y-139333818D01*
G37*
G36*
X64114646Y-136569533D02*
X64369122Y-136646728D01*
X64603649Y-136772085D01*
X64809213Y-136940787D01*
X64977915Y-137146351D01*
X65103272Y-137380878D01*
X65180467Y-137635354D01*
X65206532Y-137900000D01*
X65180467Y-138164646D01*
X65103272Y-138419122D01*
X64977915Y-138653649D01*
X64809213Y-138859213D01*
X64603649Y-139027915D01*
X64369122Y-139153272D01*
X64114646Y-139230467D01*
X63916321Y-139250000D01*
X62283679Y-139250000D01*
X62085354Y-139230467D01*
X61830878Y-139153272D01*
X61596351Y-139027915D01*
X61390787Y-138859213D01*
X61222085Y-138653649D01*
X61096728Y-138419122D01*
X61019533Y-138164646D01*
X60993468Y-137900000D01*
X61019533Y-137635354D01*
X61096728Y-137380878D01*
X61222085Y-137146351D01*
X61390787Y-136940787D01*
X61596351Y-136772085D01*
X61830878Y-136646728D01*
X62085354Y-136569533D01*
X62283679Y-136550000D01*
X63916321Y-136550000D01*
X64114646Y-136569533D01*
X64114646Y-136569533D01*
G37*
G36*
X69100279Y-136613436D02*
X69154845Y-136618810D01*
X69399896Y-136693145D01*
X69482267Y-136737173D01*
X69625734Y-136813858D01*
X69625736Y-136813860D01*
X69823687Y-136976313D01*
X69951116Y-137131587D01*
X69986142Y-137174266D01*
X70062827Y-137317733D01*
X70106855Y-137400104D01*
X70181190Y-137645155D01*
X70181190Y-137645157D01*
X70206291Y-137900000D01*
X70185321Y-138112905D01*
X70181190Y-138154845D01*
X70106855Y-138399896D01*
X70072080Y-138464954D01*
X69986142Y-138625734D01*
X69980916Y-138632102D01*
X69823687Y-138823687D01*
X69658311Y-138959406D01*
X69625734Y-138986142D01*
X69482267Y-139062827D01*
X69399896Y-139106855D01*
X69154845Y-139181190D01*
X69100279Y-139186564D01*
X68963869Y-139200000D01*
X67236131Y-139200000D01*
X67099721Y-139186564D01*
X67045155Y-139181190D01*
X66800104Y-139106855D01*
X66717733Y-139062827D01*
X66574266Y-138986142D01*
X66541689Y-138959406D01*
X66376313Y-138823687D01*
X66219084Y-138632102D01*
X66213858Y-138625734D01*
X66127920Y-138464954D01*
X66093145Y-138399896D01*
X66018810Y-138154845D01*
X66014679Y-138112905D01*
X65993709Y-137900000D01*
X66018810Y-137645157D01*
X66018810Y-137645155D01*
X66093145Y-137400104D01*
X66137173Y-137317733D01*
X66213858Y-137174266D01*
X66248884Y-137131587D01*
X66376313Y-136976313D01*
X66574264Y-136813860D01*
X66574266Y-136813858D01*
X66717733Y-136737173D01*
X66800104Y-136693145D01*
X67045155Y-136618810D01*
X67099721Y-136613436D01*
X67236131Y-136600000D01*
X68963869Y-136600000D01*
X69100279Y-136613436D01*
X69100279Y-136613436D01*
G37*
G36*
X99710925Y-136518446D02*
X99850030Y-136546116D01*
X100068413Y-136636574D01*
X100264954Y-136767898D01*
X100432102Y-136935046D01*
X100563426Y-137131587D01*
X100653884Y-137349970D01*
X100700000Y-137581812D01*
X100700000Y-137818188D01*
X100653884Y-138050030D01*
X100563426Y-138268413D01*
X100432102Y-138464954D01*
X100264954Y-138632102D01*
X100068413Y-138763426D01*
X99850030Y-138853884D01*
X99710925Y-138881554D01*
X99618190Y-138900000D01*
X99381810Y-138900000D01*
X99289075Y-138881554D01*
X99149970Y-138853884D01*
X98931587Y-138763426D01*
X98735046Y-138632102D01*
X98567898Y-138464954D01*
X98436574Y-138268413D01*
X98346116Y-138050030D01*
X98300000Y-137818188D01*
X98300000Y-137581812D01*
X98346116Y-137349970D01*
X98436574Y-137131587D01*
X98567898Y-136935046D01*
X98735046Y-136767898D01*
X98931587Y-136636574D01*
X99149970Y-136546116D01*
X99289075Y-136518446D01*
X99381810Y-136500000D01*
X99618190Y-136500000D01*
X99710925Y-136518446D01*
X99710925Y-136518446D01*
G37*
G36*
X110060856Y-131182272D02*
X110261045Y-131265193D01*
X110441207Y-131385573D01*
X110594427Y-131538793D01*
X110714807Y-131718955D01*
X110797728Y-131919144D01*
X110840000Y-132131657D01*
X110840000Y-132348343D01*
X110797728Y-132560856D01*
X110714807Y-132761045D01*
X110594427Y-132941207D01*
X110441207Y-133094427D01*
X110261045Y-133214807D01*
X110060856Y-133297728D01*
X109848343Y-133340000D01*
X109631657Y-133340000D01*
X109419144Y-133297728D01*
X109218955Y-133214807D01*
X109038793Y-133094427D01*
X108885573Y-132941207D01*
X108765193Y-132761045D01*
X108682272Y-132560856D01*
X108640000Y-132348343D01*
X108640000Y-132131657D01*
X108682272Y-131919144D01*
X108765193Y-131718955D01*
X108885573Y-131538793D01*
X109038793Y-131385573D01*
X109218955Y-131265193D01*
X109419144Y-131182272D01*
X109631657Y-131140000D01*
X109848343Y-131140000D01*
X110060856Y-131182272D01*
X110060856Y-131182272D01*
G37*
G36*
X120220856Y-131182272D02*
X120421045Y-131265193D01*
X120601207Y-131385573D01*
X120754427Y-131538793D01*
X120874807Y-131718955D01*
X120957728Y-131919144D01*
X121000000Y-132131657D01*
X121000000Y-132348343D01*
X120957728Y-132560856D01*
X120874807Y-132761045D01*
X120754427Y-132941207D01*
X120601207Y-133094427D01*
X120421045Y-133214807D01*
X120220856Y-133297728D01*
X120008343Y-133340000D01*
X119791657Y-133340000D01*
X119579144Y-133297728D01*
X119378955Y-133214807D01*
X119198793Y-133094427D01*
X119045573Y-132941207D01*
X118925193Y-132761045D01*
X118842272Y-132560856D01*
X118800000Y-132348343D01*
X118800000Y-132131657D01*
X118842272Y-131919144D01*
X118925193Y-131718955D01*
X119045573Y-131538793D01*
X119198793Y-131385573D01*
X119378955Y-131265193D01*
X119579144Y-131182272D01*
X119791657Y-131140000D01*
X120008343Y-131140000D01*
X120220856Y-131182272D01*
X120220856Y-131182272D01*
G37*
G36*
X130380856Y-131182272D02*
X130581045Y-131265193D01*
X130761207Y-131385573D01*
X130914427Y-131538793D01*
X131034807Y-131718955D01*
X131117728Y-131919144D01*
X131160000Y-132131657D01*
X131160000Y-132348343D01*
X131117728Y-132560856D01*
X131034807Y-132761045D01*
X130914427Y-132941207D01*
X130761207Y-133094427D01*
X130581045Y-133214807D01*
X130380856Y-133297728D01*
X130168343Y-133340000D01*
X129951657Y-133340000D01*
X129739144Y-133297728D01*
X129538955Y-133214807D01*
X129358793Y-133094427D01*
X129205573Y-132941207D01*
X129085193Y-132761045D01*
X129002272Y-132560856D01*
X128960000Y-132348343D01*
X128960000Y-132131657D01*
X129002272Y-131919144D01*
X129085193Y-131718955D01*
X129205573Y-131538793D01*
X129358793Y-131385573D01*
X129538955Y-131265193D01*
X129739144Y-131182272D01*
X129951657Y-131140000D01*
X130168343Y-131140000D01*
X130380856Y-131182272D01*
X130380856Y-131182272D01*
G37*
G36*
X64114646Y-129569533D02*
X64369122Y-129646728D01*
X64603649Y-129772085D01*
X64809213Y-129940787D01*
X64977915Y-130146351D01*
X65103272Y-130380878D01*
X65180467Y-130635354D01*
X65206532Y-130900000D01*
X65180467Y-131164646D01*
X65103272Y-131419122D01*
X64977915Y-131653649D01*
X64809213Y-131859213D01*
X64603649Y-132027915D01*
X64369122Y-132153272D01*
X64114646Y-132230467D01*
X63916321Y-132250000D01*
X62283679Y-132250000D01*
X62085354Y-132230467D01*
X61830878Y-132153272D01*
X61596351Y-132027915D01*
X61390787Y-131859213D01*
X61222085Y-131653649D01*
X61096728Y-131419122D01*
X61019533Y-131164646D01*
X60993468Y-130900000D01*
X61019533Y-130635354D01*
X61096728Y-130380878D01*
X61222085Y-130146351D01*
X61390787Y-129940787D01*
X61596351Y-129772085D01*
X61830878Y-129646728D01*
X62085354Y-129569533D01*
X62283679Y-129550000D01*
X63916321Y-129550000D01*
X64114646Y-129569533D01*
X64114646Y-129569533D01*
G37*
G36*
X69100279Y-129613436D02*
X69154845Y-129618810D01*
X69399896Y-129693145D01*
X69482267Y-129737173D01*
X69625734Y-129813858D01*
X69625736Y-129813860D01*
X69823687Y-129976313D01*
X69959406Y-130141689D01*
X69986142Y-130174266D01*
X70062827Y-130317733D01*
X70106855Y-130400104D01*
X70181190Y-130645155D01*
X70181190Y-130645157D01*
X70206291Y-130900000D01*
X70185321Y-131112905D01*
X70181190Y-131154845D01*
X70106855Y-131399896D01*
X70062827Y-131482267D01*
X69986142Y-131625734D01*
X69986140Y-131625736D01*
X69823687Y-131823687D01*
X69707371Y-131919144D01*
X69625734Y-131986142D01*
X69482267Y-132062827D01*
X69399896Y-132106855D01*
X69154845Y-132181190D01*
X69100279Y-132186564D01*
X68963869Y-132200000D01*
X67236131Y-132200000D01*
X67099721Y-132186564D01*
X67045155Y-132181190D01*
X66800104Y-132106855D01*
X66717733Y-132062827D01*
X66574266Y-131986142D01*
X66492629Y-131919144D01*
X66376313Y-131823687D01*
X66213860Y-131625736D01*
X66213858Y-131625734D01*
X66137173Y-131482267D01*
X66093145Y-131399896D01*
X66018810Y-131154845D01*
X66014679Y-131112905D01*
X65993709Y-130900000D01*
X66018810Y-130645157D01*
X66018810Y-130645155D01*
X66093145Y-130400104D01*
X66137173Y-130317733D01*
X66213858Y-130174266D01*
X66240594Y-130141689D01*
X66376313Y-129976313D01*
X66574264Y-129813860D01*
X66574266Y-129813858D01*
X66717733Y-129737173D01*
X66800104Y-129693145D01*
X67045155Y-129618810D01*
X67099721Y-129613436D01*
X67236131Y-129600000D01*
X68963869Y-129600000D01*
X69100279Y-129613436D01*
X69100279Y-129613436D01*
G37*
G36*
X99710925Y-126318446D02*
X99850030Y-126346116D01*
X100068413Y-126436574D01*
X100264954Y-126567898D01*
X100432102Y-126735046D01*
X100563426Y-126931587D01*
X100653884Y-127149970D01*
X100669377Y-127227860D01*
X100699771Y-127380658D01*
X100700000Y-127381812D01*
X100700000Y-127618188D01*
X100653884Y-127850030D01*
X100563426Y-128068413D01*
X100432102Y-128264954D01*
X100264954Y-128432102D01*
X100068413Y-128563426D01*
X99850030Y-128653884D01*
X99730866Y-128677587D01*
X99618190Y-128700000D01*
X99381810Y-128700000D01*
X99269134Y-128677587D01*
X99149970Y-128653884D01*
X98931587Y-128563426D01*
X98735046Y-128432102D01*
X98567898Y-128264954D01*
X98436574Y-128068413D01*
X98346116Y-127850030D01*
X98300000Y-127618188D01*
X98300000Y-127381812D01*
X98300230Y-127380658D01*
X98330623Y-127227860D01*
X98346116Y-127149970D01*
X98436574Y-126931587D01*
X98567898Y-126735046D01*
X98735046Y-126567898D01*
X98931587Y-126436574D01*
X99149970Y-126346116D01*
X99289075Y-126318446D01*
X99381810Y-126300000D01*
X99618190Y-126300000D01*
X99710925Y-126318446D01*
X99710925Y-126318446D01*
G37*
G36*
X132607621Y-123105064D02*
X132652345Y-123118631D01*
X132693563Y-123140663D01*
X132729689Y-123170311D01*
X132759337Y-123206437D01*
X132781369Y-123247655D01*
X132794936Y-123292379D01*
X132800000Y-123343796D01*
X132800000Y-124181204D01*
X132794936Y-124232621D01*
X132781369Y-124277345D01*
X132759337Y-124318563D01*
X132729689Y-124354689D01*
X132693563Y-124384337D01*
X132652345Y-124406369D01*
X132607621Y-124419936D01*
X132556204Y-124425000D01*
X131882487Y-124425000D01*
X131862978Y-124426921D01*
X131844219Y-124432612D01*
X131826930Y-124441853D01*
X131811776Y-124454289D01*
X131799340Y-124469443D01*
X131790099Y-124486732D01*
X131784408Y-124505491D01*
X131782487Y-124525000D01*
X131784408Y-124544509D01*
X131790099Y-124563268D01*
X131799340Y-124580557D01*
X131811776Y-124595711D01*
X131819048Y-124602301D01*
X131821054Y-124603947D01*
X131833547Y-124619170D01*
X131833549Y-124619174D01*
X131842835Y-124636546D01*
X131842836Y-124636549D01*
X131848553Y-124655398D01*
X131850968Y-124679910D01*
X131850968Y-125820090D01*
X131850484Y-125825000D01*
X131848553Y-125844603D01*
X131842835Y-125863454D01*
X131835277Y-125877593D01*
X131833547Y-125880830D01*
X131821054Y-125896052D01*
X131819055Y-125897693D01*
X131805193Y-125911555D01*
X131794301Y-125927854D01*
X131786799Y-125945965D01*
X131782975Y-125965192D01*
X131782974Y-125984796D01*
X131786799Y-126004022D01*
X131794300Y-126022134D01*
X131805191Y-126038433D01*
X131819129Y-126052358D01*
X131820979Y-126053873D01*
X131833491Y-126069087D01*
X131842795Y-126086449D01*
X131848533Y-126105293D01*
X131850484Y-126125000D01*
X131850484Y-126125050D01*
X131850968Y-126129937D01*
X131850968Y-127120090D01*
X131850484Y-127125000D01*
X131848553Y-127144603D01*
X131842835Y-127163454D01*
X131835277Y-127177593D01*
X131833547Y-127180830D01*
X131821054Y-127196053D01*
X131819048Y-127197699D01*
X131805186Y-127211560D01*
X131794295Y-127227860D01*
X131786793Y-127245971D01*
X131782969Y-127265198D01*
X131782968Y-127284801D01*
X131786793Y-127304028D01*
X131794295Y-127322139D01*
X131805186Y-127338439D01*
X131819047Y-127352301D01*
X131835347Y-127363192D01*
X131853458Y-127370694D01*
X131872685Y-127374518D01*
X131882487Y-127375000D01*
X132556204Y-127375000D01*
X132607621Y-127380064D01*
X132652345Y-127393631D01*
X132693563Y-127415663D01*
X132729689Y-127445311D01*
X132759337Y-127481437D01*
X132781369Y-127522655D01*
X132794936Y-127567379D01*
X132800000Y-127618796D01*
X132800000Y-128456204D01*
X132794936Y-128507621D01*
X132781369Y-128552345D01*
X132759337Y-128593563D01*
X132729689Y-128629689D01*
X132693563Y-128659337D01*
X132652345Y-128681369D01*
X132607621Y-128694936D01*
X132556204Y-128700000D01*
X129443796Y-128700000D01*
X129392379Y-128694936D01*
X129347655Y-128681369D01*
X129306437Y-128659337D01*
X129270311Y-128629689D01*
X129240663Y-128593563D01*
X129218631Y-128552345D01*
X129205064Y-128507621D01*
X129200000Y-128456204D01*
X129200000Y-127618796D01*
X129205064Y-127567379D01*
X129218631Y-127522655D01*
X129240663Y-127481437D01*
X129270311Y-127445311D01*
X129306437Y-127415663D01*
X129347655Y-127393631D01*
X129392379Y-127380064D01*
X129443796Y-127375000D01*
X130117513Y-127375000D01*
X130137022Y-127373079D01*
X130155781Y-127367388D01*
X130173070Y-127358147D01*
X130188224Y-127345711D01*
X130200660Y-127330557D01*
X130209901Y-127313268D01*
X130215592Y-127294509D01*
X130217513Y-127275000D01*
X130215592Y-127255491D01*
X130209901Y-127236732D01*
X130200660Y-127219443D01*
X130188224Y-127204289D01*
X130180952Y-127197699D01*
X130178946Y-127196053D01*
X130166453Y-127180830D01*
X130164723Y-127177593D01*
X130157165Y-127163454D01*
X130151447Y-127144603D01*
X130149516Y-127125000D01*
X130149032Y-127120090D01*
X130149032Y-126129910D01*
X130151447Y-126105398D01*
X130157164Y-126086549D01*
X130157165Y-126086546D01*
X130166451Y-126069174D01*
X130166453Y-126069170D01*
X130178930Y-126053966D01*
X130178934Y-126053962D01*
X130178947Y-126053947D01*
X130180956Y-126052300D01*
X130194793Y-126038477D01*
X130205692Y-126022183D01*
X130213203Y-126004076D01*
X130217038Y-125984851D01*
X130217047Y-125965248D01*
X130213233Y-125946019D01*
X130205740Y-125927904D01*
X130194857Y-125911599D01*
X130181045Y-125897765D01*
X130178871Y-125895977D01*
X130166392Y-125880738D01*
X130157126Y-125863360D01*
X130156099Y-125859960D01*
X130151426Y-125844500D01*
X130151426Y-125844495D01*
X130151420Y-125844477D01*
X130149032Y-125820108D01*
X130149032Y-124679910D01*
X130151447Y-124655398D01*
X130157164Y-124636549D01*
X130157165Y-124636546D01*
X130166451Y-124619174D01*
X130166453Y-124619170D01*
X130178946Y-124603947D01*
X130180952Y-124602301D01*
X130194814Y-124588440D01*
X130205705Y-124572140D01*
X130213207Y-124554029D01*
X130217031Y-124534802D01*
X130217032Y-124515199D01*
X130213207Y-124495972D01*
X130205705Y-124477861D01*
X130194814Y-124461561D01*
X130180953Y-124447699D01*
X130164653Y-124436808D01*
X130146542Y-124429306D01*
X130127315Y-124425482D01*
X130117513Y-124425000D01*
X129443796Y-124425000D01*
X129392379Y-124419936D01*
X129347655Y-124406369D01*
X129306437Y-124384337D01*
X129270311Y-124354689D01*
X129240663Y-124318563D01*
X129218631Y-124277345D01*
X129205064Y-124232621D01*
X129200000Y-124181204D01*
X129200000Y-123343796D01*
X129205064Y-123292379D01*
X129218631Y-123247655D01*
X129240663Y-123206437D01*
X129270311Y-123170311D01*
X129306437Y-123140663D01*
X129347655Y-123118631D01*
X129392379Y-123105064D01*
X129443796Y-123100000D01*
X132556204Y-123100000D01*
X132607621Y-123105064D01*
X132607621Y-123105064D01*
G37*
G36*
X72295635Y-121112915D02*
X72502989Y-121175816D01*
X72694086Y-121277959D01*
X72861581Y-121415419D01*
X72999041Y-121582914D01*
X73101184Y-121774011D01*
X73164085Y-121981365D01*
X73180000Y-122142958D01*
X73180000Y-125001042D01*
X73164085Y-125162635D01*
X73101184Y-125369989D01*
X72999041Y-125561086D01*
X72926387Y-125649615D01*
X72861581Y-125728581D01*
X72694084Y-125866042D01*
X72630552Y-125900000D01*
X72502988Y-125968184D01*
X72295634Y-126031085D01*
X72080000Y-126052323D01*
X71864365Y-126031085D01*
X71657011Y-125968184D01*
X71465914Y-125866041D01*
X71298419Y-125728581D01*
X71160959Y-125561085D01*
X71147597Y-125536086D01*
X71058817Y-125369989D01*
X71058816Y-125369988D01*
X70995915Y-125162634D01*
X70980000Y-125001041D01*
X70980001Y-122142958D01*
X70995916Y-121981365D01*
X71058817Y-121774011D01*
X71160960Y-121582914D01*
X71298420Y-121415419D01*
X71465915Y-121277959D01*
X71657012Y-121175816D01*
X71864366Y-121112915D01*
X72080000Y-121091677D01*
X72295635Y-121112915D01*
X72295635Y-121112915D01*
G37*
G36*
X62135635Y-121137915D02*
X62342989Y-121200816D01*
X62534086Y-121302959D01*
X62701581Y-121440419D01*
X62839041Y-121607914D01*
X62941184Y-121799011D01*
X63004085Y-122006365D01*
X63020000Y-122167958D01*
X63020000Y-124976042D01*
X63004085Y-125137635D01*
X62941184Y-125344989D01*
X62839041Y-125536086D01*
X62745870Y-125649615D01*
X62701581Y-125703581D01*
X62534084Y-125841042D01*
X62459817Y-125880738D01*
X62342988Y-125943184D01*
X62135634Y-126006085D01*
X61920000Y-126027323D01*
X61704365Y-126006085D01*
X61497011Y-125943184D01*
X61305914Y-125841041D01*
X61138419Y-125703581D01*
X61000959Y-125536085D01*
X60898816Y-125344988D01*
X60835915Y-125137634D01*
X60820000Y-124976041D01*
X60820001Y-122167958D01*
X60835916Y-122006365D01*
X60898817Y-121799011D01*
X61000960Y-121607914D01*
X61138420Y-121440419D01*
X61305915Y-121302959D01*
X61497012Y-121200816D01*
X61704366Y-121137915D01*
X61920000Y-121116677D01*
X62135635Y-121137915D01*
X62135635Y-121137915D01*
G37*
G36*
X84486695Y-121533818D02*
X84741719Y-121584545D01*
X85142091Y-121750385D01*
X85502417Y-121991147D01*
X85808853Y-122297583D01*
X86049615Y-122657909D01*
X86215455Y-123058281D01*
X86259908Y-123281765D01*
X86282322Y-123394444D01*
X86300000Y-123483321D01*
X86300000Y-123916679D01*
X86215455Y-124341719D01*
X86049615Y-124742091D01*
X85808853Y-125102417D01*
X85502417Y-125408853D01*
X85142091Y-125649615D01*
X84741719Y-125815455D01*
X84500902Y-125863356D01*
X84316681Y-125900000D01*
X83883319Y-125900000D01*
X83699098Y-125863356D01*
X83458281Y-125815455D01*
X83057909Y-125649615D01*
X82697583Y-125408853D01*
X82391147Y-125102417D01*
X82150385Y-124742091D01*
X81984545Y-124341719D01*
X81900000Y-123916679D01*
X81900000Y-123483321D01*
X81917679Y-123394444D01*
X81940092Y-123281765D01*
X81984545Y-123058281D01*
X82150385Y-122657909D01*
X82391147Y-122297583D01*
X82697583Y-121991147D01*
X83057909Y-121750385D01*
X83458281Y-121584545D01*
X83713305Y-121533818D01*
X83883319Y-121500000D01*
X84316681Y-121500000D01*
X84486695Y-121533818D01*
X84486695Y-121533818D01*
G37*
G36*
X127625000Y-123725000D02*
X123975000Y-123725000D01*
X123975000Y-120075000D01*
X127625000Y-120075000D01*
X127625000Y-123725000D01*
X127625000Y-123725000D01*
G37*
G36*
X110225000Y-123725000D02*
X106575000Y-123725000D01*
X106575000Y-120075000D01*
X110225000Y-120075000D01*
X110225000Y-123725000D01*
X110225000Y-123725000D01*
G37*
G36*
X130562520Y-119834586D02*
X130562522Y-119834587D01*
X130562523Y-119834587D01*
X130570615Y-119837939D01*
X130726310Y-119902430D01*
X130873717Y-120000924D01*
X130999076Y-120126283D01*
X130999077Y-120126285D01*
X131097570Y-120273690D01*
X131165413Y-120437477D01*
X131201921Y-120621018D01*
X131207612Y-120639777D01*
X131216853Y-120657066D01*
X131229289Y-120672220D01*
X131244443Y-120684656D01*
X131261731Y-120693897D01*
X131280491Y-120699587D01*
X131284679Y-120700000D01*
X131280491Y-120700412D01*
X131261732Y-120706103D01*
X131244443Y-120715344D01*
X131229289Y-120727780D01*
X131216853Y-120742934D01*
X131207612Y-120760222D01*
X131201921Y-120778982D01*
X131165413Y-120962523D01*
X131111915Y-121091678D01*
X131097570Y-121126310D01*
X130999076Y-121273717D01*
X130873717Y-121399076D01*
X130726310Y-121497570D01*
X130562523Y-121565413D01*
X130562522Y-121565413D01*
X130562520Y-121565414D01*
X130388642Y-121600000D01*
X130211358Y-121600000D01*
X130037480Y-121565414D01*
X130037478Y-121565413D01*
X130037477Y-121565413D01*
X129873690Y-121497570D01*
X129726283Y-121399076D01*
X129600924Y-121273717D01*
X129502430Y-121126310D01*
X129488085Y-121091678D01*
X129434587Y-120962523D01*
X129400000Y-120788640D01*
X129400000Y-120611360D01*
X129434587Y-120437477D01*
X129502430Y-120273690D01*
X129600923Y-120126285D01*
X129600924Y-120126283D01*
X129726283Y-120000924D01*
X129873690Y-119902430D01*
X130029385Y-119837939D01*
X130037477Y-119834587D01*
X130037478Y-119834587D01*
X130037480Y-119834586D01*
X130211358Y-119800000D01*
X130388642Y-119800000D01*
X130562520Y-119834586D01*
X130562520Y-119834586D01*
G37*
G36*
X132562520Y-119834586D02*
X132562522Y-119834587D01*
X132562523Y-119834587D01*
X132570615Y-119837939D01*
X132726310Y-119902430D01*
X132873717Y-120000924D01*
X132999076Y-120126283D01*
X132999077Y-120126285D01*
X133097570Y-120273690D01*
X133165413Y-120437477D01*
X133200000Y-120611360D01*
X133200000Y-120788640D01*
X133165413Y-120962523D01*
X133111915Y-121091678D01*
X133097570Y-121126310D01*
X132999076Y-121273717D01*
X132873717Y-121399076D01*
X132726310Y-121497570D01*
X132562523Y-121565413D01*
X132562522Y-121565413D01*
X132562520Y-121565414D01*
X132388642Y-121600000D01*
X132211358Y-121600000D01*
X132037480Y-121565414D01*
X132037478Y-121565413D01*
X132037477Y-121565413D01*
X131873690Y-121497570D01*
X131726283Y-121399076D01*
X131600924Y-121273717D01*
X131502430Y-121126310D01*
X131488085Y-121091678D01*
X131434587Y-120962523D01*
X131398079Y-120778982D01*
X131392388Y-120760223D01*
X131383147Y-120742934D01*
X131370711Y-120727780D01*
X131355557Y-120715344D01*
X131338269Y-120706103D01*
X131319509Y-120700413D01*
X131315321Y-120700000D01*
X131319509Y-120699588D01*
X131338268Y-120693897D01*
X131355557Y-120684656D01*
X131370711Y-120672220D01*
X131383147Y-120657066D01*
X131392388Y-120639778D01*
X131398079Y-120621018D01*
X131434587Y-120437477D01*
X131502430Y-120273690D01*
X131600923Y-120126285D01*
X131600924Y-120126283D01*
X131726283Y-120000924D01*
X131873690Y-119902430D01*
X132029385Y-119837939D01*
X132037477Y-119834587D01*
X132037478Y-119834587D01*
X132037480Y-119834586D01*
X132211358Y-119800000D01*
X132388642Y-119800000D01*
X132562520Y-119834586D01*
X132562520Y-119834586D01*
G37*
G36*
X102308852Y-118346359D02*
X102349299Y-118350343D01*
X102433849Y-118375991D01*
X102530937Y-118405442D01*
X102698339Y-118494920D01*
X102845065Y-118615335D01*
X102965480Y-118762061D01*
X103054958Y-118929463D01*
X103084409Y-119026551D01*
X103110057Y-119111101D01*
X103110057Y-119111103D01*
X103128663Y-119300000D01*
X103113119Y-119457811D01*
X103110057Y-119488899D01*
X103084409Y-119573449D01*
X103054958Y-119670537D01*
X102965480Y-119837939D01*
X102845065Y-119984665D01*
X102698339Y-120105080D01*
X102530937Y-120194558D01*
X102433849Y-120224009D01*
X102349299Y-120249657D01*
X102308852Y-120253641D01*
X102207739Y-120263600D01*
X100792261Y-120263600D01*
X100691148Y-120253641D01*
X100650701Y-120249657D01*
X100566151Y-120224009D01*
X100469063Y-120194558D01*
X100301661Y-120105080D01*
X100154935Y-119984665D01*
X100034520Y-119837939D01*
X99945042Y-119670537D01*
X99915591Y-119573449D01*
X99889943Y-119488899D01*
X99886881Y-119457811D01*
X99871337Y-119300000D01*
X99889943Y-119111103D01*
X99889943Y-119111101D01*
X99915591Y-119026551D01*
X99945042Y-118929463D01*
X100034520Y-118762061D01*
X100154935Y-118615335D01*
X100301661Y-118494920D01*
X100469063Y-118405442D01*
X100566151Y-118375991D01*
X100650701Y-118350343D01*
X100691148Y-118346359D01*
X100792261Y-118336400D01*
X102207739Y-118336400D01*
X102308852Y-118346359D01*
X102308852Y-118346359D01*
G37*
G36*
X89808852Y-118346359D02*
X89849299Y-118350343D01*
X89933849Y-118375991D01*
X90030937Y-118405442D01*
X90198339Y-118494920D01*
X90345065Y-118615335D01*
X90465480Y-118762061D01*
X90554958Y-118929463D01*
X90584409Y-119026551D01*
X90610057Y-119111101D01*
X90610057Y-119111103D01*
X90628663Y-119300000D01*
X90613119Y-119457811D01*
X90610057Y-119488899D01*
X90584409Y-119573449D01*
X90554958Y-119670537D01*
X90465480Y-119837939D01*
X90345065Y-119984665D01*
X90198339Y-120105080D01*
X90030937Y-120194558D01*
X89933849Y-120224009D01*
X89849299Y-120249657D01*
X89808852Y-120253641D01*
X89707739Y-120263600D01*
X88292261Y-120263600D01*
X88191148Y-120253641D01*
X88150701Y-120249657D01*
X88066151Y-120224009D01*
X87969063Y-120194558D01*
X87801661Y-120105080D01*
X87654935Y-119984665D01*
X87534520Y-119837939D01*
X87445042Y-119670537D01*
X87415591Y-119573449D01*
X87389943Y-119488899D01*
X87386881Y-119457811D01*
X87371337Y-119300000D01*
X87389943Y-119111103D01*
X87389943Y-119111101D01*
X87415591Y-119026551D01*
X87445042Y-118929463D01*
X87534520Y-118762061D01*
X87654935Y-118615335D01*
X87801661Y-118494920D01*
X87969063Y-118405442D01*
X88066151Y-118375991D01*
X88150701Y-118350343D01*
X88191148Y-118346359D01*
X88292261Y-118336400D01*
X89707739Y-118336400D01*
X89808852Y-118346359D01*
X89808852Y-118346359D01*
G37*
G36*
X110020856Y-115942272D02*
X110221045Y-116025193D01*
X110401207Y-116145573D01*
X110554427Y-116298793D01*
X110674807Y-116478955D01*
X110757728Y-116679144D01*
X110800000Y-116891657D01*
X110800000Y-117108343D01*
X110757728Y-117320856D01*
X110674807Y-117521045D01*
X110554427Y-117701207D01*
X110401207Y-117854427D01*
X110221045Y-117974807D01*
X110020856Y-118057728D01*
X109808343Y-118100000D01*
X109591657Y-118100000D01*
X109379144Y-118057728D01*
X109178955Y-117974807D01*
X108998793Y-117854427D01*
X108845573Y-117701207D01*
X108725193Y-117521045D01*
X108642272Y-117320856D01*
X108600000Y-117108343D01*
X108600000Y-116891657D01*
X108642272Y-116679144D01*
X108725193Y-116478955D01*
X108845573Y-116298793D01*
X108998793Y-116145573D01*
X109178955Y-116025193D01*
X109379144Y-115942272D01*
X109591657Y-115900000D01*
X109808343Y-115900000D01*
X110020856Y-115942272D01*
X110020856Y-115942272D01*
G37*
G36*
X123320856Y-115942272D02*
X123521045Y-116025193D01*
X123701207Y-116145573D01*
X123854427Y-116298793D01*
X123974807Y-116478955D01*
X124057728Y-116679144D01*
X124100000Y-116891657D01*
X124100000Y-117108343D01*
X124057728Y-117320856D01*
X123974807Y-117521045D01*
X123854427Y-117701207D01*
X123701207Y-117854427D01*
X123521045Y-117974807D01*
X123320856Y-118057728D01*
X123108343Y-118100000D01*
X122891657Y-118100000D01*
X122679144Y-118057728D01*
X122478955Y-117974807D01*
X122298793Y-117854427D01*
X122145573Y-117701207D01*
X122025193Y-117521045D01*
X121942272Y-117320856D01*
X121900000Y-117108343D01*
X121900000Y-116891657D01*
X121942272Y-116679144D01*
X122025193Y-116478955D01*
X122145573Y-116298793D01*
X122298793Y-116145573D01*
X122478955Y-116025193D01*
X122679144Y-115942272D01*
X122891657Y-115900000D01*
X123108343Y-115900000D01*
X123320856Y-115942272D01*
X123320856Y-115942272D01*
G37*
G36*
X72295635Y-111968915D02*
X72502989Y-112031816D01*
X72694086Y-112133959D01*
X72861581Y-112271419D01*
X72999041Y-112438914D01*
X73101184Y-112630011D01*
X73164085Y-112837365D01*
X73180000Y-112998958D01*
X73180000Y-115857042D01*
X73164085Y-116018635D01*
X73101184Y-116225989D01*
X72999041Y-116417086D01*
X72948266Y-116478955D01*
X72861581Y-116584581D01*
X72694084Y-116722042D01*
X72605130Y-116769588D01*
X72502988Y-116824184D01*
X72295634Y-116887085D01*
X72080000Y-116908323D01*
X71864365Y-116887085D01*
X71657011Y-116824184D01*
X71465914Y-116722041D01*
X71298419Y-116584581D01*
X71160959Y-116417085D01*
X71147597Y-116392086D01*
X71058817Y-116225989D01*
X71058816Y-116225988D01*
X70995915Y-116018634D01*
X70980000Y-115857041D01*
X70980001Y-112998958D01*
X70995916Y-112837365D01*
X71058817Y-112630011D01*
X71160960Y-112438914D01*
X71298420Y-112271419D01*
X71465915Y-112133959D01*
X71657012Y-112031816D01*
X71864366Y-111968915D01*
X72080000Y-111947677D01*
X72295635Y-111968915D01*
X72295635Y-111968915D01*
G37*
G36*
X62135635Y-111993915D02*
X62342989Y-112056816D01*
X62534086Y-112158959D01*
X62701581Y-112296419D01*
X62839041Y-112463914D01*
X62941184Y-112655011D01*
X63004085Y-112862365D01*
X63020000Y-113023958D01*
X63020000Y-115832042D01*
X63004085Y-115993635D01*
X62941184Y-116200989D01*
X62839041Y-116392086D01*
X62767749Y-116478955D01*
X62701581Y-116559581D01*
X62534084Y-116697042D01*
X62445130Y-116744588D01*
X62342988Y-116799184D01*
X62135634Y-116862085D01*
X61920000Y-116883323D01*
X61704365Y-116862085D01*
X61497011Y-116799184D01*
X61305914Y-116697041D01*
X61138419Y-116559581D01*
X61000959Y-116392085D01*
X60898816Y-116200988D01*
X60835915Y-115993634D01*
X60820000Y-115832041D01*
X60820001Y-113023958D01*
X60835916Y-112862365D01*
X60898817Y-112655011D01*
X61000960Y-112463914D01*
X61138420Y-112296419D01*
X61305915Y-112158959D01*
X61497012Y-112056816D01*
X61704366Y-111993915D01*
X61920000Y-111972677D01*
X62135635Y-111993915D01*
X62135635Y-111993915D01*
G37*
G36*
X89808852Y-113346359D02*
X89849299Y-113350343D01*
X89933849Y-113375991D01*
X90030937Y-113405442D01*
X90198339Y-113494920D01*
X90345065Y-113615335D01*
X90465480Y-113762061D01*
X90554958Y-113929463D01*
X90584409Y-114026551D01*
X90610057Y-114111101D01*
X90610057Y-114111103D01*
X90628663Y-114300000D01*
X90613119Y-114457811D01*
X90610057Y-114488899D01*
X90584409Y-114573449D01*
X90554958Y-114670537D01*
X90465480Y-114837939D01*
X90345065Y-114984665D01*
X90198339Y-115105080D01*
X90030937Y-115194558D01*
X89933849Y-115224009D01*
X89849299Y-115249657D01*
X89808852Y-115253641D01*
X89707739Y-115263600D01*
X88292261Y-115263600D01*
X88191148Y-115253641D01*
X88150701Y-115249657D01*
X88066151Y-115224009D01*
X87969063Y-115194558D01*
X87801661Y-115105080D01*
X87654935Y-114984665D01*
X87534520Y-114837939D01*
X87445042Y-114670537D01*
X87415591Y-114573449D01*
X87389943Y-114488899D01*
X87386881Y-114457811D01*
X87371337Y-114300000D01*
X87389943Y-114111103D01*
X87389943Y-114111101D01*
X87415591Y-114026551D01*
X87445042Y-113929463D01*
X87534520Y-113762061D01*
X87654935Y-113615335D01*
X87801661Y-113494920D01*
X87969063Y-113405442D01*
X88066151Y-113375991D01*
X88150701Y-113350343D01*
X88191148Y-113346359D01*
X88292261Y-113336400D01*
X89707739Y-113336400D01*
X89808852Y-113346359D01*
X89808852Y-113346359D01*
G37*
G36*
X102308852Y-113346359D02*
X102349299Y-113350343D01*
X102433849Y-113375991D01*
X102530937Y-113405442D01*
X102698339Y-113494920D01*
X102845065Y-113615335D01*
X102965480Y-113762061D01*
X103054958Y-113929463D01*
X103084409Y-114026551D01*
X103110057Y-114111101D01*
X103110057Y-114111103D01*
X103128663Y-114300000D01*
X103113119Y-114457811D01*
X103110057Y-114488899D01*
X103084409Y-114573449D01*
X103054958Y-114670537D01*
X102965480Y-114837939D01*
X102845065Y-114984665D01*
X102698339Y-115105080D01*
X102530937Y-115194558D01*
X102433849Y-115224009D01*
X102349299Y-115249657D01*
X102308852Y-115253641D01*
X102207739Y-115263600D01*
X100792261Y-115263600D01*
X100691148Y-115253641D01*
X100650701Y-115249657D01*
X100566151Y-115224009D01*
X100469063Y-115194558D01*
X100301661Y-115105080D01*
X100154935Y-114984665D01*
X100034520Y-114837939D01*
X99945042Y-114670537D01*
X99915591Y-114573449D01*
X99889943Y-114488899D01*
X99886881Y-114457811D01*
X99871337Y-114300000D01*
X99889943Y-114111103D01*
X99889943Y-114111101D01*
X99915591Y-114026551D01*
X99945042Y-113929463D01*
X100034520Y-113762061D01*
X100154935Y-113615335D01*
X100301661Y-113494920D01*
X100469063Y-113405442D01*
X100566151Y-113375991D01*
X100650701Y-113350343D01*
X100691148Y-113346359D01*
X100792261Y-113336400D01*
X102207739Y-113336400D01*
X102308852Y-113346359D01*
X102308852Y-113346359D01*
G37*
G36*
X116643215Y-109699959D02*
X116768795Y-109724938D01*
X116915790Y-109785826D01*
X117123671Y-109871933D01*
X117443052Y-110085336D01*
X117714664Y-110356948D01*
X117928067Y-110676329D01*
X118075062Y-111031206D01*
X118150000Y-111407942D01*
X118150000Y-111792058D01*
X118113327Y-111976426D01*
X118075062Y-112168795D01*
X118034343Y-112267098D01*
X117928067Y-112523671D01*
X117714664Y-112843052D01*
X117443052Y-113114664D01*
X117123671Y-113328067D01*
X116936871Y-113405442D01*
X116768795Y-113475062D01*
X116668962Y-113494920D01*
X116392058Y-113550000D01*
X116007942Y-113550000D01*
X115731038Y-113494920D01*
X115631205Y-113475062D01*
X115463129Y-113405442D01*
X115276329Y-113328067D01*
X114956948Y-113114664D01*
X114685336Y-112843052D01*
X114471933Y-112523671D01*
X114365657Y-112267098D01*
X114324938Y-112168795D01*
X114286673Y-111976426D01*
X114250000Y-111792058D01*
X114250000Y-111407942D01*
X114324938Y-111031206D01*
X114471933Y-110676329D01*
X114685336Y-110356948D01*
X114956948Y-110085336D01*
X115276329Y-109871933D01*
X115484210Y-109785826D01*
X115631205Y-109724938D01*
X115756785Y-109699959D01*
X116007942Y-109650000D01*
X116392058Y-109650000D01*
X116643215Y-109699959D01*
X116643215Y-109699959D01*
G37*
G36*
X111943215Y-109699959D02*
X112068795Y-109724938D01*
X112215790Y-109785826D01*
X112423671Y-109871933D01*
X112743052Y-110085336D01*
X113014664Y-110356948D01*
X113228067Y-110676329D01*
X113375062Y-111031206D01*
X113450000Y-111407942D01*
X113450000Y-111792058D01*
X113413327Y-111976426D01*
X113375062Y-112168795D01*
X113334343Y-112267098D01*
X113228067Y-112523671D01*
X113014664Y-112843052D01*
X112743052Y-113114664D01*
X112423671Y-113328067D01*
X112236871Y-113405442D01*
X112068795Y-113475062D01*
X111968962Y-113494920D01*
X111692058Y-113550000D01*
X111307942Y-113550000D01*
X111031038Y-113494920D01*
X110931205Y-113475062D01*
X110763129Y-113405442D01*
X110576329Y-113328067D01*
X110256948Y-113114664D01*
X109985336Y-112843052D01*
X109771933Y-112523671D01*
X109665657Y-112267098D01*
X109624938Y-112168795D01*
X109586673Y-111976426D01*
X109550000Y-111792058D01*
X109550000Y-111407942D01*
X109624938Y-111031206D01*
X109771933Y-110676329D01*
X109985336Y-110356948D01*
X110256948Y-110085336D01*
X110576329Y-109871933D01*
X110784210Y-109785826D01*
X110931205Y-109724938D01*
X111056785Y-109699959D01*
X111307942Y-109650000D01*
X111692058Y-109650000D01*
X111943215Y-109699959D01*
X111943215Y-109699959D01*
G37*
G36*
X121343215Y-109699959D02*
X121468795Y-109724938D01*
X121615790Y-109785826D01*
X121823671Y-109871933D01*
X122143052Y-110085336D01*
X122414664Y-110356948D01*
X122628067Y-110676329D01*
X122775062Y-111031206D01*
X122850000Y-111407942D01*
X122850000Y-111792058D01*
X122813327Y-111976426D01*
X122775062Y-112168795D01*
X122734343Y-112267098D01*
X122628067Y-112523671D01*
X122414664Y-112843052D01*
X122143052Y-113114664D01*
X121823671Y-113328067D01*
X121636871Y-113405442D01*
X121468795Y-113475062D01*
X121368962Y-113494920D01*
X121092058Y-113550000D01*
X120707942Y-113550000D01*
X120431038Y-113494920D01*
X120331205Y-113475062D01*
X120163129Y-113405442D01*
X119976329Y-113328067D01*
X119656948Y-113114664D01*
X119385336Y-112843052D01*
X119171933Y-112523671D01*
X119065657Y-112267098D01*
X119024938Y-112168795D01*
X118986673Y-111976426D01*
X118950000Y-111792058D01*
X118950000Y-111407942D01*
X119024938Y-111031206D01*
X119171933Y-110676329D01*
X119385336Y-110356948D01*
X119656948Y-110085336D01*
X119976329Y-109871933D01*
X120184210Y-109785826D01*
X120331205Y-109724938D01*
X120456785Y-109699959D01*
X120707942Y-109650000D01*
X121092058Y-109650000D01*
X121343215Y-109699959D01*
X121343215Y-109699959D01*
G37*
G36*
X105864081Y-110675903D02*
X105869603Y-110676447D01*
X105888454Y-110682165D01*
X105902593Y-110689723D01*
X105905830Y-110691453D01*
X105921053Y-110703947D01*
X105933547Y-110719170D01*
X105933549Y-110719174D01*
X105942835Y-110736546D01*
X105942836Y-110736549D01*
X105948553Y-110755398D01*
X105950968Y-110779910D01*
X105950968Y-111770090D01*
X105950484Y-111775000D01*
X105948553Y-111794603D01*
X105942835Y-111813454D01*
X105942783Y-111813551D01*
X105933547Y-111830830D01*
X105921070Y-111846034D01*
X105921066Y-111846038D01*
X105921053Y-111846053D01*
X105919044Y-111847700D01*
X105905207Y-111861523D01*
X105894308Y-111877817D01*
X105886797Y-111895924D01*
X105882962Y-111915149D01*
X105882953Y-111934752D01*
X105886767Y-111953981D01*
X105894260Y-111972096D01*
X105905143Y-111988401D01*
X105918955Y-112002235D01*
X105921129Y-112004023D01*
X105933608Y-112019262D01*
X105942874Y-112036640D01*
X105942875Y-112036644D01*
X105948574Y-112055500D01*
X105948574Y-112055505D01*
X105948580Y-112055523D01*
X105950968Y-112079892D01*
X105950968Y-113220090D01*
X105950484Y-113225000D01*
X105948553Y-113244603D01*
X105942835Y-113263454D01*
X105935277Y-113277593D01*
X105933547Y-113280830D01*
X105921053Y-113296053D01*
X105905830Y-113308547D01*
X105905826Y-113308549D01*
X105888454Y-113317835D01*
X105869603Y-113323553D01*
X105864081Y-113324097D01*
X105845090Y-113325968D01*
X104354910Y-113325968D01*
X104335919Y-113324097D01*
X104330397Y-113323553D01*
X104311546Y-113317835D01*
X104294174Y-113308549D01*
X104294170Y-113308547D01*
X104278947Y-113296053D01*
X104266453Y-113280830D01*
X104264723Y-113277593D01*
X104257165Y-113263454D01*
X104251447Y-113244603D01*
X104249516Y-113225000D01*
X104249032Y-113220090D01*
X104249032Y-112079910D01*
X104251447Y-112055398D01*
X104257164Y-112036549D01*
X104257165Y-112036546D01*
X104266451Y-112019174D01*
X104266453Y-112019170D01*
X104278946Y-112003948D01*
X104280945Y-112002307D01*
X104294807Y-111988445D01*
X104305699Y-111972146D01*
X104313201Y-111954035D01*
X104317025Y-111934808D01*
X104317026Y-111915204D01*
X104313201Y-111895978D01*
X104305700Y-111877866D01*
X104294809Y-111861567D01*
X104280869Y-111847640D01*
X104279021Y-111846127D01*
X104266509Y-111830913D01*
X104257205Y-111813551D01*
X104251467Y-111794707D01*
X104249516Y-111775000D01*
X104249516Y-111774950D01*
X104249032Y-111770063D01*
X104249032Y-110779910D01*
X104251447Y-110755398D01*
X104257164Y-110736549D01*
X104257165Y-110736546D01*
X104266451Y-110719174D01*
X104266453Y-110719170D01*
X104278947Y-110703947D01*
X104294170Y-110691453D01*
X104297407Y-110689723D01*
X104311546Y-110682165D01*
X104330397Y-110676447D01*
X104335919Y-110675903D01*
X104354910Y-110674032D01*
X105845090Y-110674032D01*
X105864081Y-110675903D01*
X105864081Y-110675903D01*
G37*
G36*
X107498830Y-112254677D02*
X107539776Y-112267098D01*
X107577510Y-112287267D01*
X107610587Y-112314413D01*
X107637733Y-112347490D01*
X107657902Y-112385224D01*
X107670323Y-112426170D01*
X107675000Y-112473658D01*
X107675000Y-113101342D01*
X107670323Y-113148830D01*
X107657902Y-113189776D01*
X107637733Y-113227510D01*
X107610587Y-113260587D01*
X107577510Y-113287733D01*
X107539776Y-113307902D01*
X107498830Y-113320323D01*
X107451342Y-113325000D01*
X106748658Y-113325000D01*
X106701170Y-113320323D01*
X106660224Y-113307902D01*
X106622490Y-113287733D01*
X106589413Y-113260587D01*
X106562267Y-113227510D01*
X106542098Y-113189776D01*
X106529677Y-113148830D01*
X106525000Y-113101342D01*
X106525000Y-112473658D01*
X106529677Y-112426170D01*
X106542098Y-112385224D01*
X106562267Y-112347490D01*
X106589413Y-112314413D01*
X106622490Y-112287267D01*
X106660224Y-112267098D01*
X106701170Y-112254677D01*
X106748658Y-112250000D01*
X107451342Y-112250000D01*
X107498830Y-112254677D01*
X107498830Y-112254677D01*
G37*
G36*
X107498830Y-110679677D02*
X107539776Y-110692098D01*
X107577510Y-110712267D01*
X107610587Y-110739413D01*
X107637733Y-110772490D01*
X107657902Y-110810224D01*
X107670323Y-110851170D01*
X107675000Y-110898658D01*
X107675000Y-111526342D01*
X107670323Y-111573830D01*
X107657902Y-111614776D01*
X107637733Y-111652510D01*
X107610587Y-111685587D01*
X107577510Y-111712733D01*
X107539776Y-111732902D01*
X107498830Y-111745323D01*
X107451342Y-111750000D01*
X106748658Y-111750000D01*
X106701170Y-111745323D01*
X106660224Y-111732902D01*
X106622490Y-111712733D01*
X106589413Y-111685587D01*
X106562267Y-111652510D01*
X106542098Y-111614776D01*
X106529677Y-111573830D01*
X106525000Y-111526342D01*
X106525000Y-110898658D01*
X106529677Y-110851170D01*
X106542098Y-110810224D01*
X106562267Y-110772490D01*
X106589413Y-110739413D01*
X106622490Y-110712267D01*
X106660224Y-110692098D01*
X106701170Y-110679677D01*
X106748658Y-110675000D01*
X107451342Y-110675000D01*
X107498830Y-110679677D01*
X107498830Y-110679677D01*
G37*
G36*
X97996429Y-107653022D02*
X98166081Y-107704486D01*
X98322434Y-107788058D01*
X98459475Y-107900525D01*
X98571942Y-108037566D01*
X98655514Y-108193919D01*
X98706978Y-108363571D01*
X98724355Y-108540000D01*
X98706978Y-108716429D01*
X98655514Y-108886081D01*
X98571942Y-109042434D01*
X98459475Y-109179475D01*
X98322434Y-109291942D01*
X98166081Y-109375514D01*
X97996429Y-109426978D01*
X97864212Y-109440000D01*
X96975788Y-109440000D01*
X96843571Y-109426978D01*
X96673919Y-109375514D01*
X96517566Y-109291942D01*
X96380525Y-109179475D01*
X96268058Y-109042434D01*
X96184486Y-108886081D01*
X96133022Y-108716429D01*
X96115645Y-108540000D01*
X96133022Y-108363571D01*
X96184486Y-108193919D01*
X96268058Y-108037566D01*
X96380525Y-107900525D01*
X96517566Y-107788058D01*
X96673919Y-107704486D01*
X96843571Y-107653022D01*
X96975788Y-107640000D01*
X97864212Y-107640000D01*
X97996429Y-107653022D01*
X97996429Y-107653022D01*
G37*
G36*
X90376429Y-107653022D02*
X90546081Y-107704486D01*
X90702434Y-107788058D01*
X90839475Y-107900525D01*
X90951942Y-108037566D01*
X91035514Y-108193919D01*
X91086978Y-108363571D01*
X91104355Y-108540000D01*
X91086978Y-108716429D01*
X91035514Y-108886081D01*
X90951942Y-109042434D01*
X90839475Y-109179475D01*
X90702434Y-109291942D01*
X90546081Y-109375514D01*
X90376429Y-109426978D01*
X90244212Y-109440000D01*
X89355788Y-109440000D01*
X89223571Y-109426978D01*
X89053919Y-109375514D01*
X88897566Y-109291942D01*
X88760525Y-109179475D01*
X88648058Y-109042434D01*
X88564486Y-108886081D01*
X88513022Y-108716429D01*
X88495645Y-108540000D01*
X88513022Y-108363571D01*
X88564486Y-108193919D01*
X88648058Y-108037566D01*
X88760525Y-107900525D01*
X88897566Y-107788058D01*
X89053919Y-107704486D01*
X89223571Y-107653022D01*
X89355788Y-107640000D01*
X90244212Y-107640000D01*
X90376429Y-107653022D01*
X90376429Y-107653022D01*
G37*
G36*
X100473830Y-108229677D02*
X100514776Y-108242098D01*
X100552510Y-108262267D01*
X100585587Y-108289413D01*
X100612733Y-108322490D01*
X100632902Y-108360224D01*
X100645323Y-108401170D01*
X100650000Y-108448658D01*
X100650000Y-109151342D01*
X100645323Y-109198830D01*
X100632902Y-109239776D01*
X100612733Y-109277510D01*
X100585587Y-109310587D01*
X100552510Y-109337733D01*
X100514776Y-109357902D01*
X100473830Y-109370323D01*
X100426342Y-109375000D01*
X99798658Y-109375000D01*
X99751170Y-109370323D01*
X99710224Y-109357902D01*
X99672490Y-109337733D01*
X99639413Y-109310587D01*
X99612267Y-109277510D01*
X99592098Y-109239776D01*
X99579677Y-109198830D01*
X99575000Y-109151342D01*
X99575000Y-108448658D01*
X99579677Y-108401170D01*
X99592098Y-108360224D01*
X99612267Y-108322490D01*
X99639413Y-108289413D01*
X99672490Y-108262267D01*
X99710224Y-108242098D01*
X99751170Y-108229677D01*
X99798658Y-108225000D01*
X100426342Y-108225000D01*
X100473830Y-108229677D01*
X100473830Y-108229677D01*
G37*
G36*
X102048830Y-108229677D02*
X102089776Y-108242098D01*
X102127510Y-108262267D01*
X102160587Y-108289413D01*
X102187733Y-108322490D01*
X102207902Y-108360224D01*
X102220323Y-108401170D01*
X102225000Y-108448658D01*
X102225000Y-109151342D01*
X102220323Y-109198830D01*
X102207902Y-109239776D01*
X102187733Y-109277510D01*
X102160587Y-109310587D01*
X102127510Y-109337733D01*
X102089776Y-109357902D01*
X102048830Y-109370323D01*
X102001342Y-109375000D01*
X101373658Y-109375000D01*
X101326170Y-109370323D01*
X101285224Y-109357902D01*
X101247490Y-109337733D01*
X101214413Y-109310587D01*
X101187267Y-109277510D01*
X101167098Y-109239776D01*
X101154677Y-109198830D01*
X101150000Y-109151342D01*
X101150000Y-108448658D01*
X101154677Y-108401170D01*
X101167098Y-108360224D01*
X101187267Y-108322490D01*
X101214413Y-108289413D01*
X101247490Y-108262267D01*
X101285224Y-108242098D01*
X101326170Y-108229677D01*
X101373658Y-108225000D01*
X102001342Y-108225000D01*
X102048830Y-108229677D01*
X102048830Y-108229677D01*
G37*
G36*
X66750000Y-108750000D02*
X63250000Y-108750000D01*
X63250000Y-106050000D01*
X66750000Y-106050000D01*
X66750000Y-108750000D01*
X66750000Y-108750000D01*
G37*
G36*
X77743215Y-104399959D02*
X77868795Y-104424938D01*
X78015790Y-104485826D01*
X78223671Y-104571933D01*
X78223672Y-104571934D01*
X78543051Y-104785335D01*
X78814665Y-105056949D01*
X78917980Y-105211571D01*
X79028067Y-105376329D01*
X79175062Y-105731206D01*
X79250000Y-106107942D01*
X79250000Y-106492058D01*
X79247936Y-106502432D01*
X79175062Y-106868795D01*
X79166902Y-106888494D01*
X79028067Y-107223671D01*
X78814664Y-107543052D01*
X78543052Y-107814664D01*
X78223671Y-108028067D01*
X78015790Y-108114174D01*
X77868795Y-108175062D01*
X77773994Y-108193919D01*
X77492058Y-108250000D01*
X77107942Y-108250000D01*
X76826006Y-108193919D01*
X76731205Y-108175062D01*
X76584210Y-108114174D01*
X76376329Y-108028067D01*
X76056948Y-107814664D01*
X75785336Y-107543052D01*
X75571933Y-107223671D01*
X75433098Y-106888494D01*
X75424938Y-106868795D01*
X75352064Y-106502432D01*
X75350000Y-106492058D01*
X75350000Y-106107942D01*
X75424938Y-105731206D01*
X75571933Y-105376329D01*
X75682020Y-105211571D01*
X75785335Y-105056949D01*
X76056949Y-104785335D01*
X76376328Y-104571934D01*
X76376329Y-104571933D01*
X76584210Y-104485826D01*
X76731205Y-104424938D01*
X76856785Y-104399959D01*
X77107942Y-104350000D01*
X77492058Y-104350000D01*
X77743215Y-104399959D01*
X77743215Y-104399959D01*
G37*
G36*
X82443215Y-104399959D02*
X82568795Y-104424938D01*
X82715790Y-104485826D01*
X82923671Y-104571933D01*
X82923672Y-104571934D01*
X83243051Y-104785335D01*
X83514665Y-105056949D01*
X83617980Y-105211571D01*
X83728067Y-105376329D01*
X83875062Y-105731206D01*
X83950000Y-106107942D01*
X83950000Y-106492058D01*
X83947936Y-106502432D01*
X83875062Y-106868795D01*
X83866902Y-106888494D01*
X83728067Y-107223671D01*
X83514664Y-107543052D01*
X83243052Y-107814664D01*
X82923671Y-108028067D01*
X82715790Y-108114174D01*
X82568795Y-108175062D01*
X82473994Y-108193919D01*
X82192058Y-108250000D01*
X81807942Y-108250000D01*
X81526006Y-108193919D01*
X81431205Y-108175062D01*
X81284210Y-108114174D01*
X81076329Y-108028067D01*
X80756948Y-107814664D01*
X80485336Y-107543052D01*
X80271933Y-107223671D01*
X80133098Y-106888494D01*
X80124938Y-106868795D01*
X80052064Y-106502432D01*
X80050000Y-106492058D01*
X80050000Y-106107942D01*
X80124938Y-105731206D01*
X80271933Y-105376329D01*
X80382020Y-105211571D01*
X80485335Y-105056949D01*
X80756949Y-104785335D01*
X81076328Y-104571934D01*
X81076329Y-104571933D01*
X81284210Y-104485826D01*
X81431205Y-104424938D01*
X81556785Y-104399959D01*
X81807942Y-104350000D01*
X82192058Y-104350000D01*
X82443215Y-104399959D01*
X82443215Y-104399959D01*
G37*
G36*
X73043215Y-104399959D02*
X73168795Y-104424938D01*
X73315790Y-104485826D01*
X73523671Y-104571933D01*
X73523672Y-104571934D01*
X73843051Y-104785335D01*
X74114665Y-105056949D01*
X74217980Y-105211571D01*
X74328067Y-105376329D01*
X74475062Y-105731206D01*
X74550000Y-106107942D01*
X74550000Y-106492058D01*
X74547936Y-106502432D01*
X74475062Y-106868795D01*
X74466902Y-106888494D01*
X74328067Y-107223671D01*
X74114664Y-107543052D01*
X73843052Y-107814664D01*
X73523671Y-108028067D01*
X73315790Y-108114174D01*
X73168795Y-108175062D01*
X73073994Y-108193919D01*
X72792058Y-108250000D01*
X72407942Y-108250000D01*
X72126006Y-108193919D01*
X72031205Y-108175062D01*
X71884210Y-108114174D01*
X71676329Y-108028067D01*
X71356948Y-107814664D01*
X71085336Y-107543052D01*
X70871933Y-107223671D01*
X70733098Y-106888494D01*
X70724938Y-106868795D01*
X70652064Y-106502432D01*
X70650000Y-106492058D01*
X70650000Y-106107942D01*
X70724938Y-105731206D01*
X70871933Y-105376329D01*
X70982020Y-105211571D01*
X71085335Y-105056949D01*
X71356949Y-104785335D01*
X71676328Y-104571934D01*
X71676329Y-104571933D01*
X71884210Y-104485826D01*
X72031205Y-104424938D01*
X72156785Y-104399959D01*
X72407942Y-104350000D01*
X72792058Y-104350000D01*
X73043215Y-104399959D01*
X73043215Y-104399959D01*
G37*
G36*
X100450000Y-107950000D02*
X99450000Y-107950000D01*
X99450000Y-106850000D01*
X100450000Y-106850000D01*
X100450000Y-107950000D01*
X100450000Y-107950000D01*
G37*
G36*
X102350000Y-107950000D02*
X101350000Y-107950000D01*
X101350000Y-106850000D01*
X102350000Y-106850000D01*
X102350000Y-107950000D01*
X102350000Y-107950000D01*
G37*
G36*
X119704410Y-105813057D02*
X119781689Y-105828429D01*
X119963678Y-105903811D01*
X120127463Y-106013249D01*
X120266751Y-106152537D01*
X120376189Y-106316322D01*
X120451571Y-106498311D01*
X120452391Y-106502434D01*
X120490000Y-106691506D01*
X120490000Y-106888494D01*
X120487711Y-106900000D01*
X120451571Y-107081689D01*
X120376189Y-107263678D01*
X120266751Y-107427463D01*
X120127463Y-107566751D01*
X119963678Y-107676189D01*
X119781689Y-107751571D01*
X119704410Y-107766943D01*
X119588494Y-107790000D01*
X119391506Y-107790000D01*
X119275590Y-107766943D01*
X119198311Y-107751571D01*
X119016322Y-107676189D01*
X118852537Y-107566751D01*
X118713249Y-107427463D01*
X118603811Y-107263678D01*
X118528429Y-107081689D01*
X118492289Y-106900000D01*
X118490000Y-106888494D01*
X118490000Y-106691506D01*
X118527609Y-106502434D01*
X118528429Y-106498311D01*
X118603811Y-106316322D01*
X118713249Y-106152537D01*
X118852537Y-106013249D01*
X119016322Y-105903811D01*
X119198311Y-105828429D01*
X119275590Y-105813057D01*
X119391506Y-105790000D01*
X119588494Y-105790000D01*
X119704410Y-105813057D01*
X119704410Y-105813057D01*
G37*
G36*
X110244410Y-105813057D02*
X110321689Y-105828429D01*
X110503678Y-105903811D01*
X110667463Y-106013249D01*
X110806751Y-106152537D01*
X110916189Y-106316322D01*
X110991571Y-106498311D01*
X110992391Y-106502434D01*
X111030000Y-106691506D01*
X111030000Y-106888494D01*
X111027711Y-106900000D01*
X110991571Y-107081689D01*
X110916189Y-107263678D01*
X110806751Y-107427463D01*
X110667463Y-107566751D01*
X110503678Y-107676189D01*
X110321689Y-107751571D01*
X110244410Y-107766943D01*
X110128494Y-107790000D01*
X109931506Y-107790000D01*
X109815590Y-107766943D01*
X109738311Y-107751571D01*
X109556322Y-107676189D01*
X109392537Y-107566751D01*
X109253249Y-107427463D01*
X109143811Y-107263678D01*
X109068429Y-107081689D01*
X109032289Y-106900000D01*
X109030000Y-106888494D01*
X109030000Y-106691506D01*
X109067609Y-106502434D01*
X109068429Y-106498311D01*
X109143811Y-106316322D01*
X109253249Y-106152537D01*
X109392537Y-106013249D01*
X109556322Y-105903811D01*
X109738311Y-105828429D01*
X109815590Y-105813057D01*
X109931506Y-105790000D01*
X110128494Y-105790000D01*
X110244410Y-105813057D01*
X110244410Y-105813057D01*
G37*
G36*
X107704410Y-105813057D02*
X107781689Y-105828429D01*
X107963678Y-105903811D01*
X108127463Y-106013249D01*
X108266751Y-106152537D01*
X108376189Y-106316322D01*
X108451571Y-106498311D01*
X108452391Y-106502434D01*
X108490000Y-106691506D01*
X108490000Y-106888494D01*
X108487711Y-106900000D01*
X108451571Y-107081689D01*
X108376189Y-107263678D01*
X108266751Y-107427463D01*
X108127463Y-107566751D01*
X107963678Y-107676189D01*
X107781689Y-107751571D01*
X107704410Y-107766943D01*
X107588494Y-107790000D01*
X107391506Y-107790000D01*
X107275590Y-107766943D01*
X107198311Y-107751571D01*
X107016322Y-107676189D01*
X106852537Y-107566751D01*
X106713249Y-107427463D01*
X106603811Y-107263678D01*
X106528429Y-107081689D01*
X106492289Y-106900000D01*
X106490000Y-106888494D01*
X106490000Y-106691506D01*
X106527609Y-106502434D01*
X106528429Y-106498311D01*
X106603811Y-106316322D01*
X106713249Y-106152537D01*
X106852537Y-106013249D01*
X107016322Y-105903811D01*
X107198311Y-105828429D01*
X107275590Y-105813057D01*
X107391506Y-105790000D01*
X107588494Y-105790000D01*
X107704410Y-105813057D01*
X107704410Y-105813057D01*
G37*
G36*
X122244410Y-105813057D02*
X122321689Y-105828429D01*
X122503678Y-105903811D01*
X122667463Y-106013249D01*
X122806751Y-106152537D01*
X122916189Y-106316322D01*
X122991571Y-106498311D01*
X122992391Y-106502434D01*
X123030000Y-106691506D01*
X123030000Y-106888494D01*
X123027711Y-106900000D01*
X122991571Y-107081689D01*
X122916189Y-107263678D01*
X122806751Y-107427463D01*
X122667463Y-107566751D01*
X122503678Y-107676189D01*
X122321689Y-107751571D01*
X122244410Y-107766943D01*
X122128494Y-107790000D01*
X121931506Y-107790000D01*
X121815590Y-107766943D01*
X121738311Y-107751571D01*
X121556322Y-107676189D01*
X121392537Y-107566751D01*
X121253249Y-107427463D01*
X121143811Y-107263678D01*
X121068429Y-107081689D01*
X121032289Y-106900000D01*
X121030000Y-106888494D01*
X121030000Y-106691506D01*
X121067609Y-106502434D01*
X121068429Y-106498311D01*
X121143811Y-106316322D01*
X121253249Y-106152537D01*
X121392537Y-106013249D01*
X121556322Y-105903811D01*
X121738311Y-105828429D01*
X121815590Y-105813057D01*
X121931506Y-105790000D01*
X122128494Y-105790000D01*
X122244410Y-105813057D01*
X122244410Y-105813057D01*
G37*
G36*
X132750000Y-107750000D02*
X129250000Y-107750000D01*
X129250000Y-105050000D01*
X132750000Y-105050000D01*
X132750000Y-107750000D01*
X132750000Y-107750000D01*
G37*
G36*
X91100000Y-106900000D02*
X88500000Y-106900000D01*
X88500000Y-105100000D01*
X91100000Y-105100000D01*
X91100000Y-106900000D01*
X91100000Y-106900000D01*
G37*
G36*
X97996429Y-105113022D02*
X98166081Y-105164486D01*
X98322434Y-105248058D01*
X98459475Y-105360525D01*
X98571942Y-105497566D01*
X98655514Y-105653919D01*
X98706978Y-105823571D01*
X98724355Y-106000000D01*
X98706978Y-106176429D01*
X98655514Y-106346081D01*
X98571942Y-106502434D01*
X98459475Y-106639475D01*
X98322434Y-106751942D01*
X98166081Y-106835514D01*
X97996429Y-106886978D01*
X97864212Y-106900000D01*
X96975788Y-106900000D01*
X96843571Y-106886978D01*
X96673919Y-106835514D01*
X96517566Y-106751942D01*
X96380525Y-106639475D01*
X96268058Y-106502434D01*
X96184486Y-106346081D01*
X96133022Y-106176429D01*
X96115645Y-106000000D01*
X96133022Y-105823571D01*
X96184486Y-105653919D01*
X96268058Y-105497566D01*
X96380525Y-105360525D01*
X96517566Y-105248058D01*
X96673919Y-105164486D01*
X96843571Y-105113022D01*
X96975788Y-105100000D01*
X97864212Y-105100000D01*
X97996429Y-105113022D01*
X97996429Y-105113022D01*
G37*
G36*
X101400000Y-105950000D02*
X100400000Y-105950000D01*
X100400000Y-104850000D01*
X101400000Y-104850000D01*
X101400000Y-105950000D01*
X101400000Y-105950000D01*
G37*
G36*
X108974410Y-103273057D02*
X109051689Y-103288429D01*
X109233678Y-103363811D01*
X109397463Y-103473249D01*
X109536751Y-103612537D01*
X109646189Y-103776322D01*
X109721571Y-103958311D01*
X109721571Y-103958313D01*
X109760000Y-104151506D01*
X109760000Y-104348494D01*
X109759700Y-104350000D01*
X109721571Y-104541689D01*
X109646189Y-104723678D01*
X109536751Y-104887463D01*
X109397463Y-105026751D01*
X109233678Y-105136189D01*
X109051689Y-105211571D01*
X108974410Y-105226943D01*
X108858494Y-105250000D01*
X108661506Y-105250000D01*
X108545590Y-105226943D01*
X108468311Y-105211571D01*
X108286322Y-105136189D01*
X108122537Y-105026751D01*
X107983249Y-104887463D01*
X107873811Y-104723678D01*
X107798429Y-104541689D01*
X107760300Y-104350000D01*
X107760000Y-104348494D01*
X107760000Y-104151506D01*
X107798429Y-103958313D01*
X107798429Y-103958311D01*
X107873811Y-103776322D01*
X107983249Y-103612537D01*
X108122537Y-103473249D01*
X108286322Y-103363811D01*
X108468311Y-103288429D01*
X108545590Y-103273057D01*
X108661506Y-103250000D01*
X108858494Y-103250000D01*
X108974410Y-103273057D01*
X108974410Y-103273057D01*
G37*
G36*
X120974410Y-103273057D02*
X121051689Y-103288429D01*
X121233678Y-103363811D01*
X121397463Y-103473249D01*
X121536751Y-103612537D01*
X121646189Y-103776322D01*
X121721571Y-103958311D01*
X121721571Y-103958313D01*
X121760000Y-104151506D01*
X121760000Y-104348494D01*
X121759700Y-104350000D01*
X121721571Y-104541689D01*
X121646189Y-104723678D01*
X121536751Y-104887463D01*
X121397463Y-105026751D01*
X121233678Y-105136189D01*
X121051689Y-105211571D01*
X120974410Y-105226943D01*
X120858494Y-105250000D01*
X120661506Y-105250000D01*
X120545590Y-105226943D01*
X120468311Y-105211571D01*
X120286322Y-105136189D01*
X120122537Y-105026751D01*
X119983249Y-104887463D01*
X119873811Y-104723678D01*
X119798429Y-104541689D01*
X119760300Y-104350000D01*
X119760000Y-104348494D01*
X119760000Y-104151506D01*
X119798429Y-103958313D01*
X119798429Y-103958311D01*
X119873811Y-103776322D01*
X119983249Y-103612537D01*
X120122537Y-103473249D01*
X120286322Y-103363811D01*
X120468311Y-103288429D01*
X120545590Y-103273057D01*
X120661506Y-103250000D01*
X120858494Y-103250000D01*
X120974410Y-103273057D01*
X120974410Y-103273057D01*
G37*
G36*
X123514410Y-103273057D02*
X123591689Y-103288429D01*
X123773678Y-103363811D01*
X123937463Y-103473249D01*
X124076751Y-103612537D01*
X124186189Y-103776322D01*
X124261571Y-103958311D01*
X124261571Y-103958313D01*
X124300000Y-104151506D01*
X124300000Y-104348494D01*
X124299700Y-104350000D01*
X124261571Y-104541689D01*
X124186189Y-104723678D01*
X124076751Y-104887463D01*
X123937463Y-105026751D01*
X123773678Y-105136189D01*
X123591689Y-105211571D01*
X123514410Y-105226943D01*
X123398494Y-105250000D01*
X123201506Y-105250000D01*
X123085590Y-105226943D01*
X123008311Y-105211571D01*
X122826322Y-105136189D01*
X122662537Y-105026751D01*
X122523249Y-104887463D01*
X122413811Y-104723678D01*
X122338429Y-104541689D01*
X122300300Y-104350000D01*
X122300000Y-104348494D01*
X122300000Y-104151506D01*
X122338429Y-103958313D01*
X122338429Y-103958311D01*
X122413811Y-103776322D01*
X122523249Y-103612537D01*
X122662537Y-103473249D01*
X122826322Y-103363811D01*
X123008311Y-103288429D01*
X123085590Y-103273057D01*
X123201506Y-103250000D01*
X123398494Y-103250000D01*
X123514410Y-103273057D01*
X123514410Y-103273057D01*
G37*
G36*
X111514410Y-103273057D02*
X111591689Y-103288429D01*
X111773678Y-103363811D01*
X111937463Y-103473249D01*
X112076751Y-103612537D01*
X112186189Y-103776322D01*
X112261571Y-103958311D01*
X112261571Y-103958313D01*
X112300000Y-104151506D01*
X112300000Y-104348494D01*
X112299700Y-104350000D01*
X112261571Y-104541689D01*
X112186189Y-104723678D01*
X112076751Y-104887463D01*
X111937463Y-105026751D01*
X111773678Y-105136189D01*
X111591689Y-105211571D01*
X111514410Y-105226943D01*
X111398494Y-105250000D01*
X111201506Y-105250000D01*
X111085590Y-105226943D01*
X111008311Y-105211571D01*
X110826322Y-105136189D01*
X110662537Y-105026751D01*
X110523249Y-104887463D01*
X110413811Y-104723678D01*
X110338429Y-104541689D01*
X110300300Y-104350000D01*
X110300000Y-104348494D01*
X110300000Y-104151506D01*
X110338429Y-103958313D01*
X110338429Y-103958311D01*
X110413811Y-103776322D01*
X110523249Y-103612537D01*
X110662537Y-103473249D01*
X110826322Y-103363811D01*
X111008311Y-103288429D01*
X111085590Y-103273057D01*
X111201506Y-103250000D01*
X111398494Y-103250000D01*
X111514410Y-103273057D01*
X111514410Y-103273057D01*
G37*
G36*
X100600000Y-104250000D02*
X99100000Y-104250000D01*
X99100000Y-102350000D01*
X100600000Y-102350000D01*
X100600000Y-104250000D01*
X100600000Y-104250000D01*
G37*
G36*
X97100000Y-104250000D02*
X95600000Y-104250000D01*
X95600000Y-102350000D01*
X97100000Y-102350000D01*
X97100000Y-104250000D01*
X97100000Y-104250000D01*
G37*
G36*
X88400000Y-104250000D02*
X86900000Y-104250000D01*
X86900000Y-102350000D01*
X88400000Y-102350000D01*
X88400000Y-104250000D01*
X88400000Y-104250000D01*
G37*
G36*
X91900000Y-104250000D02*
X90400000Y-104250000D01*
X90400000Y-102350000D01*
X91900000Y-102350000D01*
X91900000Y-104250000D01*
X91900000Y-104250000D01*
G37*
G36*
X93373830Y-102629677D02*
X93414776Y-102642098D01*
X93452510Y-102662267D01*
X93485587Y-102689413D01*
X93512733Y-102722490D01*
X93532902Y-102760224D01*
X93545323Y-102801170D01*
X93550000Y-102848658D01*
X93550000Y-103551342D01*
X93545323Y-103598830D01*
X93532902Y-103639776D01*
X93512733Y-103677510D01*
X93485587Y-103710587D01*
X93452510Y-103737733D01*
X93414776Y-103757902D01*
X93373830Y-103770323D01*
X93326342Y-103775000D01*
X92698658Y-103775000D01*
X92651170Y-103770323D01*
X92610224Y-103757902D01*
X92572490Y-103737733D01*
X92539413Y-103710587D01*
X92512267Y-103677510D01*
X92492098Y-103639776D01*
X92479677Y-103598830D01*
X92475000Y-103551342D01*
X92475000Y-102848658D01*
X92479677Y-102801170D01*
X92492098Y-102760224D01*
X92512267Y-102722490D01*
X92539413Y-102689413D01*
X92572490Y-102662267D01*
X92610224Y-102642098D01*
X92651170Y-102629677D01*
X92698658Y-102625000D01*
X93326342Y-102625000D01*
X93373830Y-102629677D01*
X93373830Y-102629677D01*
G37*
G36*
X94948830Y-102629677D02*
X94989776Y-102642098D01*
X95027510Y-102662267D01*
X95060587Y-102689413D01*
X95087733Y-102722490D01*
X95107902Y-102760224D01*
X95120323Y-102801170D01*
X95125000Y-102848658D01*
X95125000Y-103551342D01*
X95120323Y-103598830D01*
X95107902Y-103639776D01*
X95087733Y-103677510D01*
X95060587Y-103710587D01*
X95027510Y-103737733D01*
X94989776Y-103757902D01*
X94948830Y-103770323D01*
X94901342Y-103775000D01*
X94273658Y-103775000D01*
X94226170Y-103770323D01*
X94185224Y-103757902D01*
X94147490Y-103737733D01*
X94114413Y-103710587D01*
X94087267Y-103677510D01*
X94067098Y-103639776D01*
X94054677Y-103598830D01*
X94050000Y-103551342D01*
X94050000Y-102848658D01*
X94054677Y-102801170D01*
X94067098Y-102760224D01*
X94087267Y-102722490D01*
X94114413Y-102689413D01*
X94147490Y-102662267D01*
X94185224Y-102642098D01*
X94226170Y-102629677D01*
X94273658Y-102625000D01*
X94901342Y-102625000D01*
X94948830Y-102629677D01*
X94948830Y-102629677D01*
G37*
G36*
X66750000Y-101950000D02*
X63250000Y-101950000D01*
X63250000Y-99250000D01*
X66750000Y-99250000D01*
X66750000Y-101950000D01*
X66750000Y-101950000D01*
G37*
G36*
X83258365Y-98353801D02*
X83258367Y-98353802D01*
X83258368Y-98353802D01*
X83377538Y-98403164D01*
X83513149Y-98459336D01*
X83742448Y-98612549D01*
X83937451Y-98807552D01*
X84090664Y-99036851D01*
X84196199Y-99291635D01*
X84250000Y-99562112D01*
X84250000Y-99837888D01*
X84196199Y-100108365D01*
X84090664Y-100363149D01*
X83937451Y-100592448D01*
X83742448Y-100787451D01*
X83513149Y-100940664D01*
X83258368Y-101046198D01*
X83258367Y-101046198D01*
X83258365Y-101046199D01*
X82987888Y-101100000D01*
X82712112Y-101100000D01*
X82441635Y-101046199D01*
X82441633Y-101046198D01*
X82441632Y-101046198D01*
X82186851Y-100940664D01*
X81957552Y-100787451D01*
X81762549Y-100592448D01*
X81609336Y-100363149D01*
X81503801Y-100108365D01*
X81450000Y-99837888D01*
X81450000Y-99562112D01*
X81503801Y-99291635D01*
X81609336Y-99036851D01*
X81762549Y-98807552D01*
X81957552Y-98612549D01*
X82186851Y-98459336D01*
X82322462Y-98403164D01*
X82441632Y-98353802D01*
X82441633Y-98353802D01*
X82441635Y-98353801D01*
X82712112Y-98300000D01*
X82987888Y-98300000D01*
X83258365Y-98353801D01*
X83258365Y-98353801D01*
G37*
G36*
X74658365Y-98353801D02*
X74658367Y-98353802D01*
X74658368Y-98353802D01*
X74777538Y-98403164D01*
X74913149Y-98459336D01*
X75142448Y-98612549D01*
X75337451Y-98807552D01*
X75490664Y-99036851D01*
X75596199Y-99291635D01*
X75650000Y-99562112D01*
X75650000Y-99837888D01*
X75596199Y-100108365D01*
X75490664Y-100363149D01*
X75337451Y-100592448D01*
X75142448Y-100787451D01*
X74913149Y-100940664D01*
X74658368Y-101046198D01*
X74658367Y-101046198D01*
X74658365Y-101046199D01*
X74387888Y-101100000D01*
X74112112Y-101100000D01*
X73841635Y-101046199D01*
X73841633Y-101046198D01*
X73841632Y-101046198D01*
X73586851Y-100940664D01*
X73357552Y-100787451D01*
X73162549Y-100592448D01*
X73009336Y-100363149D01*
X72903801Y-100108365D01*
X72850000Y-99837888D01*
X72850000Y-99562112D01*
X72903801Y-99291635D01*
X73009336Y-99036851D01*
X73162549Y-98807552D01*
X73357552Y-98612549D01*
X73586851Y-98459336D01*
X73722462Y-98403164D01*
X73841632Y-98353802D01*
X73841633Y-98353802D01*
X73841635Y-98353801D01*
X74112112Y-98300000D01*
X74387888Y-98300000D01*
X74658365Y-98353801D01*
X74658365Y-98353801D01*
G37*
G36*
X91858365Y-98353801D02*
X91858367Y-98353802D01*
X91858368Y-98353802D01*
X91977538Y-98403164D01*
X92113149Y-98459336D01*
X92342448Y-98612549D01*
X92537451Y-98807552D01*
X92690664Y-99036851D01*
X92796199Y-99291635D01*
X92850000Y-99562112D01*
X92850000Y-99837888D01*
X92796199Y-100108365D01*
X92690664Y-100363149D01*
X92537451Y-100592448D01*
X92342448Y-100787451D01*
X92113149Y-100940664D01*
X91858368Y-101046198D01*
X91858367Y-101046198D01*
X91858365Y-101046199D01*
X91587888Y-101100000D01*
X91312112Y-101100000D01*
X91041635Y-101046199D01*
X91041633Y-101046198D01*
X91041632Y-101046198D01*
X90786851Y-100940664D01*
X90557552Y-100787451D01*
X90362549Y-100592448D01*
X90209336Y-100363149D01*
X90103801Y-100108365D01*
X90050000Y-99837888D01*
X90050000Y-99562112D01*
X90103801Y-99291635D01*
X90209336Y-99036851D01*
X90362549Y-98807552D01*
X90557552Y-98612549D01*
X90786851Y-98459336D01*
X90922462Y-98403164D01*
X91041632Y-98353802D01*
X91041633Y-98353802D01*
X91041635Y-98353801D01*
X91312112Y-98300000D01*
X91587888Y-98300000D01*
X91858365Y-98353801D01*
X91858365Y-98353801D01*
G37*
G36*
X100458365Y-98353801D02*
X100458367Y-98353802D01*
X100458368Y-98353802D01*
X100577538Y-98403164D01*
X100713149Y-98459336D01*
X100942448Y-98612549D01*
X101137451Y-98807552D01*
X101290664Y-99036851D01*
X101396199Y-99291635D01*
X101450000Y-99562112D01*
X101450000Y-99837888D01*
X101396199Y-100108365D01*
X101290664Y-100363149D01*
X101137451Y-100592448D01*
X100942448Y-100787451D01*
X100713149Y-100940664D01*
X100458368Y-101046198D01*
X100458367Y-101046198D01*
X100458365Y-101046199D01*
X100187888Y-101100000D01*
X99912112Y-101100000D01*
X99641635Y-101046199D01*
X99641633Y-101046198D01*
X99641632Y-101046198D01*
X99386851Y-100940664D01*
X99157552Y-100787451D01*
X98962549Y-100592448D01*
X98809336Y-100363149D01*
X98703801Y-100108365D01*
X98650000Y-99837888D01*
X98650000Y-99562112D01*
X98703801Y-99291635D01*
X98809336Y-99036851D01*
X98962549Y-98807552D01*
X99157552Y-98612549D01*
X99386851Y-98459336D01*
X99522462Y-98403164D01*
X99641632Y-98353802D01*
X99641633Y-98353802D01*
X99641635Y-98353801D01*
X99912112Y-98300000D01*
X100187888Y-98300000D01*
X100458365Y-98353801D01*
X100458365Y-98353801D01*
G37*
G36*
X132750000Y-100950000D02*
X129250000Y-100950000D01*
X129250000Y-98250000D01*
X132750000Y-98250000D01*
X132750000Y-100950000D01*
X132750000Y-100950000D01*
G37*
G36*
X106093164Y-96241290D02*
X106407094Y-96371324D01*
X106689624Y-96560105D01*
X106929895Y-96800376D01*
X107118676Y-97082906D01*
X107248710Y-97396836D01*
X107315000Y-97730102D01*
X107315000Y-98069898D01*
X107248710Y-98403164D01*
X107118676Y-98717094D01*
X106929895Y-98999624D01*
X106689624Y-99239895D01*
X106407094Y-99428676D01*
X106093164Y-99558710D01*
X105759898Y-99625000D01*
X105420102Y-99625000D01*
X105086836Y-99558710D01*
X104772906Y-99428676D01*
X104490376Y-99239895D01*
X104250105Y-98999624D01*
X104061324Y-98717094D01*
X103931290Y-98403164D01*
X103865000Y-98069898D01*
X103865000Y-97730102D01*
X103931290Y-97396836D01*
X104061324Y-97082906D01*
X104250105Y-96800376D01*
X104490376Y-96560105D01*
X104772906Y-96371324D01*
X105086836Y-96241290D01*
X105420102Y-96175000D01*
X105759898Y-96175000D01*
X106093164Y-96241290D01*
X106093164Y-96241290D01*
G37*
G36*
X113713164Y-96241290D02*
X114027094Y-96371324D01*
X114309624Y-96560105D01*
X114549895Y-96800376D01*
X114738676Y-97082906D01*
X114868710Y-97396836D01*
X114935000Y-97730102D01*
X114935000Y-98069898D01*
X114868710Y-98403164D01*
X114738676Y-98717094D01*
X114549895Y-98999624D01*
X114309624Y-99239895D01*
X114027094Y-99428676D01*
X113713164Y-99558710D01*
X113379898Y-99625000D01*
X113040102Y-99625000D01*
X112706836Y-99558710D01*
X112392906Y-99428676D01*
X112110376Y-99239895D01*
X111870105Y-98999624D01*
X111681324Y-98717094D01*
X111551290Y-98403164D01*
X111485000Y-98069898D01*
X111485000Y-97730102D01*
X111551290Y-97396836D01*
X111681324Y-97082906D01*
X111870105Y-96800376D01*
X112110376Y-96560105D01*
X112392906Y-96371324D01*
X112706836Y-96241290D01*
X113040102Y-96175000D01*
X113379898Y-96175000D01*
X113713164Y-96241290D01*
X113713164Y-96241290D01*
G37*
G36*
X118093164Y-96241290D02*
X118407094Y-96371324D01*
X118689624Y-96560105D01*
X118929895Y-96800376D01*
X119118676Y-97082906D01*
X119248710Y-97396836D01*
X119315000Y-97730102D01*
X119315000Y-98069898D01*
X119248710Y-98403164D01*
X119118676Y-98717094D01*
X118929895Y-98999624D01*
X118689624Y-99239895D01*
X118407094Y-99428676D01*
X118093164Y-99558710D01*
X117759898Y-99625000D01*
X117420102Y-99625000D01*
X117086836Y-99558710D01*
X116772906Y-99428676D01*
X116490376Y-99239895D01*
X116250105Y-98999624D01*
X116061324Y-98717094D01*
X115931290Y-98403164D01*
X115865000Y-98069898D01*
X115865000Y-97730102D01*
X115931290Y-97396836D01*
X116061324Y-97082906D01*
X116250105Y-96800376D01*
X116490376Y-96560105D01*
X116772906Y-96371324D01*
X117086836Y-96241290D01*
X117420102Y-96175000D01*
X117759898Y-96175000D01*
X118093164Y-96241290D01*
X118093164Y-96241290D01*
G37*
G36*
X125713164Y-96241290D02*
X126027094Y-96371324D01*
X126309624Y-96560105D01*
X126549895Y-96800376D01*
X126738676Y-97082906D01*
X126868710Y-97396836D01*
X126935000Y-97730102D01*
X126935000Y-98069898D01*
X126868710Y-98403164D01*
X126738676Y-98717094D01*
X126549895Y-98999624D01*
X126309624Y-99239895D01*
X126027094Y-99428676D01*
X125713164Y-99558710D01*
X125379898Y-99625000D01*
X125040102Y-99625000D01*
X124706836Y-99558710D01*
X124392906Y-99428676D01*
X124110376Y-99239895D01*
X123870105Y-98999624D01*
X123681324Y-98717094D01*
X123551290Y-98403164D01*
X123485000Y-98069898D01*
X123485000Y-97730102D01*
X123551290Y-97396836D01*
X123681324Y-97082906D01*
X123870105Y-96800376D01*
X124110376Y-96560105D01*
X124392906Y-96371324D01*
X124706836Y-96241290D01*
X125040102Y-96175000D01*
X125379898Y-96175000D01*
X125713164Y-96241290D01*
X125713164Y-96241290D01*
G37*
G36*
X65495872Y-93365330D02*
X65495874Y-93365331D01*
X65495875Y-93365331D01*
X65556284Y-93390353D01*
X65805252Y-93493479D01*
X66083687Y-93679523D01*
X66320477Y-93916313D01*
X66506521Y-94194748D01*
X66609647Y-94443716D01*
X66634669Y-94504125D01*
X66700000Y-94832567D01*
X66700000Y-95167433D01*
X66634669Y-95495875D01*
X66630259Y-95506521D01*
X66506521Y-95805252D01*
X66320477Y-96083687D01*
X66083687Y-96320477D01*
X65805252Y-96506521D01*
X65556284Y-96609647D01*
X65495875Y-96634669D01*
X65495874Y-96634669D01*
X65495872Y-96634670D01*
X65167435Y-96700000D01*
X64832565Y-96700000D01*
X64504128Y-96634670D01*
X64504126Y-96634669D01*
X64504125Y-96634669D01*
X64443716Y-96609647D01*
X64194748Y-96506521D01*
X63916313Y-96320477D01*
X63679523Y-96083687D01*
X63493479Y-95805252D01*
X63369741Y-95506521D01*
X63365331Y-95495875D01*
X63300000Y-95167433D01*
X63300000Y-94832567D01*
X63365331Y-94504125D01*
X63390353Y-94443716D01*
X63493479Y-94194748D01*
X63679523Y-93916313D01*
X63916313Y-93679523D01*
X64194748Y-93493479D01*
X64443716Y-93390353D01*
X64504125Y-93365331D01*
X64504126Y-93365331D01*
X64504128Y-93365330D01*
X64832565Y-93300000D01*
X65167435Y-93300000D01*
X65495872Y-93365330D01*
X65495872Y-93365330D01*
G37*
G36*
X72150000Y-96100000D02*
X69350000Y-96100000D01*
X69350000Y-93300000D01*
X72150000Y-93300000D01*
X72150000Y-96100000D01*
X72150000Y-96100000D01*
G37*
G36*
X97950000Y-96100000D02*
X95150000Y-96100000D01*
X95150000Y-93300000D01*
X97950000Y-93300000D01*
X97950000Y-96100000D01*
X97950000Y-96100000D01*
G37*
G36*
X80750000Y-96100000D02*
X77950000Y-96100000D01*
X77950000Y-93300000D01*
X80750000Y-93300000D01*
X80750000Y-96100000D01*
X80750000Y-96100000D01*
G37*
G36*
X89350000Y-96100000D02*
X86550000Y-96100000D01*
X86550000Y-93300000D01*
X89350000Y-93300000D01*
X89350000Y-96100000D01*
X89350000Y-96100000D01*
G37*
G36*
X131495872Y-92365330D02*
X131495874Y-92365331D01*
X131495875Y-92365331D01*
X131556284Y-92390353D01*
X131805252Y-92493479D01*
X132083687Y-92679523D01*
X132320477Y-92916313D01*
X132506521Y-93194748D01*
X132609647Y-93443716D01*
X132630260Y-93493480D01*
X132634670Y-93504128D01*
X132700000Y-93832565D01*
X132700000Y-94167435D01*
X132634670Y-94495872D01*
X132506521Y-94805252D01*
X132320477Y-95083687D01*
X132083687Y-95320477D01*
X131805252Y-95506521D01*
X131556284Y-95609647D01*
X131495875Y-95634669D01*
X131495874Y-95634669D01*
X131495872Y-95634670D01*
X131167435Y-95700000D01*
X130832565Y-95700000D01*
X130504128Y-95634670D01*
X130504126Y-95634669D01*
X130504125Y-95634669D01*
X130443716Y-95609647D01*
X130194748Y-95506521D01*
X129916313Y-95320477D01*
X129679523Y-95083687D01*
X129493479Y-94805252D01*
X129365330Y-94495872D01*
X129300000Y-94167435D01*
X129300000Y-93832565D01*
X129365330Y-93504128D01*
X129369741Y-93493480D01*
X129390353Y-93443716D01*
X129493479Y-93194748D01*
X129679523Y-92916313D01*
X129916313Y-92679523D01*
X130194748Y-92493479D01*
X130443716Y-92390353D01*
X130504125Y-92365331D01*
X130504126Y-92365331D01*
X130504128Y-92365330D01*
X130832565Y-92300000D01*
X131167435Y-92300000D01*
X131495872Y-92365330D01*
X131495872Y-92365330D01*
G37*
M02*
