G04 #@! TF.GenerationSoftware,KiCad,Pcbnew,(5.0.2)-1*
G04 #@! TF.CreationDate,2019-05-09T19:07:32+02:00*
G04 #@! TF.ProjectId,SystemSupply,53797374-656d-4537-9570-706c792e6b69,rev?*
G04 #@! TF.SameCoordinates,Original*
G04 #@! TF.FileFunction,Copper,L2,Bot*
G04 #@! TF.FilePolarity,Positive*
%FSLAX46Y46*%
G04 Gerber Fmt 4.6, Leading zero omitted, Abs format (unit mm)*
G04 Created by KiCad (PCBNEW (5.0.2)-1) date 09.05.2019 19:07:32*
%MOMM*%
%LPD*%
G01*
G04 APERTURE LIST*
G04 #@! TA.AperFunction,ComponentPad*
%ADD10R,3.450000X3.450000*%
G04 #@! TD*
G04 #@! TA.AperFunction,ComponentPad*
%ADD11C,4.200000*%
G04 #@! TD*
G04 #@! TA.AperFunction,ComponentPad*
%ADD12C,2.200000*%
G04 #@! TD*
G04 #@! TA.AperFunction,ComponentPad*
%ADD13O,3.048000X1.727200*%
G04 #@! TD*
G04 #@! TA.AperFunction,ComponentPad*
%ADD14C,1.800000*%
G04 #@! TD*
G04 #@! TA.AperFunction,ComponentPad*
%ADD15R,2.600000X2.600000*%
G04 #@! TD*
G04 #@! TA.AperFunction,ComponentPad*
%ADD16C,2.600000*%
G04 #@! TD*
G04 #@! TA.AperFunction,ComponentPad*
%ADD17O,2.000000X4.700000*%
G04 #@! TD*
G04 #@! TA.AperFunction,ComponentPad*
%ADD18O,2.000000X4.750000*%
G04 #@! TD*
G04 #@! TA.AperFunction,ComponentPad*
%ADD19O,4.000000X2.400000*%
G04 #@! TD*
G04 #@! TA.AperFunction,ComponentPad*
%ADD20O,4.000000X2.500000*%
G04 #@! TD*
G04 #@! TA.AperFunction,ComponentPad*
%ADD21C,1.600000*%
G04 #@! TD*
G04 #@! TA.AperFunction,ComponentPad*
%ADD22C,2.000000*%
G04 #@! TD*
G04 #@! TA.AperFunction,ComponentPad*
%ADD23C,3.700000*%
G04 #@! TD*
G04 #@! TA.AperFunction,ComponentPad*
%ADD24O,2.400000X1.600000*%
G04 #@! TD*
G04 #@! TA.AperFunction,ComponentPad*
%ADD25R,2.400000X1.600000*%
G04 #@! TD*
G04 #@! TA.AperFunction,ComponentPad*
%ADD26O,1.400000X1.400000*%
G04 #@! TD*
G04 #@! TA.AperFunction,ComponentPad*
%ADD27C,1.400000*%
G04 #@! TD*
G04 #@! TA.AperFunction,ViaPad*
%ADD28C,0.600000*%
G04 #@! TD*
G04 #@! TA.AperFunction,Conductor*
%ADD29C,5.000000*%
G04 #@! TD*
G04 #@! TA.AperFunction,Conductor*
%ADD30C,2.000000*%
G04 #@! TD*
G04 #@! TA.AperFunction,Conductor*
%ADD31C,0.500000*%
G04 #@! TD*
G04 #@! TA.AperFunction,Conductor*
%ADD32C,0.254000*%
G04 #@! TD*
G04 #@! TA.AperFunction,Conductor*
%ADD33C,0.250000*%
G04 #@! TD*
G04 APERTURE END LIST*
D10*
G04 #@! TO.P,U2,4*
G04 #@! TO.N,GND*
X125800000Y-121900000D03*
G04 #@! TO.P,U2,3*
G04 #@! TO.N,/OUT+*
X108400000Y-121900000D03*
G04 #@! TO.P,U2,2*
G04 #@! TO.N,GNDPWR*
X125800000Y-161900000D03*
G04 #@! TO.P,U2,1*
G04 #@! TO.N,/IN+*
X108400000Y-161900000D03*
G04 #@! TD*
D11*
G04 #@! TO.P,K1,14*
G04 #@! TO.N,Net-(F1-Pad1)*
X84100000Y-123700000D03*
G04 #@! TO.P,K1,11*
G04 #@! TO.N,Net-(D1-Pad1)*
X86640000Y-141500000D03*
D12*
G04 #@! TO.P,K1,A1*
G04 #@! TO.N,Net-(J6-Pad1)*
X99500000Y-127500000D03*
G04 #@! TO.P,K1,A2*
G04 #@! TO.N,Net-(J6-Pad2)*
X99500000Y-137700000D03*
G04 #@! TD*
D13*
G04 #@! TO.P,SW3,1*
G04 #@! TO.N,Net-(D6-Pad2)*
X101500000Y-114300000D03*
G04 #@! TO.P,SW3,2*
G04 #@! TO.N,GND*
X101500000Y-119300000D03*
G04 #@! TO.P,SW3,1*
G04 #@! TO.N,Net-(D6-Pad2)*
X89000000Y-114300000D03*
G04 #@! TO.P,SW3,2*
G04 #@! TO.N,GND*
X89000000Y-119300000D03*
G04 #@! TD*
D14*
G04 #@! TO.P,J3,1*
G04 #@! TO.N,GND*
X123300000Y-104250000D03*
G04 #@! TO.P,J3,2*
G04 #@! TO.N,Net-(D2-Pad1)*
X122030000Y-106790000D03*
G04 #@! TO.P,J3,4*
G04 #@! TO.N,Net-(J3-Pad4)*
X119490000Y-106790000D03*
G04 #@! TO.P,J3,3*
G04 #@! TO.N,Net-(J3-Pad3)*
X120760000Y-104250000D03*
G04 #@! TD*
G04 #@! TO.P,J7,1*
G04 #@! TO.N,GND*
X111300000Y-104250000D03*
G04 #@! TO.P,J7,2*
G04 #@! TO.N,Net-(D2-Pad1)*
X110030000Y-106790000D03*
G04 #@! TO.P,J7,4*
G04 #@! TO.N,Net-(J3-Pad4)*
X107490000Y-106790000D03*
G04 #@! TO.P,J7,3*
G04 #@! TO.N,Net-(J3-Pad3)*
X108760000Y-104250000D03*
G04 #@! TD*
D15*
G04 #@! TO.P,J10,1*
G04 #@! TO.N,Net-(D7-Pad2)*
X87950000Y-94700000D03*
D16*
G04 #@! TO.P,J10,2*
G04 #@! TO.N,Net-(J10-Pad2)*
X91450000Y-99700000D03*
G04 #@! TD*
D15*
G04 #@! TO.P,J9,1*
G04 #@! TO.N,Net-(D6-Pad2)*
X96550000Y-94700000D03*
D16*
G04 #@! TO.P,J9,2*
G04 #@! TO.N,+12V*
X100050000Y-99700000D03*
G04 #@! TD*
D15*
G04 #@! TO.P,J8,1*
G04 #@! TO.N,GND*
X70750000Y-94700000D03*
D16*
G04 #@! TO.P,J8,2*
G04 #@! TO.N,Net-(D5-Pad1)*
X74250000Y-99700000D03*
G04 #@! TD*
D15*
G04 #@! TO.P,J6,1*
G04 #@! TO.N,Net-(J6-Pad1)*
X79350000Y-94700000D03*
D16*
G04 #@! TO.P,J6,2*
G04 #@! TO.N,Net-(J6-Pad2)*
X82850000Y-99700000D03*
G04 #@! TD*
D17*
G04 #@! TO.P,F1,2*
G04 #@! TO.N,Net-(F1-Pad2)*
X61920000Y-123572000D03*
D18*
X72080000Y-123572000D03*
D17*
G04 #@! TO.P,F1,1*
G04 #@! TO.N,Net-(F1-Pad1)*
X61920000Y-114428000D03*
D18*
X72080000Y-114428000D03*
G04 #@! TD*
D19*
G04 #@! TO.P,J4,1*
G04 #@! TO.N,GNDPWR*
X68100000Y-137900000D03*
D20*
X63100000Y-137900000D03*
G04 #@! TD*
D19*
G04 #@! TO.P,J5,1*
G04 #@! TO.N,GNDPWR*
X68100000Y-147900000D03*
D20*
X63100000Y-147900000D03*
G04 #@! TD*
D19*
G04 #@! TO.P,J2,1*
G04 #@! TO.N,Net-(F1-Pad2)*
X68100000Y-130900000D03*
D20*
X63100000Y-130900000D03*
G04 #@! TD*
D19*
G04 #@! TO.P,J1,1*
G04 #@! TO.N,+24V*
X68100000Y-154900000D03*
D20*
X63100000Y-154900000D03*
G04 #@! TD*
D21*
G04 #@! TO.P,C4,2*
G04 #@! TO.N,GND*
X130300000Y-120700000D03*
G04 #@! TO.P,C4,1*
G04 #@! TO.N,+12V*
X132300000Y-120700000D03*
G04 #@! TD*
G04 #@! TO.P,C3,1*
G04 #@! TO.N,/IN+*
X103900000Y-159500000D03*
G04 #@! TO.P,C3,2*
G04 #@! TO.N,GNDPWR*
X101900000Y-159500000D03*
G04 #@! TD*
D22*
G04 #@! TO.P,TP1,1*
G04 #@! TO.N,Net-(D1-Pad1)*
X72900000Y-150400000D03*
G04 #@! TD*
G04 #@! TO.P,TP5,1*
G04 #@! TO.N,+12V*
X123000000Y-117000000D03*
G04 #@! TD*
G04 #@! TO.P,TP6,1*
G04 #@! TO.N,GND*
X109700000Y-117000000D03*
G04 #@! TD*
D23*
G04 #@! TO.P,SW2,3*
G04 #@! TO.N,Net-(D5-Pad1)*
X72600000Y-106300000D03*
G04 #@! TO.P,SW2,2*
X77300000Y-106300000D03*
G04 #@! TO.P,SW2,1*
G04 #@! TO.N,+12V*
X82000000Y-106300000D03*
G04 #@! TD*
G04 #@! TO.P,SW1,3*
G04 #@! TO.N,Net-(D2-Pad1)*
X120900000Y-111600000D03*
G04 #@! TO.P,SW1,2*
X116200000Y-111600000D03*
G04 #@! TO.P,SW1,1*
G04 #@! TO.N,+12V*
X111500000Y-111600000D03*
G04 #@! TD*
D22*
G04 #@! TO.P,U3,5*
G04 #@! TO.N,GND*
X109740000Y-132240000D03*
G04 #@! TO.P,U3,4*
G04 #@! TO.N,Net-(U3-Pad4)*
X119900000Y-132240000D03*
G04 #@! TO.P,U3,3*
G04 #@! TO.N,/OUT+*
X130060000Y-132240000D03*
G04 #@! TO.P,U3,6*
G04 #@! TO.N,Net-(U3-Pad6)*
X109740000Y-152560000D03*
G04 #@! TO.P,U3,1*
G04 #@! TO.N,/IN+*
X122440000Y-152560000D03*
G04 #@! TO.P,U3,2*
G04 #@! TO.N,GNDPWR*
X117360000Y-152560000D03*
G04 #@! TD*
D24*
G04 #@! TO.P,U4,4*
G04 #@! TO.N,+12V*
X97420000Y-106000000D03*
G04 #@! TO.P,U4,2*
G04 #@! TO.N,Net-(D7-Pad2)*
X89800000Y-108540000D03*
G04 #@! TO.P,U4,3*
G04 #@! TO.N,Net-(Q2-Pad1)*
X97420000Y-108540000D03*
D25*
G04 #@! TO.P,U4,1*
G04 #@! TO.N,Net-(D7-Pad1)*
X89800000Y-106000000D03*
G04 #@! TD*
D26*
G04 #@! TO.P,R1,2*
G04 #@! TO.N,GNDPWR*
X90500000Y-152580000D03*
D27*
G04 #@! TO.P,R1,1*
G04 #@! TO.N,Net-(D1-Pad1)*
X90500000Y-147500000D03*
G04 #@! TD*
D28*
G04 #@! TO.N,Net-(D1-Pad1)*
X75900000Y-148000000D03*
X75900000Y-151000000D03*
X75900000Y-149000000D03*
X78400000Y-148000000D03*
X78400000Y-149000000D03*
X78400000Y-150000000D03*
X78400000Y-151000000D03*
X75900000Y-150000000D03*
G04 #@! TO.N,GNDPWR*
X118000000Y-162000000D03*
X132000000Y-156000000D03*
X132000000Y-156000000D03*
X132000000Y-156000000D03*
X132000000Y-149000000D03*
X126000000Y-149000000D03*
X114000000Y-149000000D03*
X106000000Y-149000000D03*
X99500000Y-147800000D03*
X98000000Y-159000000D03*
X93000000Y-157000000D03*
X92000000Y-150000000D03*
X90000000Y-150000000D03*
G04 #@! TO.N,GND*
X132000000Y-144000000D03*
X126000000Y-144000000D03*
X114000000Y-144000000D03*
X106000000Y-144000000D03*
X103000000Y-140000000D03*
X132000000Y-137000000D03*
X132000000Y-114000000D03*
X132000000Y-103000000D03*
X127000000Y-93000000D03*
X117000000Y-93000000D03*
X109000000Y-93000000D03*
X101000000Y-93000000D03*
X92000000Y-93000000D03*
X84000000Y-93000000D03*
X75000000Y-93000000D03*
X65000000Y-104000000D03*
X95000000Y-131000000D03*
X95000000Y-126000000D03*
X94000000Y-120000000D03*
X84000000Y-112000000D03*
X94000000Y-107000000D03*
X97000000Y-113000000D03*
X107000000Y-116000000D03*
G04 #@! TO.N,+24V*
X76000000Y-157500000D03*
X76000000Y-159000000D03*
X77500000Y-157500000D03*
X79000000Y-157500000D03*
X79000000Y-159000000D03*
X77500000Y-159000000D03*
X79000000Y-160500000D03*
X77500000Y-160500000D03*
G04 #@! TD*
D29*
G04 #@! TO.N,Net-(D1-Pad1)*
X86640000Y-141500000D02*
X81200000Y-141500000D01*
X77160000Y-145540000D02*
X77160000Y-149450000D01*
X81200000Y-141500000D02*
X77160000Y-145540000D01*
G04 #@! TO.N,GNDPWR*
X63100000Y-147900000D02*
X68100000Y-147900000D01*
X68100000Y-147900000D02*
X68100000Y-137900000D01*
X63100000Y-137900000D02*
X68100000Y-137900000D01*
X63100000Y-137900000D02*
X63100000Y-147900000D01*
X99500000Y-146000000D02*
X99500000Y-147800000D01*
X88500000Y-135000000D02*
X99500000Y-146000000D01*
X68100000Y-137900000D02*
X72285045Y-137900000D01*
X75185045Y-135000000D02*
X88500000Y-135000000D01*
X72285045Y-137900000D02*
X75185045Y-135000000D01*
X99500000Y-147800000D02*
X99500000Y-147800000D01*
D30*
X122075000Y-161900000D02*
X121975000Y-161800000D01*
X125800000Y-161900000D02*
X122075000Y-161900000D01*
G04 #@! TO.N,GND*
X125400000Y-106350000D02*
X123300000Y-104250000D01*
X125400000Y-121600000D02*
X125400000Y-106350000D01*
X111300000Y-102800000D02*
X111300000Y-104250000D01*
X121600000Y-101200000D02*
X112900000Y-101200000D01*
X112900000Y-101200000D02*
X111300000Y-102800000D01*
X123300000Y-104250000D02*
X123300000Y-102900000D01*
X123300000Y-102900000D02*
X121600000Y-101200000D01*
D29*
G04 #@! TO.N,+24V*
X63100000Y-154900000D02*
X75900000Y-154900000D01*
X75900000Y-154900000D02*
X77500000Y-156500000D01*
X77500000Y-156500000D02*
X77500000Y-160500000D01*
D30*
G04 #@! TO.N,+12V*
X85300000Y-103000000D02*
X83849999Y-104450001D01*
X100283705Y-103000000D02*
X85300000Y-103000000D01*
X111500000Y-111600000D02*
X108883705Y-111600000D01*
X83849999Y-104450001D02*
X82000000Y-106300000D01*
X108883705Y-111600000D02*
X100283705Y-103000000D01*
D31*
X99750000Y-99700000D02*
X99850000Y-99800000D01*
X99850000Y-99800000D02*
X99850000Y-102566295D01*
X97420000Y-106000000D02*
X97420000Y-103380000D01*
D29*
G04 #@! TO.N,Net-(F1-Pad1)*
X72080000Y-114428000D02*
X62775010Y-114428000D01*
X74928000Y-114428000D02*
X72080000Y-114428000D01*
X84100000Y-123700000D02*
X84100000Y-123600000D01*
X84100000Y-123600000D02*
X74928000Y-114428000D01*
G04 #@! TO.N,Net-(F1-Pad2)*
X72080000Y-123572000D02*
X62775010Y-123572000D01*
X68100000Y-130900000D02*
X68100000Y-123572000D01*
X63100000Y-130900000D02*
X68100000Y-130900000D01*
X63100000Y-130900000D02*
X63100000Y-123896990D01*
D30*
G04 #@! TO.N,Net-(D2-Pad1)*
X111390000Y-106790000D02*
X110030000Y-106790000D01*
X116200000Y-111600000D02*
X111390000Y-106790000D01*
X122030000Y-110470000D02*
X122030000Y-106790000D01*
X120900000Y-111600000D02*
X122030000Y-110470000D01*
X116200000Y-111600000D02*
X120900000Y-111600000D01*
G04 #@! TD*
D32*
G04 #@! TO.N,GNDPWR*
G36*
X101873000Y-147500000D02*
X101882667Y-147548601D01*
X101910197Y-147589803D01*
X101951399Y-147617333D01*
X102000000Y-147627000D01*
X134290001Y-147627000D01*
X134290001Y-164290000D01*
X86127000Y-164290000D01*
X86127000Y-159279431D01*
X100668560Y-159279431D01*
X100677890Y-159767473D01*
X100846706Y-160175030D01*
X101040896Y-160255867D01*
X101796762Y-159500000D01*
X101040896Y-158744133D01*
X100846706Y-158824970D01*
X100668560Y-159279431D01*
X86127000Y-159279431D01*
X86127000Y-158640896D01*
X101144133Y-158640896D01*
X101900000Y-159396762D01*
X101914142Y-159382620D01*
X102017380Y-159485858D01*
X102003238Y-159500000D01*
X102017380Y-159514142D01*
X101914142Y-159617380D01*
X101900000Y-159603238D01*
X101144133Y-160359104D01*
X101224970Y-160553294D01*
X101679431Y-160731440D01*
X102167473Y-160722110D01*
X102575030Y-160553294D01*
X102655866Y-160359106D01*
X102731238Y-160434478D01*
X102768160Y-160397556D01*
X103087138Y-160716534D01*
X103614561Y-160935000D01*
X104185439Y-160935000D01*
X104712862Y-160716534D01*
X105116534Y-160312862D01*
X105173638Y-160175000D01*
X106027560Y-160175000D01*
X106027560Y-163625000D01*
X106076843Y-163872765D01*
X106217191Y-164082809D01*
X106427235Y-164223157D01*
X106675000Y-164272440D01*
X110125000Y-164272440D01*
X110372765Y-164223157D01*
X110582809Y-164082809D01*
X110723157Y-163872765D01*
X110772440Y-163625000D01*
X110772440Y-162079750D01*
X123648000Y-162079750D01*
X123648000Y-163709935D01*
X123713007Y-163866876D01*
X123833124Y-163986993D01*
X123990064Y-164052000D01*
X125620250Y-164052000D01*
X125727000Y-163945250D01*
X125727000Y-161973000D01*
X125873000Y-161973000D01*
X125873000Y-163945250D01*
X125979750Y-164052000D01*
X127609936Y-164052000D01*
X127766876Y-163986993D01*
X127886993Y-163866876D01*
X127952000Y-163709935D01*
X127952000Y-162079750D01*
X127845250Y-161973000D01*
X125873000Y-161973000D01*
X125727000Y-161973000D01*
X123754750Y-161973000D01*
X123648000Y-162079750D01*
X110772440Y-162079750D01*
X110772440Y-160175000D01*
X110755546Y-160090065D01*
X123648000Y-160090065D01*
X123648000Y-161720250D01*
X123754750Y-161827000D01*
X125727000Y-161827000D01*
X125727000Y-159854750D01*
X125873000Y-159854750D01*
X125873000Y-161827000D01*
X127845250Y-161827000D01*
X127952000Y-161720250D01*
X127952000Y-160896026D01*
X128105259Y-161266026D01*
X128733974Y-161894741D01*
X129555431Y-162235000D01*
X130444569Y-162235000D01*
X131266026Y-161894741D01*
X131894741Y-161266026D01*
X132235000Y-160444569D01*
X132235000Y-159555431D01*
X131894741Y-158733974D01*
X131266026Y-158105259D01*
X130444569Y-157765000D01*
X129555431Y-157765000D01*
X128733974Y-158105259D01*
X128105259Y-158733974D01*
X127765000Y-159555431D01*
X127765000Y-159812230D01*
X127609936Y-159748000D01*
X125979750Y-159748000D01*
X125873000Y-159854750D01*
X125727000Y-159854750D01*
X125620250Y-159748000D01*
X123990064Y-159748000D01*
X123833124Y-159813007D01*
X123713007Y-159933124D01*
X123648000Y-160090065D01*
X110755546Y-160090065D01*
X110723157Y-159927235D01*
X110582809Y-159717191D01*
X110372765Y-159576843D01*
X110125000Y-159527560D01*
X106675000Y-159527560D01*
X106427235Y-159576843D01*
X106217191Y-159717191D01*
X106076843Y-159927235D01*
X106027560Y-160175000D01*
X105173638Y-160175000D01*
X105335000Y-159785439D01*
X105335000Y-159214561D01*
X105116534Y-158687138D01*
X104712862Y-158283466D01*
X104185439Y-158065000D01*
X103614561Y-158065000D01*
X103087138Y-158283466D01*
X102768160Y-158602444D01*
X102731238Y-158565522D01*
X102655866Y-158640894D01*
X102575030Y-158446706D01*
X102120569Y-158268560D01*
X101632527Y-158277890D01*
X101224970Y-158446706D01*
X101144133Y-158640896D01*
X86127000Y-158640896D01*
X86127000Y-152828034D01*
X89400625Y-152828034D01*
X89579228Y-153229866D01*
X89898011Y-153532762D01*
X90251967Y-153679367D01*
X90427000Y-153597635D01*
X90427000Y-152653000D01*
X90573000Y-152653000D01*
X90573000Y-153597635D01*
X90748033Y-153679367D01*
X91101989Y-153532762D01*
X91420772Y-153229866D01*
X91599375Y-152828034D01*
X91517891Y-152653000D01*
X90573000Y-152653000D01*
X90427000Y-152653000D01*
X89482109Y-152653000D01*
X89400625Y-152828034D01*
X86127000Y-152828034D01*
X86127000Y-152331966D01*
X89400625Y-152331966D01*
X89482109Y-152507000D01*
X90427000Y-152507000D01*
X90427000Y-151562365D01*
X90573000Y-151562365D01*
X90573000Y-152507000D01*
X91517891Y-152507000D01*
X91599375Y-152331966D01*
X91556178Y-152234778D01*
X108105000Y-152234778D01*
X108105000Y-152885222D01*
X108353914Y-153486153D01*
X108813847Y-153946086D01*
X109414778Y-154195000D01*
X110065222Y-154195000D01*
X110666153Y-153946086D01*
X111048693Y-153563546D01*
X116459691Y-153563546D01*
X116564933Y-153778511D01*
X117091758Y-153990016D01*
X117659420Y-153983815D01*
X118155067Y-153778511D01*
X118260309Y-153563546D01*
X117360000Y-152663238D01*
X116459691Y-153563546D01*
X111048693Y-153563546D01*
X111126086Y-153486153D01*
X111375000Y-152885222D01*
X111375000Y-152291758D01*
X115929984Y-152291758D01*
X115936185Y-152859420D01*
X116141489Y-153355067D01*
X116356454Y-153460309D01*
X117256762Y-152560000D01*
X117463238Y-152560000D01*
X118363546Y-153460309D01*
X118578511Y-153355067D01*
X118790016Y-152828242D01*
X118783815Y-152260580D01*
X118773128Y-152234778D01*
X120805000Y-152234778D01*
X120805000Y-152885222D01*
X121053914Y-153486153D01*
X121513847Y-153946086D01*
X122114778Y-154195000D01*
X122765222Y-154195000D01*
X123366153Y-153946086D01*
X123826086Y-153486153D01*
X124075000Y-152885222D01*
X124075000Y-152234778D01*
X123826086Y-151633847D01*
X123366153Y-151173914D01*
X122765222Y-150925000D01*
X122114778Y-150925000D01*
X121513847Y-151173914D01*
X121053914Y-151633847D01*
X120805000Y-152234778D01*
X118773128Y-152234778D01*
X118578511Y-151764933D01*
X118363546Y-151659691D01*
X117463238Y-152560000D01*
X117256762Y-152560000D01*
X116356454Y-151659691D01*
X116141489Y-151764933D01*
X115929984Y-152291758D01*
X111375000Y-152291758D01*
X111375000Y-152234778D01*
X111126086Y-151633847D01*
X111048693Y-151556454D01*
X116459691Y-151556454D01*
X117360000Y-152456762D01*
X118260309Y-151556454D01*
X118155067Y-151341489D01*
X117628242Y-151129984D01*
X117060580Y-151136185D01*
X116564933Y-151341489D01*
X116459691Y-151556454D01*
X111048693Y-151556454D01*
X110666153Y-151173914D01*
X110065222Y-150925000D01*
X109414778Y-150925000D01*
X108813847Y-151173914D01*
X108353914Y-151633847D01*
X108105000Y-152234778D01*
X91556178Y-152234778D01*
X91420772Y-151930134D01*
X91101989Y-151627238D01*
X90748033Y-151480633D01*
X90573000Y-151562365D01*
X90427000Y-151562365D01*
X90251967Y-151480633D01*
X89898011Y-151627238D01*
X89579228Y-151930134D01*
X89400625Y-152331966D01*
X86127000Y-152331966D01*
X86127000Y-147234452D01*
X89165000Y-147234452D01*
X89165000Y-147765548D01*
X89368242Y-148256217D01*
X89743783Y-148631758D01*
X90234452Y-148835000D01*
X90765548Y-148835000D01*
X91256217Y-148631758D01*
X91631758Y-148256217D01*
X91835000Y-147765548D01*
X91835000Y-147234452D01*
X91631758Y-146743783D01*
X91256217Y-146368242D01*
X90765548Y-146165000D01*
X90234452Y-146165000D01*
X89743783Y-146368242D01*
X89368242Y-146743783D01*
X89165000Y-147234452D01*
X86127000Y-147234452D01*
X86127000Y-146127000D01*
X101873000Y-146127000D01*
X101873000Y-147500000D01*
X101873000Y-147500000D01*
G37*
X101873000Y-147500000D02*
X101882667Y-147548601D01*
X101910197Y-147589803D01*
X101951399Y-147617333D01*
X102000000Y-147627000D01*
X134290001Y-147627000D01*
X134290001Y-164290000D01*
X86127000Y-164290000D01*
X86127000Y-159279431D01*
X100668560Y-159279431D01*
X100677890Y-159767473D01*
X100846706Y-160175030D01*
X101040896Y-160255867D01*
X101796762Y-159500000D01*
X101040896Y-158744133D01*
X100846706Y-158824970D01*
X100668560Y-159279431D01*
X86127000Y-159279431D01*
X86127000Y-158640896D01*
X101144133Y-158640896D01*
X101900000Y-159396762D01*
X101914142Y-159382620D01*
X102017380Y-159485858D01*
X102003238Y-159500000D01*
X102017380Y-159514142D01*
X101914142Y-159617380D01*
X101900000Y-159603238D01*
X101144133Y-160359104D01*
X101224970Y-160553294D01*
X101679431Y-160731440D01*
X102167473Y-160722110D01*
X102575030Y-160553294D01*
X102655866Y-160359106D01*
X102731238Y-160434478D01*
X102768160Y-160397556D01*
X103087138Y-160716534D01*
X103614561Y-160935000D01*
X104185439Y-160935000D01*
X104712862Y-160716534D01*
X105116534Y-160312862D01*
X105173638Y-160175000D01*
X106027560Y-160175000D01*
X106027560Y-163625000D01*
X106076843Y-163872765D01*
X106217191Y-164082809D01*
X106427235Y-164223157D01*
X106675000Y-164272440D01*
X110125000Y-164272440D01*
X110372765Y-164223157D01*
X110582809Y-164082809D01*
X110723157Y-163872765D01*
X110772440Y-163625000D01*
X110772440Y-162079750D01*
X123648000Y-162079750D01*
X123648000Y-163709935D01*
X123713007Y-163866876D01*
X123833124Y-163986993D01*
X123990064Y-164052000D01*
X125620250Y-164052000D01*
X125727000Y-163945250D01*
X125727000Y-161973000D01*
X125873000Y-161973000D01*
X125873000Y-163945250D01*
X125979750Y-164052000D01*
X127609936Y-164052000D01*
X127766876Y-163986993D01*
X127886993Y-163866876D01*
X127952000Y-163709935D01*
X127952000Y-162079750D01*
X127845250Y-161973000D01*
X125873000Y-161973000D01*
X125727000Y-161973000D01*
X123754750Y-161973000D01*
X123648000Y-162079750D01*
X110772440Y-162079750D01*
X110772440Y-160175000D01*
X110755546Y-160090065D01*
X123648000Y-160090065D01*
X123648000Y-161720250D01*
X123754750Y-161827000D01*
X125727000Y-161827000D01*
X125727000Y-159854750D01*
X125873000Y-159854750D01*
X125873000Y-161827000D01*
X127845250Y-161827000D01*
X127952000Y-161720250D01*
X127952000Y-160896026D01*
X128105259Y-161266026D01*
X128733974Y-161894741D01*
X129555431Y-162235000D01*
X130444569Y-162235000D01*
X131266026Y-161894741D01*
X131894741Y-161266026D01*
X132235000Y-160444569D01*
X132235000Y-159555431D01*
X131894741Y-158733974D01*
X131266026Y-158105259D01*
X130444569Y-157765000D01*
X129555431Y-157765000D01*
X128733974Y-158105259D01*
X128105259Y-158733974D01*
X127765000Y-159555431D01*
X127765000Y-159812230D01*
X127609936Y-159748000D01*
X125979750Y-159748000D01*
X125873000Y-159854750D01*
X125727000Y-159854750D01*
X125620250Y-159748000D01*
X123990064Y-159748000D01*
X123833124Y-159813007D01*
X123713007Y-159933124D01*
X123648000Y-160090065D01*
X110755546Y-160090065D01*
X110723157Y-159927235D01*
X110582809Y-159717191D01*
X110372765Y-159576843D01*
X110125000Y-159527560D01*
X106675000Y-159527560D01*
X106427235Y-159576843D01*
X106217191Y-159717191D01*
X106076843Y-159927235D01*
X106027560Y-160175000D01*
X105173638Y-160175000D01*
X105335000Y-159785439D01*
X105335000Y-159214561D01*
X105116534Y-158687138D01*
X104712862Y-158283466D01*
X104185439Y-158065000D01*
X103614561Y-158065000D01*
X103087138Y-158283466D01*
X102768160Y-158602444D01*
X102731238Y-158565522D01*
X102655866Y-158640894D01*
X102575030Y-158446706D01*
X102120569Y-158268560D01*
X101632527Y-158277890D01*
X101224970Y-158446706D01*
X101144133Y-158640896D01*
X86127000Y-158640896D01*
X86127000Y-152828034D01*
X89400625Y-152828034D01*
X89579228Y-153229866D01*
X89898011Y-153532762D01*
X90251967Y-153679367D01*
X90427000Y-153597635D01*
X90427000Y-152653000D01*
X90573000Y-152653000D01*
X90573000Y-153597635D01*
X90748033Y-153679367D01*
X91101989Y-153532762D01*
X91420772Y-153229866D01*
X91599375Y-152828034D01*
X91517891Y-152653000D01*
X90573000Y-152653000D01*
X90427000Y-152653000D01*
X89482109Y-152653000D01*
X89400625Y-152828034D01*
X86127000Y-152828034D01*
X86127000Y-152331966D01*
X89400625Y-152331966D01*
X89482109Y-152507000D01*
X90427000Y-152507000D01*
X90427000Y-151562365D01*
X90573000Y-151562365D01*
X90573000Y-152507000D01*
X91517891Y-152507000D01*
X91599375Y-152331966D01*
X91556178Y-152234778D01*
X108105000Y-152234778D01*
X108105000Y-152885222D01*
X108353914Y-153486153D01*
X108813847Y-153946086D01*
X109414778Y-154195000D01*
X110065222Y-154195000D01*
X110666153Y-153946086D01*
X111048693Y-153563546D01*
X116459691Y-153563546D01*
X116564933Y-153778511D01*
X117091758Y-153990016D01*
X117659420Y-153983815D01*
X118155067Y-153778511D01*
X118260309Y-153563546D01*
X117360000Y-152663238D01*
X116459691Y-153563546D01*
X111048693Y-153563546D01*
X111126086Y-153486153D01*
X111375000Y-152885222D01*
X111375000Y-152291758D01*
X115929984Y-152291758D01*
X115936185Y-152859420D01*
X116141489Y-153355067D01*
X116356454Y-153460309D01*
X117256762Y-152560000D01*
X117463238Y-152560000D01*
X118363546Y-153460309D01*
X118578511Y-153355067D01*
X118790016Y-152828242D01*
X118783815Y-152260580D01*
X118773128Y-152234778D01*
X120805000Y-152234778D01*
X120805000Y-152885222D01*
X121053914Y-153486153D01*
X121513847Y-153946086D01*
X122114778Y-154195000D01*
X122765222Y-154195000D01*
X123366153Y-153946086D01*
X123826086Y-153486153D01*
X124075000Y-152885222D01*
X124075000Y-152234778D01*
X123826086Y-151633847D01*
X123366153Y-151173914D01*
X122765222Y-150925000D01*
X122114778Y-150925000D01*
X121513847Y-151173914D01*
X121053914Y-151633847D01*
X120805000Y-152234778D01*
X118773128Y-152234778D01*
X118578511Y-151764933D01*
X118363546Y-151659691D01*
X117463238Y-152560000D01*
X117256762Y-152560000D01*
X116356454Y-151659691D01*
X116141489Y-151764933D01*
X115929984Y-152291758D01*
X111375000Y-152291758D01*
X111375000Y-152234778D01*
X111126086Y-151633847D01*
X111048693Y-151556454D01*
X116459691Y-151556454D01*
X117360000Y-152456762D01*
X118260309Y-151556454D01*
X118155067Y-151341489D01*
X117628242Y-151129984D01*
X117060580Y-151136185D01*
X116564933Y-151341489D01*
X116459691Y-151556454D01*
X111048693Y-151556454D01*
X110666153Y-151173914D01*
X110065222Y-150925000D01*
X109414778Y-150925000D01*
X108813847Y-151173914D01*
X108353914Y-151633847D01*
X108105000Y-152234778D01*
X91556178Y-152234778D01*
X91420772Y-151930134D01*
X91101989Y-151627238D01*
X90748033Y-151480633D01*
X90573000Y-151562365D01*
X90427000Y-151562365D01*
X90251967Y-151480633D01*
X89898011Y-151627238D01*
X89579228Y-151930134D01*
X89400625Y-152331966D01*
X86127000Y-152331966D01*
X86127000Y-147234452D01*
X89165000Y-147234452D01*
X89165000Y-147765548D01*
X89368242Y-148256217D01*
X89743783Y-148631758D01*
X90234452Y-148835000D01*
X90765548Y-148835000D01*
X91256217Y-148631758D01*
X91631758Y-148256217D01*
X91835000Y-147765548D01*
X91835000Y-147234452D01*
X91631758Y-146743783D01*
X91256217Y-146368242D01*
X90765548Y-146165000D01*
X90234452Y-146165000D01*
X89743783Y-146368242D01*
X89368242Y-146743783D01*
X89165000Y-147234452D01*
X86127000Y-147234452D01*
X86127000Y-146127000D01*
X101873000Y-146127000D01*
X101873000Y-147500000D01*
D33*
G04 #@! TO.N,GND*
G36*
X134550001Y-146375000D02*
X104125000Y-146375000D01*
X104125000Y-145000000D01*
X104115485Y-144952165D01*
X104092144Y-144915534D01*
X97208959Y-137406604D01*
X98025000Y-137406604D01*
X98025000Y-137993396D01*
X98249555Y-138535520D01*
X98664480Y-138950445D01*
X99206604Y-139175000D01*
X99793396Y-139175000D01*
X100335520Y-138950445D01*
X100750445Y-138535520D01*
X100975000Y-137993396D01*
X100975000Y-137406604D01*
X100750445Y-136864480D01*
X100335520Y-136449555D01*
X99793396Y-136225000D01*
X99206604Y-136225000D01*
X98664480Y-136449555D01*
X98249555Y-136864480D01*
X98025000Y-137406604D01*
X97208959Y-137406604D01*
X93393049Y-133243793D01*
X108842273Y-133243793D01*
X108947812Y-133457951D01*
X109474204Y-133668397D01*
X110041060Y-133661383D01*
X110532188Y-133457951D01*
X110637727Y-133243793D01*
X109740000Y-132346066D01*
X108842273Y-133243793D01*
X93393049Y-133243793D01*
X93125000Y-132951377D01*
X93125000Y-131974204D01*
X108311603Y-131974204D01*
X108318617Y-132541060D01*
X108522049Y-133032188D01*
X108736207Y-133137727D01*
X109633934Y-132240000D01*
X109846066Y-132240000D01*
X110743793Y-133137727D01*
X110957951Y-133032188D01*
X111168397Y-132505796D01*
X111161724Y-131966495D01*
X118525000Y-131966495D01*
X118525000Y-132513505D01*
X118734331Y-133018875D01*
X119121125Y-133405669D01*
X119626495Y-133615000D01*
X120173505Y-133615000D01*
X120678875Y-133405669D01*
X121065669Y-133018875D01*
X121275000Y-132513505D01*
X121275000Y-131966495D01*
X128685000Y-131966495D01*
X128685000Y-132513505D01*
X128894331Y-133018875D01*
X129281125Y-133405669D01*
X129786495Y-133615000D01*
X130333505Y-133615000D01*
X130838875Y-133405669D01*
X131225669Y-133018875D01*
X131435000Y-132513505D01*
X131435000Y-131966495D01*
X131225669Y-131461125D01*
X130838875Y-131074331D01*
X130333505Y-130865000D01*
X129786495Y-130865000D01*
X129281125Y-131074331D01*
X128894331Y-131461125D01*
X128685000Y-131966495D01*
X121275000Y-131966495D01*
X121065669Y-131461125D01*
X120678875Y-131074331D01*
X120173505Y-130865000D01*
X119626495Y-130865000D01*
X119121125Y-131074331D01*
X118734331Y-131461125D01*
X118525000Y-131966495D01*
X111161724Y-131966495D01*
X111161383Y-131938940D01*
X110957951Y-131447812D01*
X110743793Y-131342273D01*
X109846066Y-132240000D01*
X109633934Y-132240000D01*
X108736207Y-131342273D01*
X108522049Y-131447812D01*
X108311603Y-131974204D01*
X93125000Y-131974204D01*
X93125000Y-131236207D01*
X108842273Y-131236207D01*
X109740000Y-132133934D01*
X110637727Y-131236207D01*
X110532188Y-131022049D01*
X110005796Y-130811603D01*
X109438940Y-130818617D01*
X108947812Y-131022049D01*
X108842273Y-131236207D01*
X93125000Y-131236207D01*
X93125000Y-127206604D01*
X98025000Y-127206604D01*
X98025000Y-127793396D01*
X98249555Y-128335520D01*
X98664480Y-128750445D01*
X99206604Y-128975000D01*
X99793396Y-128975000D01*
X100335520Y-128750445D01*
X100750445Y-128335520D01*
X100975000Y-127793396D01*
X100975000Y-127206604D01*
X100750445Y-126664480D01*
X100335520Y-126249555D01*
X99793396Y-126025000D01*
X99206604Y-126025000D01*
X98664480Y-126249555D01*
X98249555Y-126664480D01*
X98025000Y-127206604D01*
X93125000Y-127206604D01*
X93125000Y-124000000D01*
X93115485Y-123952165D01*
X93088388Y-123911612D01*
X89759188Y-120582412D01*
X90222817Y-120461810D01*
X90624611Y-120158145D01*
X90879613Y-119723835D01*
X90919245Y-119575316D01*
X99580755Y-119575316D01*
X99620387Y-119723835D01*
X99875389Y-120158145D01*
X100277183Y-120461810D01*
X100764600Y-120588600D01*
X101425000Y-120588600D01*
X101425000Y-119375000D01*
X101575000Y-119375000D01*
X101575000Y-120588600D01*
X102235400Y-120588600D01*
X102722817Y-120461810D01*
X103102309Y-120175000D01*
X106292654Y-120175000D01*
X106292654Y-123625000D01*
X106321758Y-123771317D01*
X106404641Y-123895359D01*
X106528683Y-123978242D01*
X106675000Y-124007346D01*
X110125000Y-124007346D01*
X110271317Y-123978242D01*
X110395359Y-123895359D01*
X110478242Y-123771317D01*
X110507346Y-123625000D01*
X110507346Y-122081250D01*
X123650000Y-122081250D01*
X123650000Y-123709538D01*
X123714702Y-123865743D01*
X123834257Y-123985298D01*
X123990462Y-124050000D01*
X125618750Y-124050000D01*
X125725000Y-123943750D01*
X125725000Y-121975000D01*
X125875000Y-121975000D01*
X125875000Y-123943750D01*
X125981250Y-124050000D01*
X127609538Y-124050000D01*
X127765743Y-123985298D01*
X127885298Y-123865743D01*
X127950000Y-123709538D01*
X127950000Y-122081250D01*
X127843750Y-121975000D01*
X125875000Y-121975000D01*
X125725000Y-121975000D01*
X123756250Y-121975000D01*
X123650000Y-122081250D01*
X110507346Y-122081250D01*
X110507346Y-120175000D01*
X110490531Y-120090462D01*
X123650000Y-120090462D01*
X123650000Y-121718750D01*
X123756250Y-121825000D01*
X125725000Y-121825000D01*
X125725000Y-119856250D01*
X125875000Y-119856250D01*
X125875000Y-121825000D01*
X127843750Y-121825000D01*
X127950000Y-121718750D01*
X127950000Y-121559336D01*
X129546730Y-121559336D01*
X129627858Y-121752722D01*
X130081882Y-121929806D01*
X130569111Y-121919662D01*
X130972142Y-121752722D01*
X131053270Y-121559336D01*
X130300000Y-120806066D01*
X129546730Y-121559336D01*
X127950000Y-121559336D01*
X127950000Y-120481882D01*
X129070194Y-120481882D01*
X129080338Y-120969111D01*
X129247278Y-121372142D01*
X129440664Y-121453270D01*
X130193934Y-120700000D01*
X130406066Y-120700000D01*
X131159336Y-121453270D01*
X131322936Y-121384637D01*
X131634416Y-121696117D01*
X132066278Y-121875000D01*
X132533722Y-121875000D01*
X132965584Y-121696117D01*
X133296117Y-121365584D01*
X133475000Y-120933722D01*
X133475000Y-120466278D01*
X133296117Y-120034416D01*
X132965584Y-119703883D01*
X132533722Y-119525000D01*
X132066278Y-119525000D01*
X131634416Y-119703883D01*
X131322936Y-120015363D01*
X131159336Y-119946730D01*
X130406066Y-120700000D01*
X130193934Y-120700000D01*
X129440664Y-119946730D01*
X129247278Y-120027858D01*
X129070194Y-120481882D01*
X127950000Y-120481882D01*
X127950000Y-120090462D01*
X127885298Y-119934257D01*
X127791705Y-119840664D01*
X129546730Y-119840664D01*
X130300000Y-120593934D01*
X131053270Y-119840664D01*
X130972142Y-119647278D01*
X130518118Y-119470194D01*
X130030889Y-119480338D01*
X129627858Y-119647278D01*
X129546730Y-119840664D01*
X127791705Y-119840664D01*
X127765743Y-119814702D01*
X127609538Y-119750000D01*
X125981250Y-119750000D01*
X125875000Y-119856250D01*
X125725000Y-119856250D01*
X125618750Y-119750000D01*
X123990462Y-119750000D01*
X123834257Y-119814702D01*
X123714702Y-119934257D01*
X123650000Y-120090462D01*
X110490531Y-120090462D01*
X110478242Y-120028683D01*
X110395359Y-119904641D01*
X110271317Y-119821758D01*
X110125000Y-119792654D01*
X106675000Y-119792654D01*
X106528683Y-119821758D01*
X106404641Y-119904641D01*
X106321758Y-120028683D01*
X106292654Y-120175000D01*
X103102309Y-120175000D01*
X103124611Y-120158145D01*
X103379613Y-119723835D01*
X103419245Y-119575316D01*
X103340369Y-119375000D01*
X101575000Y-119375000D01*
X101425000Y-119375000D01*
X99659631Y-119375000D01*
X99580755Y-119575316D01*
X90919245Y-119575316D01*
X90840369Y-119375000D01*
X89075000Y-119375000D01*
X89075000Y-119395000D01*
X88925000Y-119395000D01*
X88925000Y-119375000D01*
X88905000Y-119375000D01*
X88905000Y-119225000D01*
X88925000Y-119225000D01*
X88925000Y-118011400D01*
X89075000Y-118011400D01*
X89075000Y-119225000D01*
X90840369Y-119225000D01*
X90919245Y-119024684D01*
X99580755Y-119024684D01*
X99659631Y-119225000D01*
X101425000Y-119225000D01*
X101425000Y-118011400D01*
X101575000Y-118011400D01*
X101575000Y-119225000D01*
X103340369Y-119225000D01*
X103419245Y-119024684D01*
X103379613Y-118876165D01*
X103124611Y-118441855D01*
X102722817Y-118138190D01*
X102235400Y-118011400D01*
X101575000Y-118011400D01*
X101425000Y-118011400D01*
X100764600Y-118011400D01*
X100277183Y-118138190D01*
X99875389Y-118441855D01*
X99620387Y-118876165D01*
X99580755Y-119024684D01*
X90919245Y-119024684D01*
X90879613Y-118876165D01*
X90624611Y-118441855D01*
X90222817Y-118138190D01*
X89735400Y-118011400D01*
X89075000Y-118011400D01*
X88925000Y-118011400D01*
X88264600Y-118011400D01*
X87777183Y-118138190D01*
X87513927Y-118337151D01*
X87180569Y-118003793D01*
X108802273Y-118003793D01*
X108907812Y-118217951D01*
X109434204Y-118428397D01*
X110001060Y-118421383D01*
X110492188Y-118217951D01*
X110597727Y-118003793D01*
X109700000Y-117106066D01*
X108802273Y-118003793D01*
X87180569Y-118003793D01*
X85910980Y-116734204D01*
X108271603Y-116734204D01*
X108278617Y-117301060D01*
X108482049Y-117792188D01*
X108696207Y-117897727D01*
X109593934Y-117000000D01*
X109806066Y-117000000D01*
X110703793Y-117897727D01*
X110917951Y-117792188D01*
X111128397Y-117265796D01*
X111121724Y-116726495D01*
X121625000Y-116726495D01*
X121625000Y-117273505D01*
X121834331Y-117778875D01*
X122221125Y-118165669D01*
X122726495Y-118375000D01*
X123273505Y-118375000D01*
X123778875Y-118165669D01*
X124165669Y-117778875D01*
X124375000Y-117273505D01*
X124375000Y-116726495D01*
X124165669Y-116221125D01*
X123778875Y-115834331D01*
X123273505Y-115625000D01*
X122726495Y-115625000D01*
X122221125Y-115834331D01*
X121834331Y-116221125D01*
X121625000Y-116726495D01*
X111121724Y-116726495D01*
X111121383Y-116698940D01*
X110917951Y-116207812D01*
X110703793Y-116102273D01*
X109806066Y-117000000D01*
X109593934Y-117000000D01*
X108696207Y-116102273D01*
X108482049Y-116207812D01*
X108271603Y-116734204D01*
X85910980Y-116734204D01*
X85172983Y-115996207D01*
X108802273Y-115996207D01*
X109700000Y-116893934D01*
X110597727Y-115996207D01*
X110492188Y-115782049D01*
X109965796Y-115571603D01*
X109398940Y-115578617D01*
X108907812Y-115782049D01*
X108802273Y-115996207D01*
X85172983Y-115996207D01*
X83476776Y-114300000D01*
X87076735Y-114300000D01*
X87172865Y-114783278D01*
X87446620Y-115192980D01*
X87856322Y-115466735D01*
X88217612Y-115538600D01*
X89782388Y-115538600D01*
X90143678Y-115466735D01*
X90553380Y-115192980D01*
X90827135Y-114783278D01*
X90923265Y-114300000D01*
X99576735Y-114300000D01*
X99672865Y-114783278D01*
X99946620Y-115192980D01*
X100356322Y-115466735D01*
X100717612Y-115538600D01*
X102282388Y-115538600D01*
X102643678Y-115466735D01*
X103053380Y-115192980D01*
X103327135Y-114783278D01*
X103423265Y-114300000D01*
X103327135Y-113816722D01*
X103053380Y-113407020D01*
X102643678Y-113133265D01*
X102282388Y-113061400D01*
X100717612Y-113061400D01*
X100356322Y-113133265D01*
X99946620Y-113407020D01*
X99672865Y-113816722D01*
X99576735Y-114300000D01*
X90923265Y-114300000D01*
X90827135Y-113816722D01*
X90553380Y-113407020D01*
X90143678Y-113133265D01*
X89782388Y-113061400D01*
X88217612Y-113061400D01*
X87856322Y-113133265D01*
X87446620Y-113407020D01*
X87172865Y-113816722D01*
X87076735Y-114300000D01*
X83476776Y-114300000D01*
X79088388Y-109911612D01*
X79047835Y-109884515D01*
X79000000Y-109875000D01*
X60450000Y-109875000D01*
X60450000Y-108540000D01*
X88201981Y-108540000D01*
X88293175Y-108998462D01*
X88552873Y-109387127D01*
X88941538Y-109646825D01*
X89284276Y-109715000D01*
X90315724Y-109715000D01*
X90658462Y-109646825D01*
X91047127Y-109387127D01*
X91306825Y-108998462D01*
X91398019Y-108540000D01*
X95821981Y-108540000D01*
X95913175Y-108998462D01*
X96172873Y-109387127D01*
X96561538Y-109646825D01*
X96904276Y-109715000D01*
X97935724Y-109715000D01*
X98278462Y-109646825D01*
X98667127Y-109387127D01*
X98926825Y-108998462D01*
X99018019Y-108540000D01*
X98926825Y-108081538D01*
X98667127Y-107692873D01*
X98278462Y-107433175D01*
X97935724Y-107365000D01*
X96904276Y-107365000D01*
X96561538Y-107433175D01*
X96172873Y-107692873D01*
X95913175Y-108081538D01*
X95821981Y-108540000D01*
X91398019Y-108540000D01*
X91306825Y-108081538D01*
X91047127Y-107692873D01*
X90658462Y-107433175D01*
X90315724Y-107365000D01*
X89284276Y-107365000D01*
X88941538Y-107433175D01*
X88552873Y-107692873D01*
X88293175Y-108081538D01*
X88201981Y-108540000D01*
X60450000Y-108540000D01*
X60450000Y-105857420D01*
X70375000Y-105857420D01*
X70375000Y-106742580D01*
X70713736Y-107560361D01*
X71339639Y-108186264D01*
X72157420Y-108525000D01*
X73042580Y-108525000D01*
X73860361Y-108186264D01*
X74486264Y-107560361D01*
X74825000Y-106742580D01*
X74825000Y-105857420D01*
X75075000Y-105857420D01*
X75075000Y-106742580D01*
X75413736Y-107560361D01*
X76039639Y-108186264D01*
X76857420Y-108525000D01*
X77742580Y-108525000D01*
X78560361Y-108186264D01*
X79186264Y-107560361D01*
X79525000Y-106742580D01*
X79525000Y-105857420D01*
X79775000Y-105857420D01*
X79775000Y-106742580D01*
X80113736Y-107560361D01*
X80739639Y-108186264D01*
X81557420Y-108525000D01*
X82442580Y-108525000D01*
X83260361Y-108186264D01*
X83886264Y-107560361D01*
X84225000Y-106742580D01*
X84225000Y-106019543D01*
X84918028Y-105326515D01*
X85044543Y-105200000D01*
X88217654Y-105200000D01*
X88217654Y-106800000D01*
X88246758Y-106946317D01*
X88329641Y-107070359D01*
X88453683Y-107153242D01*
X88600000Y-107182346D01*
X91000000Y-107182346D01*
X91146317Y-107153242D01*
X91270359Y-107070359D01*
X91353242Y-106946317D01*
X91382346Y-106800000D01*
X91382346Y-105200000D01*
X91353242Y-105053683D01*
X91270359Y-104929641D01*
X91146317Y-104846758D01*
X91000000Y-104817654D01*
X88600000Y-104817654D01*
X88453683Y-104846758D01*
X88329641Y-104929641D01*
X88246758Y-105053683D01*
X88217654Y-105200000D01*
X85044543Y-105200000D01*
X85869544Y-104375000D01*
X96795001Y-104375000D01*
X96795000Y-104846736D01*
X96561538Y-104893175D01*
X96172873Y-105152873D01*
X95913175Y-105541538D01*
X95821981Y-106000000D01*
X95913175Y-106458462D01*
X96172873Y-106847127D01*
X96561538Y-107106825D01*
X96904276Y-107175000D01*
X97935724Y-107175000D01*
X98278462Y-107106825D01*
X98667127Y-106847127D01*
X98926825Y-106458462D01*
X99018019Y-106000000D01*
X98926825Y-105541538D01*
X98667127Y-105152873D01*
X98278462Y-104893175D01*
X98045000Y-104846736D01*
X98045000Y-104375000D01*
X99714162Y-104375000D01*
X107815675Y-112476513D01*
X107892386Y-112591319D01*
X108007191Y-112668029D01*
X108347207Y-112895221D01*
X108883705Y-113001937D01*
X109019127Y-112975000D01*
X109728375Y-112975000D01*
X110239639Y-113486264D01*
X111057420Y-113825000D01*
X111942580Y-113825000D01*
X112760361Y-113486264D01*
X113386264Y-112860361D01*
X113725000Y-112042580D01*
X113725000Y-111157420D01*
X113662862Y-111007406D01*
X113975000Y-111319544D01*
X113975000Y-112042580D01*
X114313736Y-112860361D01*
X114939639Y-113486264D01*
X115757420Y-113825000D01*
X116642580Y-113825000D01*
X117460361Y-113486264D01*
X117971625Y-112975000D01*
X119128375Y-112975000D01*
X119639639Y-113486264D01*
X120457420Y-113825000D01*
X121342580Y-113825000D01*
X122160361Y-113486264D01*
X122786264Y-112860361D01*
X123125000Y-112042580D01*
X123125000Y-111306150D01*
X123325220Y-111006499D01*
X123325221Y-111006498D01*
X123405000Y-110605422D01*
X123405000Y-110605418D01*
X123431936Y-110470001D01*
X123405000Y-110334584D01*
X123405000Y-106654578D01*
X123325221Y-106253502D01*
X123021319Y-105798681D01*
X122566498Y-105494779D01*
X122030000Y-105388063D01*
X121493503Y-105494779D01*
X121038682Y-105798681D01*
X120734780Y-106253502D01*
X120706570Y-106395324D01*
X120570893Y-106067770D01*
X120212230Y-105709107D01*
X119743613Y-105515000D01*
X119236387Y-105515000D01*
X118767770Y-105709107D01*
X118409107Y-106067770D01*
X118215000Y-106536387D01*
X118215000Y-107043613D01*
X118409107Y-107512230D01*
X118767770Y-107870893D01*
X119236387Y-108065000D01*
X119743613Y-108065000D01*
X120212230Y-107870893D01*
X120570893Y-107512230D01*
X120655001Y-107309175D01*
X120655000Y-109375000D01*
X120457420Y-109375000D01*
X119639639Y-109713736D01*
X119128375Y-110225000D01*
X117971625Y-110225000D01*
X117460361Y-109713736D01*
X116642580Y-109375000D01*
X115919544Y-109375000D01*
X112458030Y-105913487D01*
X112381319Y-105798681D01*
X111926498Y-105494779D01*
X111819407Y-105473477D01*
X112032173Y-105385347D01*
X112125509Y-105181575D01*
X111300000Y-104356066D01*
X110474491Y-105181575D01*
X110567827Y-105385347D01*
X110642846Y-105415000D01*
X109894578Y-105415000D01*
X109493502Y-105494779D01*
X109038681Y-105798681D01*
X108734779Y-106253502D01*
X108706569Y-106395322D01*
X108570893Y-106067770D01*
X108212230Y-105709107D01*
X107743613Y-105515000D01*
X107236387Y-105515000D01*
X106767770Y-105709107D01*
X106409107Y-106067770D01*
X106215000Y-106536387D01*
X106215000Y-106986752D01*
X103224635Y-103996387D01*
X107485000Y-103996387D01*
X107485000Y-104503613D01*
X107679107Y-104972230D01*
X108037770Y-105330893D01*
X108506387Y-105525000D01*
X109013613Y-105525000D01*
X109482230Y-105330893D01*
X109840893Y-104972230D01*
X110000714Y-104586388D01*
X110164653Y-104982173D01*
X110368425Y-105075509D01*
X111193934Y-104250000D01*
X111406066Y-104250000D01*
X112231575Y-105075509D01*
X112435347Y-104982173D01*
X112629114Y-104491961D01*
X112621049Y-103996387D01*
X119485000Y-103996387D01*
X119485000Y-104503613D01*
X119679107Y-104972230D01*
X120037770Y-105330893D01*
X120506387Y-105525000D01*
X121013613Y-105525000D01*
X121482230Y-105330893D01*
X121631548Y-105181575D01*
X122474491Y-105181575D01*
X122567827Y-105385347D01*
X123058039Y-105579114D01*
X123585087Y-105570536D01*
X124032173Y-105385347D01*
X124125509Y-105181575D01*
X123300000Y-104356066D01*
X122474491Y-105181575D01*
X121631548Y-105181575D01*
X121840893Y-104972230D01*
X122000714Y-104586388D01*
X122164653Y-104982173D01*
X122368425Y-105075509D01*
X123193934Y-104250000D01*
X123406066Y-104250000D01*
X124231575Y-105075509D01*
X124435347Y-104982173D01*
X124629114Y-104491961D01*
X124620536Y-103964913D01*
X124435347Y-103517827D01*
X124231575Y-103424491D01*
X123406066Y-104250000D01*
X123193934Y-104250000D01*
X122368425Y-103424491D01*
X122164653Y-103517827D01*
X122004550Y-103922873D01*
X121840893Y-103527770D01*
X121631548Y-103318425D01*
X122474491Y-103318425D01*
X123300000Y-104143934D01*
X124125509Y-103318425D01*
X124032173Y-103114653D01*
X123541961Y-102920886D01*
X123014913Y-102929464D01*
X122567827Y-103114653D01*
X122474491Y-103318425D01*
X121631548Y-103318425D01*
X121482230Y-103169107D01*
X121013613Y-102975000D01*
X120506387Y-102975000D01*
X120037770Y-103169107D01*
X119679107Y-103527770D01*
X119485000Y-103996387D01*
X112621049Y-103996387D01*
X112620536Y-103964913D01*
X112435347Y-103517827D01*
X112231575Y-103424491D01*
X111406066Y-104250000D01*
X111193934Y-104250000D01*
X110368425Y-103424491D01*
X110164653Y-103517827D01*
X110004550Y-103922873D01*
X109840893Y-103527770D01*
X109631548Y-103318425D01*
X110474491Y-103318425D01*
X111300000Y-104143934D01*
X112125509Y-103318425D01*
X112032173Y-103114653D01*
X111541961Y-102920886D01*
X111014913Y-102929464D01*
X110567827Y-103114653D01*
X110474491Y-103318425D01*
X109631548Y-103318425D01*
X109482230Y-103169107D01*
X109013613Y-102975000D01*
X108506387Y-102975000D01*
X108037770Y-103169107D01*
X107679107Y-103527770D01*
X107485000Y-103996387D01*
X103224635Y-103996387D01*
X101351735Y-102123487D01*
X101275024Y-102008681D01*
X100820203Y-101704779D01*
X100475000Y-101636114D01*
X100475000Y-101336966D01*
X100998811Y-101119996D01*
X101469996Y-100648811D01*
X101725000Y-100033178D01*
X101725000Y-99366822D01*
X101469996Y-98751189D01*
X100998811Y-98280004D01*
X100383178Y-98025000D01*
X99716822Y-98025000D01*
X99101189Y-98280004D01*
X98630004Y-98751189D01*
X98375000Y-99366822D01*
X98375000Y-100033178D01*
X98630004Y-100648811D01*
X99101189Y-101119996D01*
X99225000Y-101171280D01*
X99225001Y-101625000D01*
X85435416Y-101625000D01*
X85299999Y-101598064D01*
X85164582Y-101625000D01*
X85164578Y-101625000D01*
X84763502Y-101704779D01*
X84763500Y-101704780D01*
X84763501Y-101704780D01*
X84423485Y-101931971D01*
X84423484Y-101931972D01*
X84308681Y-102008681D01*
X84231972Y-102123484D01*
X82973485Y-103381972D01*
X82280457Y-104075000D01*
X81557420Y-104075000D01*
X80739639Y-104413736D01*
X80113736Y-105039639D01*
X79775000Y-105857420D01*
X79525000Y-105857420D01*
X79186264Y-105039639D01*
X78560361Y-104413736D01*
X77742580Y-104075000D01*
X76857420Y-104075000D01*
X76039639Y-104413736D01*
X75413736Y-105039639D01*
X75075000Y-105857420D01*
X74825000Y-105857420D01*
X74486264Y-105039639D01*
X73860361Y-104413736D01*
X73042580Y-104075000D01*
X72157420Y-104075000D01*
X71339639Y-104413736D01*
X70713736Y-105039639D01*
X70375000Y-105857420D01*
X60450000Y-105857420D01*
X60450000Y-99366822D01*
X72575000Y-99366822D01*
X72575000Y-100033178D01*
X72830004Y-100648811D01*
X73301189Y-101119996D01*
X73916822Y-101375000D01*
X74583178Y-101375000D01*
X75198811Y-101119996D01*
X75669996Y-100648811D01*
X75925000Y-100033178D01*
X75925000Y-99366822D01*
X81175000Y-99366822D01*
X81175000Y-100033178D01*
X81430004Y-100648811D01*
X81901189Y-101119996D01*
X82516822Y-101375000D01*
X83183178Y-101375000D01*
X83798811Y-101119996D01*
X84269996Y-100648811D01*
X84525000Y-100033178D01*
X84525000Y-99366822D01*
X89775000Y-99366822D01*
X89775000Y-100033178D01*
X90030004Y-100648811D01*
X90501189Y-101119996D01*
X91116822Y-101375000D01*
X91783178Y-101375000D01*
X92398811Y-101119996D01*
X92869996Y-100648811D01*
X93125000Y-100033178D01*
X93125000Y-99366822D01*
X92869996Y-98751189D01*
X92398811Y-98280004D01*
X91783178Y-98025000D01*
X91116822Y-98025000D01*
X90501189Y-98280004D01*
X90030004Y-98751189D01*
X89775000Y-99366822D01*
X84525000Y-99366822D01*
X84269996Y-98751189D01*
X83798811Y-98280004D01*
X83183178Y-98025000D01*
X82516822Y-98025000D01*
X81901189Y-98280004D01*
X81430004Y-98751189D01*
X81175000Y-99366822D01*
X75925000Y-99366822D01*
X75669996Y-98751189D01*
X75198811Y-98280004D01*
X74583178Y-98025000D01*
X73916822Y-98025000D01*
X73301189Y-98280004D01*
X72830004Y-98751189D01*
X72575000Y-99366822D01*
X60450000Y-99366822D01*
X60450000Y-97502175D01*
X103590000Y-97502175D01*
X103590000Y-98297825D01*
X103894482Y-99032909D01*
X104457091Y-99595518D01*
X105192175Y-99900000D01*
X105987825Y-99900000D01*
X106722909Y-99595518D01*
X107285518Y-99032909D01*
X107590000Y-98297825D01*
X107590000Y-97502175D01*
X111210000Y-97502175D01*
X111210000Y-98297825D01*
X111514482Y-99032909D01*
X112077091Y-99595518D01*
X112812175Y-99900000D01*
X113607825Y-99900000D01*
X114342909Y-99595518D01*
X114905518Y-99032909D01*
X115210000Y-98297825D01*
X115210000Y-97502175D01*
X115590000Y-97502175D01*
X115590000Y-98297825D01*
X115894482Y-99032909D01*
X116457091Y-99595518D01*
X117192175Y-99900000D01*
X117987825Y-99900000D01*
X118722909Y-99595518D01*
X119285518Y-99032909D01*
X119590000Y-98297825D01*
X119590000Y-97502175D01*
X123210000Y-97502175D01*
X123210000Y-98297825D01*
X123514482Y-99032909D01*
X124077091Y-99595518D01*
X124812175Y-99900000D01*
X125607825Y-99900000D01*
X126342909Y-99595518D01*
X126905518Y-99032909D01*
X127210000Y-98297825D01*
X127210000Y-97502175D01*
X126905518Y-96767091D01*
X126342909Y-96204482D01*
X125607825Y-95900000D01*
X124812175Y-95900000D01*
X124077091Y-96204482D01*
X123514482Y-96767091D01*
X123210000Y-97502175D01*
X119590000Y-97502175D01*
X119285518Y-96767091D01*
X118722909Y-96204482D01*
X117987825Y-95900000D01*
X117192175Y-95900000D01*
X116457091Y-96204482D01*
X115894482Y-96767091D01*
X115590000Y-97502175D01*
X115210000Y-97502175D01*
X114905518Y-96767091D01*
X114342909Y-96204482D01*
X113607825Y-95900000D01*
X112812175Y-95900000D01*
X112077091Y-96204482D01*
X111514482Y-96767091D01*
X111210000Y-97502175D01*
X107590000Y-97502175D01*
X107285518Y-96767091D01*
X106722909Y-96204482D01*
X105987825Y-95900000D01*
X105192175Y-95900000D01*
X104457091Y-96204482D01*
X103894482Y-96767091D01*
X103590000Y-97502175D01*
X60450000Y-97502175D01*
X60450000Y-94607148D01*
X63025000Y-94607148D01*
X63025000Y-95392852D01*
X63325675Y-96118748D01*
X63881252Y-96674325D01*
X64607148Y-96975000D01*
X65392852Y-96975000D01*
X66118748Y-96674325D01*
X66674325Y-96118748D01*
X66975000Y-95392852D01*
X66975000Y-94881250D01*
X69025000Y-94881250D01*
X69025000Y-96084538D01*
X69089702Y-96240743D01*
X69209257Y-96360298D01*
X69365462Y-96425000D01*
X70568750Y-96425000D01*
X70675000Y-96318750D01*
X70675000Y-94775000D01*
X70825000Y-94775000D01*
X70825000Y-96318750D01*
X70931250Y-96425000D01*
X72134538Y-96425000D01*
X72290743Y-96360298D01*
X72410298Y-96240743D01*
X72475000Y-96084538D01*
X72475000Y-94881250D01*
X72368750Y-94775000D01*
X70825000Y-94775000D01*
X70675000Y-94775000D01*
X69131250Y-94775000D01*
X69025000Y-94881250D01*
X66975000Y-94881250D01*
X66975000Y-94607148D01*
X66674325Y-93881252D01*
X66118748Y-93325675D01*
X66094092Y-93315462D01*
X69025000Y-93315462D01*
X69025000Y-94518750D01*
X69131250Y-94625000D01*
X70675000Y-94625000D01*
X70675000Y-93081250D01*
X70825000Y-93081250D01*
X70825000Y-94625000D01*
X72368750Y-94625000D01*
X72475000Y-94518750D01*
X72475000Y-93400000D01*
X77667654Y-93400000D01*
X77667654Y-96000000D01*
X77696758Y-96146317D01*
X77779641Y-96270359D01*
X77903683Y-96353242D01*
X78050000Y-96382346D01*
X80650000Y-96382346D01*
X80796317Y-96353242D01*
X80920359Y-96270359D01*
X81003242Y-96146317D01*
X81032346Y-96000000D01*
X81032346Y-93400000D01*
X86267654Y-93400000D01*
X86267654Y-96000000D01*
X86296758Y-96146317D01*
X86379641Y-96270359D01*
X86503683Y-96353242D01*
X86650000Y-96382346D01*
X89250000Y-96382346D01*
X89396317Y-96353242D01*
X89520359Y-96270359D01*
X89603242Y-96146317D01*
X89632346Y-96000000D01*
X89632346Y-93400000D01*
X94867654Y-93400000D01*
X94867654Y-96000000D01*
X94896758Y-96146317D01*
X94979641Y-96270359D01*
X95103683Y-96353242D01*
X95250000Y-96382346D01*
X97850000Y-96382346D01*
X97996317Y-96353242D01*
X98120359Y-96270359D01*
X98203242Y-96146317D01*
X98232346Y-96000000D01*
X98232346Y-93607148D01*
X129025000Y-93607148D01*
X129025000Y-94392852D01*
X129325675Y-95118748D01*
X129881252Y-95674325D01*
X130607148Y-95975000D01*
X131392852Y-95975000D01*
X132118748Y-95674325D01*
X132674325Y-95118748D01*
X132975000Y-94392852D01*
X132975000Y-93607148D01*
X132674325Y-92881252D01*
X132118748Y-92325675D01*
X131392852Y-92025000D01*
X130607148Y-92025000D01*
X129881252Y-92325675D01*
X129325675Y-92881252D01*
X129025000Y-93607148D01*
X98232346Y-93607148D01*
X98232346Y-93400000D01*
X98203242Y-93253683D01*
X98120359Y-93129641D01*
X97996317Y-93046758D01*
X97850000Y-93017654D01*
X95250000Y-93017654D01*
X95103683Y-93046758D01*
X94979641Y-93129641D01*
X94896758Y-93253683D01*
X94867654Y-93400000D01*
X89632346Y-93400000D01*
X89603242Y-93253683D01*
X89520359Y-93129641D01*
X89396317Y-93046758D01*
X89250000Y-93017654D01*
X86650000Y-93017654D01*
X86503683Y-93046758D01*
X86379641Y-93129641D01*
X86296758Y-93253683D01*
X86267654Y-93400000D01*
X81032346Y-93400000D01*
X81003242Y-93253683D01*
X80920359Y-93129641D01*
X80796317Y-93046758D01*
X80650000Y-93017654D01*
X78050000Y-93017654D01*
X77903683Y-93046758D01*
X77779641Y-93129641D01*
X77696758Y-93253683D01*
X77667654Y-93400000D01*
X72475000Y-93400000D01*
X72475000Y-93315462D01*
X72410298Y-93159257D01*
X72290743Y-93039702D01*
X72134538Y-92975000D01*
X70931250Y-92975000D01*
X70825000Y-93081250D01*
X70675000Y-93081250D01*
X70568750Y-92975000D01*
X69365462Y-92975000D01*
X69209257Y-93039702D01*
X69089702Y-93159257D01*
X69025000Y-93315462D01*
X66094092Y-93315462D01*
X65392852Y-93025000D01*
X64607148Y-93025000D01*
X63881252Y-93325675D01*
X63325675Y-93881252D01*
X63025000Y-94607148D01*
X60450000Y-94607148D01*
X60450000Y-90450000D01*
X134550000Y-90450000D01*
X134550001Y-146375000D01*
X134550001Y-146375000D01*
G37*
X134550001Y-146375000D02*
X104125000Y-146375000D01*
X104125000Y-145000000D01*
X104115485Y-144952165D01*
X104092144Y-144915534D01*
X97208959Y-137406604D01*
X98025000Y-137406604D01*
X98025000Y-137993396D01*
X98249555Y-138535520D01*
X98664480Y-138950445D01*
X99206604Y-139175000D01*
X99793396Y-139175000D01*
X100335520Y-138950445D01*
X100750445Y-138535520D01*
X100975000Y-137993396D01*
X100975000Y-137406604D01*
X100750445Y-136864480D01*
X100335520Y-136449555D01*
X99793396Y-136225000D01*
X99206604Y-136225000D01*
X98664480Y-136449555D01*
X98249555Y-136864480D01*
X98025000Y-137406604D01*
X97208959Y-137406604D01*
X93393049Y-133243793D01*
X108842273Y-133243793D01*
X108947812Y-133457951D01*
X109474204Y-133668397D01*
X110041060Y-133661383D01*
X110532188Y-133457951D01*
X110637727Y-133243793D01*
X109740000Y-132346066D01*
X108842273Y-133243793D01*
X93393049Y-133243793D01*
X93125000Y-132951377D01*
X93125000Y-131974204D01*
X108311603Y-131974204D01*
X108318617Y-132541060D01*
X108522049Y-133032188D01*
X108736207Y-133137727D01*
X109633934Y-132240000D01*
X109846066Y-132240000D01*
X110743793Y-133137727D01*
X110957951Y-133032188D01*
X111168397Y-132505796D01*
X111161724Y-131966495D01*
X118525000Y-131966495D01*
X118525000Y-132513505D01*
X118734331Y-133018875D01*
X119121125Y-133405669D01*
X119626495Y-133615000D01*
X120173505Y-133615000D01*
X120678875Y-133405669D01*
X121065669Y-133018875D01*
X121275000Y-132513505D01*
X121275000Y-131966495D01*
X128685000Y-131966495D01*
X128685000Y-132513505D01*
X128894331Y-133018875D01*
X129281125Y-133405669D01*
X129786495Y-133615000D01*
X130333505Y-133615000D01*
X130838875Y-133405669D01*
X131225669Y-133018875D01*
X131435000Y-132513505D01*
X131435000Y-131966495D01*
X131225669Y-131461125D01*
X130838875Y-131074331D01*
X130333505Y-130865000D01*
X129786495Y-130865000D01*
X129281125Y-131074331D01*
X128894331Y-131461125D01*
X128685000Y-131966495D01*
X121275000Y-131966495D01*
X121065669Y-131461125D01*
X120678875Y-131074331D01*
X120173505Y-130865000D01*
X119626495Y-130865000D01*
X119121125Y-131074331D01*
X118734331Y-131461125D01*
X118525000Y-131966495D01*
X111161724Y-131966495D01*
X111161383Y-131938940D01*
X110957951Y-131447812D01*
X110743793Y-131342273D01*
X109846066Y-132240000D01*
X109633934Y-132240000D01*
X108736207Y-131342273D01*
X108522049Y-131447812D01*
X108311603Y-131974204D01*
X93125000Y-131974204D01*
X93125000Y-131236207D01*
X108842273Y-131236207D01*
X109740000Y-132133934D01*
X110637727Y-131236207D01*
X110532188Y-131022049D01*
X110005796Y-130811603D01*
X109438940Y-130818617D01*
X108947812Y-131022049D01*
X108842273Y-131236207D01*
X93125000Y-131236207D01*
X93125000Y-127206604D01*
X98025000Y-127206604D01*
X98025000Y-127793396D01*
X98249555Y-128335520D01*
X98664480Y-128750445D01*
X99206604Y-128975000D01*
X99793396Y-128975000D01*
X100335520Y-128750445D01*
X100750445Y-128335520D01*
X100975000Y-127793396D01*
X100975000Y-127206604D01*
X100750445Y-126664480D01*
X100335520Y-126249555D01*
X99793396Y-126025000D01*
X99206604Y-126025000D01*
X98664480Y-126249555D01*
X98249555Y-126664480D01*
X98025000Y-127206604D01*
X93125000Y-127206604D01*
X93125000Y-124000000D01*
X93115485Y-123952165D01*
X93088388Y-123911612D01*
X89759188Y-120582412D01*
X90222817Y-120461810D01*
X90624611Y-120158145D01*
X90879613Y-119723835D01*
X90919245Y-119575316D01*
X99580755Y-119575316D01*
X99620387Y-119723835D01*
X99875389Y-120158145D01*
X100277183Y-120461810D01*
X100764600Y-120588600D01*
X101425000Y-120588600D01*
X101425000Y-119375000D01*
X101575000Y-119375000D01*
X101575000Y-120588600D01*
X102235400Y-120588600D01*
X102722817Y-120461810D01*
X103102309Y-120175000D01*
X106292654Y-120175000D01*
X106292654Y-123625000D01*
X106321758Y-123771317D01*
X106404641Y-123895359D01*
X106528683Y-123978242D01*
X106675000Y-124007346D01*
X110125000Y-124007346D01*
X110271317Y-123978242D01*
X110395359Y-123895359D01*
X110478242Y-123771317D01*
X110507346Y-123625000D01*
X110507346Y-122081250D01*
X123650000Y-122081250D01*
X123650000Y-123709538D01*
X123714702Y-123865743D01*
X123834257Y-123985298D01*
X123990462Y-124050000D01*
X125618750Y-124050000D01*
X125725000Y-123943750D01*
X125725000Y-121975000D01*
X125875000Y-121975000D01*
X125875000Y-123943750D01*
X125981250Y-124050000D01*
X127609538Y-124050000D01*
X127765743Y-123985298D01*
X127885298Y-123865743D01*
X127950000Y-123709538D01*
X127950000Y-122081250D01*
X127843750Y-121975000D01*
X125875000Y-121975000D01*
X125725000Y-121975000D01*
X123756250Y-121975000D01*
X123650000Y-122081250D01*
X110507346Y-122081250D01*
X110507346Y-120175000D01*
X110490531Y-120090462D01*
X123650000Y-120090462D01*
X123650000Y-121718750D01*
X123756250Y-121825000D01*
X125725000Y-121825000D01*
X125725000Y-119856250D01*
X125875000Y-119856250D01*
X125875000Y-121825000D01*
X127843750Y-121825000D01*
X127950000Y-121718750D01*
X127950000Y-121559336D01*
X129546730Y-121559336D01*
X129627858Y-121752722D01*
X130081882Y-121929806D01*
X130569111Y-121919662D01*
X130972142Y-121752722D01*
X131053270Y-121559336D01*
X130300000Y-120806066D01*
X129546730Y-121559336D01*
X127950000Y-121559336D01*
X127950000Y-120481882D01*
X129070194Y-120481882D01*
X129080338Y-120969111D01*
X129247278Y-121372142D01*
X129440664Y-121453270D01*
X130193934Y-120700000D01*
X130406066Y-120700000D01*
X131159336Y-121453270D01*
X131322936Y-121384637D01*
X131634416Y-121696117D01*
X132066278Y-121875000D01*
X132533722Y-121875000D01*
X132965584Y-121696117D01*
X133296117Y-121365584D01*
X133475000Y-120933722D01*
X133475000Y-120466278D01*
X133296117Y-120034416D01*
X132965584Y-119703883D01*
X132533722Y-119525000D01*
X132066278Y-119525000D01*
X131634416Y-119703883D01*
X131322936Y-120015363D01*
X131159336Y-119946730D01*
X130406066Y-120700000D01*
X130193934Y-120700000D01*
X129440664Y-119946730D01*
X129247278Y-120027858D01*
X129070194Y-120481882D01*
X127950000Y-120481882D01*
X127950000Y-120090462D01*
X127885298Y-119934257D01*
X127791705Y-119840664D01*
X129546730Y-119840664D01*
X130300000Y-120593934D01*
X131053270Y-119840664D01*
X130972142Y-119647278D01*
X130518118Y-119470194D01*
X130030889Y-119480338D01*
X129627858Y-119647278D01*
X129546730Y-119840664D01*
X127791705Y-119840664D01*
X127765743Y-119814702D01*
X127609538Y-119750000D01*
X125981250Y-119750000D01*
X125875000Y-119856250D01*
X125725000Y-119856250D01*
X125618750Y-119750000D01*
X123990462Y-119750000D01*
X123834257Y-119814702D01*
X123714702Y-119934257D01*
X123650000Y-120090462D01*
X110490531Y-120090462D01*
X110478242Y-120028683D01*
X110395359Y-119904641D01*
X110271317Y-119821758D01*
X110125000Y-119792654D01*
X106675000Y-119792654D01*
X106528683Y-119821758D01*
X106404641Y-119904641D01*
X106321758Y-120028683D01*
X106292654Y-120175000D01*
X103102309Y-120175000D01*
X103124611Y-120158145D01*
X103379613Y-119723835D01*
X103419245Y-119575316D01*
X103340369Y-119375000D01*
X101575000Y-119375000D01*
X101425000Y-119375000D01*
X99659631Y-119375000D01*
X99580755Y-119575316D01*
X90919245Y-119575316D01*
X90840369Y-119375000D01*
X89075000Y-119375000D01*
X89075000Y-119395000D01*
X88925000Y-119395000D01*
X88925000Y-119375000D01*
X88905000Y-119375000D01*
X88905000Y-119225000D01*
X88925000Y-119225000D01*
X88925000Y-118011400D01*
X89075000Y-118011400D01*
X89075000Y-119225000D01*
X90840369Y-119225000D01*
X90919245Y-119024684D01*
X99580755Y-119024684D01*
X99659631Y-119225000D01*
X101425000Y-119225000D01*
X101425000Y-118011400D01*
X101575000Y-118011400D01*
X101575000Y-119225000D01*
X103340369Y-119225000D01*
X103419245Y-119024684D01*
X103379613Y-118876165D01*
X103124611Y-118441855D01*
X102722817Y-118138190D01*
X102235400Y-118011400D01*
X101575000Y-118011400D01*
X101425000Y-118011400D01*
X100764600Y-118011400D01*
X100277183Y-118138190D01*
X99875389Y-118441855D01*
X99620387Y-118876165D01*
X99580755Y-119024684D01*
X90919245Y-119024684D01*
X90879613Y-118876165D01*
X90624611Y-118441855D01*
X90222817Y-118138190D01*
X89735400Y-118011400D01*
X89075000Y-118011400D01*
X88925000Y-118011400D01*
X88264600Y-118011400D01*
X87777183Y-118138190D01*
X87513927Y-118337151D01*
X87180569Y-118003793D01*
X108802273Y-118003793D01*
X108907812Y-118217951D01*
X109434204Y-118428397D01*
X110001060Y-118421383D01*
X110492188Y-118217951D01*
X110597727Y-118003793D01*
X109700000Y-117106066D01*
X108802273Y-118003793D01*
X87180569Y-118003793D01*
X85910980Y-116734204D01*
X108271603Y-116734204D01*
X108278617Y-117301060D01*
X108482049Y-117792188D01*
X108696207Y-117897727D01*
X109593934Y-117000000D01*
X109806066Y-117000000D01*
X110703793Y-117897727D01*
X110917951Y-117792188D01*
X111128397Y-117265796D01*
X111121724Y-116726495D01*
X121625000Y-116726495D01*
X121625000Y-117273505D01*
X121834331Y-117778875D01*
X122221125Y-118165669D01*
X122726495Y-118375000D01*
X123273505Y-118375000D01*
X123778875Y-118165669D01*
X124165669Y-117778875D01*
X124375000Y-117273505D01*
X124375000Y-116726495D01*
X124165669Y-116221125D01*
X123778875Y-115834331D01*
X123273505Y-115625000D01*
X122726495Y-115625000D01*
X122221125Y-115834331D01*
X121834331Y-116221125D01*
X121625000Y-116726495D01*
X111121724Y-116726495D01*
X111121383Y-116698940D01*
X110917951Y-116207812D01*
X110703793Y-116102273D01*
X109806066Y-117000000D01*
X109593934Y-117000000D01*
X108696207Y-116102273D01*
X108482049Y-116207812D01*
X108271603Y-116734204D01*
X85910980Y-116734204D01*
X85172983Y-115996207D01*
X108802273Y-115996207D01*
X109700000Y-116893934D01*
X110597727Y-115996207D01*
X110492188Y-115782049D01*
X109965796Y-115571603D01*
X109398940Y-115578617D01*
X108907812Y-115782049D01*
X108802273Y-115996207D01*
X85172983Y-115996207D01*
X83476776Y-114300000D01*
X87076735Y-114300000D01*
X87172865Y-114783278D01*
X87446620Y-115192980D01*
X87856322Y-115466735D01*
X88217612Y-115538600D01*
X89782388Y-115538600D01*
X90143678Y-115466735D01*
X90553380Y-115192980D01*
X90827135Y-114783278D01*
X90923265Y-114300000D01*
X99576735Y-114300000D01*
X99672865Y-114783278D01*
X99946620Y-115192980D01*
X100356322Y-115466735D01*
X100717612Y-115538600D01*
X102282388Y-115538600D01*
X102643678Y-115466735D01*
X103053380Y-115192980D01*
X103327135Y-114783278D01*
X103423265Y-114300000D01*
X103327135Y-113816722D01*
X103053380Y-113407020D01*
X102643678Y-113133265D01*
X102282388Y-113061400D01*
X100717612Y-113061400D01*
X100356322Y-113133265D01*
X99946620Y-113407020D01*
X99672865Y-113816722D01*
X99576735Y-114300000D01*
X90923265Y-114300000D01*
X90827135Y-113816722D01*
X90553380Y-113407020D01*
X90143678Y-113133265D01*
X89782388Y-113061400D01*
X88217612Y-113061400D01*
X87856322Y-113133265D01*
X87446620Y-113407020D01*
X87172865Y-113816722D01*
X87076735Y-114300000D01*
X83476776Y-114300000D01*
X79088388Y-109911612D01*
X79047835Y-109884515D01*
X79000000Y-109875000D01*
X60450000Y-109875000D01*
X60450000Y-108540000D01*
X88201981Y-108540000D01*
X88293175Y-108998462D01*
X88552873Y-109387127D01*
X88941538Y-109646825D01*
X89284276Y-109715000D01*
X90315724Y-109715000D01*
X90658462Y-109646825D01*
X91047127Y-109387127D01*
X91306825Y-108998462D01*
X91398019Y-108540000D01*
X95821981Y-108540000D01*
X95913175Y-108998462D01*
X96172873Y-109387127D01*
X96561538Y-109646825D01*
X96904276Y-109715000D01*
X97935724Y-109715000D01*
X98278462Y-109646825D01*
X98667127Y-109387127D01*
X98926825Y-108998462D01*
X99018019Y-108540000D01*
X98926825Y-108081538D01*
X98667127Y-107692873D01*
X98278462Y-107433175D01*
X97935724Y-107365000D01*
X96904276Y-107365000D01*
X96561538Y-107433175D01*
X96172873Y-107692873D01*
X95913175Y-108081538D01*
X95821981Y-108540000D01*
X91398019Y-108540000D01*
X91306825Y-108081538D01*
X91047127Y-107692873D01*
X90658462Y-107433175D01*
X90315724Y-107365000D01*
X89284276Y-107365000D01*
X88941538Y-107433175D01*
X88552873Y-107692873D01*
X88293175Y-108081538D01*
X88201981Y-108540000D01*
X60450000Y-108540000D01*
X60450000Y-105857420D01*
X70375000Y-105857420D01*
X70375000Y-106742580D01*
X70713736Y-107560361D01*
X71339639Y-108186264D01*
X72157420Y-108525000D01*
X73042580Y-108525000D01*
X73860361Y-108186264D01*
X74486264Y-107560361D01*
X74825000Y-106742580D01*
X74825000Y-105857420D01*
X75075000Y-105857420D01*
X75075000Y-106742580D01*
X75413736Y-107560361D01*
X76039639Y-108186264D01*
X76857420Y-108525000D01*
X77742580Y-108525000D01*
X78560361Y-108186264D01*
X79186264Y-107560361D01*
X79525000Y-106742580D01*
X79525000Y-105857420D01*
X79775000Y-105857420D01*
X79775000Y-106742580D01*
X80113736Y-107560361D01*
X80739639Y-108186264D01*
X81557420Y-108525000D01*
X82442580Y-108525000D01*
X83260361Y-108186264D01*
X83886264Y-107560361D01*
X84225000Y-106742580D01*
X84225000Y-106019543D01*
X84918028Y-105326515D01*
X85044543Y-105200000D01*
X88217654Y-105200000D01*
X88217654Y-106800000D01*
X88246758Y-106946317D01*
X88329641Y-107070359D01*
X88453683Y-107153242D01*
X88600000Y-107182346D01*
X91000000Y-107182346D01*
X91146317Y-107153242D01*
X91270359Y-107070359D01*
X91353242Y-106946317D01*
X91382346Y-106800000D01*
X91382346Y-105200000D01*
X91353242Y-105053683D01*
X91270359Y-104929641D01*
X91146317Y-104846758D01*
X91000000Y-104817654D01*
X88600000Y-104817654D01*
X88453683Y-104846758D01*
X88329641Y-104929641D01*
X88246758Y-105053683D01*
X88217654Y-105200000D01*
X85044543Y-105200000D01*
X85869544Y-104375000D01*
X96795001Y-104375000D01*
X96795000Y-104846736D01*
X96561538Y-104893175D01*
X96172873Y-105152873D01*
X95913175Y-105541538D01*
X95821981Y-106000000D01*
X95913175Y-106458462D01*
X96172873Y-106847127D01*
X96561538Y-107106825D01*
X96904276Y-107175000D01*
X97935724Y-107175000D01*
X98278462Y-107106825D01*
X98667127Y-106847127D01*
X98926825Y-106458462D01*
X99018019Y-106000000D01*
X98926825Y-105541538D01*
X98667127Y-105152873D01*
X98278462Y-104893175D01*
X98045000Y-104846736D01*
X98045000Y-104375000D01*
X99714162Y-104375000D01*
X107815675Y-112476513D01*
X107892386Y-112591319D01*
X108007191Y-112668029D01*
X108347207Y-112895221D01*
X108883705Y-113001937D01*
X109019127Y-112975000D01*
X109728375Y-112975000D01*
X110239639Y-113486264D01*
X111057420Y-113825000D01*
X111942580Y-113825000D01*
X112760361Y-113486264D01*
X113386264Y-112860361D01*
X113725000Y-112042580D01*
X113725000Y-111157420D01*
X113662862Y-111007406D01*
X113975000Y-111319544D01*
X113975000Y-112042580D01*
X114313736Y-112860361D01*
X114939639Y-113486264D01*
X115757420Y-113825000D01*
X116642580Y-113825000D01*
X117460361Y-113486264D01*
X117971625Y-112975000D01*
X119128375Y-112975000D01*
X119639639Y-113486264D01*
X120457420Y-113825000D01*
X121342580Y-113825000D01*
X122160361Y-113486264D01*
X122786264Y-112860361D01*
X123125000Y-112042580D01*
X123125000Y-111306150D01*
X123325220Y-111006499D01*
X123325221Y-111006498D01*
X123405000Y-110605422D01*
X123405000Y-110605418D01*
X123431936Y-110470001D01*
X123405000Y-110334584D01*
X123405000Y-106654578D01*
X123325221Y-106253502D01*
X123021319Y-105798681D01*
X122566498Y-105494779D01*
X122030000Y-105388063D01*
X121493503Y-105494779D01*
X121038682Y-105798681D01*
X120734780Y-106253502D01*
X120706570Y-106395324D01*
X120570893Y-106067770D01*
X120212230Y-105709107D01*
X119743613Y-105515000D01*
X119236387Y-105515000D01*
X118767770Y-105709107D01*
X118409107Y-106067770D01*
X118215000Y-106536387D01*
X118215000Y-107043613D01*
X118409107Y-107512230D01*
X118767770Y-107870893D01*
X119236387Y-108065000D01*
X119743613Y-108065000D01*
X120212230Y-107870893D01*
X120570893Y-107512230D01*
X120655001Y-107309175D01*
X120655000Y-109375000D01*
X120457420Y-109375000D01*
X119639639Y-109713736D01*
X119128375Y-110225000D01*
X117971625Y-110225000D01*
X117460361Y-109713736D01*
X116642580Y-109375000D01*
X115919544Y-109375000D01*
X112458030Y-105913487D01*
X112381319Y-105798681D01*
X111926498Y-105494779D01*
X111819407Y-105473477D01*
X112032173Y-105385347D01*
X112125509Y-105181575D01*
X111300000Y-104356066D01*
X110474491Y-105181575D01*
X110567827Y-105385347D01*
X110642846Y-105415000D01*
X109894578Y-105415000D01*
X109493502Y-105494779D01*
X109038681Y-105798681D01*
X108734779Y-106253502D01*
X108706569Y-106395322D01*
X108570893Y-106067770D01*
X108212230Y-105709107D01*
X107743613Y-105515000D01*
X107236387Y-105515000D01*
X106767770Y-105709107D01*
X106409107Y-106067770D01*
X106215000Y-106536387D01*
X106215000Y-106986752D01*
X103224635Y-103996387D01*
X107485000Y-103996387D01*
X107485000Y-104503613D01*
X107679107Y-104972230D01*
X108037770Y-105330893D01*
X108506387Y-105525000D01*
X109013613Y-105525000D01*
X109482230Y-105330893D01*
X109840893Y-104972230D01*
X110000714Y-104586388D01*
X110164653Y-104982173D01*
X110368425Y-105075509D01*
X111193934Y-104250000D01*
X111406066Y-104250000D01*
X112231575Y-105075509D01*
X112435347Y-104982173D01*
X112629114Y-104491961D01*
X112621049Y-103996387D01*
X119485000Y-103996387D01*
X119485000Y-104503613D01*
X119679107Y-104972230D01*
X120037770Y-105330893D01*
X120506387Y-105525000D01*
X121013613Y-105525000D01*
X121482230Y-105330893D01*
X121631548Y-105181575D01*
X122474491Y-105181575D01*
X122567827Y-105385347D01*
X123058039Y-105579114D01*
X123585087Y-105570536D01*
X124032173Y-105385347D01*
X124125509Y-105181575D01*
X123300000Y-104356066D01*
X122474491Y-105181575D01*
X121631548Y-105181575D01*
X121840893Y-104972230D01*
X122000714Y-104586388D01*
X122164653Y-104982173D01*
X122368425Y-105075509D01*
X123193934Y-104250000D01*
X123406066Y-104250000D01*
X124231575Y-105075509D01*
X124435347Y-104982173D01*
X124629114Y-104491961D01*
X124620536Y-103964913D01*
X124435347Y-103517827D01*
X124231575Y-103424491D01*
X123406066Y-104250000D01*
X123193934Y-104250000D01*
X122368425Y-103424491D01*
X122164653Y-103517827D01*
X122004550Y-103922873D01*
X121840893Y-103527770D01*
X121631548Y-103318425D01*
X122474491Y-103318425D01*
X123300000Y-104143934D01*
X124125509Y-103318425D01*
X124032173Y-103114653D01*
X123541961Y-102920886D01*
X123014913Y-102929464D01*
X122567827Y-103114653D01*
X122474491Y-103318425D01*
X121631548Y-103318425D01*
X121482230Y-103169107D01*
X121013613Y-102975000D01*
X120506387Y-102975000D01*
X120037770Y-103169107D01*
X119679107Y-103527770D01*
X119485000Y-103996387D01*
X112621049Y-103996387D01*
X112620536Y-103964913D01*
X112435347Y-103517827D01*
X112231575Y-103424491D01*
X111406066Y-104250000D01*
X111193934Y-104250000D01*
X110368425Y-103424491D01*
X110164653Y-103517827D01*
X110004550Y-103922873D01*
X109840893Y-103527770D01*
X109631548Y-103318425D01*
X110474491Y-103318425D01*
X111300000Y-104143934D01*
X112125509Y-103318425D01*
X112032173Y-103114653D01*
X111541961Y-102920886D01*
X111014913Y-102929464D01*
X110567827Y-103114653D01*
X110474491Y-103318425D01*
X109631548Y-103318425D01*
X109482230Y-103169107D01*
X109013613Y-102975000D01*
X108506387Y-102975000D01*
X108037770Y-103169107D01*
X107679107Y-103527770D01*
X107485000Y-103996387D01*
X103224635Y-103996387D01*
X101351735Y-102123487D01*
X101275024Y-102008681D01*
X100820203Y-101704779D01*
X100475000Y-101636114D01*
X100475000Y-101336966D01*
X100998811Y-101119996D01*
X101469996Y-100648811D01*
X101725000Y-100033178D01*
X101725000Y-99366822D01*
X101469996Y-98751189D01*
X100998811Y-98280004D01*
X100383178Y-98025000D01*
X99716822Y-98025000D01*
X99101189Y-98280004D01*
X98630004Y-98751189D01*
X98375000Y-99366822D01*
X98375000Y-100033178D01*
X98630004Y-100648811D01*
X99101189Y-101119996D01*
X99225000Y-101171280D01*
X99225001Y-101625000D01*
X85435416Y-101625000D01*
X85299999Y-101598064D01*
X85164582Y-101625000D01*
X85164578Y-101625000D01*
X84763502Y-101704779D01*
X84763500Y-101704780D01*
X84763501Y-101704780D01*
X84423485Y-101931971D01*
X84423484Y-101931972D01*
X84308681Y-102008681D01*
X84231972Y-102123484D01*
X82973485Y-103381972D01*
X82280457Y-104075000D01*
X81557420Y-104075000D01*
X80739639Y-104413736D01*
X80113736Y-105039639D01*
X79775000Y-105857420D01*
X79525000Y-105857420D01*
X79186264Y-105039639D01*
X78560361Y-104413736D01*
X77742580Y-104075000D01*
X76857420Y-104075000D01*
X76039639Y-104413736D01*
X75413736Y-105039639D01*
X75075000Y-105857420D01*
X74825000Y-105857420D01*
X74486264Y-105039639D01*
X73860361Y-104413736D01*
X73042580Y-104075000D01*
X72157420Y-104075000D01*
X71339639Y-104413736D01*
X70713736Y-105039639D01*
X70375000Y-105857420D01*
X60450000Y-105857420D01*
X60450000Y-99366822D01*
X72575000Y-99366822D01*
X72575000Y-100033178D01*
X72830004Y-100648811D01*
X73301189Y-101119996D01*
X73916822Y-101375000D01*
X74583178Y-101375000D01*
X75198811Y-101119996D01*
X75669996Y-100648811D01*
X75925000Y-100033178D01*
X75925000Y-99366822D01*
X81175000Y-99366822D01*
X81175000Y-100033178D01*
X81430004Y-100648811D01*
X81901189Y-101119996D01*
X82516822Y-101375000D01*
X83183178Y-101375000D01*
X83798811Y-101119996D01*
X84269996Y-100648811D01*
X84525000Y-100033178D01*
X84525000Y-99366822D01*
X89775000Y-99366822D01*
X89775000Y-100033178D01*
X90030004Y-100648811D01*
X90501189Y-101119996D01*
X91116822Y-101375000D01*
X91783178Y-101375000D01*
X92398811Y-101119996D01*
X92869996Y-100648811D01*
X93125000Y-100033178D01*
X93125000Y-99366822D01*
X92869996Y-98751189D01*
X92398811Y-98280004D01*
X91783178Y-98025000D01*
X91116822Y-98025000D01*
X90501189Y-98280004D01*
X90030004Y-98751189D01*
X89775000Y-99366822D01*
X84525000Y-99366822D01*
X84269996Y-98751189D01*
X83798811Y-98280004D01*
X83183178Y-98025000D01*
X82516822Y-98025000D01*
X81901189Y-98280004D01*
X81430004Y-98751189D01*
X81175000Y-99366822D01*
X75925000Y-99366822D01*
X75669996Y-98751189D01*
X75198811Y-98280004D01*
X74583178Y-98025000D01*
X73916822Y-98025000D01*
X73301189Y-98280004D01*
X72830004Y-98751189D01*
X72575000Y-99366822D01*
X60450000Y-99366822D01*
X60450000Y-97502175D01*
X103590000Y-97502175D01*
X103590000Y-98297825D01*
X103894482Y-99032909D01*
X104457091Y-99595518D01*
X105192175Y-99900000D01*
X105987825Y-99900000D01*
X106722909Y-99595518D01*
X107285518Y-99032909D01*
X107590000Y-98297825D01*
X107590000Y-97502175D01*
X111210000Y-97502175D01*
X111210000Y-98297825D01*
X111514482Y-99032909D01*
X112077091Y-99595518D01*
X112812175Y-99900000D01*
X113607825Y-99900000D01*
X114342909Y-99595518D01*
X114905518Y-99032909D01*
X115210000Y-98297825D01*
X115210000Y-97502175D01*
X115590000Y-97502175D01*
X115590000Y-98297825D01*
X115894482Y-99032909D01*
X116457091Y-99595518D01*
X117192175Y-99900000D01*
X117987825Y-99900000D01*
X118722909Y-99595518D01*
X119285518Y-99032909D01*
X119590000Y-98297825D01*
X119590000Y-97502175D01*
X123210000Y-97502175D01*
X123210000Y-98297825D01*
X123514482Y-99032909D01*
X124077091Y-99595518D01*
X124812175Y-99900000D01*
X125607825Y-99900000D01*
X126342909Y-99595518D01*
X126905518Y-99032909D01*
X127210000Y-98297825D01*
X127210000Y-97502175D01*
X126905518Y-96767091D01*
X126342909Y-96204482D01*
X125607825Y-95900000D01*
X124812175Y-95900000D01*
X124077091Y-96204482D01*
X123514482Y-96767091D01*
X123210000Y-97502175D01*
X119590000Y-97502175D01*
X119285518Y-96767091D01*
X118722909Y-96204482D01*
X117987825Y-95900000D01*
X117192175Y-95900000D01*
X116457091Y-96204482D01*
X115894482Y-96767091D01*
X115590000Y-97502175D01*
X115210000Y-97502175D01*
X114905518Y-96767091D01*
X114342909Y-96204482D01*
X113607825Y-95900000D01*
X112812175Y-95900000D01*
X112077091Y-96204482D01*
X111514482Y-96767091D01*
X111210000Y-97502175D01*
X107590000Y-97502175D01*
X107285518Y-96767091D01*
X106722909Y-96204482D01*
X105987825Y-95900000D01*
X105192175Y-95900000D01*
X104457091Y-96204482D01*
X103894482Y-96767091D01*
X103590000Y-97502175D01*
X60450000Y-97502175D01*
X60450000Y-94607148D01*
X63025000Y-94607148D01*
X63025000Y-95392852D01*
X63325675Y-96118748D01*
X63881252Y-96674325D01*
X64607148Y-96975000D01*
X65392852Y-96975000D01*
X66118748Y-96674325D01*
X66674325Y-96118748D01*
X66975000Y-95392852D01*
X66975000Y-94881250D01*
X69025000Y-94881250D01*
X69025000Y-96084538D01*
X69089702Y-96240743D01*
X69209257Y-96360298D01*
X69365462Y-96425000D01*
X70568750Y-96425000D01*
X70675000Y-96318750D01*
X70675000Y-94775000D01*
X70825000Y-94775000D01*
X70825000Y-96318750D01*
X70931250Y-96425000D01*
X72134538Y-96425000D01*
X72290743Y-96360298D01*
X72410298Y-96240743D01*
X72475000Y-96084538D01*
X72475000Y-94881250D01*
X72368750Y-94775000D01*
X70825000Y-94775000D01*
X70675000Y-94775000D01*
X69131250Y-94775000D01*
X69025000Y-94881250D01*
X66975000Y-94881250D01*
X66975000Y-94607148D01*
X66674325Y-93881252D01*
X66118748Y-93325675D01*
X66094092Y-93315462D01*
X69025000Y-93315462D01*
X69025000Y-94518750D01*
X69131250Y-94625000D01*
X70675000Y-94625000D01*
X70675000Y-93081250D01*
X70825000Y-93081250D01*
X70825000Y-94625000D01*
X72368750Y-94625000D01*
X72475000Y-94518750D01*
X72475000Y-93400000D01*
X77667654Y-93400000D01*
X77667654Y-96000000D01*
X77696758Y-96146317D01*
X77779641Y-96270359D01*
X77903683Y-96353242D01*
X78050000Y-96382346D01*
X80650000Y-96382346D01*
X80796317Y-96353242D01*
X80920359Y-96270359D01*
X81003242Y-96146317D01*
X81032346Y-96000000D01*
X81032346Y-93400000D01*
X86267654Y-93400000D01*
X86267654Y-96000000D01*
X86296758Y-96146317D01*
X86379641Y-96270359D01*
X86503683Y-96353242D01*
X86650000Y-96382346D01*
X89250000Y-96382346D01*
X89396317Y-96353242D01*
X89520359Y-96270359D01*
X89603242Y-96146317D01*
X89632346Y-96000000D01*
X89632346Y-93400000D01*
X94867654Y-93400000D01*
X94867654Y-96000000D01*
X94896758Y-96146317D01*
X94979641Y-96270359D01*
X95103683Y-96353242D01*
X95250000Y-96382346D01*
X97850000Y-96382346D01*
X97996317Y-96353242D01*
X98120359Y-96270359D01*
X98203242Y-96146317D01*
X98232346Y-96000000D01*
X98232346Y-93607148D01*
X129025000Y-93607148D01*
X129025000Y-94392852D01*
X129325675Y-95118748D01*
X129881252Y-95674325D01*
X130607148Y-95975000D01*
X131392852Y-95975000D01*
X132118748Y-95674325D01*
X132674325Y-95118748D01*
X132975000Y-94392852D01*
X132975000Y-93607148D01*
X132674325Y-92881252D01*
X132118748Y-92325675D01*
X131392852Y-92025000D01*
X130607148Y-92025000D01*
X129881252Y-92325675D01*
X129325675Y-92881252D01*
X129025000Y-93607148D01*
X98232346Y-93607148D01*
X98232346Y-93400000D01*
X98203242Y-93253683D01*
X98120359Y-93129641D01*
X97996317Y-93046758D01*
X97850000Y-93017654D01*
X95250000Y-93017654D01*
X95103683Y-93046758D01*
X94979641Y-93129641D01*
X94896758Y-93253683D01*
X94867654Y-93400000D01*
X89632346Y-93400000D01*
X89603242Y-93253683D01*
X89520359Y-93129641D01*
X89396317Y-93046758D01*
X89250000Y-93017654D01*
X86650000Y-93017654D01*
X86503683Y-93046758D01*
X86379641Y-93129641D01*
X86296758Y-93253683D01*
X86267654Y-93400000D01*
X81032346Y-93400000D01*
X81003242Y-93253683D01*
X80920359Y-93129641D01*
X80796317Y-93046758D01*
X80650000Y-93017654D01*
X78050000Y-93017654D01*
X77903683Y-93046758D01*
X77779641Y-93129641D01*
X77696758Y-93253683D01*
X77667654Y-93400000D01*
X72475000Y-93400000D01*
X72475000Y-93315462D01*
X72410298Y-93159257D01*
X72290743Y-93039702D01*
X72134538Y-92975000D01*
X70931250Y-92975000D01*
X70825000Y-93081250D01*
X70675000Y-93081250D01*
X70568750Y-92975000D01*
X69365462Y-92975000D01*
X69209257Y-93039702D01*
X69089702Y-93159257D01*
X69025000Y-93315462D01*
X66094092Y-93315462D01*
X65392852Y-93025000D01*
X64607148Y-93025000D01*
X63881252Y-93325675D01*
X63325675Y-93881252D01*
X63025000Y-94607148D01*
X60450000Y-94607148D01*
X60450000Y-90450000D01*
X134550000Y-90450000D01*
X134550001Y-146375000D01*
G04 #@! TD*
M02*
