M48
INCH,TZ
T1C0.0118
T2C0.0315
T3C0.0320
T4C0.0394
T5C0.0400
T6C0.0472
T7C0.0512
%
G90
G05
T1
X63780Y-26772
X63780Y-28740
X63780Y-30709
X63780Y-32677
X63780Y-34646
X63780Y-36614
X63780Y-38583
X63780Y-40551
X63780Y-42520
X65748Y-26772
X65748Y-42520
X65906Y-31811
X66181Y-36063
X66890Y-33504
X67205Y-37087
X67244Y-35394
X67717Y-28661
X67717Y-42520
X67835Y-32913
X68110Y-31811
X68110Y-36575
X68110Y-39764
X68386Y-26811
X68937Y-35945
X69370Y-27008
X69921Y-25118
X70394Y-36693
X70469Y-25328
X70472Y-41339
X70591Y-40079
X70866Y-33858
X70905Y-42677
X70945Y-38661
X71024Y-28976
X71260Y-22835
X71535Y-39331
X71654Y-20472
X71654Y-27205
X72087Y-24843
X72283Y-25315
X72441Y-29921
X72441Y-33465
X72835Y-22835
X72835Y-23622
X72835Y-36220
X72835Y-40945
X73268Y-26457
X73622Y-23622
X73622Y-42520
X74409Y-39370
X74803Y-20472
X74803Y-21654
X74803Y-29528
X75591Y-38189
X75669Y-34606
X75984Y-23622
X75984Y-31732
X75985Y-30394
X76378Y-27559
X76772Y-20472
X76772Y-21654
X77126Y-34449
X77165Y-38583
X77165Y-40157
X77244Y-30984
X77362Y-34764
X77559Y-35827
X77835Y-31299
X78386Y-30000
X78740Y-20472
X78740Y-21654
X78740Y-27165
X79213Y-29606
X79528Y-36614
X80315Y-21654
X80315Y-25197
X80315Y-39370
X80709Y-20472
X80709Y-30709
X80709Y-33858
X80709Y-42520
X81280Y-34370
X81496Y-39764
X81496Y-39764
X81496Y-39764
X81496Y-40551
X81496Y-41339
X81850Y-25084
X81890Y-20472
X81890Y-27559
X82283Y-23622
X82283Y-25591
X82283Y-34646
X82283Y-37008
X83067Y-42470
X83071Y-24409
X83228Y-26378
X83465Y-28740
X83465Y-32283
X83465Y-34646
X84409Y-24843
X84409Y-26339
X84409Y-37972
X84921Y-39961
X85039Y-32283
X85827Y-40551
X85827Y-42520
X87795Y-27953
X87795Y-42520
X89764Y-26772
X89764Y-28740
X89764Y-30709
X89764Y-32677
X89764Y-34646
X89764Y-36614
X89764Y-40551
X89764Y-42520
T2
X69016Y-21260
X69016Y-22260
X72016Y-21260
X72016Y-22260
X81850Y-21244
X81850Y-22244
X84850Y-21244
X84850Y-22244
T3
X68780Y-28150
X68780Y-30118
X73701Y-28150
X73701Y-30118
X68780Y-33268
X68780Y-35236
X73701Y-33268
X73701Y-35236
T4
X80236Y-38031
X73189Y-38937
X83071Y-30827
X83071Y-33819
X85315Y-39055
X75118Y-27835
X89764Y-39764
X80236Y-28622
X81220Y-26654
X82205Y-28622
X73228Y-20472
X81260Y-24764
T5
X74740Y-40945
X74740Y-41945
X75740Y-40945
X75740Y-41945
X76740Y-40945
X76740Y-41945
X77740Y-40945
X77740Y-41945
X78740Y-40945
X78740Y-41945
T6
X74902Y-23622
X75453Y-22303
X75453Y-24941
X78091Y-22303
X78091Y-24941
X78642Y-23622
T7
X64843Y-25689
X66811Y-24311
X86732Y-28445
X88701Y-27067
X64843Y-32461
X66811Y-31083
X64843Y-39232
X66811Y-37854
X64843Y-35846
X66811Y-34469
X86732Y-35217
X88701Y-33839
X86732Y-25059
X88701Y-23681
X86732Y-31831
X88701Y-30453
X64843Y-29075
X66811Y-27697
T0
M30
