G04 #@! TF.GenerationSoftware,KiCad,Pcbnew,(5.0.2)-1*
G04 #@! TF.CreationDate,2019-05-12T18:02:06+02:00*
G04 #@! TF.ProjectId,SafetySystem,53616665-7479-4537-9973-74656d2e6b69,rev?*
G04 #@! TF.SameCoordinates,Original*
G04 #@! TF.FileFunction,Copper,L2,Bot*
G04 #@! TF.FilePolarity,Positive*
%FSLAX46Y46*%
G04 Gerber Fmt 4.6, Leading zero omitted, Abs format (unit mm)*
G04 Created by KiCad (PCBNEW (5.0.2)-1) date 12.05.2019 18:02:06*
%MOMM*%
%LPD*%
G01*
G04 APERTURE LIST*
G04 #@! TA.AperFunction,ComponentPad*
%ADD10C,2.400000*%
G04 #@! TD*
G04 #@! TA.AperFunction,ComponentPad*
%ADD11C,1.550000*%
G04 #@! TD*
G04 #@! TA.AperFunction,ComponentPad*
%ADD12R,1.550000X1.550000*%
G04 #@! TD*
G04 #@! TA.AperFunction,ComponentPad*
%ADD13O,3.048000X1.727200*%
G04 #@! TD*
G04 #@! TA.AperFunction,ComponentPad*
%ADD14C,2.000000*%
G04 #@! TD*
G04 #@! TA.AperFunction,ComponentPad*
%ADD15R,2.600000X2.600000*%
G04 #@! TD*
G04 #@! TA.AperFunction,ComponentPad*
%ADD16C,2.600000*%
G04 #@! TD*
G04 #@! TA.AperFunction,ComponentPad*
%ADD17O,2.400000X1.600000*%
G04 #@! TD*
G04 #@! TA.AperFunction,ComponentPad*
%ADD18R,2.400000X1.600000*%
G04 #@! TD*
G04 #@! TA.AperFunction,ComponentPad*
%ADD19R,2.000000X2.000000*%
G04 #@! TD*
G04 #@! TA.AperFunction,ComponentPad*
%ADD20O,1.727200X1.727200*%
G04 #@! TD*
G04 #@! TA.AperFunction,ComponentPad*
%ADD21R,1.727200X1.727200*%
G04 #@! TD*
G04 #@! TA.AperFunction,ViaPad*
%ADD22C,0.700000*%
G04 #@! TD*
G04 #@! TA.AperFunction,Conductor*
%ADD23C,0.500000*%
G04 #@! TD*
G04 #@! TA.AperFunction,Conductor*
%ADD24C,0.300000*%
G04 #@! TD*
G04 #@! TA.AperFunction,Conductor*
%ADD25C,0.250000*%
G04 #@! TD*
G04 #@! TA.AperFunction,Conductor*
%ADD26C,0.200000*%
G04 #@! TD*
G04 APERTURE END LIST*
D10*
G04 #@! TO.P,U2,4*
G04 #@! TO.N,+5V*
X199750000Y-60000000D03*
G04 #@! TO.P,U2,3*
G04 #@! TO.N,+5VA*
X198350000Y-63350000D03*
G04 #@! TO.P,U2,1*
G04 #@! TO.N,/ADC*
X191650000Y-63350000D03*
G04 #@! TO.P,U2,2*
G04 #@! TO.N,GND*
X190250000Y-60000000D03*
G04 #@! TO.P,U2,1*
G04 #@! TO.N,/ADC*
X191650000Y-56650000D03*
G04 #@! TO.P,U2,3*
G04 #@! TO.N,+5VA*
X198350000Y-56650000D03*
G04 #@! TD*
D11*
G04 #@! TO.P,RV1,3*
G04 #@! TO.N,+5VA*
X203800000Y-72700000D03*
D12*
G04 #@! TO.P,RV1,1*
G04 #@! TO.N,GND*
X208800000Y-72700000D03*
D11*
G04 #@! TO.P,RV1,2*
G04 #@! TO.N,/ADC_POT*
X206300000Y-67700000D03*
G04 #@! TD*
D13*
G04 #@! TO.P,SW3,2*
G04 #@! TO.N,/S_R*
X187200000Y-84500000D03*
G04 #@! TO.P,SW3,1*
G04 #@! TO.N,Net-(Q3-Pad1)*
X187200000Y-89500000D03*
G04 #@! TO.P,SW3,2*
G04 #@! TO.N,/S_R*
X174700000Y-84500000D03*
G04 #@! TO.P,SW3,1*
G04 #@! TO.N,Net-(Q3-Pad1)*
X174700000Y-89500000D03*
G04 #@! TD*
G04 #@! TO.P,SW4,1*
G04 #@! TO.N,/INLET*
X174700000Y-76500000D03*
G04 #@! TO.P,SW4,2*
G04 #@! TO.N,Net-(D13-Pad2)*
X174700000Y-71500000D03*
G04 #@! TO.P,SW4,1*
G04 #@! TO.N,/INLET*
X187200000Y-76500000D03*
G04 #@! TO.P,SW4,2*
G04 #@! TO.N,Net-(D13-Pad2)*
X187200000Y-71500000D03*
G04 #@! TD*
D14*
G04 #@! TO.P,TP6,1*
G04 #@! TO.N,Net-(Q10-Pad1)*
X206400000Y-62900000D03*
G04 #@! TD*
G04 #@! TO.P,TP3,1*
G04 #@! TO.N,GND*
X228000000Y-101000000D03*
G04 #@! TD*
G04 #@! TO.P,TP7,1*
G04 #@! TO.N,Net-(Q9-Pad1)*
X186000000Y-52000000D03*
G04 #@! TD*
G04 #@! TO.P,TP5,1*
G04 #@! TO.N,/SFT_SIG*
X185900000Y-98900000D03*
G04 #@! TD*
G04 #@! TO.P,TP4,1*
G04 #@! TO.N,/ADC*
X190800000Y-70700000D03*
G04 #@! TD*
G04 #@! TO.P,TP1,1*
G04 #@! TO.N,+12V*
X216700000Y-99200000D03*
G04 #@! TD*
G04 #@! TO.P,TP2,1*
G04 #@! TO.N,+5V*
X203800000Y-96600000D03*
G04 #@! TD*
D15*
G04 #@! TO.P,J2,1*
G04 #@! TO.N,+12V*
X164700000Y-91050000D03*
D16*
G04 #@! TO.P,J2,2*
G04 #@! TO.N,/B1*
X169700000Y-87550000D03*
G04 #@! TD*
D17*
G04 #@! TO.P,U4,4*
G04 #@! TO.N,+12V*
X182920000Y-54000000D03*
G04 #@! TO.P,U4,2*
G04 #@! TO.N,Net-(D11-Pad2)*
X175300000Y-56540000D03*
G04 #@! TO.P,U4,3*
G04 #@! TO.N,Net-(Q9-Pad1)*
X182920000Y-56540000D03*
D18*
G04 #@! TO.P,U4,1*
G04 #@! TO.N,Net-(D11-Pad1)*
X175300000Y-54000000D03*
G04 #@! TD*
D15*
G04 #@! TO.P,J1,1*
G04 #@! TO.N,Net-(D1-Pad1)*
X225300000Y-85950000D03*
D16*
G04 #@! TO.P,J1,2*
G04 #@! TO.N,GND*
X220300000Y-89450000D03*
G04 #@! TD*
D14*
G04 #@! TO.P,BZ1,2*
G04 #@! TO.N,Net-(BZ1-Pad2)*
X211000000Y-78300000D03*
D19*
G04 #@! TO.P,BZ1,1*
G04 #@! TO.N,+5V*
X211000000Y-85900000D03*
G04 #@! TD*
D20*
G04 #@! TO.P,J4,10*
G04 #@! TO.N,GND*
X189840000Y-106540000D03*
G04 #@! TO.P,J4,9*
G04 #@! TO.N,/MISO*
X189840000Y-104000000D03*
G04 #@! TO.P,J4,8*
G04 #@! TO.N,GND*
X192380000Y-106540000D03*
G04 #@! TO.P,J4,7*
G04 #@! TO.N,/SCK*
X192380000Y-104000000D03*
G04 #@! TO.P,J4,6*
G04 #@! TO.N,GND*
X194920000Y-106540000D03*
G04 #@! TO.P,J4,5*
G04 #@! TO.N,/RST*
X194920000Y-104000000D03*
G04 #@! TO.P,J4,4*
G04 #@! TO.N,GND*
X197460000Y-106540000D03*
G04 #@! TO.P,J4,3*
G04 #@! TO.N,Net-(J4-Pad3)*
X197460000Y-104000000D03*
G04 #@! TO.P,J4,2*
G04 #@! TO.N,+5V*
X200000000Y-106540000D03*
D21*
G04 #@! TO.P,J4,1*
G04 #@! TO.N,/MOSI*
X200000000Y-104000000D03*
G04 #@! TD*
D15*
G04 #@! TO.P,J3,1*
G04 #@! TO.N,+12V*
X164700000Y-99650000D03*
D16*
G04 #@! TO.P,J3,2*
G04 #@! TO.N,/B2*
X169700000Y-96150000D03*
G04 #@! TD*
D15*
G04 #@! TO.P,J5,1*
G04 #@! TO.N,+12V*
X164700000Y-73850000D03*
D16*
G04 #@! TO.P,J5,2*
G04 #@! TO.N,/INLET*
X169700000Y-70350000D03*
G04 #@! TD*
D15*
G04 #@! TO.P,J7,1*
G04 #@! TO.N,Net-(J7-Pad1)*
X164700000Y-65250000D03*
D16*
G04 #@! TO.P,J7,2*
G04 #@! TO.N,Net-(D11-Pad2)*
X169700000Y-61750000D03*
G04 #@! TD*
D15*
G04 #@! TO.P,J8,1*
G04 #@! TO.N,Net-(J8-Pad1)*
X225300000Y-60150000D03*
D16*
G04 #@! TO.P,J8,2*
G04 #@! TO.N,Net-(D12-Pad2)*
X220300000Y-63650000D03*
G04 #@! TD*
D15*
G04 #@! TO.P,J9,1*
G04 #@! TO.N,+12V*
X164700000Y-82450000D03*
D16*
G04 #@! TO.P,J9,2*
G04 #@! TO.N,Net-(D13-Pad2)*
X169700000Y-78950000D03*
G04 #@! TD*
D15*
G04 #@! TO.P,J10,1*
G04 #@! TO.N,+12V*
X225300000Y-68750000D03*
D16*
G04 #@! TO.P,J10,2*
G04 #@! TO.N,Net-(D14-Pad2)*
X220300000Y-72250000D03*
G04 #@! TD*
D15*
G04 #@! TO.P,J6,1*
G04 #@! TO.N,+12V*
X225300000Y-77350000D03*
D16*
G04 #@! TO.P,J6,2*
G04 #@! TO.N,Net-(D10-Pad2)*
X220300000Y-80850000D03*
G04 #@! TD*
D17*
G04 #@! TO.P,U5,4*
G04 #@! TO.N,+12V*
X207900000Y-56500000D03*
G04 #@! TO.P,U5,2*
G04 #@! TO.N,Net-(D12-Pad2)*
X215520000Y-53960000D03*
G04 #@! TO.P,U5,3*
G04 #@! TO.N,Net-(Q10-Pad1)*
X207900000Y-53960000D03*
D18*
G04 #@! TO.P,U5,1*
G04 #@! TO.N,Net-(D12-Pad1)*
X215520000Y-56500000D03*
G04 #@! TD*
D22*
G04 #@! TO.N,/SFT_SIG*
X181700000Y-99900000D03*
X186100000Y-67200000D03*
X207900000Y-63712500D03*
G04 #@! TO.N,GND*
X195900000Y-87500000D03*
X205000000Y-86000000D03*
X202000000Y-93000000D03*
X204000000Y-100000000D03*
X207000000Y-101000000D03*
X207000000Y-101000000D03*
X207000000Y-101000000D03*
X207000000Y-103000000D03*
X215700000Y-101500000D03*
X218000000Y-103000000D03*
X207000000Y-105000000D03*
X209000000Y-94000000D03*
X212000000Y-88000000D03*
X209000000Y-88000000D03*
X172000000Y-108000000D03*
X173000000Y-101000000D03*
X197000000Y-91000000D03*
X205000000Y-78000000D03*
X211400000Y-67000000D03*
X190000000Y-75000000D03*
X180000000Y-86000000D03*
X192200000Y-87900000D03*
X187000000Y-108000000D03*
X208000000Y-52000000D03*
X182000000Y-52000000D03*
X195000000Y-52000000D03*
X162000000Y-108000000D03*
X167000000Y-108000000D03*
X162000000Y-103000000D03*
X162000000Y-98000000D03*
X162000000Y-93000000D03*
X162000000Y-88000000D03*
X162000000Y-83000000D03*
X162000000Y-78000000D03*
X162000000Y-73000000D03*
X162000000Y-68000000D03*
X167000000Y-68000000D03*
X181000000Y-58000000D03*
X185000000Y-58000000D03*
X185000000Y-60000000D03*
X193000000Y-60000000D03*
X187000000Y-60000000D03*
X190000000Y-52000000D03*
X200000000Y-52000000D03*
X205000000Y-52000000D03*
X209000000Y-60000000D03*
X211000000Y-62000000D03*
X228000000Y-108000000D03*
X223000000Y-108000000D03*
X218000000Y-108000000D03*
X205000000Y-108000000D03*
X196000000Y-102000000D03*
X196000000Y-98000000D03*
X192000000Y-97000000D03*
X189000000Y-100000000D03*
X185000000Y-104000000D03*
X179000000Y-105000000D03*
X179300000Y-101800000D03*
X180200000Y-98200000D03*
X178800000Y-93200000D03*
X175100000Y-91300000D03*
X173000000Y-92900000D03*
X170800000Y-89900000D03*
X170700000Y-94200000D03*
X168100000Y-91600000D03*
X169900000Y-85100000D03*
X173000000Y-80800000D03*
X167400000Y-80800000D03*
X180400000Y-73600000D03*
X182000000Y-69100000D03*
X183100000Y-63100000D03*
X176200000Y-68600000D03*
X173700000Y-68100000D03*
X177600000Y-63800000D03*
X172000000Y-72800000D03*
X194000000Y-70000000D03*
X200000000Y-69000000D03*
X209000000Y-65000000D03*
X204000000Y-64000000D03*
X204000000Y-55000000D03*
X195000000Y-55000000D03*
X200000000Y-55000000D03*
X190000000Y-55000000D03*
X184000000Y-85000000D03*
X184000000Y-76000000D03*
X185000000Y-92000000D03*
X228000000Y-103000000D03*
X228000000Y-93000000D03*
X228000000Y-88000000D03*
X228000000Y-83000000D03*
X228000000Y-78000000D03*
X228000000Y-73000000D03*
X228000000Y-68000000D03*
X223000000Y-71000000D03*
X212000000Y-73000000D03*
X212000000Y-82000000D03*
X216000000Y-82000000D03*
X208000000Y-70000000D03*
G04 #@! TO.N,/H2_SIG*
X180099969Y-108400031D03*
X193000000Y-80600000D03*
G04 #@! TO.N,+12V*
X214400000Y-96450000D03*
X210989294Y-107874990D03*
X172300000Y-83600000D03*
X214400000Y-63100000D03*
X214400000Y-66900000D03*
X183600000Y-64300000D03*
X178991190Y-64331996D03*
G04 #@! TO.N,+5V*
X206451794Y-87300008D03*
X196500008Y-88299998D03*
G04 #@! TO.N,Net-(BZ1-Pad2)*
X201200000Y-75200002D03*
G04 #@! TO.N,/MOSI*
X197700000Y-79500000D03*
G04 #@! TO.N,/MISO*
X196200000Y-78699990D03*
G04 #@! TO.N,/SCK*
X199100000Y-76200000D03*
G04 #@! TO.N,/ADC_POT*
X193000806Y-77200000D03*
G04 #@! TD*
D23*
G04 #@! TO.N,/SFT_SIG*
X181700000Y-99900000D02*
X181700000Y-71600000D01*
X181700000Y-71600000D02*
X186100000Y-67200000D01*
X184900000Y-99900000D02*
X185900000Y-98900000D01*
X181700000Y-99900000D02*
X184900000Y-99900000D01*
X186100000Y-67200000D02*
X204412500Y-67200000D01*
X204412500Y-67200000D02*
X207550001Y-64062499D01*
X207550001Y-64062499D02*
X207900000Y-63712500D01*
D24*
G04 #@! TO.N,/H2_SIG*
X193000000Y-81165685D02*
X193000000Y-80600000D01*
X180099969Y-108400031D02*
X182999969Y-108400031D01*
X193000000Y-98400000D02*
X193000000Y-81165685D01*
X182999969Y-108400031D02*
X193000000Y-98400000D01*
D23*
G04 #@! TO.N,+12V*
X164600000Y-92650000D02*
X164600000Y-99350000D01*
X164600000Y-90850000D02*
X164600000Y-92650000D01*
X214400000Y-104464284D02*
X211389293Y-107474991D01*
X211389293Y-107474991D02*
X210989294Y-107874990D01*
X214400000Y-96450000D02*
X214400000Y-104464284D01*
X164600000Y-88100000D02*
X169100000Y-83600000D01*
X164600000Y-90850000D02*
X164600000Y-88100000D01*
X169100000Y-83600000D02*
X171734315Y-83600000D01*
X171734315Y-83600000D02*
X172300000Y-83600000D01*
X207700000Y-56500000D02*
X207900000Y-56500000D01*
X205200000Y-54000000D02*
X207700000Y-56500000D01*
X183240000Y-54000000D02*
X205200000Y-54000000D01*
X182920000Y-54000000D02*
X182920000Y-53680000D01*
X182920000Y-53680000D02*
X183240000Y-54000000D01*
X207900000Y-56600000D02*
X207900000Y-56500000D01*
X214400000Y-63100000D02*
X207900000Y-56600000D01*
X214400000Y-96450000D02*
X214400000Y-66900000D01*
X214400000Y-63100000D02*
X214400000Y-66900000D01*
X172300000Y-83600000D02*
X178991190Y-76908810D01*
X178991190Y-76908810D02*
X178991190Y-64897681D01*
X178991190Y-64897681D02*
X178991190Y-64331996D01*
X179023186Y-64300000D02*
X178991190Y-64331996D01*
X183600000Y-64300000D02*
X179023186Y-64300000D01*
X179000000Y-57520000D02*
X179000000Y-64323186D01*
X179000000Y-64323186D02*
X178991190Y-64331996D01*
X182920000Y-54000000D02*
X182520000Y-54000000D01*
X182520000Y-54000000D02*
X179000000Y-57520000D01*
G04 #@! TO.N,+5V*
X197065693Y-88299998D02*
X196500008Y-88299998D01*
X206451794Y-87300008D02*
X205451804Y-88299998D01*
X205451804Y-88299998D02*
X197065693Y-88299998D01*
X207851802Y-85900000D02*
X206451794Y-87300008D01*
X211000000Y-85900000D02*
X207851802Y-85900000D01*
G04 #@! TO.N,/INLET*
X169600000Y-70350000D02*
X169600000Y-72700000D01*
X173400000Y-76500000D02*
X174700000Y-76500000D01*
X169600000Y-72700000D02*
X173400000Y-76500000D01*
G04 #@! TO.N,Net-(BZ1-Pad2)*
X211000000Y-78300000D02*
X207900002Y-75200002D01*
X207899998Y-75200002D02*
X201200000Y-75200002D01*
X207900000Y-75200000D02*
X207899998Y-75200002D01*
D25*
G04 #@! TO.N,/MOSI*
X197300001Y-79899999D02*
X197700000Y-79500000D01*
X194400000Y-82800000D02*
X197300001Y-79899999D01*
X194400000Y-98300000D02*
X194400000Y-82800000D01*
X200000000Y-104000000D02*
X200000000Y-103900000D01*
X200000000Y-103900000D02*
X194400000Y-98300000D01*
G04 #@! TO.N,/MISO*
X193499978Y-100340022D02*
X193499978Y-81400012D01*
X189840000Y-104000000D02*
X193499978Y-100340022D01*
X195800001Y-79099989D02*
X196200000Y-78699990D01*
X193499978Y-81400012D02*
X195800001Y-79099989D01*
G04 #@! TO.N,/SCK*
X192380000Y-104000000D02*
X193949989Y-102430011D01*
X193949989Y-82023013D02*
X199100000Y-76873002D01*
X199100000Y-76765685D02*
X199100000Y-76200000D01*
X199100000Y-76873002D02*
X199100000Y-76765685D01*
X193949989Y-102430011D02*
X193949989Y-82023013D01*
D23*
G04 #@! TO.N,/ADC_POT*
X193566491Y-77200000D02*
X193000806Y-77200000D01*
X196100000Y-77200000D02*
X193566491Y-77200000D01*
X206300000Y-67700000D02*
X205600000Y-67700000D01*
X205600000Y-67700000D02*
X196100000Y-77200000D01*
G04 #@! TD*
D26*
G04 #@! TO.N,GND*
G36*
X206475503Y-56053320D02*
X206463823Y-56070801D01*
X206378450Y-56500000D01*
X206463823Y-56929199D01*
X206706944Y-57293056D01*
X207070801Y-57536177D01*
X207391661Y-57600000D01*
X208122184Y-57600000D01*
X213750000Y-63227817D01*
X213750000Y-63229293D01*
X213848957Y-63468195D01*
X213850000Y-63469238D01*
X213850001Y-66530761D01*
X213848957Y-66531805D01*
X213750000Y-66770707D01*
X213750000Y-67029293D01*
X213848957Y-67268195D01*
X213850001Y-67269239D01*
X213850000Y-96080762D01*
X213848957Y-96081805D01*
X213750000Y-96320707D01*
X213750000Y-96579293D01*
X213848957Y-96818195D01*
X213850000Y-96819238D01*
X213850001Y-104236466D01*
X211038691Y-107047777D01*
X211038688Y-107047779D01*
X210861477Y-107224990D01*
X210860001Y-107224990D01*
X210621099Y-107323947D01*
X210438251Y-107506795D01*
X210339294Y-107745697D01*
X210339294Y-108004283D01*
X210438251Y-108243185D01*
X210621099Y-108426033D01*
X210860001Y-108524990D01*
X211118587Y-108524990D01*
X211357489Y-108426033D01*
X211540337Y-108243185D01*
X211639294Y-108004283D01*
X211639294Y-108002807D01*
X211816505Y-107825596D01*
X211816507Y-107825593D01*
X214750603Y-104891498D01*
X214796528Y-104860812D01*
X214918089Y-104678883D01*
X214929390Y-104622067D01*
X223100000Y-104622067D01*
X223100000Y-105377933D01*
X223389258Y-106076263D01*
X223923737Y-106610742D01*
X224622067Y-106900000D01*
X225377933Y-106900000D01*
X226076263Y-106610742D01*
X226610742Y-106076263D01*
X226900000Y-105377933D01*
X226900000Y-104622067D01*
X226610742Y-103923737D01*
X226076263Y-103389258D01*
X225377933Y-103100000D01*
X224622067Y-103100000D01*
X223923737Y-103389258D01*
X223389258Y-103923737D01*
X223100000Y-104622067D01*
X214929390Y-104622067D01*
X214950000Y-104518454D01*
X214950000Y-104518453D01*
X214960775Y-104464284D01*
X214950000Y-104410115D01*
X214950000Y-101952094D01*
X227189328Y-101952094D01*
X227304032Y-102128049D01*
X227788695Y-102308517D01*
X228305527Y-102289775D01*
X228695968Y-102128049D01*
X228810672Y-101952094D01*
X228000000Y-101141421D01*
X227189328Y-101952094D01*
X214950000Y-101952094D01*
X214950000Y-100788695D01*
X226691483Y-100788695D01*
X226710225Y-101305527D01*
X226871951Y-101695968D01*
X227047906Y-101810672D01*
X227858579Y-101000000D01*
X228141421Y-101000000D01*
X228952094Y-101810672D01*
X229128049Y-101695968D01*
X229308517Y-101211305D01*
X229289775Y-100694473D01*
X229128049Y-100304032D01*
X228952094Y-100189328D01*
X228141421Y-101000000D01*
X227858579Y-101000000D01*
X227047906Y-100189328D01*
X226871951Y-100304032D01*
X226691483Y-100788695D01*
X214950000Y-100788695D01*
X214950000Y-98941414D01*
X215400000Y-98941414D01*
X215400000Y-99458586D01*
X215597913Y-99936391D01*
X215963609Y-100302087D01*
X216441414Y-100500000D01*
X216958586Y-100500000D01*
X217436391Y-100302087D01*
X217690572Y-100047906D01*
X227189328Y-100047906D01*
X228000000Y-100858579D01*
X228810672Y-100047906D01*
X228695968Y-99871951D01*
X228211305Y-99691483D01*
X227694473Y-99710225D01*
X227304032Y-99871951D01*
X227189328Y-100047906D01*
X217690572Y-100047906D01*
X217802087Y-99936391D01*
X218000000Y-99458586D01*
X218000000Y-98941414D01*
X217802087Y-98463609D01*
X217436391Y-98097913D01*
X216958586Y-97900000D01*
X216441414Y-97900000D01*
X215963609Y-98097913D01*
X215597913Y-98463609D01*
X215400000Y-98941414D01*
X214950000Y-98941414D01*
X214950000Y-96819238D01*
X214951043Y-96818195D01*
X215050000Y-96579293D01*
X215050000Y-96320707D01*
X214951043Y-96081805D01*
X214950000Y-96080762D01*
X214950000Y-90618939D01*
X219272482Y-90618939D01*
X219423824Y-90826084D01*
X220017123Y-91056633D01*
X220653488Y-91042588D01*
X221176176Y-90826084D01*
X221327518Y-90618939D01*
X220300000Y-89591421D01*
X219272482Y-90618939D01*
X214950000Y-90618939D01*
X214950000Y-89167123D01*
X218693367Y-89167123D01*
X218707412Y-89803488D01*
X218923916Y-90326176D01*
X219131061Y-90477518D01*
X220158579Y-89450000D01*
X220441421Y-89450000D01*
X221468939Y-90477518D01*
X221676084Y-90326176D01*
X221906633Y-89732877D01*
X221892588Y-89096512D01*
X221676084Y-88573824D01*
X221468939Y-88422482D01*
X220441421Y-89450000D01*
X220158579Y-89450000D01*
X219131061Y-88422482D01*
X218923916Y-88573824D01*
X218693367Y-89167123D01*
X214950000Y-89167123D01*
X214950000Y-88281061D01*
X219272482Y-88281061D01*
X220300000Y-89308579D01*
X221327518Y-88281061D01*
X221176176Y-88073916D01*
X220582877Y-87843367D01*
X219946512Y-87857412D01*
X219423824Y-88073916D01*
X219272482Y-88281061D01*
X214950000Y-88281061D01*
X214950000Y-84650000D01*
X223694123Y-84650000D01*
X223694123Y-87250000D01*
X223717407Y-87367054D01*
X223783712Y-87466288D01*
X223882946Y-87532593D01*
X224000000Y-87555877D01*
X226600000Y-87555877D01*
X226717054Y-87532593D01*
X226816288Y-87466288D01*
X226882593Y-87367054D01*
X226905877Y-87250000D01*
X226905877Y-84650000D01*
X226882593Y-84532946D01*
X226816288Y-84433712D01*
X226717054Y-84367407D01*
X226600000Y-84344123D01*
X224000000Y-84344123D01*
X223882946Y-84367407D01*
X223783712Y-84433712D01*
X223717407Y-84532946D01*
X223694123Y-84650000D01*
X214950000Y-84650000D01*
X214950000Y-80531740D01*
X218700000Y-80531740D01*
X218700000Y-81168260D01*
X218943585Y-81756327D01*
X219393673Y-82206415D01*
X219981740Y-82450000D01*
X220618260Y-82450000D01*
X221206327Y-82206415D01*
X221656415Y-81756327D01*
X221900000Y-81168260D01*
X221900000Y-80531740D01*
X221656415Y-79943673D01*
X221206327Y-79493585D01*
X220618260Y-79250000D01*
X219981740Y-79250000D01*
X219393673Y-79493585D01*
X218943585Y-79943673D01*
X218700000Y-80531740D01*
X214950000Y-80531740D01*
X214950000Y-76050000D01*
X223694123Y-76050000D01*
X223694123Y-78650000D01*
X223717407Y-78767054D01*
X223783712Y-78866288D01*
X223882946Y-78932593D01*
X224000000Y-78955877D01*
X226600000Y-78955877D01*
X226717054Y-78932593D01*
X226816288Y-78866288D01*
X226882593Y-78767054D01*
X226905877Y-78650000D01*
X226905877Y-76050000D01*
X226882593Y-75932946D01*
X226816288Y-75833712D01*
X226717054Y-75767407D01*
X226600000Y-75744123D01*
X224000000Y-75744123D01*
X223882946Y-75767407D01*
X223783712Y-75833712D01*
X223717407Y-75932946D01*
X223694123Y-76050000D01*
X214950000Y-76050000D01*
X214950000Y-71931740D01*
X218700000Y-71931740D01*
X218700000Y-72568260D01*
X218943585Y-73156327D01*
X219393673Y-73606415D01*
X219981740Y-73850000D01*
X220618260Y-73850000D01*
X221206327Y-73606415D01*
X221656415Y-73156327D01*
X221900000Y-72568260D01*
X221900000Y-71931740D01*
X221656415Y-71343673D01*
X221206327Y-70893585D01*
X220618260Y-70650000D01*
X219981740Y-70650000D01*
X219393673Y-70893585D01*
X218943585Y-71343673D01*
X218700000Y-71931740D01*
X214950000Y-71931740D01*
X214950000Y-67450000D01*
X223694123Y-67450000D01*
X223694123Y-70050000D01*
X223717407Y-70167054D01*
X223783712Y-70266288D01*
X223882946Y-70332593D01*
X224000000Y-70355877D01*
X226600000Y-70355877D01*
X226717054Y-70332593D01*
X226816288Y-70266288D01*
X226882593Y-70167054D01*
X226905877Y-70050000D01*
X226905877Y-67450000D01*
X226882593Y-67332946D01*
X226816288Y-67233712D01*
X226717054Y-67167407D01*
X226600000Y-67144123D01*
X224000000Y-67144123D01*
X223882946Y-67167407D01*
X223783712Y-67233712D01*
X223717407Y-67332946D01*
X223694123Y-67450000D01*
X214950000Y-67450000D01*
X214950000Y-67269238D01*
X214951043Y-67268195D01*
X215050000Y-67029293D01*
X215050000Y-66770707D01*
X214951043Y-66531805D01*
X214950000Y-66530762D01*
X214950000Y-63469238D01*
X214951043Y-63468195D01*
X215050000Y-63229293D01*
X215050000Y-63191422D01*
X218929289Y-67070711D01*
X218961732Y-67092388D01*
X219000000Y-67100000D01*
X229625000Y-67100000D01*
X229625001Y-109625000D01*
X160375000Y-109625000D01*
X160375000Y-108270738D01*
X179449969Y-108270738D01*
X179449969Y-108529324D01*
X179548926Y-108768226D01*
X179731774Y-108951074D01*
X179970676Y-109050031D01*
X180229262Y-109050031D01*
X180468164Y-108951074D01*
X180569207Y-108850031D01*
X182955649Y-108850031D01*
X182999969Y-108858847D01*
X183044289Y-108850031D01*
X183044290Y-108850031D01*
X183175550Y-108823922D01*
X183324401Y-108724463D01*
X183349509Y-108686886D01*
X185216271Y-106820124D01*
X188710611Y-106820124D01*
X188903779Y-107230999D01*
X189239478Y-107536676D01*
X189559877Y-107669379D01*
X189740000Y-107623997D01*
X189740000Y-106640000D01*
X189940000Y-106640000D01*
X189940000Y-107623997D01*
X190120123Y-107669379D01*
X190440522Y-107536676D01*
X190776221Y-107230999D01*
X190969389Y-106820124D01*
X191250611Y-106820124D01*
X191443779Y-107230999D01*
X191779478Y-107536676D01*
X192099877Y-107669379D01*
X192280000Y-107623997D01*
X192280000Y-106640000D01*
X192480000Y-106640000D01*
X192480000Y-107623997D01*
X192660123Y-107669379D01*
X192980522Y-107536676D01*
X193316221Y-107230999D01*
X193509389Y-106820124D01*
X193790611Y-106820124D01*
X193983779Y-107230999D01*
X194319478Y-107536676D01*
X194639877Y-107669379D01*
X194820000Y-107623997D01*
X194820000Y-106640000D01*
X195020000Y-106640000D01*
X195020000Y-107623997D01*
X195200123Y-107669379D01*
X195520522Y-107536676D01*
X195856221Y-107230999D01*
X196049389Y-106820124D01*
X196330611Y-106820124D01*
X196523779Y-107230999D01*
X196859478Y-107536676D01*
X197179877Y-107669379D01*
X197360000Y-107623997D01*
X197360000Y-106640000D01*
X197560000Y-106640000D01*
X197560000Y-107623997D01*
X197740123Y-107669379D01*
X198060522Y-107536676D01*
X198396221Y-107230999D01*
X198589389Y-106820124D01*
X198544305Y-106640000D01*
X197560000Y-106640000D01*
X197360000Y-106640000D01*
X196375695Y-106640000D01*
X196330611Y-106820124D01*
X196049389Y-106820124D01*
X196004305Y-106640000D01*
X195020000Y-106640000D01*
X194820000Y-106640000D01*
X193835695Y-106640000D01*
X193790611Y-106820124D01*
X193509389Y-106820124D01*
X193464305Y-106640000D01*
X192480000Y-106640000D01*
X192280000Y-106640000D01*
X191295695Y-106640000D01*
X191250611Y-106820124D01*
X190969389Y-106820124D01*
X190924305Y-106640000D01*
X189940000Y-106640000D01*
X189740000Y-106640000D01*
X188755695Y-106640000D01*
X188710611Y-106820124D01*
X185216271Y-106820124D01*
X185496395Y-106540000D01*
X198813604Y-106540000D01*
X198903913Y-106994014D01*
X199161091Y-107378909D01*
X199545986Y-107636087D01*
X199885397Y-107703600D01*
X200114603Y-107703600D01*
X200454014Y-107636087D01*
X200838909Y-107378909D01*
X201096087Y-106994014D01*
X201186396Y-106540000D01*
X201096087Y-106085986D01*
X200838909Y-105701091D01*
X200454014Y-105443913D01*
X200114603Y-105376400D01*
X199885397Y-105376400D01*
X199545986Y-105443913D01*
X199161091Y-105701091D01*
X198903913Y-106085986D01*
X198813604Y-106540000D01*
X185496395Y-106540000D01*
X185776519Y-106259876D01*
X188710611Y-106259876D01*
X188755695Y-106440000D01*
X189740000Y-106440000D01*
X189740000Y-105456003D01*
X189940000Y-105456003D01*
X189940000Y-106440000D01*
X190924305Y-106440000D01*
X190969389Y-106259876D01*
X191250611Y-106259876D01*
X191295695Y-106440000D01*
X192280000Y-106440000D01*
X192280000Y-105456003D01*
X192480000Y-105456003D01*
X192480000Y-106440000D01*
X193464305Y-106440000D01*
X193509389Y-106259876D01*
X193790611Y-106259876D01*
X193835695Y-106440000D01*
X194820000Y-106440000D01*
X194820000Y-105456003D01*
X195020000Y-105456003D01*
X195020000Y-106440000D01*
X196004305Y-106440000D01*
X196049389Y-106259876D01*
X196330611Y-106259876D01*
X196375695Y-106440000D01*
X197360000Y-106440000D01*
X197360000Y-105456003D01*
X197560000Y-105456003D01*
X197560000Y-106440000D01*
X198544305Y-106440000D01*
X198589389Y-106259876D01*
X198396221Y-105849001D01*
X198060522Y-105543324D01*
X197740123Y-105410621D01*
X197560000Y-105456003D01*
X197360000Y-105456003D01*
X197179877Y-105410621D01*
X196859478Y-105543324D01*
X196523779Y-105849001D01*
X196330611Y-106259876D01*
X196049389Y-106259876D01*
X195856221Y-105849001D01*
X195520522Y-105543324D01*
X195200123Y-105410621D01*
X195020000Y-105456003D01*
X194820000Y-105456003D01*
X194639877Y-105410621D01*
X194319478Y-105543324D01*
X193983779Y-105849001D01*
X193790611Y-106259876D01*
X193509389Y-106259876D01*
X193316221Y-105849001D01*
X192980522Y-105543324D01*
X192660123Y-105410621D01*
X192480000Y-105456003D01*
X192280000Y-105456003D01*
X192099877Y-105410621D01*
X191779478Y-105543324D01*
X191443779Y-105849001D01*
X191250611Y-106259876D01*
X190969389Y-106259876D01*
X190776221Y-105849001D01*
X190440522Y-105543324D01*
X190120123Y-105410621D01*
X189940000Y-105456003D01*
X189740000Y-105456003D01*
X189559877Y-105410621D01*
X189239478Y-105543324D01*
X188903779Y-105849001D01*
X188710611Y-106259876D01*
X185776519Y-106259876D01*
X193074978Y-98961418D01*
X193074978Y-100163982D01*
X190318612Y-102920348D01*
X190294014Y-102903913D01*
X189954603Y-102836400D01*
X189725397Y-102836400D01*
X189385986Y-102903913D01*
X189001091Y-103161091D01*
X188743913Y-103545986D01*
X188653604Y-104000000D01*
X188743913Y-104454014D01*
X189001091Y-104838909D01*
X189385986Y-105096087D01*
X189725397Y-105163600D01*
X189954603Y-105163600D01*
X190294014Y-105096087D01*
X190678909Y-104838909D01*
X190936087Y-104454014D01*
X191026396Y-104000000D01*
X190936087Y-103545986D01*
X190919652Y-103521388D01*
X193524989Y-100916051D01*
X193524989Y-102253970D01*
X192858611Y-102920348D01*
X192834014Y-102903913D01*
X192494603Y-102836400D01*
X192265397Y-102836400D01*
X191925986Y-102903913D01*
X191541091Y-103161091D01*
X191283913Y-103545986D01*
X191193604Y-104000000D01*
X191283913Y-104454014D01*
X191541091Y-104838909D01*
X191925986Y-105096087D01*
X192265397Y-105163600D01*
X192494603Y-105163600D01*
X192834014Y-105096087D01*
X193218909Y-104838909D01*
X193476087Y-104454014D01*
X193566396Y-104000000D01*
X193733604Y-104000000D01*
X193823913Y-104454014D01*
X194081091Y-104838909D01*
X194465986Y-105096087D01*
X194805397Y-105163600D01*
X195034603Y-105163600D01*
X195374014Y-105096087D01*
X195758909Y-104838909D01*
X196016087Y-104454014D01*
X196106396Y-104000000D01*
X196273604Y-104000000D01*
X196363913Y-104454014D01*
X196621091Y-104838909D01*
X197005986Y-105096087D01*
X197345397Y-105163600D01*
X197574603Y-105163600D01*
X197914014Y-105096087D01*
X198298909Y-104838909D01*
X198556087Y-104454014D01*
X198646396Y-104000000D01*
X198556087Y-103545986D01*
X198298909Y-103161091D01*
X197914014Y-102903913D01*
X197574603Y-102836400D01*
X197345397Y-102836400D01*
X197005986Y-102903913D01*
X196621091Y-103161091D01*
X196363913Y-103545986D01*
X196273604Y-104000000D01*
X196106396Y-104000000D01*
X196016087Y-103545986D01*
X195758909Y-103161091D01*
X195374014Y-102903913D01*
X195034603Y-102836400D01*
X194805397Y-102836400D01*
X194465986Y-102903913D01*
X194081091Y-103161091D01*
X193823913Y-103545986D01*
X193733604Y-104000000D01*
X193566396Y-104000000D01*
X193476087Y-103545986D01*
X193459652Y-103521389D01*
X194220912Y-102760129D01*
X194256397Y-102736419D01*
X194350330Y-102595838D01*
X194374989Y-102471869D01*
X194374989Y-102471868D01*
X194383315Y-102430011D01*
X194374989Y-102388154D01*
X194374989Y-98876029D01*
X198830523Y-103331564D01*
X198830523Y-104863600D01*
X198853807Y-104980654D01*
X198920112Y-105079888D01*
X199019346Y-105146193D01*
X199136400Y-105169477D01*
X200863600Y-105169477D01*
X200980654Y-105146193D01*
X201079888Y-105079888D01*
X201146193Y-104980654D01*
X201169477Y-104863600D01*
X201169477Y-103136400D01*
X201146193Y-103019346D01*
X201079888Y-102920112D01*
X200980654Y-102853807D01*
X200863600Y-102830523D01*
X199531564Y-102830523D01*
X194825000Y-98123960D01*
X194825000Y-96341414D01*
X202500000Y-96341414D01*
X202500000Y-96858586D01*
X202697913Y-97336391D01*
X203063609Y-97702087D01*
X203541414Y-97900000D01*
X204058586Y-97900000D01*
X204536391Y-97702087D01*
X204902087Y-97336391D01*
X205100000Y-96858586D01*
X205100000Y-96341414D01*
X204902087Y-95863609D01*
X204536391Y-95497913D01*
X204058586Y-95300000D01*
X203541414Y-95300000D01*
X203063609Y-95497913D01*
X202697913Y-95863609D01*
X202500000Y-96341414D01*
X194825000Y-96341414D01*
X194825000Y-88170705D01*
X195850008Y-88170705D01*
X195850008Y-88429291D01*
X195948965Y-88668193D01*
X196131813Y-88851041D01*
X196370715Y-88949998D01*
X196629301Y-88949998D01*
X196868203Y-88851041D01*
X196869246Y-88849998D01*
X205397635Y-88849998D01*
X205451804Y-88860773D01*
X205505973Y-88849998D01*
X205505974Y-88849998D01*
X205666403Y-88818087D01*
X205848332Y-88696526D01*
X205879020Y-88650598D01*
X206579611Y-87950008D01*
X206581087Y-87950008D01*
X206819989Y-87851051D01*
X207002837Y-87668203D01*
X207101794Y-87429301D01*
X207101794Y-87427824D01*
X208079619Y-86450000D01*
X209694123Y-86450000D01*
X209694123Y-86900000D01*
X209717407Y-87017054D01*
X209783712Y-87116288D01*
X209882946Y-87182593D01*
X210000000Y-87205877D01*
X212000000Y-87205877D01*
X212117054Y-87182593D01*
X212216288Y-87116288D01*
X212282593Y-87017054D01*
X212305877Y-86900000D01*
X212305877Y-84900000D01*
X212282593Y-84782946D01*
X212216288Y-84683712D01*
X212117054Y-84617407D01*
X212000000Y-84594123D01*
X210000000Y-84594123D01*
X209882946Y-84617407D01*
X209783712Y-84683712D01*
X209717407Y-84782946D01*
X209694123Y-84900000D01*
X209694123Y-85350000D01*
X207905970Y-85350000D01*
X207851801Y-85339225D01*
X207797632Y-85350000D01*
X207637203Y-85381911D01*
X207637202Y-85381912D01*
X207637201Y-85381912D01*
X207595075Y-85410060D01*
X207455274Y-85503472D01*
X207424588Y-85549397D01*
X206323978Y-86650008D01*
X206322501Y-86650008D01*
X206083599Y-86748965D01*
X205900751Y-86931813D01*
X205801794Y-87170715D01*
X205801794Y-87172191D01*
X205223988Y-87749998D01*
X196869246Y-87749998D01*
X196868203Y-87748955D01*
X196629301Y-87649998D01*
X196370715Y-87649998D01*
X196131813Y-87748955D01*
X195948965Y-87931803D01*
X195850008Y-88170705D01*
X194825000Y-88170705D01*
X194825000Y-82976040D01*
X197630119Y-80170922D01*
X197630121Y-80170919D01*
X197651040Y-80150000D01*
X197829293Y-80150000D01*
X198068195Y-80051043D01*
X198251043Y-79868195D01*
X198350000Y-79629293D01*
X198350000Y-79370707D01*
X198251043Y-79131805D01*
X198068195Y-78948957D01*
X197829293Y-78850000D01*
X197724043Y-78850000D01*
X199370923Y-77203120D01*
X199406408Y-77179410D01*
X199500341Y-77038829D01*
X199525000Y-76914860D01*
X199525000Y-76914859D01*
X199533326Y-76873003D01*
X199525000Y-76831147D01*
X199525000Y-76694238D01*
X199651043Y-76568195D01*
X199750000Y-76329293D01*
X199750000Y-76070707D01*
X199651043Y-75831805D01*
X199468195Y-75648957D01*
X199229293Y-75550000D01*
X198970707Y-75550000D01*
X198731805Y-75648957D01*
X198548957Y-75831805D01*
X198450000Y-76070707D01*
X198450000Y-76329293D01*
X198548957Y-76568195D01*
X198675000Y-76694238D01*
X198675000Y-76696961D01*
X196835726Y-78536236D01*
X196751043Y-78331795D01*
X196568195Y-78148947D01*
X196329293Y-78049990D01*
X196070707Y-78049990D01*
X195831805Y-78148947D01*
X195648957Y-78331795D01*
X195550000Y-78570697D01*
X195550000Y-78748950D01*
X195529081Y-78769869D01*
X195529078Y-78769871D01*
X193650000Y-80648950D01*
X193650000Y-80470707D01*
X193551043Y-80231805D01*
X193368195Y-80048957D01*
X193129293Y-79950000D01*
X192870707Y-79950000D01*
X192631805Y-80048957D01*
X192448957Y-80231805D01*
X192350000Y-80470707D01*
X192350000Y-80729293D01*
X192448957Y-80968195D01*
X192550000Y-81069238D01*
X192550000Y-81210005D01*
X192550001Y-81210010D01*
X192550000Y-98213604D01*
X182813574Y-107950031D01*
X180569207Y-107950031D01*
X180468164Y-107848988D01*
X180229262Y-107750031D01*
X179970676Y-107750031D01*
X179731774Y-107848988D01*
X179548926Y-108031836D01*
X179449969Y-108270738D01*
X160375000Y-108270738D01*
X160375000Y-104622067D01*
X163100000Y-104622067D01*
X163100000Y-105377933D01*
X163389258Y-106076263D01*
X163923737Y-106610742D01*
X164622067Y-106900000D01*
X165377933Y-106900000D01*
X166076263Y-106610742D01*
X166610742Y-106076263D01*
X166900000Y-105377933D01*
X166900000Y-104622067D01*
X166610742Y-103923737D01*
X166076263Y-103389258D01*
X165377933Y-103100000D01*
X164622067Y-103100000D01*
X163923737Y-103389258D01*
X163389258Y-103923737D01*
X163100000Y-104622067D01*
X160375000Y-104622067D01*
X160375000Y-81150000D01*
X163094123Y-81150000D01*
X163094123Y-83750000D01*
X163117407Y-83867054D01*
X163183712Y-83966288D01*
X163282946Y-84032593D01*
X163400000Y-84055877D01*
X166000000Y-84055877D01*
X166117054Y-84032593D01*
X166216288Y-83966288D01*
X166282593Y-83867054D01*
X166305877Y-83750000D01*
X166305877Y-81150000D01*
X166282593Y-81032946D01*
X166216288Y-80933712D01*
X166117054Y-80867407D01*
X166000000Y-80844123D01*
X163400000Y-80844123D01*
X163282946Y-80867407D01*
X163183712Y-80933712D01*
X163117407Y-81032946D01*
X163094123Y-81150000D01*
X160375000Y-81150000D01*
X160375000Y-78631740D01*
X168100000Y-78631740D01*
X168100000Y-79268260D01*
X168343585Y-79856327D01*
X168793673Y-80306415D01*
X169381740Y-80550000D01*
X170018260Y-80550000D01*
X170606327Y-80306415D01*
X171056415Y-79856327D01*
X171300000Y-79268260D01*
X171300000Y-78631740D01*
X171056415Y-78043673D01*
X170606327Y-77593585D01*
X170018260Y-77350000D01*
X169381740Y-77350000D01*
X168793673Y-77593585D01*
X168343585Y-78043673D01*
X168100000Y-78631740D01*
X160375000Y-78631740D01*
X160375000Y-72550000D01*
X163094123Y-72550000D01*
X163094123Y-75150000D01*
X163117407Y-75267054D01*
X163183712Y-75366288D01*
X163282946Y-75432593D01*
X163400000Y-75455877D01*
X166000000Y-75455877D01*
X166117054Y-75432593D01*
X166216288Y-75366288D01*
X166282593Y-75267054D01*
X166305877Y-75150000D01*
X166305877Y-72550000D01*
X166282593Y-72432946D01*
X166216288Y-72333712D01*
X166117054Y-72267407D01*
X166000000Y-72244123D01*
X163400000Y-72244123D01*
X163282946Y-72267407D01*
X163183712Y-72333712D01*
X163117407Y-72432946D01*
X163094123Y-72550000D01*
X160375000Y-72550000D01*
X160375000Y-70031740D01*
X168100000Y-70031740D01*
X168100000Y-70668260D01*
X168343585Y-71256327D01*
X168793673Y-71706415D01*
X169050001Y-71812589D01*
X169050001Y-72645826D01*
X169039225Y-72700000D01*
X169059117Y-72800000D01*
X169081912Y-72914599D01*
X169203473Y-73096528D01*
X169249398Y-73127214D01*
X172910567Y-76788385D01*
X172943513Y-76954014D01*
X173200691Y-77338909D01*
X173585586Y-77596087D01*
X173924997Y-77663600D01*
X175475003Y-77663600D01*
X175814414Y-77596087D01*
X176199309Y-77338909D01*
X176456487Y-76954014D01*
X176546796Y-76500000D01*
X176456487Y-76045986D01*
X176199309Y-75661091D01*
X175814414Y-75403913D01*
X175475003Y-75336400D01*
X173924997Y-75336400D01*
X173585586Y-75403913D01*
X173283547Y-75605729D01*
X170150000Y-72472184D01*
X170150000Y-71895432D01*
X170606327Y-71706415D01*
X170812742Y-71500000D01*
X172853204Y-71500000D01*
X172943513Y-71954014D01*
X173200691Y-72338909D01*
X173585586Y-72596087D01*
X173924997Y-72663600D01*
X175475003Y-72663600D01*
X175814414Y-72596087D01*
X176199309Y-72338909D01*
X176456487Y-71954014D01*
X176546796Y-71500000D01*
X176456487Y-71045986D01*
X176199309Y-70661091D01*
X175814414Y-70403913D01*
X175475003Y-70336400D01*
X173924997Y-70336400D01*
X173585586Y-70403913D01*
X173200691Y-70661091D01*
X172943513Y-71045986D01*
X172853204Y-71500000D01*
X170812742Y-71500000D01*
X171056415Y-71256327D01*
X171300000Y-70668260D01*
X171300000Y-70031740D01*
X171056415Y-69443673D01*
X170606327Y-68993585D01*
X170018260Y-68750000D01*
X169381740Y-68750000D01*
X168793673Y-68993585D01*
X168343585Y-69443673D01*
X168100000Y-70031740D01*
X160375000Y-70031740D01*
X160375000Y-67100000D01*
X171000000Y-67100000D01*
X171038268Y-67092388D01*
X171070711Y-67070711D01*
X178450000Y-59691422D01*
X178450001Y-63953947D01*
X178440147Y-63963801D01*
X178341190Y-64202703D01*
X178341190Y-64461289D01*
X178440147Y-64700191D01*
X178441190Y-64701234D01*
X178441190Y-64951850D01*
X178441191Y-64951855D01*
X178441190Y-76680993D01*
X172172184Y-82950000D01*
X172170707Y-82950000D01*
X171931805Y-83048957D01*
X171930762Y-83050000D01*
X169154168Y-83050000D01*
X169099999Y-83039225D01*
X169045830Y-83050000D01*
X168885401Y-83081911D01*
X168703472Y-83203472D01*
X168672787Y-83249396D01*
X164249398Y-87672786D01*
X164203473Y-87703472D01*
X164151063Y-87781909D01*
X164081912Y-87885401D01*
X164039225Y-88100000D01*
X164050001Y-88154174D01*
X164050001Y-89444123D01*
X163400000Y-89444123D01*
X163282946Y-89467407D01*
X163183712Y-89533712D01*
X163117407Y-89632946D01*
X163094123Y-89750000D01*
X163094123Y-92350000D01*
X163117407Y-92467054D01*
X163183712Y-92566288D01*
X163282946Y-92632593D01*
X163400000Y-92655877D01*
X164050000Y-92655877D01*
X164050001Y-98044123D01*
X163400000Y-98044123D01*
X163282946Y-98067407D01*
X163183712Y-98133712D01*
X163117407Y-98232946D01*
X163094123Y-98350000D01*
X163094123Y-100950000D01*
X163117407Y-101067054D01*
X163183712Y-101166288D01*
X163282946Y-101232593D01*
X163400000Y-101255877D01*
X166000000Y-101255877D01*
X166117054Y-101232593D01*
X166216288Y-101166288D01*
X166282593Y-101067054D01*
X166305877Y-100950000D01*
X166305877Y-99770707D01*
X181050000Y-99770707D01*
X181050000Y-100029293D01*
X181148957Y-100268195D01*
X181331805Y-100451043D01*
X181570707Y-100550000D01*
X181829293Y-100550000D01*
X182068195Y-100451043D01*
X182069238Y-100450000D01*
X184845831Y-100450000D01*
X184900000Y-100460775D01*
X184954169Y-100450000D01*
X184954170Y-100450000D01*
X185114599Y-100418089D01*
X185296528Y-100296528D01*
X185327216Y-100250600D01*
X185455022Y-100122794D01*
X185641414Y-100200000D01*
X186158586Y-100200000D01*
X186636391Y-100002087D01*
X187002087Y-99636391D01*
X187200000Y-99158586D01*
X187200000Y-98641414D01*
X187002087Y-98163609D01*
X186636391Y-97797913D01*
X186158586Y-97600000D01*
X185641414Y-97600000D01*
X185163609Y-97797913D01*
X184797913Y-98163609D01*
X184600000Y-98641414D01*
X184600000Y-99158586D01*
X184677206Y-99344978D01*
X184672184Y-99350000D01*
X182250000Y-99350000D01*
X182250000Y-89500000D01*
X185353204Y-89500000D01*
X185443513Y-89954014D01*
X185700691Y-90338909D01*
X186085586Y-90596087D01*
X186424997Y-90663600D01*
X187975003Y-90663600D01*
X188314414Y-90596087D01*
X188699309Y-90338909D01*
X188956487Y-89954014D01*
X189046796Y-89500000D01*
X188956487Y-89045986D01*
X188699309Y-88661091D01*
X188314414Y-88403913D01*
X187975003Y-88336400D01*
X186424997Y-88336400D01*
X186085586Y-88403913D01*
X185700691Y-88661091D01*
X185443513Y-89045986D01*
X185353204Y-89500000D01*
X182250000Y-89500000D01*
X182250000Y-84500000D01*
X185353204Y-84500000D01*
X185443513Y-84954014D01*
X185700691Y-85338909D01*
X186085586Y-85596087D01*
X186424997Y-85663600D01*
X187975003Y-85663600D01*
X188314414Y-85596087D01*
X188699309Y-85338909D01*
X188956487Y-84954014D01*
X189046796Y-84500000D01*
X188956487Y-84045986D01*
X188699309Y-83661091D01*
X188314414Y-83403913D01*
X187975003Y-83336400D01*
X186424997Y-83336400D01*
X186085586Y-83403913D01*
X185700691Y-83661091D01*
X185443513Y-84045986D01*
X185353204Y-84500000D01*
X182250000Y-84500000D01*
X182250000Y-76500000D01*
X185353204Y-76500000D01*
X185443513Y-76954014D01*
X185700691Y-77338909D01*
X186085586Y-77596087D01*
X186424997Y-77663600D01*
X187975003Y-77663600D01*
X188314414Y-77596087D01*
X188699309Y-77338909D01*
X188878515Y-77070707D01*
X192350806Y-77070707D01*
X192350806Y-77329293D01*
X192449763Y-77568195D01*
X192632611Y-77751043D01*
X192871513Y-77850000D01*
X193130099Y-77850000D01*
X193369001Y-77751043D01*
X193370044Y-77750000D01*
X196045831Y-77750000D01*
X196100000Y-77760775D01*
X196154169Y-77750000D01*
X196154170Y-77750000D01*
X196314599Y-77718089D01*
X196496528Y-77596528D01*
X196527216Y-77550600D01*
X199007107Y-75070709D01*
X200550000Y-75070709D01*
X200550000Y-75329295D01*
X200648957Y-75568197D01*
X200831805Y-75751045D01*
X201070707Y-75850002D01*
X201329293Y-75850002D01*
X201568195Y-75751045D01*
X201569238Y-75750002D01*
X207672186Y-75750002D01*
X209777206Y-77855022D01*
X209700000Y-78041414D01*
X209700000Y-78558586D01*
X209897913Y-79036391D01*
X210263609Y-79402087D01*
X210741414Y-79600000D01*
X211258586Y-79600000D01*
X211736391Y-79402087D01*
X212102087Y-79036391D01*
X212300000Y-78558586D01*
X212300000Y-78041414D01*
X212102087Y-77563609D01*
X211736391Y-77197913D01*
X211258586Y-77000000D01*
X210741414Y-77000000D01*
X210555022Y-77077206D01*
X208327212Y-74849396D01*
X208296527Y-74803473D01*
X208114599Y-74681912D01*
X207900000Y-74639225D01*
X207845821Y-74650002D01*
X201569238Y-74650002D01*
X201568195Y-74648959D01*
X201329293Y-74550002D01*
X201070707Y-74550002D01*
X200831805Y-74648959D01*
X200648957Y-74831807D01*
X200550000Y-75070709D01*
X199007107Y-75070709D01*
X201591647Y-72486169D01*
X202725000Y-72486169D01*
X202725000Y-72913831D01*
X202888659Y-73308938D01*
X203191062Y-73611341D01*
X203586169Y-73775000D01*
X204013831Y-73775000D01*
X204408938Y-73611341D01*
X204711341Y-73308938D01*
X204875000Y-72913831D01*
X204875000Y-72875000D01*
X207725000Y-72875000D01*
X207725000Y-73534673D01*
X207770672Y-73644936D01*
X207855063Y-73729328D01*
X207965326Y-73775000D01*
X208625000Y-73775000D01*
X208700000Y-73700000D01*
X208700000Y-72800000D01*
X208900000Y-72800000D01*
X208900000Y-73700000D01*
X208975000Y-73775000D01*
X209634674Y-73775000D01*
X209744937Y-73729328D01*
X209829328Y-73644936D01*
X209875000Y-73534673D01*
X209875000Y-72875000D01*
X209800000Y-72800000D01*
X208900000Y-72800000D01*
X208700000Y-72800000D01*
X207800000Y-72800000D01*
X207725000Y-72875000D01*
X204875000Y-72875000D01*
X204875000Y-72486169D01*
X204711341Y-72091062D01*
X204485606Y-71865327D01*
X207725000Y-71865327D01*
X207725000Y-72525000D01*
X207800000Y-72600000D01*
X208700000Y-72600000D01*
X208700000Y-71700000D01*
X208900000Y-71700000D01*
X208900000Y-72600000D01*
X209800000Y-72600000D01*
X209875000Y-72525000D01*
X209875000Y-71865327D01*
X209829328Y-71755064D01*
X209744937Y-71670672D01*
X209634674Y-71625000D01*
X208975000Y-71625000D01*
X208900000Y-71700000D01*
X208700000Y-71700000D01*
X208625000Y-71625000D01*
X207965326Y-71625000D01*
X207855063Y-71670672D01*
X207770672Y-71755064D01*
X207725000Y-71865327D01*
X204485606Y-71865327D01*
X204408938Y-71788659D01*
X204013831Y-71625000D01*
X203586169Y-71625000D01*
X203191062Y-71788659D01*
X202888659Y-72091062D01*
X202725000Y-72486169D01*
X201591647Y-72486169D01*
X205578769Y-68499048D01*
X205691062Y-68611341D01*
X206086169Y-68775000D01*
X206513831Y-68775000D01*
X206908938Y-68611341D01*
X207211341Y-68308938D01*
X207375000Y-67913831D01*
X207375000Y-67486169D01*
X207211341Y-67091062D01*
X206908938Y-66788659D01*
X206513831Y-66625000D01*
X206086169Y-66625000D01*
X205691062Y-66788659D01*
X205388659Y-67091062D01*
X205337874Y-67213667D01*
X205203472Y-67303472D01*
X205172786Y-67349397D01*
X195872184Y-76650000D01*
X193370044Y-76650000D01*
X193369001Y-76648957D01*
X193130099Y-76550000D01*
X192871513Y-76550000D01*
X192632611Y-76648957D01*
X192449763Y-76831805D01*
X192350806Y-77070707D01*
X188878515Y-77070707D01*
X188956487Y-76954014D01*
X189046796Y-76500000D01*
X188956487Y-76045986D01*
X188699309Y-75661091D01*
X188314414Y-75403913D01*
X187975003Y-75336400D01*
X186424997Y-75336400D01*
X186085586Y-75403913D01*
X185700691Y-75661091D01*
X185443513Y-76045986D01*
X185353204Y-76500000D01*
X182250000Y-76500000D01*
X182250000Y-71827816D01*
X182577816Y-71500000D01*
X185353204Y-71500000D01*
X185443513Y-71954014D01*
X185700691Y-72338909D01*
X186085586Y-72596087D01*
X186424997Y-72663600D01*
X187975003Y-72663600D01*
X188314414Y-72596087D01*
X188699309Y-72338909D01*
X188956487Y-71954014D01*
X189046796Y-71500000D01*
X188956487Y-71045986D01*
X188699309Y-70661091D01*
X188370539Y-70441414D01*
X189500000Y-70441414D01*
X189500000Y-70958586D01*
X189697913Y-71436391D01*
X190063609Y-71802087D01*
X190541414Y-72000000D01*
X191058586Y-72000000D01*
X191536391Y-71802087D01*
X191902087Y-71436391D01*
X192100000Y-70958586D01*
X192100000Y-70441414D01*
X191902087Y-69963609D01*
X191536391Y-69597913D01*
X191058586Y-69400000D01*
X190541414Y-69400000D01*
X190063609Y-69597913D01*
X189697913Y-69963609D01*
X189500000Y-70441414D01*
X188370539Y-70441414D01*
X188314414Y-70403913D01*
X187975003Y-70336400D01*
X186424997Y-70336400D01*
X186085586Y-70403913D01*
X185700691Y-70661091D01*
X185443513Y-71045986D01*
X185353204Y-71500000D01*
X182577816Y-71500000D01*
X186227817Y-67850000D01*
X186229293Y-67850000D01*
X186468195Y-67751043D01*
X186469238Y-67750000D01*
X204358331Y-67750000D01*
X204412500Y-67760775D01*
X204466669Y-67750000D01*
X204466670Y-67750000D01*
X204627099Y-67718089D01*
X204809028Y-67596528D01*
X204839716Y-67550600D01*
X207977213Y-64413105D01*
X207977217Y-64413099D01*
X208027816Y-64362500D01*
X208029293Y-64362500D01*
X208268195Y-64263543D01*
X208451043Y-64080695D01*
X208550000Y-63841793D01*
X208550000Y-63583207D01*
X208451043Y-63344305D01*
X208268195Y-63161457D01*
X208029293Y-63062500D01*
X207770707Y-63062500D01*
X207700000Y-63091788D01*
X207700000Y-62641414D01*
X207502087Y-62163609D01*
X207136391Y-61797913D01*
X206658586Y-61600000D01*
X206141414Y-61600000D01*
X205663609Y-61797913D01*
X205297913Y-62163609D01*
X205100000Y-62641414D01*
X205100000Y-63158586D01*
X205297913Y-63636391D01*
X205663609Y-64002087D01*
X206141414Y-64200000D01*
X206634682Y-64200000D01*
X204184684Y-66650000D01*
X186469238Y-66650000D01*
X186468195Y-66648957D01*
X186229293Y-66550000D01*
X185970707Y-66550000D01*
X185731805Y-66648957D01*
X185548957Y-66831805D01*
X185450000Y-67070707D01*
X185450000Y-67072183D01*
X181349398Y-71172786D01*
X181303473Y-71203472D01*
X181209794Y-71343673D01*
X181181912Y-71385401D01*
X181139225Y-71600000D01*
X181150001Y-71654174D01*
X181150000Y-99530762D01*
X181148957Y-99531805D01*
X181050000Y-99770707D01*
X166305877Y-99770707D01*
X166305877Y-98350000D01*
X166282593Y-98232946D01*
X166216288Y-98133712D01*
X166117054Y-98067407D01*
X166000000Y-98044123D01*
X165150000Y-98044123D01*
X165150000Y-95831740D01*
X168100000Y-95831740D01*
X168100000Y-96468260D01*
X168343585Y-97056327D01*
X168793673Y-97506415D01*
X169381740Y-97750000D01*
X170018260Y-97750000D01*
X170606327Y-97506415D01*
X171056415Y-97056327D01*
X171300000Y-96468260D01*
X171300000Y-95831740D01*
X171056415Y-95243673D01*
X170606327Y-94793585D01*
X170018260Y-94550000D01*
X169381740Y-94550000D01*
X168793673Y-94793585D01*
X168343585Y-95243673D01*
X168100000Y-95831740D01*
X165150000Y-95831740D01*
X165150000Y-92655877D01*
X166000000Y-92655877D01*
X166117054Y-92632593D01*
X166216288Y-92566288D01*
X166282593Y-92467054D01*
X166305877Y-92350000D01*
X166305877Y-89750000D01*
X166282593Y-89632946D01*
X166216288Y-89533712D01*
X166165834Y-89500000D01*
X172853204Y-89500000D01*
X172943513Y-89954014D01*
X173200691Y-90338909D01*
X173585586Y-90596087D01*
X173924997Y-90663600D01*
X175475003Y-90663600D01*
X175814414Y-90596087D01*
X176199309Y-90338909D01*
X176456487Y-89954014D01*
X176546796Y-89500000D01*
X176456487Y-89045986D01*
X176199309Y-88661091D01*
X175814414Y-88403913D01*
X175475003Y-88336400D01*
X173924997Y-88336400D01*
X173585586Y-88403913D01*
X173200691Y-88661091D01*
X172943513Y-89045986D01*
X172853204Y-89500000D01*
X166165834Y-89500000D01*
X166117054Y-89467407D01*
X166000000Y-89444123D01*
X165150000Y-89444123D01*
X165150000Y-88327816D01*
X166246076Y-87231740D01*
X168100000Y-87231740D01*
X168100000Y-87868260D01*
X168343585Y-88456327D01*
X168793673Y-88906415D01*
X169381740Y-89150000D01*
X170018260Y-89150000D01*
X170606327Y-88906415D01*
X171056415Y-88456327D01*
X171300000Y-87868260D01*
X171300000Y-87231740D01*
X171056415Y-86643673D01*
X170606327Y-86193585D01*
X170018260Y-85950000D01*
X169381740Y-85950000D01*
X168793673Y-86193585D01*
X168343585Y-86643673D01*
X168100000Y-87231740D01*
X166246076Y-87231740D01*
X168977816Y-84500000D01*
X172853204Y-84500000D01*
X172943513Y-84954014D01*
X173200691Y-85338909D01*
X173585586Y-85596087D01*
X173924997Y-85663600D01*
X175475003Y-85663600D01*
X175814414Y-85596087D01*
X176199309Y-85338909D01*
X176456487Y-84954014D01*
X176546796Y-84500000D01*
X176456487Y-84045986D01*
X176199309Y-83661091D01*
X175814414Y-83403913D01*
X175475003Y-83336400D01*
X173924997Y-83336400D01*
X173585586Y-83403913D01*
X173200691Y-83661091D01*
X172943513Y-84045986D01*
X172853204Y-84500000D01*
X168977816Y-84500000D01*
X169327817Y-84150000D01*
X171930762Y-84150000D01*
X171931805Y-84151043D01*
X172170707Y-84250000D01*
X172429293Y-84250000D01*
X172668195Y-84151043D01*
X172851043Y-83968195D01*
X172950000Y-83729293D01*
X172950000Y-83727816D01*
X179341793Y-77336024D01*
X179387718Y-77305338D01*
X179509279Y-77123409D01*
X179541190Y-76962980D01*
X179541190Y-76962979D01*
X179551965Y-76908810D01*
X179541190Y-76854641D01*
X179541190Y-64850000D01*
X183230762Y-64850000D01*
X183231805Y-64851043D01*
X183470707Y-64950000D01*
X183729293Y-64950000D01*
X183968195Y-64851043D01*
X184151043Y-64668195D01*
X184250000Y-64429293D01*
X184250000Y-64170707D01*
X184151043Y-63931805D01*
X183968195Y-63748957D01*
X183729293Y-63650000D01*
X183470707Y-63650000D01*
X183231805Y-63748957D01*
X183230762Y-63750000D01*
X179550000Y-63750000D01*
X179550000Y-63051631D01*
X190150000Y-63051631D01*
X190150000Y-63648369D01*
X190378361Y-64199682D01*
X190800318Y-64621639D01*
X191351631Y-64850000D01*
X191948369Y-64850000D01*
X192499682Y-64621639D01*
X192921639Y-64199682D01*
X193150000Y-63648369D01*
X193150000Y-63051631D01*
X196850000Y-63051631D01*
X196850000Y-63648369D01*
X197078361Y-64199682D01*
X197500318Y-64621639D01*
X198051631Y-64850000D01*
X198648369Y-64850000D01*
X199199682Y-64621639D01*
X199621639Y-64199682D01*
X199850000Y-63648369D01*
X199850000Y-63051631D01*
X199621639Y-62500318D01*
X199199682Y-62078361D01*
X198648369Y-61850000D01*
X198051631Y-61850000D01*
X197500318Y-62078361D01*
X197078361Y-62500318D01*
X196850000Y-63051631D01*
X193150000Y-63051631D01*
X192921639Y-62500318D01*
X192499682Y-62078361D01*
X191948369Y-61850000D01*
X191351631Y-61850000D01*
X190800318Y-62078361D01*
X190378361Y-62500318D01*
X190150000Y-63051631D01*
X179550000Y-63051631D01*
X179550000Y-61096684D01*
X189294738Y-61096684D01*
X189433874Y-61293431D01*
X189990973Y-61507293D01*
X190587506Y-61491683D01*
X191066126Y-61293431D01*
X191205262Y-61096684D01*
X190250000Y-60141421D01*
X189294738Y-61096684D01*
X179550000Y-61096684D01*
X179550000Y-59740973D01*
X188742707Y-59740973D01*
X188758317Y-60337506D01*
X188956569Y-60816126D01*
X189153316Y-60955262D01*
X190108579Y-60000000D01*
X190391421Y-60000000D01*
X191346684Y-60955262D01*
X191543431Y-60816126D01*
X191757293Y-60259027D01*
X191742708Y-59701631D01*
X198250000Y-59701631D01*
X198250000Y-60298369D01*
X198478361Y-60849682D01*
X198900318Y-61271639D01*
X199451631Y-61500000D01*
X200048369Y-61500000D01*
X200599682Y-61271639D01*
X201021639Y-60849682D01*
X201250000Y-60298369D01*
X201250000Y-59701631D01*
X201021639Y-59150318D01*
X200599682Y-58728361D01*
X200048369Y-58500000D01*
X199451631Y-58500000D01*
X198900318Y-58728361D01*
X198478361Y-59150318D01*
X198250000Y-59701631D01*
X191742708Y-59701631D01*
X191741683Y-59662494D01*
X191543431Y-59183874D01*
X191346684Y-59044738D01*
X190391421Y-60000000D01*
X190108579Y-60000000D01*
X189153316Y-59044738D01*
X188956569Y-59183874D01*
X188742707Y-59740973D01*
X179550000Y-59740973D01*
X179550000Y-58903316D01*
X189294738Y-58903316D01*
X190250000Y-59858579D01*
X191205262Y-58903316D01*
X191066126Y-58706569D01*
X190509027Y-58492707D01*
X189912494Y-58508317D01*
X189433874Y-58706569D01*
X189294738Y-58903316D01*
X179550000Y-58903316D01*
X179550000Y-58591422D01*
X180070711Y-58070711D01*
X180092388Y-58038268D01*
X180100000Y-58000000D01*
X180100000Y-57197816D01*
X180757816Y-56540000D01*
X181398450Y-56540000D01*
X181483823Y-56969199D01*
X181726944Y-57333056D01*
X182090801Y-57576177D01*
X182411661Y-57640000D01*
X183428339Y-57640000D01*
X183749199Y-57576177D01*
X184113056Y-57333056D01*
X184356177Y-56969199D01*
X184441550Y-56540000D01*
X184404082Y-56351631D01*
X190150000Y-56351631D01*
X190150000Y-56948369D01*
X190378361Y-57499682D01*
X190800318Y-57921639D01*
X191351631Y-58150000D01*
X191948369Y-58150000D01*
X192499682Y-57921639D01*
X192921639Y-57499682D01*
X193150000Y-56948369D01*
X193150000Y-56351631D01*
X196850000Y-56351631D01*
X196850000Y-56948369D01*
X197078361Y-57499682D01*
X197500318Y-57921639D01*
X198051631Y-58150000D01*
X198648369Y-58150000D01*
X199199682Y-57921639D01*
X199621639Y-57499682D01*
X199850000Y-56948369D01*
X199850000Y-56351631D01*
X199621639Y-55800318D01*
X199199682Y-55378361D01*
X198648369Y-55150000D01*
X198051631Y-55150000D01*
X197500318Y-55378361D01*
X197078361Y-55800318D01*
X196850000Y-56351631D01*
X193150000Y-56351631D01*
X192921639Y-55800318D01*
X192499682Y-55378361D01*
X191948369Y-55150000D01*
X191351631Y-55150000D01*
X190800318Y-55378361D01*
X190378361Y-55800318D01*
X190150000Y-56351631D01*
X184404082Y-56351631D01*
X184356177Y-56110801D01*
X184113056Y-55746944D01*
X183749199Y-55503823D01*
X183428339Y-55440000D01*
X182411661Y-55440000D01*
X182090801Y-55503823D01*
X181726944Y-55746944D01*
X181483823Y-56110801D01*
X181398450Y-56540000D01*
X180757816Y-56540000D01*
X182233296Y-55064521D01*
X182411661Y-55100000D01*
X183428339Y-55100000D01*
X183749199Y-55036177D01*
X184113056Y-54793056D01*
X184275461Y-54550000D01*
X204972184Y-54550000D01*
X206475503Y-56053320D01*
X206475503Y-56053320D01*
G37*
X206475503Y-56053320D02*
X206463823Y-56070801D01*
X206378450Y-56500000D01*
X206463823Y-56929199D01*
X206706944Y-57293056D01*
X207070801Y-57536177D01*
X207391661Y-57600000D01*
X208122184Y-57600000D01*
X213750000Y-63227817D01*
X213750000Y-63229293D01*
X213848957Y-63468195D01*
X213850000Y-63469238D01*
X213850001Y-66530761D01*
X213848957Y-66531805D01*
X213750000Y-66770707D01*
X213750000Y-67029293D01*
X213848957Y-67268195D01*
X213850001Y-67269239D01*
X213850000Y-96080762D01*
X213848957Y-96081805D01*
X213750000Y-96320707D01*
X213750000Y-96579293D01*
X213848957Y-96818195D01*
X213850000Y-96819238D01*
X213850001Y-104236466D01*
X211038691Y-107047777D01*
X211038688Y-107047779D01*
X210861477Y-107224990D01*
X210860001Y-107224990D01*
X210621099Y-107323947D01*
X210438251Y-107506795D01*
X210339294Y-107745697D01*
X210339294Y-108004283D01*
X210438251Y-108243185D01*
X210621099Y-108426033D01*
X210860001Y-108524990D01*
X211118587Y-108524990D01*
X211357489Y-108426033D01*
X211540337Y-108243185D01*
X211639294Y-108004283D01*
X211639294Y-108002807D01*
X211816505Y-107825596D01*
X211816507Y-107825593D01*
X214750603Y-104891498D01*
X214796528Y-104860812D01*
X214918089Y-104678883D01*
X214929390Y-104622067D01*
X223100000Y-104622067D01*
X223100000Y-105377933D01*
X223389258Y-106076263D01*
X223923737Y-106610742D01*
X224622067Y-106900000D01*
X225377933Y-106900000D01*
X226076263Y-106610742D01*
X226610742Y-106076263D01*
X226900000Y-105377933D01*
X226900000Y-104622067D01*
X226610742Y-103923737D01*
X226076263Y-103389258D01*
X225377933Y-103100000D01*
X224622067Y-103100000D01*
X223923737Y-103389258D01*
X223389258Y-103923737D01*
X223100000Y-104622067D01*
X214929390Y-104622067D01*
X214950000Y-104518454D01*
X214950000Y-104518453D01*
X214960775Y-104464284D01*
X214950000Y-104410115D01*
X214950000Y-101952094D01*
X227189328Y-101952094D01*
X227304032Y-102128049D01*
X227788695Y-102308517D01*
X228305527Y-102289775D01*
X228695968Y-102128049D01*
X228810672Y-101952094D01*
X228000000Y-101141421D01*
X227189328Y-101952094D01*
X214950000Y-101952094D01*
X214950000Y-100788695D01*
X226691483Y-100788695D01*
X226710225Y-101305527D01*
X226871951Y-101695968D01*
X227047906Y-101810672D01*
X227858579Y-101000000D01*
X228141421Y-101000000D01*
X228952094Y-101810672D01*
X229128049Y-101695968D01*
X229308517Y-101211305D01*
X229289775Y-100694473D01*
X229128049Y-100304032D01*
X228952094Y-100189328D01*
X228141421Y-101000000D01*
X227858579Y-101000000D01*
X227047906Y-100189328D01*
X226871951Y-100304032D01*
X226691483Y-100788695D01*
X214950000Y-100788695D01*
X214950000Y-98941414D01*
X215400000Y-98941414D01*
X215400000Y-99458586D01*
X215597913Y-99936391D01*
X215963609Y-100302087D01*
X216441414Y-100500000D01*
X216958586Y-100500000D01*
X217436391Y-100302087D01*
X217690572Y-100047906D01*
X227189328Y-100047906D01*
X228000000Y-100858579D01*
X228810672Y-100047906D01*
X228695968Y-99871951D01*
X228211305Y-99691483D01*
X227694473Y-99710225D01*
X227304032Y-99871951D01*
X227189328Y-100047906D01*
X217690572Y-100047906D01*
X217802087Y-99936391D01*
X218000000Y-99458586D01*
X218000000Y-98941414D01*
X217802087Y-98463609D01*
X217436391Y-98097913D01*
X216958586Y-97900000D01*
X216441414Y-97900000D01*
X215963609Y-98097913D01*
X215597913Y-98463609D01*
X215400000Y-98941414D01*
X214950000Y-98941414D01*
X214950000Y-96819238D01*
X214951043Y-96818195D01*
X215050000Y-96579293D01*
X215050000Y-96320707D01*
X214951043Y-96081805D01*
X214950000Y-96080762D01*
X214950000Y-90618939D01*
X219272482Y-90618939D01*
X219423824Y-90826084D01*
X220017123Y-91056633D01*
X220653488Y-91042588D01*
X221176176Y-90826084D01*
X221327518Y-90618939D01*
X220300000Y-89591421D01*
X219272482Y-90618939D01*
X214950000Y-90618939D01*
X214950000Y-89167123D01*
X218693367Y-89167123D01*
X218707412Y-89803488D01*
X218923916Y-90326176D01*
X219131061Y-90477518D01*
X220158579Y-89450000D01*
X220441421Y-89450000D01*
X221468939Y-90477518D01*
X221676084Y-90326176D01*
X221906633Y-89732877D01*
X221892588Y-89096512D01*
X221676084Y-88573824D01*
X221468939Y-88422482D01*
X220441421Y-89450000D01*
X220158579Y-89450000D01*
X219131061Y-88422482D01*
X218923916Y-88573824D01*
X218693367Y-89167123D01*
X214950000Y-89167123D01*
X214950000Y-88281061D01*
X219272482Y-88281061D01*
X220300000Y-89308579D01*
X221327518Y-88281061D01*
X221176176Y-88073916D01*
X220582877Y-87843367D01*
X219946512Y-87857412D01*
X219423824Y-88073916D01*
X219272482Y-88281061D01*
X214950000Y-88281061D01*
X214950000Y-84650000D01*
X223694123Y-84650000D01*
X223694123Y-87250000D01*
X223717407Y-87367054D01*
X223783712Y-87466288D01*
X223882946Y-87532593D01*
X224000000Y-87555877D01*
X226600000Y-87555877D01*
X226717054Y-87532593D01*
X226816288Y-87466288D01*
X226882593Y-87367054D01*
X226905877Y-87250000D01*
X226905877Y-84650000D01*
X226882593Y-84532946D01*
X226816288Y-84433712D01*
X226717054Y-84367407D01*
X226600000Y-84344123D01*
X224000000Y-84344123D01*
X223882946Y-84367407D01*
X223783712Y-84433712D01*
X223717407Y-84532946D01*
X223694123Y-84650000D01*
X214950000Y-84650000D01*
X214950000Y-80531740D01*
X218700000Y-80531740D01*
X218700000Y-81168260D01*
X218943585Y-81756327D01*
X219393673Y-82206415D01*
X219981740Y-82450000D01*
X220618260Y-82450000D01*
X221206327Y-82206415D01*
X221656415Y-81756327D01*
X221900000Y-81168260D01*
X221900000Y-80531740D01*
X221656415Y-79943673D01*
X221206327Y-79493585D01*
X220618260Y-79250000D01*
X219981740Y-79250000D01*
X219393673Y-79493585D01*
X218943585Y-79943673D01*
X218700000Y-80531740D01*
X214950000Y-80531740D01*
X214950000Y-76050000D01*
X223694123Y-76050000D01*
X223694123Y-78650000D01*
X223717407Y-78767054D01*
X223783712Y-78866288D01*
X223882946Y-78932593D01*
X224000000Y-78955877D01*
X226600000Y-78955877D01*
X226717054Y-78932593D01*
X226816288Y-78866288D01*
X226882593Y-78767054D01*
X226905877Y-78650000D01*
X226905877Y-76050000D01*
X226882593Y-75932946D01*
X226816288Y-75833712D01*
X226717054Y-75767407D01*
X226600000Y-75744123D01*
X224000000Y-75744123D01*
X223882946Y-75767407D01*
X223783712Y-75833712D01*
X223717407Y-75932946D01*
X223694123Y-76050000D01*
X214950000Y-76050000D01*
X214950000Y-71931740D01*
X218700000Y-71931740D01*
X218700000Y-72568260D01*
X218943585Y-73156327D01*
X219393673Y-73606415D01*
X219981740Y-73850000D01*
X220618260Y-73850000D01*
X221206327Y-73606415D01*
X221656415Y-73156327D01*
X221900000Y-72568260D01*
X221900000Y-71931740D01*
X221656415Y-71343673D01*
X221206327Y-70893585D01*
X220618260Y-70650000D01*
X219981740Y-70650000D01*
X219393673Y-70893585D01*
X218943585Y-71343673D01*
X218700000Y-71931740D01*
X214950000Y-71931740D01*
X214950000Y-67450000D01*
X223694123Y-67450000D01*
X223694123Y-70050000D01*
X223717407Y-70167054D01*
X223783712Y-70266288D01*
X223882946Y-70332593D01*
X224000000Y-70355877D01*
X226600000Y-70355877D01*
X226717054Y-70332593D01*
X226816288Y-70266288D01*
X226882593Y-70167054D01*
X226905877Y-70050000D01*
X226905877Y-67450000D01*
X226882593Y-67332946D01*
X226816288Y-67233712D01*
X226717054Y-67167407D01*
X226600000Y-67144123D01*
X224000000Y-67144123D01*
X223882946Y-67167407D01*
X223783712Y-67233712D01*
X223717407Y-67332946D01*
X223694123Y-67450000D01*
X214950000Y-67450000D01*
X214950000Y-67269238D01*
X214951043Y-67268195D01*
X215050000Y-67029293D01*
X215050000Y-66770707D01*
X214951043Y-66531805D01*
X214950000Y-66530762D01*
X214950000Y-63469238D01*
X214951043Y-63468195D01*
X215050000Y-63229293D01*
X215050000Y-63191422D01*
X218929289Y-67070711D01*
X218961732Y-67092388D01*
X219000000Y-67100000D01*
X229625000Y-67100000D01*
X229625001Y-109625000D01*
X160375000Y-109625000D01*
X160375000Y-108270738D01*
X179449969Y-108270738D01*
X179449969Y-108529324D01*
X179548926Y-108768226D01*
X179731774Y-108951074D01*
X179970676Y-109050031D01*
X180229262Y-109050031D01*
X180468164Y-108951074D01*
X180569207Y-108850031D01*
X182955649Y-108850031D01*
X182999969Y-108858847D01*
X183044289Y-108850031D01*
X183044290Y-108850031D01*
X183175550Y-108823922D01*
X183324401Y-108724463D01*
X183349509Y-108686886D01*
X185216271Y-106820124D01*
X188710611Y-106820124D01*
X188903779Y-107230999D01*
X189239478Y-107536676D01*
X189559877Y-107669379D01*
X189740000Y-107623997D01*
X189740000Y-106640000D01*
X189940000Y-106640000D01*
X189940000Y-107623997D01*
X190120123Y-107669379D01*
X190440522Y-107536676D01*
X190776221Y-107230999D01*
X190969389Y-106820124D01*
X191250611Y-106820124D01*
X191443779Y-107230999D01*
X191779478Y-107536676D01*
X192099877Y-107669379D01*
X192280000Y-107623997D01*
X192280000Y-106640000D01*
X192480000Y-106640000D01*
X192480000Y-107623997D01*
X192660123Y-107669379D01*
X192980522Y-107536676D01*
X193316221Y-107230999D01*
X193509389Y-106820124D01*
X193790611Y-106820124D01*
X193983779Y-107230999D01*
X194319478Y-107536676D01*
X194639877Y-107669379D01*
X194820000Y-107623997D01*
X194820000Y-106640000D01*
X195020000Y-106640000D01*
X195020000Y-107623997D01*
X195200123Y-107669379D01*
X195520522Y-107536676D01*
X195856221Y-107230999D01*
X196049389Y-106820124D01*
X196330611Y-106820124D01*
X196523779Y-107230999D01*
X196859478Y-107536676D01*
X197179877Y-107669379D01*
X197360000Y-107623997D01*
X197360000Y-106640000D01*
X197560000Y-106640000D01*
X197560000Y-107623997D01*
X197740123Y-107669379D01*
X198060522Y-107536676D01*
X198396221Y-107230999D01*
X198589389Y-106820124D01*
X198544305Y-106640000D01*
X197560000Y-106640000D01*
X197360000Y-106640000D01*
X196375695Y-106640000D01*
X196330611Y-106820124D01*
X196049389Y-106820124D01*
X196004305Y-106640000D01*
X195020000Y-106640000D01*
X194820000Y-106640000D01*
X193835695Y-106640000D01*
X193790611Y-106820124D01*
X193509389Y-106820124D01*
X193464305Y-106640000D01*
X192480000Y-106640000D01*
X192280000Y-106640000D01*
X191295695Y-106640000D01*
X191250611Y-106820124D01*
X190969389Y-106820124D01*
X190924305Y-106640000D01*
X189940000Y-106640000D01*
X189740000Y-106640000D01*
X188755695Y-106640000D01*
X188710611Y-106820124D01*
X185216271Y-106820124D01*
X185496395Y-106540000D01*
X198813604Y-106540000D01*
X198903913Y-106994014D01*
X199161091Y-107378909D01*
X199545986Y-107636087D01*
X199885397Y-107703600D01*
X200114603Y-107703600D01*
X200454014Y-107636087D01*
X200838909Y-107378909D01*
X201096087Y-106994014D01*
X201186396Y-106540000D01*
X201096087Y-106085986D01*
X200838909Y-105701091D01*
X200454014Y-105443913D01*
X200114603Y-105376400D01*
X199885397Y-105376400D01*
X199545986Y-105443913D01*
X199161091Y-105701091D01*
X198903913Y-106085986D01*
X198813604Y-106540000D01*
X185496395Y-106540000D01*
X185776519Y-106259876D01*
X188710611Y-106259876D01*
X188755695Y-106440000D01*
X189740000Y-106440000D01*
X189740000Y-105456003D01*
X189940000Y-105456003D01*
X189940000Y-106440000D01*
X190924305Y-106440000D01*
X190969389Y-106259876D01*
X191250611Y-106259876D01*
X191295695Y-106440000D01*
X192280000Y-106440000D01*
X192280000Y-105456003D01*
X192480000Y-105456003D01*
X192480000Y-106440000D01*
X193464305Y-106440000D01*
X193509389Y-106259876D01*
X193790611Y-106259876D01*
X193835695Y-106440000D01*
X194820000Y-106440000D01*
X194820000Y-105456003D01*
X195020000Y-105456003D01*
X195020000Y-106440000D01*
X196004305Y-106440000D01*
X196049389Y-106259876D01*
X196330611Y-106259876D01*
X196375695Y-106440000D01*
X197360000Y-106440000D01*
X197360000Y-105456003D01*
X197560000Y-105456003D01*
X197560000Y-106440000D01*
X198544305Y-106440000D01*
X198589389Y-106259876D01*
X198396221Y-105849001D01*
X198060522Y-105543324D01*
X197740123Y-105410621D01*
X197560000Y-105456003D01*
X197360000Y-105456003D01*
X197179877Y-105410621D01*
X196859478Y-105543324D01*
X196523779Y-105849001D01*
X196330611Y-106259876D01*
X196049389Y-106259876D01*
X195856221Y-105849001D01*
X195520522Y-105543324D01*
X195200123Y-105410621D01*
X195020000Y-105456003D01*
X194820000Y-105456003D01*
X194639877Y-105410621D01*
X194319478Y-105543324D01*
X193983779Y-105849001D01*
X193790611Y-106259876D01*
X193509389Y-106259876D01*
X193316221Y-105849001D01*
X192980522Y-105543324D01*
X192660123Y-105410621D01*
X192480000Y-105456003D01*
X192280000Y-105456003D01*
X192099877Y-105410621D01*
X191779478Y-105543324D01*
X191443779Y-105849001D01*
X191250611Y-106259876D01*
X190969389Y-106259876D01*
X190776221Y-105849001D01*
X190440522Y-105543324D01*
X190120123Y-105410621D01*
X189940000Y-105456003D01*
X189740000Y-105456003D01*
X189559877Y-105410621D01*
X189239478Y-105543324D01*
X188903779Y-105849001D01*
X188710611Y-106259876D01*
X185776519Y-106259876D01*
X193074978Y-98961418D01*
X193074978Y-100163982D01*
X190318612Y-102920348D01*
X190294014Y-102903913D01*
X189954603Y-102836400D01*
X189725397Y-102836400D01*
X189385986Y-102903913D01*
X189001091Y-103161091D01*
X188743913Y-103545986D01*
X188653604Y-104000000D01*
X188743913Y-104454014D01*
X189001091Y-104838909D01*
X189385986Y-105096087D01*
X189725397Y-105163600D01*
X189954603Y-105163600D01*
X190294014Y-105096087D01*
X190678909Y-104838909D01*
X190936087Y-104454014D01*
X191026396Y-104000000D01*
X190936087Y-103545986D01*
X190919652Y-103521388D01*
X193524989Y-100916051D01*
X193524989Y-102253970D01*
X192858611Y-102920348D01*
X192834014Y-102903913D01*
X192494603Y-102836400D01*
X192265397Y-102836400D01*
X191925986Y-102903913D01*
X191541091Y-103161091D01*
X191283913Y-103545986D01*
X191193604Y-104000000D01*
X191283913Y-104454014D01*
X191541091Y-104838909D01*
X191925986Y-105096087D01*
X192265397Y-105163600D01*
X192494603Y-105163600D01*
X192834014Y-105096087D01*
X193218909Y-104838909D01*
X193476087Y-104454014D01*
X193566396Y-104000000D01*
X193733604Y-104000000D01*
X193823913Y-104454014D01*
X194081091Y-104838909D01*
X194465986Y-105096087D01*
X194805397Y-105163600D01*
X195034603Y-105163600D01*
X195374014Y-105096087D01*
X195758909Y-104838909D01*
X196016087Y-104454014D01*
X196106396Y-104000000D01*
X196273604Y-104000000D01*
X196363913Y-104454014D01*
X196621091Y-104838909D01*
X197005986Y-105096087D01*
X197345397Y-105163600D01*
X197574603Y-105163600D01*
X197914014Y-105096087D01*
X198298909Y-104838909D01*
X198556087Y-104454014D01*
X198646396Y-104000000D01*
X198556087Y-103545986D01*
X198298909Y-103161091D01*
X197914014Y-102903913D01*
X197574603Y-102836400D01*
X197345397Y-102836400D01*
X197005986Y-102903913D01*
X196621091Y-103161091D01*
X196363913Y-103545986D01*
X196273604Y-104000000D01*
X196106396Y-104000000D01*
X196016087Y-103545986D01*
X195758909Y-103161091D01*
X195374014Y-102903913D01*
X195034603Y-102836400D01*
X194805397Y-102836400D01*
X194465986Y-102903913D01*
X194081091Y-103161091D01*
X193823913Y-103545986D01*
X193733604Y-104000000D01*
X193566396Y-104000000D01*
X193476087Y-103545986D01*
X193459652Y-103521389D01*
X194220912Y-102760129D01*
X194256397Y-102736419D01*
X194350330Y-102595838D01*
X194374989Y-102471869D01*
X194374989Y-102471868D01*
X194383315Y-102430011D01*
X194374989Y-102388154D01*
X194374989Y-98876029D01*
X198830523Y-103331564D01*
X198830523Y-104863600D01*
X198853807Y-104980654D01*
X198920112Y-105079888D01*
X199019346Y-105146193D01*
X199136400Y-105169477D01*
X200863600Y-105169477D01*
X200980654Y-105146193D01*
X201079888Y-105079888D01*
X201146193Y-104980654D01*
X201169477Y-104863600D01*
X201169477Y-103136400D01*
X201146193Y-103019346D01*
X201079888Y-102920112D01*
X200980654Y-102853807D01*
X200863600Y-102830523D01*
X199531564Y-102830523D01*
X194825000Y-98123960D01*
X194825000Y-96341414D01*
X202500000Y-96341414D01*
X202500000Y-96858586D01*
X202697913Y-97336391D01*
X203063609Y-97702087D01*
X203541414Y-97900000D01*
X204058586Y-97900000D01*
X204536391Y-97702087D01*
X204902087Y-97336391D01*
X205100000Y-96858586D01*
X205100000Y-96341414D01*
X204902087Y-95863609D01*
X204536391Y-95497913D01*
X204058586Y-95300000D01*
X203541414Y-95300000D01*
X203063609Y-95497913D01*
X202697913Y-95863609D01*
X202500000Y-96341414D01*
X194825000Y-96341414D01*
X194825000Y-88170705D01*
X195850008Y-88170705D01*
X195850008Y-88429291D01*
X195948965Y-88668193D01*
X196131813Y-88851041D01*
X196370715Y-88949998D01*
X196629301Y-88949998D01*
X196868203Y-88851041D01*
X196869246Y-88849998D01*
X205397635Y-88849998D01*
X205451804Y-88860773D01*
X205505973Y-88849998D01*
X205505974Y-88849998D01*
X205666403Y-88818087D01*
X205848332Y-88696526D01*
X205879020Y-88650598D01*
X206579611Y-87950008D01*
X206581087Y-87950008D01*
X206819989Y-87851051D01*
X207002837Y-87668203D01*
X207101794Y-87429301D01*
X207101794Y-87427824D01*
X208079619Y-86450000D01*
X209694123Y-86450000D01*
X209694123Y-86900000D01*
X209717407Y-87017054D01*
X209783712Y-87116288D01*
X209882946Y-87182593D01*
X210000000Y-87205877D01*
X212000000Y-87205877D01*
X212117054Y-87182593D01*
X212216288Y-87116288D01*
X212282593Y-87017054D01*
X212305877Y-86900000D01*
X212305877Y-84900000D01*
X212282593Y-84782946D01*
X212216288Y-84683712D01*
X212117054Y-84617407D01*
X212000000Y-84594123D01*
X210000000Y-84594123D01*
X209882946Y-84617407D01*
X209783712Y-84683712D01*
X209717407Y-84782946D01*
X209694123Y-84900000D01*
X209694123Y-85350000D01*
X207905970Y-85350000D01*
X207851801Y-85339225D01*
X207797632Y-85350000D01*
X207637203Y-85381911D01*
X207637202Y-85381912D01*
X207637201Y-85381912D01*
X207595075Y-85410060D01*
X207455274Y-85503472D01*
X207424588Y-85549397D01*
X206323978Y-86650008D01*
X206322501Y-86650008D01*
X206083599Y-86748965D01*
X205900751Y-86931813D01*
X205801794Y-87170715D01*
X205801794Y-87172191D01*
X205223988Y-87749998D01*
X196869246Y-87749998D01*
X196868203Y-87748955D01*
X196629301Y-87649998D01*
X196370715Y-87649998D01*
X196131813Y-87748955D01*
X195948965Y-87931803D01*
X195850008Y-88170705D01*
X194825000Y-88170705D01*
X194825000Y-82976040D01*
X197630119Y-80170922D01*
X197630121Y-80170919D01*
X197651040Y-80150000D01*
X197829293Y-80150000D01*
X198068195Y-80051043D01*
X198251043Y-79868195D01*
X198350000Y-79629293D01*
X198350000Y-79370707D01*
X198251043Y-79131805D01*
X198068195Y-78948957D01*
X197829293Y-78850000D01*
X197724043Y-78850000D01*
X199370923Y-77203120D01*
X199406408Y-77179410D01*
X199500341Y-77038829D01*
X199525000Y-76914860D01*
X199525000Y-76914859D01*
X199533326Y-76873003D01*
X199525000Y-76831147D01*
X199525000Y-76694238D01*
X199651043Y-76568195D01*
X199750000Y-76329293D01*
X199750000Y-76070707D01*
X199651043Y-75831805D01*
X199468195Y-75648957D01*
X199229293Y-75550000D01*
X198970707Y-75550000D01*
X198731805Y-75648957D01*
X198548957Y-75831805D01*
X198450000Y-76070707D01*
X198450000Y-76329293D01*
X198548957Y-76568195D01*
X198675000Y-76694238D01*
X198675000Y-76696961D01*
X196835726Y-78536236D01*
X196751043Y-78331795D01*
X196568195Y-78148947D01*
X196329293Y-78049990D01*
X196070707Y-78049990D01*
X195831805Y-78148947D01*
X195648957Y-78331795D01*
X195550000Y-78570697D01*
X195550000Y-78748950D01*
X195529081Y-78769869D01*
X195529078Y-78769871D01*
X193650000Y-80648950D01*
X193650000Y-80470707D01*
X193551043Y-80231805D01*
X193368195Y-80048957D01*
X193129293Y-79950000D01*
X192870707Y-79950000D01*
X192631805Y-80048957D01*
X192448957Y-80231805D01*
X192350000Y-80470707D01*
X192350000Y-80729293D01*
X192448957Y-80968195D01*
X192550000Y-81069238D01*
X192550000Y-81210005D01*
X192550001Y-81210010D01*
X192550000Y-98213604D01*
X182813574Y-107950031D01*
X180569207Y-107950031D01*
X180468164Y-107848988D01*
X180229262Y-107750031D01*
X179970676Y-107750031D01*
X179731774Y-107848988D01*
X179548926Y-108031836D01*
X179449969Y-108270738D01*
X160375000Y-108270738D01*
X160375000Y-104622067D01*
X163100000Y-104622067D01*
X163100000Y-105377933D01*
X163389258Y-106076263D01*
X163923737Y-106610742D01*
X164622067Y-106900000D01*
X165377933Y-106900000D01*
X166076263Y-106610742D01*
X166610742Y-106076263D01*
X166900000Y-105377933D01*
X166900000Y-104622067D01*
X166610742Y-103923737D01*
X166076263Y-103389258D01*
X165377933Y-103100000D01*
X164622067Y-103100000D01*
X163923737Y-103389258D01*
X163389258Y-103923737D01*
X163100000Y-104622067D01*
X160375000Y-104622067D01*
X160375000Y-81150000D01*
X163094123Y-81150000D01*
X163094123Y-83750000D01*
X163117407Y-83867054D01*
X163183712Y-83966288D01*
X163282946Y-84032593D01*
X163400000Y-84055877D01*
X166000000Y-84055877D01*
X166117054Y-84032593D01*
X166216288Y-83966288D01*
X166282593Y-83867054D01*
X166305877Y-83750000D01*
X166305877Y-81150000D01*
X166282593Y-81032946D01*
X166216288Y-80933712D01*
X166117054Y-80867407D01*
X166000000Y-80844123D01*
X163400000Y-80844123D01*
X163282946Y-80867407D01*
X163183712Y-80933712D01*
X163117407Y-81032946D01*
X163094123Y-81150000D01*
X160375000Y-81150000D01*
X160375000Y-78631740D01*
X168100000Y-78631740D01*
X168100000Y-79268260D01*
X168343585Y-79856327D01*
X168793673Y-80306415D01*
X169381740Y-80550000D01*
X170018260Y-80550000D01*
X170606327Y-80306415D01*
X171056415Y-79856327D01*
X171300000Y-79268260D01*
X171300000Y-78631740D01*
X171056415Y-78043673D01*
X170606327Y-77593585D01*
X170018260Y-77350000D01*
X169381740Y-77350000D01*
X168793673Y-77593585D01*
X168343585Y-78043673D01*
X168100000Y-78631740D01*
X160375000Y-78631740D01*
X160375000Y-72550000D01*
X163094123Y-72550000D01*
X163094123Y-75150000D01*
X163117407Y-75267054D01*
X163183712Y-75366288D01*
X163282946Y-75432593D01*
X163400000Y-75455877D01*
X166000000Y-75455877D01*
X166117054Y-75432593D01*
X166216288Y-75366288D01*
X166282593Y-75267054D01*
X166305877Y-75150000D01*
X166305877Y-72550000D01*
X166282593Y-72432946D01*
X166216288Y-72333712D01*
X166117054Y-72267407D01*
X166000000Y-72244123D01*
X163400000Y-72244123D01*
X163282946Y-72267407D01*
X163183712Y-72333712D01*
X163117407Y-72432946D01*
X163094123Y-72550000D01*
X160375000Y-72550000D01*
X160375000Y-70031740D01*
X168100000Y-70031740D01*
X168100000Y-70668260D01*
X168343585Y-71256327D01*
X168793673Y-71706415D01*
X169050001Y-71812589D01*
X169050001Y-72645826D01*
X169039225Y-72700000D01*
X169059117Y-72800000D01*
X169081912Y-72914599D01*
X169203473Y-73096528D01*
X169249398Y-73127214D01*
X172910567Y-76788385D01*
X172943513Y-76954014D01*
X173200691Y-77338909D01*
X173585586Y-77596087D01*
X173924997Y-77663600D01*
X175475003Y-77663600D01*
X175814414Y-77596087D01*
X176199309Y-77338909D01*
X176456487Y-76954014D01*
X176546796Y-76500000D01*
X176456487Y-76045986D01*
X176199309Y-75661091D01*
X175814414Y-75403913D01*
X175475003Y-75336400D01*
X173924997Y-75336400D01*
X173585586Y-75403913D01*
X173283547Y-75605729D01*
X170150000Y-72472184D01*
X170150000Y-71895432D01*
X170606327Y-71706415D01*
X170812742Y-71500000D01*
X172853204Y-71500000D01*
X172943513Y-71954014D01*
X173200691Y-72338909D01*
X173585586Y-72596087D01*
X173924997Y-72663600D01*
X175475003Y-72663600D01*
X175814414Y-72596087D01*
X176199309Y-72338909D01*
X176456487Y-71954014D01*
X176546796Y-71500000D01*
X176456487Y-71045986D01*
X176199309Y-70661091D01*
X175814414Y-70403913D01*
X175475003Y-70336400D01*
X173924997Y-70336400D01*
X173585586Y-70403913D01*
X173200691Y-70661091D01*
X172943513Y-71045986D01*
X172853204Y-71500000D01*
X170812742Y-71500000D01*
X171056415Y-71256327D01*
X171300000Y-70668260D01*
X171300000Y-70031740D01*
X171056415Y-69443673D01*
X170606327Y-68993585D01*
X170018260Y-68750000D01*
X169381740Y-68750000D01*
X168793673Y-68993585D01*
X168343585Y-69443673D01*
X168100000Y-70031740D01*
X160375000Y-70031740D01*
X160375000Y-67100000D01*
X171000000Y-67100000D01*
X171038268Y-67092388D01*
X171070711Y-67070711D01*
X178450000Y-59691422D01*
X178450001Y-63953947D01*
X178440147Y-63963801D01*
X178341190Y-64202703D01*
X178341190Y-64461289D01*
X178440147Y-64700191D01*
X178441190Y-64701234D01*
X178441190Y-64951850D01*
X178441191Y-64951855D01*
X178441190Y-76680993D01*
X172172184Y-82950000D01*
X172170707Y-82950000D01*
X171931805Y-83048957D01*
X171930762Y-83050000D01*
X169154168Y-83050000D01*
X169099999Y-83039225D01*
X169045830Y-83050000D01*
X168885401Y-83081911D01*
X168703472Y-83203472D01*
X168672787Y-83249396D01*
X164249398Y-87672786D01*
X164203473Y-87703472D01*
X164151063Y-87781909D01*
X164081912Y-87885401D01*
X164039225Y-88100000D01*
X164050001Y-88154174D01*
X164050001Y-89444123D01*
X163400000Y-89444123D01*
X163282946Y-89467407D01*
X163183712Y-89533712D01*
X163117407Y-89632946D01*
X163094123Y-89750000D01*
X163094123Y-92350000D01*
X163117407Y-92467054D01*
X163183712Y-92566288D01*
X163282946Y-92632593D01*
X163400000Y-92655877D01*
X164050000Y-92655877D01*
X164050001Y-98044123D01*
X163400000Y-98044123D01*
X163282946Y-98067407D01*
X163183712Y-98133712D01*
X163117407Y-98232946D01*
X163094123Y-98350000D01*
X163094123Y-100950000D01*
X163117407Y-101067054D01*
X163183712Y-101166288D01*
X163282946Y-101232593D01*
X163400000Y-101255877D01*
X166000000Y-101255877D01*
X166117054Y-101232593D01*
X166216288Y-101166288D01*
X166282593Y-101067054D01*
X166305877Y-100950000D01*
X166305877Y-99770707D01*
X181050000Y-99770707D01*
X181050000Y-100029293D01*
X181148957Y-100268195D01*
X181331805Y-100451043D01*
X181570707Y-100550000D01*
X181829293Y-100550000D01*
X182068195Y-100451043D01*
X182069238Y-100450000D01*
X184845831Y-100450000D01*
X184900000Y-100460775D01*
X184954169Y-100450000D01*
X184954170Y-100450000D01*
X185114599Y-100418089D01*
X185296528Y-100296528D01*
X185327216Y-100250600D01*
X185455022Y-100122794D01*
X185641414Y-100200000D01*
X186158586Y-100200000D01*
X186636391Y-100002087D01*
X187002087Y-99636391D01*
X187200000Y-99158586D01*
X187200000Y-98641414D01*
X187002087Y-98163609D01*
X186636391Y-97797913D01*
X186158586Y-97600000D01*
X185641414Y-97600000D01*
X185163609Y-97797913D01*
X184797913Y-98163609D01*
X184600000Y-98641414D01*
X184600000Y-99158586D01*
X184677206Y-99344978D01*
X184672184Y-99350000D01*
X182250000Y-99350000D01*
X182250000Y-89500000D01*
X185353204Y-89500000D01*
X185443513Y-89954014D01*
X185700691Y-90338909D01*
X186085586Y-90596087D01*
X186424997Y-90663600D01*
X187975003Y-90663600D01*
X188314414Y-90596087D01*
X188699309Y-90338909D01*
X188956487Y-89954014D01*
X189046796Y-89500000D01*
X188956487Y-89045986D01*
X188699309Y-88661091D01*
X188314414Y-88403913D01*
X187975003Y-88336400D01*
X186424997Y-88336400D01*
X186085586Y-88403913D01*
X185700691Y-88661091D01*
X185443513Y-89045986D01*
X185353204Y-89500000D01*
X182250000Y-89500000D01*
X182250000Y-84500000D01*
X185353204Y-84500000D01*
X185443513Y-84954014D01*
X185700691Y-85338909D01*
X186085586Y-85596087D01*
X186424997Y-85663600D01*
X187975003Y-85663600D01*
X188314414Y-85596087D01*
X188699309Y-85338909D01*
X188956487Y-84954014D01*
X189046796Y-84500000D01*
X188956487Y-84045986D01*
X188699309Y-83661091D01*
X188314414Y-83403913D01*
X187975003Y-83336400D01*
X186424997Y-83336400D01*
X186085586Y-83403913D01*
X185700691Y-83661091D01*
X185443513Y-84045986D01*
X185353204Y-84500000D01*
X182250000Y-84500000D01*
X182250000Y-76500000D01*
X185353204Y-76500000D01*
X185443513Y-76954014D01*
X185700691Y-77338909D01*
X186085586Y-77596087D01*
X186424997Y-77663600D01*
X187975003Y-77663600D01*
X188314414Y-77596087D01*
X188699309Y-77338909D01*
X188878515Y-77070707D01*
X192350806Y-77070707D01*
X192350806Y-77329293D01*
X192449763Y-77568195D01*
X192632611Y-77751043D01*
X192871513Y-77850000D01*
X193130099Y-77850000D01*
X193369001Y-77751043D01*
X193370044Y-77750000D01*
X196045831Y-77750000D01*
X196100000Y-77760775D01*
X196154169Y-77750000D01*
X196154170Y-77750000D01*
X196314599Y-77718089D01*
X196496528Y-77596528D01*
X196527216Y-77550600D01*
X199007107Y-75070709D01*
X200550000Y-75070709D01*
X200550000Y-75329295D01*
X200648957Y-75568197D01*
X200831805Y-75751045D01*
X201070707Y-75850002D01*
X201329293Y-75850002D01*
X201568195Y-75751045D01*
X201569238Y-75750002D01*
X207672186Y-75750002D01*
X209777206Y-77855022D01*
X209700000Y-78041414D01*
X209700000Y-78558586D01*
X209897913Y-79036391D01*
X210263609Y-79402087D01*
X210741414Y-79600000D01*
X211258586Y-79600000D01*
X211736391Y-79402087D01*
X212102087Y-79036391D01*
X212300000Y-78558586D01*
X212300000Y-78041414D01*
X212102087Y-77563609D01*
X211736391Y-77197913D01*
X211258586Y-77000000D01*
X210741414Y-77000000D01*
X210555022Y-77077206D01*
X208327212Y-74849396D01*
X208296527Y-74803473D01*
X208114599Y-74681912D01*
X207900000Y-74639225D01*
X207845821Y-74650002D01*
X201569238Y-74650002D01*
X201568195Y-74648959D01*
X201329293Y-74550002D01*
X201070707Y-74550002D01*
X200831805Y-74648959D01*
X200648957Y-74831807D01*
X200550000Y-75070709D01*
X199007107Y-75070709D01*
X201591647Y-72486169D01*
X202725000Y-72486169D01*
X202725000Y-72913831D01*
X202888659Y-73308938D01*
X203191062Y-73611341D01*
X203586169Y-73775000D01*
X204013831Y-73775000D01*
X204408938Y-73611341D01*
X204711341Y-73308938D01*
X204875000Y-72913831D01*
X204875000Y-72875000D01*
X207725000Y-72875000D01*
X207725000Y-73534673D01*
X207770672Y-73644936D01*
X207855063Y-73729328D01*
X207965326Y-73775000D01*
X208625000Y-73775000D01*
X208700000Y-73700000D01*
X208700000Y-72800000D01*
X208900000Y-72800000D01*
X208900000Y-73700000D01*
X208975000Y-73775000D01*
X209634674Y-73775000D01*
X209744937Y-73729328D01*
X209829328Y-73644936D01*
X209875000Y-73534673D01*
X209875000Y-72875000D01*
X209800000Y-72800000D01*
X208900000Y-72800000D01*
X208700000Y-72800000D01*
X207800000Y-72800000D01*
X207725000Y-72875000D01*
X204875000Y-72875000D01*
X204875000Y-72486169D01*
X204711341Y-72091062D01*
X204485606Y-71865327D01*
X207725000Y-71865327D01*
X207725000Y-72525000D01*
X207800000Y-72600000D01*
X208700000Y-72600000D01*
X208700000Y-71700000D01*
X208900000Y-71700000D01*
X208900000Y-72600000D01*
X209800000Y-72600000D01*
X209875000Y-72525000D01*
X209875000Y-71865327D01*
X209829328Y-71755064D01*
X209744937Y-71670672D01*
X209634674Y-71625000D01*
X208975000Y-71625000D01*
X208900000Y-71700000D01*
X208700000Y-71700000D01*
X208625000Y-71625000D01*
X207965326Y-71625000D01*
X207855063Y-71670672D01*
X207770672Y-71755064D01*
X207725000Y-71865327D01*
X204485606Y-71865327D01*
X204408938Y-71788659D01*
X204013831Y-71625000D01*
X203586169Y-71625000D01*
X203191062Y-71788659D01*
X202888659Y-72091062D01*
X202725000Y-72486169D01*
X201591647Y-72486169D01*
X205578769Y-68499048D01*
X205691062Y-68611341D01*
X206086169Y-68775000D01*
X206513831Y-68775000D01*
X206908938Y-68611341D01*
X207211341Y-68308938D01*
X207375000Y-67913831D01*
X207375000Y-67486169D01*
X207211341Y-67091062D01*
X206908938Y-66788659D01*
X206513831Y-66625000D01*
X206086169Y-66625000D01*
X205691062Y-66788659D01*
X205388659Y-67091062D01*
X205337874Y-67213667D01*
X205203472Y-67303472D01*
X205172786Y-67349397D01*
X195872184Y-76650000D01*
X193370044Y-76650000D01*
X193369001Y-76648957D01*
X193130099Y-76550000D01*
X192871513Y-76550000D01*
X192632611Y-76648957D01*
X192449763Y-76831805D01*
X192350806Y-77070707D01*
X188878515Y-77070707D01*
X188956487Y-76954014D01*
X189046796Y-76500000D01*
X188956487Y-76045986D01*
X188699309Y-75661091D01*
X188314414Y-75403913D01*
X187975003Y-75336400D01*
X186424997Y-75336400D01*
X186085586Y-75403913D01*
X185700691Y-75661091D01*
X185443513Y-76045986D01*
X185353204Y-76500000D01*
X182250000Y-76500000D01*
X182250000Y-71827816D01*
X182577816Y-71500000D01*
X185353204Y-71500000D01*
X185443513Y-71954014D01*
X185700691Y-72338909D01*
X186085586Y-72596087D01*
X186424997Y-72663600D01*
X187975003Y-72663600D01*
X188314414Y-72596087D01*
X188699309Y-72338909D01*
X188956487Y-71954014D01*
X189046796Y-71500000D01*
X188956487Y-71045986D01*
X188699309Y-70661091D01*
X188370539Y-70441414D01*
X189500000Y-70441414D01*
X189500000Y-70958586D01*
X189697913Y-71436391D01*
X190063609Y-71802087D01*
X190541414Y-72000000D01*
X191058586Y-72000000D01*
X191536391Y-71802087D01*
X191902087Y-71436391D01*
X192100000Y-70958586D01*
X192100000Y-70441414D01*
X191902087Y-69963609D01*
X191536391Y-69597913D01*
X191058586Y-69400000D01*
X190541414Y-69400000D01*
X190063609Y-69597913D01*
X189697913Y-69963609D01*
X189500000Y-70441414D01*
X188370539Y-70441414D01*
X188314414Y-70403913D01*
X187975003Y-70336400D01*
X186424997Y-70336400D01*
X186085586Y-70403913D01*
X185700691Y-70661091D01*
X185443513Y-71045986D01*
X185353204Y-71500000D01*
X182577816Y-71500000D01*
X186227817Y-67850000D01*
X186229293Y-67850000D01*
X186468195Y-67751043D01*
X186469238Y-67750000D01*
X204358331Y-67750000D01*
X204412500Y-67760775D01*
X204466669Y-67750000D01*
X204466670Y-67750000D01*
X204627099Y-67718089D01*
X204809028Y-67596528D01*
X204839716Y-67550600D01*
X207977213Y-64413105D01*
X207977217Y-64413099D01*
X208027816Y-64362500D01*
X208029293Y-64362500D01*
X208268195Y-64263543D01*
X208451043Y-64080695D01*
X208550000Y-63841793D01*
X208550000Y-63583207D01*
X208451043Y-63344305D01*
X208268195Y-63161457D01*
X208029293Y-63062500D01*
X207770707Y-63062500D01*
X207700000Y-63091788D01*
X207700000Y-62641414D01*
X207502087Y-62163609D01*
X207136391Y-61797913D01*
X206658586Y-61600000D01*
X206141414Y-61600000D01*
X205663609Y-61797913D01*
X205297913Y-62163609D01*
X205100000Y-62641414D01*
X205100000Y-63158586D01*
X205297913Y-63636391D01*
X205663609Y-64002087D01*
X206141414Y-64200000D01*
X206634682Y-64200000D01*
X204184684Y-66650000D01*
X186469238Y-66650000D01*
X186468195Y-66648957D01*
X186229293Y-66550000D01*
X185970707Y-66550000D01*
X185731805Y-66648957D01*
X185548957Y-66831805D01*
X185450000Y-67070707D01*
X185450000Y-67072183D01*
X181349398Y-71172786D01*
X181303473Y-71203472D01*
X181209794Y-71343673D01*
X181181912Y-71385401D01*
X181139225Y-71600000D01*
X181150001Y-71654174D01*
X181150000Y-99530762D01*
X181148957Y-99531805D01*
X181050000Y-99770707D01*
X166305877Y-99770707D01*
X166305877Y-98350000D01*
X166282593Y-98232946D01*
X166216288Y-98133712D01*
X166117054Y-98067407D01*
X166000000Y-98044123D01*
X165150000Y-98044123D01*
X165150000Y-95831740D01*
X168100000Y-95831740D01*
X168100000Y-96468260D01*
X168343585Y-97056327D01*
X168793673Y-97506415D01*
X169381740Y-97750000D01*
X170018260Y-97750000D01*
X170606327Y-97506415D01*
X171056415Y-97056327D01*
X171300000Y-96468260D01*
X171300000Y-95831740D01*
X171056415Y-95243673D01*
X170606327Y-94793585D01*
X170018260Y-94550000D01*
X169381740Y-94550000D01*
X168793673Y-94793585D01*
X168343585Y-95243673D01*
X168100000Y-95831740D01*
X165150000Y-95831740D01*
X165150000Y-92655877D01*
X166000000Y-92655877D01*
X166117054Y-92632593D01*
X166216288Y-92566288D01*
X166282593Y-92467054D01*
X166305877Y-92350000D01*
X166305877Y-89750000D01*
X166282593Y-89632946D01*
X166216288Y-89533712D01*
X166165834Y-89500000D01*
X172853204Y-89500000D01*
X172943513Y-89954014D01*
X173200691Y-90338909D01*
X173585586Y-90596087D01*
X173924997Y-90663600D01*
X175475003Y-90663600D01*
X175814414Y-90596087D01*
X176199309Y-90338909D01*
X176456487Y-89954014D01*
X176546796Y-89500000D01*
X176456487Y-89045986D01*
X176199309Y-88661091D01*
X175814414Y-88403913D01*
X175475003Y-88336400D01*
X173924997Y-88336400D01*
X173585586Y-88403913D01*
X173200691Y-88661091D01*
X172943513Y-89045986D01*
X172853204Y-89500000D01*
X166165834Y-89500000D01*
X166117054Y-89467407D01*
X166000000Y-89444123D01*
X165150000Y-89444123D01*
X165150000Y-88327816D01*
X166246076Y-87231740D01*
X168100000Y-87231740D01*
X168100000Y-87868260D01*
X168343585Y-88456327D01*
X168793673Y-88906415D01*
X169381740Y-89150000D01*
X170018260Y-89150000D01*
X170606327Y-88906415D01*
X171056415Y-88456327D01*
X171300000Y-87868260D01*
X171300000Y-87231740D01*
X171056415Y-86643673D01*
X170606327Y-86193585D01*
X170018260Y-85950000D01*
X169381740Y-85950000D01*
X168793673Y-86193585D01*
X168343585Y-86643673D01*
X168100000Y-87231740D01*
X166246076Y-87231740D01*
X168977816Y-84500000D01*
X172853204Y-84500000D01*
X172943513Y-84954014D01*
X173200691Y-85338909D01*
X173585586Y-85596087D01*
X173924997Y-85663600D01*
X175475003Y-85663600D01*
X175814414Y-85596087D01*
X176199309Y-85338909D01*
X176456487Y-84954014D01*
X176546796Y-84500000D01*
X176456487Y-84045986D01*
X176199309Y-83661091D01*
X175814414Y-83403913D01*
X175475003Y-83336400D01*
X173924997Y-83336400D01*
X173585586Y-83403913D01*
X173200691Y-83661091D01*
X172943513Y-84045986D01*
X172853204Y-84500000D01*
X168977816Y-84500000D01*
X169327817Y-84150000D01*
X171930762Y-84150000D01*
X171931805Y-84151043D01*
X172170707Y-84250000D01*
X172429293Y-84250000D01*
X172668195Y-84151043D01*
X172851043Y-83968195D01*
X172950000Y-83729293D01*
X172950000Y-83727816D01*
X179341793Y-77336024D01*
X179387718Y-77305338D01*
X179509279Y-77123409D01*
X179541190Y-76962980D01*
X179541190Y-76962979D01*
X179551965Y-76908810D01*
X179541190Y-76854641D01*
X179541190Y-64850000D01*
X183230762Y-64850000D01*
X183231805Y-64851043D01*
X183470707Y-64950000D01*
X183729293Y-64950000D01*
X183968195Y-64851043D01*
X184151043Y-64668195D01*
X184250000Y-64429293D01*
X184250000Y-64170707D01*
X184151043Y-63931805D01*
X183968195Y-63748957D01*
X183729293Y-63650000D01*
X183470707Y-63650000D01*
X183231805Y-63748957D01*
X183230762Y-63750000D01*
X179550000Y-63750000D01*
X179550000Y-63051631D01*
X190150000Y-63051631D01*
X190150000Y-63648369D01*
X190378361Y-64199682D01*
X190800318Y-64621639D01*
X191351631Y-64850000D01*
X191948369Y-64850000D01*
X192499682Y-64621639D01*
X192921639Y-64199682D01*
X193150000Y-63648369D01*
X193150000Y-63051631D01*
X196850000Y-63051631D01*
X196850000Y-63648369D01*
X197078361Y-64199682D01*
X197500318Y-64621639D01*
X198051631Y-64850000D01*
X198648369Y-64850000D01*
X199199682Y-64621639D01*
X199621639Y-64199682D01*
X199850000Y-63648369D01*
X199850000Y-63051631D01*
X199621639Y-62500318D01*
X199199682Y-62078361D01*
X198648369Y-61850000D01*
X198051631Y-61850000D01*
X197500318Y-62078361D01*
X197078361Y-62500318D01*
X196850000Y-63051631D01*
X193150000Y-63051631D01*
X192921639Y-62500318D01*
X192499682Y-62078361D01*
X191948369Y-61850000D01*
X191351631Y-61850000D01*
X190800318Y-62078361D01*
X190378361Y-62500318D01*
X190150000Y-63051631D01*
X179550000Y-63051631D01*
X179550000Y-61096684D01*
X189294738Y-61096684D01*
X189433874Y-61293431D01*
X189990973Y-61507293D01*
X190587506Y-61491683D01*
X191066126Y-61293431D01*
X191205262Y-61096684D01*
X190250000Y-60141421D01*
X189294738Y-61096684D01*
X179550000Y-61096684D01*
X179550000Y-59740973D01*
X188742707Y-59740973D01*
X188758317Y-60337506D01*
X188956569Y-60816126D01*
X189153316Y-60955262D01*
X190108579Y-60000000D01*
X190391421Y-60000000D01*
X191346684Y-60955262D01*
X191543431Y-60816126D01*
X191757293Y-60259027D01*
X191742708Y-59701631D01*
X198250000Y-59701631D01*
X198250000Y-60298369D01*
X198478361Y-60849682D01*
X198900318Y-61271639D01*
X199451631Y-61500000D01*
X200048369Y-61500000D01*
X200599682Y-61271639D01*
X201021639Y-60849682D01*
X201250000Y-60298369D01*
X201250000Y-59701631D01*
X201021639Y-59150318D01*
X200599682Y-58728361D01*
X200048369Y-58500000D01*
X199451631Y-58500000D01*
X198900318Y-58728361D01*
X198478361Y-59150318D01*
X198250000Y-59701631D01*
X191742708Y-59701631D01*
X191741683Y-59662494D01*
X191543431Y-59183874D01*
X191346684Y-59044738D01*
X190391421Y-60000000D01*
X190108579Y-60000000D01*
X189153316Y-59044738D01*
X188956569Y-59183874D01*
X188742707Y-59740973D01*
X179550000Y-59740973D01*
X179550000Y-58903316D01*
X189294738Y-58903316D01*
X190250000Y-59858579D01*
X191205262Y-58903316D01*
X191066126Y-58706569D01*
X190509027Y-58492707D01*
X189912494Y-58508317D01*
X189433874Y-58706569D01*
X189294738Y-58903316D01*
X179550000Y-58903316D01*
X179550000Y-58591422D01*
X180070711Y-58070711D01*
X180092388Y-58038268D01*
X180100000Y-58000000D01*
X180100000Y-57197816D01*
X180757816Y-56540000D01*
X181398450Y-56540000D01*
X181483823Y-56969199D01*
X181726944Y-57333056D01*
X182090801Y-57576177D01*
X182411661Y-57640000D01*
X183428339Y-57640000D01*
X183749199Y-57576177D01*
X184113056Y-57333056D01*
X184356177Y-56969199D01*
X184441550Y-56540000D01*
X184404082Y-56351631D01*
X190150000Y-56351631D01*
X190150000Y-56948369D01*
X190378361Y-57499682D01*
X190800318Y-57921639D01*
X191351631Y-58150000D01*
X191948369Y-58150000D01*
X192499682Y-57921639D01*
X192921639Y-57499682D01*
X193150000Y-56948369D01*
X193150000Y-56351631D01*
X196850000Y-56351631D01*
X196850000Y-56948369D01*
X197078361Y-57499682D01*
X197500318Y-57921639D01*
X198051631Y-58150000D01*
X198648369Y-58150000D01*
X199199682Y-57921639D01*
X199621639Y-57499682D01*
X199850000Y-56948369D01*
X199850000Y-56351631D01*
X199621639Y-55800318D01*
X199199682Y-55378361D01*
X198648369Y-55150000D01*
X198051631Y-55150000D01*
X197500318Y-55378361D01*
X197078361Y-55800318D01*
X196850000Y-56351631D01*
X193150000Y-56351631D01*
X192921639Y-55800318D01*
X192499682Y-55378361D01*
X191948369Y-55150000D01*
X191351631Y-55150000D01*
X190800318Y-55378361D01*
X190378361Y-55800318D01*
X190150000Y-56351631D01*
X184404082Y-56351631D01*
X184356177Y-56110801D01*
X184113056Y-55746944D01*
X183749199Y-55503823D01*
X183428339Y-55440000D01*
X182411661Y-55440000D01*
X182090801Y-55503823D01*
X181726944Y-55746944D01*
X181483823Y-56110801D01*
X181398450Y-56540000D01*
X180757816Y-56540000D01*
X182233296Y-55064521D01*
X182411661Y-55100000D01*
X183428339Y-55100000D01*
X183749199Y-55036177D01*
X184113056Y-54793056D01*
X184275461Y-54550000D01*
X204972184Y-54550000D01*
X206475503Y-56053320D01*
G36*
X209900000Y-57822184D02*
X209204333Y-57126517D01*
X209336177Y-56929199D01*
X209421550Y-56500000D01*
X209336177Y-56070801D01*
X209093056Y-55706944D01*
X208729199Y-55463823D01*
X208408339Y-55400000D01*
X207391661Y-55400000D01*
X207380114Y-55402297D01*
X206779056Y-54801240D01*
X207070801Y-54996177D01*
X207391661Y-55060000D01*
X208408339Y-55060000D01*
X208729199Y-54996177D01*
X209093056Y-54753056D01*
X209336177Y-54389199D01*
X209421550Y-53960000D01*
X209336177Y-53530801D01*
X209093056Y-53166944D01*
X208729199Y-52923823D01*
X208408339Y-52860000D01*
X207391661Y-52860000D01*
X207070801Y-52923823D01*
X206706944Y-53166944D01*
X206463823Y-53530801D01*
X206378450Y-53960000D01*
X206463823Y-54389199D01*
X206658760Y-54680944D01*
X205627216Y-53649400D01*
X205596528Y-53603472D01*
X205414599Y-53481911D01*
X205254170Y-53450000D01*
X205254169Y-53450000D01*
X205200000Y-53439225D01*
X205145831Y-53450000D01*
X184275461Y-53450000D01*
X184113056Y-53206944D01*
X183749199Y-52963823D01*
X183428339Y-52900000D01*
X182411661Y-52900000D01*
X182090801Y-52963823D01*
X181726944Y-53206944D01*
X181483823Y-53570801D01*
X181398450Y-54000000D01*
X181455479Y-54286704D01*
X180100000Y-55642183D01*
X180100000Y-51741414D01*
X184700000Y-51741414D01*
X184700000Y-52258586D01*
X184897913Y-52736391D01*
X185263609Y-53102087D01*
X185741414Y-53300000D01*
X186258586Y-53300000D01*
X186736391Y-53102087D01*
X187102087Y-52736391D01*
X187300000Y-52258586D01*
X187300000Y-51741414D01*
X187102087Y-51263609D01*
X186736391Y-50897913D01*
X186258586Y-50700000D01*
X185741414Y-50700000D01*
X185263609Y-50897913D01*
X184897913Y-51263609D01*
X184700000Y-51741414D01*
X180100000Y-51741414D01*
X180100000Y-50375000D01*
X209900000Y-50375000D01*
X209900000Y-57822184D01*
X209900000Y-57822184D01*
G37*
X209900000Y-57822184D02*
X209204333Y-57126517D01*
X209336177Y-56929199D01*
X209421550Y-56500000D01*
X209336177Y-56070801D01*
X209093056Y-55706944D01*
X208729199Y-55463823D01*
X208408339Y-55400000D01*
X207391661Y-55400000D01*
X207380114Y-55402297D01*
X206779056Y-54801240D01*
X207070801Y-54996177D01*
X207391661Y-55060000D01*
X208408339Y-55060000D01*
X208729199Y-54996177D01*
X209093056Y-54753056D01*
X209336177Y-54389199D01*
X209421550Y-53960000D01*
X209336177Y-53530801D01*
X209093056Y-53166944D01*
X208729199Y-52923823D01*
X208408339Y-52860000D01*
X207391661Y-52860000D01*
X207070801Y-52923823D01*
X206706944Y-53166944D01*
X206463823Y-53530801D01*
X206378450Y-53960000D01*
X206463823Y-54389199D01*
X206658760Y-54680944D01*
X205627216Y-53649400D01*
X205596528Y-53603472D01*
X205414599Y-53481911D01*
X205254170Y-53450000D01*
X205254169Y-53450000D01*
X205200000Y-53439225D01*
X205145831Y-53450000D01*
X184275461Y-53450000D01*
X184113056Y-53206944D01*
X183749199Y-52963823D01*
X183428339Y-52900000D01*
X182411661Y-52900000D01*
X182090801Y-52963823D01*
X181726944Y-53206944D01*
X181483823Y-53570801D01*
X181398450Y-54000000D01*
X181455479Y-54286704D01*
X180100000Y-55642183D01*
X180100000Y-51741414D01*
X184700000Y-51741414D01*
X184700000Y-52258586D01*
X184897913Y-52736391D01*
X185263609Y-53102087D01*
X185741414Y-53300000D01*
X186258586Y-53300000D01*
X186736391Y-53102087D01*
X187102087Y-52736391D01*
X187300000Y-52258586D01*
X187300000Y-51741414D01*
X187102087Y-51263609D01*
X186736391Y-50897913D01*
X186258586Y-50700000D01*
X185741414Y-50700000D01*
X185263609Y-50897913D01*
X184897913Y-51263609D01*
X184700000Y-51741414D01*
X180100000Y-51741414D01*
X180100000Y-50375000D01*
X209900000Y-50375000D01*
X209900000Y-57822184D01*
G04 #@! TD*
M02*
