G04 #@! TF.GenerationSoftware,KiCad,Pcbnew,(5.0.2)-1*
G04 #@! TF.CreationDate,2019-05-12T18:02:06+02:00*
G04 #@! TF.ProjectId,SafetySystem,53616665-7479-4537-9973-74656d2e6b69,rev?*
G04 #@! TF.SameCoordinates,Original*
G04 #@! TF.FileFunction,Legend,Top*
G04 #@! TF.FilePolarity,Positive*
%FSLAX46Y46*%
G04 Gerber Fmt 4.6, Leading zero omitted, Abs format (unit mm)*
G04 Created by KiCad (PCBNEW (5.0.2)-1) date 12.05.2019 18:02:06*
%MOMM*%
%LPD*%
G01*
G04 APERTURE LIST*
%ADD10C,0.200000*%
%ADD11C,0.250000*%
%ADD12C,0.300000*%
%ADD13C,0.010000*%
%ADD14C,0.150000*%
%ADD15C,0.120000*%
%ADD16C,0.100000*%
G04 APERTURE END LIST*
D10*
X206538095Y-59054761D02*
X206680952Y-59102380D01*
X206919047Y-59102380D01*
X207014285Y-59054761D01*
X207061904Y-59007142D01*
X207109523Y-58911904D01*
X207109523Y-58816666D01*
X207061904Y-58721428D01*
X207014285Y-58673809D01*
X206919047Y-58626190D01*
X206728571Y-58578571D01*
X206633333Y-58530952D01*
X206585714Y-58483333D01*
X206538095Y-58388095D01*
X206538095Y-58292857D01*
X206585714Y-58197619D01*
X206633333Y-58150000D01*
X206728571Y-58102380D01*
X206966666Y-58102380D01*
X207109523Y-58150000D01*
X207966666Y-59102380D02*
X207966666Y-58578571D01*
X207919047Y-58483333D01*
X207823809Y-58435714D01*
X207633333Y-58435714D01*
X207538095Y-58483333D01*
X207966666Y-59054761D02*
X207871428Y-59102380D01*
X207633333Y-59102380D01*
X207538095Y-59054761D01*
X207490476Y-58959523D01*
X207490476Y-58864285D01*
X207538095Y-58769047D01*
X207633333Y-58721428D01*
X207871428Y-58721428D01*
X207966666Y-58673809D01*
X208300000Y-58435714D02*
X208680952Y-58435714D01*
X208442857Y-59102380D02*
X208442857Y-58245238D01*
X208490476Y-58150000D01*
X208585714Y-58102380D01*
X208680952Y-58102380D01*
X209395238Y-59054761D02*
X209300000Y-59102380D01*
X209109523Y-59102380D01*
X209014285Y-59054761D01*
X208966666Y-58959523D01*
X208966666Y-58578571D01*
X209014285Y-58483333D01*
X209109523Y-58435714D01*
X209300000Y-58435714D01*
X209395238Y-58483333D01*
X209442857Y-58578571D01*
X209442857Y-58673809D01*
X208966666Y-58769047D01*
X209728571Y-58435714D02*
X210109523Y-58435714D01*
X209871428Y-58102380D02*
X209871428Y-58959523D01*
X209919047Y-59054761D01*
X210014285Y-59102380D01*
X210109523Y-59102380D01*
X210347619Y-58435714D02*
X210585714Y-59102380D01*
X210823809Y-58435714D02*
X210585714Y-59102380D01*
X210490476Y-59340476D01*
X210442857Y-59388095D01*
X210347619Y-59435714D01*
X211157142Y-59054761D02*
X211300000Y-59102380D01*
X211538095Y-59102380D01*
X211633333Y-59054761D01*
X211680952Y-59007142D01*
X211728571Y-58911904D01*
X211728571Y-58816666D01*
X211680952Y-58721428D01*
X211633333Y-58673809D01*
X211538095Y-58626190D01*
X211347619Y-58578571D01*
X211252380Y-58530952D01*
X211204761Y-58483333D01*
X211157142Y-58388095D01*
X211157142Y-58292857D01*
X211204761Y-58197619D01*
X211252380Y-58150000D01*
X211347619Y-58102380D01*
X211585714Y-58102380D01*
X211728571Y-58150000D01*
X212061904Y-58435714D02*
X212300000Y-59102380D01*
X212538095Y-58435714D02*
X212300000Y-59102380D01*
X212204761Y-59340476D01*
X212157142Y-59388095D01*
X212061904Y-59435714D01*
X212871428Y-59054761D02*
X212966666Y-59102380D01*
X213157142Y-59102380D01*
X213252380Y-59054761D01*
X213300000Y-58959523D01*
X213300000Y-58911904D01*
X213252380Y-58816666D01*
X213157142Y-58769047D01*
X213014285Y-58769047D01*
X212919047Y-58721428D01*
X212871428Y-58626190D01*
X212871428Y-58578571D01*
X212919047Y-58483333D01*
X213014285Y-58435714D01*
X213157142Y-58435714D01*
X213252380Y-58483333D01*
X213585714Y-58435714D02*
X213966666Y-58435714D01*
X213728571Y-58102380D02*
X213728571Y-58959523D01*
X213776190Y-59054761D01*
X213871428Y-59102380D01*
X213966666Y-59102380D01*
X214680952Y-59054761D02*
X214585714Y-59102380D01*
X214395238Y-59102380D01*
X214300000Y-59054761D01*
X214252380Y-58959523D01*
X214252380Y-58578571D01*
X214300000Y-58483333D01*
X214395238Y-58435714D01*
X214585714Y-58435714D01*
X214680952Y-58483333D01*
X214728571Y-58578571D01*
X214728571Y-58673809D01*
X214252380Y-58769047D01*
X215157142Y-59102380D02*
X215157142Y-58435714D01*
X215157142Y-58530952D02*
X215204761Y-58483333D01*
X215300000Y-58435714D01*
X215442857Y-58435714D01*
X215538095Y-58483333D01*
X215585714Y-58578571D01*
X215585714Y-59102380D01*
X215585714Y-58578571D02*
X215633333Y-58483333D01*
X215728571Y-58435714D01*
X215871428Y-58435714D01*
X215966666Y-58483333D01*
X216014285Y-58578571D01*
X216014285Y-59102380D01*
X205204761Y-60135714D02*
X205442857Y-60802380D01*
X205680952Y-60135714D01*
X206585714Y-60802380D02*
X206014285Y-60802380D01*
X206300000Y-60802380D02*
X206300000Y-59802380D01*
X206204761Y-59945238D01*
X206109523Y-60040476D01*
X206014285Y-60088095D01*
X207014285Y-60707142D02*
X207061904Y-60754761D01*
X207014285Y-60802380D01*
X206966666Y-60754761D01*
X207014285Y-60707142D01*
X207014285Y-60802380D01*
X207680952Y-59802380D02*
X207776190Y-59802380D01*
X207871428Y-59850000D01*
X207919047Y-59897619D01*
X207966666Y-59992857D01*
X208014285Y-60183333D01*
X208014285Y-60421428D01*
X207966666Y-60611904D01*
X207919047Y-60707142D01*
X207871428Y-60754761D01*
X207776190Y-60802380D01*
X207680952Y-60802380D01*
X207585714Y-60754761D01*
X207538095Y-60707142D01*
X207490476Y-60611904D01*
X207442857Y-60421428D01*
X207442857Y-60183333D01*
X207490476Y-59992857D01*
X207538095Y-59897619D01*
X207585714Y-59850000D01*
X207680952Y-59802380D01*
X209728571Y-60802380D02*
X209157142Y-60802380D01*
X209442857Y-60802380D02*
X209442857Y-59802380D01*
X209347619Y-59945238D01*
X209252380Y-60040476D01*
X209157142Y-60088095D01*
X210109523Y-59897619D02*
X210157142Y-59850000D01*
X210252380Y-59802380D01*
X210490476Y-59802380D01*
X210585714Y-59850000D01*
X210633333Y-59897619D01*
X210680952Y-59992857D01*
X210680952Y-60088095D01*
X210633333Y-60230952D01*
X210061904Y-60802380D01*
X210680952Y-60802380D01*
X211109523Y-60707142D02*
X211157142Y-60754761D01*
X211109523Y-60802380D01*
X211061904Y-60754761D01*
X211109523Y-60707142D01*
X211109523Y-60802380D01*
X211776190Y-59802380D02*
X211871428Y-59802380D01*
X211966666Y-59850000D01*
X212014285Y-59897619D01*
X212061904Y-59992857D01*
X212109523Y-60183333D01*
X212109523Y-60421428D01*
X212061904Y-60611904D01*
X212014285Y-60707142D01*
X211966666Y-60754761D01*
X211871428Y-60802380D01*
X211776190Y-60802380D01*
X211680952Y-60754761D01*
X211633333Y-60707142D01*
X211585714Y-60611904D01*
X211538095Y-60421428D01*
X211538095Y-60183333D01*
X211585714Y-59992857D01*
X211633333Y-59897619D01*
X211680952Y-59850000D01*
X211776190Y-59802380D01*
X213014285Y-59802380D02*
X212538095Y-59802380D01*
X212490476Y-60278571D01*
X212538095Y-60230952D01*
X212633333Y-60183333D01*
X212871428Y-60183333D01*
X212966666Y-60230952D01*
X213014285Y-60278571D01*
X213061904Y-60373809D01*
X213061904Y-60611904D01*
X213014285Y-60707142D01*
X212966666Y-60754761D01*
X212871428Y-60802380D01*
X212633333Y-60802380D01*
X212538095Y-60754761D01*
X212490476Y-60707142D01*
X213490476Y-60707142D02*
X213538095Y-60754761D01*
X213490476Y-60802380D01*
X213442857Y-60754761D01*
X213490476Y-60707142D01*
X213490476Y-60802380D01*
X213919047Y-59897619D02*
X213966666Y-59850000D01*
X214061904Y-59802380D01*
X214300000Y-59802380D01*
X214395238Y-59850000D01*
X214442857Y-59897619D01*
X214490476Y-59992857D01*
X214490476Y-60088095D01*
X214442857Y-60230952D01*
X213871428Y-60802380D01*
X214490476Y-60802380D01*
X215109523Y-59802380D02*
X215204761Y-59802380D01*
X215300000Y-59850000D01*
X215347619Y-59897619D01*
X215395238Y-59992857D01*
X215442857Y-60183333D01*
X215442857Y-60421428D01*
X215395238Y-60611904D01*
X215347619Y-60707142D01*
X215300000Y-60754761D01*
X215204761Y-60802380D01*
X215109523Y-60802380D01*
X215014285Y-60754761D01*
X214966666Y-60707142D01*
X214919047Y-60611904D01*
X214871428Y-60421428D01*
X214871428Y-60183333D01*
X214919047Y-59992857D01*
X214966666Y-59897619D01*
X215014285Y-59850000D01*
X215109523Y-59802380D01*
X216395238Y-60802380D02*
X215823809Y-60802380D01*
X216109523Y-60802380D02*
X216109523Y-59802380D01*
X216014285Y-59945238D01*
X215919047Y-60040476D01*
X215823809Y-60088095D01*
X216871428Y-60802380D02*
X217061904Y-60802380D01*
X217157142Y-60754761D01*
X217204761Y-60707142D01*
X217300000Y-60564285D01*
X217347619Y-60373809D01*
X217347619Y-59992857D01*
X217300000Y-59897619D01*
X217252380Y-59850000D01*
X217157142Y-59802380D01*
X216966666Y-59802380D01*
X216871428Y-59850000D01*
X216823809Y-59897619D01*
X216776190Y-59992857D01*
X216776190Y-60230952D01*
X216823809Y-60326190D01*
X216871428Y-60373809D01*
X216966666Y-60421428D01*
X217157142Y-60421428D01*
X217252380Y-60373809D01*
X217300000Y-60326190D01*
X217347619Y-60230952D01*
D11*
X189052380Y-74952380D02*
X188052380Y-74952380D01*
X189052380Y-74476190D02*
X188052380Y-74476190D01*
X189052380Y-73904761D01*
X188052380Y-73904761D01*
X188052380Y-73571428D02*
X189052380Y-73238095D01*
X188052380Y-72904761D01*
X188952380Y-87547619D02*
X188476190Y-87880952D01*
X188952380Y-88119047D02*
X187952380Y-88119047D01*
X187952380Y-87738095D01*
X188000000Y-87642857D01*
X188047619Y-87595238D01*
X188142857Y-87547619D01*
X188285714Y-87547619D01*
X188380952Y-87595238D01*
X188428571Y-87642857D01*
X188476190Y-87738095D01*
X188476190Y-88119047D01*
X188904761Y-87166666D02*
X188952380Y-87023809D01*
X188952380Y-86785714D01*
X188904761Y-86690476D01*
X188857142Y-86642857D01*
X188761904Y-86595238D01*
X188666666Y-86595238D01*
X188571428Y-86642857D01*
X188523809Y-86690476D01*
X188476190Y-86785714D01*
X188428571Y-86976190D01*
X188380952Y-87071428D01*
X188333333Y-87119047D01*
X188238095Y-87166666D01*
X188142857Y-87166666D01*
X188047619Y-87119047D01*
X188000000Y-87071428D01*
X187952380Y-86976190D01*
X187952380Y-86738095D01*
X188000000Y-86595238D01*
X187952380Y-86309523D02*
X187952380Y-85738095D01*
X188952380Y-86023809D02*
X187952380Y-86023809D01*
D12*
X170909523Y-108219047D02*
X171004761Y-107933333D01*
X171004761Y-107457142D01*
X170909523Y-107266666D01*
X170814285Y-107171428D01*
X170623809Y-107076190D01*
X170433333Y-107076190D01*
X170242857Y-107171428D01*
X170147619Y-107266666D01*
X170052380Y-107457142D01*
X169957142Y-107838095D01*
X169861904Y-108028571D01*
X169766666Y-108123809D01*
X169576190Y-108219047D01*
X169385714Y-108219047D01*
X169195238Y-108123809D01*
X169100000Y-108028571D01*
X169004761Y-107838095D01*
X169004761Y-107361904D01*
X169100000Y-107076190D01*
X169957142Y-106219047D02*
X169957142Y-105552380D01*
X171004761Y-105266666D02*
X171004761Y-106219047D01*
X169004761Y-106219047D01*
X169004761Y-105266666D01*
X171004761Y-104409523D02*
X169004761Y-104409523D01*
X170433333Y-103742857D01*
X169004761Y-103076190D01*
X171004761Y-103076190D01*
D13*
G04 #@! TO.C,G1*
G36*
X220352401Y-104915340D02*
X220359881Y-104837679D01*
X220372896Y-104769625D01*
X220373579Y-104767004D01*
X220382598Y-104736501D01*
X220395444Y-104697763D01*
X220410644Y-104654745D01*
X220426725Y-104611404D01*
X220442215Y-104571695D01*
X220455639Y-104539572D01*
X220465526Y-104518993D01*
X220466633Y-104517114D01*
X220474649Y-104512309D01*
X220492930Y-104509385D01*
X220523579Y-104508183D01*
X220568699Y-104508541D01*
X220576502Y-104508711D01*
X220679703Y-104511100D01*
X220636108Y-104570367D01*
X220588262Y-104644478D01*
X220547584Y-104725449D01*
X220517267Y-104806642D01*
X220510152Y-104832071D01*
X220499105Y-104892176D01*
X220493719Y-104959232D01*
X220494075Y-105026870D01*
X220500253Y-105088722D01*
X220506546Y-105119478D01*
X220535359Y-105198935D01*
X220578031Y-105269626D01*
X220633617Y-105331010D01*
X220701176Y-105382547D01*
X220779765Y-105423698D01*
X220868440Y-105453922D01*
X220966261Y-105472680D01*
X221072283Y-105479432D01*
X221132367Y-105477909D01*
X221241294Y-105465642D01*
X221339192Y-105441643D01*
X221425633Y-105406223D01*
X221500187Y-105359691D01*
X221562427Y-105302357D01*
X221611923Y-105234533D01*
X221648247Y-105156528D01*
X221666687Y-105091067D01*
X221674555Y-105031995D01*
X221676032Y-104964139D01*
X221671346Y-104894301D01*
X221660722Y-104829285D01*
X221657507Y-104815900D01*
X221638296Y-104758703D01*
X221609532Y-104695579D01*
X221574081Y-104632117D01*
X221534807Y-104573903D01*
X221530523Y-104568250D01*
X221483424Y-104506867D01*
X221692893Y-104506867D01*
X221719031Y-104564017D01*
X221746949Y-104627488D01*
X221768257Y-104682156D01*
X221785029Y-104733755D01*
X221797773Y-104781537D01*
X221806580Y-104828425D01*
X221813257Y-104885425D01*
X221817529Y-104947073D01*
X221819121Y-105007906D01*
X221817758Y-105062461D01*
X221813869Y-105101109D01*
X221794741Y-105193725D01*
X221768047Y-105273898D01*
X221732106Y-105345064D01*
X221685239Y-105410656D01*
X221636560Y-105463600D01*
X221574887Y-105519303D01*
X221518512Y-105559053D01*
X221504755Y-105566754D01*
X221418268Y-105604154D01*
X221321183Y-105631749D01*
X221216837Y-105649349D01*
X221108571Y-105656767D01*
X220999722Y-105653811D01*
X220893630Y-105640295D01*
X220793633Y-105616028D01*
X220770202Y-105608338D01*
X220674846Y-105566774D01*
X220590252Y-105512401D01*
X220517142Y-105446043D01*
X220456236Y-105368525D01*
X220408254Y-105280670D01*
X220373915Y-105183303D01*
X220364631Y-105144160D01*
X220354629Y-105074762D01*
X220350601Y-104996428D01*
X220352401Y-104915340D01*
X220352401Y-104915340D01*
G37*
X220352401Y-104915340D02*
X220359881Y-104837679D01*
X220372896Y-104769625D01*
X220373579Y-104767004D01*
X220382598Y-104736501D01*
X220395444Y-104697763D01*
X220410644Y-104654745D01*
X220426725Y-104611404D01*
X220442215Y-104571695D01*
X220455639Y-104539572D01*
X220465526Y-104518993D01*
X220466633Y-104517114D01*
X220474649Y-104512309D01*
X220492930Y-104509385D01*
X220523579Y-104508183D01*
X220568699Y-104508541D01*
X220576502Y-104508711D01*
X220679703Y-104511100D01*
X220636108Y-104570367D01*
X220588262Y-104644478D01*
X220547584Y-104725449D01*
X220517267Y-104806642D01*
X220510152Y-104832071D01*
X220499105Y-104892176D01*
X220493719Y-104959232D01*
X220494075Y-105026870D01*
X220500253Y-105088722D01*
X220506546Y-105119478D01*
X220535359Y-105198935D01*
X220578031Y-105269626D01*
X220633617Y-105331010D01*
X220701176Y-105382547D01*
X220779765Y-105423698D01*
X220868440Y-105453922D01*
X220966261Y-105472680D01*
X221072283Y-105479432D01*
X221132367Y-105477909D01*
X221241294Y-105465642D01*
X221339192Y-105441643D01*
X221425633Y-105406223D01*
X221500187Y-105359691D01*
X221562427Y-105302357D01*
X221611923Y-105234533D01*
X221648247Y-105156528D01*
X221666687Y-105091067D01*
X221674555Y-105031995D01*
X221676032Y-104964139D01*
X221671346Y-104894301D01*
X221660722Y-104829285D01*
X221657507Y-104815900D01*
X221638296Y-104758703D01*
X221609532Y-104695579D01*
X221574081Y-104632117D01*
X221534807Y-104573903D01*
X221530523Y-104568250D01*
X221483424Y-104506867D01*
X221692893Y-104506867D01*
X221719031Y-104564017D01*
X221746949Y-104627488D01*
X221768257Y-104682156D01*
X221785029Y-104733755D01*
X221797773Y-104781537D01*
X221806580Y-104828425D01*
X221813257Y-104885425D01*
X221817529Y-104947073D01*
X221819121Y-105007906D01*
X221817758Y-105062461D01*
X221813869Y-105101109D01*
X221794741Y-105193725D01*
X221768047Y-105273898D01*
X221732106Y-105345064D01*
X221685239Y-105410656D01*
X221636560Y-105463600D01*
X221574887Y-105519303D01*
X221518512Y-105559053D01*
X221504755Y-105566754D01*
X221418268Y-105604154D01*
X221321183Y-105631749D01*
X221216837Y-105649349D01*
X221108571Y-105656767D01*
X220999722Y-105653811D01*
X220893630Y-105640295D01*
X220793633Y-105616028D01*
X220770202Y-105608338D01*
X220674846Y-105566774D01*
X220590252Y-105512401D01*
X220517142Y-105446043D01*
X220456236Y-105368525D01*
X220408254Y-105280670D01*
X220373915Y-105183303D01*
X220364631Y-105144160D01*
X220354629Y-105074762D01*
X220350601Y-104996428D01*
X220352401Y-104915340D01*
G36*
X218669071Y-102637300D02*
X218682869Y-102489674D01*
X218709795Y-102344788D01*
X218749695Y-102205801D01*
X218750108Y-102204599D01*
X218772869Y-102145589D01*
X218802846Y-102078243D01*
X218837596Y-102007327D01*
X218874673Y-101937603D01*
X218911632Y-101873834D01*
X218946028Y-101820785D01*
X218950025Y-101815145D01*
X219029880Y-101714113D01*
X219121356Y-101616288D01*
X219220504Y-101525392D01*
X219323380Y-101445149D01*
X219388233Y-101401800D01*
X219528563Y-101324003D01*
X219673934Y-101261889D01*
X219823185Y-101215384D01*
X219975154Y-101184416D01*
X220128680Y-101168910D01*
X220282602Y-101168793D01*
X220435758Y-101183993D01*
X220586987Y-101214434D01*
X220735127Y-101260045D01*
X220879018Y-101320751D01*
X221017497Y-101396478D01*
X221149404Y-101487155D01*
X221185297Y-101515453D01*
X221241540Y-101564033D01*
X221298763Y-101618637D01*
X221352969Y-101675145D01*
X221400164Y-101729437D01*
X221428862Y-101766649D01*
X221446634Y-101790287D01*
X221460994Y-101807302D01*
X221468869Y-101814056D01*
X221468917Y-101814061D01*
X221471211Y-101806255D01*
X221473136Y-101784551D01*
X221474527Y-101751981D01*
X221475219Y-101711579D01*
X221475267Y-101697345D01*
X221475525Y-101649862D01*
X221476477Y-101616868D01*
X221478388Y-101595926D01*
X221481520Y-101584594D01*
X221486140Y-101580436D01*
X221487967Y-101580222D01*
X221494949Y-101583776D01*
X221498903Y-101596523D01*
X221500518Y-101621598D01*
X221500667Y-101637883D01*
X221500667Y-101695543D01*
X221650841Y-101697855D01*
X221705604Y-101698888D01*
X221745663Y-101700203D01*
X221773245Y-101702024D01*
X221790580Y-101704577D01*
X221799896Y-101708087D01*
X221803422Y-101712779D01*
X221803534Y-101713280D01*
X221802484Y-101728332D01*
X221800115Y-101732330D01*
X221790093Y-101734269D01*
X221766009Y-101735942D01*
X221730736Y-101737239D01*
X221687143Y-101738047D01*
X221647422Y-101738267D01*
X221500667Y-101738267D01*
X221500667Y-101876533D01*
X220349200Y-101870991D01*
X219197733Y-101865448D01*
X219197733Y-102314000D01*
X219538516Y-102315975D01*
X219615412Y-102316416D01*
X219689140Y-102316830D01*
X219757493Y-102317205D01*
X219818261Y-102317529D01*
X219869237Y-102317792D01*
X219908211Y-102317980D01*
X219932975Y-102318082D01*
X219936464Y-102318092D01*
X219993629Y-102318234D01*
X219993614Y-102709817D01*
X219993600Y-103101400D01*
X218717143Y-103101400D01*
X218707991Y-103065051D01*
X218681477Y-102928146D01*
X218668556Y-102784510D01*
X218669071Y-102637300D01*
X218669071Y-102637300D01*
G37*
X218669071Y-102637300D02*
X218682869Y-102489674D01*
X218709795Y-102344788D01*
X218749695Y-102205801D01*
X218750108Y-102204599D01*
X218772869Y-102145589D01*
X218802846Y-102078243D01*
X218837596Y-102007327D01*
X218874673Y-101937603D01*
X218911632Y-101873834D01*
X218946028Y-101820785D01*
X218950025Y-101815145D01*
X219029880Y-101714113D01*
X219121356Y-101616288D01*
X219220504Y-101525392D01*
X219323380Y-101445149D01*
X219388233Y-101401800D01*
X219528563Y-101324003D01*
X219673934Y-101261889D01*
X219823185Y-101215384D01*
X219975154Y-101184416D01*
X220128680Y-101168910D01*
X220282602Y-101168793D01*
X220435758Y-101183993D01*
X220586987Y-101214434D01*
X220735127Y-101260045D01*
X220879018Y-101320751D01*
X221017497Y-101396478D01*
X221149404Y-101487155D01*
X221185297Y-101515453D01*
X221241540Y-101564033D01*
X221298763Y-101618637D01*
X221352969Y-101675145D01*
X221400164Y-101729437D01*
X221428862Y-101766649D01*
X221446634Y-101790287D01*
X221460994Y-101807302D01*
X221468869Y-101814056D01*
X221468917Y-101814061D01*
X221471211Y-101806255D01*
X221473136Y-101784551D01*
X221474527Y-101751981D01*
X221475219Y-101711579D01*
X221475267Y-101697345D01*
X221475525Y-101649862D01*
X221476477Y-101616868D01*
X221478388Y-101595926D01*
X221481520Y-101584594D01*
X221486140Y-101580436D01*
X221487967Y-101580222D01*
X221494949Y-101583776D01*
X221498903Y-101596523D01*
X221500518Y-101621598D01*
X221500667Y-101637883D01*
X221500667Y-101695543D01*
X221650841Y-101697855D01*
X221705604Y-101698888D01*
X221745663Y-101700203D01*
X221773245Y-101702024D01*
X221790580Y-101704577D01*
X221799896Y-101708087D01*
X221803422Y-101712779D01*
X221803534Y-101713280D01*
X221802484Y-101728332D01*
X221800115Y-101732330D01*
X221790093Y-101734269D01*
X221766009Y-101735942D01*
X221730736Y-101737239D01*
X221687143Y-101738047D01*
X221647422Y-101738267D01*
X221500667Y-101738267D01*
X221500667Y-101876533D01*
X220349200Y-101870991D01*
X219197733Y-101865448D01*
X219197733Y-102314000D01*
X219538516Y-102315975D01*
X219615412Y-102316416D01*
X219689140Y-102316830D01*
X219757493Y-102317205D01*
X219818261Y-102317529D01*
X219869237Y-102317792D01*
X219908211Y-102317980D01*
X219932975Y-102318082D01*
X219936464Y-102318092D01*
X219993629Y-102318234D01*
X219993614Y-102709817D01*
X219993600Y-103101400D01*
X218717143Y-103101400D01*
X218707991Y-103065051D01*
X218681477Y-102928146D01*
X218668556Y-102784510D01*
X218669071Y-102637300D01*
G36*
X221475566Y-101375935D02*
X221476669Y-101345483D01*
X221478881Y-101326863D01*
X221482508Y-101317529D01*
X221487854Y-101314934D01*
X221487967Y-101314934D01*
X221493766Y-101317659D01*
X221497539Y-101327658D01*
X221499675Y-101347663D01*
X221500566Y-101380409D01*
X221500667Y-101403834D01*
X221500667Y-101492734D01*
X221610733Y-101492734D01*
X221610733Y-101408067D01*
X221611153Y-101368585D01*
X221612690Y-101343237D01*
X221615764Y-101329237D01*
X221620790Y-101323801D01*
X221623433Y-101323400D01*
X221629355Y-101326198D01*
X221633158Y-101336448D01*
X221635258Y-101356936D01*
X221636073Y-101390447D01*
X221636133Y-101408067D01*
X221636133Y-101492734D01*
X221771600Y-101492734D01*
X221771600Y-101403213D01*
X221771852Y-101363331D01*
X221772931Y-101337547D01*
X221775321Y-101323027D01*
X221779507Y-101316939D01*
X221785972Y-101316451D01*
X221786417Y-101316532D01*
X221792734Y-101319579D01*
X221797132Y-101327728D01*
X221800062Y-101343765D01*
X221801972Y-101370474D01*
X221803314Y-101410643D01*
X221803610Y-101422987D01*
X221805988Y-101526600D01*
X221475267Y-101526600D01*
X221475267Y-101420767D01*
X221475566Y-101375935D01*
X221475566Y-101375935D01*
G37*
X221475566Y-101375935D02*
X221476669Y-101345483D01*
X221478881Y-101326863D01*
X221482508Y-101317529D01*
X221487854Y-101314934D01*
X221487967Y-101314934D01*
X221493766Y-101317659D01*
X221497539Y-101327658D01*
X221499675Y-101347663D01*
X221500566Y-101380409D01*
X221500667Y-101403834D01*
X221500667Y-101492734D01*
X221610733Y-101492734D01*
X221610733Y-101408067D01*
X221611153Y-101368585D01*
X221612690Y-101343237D01*
X221615764Y-101329237D01*
X221620790Y-101323801D01*
X221623433Y-101323400D01*
X221629355Y-101326198D01*
X221633158Y-101336448D01*
X221635258Y-101356936D01*
X221636073Y-101390447D01*
X221636133Y-101408067D01*
X221636133Y-101492734D01*
X221771600Y-101492734D01*
X221771600Y-101403213D01*
X221771852Y-101363331D01*
X221772931Y-101337547D01*
X221775321Y-101323027D01*
X221779507Y-101316939D01*
X221785972Y-101316451D01*
X221786417Y-101316532D01*
X221792734Y-101319579D01*
X221797132Y-101327728D01*
X221800062Y-101343765D01*
X221801972Y-101370474D01*
X221803314Y-101410643D01*
X221803610Y-101422987D01*
X221805988Y-101526600D01*
X221475267Y-101526600D01*
X221475267Y-101420767D01*
X221475566Y-101375935D01*
G36*
X221633115Y-101056553D02*
X221681888Y-101038363D01*
X221725277Y-101022157D01*
X221760770Y-101008875D01*
X221785851Y-100999458D01*
X221798005Y-100994849D01*
X221798605Y-100994611D01*
X221803832Y-100999472D01*
X221805467Y-101011597D01*
X221802760Y-101023863D01*
X221792273Y-101033696D01*
X221770449Y-101043821D01*
X221756783Y-101048911D01*
X221708100Y-101066417D01*
X221708100Y-101215720D01*
X221756783Y-101233102D01*
X221786836Y-101245663D01*
X221802249Y-101257102D01*
X221805467Y-101265775D01*
X221800660Y-101278357D01*
X221794883Y-101280596D01*
X221783956Y-101277594D01*
X221759841Y-101269518D01*
X221725182Y-101257300D01*
X221682623Y-101241875D01*
X221671123Y-101237618D01*
X221671123Y-101202144D01*
X221675566Y-101196846D01*
X221677748Y-101181794D01*
X221678436Y-101153911D01*
X221678467Y-101141367D01*
X221678102Y-101108570D01*
X221676496Y-101089620D01*
X221672881Y-101081437D01*
X221666489Y-101080939D01*
X221663650Y-101081932D01*
X221649217Y-101087409D01*
X221623531Y-101096937D01*
X221591258Y-101108789D01*
X221578535Y-101113434D01*
X221547678Y-101125078D01*
X221524382Y-101134629D01*
X221512059Y-101140650D01*
X221511020Y-101141843D01*
X221519691Y-101145862D01*
X221540406Y-101154174D01*
X221569310Y-101165247D01*
X221581319Y-101169742D01*
X221614207Y-101182022D01*
X221642258Y-101192578D01*
X221660682Y-101199605D01*
X221663650Y-101200768D01*
X221671123Y-101202144D01*
X221671123Y-101237618D01*
X221634808Y-101224174D01*
X221631900Y-101223086D01*
X221579187Y-101203262D01*
X221540231Y-101188178D01*
X221512907Y-101176703D01*
X221495087Y-101167709D01*
X221484644Y-101160068D01*
X221479453Y-101152650D01*
X221477386Y-101144327D01*
X221476994Y-101140859D01*
X221474487Y-101115673D01*
X221633115Y-101056553D01*
X221633115Y-101056553D01*
G37*
X221633115Y-101056553D02*
X221681888Y-101038363D01*
X221725277Y-101022157D01*
X221760770Y-101008875D01*
X221785851Y-100999458D01*
X221798005Y-100994849D01*
X221798605Y-100994611D01*
X221803832Y-100999472D01*
X221805467Y-101011597D01*
X221802760Y-101023863D01*
X221792273Y-101033696D01*
X221770449Y-101043821D01*
X221756783Y-101048911D01*
X221708100Y-101066417D01*
X221708100Y-101215720D01*
X221756783Y-101233102D01*
X221786836Y-101245663D01*
X221802249Y-101257102D01*
X221805467Y-101265775D01*
X221800660Y-101278357D01*
X221794883Y-101280596D01*
X221783956Y-101277594D01*
X221759841Y-101269518D01*
X221725182Y-101257300D01*
X221682623Y-101241875D01*
X221671123Y-101237618D01*
X221671123Y-101202144D01*
X221675566Y-101196846D01*
X221677748Y-101181794D01*
X221678436Y-101153911D01*
X221678467Y-101141367D01*
X221678102Y-101108570D01*
X221676496Y-101089620D01*
X221672881Y-101081437D01*
X221666489Y-101080939D01*
X221663650Y-101081932D01*
X221649217Y-101087409D01*
X221623531Y-101096937D01*
X221591258Y-101108789D01*
X221578535Y-101113434D01*
X221547678Y-101125078D01*
X221524382Y-101134629D01*
X221512059Y-101140650D01*
X221511020Y-101141843D01*
X221519691Y-101145862D01*
X221540406Y-101154174D01*
X221569310Y-101165247D01*
X221581319Y-101169742D01*
X221614207Y-101182022D01*
X221642258Y-101192578D01*
X221660682Y-101199605D01*
X221663650Y-101200768D01*
X221671123Y-101202144D01*
X221671123Y-101237618D01*
X221634808Y-101224174D01*
X221631900Y-101223086D01*
X221579187Y-101203262D01*
X221540231Y-101188178D01*
X221512907Y-101176703D01*
X221495087Y-101167709D01*
X221484644Y-101160068D01*
X221479453Y-101152650D01*
X221477386Y-101144327D01*
X221476994Y-101140859D01*
X221474487Y-101115673D01*
X221633115Y-101056553D01*
G36*
X221476465Y-100908280D02*
X221481729Y-100898994D01*
X221493564Y-100889084D01*
X221514474Y-100876678D01*
X221546963Y-100859907D01*
X221568400Y-100849267D01*
X221604067Y-100831297D01*
X221633422Y-100815799D01*
X221653542Y-100804369D01*
X221661506Y-100798598D01*
X221661533Y-100798467D01*
X221654393Y-100793087D01*
X221634920Y-100781951D01*
X221606037Y-100766653D01*
X221570666Y-100748786D01*
X221568400Y-100747667D01*
X221529162Y-100728003D01*
X221502759Y-100713642D01*
X221486686Y-100702714D01*
X221478440Y-100693349D01*
X221475516Y-100683677D01*
X221475267Y-100678124D01*
X221475267Y-100654533D01*
X221640367Y-100654533D01*
X221697076Y-100654606D01*
X221739061Y-100654974D01*
X221768530Y-100655860D01*
X221787690Y-100657488D01*
X221798751Y-100660083D01*
X221803921Y-100663868D01*
X221805408Y-100669067D01*
X221805467Y-100671267D01*
X221804625Y-100677349D01*
X221800534Y-100681808D01*
X221790848Y-100684949D01*
X221773219Y-100687080D01*
X221745299Y-100688509D01*
X221704741Y-100689541D01*
X221659821Y-100690317D01*
X221514176Y-100692633D01*
X221613255Y-100740996D01*
X221650214Y-100759670D01*
X221680911Y-100776384D01*
X221702490Y-100789495D01*
X221712096Y-100797357D01*
X221712333Y-100798077D01*
X221705192Y-100804932D01*
X221685648Y-100817531D01*
X221656519Y-100834198D01*
X221620624Y-100853258D01*
X221612850Y-100857226D01*
X221513367Y-100907655D01*
X221659417Y-100908094D01*
X221712300Y-100908341D01*
X221750598Y-100908901D01*
X221776657Y-100910052D01*
X221792826Y-100912075D01*
X221801452Y-100915249D01*
X221804882Y-100919852D01*
X221805467Y-100925467D01*
X221804788Y-100931282D01*
X221801278Y-100935587D01*
X221792727Y-100938609D01*
X221776927Y-100940574D01*
X221751667Y-100941709D01*
X221714738Y-100942239D01*
X221663930Y-100942393D01*
X221640367Y-100942400D01*
X221475267Y-100942400D01*
X221475267Y-100918810D01*
X221476465Y-100908280D01*
X221476465Y-100908280D01*
G37*
X221476465Y-100908280D02*
X221481729Y-100898994D01*
X221493564Y-100889084D01*
X221514474Y-100876678D01*
X221546963Y-100859907D01*
X221568400Y-100849267D01*
X221604067Y-100831297D01*
X221633422Y-100815799D01*
X221653542Y-100804369D01*
X221661506Y-100798598D01*
X221661533Y-100798467D01*
X221654393Y-100793087D01*
X221634920Y-100781951D01*
X221606037Y-100766653D01*
X221570666Y-100748786D01*
X221568400Y-100747667D01*
X221529162Y-100728003D01*
X221502759Y-100713642D01*
X221486686Y-100702714D01*
X221478440Y-100693349D01*
X221475516Y-100683677D01*
X221475267Y-100678124D01*
X221475267Y-100654533D01*
X221640367Y-100654533D01*
X221697076Y-100654606D01*
X221739061Y-100654974D01*
X221768530Y-100655860D01*
X221787690Y-100657488D01*
X221798751Y-100660083D01*
X221803921Y-100663868D01*
X221805408Y-100669067D01*
X221805467Y-100671267D01*
X221804625Y-100677349D01*
X221800534Y-100681808D01*
X221790848Y-100684949D01*
X221773219Y-100687080D01*
X221745299Y-100688509D01*
X221704741Y-100689541D01*
X221659821Y-100690317D01*
X221514176Y-100692633D01*
X221613255Y-100740996D01*
X221650214Y-100759670D01*
X221680911Y-100776384D01*
X221702490Y-100789495D01*
X221712096Y-100797357D01*
X221712333Y-100798077D01*
X221705192Y-100804932D01*
X221685648Y-100817531D01*
X221656519Y-100834198D01*
X221620624Y-100853258D01*
X221612850Y-100857226D01*
X221513367Y-100907655D01*
X221659417Y-100908094D01*
X221712300Y-100908341D01*
X221750598Y-100908901D01*
X221776657Y-100910052D01*
X221792826Y-100912075D01*
X221801452Y-100915249D01*
X221804882Y-100919852D01*
X221805467Y-100925467D01*
X221804788Y-100931282D01*
X221801278Y-100935587D01*
X221792727Y-100938609D01*
X221776927Y-100940574D01*
X221751667Y-100941709D01*
X221714738Y-100942239D01*
X221663930Y-100942393D01*
X221640367Y-100942400D01*
X221475267Y-100942400D01*
X221475267Y-100918810D01*
X221476465Y-100908280D01*
G36*
X220518533Y-106970667D02*
X220518533Y-107478667D01*
X221797000Y-107478667D01*
X221797000Y-107656467D01*
X220518533Y-107656467D01*
X220518533Y-108160234D01*
X220374600Y-108160234D01*
X220374600Y-106970667D01*
X220518533Y-106970667D01*
X220518533Y-106970667D01*
G37*
X220518533Y-106970667D02*
X220518533Y-107478667D01*
X221797000Y-107478667D01*
X221797000Y-107656467D01*
X220518533Y-107656467D01*
X220518533Y-108160234D01*
X220374600Y-108160234D01*
X220374600Y-106970667D01*
X220518533Y-106970667D01*
G36*
X220518533Y-105844600D02*
X220518533Y-106598133D01*
X220941867Y-106598133D01*
X220941867Y-105861533D01*
X221094267Y-105861533D01*
X221094267Y-106598133D01*
X221644600Y-106598133D01*
X221644600Y-105844600D01*
X221797000Y-105844600D01*
X221797000Y-106767467D01*
X220374600Y-106767467D01*
X220374600Y-105844600D01*
X220518533Y-105844600D01*
X220518533Y-105844600D01*
G37*
X220518533Y-105844600D02*
X220518533Y-106598133D01*
X220941867Y-106598133D01*
X220941867Y-105861533D01*
X221094267Y-105861533D01*
X221094267Y-106598133D01*
X221644600Y-106598133D01*
X221644600Y-105844600D01*
X221797000Y-105844600D01*
X221797000Y-106767467D01*
X220374600Y-106767467D01*
X220374600Y-105844600D01*
X220518533Y-105844600D01*
G36*
X220068478Y-103552220D02*
X221221267Y-103550073D01*
X221221267Y-103101400D01*
X220442333Y-103101400D01*
X220442333Y-102322467D01*
X221702509Y-102322467D01*
X221715322Y-102379617D01*
X221731367Y-102467297D01*
X221742849Y-102563915D01*
X221749334Y-102663118D01*
X221750387Y-102758552D01*
X221746446Y-102834700D01*
X221723687Y-102998261D01*
X221685380Y-103155237D01*
X221631689Y-103305284D01*
X221562777Y-103448062D01*
X221478807Y-103583226D01*
X221379944Y-103710436D01*
X221275023Y-103821067D01*
X221177407Y-103908243D01*
X221077909Y-103982902D01*
X220970948Y-104049050D01*
X220916467Y-104078361D01*
X220768799Y-104145323D01*
X220617680Y-104196002D01*
X220464090Y-104230459D01*
X220309012Y-104248753D01*
X220153428Y-104250945D01*
X219998318Y-104237094D01*
X219844666Y-104207261D01*
X219693451Y-104161505D01*
X219545658Y-104099887D01*
X219402266Y-104022467D01*
X219338539Y-103981888D01*
X219274479Y-103934922D01*
X219205675Y-103877289D01*
X219136137Y-103812815D01*
X219069875Y-103745329D01*
X219010899Y-103678657D01*
X218979811Y-103639488D01*
X218915690Y-103554367D01*
X220068478Y-103552220D01*
X220068478Y-103552220D01*
G37*
X220068478Y-103552220D02*
X221221267Y-103550073D01*
X221221267Y-103101400D01*
X220442333Y-103101400D01*
X220442333Y-102322467D01*
X221702509Y-102322467D01*
X221715322Y-102379617D01*
X221731367Y-102467297D01*
X221742849Y-102563915D01*
X221749334Y-102663118D01*
X221750387Y-102758552D01*
X221746446Y-102834700D01*
X221723687Y-102998261D01*
X221685380Y-103155237D01*
X221631689Y-103305284D01*
X221562777Y-103448062D01*
X221478807Y-103583226D01*
X221379944Y-103710436D01*
X221275023Y-103821067D01*
X221177407Y-103908243D01*
X221077909Y-103982902D01*
X220970948Y-104049050D01*
X220916467Y-104078361D01*
X220768799Y-104145323D01*
X220617680Y-104196002D01*
X220464090Y-104230459D01*
X220309012Y-104248753D01*
X220153428Y-104250945D01*
X219998318Y-104237094D01*
X219844666Y-104207261D01*
X219693451Y-104161505D01*
X219545658Y-104099887D01*
X219402266Y-104022467D01*
X219338539Y-103981888D01*
X219274479Y-103934922D01*
X219205675Y-103877289D01*
X219136137Y-103812815D01*
X219069875Y-103745329D01*
X219010899Y-103678657D01*
X218979811Y-103639488D01*
X218915690Y-103554367D01*
X220068478Y-103552220D01*
G36*
X218816733Y-107224667D02*
X218816733Y-107604256D01*
X218816809Y-107682753D01*
X218817026Y-107755923D01*
X218817370Y-107822053D01*
X218817823Y-107879427D01*
X218818370Y-107926333D01*
X218818995Y-107961056D01*
X218819684Y-107981883D01*
X218820248Y-107987372D01*
X218829327Y-107988245D01*
X218853025Y-107988850D01*
X218889031Y-107989177D01*
X218935034Y-107989213D01*
X218988722Y-107988947D01*
X219036404Y-107988499D01*
X219249044Y-107986098D01*
X219246672Y-107613846D01*
X219244300Y-107241593D01*
X219318295Y-107241597D01*
X219392290Y-107241600D01*
X219394495Y-107614377D01*
X219396700Y-107987153D01*
X219955500Y-107987153D01*
X219959906Y-107224667D01*
X220112133Y-107224667D01*
X220112133Y-108164467D01*
X218664333Y-108164467D01*
X218664333Y-107224667D01*
X218816733Y-107224667D01*
X218816733Y-107224667D01*
G37*
X218816733Y-107224667D02*
X218816733Y-107604256D01*
X218816809Y-107682753D01*
X218817026Y-107755923D01*
X218817370Y-107822053D01*
X218817823Y-107879427D01*
X218818370Y-107926333D01*
X218818995Y-107961056D01*
X218819684Y-107981883D01*
X218820248Y-107987372D01*
X218829327Y-107988245D01*
X218853025Y-107988850D01*
X218889031Y-107989177D01*
X218935034Y-107989213D01*
X218988722Y-107988947D01*
X219036404Y-107988499D01*
X219249044Y-107986098D01*
X219246672Y-107613846D01*
X219244300Y-107241593D01*
X219318295Y-107241597D01*
X219392290Y-107241600D01*
X219394495Y-107614377D01*
X219396700Y-107987153D01*
X219955500Y-107987153D01*
X219959906Y-107224667D01*
X220112133Y-107224667D01*
X220112133Y-108164467D01*
X218664333Y-108164467D01*
X218664333Y-107224667D01*
X218816733Y-107224667D01*
G36*
X218667647Y-106263511D02*
X218678147Y-106181660D01*
X218697152Y-106101278D01*
X218725795Y-106017155D01*
X218750649Y-105956783D01*
X218784710Y-105878467D01*
X218885388Y-105878467D01*
X218924419Y-105878821D01*
X218956400Y-105879786D01*
X218978045Y-105881215D01*
X218986066Y-105882960D01*
X218986067Y-105882972D01*
X218981513Y-105891402D01*
X218969272Y-105910390D01*
X218951469Y-105936695D01*
X218939247Y-105954294D01*
X218883411Y-106043978D01*
X218843166Y-106132309D01*
X218817637Y-106221883D01*
X218805949Y-106315295D01*
X218804955Y-106352600D01*
X218811814Y-106445603D01*
X218832779Y-106529272D01*
X218867950Y-106603790D01*
X218917424Y-106669337D01*
X218981303Y-106726098D01*
X219024167Y-106754571D01*
X219096475Y-106789679D01*
X219180154Y-106816189D01*
X219271625Y-106833467D01*
X219367313Y-106840874D01*
X219463642Y-106837774D01*
X219481543Y-106835965D01*
X219585590Y-106818505D01*
X219676650Y-106790782D01*
X219755515Y-106752375D01*
X219822976Y-106702864D01*
X219879825Y-106641830D01*
X219899854Y-106613970D01*
X219929971Y-106562841D01*
X219950812Y-106511726D01*
X219963577Y-106456093D01*
X219969465Y-106391413D01*
X219970203Y-106348367D01*
X219965038Y-106254414D01*
X219949170Y-106170301D01*
X219921217Y-106091967D01*
X219879799Y-106015349D01*
X219835356Y-105951658D01*
X219812294Y-105921230D01*
X219798771Y-105900655D01*
X219796154Y-105888011D01*
X219805808Y-105881376D01*
X219829102Y-105878828D01*
X219867402Y-105878445D01*
X219887412Y-105878467D01*
X219986235Y-105878467D01*
X220015228Y-105941219D01*
X220041068Y-106001954D01*
X220064850Y-106066799D01*
X220084774Y-106130279D01*
X220099041Y-106186916D01*
X220103128Y-106208667D01*
X220108057Y-106253686D01*
X220110599Y-106308836D01*
X220110821Y-106368537D01*
X220108791Y-106427212D01*
X220104574Y-106479284D01*
X220099467Y-106513467D01*
X220071411Y-106613578D01*
X220029747Y-106703763D01*
X219974876Y-106783609D01*
X219907198Y-106852702D01*
X219827115Y-106910629D01*
X219735027Y-106956975D01*
X219638000Y-106989579D01*
X219611176Y-106996268D01*
X219585872Y-107001215D01*
X219558829Y-107004677D01*
X219526790Y-107006906D01*
X219486494Y-107008159D01*
X219434683Y-107008689D01*
X219392466Y-107008767D01*
X219314478Y-107007945D01*
X219249836Y-107005022D01*
X219195016Y-106999311D01*
X219146489Y-106990127D01*
X219100729Y-106976784D01*
X219054209Y-106958595D01*
X219003404Y-106934874D01*
X218997454Y-106931924D01*
X218910417Y-106879811D01*
X218836177Y-106816741D01*
X218774953Y-106743092D01*
X218726958Y-106659238D01*
X218692410Y-106565557D01*
X218671523Y-106462424D01*
X218664516Y-106352038D01*
X218667647Y-106263511D01*
X218667647Y-106263511D01*
G37*
X218667647Y-106263511D02*
X218678147Y-106181660D01*
X218697152Y-106101278D01*
X218725795Y-106017155D01*
X218750649Y-105956783D01*
X218784710Y-105878467D01*
X218885388Y-105878467D01*
X218924419Y-105878821D01*
X218956400Y-105879786D01*
X218978045Y-105881215D01*
X218986066Y-105882960D01*
X218986067Y-105882972D01*
X218981513Y-105891402D01*
X218969272Y-105910390D01*
X218951469Y-105936695D01*
X218939247Y-105954294D01*
X218883411Y-106043978D01*
X218843166Y-106132309D01*
X218817637Y-106221883D01*
X218805949Y-106315295D01*
X218804955Y-106352600D01*
X218811814Y-106445603D01*
X218832779Y-106529272D01*
X218867950Y-106603790D01*
X218917424Y-106669337D01*
X218981303Y-106726098D01*
X219024167Y-106754571D01*
X219096475Y-106789679D01*
X219180154Y-106816189D01*
X219271625Y-106833467D01*
X219367313Y-106840874D01*
X219463642Y-106837774D01*
X219481543Y-106835965D01*
X219585590Y-106818505D01*
X219676650Y-106790782D01*
X219755515Y-106752375D01*
X219822976Y-106702864D01*
X219879825Y-106641830D01*
X219899854Y-106613970D01*
X219929971Y-106562841D01*
X219950812Y-106511726D01*
X219963577Y-106456093D01*
X219969465Y-106391413D01*
X219970203Y-106348367D01*
X219965038Y-106254414D01*
X219949170Y-106170301D01*
X219921217Y-106091967D01*
X219879799Y-106015349D01*
X219835356Y-105951658D01*
X219812294Y-105921230D01*
X219798771Y-105900655D01*
X219796154Y-105888011D01*
X219805808Y-105881376D01*
X219829102Y-105878828D01*
X219867402Y-105878445D01*
X219887412Y-105878467D01*
X219986235Y-105878467D01*
X220015228Y-105941219D01*
X220041068Y-106001954D01*
X220064850Y-106066799D01*
X220084774Y-106130279D01*
X220099041Y-106186916D01*
X220103128Y-106208667D01*
X220108057Y-106253686D01*
X220110599Y-106308836D01*
X220110821Y-106368537D01*
X220108791Y-106427212D01*
X220104574Y-106479284D01*
X220099467Y-106513467D01*
X220071411Y-106613578D01*
X220029747Y-106703763D01*
X219974876Y-106783609D01*
X219907198Y-106852702D01*
X219827115Y-106910629D01*
X219735027Y-106956975D01*
X219638000Y-106989579D01*
X219611176Y-106996268D01*
X219585872Y-107001215D01*
X219558829Y-107004677D01*
X219526790Y-107006906D01*
X219486494Y-107008159D01*
X219434683Y-107008689D01*
X219392466Y-107008767D01*
X219314478Y-107007945D01*
X219249836Y-107005022D01*
X219195016Y-106999311D01*
X219146489Y-106990127D01*
X219100729Y-106976784D01*
X219054209Y-106958595D01*
X219003404Y-106934874D01*
X218997454Y-106931924D01*
X218910417Y-106879811D01*
X218836177Y-106816741D01*
X218774953Y-106743092D01*
X218726958Y-106659238D01*
X218692410Y-106565557D01*
X218671523Y-106462424D01*
X218664516Y-106352038D01*
X218667647Y-106263511D01*
G36*
X218671505Y-104993365D02*
X218672179Y-104969746D01*
X218672633Y-104936235D01*
X218672800Y-104896449D01*
X218672800Y-104794964D01*
X218763100Y-104767332D01*
X218853399Y-104739700D01*
X218894531Y-104646704D01*
X218849569Y-104555577D01*
X218804606Y-104464449D01*
X218859353Y-104408820D01*
X218886662Y-104381809D01*
X218912357Y-104357671D01*
X218932207Y-104340337D01*
X218937366Y-104336331D01*
X218960633Y-104319471D01*
X219044700Y-104363434D01*
X219128766Y-104407397D01*
X219175740Y-104387928D01*
X219222713Y-104368458D01*
X219253257Y-104276796D01*
X219283800Y-104185133D01*
X219499330Y-104185133D01*
X219526974Y-104276358D01*
X219554618Y-104367582D01*
X219605529Y-104386124D01*
X219656439Y-104404666D01*
X219741673Y-104361893D01*
X219826906Y-104319121D01*
X219976184Y-104468767D01*
X219888748Y-104639789D01*
X219931874Y-104739649D01*
X220019887Y-104770419D01*
X220107900Y-104801188D01*
X220110257Y-104906382D01*
X220112615Y-105011575D01*
X220022032Y-105040738D01*
X219931450Y-105069900D01*
X219910251Y-105119502D01*
X219889053Y-105169104D01*
X219932181Y-105255822D01*
X219975308Y-105342539D01*
X219901032Y-105416471D01*
X219826755Y-105490403D01*
X219740426Y-105447081D01*
X219654096Y-105403759D01*
X219603908Y-105423096D01*
X219553719Y-105442434D01*
X219497825Y-105620234D01*
X219390895Y-105622597D01*
X219388844Y-105622642D01*
X219388844Y-105198186D01*
X219450314Y-105193296D01*
X219505857Y-105177098D01*
X219511000Y-105174787D01*
X219563738Y-105145260D01*
X219604974Y-105110042D01*
X219633699Y-105074230D01*
X219667252Y-105011762D01*
X219684742Y-104945562D01*
X219686020Y-104877640D01*
X219670935Y-104810007D01*
X219656139Y-104774733D01*
X219618706Y-104716045D01*
X219569604Y-104669179D01*
X219512016Y-104635011D01*
X219483678Y-104623196D01*
X219457034Y-104616368D01*
X219425451Y-104613291D01*
X219392288Y-104612700D01*
X219354036Y-104613442D01*
X219325812Y-104616658D01*
X219300741Y-104623838D01*
X219271949Y-104636469D01*
X219263527Y-104640572D01*
X219206383Y-104676503D01*
X219160750Y-104723164D01*
X219124414Y-104782849D01*
X219122778Y-104786267D01*
X219111085Y-104814151D01*
X219104333Y-104840623D01*
X219101301Y-104872252D01*
X219100733Y-104904800D01*
X219101721Y-104945148D01*
X219105521Y-104975354D01*
X219113387Y-105002141D01*
X219123157Y-105024997D01*
X219156926Y-105079675D01*
X219202866Y-105128232D01*
X219256272Y-105165964D01*
X219272269Y-105174109D01*
X219327483Y-105191784D01*
X219388844Y-105198186D01*
X219388844Y-105622642D01*
X219283965Y-105624961D01*
X219253118Y-105532389D01*
X219222272Y-105439817D01*
X219175088Y-105420667D01*
X219127903Y-105401516D01*
X219041316Y-105444579D01*
X218954728Y-105487642D01*
X218879468Y-105412032D01*
X218804209Y-105336422D01*
X218849624Y-105249728D01*
X218895038Y-105163034D01*
X218874603Y-105117067D01*
X218854167Y-105071100D01*
X218761367Y-105040156D01*
X218725090Y-105027546D01*
X218695835Y-105016397D01*
X218676691Y-105007954D01*
X218670683Y-105003572D01*
X218671505Y-104993365D01*
X218671505Y-104993365D01*
G37*
X218671505Y-104993365D02*
X218672179Y-104969746D01*
X218672633Y-104936235D01*
X218672800Y-104896449D01*
X218672800Y-104794964D01*
X218763100Y-104767332D01*
X218853399Y-104739700D01*
X218894531Y-104646704D01*
X218849569Y-104555577D01*
X218804606Y-104464449D01*
X218859353Y-104408820D01*
X218886662Y-104381809D01*
X218912357Y-104357671D01*
X218932207Y-104340337D01*
X218937366Y-104336331D01*
X218960633Y-104319471D01*
X219044700Y-104363434D01*
X219128766Y-104407397D01*
X219175740Y-104387928D01*
X219222713Y-104368458D01*
X219253257Y-104276796D01*
X219283800Y-104185133D01*
X219499330Y-104185133D01*
X219526974Y-104276358D01*
X219554618Y-104367582D01*
X219605529Y-104386124D01*
X219656439Y-104404666D01*
X219741673Y-104361893D01*
X219826906Y-104319121D01*
X219976184Y-104468767D01*
X219888748Y-104639789D01*
X219931874Y-104739649D01*
X220019887Y-104770419D01*
X220107900Y-104801188D01*
X220110257Y-104906382D01*
X220112615Y-105011575D01*
X220022032Y-105040738D01*
X219931450Y-105069900D01*
X219910251Y-105119502D01*
X219889053Y-105169104D01*
X219932181Y-105255822D01*
X219975308Y-105342539D01*
X219901032Y-105416471D01*
X219826755Y-105490403D01*
X219740426Y-105447081D01*
X219654096Y-105403759D01*
X219603908Y-105423096D01*
X219553719Y-105442434D01*
X219497825Y-105620234D01*
X219390895Y-105622597D01*
X219388844Y-105622642D01*
X219388844Y-105198186D01*
X219450314Y-105193296D01*
X219505857Y-105177098D01*
X219511000Y-105174787D01*
X219563738Y-105145260D01*
X219604974Y-105110042D01*
X219633699Y-105074230D01*
X219667252Y-105011762D01*
X219684742Y-104945562D01*
X219686020Y-104877640D01*
X219670935Y-104810007D01*
X219656139Y-104774733D01*
X219618706Y-104716045D01*
X219569604Y-104669179D01*
X219512016Y-104635011D01*
X219483678Y-104623196D01*
X219457034Y-104616368D01*
X219425451Y-104613291D01*
X219392288Y-104612700D01*
X219354036Y-104613442D01*
X219325812Y-104616658D01*
X219300741Y-104623838D01*
X219271949Y-104636469D01*
X219263527Y-104640572D01*
X219206383Y-104676503D01*
X219160750Y-104723164D01*
X219124414Y-104782849D01*
X219122778Y-104786267D01*
X219111085Y-104814151D01*
X219104333Y-104840623D01*
X219101301Y-104872252D01*
X219100733Y-104904800D01*
X219101721Y-104945148D01*
X219105521Y-104975354D01*
X219113387Y-105002141D01*
X219123157Y-105024997D01*
X219156926Y-105079675D01*
X219202866Y-105128232D01*
X219256272Y-105165964D01*
X219272269Y-105174109D01*
X219327483Y-105191784D01*
X219388844Y-105198186D01*
X219388844Y-105622642D01*
X219283965Y-105624961D01*
X219253118Y-105532389D01*
X219222272Y-105439817D01*
X219175088Y-105420667D01*
X219127903Y-105401516D01*
X219041316Y-105444579D01*
X218954728Y-105487642D01*
X218879468Y-105412032D01*
X218804209Y-105336422D01*
X218849624Y-105249728D01*
X218895038Y-105163034D01*
X218874603Y-105117067D01*
X218854167Y-105071100D01*
X218761367Y-105040156D01*
X218725090Y-105027546D01*
X218695835Y-105016397D01*
X218676691Y-105007954D01*
X218670683Y-105003572D01*
X218671505Y-104993365D01*
D14*
G04 #@! TO.C,U2*
X190500000Y-55000000D02*
G75*
G03X190500000Y-55000000I-250000J0D01*
G01*
X204500000Y-60000000D02*
G75*
G03X204500000Y-60000000I-9500000J0D01*
G01*
D15*
G04 #@! TO.C,L1*
X205951794Y-94787619D02*
X205951794Y-93687619D01*
X211951794Y-94787619D02*
X205951794Y-94787619D01*
X211951794Y-93687619D02*
X211951794Y-94787619D01*
X211951794Y-89387619D02*
X211951794Y-90487619D01*
X205951794Y-89387619D02*
X211951794Y-89387619D01*
X205951794Y-90487619D02*
X205951794Y-89387619D01*
G04 #@! TO.C,RV1*
X202990000Y-73910000D02*
X202990000Y-73220000D01*
X203090000Y-73910000D02*
X202990000Y-73910000D01*
X209610000Y-73910000D02*
X209610000Y-73660000D01*
X209510000Y-73910000D02*
X209610000Y-73910000D01*
X209510000Y-74110000D02*
X209510000Y-73910000D01*
X208090000Y-73910000D02*
X208090000Y-74110000D01*
X202990000Y-68200000D02*
G75*
G02X204300000Y-66890000I1310000J0D01*
G01*
X208300000Y-66890000D02*
G75*
G02X209610000Y-68200000I0J-1310000D01*
G01*
X204300000Y-66890000D02*
X205790000Y-66890000D01*
X202990000Y-72180000D02*
X202990000Y-68200000D01*
X209610000Y-68200000D02*
X209610000Y-71740000D01*
X206810000Y-66890000D02*
X208300000Y-66890000D01*
X203090000Y-74110000D02*
X203090000Y-73910000D01*
X204510000Y-74110000D02*
X203090000Y-74110000D01*
X204510000Y-73910000D02*
X204510000Y-74110000D01*
X208090000Y-73910000D02*
X204510000Y-73910000D01*
X209510000Y-74110000D02*
X208090000Y-74110000D01*
G04 #@! TO.C,SW3*
X174800000Y-93150000D02*
X174800000Y-90430000D01*
X174800000Y-83570000D02*
X174800000Y-80850000D01*
X187100000Y-85430000D02*
X187100000Y-88570000D01*
X187100000Y-80850000D02*
X187100000Y-83570000D01*
X185429050Y-86960000D02*
G75*
G03X185429050Y-86960000I-4579050J0D01*
G01*
X187100000Y-90430000D02*
X187100000Y-93150000D01*
X174800000Y-80850000D02*
X187100000Y-80850000D01*
X174800000Y-88570000D02*
X174800000Y-85430000D01*
X187100000Y-93150000D02*
X174800000Y-93150000D01*
G04 #@! TO.C,SW4*
X187100000Y-80150000D02*
X174800000Y-80150000D01*
X174800000Y-75570000D02*
X174800000Y-72430000D01*
X174800000Y-67850000D02*
X187100000Y-67850000D01*
X187100000Y-77430000D02*
X187100000Y-80150000D01*
X185429050Y-73960000D02*
G75*
G03X185429050Y-73960000I-4579050J0D01*
G01*
X187100000Y-67850000D02*
X187100000Y-70570000D01*
X187100000Y-72430000D02*
X187100000Y-75570000D01*
X174800000Y-70570000D02*
X174800000Y-67850000D01*
X174800000Y-80150000D02*
X174800000Y-77430000D01*
G04 #@! TO.C,Y1*
X202400806Y-87333504D02*
X189800806Y-87333504D01*
X189800806Y-87333504D02*
X189800806Y-92433504D01*
X189800806Y-92433504D02*
X202400806Y-92433504D01*
G04 #@! TO.C,TP6*
X207900000Y-62900000D02*
G75*
G03X207900000Y-62900000I-1500000J0D01*
G01*
G04 #@! TO.C,TP3*
X229500000Y-101000000D02*
G75*
G03X229500000Y-101000000I-1500000J0D01*
G01*
G04 #@! TO.C,TP7*
X187500000Y-52000000D02*
G75*
G03X187500000Y-52000000I-1500000J0D01*
G01*
G04 #@! TO.C,TP5*
X187400000Y-98900000D02*
G75*
G03X187400000Y-98900000I-1500000J0D01*
G01*
G04 #@! TO.C,TP4*
X192300000Y-70700000D02*
G75*
G03X192300000Y-70700000I-1500000J0D01*
G01*
G04 #@! TO.C,TP1*
X218200000Y-99200000D02*
G75*
G03X218200000Y-99200000I-1500000J0D01*
G01*
G04 #@! TO.C,TP2*
X205300000Y-96600000D02*
G75*
G03X205300000Y-96600000I-1500000J0D01*
G01*
G04 #@! TO.C,D6*
X175060000Y-108885000D02*
X175060000Y-106200000D01*
X173140000Y-108885000D02*
X175060000Y-108885000D01*
X173140000Y-106200000D02*
X173140000Y-108885000D01*
D14*
G04 #@! TO.C,U3*
X191600000Y-83525000D02*
X191600000Y-84950000D01*
X191375000Y-76275000D02*
X191375000Y-76600000D01*
X198625000Y-76275000D02*
X198625000Y-76600000D01*
X198625000Y-83525000D02*
X198625000Y-83200000D01*
X191375000Y-83525000D02*
X191375000Y-83200000D01*
X198625000Y-83525000D02*
X198300000Y-83525000D01*
X198625000Y-76275000D02*
X198300000Y-76275000D01*
X191375000Y-76275000D02*
X191700000Y-76275000D01*
X191375000Y-83525000D02*
X191600000Y-83525000D01*
G04 #@! TO.C,J2*
X160000000Y-92800000D02*
X160000000Y-84300000D01*
X160000000Y-84300000D02*
X172000000Y-84300000D01*
X172000000Y-84300000D02*
X172000000Y-92800000D01*
X172000000Y-92800000D02*
X160000000Y-92800000D01*
D15*
G04 #@! TO.C,R21*
X170290000Y-55237221D02*
X170290000Y-55562779D01*
X171310000Y-55237221D02*
X171310000Y-55562779D01*
G04 #@! TO.C,U4*
X181360000Y-52670000D02*
X180110000Y-52670000D01*
X181360000Y-57870000D02*
X181360000Y-52670000D01*
X176860000Y-57870000D02*
X181360000Y-57870000D01*
X176860000Y-52670000D02*
X176860000Y-57870000D01*
X178110000Y-52670000D02*
X176860000Y-52670000D01*
X180110000Y-52670000D02*
G75*
G02X178110000Y-52670000I-1000000J0D01*
G01*
D14*
G04 #@! TO.C,J1*
X230000000Y-84200000D02*
X230000000Y-92700000D01*
X230000000Y-92700000D02*
X218000000Y-92700000D01*
X218000000Y-92700000D02*
X218000000Y-84200000D01*
X218000000Y-84200000D02*
X230000000Y-84200000D01*
D15*
G04 #@! TO.C,BZ1*
X217100000Y-82100000D02*
G75*
G03X217100000Y-82100000I-6100000J0D01*
G01*
G04 #@! TO.C,J4*
X205600000Y-100345000D02*
X205600000Y-102885000D01*
X205600000Y-100345000D02*
X203060000Y-100345000D01*
X205350000Y-100595000D02*
X205350000Y-109945000D01*
X184490000Y-100595000D02*
X205350000Y-100595000D01*
X184490000Y-109945000D02*
X184490000Y-100595000D01*
X205350000Y-109945000D02*
X184490000Y-109945000D01*
G04 #@! TO.C,C3*
X205840000Y-96997936D02*
X205840000Y-98202064D01*
X208560000Y-96997936D02*
X208560000Y-98202064D01*
G04 #@! TO.C,C2*
X210310372Y-105777619D02*
X209793216Y-105777619D01*
X210310372Y-107197619D02*
X209793216Y-107197619D01*
G04 #@! TO.C,C1*
X212053858Y-95477619D02*
X210849730Y-95477619D01*
X212053858Y-97297619D02*
X210849730Y-97297619D01*
G04 #@! TO.C,L2*
X198661252Y-71590000D02*
X198138748Y-71590000D01*
X198661252Y-73010000D02*
X198138748Y-73010000D01*
G04 #@! TO.C,C9*
X196163585Y-85873504D02*
X195838027Y-85873504D01*
X196163585Y-86893504D02*
X195838027Y-86893504D01*
G04 #@! TO.C,SW2*
X193733504Y-94549194D02*
X196233504Y-94549194D01*
X192233504Y-96299194D02*
X192233504Y-98299194D01*
X193733504Y-100049194D02*
X196233504Y-100049194D01*
X197733504Y-96299194D02*
X197733504Y-98299194D01*
X193283504Y-94999194D02*
X193733504Y-94549194D01*
X196683504Y-94999194D02*
X196233504Y-94549194D01*
X196683504Y-99599194D02*
X196233504Y-100049194D01*
X193283504Y-99599194D02*
X193733504Y-100049194D01*
G04 #@! TO.C,C7*
X193163585Y-85873504D02*
X192838027Y-85873504D01*
X193163585Y-86893504D02*
X192838027Y-86893504D01*
G04 #@! TO.C,C6*
X195263585Y-73473504D02*
X194938027Y-73473504D01*
X195263585Y-74493504D02*
X194938027Y-74493504D01*
G04 #@! TO.C,C5*
X198163585Y-92873504D02*
X197838027Y-92873504D01*
X198163585Y-93893504D02*
X197838027Y-93893504D01*
G04 #@! TO.C,C4*
X194838027Y-93893504D02*
X195163585Y-93893504D01*
X194838027Y-92873504D02*
X195163585Y-92873504D01*
G04 #@! TO.C,C8*
X195263585Y-71973504D02*
X194938027Y-71973504D01*
X195263585Y-72993504D02*
X194938027Y-72993504D01*
G04 #@! TO.C,D11*
X171600000Y-52850000D02*
X171600000Y-57150000D01*
X173600000Y-52850000D02*
X171600000Y-52850000D01*
X173600000Y-57150000D02*
X173600000Y-52850000D01*
G04 #@! TO.C,D14*
X214800000Y-61150000D02*
X214800000Y-65450000D01*
X216800000Y-61150000D02*
X214800000Y-61150000D01*
X216800000Y-65450000D02*
X216800000Y-61150000D01*
G04 #@! TO.C,D13*
X184450000Y-64500000D02*
X180150000Y-64500000D01*
X184450000Y-66500000D02*
X184450000Y-64500000D01*
X180150000Y-66500000D02*
X184450000Y-66500000D01*
G04 #@! TO.C,D12*
X219100000Y-57950000D02*
X219100000Y-53650000D01*
X217100000Y-57950000D02*
X219100000Y-57950000D01*
X217100000Y-53650000D02*
X217100000Y-57950000D01*
G04 #@! TO.C,D10*
X214800000Y-67250000D02*
X214800000Y-71550000D01*
X216800000Y-67250000D02*
X214800000Y-67250000D01*
X216800000Y-71550000D02*
X216800000Y-67250000D01*
G04 #@! TO.C,D9*
X178350000Y-64500000D02*
X174050000Y-64500000D01*
X178350000Y-66500000D02*
X178350000Y-64500000D01*
X174050000Y-66500000D02*
X178350000Y-66500000D01*
G04 #@! TO.C,D1*
X218800000Y-92850000D02*
X227200000Y-92850000D01*
X218800000Y-99350000D02*
X227200000Y-99350000D01*
X218800000Y-99350000D02*
X218800000Y-92850000D01*
D14*
G04 #@! TO.C,J3*
X160000000Y-101400000D02*
X160000000Y-92900000D01*
X160000000Y-92900000D02*
X172000000Y-92900000D01*
X172000000Y-92900000D02*
X172000000Y-101400000D01*
X172000000Y-101400000D02*
X160000000Y-101400000D01*
G04 #@! TO.C,J5*
X160000000Y-75600000D02*
X160000000Y-67100000D01*
X160000000Y-67100000D02*
X172000000Y-67100000D01*
X172000000Y-67100000D02*
X172000000Y-75600000D01*
X172000000Y-75600000D02*
X160000000Y-75600000D01*
G04 #@! TO.C,J7*
X160000000Y-67000000D02*
X160000000Y-58500000D01*
X160000000Y-58500000D02*
X172000000Y-58500000D01*
X172000000Y-58500000D02*
X172000000Y-67000000D01*
X172000000Y-67000000D02*
X160000000Y-67000000D01*
G04 #@! TO.C,J8*
X230000000Y-58400000D02*
X230000000Y-66900000D01*
X230000000Y-66900000D02*
X218000000Y-66900000D01*
X218000000Y-66900000D02*
X218000000Y-58400000D01*
X218000000Y-58400000D02*
X230000000Y-58400000D01*
G04 #@! TO.C,J9*
X160000000Y-84200000D02*
X160000000Y-75700000D01*
X160000000Y-75700000D02*
X172000000Y-75700000D01*
X172000000Y-75700000D02*
X172000000Y-84200000D01*
X172000000Y-84200000D02*
X160000000Y-84200000D01*
G04 #@! TO.C,J10*
X230000000Y-67000000D02*
X230000000Y-75500000D01*
X230000000Y-75500000D02*
X218000000Y-75500000D01*
X218000000Y-75500000D02*
X218000000Y-67000000D01*
X218000000Y-67000000D02*
X230000000Y-67000000D01*
G04 #@! TO.C,J6*
X230000000Y-75600000D02*
X230000000Y-84100000D01*
X230000000Y-84100000D02*
X218000000Y-84100000D01*
X218000000Y-84100000D02*
X218000000Y-75600000D01*
X218000000Y-75600000D02*
X230000000Y-75600000D01*
D15*
G04 #@! TO.C,D7*
X202176496Y-86823306D02*
X202176496Y-84138306D01*
X200256496Y-86823306D02*
X202176496Y-86823306D01*
X200256496Y-84138306D02*
X200256496Y-86823306D01*
G04 #@! TO.C,D5*
X188560000Y-97285000D02*
X188560000Y-94600000D01*
X186640000Y-97285000D02*
X188560000Y-97285000D01*
X186640000Y-94600000D02*
X186640000Y-97285000D01*
G04 #@! TO.C,D8*
X204076496Y-86823306D02*
X204076496Y-84138306D01*
X202156496Y-86823306D02*
X204076496Y-86823306D01*
X202156496Y-84138306D02*
X202156496Y-86823306D01*
G04 #@! TO.C,D2*
X216685000Y-88840000D02*
X214000000Y-88840000D01*
X216685000Y-90760000D02*
X216685000Y-88840000D01*
X214000000Y-90760000D02*
X216685000Y-90760000D01*
G04 #@! TO.C,D3*
X214791794Y-102102619D02*
X214791794Y-104787619D01*
X216711794Y-102102619D02*
X214791794Y-102102619D01*
X216711794Y-104787619D02*
X216711794Y-102102619D01*
G04 #@! TO.C,D4*
X173340000Y-93915000D02*
X173340000Y-96600000D01*
X175260000Y-93915000D02*
X173340000Y-93915000D01*
X175260000Y-96600000D02*
X175260000Y-93915000D01*
G04 #@! TO.C,U5*
X209460000Y-57830000D02*
X210710000Y-57830000D01*
X209460000Y-52630000D02*
X209460000Y-57830000D01*
X213960000Y-52630000D02*
X209460000Y-52630000D01*
X213960000Y-57830000D02*
X213960000Y-52630000D01*
X212710000Y-57830000D02*
X213960000Y-57830000D01*
X210710000Y-57830000D02*
G75*
G02X212710000Y-57830000I1000000J0D01*
G01*
D14*
G04 #@! TO.C,U1*
X209676794Y-103562619D02*
X209676794Y-104862619D01*
X214626794Y-103562619D02*
X214626794Y-99412619D01*
X209476794Y-103562619D02*
X209476794Y-99412619D01*
X214626794Y-103562619D02*
X214426794Y-103562619D01*
X214626794Y-99412619D02*
X214426794Y-99412619D01*
X209476794Y-99412619D02*
X209676794Y-99412619D01*
X209476794Y-103562619D02*
X209676794Y-103562619D01*
D15*
G04 #@! TO.C,Q4*
X178960000Y-101980000D02*
X177500000Y-101980000D01*
X178960000Y-98820000D02*
X176800000Y-98820000D01*
X178960000Y-98820000D02*
X178960000Y-99750000D01*
X178960000Y-101980000D02*
X178960000Y-101050000D01*
G04 #@! TO.C,Q5*
X183280000Y-103140000D02*
X183280000Y-104600000D01*
X180120000Y-103140000D02*
X180120000Y-105300000D01*
X180120000Y-103140000D02*
X181050000Y-103140000D01*
X183280000Y-103140000D02*
X182350000Y-103140000D01*
G04 #@! TO.C,Q3*
X180020000Y-98260000D02*
X180020000Y-96800000D01*
X183180000Y-98260000D02*
X183180000Y-96100000D01*
X183180000Y-98260000D02*
X182250000Y-98260000D01*
X180020000Y-98260000D02*
X180950000Y-98260000D01*
G04 #@! TO.C,Q2*
X179680000Y-94740000D02*
X179680000Y-96200000D01*
X176520000Y-94740000D02*
X176520000Y-96900000D01*
X176520000Y-94740000D02*
X177450000Y-94740000D01*
X179680000Y-94740000D02*
X178750000Y-94740000D01*
G04 #@! TO.C,Q1*
X217560000Y-97080000D02*
X216100000Y-97080000D01*
X217560000Y-93920000D02*
X215400000Y-93920000D01*
X217560000Y-93920000D02*
X217560000Y-94850000D01*
X217560000Y-97080000D02*
X217560000Y-96150000D01*
G04 #@! TO.C,Q7*
X178960000Y-108980000D02*
X177500000Y-108980000D01*
X178960000Y-105820000D02*
X176800000Y-105820000D01*
X178960000Y-105820000D02*
X178960000Y-106750000D01*
X178960000Y-108980000D02*
X178960000Y-108050000D01*
G04 #@! TO.C,Q8*
X203980806Y-75223504D02*
X203980806Y-76683504D01*
X200820806Y-75223504D02*
X200820806Y-77383504D01*
X200820806Y-75223504D02*
X201750806Y-75223504D01*
X203980806Y-75223504D02*
X203050806Y-75223504D01*
G04 #@! TO.C,Q9*
X174220000Y-63460000D02*
X174220000Y-62000000D01*
X177380000Y-63460000D02*
X177380000Y-61300000D01*
X177380000Y-63460000D02*
X176450000Y-63460000D01*
X174220000Y-63460000D02*
X175150000Y-63460000D01*
G04 #@! TO.C,Q10*
X213760000Y-71480000D02*
X212300000Y-71480000D01*
X213760000Y-68320000D02*
X211600000Y-68320000D01*
X213760000Y-68320000D02*
X213760000Y-69250000D01*
X213760000Y-71480000D02*
X213760000Y-70550000D01*
G04 #@! TO.C,Q11*
X180331296Y-63303831D02*
X180331296Y-61843831D01*
X183491296Y-63303831D02*
X183491296Y-61143831D01*
X183491296Y-63303831D02*
X182561296Y-63303831D01*
X180331296Y-63303831D02*
X181261296Y-63303831D01*
G04 #@! TO.C,Q12*
X213760000Y-66080000D02*
X212300000Y-66080000D01*
X213760000Y-62920000D02*
X211600000Y-62920000D01*
X213760000Y-62920000D02*
X213760000Y-63850000D01*
X213760000Y-66080000D02*
X213760000Y-65150000D01*
G04 #@! TO.C,Q6*
X178960000Y-105480000D02*
X177500000Y-105480000D01*
X178960000Y-102320000D02*
X176800000Y-102320000D01*
X178960000Y-102320000D02*
X178960000Y-103250000D01*
X178960000Y-105480000D02*
X178960000Y-104550000D01*
G04 #@! TO.C,R6*
X213414573Y-105677619D02*
X213089015Y-105677619D01*
X213414573Y-106697619D02*
X213089015Y-106697619D01*
G04 #@! TO.C,R10*
X178162779Y-97390000D02*
X177837221Y-97390000D01*
X178162779Y-98410000D02*
X177837221Y-98410000D01*
G04 #@! TO.C,R9*
X175290000Y-100237221D02*
X175290000Y-100562779D01*
X176310000Y-100237221D02*
X176310000Y-100562779D01*
G04 #@! TO.C,R8*
X174810000Y-98962779D02*
X174810000Y-98637221D01*
X173790000Y-98962779D02*
X173790000Y-98637221D01*
G04 #@! TO.C,R7*
X192710000Y-73362779D02*
X192710000Y-73037221D01*
X191690000Y-73362779D02*
X191690000Y-73037221D01*
G04 #@! TO.C,R12*
X180190000Y-100524721D02*
X180190000Y-100850279D01*
X181210000Y-100524721D02*
X181210000Y-100850279D01*
G04 #@! TO.C,R5*
X216310000Y-92362779D02*
X216310000Y-92037221D01*
X215290000Y-92362779D02*
X215290000Y-92037221D01*
G04 #@! TO.C,R4*
X201262779Y-98590000D02*
X200937221Y-98590000D01*
X201262779Y-99610000D02*
X200937221Y-99610000D01*
G04 #@! TO.C,R3*
X215961794Y-107150398D02*
X215961794Y-106824840D01*
X214941794Y-107150398D02*
X214941794Y-106824840D01*
G04 #@! TO.C,R24*
X210090000Y-69737221D02*
X210090000Y-70062779D01*
X211110000Y-69737221D02*
X211110000Y-70062779D01*
G04 #@! TO.C,R2*
X213089015Y-108197619D02*
X213414573Y-108197619D01*
X213089015Y-107177619D02*
X213414573Y-107177619D01*
G04 #@! TO.C,R1*
X214810000Y-92362779D02*
X214810000Y-92037221D01*
X213790000Y-92362779D02*
X213790000Y-92037221D01*
G04 #@! TO.C,R11*
X181437221Y-95610000D02*
X181762779Y-95610000D01*
X181437221Y-94590000D02*
X181762779Y-94590000D01*
G04 #@! TO.C,R13*
X186410000Y-95750279D02*
X186410000Y-95424721D01*
X185390000Y-95750279D02*
X185390000Y-95424721D01*
G04 #@! TO.C,R15*
X175290000Y-107237221D02*
X175290000Y-107562779D01*
X176310000Y-107237221D02*
X176310000Y-107562779D01*
G04 #@! TO.C,R22*
X220510000Y-55562779D02*
X220510000Y-55237221D01*
X219490000Y-55562779D02*
X219490000Y-55237221D01*
G04 #@! TO.C,R14*
X181537221Y-106810000D02*
X181862779Y-106810000D01*
X181537221Y-105790000D02*
X181862779Y-105790000D01*
G04 #@! TO.C,R20*
X201938027Y-78893504D02*
X202263585Y-78893504D01*
X201938027Y-77873504D02*
X202263585Y-77873504D01*
G04 #@! TO.C,R26*
X210090000Y-64337221D02*
X210090000Y-64662779D01*
X211110000Y-64337221D02*
X211110000Y-64662779D01*
G04 #@! TO.C,R19*
X202406496Y-81838027D02*
X202406496Y-82163585D01*
X203426496Y-81838027D02*
X203426496Y-82163585D01*
G04 #@! TO.C,R18*
X200906496Y-81838027D02*
X200906496Y-82163585D01*
X201926496Y-81838027D02*
X201926496Y-82163585D01*
G04 #@! TO.C,R17*
X176310000Y-103562779D02*
X176310000Y-103237221D01*
X175290000Y-103562779D02*
X175290000Y-103237221D01*
G04 #@! TO.C,R16*
X173590000Y-103937221D02*
X173590000Y-104262779D01*
X174610000Y-103937221D02*
X174610000Y-104262779D01*
G04 #@! TO.C,R23*
X178810000Y-61062779D02*
X178810000Y-60737221D01*
X177790000Y-61062779D02*
X177790000Y-60737221D01*
G04 #@! TO.C,R25*
X182062779Y-59590000D02*
X181737221Y-59590000D01*
X182062779Y-60610000D02*
X181737221Y-60610000D01*
G04 #@! TO.C,U2*
D16*
X184626190Y-60280952D02*
X185030952Y-60280952D01*
X185078571Y-60257142D01*
X185102380Y-60233333D01*
X185126190Y-60185714D01*
X185126190Y-60090476D01*
X185102380Y-60042857D01*
X185078571Y-60019047D01*
X185030952Y-59995238D01*
X184626190Y-59995238D01*
X184673809Y-59780952D02*
X184650000Y-59757142D01*
X184626190Y-59709523D01*
X184626190Y-59590476D01*
X184650000Y-59542857D01*
X184673809Y-59519047D01*
X184721428Y-59495238D01*
X184769047Y-59495238D01*
X184840476Y-59519047D01*
X185126190Y-59804761D01*
X185126190Y-59495238D01*
G04 #@! TO.C,L1*
X206316666Y-89026190D02*
X206078571Y-89026190D01*
X206078571Y-88526190D01*
X206745238Y-89026190D02*
X206459523Y-89026190D01*
X206602380Y-89026190D02*
X206602380Y-88526190D01*
X206554761Y-88597619D01*
X206507142Y-88645238D01*
X206459523Y-88669047D01*
G04 #@! TO.C,RV1*
X206202380Y-74726190D02*
X206035714Y-74488095D01*
X205916666Y-74726190D02*
X205916666Y-74226190D01*
X206107142Y-74226190D01*
X206154761Y-74250000D01*
X206178571Y-74273809D01*
X206202380Y-74321428D01*
X206202380Y-74392857D01*
X206178571Y-74440476D01*
X206154761Y-74464285D01*
X206107142Y-74488095D01*
X205916666Y-74488095D01*
X206345238Y-74226190D02*
X206511904Y-74726190D01*
X206678571Y-74226190D01*
X207107142Y-74726190D02*
X206821428Y-74726190D01*
X206964285Y-74726190D02*
X206964285Y-74226190D01*
X206916666Y-74297619D01*
X206869047Y-74345238D01*
X206821428Y-74369047D01*
G04 #@! TO.C,SW3*
D14*
X175416666Y-92654761D02*
X175559523Y-92702380D01*
X175797619Y-92702380D01*
X175892857Y-92654761D01*
X175940476Y-92607142D01*
X175988095Y-92511904D01*
X175988095Y-92416666D01*
X175940476Y-92321428D01*
X175892857Y-92273809D01*
X175797619Y-92226190D01*
X175607142Y-92178571D01*
X175511904Y-92130952D01*
X175464285Y-92083333D01*
X175416666Y-91988095D01*
X175416666Y-91892857D01*
X175464285Y-91797619D01*
X175511904Y-91750000D01*
X175607142Y-91702380D01*
X175845238Y-91702380D01*
X175988095Y-91750000D01*
X176321428Y-91702380D02*
X176559523Y-92702380D01*
X176750000Y-91988095D01*
X176940476Y-92702380D01*
X177178571Y-91702380D01*
X177464285Y-91702380D02*
X178083333Y-91702380D01*
X177750000Y-92083333D01*
X177892857Y-92083333D01*
X177988095Y-92130952D01*
X178035714Y-92178571D01*
X178083333Y-92273809D01*
X178083333Y-92511904D01*
X178035714Y-92607142D01*
X177988095Y-92654761D01*
X177892857Y-92702380D01*
X177607142Y-92702380D01*
X177511904Y-92654761D01*
X177464285Y-92607142D01*
G04 #@! TO.C,SW4*
X184166666Y-79904761D02*
X184309523Y-79952380D01*
X184547619Y-79952380D01*
X184642857Y-79904761D01*
X184690476Y-79857142D01*
X184738095Y-79761904D01*
X184738095Y-79666666D01*
X184690476Y-79571428D01*
X184642857Y-79523809D01*
X184547619Y-79476190D01*
X184357142Y-79428571D01*
X184261904Y-79380952D01*
X184214285Y-79333333D01*
X184166666Y-79238095D01*
X184166666Y-79142857D01*
X184214285Y-79047619D01*
X184261904Y-79000000D01*
X184357142Y-78952380D01*
X184595238Y-78952380D01*
X184738095Y-79000000D01*
X185071428Y-78952380D02*
X185309523Y-79952380D01*
X185500000Y-79238095D01*
X185690476Y-79952380D01*
X185928571Y-78952380D01*
X186738095Y-79285714D02*
X186738095Y-79952380D01*
X186500000Y-78904761D02*
X186261904Y-79619047D01*
X186880952Y-79619047D01*
G04 #@! TO.C,Y1*
X196024615Y-86309694D02*
X196024615Y-86785884D01*
X195691282Y-85785884D02*
X196024615Y-86309694D01*
X196357948Y-85785884D01*
X197215091Y-86785884D02*
X196643663Y-86785884D01*
X196929377Y-86785884D02*
X196929377Y-85785884D01*
X196834139Y-85928742D01*
X196738901Y-86023980D01*
X196643663Y-86071599D01*
G04 #@! TO.C,TP6*
D16*
X205069047Y-64926190D02*
X205354761Y-64926190D01*
X205211904Y-65426190D02*
X205211904Y-64926190D01*
X205521428Y-65426190D02*
X205521428Y-64926190D01*
X205711904Y-64926190D01*
X205759523Y-64950000D01*
X205783333Y-64973809D01*
X205807142Y-65021428D01*
X205807142Y-65092857D01*
X205783333Y-65140476D01*
X205759523Y-65164285D01*
X205711904Y-65188095D01*
X205521428Y-65188095D01*
X206235714Y-64926190D02*
X206140476Y-64926190D01*
X206092857Y-64950000D01*
X206069047Y-64973809D01*
X206021428Y-65045238D01*
X205997619Y-65140476D01*
X205997619Y-65330952D01*
X206021428Y-65378571D01*
X206045238Y-65402380D01*
X206092857Y-65426190D01*
X206188095Y-65426190D01*
X206235714Y-65402380D01*
X206259523Y-65378571D01*
X206283333Y-65330952D01*
X206283333Y-65211904D01*
X206259523Y-65164285D01*
X206235714Y-65140476D01*
X206188095Y-65116666D01*
X206092857Y-65116666D01*
X206045238Y-65140476D01*
X206021428Y-65164285D01*
X205997619Y-65211904D01*
G04 #@! TO.C,TP3*
X228069047Y-103226190D02*
X228354761Y-103226190D01*
X228211904Y-103726190D02*
X228211904Y-103226190D01*
X228521428Y-103726190D02*
X228521428Y-103226190D01*
X228711904Y-103226190D01*
X228759523Y-103250000D01*
X228783333Y-103273809D01*
X228807142Y-103321428D01*
X228807142Y-103392857D01*
X228783333Y-103440476D01*
X228759523Y-103464285D01*
X228711904Y-103488095D01*
X228521428Y-103488095D01*
X228973809Y-103226190D02*
X229283333Y-103226190D01*
X229116666Y-103416666D01*
X229188095Y-103416666D01*
X229235714Y-103440476D01*
X229259523Y-103464285D01*
X229283333Y-103511904D01*
X229283333Y-103630952D01*
X229259523Y-103678571D01*
X229235714Y-103702380D01*
X229188095Y-103726190D01*
X229045238Y-103726190D01*
X228997619Y-103702380D01*
X228973809Y-103678571D01*
G04 #@! TO.C,TP7*
X182969047Y-51726190D02*
X183254761Y-51726190D01*
X183111904Y-52226190D02*
X183111904Y-51726190D01*
X183421428Y-52226190D02*
X183421428Y-51726190D01*
X183611904Y-51726190D01*
X183659523Y-51750000D01*
X183683333Y-51773809D01*
X183707142Y-51821428D01*
X183707142Y-51892857D01*
X183683333Y-51940476D01*
X183659523Y-51964285D01*
X183611904Y-51988095D01*
X183421428Y-51988095D01*
X183873809Y-51726190D02*
X184207142Y-51726190D01*
X183992857Y-52226190D01*
G04 #@! TO.C,TP5*
X187769047Y-98626190D02*
X188054761Y-98626190D01*
X187911904Y-99126190D02*
X187911904Y-98626190D01*
X188221428Y-99126190D02*
X188221428Y-98626190D01*
X188411904Y-98626190D01*
X188459523Y-98650000D01*
X188483333Y-98673809D01*
X188507142Y-98721428D01*
X188507142Y-98792857D01*
X188483333Y-98840476D01*
X188459523Y-98864285D01*
X188411904Y-98888095D01*
X188221428Y-98888095D01*
X188959523Y-98626190D02*
X188721428Y-98626190D01*
X188697619Y-98864285D01*
X188721428Y-98840476D01*
X188769047Y-98816666D01*
X188888095Y-98816666D01*
X188935714Y-98840476D01*
X188959523Y-98864285D01*
X188983333Y-98911904D01*
X188983333Y-99030952D01*
X188959523Y-99078571D01*
X188935714Y-99102380D01*
X188888095Y-99126190D01*
X188769047Y-99126190D01*
X188721428Y-99102380D01*
X188697619Y-99078571D01*
G04 #@! TO.C,TP4*
X192469047Y-70326190D02*
X192754761Y-70326190D01*
X192611904Y-70826190D02*
X192611904Y-70326190D01*
X192921428Y-70826190D02*
X192921428Y-70326190D01*
X193111904Y-70326190D01*
X193159523Y-70350000D01*
X193183333Y-70373809D01*
X193207142Y-70421428D01*
X193207142Y-70492857D01*
X193183333Y-70540476D01*
X193159523Y-70564285D01*
X193111904Y-70588095D01*
X192921428Y-70588095D01*
X193635714Y-70492857D02*
X193635714Y-70826190D01*
X193516666Y-70302380D02*
X193397619Y-70659523D01*
X193707142Y-70659523D01*
G04 #@! TO.C,TP1*
X216769047Y-101426190D02*
X217054761Y-101426190D01*
X216911904Y-101926190D02*
X216911904Y-101426190D01*
X217221428Y-101926190D02*
X217221428Y-101426190D01*
X217411904Y-101426190D01*
X217459523Y-101450000D01*
X217483333Y-101473809D01*
X217507142Y-101521428D01*
X217507142Y-101592857D01*
X217483333Y-101640476D01*
X217459523Y-101664285D01*
X217411904Y-101688095D01*
X217221428Y-101688095D01*
X217983333Y-101926190D02*
X217697619Y-101926190D01*
X217840476Y-101926190D02*
X217840476Y-101426190D01*
X217792857Y-101497619D01*
X217745238Y-101545238D01*
X217697619Y-101569047D01*
G04 #@! TO.C,TP2*
X203169047Y-94226190D02*
X203454761Y-94226190D01*
X203311904Y-94726190D02*
X203311904Y-94226190D01*
X203621428Y-94726190D02*
X203621428Y-94226190D01*
X203811904Y-94226190D01*
X203859523Y-94250000D01*
X203883333Y-94273809D01*
X203907142Y-94321428D01*
X203907142Y-94392857D01*
X203883333Y-94440476D01*
X203859523Y-94464285D01*
X203811904Y-94488095D01*
X203621428Y-94488095D01*
X204097619Y-94273809D02*
X204121428Y-94250000D01*
X204169047Y-94226190D01*
X204288095Y-94226190D01*
X204335714Y-94250000D01*
X204359523Y-94273809D01*
X204383333Y-94321428D01*
X204383333Y-94369047D01*
X204359523Y-94440476D01*
X204073809Y-94726190D01*
X204383333Y-94726190D01*
G04 #@! TO.C,D6*
X172826190Y-107569047D02*
X172326190Y-107569047D01*
X172326190Y-107450000D01*
X172350000Y-107378571D01*
X172397619Y-107330952D01*
X172445238Y-107307142D01*
X172540476Y-107283333D01*
X172611904Y-107283333D01*
X172707142Y-107307142D01*
X172754761Y-107330952D01*
X172802380Y-107378571D01*
X172826190Y-107450000D01*
X172826190Y-107569047D01*
X172326190Y-106854761D02*
X172326190Y-106950000D01*
X172350000Y-106997619D01*
X172373809Y-107021428D01*
X172445238Y-107069047D01*
X172540476Y-107092857D01*
X172730952Y-107092857D01*
X172778571Y-107069047D01*
X172802380Y-107045238D01*
X172826190Y-106997619D01*
X172826190Y-106902380D01*
X172802380Y-106854761D01*
X172778571Y-106830952D01*
X172730952Y-106807142D01*
X172611904Y-106807142D01*
X172564285Y-106830952D01*
X172540476Y-106854761D01*
X172516666Y-106902380D01*
X172516666Y-106997619D01*
X172540476Y-107045238D01*
X172564285Y-107069047D01*
X172611904Y-107092857D01*
G04 #@! TO.C,U3*
X188676190Y-80280952D02*
X189080952Y-80280952D01*
X189128571Y-80257142D01*
X189152380Y-80233333D01*
X189176190Y-80185714D01*
X189176190Y-80090476D01*
X189152380Y-80042857D01*
X189128571Y-80019047D01*
X189080952Y-79995238D01*
X188676190Y-79995238D01*
X188676190Y-79804761D02*
X188676190Y-79495238D01*
X188866666Y-79661904D01*
X188866666Y-79590476D01*
X188890476Y-79542857D01*
X188914285Y-79519047D01*
X188961904Y-79495238D01*
X189080952Y-79495238D01*
X189128571Y-79519047D01*
X189152380Y-79542857D01*
X189176190Y-79590476D01*
X189176190Y-79733333D01*
X189152380Y-79780952D01*
X189128571Y-79804761D01*
G04 #@! TO.C,J2*
X172326190Y-88566666D02*
X172683333Y-88566666D01*
X172754761Y-88590476D01*
X172802380Y-88638095D01*
X172826190Y-88709523D01*
X172826190Y-88757142D01*
X172373809Y-88352380D02*
X172350000Y-88328571D01*
X172326190Y-88280952D01*
X172326190Y-88161904D01*
X172350000Y-88114285D01*
X172373809Y-88090476D01*
X172421428Y-88066666D01*
X172469047Y-88066666D01*
X172540476Y-88090476D01*
X172826190Y-88376190D01*
X172826190Y-88066666D01*
G04 #@! TO.C,R21*
X170378571Y-53726190D02*
X170211904Y-53488095D01*
X170092857Y-53726190D02*
X170092857Y-53226190D01*
X170283333Y-53226190D01*
X170330952Y-53250000D01*
X170354761Y-53273809D01*
X170378571Y-53321428D01*
X170378571Y-53392857D01*
X170354761Y-53440476D01*
X170330952Y-53464285D01*
X170283333Y-53488095D01*
X170092857Y-53488095D01*
X170569047Y-53273809D02*
X170592857Y-53250000D01*
X170640476Y-53226190D01*
X170759523Y-53226190D01*
X170807142Y-53250000D01*
X170830952Y-53273809D01*
X170854761Y-53321428D01*
X170854761Y-53369047D01*
X170830952Y-53440476D01*
X170545238Y-53726190D01*
X170854761Y-53726190D01*
X171330952Y-53726190D02*
X171045238Y-53726190D01*
X171188095Y-53726190D02*
X171188095Y-53226190D01*
X171140476Y-53297619D01*
X171092857Y-53345238D01*
X171045238Y-53369047D01*
G04 #@! TO.C,U4*
X177019047Y-51826190D02*
X177019047Y-52230952D01*
X177042857Y-52278571D01*
X177066666Y-52302380D01*
X177114285Y-52326190D01*
X177209523Y-52326190D01*
X177257142Y-52302380D01*
X177280952Y-52278571D01*
X177304761Y-52230952D01*
X177304761Y-51826190D01*
X177757142Y-51992857D02*
X177757142Y-52326190D01*
X177638095Y-51802380D02*
X177519047Y-52159523D01*
X177828571Y-52159523D01*
G04 #@! TO.C,J1*
X217126190Y-88066666D02*
X217483333Y-88066666D01*
X217554761Y-88090476D01*
X217602380Y-88138095D01*
X217626190Y-88209523D01*
X217626190Y-88257142D01*
X217626190Y-87566666D02*
X217626190Y-87852380D01*
X217626190Y-87709523D02*
X217126190Y-87709523D01*
X217197619Y-87757142D01*
X217245238Y-87804761D01*
X217269047Y-87852380D01*
G04 #@! TO.C,BZ1*
X210559523Y-88764285D02*
X210630952Y-88788095D01*
X210654761Y-88811904D01*
X210678571Y-88859523D01*
X210678571Y-88930952D01*
X210654761Y-88978571D01*
X210630952Y-89002380D01*
X210583333Y-89026190D01*
X210392857Y-89026190D01*
X210392857Y-88526190D01*
X210559523Y-88526190D01*
X210607142Y-88550000D01*
X210630952Y-88573809D01*
X210654761Y-88621428D01*
X210654761Y-88669047D01*
X210630952Y-88716666D01*
X210607142Y-88740476D01*
X210559523Y-88764285D01*
X210392857Y-88764285D01*
X210845238Y-88526190D02*
X211178571Y-88526190D01*
X210845238Y-89026190D01*
X211178571Y-89026190D01*
X211630952Y-89026190D02*
X211345238Y-89026190D01*
X211488095Y-89026190D02*
X211488095Y-88526190D01*
X211440476Y-88597619D01*
X211392857Y-88645238D01*
X211345238Y-88669047D01*
D14*
X208531428Y-86290952D02*
X208531428Y-85529047D01*
X208912380Y-85910000D02*
X208150476Y-85910000D01*
G04 #@! TO.C,J4*
D16*
X183733333Y-108626190D02*
X183733333Y-108983333D01*
X183709523Y-109054761D01*
X183661904Y-109102380D01*
X183590476Y-109126190D01*
X183542857Y-109126190D01*
X184185714Y-108792857D02*
X184185714Y-109126190D01*
X184066666Y-108602380D02*
X183947619Y-108959523D01*
X184257142Y-108959523D01*
G04 #@! TO.C,C3*
X205578571Y-98183333D02*
X205602380Y-98207142D01*
X205626190Y-98278571D01*
X205626190Y-98326190D01*
X205602380Y-98397619D01*
X205554761Y-98445238D01*
X205507142Y-98469047D01*
X205411904Y-98492857D01*
X205340476Y-98492857D01*
X205245238Y-98469047D01*
X205197619Y-98445238D01*
X205150000Y-98397619D01*
X205126190Y-98326190D01*
X205126190Y-98278571D01*
X205150000Y-98207142D01*
X205173809Y-98183333D01*
X205126190Y-98016666D02*
X205126190Y-97707142D01*
X205316666Y-97873809D01*
X205316666Y-97802380D01*
X205340476Y-97754761D01*
X205364285Y-97730952D01*
X205411904Y-97707142D01*
X205530952Y-97707142D01*
X205578571Y-97730952D01*
X205602380Y-97754761D01*
X205626190Y-97802380D01*
X205626190Y-97945238D01*
X205602380Y-97992857D01*
X205578571Y-98016666D01*
G04 #@! TO.C,C2*
X209968460Y-108078571D02*
X209944651Y-108102380D01*
X209873222Y-108126190D01*
X209825603Y-108126190D01*
X209754174Y-108102380D01*
X209706555Y-108054761D01*
X209682746Y-108007142D01*
X209658936Y-107911904D01*
X209658936Y-107840476D01*
X209682746Y-107745238D01*
X209706555Y-107697619D01*
X209754174Y-107650000D01*
X209825603Y-107626190D01*
X209873222Y-107626190D01*
X209944651Y-107650000D01*
X209968460Y-107673809D01*
X210158936Y-107673809D02*
X210182746Y-107650000D01*
X210230365Y-107626190D01*
X210349413Y-107626190D01*
X210397032Y-107650000D01*
X210420841Y-107673809D01*
X210444651Y-107721428D01*
X210444651Y-107769047D01*
X210420841Y-107840476D01*
X210135127Y-108126190D01*
X210444651Y-108126190D01*
G04 #@! TO.C,C1*
X213116666Y-94978571D02*
X213092857Y-95002380D01*
X213021428Y-95026190D01*
X212973809Y-95026190D01*
X212902380Y-95002380D01*
X212854761Y-94954761D01*
X212830952Y-94907142D01*
X212807142Y-94811904D01*
X212807142Y-94740476D01*
X212830952Y-94645238D01*
X212854761Y-94597619D01*
X212902380Y-94550000D01*
X212973809Y-94526190D01*
X213021428Y-94526190D01*
X213092857Y-94550000D01*
X213116666Y-94573809D01*
X213592857Y-95026190D02*
X213307142Y-95026190D01*
X213450000Y-95026190D02*
X213450000Y-94526190D01*
X213402380Y-94597619D01*
X213354761Y-94645238D01*
X213307142Y-94669047D01*
G04 #@! TO.C,L2*
X198216666Y-74026190D02*
X197978571Y-74026190D01*
X197978571Y-73526190D01*
X198359523Y-73573809D02*
X198383333Y-73550000D01*
X198430952Y-73526190D01*
X198550000Y-73526190D01*
X198597619Y-73550000D01*
X198621428Y-73573809D01*
X198645238Y-73621428D01*
X198645238Y-73669047D01*
X198621428Y-73740476D01*
X198335714Y-74026190D01*
X198645238Y-74026190D01*
G04 #@! TO.C,C9*
X198016666Y-86578571D02*
X197992857Y-86602380D01*
X197921428Y-86626190D01*
X197873809Y-86626190D01*
X197802380Y-86602380D01*
X197754761Y-86554761D01*
X197730952Y-86507142D01*
X197707142Y-86411904D01*
X197707142Y-86340476D01*
X197730952Y-86245238D01*
X197754761Y-86197619D01*
X197802380Y-86150000D01*
X197873809Y-86126190D01*
X197921428Y-86126190D01*
X197992857Y-86150000D01*
X198016666Y-86173809D01*
X198254761Y-86626190D02*
X198350000Y-86626190D01*
X198397619Y-86602380D01*
X198421428Y-86578571D01*
X198469047Y-86507142D01*
X198492857Y-86411904D01*
X198492857Y-86221428D01*
X198469047Y-86173809D01*
X198445238Y-86150000D01*
X198397619Y-86126190D01*
X198302380Y-86126190D01*
X198254761Y-86150000D01*
X198230952Y-86173809D01*
X198207142Y-86221428D01*
X198207142Y-86340476D01*
X198230952Y-86388095D01*
X198254761Y-86411904D01*
X198302380Y-86435714D01*
X198397619Y-86435714D01*
X198445238Y-86411904D01*
X198469047Y-86388095D01*
X198492857Y-86340476D01*
G04 #@! TO.C,SW2*
X190502380Y-97966666D02*
X190526190Y-97895238D01*
X190526190Y-97776190D01*
X190502380Y-97728571D01*
X190478571Y-97704761D01*
X190430952Y-97680952D01*
X190383333Y-97680952D01*
X190335714Y-97704761D01*
X190311904Y-97728571D01*
X190288095Y-97776190D01*
X190264285Y-97871428D01*
X190240476Y-97919047D01*
X190216666Y-97942857D01*
X190169047Y-97966666D01*
X190121428Y-97966666D01*
X190073809Y-97942857D01*
X190050000Y-97919047D01*
X190026190Y-97871428D01*
X190026190Y-97752380D01*
X190050000Y-97680952D01*
X190026190Y-97514285D02*
X190526190Y-97395238D01*
X190169047Y-97300000D01*
X190526190Y-97204761D01*
X190026190Y-97085714D01*
X190073809Y-96919047D02*
X190050000Y-96895238D01*
X190026190Y-96847619D01*
X190026190Y-96728571D01*
X190050000Y-96680952D01*
X190073809Y-96657142D01*
X190121428Y-96633333D01*
X190169047Y-96633333D01*
X190240476Y-96657142D01*
X190526190Y-96942857D01*
X190526190Y-96633333D01*
G04 #@! TO.C,C7*
X190716666Y-86578571D02*
X190692857Y-86602380D01*
X190621428Y-86626190D01*
X190573809Y-86626190D01*
X190502380Y-86602380D01*
X190454761Y-86554761D01*
X190430952Y-86507142D01*
X190407142Y-86411904D01*
X190407142Y-86340476D01*
X190430952Y-86245238D01*
X190454761Y-86197619D01*
X190502380Y-86150000D01*
X190573809Y-86126190D01*
X190621428Y-86126190D01*
X190692857Y-86150000D01*
X190716666Y-86173809D01*
X190883333Y-86126190D02*
X191216666Y-86126190D01*
X191002380Y-86626190D01*
G04 #@! TO.C,C6*
X193478571Y-74083333D02*
X193502380Y-74107142D01*
X193526190Y-74178571D01*
X193526190Y-74226190D01*
X193502380Y-74297619D01*
X193454761Y-74345238D01*
X193407142Y-74369047D01*
X193311904Y-74392857D01*
X193240476Y-74392857D01*
X193145238Y-74369047D01*
X193097619Y-74345238D01*
X193050000Y-74297619D01*
X193026190Y-74226190D01*
X193026190Y-74178571D01*
X193050000Y-74107142D01*
X193073809Y-74083333D01*
X193026190Y-73654761D02*
X193026190Y-73750000D01*
X193050000Y-73797619D01*
X193073809Y-73821428D01*
X193145238Y-73869047D01*
X193240476Y-73892857D01*
X193430952Y-73892857D01*
X193478571Y-73869047D01*
X193502380Y-73845238D01*
X193526190Y-73797619D01*
X193526190Y-73702380D01*
X193502380Y-73654761D01*
X193478571Y-73630952D01*
X193430952Y-73607142D01*
X193311904Y-73607142D01*
X193264285Y-73630952D01*
X193240476Y-73654761D01*
X193216666Y-73702380D01*
X193216666Y-73797619D01*
X193240476Y-73845238D01*
X193264285Y-73869047D01*
X193311904Y-73892857D01*
G04 #@! TO.C,C5*
X200016666Y-93578571D02*
X199992857Y-93602380D01*
X199921428Y-93626190D01*
X199873809Y-93626190D01*
X199802380Y-93602380D01*
X199754761Y-93554761D01*
X199730952Y-93507142D01*
X199707142Y-93411904D01*
X199707142Y-93340476D01*
X199730952Y-93245238D01*
X199754761Y-93197619D01*
X199802380Y-93150000D01*
X199873809Y-93126190D01*
X199921428Y-93126190D01*
X199992857Y-93150000D01*
X200016666Y-93173809D01*
X200469047Y-93126190D02*
X200230952Y-93126190D01*
X200207142Y-93364285D01*
X200230952Y-93340476D01*
X200278571Y-93316666D01*
X200397619Y-93316666D01*
X200445238Y-93340476D01*
X200469047Y-93364285D01*
X200492857Y-93411904D01*
X200492857Y-93530952D01*
X200469047Y-93578571D01*
X200445238Y-93602380D01*
X200397619Y-93626190D01*
X200278571Y-93626190D01*
X200230952Y-93602380D01*
X200207142Y-93578571D01*
G04 #@! TO.C,C4*
X192816666Y-93578571D02*
X192792857Y-93602380D01*
X192721428Y-93626190D01*
X192673809Y-93626190D01*
X192602380Y-93602380D01*
X192554761Y-93554761D01*
X192530952Y-93507142D01*
X192507142Y-93411904D01*
X192507142Y-93340476D01*
X192530952Y-93245238D01*
X192554761Y-93197619D01*
X192602380Y-93150000D01*
X192673809Y-93126190D01*
X192721428Y-93126190D01*
X192792857Y-93150000D01*
X192816666Y-93173809D01*
X193245238Y-93292857D02*
X193245238Y-93626190D01*
X193126190Y-93102380D02*
X193007142Y-93459523D01*
X193316666Y-93459523D01*
G04 #@! TO.C,C8*
X193478571Y-72583333D02*
X193502380Y-72607142D01*
X193526190Y-72678571D01*
X193526190Y-72726190D01*
X193502380Y-72797619D01*
X193454761Y-72845238D01*
X193407142Y-72869047D01*
X193311904Y-72892857D01*
X193240476Y-72892857D01*
X193145238Y-72869047D01*
X193097619Y-72845238D01*
X193050000Y-72797619D01*
X193026190Y-72726190D01*
X193026190Y-72678571D01*
X193050000Y-72607142D01*
X193073809Y-72583333D01*
X193240476Y-72297619D02*
X193216666Y-72345238D01*
X193192857Y-72369047D01*
X193145238Y-72392857D01*
X193121428Y-72392857D01*
X193073809Y-72369047D01*
X193050000Y-72345238D01*
X193026190Y-72297619D01*
X193026190Y-72202380D01*
X193050000Y-72154761D01*
X193073809Y-72130952D01*
X193121428Y-72107142D01*
X193145238Y-72107142D01*
X193192857Y-72130952D01*
X193216666Y-72154761D01*
X193240476Y-72202380D01*
X193240476Y-72297619D01*
X193264285Y-72345238D01*
X193288095Y-72369047D01*
X193335714Y-72392857D01*
X193430952Y-72392857D01*
X193478571Y-72369047D01*
X193502380Y-72345238D01*
X193526190Y-72297619D01*
X193526190Y-72202380D01*
X193502380Y-72154761D01*
X193478571Y-72130952D01*
X193430952Y-72107142D01*
X193335714Y-72107142D01*
X193288095Y-72130952D01*
X193264285Y-72154761D01*
X193240476Y-72202380D01*
G04 #@! TO.C,D11*
X172092857Y-52426190D02*
X172092857Y-51926190D01*
X172211904Y-51926190D01*
X172283333Y-51950000D01*
X172330952Y-51997619D01*
X172354761Y-52045238D01*
X172378571Y-52140476D01*
X172378571Y-52211904D01*
X172354761Y-52307142D01*
X172330952Y-52354761D01*
X172283333Y-52402380D01*
X172211904Y-52426190D01*
X172092857Y-52426190D01*
X172854761Y-52426190D02*
X172569047Y-52426190D01*
X172711904Y-52426190D02*
X172711904Y-51926190D01*
X172664285Y-51997619D01*
X172616666Y-52045238D01*
X172569047Y-52069047D01*
X173330952Y-52426190D02*
X173045238Y-52426190D01*
X173188095Y-52426190D02*
X173188095Y-51926190D01*
X173140476Y-51997619D01*
X173092857Y-52045238D01*
X173045238Y-52069047D01*
G04 #@! TO.C,D14*
X217726190Y-64307142D02*
X217226190Y-64307142D01*
X217226190Y-64188095D01*
X217250000Y-64116666D01*
X217297619Y-64069047D01*
X217345238Y-64045238D01*
X217440476Y-64021428D01*
X217511904Y-64021428D01*
X217607142Y-64045238D01*
X217654761Y-64069047D01*
X217702380Y-64116666D01*
X217726190Y-64188095D01*
X217726190Y-64307142D01*
X217726190Y-63545238D02*
X217726190Y-63830952D01*
X217726190Y-63688095D02*
X217226190Y-63688095D01*
X217297619Y-63735714D01*
X217345238Y-63783333D01*
X217369047Y-63830952D01*
X217392857Y-63116666D02*
X217726190Y-63116666D01*
X217202380Y-63235714D02*
X217559523Y-63354761D01*
X217559523Y-63045238D01*
G04 #@! TO.C,D13*
X181292857Y-67326190D02*
X181292857Y-66826190D01*
X181411904Y-66826190D01*
X181483333Y-66850000D01*
X181530952Y-66897619D01*
X181554761Y-66945238D01*
X181578571Y-67040476D01*
X181578571Y-67111904D01*
X181554761Y-67207142D01*
X181530952Y-67254761D01*
X181483333Y-67302380D01*
X181411904Y-67326190D01*
X181292857Y-67326190D01*
X182054761Y-67326190D02*
X181769047Y-67326190D01*
X181911904Y-67326190D02*
X181911904Y-66826190D01*
X181864285Y-66897619D01*
X181816666Y-66945238D01*
X181769047Y-66969047D01*
X182221428Y-66826190D02*
X182530952Y-66826190D01*
X182364285Y-67016666D01*
X182435714Y-67016666D01*
X182483333Y-67040476D01*
X182507142Y-67064285D01*
X182530952Y-67111904D01*
X182530952Y-67230952D01*
X182507142Y-67278571D01*
X182483333Y-67302380D01*
X182435714Y-67326190D01*
X182292857Y-67326190D01*
X182245238Y-67302380D01*
X182221428Y-67278571D01*
G04 #@! TO.C,D12*
X217492857Y-52426190D02*
X217492857Y-51926190D01*
X217611904Y-51926190D01*
X217683333Y-51950000D01*
X217730952Y-51997619D01*
X217754761Y-52045238D01*
X217778571Y-52140476D01*
X217778571Y-52211904D01*
X217754761Y-52307142D01*
X217730952Y-52354761D01*
X217683333Y-52402380D01*
X217611904Y-52426190D01*
X217492857Y-52426190D01*
X218254761Y-52426190D02*
X217969047Y-52426190D01*
X218111904Y-52426190D02*
X218111904Y-51926190D01*
X218064285Y-51997619D01*
X218016666Y-52045238D01*
X217969047Y-52069047D01*
X218445238Y-51973809D02*
X218469047Y-51950000D01*
X218516666Y-51926190D01*
X218635714Y-51926190D01*
X218683333Y-51950000D01*
X218707142Y-51973809D01*
X218730952Y-52021428D01*
X218730952Y-52069047D01*
X218707142Y-52140476D01*
X218421428Y-52426190D01*
X218730952Y-52426190D01*
G04 #@! TO.C,D10*
X217626190Y-68607142D02*
X217126190Y-68607142D01*
X217126190Y-68488095D01*
X217150000Y-68416666D01*
X217197619Y-68369047D01*
X217245238Y-68345238D01*
X217340476Y-68321428D01*
X217411904Y-68321428D01*
X217507142Y-68345238D01*
X217554761Y-68369047D01*
X217602380Y-68416666D01*
X217626190Y-68488095D01*
X217626190Y-68607142D01*
X217626190Y-67845238D02*
X217626190Y-68130952D01*
X217626190Y-67988095D02*
X217126190Y-67988095D01*
X217197619Y-68035714D01*
X217245238Y-68083333D01*
X217269047Y-68130952D01*
X217126190Y-67535714D02*
X217126190Y-67488095D01*
X217150000Y-67440476D01*
X217173809Y-67416666D01*
X217221428Y-67392857D01*
X217316666Y-67369047D01*
X217435714Y-67369047D01*
X217530952Y-67392857D01*
X217578571Y-67416666D01*
X217602380Y-67440476D01*
X217626190Y-67488095D01*
X217626190Y-67535714D01*
X217602380Y-67583333D01*
X217578571Y-67607142D01*
X217530952Y-67630952D01*
X217435714Y-67654761D01*
X217316666Y-67654761D01*
X217221428Y-67630952D01*
X217173809Y-67607142D01*
X217150000Y-67583333D01*
X217126190Y-67535714D01*
G04 #@! TO.C,D9*
X175330952Y-67326190D02*
X175330952Y-66826190D01*
X175450000Y-66826190D01*
X175521428Y-66850000D01*
X175569047Y-66897619D01*
X175592857Y-66945238D01*
X175616666Y-67040476D01*
X175616666Y-67111904D01*
X175592857Y-67207142D01*
X175569047Y-67254761D01*
X175521428Y-67302380D01*
X175450000Y-67326190D01*
X175330952Y-67326190D01*
X175854761Y-67326190D02*
X175950000Y-67326190D01*
X175997619Y-67302380D01*
X176021428Y-67278571D01*
X176069047Y-67207142D01*
X176092857Y-67111904D01*
X176092857Y-66921428D01*
X176069047Y-66873809D01*
X176045238Y-66850000D01*
X175997619Y-66826190D01*
X175902380Y-66826190D01*
X175854761Y-66850000D01*
X175830952Y-66873809D01*
X175807142Y-66921428D01*
X175807142Y-67040476D01*
X175830952Y-67088095D01*
X175854761Y-67111904D01*
X175902380Y-67135714D01*
X175997619Y-67135714D01*
X176045238Y-67111904D01*
X176069047Y-67088095D01*
X176092857Y-67040476D01*
G04 #@! TO.C,D1*
X218930952Y-100126190D02*
X218930952Y-99626190D01*
X219050000Y-99626190D01*
X219121428Y-99650000D01*
X219169047Y-99697619D01*
X219192857Y-99745238D01*
X219216666Y-99840476D01*
X219216666Y-99911904D01*
X219192857Y-100007142D01*
X219169047Y-100054761D01*
X219121428Y-100102380D01*
X219050000Y-100126190D01*
X218930952Y-100126190D01*
X219692857Y-100126190D02*
X219407142Y-100126190D01*
X219550000Y-100126190D02*
X219550000Y-99626190D01*
X219502380Y-99697619D01*
X219454761Y-99745238D01*
X219407142Y-99769047D01*
G04 #@! TO.C,J3*
X172326190Y-97366666D02*
X172683333Y-97366666D01*
X172754761Y-97390476D01*
X172802380Y-97438095D01*
X172826190Y-97509523D01*
X172826190Y-97557142D01*
X172326190Y-97176190D02*
X172326190Y-96866666D01*
X172516666Y-97033333D01*
X172516666Y-96961904D01*
X172540476Y-96914285D01*
X172564285Y-96890476D01*
X172611904Y-96866666D01*
X172730952Y-96866666D01*
X172778571Y-96890476D01*
X172802380Y-96914285D01*
X172826190Y-96961904D01*
X172826190Y-97104761D01*
X172802380Y-97152380D01*
X172778571Y-97176190D01*
G04 #@! TO.C,J5*
X172326190Y-71766666D02*
X172683333Y-71766666D01*
X172754761Y-71790476D01*
X172802380Y-71838095D01*
X172826190Y-71909523D01*
X172826190Y-71957142D01*
X172326190Y-71290476D02*
X172326190Y-71528571D01*
X172564285Y-71552380D01*
X172540476Y-71528571D01*
X172516666Y-71480952D01*
X172516666Y-71361904D01*
X172540476Y-71314285D01*
X172564285Y-71290476D01*
X172611904Y-71266666D01*
X172730952Y-71266666D01*
X172778571Y-71290476D01*
X172802380Y-71314285D01*
X172826190Y-71361904D01*
X172826190Y-71480952D01*
X172802380Y-71528571D01*
X172778571Y-71552380D01*
G04 #@! TO.C,J7*
X172326190Y-63266666D02*
X172683333Y-63266666D01*
X172754761Y-63290476D01*
X172802380Y-63338095D01*
X172826190Y-63409523D01*
X172826190Y-63457142D01*
X172326190Y-63076190D02*
X172326190Y-62742857D01*
X172826190Y-62957142D01*
G04 #@! TO.C,J8*
X217026190Y-62666666D02*
X217383333Y-62666666D01*
X217454761Y-62690476D01*
X217502380Y-62738095D01*
X217526190Y-62809523D01*
X217526190Y-62857142D01*
X217240476Y-62357142D02*
X217216666Y-62404761D01*
X217192857Y-62428571D01*
X217145238Y-62452380D01*
X217121428Y-62452380D01*
X217073809Y-62428571D01*
X217050000Y-62404761D01*
X217026190Y-62357142D01*
X217026190Y-62261904D01*
X217050000Y-62214285D01*
X217073809Y-62190476D01*
X217121428Y-62166666D01*
X217145238Y-62166666D01*
X217192857Y-62190476D01*
X217216666Y-62214285D01*
X217240476Y-62261904D01*
X217240476Y-62357142D01*
X217264285Y-62404761D01*
X217288095Y-62428571D01*
X217335714Y-62452380D01*
X217430952Y-62452380D01*
X217478571Y-62428571D01*
X217502380Y-62404761D01*
X217526190Y-62357142D01*
X217526190Y-62261904D01*
X217502380Y-62214285D01*
X217478571Y-62190476D01*
X217430952Y-62166666D01*
X217335714Y-62166666D01*
X217288095Y-62190476D01*
X217264285Y-62214285D01*
X217240476Y-62261904D01*
G04 #@! TO.C,J9*
X172326190Y-80566666D02*
X172683333Y-80566666D01*
X172754761Y-80590476D01*
X172802380Y-80638095D01*
X172826190Y-80709523D01*
X172826190Y-80757142D01*
X172826190Y-80304761D02*
X172826190Y-80209523D01*
X172802380Y-80161904D01*
X172778571Y-80138095D01*
X172707142Y-80090476D01*
X172611904Y-80066666D01*
X172421428Y-80066666D01*
X172373809Y-80090476D01*
X172350000Y-80114285D01*
X172326190Y-80161904D01*
X172326190Y-80257142D01*
X172350000Y-80304761D01*
X172373809Y-80328571D01*
X172421428Y-80352380D01*
X172540476Y-80352380D01*
X172588095Y-80328571D01*
X172611904Y-80304761D01*
X172635714Y-80257142D01*
X172635714Y-80161904D01*
X172611904Y-80114285D01*
X172588095Y-80090476D01*
X172540476Y-80066666D01*
G04 #@! TO.C,J10*
X217026190Y-71904761D02*
X217383333Y-71904761D01*
X217454761Y-71928571D01*
X217502380Y-71976190D01*
X217526190Y-72047619D01*
X217526190Y-72095238D01*
X217526190Y-71404761D02*
X217526190Y-71690476D01*
X217526190Y-71547619D02*
X217026190Y-71547619D01*
X217097619Y-71595238D01*
X217145238Y-71642857D01*
X217169047Y-71690476D01*
X217026190Y-71095238D02*
X217026190Y-71047619D01*
X217050000Y-71000000D01*
X217073809Y-70976190D01*
X217121428Y-70952380D01*
X217216666Y-70928571D01*
X217335714Y-70928571D01*
X217430952Y-70952380D01*
X217478571Y-70976190D01*
X217502380Y-71000000D01*
X217526190Y-71047619D01*
X217526190Y-71095238D01*
X217502380Y-71142857D01*
X217478571Y-71166666D01*
X217430952Y-71190476D01*
X217335714Y-71214285D01*
X217216666Y-71214285D01*
X217121428Y-71190476D01*
X217073809Y-71166666D01*
X217050000Y-71142857D01*
X217026190Y-71095238D01*
G04 #@! TO.C,J6*
X217026190Y-76766666D02*
X217383333Y-76766666D01*
X217454761Y-76790476D01*
X217502380Y-76838095D01*
X217526190Y-76909523D01*
X217526190Y-76957142D01*
X217026190Y-76314285D02*
X217026190Y-76409523D01*
X217050000Y-76457142D01*
X217073809Y-76480952D01*
X217145238Y-76528571D01*
X217240476Y-76552380D01*
X217430952Y-76552380D01*
X217478571Y-76528571D01*
X217502380Y-76504761D01*
X217526190Y-76457142D01*
X217526190Y-76361904D01*
X217502380Y-76314285D01*
X217478571Y-76290476D01*
X217430952Y-76266666D01*
X217311904Y-76266666D01*
X217264285Y-76290476D01*
X217240476Y-76314285D01*
X217216666Y-76361904D01*
X217216666Y-76457142D01*
X217240476Y-76504761D01*
X217264285Y-76528571D01*
X217311904Y-76552380D01*
G04 #@! TO.C,D7*
X200026190Y-86469047D02*
X199526190Y-86469047D01*
X199526190Y-86350000D01*
X199550000Y-86278571D01*
X199597619Y-86230952D01*
X199645238Y-86207142D01*
X199740476Y-86183333D01*
X199811904Y-86183333D01*
X199907142Y-86207142D01*
X199954761Y-86230952D01*
X200002380Y-86278571D01*
X200026190Y-86350000D01*
X200026190Y-86469047D01*
X199526190Y-86016666D02*
X199526190Y-85683333D01*
X200026190Y-85897619D01*
G04 #@! TO.C,D5*
X187230952Y-93826190D02*
X187230952Y-93326190D01*
X187350000Y-93326190D01*
X187421428Y-93350000D01*
X187469047Y-93397619D01*
X187492857Y-93445238D01*
X187516666Y-93540476D01*
X187516666Y-93611904D01*
X187492857Y-93707142D01*
X187469047Y-93754761D01*
X187421428Y-93802380D01*
X187350000Y-93826190D01*
X187230952Y-93826190D01*
X187969047Y-93326190D02*
X187730952Y-93326190D01*
X187707142Y-93564285D01*
X187730952Y-93540476D01*
X187778571Y-93516666D01*
X187897619Y-93516666D01*
X187945238Y-93540476D01*
X187969047Y-93564285D01*
X187992857Y-93611904D01*
X187992857Y-93730952D01*
X187969047Y-93778571D01*
X187945238Y-93802380D01*
X187897619Y-93826190D01*
X187778571Y-93826190D01*
X187730952Y-93802380D01*
X187707142Y-93778571D01*
G04 #@! TO.C,D8*
X204826190Y-86569047D02*
X204326190Y-86569047D01*
X204326190Y-86450000D01*
X204350000Y-86378571D01*
X204397619Y-86330952D01*
X204445238Y-86307142D01*
X204540476Y-86283333D01*
X204611904Y-86283333D01*
X204707142Y-86307142D01*
X204754761Y-86330952D01*
X204802380Y-86378571D01*
X204826190Y-86450000D01*
X204826190Y-86569047D01*
X204540476Y-85997619D02*
X204516666Y-86045238D01*
X204492857Y-86069047D01*
X204445238Y-86092857D01*
X204421428Y-86092857D01*
X204373809Y-86069047D01*
X204350000Y-86045238D01*
X204326190Y-85997619D01*
X204326190Y-85902380D01*
X204350000Y-85854761D01*
X204373809Y-85830952D01*
X204421428Y-85807142D01*
X204445238Y-85807142D01*
X204492857Y-85830952D01*
X204516666Y-85854761D01*
X204540476Y-85902380D01*
X204540476Y-85997619D01*
X204564285Y-86045238D01*
X204588095Y-86069047D01*
X204635714Y-86092857D01*
X204730952Y-86092857D01*
X204778571Y-86069047D01*
X204802380Y-86045238D01*
X204826190Y-85997619D01*
X204826190Y-85902380D01*
X204802380Y-85854761D01*
X204778571Y-85830952D01*
X204730952Y-85807142D01*
X204635714Y-85807142D01*
X204588095Y-85830952D01*
X204564285Y-85854761D01*
X204540476Y-85902380D01*
G04 #@! TO.C,D2*
X214630952Y-88426190D02*
X214630952Y-87926190D01*
X214750000Y-87926190D01*
X214821428Y-87950000D01*
X214869047Y-87997619D01*
X214892857Y-88045238D01*
X214916666Y-88140476D01*
X214916666Y-88211904D01*
X214892857Y-88307142D01*
X214869047Y-88354761D01*
X214821428Y-88402380D01*
X214750000Y-88426190D01*
X214630952Y-88426190D01*
X215107142Y-87973809D02*
X215130952Y-87950000D01*
X215178571Y-87926190D01*
X215297619Y-87926190D01*
X215345238Y-87950000D01*
X215369047Y-87973809D01*
X215392857Y-88021428D01*
X215392857Y-88069047D01*
X215369047Y-88140476D01*
X215083333Y-88426190D01*
X215392857Y-88426190D01*
G04 #@! TO.C,D3*
X217426190Y-104169047D02*
X216926190Y-104169047D01*
X216926190Y-104050000D01*
X216950000Y-103978571D01*
X216997619Y-103930952D01*
X217045238Y-103907142D01*
X217140476Y-103883333D01*
X217211904Y-103883333D01*
X217307142Y-103907142D01*
X217354761Y-103930952D01*
X217402380Y-103978571D01*
X217426190Y-104050000D01*
X217426190Y-104169047D01*
X216926190Y-103716666D02*
X216926190Y-103407142D01*
X217116666Y-103573809D01*
X217116666Y-103502380D01*
X217140476Y-103454761D01*
X217164285Y-103430952D01*
X217211904Y-103407142D01*
X217330952Y-103407142D01*
X217378571Y-103430952D01*
X217402380Y-103454761D01*
X217426190Y-103502380D01*
X217426190Y-103645238D01*
X217402380Y-103692857D01*
X217378571Y-103716666D01*
G04 #@! TO.C,D4*
X173126190Y-95369047D02*
X172626190Y-95369047D01*
X172626190Y-95250000D01*
X172650000Y-95178571D01*
X172697619Y-95130952D01*
X172745238Y-95107142D01*
X172840476Y-95083333D01*
X172911904Y-95083333D01*
X173007142Y-95107142D01*
X173054761Y-95130952D01*
X173102380Y-95178571D01*
X173126190Y-95250000D01*
X173126190Y-95369047D01*
X172792857Y-94654761D02*
X173126190Y-94654761D01*
X172602380Y-94773809D02*
X172959523Y-94892857D01*
X172959523Y-94583333D01*
G04 #@! TO.C,U5*
X211419047Y-51626190D02*
X211419047Y-52030952D01*
X211442857Y-52078571D01*
X211466666Y-52102380D01*
X211514285Y-52126190D01*
X211609523Y-52126190D01*
X211657142Y-52102380D01*
X211680952Y-52078571D01*
X211704761Y-52030952D01*
X211704761Y-51626190D01*
X212180952Y-51626190D02*
X211942857Y-51626190D01*
X211919047Y-51864285D01*
X211942857Y-51840476D01*
X211990476Y-51816666D01*
X212109523Y-51816666D01*
X212157142Y-51840476D01*
X212180952Y-51864285D01*
X212204761Y-51911904D01*
X212204761Y-52030952D01*
X212180952Y-52078571D01*
X212157142Y-52102380D01*
X212109523Y-52126190D01*
X211990476Y-52126190D01*
X211942857Y-52102380D01*
X211919047Y-52078571D01*
G04 #@! TO.C,U1*
X208477984Y-101868571D02*
X208882746Y-101868571D01*
X208930365Y-101844761D01*
X208954174Y-101820952D01*
X208977984Y-101773333D01*
X208977984Y-101678095D01*
X208954174Y-101630476D01*
X208930365Y-101606666D01*
X208882746Y-101582857D01*
X208477984Y-101582857D01*
X208977984Y-101082857D02*
X208977984Y-101368571D01*
X208977984Y-101225714D02*
X208477984Y-101225714D01*
X208549413Y-101273333D01*
X208597032Y-101320952D01*
X208620841Y-101368571D01*
G04 #@! TO.C,Q4*
X179773809Y-99247619D02*
X179750000Y-99295238D01*
X179702380Y-99342857D01*
X179630952Y-99414285D01*
X179607142Y-99461904D01*
X179607142Y-99509523D01*
X179726190Y-99485714D02*
X179702380Y-99533333D01*
X179654761Y-99580952D01*
X179559523Y-99604761D01*
X179392857Y-99604761D01*
X179297619Y-99580952D01*
X179250000Y-99533333D01*
X179226190Y-99485714D01*
X179226190Y-99390476D01*
X179250000Y-99342857D01*
X179297619Y-99295238D01*
X179392857Y-99271428D01*
X179559523Y-99271428D01*
X179654761Y-99295238D01*
X179702380Y-99342857D01*
X179726190Y-99390476D01*
X179726190Y-99485714D01*
X179392857Y-98842857D02*
X179726190Y-98842857D01*
X179202380Y-98961904D02*
X179559523Y-99080952D01*
X179559523Y-98771428D01*
G04 #@! TO.C,Q5*
X180452380Y-102973809D02*
X180404761Y-102950000D01*
X180357142Y-102902380D01*
X180285714Y-102830952D01*
X180238095Y-102807142D01*
X180190476Y-102807142D01*
X180214285Y-102926190D02*
X180166666Y-102902380D01*
X180119047Y-102854761D01*
X180095238Y-102759523D01*
X180095238Y-102592857D01*
X180119047Y-102497619D01*
X180166666Y-102450000D01*
X180214285Y-102426190D01*
X180309523Y-102426190D01*
X180357142Y-102450000D01*
X180404761Y-102497619D01*
X180428571Y-102592857D01*
X180428571Y-102759523D01*
X180404761Y-102854761D01*
X180357142Y-102902380D01*
X180309523Y-102926190D01*
X180214285Y-102926190D01*
X180880952Y-102426190D02*
X180642857Y-102426190D01*
X180619047Y-102664285D01*
X180642857Y-102640476D01*
X180690476Y-102616666D01*
X180809523Y-102616666D01*
X180857142Y-102640476D01*
X180880952Y-102664285D01*
X180904761Y-102711904D01*
X180904761Y-102830952D01*
X180880952Y-102878571D01*
X180857142Y-102902380D01*
X180809523Y-102926190D01*
X180690476Y-102926190D01*
X180642857Y-102902380D01*
X180619047Y-102878571D01*
G04 #@! TO.C,Q3*
X182652380Y-99073809D02*
X182604761Y-99050000D01*
X182557142Y-99002380D01*
X182485714Y-98930952D01*
X182438095Y-98907142D01*
X182390476Y-98907142D01*
X182414285Y-99026190D02*
X182366666Y-99002380D01*
X182319047Y-98954761D01*
X182295238Y-98859523D01*
X182295238Y-98692857D01*
X182319047Y-98597619D01*
X182366666Y-98550000D01*
X182414285Y-98526190D01*
X182509523Y-98526190D01*
X182557142Y-98550000D01*
X182604761Y-98597619D01*
X182628571Y-98692857D01*
X182628571Y-98859523D01*
X182604761Y-98954761D01*
X182557142Y-99002380D01*
X182509523Y-99026190D01*
X182414285Y-99026190D01*
X182795238Y-98526190D02*
X183104761Y-98526190D01*
X182938095Y-98716666D01*
X183009523Y-98716666D01*
X183057142Y-98740476D01*
X183080952Y-98764285D01*
X183104761Y-98811904D01*
X183104761Y-98930952D01*
X183080952Y-98978571D01*
X183057142Y-99002380D01*
X183009523Y-99026190D01*
X182866666Y-99026190D01*
X182819047Y-99002380D01*
X182795238Y-98978571D01*
G04 #@! TO.C,Q2*
X176273809Y-95547619D02*
X176250000Y-95595238D01*
X176202380Y-95642857D01*
X176130952Y-95714285D01*
X176107142Y-95761904D01*
X176107142Y-95809523D01*
X176226190Y-95785714D02*
X176202380Y-95833333D01*
X176154761Y-95880952D01*
X176059523Y-95904761D01*
X175892857Y-95904761D01*
X175797619Y-95880952D01*
X175750000Y-95833333D01*
X175726190Y-95785714D01*
X175726190Y-95690476D01*
X175750000Y-95642857D01*
X175797619Y-95595238D01*
X175892857Y-95571428D01*
X176059523Y-95571428D01*
X176154761Y-95595238D01*
X176202380Y-95642857D01*
X176226190Y-95690476D01*
X176226190Y-95785714D01*
X175773809Y-95380952D02*
X175750000Y-95357142D01*
X175726190Y-95309523D01*
X175726190Y-95190476D01*
X175750000Y-95142857D01*
X175773809Y-95119047D01*
X175821428Y-95095238D01*
X175869047Y-95095238D01*
X175940476Y-95119047D01*
X176226190Y-95404761D01*
X176226190Y-95095238D01*
G04 #@! TO.C,Q1*
X217252380Y-93573809D02*
X217204761Y-93550000D01*
X217157142Y-93502380D01*
X217085714Y-93430952D01*
X217038095Y-93407142D01*
X216990476Y-93407142D01*
X217014285Y-93526190D02*
X216966666Y-93502380D01*
X216919047Y-93454761D01*
X216895238Y-93359523D01*
X216895238Y-93192857D01*
X216919047Y-93097619D01*
X216966666Y-93050000D01*
X217014285Y-93026190D01*
X217109523Y-93026190D01*
X217157142Y-93050000D01*
X217204761Y-93097619D01*
X217228571Y-93192857D01*
X217228571Y-93359523D01*
X217204761Y-93454761D01*
X217157142Y-93502380D01*
X217109523Y-93526190D01*
X217014285Y-93526190D01*
X217704761Y-93526190D02*
X217419047Y-93526190D01*
X217561904Y-93526190D02*
X217561904Y-93026190D01*
X217514285Y-93097619D01*
X217466666Y-93145238D01*
X217419047Y-93169047D01*
G04 #@! TO.C,Q7*
X179773809Y-106347619D02*
X179750000Y-106395238D01*
X179702380Y-106442857D01*
X179630952Y-106514285D01*
X179607142Y-106561904D01*
X179607142Y-106609523D01*
X179726190Y-106585714D02*
X179702380Y-106633333D01*
X179654761Y-106680952D01*
X179559523Y-106704761D01*
X179392857Y-106704761D01*
X179297619Y-106680952D01*
X179250000Y-106633333D01*
X179226190Y-106585714D01*
X179226190Y-106490476D01*
X179250000Y-106442857D01*
X179297619Y-106395238D01*
X179392857Y-106371428D01*
X179559523Y-106371428D01*
X179654761Y-106395238D01*
X179702380Y-106442857D01*
X179726190Y-106490476D01*
X179726190Y-106585714D01*
X179226190Y-106204761D02*
X179226190Y-105871428D01*
X179726190Y-106085714D01*
G04 #@! TO.C,Q8*
X202352380Y-74173809D02*
X202304761Y-74150000D01*
X202257142Y-74102380D01*
X202185714Y-74030952D01*
X202138095Y-74007142D01*
X202090476Y-74007142D01*
X202114285Y-74126190D02*
X202066666Y-74102380D01*
X202019047Y-74054761D01*
X201995238Y-73959523D01*
X201995238Y-73792857D01*
X202019047Y-73697619D01*
X202066666Y-73650000D01*
X202114285Y-73626190D01*
X202209523Y-73626190D01*
X202257142Y-73650000D01*
X202304761Y-73697619D01*
X202328571Y-73792857D01*
X202328571Y-73959523D01*
X202304761Y-74054761D01*
X202257142Y-74102380D01*
X202209523Y-74126190D01*
X202114285Y-74126190D01*
X202614285Y-73840476D02*
X202566666Y-73816666D01*
X202542857Y-73792857D01*
X202519047Y-73745238D01*
X202519047Y-73721428D01*
X202542857Y-73673809D01*
X202566666Y-73650000D01*
X202614285Y-73626190D01*
X202709523Y-73626190D01*
X202757142Y-73650000D01*
X202780952Y-73673809D01*
X202804761Y-73721428D01*
X202804761Y-73745238D01*
X202780952Y-73792857D01*
X202757142Y-73816666D01*
X202709523Y-73840476D01*
X202614285Y-73840476D01*
X202566666Y-73864285D01*
X202542857Y-73888095D01*
X202519047Y-73935714D01*
X202519047Y-74030952D01*
X202542857Y-74078571D01*
X202566666Y-74102380D01*
X202614285Y-74126190D01*
X202709523Y-74126190D01*
X202757142Y-74102380D01*
X202780952Y-74078571D01*
X202804761Y-74030952D01*
X202804761Y-73935714D01*
X202780952Y-73888095D01*
X202757142Y-73864285D01*
X202709523Y-73840476D01*
G04 #@! TO.C,Q9*
X174352380Y-60873809D02*
X174304761Y-60850000D01*
X174257142Y-60802380D01*
X174185714Y-60730952D01*
X174138095Y-60707142D01*
X174090476Y-60707142D01*
X174114285Y-60826190D02*
X174066666Y-60802380D01*
X174019047Y-60754761D01*
X173995238Y-60659523D01*
X173995238Y-60492857D01*
X174019047Y-60397619D01*
X174066666Y-60350000D01*
X174114285Y-60326190D01*
X174209523Y-60326190D01*
X174257142Y-60350000D01*
X174304761Y-60397619D01*
X174328571Y-60492857D01*
X174328571Y-60659523D01*
X174304761Y-60754761D01*
X174257142Y-60802380D01*
X174209523Y-60826190D01*
X174114285Y-60826190D01*
X174566666Y-60826190D02*
X174661904Y-60826190D01*
X174709523Y-60802380D01*
X174733333Y-60778571D01*
X174780952Y-60707142D01*
X174804761Y-60611904D01*
X174804761Y-60421428D01*
X174780952Y-60373809D01*
X174757142Y-60350000D01*
X174709523Y-60326190D01*
X174614285Y-60326190D01*
X174566666Y-60350000D01*
X174542857Y-60373809D01*
X174519047Y-60421428D01*
X174519047Y-60540476D01*
X174542857Y-60588095D01*
X174566666Y-60611904D01*
X174614285Y-60635714D01*
X174709523Y-60635714D01*
X174757142Y-60611904D01*
X174780952Y-60588095D01*
X174804761Y-60540476D01*
G04 #@! TO.C,Q10*
X212714285Y-67973809D02*
X212666666Y-67950000D01*
X212619047Y-67902380D01*
X212547619Y-67830952D01*
X212500000Y-67807142D01*
X212452380Y-67807142D01*
X212476190Y-67926190D02*
X212428571Y-67902380D01*
X212380952Y-67854761D01*
X212357142Y-67759523D01*
X212357142Y-67592857D01*
X212380952Y-67497619D01*
X212428571Y-67450000D01*
X212476190Y-67426190D01*
X212571428Y-67426190D01*
X212619047Y-67450000D01*
X212666666Y-67497619D01*
X212690476Y-67592857D01*
X212690476Y-67759523D01*
X212666666Y-67854761D01*
X212619047Y-67902380D01*
X212571428Y-67926190D01*
X212476190Y-67926190D01*
X213166666Y-67926190D02*
X212880952Y-67926190D01*
X213023809Y-67926190D02*
X213023809Y-67426190D01*
X212976190Y-67497619D01*
X212928571Y-67545238D01*
X212880952Y-67569047D01*
X213476190Y-67426190D02*
X213523809Y-67426190D01*
X213571428Y-67450000D01*
X213595238Y-67473809D01*
X213619047Y-67521428D01*
X213642857Y-67616666D01*
X213642857Y-67735714D01*
X213619047Y-67830952D01*
X213595238Y-67878571D01*
X213571428Y-67902380D01*
X213523809Y-67926190D01*
X213476190Y-67926190D01*
X213428571Y-67902380D01*
X213404761Y-67878571D01*
X213380952Y-67830952D01*
X213357142Y-67735714D01*
X213357142Y-67616666D01*
X213380952Y-67521428D01*
X213404761Y-67473809D01*
X213428571Y-67450000D01*
X213476190Y-67426190D01*
G04 #@! TO.C,Q11*
X179873809Y-62785714D02*
X179850000Y-62833333D01*
X179802380Y-62880952D01*
X179730952Y-62952380D01*
X179707142Y-63000000D01*
X179707142Y-63047619D01*
X179826190Y-63023809D02*
X179802380Y-63071428D01*
X179754761Y-63119047D01*
X179659523Y-63142857D01*
X179492857Y-63142857D01*
X179397619Y-63119047D01*
X179350000Y-63071428D01*
X179326190Y-63023809D01*
X179326190Y-62928571D01*
X179350000Y-62880952D01*
X179397619Y-62833333D01*
X179492857Y-62809523D01*
X179659523Y-62809523D01*
X179754761Y-62833333D01*
X179802380Y-62880952D01*
X179826190Y-62928571D01*
X179826190Y-63023809D01*
X179826190Y-62333333D02*
X179826190Y-62619047D01*
X179826190Y-62476190D02*
X179326190Y-62476190D01*
X179397619Y-62523809D01*
X179445238Y-62571428D01*
X179469047Y-62619047D01*
X179826190Y-61857142D02*
X179826190Y-62142857D01*
X179826190Y-62000000D02*
X179326190Y-62000000D01*
X179397619Y-62047619D01*
X179445238Y-62095238D01*
X179469047Y-62142857D01*
G04 #@! TO.C,Q12*
X212714285Y-62573809D02*
X212666666Y-62550000D01*
X212619047Y-62502380D01*
X212547619Y-62430952D01*
X212500000Y-62407142D01*
X212452380Y-62407142D01*
X212476190Y-62526190D02*
X212428571Y-62502380D01*
X212380952Y-62454761D01*
X212357142Y-62359523D01*
X212357142Y-62192857D01*
X212380952Y-62097619D01*
X212428571Y-62050000D01*
X212476190Y-62026190D01*
X212571428Y-62026190D01*
X212619047Y-62050000D01*
X212666666Y-62097619D01*
X212690476Y-62192857D01*
X212690476Y-62359523D01*
X212666666Y-62454761D01*
X212619047Y-62502380D01*
X212571428Y-62526190D01*
X212476190Y-62526190D01*
X213166666Y-62526190D02*
X212880952Y-62526190D01*
X213023809Y-62526190D02*
X213023809Y-62026190D01*
X212976190Y-62097619D01*
X212928571Y-62145238D01*
X212880952Y-62169047D01*
X213357142Y-62073809D02*
X213380952Y-62050000D01*
X213428571Y-62026190D01*
X213547619Y-62026190D01*
X213595238Y-62050000D01*
X213619047Y-62073809D01*
X213642857Y-62121428D01*
X213642857Y-62169047D01*
X213619047Y-62240476D01*
X213333333Y-62526190D01*
X213642857Y-62526190D01*
G04 #@! TO.C,Q6*
X179773809Y-102847619D02*
X179750000Y-102895238D01*
X179702380Y-102942857D01*
X179630952Y-103014285D01*
X179607142Y-103061904D01*
X179607142Y-103109523D01*
X179726190Y-103085714D02*
X179702380Y-103133333D01*
X179654761Y-103180952D01*
X179559523Y-103204761D01*
X179392857Y-103204761D01*
X179297619Y-103180952D01*
X179250000Y-103133333D01*
X179226190Y-103085714D01*
X179226190Y-102990476D01*
X179250000Y-102942857D01*
X179297619Y-102895238D01*
X179392857Y-102871428D01*
X179559523Y-102871428D01*
X179654761Y-102895238D01*
X179702380Y-102942857D01*
X179726190Y-102990476D01*
X179726190Y-103085714D01*
X179226190Y-102442857D02*
X179226190Y-102538095D01*
X179250000Y-102585714D01*
X179273809Y-102609523D01*
X179345238Y-102657142D01*
X179440476Y-102680952D01*
X179630952Y-102680952D01*
X179678571Y-102657142D01*
X179702380Y-102633333D01*
X179726190Y-102585714D01*
X179726190Y-102490476D01*
X179702380Y-102442857D01*
X179678571Y-102419047D01*
X179630952Y-102395238D01*
X179511904Y-102395238D01*
X179464285Y-102419047D01*
X179440476Y-102442857D01*
X179416666Y-102490476D01*
X179416666Y-102585714D01*
X179440476Y-102633333D01*
X179464285Y-102657142D01*
X179511904Y-102680952D01*
G04 #@! TO.C,R6*
X211116666Y-108126190D02*
X210950000Y-107888095D01*
X210830952Y-108126190D02*
X210830952Y-107626190D01*
X211021428Y-107626190D01*
X211069047Y-107650000D01*
X211092857Y-107673809D01*
X211116666Y-107721428D01*
X211116666Y-107792857D01*
X211092857Y-107840476D01*
X211069047Y-107864285D01*
X211021428Y-107888095D01*
X210830952Y-107888095D01*
X211545238Y-107626190D02*
X211450000Y-107626190D01*
X211402380Y-107650000D01*
X211378571Y-107673809D01*
X211330952Y-107745238D01*
X211307142Y-107840476D01*
X211307142Y-108030952D01*
X211330952Y-108078571D01*
X211354761Y-108102380D01*
X211402380Y-108126190D01*
X211497619Y-108126190D01*
X211545238Y-108102380D01*
X211569047Y-108078571D01*
X211592857Y-108030952D01*
X211592857Y-107911904D01*
X211569047Y-107864285D01*
X211545238Y-107840476D01*
X211497619Y-107816666D01*
X211402380Y-107816666D01*
X211354761Y-107840476D01*
X211330952Y-107864285D01*
X211307142Y-107911904D01*
G04 #@! TO.C,R10*
X176126190Y-97721428D02*
X175888095Y-97888095D01*
X176126190Y-98007142D02*
X175626190Y-98007142D01*
X175626190Y-97816666D01*
X175650000Y-97769047D01*
X175673809Y-97745238D01*
X175721428Y-97721428D01*
X175792857Y-97721428D01*
X175840476Y-97745238D01*
X175864285Y-97769047D01*
X175888095Y-97816666D01*
X175888095Y-98007142D01*
X176126190Y-97245238D02*
X176126190Y-97530952D01*
X176126190Y-97388095D02*
X175626190Y-97388095D01*
X175697619Y-97435714D01*
X175745238Y-97483333D01*
X175769047Y-97530952D01*
X175626190Y-96935714D02*
X175626190Y-96888095D01*
X175650000Y-96840476D01*
X175673809Y-96816666D01*
X175721428Y-96792857D01*
X175816666Y-96769047D01*
X175935714Y-96769047D01*
X176030952Y-96792857D01*
X176078571Y-96816666D01*
X176102380Y-96840476D01*
X176126190Y-96888095D01*
X176126190Y-96935714D01*
X176102380Y-96983333D01*
X176078571Y-97007142D01*
X176030952Y-97030952D01*
X175935714Y-97054761D01*
X175816666Y-97054761D01*
X175721428Y-97030952D01*
X175673809Y-97007142D01*
X175650000Y-96983333D01*
X175626190Y-96935714D01*
G04 #@! TO.C,R9*
X175716666Y-98826190D02*
X175550000Y-98588095D01*
X175430952Y-98826190D02*
X175430952Y-98326190D01*
X175621428Y-98326190D01*
X175669047Y-98350000D01*
X175692857Y-98373809D01*
X175716666Y-98421428D01*
X175716666Y-98492857D01*
X175692857Y-98540476D01*
X175669047Y-98564285D01*
X175621428Y-98588095D01*
X175430952Y-98588095D01*
X175954761Y-98826190D02*
X176050000Y-98826190D01*
X176097619Y-98802380D01*
X176121428Y-98778571D01*
X176169047Y-98707142D01*
X176192857Y-98611904D01*
X176192857Y-98421428D01*
X176169047Y-98373809D01*
X176145238Y-98350000D01*
X176097619Y-98326190D01*
X176002380Y-98326190D01*
X175954761Y-98350000D01*
X175930952Y-98373809D01*
X175907142Y-98421428D01*
X175907142Y-98540476D01*
X175930952Y-98588095D01*
X175954761Y-98611904D01*
X176002380Y-98635714D01*
X176097619Y-98635714D01*
X176145238Y-98611904D01*
X176169047Y-98588095D01*
X176192857Y-98540476D01*
G04 #@! TO.C,R8*
X173326190Y-98883333D02*
X173088095Y-99050000D01*
X173326190Y-99169047D02*
X172826190Y-99169047D01*
X172826190Y-98978571D01*
X172850000Y-98930952D01*
X172873809Y-98907142D01*
X172921428Y-98883333D01*
X172992857Y-98883333D01*
X173040476Y-98907142D01*
X173064285Y-98930952D01*
X173088095Y-98978571D01*
X173088095Y-99169047D01*
X173040476Y-98597619D02*
X173016666Y-98645238D01*
X172992857Y-98669047D01*
X172945238Y-98692857D01*
X172921428Y-98692857D01*
X172873809Y-98669047D01*
X172850000Y-98645238D01*
X172826190Y-98597619D01*
X172826190Y-98502380D01*
X172850000Y-98454761D01*
X172873809Y-98430952D01*
X172921428Y-98407142D01*
X172945238Y-98407142D01*
X172992857Y-98430952D01*
X173016666Y-98454761D01*
X173040476Y-98502380D01*
X173040476Y-98597619D01*
X173064285Y-98645238D01*
X173088095Y-98669047D01*
X173135714Y-98692857D01*
X173230952Y-98692857D01*
X173278571Y-98669047D01*
X173302380Y-98645238D01*
X173326190Y-98597619D01*
X173326190Y-98502380D01*
X173302380Y-98454761D01*
X173278571Y-98430952D01*
X173230952Y-98407142D01*
X173135714Y-98407142D01*
X173088095Y-98430952D01*
X173064285Y-98454761D01*
X173040476Y-98502380D01*
G04 #@! TO.C,R7*
X191326190Y-73283333D02*
X191088095Y-73450000D01*
X191326190Y-73569047D02*
X190826190Y-73569047D01*
X190826190Y-73378571D01*
X190850000Y-73330952D01*
X190873809Y-73307142D01*
X190921428Y-73283333D01*
X190992857Y-73283333D01*
X191040476Y-73307142D01*
X191064285Y-73330952D01*
X191088095Y-73378571D01*
X191088095Y-73569047D01*
X190826190Y-73116666D02*
X190826190Y-72783333D01*
X191326190Y-72997619D01*
G04 #@! TO.C,R12*
X182356190Y-101008928D02*
X182118095Y-101175595D01*
X182356190Y-101294642D02*
X181856190Y-101294642D01*
X181856190Y-101104166D01*
X181880000Y-101056547D01*
X181903809Y-101032738D01*
X181951428Y-101008928D01*
X182022857Y-101008928D01*
X182070476Y-101032738D01*
X182094285Y-101056547D01*
X182118095Y-101104166D01*
X182118095Y-101294642D01*
X182356190Y-100532738D02*
X182356190Y-100818452D01*
X182356190Y-100675595D02*
X181856190Y-100675595D01*
X181927619Y-100723214D01*
X181975238Y-100770833D01*
X181999047Y-100818452D01*
X181903809Y-100342261D02*
X181880000Y-100318452D01*
X181856190Y-100270833D01*
X181856190Y-100151785D01*
X181880000Y-100104166D01*
X181903809Y-100080357D01*
X181951428Y-100056547D01*
X181999047Y-100056547D01*
X182070476Y-100080357D01*
X182356190Y-100366071D01*
X182356190Y-100056547D01*
G04 #@! TO.C,R5*
X217226190Y-92283333D02*
X216988095Y-92450000D01*
X217226190Y-92569047D02*
X216726190Y-92569047D01*
X216726190Y-92378571D01*
X216750000Y-92330952D01*
X216773809Y-92307142D01*
X216821428Y-92283333D01*
X216892857Y-92283333D01*
X216940476Y-92307142D01*
X216964285Y-92330952D01*
X216988095Y-92378571D01*
X216988095Y-92569047D01*
X216726190Y-91830952D02*
X216726190Y-92069047D01*
X216964285Y-92092857D01*
X216940476Y-92069047D01*
X216916666Y-92021428D01*
X216916666Y-91902380D01*
X216940476Y-91854761D01*
X216964285Y-91830952D01*
X217011904Y-91807142D01*
X217130952Y-91807142D01*
X217178571Y-91830952D01*
X217202380Y-91854761D01*
X217226190Y-91902380D01*
X217226190Y-92021428D01*
X217202380Y-92069047D01*
X217178571Y-92092857D01*
G04 #@! TO.C,R4*
X201016666Y-98126190D02*
X200850000Y-97888095D01*
X200730952Y-98126190D02*
X200730952Y-97626190D01*
X200921428Y-97626190D01*
X200969047Y-97650000D01*
X200992857Y-97673809D01*
X201016666Y-97721428D01*
X201016666Y-97792857D01*
X200992857Y-97840476D01*
X200969047Y-97864285D01*
X200921428Y-97888095D01*
X200730952Y-97888095D01*
X201445238Y-97792857D02*
X201445238Y-98126190D01*
X201326190Y-97602380D02*
X201207142Y-97959523D01*
X201516666Y-97959523D01*
G04 #@! TO.C,R3*
X217026190Y-107070952D02*
X216788095Y-107237619D01*
X217026190Y-107356666D02*
X216526190Y-107356666D01*
X216526190Y-107166190D01*
X216550000Y-107118571D01*
X216573809Y-107094761D01*
X216621428Y-107070952D01*
X216692857Y-107070952D01*
X216740476Y-107094761D01*
X216764285Y-107118571D01*
X216788095Y-107166190D01*
X216788095Y-107356666D01*
X216526190Y-106904285D02*
X216526190Y-106594761D01*
X216716666Y-106761428D01*
X216716666Y-106689999D01*
X216740476Y-106642380D01*
X216764285Y-106618571D01*
X216811904Y-106594761D01*
X216930952Y-106594761D01*
X216978571Y-106618571D01*
X217002380Y-106642380D01*
X217026190Y-106689999D01*
X217026190Y-106832857D01*
X217002380Y-106880476D01*
X216978571Y-106904285D01*
G04 #@! TO.C,R24*
X210278571Y-68126190D02*
X210111904Y-67888095D01*
X209992857Y-68126190D02*
X209992857Y-67626190D01*
X210183333Y-67626190D01*
X210230952Y-67650000D01*
X210254761Y-67673809D01*
X210278571Y-67721428D01*
X210278571Y-67792857D01*
X210254761Y-67840476D01*
X210230952Y-67864285D01*
X210183333Y-67888095D01*
X209992857Y-67888095D01*
X210469047Y-67673809D02*
X210492857Y-67650000D01*
X210540476Y-67626190D01*
X210659523Y-67626190D01*
X210707142Y-67650000D01*
X210730952Y-67673809D01*
X210754761Y-67721428D01*
X210754761Y-67769047D01*
X210730952Y-67840476D01*
X210445238Y-68126190D01*
X210754761Y-68126190D01*
X211183333Y-67792857D02*
X211183333Y-68126190D01*
X211064285Y-67602380D02*
X210945238Y-67959523D01*
X211254761Y-67959523D01*
G04 #@! TO.C,R2*
X211116666Y-108926190D02*
X210950000Y-108688095D01*
X210830952Y-108926190D02*
X210830952Y-108426190D01*
X211021428Y-108426190D01*
X211069047Y-108450000D01*
X211092857Y-108473809D01*
X211116666Y-108521428D01*
X211116666Y-108592857D01*
X211092857Y-108640476D01*
X211069047Y-108664285D01*
X211021428Y-108688095D01*
X210830952Y-108688095D01*
X211307142Y-108473809D02*
X211330952Y-108450000D01*
X211378571Y-108426190D01*
X211497619Y-108426190D01*
X211545238Y-108450000D01*
X211569047Y-108473809D01*
X211592857Y-108521428D01*
X211592857Y-108569047D01*
X211569047Y-108640476D01*
X211283333Y-108926190D01*
X211592857Y-108926190D01*
G04 #@! TO.C,R1*
X213326190Y-92283333D02*
X213088095Y-92450000D01*
X213326190Y-92569047D02*
X212826190Y-92569047D01*
X212826190Y-92378571D01*
X212850000Y-92330952D01*
X212873809Y-92307142D01*
X212921428Y-92283333D01*
X212992857Y-92283333D01*
X213040476Y-92307142D01*
X213064285Y-92330952D01*
X213088095Y-92378571D01*
X213088095Y-92569047D01*
X213326190Y-91807142D02*
X213326190Y-92092857D01*
X213326190Y-91950000D02*
X212826190Y-91950000D01*
X212897619Y-91997619D01*
X212945238Y-92045238D01*
X212969047Y-92092857D01*
G04 #@! TO.C,R11*
X181378571Y-94226190D02*
X181211904Y-93988095D01*
X181092857Y-94226190D02*
X181092857Y-93726190D01*
X181283333Y-93726190D01*
X181330952Y-93750000D01*
X181354761Y-93773809D01*
X181378571Y-93821428D01*
X181378571Y-93892857D01*
X181354761Y-93940476D01*
X181330952Y-93964285D01*
X181283333Y-93988095D01*
X181092857Y-93988095D01*
X181854761Y-94226190D02*
X181569047Y-94226190D01*
X181711904Y-94226190D02*
X181711904Y-93726190D01*
X181664285Y-93797619D01*
X181616666Y-93845238D01*
X181569047Y-93869047D01*
X182330952Y-94226190D02*
X182045238Y-94226190D01*
X182188095Y-94226190D02*
X182188095Y-93726190D01*
X182140476Y-93797619D01*
X182092857Y-93845238D01*
X182045238Y-93869047D01*
G04 #@! TO.C,R13*
X185478571Y-94026190D02*
X185311904Y-93788095D01*
X185192857Y-94026190D02*
X185192857Y-93526190D01*
X185383333Y-93526190D01*
X185430952Y-93550000D01*
X185454761Y-93573809D01*
X185478571Y-93621428D01*
X185478571Y-93692857D01*
X185454761Y-93740476D01*
X185430952Y-93764285D01*
X185383333Y-93788095D01*
X185192857Y-93788095D01*
X185954761Y-94026190D02*
X185669047Y-94026190D01*
X185811904Y-94026190D02*
X185811904Y-93526190D01*
X185764285Y-93597619D01*
X185716666Y-93645238D01*
X185669047Y-93669047D01*
X186121428Y-93526190D02*
X186430952Y-93526190D01*
X186264285Y-93716666D01*
X186335714Y-93716666D01*
X186383333Y-93740476D01*
X186407142Y-93764285D01*
X186430952Y-93811904D01*
X186430952Y-93930952D01*
X186407142Y-93978571D01*
X186383333Y-94002380D01*
X186335714Y-94026190D01*
X186192857Y-94026190D01*
X186145238Y-94002380D01*
X186121428Y-93978571D01*
G04 #@! TO.C,R15*
X175478571Y-109526190D02*
X175311904Y-109288095D01*
X175192857Y-109526190D02*
X175192857Y-109026190D01*
X175383333Y-109026190D01*
X175430952Y-109050000D01*
X175454761Y-109073809D01*
X175478571Y-109121428D01*
X175478571Y-109192857D01*
X175454761Y-109240476D01*
X175430952Y-109264285D01*
X175383333Y-109288095D01*
X175192857Y-109288095D01*
X175954761Y-109526190D02*
X175669047Y-109526190D01*
X175811904Y-109526190D02*
X175811904Y-109026190D01*
X175764285Y-109097619D01*
X175716666Y-109145238D01*
X175669047Y-109169047D01*
X176407142Y-109026190D02*
X176169047Y-109026190D01*
X176145238Y-109264285D01*
X176169047Y-109240476D01*
X176216666Y-109216666D01*
X176335714Y-109216666D01*
X176383333Y-109240476D01*
X176407142Y-109264285D01*
X176430952Y-109311904D01*
X176430952Y-109430952D01*
X176407142Y-109478571D01*
X176383333Y-109502380D01*
X176335714Y-109526190D01*
X176216666Y-109526190D01*
X176169047Y-109502380D01*
X176145238Y-109478571D01*
G04 #@! TO.C,R22*
X219678571Y-53726190D02*
X219511904Y-53488095D01*
X219392857Y-53726190D02*
X219392857Y-53226190D01*
X219583333Y-53226190D01*
X219630952Y-53250000D01*
X219654761Y-53273809D01*
X219678571Y-53321428D01*
X219678571Y-53392857D01*
X219654761Y-53440476D01*
X219630952Y-53464285D01*
X219583333Y-53488095D01*
X219392857Y-53488095D01*
X219869047Y-53273809D02*
X219892857Y-53250000D01*
X219940476Y-53226190D01*
X220059523Y-53226190D01*
X220107142Y-53250000D01*
X220130952Y-53273809D01*
X220154761Y-53321428D01*
X220154761Y-53369047D01*
X220130952Y-53440476D01*
X219845238Y-53726190D01*
X220154761Y-53726190D01*
X220345238Y-53273809D02*
X220369047Y-53250000D01*
X220416666Y-53226190D01*
X220535714Y-53226190D01*
X220583333Y-53250000D01*
X220607142Y-53273809D01*
X220630952Y-53321428D01*
X220630952Y-53369047D01*
X220607142Y-53440476D01*
X220321428Y-53726190D01*
X220630952Y-53726190D01*
G04 #@! TO.C,R14*
X181378571Y-105096190D02*
X181211904Y-104858095D01*
X181092857Y-105096190D02*
X181092857Y-104596190D01*
X181283333Y-104596190D01*
X181330952Y-104620000D01*
X181354761Y-104643809D01*
X181378571Y-104691428D01*
X181378571Y-104762857D01*
X181354761Y-104810476D01*
X181330952Y-104834285D01*
X181283333Y-104858095D01*
X181092857Y-104858095D01*
X181854761Y-105096190D02*
X181569047Y-105096190D01*
X181711904Y-105096190D02*
X181711904Y-104596190D01*
X181664285Y-104667619D01*
X181616666Y-104715238D01*
X181569047Y-104739047D01*
X182283333Y-104762857D02*
X182283333Y-105096190D01*
X182164285Y-104572380D02*
X182045238Y-104929523D01*
X182354761Y-104929523D01*
G04 #@! TO.C,R20*
X204326190Y-78821428D02*
X204088095Y-78988095D01*
X204326190Y-79107142D02*
X203826190Y-79107142D01*
X203826190Y-78916666D01*
X203850000Y-78869047D01*
X203873809Y-78845238D01*
X203921428Y-78821428D01*
X203992857Y-78821428D01*
X204040476Y-78845238D01*
X204064285Y-78869047D01*
X204088095Y-78916666D01*
X204088095Y-79107142D01*
X203873809Y-78630952D02*
X203850000Y-78607142D01*
X203826190Y-78559523D01*
X203826190Y-78440476D01*
X203850000Y-78392857D01*
X203873809Y-78369047D01*
X203921428Y-78345238D01*
X203969047Y-78345238D01*
X204040476Y-78369047D01*
X204326190Y-78654761D01*
X204326190Y-78345238D01*
X203826190Y-78035714D02*
X203826190Y-77988095D01*
X203850000Y-77940476D01*
X203873809Y-77916666D01*
X203921428Y-77892857D01*
X204016666Y-77869047D01*
X204135714Y-77869047D01*
X204230952Y-77892857D01*
X204278571Y-77916666D01*
X204302380Y-77940476D01*
X204326190Y-77988095D01*
X204326190Y-78035714D01*
X204302380Y-78083333D01*
X204278571Y-78107142D01*
X204230952Y-78130952D01*
X204135714Y-78154761D01*
X204016666Y-78154761D01*
X203921428Y-78130952D01*
X203873809Y-78107142D01*
X203850000Y-78083333D01*
X203826190Y-78035714D01*
G04 #@! TO.C,R26*
X210278571Y-62826190D02*
X210111904Y-62588095D01*
X209992857Y-62826190D02*
X209992857Y-62326190D01*
X210183333Y-62326190D01*
X210230952Y-62350000D01*
X210254761Y-62373809D01*
X210278571Y-62421428D01*
X210278571Y-62492857D01*
X210254761Y-62540476D01*
X210230952Y-62564285D01*
X210183333Y-62588095D01*
X209992857Y-62588095D01*
X210469047Y-62373809D02*
X210492857Y-62350000D01*
X210540476Y-62326190D01*
X210659523Y-62326190D01*
X210707142Y-62350000D01*
X210730952Y-62373809D01*
X210754761Y-62421428D01*
X210754761Y-62469047D01*
X210730952Y-62540476D01*
X210445238Y-62826190D01*
X210754761Y-62826190D01*
X211183333Y-62326190D02*
X211088095Y-62326190D01*
X211040476Y-62350000D01*
X211016666Y-62373809D01*
X210969047Y-62445238D01*
X210945238Y-62540476D01*
X210945238Y-62730952D01*
X210969047Y-62778571D01*
X210992857Y-62802380D01*
X211040476Y-62826190D01*
X211135714Y-62826190D01*
X211183333Y-62802380D01*
X211207142Y-62778571D01*
X211230952Y-62730952D01*
X211230952Y-62611904D01*
X211207142Y-62564285D01*
X211183333Y-62540476D01*
X211135714Y-62516666D01*
X211040476Y-62516666D01*
X210992857Y-62540476D01*
X210969047Y-62564285D01*
X210945238Y-62611904D01*
G04 #@! TO.C,R19*
X202678571Y-80326190D02*
X202511904Y-80088095D01*
X202392857Y-80326190D02*
X202392857Y-79826190D01*
X202583333Y-79826190D01*
X202630952Y-79850000D01*
X202654761Y-79873809D01*
X202678571Y-79921428D01*
X202678571Y-79992857D01*
X202654761Y-80040476D01*
X202630952Y-80064285D01*
X202583333Y-80088095D01*
X202392857Y-80088095D01*
X203154761Y-80326190D02*
X202869047Y-80326190D01*
X203011904Y-80326190D02*
X203011904Y-79826190D01*
X202964285Y-79897619D01*
X202916666Y-79945238D01*
X202869047Y-79969047D01*
X203392857Y-80326190D02*
X203488095Y-80326190D01*
X203535714Y-80302380D01*
X203559523Y-80278571D01*
X203607142Y-80207142D01*
X203630952Y-80111904D01*
X203630952Y-79921428D01*
X203607142Y-79873809D01*
X203583333Y-79850000D01*
X203535714Y-79826190D01*
X203440476Y-79826190D01*
X203392857Y-79850000D01*
X203369047Y-79873809D01*
X203345238Y-79921428D01*
X203345238Y-80040476D01*
X203369047Y-80088095D01*
X203392857Y-80111904D01*
X203440476Y-80135714D01*
X203535714Y-80135714D01*
X203583333Y-80111904D01*
X203607142Y-80088095D01*
X203630952Y-80040476D01*
G04 #@! TO.C,R18*
X201078571Y-80326190D02*
X200911904Y-80088095D01*
X200792857Y-80326190D02*
X200792857Y-79826190D01*
X200983333Y-79826190D01*
X201030952Y-79850000D01*
X201054761Y-79873809D01*
X201078571Y-79921428D01*
X201078571Y-79992857D01*
X201054761Y-80040476D01*
X201030952Y-80064285D01*
X200983333Y-80088095D01*
X200792857Y-80088095D01*
X201554761Y-80326190D02*
X201269047Y-80326190D01*
X201411904Y-80326190D02*
X201411904Y-79826190D01*
X201364285Y-79897619D01*
X201316666Y-79945238D01*
X201269047Y-79969047D01*
X201840476Y-80040476D02*
X201792857Y-80016666D01*
X201769047Y-79992857D01*
X201745238Y-79945238D01*
X201745238Y-79921428D01*
X201769047Y-79873809D01*
X201792857Y-79850000D01*
X201840476Y-79826190D01*
X201935714Y-79826190D01*
X201983333Y-79850000D01*
X202007142Y-79873809D01*
X202030952Y-79921428D01*
X202030952Y-79945238D01*
X202007142Y-79992857D01*
X201983333Y-80016666D01*
X201935714Y-80040476D01*
X201840476Y-80040476D01*
X201792857Y-80064285D01*
X201769047Y-80088095D01*
X201745238Y-80135714D01*
X201745238Y-80230952D01*
X201769047Y-80278571D01*
X201792857Y-80302380D01*
X201840476Y-80326190D01*
X201935714Y-80326190D01*
X201983333Y-80302380D01*
X202007142Y-80278571D01*
X202030952Y-80230952D01*
X202030952Y-80135714D01*
X202007142Y-80088095D01*
X201983333Y-80064285D01*
X201935714Y-80040476D01*
G04 #@! TO.C,R17*
X174926190Y-102221428D02*
X174688095Y-102388095D01*
X174926190Y-102507142D02*
X174426190Y-102507142D01*
X174426190Y-102316666D01*
X174450000Y-102269047D01*
X174473809Y-102245238D01*
X174521428Y-102221428D01*
X174592857Y-102221428D01*
X174640476Y-102245238D01*
X174664285Y-102269047D01*
X174688095Y-102316666D01*
X174688095Y-102507142D01*
X174926190Y-101745238D02*
X174926190Y-102030952D01*
X174926190Y-101888095D02*
X174426190Y-101888095D01*
X174497619Y-101935714D01*
X174545238Y-101983333D01*
X174569047Y-102030952D01*
X174426190Y-101578571D02*
X174426190Y-101245238D01*
X174926190Y-101459523D01*
G04 #@! TO.C,R16*
X173026190Y-104421428D02*
X172788095Y-104588095D01*
X173026190Y-104707142D02*
X172526190Y-104707142D01*
X172526190Y-104516666D01*
X172550000Y-104469047D01*
X172573809Y-104445238D01*
X172621428Y-104421428D01*
X172692857Y-104421428D01*
X172740476Y-104445238D01*
X172764285Y-104469047D01*
X172788095Y-104516666D01*
X172788095Y-104707142D01*
X173026190Y-103945238D02*
X173026190Y-104230952D01*
X173026190Y-104088095D02*
X172526190Y-104088095D01*
X172597619Y-104135714D01*
X172645238Y-104183333D01*
X172669047Y-104230952D01*
X172526190Y-103516666D02*
X172526190Y-103611904D01*
X172550000Y-103659523D01*
X172573809Y-103683333D01*
X172645238Y-103730952D01*
X172740476Y-103754761D01*
X172930952Y-103754761D01*
X172978571Y-103730952D01*
X173002380Y-103707142D01*
X173026190Y-103659523D01*
X173026190Y-103564285D01*
X173002380Y-103516666D01*
X172978571Y-103492857D01*
X172930952Y-103469047D01*
X172811904Y-103469047D01*
X172764285Y-103492857D01*
X172740476Y-103516666D01*
X172716666Y-103564285D01*
X172716666Y-103659523D01*
X172740476Y-103707142D01*
X172764285Y-103730952D01*
X172811904Y-103754761D01*
G04 #@! TO.C,R23*
X178078571Y-59326190D02*
X177911904Y-59088095D01*
X177792857Y-59326190D02*
X177792857Y-58826190D01*
X177983333Y-58826190D01*
X178030952Y-58850000D01*
X178054761Y-58873809D01*
X178078571Y-58921428D01*
X178078571Y-58992857D01*
X178054761Y-59040476D01*
X178030952Y-59064285D01*
X177983333Y-59088095D01*
X177792857Y-59088095D01*
X178269047Y-58873809D02*
X178292857Y-58850000D01*
X178340476Y-58826190D01*
X178459523Y-58826190D01*
X178507142Y-58850000D01*
X178530952Y-58873809D01*
X178554761Y-58921428D01*
X178554761Y-58969047D01*
X178530952Y-59040476D01*
X178245238Y-59326190D01*
X178554761Y-59326190D01*
X178721428Y-58826190D02*
X179030952Y-58826190D01*
X178864285Y-59016666D01*
X178935714Y-59016666D01*
X178983333Y-59040476D01*
X179007142Y-59064285D01*
X179030952Y-59111904D01*
X179030952Y-59230952D01*
X179007142Y-59278571D01*
X178983333Y-59302380D01*
X178935714Y-59326190D01*
X178792857Y-59326190D01*
X178745238Y-59302380D01*
X178721428Y-59278571D01*
G04 #@! TO.C,R25*
X181578571Y-59026190D02*
X181411904Y-58788095D01*
X181292857Y-59026190D02*
X181292857Y-58526190D01*
X181483333Y-58526190D01*
X181530952Y-58550000D01*
X181554761Y-58573809D01*
X181578571Y-58621428D01*
X181578571Y-58692857D01*
X181554761Y-58740476D01*
X181530952Y-58764285D01*
X181483333Y-58788095D01*
X181292857Y-58788095D01*
X181769047Y-58573809D02*
X181792857Y-58550000D01*
X181840476Y-58526190D01*
X181959523Y-58526190D01*
X182007142Y-58550000D01*
X182030952Y-58573809D01*
X182054761Y-58621428D01*
X182054761Y-58669047D01*
X182030952Y-58740476D01*
X181745238Y-59026190D01*
X182054761Y-59026190D01*
X182507142Y-58526190D02*
X182269047Y-58526190D01*
X182245238Y-58764285D01*
X182269047Y-58740476D01*
X182316666Y-58716666D01*
X182435714Y-58716666D01*
X182483333Y-58740476D01*
X182507142Y-58764285D01*
X182530952Y-58811904D01*
X182530952Y-58930952D01*
X182507142Y-58978571D01*
X182483333Y-59002380D01*
X182435714Y-59026190D01*
X182316666Y-59026190D01*
X182269047Y-59002380D01*
X182245238Y-58978571D01*
G04 #@! TD*
M02*
