G04 #@! TF.GenerationSoftware,KiCad,Pcbnew,(5.0.2)-1*
G04 #@! TF.CreationDate,2019-05-12T18:02:06+02:00*
G04 #@! TF.ProjectId,SafetySystem,53616665-7479-4537-9973-74656d2e6b69,rev?*
G04 #@! TF.SameCoordinates,Original*
G04 #@! TF.FileFunction,Soldermask,Bot*
G04 #@! TF.FilePolarity,Negative*
%FSLAX46Y46*%
G04 Gerber Fmt 4.6, Leading zero omitted, Abs format (unit mm)*
G04 Created by KiCad (PCBNEW (5.0.2)-1) date 12.05.2019 18:02:06*
%MOMM*%
%LPD*%
G01*
G04 APERTURE LIST*
%ADD10C,0.100000*%
G04 APERTURE END LIST*
D10*
G36*
X195099294Y-105638633D02*
X195271694Y-105690931D01*
X195271696Y-105690932D01*
X195430583Y-105775859D01*
X195569849Y-105890151D01*
X195684141Y-106029417D01*
X195769068Y-106188304D01*
X195769069Y-106188306D01*
X195821367Y-106360706D01*
X195839025Y-106540000D01*
X195821367Y-106719294D01*
X195769069Y-106891694D01*
X195769068Y-106891696D01*
X195684141Y-107050583D01*
X195569849Y-107189849D01*
X195430583Y-107304141D01*
X195271696Y-107389068D01*
X195271694Y-107389069D01*
X195099294Y-107441367D01*
X194964931Y-107454600D01*
X194875069Y-107454600D01*
X194740706Y-107441367D01*
X194568306Y-107389069D01*
X194568304Y-107389068D01*
X194409417Y-107304141D01*
X194270151Y-107189849D01*
X194155859Y-107050583D01*
X194070932Y-106891696D01*
X194070931Y-106891694D01*
X194018633Y-106719294D01*
X194000975Y-106540000D01*
X194018633Y-106360706D01*
X194070931Y-106188306D01*
X194070932Y-106188304D01*
X194155859Y-106029417D01*
X194270151Y-105890151D01*
X194409417Y-105775859D01*
X194568304Y-105690932D01*
X194568306Y-105690931D01*
X194740706Y-105638633D01*
X194875069Y-105625400D01*
X194964931Y-105625400D01*
X195099294Y-105638633D01*
X195099294Y-105638633D01*
G37*
G36*
X197639294Y-105638633D02*
X197811694Y-105690931D01*
X197811696Y-105690932D01*
X197970583Y-105775859D01*
X198109849Y-105890151D01*
X198224141Y-106029417D01*
X198309068Y-106188304D01*
X198309069Y-106188306D01*
X198361367Y-106360706D01*
X198379025Y-106540000D01*
X198361367Y-106719294D01*
X198309069Y-106891694D01*
X198309068Y-106891696D01*
X198224141Y-107050583D01*
X198109849Y-107189849D01*
X197970583Y-107304141D01*
X197811696Y-107389068D01*
X197811694Y-107389069D01*
X197639294Y-107441367D01*
X197504931Y-107454600D01*
X197415069Y-107454600D01*
X197280706Y-107441367D01*
X197108306Y-107389069D01*
X197108304Y-107389068D01*
X196949417Y-107304141D01*
X196810151Y-107189849D01*
X196695859Y-107050583D01*
X196610932Y-106891696D01*
X196610931Y-106891694D01*
X196558633Y-106719294D01*
X196540975Y-106540000D01*
X196558633Y-106360706D01*
X196610931Y-106188306D01*
X196610932Y-106188304D01*
X196695859Y-106029417D01*
X196810151Y-105890151D01*
X196949417Y-105775859D01*
X197108304Y-105690932D01*
X197108306Y-105690931D01*
X197280706Y-105638633D01*
X197415069Y-105625400D01*
X197504931Y-105625400D01*
X197639294Y-105638633D01*
X197639294Y-105638633D01*
G37*
G36*
X200179294Y-105638633D02*
X200351694Y-105690931D01*
X200351696Y-105690932D01*
X200510583Y-105775859D01*
X200649849Y-105890151D01*
X200764141Y-106029417D01*
X200849068Y-106188304D01*
X200849069Y-106188306D01*
X200901367Y-106360706D01*
X200919025Y-106540000D01*
X200901367Y-106719294D01*
X200849069Y-106891694D01*
X200849068Y-106891696D01*
X200764141Y-107050583D01*
X200649849Y-107189849D01*
X200510583Y-107304141D01*
X200351696Y-107389068D01*
X200351694Y-107389069D01*
X200179294Y-107441367D01*
X200044931Y-107454600D01*
X199955069Y-107454600D01*
X199820706Y-107441367D01*
X199648306Y-107389069D01*
X199648304Y-107389068D01*
X199489417Y-107304141D01*
X199350151Y-107189849D01*
X199235859Y-107050583D01*
X199150932Y-106891696D01*
X199150931Y-106891694D01*
X199098633Y-106719294D01*
X199080975Y-106540000D01*
X199098633Y-106360706D01*
X199150931Y-106188306D01*
X199150932Y-106188304D01*
X199235859Y-106029417D01*
X199350151Y-105890151D01*
X199489417Y-105775859D01*
X199648304Y-105690932D01*
X199648306Y-105690931D01*
X199820706Y-105638633D01*
X199955069Y-105625400D01*
X200044931Y-105625400D01*
X200179294Y-105638633D01*
X200179294Y-105638633D01*
G37*
G36*
X192559294Y-105638633D02*
X192731694Y-105690931D01*
X192731696Y-105690932D01*
X192890583Y-105775859D01*
X193029849Y-105890151D01*
X193144141Y-106029417D01*
X193229068Y-106188304D01*
X193229069Y-106188306D01*
X193281367Y-106360706D01*
X193299025Y-106540000D01*
X193281367Y-106719294D01*
X193229069Y-106891694D01*
X193229068Y-106891696D01*
X193144141Y-107050583D01*
X193029849Y-107189849D01*
X192890583Y-107304141D01*
X192731696Y-107389068D01*
X192731694Y-107389069D01*
X192559294Y-107441367D01*
X192424931Y-107454600D01*
X192335069Y-107454600D01*
X192200706Y-107441367D01*
X192028306Y-107389069D01*
X192028304Y-107389068D01*
X191869417Y-107304141D01*
X191730151Y-107189849D01*
X191615859Y-107050583D01*
X191530932Y-106891696D01*
X191530931Y-106891694D01*
X191478633Y-106719294D01*
X191460975Y-106540000D01*
X191478633Y-106360706D01*
X191530931Y-106188306D01*
X191530932Y-106188304D01*
X191615859Y-106029417D01*
X191730151Y-105890151D01*
X191869417Y-105775859D01*
X192028304Y-105690932D01*
X192028306Y-105690931D01*
X192200706Y-105638633D01*
X192335069Y-105625400D01*
X192424931Y-105625400D01*
X192559294Y-105638633D01*
X192559294Y-105638633D01*
G37*
G36*
X190019294Y-105638633D02*
X190191694Y-105690931D01*
X190191696Y-105690932D01*
X190350583Y-105775859D01*
X190489849Y-105890151D01*
X190604141Y-106029417D01*
X190689068Y-106188304D01*
X190689069Y-106188306D01*
X190741367Y-106360706D01*
X190759025Y-106540000D01*
X190741367Y-106719294D01*
X190689069Y-106891694D01*
X190689068Y-106891696D01*
X190604141Y-107050583D01*
X190489849Y-107189849D01*
X190350583Y-107304141D01*
X190191696Y-107389068D01*
X190191694Y-107389069D01*
X190019294Y-107441367D01*
X189884931Y-107454600D01*
X189795069Y-107454600D01*
X189660706Y-107441367D01*
X189488306Y-107389069D01*
X189488304Y-107389068D01*
X189329417Y-107304141D01*
X189190151Y-107189849D01*
X189075859Y-107050583D01*
X188990932Y-106891696D01*
X188990931Y-106891694D01*
X188938633Y-106719294D01*
X188920975Y-106540000D01*
X188938633Y-106360706D01*
X188990931Y-106188306D01*
X188990932Y-106188304D01*
X189075859Y-106029417D01*
X189190151Y-105890151D01*
X189329417Y-105775859D01*
X189488304Y-105690932D01*
X189488306Y-105690931D01*
X189660706Y-105638633D01*
X189795069Y-105625400D01*
X189884931Y-105625400D01*
X190019294Y-105638633D01*
X190019294Y-105638633D01*
G37*
G36*
X225375256Y-103391298D02*
X225481579Y-103412447D01*
X225782042Y-103536903D01*
X225948765Y-103648304D01*
X226052454Y-103717587D01*
X226282413Y-103947546D01*
X226282415Y-103947549D01*
X226463097Y-104217958D01*
X226584307Y-104510584D01*
X226587553Y-104518422D01*
X226636430Y-104764140D01*
X226651000Y-104837391D01*
X226651000Y-105162609D01*
X226587553Y-105481579D01*
X226463097Y-105782042D01*
X226297807Y-106029416D01*
X226282413Y-106052454D01*
X226052454Y-106282413D01*
X226052451Y-106282415D01*
X225782042Y-106463097D01*
X225481579Y-106587553D01*
X225375256Y-106608702D01*
X225162611Y-106651000D01*
X224837389Y-106651000D01*
X224624744Y-106608702D01*
X224518421Y-106587553D01*
X224217958Y-106463097D01*
X223947549Y-106282415D01*
X223947546Y-106282413D01*
X223717587Y-106052454D01*
X223702193Y-106029416D01*
X223536903Y-105782042D01*
X223412447Y-105481579D01*
X223349000Y-105162609D01*
X223349000Y-104837391D01*
X223363571Y-104764140D01*
X223412447Y-104518422D01*
X223415694Y-104510584D01*
X223536903Y-104217958D01*
X223717585Y-103947549D01*
X223717587Y-103947546D01*
X223947546Y-103717587D01*
X224051235Y-103648304D01*
X224217958Y-103536903D01*
X224518421Y-103412447D01*
X224624744Y-103391298D01*
X224837389Y-103349000D01*
X225162611Y-103349000D01*
X225375256Y-103391298D01*
X225375256Y-103391298D01*
G37*
G36*
X165375256Y-103391298D02*
X165481579Y-103412447D01*
X165782042Y-103536903D01*
X165948765Y-103648304D01*
X166052454Y-103717587D01*
X166282413Y-103947546D01*
X166282415Y-103947549D01*
X166463097Y-104217958D01*
X166584307Y-104510584D01*
X166587553Y-104518422D01*
X166636430Y-104764140D01*
X166651000Y-104837391D01*
X166651000Y-105162609D01*
X166587553Y-105481579D01*
X166463097Y-105782042D01*
X166297807Y-106029416D01*
X166282413Y-106052454D01*
X166052454Y-106282413D01*
X166052451Y-106282415D01*
X165782042Y-106463097D01*
X165481579Y-106587553D01*
X165375256Y-106608702D01*
X165162611Y-106651000D01*
X164837389Y-106651000D01*
X164624744Y-106608702D01*
X164518421Y-106587553D01*
X164217958Y-106463097D01*
X163947549Y-106282415D01*
X163947546Y-106282413D01*
X163717587Y-106052454D01*
X163702193Y-106029416D01*
X163536903Y-105782042D01*
X163412447Y-105481579D01*
X163349000Y-105162609D01*
X163349000Y-104837391D01*
X163363571Y-104764140D01*
X163412447Y-104518422D01*
X163415694Y-104510584D01*
X163536903Y-104217958D01*
X163717585Y-103947549D01*
X163717587Y-103947546D01*
X163947546Y-103717587D01*
X164051235Y-103648304D01*
X164217958Y-103536903D01*
X164518421Y-103412447D01*
X164624744Y-103391298D01*
X164837389Y-103349000D01*
X165162611Y-103349000D01*
X165375256Y-103391298D01*
X165375256Y-103391298D01*
G37*
G36*
X197639294Y-103098633D02*
X197811694Y-103150931D01*
X197811696Y-103150932D01*
X197970583Y-103235859D01*
X198109849Y-103350151D01*
X198224141Y-103489417D01*
X198309068Y-103648304D01*
X198309069Y-103648306D01*
X198361367Y-103820706D01*
X198379025Y-104000000D01*
X198361367Y-104179294D01*
X198309069Y-104351694D01*
X198309068Y-104351696D01*
X198224141Y-104510583D01*
X198109849Y-104649849D01*
X197970583Y-104764141D01*
X197833546Y-104837389D01*
X197811694Y-104849069D01*
X197639294Y-104901367D01*
X197504931Y-104914600D01*
X197415069Y-104914600D01*
X197280706Y-104901367D01*
X197108306Y-104849069D01*
X197086454Y-104837389D01*
X196949417Y-104764141D01*
X196810151Y-104649849D01*
X196695859Y-104510583D01*
X196610932Y-104351696D01*
X196610931Y-104351694D01*
X196558633Y-104179294D01*
X196540975Y-104000000D01*
X196558633Y-103820706D01*
X196610931Y-103648306D01*
X196610932Y-103648304D01*
X196695859Y-103489417D01*
X196810151Y-103350151D01*
X196949417Y-103235859D01*
X197108304Y-103150932D01*
X197108306Y-103150931D01*
X197280706Y-103098633D01*
X197415069Y-103085400D01*
X197504931Y-103085400D01*
X197639294Y-103098633D01*
X197639294Y-103098633D01*
G37*
G36*
X192559294Y-103098633D02*
X192731694Y-103150931D01*
X192731696Y-103150932D01*
X192890583Y-103235859D01*
X193029849Y-103350151D01*
X193144141Y-103489417D01*
X193229068Y-103648304D01*
X193229069Y-103648306D01*
X193281367Y-103820706D01*
X193299025Y-104000000D01*
X193281367Y-104179294D01*
X193229069Y-104351694D01*
X193229068Y-104351696D01*
X193144141Y-104510583D01*
X193029849Y-104649849D01*
X192890583Y-104764141D01*
X192753546Y-104837389D01*
X192731694Y-104849069D01*
X192559294Y-104901367D01*
X192424931Y-104914600D01*
X192335069Y-104914600D01*
X192200706Y-104901367D01*
X192028306Y-104849069D01*
X192006454Y-104837389D01*
X191869417Y-104764141D01*
X191730151Y-104649849D01*
X191615859Y-104510583D01*
X191530932Y-104351696D01*
X191530931Y-104351694D01*
X191478633Y-104179294D01*
X191460975Y-104000000D01*
X191478633Y-103820706D01*
X191530931Y-103648306D01*
X191530932Y-103648304D01*
X191615859Y-103489417D01*
X191730151Y-103350151D01*
X191869417Y-103235859D01*
X192028304Y-103150932D01*
X192028306Y-103150931D01*
X192200706Y-103098633D01*
X192335069Y-103085400D01*
X192424931Y-103085400D01*
X192559294Y-103098633D01*
X192559294Y-103098633D01*
G37*
G36*
X190019294Y-103098633D02*
X190191694Y-103150931D01*
X190191696Y-103150932D01*
X190350583Y-103235859D01*
X190489849Y-103350151D01*
X190604141Y-103489417D01*
X190689068Y-103648304D01*
X190689069Y-103648306D01*
X190741367Y-103820706D01*
X190759025Y-104000000D01*
X190741367Y-104179294D01*
X190689069Y-104351694D01*
X190689068Y-104351696D01*
X190604141Y-104510583D01*
X190489849Y-104649849D01*
X190350583Y-104764141D01*
X190213546Y-104837389D01*
X190191694Y-104849069D01*
X190019294Y-104901367D01*
X189884931Y-104914600D01*
X189795069Y-104914600D01*
X189660706Y-104901367D01*
X189488306Y-104849069D01*
X189466454Y-104837389D01*
X189329417Y-104764141D01*
X189190151Y-104649849D01*
X189075859Y-104510583D01*
X188990932Y-104351696D01*
X188990931Y-104351694D01*
X188938633Y-104179294D01*
X188920975Y-104000000D01*
X188938633Y-103820706D01*
X188990931Y-103648306D01*
X188990932Y-103648304D01*
X189075859Y-103489417D01*
X189190151Y-103350151D01*
X189329417Y-103235859D01*
X189488304Y-103150932D01*
X189488306Y-103150931D01*
X189660706Y-103098633D01*
X189795069Y-103085400D01*
X189884931Y-103085400D01*
X190019294Y-103098633D01*
X190019294Y-103098633D01*
G37*
G36*
X195099294Y-103098633D02*
X195271694Y-103150931D01*
X195271696Y-103150932D01*
X195430583Y-103235859D01*
X195569849Y-103350151D01*
X195684141Y-103489417D01*
X195769068Y-103648304D01*
X195769069Y-103648306D01*
X195821367Y-103820706D01*
X195839025Y-104000000D01*
X195821367Y-104179294D01*
X195769069Y-104351694D01*
X195769068Y-104351696D01*
X195684141Y-104510583D01*
X195569849Y-104649849D01*
X195430583Y-104764141D01*
X195293546Y-104837389D01*
X195271694Y-104849069D01*
X195099294Y-104901367D01*
X194964931Y-104914600D01*
X194875069Y-104914600D01*
X194740706Y-104901367D01*
X194568306Y-104849069D01*
X194546454Y-104837389D01*
X194409417Y-104764141D01*
X194270151Y-104649849D01*
X194155859Y-104510583D01*
X194070932Y-104351696D01*
X194070931Y-104351694D01*
X194018633Y-104179294D01*
X194000975Y-104000000D01*
X194018633Y-103820706D01*
X194070931Y-103648306D01*
X194070932Y-103648304D01*
X194155859Y-103489417D01*
X194270151Y-103350151D01*
X194409417Y-103235859D01*
X194568304Y-103150932D01*
X194568306Y-103150931D01*
X194740706Y-103098633D01*
X194875069Y-103085400D01*
X194964931Y-103085400D01*
X195099294Y-103098633D01*
X195099294Y-103098633D01*
G37*
G36*
X200914600Y-104914600D02*
X199085400Y-104914600D01*
X199085400Y-103085400D01*
X200914600Y-103085400D01*
X200914600Y-104914600D01*
X200914600Y-104914600D01*
G37*
G36*
X228306565Y-99989389D02*
X228497834Y-100068615D01*
X228669976Y-100183637D01*
X228816363Y-100330024D01*
X228931385Y-100502166D01*
X229010611Y-100693435D01*
X229051000Y-100896484D01*
X229051000Y-101103516D01*
X229010611Y-101306565D01*
X228931385Y-101497834D01*
X228816363Y-101669976D01*
X228669976Y-101816363D01*
X228497834Y-101931385D01*
X228306565Y-102010611D01*
X228103516Y-102051000D01*
X227896484Y-102051000D01*
X227693435Y-102010611D01*
X227502166Y-101931385D01*
X227330024Y-101816363D01*
X227183637Y-101669976D01*
X227068615Y-101497834D01*
X226989389Y-101306565D01*
X226949000Y-101103516D01*
X226949000Y-100896484D01*
X226989389Y-100693435D01*
X227068615Y-100502166D01*
X227183637Y-100330024D01*
X227330024Y-100183637D01*
X227502166Y-100068615D01*
X227693435Y-99989389D01*
X227896484Y-99949000D01*
X228103516Y-99949000D01*
X228306565Y-99989389D01*
X228306565Y-99989389D01*
G37*
G36*
X166051000Y-101001000D02*
X163349000Y-101001000D01*
X163349000Y-98299000D01*
X166051000Y-98299000D01*
X166051000Y-101001000D01*
X166051000Y-101001000D01*
G37*
G36*
X217006565Y-98189389D02*
X217197834Y-98268615D01*
X217369976Y-98383637D01*
X217516363Y-98530024D01*
X217631385Y-98702166D01*
X217710611Y-98893435D01*
X217751000Y-99096484D01*
X217751000Y-99303516D01*
X217710611Y-99506565D01*
X217631385Y-99697834D01*
X217516363Y-99869976D01*
X217369976Y-100016363D01*
X217197834Y-100131385D01*
X217006565Y-100210611D01*
X216803516Y-100251000D01*
X216596484Y-100251000D01*
X216393435Y-100210611D01*
X216202166Y-100131385D01*
X216030024Y-100016363D01*
X215883637Y-99869976D01*
X215768615Y-99697834D01*
X215689389Y-99506565D01*
X215649000Y-99303516D01*
X215649000Y-99096484D01*
X215689389Y-98893435D01*
X215768615Y-98702166D01*
X215883637Y-98530024D01*
X216030024Y-98383637D01*
X216202166Y-98268615D01*
X216393435Y-98189389D01*
X216596484Y-98149000D01*
X216803516Y-98149000D01*
X217006565Y-98189389D01*
X217006565Y-98189389D01*
G37*
G36*
X186206565Y-97889389D02*
X186397834Y-97968615D01*
X186569976Y-98083637D01*
X186716363Y-98230024D01*
X186831385Y-98402166D01*
X186910611Y-98593435D01*
X186951000Y-98796484D01*
X186951000Y-99003516D01*
X186910611Y-99206565D01*
X186831385Y-99397834D01*
X186716363Y-99569976D01*
X186569976Y-99716363D01*
X186397834Y-99831385D01*
X186206565Y-99910611D01*
X186003516Y-99951000D01*
X185796484Y-99951000D01*
X185593435Y-99910611D01*
X185402166Y-99831385D01*
X185230024Y-99716363D01*
X185083637Y-99569976D01*
X184968615Y-99397834D01*
X184889389Y-99206565D01*
X184849000Y-99003516D01*
X184849000Y-98796484D01*
X184889389Y-98593435D01*
X184968615Y-98402166D01*
X185083637Y-98230024D01*
X185230024Y-98083637D01*
X185402166Y-97968615D01*
X185593435Y-97889389D01*
X185796484Y-97849000D01*
X186003516Y-97849000D01*
X186206565Y-97889389D01*
X186206565Y-97889389D01*
G37*
G36*
X204106565Y-95589389D02*
X204297834Y-95668615D01*
X204469976Y-95783637D01*
X204616363Y-95930024D01*
X204731385Y-96102166D01*
X204810611Y-96293435D01*
X204851000Y-96496484D01*
X204851000Y-96703516D01*
X204810611Y-96906565D01*
X204731385Y-97097834D01*
X204616363Y-97269976D01*
X204469976Y-97416363D01*
X204297834Y-97531385D01*
X204106565Y-97610611D01*
X203903516Y-97651000D01*
X203696484Y-97651000D01*
X203493435Y-97610611D01*
X203302166Y-97531385D01*
X203130024Y-97416363D01*
X202983637Y-97269976D01*
X202868615Y-97097834D01*
X202789389Y-96906565D01*
X202749000Y-96703516D01*
X202749000Y-96496484D01*
X202789389Y-96293435D01*
X202868615Y-96102166D01*
X202983637Y-95930024D01*
X203130024Y-95783637D01*
X203302166Y-95668615D01*
X203493435Y-95589389D01*
X203696484Y-95549000D01*
X203903516Y-95549000D01*
X204106565Y-95589389D01*
X204106565Y-95589389D01*
G37*
G36*
X169963567Y-94824959D02*
X170094072Y-94850918D01*
X170339939Y-94952759D01*
X170560464Y-95100110D01*
X170561215Y-95100612D01*
X170749388Y-95288785D01*
X170749390Y-95288788D01*
X170897241Y-95510061D01*
X170999082Y-95755928D01*
X171051000Y-96016938D01*
X171051000Y-96283062D01*
X170999082Y-96544072D01*
X170897241Y-96789939D01*
X170819313Y-96906565D01*
X170749388Y-97011215D01*
X170561215Y-97199388D01*
X170561212Y-97199390D01*
X170339939Y-97347241D01*
X170094072Y-97449082D01*
X169963567Y-97475041D01*
X169833063Y-97501000D01*
X169566937Y-97501000D01*
X169436433Y-97475041D01*
X169305928Y-97449082D01*
X169060061Y-97347241D01*
X168838788Y-97199390D01*
X168838785Y-97199388D01*
X168650612Y-97011215D01*
X168580687Y-96906565D01*
X168502759Y-96789939D01*
X168400918Y-96544072D01*
X168349000Y-96283062D01*
X168349000Y-96016938D01*
X168400918Y-95755928D01*
X168502759Y-95510061D01*
X168650610Y-95288788D01*
X168650612Y-95288785D01*
X168838785Y-95100612D01*
X168839536Y-95100110D01*
X169060061Y-94952759D01*
X169305928Y-94850918D01*
X169436433Y-94824959D01*
X169566937Y-94799000D01*
X169833063Y-94799000D01*
X169963567Y-94824959D01*
X169963567Y-94824959D01*
G37*
G36*
X166051000Y-92401000D02*
X163349000Y-92401000D01*
X163349000Y-89699000D01*
X166051000Y-89699000D01*
X166051000Y-92401000D01*
X166051000Y-92401000D01*
G37*
G36*
X220563567Y-88124959D02*
X220694072Y-88150918D01*
X220939939Y-88252759D01*
X221160464Y-88400110D01*
X221161215Y-88400612D01*
X221349388Y-88588785D01*
X221349390Y-88588788D01*
X221497241Y-88810061D01*
X221599082Y-89055928D01*
X221651000Y-89316938D01*
X221651000Y-89583062D01*
X221599082Y-89844072D01*
X221497241Y-90089939D01*
X221380842Y-90264141D01*
X221349388Y-90311215D01*
X221161215Y-90499388D01*
X221161212Y-90499390D01*
X220939939Y-90647241D01*
X220694072Y-90749082D01*
X220563567Y-90775041D01*
X220433063Y-90801000D01*
X220166937Y-90801000D01*
X220036433Y-90775041D01*
X219905928Y-90749082D01*
X219660061Y-90647241D01*
X219438788Y-90499390D01*
X219438785Y-90499388D01*
X219250612Y-90311215D01*
X219219158Y-90264141D01*
X219102759Y-90089939D01*
X219000918Y-89844072D01*
X218949000Y-89583062D01*
X218949000Y-89316938D01*
X219000918Y-89055928D01*
X219102759Y-88810061D01*
X219250610Y-88588788D01*
X219250612Y-88588785D01*
X219438785Y-88400612D01*
X219439536Y-88400110D01*
X219660061Y-88252759D01*
X219905928Y-88150918D01*
X220036433Y-88124959D01*
X220166937Y-88099000D01*
X220433063Y-88099000D01*
X220563567Y-88124959D01*
X220563567Y-88124959D01*
G37*
G36*
X188039694Y-88598633D02*
X188212094Y-88650931D01*
X188212096Y-88650932D01*
X188370983Y-88735859D01*
X188370985Y-88735860D01*
X188370984Y-88735860D01*
X188510249Y-88850151D01*
X188624540Y-88989416D01*
X188709469Y-89148306D01*
X188761767Y-89320706D01*
X188779425Y-89500000D01*
X188761767Y-89679294D01*
X188711781Y-89844071D01*
X188709468Y-89851696D01*
X188624541Y-90010583D01*
X188510249Y-90149849D01*
X188370983Y-90264141D01*
X188212096Y-90349068D01*
X188212094Y-90349069D01*
X188039694Y-90401367D01*
X187905331Y-90414600D01*
X186494669Y-90414600D01*
X186360306Y-90401367D01*
X186187906Y-90349069D01*
X186187904Y-90349068D01*
X186029017Y-90264141D01*
X185889751Y-90149849D01*
X185775459Y-90010583D01*
X185690532Y-89851696D01*
X185688219Y-89844071D01*
X185638233Y-89679294D01*
X185620575Y-89500000D01*
X185638233Y-89320706D01*
X185690531Y-89148306D01*
X185775460Y-88989416D01*
X185889751Y-88850151D01*
X186029016Y-88735860D01*
X186029015Y-88735860D01*
X186029017Y-88735859D01*
X186187904Y-88650932D01*
X186187906Y-88650931D01*
X186360306Y-88598633D01*
X186494669Y-88585400D01*
X187905331Y-88585400D01*
X188039694Y-88598633D01*
X188039694Y-88598633D01*
G37*
G36*
X175539694Y-88598633D02*
X175712094Y-88650931D01*
X175712096Y-88650932D01*
X175870983Y-88735859D01*
X175870985Y-88735860D01*
X175870984Y-88735860D01*
X176010249Y-88850151D01*
X176124540Y-88989416D01*
X176209469Y-89148306D01*
X176261767Y-89320706D01*
X176279425Y-89500000D01*
X176261767Y-89679294D01*
X176211781Y-89844071D01*
X176209468Y-89851696D01*
X176124541Y-90010583D01*
X176010249Y-90149849D01*
X175870983Y-90264141D01*
X175712096Y-90349068D01*
X175712094Y-90349069D01*
X175539694Y-90401367D01*
X175405331Y-90414600D01*
X173994669Y-90414600D01*
X173860306Y-90401367D01*
X173687906Y-90349069D01*
X173687904Y-90349068D01*
X173529017Y-90264141D01*
X173389751Y-90149849D01*
X173275459Y-90010583D01*
X173190532Y-89851696D01*
X173188219Y-89844071D01*
X173138233Y-89679294D01*
X173120575Y-89500000D01*
X173138233Y-89320706D01*
X173190531Y-89148306D01*
X173275460Y-88989416D01*
X173389751Y-88850151D01*
X173529016Y-88735860D01*
X173529015Y-88735860D01*
X173529017Y-88735859D01*
X173687904Y-88650932D01*
X173687906Y-88650931D01*
X173860306Y-88598633D01*
X173994669Y-88585400D01*
X175405331Y-88585400D01*
X175539694Y-88598633D01*
X175539694Y-88598633D01*
G37*
G36*
X169963567Y-86224959D02*
X170094072Y-86250918D01*
X170339939Y-86352759D01*
X170560464Y-86500110D01*
X170561215Y-86500612D01*
X170749388Y-86688785D01*
X170749390Y-86688788D01*
X170897241Y-86910061D01*
X170999082Y-87155928D01*
X171051000Y-87416938D01*
X171051000Y-87683062D01*
X170999082Y-87944072D01*
X170897241Y-88189939D01*
X170756474Y-88400610D01*
X170749388Y-88411215D01*
X170561215Y-88599388D01*
X170561212Y-88599390D01*
X170339939Y-88747241D01*
X170094072Y-88849082D01*
X169963567Y-88875041D01*
X169833063Y-88901000D01*
X169566937Y-88901000D01*
X169436433Y-88875041D01*
X169305928Y-88849082D01*
X169060061Y-88747241D01*
X168838788Y-88599390D01*
X168838785Y-88599388D01*
X168650612Y-88411215D01*
X168643526Y-88400610D01*
X168502759Y-88189939D01*
X168400918Y-87944072D01*
X168349000Y-87683062D01*
X168349000Y-87416938D01*
X168400918Y-87155928D01*
X168502759Y-86910061D01*
X168650610Y-86688788D01*
X168650612Y-86688785D01*
X168838785Y-86500612D01*
X168839536Y-86500110D01*
X169060061Y-86352759D01*
X169305928Y-86250918D01*
X169436433Y-86224959D01*
X169566937Y-86199000D01*
X169833063Y-86199000D01*
X169963567Y-86224959D01*
X169963567Y-86224959D01*
G37*
G36*
X226651000Y-87301000D02*
X223949000Y-87301000D01*
X223949000Y-84599000D01*
X226651000Y-84599000D01*
X226651000Y-87301000D01*
X226651000Y-87301000D01*
G37*
G36*
X212051000Y-86951000D02*
X209949000Y-86951000D01*
X209949000Y-84849000D01*
X212051000Y-84849000D01*
X212051000Y-86951000D01*
X212051000Y-86951000D01*
G37*
G36*
X188039694Y-83598633D02*
X188212094Y-83650931D01*
X188212096Y-83650932D01*
X188370983Y-83735859D01*
X188370985Y-83735860D01*
X188370984Y-83735860D01*
X188510249Y-83850151D01*
X188624540Y-83989416D01*
X188709469Y-84148306D01*
X188761767Y-84320706D01*
X188779425Y-84500000D01*
X188761767Y-84679294D01*
X188710286Y-84849000D01*
X188709468Y-84851696D01*
X188624541Y-85010583D01*
X188510249Y-85149849D01*
X188370983Y-85264141D01*
X188212096Y-85349068D01*
X188212094Y-85349069D01*
X188039694Y-85401367D01*
X187905331Y-85414600D01*
X186494669Y-85414600D01*
X186360306Y-85401367D01*
X186187906Y-85349069D01*
X186187904Y-85349068D01*
X186029017Y-85264141D01*
X185889751Y-85149849D01*
X185775459Y-85010583D01*
X185690532Y-84851696D01*
X185689714Y-84849000D01*
X185638233Y-84679294D01*
X185620575Y-84500000D01*
X185638233Y-84320706D01*
X185690531Y-84148306D01*
X185775460Y-83989416D01*
X185889751Y-83850151D01*
X186029016Y-83735860D01*
X186029015Y-83735860D01*
X186029017Y-83735859D01*
X186187904Y-83650932D01*
X186187906Y-83650931D01*
X186360306Y-83598633D01*
X186494669Y-83585400D01*
X187905331Y-83585400D01*
X188039694Y-83598633D01*
X188039694Y-83598633D01*
G37*
G36*
X175539694Y-83598633D02*
X175712094Y-83650931D01*
X175712096Y-83650932D01*
X175870983Y-83735859D01*
X175870985Y-83735860D01*
X175870984Y-83735860D01*
X176010249Y-83850151D01*
X176124540Y-83989416D01*
X176209469Y-84148306D01*
X176261767Y-84320706D01*
X176279425Y-84500000D01*
X176261767Y-84679294D01*
X176210286Y-84849000D01*
X176209468Y-84851696D01*
X176124541Y-85010583D01*
X176010249Y-85149849D01*
X175870983Y-85264141D01*
X175712096Y-85349068D01*
X175712094Y-85349069D01*
X175539694Y-85401367D01*
X175405331Y-85414600D01*
X173994669Y-85414600D01*
X173860306Y-85401367D01*
X173687906Y-85349069D01*
X173687904Y-85349068D01*
X173529017Y-85264141D01*
X173389751Y-85149849D01*
X173275459Y-85010583D01*
X173190532Y-84851696D01*
X173189714Y-84849000D01*
X173138233Y-84679294D01*
X173120575Y-84500000D01*
X173138233Y-84320706D01*
X173190531Y-84148306D01*
X173275460Y-83989416D01*
X173389751Y-83850151D01*
X173529016Y-83735860D01*
X173529015Y-83735860D01*
X173529017Y-83735859D01*
X173687904Y-83650932D01*
X173687906Y-83650931D01*
X173860306Y-83598633D01*
X173994669Y-83585400D01*
X175405331Y-83585400D01*
X175539694Y-83598633D01*
X175539694Y-83598633D01*
G37*
G36*
X166051000Y-83801000D02*
X163349000Y-83801000D01*
X163349000Y-81099000D01*
X166051000Y-81099000D01*
X166051000Y-83801000D01*
X166051000Y-83801000D01*
G37*
G36*
X220563567Y-79524959D02*
X220694072Y-79550918D01*
X220939939Y-79652759D01*
X221160464Y-79800110D01*
X221161215Y-79800612D01*
X221349388Y-79988785D01*
X221349390Y-79988788D01*
X221497241Y-80210061D01*
X221599082Y-80455928D01*
X221651000Y-80716938D01*
X221651000Y-80983062D01*
X221599082Y-81244072D01*
X221497241Y-81489939D01*
X221349890Y-81710464D01*
X221349388Y-81711215D01*
X221161215Y-81899388D01*
X221161212Y-81899390D01*
X220939939Y-82047241D01*
X220694072Y-82149082D01*
X220563567Y-82175041D01*
X220433063Y-82201000D01*
X220166937Y-82201000D01*
X220036433Y-82175041D01*
X219905928Y-82149082D01*
X219660061Y-82047241D01*
X219438788Y-81899390D01*
X219438785Y-81899388D01*
X219250612Y-81711215D01*
X219250110Y-81710464D01*
X219102759Y-81489939D01*
X219000918Y-81244072D01*
X218949000Y-80983062D01*
X218949000Y-80716938D01*
X219000918Y-80455928D01*
X219102759Y-80210061D01*
X219250610Y-79988788D01*
X219250612Y-79988785D01*
X219438785Y-79800612D01*
X219439536Y-79800110D01*
X219660061Y-79652759D01*
X219905928Y-79550918D01*
X220036433Y-79524959D01*
X220166937Y-79499000D01*
X220433063Y-79499000D01*
X220563567Y-79524959D01*
X220563567Y-79524959D01*
G37*
G36*
X169963567Y-77624959D02*
X170094072Y-77650918D01*
X170339939Y-77752759D01*
X170560464Y-77900110D01*
X170561215Y-77900612D01*
X170749388Y-78088785D01*
X170749390Y-78088788D01*
X170897241Y-78310061D01*
X170999082Y-78555928D01*
X171051000Y-78816938D01*
X171051000Y-79083062D01*
X170999082Y-79344072D01*
X170897241Y-79589939D01*
X170756474Y-79800610D01*
X170749388Y-79811215D01*
X170561215Y-79999388D01*
X170561212Y-79999390D01*
X170339939Y-80147241D01*
X170094072Y-80249082D01*
X169963567Y-80275041D01*
X169833063Y-80301000D01*
X169566937Y-80301000D01*
X169436433Y-80275041D01*
X169305928Y-80249082D01*
X169060061Y-80147241D01*
X168838788Y-79999390D01*
X168838785Y-79999388D01*
X168650612Y-79811215D01*
X168643526Y-79800610D01*
X168502759Y-79589939D01*
X168400918Y-79344072D01*
X168349000Y-79083062D01*
X168349000Y-78816938D01*
X168400918Y-78555928D01*
X168502759Y-78310061D01*
X168650610Y-78088788D01*
X168650612Y-78088785D01*
X168838785Y-77900612D01*
X168839536Y-77900110D01*
X169060061Y-77752759D01*
X169305928Y-77650918D01*
X169436433Y-77624959D01*
X169566937Y-77599000D01*
X169833063Y-77599000D01*
X169963567Y-77624959D01*
X169963567Y-77624959D01*
G37*
G36*
X211306565Y-77289389D02*
X211497834Y-77368615D01*
X211669976Y-77483637D01*
X211816363Y-77630024D01*
X211931385Y-77802166D01*
X212010611Y-77993435D01*
X212051000Y-78196484D01*
X212051000Y-78403516D01*
X212010611Y-78606565D01*
X211931385Y-78797834D01*
X211816363Y-78969976D01*
X211669976Y-79116363D01*
X211497834Y-79231385D01*
X211306565Y-79310611D01*
X211103516Y-79351000D01*
X210896484Y-79351000D01*
X210693435Y-79310611D01*
X210502166Y-79231385D01*
X210330024Y-79116363D01*
X210183637Y-78969976D01*
X210068615Y-78797834D01*
X209989389Y-78606565D01*
X209949000Y-78403516D01*
X209949000Y-78196484D01*
X209989389Y-77993435D01*
X210068615Y-77802166D01*
X210183637Y-77630024D01*
X210330024Y-77483637D01*
X210502166Y-77368615D01*
X210693435Y-77289389D01*
X210896484Y-77249000D01*
X211103516Y-77249000D01*
X211306565Y-77289389D01*
X211306565Y-77289389D01*
G37*
G36*
X226651000Y-78701000D02*
X223949000Y-78701000D01*
X223949000Y-75999000D01*
X226651000Y-75999000D01*
X226651000Y-78701000D01*
X226651000Y-78701000D01*
G37*
G36*
X188039694Y-75598633D02*
X188212094Y-75650931D01*
X188212096Y-75650932D01*
X188370983Y-75735859D01*
X188370985Y-75735860D01*
X188370984Y-75735860D01*
X188510249Y-75850151D01*
X188624540Y-75989416D01*
X188709469Y-76148306D01*
X188761767Y-76320706D01*
X188779425Y-76500000D01*
X188761767Y-76679294D01*
X188709469Y-76851694D01*
X188709468Y-76851696D01*
X188624541Y-77010583D01*
X188510249Y-77149849D01*
X188370983Y-77264141D01*
X188212096Y-77349068D01*
X188212094Y-77349069D01*
X188039694Y-77401367D01*
X187905331Y-77414600D01*
X186494669Y-77414600D01*
X186360306Y-77401367D01*
X186187906Y-77349069D01*
X186187904Y-77349068D01*
X186029017Y-77264141D01*
X185889751Y-77149849D01*
X185775459Y-77010583D01*
X185690532Y-76851696D01*
X185690531Y-76851694D01*
X185638233Y-76679294D01*
X185620575Y-76500000D01*
X185638233Y-76320706D01*
X185690531Y-76148306D01*
X185775460Y-75989416D01*
X185889751Y-75850151D01*
X186029016Y-75735860D01*
X186029015Y-75735860D01*
X186029017Y-75735859D01*
X186187904Y-75650932D01*
X186187906Y-75650931D01*
X186360306Y-75598633D01*
X186494669Y-75585400D01*
X187905331Y-75585400D01*
X188039694Y-75598633D01*
X188039694Y-75598633D01*
G37*
G36*
X175539694Y-75598633D02*
X175712094Y-75650931D01*
X175712096Y-75650932D01*
X175870983Y-75735859D01*
X175870985Y-75735860D01*
X175870984Y-75735860D01*
X176010249Y-75850151D01*
X176124540Y-75989416D01*
X176209469Y-76148306D01*
X176261767Y-76320706D01*
X176279425Y-76500000D01*
X176261767Y-76679294D01*
X176209469Y-76851694D01*
X176209468Y-76851696D01*
X176124541Y-77010583D01*
X176010249Y-77149849D01*
X175870983Y-77264141D01*
X175712096Y-77349068D01*
X175712094Y-77349069D01*
X175539694Y-77401367D01*
X175405331Y-77414600D01*
X173994669Y-77414600D01*
X173860306Y-77401367D01*
X173687906Y-77349069D01*
X173687904Y-77349068D01*
X173529017Y-77264141D01*
X173389751Y-77149849D01*
X173275459Y-77010583D01*
X173190532Y-76851696D01*
X173190531Y-76851694D01*
X173138233Y-76679294D01*
X173120575Y-76500000D01*
X173138233Y-76320706D01*
X173190531Y-76148306D01*
X173275460Y-75989416D01*
X173389751Y-75850151D01*
X173529016Y-75735860D01*
X173529015Y-75735860D01*
X173529017Y-75735859D01*
X173687904Y-75650932D01*
X173687906Y-75650931D01*
X173860306Y-75598633D01*
X173994669Y-75585400D01*
X175405331Y-75585400D01*
X175539694Y-75598633D01*
X175539694Y-75598633D01*
G37*
G36*
X166051000Y-75201000D02*
X163349000Y-75201000D01*
X163349000Y-72499000D01*
X166051000Y-72499000D01*
X166051000Y-75201000D01*
X166051000Y-75201000D01*
G37*
G36*
X220563567Y-70924959D02*
X220694072Y-70950918D01*
X220939939Y-71052759D01*
X221157057Y-71197834D01*
X221161215Y-71200612D01*
X221349388Y-71388785D01*
X221349390Y-71388788D01*
X221497241Y-71610061D01*
X221599082Y-71855928D01*
X221651000Y-72116938D01*
X221651000Y-72383062D01*
X221599082Y-72644072D01*
X221497241Y-72889939D01*
X221362723Y-73091258D01*
X221349388Y-73111215D01*
X221161215Y-73299388D01*
X221161212Y-73299390D01*
X220939939Y-73447241D01*
X220694072Y-73549082D01*
X220563567Y-73575041D01*
X220433063Y-73601000D01*
X220166937Y-73601000D01*
X220036433Y-73575041D01*
X219905928Y-73549082D01*
X219660061Y-73447241D01*
X219438788Y-73299390D01*
X219438785Y-73299388D01*
X219250612Y-73111215D01*
X219237277Y-73091258D01*
X219102759Y-72889939D01*
X219000918Y-72644072D01*
X218949000Y-72383062D01*
X218949000Y-72116938D01*
X219000918Y-71855928D01*
X219102759Y-71610061D01*
X219250610Y-71388788D01*
X219250612Y-71388785D01*
X219438785Y-71200612D01*
X219442943Y-71197834D01*
X219660061Y-71052759D01*
X219905928Y-70950918D01*
X220036433Y-70924959D01*
X220166937Y-70899000D01*
X220433063Y-70899000D01*
X220563567Y-70924959D01*
X220563567Y-70924959D01*
G37*
G36*
X209626000Y-73526000D02*
X207974000Y-73526000D01*
X207974000Y-71874000D01*
X209626000Y-71874000D01*
X209626000Y-73526000D01*
X209626000Y-73526000D01*
G37*
G36*
X204040935Y-71905742D02*
X204191258Y-71968008D01*
X204326545Y-72058404D01*
X204441596Y-72173455D01*
X204531992Y-72308742D01*
X204594258Y-72459065D01*
X204626000Y-72618646D01*
X204626000Y-72781354D01*
X204594258Y-72940935D01*
X204531992Y-73091258D01*
X204441596Y-73226545D01*
X204326545Y-73341596D01*
X204191258Y-73431992D01*
X204040935Y-73494258D01*
X203881354Y-73526000D01*
X203718646Y-73526000D01*
X203559065Y-73494258D01*
X203408742Y-73431992D01*
X203273455Y-73341596D01*
X203158404Y-73226545D01*
X203068008Y-73091258D01*
X203005742Y-72940935D01*
X202974000Y-72781354D01*
X202974000Y-72618646D01*
X203005742Y-72459065D01*
X203068008Y-72308742D01*
X203158404Y-72173455D01*
X203273455Y-72058404D01*
X203408742Y-71968008D01*
X203559065Y-71905742D01*
X203718646Y-71874000D01*
X203881354Y-71874000D01*
X204040935Y-71905742D01*
X204040935Y-71905742D01*
G37*
G36*
X188039694Y-70598633D02*
X188212094Y-70650931D01*
X188212096Y-70650932D01*
X188370983Y-70735859D01*
X188510249Y-70850151D01*
X188624541Y-70989417D01*
X188658398Y-71052759D01*
X188709469Y-71148306D01*
X188761767Y-71320706D01*
X188779425Y-71500000D01*
X188761767Y-71679294D01*
X188709469Y-71851694D01*
X188709468Y-71851696D01*
X188624541Y-72010583D01*
X188510249Y-72149849D01*
X188370983Y-72264141D01*
X188212096Y-72349068D01*
X188212094Y-72349069D01*
X188039694Y-72401367D01*
X187905331Y-72414600D01*
X186494669Y-72414600D01*
X186360306Y-72401367D01*
X186187906Y-72349069D01*
X186187904Y-72349068D01*
X186029017Y-72264141D01*
X185889751Y-72149849D01*
X185775459Y-72010583D01*
X185690532Y-71851696D01*
X185690531Y-71851694D01*
X185638233Y-71679294D01*
X185620575Y-71500000D01*
X185638233Y-71320706D01*
X185690531Y-71148306D01*
X185741602Y-71052759D01*
X185775459Y-70989417D01*
X185889751Y-70850151D01*
X186029017Y-70735859D01*
X186187904Y-70650932D01*
X186187906Y-70650931D01*
X186360306Y-70598633D01*
X186494669Y-70585400D01*
X187905331Y-70585400D01*
X188039694Y-70598633D01*
X188039694Y-70598633D01*
G37*
G36*
X175539694Y-70598633D02*
X175712094Y-70650931D01*
X175712096Y-70650932D01*
X175870983Y-70735859D01*
X176010249Y-70850151D01*
X176124541Y-70989417D01*
X176158398Y-71052759D01*
X176209469Y-71148306D01*
X176261767Y-71320706D01*
X176279425Y-71500000D01*
X176261767Y-71679294D01*
X176209469Y-71851694D01*
X176209468Y-71851696D01*
X176124541Y-72010583D01*
X176010249Y-72149849D01*
X175870983Y-72264141D01*
X175712096Y-72349068D01*
X175712094Y-72349069D01*
X175539694Y-72401367D01*
X175405331Y-72414600D01*
X173994669Y-72414600D01*
X173860306Y-72401367D01*
X173687906Y-72349069D01*
X173687904Y-72349068D01*
X173529017Y-72264141D01*
X173389751Y-72149849D01*
X173275459Y-72010583D01*
X173190532Y-71851696D01*
X173190531Y-71851694D01*
X173138233Y-71679294D01*
X173120575Y-71500000D01*
X173138233Y-71320706D01*
X173190531Y-71148306D01*
X173241602Y-71052759D01*
X173275459Y-70989417D01*
X173389751Y-70850151D01*
X173529017Y-70735859D01*
X173687904Y-70650932D01*
X173687906Y-70650931D01*
X173860306Y-70598633D01*
X173994669Y-70585400D01*
X175405331Y-70585400D01*
X175539694Y-70598633D01*
X175539694Y-70598633D01*
G37*
G36*
X191106565Y-69689389D02*
X191297834Y-69768615D01*
X191469976Y-69883637D01*
X191616363Y-70030024D01*
X191731385Y-70202166D01*
X191810611Y-70393435D01*
X191851000Y-70596484D01*
X191851000Y-70803516D01*
X191810611Y-71006565D01*
X191731385Y-71197834D01*
X191616363Y-71369976D01*
X191469976Y-71516363D01*
X191297834Y-71631385D01*
X191106565Y-71710611D01*
X190903516Y-71751000D01*
X190696484Y-71751000D01*
X190493435Y-71710611D01*
X190302166Y-71631385D01*
X190130024Y-71516363D01*
X189983637Y-71369976D01*
X189868615Y-71197834D01*
X189789389Y-71006565D01*
X189749000Y-70803516D01*
X189749000Y-70596484D01*
X189789389Y-70393435D01*
X189868615Y-70202166D01*
X189983637Y-70030024D01*
X190130024Y-69883637D01*
X190302166Y-69768615D01*
X190493435Y-69689389D01*
X190696484Y-69649000D01*
X190903516Y-69649000D01*
X191106565Y-69689389D01*
X191106565Y-69689389D01*
G37*
G36*
X169963567Y-69024959D02*
X170094072Y-69050918D01*
X170339939Y-69152759D01*
X170560464Y-69300110D01*
X170561215Y-69300612D01*
X170749388Y-69488785D01*
X170749390Y-69488788D01*
X170897241Y-69710061D01*
X170999082Y-69955928D01*
X171013821Y-70030027D01*
X171048062Y-70202165D01*
X171051000Y-70216938D01*
X171051000Y-70483062D01*
X170999082Y-70744072D01*
X170897241Y-70989939D01*
X170758329Y-71197834D01*
X170749388Y-71211215D01*
X170561215Y-71399388D01*
X170561212Y-71399390D01*
X170339939Y-71547241D01*
X170094072Y-71649082D01*
X169963567Y-71675041D01*
X169833063Y-71701000D01*
X169566937Y-71701000D01*
X169436433Y-71675041D01*
X169305928Y-71649082D01*
X169060061Y-71547241D01*
X168838788Y-71399390D01*
X168838785Y-71399388D01*
X168650612Y-71211215D01*
X168641671Y-71197834D01*
X168502759Y-70989939D01*
X168400918Y-70744072D01*
X168349000Y-70483062D01*
X168349000Y-70216938D01*
X168351939Y-70202165D01*
X168386179Y-70030027D01*
X168400918Y-69955928D01*
X168502759Y-69710061D01*
X168650610Y-69488788D01*
X168650612Y-69488785D01*
X168838785Y-69300612D01*
X168839536Y-69300110D01*
X169060061Y-69152759D01*
X169305928Y-69050918D01*
X169436433Y-69024959D01*
X169566937Y-68999000D01*
X169833063Y-68999000D01*
X169963567Y-69024959D01*
X169963567Y-69024959D01*
G37*
G36*
X226651000Y-70101000D02*
X223949000Y-70101000D01*
X223949000Y-67399000D01*
X226651000Y-67399000D01*
X226651000Y-70101000D01*
X226651000Y-70101000D01*
G37*
G36*
X206540935Y-66905742D02*
X206691258Y-66968008D01*
X206826545Y-67058404D01*
X206941596Y-67173455D01*
X207031992Y-67308742D01*
X207094258Y-67459065D01*
X207126000Y-67618646D01*
X207126000Y-67781354D01*
X207094258Y-67940935D01*
X207031992Y-68091258D01*
X206941596Y-68226545D01*
X206826545Y-68341596D01*
X206691258Y-68431992D01*
X206540935Y-68494258D01*
X206381354Y-68526000D01*
X206218646Y-68526000D01*
X206059065Y-68494258D01*
X205908742Y-68431992D01*
X205773455Y-68341596D01*
X205658404Y-68226545D01*
X205568008Y-68091258D01*
X205505742Y-67940935D01*
X205474000Y-67781354D01*
X205474000Y-67618646D01*
X205505742Y-67459065D01*
X205568008Y-67308742D01*
X205658404Y-67173455D01*
X205773455Y-67058404D01*
X205908742Y-66968008D01*
X206059065Y-66905742D01*
X206218646Y-66874000D01*
X206381354Y-66874000D01*
X206540935Y-66905742D01*
X206540935Y-66905742D01*
G37*
G36*
X166051000Y-66601000D02*
X163349000Y-66601000D01*
X163349000Y-63899000D01*
X166051000Y-63899000D01*
X166051000Y-66601000D01*
X166051000Y-66601000D01*
G37*
G36*
X220563567Y-62324959D02*
X220694072Y-62350918D01*
X220939939Y-62452759D01*
X221150474Y-62593435D01*
X221161215Y-62600612D01*
X221349388Y-62788785D01*
X221349390Y-62788788D01*
X221497241Y-63010061D01*
X221599082Y-63255928D01*
X221651000Y-63516938D01*
X221651000Y-63783062D01*
X221599082Y-64044072D01*
X221497241Y-64289939D01*
X221349890Y-64510464D01*
X221349388Y-64511215D01*
X221161215Y-64699388D01*
X221161212Y-64699390D01*
X220939939Y-64847241D01*
X220694072Y-64949082D01*
X220563567Y-64975041D01*
X220433063Y-65001000D01*
X220166937Y-65001000D01*
X220036433Y-64975041D01*
X219905928Y-64949082D01*
X219660061Y-64847241D01*
X219438788Y-64699390D01*
X219438785Y-64699388D01*
X219250612Y-64511215D01*
X219250110Y-64510464D01*
X219102759Y-64289939D01*
X219000918Y-64044072D01*
X218949000Y-63783062D01*
X218949000Y-63516938D01*
X219000918Y-63255928D01*
X219102759Y-63010061D01*
X219250610Y-62788788D01*
X219250612Y-62788785D01*
X219438785Y-62600612D01*
X219449526Y-62593435D01*
X219660061Y-62452759D01*
X219905928Y-62350918D01*
X220036433Y-62324959D01*
X220166937Y-62299000D01*
X220433063Y-62299000D01*
X220563567Y-62324959D01*
X220563567Y-62324959D01*
G37*
G36*
X191833635Y-62111019D02*
X192014903Y-62147075D01*
X192242571Y-62241378D01*
X192446542Y-62377668D01*
X192447469Y-62378287D01*
X192621713Y-62552531D01*
X192621715Y-62552534D01*
X192758622Y-62757429D01*
X192852925Y-62985097D01*
X192901000Y-63226787D01*
X192901000Y-63473213D01*
X192852925Y-63714903D01*
X192758622Y-63942571D01*
X192622332Y-64146542D01*
X192621713Y-64147469D01*
X192447469Y-64321713D01*
X192447466Y-64321715D01*
X192242571Y-64458622D01*
X192014903Y-64552925D01*
X191833635Y-64588981D01*
X191773214Y-64601000D01*
X191526786Y-64601000D01*
X191466365Y-64588981D01*
X191285097Y-64552925D01*
X191057429Y-64458622D01*
X190852534Y-64321715D01*
X190852531Y-64321713D01*
X190678287Y-64147469D01*
X190677668Y-64146542D01*
X190541378Y-63942571D01*
X190447075Y-63714903D01*
X190399000Y-63473213D01*
X190399000Y-63226787D01*
X190447075Y-62985097D01*
X190541378Y-62757429D01*
X190678285Y-62552534D01*
X190678287Y-62552531D01*
X190852531Y-62378287D01*
X190853458Y-62377668D01*
X191057429Y-62241378D01*
X191285097Y-62147075D01*
X191466365Y-62111019D01*
X191526786Y-62099000D01*
X191773214Y-62099000D01*
X191833635Y-62111019D01*
X191833635Y-62111019D01*
G37*
G36*
X198533635Y-62111019D02*
X198714903Y-62147075D01*
X198942571Y-62241378D01*
X199146542Y-62377668D01*
X199147469Y-62378287D01*
X199321713Y-62552531D01*
X199321715Y-62552534D01*
X199458622Y-62757429D01*
X199552925Y-62985097D01*
X199601000Y-63226787D01*
X199601000Y-63473213D01*
X199552925Y-63714903D01*
X199458622Y-63942571D01*
X199322332Y-64146542D01*
X199321713Y-64147469D01*
X199147469Y-64321713D01*
X199147466Y-64321715D01*
X198942571Y-64458622D01*
X198714903Y-64552925D01*
X198533635Y-64588981D01*
X198473214Y-64601000D01*
X198226786Y-64601000D01*
X198166365Y-64588981D01*
X197985097Y-64552925D01*
X197757429Y-64458622D01*
X197552534Y-64321715D01*
X197552531Y-64321713D01*
X197378287Y-64147469D01*
X197377668Y-64146542D01*
X197241378Y-63942571D01*
X197147075Y-63714903D01*
X197099000Y-63473213D01*
X197099000Y-63226787D01*
X197147075Y-62985097D01*
X197241378Y-62757429D01*
X197378285Y-62552534D01*
X197378287Y-62552531D01*
X197552531Y-62378287D01*
X197553458Y-62377668D01*
X197757429Y-62241378D01*
X197985097Y-62147075D01*
X198166365Y-62111019D01*
X198226786Y-62099000D01*
X198473214Y-62099000D01*
X198533635Y-62111019D01*
X198533635Y-62111019D01*
G37*
G36*
X206706565Y-61889389D02*
X206897834Y-61968615D01*
X207069976Y-62083637D01*
X207216363Y-62230024D01*
X207331385Y-62402166D01*
X207410611Y-62593435D01*
X207451000Y-62796484D01*
X207451000Y-63003516D01*
X207410611Y-63206565D01*
X207331385Y-63397834D01*
X207216363Y-63569976D01*
X207069976Y-63716363D01*
X206897834Y-63831385D01*
X206706565Y-63910611D01*
X206503516Y-63951000D01*
X206296484Y-63951000D01*
X206093435Y-63910611D01*
X205902166Y-63831385D01*
X205730024Y-63716363D01*
X205583637Y-63569976D01*
X205468615Y-63397834D01*
X205389389Y-63206565D01*
X205349000Y-63003516D01*
X205349000Y-62796484D01*
X205389389Y-62593435D01*
X205468615Y-62402166D01*
X205583637Y-62230024D01*
X205730024Y-62083637D01*
X205902166Y-61968615D01*
X206093435Y-61889389D01*
X206296484Y-61849000D01*
X206503516Y-61849000D01*
X206706565Y-61889389D01*
X206706565Y-61889389D01*
G37*
G36*
X169963567Y-60424959D02*
X170094072Y-60450918D01*
X170339939Y-60552759D01*
X170560464Y-60700110D01*
X170561215Y-60700612D01*
X170749388Y-60888785D01*
X170749390Y-60888788D01*
X170897241Y-61110061D01*
X170999082Y-61355928D01*
X170999082Y-61355929D01*
X171051000Y-61616937D01*
X171051000Y-61883063D01*
X171033982Y-61968616D01*
X170999082Y-62144072D01*
X170897241Y-62389939D01*
X170761268Y-62593435D01*
X170749388Y-62611215D01*
X170561215Y-62799388D01*
X170561212Y-62799390D01*
X170339939Y-62947241D01*
X170094072Y-63049082D01*
X169963567Y-63075041D01*
X169833063Y-63101000D01*
X169566937Y-63101000D01*
X169436433Y-63075041D01*
X169305928Y-63049082D01*
X169060061Y-62947241D01*
X168838788Y-62799390D01*
X168838785Y-62799388D01*
X168650612Y-62611215D01*
X168638732Y-62593435D01*
X168502759Y-62389939D01*
X168400918Y-62144072D01*
X168366018Y-61968616D01*
X168349000Y-61883063D01*
X168349000Y-61616937D01*
X168400918Y-61355929D01*
X168400918Y-61355928D01*
X168502759Y-61110061D01*
X168650610Y-60888788D01*
X168650612Y-60888785D01*
X168838785Y-60700612D01*
X168839536Y-60700110D01*
X169060061Y-60552759D01*
X169305928Y-60450918D01*
X169436433Y-60424959D01*
X169566937Y-60399000D01*
X169833063Y-60399000D01*
X169963567Y-60424959D01*
X169963567Y-60424959D01*
G37*
G36*
X226651000Y-61501000D02*
X223949000Y-61501000D01*
X223949000Y-58799000D01*
X226651000Y-58799000D01*
X226651000Y-61501000D01*
X226651000Y-61501000D01*
G37*
G36*
X199933635Y-58761019D02*
X200114903Y-58797075D01*
X200342571Y-58891378D01*
X200546542Y-59027668D01*
X200547469Y-59028287D01*
X200721713Y-59202531D01*
X200721715Y-59202534D01*
X200858622Y-59407429D01*
X200952925Y-59635097D01*
X201001000Y-59876787D01*
X201001000Y-60123213D01*
X200952925Y-60364903D01*
X200858622Y-60592571D01*
X200786432Y-60700610D01*
X200721713Y-60797469D01*
X200547469Y-60971713D01*
X200547466Y-60971715D01*
X200342571Y-61108622D01*
X200114903Y-61202925D01*
X199933636Y-61238981D01*
X199873214Y-61251000D01*
X199626786Y-61251000D01*
X199566364Y-61238981D01*
X199385097Y-61202925D01*
X199157429Y-61108622D01*
X198952534Y-60971715D01*
X198952531Y-60971713D01*
X198778287Y-60797469D01*
X198713568Y-60700610D01*
X198641378Y-60592571D01*
X198547075Y-60364903D01*
X198499000Y-60123213D01*
X198499000Y-59876787D01*
X198547075Y-59635097D01*
X198641378Y-59407429D01*
X198778285Y-59202534D01*
X198778287Y-59202531D01*
X198952531Y-59028287D01*
X198953458Y-59027668D01*
X199157429Y-58891378D01*
X199385097Y-58797075D01*
X199566365Y-58761019D01*
X199626786Y-58749000D01*
X199873214Y-58749000D01*
X199933635Y-58761019D01*
X199933635Y-58761019D01*
G37*
G36*
X190433635Y-58761019D02*
X190614903Y-58797075D01*
X190842571Y-58891378D01*
X191046542Y-59027668D01*
X191047469Y-59028287D01*
X191221713Y-59202531D01*
X191221715Y-59202534D01*
X191358622Y-59407429D01*
X191452925Y-59635097D01*
X191501000Y-59876787D01*
X191501000Y-60123213D01*
X191452925Y-60364903D01*
X191358622Y-60592571D01*
X191286432Y-60700610D01*
X191221713Y-60797469D01*
X191047469Y-60971713D01*
X191047466Y-60971715D01*
X190842571Y-61108622D01*
X190614903Y-61202925D01*
X190433636Y-61238981D01*
X190373214Y-61251000D01*
X190126786Y-61251000D01*
X190066364Y-61238981D01*
X189885097Y-61202925D01*
X189657429Y-61108622D01*
X189452534Y-60971715D01*
X189452531Y-60971713D01*
X189278287Y-60797469D01*
X189213568Y-60700610D01*
X189141378Y-60592571D01*
X189047075Y-60364903D01*
X188999000Y-60123213D01*
X188999000Y-59876787D01*
X189047075Y-59635097D01*
X189141378Y-59407429D01*
X189278285Y-59202534D01*
X189278287Y-59202531D01*
X189452531Y-59028287D01*
X189453458Y-59027668D01*
X189657429Y-58891378D01*
X189885097Y-58797075D01*
X190066365Y-58761019D01*
X190126786Y-58749000D01*
X190373214Y-58749000D01*
X190433635Y-58761019D01*
X190433635Y-58761019D01*
G37*
G36*
X198533636Y-55411019D02*
X198714903Y-55447075D01*
X198942571Y-55541378D01*
X199103638Y-55649000D01*
X199147469Y-55678287D01*
X199321713Y-55852531D01*
X199321715Y-55852534D01*
X199458622Y-56057429D01*
X199552925Y-56285097D01*
X199601000Y-56526787D01*
X199601000Y-56773213D01*
X199552925Y-57014903D01*
X199458622Y-57242571D01*
X199322332Y-57446542D01*
X199321713Y-57447469D01*
X199147469Y-57621713D01*
X199147466Y-57621715D01*
X198942571Y-57758622D01*
X198714903Y-57852925D01*
X198533636Y-57888981D01*
X198473214Y-57901000D01*
X198226786Y-57901000D01*
X198166364Y-57888981D01*
X197985097Y-57852925D01*
X197757429Y-57758622D01*
X197552534Y-57621715D01*
X197552531Y-57621713D01*
X197378287Y-57447469D01*
X197377668Y-57446542D01*
X197241378Y-57242571D01*
X197147075Y-57014903D01*
X197099000Y-56773213D01*
X197099000Y-56526787D01*
X197147075Y-56285097D01*
X197241378Y-56057429D01*
X197378285Y-55852534D01*
X197378287Y-55852531D01*
X197552531Y-55678287D01*
X197596362Y-55649000D01*
X197757429Y-55541378D01*
X197985097Y-55447075D01*
X198166364Y-55411019D01*
X198226786Y-55399000D01*
X198473214Y-55399000D01*
X198533636Y-55411019D01*
X198533636Y-55411019D01*
G37*
G36*
X191833636Y-55411019D02*
X192014903Y-55447075D01*
X192242571Y-55541378D01*
X192403638Y-55649000D01*
X192447469Y-55678287D01*
X192621713Y-55852531D01*
X192621715Y-55852534D01*
X192758622Y-56057429D01*
X192852925Y-56285097D01*
X192901000Y-56526787D01*
X192901000Y-56773213D01*
X192852925Y-57014903D01*
X192758622Y-57242571D01*
X192622332Y-57446542D01*
X192621713Y-57447469D01*
X192447469Y-57621713D01*
X192447466Y-57621715D01*
X192242571Y-57758622D01*
X192014903Y-57852925D01*
X191833636Y-57888981D01*
X191773214Y-57901000D01*
X191526786Y-57901000D01*
X191466364Y-57888981D01*
X191285097Y-57852925D01*
X191057429Y-57758622D01*
X190852534Y-57621715D01*
X190852531Y-57621713D01*
X190678287Y-57447469D01*
X190677668Y-57446542D01*
X190541378Y-57242571D01*
X190447075Y-57014903D01*
X190399000Y-56773213D01*
X190399000Y-56526787D01*
X190447075Y-56285097D01*
X190541378Y-56057429D01*
X190678285Y-55852534D01*
X190678287Y-55852531D01*
X190852531Y-55678287D01*
X190896362Y-55649000D01*
X191057429Y-55541378D01*
X191285097Y-55447075D01*
X191466364Y-55411019D01*
X191526786Y-55399000D01*
X191773214Y-55399000D01*
X191833636Y-55411019D01*
X191833636Y-55411019D01*
G37*
G36*
X183486821Y-55701313D02*
X183486824Y-55701314D01*
X183486825Y-55701314D01*
X183647239Y-55749975D01*
X183647241Y-55749976D01*
X183647244Y-55749977D01*
X183795078Y-55828995D01*
X183924659Y-55935341D01*
X184031005Y-56064922D01*
X184110023Y-56212756D01*
X184110024Y-56212759D01*
X184110025Y-56212761D01*
X184146552Y-56333175D01*
X184158687Y-56373179D01*
X184175117Y-56540000D01*
X184158687Y-56706821D01*
X184158686Y-56706824D01*
X184158686Y-56706825D01*
X184122159Y-56827239D01*
X184110023Y-56867244D01*
X184031005Y-57015078D01*
X183924659Y-57144659D01*
X183795078Y-57251005D01*
X183647244Y-57330023D01*
X183647241Y-57330024D01*
X183647239Y-57330025D01*
X183486825Y-57378686D01*
X183486824Y-57378686D01*
X183486821Y-57378687D01*
X183361804Y-57391000D01*
X182478196Y-57391000D01*
X182353179Y-57378687D01*
X182353176Y-57378686D01*
X182353175Y-57378686D01*
X182192761Y-57330025D01*
X182192759Y-57330024D01*
X182192756Y-57330023D01*
X182044922Y-57251005D01*
X181915341Y-57144659D01*
X181808995Y-57015078D01*
X181729977Y-56867244D01*
X181717842Y-56827239D01*
X181681314Y-56706825D01*
X181681314Y-56706824D01*
X181681313Y-56706821D01*
X181664883Y-56540000D01*
X181681313Y-56373179D01*
X181693448Y-56333175D01*
X181729975Y-56212761D01*
X181729976Y-56212759D01*
X181729977Y-56212756D01*
X181808995Y-56064922D01*
X181915341Y-55935341D01*
X182044922Y-55828995D01*
X182192756Y-55749977D01*
X182192759Y-55749976D01*
X182192761Y-55749975D01*
X182353175Y-55701314D01*
X182353176Y-55701314D01*
X182353179Y-55701313D01*
X182478196Y-55689000D01*
X183361804Y-55689000D01*
X183486821Y-55701313D01*
X183486821Y-55701313D01*
G37*
G36*
X175866821Y-55701313D02*
X175866824Y-55701314D01*
X175866825Y-55701314D01*
X176027239Y-55749975D01*
X176027241Y-55749976D01*
X176027244Y-55749977D01*
X176175078Y-55828995D01*
X176304659Y-55935341D01*
X176411005Y-56064922D01*
X176490023Y-56212756D01*
X176490024Y-56212759D01*
X176490025Y-56212761D01*
X176526552Y-56333175D01*
X176538687Y-56373179D01*
X176555117Y-56540000D01*
X176538687Y-56706821D01*
X176538686Y-56706824D01*
X176538686Y-56706825D01*
X176502159Y-56827239D01*
X176490023Y-56867244D01*
X176411005Y-57015078D01*
X176304659Y-57144659D01*
X176175078Y-57251005D01*
X176027244Y-57330023D01*
X176027241Y-57330024D01*
X176027239Y-57330025D01*
X175866825Y-57378686D01*
X175866824Y-57378686D01*
X175866821Y-57378687D01*
X175741804Y-57391000D01*
X174858196Y-57391000D01*
X174733179Y-57378687D01*
X174733176Y-57378686D01*
X174733175Y-57378686D01*
X174572761Y-57330025D01*
X174572759Y-57330024D01*
X174572756Y-57330023D01*
X174424922Y-57251005D01*
X174295341Y-57144659D01*
X174188995Y-57015078D01*
X174109977Y-56867244D01*
X174097842Y-56827239D01*
X174061314Y-56706825D01*
X174061314Y-56706824D01*
X174061313Y-56706821D01*
X174044883Y-56540000D01*
X174061313Y-56373179D01*
X174073448Y-56333175D01*
X174109975Y-56212761D01*
X174109976Y-56212759D01*
X174109977Y-56212756D01*
X174188995Y-56064922D01*
X174295341Y-55935341D01*
X174424922Y-55828995D01*
X174572756Y-55749977D01*
X174572759Y-55749976D01*
X174572761Y-55749975D01*
X174733175Y-55701314D01*
X174733176Y-55701314D01*
X174733179Y-55701313D01*
X174858196Y-55689000D01*
X175741804Y-55689000D01*
X175866821Y-55701313D01*
X175866821Y-55701313D01*
G37*
G36*
X216771000Y-57351000D02*
X214269000Y-57351000D01*
X214269000Y-55649000D01*
X216771000Y-55649000D01*
X216771000Y-57351000D01*
X216771000Y-57351000D01*
G37*
G36*
X208466821Y-55661313D02*
X208466824Y-55661314D01*
X208466825Y-55661314D01*
X208627239Y-55709975D01*
X208627241Y-55709976D01*
X208627244Y-55709977D01*
X208775078Y-55788995D01*
X208904659Y-55895341D01*
X209011005Y-56024922D01*
X209090023Y-56172756D01*
X209090024Y-56172759D01*
X209090025Y-56172761D01*
X209138686Y-56333175D01*
X209138687Y-56333179D01*
X209155117Y-56500000D01*
X209138687Y-56666821D01*
X209138686Y-56666824D01*
X209138686Y-56666825D01*
X209106414Y-56773213D01*
X209090023Y-56827244D01*
X209011005Y-56975078D01*
X208904659Y-57104659D01*
X208775078Y-57211005D01*
X208627244Y-57290023D01*
X208627241Y-57290024D01*
X208627239Y-57290025D01*
X208466825Y-57338686D01*
X208466824Y-57338686D01*
X208466821Y-57338687D01*
X208341804Y-57351000D01*
X207458196Y-57351000D01*
X207333179Y-57338687D01*
X207333176Y-57338686D01*
X207333175Y-57338686D01*
X207172761Y-57290025D01*
X207172759Y-57290024D01*
X207172756Y-57290023D01*
X207024922Y-57211005D01*
X206895341Y-57104659D01*
X206788995Y-56975078D01*
X206709977Y-56827244D01*
X206693587Y-56773213D01*
X206661314Y-56666825D01*
X206661314Y-56666824D01*
X206661313Y-56666821D01*
X206644883Y-56500000D01*
X206661313Y-56333179D01*
X206661314Y-56333175D01*
X206709975Y-56172761D01*
X206709976Y-56172759D01*
X206709977Y-56172756D01*
X206788995Y-56024922D01*
X206895341Y-55895341D01*
X207024922Y-55788995D01*
X207172756Y-55709977D01*
X207172759Y-55709976D01*
X207172761Y-55709975D01*
X207333175Y-55661314D01*
X207333176Y-55661314D01*
X207333179Y-55661313D01*
X207458196Y-55649000D01*
X208341804Y-55649000D01*
X208466821Y-55661313D01*
X208466821Y-55661313D01*
G37*
G36*
X165375256Y-53391298D02*
X165481579Y-53412447D01*
X165656549Y-53484922D01*
X165753118Y-53524922D01*
X165782042Y-53536903D01*
X165925496Y-53632756D01*
X166052454Y-53717587D01*
X166282413Y-53947546D01*
X166282415Y-53947549D01*
X166463097Y-54217958D01*
X166569600Y-54475078D01*
X166587553Y-54518422D01*
X166643302Y-54798687D01*
X166651000Y-54837391D01*
X166651000Y-55162609D01*
X166587553Y-55481579D01*
X166463097Y-55782042D01*
X166300809Y-56024922D01*
X166282413Y-56052454D01*
X166052454Y-56282413D01*
X166052451Y-56282415D01*
X165782042Y-56463097D01*
X165481579Y-56587553D01*
X165375256Y-56608702D01*
X165162611Y-56651000D01*
X164837389Y-56651000D01*
X164624744Y-56608702D01*
X164518421Y-56587553D01*
X164217958Y-56463097D01*
X163947549Y-56282415D01*
X163947546Y-56282413D01*
X163717587Y-56052454D01*
X163699191Y-56024922D01*
X163536903Y-55782042D01*
X163412447Y-55481579D01*
X163349000Y-55162609D01*
X163349000Y-54837391D01*
X163356699Y-54798687D01*
X163412447Y-54518422D01*
X163430401Y-54475078D01*
X163536903Y-54217958D01*
X163717585Y-53947549D01*
X163717587Y-53947546D01*
X163947546Y-53717587D01*
X164074504Y-53632756D01*
X164217958Y-53536903D01*
X164246883Y-53524922D01*
X164343451Y-53484922D01*
X164518421Y-53412447D01*
X164624744Y-53391298D01*
X164837389Y-53349000D01*
X165162611Y-53349000D01*
X165375256Y-53391298D01*
X165375256Y-53391298D01*
G37*
G36*
X225375256Y-53391298D02*
X225481579Y-53412447D01*
X225656549Y-53484922D01*
X225753118Y-53524922D01*
X225782042Y-53536903D01*
X225925496Y-53632756D01*
X226052454Y-53717587D01*
X226282413Y-53947546D01*
X226282415Y-53947549D01*
X226463097Y-54217958D01*
X226569600Y-54475078D01*
X226587553Y-54518422D01*
X226643302Y-54798687D01*
X226651000Y-54837391D01*
X226651000Y-55162609D01*
X226587553Y-55481579D01*
X226463097Y-55782042D01*
X226300809Y-56024922D01*
X226282413Y-56052454D01*
X226052454Y-56282413D01*
X226052451Y-56282415D01*
X225782042Y-56463097D01*
X225481579Y-56587553D01*
X225375256Y-56608702D01*
X225162611Y-56651000D01*
X224837389Y-56651000D01*
X224624744Y-56608702D01*
X224518421Y-56587553D01*
X224217958Y-56463097D01*
X223947549Y-56282415D01*
X223947546Y-56282413D01*
X223717587Y-56052454D01*
X223699191Y-56024922D01*
X223536903Y-55782042D01*
X223412447Y-55481579D01*
X223349000Y-55162609D01*
X223349000Y-54837391D01*
X223356699Y-54798687D01*
X223412447Y-54518422D01*
X223430401Y-54475078D01*
X223536903Y-54217958D01*
X223717585Y-53947549D01*
X223717587Y-53947546D01*
X223947546Y-53717587D01*
X224074504Y-53632756D01*
X224217958Y-53536903D01*
X224246883Y-53524922D01*
X224343451Y-53484922D01*
X224518421Y-53412447D01*
X224624744Y-53391298D01*
X224837389Y-53349000D01*
X225162611Y-53349000D01*
X225375256Y-53391298D01*
X225375256Y-53391298D01*
G37*
G36*
X183486821Y-53161313D02*
X183486824Y-53161314D01*
X183486825Y-53161314D01*
X183647239Y-53209975D01*
X183647241Y-53209976D01*
X183647244Y-53209977D01*
X183795078Y-53288995D01*
X183924659Y-53395341D01*
X184031005Y-53524922D01*
X184110023Y-53672756D01*
X184110024Y-53672759D01*
X184110025Y-53672761D01*
X184146552Y-53793175D01*
X184158687Y-53833179D01*
X184175117Y-54000000D01*
X184158687Y-54166821D01*
X184158686Y-54166824D01*
X184158686Y-54166825D01*
X184122159Y-54287239D01*
X184110023Y-54327244D01*
X184031005Y-54475078D01*
X183924659Y-54604659D01*
X183795078Y-54711005D01*
X183647244Y-54790023D01*
X183647241Y-54790024D01*
X183647239Y-54790025D01*
X183486825Y-54838686D01*
X183486824Y-54838686D01*
X183486821Y-54838687D01*
X183361804Y-54851000D01*
X182478196Y-54851000D01*
X182353179Y-54838687D01*
X182353176Y-54838686D01*
X182353175Y-54838686D01*
X182192761Y-54790025D01*
X182192759Y-54790024D01*
X182192756Y-54790023D01*
X182044922Y-54711005D01*
X181915341Y-54604659D01*
X181808995Y-54475078D01*
X181729977Y-54327244D01*
X181717842Y-54287239D01*
X181681314Y-54166825D01*
X181681314Y-54166824D01*
X181681313Y-54166821D01*
X181664883Y-54000000D01*
X181681313Y-53833179D01*
X181693448Y-53793175D01*
X181729975Y-53672761D01*
X181729976Y-53672759D01*
X181729977Y-53672756D01*
X181808995Y-53524922D01*
X181915341Y-53395341D01*
X182044922Y-53288995D01*
X182192756Y-53209977D01*
X182192759Y-53209976D01*
X182192761Y-53209975D01*
X182353175Y-53161314D01*
X182353176Y-53161314D01*
X182353179Y-53161313D01*
X182478196Y-53149000D01*
X183361804Y-53149000D01*
X183486821Y-53161313D01*
X183486821Y-53161313D01*
G37*
G36*
X176551000Y-54851000D02*
X174049000Y-54851000D01*
X174049000Y-53149000D01*
X176551000Y-53149000D01*
X176551000Y-54851000D01*
X176551000Y-54851000D01*
G37*
G36*
X216086821Y-53121313D02*
X216086824Y-53121314D01*
X216086825Y-53121314D01*
X216247239Y-53169975D01*
X216247241Y-53169976D01*
X216247244Y-53169977D01*
X216395078Y-53248995D01*
X216524659Y-53355341D01*
X216631005Y-53484922D01*
X216710023Y-53632756D01*
X216710024Y-53632759D01*
X216710025Y-53632761D01*
X216758686Y-53793175D01*
X216758687Y-53793179D01*
X216775117Y-53960000D01*
X216758687Y-54126821D01*
X216758686Y-54126824D01*
X216758686Y-54126825D01*
X216731041Y-54217960D01*
X216710023Y-54287244D01*
X216631005Y-54435078D01*
X216524659Y-54564659D01*
X216395078Y-54671005D01*
X216247244Y-54750023D01*
X216247241Y-54750024D01*
X216247239Y-54750025D01*
X216086825Y-54798686D01*
X216086824Y-54798686D01*
X216086821Y-54798687D01*
X215961804Y-54811000D01*
X215078196Y-54811000D01*
X214953179Y-54798687D01*
X214953176Y-54798686D01*
X214953175Y-54798686D01*
X214792761Y-54750025D01*
X214792759Y-54750024D01*
X214792756Y-54750023D01*
X214644922Y-54671005D01*
X214515341Y-54564659D01*
X214408995Y-54435078D01*
X214329977Y-54287244D01*
X214308960Y-54217960D01*
X214281314Y-54126825D01*
X214281314Y-54126824D01*
X214281313Y-54126821D01*
X214264883Y-53960000D01*
X214281313Y-53793179D01*
X214281314Y-53793175D01*
X214329975Y-53632761D01*
X214329976Y-53632759D01*
X214329977Y-53632756D01*
X214408995Y-53484922D01*
X214515341Y-53355341D01*
X214644922Y-53248995D01*
X214792756Y-53169977D01*
X214792759Y-53169976D01*
X214792761Y-53169975D01*
X214953175Y-53121314D01*
X214953176Y-53121314D01*
X214953179Y-53121313D01*
X215078196Y-53109000D01*
X215961804Y-53109000D01*
X216086821Y-53121313D01*
X216086821Y-53121313D01*
G37*
G36*
X208466821Y-53121313D02*
X208466824Y-53121314D01*
X208466825Y-53121314D01*
X208627239Y-53169975D01*
X208627241Y-53169976D01*
X208627244Y-53169977D01*
X208775078Y-53248995D01*
X208904659Y-53355341D01*
X209011005Y-53484922D01*
X209090023Y-53632756D01*
X209090024Y-53632759D01*
X209090025Y-53632761D01*
X209138686Y-53793175D01*
X209138687Y-53793179D01*
X209155117Y-53960000D01*
X209138687Y-54126821D01*
X209138686Y-54126824D01*
X209138686Y-54126825D01*
X209111041Y-54217960D01*
X209090023Y-54287244D01*
X209011005Y-54435078D01*
X208904659Y-54564659D01*
X208775078Y-54671005D01*
X208627244Y-54750023D01*
X208627241Y-54750024D01*
X208627239Y-54750025D01*
X208466825Y-54798686D01*
X208466824Y-54798686D01*
X208466821Y-54798687D01*
X208341804Y-54811000D01*
X207458196Y-54811000D01*
X207333179Y-54798687D01*
X207333176Y-54798686D01*
X207333175Y-54798686D01*
X207172761Y-54750025D01*
X207172759Y-54750024D01*
X207172756Y-54750023D01*
X207024922Y-54671005D01*
X206895341Y-54564659D01*
X206788995Y-54435078D01*
X206709977Y-54287244D01*
X206688960Y-54217960D01*
X206661314Y-54126825D01*
X206661314Y-54126824D01*
X206661313Y-54126821D01*
X206644883Y-53960000D01*
X206661313Y-53793179D01*
X206661314Y-53793175D01*
X206709975Y-53632761D01*
X206709976Y-53632759D01*
X206709977Y-53632756D01*
X206788995Y-53484922D01*
X206895341Y-53355341D01*
X207024922Y-53248995D01*
X207172756Y-53169977D01*
X207172759Y-53169976D01*
X207172761Y-53169975D01*
X207333175Y-53121314D01*
X207333176Y-53121314D01*
X207333179Y-53121313D01*
X207458196Y-53109000D01*
X208341804Y-53109000D01*
X208466821Y-53121313D01*
X208466821Y-53121313D01*
G37*
G36*
X186306565Y-50989389D02*
X186497834Y-51068615D01*
X186669976Y-51183637D01*
X186816363Y-51330024D01*
X186931385Y-51502166D01*
X187010611Y-51693435D01*
X187051000Y-51896484D01*
X187051000Y-52103516D01*
X187010611Y-52306565D01*
X186931385Y-52497834D01*
X186816363Y-52669976D01*
X186669976Y-52816363D01*
X186497834Y-52931385D01*
X186306565Y-53010611D01*
X186103516Y-53051000D01*
X185896484Y-53051000D01*
X185693435Y-53010611D01*
X185502166Y-52931385D01*
X185330024Y-52816363D01*
X185183637Y-52669976D01*
X185068615Y-52497834D01*
X184989389Y-52306565D01*
X184949000Y-52103516D01*
X184949000Y-51896484D01*
X184989389Y-51693435D01*
X185068615Y-51502166D01*
X185183637Y-51330024D01*
X185330024Y-51183637D01*
X185502166Y-51068615D01*
X185693435Y-50989389D01*
X185896484Y-50949000D01*
X186103516Y-50949000D01*
X186306565Y-50989389D01*
X186306565Y-50989389D01*
G37*
M02*
