G04 #@! TF.GenerationSoftware,KiCad,Pcbnew,(5.0.2)-1*
G04 #@! TF.CreationDate,2019-05-09T18:21:29+02:00*
G04 #@! TF.ProjectId,SafetySystem,53616665-7479-4537-9973-74656d2e6b69,rev?*
G04 #@! TF.SameCoordinates,Original*
G04 #@! TF.FileFunction,Legend,Top*
G04 #@! TF.FilePolarity,Positive*
%FSLAX46Y46*%
G04 Gerber Fmt 4.6, Leading zero omitted, Abs format (unit mm)*
G04 Created by KiCad (PCBNEW (5.0.2)-1) date 09.05.2019 18:21:29*
%MOMM*%
%LPD*%
G01*
G04 APERTURE LIST*
%ADD10C,0.250000*%
%ADD11C,0.300000*%
%ADD12C,0.010000*%
%ADD13C,0.150000*%
%ADD14C,0.120000*%
%ADD15C,0.100000*%
G04 APERTURE END LIST*
D10*
X189052380Y-74952380D02*
X188052380Y-74952380D01*
X189052380Y-74476190D02*
X188052380Y-74476190D01*
X189052380Y-73904761D01*
X188052380Y-73904761D01*
X188052380Y-73571428D02*
X189052380Y-73238095D01*
X188052380Y-72904761D01*
X188952380Y-87547619D02*
X188476190Y-87880952D01*
X188952380Y-88119047D02*
X187952380Y-88119047D01*
X187952380Y-87738095D01*
X188000000Y-87642857D01*
X188047619Y-87595238D01*
X188142857Y-87547619D01*
X188285714Y-87547619D01*
X188380952Y-87595238D01*
X188428571Y-87642857D01*
X188476190Y-87738095D01*
X188476190Y-88119047D01*
X188904761Y-87166666D02*
X188952380Y-87023809D01*
X188952380Y-86785714D01*
X188904761Y-86690476D01*
X188857142Y-86642857D01*
X188761904Y-86595238D01*
X188666666Y-86595238D01*
X188571428Y-86642857D01*
X188523809Y-86690476D01*
X188476190Y-86785714D01*
X188428571Y-86976190D01*
X188380952Y-87071428D01*
X188333333Y-87119047D01*
X188238095Y-87166666D01*
X188142857Y-87166666D01*
X188047619Y-87119047D01*
X188000000Y-87071428D01*
X187952380Y-86976190D01*
X187952380Y-86738095D01*
X188000000Y-86595238D01*
X187952380Y-86309523D02*
X187952380Y-85738095D01*
X188952380Y-86023809D02*
X187952380Y-86023809D01*
D11*
X201935714Y-52607142D02*
X202150000Y-52678571D01*
X202507142Y-52678571D01*
X202650000Y-52607142D01*
X202721428Y-52535714D01*
X202792857Y-52392857D01*
X202792857Y-52250000D01*
X202721428Y-52107142D01*
X202650000Y-52035714D01*
X202507142Y-51964285D01*
X202221428Y-51892857D01*
X202078571Y-51821428D01*
X202007142Y-51750000D01*
X201935714Y-51607142D01*
X201935714Y-51464285D01*
X202007142Y-51321428D01*
X202078571Y-51250000D01*
X202221428Y-51178571D01*
X202578571Y-51178571D01*
X202792857Y-51250000D01*
X203435714Y-51892857D02*
X203935714Y-51892857D01*
X204150000Y-52678571D02*
X203435714Y-52678571D01*
X203435714Y-51178571D01*
X204150000Y-51178571D01*
X204792857Y-52678571D02*
X204792857Y-51178571D01*
X205292857Y-52250000D01*
X205792857Y-51178571D01*
X205792857Y-52678571D01*
D12*
G04 #@! TO.C,G1*
G36*
X220152401Y-105115340D02*
X220159881Y-105037679D01*
X220172896Y-104969625D01*
X220173579Y-104967004D01*
X220182598Y-104936501D01*
X220195444Y-104897763D01*
X220210644Y-104854745D01*
X220226725Y-104811404D01*
X220242215Y-104771695D01*
X220255639Y-104739572D01*
X220265526Y-104718993D01*
X220266633Y-104717114D01*
X220274649Y-104712309D01*
X220292930Y-104709385D01*
X220323579Y-104708183D01*
X220368699Y-104708541D01*
X220376502Y-104708711D01*
X220479703Y-104711100D01*
X220436108Y-104770367D01*
X220388262Y-104844478D01*
X220347584Y-104925449D01*
X220317267Y-105006642D01*
X220310152Y-105032071D01*
X220299105Y-105092176D01*
X220293719Y-105159232D01*
X220294075Y-105226870D01*
X220300253Y-105288722D01*
X220306546Y-105319478D01*
X220335359Y-105398935D01*
X220378031Y-105469626D01*
X220433617Y-105531010D01*
X220501176Y-105582547D01*
X220579765Y-105623698D01*
X220668440Y-105653922D01*
X220766261Y-105672680D01*
X220872283Y-105679432D01*
X220932367Y-105677909D01*
X221041294Y-105665642D01*
X221139192Y-105641643D01*
X221225633Y-105606223D01*
X221300187Y-105559691D01*
X221362427Y-105502357D01*
X221411923Y-105434533D01*
X221448247Y-105356528D01*
X221466687Y-105291067D01*
X221474555Y-105231995D01*
X221476032Y-105164139D01*
X221471346Y-105094301D01*
X221460722Y-105029285D01*
X221457507Y-105015900D01*
X221438296Y-104958703D01*
X221409532Y-104895579D01*
X221374081Y-104832117D01*
X221334807Y-104773903D01*
X221330523Y-104768250D01*
X221283424Y-104706867D01*
X221492893Y-104706867D01*
X221519031Y-104764017D01*
X221546949Y-104827488D01*
X221568257Y-104882156D01*
X221585029Y-104933755D01*
X221597773Y-104981537D01*
X221606580Y-105028425D01*
X221613257Y-105085425D01*
X221617529Y-105147073D01*
X221619121Y-105207906D01*
X221617758Y-105262461D01*
X221613869Y-105301109D01*
X221594741Y-105393725D01*
X221568047Y-105473898D01*
X221532106Y-105545064D01*
X221485239Y-105610656D01*
X221436560Y-105663600D01*
X221374887Y-105719303D01*
X221318512Y-105759053D01*
X221304755Y-105766754D01*
X221218268Y-105804154D01*
X221121183Y-105831749D01*
X221016837Y-105849349D01*
X220908571Y-105856767D01*
X220799722Y-105853811D01*
X220693630Y-105840295D01*
X220593633Y-105816028D01*
X220570202Y-105808338D01*
X220474846Y-105766774D01*
X220390252Y-105712401D01*
X220317142Y-105646043D01*
X220256236Y-105568525D01*
X220208254Y-105480670D01*
X220173915Y-105383303D01*
X220164631Y-105344160D01*
X220154629Y-105274762D01*
X220150601Y-105196428D01*
X220152401Y-105115340D01*
X220152401Y-105115340D01*
G37*
X220152401Y-105115340D02*
X220159881Y-105037679D01*
X220172896Y-104969625D01*
X220173579Y-104967004D01*
X220182598Y-104936501D01*
X220195444Y-104897763D01*
X220210644Y-104854745D01*
X220226725Y-104811404D01*
X220242215Y-104771695D01*
X220255639Y-104739572D01*
X220265526Y-104718993D01*
X220266633Y-104717114D01*
X220274649Y-104712309D01*
X220292930Y-104709385D01*
X220323579Y-104708183D01*
X220368699Y-104708541D01*
X220376502Y-104708711D01*
X220479703Y-104711100D01*
X220436108Y-104770367D01*
X220388262Y-104844478D01*
X220347584Y-104925449D01*
X220317267Y-105006642D01*
X220310152Y-105032071D01*
X220299105Y-105092176D01*
X220293719Y-105159232D01*
X220294075Y-105226870D01*
X220300253Y-105288722D01*
X220306546Y-105319478D01*
X220335359Y-105398935D01*
X220378031Y-105469626D01*
X220433617Y-105531010D01*
X220501176Y-105582547D01*
X220579765Y-105623698D01*
X220668440Y-105653922D01*
X220766261Y-105672680D01*
X220872283Y-105679432D01*
X220932367Y-105677909D01*
X221041294Y-105665642D01*
X221139192Y-105641643D01*
X221225633Y-105606223D01*
X221300187Y-105559691D01*
X221362427Y-105502357D01*
X221411923Y-105434533D01*
X221448247Y-105356528D01*
X221466687Y-105291067D01*
X221474555Y-105231995D01*
X221476032Y-105164139D01*
X221471346Y-105094301D01*
X221460722Y-105029285D01*
X221457507Y-105015900D01*
X221438296Y-104958703D01*
X221409532Y-104895579D01*
X221374081Y-104832117D01*
X221334807Y-104773903D01*
X221330523Y-104768250D01*
X221283424Y-104706867D01*
X221492893Y-104706867D01*
X221519031Y-104764017D01*
X221546949Y-104827488D01*
X221568257Y-104882156D01*
X221585029Y-104933755D01*
X221597773Y-104981537D01*
X221606580Y-105028425D01*
X221613257Y-105085425D01*
X221617529Y-105147073D01*
X221619121Y-105207906D01*
X221617758Y-105262461D01*
X221613869Y-105301109D01*
X221594741Y-105393725D01*
X221568047Y-105473898D01*
X221532106Y-105545064D01*
X221485239Y-105610656D01*
X221436560Y-105663600D01*
X221374887Y-105719303D01*
X221318512Y-105759053D01*
X221304755Y-105766754D01*
X221218268Y-105804154D01*
X221121183Y-105831749D01*
X221016837Y-105849349D01*
X220908571Y-105856767D01*
X220799722Y-105853811D01*
X220693630Y-105840295D01*
X220593633Y-105816028D01*
X220570202Y-105808338D01*
X220474846Y-105766774D01*
X220390252Y-105712401D01*
X220317142Y-105646043D01*
X220256236Y-105568525D01*
X220208254Y-105480670D01*
X220173915Y-105383303D01*
X220164631Y-105344160D01*
X220154629Y-105274762D01*
X220150601Y-105196428D01*
X220152401Y-105115340D01*
G36*
X218469071Y-102837300D02*
X218482869Y-102689674D01*
X218509795Y-102544788D01*
X218549695Y-102405801D01*
X218550108Y-102404599D01*
X218572869Y-102345589D01*
X218602846Y-102278243D01*
X218637596Y-102207327D01*
X218674673Y-102137603D01*
X218711632Y-102073834D01*
X218746028Y-102020785D01*
X218750025Y-102015145D01*
X218829880Y-101914113D01*
X218921356Y-101816288D01*
X219020504Y-101725392D01*
X219123380Y-101645149D01*
X219188233Y-101601800D01*
X219328563Y-101524003D01*
X219473934Y-101461889D01*
X219623185Y-101415384D01*
X219775154Y-101384416D01*
X219928680Y-101368910D01*
X220082602Y-101368793D01*
X220235758Y-101383993D01*
X220386987Y-101414434D01*
X220535127Y-101460045D01*
X220679018Y-101520751D01*
X220817497Y-101596478D01*
X220949404Y-101687155D01*
X220985297Y-101715453D01*
X221041540Y-101764033D01*
X221098763Y-101818637D01*
X221152969Y-101875145D01*
X221200164Y-101929437D01*
X221228862Y-101966649D01*
X221246634Y-101990287D01*
X221260994Y-102007302D01*
X221268869Y-102014056D01*
X221268917Y-102014061D01*
X221271211Y-102006255D01*
X221273136Y-101984551D01*
X221274527Y-101951981D01*
X221275219Y-101911579D01*
X221275267Y-101897345D01*
X221275525Y-101849862D01*
X221276477Y-101816868D01*
X221278388Y-101795926D01*
X221281520Y-101784594D01*
X221286140Y-101780436D01*
X221287967Y-101780222D01*
X221294949Y-101783776D01*
X221298903Y-101796523D01*
X221300518Y-101821598D01*
X221300667Y-101837883D01*
X221300667Y-101895543D01*
X221450841Y-101897855D01*
X221505604Y-101898888D01*
X221545663Y-101900203D01*
X221573245Y-101902024D01*
X221590580Y-101904577D01*
X221599896Y-101908087D01*
X221603422Y-101912779D01*
X221603534Y-101913280D01*
X221602484Y-101928332D01*
X221600115Y-101932330D01*
X221590093Y-101934269D01*
X221566009Y-101935942D01*
X221530736Y-101937239D01*
X221487143Y-101938047D01*
X221447422Y-101938267D01*
X221300667Y-101938267D01*
X221300667Y-102076533D01*
X220149200Y-102070991D01*
X218997733Y-102065448D01*
X218997733Y-102514000D01*
X219338516Y-102515975D01*
X219415412Y-102516416D01*
X219489140Y-102516830D01*
X219557493Y-102517205D01*
X219618261Y-102517529D01*
X219669237Y-102517792D01*
X219708211Y-102517980D01*
X219732975Y-102518082D01*
X219736464Y-102518092D01*
X219793629Y-102518234D01*
X219793614Y-102909817D01*
X219793600Y-103301400D01*
X218517143Y-103301400D01*
X218507991Y-103265051D01*
X218481477Y-103128146D01*
X218468556Y-102984510D01*
X218469071Y-102837300D01*
X218469071Y-102837300D01*
G37*
X218469071Y-102837300D02*
X218482869Y-102689674D01*
X218509795Y-102544788D01*
X218549695Y-102405801D01*
X218550108Y-102404599D01*
X218572869Y-102345589D01*
X218602846Y-102278243D01*
X218637596Y-102207327D01*
X218674673Y-102137603D01*
X218711632Y-102073834D01*
X218746028Y-102020785D01*
X218750025Y-102015145D01*
X218829880Y-101914113D01*
X218921356Y-101816288D01*
X219020504Y-101725392D01*
X219123380Y-101645149D01*
X219188233Y-101601800D01*
X219328563Y-101524003D01*
X219473934Y-101461889D01*
X219623185Y-101415384D01*
X219775154Y-101384416D01*
X219928680Y-101368910D01*
X220082602Y-101368793D01*
X220235758Y-101383993D01*
X220386987Y-101414434D01*
X220535127Y-101460045D01*
X220679018Y-101520751D01*
X220817497Y-101596478D01*
X220949404Y-101687155D01*
X220985297Y-101715453D01*
X221041540Y-101764033D01*
X221098763Y-101818637D01*
X221152969Y-101875145D01*
X221200164Y-101929437D01*
X221228862Y-101966649D01*
X221246634Y-101990287D01*
X221260994Y-102007302D01*
X221268869Y-102014056D01*
X221268917Y-102014061D01*
X221271211Y-102006255D01*
X221273136Y-101984551D01*
X221274527Y-101951981D01*
X221275219Y-101911579D01*
X221275267Y-101897345D01*
X221275525Y-101849862D01*
X221276477Y-101816868D01*
X221278388Y-101795926D01*
X221281520Y-101784594D01*
X221286140Y-101780436D01*
X221287967Y-101780222D01*
X221294949Y-101783776D01*
X221298903Y-101796523D01*
X221300518Y-101821598D01*
X221300667Y-101837883D01*
X221300667Y-101895543D01*
X221450841Y-101897855D01*
X221505604Y-101898888D01*
X221545663Y-101900203D01*
X221573245Y-101902024D01*
X221590580Y-101904577D01*
X221599896Y-101908087D01*
X221603422Y-101912779D01*
X221603534Y-101913280D01*
X221602484Y-101928332D01*
X221600115Y-101932330D01*
X221590093Y-101934269D01*
X221566009Y-101935942D01*
X221530736Y-101937239D01*
X221487143Y-101938047D01*
X221447422Y-101938267D01*
X221300667Y-101938267D01*
X221300667Y-102076533D01*
X220149200Y-102070991D01*
X218997733Y-102065448D01*
X218997733Y-102514000D01*
X219338516Y-102515975D01*
X219415412Y-102516416D01*
X219489140Y-102516830D01*
X219557493Y-102517205D01*
X219618261Y-102517529D01*
X219669237Y-102517792D01*
X219708211Y-102517980D01*
X219732975Y-102518082D01*
X219736464Y-102518092D01*
X219793629Y-102518234D01*
X219793614Y-102909817D01*
X219793600Y-103301400D01*
X218517143Y-103301400D01*
X218507991Y-103265051D01*
X218481477Y-103128146D01*
X218468556Y-102984510D01*
X218469071Y-102837300D01*
G36*
X221275566Y-101575935D02*
X221276669Y-101545483D01*
X221278881Y-101526863D01*
X221282508Y-101517529D01*
X221287854Y-101514934D01*
X221287967Y-101514934D01*
X221293766Y-101517659D01*
X221297539Y-101527658D01*
X221299675Y-101547663D01*
X221300566Y-101580409D01*
X221300667Y-101603834D01*
X221300667Y-101692734D01*
X221410733Y-101692734D01*
X221410733Y-101608067D01*
X221411153Y-101568585D01*
X221412690Y-101543237D01*
X221415764Y-101529237D01*
X221420790Y-101523801D01*
X221423433Y-101523400D01*
X221429355Y-101526198D01*
X221433158Y-101536448D01*
X221435258Y-101556936D01*
X221436073Y-101590447D01*
X221436133Y-101608067D01*
X221436133Y-101692734D01*
X221571600Y-101692734D01*
X221571600Y-101603213D01*
X221571852Y-101563331D01*
X221572931Y-101537547D01*
X221575321Y-101523027D01*
X221579507Y-101516939D01*
X221585972Y-101516451D01*
X221586417Y-101516532D01*
X221592734Y-101519579D01*
X221597132Y-101527728D01*
X221600062Y-101543765D01*
X221601972Y-101570474D01*
X221603314Y-101610643D01*
X221603610Y-101622987D01*
X221605988Y-101726600D01*
X221275267Y-101726600D01*
X221275267Y-101620767D01*
X221275566Y-101575935D01*
X221275566Y-101575935D01*
G37*
X221275566Y-101575935D02*
X221276669Y-101545483D01*
X221278881Y-101526863D01*
X221282508Y-101517529D01*
X221287854Y-101514934D01*
X221287967Y-101514934D01*
X221293766Y-101517659D01*
X221297539Y-101527658D01*
X221299675Y-101547663D01*
X221300566Y-101580409D01*
X221300667Y-101603834D01*
X221300667Y-101692734D01*
X221410733Y-101692734D01*
X221410733Y-101608067D01*
X221411153Y-101568585D01*
X221412690Y-101543237D01*
X221415764Y-101529237D01*
X221420790Y-101523801D01*
X221423433Y-101523400D01*
X221429355Y-101526198D01*
X221433158Y-101536448D01*
X221435258Y-101556936D01*
X221436073Y-101590447D01*
X221436133Y-101608067D01*
X221436133Y-101692734D01*
X221571600Y-101692734D01*
X221571600Y-101603213D01*
X221571852Y-101563331D01*
X221572931Y-101537547D01*
X221575321Y-101523027D01*
X221579507Y-101516939D01*
X221585972Y-101516451D01*
X221586417Y-101516532D01*
X221592734Y-101519579D01*
X221597132Y-101527728D01*
X221600062Y-101543765D01*
X221601972Y-101570474D01*
X221603314Y-101610643D01*
X221603610Y-101622987D01*
X221605988Y-101726600D01*
X221275267Y-101726600D01*
X221275267Y-101620767D01*
X221275566Y-101575935D01*
G36*
X221433115Y-101256553D02*
X221481888Y-101238363D01*
X221525277Y-101222157D01*
X221560770Y-101208875D01*
X221585851Y-101199458D01*
X221598005Y-101194849D01*
X221598605Y-101194611D01*
X221603832Y-101199472D01*
X221605467Y-101211597D01*
X221602760Y-101223863D01*
X221592273Y-101233696D01*
X221570449Y-101243821D01*
X221556783Y-101248911D01*
X221508100Y-101266417D01*
X221508100Y-101415720D01*
X221556783Y-101433102D01*
X221586836Y-101445663D01*
X221602249Y-101457102D01*
X221605467Y-101465775D01*
X221600660Y-101478357D01*
X221594883Y-101480596D01*
X221583956Y-101477594D01*
X221559841Y-101469518D01*
X221525182Y-101457300D01*
X221482623Y-101441875D01*
X221471123Y-101437618D01*
X221471123Y-101402144D01*
X221475566Y-101396846D01*
X221477748Y-101381794D01*
X221478436Y-101353911D01*
X221478467Y-101341367D01*
X221478102Y-101308570D01*
X221476496Y-101289620D01*
X221472881Y-101281437D01*
X221466489Y-101280939D01*
X221463650Y-101281932D01*
X221449217Y-101287409D01*
X221423531Y-101296937D01*
X221391258Y-101308789D01*
X221378535Y-101313434D01*
X221347678Y-101325078D01*
X221324382Y-101334629D01*
X221312059Y-101340650D01*
X221311020Y-101341843D01*
X221319691Y-101345862D01*
X221340406Y-101354174D01*
X221369310Y-101365247D01*
X221381319Y-101369742D01*
X221414207Y-101382022D01*
X221442258Y-101392578D01*
X221460682Y-101399605D01*
X221463650Y-101400768D01*
X221471123Y-101402144D01*
X221471123Y-101437618D01*
X221434808Y-101424174D01*
X221431900Y-101423086D01*
X221379187Y-101403262D01*
X221340231Y-101388178D01*
X221312907Y-101376703D01*
X221295087Y-101367709D01*
X221284644Y-101360068D01*
X221279453Y-101352650D01*
X221277386Y-101344327D01*
X221276994Y-101340859D01*
X221274487Y-101315673D01*
X221433115Y-101256553D01*
X221433115Y-101256553D01*
G37*
X221433115Y-101256553D02*
X221481888Y-101238363D01*
X221525277Y-101222157D01*
X221560770Y-101208875D01*
X221585851Y-101199458D01*
X221598005Y-101194849D01*
X221598605Y-101194611D01*
X221603832Y-101199472D01*
X221605467Y-101211597D01*
X221602760Y-101223863D01*
X221592273Y-101233696D01*
X221570449Y-101243821D01*
X221556783Y-101248911D01*
X221508100Y-101266417D01*
X221508100Y-101415720D01*
X221556783Y-101433102D01*
X221586836Y-101445663D01*
X221602249Y-101457102D01*
X221605467Y-101465775D01*
X221600660Y-101478357D01*
X221594883Y-101480596D01*
X221583956Y-101477594D01*
X221559841Y-101469518D01*
X221525182Y-101457300D01*
X221482623Y-101441875D01*
X221471123Y-101437618D01*
X221471123Y-101402144D01*
X221475566Y-101396846D01*
X221477748Y-101381794D01*
X221478436Y-101353911D01*
X221478467Y-101341367D01*
X221478102Y-101308570D01*
X221476496Y-101289620D01*
X221472881Y-101281437D01*
X221466489Y-101280939D01*
X221463650Y-101281932D01*
X221449217Y-101287409D01*
X221423531Y-101296937D01*
X221391258Y-101308789D01*
X221378535Y-101313434D01*
X221347678Y-101325078D01*
X221324382Y-101334629D01*
X221312059Y-101340650D01*
X221311020Y-101341843D01*
X221319691Y-101345862D01*
X221340406Y-101354174D01*
X221369310Y-101365247D01*
X221381319Y-101369742D01*
X221414207Y-101382022D01*
X221442258Y-101392578D01*
X221460682Y-101399605D01*
X221463650Y-101400768D01*
X221471123Y-101402144D01*
X221471123Y-101437618D01*
X221434808Y-101424174D01*
X221431900Y-101423086D01*
X221379187Y-101403262D01*
X221340231Y-101388178D01*
X221312907Y-101376703D01*
X221295087Y-101367709D01*
X221284644Y-101360068D01*
X221279453Y-101352650D01*
X221277386Y-101344327D01*
X221276994Y-101340859D01*
X221274487Y-101315673D01*
X221433115Y-101256553D01*
G36*
X221276465Y-101108280D02*
X221281729Y-101098994D01*
X221293564Y-101089084D01*
X221314474Y-101076678D01*
X221346963Y-101059907D01*
X221368400Y-101049267D01*
X221404067Y-101031297D01*
X221433422Y-101015799D01*
X221453542Y-101004369D01*
X221461506Y-100998598D01*
X221461533Y-100998467D01*
X221454393Y-100993087D01*
X221434920Y-100981951D01*
X221406037Y-100966653D01*
X221370666Y-100948786D01*
X221368400Y-100947667D01*
X221329162Y-100928003D01*
X221302759Y-100913642D01*
X221286686Y-100902714D01*
X221278440Y-100893349D01*
X221275516Y-100883677D01*
X221275267Y-100878124D01*
X221275267Y-100854533D01*
X221440367Y-100854533D01*
X221497076Y-100854606D01*
X221539061Y-100854974D01*
X221568530Y-100855860D01*
X221587690Y-100857488D01*
X221598751Y-100860083D01*
X221603921Y-100863868D01*
X221605408Y-100869067D01*
X221605467Y-100871267D01*
X221604625Y-100877349D01*
X221600534Y-100881808D01*
X221590848Y-100884949D01*
X221573219Y-100887080D01*
X221545299Y-100888509D01*
X221504741Y-100889541D01*
X221459821Y-100890317D01*
X221314176Y-100892633D01*
X221413255Y-100940996D01*
X221450214Y-100959670D01*
X221480911Y-100976384D01*
X221502490Y-100989495D01*
X221512096Y-100997357D01*
X221512333Y-100998077D01*
X221505192Y-101004932D01*
X221485648Y-101017531D01*
X221456519Y-101034198D01*
X221420624Y-101053258D01*
X221412850Y-101057226D01*
X221313367Y-101107655D01*
X221459417Y-101108094D01*
X221512300Y-101108341D01*
X221550598Y-101108901D01*
X221576657Y-101110052D01*
X221592826Y-101112075D01*
X221601452Y-101115249D01*
X221604882Y-101119852D01*
X221605467Y-101125467D01*
X221604788Y-101131282D01*
X221601278Y-101135587D01*
X221592727Y-101138609D01*
X221576927Y-101140574D01*
X221551667Y-101141709D01*
X221514738Y-101142239D01*
X221463930Y-101142393D01*
X221440367Y-101142400D01*
X221275267Y-101142400D01*
X221275267Y-101118810D01*
X221276465Y-101108280D01*
X221276465Y-101108280D01*
G37*
X221276465Y-101108280D02*
X221281729Y-101098994D01*
X221293564Y-101089084D01*
X221314474Y-101076678D01*
X221346963Y-101059907D01*
X221368400Y-101049267D01*
X221404067Y-101031297D01*
X221433422Y-101015799D01*
X221453542Y-101004369D01*
X221461506Y-100998598D01*
X221461533Y-100998467D01*
X221454393Y-100993087D01*
X221434920Y-100981951D01*
X221406037Y-100966653D01*
X221370666Y-100948786D01*
X221368400Y-100947667D01*
X221329162Y-100928003D01*
X221302759Y-100913642D01*
X221286686Y-100902714D01*
X221278440Y-100893349D01*
X221275516Y-100883677D01*
X221275267Y-100878124D01*
X221275267Y-100854533D01*
X221440367Y-100854533D01*
X221497076Y-100854606D01*
X221539061Y-100854974D01*
X221568530Y-100855860D01*
X221587690Y-100857488D01*
X221598751Y-100860083D01*
X221603921Y-100863868D01*
X221605408Y-100869067D01*
X221605467Y-100871267D01*
X221604625Y-100877349D01*
X221600534Y-100881808D01*
X221590848Y-100884949D01*
X221573219Y-100887080D01*
X221545299Y-100888509D01*
X221504741Y-100889541D01*
X221459821Y-100890317D01*
X221314176Y-100892633D01*
X221413255Y-100940996D01*
X221450214Y-100959670D01*
X221480911Y-100976384D01*
X221502490Y-100989495D01*
X221512096Y-100997357D01*
X221512333Y-100998077D01*
X221505192Y-101004932D01*
X221485648Y-101017531D01*
X221456519Y-101034198D01*
X221420624Y-101053258D01*
X221412850Y-101057226D01*
X221313367Y-101107655D01*
X221459417Y-101108094D01*
X221512300Y-101108341D01*
X221550598Y-101108901D01*
X221576657Y-101110052D01*
X221592826Y-101112075D01*
X221601452Y-101115249D01*
X221604882Y-101119852D01*
X221605467Y-101125467D01*
X221604788Y-101131282D01*
X221601278Y-101135587D01*
X221592727Y-101138609D01*
X221576927Y-101140574D01*
X221551667Y-101141709D01*
X221514738Y-101142239D01*
X221463930Y-101142393D01*
X221440367Y-101142400D01*
X221275267Y-101142400D01*
X221275267Y-101118810D01*
X221276465Y-101108280D01*
G36*
X220318533Y-107170667D02*
X220318533Y-107678667D01*
X221597000Y-107678667D01*
X221597000Y-107856467D01*
X220318533Y-107856467D01*
X220318533Y-108360234D01*
X220174600Y-108360234D01*
X220174600Y-107170667D01*
X220318533Y-107170667D01*
X220318533Y-107170667D01*
G37*
X220318533Y-107170667D02*
X220318533Y-107678667D01*
X221597000Y-107678667D01*
X221597000Y-107856467D01*
X220318533Y-107856467D01*
X220318533Y-108360234D01*
X220174600Y-108360234D01*
X220174600Y-107170667D01*
X220318533Y-107170667D01*
G36*
X220318533Y-106044600D02*
X220318533Y-106798133D01*
X220741867Y-106798133D01*
X220741867Y-106061533D01*
X220894267Y-106061533D01*
X220894267Y-106798133D01*
X221444600Y-106798133D01*
X221444600Y-106044600D01*
X221597000Y-106044600D01*
X221597000Y-106967467D01*
X220174600Y-106967467D01*
X220174600Y-106044600D01*
X220318533Y-106044600D01*
X220318533Y-106044600D01*
G37*
X220318533Y-106044600D02*
X220318533Y-106798133D01*
X220741867Y-106798133D01*
X220741867Y-106061533D01*
X220894267Y-106061533D01*
X220894267Y-106798133D01*
X221444600Y-106798133D01*
X221444600Y-106044600D01*
X221597000Y-106044600D01*
X221597000Y-106967467D01*
X220174600Y-106967467D01*
X220174600Y-106044600D01*
X220318533Y-106044600D01*
G36*
X219868478Y-103752220D02*
X221021267Y-103750073D01*
X221021267Y-103301400D01*
X220242333Y-103301400D01*
X220242333Y-102522467D01*
X221502509Y-102522467D01*
X221515322Y-102579617D01*
X221531367Y-102667297D01*
X221542849Y-102763915D01*
X221549334Y-102863118D01*
X221550387Y-102958552D01*
X221546446Y-103034700D01*
X221523687Y-103198261D01*
X221485380Y-103355237D01*
X221431689Y-103505284D01*
X221362777Y-103648062D01*
X221278807Y-103783226D01*
X221179944Y-103910436D01*
X221075023Y-104021067D01*
X220977407Y-104108243D01*
X220877909Y-104182902D01*
X220770948Y-104249050D01*
X220716467Y-104278361D01*
X220568799Y-104345323D01*
X220417680Y-104396002D01*
X220264090Y-104430459D01*
X220109012Y-104448753D01*
X219953428Y-104450945D01*
X219798318Y-104437094D01*
X219644666Y-104407261D01*
X219493451Y-104361505D01*
X219345658Y-104299887D01*
X219202266Y-104222467D01*
X219138539Y-104181888D01*
X219074479Y-104134922D01*
X219005675Y-104077289D01*
X218936137Y-104012815D01*
X218869875Y-103945329D01*
X218810899Y-103878657D01*
X218779811Y-103839488D01*
X218715690Y-103754367D01*
X219868478Y-103752220D01*
X219868478Y-103752220D01*
G37*
X219868478Y-103752220D02*
X221021267Y-103750073D01*
X221021267Y-103301400D01*
X220242333Y-103301400D01*
X220242333Y-102522467D01*
X221502509Y-102522467D01*
X221515322Y-102579617D01*
X221531367Y-102667297D01*
X221542849Y-102763915D01*
X221549334Y-102863118D01*
X221550387Y-102958552D01*
X221546446Y-103034700D01*
X221523687Y-103198261D01*
X221485380Y-103355237D01*
X221431689Y-103505284D01*
X221362777Y-103648062D01*
X221278807Y-103783226D01*
X221179944Y-103910436D01*
X221075023Y-104021067D01*
X220977407Y-104108243D01*
X220877909Y-104182902D01*
X220770948Y-104249050D01*
X220716467Y-104278361D01*
X220568799Y-104345323D01*
X220417680Y-104396002D01*
X220264090Y-104430459D01*
X220109012Y-104448753D01*
X219953428Y-104450945D01*
X219798318Y-104437094D01*
X219644666Y-104407261D01*
X219493451Y-104361505D01*
X219345658Y-104299887D01*
X219202266Y-104222467D01*
X219138539Y-104181888D01*
X219074479Y-104134922D01*
X219005675Y-104077289D01*
X218936137Y-104012815D01*
X218869875Y-103945329D01*
X218810899Y-103878657D01*
X218779811Y-103839488D01*
X218715690Y-103754367D01*
X219868478Y-103752220D01*
G36*
X218616733Y-107424667D02*
X218616733Y-107804256D01*
X218616809Y-107882753D01*
X218617026Y-107955923D01*
X218617370Y-108022053D01*
X218617823Y-108079427D01*
X218618370Y-108126333D01*
X218618995Y-108161056D01*
X218619684Y-108181883D01*
X218620248Y-108187372D01*
X218629327Y-108188245D01*
X218653025Y-108188850D01*
X218689031Y-108189177D01*
X218735034Y-108189213D01*
X218788722Y-108188947D01*
X218836404Y-108188499D01*
X219049044Y-108186098D01*
X219046672Y-107813846D01*
X219044300Y-107441593D01*
X219118295Y-107441597D01*
X219192290Y-107441600D01*
X219194495Y-107814377D01*
X219196700Y-108187153D01*
X219755500Y-108187153D01*
X219759906Y-107424667D01*
X219912133Y-107424667D01*
X219912133Y-108364467D01*
X218464333Y-108364467D01*
X218464333Y-107424667D01*
X218616733Y-107424667D01*
X218616733Y-107424667D01*
G37*
X218616733Y-107424667D02*
X218616733Y-107804256D01*
X218616809Y-107882753D01*
X218617026Y-107955923D01*
X218617370Y-108022053D01*
X218617823Y-108079427D01*
X218618370Y-108126333D01*
X218618995Y-108161056D01*
X218619684Y-108181883D01*
X218620248Y-108187372D01*
X218629327Y-108188245D01*
X218653025Y-108188850D01*
X218689031Y-108189177D01*
X218735034Y-108189213D01*
X218788722Y-108188947D01*
X218836404Y-108188499D01*
X219049044Y-108186098D01*
X219046672Y-107813846D01*
X219044300Y-107441593D01*
X219118295Y-107441597D01*
X219192290Y-107441600D01*
X219194495Y-107814377D01*
X219196700Y-108187153D01*
X219755500Y-108187153D01*
X219759906Y-107424667D01*
X219912133Y-107424667D01*
X219912133Y-108364467D01*
X218464333Y-108364467D01*
X218464333Y-107424667D01*
X218616733Y-107424667D01*
G36*
X218467647Y-106463511D02*
X218478147Y-106381660D01*
X218497152Y-106301278D01*
X218525795Y-106217155D01*
X218550649Y-106156783D01*
X218584710Y-106078467D01*
X218685388Y-106078467D01*
X218724419Y-106078821D01*
X218756400Y-106079786D01*
X218778045Y-106081215D01*
X218786066Y-106082960D01*
X218786067Y-106082972D01*
X218781513Y-106091402D01*
X218769272Y-106110390D01*
X218751469Y-106136695D01*
X218739247Y-106154294D01*
X218683411Y-106243978D01*
X218643166Y-106332309D01*
X218617637Y-106421883D01*
X218605949Y-106515295D01*
X218604955Y-106552600D01*
X218611814Y-106645603D01*
X218632779Y-106729272D01*
X218667950Y-106803790D01*
X218717424Y-106869337D01*
X218781303Y-106926098D01*
X218824167Y-106954571D01*
X218896475Y-106989679D01*
X218980154Y-107016189D01*
X219071625Y-107033467D01*
X219167313Y-107040874D01*
X219263642Y-107037774D01*
X219281543Y-107035965D01*
X219385590Y-107018505D01*
X219476650Y-106990782D01*
X219555515Y-106952375D01*
X219622976Y-106902864D01*
X219679825Y-106841830D01*
X219699854Y-106813970D01*
X219729971Y-106762841D01*
X219750812Y-106711726D01*
X219763577Y-106656093D01*
X219769465Y-106591413D01*
X219770203Y-106548367D01*
X219765038Y-106454414D01*
X219749170Y-106370301D01*
X219721217Y-106291967D01*
X219679799Y-106215349D01*
X219635356Y-106151658D01*
X219612294Y-106121230D01*
X219598771Y-106100655D01*
X219596154Y-106088011D01*
X219605808Y-106081376D01*
X219629102Y-106078828D01*
X219667402Y-106078445D01*
X219687412Y-106078467D01*
X219786235Y-106078467D01*
X219815228Y-106141219D01*
X219841068Y-106201954D01*
X219864850Y-106266799D01*
X219884774Y-106330279D01*
X219899041Y-106386916D01*
X219903128Y-106408667D01*
X219908057Y-106453686D01*
X219910599Y-106508836D01*
X219910821Y-106568537D01*
X219908791Y-106627212D01*
X219904574Y-106679284D01*
X219899467Y-106713467D01*
X219871411Y-106813578D01*
X219829747Y-106903763D01*
X219774876Y-106983609D01*
X219707198Y-107052702D01*
X219627115Y-107110629D01*
X219535027Y-107156975D01*
X219438000Y-107189579D01*
X219411176Y-107196268D01*
X219385872Y-107201215D01*
X219358829Y-107204677D01*
X219326790Y-107206906D01*
X219286494Y-107208159D01*
X219234683Y-107208689D01*
X219192466Y-107208767D01*
X219114478Y-107207945D01*
X219049836Y-107205022D01*
X218995016Y-107199311D01*
X218946489Y-107190127D01*
X218900729Y-107176784D01*
X218854209Y-107158595D01*
X218803404Y-107134874D01*
X218797454Y-107131924D01*
X218710417Y-107079811D01*
X218636177Y-107016741D01*
X218574953Y-106943092D01*
X218526958Y-106859238D01*
X218492410Y-106765557D01*
X218471523Y-106662424D01*
X218464516Y-106552038D01*
X218467647Y-106463511D01*
X218467647Y-106463511D01*
G37*
X218467647Y-106463511D02*
X218478147Y-106381660D01*
X218497152Y-106301278D01*
X218525795Y-106217155D01*
X218550649Y-106156783D01*
X218584710Y-106078467D01*
X218685388Y-106078467D01*
X218724419Y-106078821D01*
X218756400Y-106079786D01*
X218778045Y-106081215D01*
X218786066Y-106082960D01*
X218786067Y-106082972D01*
X218781513Y-106091402D01*
X218769272Y-106110390D01*
X218751469Y-106136695D01*
X218739247Y-106154294D01*
X218683411Y-106243978D01*
X218643166Y-106332309D01*
X218617637Y-106421883D01*
X218605949Y-106515295D01*
X218604955Y-106552600D01*
X218611814Y-106645603D01*
X218632779Y-106729272D01*
X218667950Y-106803790D01*
X218717424Y-106869337D01*
X218781303Y-106926098D01*
X218824167Y-106954571D01*
X218896475Y-106989679D01*
X218980154Y-107016189D01*
X219071625Y-107033467D01*
X219167313Y-107040874D01*
X219263642Y-107037774D01*
X219281543Y-107035965D01*
X219385590Y-107018505D01*
X219476650Y-106990782D01*
X219555515Y-106952375D01*
X219622976Y-106902864D01*
X219679825Y-106841830D01*
X219699854Y-106813970D01*
X219729971Y-106762841D01*
X219750812Y-106711726D01*
X219763577Y-106656093D01*
X219769465Y-106591413D01*
X219770203Y-106548367D01*
X219765038Y-106454414D01*
X219749170Y-106370301D01*
X219721217Y-106291967D01*
X219679799Y-106215349D01*
X219635356Y-106151658D01*
X219612294Y-106121230D01*
X219598771Y-106100655D01*
X219596154Y-106088011D01*
X219605808Y-106081376D01*
X219629102Y-106078828D01*
X219667402Y-106078445D01*
X219687412Y-106078467D01*
X219786235Y-106078467D01*
X219815228Y-106141219D01*
X219841068Y-106201954D01*
X219864850Y-106266799D01*
X219884774Y-106330279D01*
X219899041Y-106386916D01*
X219903128Y-106408667D01*
X219908057Y-106453686D01*
X219910599Y-106508836D01*
X219910821Y-106568537D01*
X219908791Y-106627212D01*
X219904574Y-106679284D01*
X219899467Y-106713467D01*
X219871411Y-106813578D01*
X219829747Y-106903763D01*
X219774876Y-106983609D01*
X219707198Y-107052702D01*
X219627115Y-107110629D01*
X219535027Y-107156975D01*
X219438000Y-107189579D01*
X219411176Y-107196268D01*
X219385872Y-107201215D01*
X219358829Y-107204677D01*
X219326790Y-107206906D01*
X219286494Y-107208159D01*
X219234683Y-107208689D01*
X219192466Y-107208767D01*
X219114478Y-107207945D01*
X219049836Y-107205022D01*
X218995016Y-107199311D01*
X218946489Y-107190127D01*
X218900729Y-107176784D01*
X218854209Y-107158595D01*
X218803404Y-107134874D01*
X218797454Y-107131924D01*
X218710417Y-107079811D01*
X218636177Y-107016741D01*
X218574953Y-106943092D01*
X218526958Y-106859238D01*
X218492410Y-106765557D01*
X218471523Y-106662424D01*
X218464516Y-106552038D01*
X218467647Y-106463511D01*
G36*
X218471505Y-105193365D02*
X218472179Y-105169746D01*
X218472633Y-105136235D01*
X218472800Y-105096449D01*
X218472800Y-104994964D01*
X218563100Y-104967332D01*
X218653399Y-104939700D01*
X218694531Y-104846704D01*
X218649569Y-104755577D01*
X218604606Y-104664449D01*
X218659353Y-104608820D01*
X218686662Y-104581809D01*
X218712357Y-104557671D01*
X218732207Y-104540337D01*
X218737366Y-104536331D01*
X218760633Y-104519471D01*
X218844700Y-104563434D01*
X218928766Y-104607397D01*
X218975740Y-104587928D01*
X219022713Y-104568458D01*
X219053257Y-104476796D01*
X219083800Y-104385133D01*
X219299330Y-104385133D01*
X219326974Y-104476358D01*
X219354618Y-104567582D01*
X219405529Y-104586124D01*
X219456439Y-104604666D01*
X219541673Y-104561893D01*
X219626906Y-104519121D01*
X219776184Y-104668767D01*
X219688748Y-104839789D01*
X219731874Y-104939649D01*
X219819887Y-104970419D01*
X219907900Y-105001188D01*
X219910257Y-105106382D01*
X219912615Y-105211575D01*
X219822032Y-105240738D01*
X219731450Y-105269900D01*
X219710251Y-105319502D01*
X219689053Y-105369104D01*
X219732181Y-105455822D01*
X219775308Y-105542539D01*
X219701032Y-105616471D01*
X219626755Y-105690403D01*
X219540426Y-105647081D01*
X219454096Y-105603759D01*
X219403908Y-105623096D01*
X219353719Y-105642434D01*
X219297825Y-105820234D01*
X219190895Y-105822597D01*
X219188844Y-105822642D01*
X219188844Y-105398186D01*
X219250314Y-105393296D01*
X219305857Y-105377098D01*
X219311000Y-105374787D01*
X219363738Y-105345260D01*
X219404974Y-105310042D01*
X219433699Y-105274230D01*
X219467252Y-105211762D01*
X219484742Y-105145562D01*
X219486020Y-105077640D01*
X219470935Y-105010007D01*
X219456139Y-104974733D01*
X219418706Y-104916045D01*
X219369604Y-104869179D01*
X219312016Y-104835011D01*
X219283678Y-104823196D01*
X219257034Y-104816368D01*
X219225451Y-104813291D01*
X219192288Y-104812700D01*
X219154036Y-104813442D01*
X219125812Y-104816658D01*
X219100741Y-104823838D01*
X219071949Y-104836469D01*
X219063527Y-104840572D01*
X219006383Y-104876503D01*
X218960750Y-104923164D01*
X218924414Y-104982849D01*
X218922778Y-104986267D01*
X218911085Y-105014151D01*
X218904333Y-105040623D01*
X218901301Y-105072252D01*
X218900733Y-105104800D01*
X218901721Y-105145148D01*
X218905521Y-105175354D01*
X218913387Y-105202141D01*
X218923157Y-105224997D01*
X218956926Y-105279675D01*
X219002866Y-105328232D01*
X219056272Y-105365964D01*
X219072269Y-105374109D01*
X219127483Y-105391784D01*
X219188844Y-105398186D01*
X219188844Y-105822642D01*
X219083965Y-105824961D01*
X219053118Y-105732389D01*
X219022272Y-105639817D01*
X218975088Y-105620667D01*
X218927903Y-105601516D01*
X218841316Y-105644579D01*
X218754728Y-105687642D01*
X218679468Y-105612032D01*
X218604209Y-105536422D01*
X218649624Y-105449728D01*
X218695038Y-105363034D01*
X218674603Y-105317067D01*
X218654167Y-105271100D01*
X218561367Y-105240156D01*
X218525090Y-105227546D01*
X218495835Y-105216397D01*
X218476691Y-105207954D01*
X218470683Y-105203572D01*
X218471505Y-105193365D01*
X218471505Y-105193365D01*
G37*
X218471505Y-105193365D02*
X218472179Y-105169746D01*
X218472633Y-105136235D01*
X218472800Y-105096449D01*
X218472800Y-104994964D01*
X218563100Y-104967332D01*
X218653399Y-104939700D01*
X218694531Y-104846704D01*
X218649569Y-104755577D01*
X218604606Y-104664449D01*
X218659353Y-104608820D01*
X218686662Y-104581809D01*
X218712357Y-104557671D01*
X218732207Y-104540337D01*
X218737366Y-104536331D01*
X218760633Y-104519471D01*
X218844700Y-104563434D01*
X218928766Y-104607397D01*
X218975740Y-104587928D01*
X219022713Y-104568458D01*
X219053257Y-104476796D01*
X219083800Y-104385133D01*
X219299330Y-104385133D01*
X219326974Y-104476358D01*
X219354618Y-104567582D01*
X219405529Y-104586124D01*
X219456439Y-104604666D01*
X219541673Y-104561893D01*
X219626906Y-104519121D01*
X219776184Y-104668767D01*
X219688748Y-104839789D01*
X219731874Y-104939649D01*
X219819887Y-104970419D01*
X219907900Y-105001188D01*
X219910257Y-105106382D01*
X219912615Y-105211575D01*
X219822032Y-105240738D01*
X219731450Y-105269900D01*
X219710251Y-105319502D01*
X219689053Y-105369104D01*
X219732181Y-105455822D01*
X219775308Y-105542539D01*
X219701032Y-105616471D01*
X219626755Y-105690403D01*
X219540426Y-105647081D01*
X219454096Y-105603759D01*
X219403908Y-105623096D01*
X219353719Y-105642434D01*
X219297825Y-105820234D01*
X219190895Y-105822597D01*
X219188844Y-105822642D01*
X219188844Y-105398186D01*
X219250314Y-105393296D01*
X219305857Y-105377098D01*
X219311000Y-105374787D01*
X219363738Y-105345260D01*
X219404974Y-105310042D01*
X219433699Y-105274230D01*
X219467252Y-105211762D01*
X219484742Y-105145562D01*
X219486020Y-105077640D01*
X219470935Y-105010007D01*
X219456139Y-104974733D01*
X219418706Y-104916045D01*
X219369604Y-104869179D01*
X219312016Y-104835011D01*
X219283678Y-104823196D01*
X219257034Y-104816368D01*
X219225451Y-104813291D01*
X219192288Y-104812700D01*
X219154036Y-104813442D01*
X219125812Y-104816658D01*
X219100741Y-104823838D01*
X219071949Y-104836469D01*
X219063527Y-104840572D01*
X219006383Y-104876503D01*
X218960750Y-104923164D01*
X218924414Y-104982849D01*
X218922778Y-104986267D01*
X218911085Y-105014151D01*
X218904333Y-105040623D01*
X218901301Y-105072252D01*
X218900733Y-105104800D01*
X218901721Y-105145148D01*
X218905521Y-105175354D01*
X218913387Y-105202141D01*
X218923157Y-105224997D01*
X218956926Y-105279675D01*
X219002866Y-105328232D01*
X219056272Y-105365964D01*
X219072269Y-105374109D01*
X219127483Y-105391784D01*
X219188844Y-105398186D01*
X219188844Y-105822642D01*
X219083965Y-105824961D01*
X219053118Y-105732389D01*
X219022272Y-105639817D01*
X218975088Y-105620667D01*
X218927903Y-105601516D01*
X218841316Y-105644579D01*
X218754728Y-105687642D01*
X218679468Y-105612032D01*
X218604209Y-105536422D01*
X218649624Y-105449728D01*
X218695038Y-105363034D01*
X218674603Y-105317067D01*
X218654167Y-105271100D01*
X218561367Y-105240156D01*
X218525090Y-105227546D01*
X218495835Y-105216397D01*
X218476691Y-105207954D01*
X218470683Y-105203572D01*
X218471505Y-105193365D01*
D13*
G04 #@! TO.C,U2*
X190500000Y-55000000D02*
G75*
G03X190500000Y-55000000I-250000J0D01*
G01*
X204500000Y-60000000D02*
G75*
G03X204500000Y-60000000I-9500000J0D01*
G01*
D14*
G04 #@! TO.C,L1*
X205951794Y-94787619D02*
X205951794Y-93687619D01*
X211951794Y-94787619D02*
X205951794Y-94787619D01*
X211951794Y-93687619D02*
X211951794Y-94787619D01*
X211951794Y-89387619D02*
X211951794Y-90487619D01*
X205951794Y-89387619D02*
X211951794Y-89387619D01*
X205951794Y-90487619D02*
X205951794Y-89387619D01*
G04 #@! TO.C,RV1*
X202990000Y-73910000D02*
X202990000Y-73220000D01*
X203090000Y-73910000D02*
X202990000Y-73910000D01*
X209610000Y-73910000D02*
X209610000Y-73660000D01*
X209510000Y-73910000D02*
X209610000Y-73910000D01*
X209510000Y-74110000D02*
X209510000Y-73910000D01*
X208090000Y-73910000D02*
X208090000Y-74110000D01*
X202990000Y-68200000D02*
G75*
G02X204300000Y-66890000I1310000J0D01*
G01*
X208300000Y-66890000D02*
G75*
G02X209610000Y-68200000I0J-1310000D01*
G01*
X204300000Y-66890000D02*
X205790000Y-66890000D01*
X202990000Y-72180000D02*
X202990000Y-68200000D01*
X209610000Y-68200000D02*
X209610000Y-71740000D01*
X206810000Y-66890000D02*
X208300000Y-66890000D01*
X203090000Y-74110000D02*
X203090000Y-73910000D01*
X204510000Y-74110000D02*
X203090000Y-74110000D01*
X204510000Y-73910000D02*
X204510000Y-74110000D01*
X208090000Y-73910000D02*
X204510000Y-73910000D01*
X209510000Y-74110000D02*
X208090000Y-74110000D01*
G04 #@! TO.C,SW3*
X174800000Y-93150000D02*
X174800000Y-90430000D01*
X174800000Y-83570000D02*
X174800000Y-80850000D01*
X187100000Y-85430000D02*
X187100000Y-88570000D01*
X187100000Y-80850000D02*
X187100000Y-83570000D01*
X185429050Y-86960000D02*
G75*
G03X185429050Y-86960000I-4579050J0D01*
G01*
X187100000Y-90430000D02*
X187100000Y-93150000D01*
X174800000Y-80850000D02*
X187100000Y-80850000D01*
X174800000Y-88570000D02*
X174800000Y-85430000D01*
X187100000Y-93150000D02*
X174800000Y-93150000D01*
G04 #@! TO.C,SW4*
X187100000Y-80150000D02*
X174800000Y-80150000D01*
X174800000Y-75570000D02*
X174800000Y-72430000D01*
X174800000Y-67850000D02*
X187100000Y-67850000D01*
X187100000Y-77430000D02*
X187100000Y-80150000D01*
X185429050Y-73960000D02*
G75*
G03X185429050Y-73960000I-4579050J0D01*
G01*
X187100000Y-67850000D02*
X187100000Y-70570000D01*
X187100000Y-72430000D02*
X187100000Y-75570000D01*
X174800000Y-70570000D02*
X174800000Y-67850000D01*
X174800000Y-80150000D02*
X174800000Y-77430000D01*
G04 #@! TO.C,Y1*
X202400806Y-87333504D02*
X189800806Y-87333504D01*
X189800806Y-87333504D02*
X189800806Y-92433504D01*
X189800806Y-92433504D02*
X202400806Y-92433504D01*
G04 #@! TO.C,TP6*
X207900000Y-61800000D02*
G75*
G03X207900000Y-61800000I-1500000J0D01*
G01*
G04 #@! TO.C,TP3*
X229500000Y-101000000D02*
G75*
G03X229500000Y-101000000I-1500000J0D01*
G01*
G04 #@! TO.C,TP7*
X187500000Y-52000000D02*
G75*
G03X187500000Y-52000000I-1500000J0D01*
G01*
G04 #@! TO.C,TP5*
X187400000Y-98900000D02*
G75*
G03X187400000Y-98900000I-1500000J0D01*
G01*
G04 #@! TO.C,TP4*
X192300000Y-70700000D02*
G75*
G03X192300000Y-70700000I-1500000J0D01*
G01*
G04 #@! TO.C,TP1*
X218200000Y-99200000D02*
G75*
G03X218200000Y-99200000I-1500000J0D01*
G01*
G04 #@! TO.C,TP2*
X205300000Y-96600000D02*
G75*
G03X205300000Y-96600000I-1500000J0D01*
G01*
G04 #@! TO.C,D6*
X175060000Y-108885000D02*
X175060000Y-106200000D01*
X173140000Y-108885000D02*
X175060000Y-108885000D01*
X173140000Y-106200000D02*
X173140000Y-108885000D01*
D13*
G04 #@! TO.C,U3*
X191600806Y-83608504D02*
X191600806Y-85033504D01*
X191375806Y-76358504D02*
X191375806Y-76683504D01*
X198625806Y-76358504D02*
X198625806Y-76683504D01*
X198625806Y-83608504D02*
X198625806Y-83283504D01*
X191375806Y-83608504D02*
X191375806Y-83283504D01*
X198625806Y-83608504D02*
X198300806Y-83608504D01*
X198625806Y-76358504D02*
X198300806Y-76358504D01*
X191375806Y-76358504D02*
X191700806Y-76358504D01*
X191375806Y-83608504D02*
X191600806Y-83608504D01*
G04 #@! TO.C,J2*
X160000000Y-92800000D02*
X160000000Y-84300000D01*
X160000000Y-84300000D02*
X172000000Y-84300000D01*
X172000000Y-84300000D02*
X172000000Y-92800000D01*
X172000000Y-92800000D02*
X160000000Y-92800000D01*
D14*
G04 #@! TO.C,R21*
X170290000Y-55237221D02*
X170290000Y-55562779D01*
X171310000Y-55237221D02*
X171310000Y-55562779D01*
G04 #@! TO.C,U4*
X181360000Y-52670000D02*
X180110000Y-52670000D01*
X181360000Y-57870000D02*
X181360000Y-52670000D01*
X176860000Y-57870000D02*
X181360000Y-57870000D01*
X176860000Y-52670000D02*
X176860000Y-57870000D01*
X178110000Y-52670000D02*
X176860000Y-52670000D01*
X180110000Y-52670000D02*
G75*
G02X178110000Y-52670000I-1000000J0D01*
G01*
D13*
G04 #@! TO.C,J1*
X230000000Y-84200000D02*
X230000000Y-92700000D01*
X230000000Y-92700000D02*
X218000000Y-92700000D01*
X218000000Y-92700000D02*
X218000000Y-84200000D01*
X218000000Y-84200000D02*
X230000000Y-84200000D01*
D14*
G04 #@! TO.C,BZ1*
X217100000Y-82100000D02*
G75*
G03X217100000Y-82100000I-6100000J0D01*
G01*
G04 #@! TO.C,J4*
X205600000Y-100345000D02*
X205600000Y-102885000D01*
X205600000Y-100345000D02*
X203060000Y-100345000D01*
X205350000Y-100595000D02*
X205350000Y-109945000D01*
X184490000Y-100595000D02*
X205350000Y-100595000D01*
X184490000Y-109945000D02*
X184490000Y-100595000D01*
X205350000Y-109945000D02*
X184490000Y-109945000D01*
G04 #@! TO.C,C3*
X205840000Y-96997936D02*
X205840000Y-98202064D01*
X208560000Y-96997936D02*
X208560000Y-98202064D01*
G04 #@! TO.C,C2*
X210310372Y-105777619D02*
X209793216Y-105777619D01*
X210310372Y-107197619D02*
X209793216Y-107197619D01*
G04 #@! TO.C,C1*
X212053858Y-95477619D02*
X210849730Y-95477619D01*
X212053858Y-97297619D02*
X210849730Y-97297619D01*
G04 #@! TO.C,L2*
X198661252Y-71590000D02*
X198138748Y-71590000D01*
X198661252Y-73010000D02*
X198138748Y-73010000D01*
G04 #@! TO.C,C9*
X196163585Y-85873504D02*
X195838027Y-85873504D01*
X196163585Y-86893504D02*
X195838027Y-86893504D01*
G04 #@! TO.C,SW2*
X193733504Y-94549194D02*
X196233504Y-94549194D01*
X192233504Y-96299194D02*
X192233504Y-98299194D01*
X193733504Y-100049194D02*
X196233504Y-100049194D01*
X197733504Y-96299194D02*
X197733504Y-98299194D01*
X193283504Y-94999194D02*
X193733504Y-94549194D01*
X196683504Y-94999194D02*
X196233504Y-94549194D01*
X196683504Y-99599194D02*
X196233504Y-100049194D01*
X193283504Y-99599194D02*
X193733504Y-100049194D01*
G04 #@! TO.C,C7*
X193163585Y-85873504D02*
X192838027Y-85873504D01*
X193163585Y-86893504D02*
X192838027Y-86893504D01*
G04 #@! TO.C,C6*
X195263585Y-73473504D02*
X194938027Y-73473504D01*
X195263585Y-74493504D02*
X194938027Y-74493504D01*
G04 #@! TO.C,C5*
X198163585Y-92873504D02*
X197838027Y-92873504D01*
X198163585Y-93893504D02*
X197838027Y-93893504D01*
G04 #@! TO.C,C4*
X194838027Y-93893504D02*
X195163585Y-93893504D01*
X194838027Y-92873504D02*
X195163585Y-92873504D01*
G04 #@! TO.C,C8*
X195263585Y-71973504D02*
X194938027Y-71973504D01*
X195263585Y-72993504D02*
X194938027Y-72993504D01*
G04 #@! TO.C,D11*
X171600000Y-52850000D02*
X171600000Y-57150000D01*
X173600000Y-52850000D02*
X171600000Y-52850000D01*
X173600000Y-57150000D02*
X173600000Y-52850000D01*
G04 #@! TO.C,D14*
X214800000Y-61150000D02*
X214800000Y-65450000D01*
X216800000Y-61150000D02*
X214800000Y-61150000D01*
X216800000Y-65450000D02*
X216800000Y-61150000D01*
G04 #@! TO.C,D13*
X184450000Y-64500000D02*
X180150000Y-64500000D01*
X184450000Y-66500000D02*
X184450000Y-64500000D01*
X180150000Y-66500000D02*
X184450000Y-66500000D01*
G04 #@! TO.C,D12*
X219100000Y-57950000D02*
X219100000Y-53650000D01*
X217100000Y-57950000D02*
X219100000Y-57950000D01*
X217100000Y-53650000D02*
X217100000Y-57950000D01*
G04 #@! TO.C,D10*
X214800000Y-67250000D02*
X214800000Y-71550000D01*
X216800000Y-67250000D02*
X214800000Y-67250000D01*
X216800000Y-71550000D02*
X216800000Y-67250000D01*
G04 #@! TO.C,D9*
X178350000Y-64500000D02*
X174050000Y-64500000D01*
X178350000Y-66500000D02*
X178350000Y-64500000D01*
X174050000Y-66500000D02*
X178350000Y-66500000D01*
G04 #@! TO.C,D1*
X218800000Y-92850000D02*
X227200000Y-92850000D01*
X218800000Y-99350000D02*
X227200000Y-99350000D01*
X218800000Y-99350000D02*
X218800000Y-92850000D01*
D13*
G04 #@! TO.C,J3*
X160000000Y-101400000D02*
X160000000Y-92900000D01*
X160000000Y-92900000D02*
X172000000Y-92900000D01*
X172000000Y-92900000D02*
X172000000Y-101400000D01*
X172000000Y-101400000D02*
X160000000Y-101400000D01*
G04 #@! TO.C,J5*
X160000000Y-75600000D02*
X160000000Y-67100000D01*
X160000000Y-67100000D02*
X172000000Y-67100000D01*
X172000000Y-67100000D02*
X172000000Y-75600000D01*
X172000000Y-75600000D02*
X160000000Y-75600000D01*
G04 #@! TO.C,J7*
X160000000Y-67000000D02*
X160000000Y-58500000D01*
X160000000Y-58500000D02*
X172000000Y-58500000D01*
X172000000Y-58500000D02*
X172000000Y-67000000D01*
X172000000Y-67000000D02*
X160000000Y-67000000D01*
G04 #@! TO.C,J8*
X230000000Y-58400000D02*
X230000000Y-66900000D01*
X230000000Y-66900000D02*
X218000000Y-66900000D01*
X218000000Y-66900000D02*
X218000000Y-58400000D01*
X218000000Y-58400000D02*
X230000000Y-58400000D01*
G04 #@! TO.C,J9*
X160000000Y-84200000D02*
X160000000Y-75700000D01*
X160000000Y-75700000D02*
X172000000Y-75700000D01*
X172000000Y-75700000D02*
X172000000Y-84200000D01*
X172000000Y-84200000D02*
X160000000Y-84200000D01*
G04 #@! TO.C,J10*
X230000000Y-67000000D02*
X230000000Y-75500000D01*
X230000000Y-75500000D02*
X218000000Y-75500000D01*
X218000000Y-75500000D02*
X218000000Y-67000000D01*
X218000000Y-67000000D02*
X230000000Y-67000000D01*
G04 #@! TO.C,J6*
X230000000Y-75600000D02*
X230000000Y-84100000D01*
X230000000Y-84100000D02*
X218000000Y-84100000D01*
X218000000Y-84100000D02*
X218000000Y-75600000D01*
X218000000Y-75600000D02*
X230000000Y-75600000D01*
D14*
G04 #@! TO.C,D7*
X202176496Y-86823306D02*
X202176496Y-84138306D01*
X200256496Y-86823306D02*
X202176496Y-86823306D01*
X200256496Y-84138306D02*
X200256496Y-86823306D01*
G04 #@! TO.C,D5*
X188560000Y-97285000D02*
X188560000Y-94600000D01*
X186640000Y-97285000D02*
X188560000Y-97285000D01*
X186640000Y-94600000D02*
X186640000Y-97285000D01*
G04 #@! TO.C,D8*
X204076496Y-86823306D02*
X204076496Y-84138306D01*
X202156496Y-86823306D02*
X204076496Y-86823306D01*
X202156496Y-84138306D02*
X202156496Y-86823306D01*
G04 #@! TO.C,D2*
X216685000Y-88840000D02*
X214000000Y-88840000D01*
X216685000Y-90760000D02*
X216685000Y-88840000D01*
X214000000Y-90760000D02*
X216685000Y-90760000D01*
G04 #@! TO.C,D3*
X214791794Y-102102619D02*
X214791794Y-104787619D01*
X216711794Y-102102619D02*
X214791794Y-102102619D01*
X216711794Y-104787619D02*
X216711794Y-102102619D01*
G04 #@! TO.C,D4*
X173340000Y-93915000D02*
X173340000Y-96600000D01*
X175260000Y-93915000D02*
X173340000Y-93915000D01*
X175260000Y-96600000D02*
X175260000Y-93915000D01*
G04 #@! TO.C,U5*
X209460000Y-57830000D02*
X210710000Y-57830000D01*
X209460000Y-52630000D02*
X209460000Y-57830000D01*
X213960000Y-52630000D02*
X209460000Y-52630000D01*
X213960000Y-57830000D02*
X213960000Y-52630000D01*
X212710000Y-57830000D02*
X213960000Y-57830000D01*
X210710000Y-57830000D02*
G75*
G02X212710000Y-57830000I1000000J0D01*
G01*
D13*
G04 #@! TO.C,U1*
X209676794Y-103562619D02*
X209676794Y-104862619D01*
X214626794Y-103562619D02*
X214626794Y-99412619D01*
X209476794Y-103562619D02*
X209476794Y-99412619D01*
X214626794Y-103562619D02*
X214426794Y-103562619D01*
X214626794Y-99412619D02*
X214426794Y-99412619D01*
X209476794Y-99412619D02*
X209676794Y-99412619D01*
X209476794Y-103562619D02*
X209676794Y-103562619D01*
D14*
G04 #@! TO.C,Q4*
X178960000Y-101980000D02*
X177500000Y-101980000D01*
X178960000Y-98820000D02*
X176800000Y-98820000D01*
X178960000Y-98820000D02*
X178960000Y-99750000D01*
X178960000Y-101980000D02*
X178960000Y-101050000D01*
G04 #@! TO.C,Q5*
X183280000Y-103140000D02*
X183280000Y-104600000D01*
X180120000Y-103140000D02*
X180120000Y-105300000D01*
X180120000Y-103140000D02*
X181050000Y-103140000D01*
X183280000Y-103140000D02*
X182350000Y-103140000D01*
G04 #@! TO.C,Q3*
X180020000Y-98260000D02*
X180020000Y-96800000D01*
X183180000Y-98260000D02*
X183180000Y-96100000D01*
X183180000Y-98260000D02*
X182250000Y-98260000D01*
X180020000Y-98260000D02*
X180950000Y-98260000D01*
G04 #@! TO.C,Q2*
X179680000Y-94740000D02*
X179680000Y-96200000D01*
X176520000Y-94740000D02*
X176520000Y-96900000D01*
X176520000Y-94740000D02*
X177450000Y-94740000D01*
X179680000Y-94740000D02*
X178750000Y-94740000D01*
G04 #@! TO.C,Q1*
X217560000Y-97080000D02*
X216100000Y-97080000D01*
X217560000Y-93920000D02*
X215400000Y-93920000D01*
X217560000Y-93920000D02*
X217560000Y-94850000D01*
X217560000Y-97080000D02*
X217560000Y-96150000D01*
G04 #@! TO.C,Q7*
X178960000Y-108980000D02*
X177500000Y-108980000D01*
X178960000Y-105820000D02*
X176800000Y-105820000D01*
X178960000Y-105820000D02*
X178960000Y-106750000D01*
X178960000Y-108980000D02*
X178960000Y-108050000D01*
G04 #@! TO.C,Q8*
X203980806Y-75223504D02*
X203980806Y-76683504D01*
X200820806Y-75223504D02*
X200820806Y-77383504D01*
X200820806Y-75223504D02*
X201750806Y-75223504D01*
X203980806Y-75223504D02*
X203050806Y-75223504D01*
G04 #@! TO.C,Q9*
X174220000Y-63460000D02*
X174220000Y-62000000D01*
X177380000Y-63460000D02*
X177380000Y-61300000D01*
X177380000Y-63460000D02*
X176450000Y-63460000D01*
X174220000Y-63460000D02*
X175150000Y-63460000D01*
G04 #@! TO.C,Q10*
X213760000Y-71480000D02*
X212300000Y-71480000D01*
X213760000Y-68320000D02*
X211600000Y-68320000D01*
X213760000Y-68320000D02*
X213760000Y-69250000D01*
X213760000Y-71480000D02*
X213760000Y-70550000D01*
G04 #@! TO.C,Q11*
X180331296Y-63303831D02*
X180331296Y-61843831D01*
X183491296Y-63303831D02*
X183491296Y-61143831D01*
X183491296Y-63303831D02*
X182561296Y-63303831D01*
X180331296Y-63303831D02*
X181261296Y-63303831D01*
G04 #@! TO.C,Q12*
X213760000Y-66080000D02*
X212300000Y-66080000D01*
X213760000Y-62920000D02*
X211600000Y-62920000D01*
X213760000Y-62920000D02*
X213760000Y-63850000D01*
X213760000Y-66080000D02*
X213760000Y-65150000D01*
G04 #@! TO.C,Q6*
X178960000Y-105480000D02*
X177500000Y-105480000D01*
X178960000Y-102320000D02*
X176800000Y-102320000D01*
X178960000Y-102320000D02*
X178960000Y-103250000D01*
X178960000Y-105480000D02*
X178960000Y-104550000D01*
G04 #@! TO.C,R6*
X213414573Y-105677619D02*
X213089015Y-105677619D01*
X213414573Y-106697619D02*
X213089015Y-106697619D01*
G04 #@! TO.C,R10*
X178162779Y-97390000D02*
X177837221Y-97390000D01*
X178162779Y-98410000D02*
X177837221Y-98410000D01*
G04 #@! TO.C,R9*
X175290000Y-100237221D02*
X175290000Y-100562779D01*
X176310000Y-100237221D02*
X176310000Y-100562779D01*
G04 #@! TO.C,R8*
X174810000Y-98962779D02*
X174810000Y-98637221D01*
X173790000Y-98962779D02*
X173790000Y-98637221D01*
G04 #@! TO.C,R7*
X192710000Y-73362779D02*
X192710000Y-73037221D01*
X191690000Y-73362779D02*
X191690000Y-73037221D01*
G04 #@! TO.C,R12*
X180190000Y-100524721D02*
X180190000Y-100850279D01*
X181210000Y-100524721D02*
X181210000Y-100850279D01*
G04 #@! TO.C,R5*
X216310000Y-92362779D02*
X216310000Y-92037221D01*
X215290000Y-92362779D02*
X215290000Y-92037221D01*
G04 #@! TO.C,R4*
X201262779Y-98590000D02*
X200937221Y-98590000D01*
X201262779Y-99610000D02*
X200937221Y-99610000D01*
G04 #@! TO.C,R3*
X215961794Y-107150398D02*
X215961794Y-106824840D01*
X214941794Y-107150398D02*
X214941794Y-106824840D01*
G04 #@! TO.C,R24*
X210090000Y-69737221D02*
X210090000Y-70062779D01*
X211110000Y-69737221D02*
X211110000Y-70062779D01*
G04 #@! TO.C,R2*
X213089015Y-108197619D02*
X213414573Y-108197619D01*
X213089015Y-107177619D02*
X213414573Y-107177619D01*
G04 #@! TO.C,R1*
X214810000Y-92362779D02*
X214810000Y-92037221D01*
X213790000Y-92362779D02*
X213790000Y-92037221D01*
G04 #@! TO.C,R11*
X181437221Y-95610000D02*
X181762779Y-95610000D01*
X181437221Y-94590000D02*
X181762779Y-94590000D01*
G04 #@! TO.C,R13*
X186410000Y-95750279D02*
X186410000Y-95424721D01*
X185390000Y-95750279D02*
X185390000Y-95424721D01*
G04 #@! TO.C,R15*
X175290000Y-107237221D02*
X175290000Y-107562779D01*
X176310000Y-107237221D02*
X176310000Y-107562779D01*
G04 #@! TO.C,R22*
X220510000Y-55562779D02*
X220510000Y-55237221D01*
X219490000Y-55562779D02*
X219490000Y-55237221D01*
G04 #@! TO.C,R14*
X181537221Y-106810000D02*
X181862779Y-106810000D01*
X181537221Y-105790000D02*
X181862779Y-105790000D01*
G04 #@! TO.C,R20*
X201938027Y-78893504D02*
X202263585Y-78893504D01*
X201938027Y-77873504D02*
X202263585Y-77873504D01*
G04 #@! TO.C,R26*
X210090000Y-64337221D02*
X210090000Y-64662779D01*
X211110000Y-64337221D02*
X211110000Y-64662779D01*
G04 #@! TO.C,R19*
X202406496Y-81838027D02*
X202406496Y-82163585D01*
X203426496Y-81838027D02*
X203426496Y-82163585D01*
G04 #@! TO.C,R18*
X200906496Y-81838027D02*
X200906496Y-82163585D01*
X201926496Y-81838027D02*
X201926496Y-82163585D01*
G04 #@! TO.C,R17*
X176310000Y-103562779D02*
X176310000Y-103237221D01*
X175290000Y-103562779D02*
X175290000Y-103237221D01*
G04 #@! TO.C,R16*
X173590000Y-103937221D02*
X173590000Y-104262779D01*
X174610000Y-103937221D02*
X174610000Y-104262779D01*
G04 #@! TO.C,R23*
X178810000Y-61062779D02*
X178810000Y-60737221D01*
X177790000Y-61062779D02*
X177790000Y-60737221D01*
G04 #@! TO.C,R25*
X182062779Y-59590000D02*
X181737221Y-59590000D01*
X182062779Y-60610000D02*
X181737221Y-60610000D01*
G04 #@! TO.C,U2*
D15*
X184626190Y-60280952D02*
X185030952Y-60280952D01*
X185078571Y-60257142D01*
X185102380Y-60233333D01*
X185126190Y-60185714D01*
X185126190Y-60090476D01*
X185102380Y-60042857D01*
X185078571Y-60019047D01*
X185030952Y-59995238D01*
X184626190Y-59995238D01*
X184673809Y-59780952D02*
X184650000Y-59757142D01*
X184626190Y-59709523D01*
X184626190Y-59590476D01*
X184650000Y-59542857D01*
X184673809Y-59519047D01*
X184721428Y-59495238D01*
X184769047Y-59495238D01*
X184840476Y-59519047D01*
X185126190Y-59804761D01*
X185126190Y-59495238D01*
G04 #@! TO.C,L1*
X206316666Y-89026190D02*
X206078571Y-89026190D01*
X206078571Y-88526190D01*
X206745238Y-89026190D02*
X206459523Y-89026190D01*
X206602380Y-89026190D02*
X206602380Y-88526190D01*
X206554761Y-88597619D01*
X206507142Y-88645238D01*
X206459523Y-88669047D01*
G04 #@! TO.C,RV1*
X206202380Y-74726190D02*
X206035714Y-74488095D01*
X205916666Y-74726190D02*
X205916666Y-74226190D01*
X206107142Y-74226190D01*
X206154761Y-74250000D01*
X206178571Y-74273809D01*
X206202380Y-74321428D01*
X206202380Y-74392857D01*
X206178571Y-74440476D01*
X206154761Y-74464285D01*
X206107142Y-74488095D01*
X205916666Y-74488095D01*
X206345238Y-74226190D02*
X206511904Y-74726190D01*
X206678571Y-74226190D01*
X207107142Y-74726190D02*
X206821428Y-74726190D01*
X206964285Y-74726190D02*
X206964285Y-74226190D01*
X206916666Y-74297619D01*
X206869047Y-74345238D01*
X206821428Y-74369047D01*
G04 #@! TO.C,SW3*
D13*
X175416666Y-92654761D02*
X175559523Y-92702380D01*
X175797619Y-92702380D01*
X175892857Y-92654761D01*
X175940476Y-92607142D01*
X175988095Y-92511904D01*
X175988095Y-92416666D01*
X175940476Y-92321428D01*
X175892857Y-92273809D01*
X175797619Y-92226190D01*
X175607142Y-92178571D01*
X175511904Y-92130952D01*
X175464285Y-92083333D01*
X175416666Y-91988095D01*
X175416666Y-91892857D01*
X175464285Y-91797619D01*
X175511904Y-91750000D01*
X175607142Y-91702380D01*
X175845238Y-91702380D01*
X175988095Y-91750000D01*
X176321428Y-91702380D02*
X176559523Y-92702380D01*
X176750000Y-91988095D01*
X176940476Y-92702380D01*
X177178571Y-91702380D01*
X177464285Y-91702380D02*
X178083333Y-91702380D01*
X177750000Y-92083333D01*
X177892857Y-92083333D01*
X177988095Y-92130952D01*
X178035714Y-92178571D01*
X178083333Y-92273809D01*
X178083333Y-92511904D01*
X178035714Y-92607142D01*
X177988095Y-92654761D01*
X177892857Y-92702380D01*
X177607142Y-92702380D01*
X177511904Y-92654761D01*
X177464285Y-92607142D01*
G04 #@! TO.C,SW4*
X184166666Y-79904761D02*
X184309523Y-79952380D01*
X184547619Y-79952380D01*
X184642857Y-79904761D01*
X184690476Y-79857142D01*
X184738095Y-79761904D01*
X184738095Y-79666666D01*
X184690476Y-79571428D01*
X184642857Y-79523809D01*
X184547619Y-79476190D01*
X184357142Y-79428571D01*
X184261904Y-79380952D01*
X184214285Y-79333333D01*
X184166666Y-79238095D01*
X184166666Y-79142857D01*
X184214285Y-79047619D01*
X184261904Y-79000000D01*
X184357142Y-78952380D01*
X184595238Y-78952380D01*
X184738095Y-79000000D01*
X185071428Y-78952380D02*
X185309523Y-79952380D01*
X185500000Y-79238095D01*
X185690476Y-79952380D01*
X185928571Y-78952380D01*
X186738095Y-79285714D02*
X186738095Y-79952380D01*
X186500000Y-78904761D02*
X186261904Y-79619047D01*
X186880952Y-79619047D01*
G04 #@! TO.C,Y1*
X196024615Y-86309694D02*
X196024615Y-86785884D01*
X195691282Y-85785884D02*
X196024615Y-86309694D01*
X196357948Y-85785884D01*
X197215091Y-86785884D02*
X196643663Y-86785884D01*
X196929377Y-86785884D02*
X196929377Y-85785884D01*
X196834139Y-85928742D01*
X196738901Y-86023980D01*
X196643663Y-86071599D01*
G04 #@! TO.C,TP6*
D15*
X207169047Y-59326190D02*
X207454761Y-59326190D01*
X207311904Y-59826190D02*
X207311904Y-59326190D01*
X207621428Y-59826190D02*
X207621428Y-59326190D01*
X207811904Y-59326190D01*
X207859523Y-59350000D01*
X207883333Y-59373809D01*
X207907142Y-59421428D01*
X207907142Y-59492857D01*
X207883333Y-59540476D01*
X207859523Y-59564285D01*
X207811904Y-59588095D01*
X207621428Y-59588095D01*
X208335714Y-59326190D02*
X208240476Y-59326190D01*
X208192857Y-59350000D01*
X208169047Y-59373809D01*
X208121428Y-59445238D01*
X208097619Y-59540476D01*
X208097619Y-59730952D01*
X208121428Y-59778571D01*
X208145238Y-59802380D01*
X208192857Y-59826190D01*
X208288095Y-59826190D01*
X208335714Y-59802380D01*
X208359523Y-59778571D01*
X208383333Y-59730952D01*
X208383333Y-59611904D01*
X208359523Y-59564285D01*
X208335714Y-59540476D01*
X208288095Y-59516666D01*
X208192857Y-59516666D01*
X208145238Y-59540476D01*
X208121428Y-59564285D01*
X208097619Y-59611904D01*
G04 #@! TO.C,TP3*
X228069047Y-103226190D02*
X228354761Y-103226190D01*
X228211904Y-103726190D02*
X228211904Y-103226190D01*
X228521428Y-103726190D02*
X228521428Y-103226190D01*
X228711904Y-103226190D01*
X228759523Y-103250000D01*
X228783333Y-103273809D01*
X228807142Y-103321428D01*
X228807142Y-103392857D01*
X228783333Y-103440476D01*
X228759523Y-103464285D01*
X228711904Y-103488095D01*
X228521428Y-103488095D01*
X228973809Y-103226190D02*
X229283333Y-103226190D01*
X229116666Y-103416666D01*
X229188095Y-103416666D01*
X229235714Y-103440476D01*
X229259523Y-103464285D01*
X229283333Y-103511904D01*
X229283333Y-103630952D01*
X229259523Y-103678571D01*
X229235714Y-103702380D01*
X229188095Y-103726190D01*
X229045238Y-103726190D01*
X228997619Y-103702380D01*
X228973809Y-103678571D01*
G04 #@! TO.C,TP7*
X182969047Y-51726190D02*
X183254761Y-51726190D01*
X183111904Y-52226190D02*
X183111904Y-51726190D01*
X183421428Y-52226190D02*
X183421428Y-51726190D01*
X183611904Y-51726190D01*
X183659523Y-51750000D01*
X183683333Y-51773809D01*
X183707142Y-51821428D01*
X183707142Y-51892857D01*
X183683333Y-51940476D01*
X183659523Y-51964285D01*
X183611904Y-51988095D01*
X183421428Y-51988095D01*
X183873809Y-51726190D02*
X184207142Y-51726190D01*
X183992857Y-52226190D01*
G04 #@! TO.C,TP5*
X187769047Y-98626190D02*
X188054761Y-98626190D01*
X187911904Y-99126190D02*
X187911904Y-98626190D01*
X188221428Y-99126190D02*
X188221428Y-98626190D01*
X188411904Y-98626190D01*
X188459523Y-98650000D01*
X188483333Y-98673809D01*
X188507142Y-98721428D01*
X188507142Y-98792857D01*
X188483333Y-98840476D01*
X188459523Y-98864285D01*
X188411904Y-98888095D01*
X188221428Y-98888095D01*
X188959523Y-98626190D02*
X188721428Y-98626190D01*
X188697619Y-98864285D01*
X188721428Y-98840476D01*
X188769047Y-98816666D01*
X188888095Y-98816666D01*
X188935714Y-98840476D01*
X188959523Y-98864285D01*
X188983333Y-98911904D01*
X188983333Y-99030952D01*
X188959523Y-99078571D01*
X188935714Y-99102380D01*
X188888095Y-99126190D01*
X188769047Y-99126190D01*
X188721428Y-99102380D01*
X188697619Y-99078571D01*
G04 #@! TO.C,TP4*
X192469047Y-70326190D02*
X192754761Y-70326190D01*
X192611904Y-70826190D02*
X192611904Y-70326190D01*
X192921428Y-70826190D02*
X192921428Y-70326190D01*
X193111904Y-70326190D01*
X193159523Y-70350000D01*
X193183333Y-70373809D01*
X193207142Y-70421428D01*
X193207142Y-70492857D01*
X193183333Y-70540476D01*
X193159523Y-70564285D01*
X193111904Y-70588095D01*
X192921428Y-70588095D01*
X193635714Y-70492857D02*
X193635714Y-70826190D01*
X193516666Y-70302380D02*
X193397619Y-70659523D01*
X193707142Y-70659523D01*
G04 #@! TO.C,TP1*
X216769047Y-101426190D02*
X217054761Y-101426190D01*
X216911904Y-101926190D02*
X216911904Y-101426190D01*
X217221428Y-101926190D02*
X217221428Y-101426190D01*
X217411904Y-101426190D01*
X217459523Y-101450000D01*
X217483333Y-101473809D01*
X217507142Y-101521428D01*
X217507142Y-101592857D01*
X217483333Y-101640476D01*
X217459523Y-101664285D01*
X217411904Y-101688095D01*
X217221428Y-101688095D01*
X217983333Y-101926190D02*
X217697619Y-101926190D01*
X217840476Y-101926190D02*
X217840476Y-101426190D01*
X217792857Y-101497619D01*
X217745238Y-101545238D01*
X217697619Y-101569047D01*
G04 #@! TO.C,TP2*
X203169047Y-94226190D02*
X203454761Y-94226190D01*
X203311904Y-94726190D02*
X203311904Y-94226190D01*
X203621428Y-94726190D02*
X203621428Y-94226190D01*
X203811904Y-94226190D01*
X203859523Y-94250000D01*
X203883333Y-94273809D01*
X203907142Y-94321428D01*
X203907142Y-94392857D01*
X203883333Y-94440476D01*
X203859523Y-94464285D01*
X203811904Y-94488095D01*
X203621428Y-94488095D01*
X204097619Y-94273809D02*
X204121428Y-94250000D01*
X204169047Y-94226190D01*
X204288095Y-94226190D01*
X204335714Y-94250000D01*
X204359523Y-94273809D01*
X204383333Y-94321428D01*
X204383333Y-94369047D01*
X204359523Y-94440476D01*
X204073809Y-94726190D01*
X204383333Y-94726190D01*
G04 #@! TO.C,D6*
X172826190Y-107569047D02*
X172326190Y-107569047D01*
X172326190Y-107450000D01*
X172350000Y-107378571D01*
X172397619Y-107330952D01*
X172445238Y-107307142D01*
X172540476Y-107283333D01*
X172611904Y-107283333D01*
X172707142Y-107307142D01*
X172754761Y-107330952D01*
X172802380Y-107378571D01*
X172826190Y-107450000D01*
X172826190Y-107569047D01*
X172326190Y-106854761D02*
X172326190Y-106950000D01*
X172350000Y-106997619D01*
X172373809Y-107021428D01*
X172445238Y-107069047D01*
X172540476Y-107092857D01*
X172730952Y-107092857D01*
X172778571Y-107069047D01*
X172802380Y-107045238D01*
X172826190Y-106997619D01*
X172826190Y-106902380D01*
X172802380Y-106854761D01*
X172778571Y-106830952D01*
X172730952Y-106807142D01*
X172611904Y-106807142D01*
X172564285Y-106830952D01*
X172540476Y-106854761D01*
X172516666Y-106902380D01*
X172516666Y-106997619D01*
X172540476Y-107045238D01*
X172564285Y-107069047D01*
X172611904Y-107092857D01*
G04 #@! TO.C,U3*
X188676996Y-80364456D02*
X189081758Y-80364456D01*
X189129377Y-80340646D01*
X189153186Y-80316837D01*
X189176996Y-80269218D01*
X189176996Y-80173980D01*
X189153186Y-80126361D01*
X189129377Y-80102551D01*
X189081758Y-80078742D01*
X188676996Y-80078742D01*
X188676996Y-79888265D02*
X188676996Y-79578742D01*
X188867472Y-79745408D01*
X188867472Y-79673980D01*
X188891282Y-79626361D01*
X188915091Y-79602551D01*
X188962710Y-79578742D01*
X189081758Y-79578742D01*
X189129377Y-79602551D01*
X189153186Y-79626361D01*
X189176996Y-79673980D01*
X189176996Y-79816837D01*
X189153186Y-79864456D01*
X189129377Y-79888265D01*
G04 #@! TO.C,J2*
X172326190Y-88566666D02*
X172683333Y-88566666D01*
X172754761Y-88590476D01*
X172802380Y-88638095D01*
X172826190Y-88709523D01*
X172826190Y-88757142D01*
X172373809Y-88352380D02*
X172350000Y-88328571D01*
X172326190Y-88280952D01*
X172326190Y-88161904D01*
X172350000Y-88114285D01*
X172373809Y-88090476D01*
X172421428Y-88066666D01*
X172469047Y-88066666D01*
X172540476Y-88090476D01*
X172826190Y-88376190D01*
X172826190Y-88066666D01*
G04 #@! TO.C,R21*
X170378571Y-53726190D02*
X170211904Y-53488095D01*
X170092857Y-53726190D02*
X170092857Y-53226190D01*
X170283333Y-53226190D01*
X170330952Y-53250000D01*
X170354761Y-53273809D01*
X170378571Y-53321428D01*
X170378571Y-53392857D01*
X170354761Y-53440476D01*
X170330952Y-53464285D01*
X170283333Y-53488095D01*
X170092857Y-53488095D01*
X170569047Y-53273809D02*
X170592857Y-53250000D01*
X170640476Y-53226190D01*
X170759523Y-53226190D01*
X170807142Y-53250000D01*
X170830952Y-53273809D01*
X170854761Y-53321428D01*
X170854761Y-53369047D01*
X170830952Y-53440476D01*
X170545238Y-53726190D01*
X170854761Y-53726190D01*
X171330952Y-53726190D02*
X171045238Y-53726190D01*
X171188095Y-53726190D02*
X171188095Y-53226190D01*
X171140476Y-53297619D01*
X171092857Y-53345238D01*
X171045238Y-53369047D01*
G04 #@! TO.C,U4*
X177019047Y-51826190D02*
X177019047Y-52230952D01*
X177042857Y-52278571D01*
X177066666Y-52302380D01*
X177114285Y-52326190D01*
X177209523Y-52326190D01*
X177257142Y-52302380D01*
X177280952Y-52278571D01*
X177304761Y-52230952D01*
X177304761Y-51826190D01*
X177757142Y-51992857D02*
X177757142Y-52326190D01*
X177638095Y-51802380D02*
X177519047Y-52159523D01*
X177828571Y-52159523D01*
G04 #@! TO.C,J1*
X217126190Y-88066666D02*
X217483333Y-88066666D01*
X217554761Y-88090476D01*
X217602380Y-88138095D01*
X217626190Y-88209523D01*
X217626190Y-88257142D01*
X217626190Y-87566666D02*
X217626190Y-87852380D01*
X217626190Y-87709523D02*
X217126190Y-87709523D01*
X217197619Y-87757142D01*
X217245238Y-87804761D01*
X217269047Y-87852380D01*
G04 #@! TO.C,BZ1*
X210559523Y-88764285D02*
X210630952Y-88788095D01*
X210654761Y-88811904D01*
X210678571Y-88859523D01*
X210678571Y-88930952D01*
X210654761Y-88978571D01*
X210630952Y-89002380D01*
X210583333Y-89026190D01*
X210392857Y-89026190D01*
X210392857Y-88526190D01*
X210559523Y-88526190D01*
X210607142Y-88550000D01*
X210630952Y-88573809D01*
X210654761Y-88621428D01*
X210654761Y-88669047D01*
X210630952Y-88716666D01*
X210607142Y-88740476D01*
X210559523Y-88764285D01*
X210392857Y-88764285D01*
X210845238Y-88526190D02*
X211178571Y-88526190D01*
X210845238Y-89026190D01*
X211178571Y-89026190D01*
X211630952Y-89026190D02*
X211345238Y-89026190D01*
X211488095Y-89026190D02*
X211488095Y-88526190D01*
X211440476Y-88597619D01*
X211392857Y-88645238D01*
X211345238Y-88669047D01*
D13*
X208531428Y-86290952D02*
X208531428Y-85529047D01*
X208912380Y-85910000D02*
X208150476Y-85910000D01*
G04 #@! TO.C,J4*
D15*
X183733333Y-108626190D02*
X183733333Y-108983333D01*
X183709523Y-109054761D01*
X183661904Y-109102380D01*
X183590476Y-109126190D01*
X183542857Y-109126190D01*
X184185714Y-108792857D02*
X184185714Y-109126190D01*
X184066666Y-108602380D02*
X183947619Y-108959523D01*
X184257142Y-108959523D01*
G04 #@! TO.C,C3*
X205578571Y-98183333D02*
X205602380Y-98207142D01*
X205626190Y-98278571D01*
X205626190Y-98326190D01*
X205602380Y-98397619D01*
X205554761Y-98445238D01*
X205507142Y-98469047D01*
X205411904Y-98492857D01*
X205340476Y-98492857D01*
X205245238Y-98469047D01*
X205197619Y-98445238D01*
X205150000Y-98397619D01*
X205126190Y-98326190D01*
X205126190Y-98278571D01*
X205150000Y-98207142D01*
X205173809Y-98183333D01*
X205126190Y-98016666D02*
X205126190Y-97707142D01*
X205316666Y-97873809D01*
X205316666Y-97802380D01*
X205340476Y-97754761D01*
X205364285Y-97730952D01*
X205411904Y-97707142D01*
X205530952Y-97707142D01*
X205578571Y-97730952D01*
X205602380Y-97754761D01*
X205626190Y-97802380D01*
X205626190Y-97945238D01*
X205602380Y-97992857D01*
X205578571Y-98016666D01*
G04 #@! TO.C,C2*
X209968460Y-108078571D02*
X209944651Y-108102380D01*
X209873222Y-108126190D01*
X209825603Y-108126190D01*
X209754174Y-108102380D01*
X209706555Y-108054761D01*
X209682746Y-108007142D01*
X209658936Y-107911904D01*
X209658936Y-107840476D01*
X209682746Y-107745238D01*
X209706555Y-107697619D01*
X209754174Y-107650000D01*
X209825603Y-107626190D01*
X209873222Y-107626190D01*
X209944651Y-107650000D01*
X209968460Y-107673809D01*
X210158936Y-107673809D02*
X210182746Y-107650000D01*
X210230365Y-107626190D01*
X210349413Y-107626190D01*
X210397032Y-107650000D01*
X210420841Y-107673809D01*
X210444651Y-107721428D01*
X210444651Y-107769047D01*
X210420841Y-107840476D01*
X210135127Y-108126190D01*
X210444651Y-108126190D01*
G04 #@! TO.C,C1*
X213116666Y-94978571D02*
X213092857Y-95002380D01*
X213021428Y-95026190D01*
X212973809Y-95026190D01*
X212902380Y-95002380D01*
X212854761Y-94954761D01*
X212830952Y-94907142D01*
X212807142Y-94811904D01*
X212807142Y-94740476D01*
X212830952Y-94645238D01*
X212854761Y-94597619D01*
X212902380Y-94550000D01*
X212973809Y-94526190D01*
X213021428Y-94526190D01*
X213092857Y-94550000D01*
X213116666Y-94573809D01*
X213592857Y-95026190D02*
X213307142Y-95026190D01*
X213450000Y-95026190D02*
X213450000Y-94526190D01*
X213402380Y-94597619D01*
X213354761Y-94645238D01*
X213307142Y-94669047D01*
G04 #@! TO.C,L2*
X198216666Y-74026190D02*
X197978571Y-74026190D01*
X197978571Y-73526190D01*
X198359523Y-73573809D02*
X198383333Y-73550000D01*
X198430952Y-73526190D01*
X198550000Y-73526190D01*
X198597619Y-73550000D01*
X198621428Y-73573809D01*
X198645238Y-73621428D01*
X198645238Y-73669047D01*
X198621428Y-73740476D01*
X198335714Y-74026190D01*
X198645238Y-74026190D01*
G04 #@! TO.C,C9*
X198016666Y-86578571D02*
X197992857Y-86602380D01*
X197921428Y-86626190D01*
X197873809Y-86626190D01*
X197802380Y-86602380D01*
X197754761Y-86554761D01*
X197730952Y-86507142D01*
X197707142Y-86411904D01*
X197707142Y-86340476D01*
X197730952Y-86245238D01*
X197754761Y-86197619D01*
X197802380Y-86150000D01*
X197873809Y-86126190D01*
X197921428Y-86126190D01*
X197992857Y-86150000D01*
X198016666Y-86173809D01*
X198254761Y-86626190D02*
X198350000Y-86626190D01*
X198397619Y-86602380D01*
X198421428Y-86578571D01*
X198469047Y-86507142D01*
X198492857Y-86411904D01*
X198492857Y-86221428D01*
X198469047Y-86173809D01*
X198445238Y-86150000D01*
X198397619Y-86126190D01*
X198302380Y-86126190D01*
X198254761Y-86150000D01*
X198230952Y-86173809D01*
X198207142Y-86221428D01*
X198207142Y-86340476D01*
X198230952Y-86388095D01*
X198254761Y-86411904D01*
X198302380Y-86435714D01*
X198397619Y-86435714D01*
X198445238Y-86411904D01*
X198469047Y-86388095D01*
X198492857Y-86340476D01*
G04 #@! TO.C,SW2*
X190502380Y-97966666D02*
X190526190Y-97895238D01*
X190526190Y-97776190D01*
X190502380Y-97728571D01*
X190478571Y-97704761D01*
X190430952Y-97680952D01*
X190383333Y-97680952D01*
X190335714Y-97704761D01*
X190311904Y-97728571D01*
X190288095Y-97776190D01*
X190264285Y-97871428D01*
X190240476Y-97919047D01*
X190216666Y-97942857D01*
X190169047Y-97966666D01*
X190121428Y-97966666D01*
X190073809Y-97942857D01*
X190050000Y-97919047D01*
X190026190Y-97871428D01*
X190026190Y-97752380D01*
X190050000Y-97680952D01*
X190026190Y-97514285D02*
X190526190Y-97395238D01*
X190169047Y-97300000D01*
X190526190Y-97204761D01*
X190026190Y-97085714D01*
X190073809Y-96919047D02*
X190050000Y-96895238D01*
X190026190Y-96847619D01*
X190026190Y-96728571D01*
X190050000Y-96680952D01*
X190073809Y-96657142D01*
X190121428Y-96633333D01*
X190169047Y-96633333D01*
X190240476Y-96657142D01*
X190526190Y-96942857D01*
X190526190Y-96633333D01*
G04 #@! TO.C,C7*
X190716666Y-86578571D02*
X190692857Y-86602380D01*
X190621428Y-86626190D01*
X190573809Y-86626190D01*
X190502380Y-86602380D01*
X190454761Y-86554761D01*
X190430952Y-86507142D01*
X190407142Y-86411904D01*
X190407142Y-86340476D01*
X190430952Y-86245238D01*
X190454761Y-86197619D01*
X190502380Y-86150000D01*
X190573809Y-86126190D01*
X190621428Y-86126190D01*
X190692857Y-86150000D01*
X190716666Y-86173809D01*
X190883333Y-86126190D02*
X191216666Y-86126190D01*
X191002380Y-86626190D01*
G04 #@! TO.C,C6*
X193478571Y-74083333D02*
X193502380Y-74107142D01*
X193526190Y-74178571D01*
X193526190Y-74226190D01*
X193502380Y-74297619D01*
X193454761Y-74345238D01*
X193407142Y-74369047D01*
X193311904Y-74392857D01*
X193240476Y-74392857D01*
X193145238Y-74369047D01*
X193097619Y-74345238D01*
X193050000Y-74297619D01*
X193026190Y-74226190D01*
X193026190Y-74178571D01*
X193050000Y-74107142D01*
X193073809Y-74083333D01*
X193026190Y-73654761D02*
X193026190Y-73750000D01*
X193050000Y-73797619D01*
X193073809Y-73821428D01*
X193145238Y-73869047D01*
X193240476Y-73892857D01*
X193430952Y-73892857D01*
X193478571Y-73869047D01*
X193502380Y-73845238D01*
X193526190Y-73797619D01*
X193526190Y-73702380D01*
X193502380Y-73654761D01*
X193478571Y-73630952D01*
X193430952Y-73607142D01*
X193311904Y-73607142D01*
X193264285Y-73630952D01*
X193240476Y-73654761D01*
X193216666Y-73702380D01*
X193216666Y-73797619D01*
X193240476Y-73845238D01*
X193264285Y-73869047D01*
X193311904Y-73892857D01*
G04 #@! TO.C,C5*
X200016666Y-93578571D02*
X199992857Y-93602380D01*
X199921428Y-93626190D01*
X199873809Y-93626190D01*
X199802380Y-93602380D01*
X199754761Y-93554761D01*
X199730952Y-93507142D01*
X199707142Y-93411904D01*
X199707142Y-93340476D01*
X199730952Y-93245238D01*
X199754761Y-93197619D01*
X199802380Y-93150000D01*
X199873809Y-93126190D01*
X199921428Y-93126190D01*
X199992857Y-93150000D01*
X200016666Y-93173809D01*
X200469047Y-93126190D02*
X200230952Y-93126190D01*
X200207142Y-93364285D01*
X200230952Y-93340476D01*
X200278571Y-93316666D01*
X200397619Y-93316666D01*
X200445238Y-93340476D01*
X200469047Y-93364285D01*
X200492857Y-93411904D01*
X200492857Y-93530952D01*
X200469047Y-93578571D01*
X200445238Y-93602380D01*
X200397619Y-93626190D01*
X200278571Y-93626190D01*
X200230952Y-93602380D01*
X200207142Y-93578571D01*
G04 #@! TO.C,C4*
X192816666Y-93578571D02*
X192792857Y-93602380D01*
X192721428Y-93626190D01*
X192673809Y-93626190D01*
X192602380Y-93602380D01*
X192554761Y-93554761D01*
X192530952Y-93507142D01*
X192507142Y-93411904D01*
X192507142Y-93340476D01*
X192530952Y-93245238D01*
X192554761Y-93197619D01*
X192602380Y-93150000D01*
X192673809Y-93126190D01*
X192721428Y-93126190D01*
X192792857Y-93150000D01*
X192816666Y-93173809D01*
X193245238Y-93292857D02*
X193245238Y-93626190D01*
X193126190Y-93102380D02*
X193007142Y-93459523D01*
X193316666Y-93459523D01*
G04 #@! TO.C,C8*
X193478571Y-72583333D02*
X193502380Y-72607142D01*
X193526190Y-72678571D01*
X193526190Y-72726190D01*
X193502380Y-72797619D01*
X193454761Y-72845238D01*
X193407142Y-72869047D01*
X193311904Y-72892857D01*
X193240476Y-72892857D01*
X193145238Y-72869047D01*
X193097619Y-72845238D01*
X193050000Y-72797619D01*
X193026190Y-72726190D01*
X193026190Y-72678571D01*
X193050000Y-72607142D01*
X193073809Y-72583333D01*
X193240476Y-72297619D02*
X193216666Y-72345238D01*
X193192857Y-72369047D01*
X193145238Y-72392857D01*
X193121428Y-72392857D01*
X193073809Y-72369047D01*
X193050000Y-72345238D01*
X193026190Y-72297619D01*
X193026190Y-72202380D01*
X193050000Y-72154761D01*
X193073809Y-72130952D01*
X193121428Y-72107142D01*
X193145238Y-72107142D01*
X193192857Y-72130952D01*
X193216666Y-72154761D01*
X193240476Y-72202380D01*
X193240476Y-72297619D01*
X193264285Y-72345238D01*
X193288095Y-72369047D01*
X193335714Y-72392857D01*
X193430952Y-72392857D01*
X193478571Y-72369047D01*
X193502380Y-72345238D01*
X193526190Y-72297619D01*
X193526190Y-72202380D01*
X193502380Y-72154761D01*
X193478571Y-72130952D01*
X193430952Y-72107142D01*
X193335714Y-72107142D01*
X193288095Y-72130952D01*
X193264285Y-72154761D01*
X193240476Y-72202380D01*
G04 #@! TO.C,D11*
X172092857Y-52426190D02*
X172092857Y-51926190D01*
X172211904Y-51926190D01*
X172283333Y-51950000D01*
X172330952Y-51997619D01*
X172354761Y-52045238D01*
X172378571Y-52140476D01*
X172378571Y-52211904D01*
X172354761Y-52307142D01*
X172330952Y-52354761D01*
X172283333Y-52402380D01*
X172211904Y-52426190D01*
X172092857Y-52426190D01*
X172854761Y-52426190D02*
X172569047Y-52426190D01*
X172711904Y-52426190D02*
X172711904Y-51926190D01*
X172664285Y-51997619D01*
X172616666Y-52045238D01*
X172569047Y-52069047D01*
X173330952Y-52426190D02*
X173045238Y-52426190D01*
X173188095Y-52426190D02*
X173188095Y-51926190D01*
X173140476Y-51997619D01*
X173092857Y-52045238D01*
X173045238Y-52069047D01*
G04 #@! TO.C,D14*
X217726190Y-64307142D02*
X217226190Y-64307142D01*
X217226190Y-64188095D01*
X217250000Y-64116666D01*
X217297619Y-64069047D01*
X217345238Y-64045238D01*
X217440476Y-64021428D01*
X217511904Y-64021428D01*
X217607142Y-64045238D01*
X217654761Y-64069047D01*
X217702380Y-64116666D01*
X217726190Y-64188095D01*
X217726190Y-64307142D01*
X217726190Y-63545238D02*
X217726190Y-63830952D01*
X217726190Y-63688095D02*
X217226190Y-63688095D01*
X217297619Y-63735714D01*
X217345238Y-63783333D01*
X217369047Y-63830952D01*
X217392857Y-63116666D02*
X217726190Y-63116666D01*
X217202380Y-63235714D02*
X217559523Y-63354761D01*
X217559523Y-63045238D01*
G04 #@! TO.C,D13*
X181292857Y-67326190D02*
X181292857Y-66826190D01*
X181411904Y-66826190D01*
X181483333Y-66850000D01*
X181530952Y-66897619D01*
X181554761Y-66945238D01*
X181578571Y-67040476D01*
X181578571Y-67111904D01*
X181554761Y-67207142D01*
X181530952Y-67254761D01*
X181483333Y-67302380D01*
X181411904Y-67326190D01*
X181292857Y-67326190D01*
X182054761Y-67326190D02*
X181769047Y-67326190D01*
X181911904Y-67326190D02*
X181911904Y-66826190D01*
X181864285Y-66897619D01*
X181816666Y-66945238D01*
X181769047Y-66969047D01*
X182221428Y-66826190D02*
X182530952Y-66826190D01*
X182364285Y-67016666D01*
X182435714Y-67016666D01*
X182483333Y-67040476D01*
X182507142Y-67064285D01*
X182530952Y-67111904D01*
X182530952Y-67230952D01*
X182507142Y-67278571D01*
X182483333Y-67302380D01*
X182435714Y-67326190D01*
X182292857Y-67326190D01*
X182245238Y-67302380D01*
X182221428Y-67278571D01*
G04 #@! TO.C,D12*
X217492857Y-52426190D02*
X217492857Y-51926190D01*
X217611904Y-51926190D01*
X217683333Y-51950000D01*
X217730952Y-51997619D01*
X217754761Y-52045238D01*
X217778571Y-52140476D01*
X217778571Y-52211904D01*
X217754761Y-52307142D01*
X217730952Y-52354761D01*
X217683333Y-52402380D01*
X217611904Y-52426190D01*
X217492857Y-52426190D01*
X218254761Y-52426190D02*
X217969047Y-52426190D01*
X218111904Y-52426190D02*
X218111904Y-51926190D01*
X218064285Y-51997619D01*
X218016666Y-52045238D01*
X217969047Y-52069047D01*
X218445238Y-51973809D02*
X218469047Y-51950000D01*
X218516666Y-51926190D01*
X218635714Y-51926190D01*
X218683333Y-51950000D01*
X218707142Y-51973809D01*
X218730952Y-52021428D01*
X218730952Y-52069047D01*
X218707142Y-52140476D01*
X218421428Y-52426190D01*
X218730952Y-52426190D01*
G04 #@! TO.C,D10*
X217626190Y-68607142D02*
X217126190Y-68607142D01*
X217126190Y-68488095D01*
X217150000Y-68416666D01*
X217197619Y-68369047D01*
X217245238Y-68345238D01*
X217340476Y-68321428D01*
X217411904Y-68321428D01*
X217507142Y-68345238D01*
X217554761Y-68369047D01*
X217602380Y-68416666D01*
X217626190Y-68488095D01*
X217626190Y-68607142D01*
X217626190Y-67845238D02*
X217626190Y-68130952D01*
X217626190Y-67988095D02*
X217126190Y-67988095D01*
X217197619Y-68035714D01*
X217245238Y-68083333D01*
X217269047Y-68130952D01*
X217126190Y-67535714D02*
X217126190Y-67488095D01*
X217150000Y-67440476D01*
X217173809Y-67416666D01*
X217221428Y-67392857D01*
X217316666Y-67369047D01*
X217435714Y-67369047D01*
X217530952Y-67392857D01*
X217578571Y-67416666D01*
X217602380Y-67440476D01*
X217626190Y-67488095D01*
X217626190Y-67535714D01*
X217602380Y-67583333D01*
X217578571Y-67607142D01*
X217530952Y-67630952D01*
X217435714Y-67654761D01*
X217316666Y-67654761D01*
X217221428Y-67630952D01*
X217173809Y-67607142D01*
X217150000Y-67583333D01*
X217126190Y-67535714D01*
G04 #@! TO.C,D9*
X175330952Y-67326190D02*
X175330952Y-66826190D01*
X175450000Y-66826190D01*
X175521428Y-66850000D01*
X175569047Y-66897619D01*
X175592857Y-66945238D01*
X175616666Y-67040476D01*
X175616666Y-67111904D01*
X175592857Y-67207142D01*
X175569047Y-67254761D01*
X175521428Y-67302380D01*
X175450000Y-67326190D01*
X175330952Y-67326190D01*
X175854761Y-67326190D02*
X175950000Y-67326190D01*
X175997619Y-67302380D01*
X176021428Y-67278571D01*
X176069047Y-67207142D01*
X176092857Y-67111904D01*
X176092857Y-66921428D01*
X176069047Y-66873809D01*
X176045238Y-66850000D01*
X175997619Y-66826190D01*
X175902380Y-66826190D01*
X175854761Y-66850000D01*
X175830952Y-66873809D01*
X175807142Y-66921428D01*
X175807142Y-67040476D01*
X175830952Y-67088095D01*
X175854761Y-67111904D01*
X175902380Y-67135714D01*
X175997619Y-67135714D01*
X176045238Y-67111904D01*
X176069047Y-67088095D01*
X176092857Y-67040476D01*
G04 #@! TO.C,D1*
X223230952Y-100326190D02*
X223230952Y-99826190D01*
X223350000Y-99826190D01*
X223421428Y-99850000D01*
X223469047Y-99897619D01*
X223492857Y-99945238D01*
X223516666Y-100040476D01*
X223516666Y-100111904D01*
X223492857Y-100207142D01*
X223469047Y-100254761D01*
X223421428Y-100302380D01*
X223350000Y-100326190D01*
X223230952Y-100326190D01*
X223992857Y-100326190D02*
X223707142Y-100326190D01*
X223850000Y-100326190D02*
X223850000Y-99826190D01*
X223802380Y-99897619D01*
X223754761Y-99945238D01*
X223707142Y-99969047D01*
G04 #@! TO.C,J3*
X172326190Y-97366666D02*
X172683333Y-97366666D01*
X172754761Y-97390476D01*
X172802380Y-97438095D01*
X172826190Y-97509523D01*
X172826190Y-97557142D01*
X172326190Y-97176190D02*
X172326190Y-96866666D01*
X172516666Y-97033333D01*
X172516666Y-96961904D01*
X172540476Y-96914285D01*
X172564285Y-96890476D01*
X172611904Y-96866666D01*
X172730952Y-96866666D01*
X172778571Y-96890476D01*
X172802380Y-96914285D01*
X172826190Y-96961904D01*
X172826190Y-97104761D01*
X172802380Y-97152380D01*
X172778571Y-97176190D01*
G04 #@! TO.C,J5*
X172326190Y-71766666D02*
X172683333Y-71766666D01*
X172754761Y-71790476D01*
X172802380Y-71838095D01*
X172826190Y-71909523D01*
X172826190Y-71957142D01*
X172326190Y-71290476D02*
X172326190Y-71528571D01*
X172564285Y-71552380D01*
X172540476Y-71528571D01*
X172516666Y-71480952D01*
X172516666Y-71361904D01*
X172540476Y-71314285D01*
X172564285Y-71290476D01*
X172611904Y-71266666D01*
X172730952Y-71266666D01*
X172778571Y-71290476D01*
X172802380Y-71314285D01*
X172826190Y-71361904D01*
X172826190Y-71480952D01*
X172802380Y-71528571D01*
X172778571Y-71552380D01*
G04 #@! TO.C,J7*
X172326190Y-63266666D02*
X172683333Y-63266666D01*
X172754761Y-63290476D01*
X172802380Y-63338095D01*
X172826190Y-63409523D01*
X172826190Y-63457142D01*
X172326190Y-63076190D02*
X172326190Y-62742857D01*
X172826190Y-62957142D01*
G04 #@! TO.C,J8*
X217026190Y-62666666D02*
X217383333Y-62666666D01*
X217454761Y-62690476D01*
X217502380Y-62738095D01*
X217526190Y-62809523D01*
X217526190Y-62857142D01*
X217240476Y-62357142D02*
X217216666Y-62404761D01*
X217192857Y-62428571D01*
X217145238Y-62452380D01*
X217121428Y-62452380D01*
X217073809Y-62428571D01*
X217050000Y-62404761D01*
X217026190Y-62357142D01*
X217026190Y-62261904D01*
X217050000Y-62214285D01*
X217073809Y-62190476D01*
X217121428Y-62166666D01*
X217145238Y-62166666D01*
X217192857Y-62190476D01*
X217216666Y-62214285D01*
X217240476Y-62261904D01*
X217240476Y-62357142D01*
X217264285Y-62404761D01*
X217288095Y-62428571D01*
X217335714Y-62452380D01*
X217430952Y-62452380D01*
X217478571Y-62428571D01*
X217502380Y-62404761D01*
X217526190Y-62357142D01*
X217526190Y-62261904D01*
X217502380Y-62214285D01*
X217478571Y-62190476D01*
X217430952Y-62166666D01*
X217335714Y-62166666D01*
X217288095Y-62190476D01*
X217264285Y-62214285D01*
X217240476Y-62261904D01*
G04 #@! TO.C,J9*
X172326190Y-80566666D02*
X172683333Y-80566666D01*
X172754761Y-80590476D01*
X172802380Y-80638095D01*
X172826190Y-80709523D01*
X172826190Y-80757142D01*
X172826190Y-80304761D02*
X172826190Y-80209523D01*
X172802380Y-80161904D01*
X172778571Y-80138095D01*
X172707142Y-80090476D01*
X172611904Y-80066666D01*
X172421428Y-80066666D01*
X172373809Y-80090476D01*
X172350000Y-80114285D01*
X172326190Y-80161904D01*
X172326190Y-80257142D01*
X172350000Y-80304761D01*
X172373809Y-80328571D01*
X172421428Y-80352380D01*
X172540476Y-80352380D01*
X172588095Y-80328571D01*
X172611904Y-80304761D01*
X172635714Y-80257142D01*
X172635714Y-80161904D01*
X172611904Y-80114285D01*
X172588095Y-80090476D01*
X172540476Y-80066666D01*
G04 #@! TO.C,J10*
X217026190Y-71904761D02*
X217383333Y-71904761D01*
X217454761Y-71928571D01*
X217502380Y-71976190D01*
X217526190Y-72047619D01*
X217526190Y-72095238D01*
X217526190Y-71404761D02*
X217526190Y-71690476D01*
X217526190Y-71547619D02*
X217026190Y-71547619D01*
X217097619Y-71595238D01*
X217145238Y-71642857D01*
X217169047Y-71690476D01*
X217026190Y-71095238D02*
X217026190Y-71047619D01*
X217050000Y-71000000D01*
X217073809Y-70976190D01*
X217121428Y-70952380D01*
X217216666Y-70928571D01*
X217335714Y-70928571D01*
X217430952Y-70952380D01*
X217478571Y-70976190D01*
X217502380Y-71000000D01*
X217526190Y-71047619D01*
X217526190Y-71095238D01*
X217502380Y-71142857D01*
X217478571Y-71166666D01*
X217430952Y-71190476D01*
X217335714Y-71214285D01*
X217216666Y-71214285D01*
X217121428Y-71190476D01*
X217073809Y-71166666D01*
X217050000Y-71142857D01*
X217026190Y-71095238D01*
G04 #@! TO.C,J6*
X217026190Y-76766666D02*
X217383333Y-76766666D01*
X217454761Y-76790476D01*
X217502380Y-76838095D01*
X217526190Y-76909523D01*
X217526190Y-76957142D01*
X217026190Y-76314285D02*
X217026190Y-76409523D01*
X217050000Y-76457142D01*
X217073809Y-76480952D01*
X217145238Y-76528571D01*
X217240476Y-76552380D01*
X217430952Y-76552380D01*
X217478571Y-76528571D01*
X217502380Y-76504761D01*
X217526190Y-76457142D01*
X217526190Y-76361904D01*
X217502380Y-76314285D01*
X217478571Y-76290476D01*
X217430952Y-76266666D01*
X217311904Y-76266666D01*
X217264285Y-76290476D01*
X217240476Y-76314285D01*
X217216666Y-76361904D01*
X217216666Y-76457142D01*
X217240476Y-76504761D01*
X217264285Y-76528571D01*
X217311904Y-76552380D01*
G04 #@! TO.C,D7*
X200026190Y-86469047D02*
X199526190Y-86469047D01*
X199526190Y-86350000D01*
X199550000Y-86278571D01*
X199597619Y-86230952D01*
X199645238Y-86207142D01*
X199740476Y-86183333D01*
X199811904Y-86183333D01*
X199907142Y-86207142D01*
X199954761Y-86230952D01*
X200002380Y-86278571D01*
X200026190Y-86350000D01*
X200026190Y-86469047D01*
X199526190Y-86016666D02*
X199526190Y-85683333D01*
X200026190Y-85897619D01*
G04 #@! TO.C,D5*
X187230952Y-93826190D02*
X187230952Y-93326190D01*
X187350000Y-93326190D01*
X187421428Y-93350000D01*
X187469047Y-93397619D01*
X187492857Y-93445238D01*
X187516666Y-93540476D01*
X187516666Y-93611904D01*
X187492857Y-93707142D01*
X187469047Y-93754761D01*
X187421428Y-93802380D01*
X187350000Y-93826190D01*
X187230952Y-93826190D01*
X187969047Y-93326190D02*
X187730952Y-93326190D01*
X187707142Y-93564285D01*
X187730952Y-93540476D01*
X187778571Y-93516666D01*
X187897619Y-93516666D01*
X187945238Y-93540476D01*
X187969047Y-93564285D01*
X187992857Y-93611904D01*
X187992857Y-93730952D01*
X187969047Y-93778571D01*
X187945238Y-93802380D01*
X187897619Y-93826190D01*
X187778571Y-93826190D01*
X187730952Y-93802380D01*
X187707142Y-93778571D01*
G04 #@! TO.C,D8*
X204826190Y-86569047D02*
X204326190Y-86569047D01*
X204326190Y-86450000D01*
X204350000Y-86378571D01*
X204397619Y-86330952D01*
X204445238Y-86307142D01*
X204540476Y-86283333D01*
X204611904Y-86283333D01*
X204707142Y-86307142D01*
X204754761Y-86330952D01*
X204802380Y-86378571D01*
X204826190Y-86450000D01*
X204826190Y-86569047D01*
X204540476Y-85997619D02*
X204516666Y-86045238D01*
X204492857Y-86069047D01*
X204445238Y-86092857D01*
X204421428Y-86092857D01*
X204373809Y-86069047D01*
X204350000Y-86045238D01*
X204326190Y-85997619D01*
X204326190Y-85902380D01*
X204350000Y-85854761D01*
X204373809Y-85830952D01*
X204421428Y-85807142D01*
X204445238Y-85807142D01*
X204492857Y-85830952D01*
X204516666Y-85854761D01*
X204540476Y-85902380D01*
X204540476Y-85997619D01*
X204564285Y-86045238D01*
X204588095Y-86069047D01*
X204635714Y-86092857D01*
X204730952Y-86092857D01*
X204778571Y-86069047D01*
X204802380Y-86045238D01*
X204826190Y-85997619D01*
X204826190Y-85902380D01*
X204802380Y-85854761D01*
X204778571Y-85830952D01*
X204730952Y-85807142D01*
X204635714Y-85807142D01*
X204588095Y-85830952D01*
X204564285Y-85854761D01*
X204540476Y-85902380D01*
G04 #@! TO.C,D2*
X214630952Y-88426190D02*
X214630952Y-87926190D01*
X214750000Y-87926190D01*
X214821428Y-87950000D01*
X214869047Y-87997619D01*
X214892857Y-88045238D01*
X214916666Y-88140476D01*
X214916666Y-88211904D01*
X214892857Y-88307142D01*
X214869047Y-88354761D01*
X214821428Y-88402380D01*
X214750000Y-88426190D01*
X214630952Y-88426190D01*
X215107142Y-87973809D02*
X215130952Y-87950000D01*
X215178571Y-87926190D01*
X215297619Y-87926190D01*
X215345238Y-87950000D01*
X215369047Y-87973809D01*
X215392857Y-88021428D01*
X215392857Y-88069047D01*
X215369047Y-88140476D01*
X215083333Y-88426190D01*
X215392857Y-88426190D01*
G04 #@! TO.C,D3*
X217426190Y-104169047D02*
X216926190Y-104169047D01*
X216926190Y-104050000D01*
X216950000Y-103978571D01*
X216997619Y-103930952D01*
X217045238Y-103907142D01*
X217140476Y-103883333D01*
X217211904Y-103883333D01*
X217307142Y-103907142D01*
X217354761Y-103930952D01*
X217402380Y-103978571D01*
X217426190Y-104050000D01*
X217426190Y-104169047D01*
X216926190Y-103716666D02*
X216926190Y-103407142D01*
X217116666Y-103573809D01*
X217116666Y-103502380D01*
X217140476Y-103454761D01*
X217164285Y-103430952D01*
X217211904Y-103407142D01*
X217330952Y-103407142D01*
X217378571Y-103430952D01*
X217402380Y-103454761D01*
X217426190Y-103502380D01*
X217426190Y-103645238D01*
X217402380Y-103692857D01*
X217378571Y-103716666D01*
G04 #@! TO.C,D4*
X173126190Y-95369047D02*
X172626190Y-95369047D01*
X172626190Y-95250000D01*
X172650000Y-95178571D01*
X172697619Y-95130952D01*
X172745238Y-95107142D01*
X172840476Y-95083333D01*
X172911904Y-95083333D01*
X173007142Y-95107142D01*
X173054761Y-95130952D01*
X173102380Y-95178571D01*
X173126190Y-95250000D01*
X173126190Y-95369047D01*
X172792857Y-94654761D02*
X173126190Y-94654761D01*
X172602380Y-94773809D02*
X172959523Y-94892857D01*
X172959523Y-94583333D01*
G04 #@! TO.C,U5*
X211419047Y-51626190D02*
X211419047Y-52030952D01*
X211442857Y-52078571D01*
X211466666Y-52102380D01*
X211514285Y-52126190D01*
X211609523Y-52126190D01*
X211657142Y-52102380D01*
X211680952Y-52078571D01*
X211704761Y-52030952D01*
X211704761Y-51626190D01*
X212180952Y-51626190D02*
X211942857Y-51626190D01*
X211919047Y-51864285D01*
X211942857Y-51840476D01*
X211990476Y-51816666D01*
X212109523Y-51816666D01*
X212157142Y-51840476D01*
X212180952Y-51864285D01*
X212204761Y-51911904D01*
X212204761Y-52030952D01*
X212180952Y-52078571D01*
X212157142Y-52102380D01*
X212109523Y-52126190D01*
X211990476Y-52126190D01*
X211942857Y-52102380D01*
X211919047Y-52078571D01*
G04 #@! TO.C,U1*
X208477984Y-101868571D02*
X208882746Y-101868571D01*
X208930365Y-101844761D01*
X208954174Y-101820952D01*
X208977984Y-101773333D01*
X208977984Y-101678095D01*
X208954174Y-101630476D01*
X208930365Y-101606666D01*
X208882746Y-101582857D01*
X208477984Y-101582857D01*
X208977984Y-101082857D02*
X208977984Y-101368571D01*
X208977984Y-101225714D02*
X208477984Y-101225714D01*
X208549413Y-101273333D01*
X208597032Y-101320952D01*
X208620841Y-101368571D01*
G04 #@! TO.C,Q4*
X179773809Y-99247619D02*
X179750000Y-99295238D01*
X179702380Y-99342857D01*
X179630952Y-99414285D01*
X179607142Y-99461904D01*
X179607142Y-99509523D01*
X179726190Y-99485714D02*
X179702380Y-99533333D01*
X179654761Y-99580952D01*
X179559523Y-99604761D01*
X179392857Y-99604761D01*
X179297619Y-99580952D01*
X179250000Y-99533333D01*
X179226190Y-99485714D01*
X179226190Y-99390476D01*
X179250000Y-99342857D01*
X179297619Y-99295238D01*
X179392857Y-99271428D01*
X179559523Y-99271428D01*
X179654761Y-99295238D01*
X179702380Y-99342857D01*
X179726190Y-99390476D01*
X179726190Y-99485714D01*
X179392857Y-98842857D02*
X179726190Y-98842857D01*
X179202380Y-98961904D02*
X179559523Y-99080952D01*
X179559523Y-98771428D01*
G04 #@! TO.C,Q5*
X180452380Y-102973809D02*
X180404761Y-102950000D01*
X180357142Y-102902380D01*
X180285714Y-102830952D01*
X180238095Y-102807142D01*
X180190476Y-102807142D01*
X180214285Y-102926190D02*
X180166666Y-102902380D01*
X180119047Y-102854761D01*
X180095238Y-102759523D01*
X180095238Y-102592857D01*
X180119047Y-102497619D01*
X180166666Y-102450000D01*
X180214285Y-102426190D01*
X180309523Y-102426190D01*
X180357142Y-102450000D01*
X180404761Y-102497619D01*
X180428571Y-102592857D01*
X180428571Y-102759523D01*
X180404761Y-102854761D01*
X180357142Y-102902380D01*
X180309523Y-102926190D01*
X180214285Y-102926190D01*
X180880952Y-102426190D02*
X180642857Y-102426190D01*
X180619047Y-102664285D01*
X180642857Y-102640476D01*
X180690476Y-102616666D01*
X180809523Y-102616666D01*
X180857142Y-102640476D01*
X180880952Y-102664285D01*
X180904761Y-102711904D01*
X180904761Y-102830952D01*
X180880952Y-102878571D01*
X180857142Y-102902380D01*
X180809523Y-102926190D01*
X180690476Y-102926190D01*
X180642857Y-102902380D01*
X180619047Y-102878571D01*
G04 #@! TO.C,Q3*
X182652380Y-99073809D02*
X182604761Y-99050000D01*
X182557142Y-99002380D01*
X182485714Y-98930952D01*
X182438095Y-98907142D01*
X182390476Y-98907142D01*
X182414285Y-99026190D02*
X182366666Y-99002380D01*
X182319047Y-98954761D01*
X182295238Y-98859523D01*
X182295238Y-98692857D01*
X182319047Y-98597619D01*
X182366666Y-98550000D01*
X182414285Y-98526190D01*
X182509523Y-98526190D01*
X182557142Y-98550000D01*
X182604761Y-98597619D01*
X182628571Y-98692857D01*
X182628571Y-98859523D01*
X182604761Y-98954761D01*
X182557142Y-99002380D01*
X182509523Y-99026190D01*
X182414285Y-99026190D01*
X182795238Y-98526190D02*
X183104761Y-98526190D01*
X182938095Y-98716666D01*
X183009523Y-98716666D01*
X183057142Y-98740476D01*
X183080952Y-98764285D01*
X183104761Y-98811904D01*
X183104761Y-98930952D01*
X183080952Y-98978571D01*
X183057142Y-99002380D01*
X183009523Y-99026190D01*
X182866666Y-99026190D01*
X182819047Y-99002380D01*
X182795238Y-98978571D01*
G04 #@! TO.C,Q2*
X176273809Y-95547619D02*
X176250000Y-95595238D01*
X176202380Y-95642857D01*
X176130952Y-95714285D01*
X176107142Y-95761904D01*
X176107142Y-95809523D01*
X176226190Y-95785714D02*
X176202380Y-95833333D01*
X176154761Y-95880952D01*
X176059523Y-95904761D01*
X175892857Y-95904761D01*
X175797619Y-95880952D01*
X175750000Y-95833333D01*
X175726190Y-95785714D01*
X175726190Y-95690476D01*
X175750000Y-95642857D01*
X175797619Y-95595238D01*
X175892857Y-95571428D01*
X176059523Y-95571428D01*
X176154761Y-95595238D01*
X176202380Y-95642857D01*
X176226190Y-95690476D01*
X176226190Y-95785714D01*
X175773809Y-95380952D02*
X175750000Y-95357142D01*
X175726190Y-95309523D01*
X175726190Y-95190476D01*
X175750000Y-95142857D01*
X175773809Y-95119047D01*
X175821428Y-95095238D01*
X175869047Y-95095238D01*
X175940476Y-95119047D01*
X176226190Y-95404761D01*
X176226190Y-95095238D01*
G04 #@! TO.C,Q1*
X217252380Y-93573809D02*
X217204761Y-93550000D01*
X217157142Y-93502380D01*
X217085714Y-93430952D01*
X217038095Y-93407142D01*
X216990476Y-93407142D01*
X217014285Y-93526190D02*
X216966666Y-93502380D01*
X216919047Y-93454761D01*
X216895238Y-93359523D01*
X216895238Y-93192857D01*
X216919047Y-93097619D01*
X216966666Y-93050000D01*
X217014285Y-93026190D01*
X217109523Y-93026190D01*
X217157142Y-93050000D01*
X217204761Y-93097619D01*
X217228571Y-93192857D01*
X217228571Y-93359523D01*
X217204761Y-93454761D01*
X217157142Y-93502380D01*
X217109523Y-93526190D01*
X217014285Y-93526190D01*
X217704761Y-93526190D02*
X217419047Y-93526190D01*
X217561904Y-93526190D02*
X217561904Y-93026190D01*
X217514285Y-93097619D01*
X217466666Y-93145238D01*
X217419047Y-93169047D01*
G04 #@! TO.C,Q7*
X179773809Y-106347619D02*
X179750000Y-106395238D01*
X179702380Y-106442857D01*
X179630952Y-106514285D01*
X179607142Y-106561904D01*
X179607142Y-106609523D01*
X179726190Y-106585714D02*
X179702380Y-106633333D01*
X179654761Y-106680952D01*
X179559523Y-106704761D01*
X179392857Y-106704761D01*
X179297619Y-106680952D01*
X179250000Y-106633333D01*
X179226190Y-106585714D01*
X179226190Y-106490476D01*
X179250000Y-106442857D01*
X179297619Y-106395238D01*
X179392857Y-106371428D01*
X179559523Y-106371428D01*
X179654761Y-106395238D01*
X179702380Y-106442857D01*
X179726190Y-106490476D01*
X179726190Y-106585714D01*
X179226190Y-106204761D02*
X179226190Y-105871428D01*
X179726190Y-106085714D01*
G04 #@! TO.C,Q8*
X202352380Y-74173809D02*
X202304761Y-74150000D01*
X202257142Y-74102380D01*
X202185714Y-74030952D01*
X202138095Y-74007142D01*
X202090476Y-74007142D01*
X202114285Y-74126190D02*
X202066666Y-74102380D01*
X202019047Y-74054761D01*
X201995238Y-73959523D01*
X201995238Y-73792857D01*
X202019047Y-73697619D01*
X202066666Y-73650000D01*
X202114285Y-73626190D01*
X202209523Y-73626190D01*
X202257142Y-73650000D01*
X202304761Y-73697619D01*
X202328571Y-73792857D01*
X202328571Y-73959523D01*
X202304761Y-74054761D01*
X202257142Y-74102380D01*
X202209523Y-74126190D01*
X202114285Y-74126190D01*
X202614285Y-73840476D02*
X202566666Y-73816666D01*
X202542857Y-73792857D01*
X202519047Y-73745238D01*
X202519047Y-73721428D01*
X202542857Y-73673809D01*
X202566666Y-73650000D01*
X202614285Y-73626190D01*
X202709523Y-73626190D01*
X202757142Y-73650000D01*
X202780952Y-73673809D01*
X202804761Y-73721428D01*
X202804761Y-73745238D01*
X202780952Y-73792857D01*
X202757142Y-73816666D01*
X202709523Y-73840476D01*
X202614285Y-73840476D01*
X202566666Y-73864285D01*
X202542857Y-73888095D01*
X202519047Y-73935714D01*
X202519047Y-74030952D01*
X202542857Y-74078571D01*
X202566666Y-74102380D01*
X202614285Y-74126190D01*
X202709523Y-74126190D01*
X202757142Y-74102380D01*
X202780952Y-74078571D01*
X202804761Y-74030952D01*
X202804761Y-73935714D01*
X202780952Y-73888095D01*
X202757142Y-73864285D01*
X202709523Y-73840476D01*
G04 #@! TO.C,Q9*
X174352380Y-60873809D02*
X174304761Y-60850000D01*
X174257142Y-60802380D01*
X174185714Y-60730952D01*
X174138095Y-60707142D01*
X174090476Y-60707142D01*
X174114285Y-60826190D02*
X174066666Y-60802380D01*
X174019047Y-60754761D01*
X173995238Y-60659523D01*
X173995238Y-60492857D01*
X174019047Y-60397619D01*
X174066666Y-60350000D01*
X174114285Y-60326190D01*
X174209523Y-60326190D01*
X174257142Y-60350000D01*
X174304761Y-60397619D01*
X174328571Y-60492857D01*
X174328571Y-60659523D01*
X174304761Y-60754761D01*
X174257142Y-60802380D01*
X174209523Y-60826190D01*
X174114285Y-60826190D01*
X174566666Y-60826190D02*
X174661904Y-60826190D01*
X174709523Y-60802380D01*
X174733333Y-60778571D01*
X174780952Y-60707142D01*
X174804761Y-60611904D01*
X174804761Y-60421428D01*
X174780952Y-60373809D01*
X174757142Y-60350000D01*
X174709523Y-60326190D01*
X174614285Y-60326190D01*
X174566666Y-60350000D01*
X174542857Y-60373809D01*
X174519047Y-60421428D01*
X174519047Y-60540476D01*
X174542857Y-60588095D01*
X174566666Y-60611904D01*
X174614285Y-60635714D01*
X174709523Y-60635714D01*
X174757142Y-60611904D01*
X174780952Y-60588095D01*
X174804761Y-60540476D01*
G04 #@! TO.C,Q10*
X212714285Y-67973809D02*
X212666666Y-67950000D01*
X212619047Y-67902380D01*
X212547619Y-67830952D01*
X212500000Y-67807142D01*
X212452380Y-67807142D01*
X212476190Y-67926190D02*
X212428571Y-67902380D01*
X212380952Y-67854761D01*
X212357142Y-67759523D01*
X212357142Y-67592857D01*
X212380952Y-67497619D01*
X212428571Y-67450000D01*
X212476190Y-67426190D01*
X212571428Y-67426190D01*
X212619047Y-67450000D01*
X212666666Y-67497619D01*
X212690476Y-67592857D01*
X212690476Y-67759523D01*
X212666666Y-67854761D01*
X212619047Y-67902380D01*
X212571428Y-67926190D01*
X212476190Y-67926190D01*
X213166666Y-67926190D02*
X212880952Y-67926190D01*
X213023809Y-67926190D02*
X213023809Y-67426190D01*
X212976190Y-67497619D01*
X212928571Y-67545238D01*
X212880952Y-67569047D01*
X213476190Y-67426190D02*
X213523809Y-67426190D01*
X213571428Y-67450000D01*
X213595238Y-67473809D01*
X213619047Y-67521428D01*
X213642857Y-67616666D01*
X213642857Y-67735714D01*
X213619047Y-67830952D01*
X213595238Y-67878571D01*
X213571428Y-67902380D01*
X213523809Y-67926190D01*
X213476190Y-67926190D01*
X213428571Y-67902380D01*
X213404761Y-67878571D01*
X213380952Y-67830952D01*
X213357142Y-67735714D01*
X213357142Y-67616666D01*
X213380952Y-67521428D01*
X213404761Y-67473809D01*
X213428571Y-67450000D01*
X213476190Y-67426190D01*
G04 #@! TO.C,Q11*
X179873809Y-62785714D02*
X179850000Y-62833333D01*
X179802380Y-62880952D01*
X179730952Y-62952380D01*
X179707142Y-63000000D01*
X179707142Y-63047619D01*
X179826190Y-63023809D02*
X179802380Y-63071428D01*
X179754761Y-63119047D01*
X179659523Y-63142857D01*
X179492857Y-63142857D01*
X179397619Y-63119047D01*
X179350000Y-63071428D01*
X179326190Y-63023809D01*
X179326190Y-62928571D01*
X179350000Y-62880952D01*
X179397619Y-62833333D01*
X179492857Y-62809523D01*
X179659523Y-62809523D01*
X179754761Y-62833333D01*
X179802380Y-62880952D01*
X179826190Y-62928571D01*
X179826190Y-63023809D01*
X179826190Y-62333333D02*
X179826190Y-62619047D01*
X179826190Y-62476190D02*
X179326190Y-62476190D01*
X179397619Y-62523809D01*
X179445238Y-62571428D01*
X179469047Y-62619047D01*
X179826190Y-61857142D02*
X179826190Y-62142857D01*
X179826190Y-62000000D02*
X179326190Y-62000000D01*
X179397619Y-62047619D01*
X179445238Y-62095238D01*
X179469047Y-62142857D01*
G04 #@! TO.C,Q12*
X212714285Y-62573809D02*
X212666666Y-62550000D01*
X212619047Y-62502380D01*
X212547619Y-62430952D01*
X212500000Y-62407142D01*
X212452380Y-62407142D01*
X212476190Y-62526190D02*
X212428571Y-62502380D01*
X212380952Y-62454761D01*
X212357142Y-62359523D01*
X212357142Y-62192857D01*
X212380952Y-62097619D01*
X212428571Y-62050000D01*
X212476190Y-62026190D01*
X212571428Y-62026190D01*
X212619047Y-62050000D01*
X212666666Y-62097619D01*
X212690476Y-62192857D01*
X212690476Y-62359523D01*
X212666666Y-62454761D01*
X212619047Y-62502380D01*
X212571428Y-62526190D01*
X212476190Y-62526190D01*
X213166666Y-62526190D02*
X212880952Y-62526190D01*
X213023809Y-62526190D02*
X213023809Y-62026190D01*
X212976190Y-62097619D01*
X212928571Y-62145238D01*
X212880952Y-62169047D01*
X213357142Y-62073809D02*
X213380952Y-62050000D01*
X213428571Y-62026190D01*
X213547619Y-62026190D01*
X213595238Y-62050000D01*
X213619047Y-62073809D01*
X213642857Y-62121428D01*
X213642857Y-62169047D01*
X213619047Y-62240476D01*
X213333333Y-62526190D01*
X213642857Y-62526190D01*
G04 #@! TO.C,Q6*
X179773809Y-102847619D02*
X179750000Y-102895238D01*
X179702380Y-102942857D01*
X179630952Y-103014285D01*
X179607142Y-103061904D01*
X179607142Y-103109523D01*
X179726190Y-103085714D02*
X179702380Y-103133333D01*
X179654761Y-103180952D01*
X179559523Y-103204761D01*
X179392857Y-103204761D01*
X179297619Y-103180952D01*
X179250000Y-103133333D01*
X179226190Y-103085714D01*
X179226190Y-102990476D01*
X179250000Y-102942857D01*
X179297619Y-102895238D01*
X179392857Y-102871428D01*
X179559523Y-102871428D01*
X179654761Y-102895238D01*
X179702380Y-102942857D01*
X179726190Y-102990476D01*
X179726190Y-103085714D01*
X179226190Y-102442857D02*
X179226190Y-102538095D01*
X179250000Y-102585714D01*
X179273809Y-102609523D01*
X179345238Y-102657142D01*
X179440476Y-102680952D01*
X179630952Y-102680952D01*
X179678571Y-102657142D01*
X179702380Y-102633333D01*
X179726190Y-102585714D01*
X179726190Y-102490476D01*
X179702380Y-102442857D01*
X179678571Y-102419047D01*
X179630952Y-102395238D01*
X179511904Y-102395238D01*
X179464285Y-102419047D01*
X179440476Y-102442857D01*
X179416666Y-102490476D01*
X179416666Y-102585714D01*
X179440476Y-102633333D01*
X179464285Y-102657142D01*
X179511904Y-102680952D01*
G04 #@! TO.C,R6*
X211116666Y-108126190D02*
X210950000Y-107888095D01*
X210830952Y-108126190D02*
X210830952Y-107626190D01*
X211021428Y-107626190D01*
X211069047Y-107650000D01*
X211092857Y-107673809D01*
X211116666Y-107721428D01*
X211116666Y-107792857D01*
X211092857Y-107840476D01*
X211069047Y-107864285D01*
X211021428Y-107888095D01*
X210830952Y-107888095D01*
X211545238Y-107626190D02*
X211450000Y-107626190D01*
X211402380Y-107650000D01*
X211378571Y-107673809D01*
X211330952Y-107745238D01*
X211307142Y-107840476D01*
X211307142Y-108030952D01*
X211330952Y-108078571D01*
X211354761Y-108102380D01*
X211402380Y-108126190D01*
X211497619Y-108126190D01*
X211545238Y-108102380D01*
X211569047Y-108078571D01*
X211592857Y-108030952D01*
X211592857Y-107911904D01*
X211569047Y-107864285D01*
X211545238Y-107840476D01*
X211497619Y-107816666D01*
X211402380Y-107816666D01*
X211354761Y-107840476D01*
X211330952Y-107864285D01*
X211307142Y-107911904D01*
G04 #@! TO.C,R10*
X176126190Y-97721428D02*
X175888095Y-97888095D01*
X176126190Y-98007142D02*
X175626190Y-98007142D01*
X175626190Y-97816666D01*
X175650000Y-97769047D01*
X175673809Y-97745238D01*
X175721428Y-97721428D01*
X175792857Y-97721428D01*
X175840476Y-97745238D01*
X175864285Y-97769047D01*
X175888095Y-97816666D01*
X175888095Y-98007142D01*
X176126190Y-97245238D02*
X176126190Y-97530952D01*
X176126190Y-97388095D02*
X175626190Y-97388095D01*
X175697619Y-97435714D01*
X175745238Y-97483333D01*
X175769047Y-97530952D01*
X175626190Y-96935714D02*
X175626190Y-96888095D01*
X175650000Y-96840476D01*
X175673809Y-96816666D01*
X175721428Y-96792857D01*
X175816666Y-96769047D01*
X175935714Y-96769047D01*
X176030952Y-96792857D01*
X176078571Y-96816666D01*
X176102380Y-96840476D01*
X176126190Y-96888095D01*
X176126190Y-96935714D01*
X176102380Y-96983333D01*
X176078571Y-97007142D01*
X176030952Y-97030952D01*
X175935714Y-97054761D01*
X175816666Y-97054761D01*
X175721428Y-97030952D01*
X175673809Y-97007142D01*
X175650000Y-96983333D01*
X175626190Y-96935714D01*
G04 #@! TO.C,R9*
X175716666Y-98826190D02*
X175550000Y-98588095D01*
X175430952Y-98826190D02*
X175430952Y-98326190D01*
X175621428Y-98326190D01*
X175669047Y-98350000D01*
X175692857Y-98373809D01*
X175716666Y-98421428D01*
X175716666Y-98492857D01*
X175692857Y-98540476D01*
X175669047Y-98564285D01*
X175621428Y-98588095D01*
X175430952Y-98588095D01*
X175954761Y-98826190D02*
X176050000Y-98826190D01*
X176097619Y-98802380D01*
X176121428Y-98778571D01*
X176169047Y-98707142D01*
X176192857Y-98611904D01*
X176192857Y-98421428D01*
X176169047Y-98373809D01*
X176145238Y-98350000D01*
X176097619Y-98326190D01*
X176002380Y-98326190D01*
X175954761Y-98350000D01*
X175930952Y-98373809D01*
X175907142Y-98421428D01*
X175907142Y-98540476D01*
X175930952Y-98588095D01*
X175954761Y-98611904D01*
X176002380Y-98635714D01*
X176097619Y-98635714D01*
X176145238Y-98611904D01*
X176169047Y-98588095D01*
X176192857Y-98540476D01*
G04 #@! TO.C,R8*
X173326190Y-98883333D02*
X173088095Y-99050000D01*
X173326190Y-99169047D02*
X172826190Y-99169047D01*
X172826190Y-98978571D01*
X172850000Y-98930952D01*
X172873809Y-98907142D01*
X172921428Y-98883333D01*
X172992857Y-98883333D01*
X173040476Y-98907142D01*
X173064285Y-98930952D01*
X173088095Y-98978571D01*
X173088095Y-99169047D01*
X173040476Y-98597619D02*
X173016666Y-98645238D01*
X172992857Y-98669047D01*
X172945238Y-98692857D01*
X172921428Y-98692857D01*
X172873809Y-98669047D01*
X172850000Y-98645238D01*
X172826190Y-98597619D01*
X172826190Y-98502380D01*
X172850000Y-98454761D01*
X172873809Y-98430952D01*
X172921428Y-98407142D01*
X172945238Y-98407142D01*
X172992857Y-98430952D01*
X173016666Y-98454761D01*
X173040476Y-98502380D01*
X173040476Y-98597619D01*
X173064285Y-98645238D01*
X173088095Y-98669047D01*
X173135714Y-98692857D01*
X173230952Y-98692857D01*
X173278571Y-98669047D01*
X173302380Y-98645238D01*
X173326190Y-98597619D01*
X173326190Y-98502380D01*
X173302380Y-98454761D01*
X173278571Y-98430952D01*
X173230952Y-98407142D01*
X173135714Y-98407142D01*
X173088095Y-98430952D01*
X173064285Y-98454761D01*
X173040476Y-98502380D01*
G04 #@! TO.C,R7*
X191326190Y-73283333D02*
X191088095Y-73450000D01*
X191326190Y-73569047D02*
X190826190Y-73569047D01*
X190826190Y-73378571D01*
X190850000Y-73330952D01*
X190873809Y-73307142D01*
X190921428Y-73283333D01*
X190992857Y-73283333D01*
X191040476Y-73307142D01*
X191064285Y-73330952D01*
X191088095Y-73378571D01*
X191088095Y-73569047D01*
X190826190Y-73116666D02*
X190826190Y-72783333D01*
X191326190Y-72997619D01*
G04 #@! TO.C,R12*
X182356190Y-101008928D02*
X182118095Y-101175595D01*
X182356190Y-101294642D02*
X181856190Y-101294642D01*
X181856190Y-101104166D01*
X181880000Y-101056547D01*
X181903809Y-101032738D01*
X181951428Y-101008928D01*
X182022857Y-101008928D01*
X182070476Y-101032738D01*
X182094285Y-101056547D01*
X182118095Y-101104166D01*
X182118095Y-101294642D01*
X182356190Y-100532738D02*
X182356190Y-100818452D01*
X182356190Y-100675595D02*
X181856190Y-100675595D01*
X181927619Y-100723214D01*
X181975238Y-100770833D01*
X181999047Y-100818452D01*
X181903809Y-100342261D02*
X181880000Y-100318452D01*
X181856190Y-100270833D01*
X181856190Y-100151785D01*
X181880000Y-100104166D01*
X181903809Y-100080357D01*
X181951428Y-100056547D01*
X181999047Y-100056547D01*
X182070476Y-100080357D01*
X182356190Y-100366071D01*
X182356190Y-100056547D01*
G04 #@! TO.C,R5*
X217226190Y-92283333D02*
X216988095Y-92450000D01*
X217226190Y-92569047D02*
X216726190Y-92569047D01*
X216726190Y-92378571D01*
X216750000Y-92330952D01*
X216773809Y-92307142D01*
X216821428Y-92283333D01*
X216892857Y-92283333D01*
X216940476Y-92307142D01*
X216964285Y-92330952D01*
X216988095Y-92378571D01*
X216988095Y-92569047D01*
X216726190Y-91830952D02*
X216726190Y-92069047D01*
X216964285Y-92092857D01*
X216940476Y-92069047D01*
X216916666Y-92021428D01*
X216916666Y-91902380D01*
X216940476Y-91854761D01*
X216964285Y-91830952D01*
X217011904Y-91807142D01*
X217130952Y-91807142D01*
X217178571Y-91830952D01*
X217202380Y-91854761D01*
X217226190Y-91902380D01*
X217226190Y-92021428D01*
X217202380Y-92069047D01*
X217178571Y-92092857D01*
G04 #@! TO.C,R4*
X201016666Y-98126190D02*
X200850000Y-97888095D01*
X200730952Y-98126190D02*
X200730952Y-97626190D01*
X200921428Y-97626190D01*
X200969047Y-97650000D01*
X200992857Y-97673809D01*
X201016666Y-97721428D01*
X201016666Y-97792857D01*
X200992857Y-97840476D01*
X200969047Y-97864285D01*
X200921428Y-97888095D01*
X200730952Y-97888095D01*
X201445238Y-97792857D02*
X201445238Y-98126190D01*
X201326190Y-97602380D02*
X201207142Y-97959523D01*
X201516666Y-97959523D01*
G04 #@! TO.C,R3*
X217026190Y-107070952D02*
X216788095Y-107237619D01*
X217026190Y-107356666D02*
X216526190Y-107356666D01*
X216526190Y-107166190D01*
X216550000Y-107118571D01*
X216573809Y-107094761D01*
X216621428Y-107070952D01*
X216692857Y-107070952D01*
X216740476Y-107094761D01*
X216764285Y-107118571D01*
X216788095Y-107166190D01*
X216788095Y-107356666D01*
X216526190Y-106904285D02*
X216526190Y-106594761D01*
X216716666Y-106761428D01*
X216716666Y-106689999D01*
X216740476Y-106642380D01*
X216764285Y-106618571D01*
X216811904Y-106594761D01*
X216930952Y-106594761D01*
X216978571Y-106618571D01*
X217002380Y-106642380D01*
X217026190Y-106689999D01*
X217026190Y-106832857D01*
X217002380Y-106880476D01*
X216978571Y-106904285D01*
G04 #@! TO.C,R24*
X210278571Y-68126190D02*
X210111904Y-67888095D01*
X209992857Y-68126190D02*
X209992857Y-67626190D01*
X210183333Y-67626190D01*
X210230952Y-67650000D01*
X210254761Y-67673809D01*
X210278571Y-67721428D01*
X210278571Y-67792857D01*
X210254761Y-67840476D01*
X210230952Y-67864285D01*
X210183333Y-67888095D01*
X209992857Y-67888095D01*
X210469047Y-67673809D02*
X210492857Y-67650000D01*
X210540476Y-67626190D01*
X210659523Y-67626190D01*
X210707142Y-67650000D01*
X210730952Y-67673809D01*
X210754761Y-67721428D01*
X210754761Y-67769047D01*
X210730952Y-67840476D01*
X210445238Y-68126190D01*
X210754761Y-68126190D01*
X211183333Y-67792857D02*
X211183333Y-68126190D01*
X211064285Y-67602380D02*
X210945238Y-67959523D01*
X211254761Y-67959523D01*
G04 #@! TO.C,R2*
X211116666Y-108926190D02*
X210950000Y-108688095D01*
X210830952Y-108926190D02*
X210830952Y-108426190D01*
X211021428Y-108426190D01*
X211069047Y-108450000D01*
X211092857Y-108473809D01*
X211116666Y-108521428D01*
X211116666Y-108592857D01*
X211092857Y-108640476D01*
X211069047Y-108664285D01*
X211021428Y-108688095D01*
X210830952Y-108688095D01*
X211307142Y-108473809D02*
X211330952Y-108450000D01*
X211378571Y-108426190D01*
X211497619Y-108426190D01*
X211545238Y-108450000D01*
X211569047Y-108473809D01*
X211592857Y-108521428D01*
X211592857Y-108569047D01*
X211569047Y-108640476D01*
X211283333Y-108926190D01*
X211592857Y-108926190D01*
G04 #@! TO.C,R1*
X213326190Y-92283333D02*
X213088095Y-92450000D01*
X213326190Y-92569047D02*
X212826190Y-92569047D01*
X212826190Y-92378571D01*
X212850000Y-92330952D01*
X212873809Y-92307142D01*
X212921428Y-92283333D01*
X212992857Y-92283333D01*
X213040476Y-92307142D01*
X213064285Y-92330952D01*
X213088095Y-92378571D01*
X213088095Y-92569047D01*
X213326190Y-91807142D02*
X213326190Y-92092857D01*
X213326190Y-91950000D02*
X212826190Y-91950000D01*
X212897619Y-91997619D01*
X212945238Y-92045238D01*
X212969047Y-92092857D01*
G04 #@! TO.C,R11*
X181378571Y-94226190D02*
X181211904Y-93988095D01*
X181092857Y-94226190D02*
X181092857Y-93726190D01*
X181283333Y-93726190D01*
X181330952Y-93750000D01*
X181354761Y-93773809D01*
X181378571Y-93821428D01*
X181378571Y-93892857D01*
X181354761Y-93940476D01*
X181330952Y-93964285D01*
X181283333Y-93988095D01*
X181092857Y-93988095D01*
X181854761Y-94226190D02*
X181569047Y-94226190D01*
X181711904Y-94226190D02*
X181711904Y-93726190D01*
X181664285Y-93797619D01*
X181616666Y-93845238D01*
X181569047Y-93869047D01*
X182330952Y-94226190D02*
X182045238Y-94226190D01*
X182188095Y-94226190D02*
X182188095Y-93726190D01*
X182140476Y-93797619D01*
X182092857Y-93845238D01*
X182045238Y-93869047D01*
G04 #@! TO.C,R13*
X185478571Y-94026190D02*
X185311904Y-93788095D01*
X185192857Y-94026190D02*
X185192857Y-93526190D01*
X185383333Y-93526190D01*
X185430952Y-93550000D01*
X185454761Y-93573809D01*
X185478571Y-93621428D01*
X185478571Y-93692857D01*
X185454761Y-93740476D01*
X185430952Y-93764285D01*
X185383333Y-93788095D01*
X185192857Y-93788095D01*
X185954761Y-94026190D02*
X185669047Y-94026190D01*
X185811904Y-94026190D02*
X185811904Y-93526190D01*
X185764285Y-93597619D01*
X185716666Y-93645238D01*
X185669047Y-93669047D01*
X186121428Y-93526190D02*
X186430952Y-93526190D01*
X186264285Y-93716666D01*
X186335714Y-93716666D01*
X186383333Y-93740476D01*
X186407142Y-93764285D01*
X186430952Y-93811904D01*
X186430952Y-93930952D01*
X186407142Y-93978571D01*
X186383333Y-94002380D01*
X186335714Y-94026190D01*
X186192857Y-94026190D01*
X186145238Y-94002380D01*
X186121428Y-93978571D01*
G04 #@! TO.C,R15*
X175478571Y-109526190D02*
X175311904Y-109288095D01*
X175192857Y-109526190D02*
X175192857Y-109026190D01*
X175383333Y-109026190D01*
X175430952Y-109050000D01*
X175454761Y-109073809D01*
X175478571Y-109121428D01*
X175478571Y-109192857D01*
X175454761Y-109240476D01*
X175430952Y-109264285D01*
X175383333Y-109288095D01*
X175192857Y-109288095D01*
X175954761Y-109526190D02*
X175669047Y-109526190D01*
X175811904Y-109526190D02*
X175811904Y-109026190D01*
X175764285Y-109097619D01*
X175716666Y-109145238D01*
X175669047Y-109169047D01*
X176407142Y-109026190D02*
X176169047Y-109026190D01*
X176145238Y-109264285D01*
X176169047Y-109240476D01*
X176216666Y-109216666D01*
X176335714Y-109216666D01*
X176383333Y-109240476D01*
X176407142Y-109264285D01*
X176430952Y-109311904D01*
X176430952Y-109430952D01*
X176407142Y-109478571D01*
X176383333Y-109502380D01*
X176335714Y-109526190D01*
X176216666Y-109526190D01*
X176169047Y-109502380D01*
X176145238Y-109478571D01*
G04 #@! TO.C,R22*
X219678571Y-53726190D02*
X219511904Y-53488095D01*
X219392857Y-53726190D02*
X219392857Y-53226190D01*
X219583333Y-53226190D01*
X219630952Y-53250000D01*
X219654761Y-53273809D01*
X219678571Y-53321428D01*
X219678571Y-53392857D01*
X219654761Y-53440476D01*
X219630952Y-53464285D01*
X219583333Y-53488095D01*
X219392857Y-53488095D01*
X219869047Y-53273809D02*
X219892857Y-53250000D01*
X219940476Y-53226190D01*
X220059523Y-53226190D01*
X220107142Y-53250000D01*
X220130952Y-53273809D01*
X220154761Y-53321428D01*
X220154761Y-53369047D01*
X220130952Y-53440476D01*
X219845238Y-53726190D01*
X220154761Y-53726190D01*
X220345238Y-53273809D02*
X220369047Y-53250000D01*
X220416666Y-53226190D01*
X220535714Y-53226190D01*
X220583333Y-53250000D01*
X220607142Y-53273809D01*
X220630952Y-53321428D01*
X220630952Y-53369047D01*
X220607142Y-53440476D01*
X220321428Y-53726190D01*
X220630952Y-53726190D01*
G04 #@! TO.C,R14*
X181378571Y-105096190D02*
X181211904Y-104858095D01*
X181092857Y-105096190D02*
X181092857Y-104596190D01*
X181283333Y-104596190D01*
X181330952Y-104620000D01*
X181354761Y-104643809D01*
X181378571Y-104691428D01*
X181378571Y-104762857D01*
X181354761Y-104810476D01*
X181330952Y-104834285D01*
X181283333Y-104858095D01*
X181092857Y-104858095D01*
X181854761Y-105096190D02*
X181569047Y-105096190D01*
X181711904Y-105096190D02*
X181711904Y-104596190D01*
X181664285Y-104667619D01*
X181616666Y-104715238D01*
X181569047Y-104739047D01*
X182283333Y-104762857D02*
X182283333Y-105096190D01*
X182164285Y-104572380D02*
X182045238Y-104929523D01*
X182354761Y-104929523D01*
G04 #@! TO.C,R20*
X204326190Y-78821428D02*
X204088095Y-78988095D01*
X204326190Y-79107142D02*
X203826190Y-79107142D01*
X203826190Y-78916666D01*
X203850000Y-78869047D01*
X203873809Y-78845238D01*
X203921428Y-78821428D01*
X203992857Y-78821428D01*
X204040476Y-78845238D01*
X204064285Y-78869047D01*
X204088095Y-78916666D01*
X204088095Y-79107142D01*
X203873809Y-78630952D02*
X203850000Y-78607142D01*
X203826190Y-78559523D01*
X203826190Y-78440476D01*
X203850000Y-78392857D01*
X203873809Y-78369047D01*
X203921428Y-78345238D01*
X203969047Y-78345238D01*
X204040476Y-78369047D01*
X204326190Y-78654761D01*
X204326190Y-78345238D01*
X203826190Y-78035714D02*
X203826190Y-77988095D01*
X203850000Y-77940476D01*
X203873809Y-77916666D01*
X203921428Y-77892857D01*
X204016666Y-77869047D01*
X204135714Y-77869047D01*
X204230952Y-77892857D01*
X204278571Y-77916666D01*
X204302380Y-77940476D01*
X204326190Y-77988095D01*
X204326190Y-78035714D01*
X204302380Y-78083333D01*
X204278571Y-78107142D01*
X204230952Y-78130952D01*
X204135714Y-78154761D01*
X204016666Y-78154761D01*
X203921428Y-78130952D01*
X203873809Y-78107142D01*
X203850000Y-78083333D01*
X203826190Y-78035714D01*
G04 #@! TO.C,R26*
X210278571Y-62826190D02*
X210111904Y-62588095D01*
X209992857Y-62826190D02*
X209992857Y-62326190D01*
X210183333Y-62326190D01*
X210230952Y-62350000D01*
X210254761Y-62373809D01*
X210278571Y-62421428D01*
X210278571Y-62492857D01*
X210254761Y-62540476D01*
X210230952Y-62564285D01*
X210183333Y-62588095D01*
X209992857Y-62588095D01*
X210469047Y-62373809D02*
X210492857Y-62350000D01*
X210540476Y-62326190D01*
X210659523Y-62326190D01*
X210707142Y-62350000D01*
X210730952Y-62373809D01*
X210754761Y-62421428D01*
X210754761Y-62469047D01*
X210730952Y-62540476D01*
X210445238Y-62826190D01*
X210754761Y-62826190D01*
X211183333Y-62326190D02*
X211088095Y-62326190D01*
X211040476Y-62350000D01*
X211016666Y-62373809D01*
X210969047Y-62445238D01*
X210945238Y-62540476D01*
X210945238Y-62730952D01*
X210969047Y-62778571D01*
X210992857Y-62802380D01*
X211040476Y-62826190D01*
X211135714Y-62826190D01*
X211183333Y-62802380D01*
X211207142Y-62778571D01*
X211230952Y-62730952D01*
X211230952Y-62611904D01*
X211207142Y-62564285D01*
X211183333Y-62540476D01*
X211135714Y-62516666D01*
X211040476Y-62516666D01*
X210992857Y-62540476D01*
X210969047Y-62564285D01*
X210945238Y-62611904D01*
G04 #@! TO.C,R19*
X202678571Y-80326190D02*
X202511904Y-80088095D01*
X202392857Y-80326190D02*
X202392857Y-79826190D01*
X202583333Y-79826190D01*
X202630952Y-79850000D01*
X202654761Y-79873809D01*
X202678571Y-79921428D01*
X202678571Y-79992857D01*
X202654761Y-80040476D01*
X202630952Y-80064285D01*
X202583333Y-80088095D01*
X202392857Y-80088095D01*
X203154761Y-80326190D02*
X202869047Y-80326190D01*
X203011904Y-80326190D02*
X203011904Y-79826190D01*
X202964285Y-79897619D01*
X202916666Y-79945238D01*
X202869047Y-79969047D01*
X203392857Y-80326190D02*
X203488095Y-80326190D01*
X203535714Y-80302380D01*
X203559523Y-80278571D01*
X203607142Y-80207142D01*
X203630952Y-80111904D01*
X203630952Y-79921428D01*
X203607142Y-79873809D01*
X203583333Y-79850000D01*
X203535714Y-79826190D01*
X203440476Y-79826190D01*
X203392857Y-79850000D01*
X203369047Y-79873809D01*
X203345238Y-79921428D01*
X203345238Y-80040476D01*
X203369047Y-80088095D01*
X203392857Y-80111904D01*
X203440476Y-80135714D01*
X203535714Y-80135714D01*
X203583333Y-80111904D01*
X203607142Y-80088095D01*
X203630952Y-80040476D01*
G04 #@! TO.C,R18*
X201078571Y-80326190D02*
X200911904Y-80088095D01*
X200792857Y-80326190D02*
X200792857Y-79826190D01*
X200983333Y-79826190D01*
X201030952Y-79850000D01*
X201054761Y-79873809D01*
X201078571Y-79921428D01*
X201078571Y-79992857D01*
X201054761Y-80040476D01*
X201030952Y-80064285D01*
X200983333Y-80088095D01*
X200792857Y-80088095D01*
X201554761Y-80326190D02*
X201269047Y-80326190D01*
X201411904Y-80326190D02*
X201411904Y-79826190D01*
X201364285Y-79897619D01*
X201316666Y-79945238D01*
X201269047Y-79969047D01*
X201840476Y-80040476D02*
X201792857Y-80016666D01*
X201769047Y-79992857D01*
X201745238Y-79945238D01*
X201745238Y-79921428D01*
X201769047Y-79873809D01*
X201792857Y-79850000D01*
X201840476Y-79826190D01*
X201935714Y-79826190D01*
X201983333Y-79850000D01*
X202007142Y-79873809D01*
X202030952Y-79921428D01*
X202030952Y-79945238D01*
X202007142Y-79992857D01*
X201983333Y-80016666D01*
X201935714Y-80040476D01*
X201840476Y-80040476D01*
X201792857Y-80064285D01*
X201769047Y-80088095D01*
X201745238Y-80135714D01*
X201745238Y-80230952D01*
X201769047Y-80278571D01*
X201792857Y-80302380D01*
X201840476Y-80326190D01*
X201935714Y-80326190D01*
X201983333Y-80302380D01*
X202007142Y-80278571D01*
X202030952Y-80230952D01*
X202030952Y-80135714D01*
X202007142Y-80088095D01*
X201983333Y-80064285D01*
X201935714Y-80040476D01*
G04 #@! TO.C,R17*
X174926190Y-102221428D02*
X174688095Y-102388095D01*
X174926190Y-102507142D02*
X174426190Y-102507142D01*
X174426190Y-102316666D01*
X174450000Y-102269047D01*
X174473809Y-102245238D01*
X174521428Y-102221428D01*
X174592857Y-102221428D01*
X174640476Y-102245238D01*
X174664285Y-102269047D01*
X174688095Y-102316666D01*
X174688095Y-102507142D01*
X174926190Y-101745238D02*
X174926190Y-102030952D01*
X174926190Y-101888095D02*
X174426190Y-101888095D01*
X174497619Y-101935714D01*
X174545238Y-101983333D01*
X174569047Y-102030952D01*
X174426190Y-101578571D02*
X174426190Y-101245238D01*
X174926190Y-101459523D01*
G04 #@! TO.C,R16*
X173026190Y-104421428D02*
X172788095Y-104588095D01*
X173026190Y-104707142D02*
X172526190Y-104707142D01*
X172526190Y-104516666D01*
X172550000Y-104469047D01*
X172573809Y-104445238D01*
X172621428Y-104421428D01*
X172692857Y-104421428D01*
X172740476Y-104445238D01*
X172764285Y-104469047D01*
X172788095Y-104516666D01*
X172788095Y-104707142D01*
X173026190Y-103945238D02*
X173026190Y-104230952D01*
X173026190Y-104088095D02*
X172526190Y-104088095D01*
X172597619Y-104135714D01*
X172645238Y-104183333D01*
X172669047Y-104230952D01*
X172526190Y-103516666D02*
X172526190Y-103611904D01*
X172550000Y-103659523D01*
X172573809Y-103683333D01*
X172645238Y-103730952D01*
X172740476Y-103754761D01*
X172930952Y-103754761D01*
X172978571Y-103730952D01*
X173002380Y-103707142D01*
X173026190Y-103659523D01*
X173026190Y-103564285D01*
X173002380Y-103516666D01*
X172978571Y-103492857D01*
X172930952Y-103469047D01*
X172811904Y-103469047D01*
X172764285Y-103492857D01*
X172740476Y-103516666D01*
X172716666Y-103564285D01*
X172716666Y-103659523D01*
X172740476Y-103707142D01*
X172764285Y-103730952D01*
X172811904Y-103754761D01*
G04 #@! TO.C,R23*
X178078571Y-59326190D02*
X177911904Y-59088095D01*
X177792857Y-59326190D02*
X177792857Y-58826190D01*
X177983333Y-58826190D01*
X178030952Y-58850000D01*
X178054761Y-58873809D01*
X178078571Y-58921428D01*
X178078571Y-58992857D01*
X178054761Y-59040476D01*
X178030952Y-59064285D01*
X177983333Y-59088095D01*
X177792857Y-59088095D01*
X178269047Y-58873809D02*
X178292857Y-58850000D01*
X178340476Y-58826190D01*
X178459523Y-58826190D01*
X178507142Y-58850000D01*
X178530952Y-58873809D01*
X178554761Y-58921428D01*
X178554761Y-58969047D01*
X178530952Y-59040476D01*
X178245238Y-59326190D01*
X178554761Y-59326190D01*
X178721428Y-58826190D02*
X179030952Y-58826190D01*
X178864285Y-59016666D01*
X178935714Y-59016666D01*
X178983333Y-59040476D01*
X179007142Y-59064285D01*
X179030952Y-59111904D01*
X179030952Y-59230952D01*
X179007142Y-59278571D01*
X178983333Y-59302380D01*
X178935714Y-59326190D01*
X178792857Y-59326190D01*
X178745238Y-59302380D01*
X178721428Y-59278571D01*
G04 #@! TO.C,R25*
X181578571Y-59026190D02*
X181411904Y-58788095D01*
X181292857Y-59026190D02*
X181292857Y-58526190D01*
X181483333Y-58526190D01*
X181530952Y-58550000D01*
X181554761Y-58573809D01*
X181578571Y-58621428D01*
X181578571Y-58692857D01*
X181554761Y-58740476D01*
X181530952Y-58764285D01*
X181483333Y-58788095D01*
X181292857Y-58788095D01*
X181769047Y-58573809D02*
X181792857Y-58550000D01*
X181840476Y-58526190D01*
X181959523Y-58526190D01*
X182007142Y-58550000D01*
X182030952Y-58573809D01*
X182054761Y-58621428D01*
X182054761Y-58669047D01*
X182030952Y-58740476D01*
X181745238Y-59026190D01*
X182054761Y-59026190D01*
X182507142Y-58526190D02*
X182269047Y-58526190D01*
X182245238Y-58764285D01*
X182269047Y-58740476D01*
X182316666Y-58716666D01*
X182435714Y-58716666D01*
X182483333Y-58740476D01*
X182507142Y-58764285D01*
X182530952Y-58811904D01*
X182530952Y-58930952D01*
X182507142Y-58978571D01*
X182483333Y-59002380D01*
X182435714Y-59026190D01*
X182316666Y-59026190D01*
X182269047Y-59002380D01*
X182245238Y-58978571D01*
G04 #@! TD*
M02*
