G04 #@! TF.GenerationSoftware,KiCad,Pcbnew,5.1.5-52549c5~84~ubuntu18.04.1*
G04 #@! TF.CreationDate,2020-03-13T12:33:57+01:00*
G04 #@! TF.ProjectId,Telemetry,54656c65-6d65-4747-9279-2e6b69636164,rev?*
G04 #@! TF.SameCoordinates,Original*
G04 #@! TF.FileFunction,Legend,Top*
G04 #@! TF.FilePolarity,Positive*
%FSLAX46Y46*%
G04 Gerber Fmt 4.6, Leading zero omitted, Abs format (unit mm)*
G04 Created by KiCad (PCBNEW 5.1.5-52549c5~84~ubuntu18.04.1) date 2020-03-13 12:33:57*
%MOMM*%
%LPD*%
G04 APERTURE LIST*
%ADD10C,0.120000*%
%ADD11C,0.150000*%
%ADD12C,0.127000*%
%ADD13C,0.200000*%
%ADD14C,0.100000*%
%ADD15C,0.015000*%
G04 APERTURE END LIST*
D10*
X63510000Y-171800000D02*
X63510000Y-159200000D01*
X58410000Y-171800000D02*
X63510000Y-171800000D01*
X58410000Y-159200000D02*
X58410000Y-171800000D01*
D11*
X119340000Y-173240000D02*
X137340000Y-173240000D01*
X137340000Y-162040000D02*
X119340000Y-162040000D01*
X119340000Y-162040000D02*
X119340000Y-173240000D01*
X137440000Y-173240000D02*
X137440000Y-162015000D01*
X119340000Y-184670000D02*
X137340000Y-184670000D01*
X137340000Y-173470000D02*
X119340000Y-173470000D01*
X119340000Y-173470000D02*
X119340000Y-184670000D01*
X137440000Y-184670000D02*
X137440000Y-173445000D01*
D12*
X136650000Y-136740000D02*
X137150000Y-136740000D01*
X137150000Y-136740000D02*
X137150000Y-137240000D01*
X137150000Y-137240000D02*
X137150000Y-147240000D01*
X137150000Y-147240000D02*
X137150000Y-147740000D01*
X137150000Y-147740000D02*
X136650000Y-147740000D01*
X137450000Y-136740000D02*
X137950000Y-136740000D01*
X137950000Y-136740000D02*
X137950000Y-137240000D01*
X137950000Y-137240000D02*
X137950000Y-147240000D01*
X137950000Y-147240000D02*
X137950000Y-147740000D01*
X137950000Y-147740000D02*
X137450000Y-147740000D01*
X136350000Y-147740000D02*
X136350000Y-136740000D01*
X141950000Y-137240000D02*
X141950000Y-147240000D01*
X136350000Y-136740000D02*
X136650000Y-136740000D01*
X136650000Y-136740000D02*
G75*
G02X137150000Y-137240000I0J-500000D01*
G01*
X137150000Y-136740000D02*
X137450000Y-136740000D01*
X137450000Y-136740000D02*
G75*
G02X137950000Y-137240000I0J-500000D01*
G01*
X137950000Y-136740000D02*
X141450000Y-136740000D01*
X141450000Y-136740000D02*
G75*
G02X141950000Y-137240000I0J-500000D01*
G01*
X136350000Y-147740000D02*
X136650000Y-147740000D01*
X136650000Y-147740000D02*
G75*
G03X137150000Y-147240000I0J500000D01*
G01*
X137150000Y-147740000D02*
X137450000Y-147740000D01*
X137450000Y-147740000D02*
G75*
G03X137950000Y-147240000I0J500000D01*
G01*
X137950000Y-147740000D02*
X141450000Y-147740000D01*
X141450000Y-147740000D02*
G75*
G03X141950000Y-147240000I0J500000D01*
G01*
X120400000Y-148290000D02*
X120400000Y-148740000D01*
X120400000Y-148740000D02*
X120950000Y-148740000D01*
X120400000Y-136740000D02*
X120400000Y-134890000D01*
X120400000Y-134890000D02*
X134550000Y-134890000D01*
D13*
X119400000Y-138990000D02*
G75*
G03X119400000Y-138990000I-250000J0D01*
G01*
D12*
X133550000Y-148740000D02*
X131950000Y-148740000D01*
D11*
X119880000Y-157710000D02*
X118880000Y-157710000D01*
X119380000Y-158210000D02*
X119380000Y-157210000D01*
D10*
X88340000Y-142918922D02*
X88340000Y-143436078D01*
X86920000Y-142918922D02*
X86920000Y-143436078D01*
X91950000Y-143347221D02*
X91950000Y-143672779D01*
X90930000Y-143347221D02*
X90930000Y-143672779D01*
X69090000Y-169072779D02*
X69090000Y-168747221D01*
X68070000Y-169072779D02*
X68070000Y-168747221D01*
X68070000Y-161452779D02*
X68070000Y-161127221D01*
X69090000Y-161452779D02*
X69090000Y-161127221D01*
X95760000Y-143347221D02*
X95760000Y-143672779D01*
X94740000Y-143347221D02*
X94740000Y-143672779D01*
X83110000Y-129613922D02*
X83110000Y-130131078D01*
X84530000Y-129613922D02*
X84530000Y-130131078D01*
X88140000Y-136052779D02*
X88140000Y-135727221D01*
X87120000Y-136052779D02*
X87120000Y-135727221D01*
X83110000Y-136148578D02*
X83110000Y-135631422D01*
X84530000Y-136148578D02*
X84530000Y-135631422D01*
X64091078Y-130250000D02*
X63573922Y-130250000D01*
X64091078Y-128830000D02*
X63573922Y-128830000D01*
X59130000Y-132338578D02*
X59130000Y-131821422D01*
X57710000Y-132338578D02*
X57710000Y-131821422D01*
X47750000Y-181447221D02*
X47750000Y-181772779D01*
X48770000Y-181447221D02*
X48770000Y-181772779D01*
X52042500Y-181447221D02*
X52042500Y-181772779D01*
X53062500Y-181447221D02*
X53062500Y-181772779D01*
X57660000Y-181447221D02*
X57660000Y-181772779D01*
X56640000Y-181447221D02*
X56640000Y-181772779D01*
X65280000Y-181447221D02*
X65280000Y-181772779D01*
X64260000Y-181447221D02*
X64260000Y-181772779D01*
X105100000Y-135972500D02*
X105100000Y-133287500D01*
X103180000Y-135972500D02*
X105100000Y-135972500D01*
X103180000Y-133287500D02*
X103180000Y-135972500D01*
X71430000Y-185357500D02*
X71430000Y-188042500D01*
X71430000Y-188042500D02*
X73350000Y-188042500D01*
X73350000Y-188042500D02*
X73350000Y-185357500D01*
X77160000Y-188042500D02*
X77160000Y-185357500D01*
X75240000Y-188042500D02*
X77160000Y-188042500D01*
X75240000Y-185357500D02*
X75240000Y-188042500D01*
X79050000Y-185357500D02*
X79050000Y-188042500D01*
X79050000Y-188042500D02*
X80970000Y-188042500D01*
X80970000Y-188042500D02*
X80970000Y-185357500D01*
X92000000Y-127280000D02*
X98500000Y-127280000D01*
X92000000Y-127280000D02*
X92000000Y-135680000D01*
X98500000Y-127280000D02*
X98500000Y-135680000D01*
X101090000Y-183190000D02*
X101090000Y-182260000D01*
X101090000Y-180030000D02*
X101090000Y-180960000D01*
X101090000Y-180030000D02*
X98930000Y-180030000D01*
X101090000Y-183190000D02*
X99630000Y-183190000D01*
X37695000Y-140700000D02*
X37695000Y-161560000D01*
X37695000Y-161560000D02*
X28345000Y-161560000D01*
X28345000Y-161560000D02*
X28345000Y-140700000D01*
X28345000Y-140700000D02*
X37695000Y-140700000D01*
X28095000Y-140450000D02*
X28095000Y-142990000D01*
X28095000Y-140450000D02*
X30635000Y-140450000D01*
X48320000Y-143570000D02*
X48320000Y-140910000D01*
X45720000Y-143570000D02*
X48320000Y-143570000D01*
X45720000Y-140910000D02*
X48320000Y-140910000D01*
X45720000Y-143570000D02*
X45720000Y-140910000D01*
X44450000Y-143570000D02*
X43120000Y-143570000D01*
X43120000Y-143570000D02*
X43120000Y-142240000D01*
X92440000Y-183010000D02*
X90440000Y-183010000D01*
X92440000Y-180210000D02*
X92440000Y-183010000D01*
X90440000Y-180210000D02*
X92440000Y-180210000D01*
X90440000Y-183010000D02*
X90440000Y-180210000D01*
X82340000Y-150130000D02*
X87840000Y-150130000D01*
X87840000Y-150130000D02*
X87840000Y-152080000D01*
X87840000Y-152080000D02*
X82340000Y-152080000D01*
X82340000Y-152080000D02*
X82340000Y-150130000D01*
X83690000Y-152330000D02*
X83390000Y-152630000D01*
X83390000Y-152630000D02*
X83990000Y-152630000D01*
X83990000Y-152630000D02*
X83690000Y-152330000D01*
X49760000Y-164930000D02*
X49460000Y-165230000D01*
X49760000Y-165530000D02*
X49760000Y-164930000D01*
X49460000Y-165230000D02*
X49760000Y-165530000D01*
X49210000Y-166580000D02*
X47260000Y-166580000D01*
X49210000Y-161080000D02*
X49210000Y-166580000D01*
X47260000Y-161080000D02*
X49210000Y-161080000D01*
X47260000Y-166580000D02*
X47260000Y-161080000D01*
X73830000Y-152630000D02*
X73530000Y-152330000D01*
X73230000Y-152630000D02*
X73830000Y-152630000D01*
X73530000Y-152330000D02*
X73230000Y-152630000D01*
X72180000Y-152080000D02*
X72180000Y-150130000D01*
X77680000Y-152080000D02*
X72180000Y-152080000D01*
X77680000Y-150130000D02*
X77680000Y-152080000D01*
X72180000Y-150130000D02*
X77680000Y-150130000D01*
X61033922Y-179630000D02*
X61551078Y-179630000D01*
X61033922Y-181050000D02*
X61551078Y-181050000D01*
X97280000Y-171760000D02*
X95820000Y-171760000D01*
X97280000Y-168600000D02*
X95120000Y-168600000D01*
X97280000Y-168600000D02*
X97280000Y-169530000D01*
X97280000Y-171760000D02*
X97280000Y-170830000D01*
X54100000Y-168747221D02*
X54100000Y-169072779D01*
X55120000Y-168747221D02*
X55120000Y-169072779D01*
X104650000Y-129377221D02*
X104650000Y-129702779D01*
X103630000Y-129377221D02*
X103630000Y-129702779D01*
X71880000Y-181772779D02*
X71880000Y-181447221D01*
X72900000Y-181772779D02*
X72900000Y-181447221D01*
X75690000Y-181772779D02*
X75690000Y-181447221D01*
X76710000Y-181772779D02*
X76710000Y-181447221D01*
X80520000Y-181772779D02*
X80520000Y-181447221D01*
X79500000Y-181772779D02*
X79500000Y-181447221D01*
X54100000Y-161452779D02*
X54100000Y-161127221D01*
X55120000Y-161452779D02*
X55120000Y-161127221D01*
X97280000Y-164149721D02*
X97280000Y-164475279D01*
X98300000Y-164149721D02*
X98300000Y-164475279D01*
X96200279Y-182370000D02*
X95874721Y-182370000D01*
X96200279Y-183390000D02*
X95874721Y-183390000D01*
X83310000Y-181447221D02*
X83310000Y-181772779D01*
X84330000Y-181447221D02*
X84330000Y-181772779D01*
X93220000Y-170017221D02*
X93220000Y-170342779D01*
X92200000Y-170017221D02*
X92200000Y-170342779D01*
X31770000Y-167430000D02*
X34270000Y-167430000D01*
X30270000Y-169180000D02*
X30270000Y-171180000D01*
X31770000Y-172930000D02*
X34270000Y-172930000D01*
X35770000Y-169180000D02*
X35770000Y-171180000D01*
X31320000Y-167880000D02*
X31770000Y-167430000D01*
X34720000Y-167880000D02*
X34270000Y-167430000D01*
X34720000Y-172480000D02*
X34270000Y-172930000D01*
X31320000Y-172480000D02*
X31770000Y-172930000D01*
X31320000Y-182640000D02*
X31770000Y-183090000D01*
X34720000Y-182640000D02*
X34270000Y-183090000D01*
X34720000Y-178040000D02*
X34270000Y-177590000D01*
X31320000Y-178040000D02*
X31770000Y-177590000D01*
X35770000Y-179340000D02*
X35770000Y-181340000D01*
X31770000Y-183090000D02*
X34270000Y-183090000D01*
X30270000Y-179340000D02*
X30270000Y-181340000D01*
X31770000Y-177590000D02*
X34270000Y-177590000D01*
X114530000Y-156210000D02*
G75*
G03X114530000Y-156210000I-1500000J0D01*
G01*
X108180000Y-156210000D02*
G75*
G03X108180000Y-156210000I-1500000J0D01*
G01*
X100560000Y-156210000D02*
G75*
G03X100560000Y-156210000I-1500000J0D01*
G01*
X75160000Y-142240000D02*
G75*
G03X75160000Y-142240000I-1500000J0D01*
G01*
X59920000Y-142240000D02*
G75*
G03X59920000Y-142240000I-1500000J0D01*
G01*
X114530000Y-181610000D02*
G75*
G03X114530000Y-181610000I-1500000J0D01*
G01*
X105410000Y-172740000D02*
X107360000Y-172740000D01*
X105410000Y-172740000D02*
X103460000Y-172740000D01*
X105410000Y-167620000D02*
X107360000Y-167620000D01*
X105410000Y-167620000D02*
X101960000Y-167620000D01*
X83170000Y-168710000D02*
X83620000Y-168710000D01*
X83620000Y-168710000D02*
X83620000Y-168260000D01*
X76850000Y-168710000D02*
X76400000Y-168710000D01*
X76400000Y-168710000D02*
X76400000Y-168260000D01*
X83170000Y-161490000D02*
X83620000Y-161490000D01*
X83620000Y-161490000D02*
X83620000Y-161940000D01*
X76850000Y-161490000D02*
X76400000Y-161490000D01*
X76400000Y-161490000D02*
X76400000Y-161940000D01*
X76400000Y-161940000D02*
X75110000Y-161940000D01*
X73020000Y-128670000D02*
X73020000Y-129930000D01*
X73020000Y-135490000D02*
X73020000Y-134230000D01*
X76780000Y-128670000D02*
X73020000Y-128670000D01*
X79030000Y-135490000D02*
X73020000Y-135490000D01*
X64530000Y-136200000D02*
X64530000Y-135270000D01*
X64530000Y-133040000D02*
X64530000Y-133970000D01*
X64530000Y-133040000D02*
X62370000Y-133040000D01*
X64530000Y-136200000D02*
X63070000Y-136200000D01*
D11*
X57386190Y-165576190D02*
X57862380Y-165576190D01*
X56862380Y-165909523D02*
X57386190Y-165576190D01*
X56862380Y-165242857D01*
X57862380Y-164385714D02*
X57862380Y-164957142D01*
X57862380Y-164671428D02*
X56862380Y-164671428D01*
X57005238Y-164766666D01*
X57100476Y-164861904D01*
X57148095Y-164957142D01*
D14*
X118416190Y-167756666D02*
X118773333Y-167756666D01*
X118844761Y-167780476D01*
X118892380Y-167828095D01*
X118916190Y-167899523D01*
X118916190Y-167947142D01*
X118630476Y-167447142D02*
X118606666Y-167494761D01*
X118582857Y-167518571D01*
X118535238Y-167542380D01*
X118511428Y-167542380D01*
X118463809Y-167518571D01*
X118440000Y-167494761D01*
X118416190Y-167447142D01*
X118416190Y-167351904D01*
X118440000Y-167304285D01*
X118463809Y-167280476D01*
X118511428Y-167256666D01*
X118535238Y-167256666D01*
X118582857Y-167280476D01*
X118606666Y-167304285D01*
X118630476Y-167351904D01*
X118630476Y-167447142D01*
X118654285Y-167494761D01*
X118678095Y-167518571D01*
X118725714Y-167542380D01*
X118820952Y-167542380D01*
X118868571Y-167518571D01*
X118892380Y-167494761D01*
X118916190Y-167447142D01*
X118916190Y-167351904D01*
X118892380Y-167304285D01*
X118868571Y-167280476D01*
X118820952Y-167256666D01*
X118725714Y-167256666D01*
X118678095Y-167280476D01*
X118654285Y-167304285D01*
X118630476Y-167351904D01*
X118416190Y-179186666D02*
X118773333Y-179186666D01*
X118844761Y-179210476D01*
X118892380Y-179258095D01*
X118916190Y-179329523D01*
X118916190Y-179377142D01*
X118416190Y-178996190D02*
X118416190Y-178662857D01*
X118916190Y-178877142D01*
D15*
X117665524Y-146560612D02*
X118380901Y-146560612D01*
X118523976Y-146608304D01*
X118619360Y-146703688D01*
X118667052Y-146846763D01*
X118667052Y-146942147D01*
X118667052Y-145559084D02*
X118667052Y-146131386D01*
X118667052Y-145845235D02*
X117665524Y-145845235D01*
X117808599Y-145940619D01*
X117903983Y-146036002D01*
X117951675Y-146131386D01*
D14*
X118058571Y-155531428D02*
X118082380Y-155555238D01*
X118106190Y-155626666D01*
X118106190Y-155674285D01*
X118082380Y-155745714D01*
X118034761Y-155793333D01*
X117987142Y-155817142D01*
X117891904Y-155840952D01*
X117820476Y-155840952D01*
X117725238Y-155817142D01*
X117677619Y-155793333D01*
X117630000Y-155745714D01*
X117606190Y-155674285D01*
X117606190Y-155626666D01*
X117630000Y-155555238D01*
X117653809Y-155531428D01*
X117653809Y-155340952D02*
X117630000Y-155317142D01*
X117606190Y-155269523D01*
X117606190Y-155150476D01*
X117630000Y-155102857D01*
X117653809Y-155079047D01*
X117701428Y-155055238D01*
X117749047Y-155055238D01*
X117820476Y-155079047D01*
X118106190Y-155364761D01*
X118106190Y-155055238D01*
X117653809Y-154864761D02*
X117630000Y-154840952D01*
X117606190Y-154793333D01*
X117606190Y-154674285D01*
X117630000Y-154626666D01*
X117653809Y-154602857D01*
X117701428Y-154579047D01*
X117749047Y-154579047D01*
X117820476Y-154602857D01*
X118106190Y-154888571D01*
X118106190Y-154579047D01*
D11*
X89637142Y-143344166D02*
X89684761Y-143391785D01*
X89732380Y-143534642D01*
X89732380Y-143629880D01*
X89684761Y-143772738D01*
X89589523Y-143867976D01*
X89494285Y-143915595D01*
X89303809Y-143963214D01*
X89160952Y-143963214D01*
X88970476Y-143915595D01*
X88875238Y-143867976D01*
X88780000Y-143772738D01*
X88732380Y-143629880D01*
X88732380Y-143534642D01*
X88780000Y-143391785D01*
X88827619Y-143344166D01*
X89065714Y-142487023D02*
X89732380Y-142487023D01*
X88684761Y-142725119D02*
X89399047Y-142963214D01*
X89399047Y-142344166D01*
X93227142Y-143676666D02*
X93274761Y-143724285D01*
X93322380Y-143867142D01*
X93322380Y-143962380D01*
X93274761Y-144105238D01*
X93179523Y-144200476D01*
X93084285Y-144248095D01*
X92893809Y-144295714D01*
X92750952Y-144295714D01*
X92560476Y-144248095D01*
X92465238Y-144200476D01*
X92370000Y-144105238D01*
X92322380Y-143962380D01*
X92322380Y-143867142D01*
X92370000Y-143724285D01*
X92417619Y-143676666D01*
X92322380Y-142771904D02*
X92322380Y-143248095D01*
X92798571Y-143295714D01*
X92750952Y-143248095D01*
X92703333Y-143152857D01*
X92703333Y-142914761D01*
X92750952Y-142819523D01*
X92798571Y-142771904D01*
X92893809Y-142724285D01*
X93131904Y-142724285D01*
X93227142Y-142771904D01*
X93274761Y-142819523D01*
X93322380Y-142914761D01*
X93322380Y-143152857D01*
X93274761Y-143248095D01*
X93227142Y-143295714D01*
X67507142Y-169552857D02*
X67554761Y-169600476D01*
X67602380Y-169743333D01*
X67602380Y-169838571D01*
X67554761Y-169981428D01*
X67459523Y-170076666D01*
X67364285Y-170124285D01*
X67173809Y-170171904D01*
X67030952Y-170171904D01*
X66840476Y-170124285D01*
X66745238Y-170076666D01*
X66650000Y-169981428D01*
X66602380Y-169838571D01*
X66602380Y-169743333D01*
X66650000Y-169600476D01*
X66697619Y-169552857D01*
X67602380Y-168600476D02*
X67602380Y-169171904D01*
X67602380Y-168886190D02*
X66602380Y-168886190D01*
X66745238Y-168981428D01*
X66840476Y-169076666D01*
X66888095Y-169171904D01*
X66602380Y-167981428D02*
X66602380Y-167886190D01*
X66650000Y-167790952D01*
X66697619Y-167743333D01*
X66792857Y-167695714D01*
X66983333Y-167648095D01*
X67221428Y-167648095D01*
X67411904Y-167695714D01*
X67507142Y-167743333D01*
X67554761Y-167790952D01*
X67602380Y-167886190D01*
X67602380Y-167981428D01*
X67554761Y-168076666D01*
X67507142Y-168124285D01*
X67411904Y-168171904D01*
X67221428Y-168219523D01*
X66983333Y-168219523D01*
X66792857Y-168171904D01*
X66697619Y-168124285D01*
X66650000Y-168076666D01*
X66602380Y-167981428D01*
X67507142Y-161932857D02*
X67554761Y-161980476D01*
X67602380Y-162123333D01*
X67602380Y-162218571D01*
X67554761Y-162361428D01*
X67459523Y-162456666D01*
X67364285Y-162504285D01*
X67173809Y-162551904D01*
X67030952Y-162551904D01*
X66840476Y-162504285D01*
X66745238Y-162456666D01*
X66650000Y-162361428D01*
X66602380Y-162218571D01*
X66602380Y-162123333D01*
X66650000Y-161980476D01*
X66697619Y-161932857D01*
X67602380Y-160980476D02*
X67602380Y-161551904D01*
X67602380Y-161266190D02*
X66602380Y-161266190D01*
X66745238Y-161361428D01*
X66840476Y-161456666D01*
X66888095Y-161551904D01*
X67602380Y-160028095D02*
X67602380Y-160599523D01*
X67602380Y-160313809D02*
X66602380Y-160313809D01*
X66745238Y-160409047D01*
X66840476Y-160504285D01*
X66888095Y-160599523D01*
X97037142Y-144152857D02*
X97084761Y-144200476D01*
X97132380Y-144343333D01*
X97132380Y-144438571D01*
X97084761Y-144581428D01*
X96989523Y-144676666D01*
X96894285Y-144724285D01*
X96703809Y-144771904D01*
X96560952Y-144771904D01*
X96370476Y-144724285D01*
X96275238Y-144676666D01*
X96180000Y-144581428D01*
X96132380Y-144438571D01*
X96132380Y-144343333D01*
X96180000Y-144200476D01*
X96227619Y-144152857D01*
X97132380Y-143200476D02*
X97132380Y-143771904D01*
X97132380Y-143486190D02*
X96132380Y-143486190D01*
X96275238Y-143581428D01*
X96370476Y-143676666D01*
X96418095Y-143771904D01*
X96227619Y-142819523D02*
X96180000Y-142771904D01*
X96132380Y-142676666D01*
X96132380Y-142438571D01*
X96180000Y-142343333D01*
X96227619Y-142295714D01*
X96322857Y-142248095D01*
X96418095Y-142248095D01*
X96560952Y-142295714D01*
X97132380Y-142867142D01*
X97132380Y-142248095D01*
X85827142Y-130515357D02*
X85874761Y-130562976D01*
X85922380Y-130705833D01*
X85922380Y-130801071D01*
X85874761Y-130943928D01*
X85779523Y-131039166D01*
X85684285Y-131086785D01*
X85493809Y-131134404D01*
X85350952Y-131134404D01*
X85160476Y-131086785D01*
X85065238Y-131039166D01*
X84970000Y-130943928D01*
X84922380Y-130801071D01*
X84922380Y-130705833D01*
X84970000Y-130562976D01*
X85017619Y-130515357D01*
X85922380Y-129562976D02*
X85922380Y-130134404D01*
X85922380Y-129848690D02*
X84922380Y-129848690D01*
X85065238Y-129943928D01*
X85160476Y-130039166D01*
X85208095Y-130134404D01*
X84922380Y-129229642D02*
X84922380Y-128610595D01*
X85303333Y-128943928D01*
X85303333Y-128801071D01*
X85350952Y-128705833D01*
X85398571Y-128658214D01*
X85493809Y-128610595D01*
X85731904Y-128610595D01*
X85827142Y-128658214D01*
X85874761Y-128705833D01*
X85922380Y-128801071D01*
X85922380Y-129086785D01*
X85874761Y-129182023D01*
X85827142Y-129229642D01*
X86557142Y-136532857D02*
X86604761Y-136580476D01*
X86652380Y-136723333D01*
X86652380Y-136818571D01*
X86604761Y-136961428D01*
X86509523Y-137056666D01*
X86414285Y-137104285D01*
X86223809Y-137151904D01*
X86080952Y-137151904D01*
X85890476Y-137104285D01*
X85795238Y-137056666D01*
X85700000Y-136961428D01*
X85652380Y-136818571D01*
X85652380Y-136723333D01*
X85700000Y-136580476D01*
X85747619Y-136532857D01*
X86652380Y-135580476D02*
X86652380Y-136151904D01*
X86652380Y-135866190D02*
X85652380Y-135866190D01*
X85795238Y-135961428D01*
X85890476Y-136056666D01*
X85938095Y-136151904D01*
X85985714Y-134723333D02*
X86652380Y-134723333D01*
X85604761Y-134961428D02*
X86319047Y-135199523D01*
X86319047Y-134580476D01*
X82527142Y-136532857D02*
X82574761Y-136580476D01*
X82622380Y-136723333D01*
X82622380Y-136818571D01*
X82574761Y-136961428D01*
X82479523Y-137056666D01*
X82384285Y-137104285D01*
X82193809Y-137151904D01*
X82050952Y-137151904D01*
X81860476Y-137104285D01*
X81765238Y-137056666D01*
X81670000Y-136961428D01*
X81622380Y-136818571D01*
X81622380Y-136723333D01*
X81670000Y-136580476D01*
X81717619Y-136532857D01*
X82622380Y-135580476D02*
X82622380Y-136151904D01*
X82622380Y-135866190D02*
X81622380Y-135866190D01*
X81765238Y-135961428D01*
X81860476Y-136056666D01*
X81908095Y-136151904D01*
X81622380Y-134675714D02*
X81622380Y-135151904D01*
X82098571Y-135199523D01*
X82050952Y-135151904D01*
X82003333Y-135056666D01*
X82003333Y-134818571D01*
X82050952Y-134723333D01*
X82098571Y-134675714D01*
X82193809Y-134628095D01*
X82431904Y-134628095D01*
X82527142Y-134675714D01*
X82574761Y-134723333D01*
X82622380Y-134818571D01*
X82622380Y-135056666D01*
X82574761Y-135151904D01*
X82527142Y-135199523D01*
X63189642Y-131547142D02*
X63142023Y-131594761D01*
X62999166Y-131642380D01*
X62903928Y-131642380D01*
X62761071Y-131594761D01*
X62665833Y-131499523D01*
X62618214Y-131404285D01*
X62570595Y-131213809D01*
X62570595Y-131070952D01*
X62618214Y-130880476D01*
X62665833Y-130785238D01*
X62761071Y-130690000D01*
X62903928Y-130642380D01*
X62999166Y-130642380D01*
X63142023Y-130690000D01*
X63189642Y-130737619D01*
X64142023Y-131642380D02*
X63570595Y-131642380D01*
X63856309Y-131642380D02*
X63856309Y-130642380D01*
X63761071Y-130785238D01*
X63665833Y-130880476D01*
X63570595Y-130928095D01*
X64999166Y-130642380D02*
X64808690Y-130642380D01*
X64713452Y-130690000D01*
X64665833Y-130737619D01*
X64570595Y-130880476D01*
X64522976Y-131070952D01*
X64522976Y-131451904D01*
X64570595Y-131547142D01*
X64618214Y-131594761D01*
X64713452Y-131642380D01*
X64903928Y-131642380D01*
X64999166Y-131594761D01*
X65046785Y-131547142D01*
X65094404Y-131451904D01*
X65094404Y-131213809D01*
X65046785Y-131118571D01*
X64999166Y-131070952D01*
X64903928Y-131023333D01*
X64713452Y-131023333D01*
X64618214Y-131070952D01*
X64570595Y-131118571D01*
X64522976Y-131213809D01*
X57127142Y-132722857D02*
X57174761Y-132770476D01*
X57222380Y-132913333D01*
X57222380Y-133008571D01*
X57174761Y-133151428D01*
X57079523Y-133246666D01*
X56984285Y-133294285D01*
X56793809Y-133341904D01*
X56650952Y-133341904D01*
X56460476Y-133294285D01*
X56365238Y-133246666D01*
X56270000Y-133151428D01*
X56222380Y-133008571D01*
X56222380Y-132913333D01*
X56270000Y-132770476D01*
X56317619Y-132722857D01*
X57222380Y-131770476D02*
X57222380Y-132341904D01*
X57222380Y-132056190D02*
X56222380Y-132056190D01*
X56365238Y-132151428D01*
X56460476Y-132246666D01*
X56508095Y-132341904D01*
X56222380Y-131437142D02*
X56222380Y-130770476D01*
X57222380Y-131199047D01*
X50047142Y-182252857D02*
X50094761Y-182300476D01*
X50142380Y-182443333D01*
X50142380Y-182538571D01*
X50094761Y-182681428D01*
X49999523Y-182776666D01*
X49904285Y-182824285D01*
X49713809Y-182871904D01*
X49570952Y-182871904D01*
X49380476Y-182824285D01*
X49285238Y-182776666D01*
X49190000Y-182681428D01*
X49142380Y-182538571D01*
X49142380Y-182443333D01*
X49190000Y-182300476D01*
X49237619Y-182252857D01*
X50142380Y-181300476D02*
X50142380Y-181871904D01*
X50142380Y-181586190D02*
X49142380Y-181586190D01*
X49285238Y-181681428D01*
X49380476Y-181776666D01*
X49428095Y-181871904D01*
X49570952Y-180729047D02*
X49523333Y-180824285D01*
X49475714Y-180871904D01*
X49380476Y-180919523D01*
X49332857Y-180919523D01*
X49237619Y-180871904D01*
X49190000Y-180824285D01*
X49142380Y-180729047D01*
X49142380Y-180538571D01*
X49190000Y-180443333D01*
X49237619Y-180395714D01*
X49332857Y-180348095D01*
X49380476Y-180348095D01*
X49475714Y-180395714D01*
X49523333Y-180443333D01*
X49570952Y-180538571D01*
X49570952Y-180729047D01*
X49618571Y-180824285D01*
X49666190Y-180871904D01*
X49761428Y-180919523D01*
X49951904Y-180919523D01*
X50047142Y-180871904D01*
X50094761Y-180824285D01*
X50142380Y-180729047D01*
X50142380Y-180538571D01*
X50094761Y-180443333D01*
X50047142Y-180395714D01*
X49951904Y-180348095D01*
X49761428Y-180348095D01*
X49666190Y-180395714D01*
X49618571Y-180443333D01*
X49570952Y-180538571D01*
X54339642Y-182252857D02*
X54387261Y-182300476D01*
X54434880Y-182443333D01*
X54434880Y-182538571D01*
X54387261Y-182681428D01*
X54292023Y-182776666D01*
X54196785Y-182824285D01*
X54006309Y-182871904D01*
X53863452Y-182871904D01*
X53672976Y-182824285D01*
X53577738Y-182776666D01*
X53482500Y-182681428D01*
X53434880Y-182538571D01*
X53434880Y-182443333D01*
X53482500Y-182300476D01*
X53530119Y-182252857D01*
X54434880Y-181300476D02*
X54434880Y-181871904D01*
X54434880Y-181586190D02*
X53434880Y-181586190D01*
X53577738Y-181681428D01*
X53672976Y-181776666D01*
X53720595Y-181871904D01*
X54434880Y-180824285D02*
X54434880Y-180633809D01*
X54387261Y-180538571D01*
X54339642Y-180490952D01*
X54196785Y-180395714D01*
X54006309Y-180348095D01*
X53625357Y-180348095D01*
X53530119Y-180395714D01*
X53482500Y-180443333D01*
X53434880Y-180538571D01*
X53434880Y-180729047D01*
X53482500Y-180824285D01*
X53530119Y-180871904D01*
X53625357Y-180919523D01*
X53863452Y-180919523D01*
X53958690Y-180871904D01*
X54006309Y-180824285D01*
X54053928Y-180729047D01*
X54053928Y-180538571D01*
X54006309Y-180443333D01*
X53958690Y-180395714D01*
X53863452Y-180348095D01*
X58937142Y-182252857D02*
X58984761Y-182300476D01*
X59032380Y-182443333D01*
X59032380Y-182538571D01*
X58984761Y-182681428D01*
X58889523Y-182776666D01*
X58794285Y-182824285D01*
X58603809Y-182871904D01*
X58460952Y-182871904D01*
X58270476Y-182824285D01*
X58175238Y-182776666D01*
X58080000Y-182681428D01*
X58032380Y-182538571D01*
X58032380Y-182443333D01*
X58080000Y-182300476D01*
X58127619Y-182252857D01*
X58127619Y-181871904D02*
X58080000Y-181824285D01*
X58032380Y-181729047D01*
X58032380Y-181490952D01*
X58080000Y-181395714D01*
X58127619Y-181348095D01*
X58222857Y-181300476D01*
X58318095Y-181300476D01*
X58460952Y-181348095D01*
X59032380Y-181919523D01*
X59032380Y-181300476D01*
X58032380Y-180681428D02*
X58032380Y-180586190D01*
X58080000Y-180490952D01*
X58127619Y-180443333D01*
X58222857Y-180395714D01*
X58413333Y-180348095D01*
X58651428Y-180348095D01*
X58841904Y-180395714D01*
X58937142Y-180443333D01*
X58984761Y-180490952D01*
X59032380Y-180586190D01*
X59032380Y-180681428D01*
X58984761Y-180776666D01*
X58937142Y-180824285D01*
X58841904Y-180871904D01*
X58651428Y-180919523D01*
X58413333Y-180919523D01*
X58222857Y-180871904D01*
X58127619Y-180824285D01*
X58080000Y-180776666D01*
X58032380Y-180681428D01*
X66557142Y-182252857D02*
X66604761Y-182300476D01*
X66652380Y-182443333D01*
X66652380Y-182538571D01*
X66604761Y-182681428D01*
X66509523Y-182776666D01*
X66414285Y-182824285D01*
X66223809Y-182871904D01*
X66080952Y-182871904D01*
X65890476Y-182824285D01*
X65795238Y-182776666D01*
X65700000Y-182681428D01*
X65652380Y-182538571D01*
X65652380Y-182443333D01*
X65700000Y-182300476D01*
X65747619Y-182252857D01*
X65747619Y-181871904D02*
X65700000Y-181824285D01*
X65652380Y-181729047D01*
X65652380Y-181490952D01*
X65700000Y-181395714D01*
X65747619Y-181348095D01*
X65842857Y-181300476D01*
X65938095Y-181300476D01*
X66080952Y-181348095D01*
X66652380Y-181919523D01*
X66652380Y-181300476D01*
X66652380Y-180348095D02*
X66652380Y-180919523D01*
X66652380Y-180633809D02*
X65652380Y-180633809D01*
X65795238Y-180729047D01*
X65890476Y-180824285D01*
X65938095Y-180919523D01*
X102942380Y-135025595D02*
X101942380Y-135025595D01*
X101942380Y-134787500D01*
X101990000Y-134644642D01*
X102085238Y-134549404D01*
X102180476Y-134501785D01*
X102370952Y-134454166D01*
X102513809Y-134454166D01*
X102704285Y-134501785D01*
X102799523Y-134549404D01*
X102894761Y-134644642D01*
X102942380Y-134787500D01*
X102942380Y-135025595D01*
X102275714Y-133597023D02*
X102942380Y-133597023D01*
X101894761Y-133835119D02*
X102609047Y-134073214D01*
X102609047Y-133454166D01*
X71192380Y-187095595D02*
X70192380Y-187095595D01*
X70192380Y-186857500D01*
X70240000Y-186714642D01*
X70335238Y-186619404D01*
X70430476Y-186571785D01*
X70620952Y-186524166D01*
X70763809Y-186524166D01*
X70954285Y-186571785D01*
X71049523Y-186619404D01*
X71144761Y-186714642D01*
X71192380Y-186857500D01*
X71192380Y-187095595D01*
X70192380Y-185619404D02*
X70192380Y-186095595D01*
X70668571Y-186143214D01*
X70620952Y-186095595D01*
X70573333Y-186000357D01*
X70573333Y-185762261D01*
X70620952Y-185667023D01*
X70668571Y-185619404D01*
X70763809Y-185571785D01*
X71001904Y-185571785D01*
X71097142Y-185619404D01*
X71144761Y-185667023D01*
X71192380Y-185762261D01*
X71192380Y-186000357D01*
X71144761Y-186095595D01*
X71097142Y-186143214D01*
X75002380Y-187095595D02*
X74002380Y-187095595D01*
X74002380Y-186857500D01*
X74050000Y-186714642D01*
X74145238Y-186619404D01*
X74240476Y-186571785D01*
X74430952Y-186524166D01*
X74573809Y-186524166D01*
X74764285Y-186571785D01*
X74859523Y-186619404D01*
X74954761Y-186714642D01*
X75002380Y-186857500D01*
X75002380Y-187095595D01*
X74002380Y-185667023D02*
X74002380Y-185857500D01*
X74050000Y-185952738D01*
X74097619Y-186000357D01*
X74240476Y-186095595D01*
X74430952Y-186143214D01*
X74811904Y-186143214D01*
X74907142Y-186095595D01*
X74954761Y-186047976D01*
X75002380Y-185952738D01*
X75002380Y-185762261D01*
X74954761Y-185667023D01*
X74907142Y-185619404D01*
X74811904Y-185571785D01*
X74573809Y-185571785D01*
X74478571Y-185619404D01*
X74430952Y-185667023D01*
X74383333Y-185762261D01*
X74383333Y-185952738D01*
X74430952Y-186047976D01*
X74478571Y-186095595D01*
X74573809Y-186143214D01*
X78812380Y-187095595D02*
X77812380Y-187095595D01*
X77812380Y-186857500D01*
X77860000Y-186714642D01*
X77955238Y-186619404D01*
X78050476Y-186571785D01*
X78240952Y-186524166D01*
X78383809Y-186524166D01*
X78574285Y-186571785D01*
X78669523Y-186619404D01*
X78764761Y-186714642D01*
X78812380Y-186857500D01*
X78812380Y-187095595D01*
X77812380Y-186190833D02*
X77812380Y-185524166D01*
X78812380Y-185952738D01*
X99802380Y-132818095D02*
X98802380Y-132818095D01*
X98802380Y-132580000D01*
X98850000Y-132437142D01*
X98945238Y-132341904D01*
X99040476Y-132294285D01*
X99230952Y-132246666D01*
X99373809Y-132246666D01*
X99564285Y-132294285D01*
X99659523Y-132341904D01*
X99754761Y-132437142D01*
X99802380Y-132580000D01*
X99802380Y-132818095D01*
X99230952Y-131675238D02*
X99183333Y-131770476D01*
X99135714Y-131818095D01*
X99040476Y-131865714D01*
X98992857Y-131865714D01*
X98897619Y-131818095D01*
X98850000Y-131770476D01*
X98802380Y-131675238D01*
X98802380Y-131484761D01*
X98850000Y-131389523D01*
X98897619Y-131341904D01*
X98992857Y-131294285D01*
X99040476Y-131294285D01*
X99135714Y-131341904D01*
X99183333Y-131389523D01*
X99230952Y-131484761D01*
X99230952Y-131675238D01*
X99278571Y-131770476D01*
X99326190Y-131818095D01*
X99421428Y-131865714D01*
X99611904Y-131865714D01*
X99707142Y-131818095D01*
X99754761Y-131770476D01*
X99802380Y-131675238D01*
X99802380Y-131484761D01*
X99754761Y-131389523D01*
X99707142Y-131341904D01*
X99611904Y-131294285D01*
X99421428Y-131294285D01*
X99326190Y-131341904D01*
X99278571Y-131389523D01*
X99230952Y-131484761D01*
X99591904Y-179562380D02*
X99591904Y-178562380D01*
X99830000Y-178562380D01*
X99972857Y-178610000D01*
X100068095Y-178705238D01*
X100115714Y-178800476D01*
X100163333Y-178990952D01*
X100163333Y-179133809D01*
X100115714Y-179324285D01*
X100068095Y-179419523D01*
X99972857Y-179514761D01*
X99830000Y-179562380D01*
X99591904Y-179562380D01*
X100639523Y-179562380D02*
X100830000Y-179562380D01*
X100925238Y-179514761D01*
X100972857Y-179467142D01*
X101068095Y-179324285D01*
X101115714Y-179133809D01*
X101115714Y-178752857D01*
X101068095Y-178657619D01*
X101020476Y-178610000D01*
X100925238Y-178562380D01*
X100734761Y-178562380D01*
X100639523Y-178610000D01*
X100591904Y-178657619D01*
X100544285Y-178752857D01*
X100544285Y-178990952D01*
X100591904Y-179086190D01*
X100639523Y-179133809D01*
X100734761Y-179181428D01*
X100925238Y-179181428D01*
X101020476Y-179133809D01*
X101068095Y-179086190D01*
X101115714Y-178990952D01*
X131318095Y-124522380D02*
X131318095Y-123522380D01*
X131318095Y-123998571D02*
X131889523Y-123998571D01*
X131889523Y-124522380D02*
X131889523Y-123522380D01*
X132889523Y-124522380D02*
X132318095Y-124522380D01*
X132603809Y-124522380D02*
X132603809Y-123522380D01*
X132508571Y-123665238D01*
X132413333Y-123760476D01*
X132318095Y-123808095D01*
X30988095Y-124522380D02*
X30988095Y-123522380D01*
X30988095Y-123998571D02*
X31559523Y-123998571D01*
X31559523Y-124522380D02*
X31559523Y-123522380D01*
X31988095Y-123617619D02*
X32035714Y-123570000D01*
X32130952Y-123522380D01*
X32369047Y-123522380D01*
X32464285Y-123570000D01*
X32511904Y-123617619D01*
X32559523Y-123712857D01*
X32559523Y-123808095D01*
X32511904Y-123950952D01*
X31940476Y-124522380D01*
X32559523Y-124522380D01*
X30988095Y-188022380D02*
X30988095Y-187022380D01*
X30988095Y-187498571D02*
X31559523Y-187498571D01*
X31559523Y-188022380D02*
X31559523Y-187022380D01*
X31940476Y-187022380D02*
X32559523Y-187022380D01*
X32226190Y-187403333D01*
X32369047Y-187403333D01*
X32464285Y-187450952D01*
X32511904Y-187498571D01*
X32559523Y-187593809D01*
X32559523Y-187831904D01*
X32511904Y-187927142D01*
X32464285Y-187974761D01*
X32369047Y-188022380D01*
X32083333Y-188022380D01*
X31988095Y-187974761D01*
X31940476Y-187927142D01*
X131318095Y-188022380D02*
X131318095Y-187022380D01*
X131318095Y-187498571D02*
X131889523Y-187498571D01*
X131889523Y-188022380D02*
X131889523Y-187022380D01*
X132794285Y-187355714D02*
X132794285Y-188022380D01*
X132556190Y-186974761D02*
X132318095Y-187689047D01*
X132937142Y-187689047D01*
X32686666Y-138898380D02*
X32686666Y-139612666D01*
X32639047Y-139755523D01*
X32543809Y-139850761D01*
X32400952Y-139898380D01*
X32305714Y-139898380D01*
X33639047Y-138898380D02*
X33162857Y-138898380D01*
X33115238Y-139374571D01*
X33162857Y-139326952D01*
X33258095Y-139279333D01*
X33496190Y-139279333D01*
X33591428Y-139326952D01*
X33639047Y-139374571D01*
X33686666Y-139469809D01*
X33686666Y-139707904D01*
X33639047Y-139803142D01*
X33591428Y-139850761D01*
X33496190Y-139898380D01*
X33258095Y-139898380D01*
X33162857Y-139850761D01*
X33115238Y-139803142D01*
X41572380Y-143073333D02*
X42286666Y-143073333D01*
X42429523Y-143120952D01*
X42524761Y-143216190D01*
X42572380Y-143359047D01*
X42572380Y-143454285D01*
X42572380Y-142597142D02*
X41572380Y-142597142D01*
X41572380Y-142216190D01*
X41620000Y-142120952D01*
X41667619Y-142073333D01*
X41762857Y-142025714D01*
X41905714Y-142025714D01*
X42000952Y-142073333D01*
X42048571Y-142120952D01*
X42096190Y-142216190D01*
X42096190Y-142597142D01*
X42572380Y-141073333D02*
X42572380Y-141644761D01*
X42572380Y-141359047D02*
X41572380Y-141359047D01*
X41715238Y-141454285D01*
X41810476Y-141549523D01*
X41858095Y-141644761D01*
X89092380Y-182443333D02*
X89806666Y-182443333D01*
X89949523Y-182490952D01*
X90044761Y-182586190D01*
X90092380Y-182729047D01*
X90092380Y-182824285D01*
X90092380Y-181967142D02*
X89092380Y-181967142D01*
X89092380Y-181586190D01*
X89140000Y-181490952D01*
X89187619Y-181443333D01*
X89282857Y-181395714D01*
X89425714Y-181395714D01*
X89520952Y-181443333D01*
X89568571Y-181490952D01*
X89616190Y-181586190D01*
X89616190Y-181967142D01*
X89092380Y-181062380D02*
X89092380Y-180443333D01*
X89473333Y-180776666D01*
X89473333Y-180633809D01*
X89520952Y-180538571D01*
X89568571Y-180490952D01*
X89663809Y-180443333D01*
X89901904Y-180443333D01*
X89997142Y-180490952D01*
X90044761Y-180538571D01*
X90092380Y-180633809D01*
X90092380Y-180919523D01*
X90044761Y-181014761D01*
X89997142Y-181062380D01*
X84981666Y-148807380D02*
X84981666Y-149521666D01*
X84934047Y-149664523D01*
X84838809Y-149759761D01*
X84695952Y-149807380D01*
X84600714Y-149807380D01*
X85457857Y-149807380D02*
X85457857Y-148807380D01*
X85838809Y-148807380D01*
X85934047Y-148855000D01*
X85981666Y-148902619D01*
X86029285Y-148997857D01*
X86029285Y-149140714D01*
X85981666Y-149235952D01*
X85934047Y-149283571D01*
X85838809Y-149331190D01*
X85457857Y-149331190D01*
X86886428Y-149140714D02*
X86886428Y-149807380D01*
X86648333Y-148759761D02*
X86410238Y-149474047D01*
X87029285Y-149474047D01*
X45937380Y-163938333D02*
X46651666Y-163938333D01*
X46794523Y-163985952D01*
X46889761Y-164081190D01*
X46937380Y-164224047D01*
X46937380Y-164319285D01*
X46937380Y-163462142D02*
X45937380Y-163462142D01*
X45937380Y-163081190D01*
X45985000Y-162985952D01*
X46032619Y-162938333D01*
X46127857Y-162890714D01*
X46270714Y-162890714D01*
X46365952Y-162938333D01*
X46413571Y-162985952D01*
X46461190Y-163081190D01*
X46461190Y-163462142D01*
X45937380Y-161985952D02*
X45937380Y-162462142D01*
X46413571Y-162509761D01*
X46365952Y-162462142D01*
X46318333Y-162366904D01*
X46318333Y-162128809D01*
X46365952Y-162033571D01*
X46413571Y-161985952D01*
X46508809Y-161938333D01*
X46746904Y-161938333D01*
X46842142Y-161985952D01*
X46889761Y-162033571D01*
X46937380Y-162128809D01*
X46937380Y-162366904D01*
X46889761Y-162462142D01*
X46842142Y-162509761D01*
X74821666Y-148807380D02*
X74821666Y-149521666D01*
X74774047Y-149664523D01*
X74678809Y-149759761D01*
X74535952Y-149807380D01*
X74440714Y-149807380D01*
X75297857Y-149807380D02*
X75297857Y-148807380D01*
X75678809Y-148807380D01*
X75774047Y-148855000D01*
X75821666Y-148902619D01*
X75869285Y-148997857D01*
X75869285Y-149140714D01*
X75821666Y-149235952D01*
X75774047Y-149283571D01*
X75678809Y-149331190D01*
X75297857Y-149331190D01*
X76726428Y-148807380D02*
X76535952Y-148807380D01*
X76440714Y-148855000D01*
X76393095Y-148902619D01*
X76297857Y-149045476D01*
X76250238Y-149235952D01*
X76250238Y-149616904D01*
X76297857Y-149712142D01*
X76345476Y-149759761D01*
X76440714Y-149807380D01*
X76631190Y-149807380D01*
X76726428Y-149759761D01*
X76774047Y-149712142D01*
X76821666Y-149616904D01*
X76821666Y-149378809D01*
X76774047Y-149283571D01*
X76726428Y-149235952D01*
X76631190Y-149188333D01*
X76440714Y-149188333D01*
X76345476Y-149235952D01*
X76297857Y-149283571D01*
X76250238Y-149378809D01*
X61125833Y-179142380D02*
X60649642Y-179142380D01*
X60649642Y-178142380D01*
X61411547Y-178237619D02*
X61459166Y-178190000D01*
X61554404Y-178142380D01*
X61792500Y-178142380D01*
X61887738Y-178190000D01*
X61935357Y-178237619D01*
X61982976Y-178332857D01*
X61982976Y-178428095D01*
X61935357Y-178570952D01*
X61363928Y-179142380D01*
X61982976Y-179142380D01*
X96424761Y-168227619D02*
X96329523Y-168180000D01*
X96234285Y-168084761D01*
X96091428Y-167941904D01*
X95996190Y-167894285D01*
X95900952Y-167894285D01*
X95948571Y-168132380D02*
X95853333Y-168084761D01*
X95758095Y-167989523D01*
X95710476Y-167799047D01*
X95710476Y-167465714D01*
X95758095Y-167275238D01*
X95853333Y-167180000D01*
X95948571Y-167132380D01*
X96139047Y-167132380D01*
X96234285Y-167180000D01*
X96329523Y-167275238D01*
X96377142Y-167465714D01*
X96377142Y-167799047D01*
X96329523Y-167989523D01*
X96234285Y-168084761D01*
X96139047Y-168132380D01*
X95948571Y-168132380D01*
X96710476Y-167132380D02*
X97329523Y-167132380D01*
X96996190Y-167513333D01*
X97139047Y-167513333D01*
X97234285Y-167560952D01*
X97281904Y-167608571D01*
X97329523Y-167703809D01*
X97329523Y-167941904D01*
X97281904Y-168037142D01*
X97234285Y-168084761D01*
X97139047Y-168132380D01*
X96853333Y-168132380D01*
X96758095Y-168084761D01*
X96710476Y-168037142D01*
X56492380Y-169076666D02*
X56016190Y-169410000D01*
X56492380Y-169648095D02*
X55492380Y-169648095D01*
X55492380Y-169267142D01*
X55540000Y-169171904D01*
X55587619Y-169124285D01*
X55682857Y-169076666D01*
X55825714Y-169076666D01*
X55920952Y-169124285D01*
X55968571Y-169171904D01*
X56016190Y-169267142D01*
X56016190Y-169648095D01*
X56492380Y-168600476D02*
X56492380Y-168410000D01*
X56444761Y-168314761D01*
X56397142Y-168267142D01*
X56254285Y-168171904D01*
X56063809Y-168124285D01*
X55682857Y-168124285D01*
X55587619Y-168171904D01*
X55540000Y-168219523D01*
X55492380Y-168314761D01*
X55492380Y-168505238D01*
X55540000Y-168600476D01*
X55587619Y-168648095D01*
X55682857Y-168695714D01*
X55920952Y-168695714D01*
X56016190Y-168648095D01*
X56063809Y-168600476D01*
X56111428Y-168505238D01*
X56111428Y-168314761D01*
X56063809Y-168219523D01*
X56016190Y-168171904D01*
X55920952Y-168124285D01*
X106022380Y-130182857D02*
X105546190Y-130516190D01*
X106022380Y-130754285D02*
X105022380Y-130754285D01*
X105022380Y-130373333D01*
X105070000Y-130278095D01*
X105117619Y-130230476D01*
X105212857Y-130182857D01*
X105355714Y-130182857D01*
X105450952Y-130230476D01*
X105498571Y-130278095D01*
X105546190Y-130373333D01*
X105546190Y-130754285D01*
X106022380Y-129230476D02*
X106022380Y-129801904D01*
X106022380Y-129516190D02*
X105022380Y-129516190D01*
X105165238Y-129611428D01*
X105260476Y-129706666D01*
X105308095Y-129801904D01*
X105022380Y-128611428D02*
X105022380Y-128516190D01*
X105070000Y-128420952D01*
X105117619Y-128373333D01*
X105212857Y-128325714D01*
X105403333Y-128278095D01*
X105641428Y-128278095D01*
X105831904Y-128325714D01*
X105927142Y-128373333D01*
X105974761Y-128420952D01*
X106022380Y-128516190D01*
X106022380Y-128611428D01*
X105974761Y-128706666D01*
X105927142Y-128754285D01*
X105831904Y-128801904D01*
X105641428Y-128849523D01*
X105403333Y-128849523D01*
X105212857Y-128801904D01*
X105117619Y-128754285D01*
X105070000Y-128706666D01*
X105022380Y-128611428D01*
X71412380Y-182252857D02*
X70936190Y-182586190D01*
X71412380Y-182824285D02*
X70412380Y-182824285D01*
X70412380Y-182443333D01*
X70460000Y-182348095D01*
X70507619Y-182300476D01*
X70602857Y-182252857D01*
X70745714Y-182252857D01*
X70840952Y-182300476D01*
X70888571Y-182348095D01*
X70936190Y-182443333D01*
X70936190Y-182824285D01*
X71412380Y-181300476D02*
X71412380Y-181871904D01*
X71412380Y-181586190D02*
X70412380Y-181586190D01*
X70555238Y-181681428D01*
X70650476Y-181776666D01*
X70698095Y-181871904D01*
X71412380Y-180348095D02*
X71412380Y-180919523D01*
X71412380Y-180633809D02*
X70412380Y-180633809D01*
X70555238Y-180729047D01*
X70650476Y-180824285D01*
X70698095Y-180919523D01*
X75222380Y-182252857D02*
X74746190Y-182586190D01*
X75222380Y-182824285D02*
X74222380Y-182824285D01*
X74222380Y-182443333D01*
X74270000Y-182348095D01*
X74317619Y-182300476D01*
X74412857Y-182252857D01*
X74555714Y-182252857D01*
X74650952Y-182300476D01*
X74698571Y-182348095D01*
X74746190Y-182443333D01*
X74746190Y-182824285D01*
X75222380Y-181300476D02*
X75222380Y-181871904D01*
X75222380Y-181586190D02*
X74222380Y-181586190D01*
X74365238Y-181681428D01*
X74460476Y-181776666D01*
X74508095Y-181871904D01*
X74317619Y-180919523D02*
X74270000Y-180871904D01*
X74222380Y-180776666D01*
X74222380Y-180538571D01*
X74270000Y-180443333D01*
X74317619Y-180395714D01*
X74412857Y-180348095D01*
X74508095Y-180348095D01*
X74650952Y-180395714D01*
X75222380Y-180967142D01*
X75222380Y-180348095D01*
X79032380Y-182252857D02*
X78556190Y-182586190D01*
X79032380Y-182824285D02*
X78032380Y-182824285D01*
X78032380Y-182443333D01*
X78080000Y-182348095D01*
X78127619Y-182300476D01*
X78222857Y-182252857D01*
X78365714Y-182252857D01*
X78460952Y-182300476D01*
X78508571Y-182348095D01*
X78556190Y-182443333D01*
X78556190Y-182824285D01*
X79032380Y-181300476D02*
X79032380Y-181871904D01*
X79032380Y-181586190D02*
X78032380Y-181586190D01*
X78175238Y-181681428D01*
X78270476Y-181776666D01*
X78318095Y-181871904D01*
X78032380Y-180967142D02*
X78032380Y-180348095D01*
X78413333Y-180681428D01*
X78413333Y-180538571D01*
X78460952Y-180443333D01*
X78508571Y-180395714D01*
X78603809Y-180348095D01*
X78841904Y-180348095D01*
X78937142Y-180395714D01*
X78984761Y-180443333D01*
X79032380Y-180538571D01*
X79032380Y-180824285D01*
X78984761Y-180919523D01*
X78937142Y-180967142D01*
X53632380Y-161932857D02*
X53156190Y-162266190D01*
X53632380Y-162504285D02*
X52632380Y-162504285D01*
X52632380Y-162123333D01*
X52680000Y-162028095D01*
X52727619Y-161980476D01*
X52822857Y-161932857D01*
X52965714Y-161932857D01*
X53060952Y-161980476D01*
X53108571Y-162028095D01*
X53156190Y-162123333D01*
X53156190Y-162504285D01*
X53632380Y-160980476D02*
X53632380Y-161551904D01*
X53632380Y-161266190D02*
X52632380Y-161266190D01*
X52775238Y-161361428D01*
X52870476Y-161456666D01*
X52918095Y-161551904D01*
X52965714Y-160123333D02*
X53632380Y-160123333D01*
X52584761Y-160361428D02*
X53299047Y-160599523D01*
X53299047Y-159980476D01*
X99672380Y-164955357D02*
X99196190Y-165288690D01*
X99672380Y-165526785D02*
X98672380Y-165526785D01*
X98672380Y-165145833D01*
X98720000Y-165050595D01*
X98767619Y-165002976D01*
X98862857Y-164955357D01*
X99005714Y-164955357D01*
X99100952Y-165002976D01*
X99148571Y-165050595D01*
X99196190Y-165145833D01*
X99196190Y-165526785D01*
X99672380Y-164002976D02*
X99672380Y-164574404D01*
X99672380Y-164288690D02*
X98672380Y-164288690D01*
X98815238Y-164383928D01*
X98910476Y-164479166D01*
X98958095Y-164574404D01*
X98672380Y-163098214D02*
X98672380Y-163574404D01*
X99148571Y-163622023D01*
X99100952Y-163574404D01*
X99053333Y-163479166D01*
X99053333Y-163241071D01*
X99100952Y-163145833D01*
X99148571Y-163098214D01*
X99243809Y-163050595D01*
X99481904Y-163050595D01*
X99577142Y-163098214D01*
X99624761Y-163145833D01*
X99672380Y-163241071D01*
X99672380Y-163479166D01*
X99624761Y-163574404D01*
X99577142Y-163622023D01*
X95394642Y-184762380D02*
X95061309Y-184286190D01*
X94823214Y-184762380D02*
X94823214Y-183762380D01*
X95204166Y-183762380D01*
X95299404Y-183810000D01*
X95347023Y-183857619D01*
X95394642Y-183952857D01*
X95394642Y-184095714D01*
X95347023Y-184190952D01*
X95299404Y-184238571D01*
X95204166Y-184286190D01*
X94823214Y-184286190D01*
X96347023Y-184762380D02*
X95775595Y-184762380D01*
X96061309Y-184762380D02*
X96061309Y-183762380D01*
X95966071Y-183905238D01*
X95870833Y-184000476D01*
X95775595Y-184048095D01*
X97204166Y-183762380D02*
X97013690Y-183762380D01*
X96918452Y-183810000D01*
X96870833Y-183857619D01*
X96775595Y-184000476D01*
X96727976Y-184190952D01*
X96727976Y-184571904D01*
X96775595Y-184667142D01*
X96823214Y-184714761D01*
X96918452Y-184762380D01*
X97108928Y-184762380D01*
X97204166Y-184714761D01*
X97251785Y-184667142D01*
X97299404Y-184571904D01*
X97299404Y-184333809D01*
X97251785Y-184238571D01*
X97204166Y-184190952D01*
X97108928Y-184143333D01*
X96918452Y-184143333D01*
X96823214Y-184190952D01*
X96775595Y-184238571D01*
X96727976Y-184333809D01*
X85702380Y-182252857D02*
X85226190Y-182586190D01*
X85702380Y-182824285D02*
X84702380Y-182824285D01*
X84702380Y-182443333D01*
X84750000Y-182348095D01*
X84797619Y-182300476D01*
X84892857Y-182252857D01*
X85035714Y-182252857D01*
X85130952Y-182300476D01*
X85178571Y-182348095D01*
X85226190Y-182443333D01*
X85226190Y-182824285D01*
X85702380Y-181300476D02*
X85702380Y-181871904D01*
X85702380Y-181586190D02*
X84702380Y-181586190D01*
X84845238Y-181681428D01*
X84940476Y-181776666D01*
X84988095Y-181871904D01*
X84702380Y-180967142D02*
X84702380Y-180300476D01*
X85702380Y-180729047D01*
X94592380Y-170822857D02*
X94116190Y-171156190D01*
X94592380Y-171394285D02*
X93592380Y-171394285D01*
X93592380Y-171013333D01*
X93640000Y-170918095D01*
X93687619Y-170870476D01*
X93782857Y-170822857D01*
X93925714Y-170822857D01*
X94020952Y-170870476D01*
X94068571Y-170918095D01*
X94116190Y-171013333D01*
X94116190Y-171394285D01*
X94592380Y-169870476D02*
X94592380Y-170441904D01*
X94592380Y-170156190D02*
X93592380Y-170156190D01*
X93735238Y-170251428D01*
X93830476Y-170346666D01*
X93878095Y-170441904D01*
X94020952Y-169299047D02*
X93973333Y-169394285D01*
X93925714Y-169441904D01*
X93830476Y-169489523D01*
X93782857Y-169489523D01*
X93687619Y-169441904D01*
X93640000Y-169394285D01*
X93592380Y-169299047D01*
X93592380Y-169108571D01*
X93640000Y-169013333D01*
X93687619Y-168965714D01*
X93782857Y-168918095D01*
X93830476Y-168918095D01*
X93925714Y-168965714D01*
X93973333Y-169013333D01*
X94020952Y-169108571D01*
X94020952Y-169299047D01*
X94068571Y-169394285D01*
X94116190Y-169441904D01*
X94211428Y-169489523D01*
X94401904Y-169489523D01*
X94497142Y-169441904D01*
X94544761Y-169394285D01*
X94592380Y-169299047D01*
X94592380Y-169108571D01*
X94544761Y-169013333D01*
X94497142Y-168965714D01*
X94401904Y-168918095D01*
X94211428Y-168918095D01*
X94116190Y-168965714D01*
X94068571Y-169013333D01*
X94020952Y-169108571D01*
X31686666Y-166834761D02*
X31829523Y-166882380D01*
X32067619Y-166882380D01*
X32162857Y-166834761D01*
X32210476Y-166787142D01*
X32258095Y-166691904D01*
X32258095Y-166596666D01*
X32210476Y-166501428D01*
X32162857Y-166453809D01*
X32067619Y-166406190D01*
X31877142Y-166358571D01*
X31781904Y-166310952D01*
X31734285Y-166263333D01*
X31686666Y-166168095D01*
X31686666Y-166072857D01*
X31734285Y-165977619D01*
X31781904Y-165930000D01*
X31877142Y-165882380D01*
X32115238Y-165882380D01*
X32258095Y-165930000D01*
X32591428Y-165882380D02*
X32829523Y-166882380D01*
X33020000Y-166168095D01*
X33210476Y-166882380D01*
X33448571Y-165882380D01*
X34353333Y-166882380D02*
X33781904Y-166882380D01*
X34067619Y-166882380D02*
X34067619Y-165882380D01*
X33972380Y-166025238D01*
X33877142Y-166120476D01*
X33781904Y-166168095D01*
X31686666Y-176994761D02*
X31829523Y-177042380D01*
X32067619Y-177042380D01*
X32162857Y-176994761D01*
X32210476Y-176947142D01*
X32258095Y-176851904D01*
X32258095Y-176756666D01*
X32210476Y-176661428D01*
X32162857Y-176613809D01*
X32067619Y-176566190D01*
X31877142Y-176518571D01*
X31781904Y-176470952D01*
X31734285Y-176423333D01*
X31686666Y-176328095D01*
X31686666Y-176232857D01*
X31734285Y-176137619D01*
X31781904Y-176090000D01*
X31877142Y-176042380D01*
X32115238Y-176042380D01*
X32258095Y-176090000D01*
X32591428Y-176042380D02*
X32829523Y-177042380D01*
X33020000Y-176328095D01*
X33210476Y-177042380D01*
X33448571Y-176042380D01*
X33734285Y-176042380D02*
X34353333Y-176042380D01*
X34020000Y-176423333D01*
X34162857Y-176423333D01*
X34258095Y-176470952D01*
X34305714Y-176518571D01*
X34353333Y-176613809D01*
X34353333Y-176851904D01*
X34305714Y-176947142D01*
X34258095Y-176994761D01*
X34162857Y-177042380D01*
X33877142Y-177042380D01*
X33781904Y-176994761D01*
X33734285Y-176947142D01*
X111991904Y-158162380D02*
X112563333Y-158162380D01*
X112277619Y-159162380D02*
X112277619Y-158162380D01*
X112896666Y-159162380D02*
X112896666Y-158162380D01*
X113277619Y-158162380D01*
X113372857Y-158210000D01*
X113420476Y-158257619D01*
X113468095Y-158352857D01*
X113468095Y-158495714D01*
X113420476Y-158590952D01*
X113372857Y-158638571D01*
X113277619Y-158686190D01*
X112896666Y-158686190D01*
X114420476Y-159162380D02*
X113849047Y-159162380D01*
X114134761Y-159162380D02*
X114134761Y-158162380D01*
X114039523Y-158305238D01*
X113944285Y-158400476D01*
X113849047Y-158448095D01*
X115039523Y-158162380D02*
X115134761Y-158162380D01*
X115230000Y-158210000D01*
X115277619Y-158257619D01*
X115325238Y-158352857D01*
X115372857Y-158543333D01*
X115372857Y-158781428D01*
X115325238Y-158971904D01*
X115277619Y-159067142D01*
X115230000Y-159114761D01*
X115134761Y-159162380D01*
X115039523Y-159162380D01*
X114944285Y-159114761D01*
X114896666Y-159067142D01*
X114849047Y-158971904D01*
X114801428Y-158781428D01*
X114801428Y-158543333D01*
X114849047Y-158352857D01*
X114896666Y-158257619D01*
X114944285Y-158210000D01*
X115039523Y-158162380D01*
X105641904Y-158162380D02*
X106213333Y-158162380D01*
X105927619Y-159162380D02*
X105927619Y-158162380D01*
X106546666Y-159162380D02*
X106546666Y-158162380D01*
X106927619Y-158162380D01*
X107022857Y-158210000D01*
X107070476Y-158257619D01*
X107118095Y-158352857D01*
X107118095Y-158495714D01*
X107070476Y-158590952D01*
X107022857Y-158638571D01*
X106927619Y-158686190D01*
X106546666Y-158686190D01*
X108070476Y-159162380D02*
X107499047Y-159162380D01*
X107784761Y-159162380D02*
X107784761Y-158162380D01*
X107689523Y-158305238D01*
X107594285Y-158400476D01*
X107499047Y-158448095D01*
X109022857Y-159162380D02*
X108451428Y-159162380D01*
X108737142Y-159162380D02*
X108737142Y-158162380D01*
X108641904Y-158305238D01*
X108546666Y-158400476D01*
X108451428Y-158448095D01*
X98021904Y-158162380D02*
X98593333Y-158162380D01*
X98307619Y-159162380D02*
X98307619Y-158162380D01*
X98926666Y-159162380D02*
X98926666Y-158162380D01*
X99307619Y-158162380D01*
X99402857Y-158210000D01*
X99450476Y-158257619D01*
X99498095Y-158352857D01*
X99498095Y-158495714D01*
X99450476Y-158590952D01*
X99402857Y-158638571D01*
X99307619Y-158686190D01*
X98926666Y-158686190D01*
X100450476Y-159162380D02*
X99879047Y-159162380D01*
X100164761Y-159162380D02*
X100164761Y-158162380D01*
X100069523Y-158305238D01*
X99974285Y-158400476D01*
X99879047Y-158448095D01*
X100831428Y-158257619D02*
X100879047Y-158210000D01*
X100974285Y-158162380D01*
X101212380Y-158162380D01*
X101307619Y-158210000D01*
X101355238Y-158257619D01*
X101402857Y-158352857D01*
X101402857Y-158448095D01*
X101355238Y-158590952D01*
X100783809Y-159162380D01*
X101402857Y-159162380D01*
X72621904Y-144192380D02*
X73193333Y-144192380D01*
X72907619Y-145192380D02*
X72907619Y-144192380D01*
X73526666Y-145192380D02*
X73526666Y-144192380D01*
X73907619Y-144192380D01*
X74002857Y-144240000D01*
X74050476Y-144287619D01*
X74098095Y-144382857D01*
X74098095Y-144525714D01*
X74050476Y-144620952D01*
X74002857Y-144668571D01*
X73907619Y-144716190D01*
X73526666Y-144716190D01*
X75050476Y-145192380D02*
X74479047Y-145192380D01*
X74764761Y-145192380D02*
X74764761Y-144192380D01*
X74669523Y-144335238D01*
X74574285Y-144430476D01*
X74479047Y-144478095D01*
X75383809Y-144192380D02*
X76002857Y-144192380D01*
X75669523Y-144573333D01*
X75812380Y-144573333D01*
X75907619Y-144620952D01*
X75955238Y-144668571D01*
X76002857Y-144763809D01*
X76002857Y-145001904D01*
X75955238Y-145097142D01*
X75907619Y-145144761D01*
X75812380Y-145192380D01*
X75526666Y-145192380D01*
X75431428Y-145144761D01*
X75383809Y-145097142D01*
X57381904Y-144192380D02*
X57953333Y-144192380D01*
X57667619Y-145192380D02*
X57667619Y-144192380D01*
X58286666Y-145192380D02*
X58286666Y-144192380D01*
X58667619Y-144192380D01*
X58762857Y-144240000D01*
X58810476Y-144287619D01*
X58858095Y-144382857D01*
X58858095Y-144525714D01*
X58810476Y-144620952D01*
X58762857Y-144668571D01*
X58667619Y-144716190D01*
X58286666Y-144716190D01*
X59810476Y-145192380D02*
X59239047Y-145192380D01*
X59524761Y-145192380D02*
X59524761Y-144192380D01*
X59429523Y-144335238D01*
X59334285Y-144430476D01*
X59239047Y-144478095D01*
X60667619Y-144525714D02*
X60667619Y-145192380D01*
X60429523Y-144144761D02*
X60191428Y-144859047D01*
X60810476Y-144859047D01*
X111991904Y-183562380D02*
X112563333Y-183562380D01*
X112277619Y-184562380D02*
X112277619Y-183562380D01*
X112896666Y-184562380D02*
X112896666Y-183562380D01*
X113277619Y-183562380D01*
X113372857Y-183610000D01*
X113420476Y-183657619D01*
X113468095Y-183752857D01*
X113468095Y-183895714D01*
X113420476Y-183990952D01*
X113372857Y-184038571D01*
X113277619Y-184086190D01*
X112896666Y-184086190D01*
X114420476Y-184562380D02*
X113849047Y-184562380D01*
X114134761Y-184562380D02*
X114134761Y-183562380D01*
X114039523Y-183705238D01*
X113944285Y-183800476D01*
X113849047Y-183848095D01*
X115325238Y-183562380D02*
X114849047Y-183562380D01*
X114801428Y-184038571D01*
X114849047Y-183990952D01*
X114944285Y-183943333D01*
X115182380Y-183943333D01*
X115277619Y-183990952D01*
X115325238Y-184038571D01*
X115372857Y-184133809D01*
X115372857Y-184371904D01*
X115325238Y-184467142D01*
X115277619Y-184514761D01*
X115182380Y-184562380D01*
X114944285Y-184562380D01*
X114849047Y-184514761D01*
X114801428Y-184467142D01*
X104648095Y-166232380D02*
X104648095Y-167041904D01*
X104695714Y-167137142D01*
X104743333Y-167184761D01*
X104838571Y-167232380D01*
X105029047Y-167232380D01*
X105124285Y-167184761D01*
X105171904Y-167137142D01*
X105219523Y-167041904D01*
X105219523Y-166232380D01*
X105600476Y-166232380D02*
X106219523Y-166232380D01*
X105886190Y-166613333D01*
X106029047Y-166613333D01*
X106124285Y-166660952D01*
X106171904Y-166708571D01*
X106219523Y-166803809D01*
X106219523Y-167041904D01*
X106171904Y-167137142D01*
X106124285Y-167184761D01*
X106029047Y-167232380D01*
X105743333Y-167232380D01*
X105648095Y-167184761D01*
X105600476Y-167137142D01*
X79248095Y-158702380D02*
X79248095Y-159511904D01*
X79295714Y-159607142D01*
X79343333Y-159654761D01*
X79438571Y-159702380D01*
X79629047Y-159702380D01*
X79724285Y-159654761D01*
X79771904Y-159607142D01*
X79819523Y-159511904D01*
X79819523Y-158702380D01*
X80724285Y-159035714D02*
X80724285Y-159702380D01*
X80486190Y-158654761D02*
X80248095Y-159369047D01*
X80867142Y-159369047D01*
X74168095Y-136032380D02*
X74168095Y-136841904D01*
X74215714Y-136937142D01*
X74263333Y-136984761D01*
X74358571Y-137032380D01*
X74549047Y-137032380D01*
X74644285Y-136984761D01*
X74691904Y-136937142D01*
X74739523Y-136841904D01*
X74739523Y-136032380D01*
X75691904Y-136032380D02*
X75215714Y-136032380D01*
X75168095Y-136508571D01*
X75215714Y-136460952D01*
X75310952Y-136413333D01*
X75549047Y-136413333D01*
X75644285Y-136460952D01*
X75691904Y-136508571D01*
X75739523Y-136603809D01*
X75739523Y-136841904D01*
X75691904Y-136937142D01*
X75644285Y-136984761D01*
X75549047Y-137032380D01*
X75310952Y-137032380D01*
X75215714Y-136984761D01*
X75168095Y-136937142D01*
X63008095Y-131572380D02*
X63008095Y-132381904D01*
X63055714Y-132477142D01*
X63103333Y-132524761D01*
X63198571Y-132572380D01*
X63389047Y-132572380D01*
X63484285Y-132524761D01*
X63531904Y-132477142D01*
X63579523Y-132381904D01*
X63579523Y-131572380D01*
X64484285Y-131572380D02*
X64293809Y-131572380D01*
X64198571Y-131620000D01*
X64150952Y-131667619D01*
X64055714Y-131810476D01*
X64008095Y-132000952D01*
X64008095Y-132381904D01*
X64055714Y-132477142D01*
X64103333Y-132524761D01*
X64198571Y-132572380D01*
X64389047Y-132572380D01*
X64484285Y-132524761D01*
X64531904Y-132477142D01*
X64579523Y-132381904D01*
X64579523Y-132143809D01*
X64531904Y-132048571D01*
X64484285Y-132000952D01*
X64389047Y-131953333D01*
X64198571Y-131953333D01*
X64103333Y-132000952D01*
X64055714Y-132048571D01*
X64008095Y-132143809D01*
M02*
