G04 #@! TF.GenerationSoftware,KiCad,Pcbnew,(5.0.2)-1*
G04 #@! TF.CreationDate,2019-05-09T18:21:29+02:00*
G04 #@! TF.ProjectId,SafetySystem,53616665-7479-4537-9973-74656d2e6b69,rev?*
G04 #@! TF.SameCoordinates,Original*
G04 #@! TF.FileFunction,Copper,L2,Bot*
G04 #@! TF.FilePolarity,Positive*
%FSLAX46Y46*%
G04 Gerber Fmt 4.6, Leading zero omitted, Abs format (unit mm)*
G04 Created by KiCad (PCBNEW (5.0.2)-1) date 09.05.2019 18:21:29*
%MOMM*%
%LPD*%
G01*
G04 APERTURE LIST*
G04 #@! TA.AperFunction,ComponentPad*
%ADD10C,2.400000*%
G04 #@! TD*
G04 #@! TA.AperFunction,ComponentPad*
%ADD11C,1.550000*%
G04 #@! TD*
G04 #@! TA.AperFunction,ComponentPad*
%ADD12R,1.550000X1.550000*%
G04 #@! TD*
G04 #@! TA.AperFunction,ComponentPad*
%ADD13O,3.048000X1.727200*%
G04 #@! TD*
G04 #@! TA.AperFunction,ComponentPad*
%ADD14C,2.000000*%
G04 #@! TD*
G04 #@! TA.AperFunction,ComponentPad*
%ADD15R,2.600000X2.600000*%
G04 #@! TD*
G04 #@! TA.AperFunction,ComponentPad*
%ADD16C,2.600000*%
G04 #@! TD*
G04 #@! TA.AperFunction,ComponentPad*
%ADD17O,2.400000X1.600000*%
G04 #@! TD*
G04 #@! TA.AperFunction,ComponentPad*
%ADD18R,2.400000X1.600000*%
G04 #@! TD*
G04 #@! TA.AperFunction,ComponentPad*
%ADD19R,2.000000X2.000000*%
G04 #@! TD*
G04 #@! TA.AperFunction,ComponentPad*
%ADD20O,1.727200X1.727200*%
G04 #@! TD*
G04 #@! TA.AperFunction,ComponentPad*
%ADD21R,1.727200X1.727200*%
G04 #@! TD*
G04 #@! TA.AperFunction,ViaPad*
%ADD22C,0.800000*%
G04 #@! TD*
G04 #@! TA.AperFunction,Conductor*
%ADD23C,0.500000*%
G04 #@! TD*
G04 #@! TA.AperFunction,Conductor*
%ADD24C,0.300000*%
G04 #@! TD*
G04 #@! TA.AperFunction,Conductor*
%ADD25C,0.250000*%
G04 #@! TD*
G04 APERTURE END LIST*
D10*
G04 #@! TO.P,U2,4*
G04 #@! TO.N,+5V*
X199750000Y-60000000D03*
G04 #@! TO.P,U2,3*
G04 #@! TO.N,+5VA*
X198350000Y-63350000D03*
G04 #@! TO.P,U2,1*
G04 #@! TO.N,/ADC*
X191650000Y-63350000D03*
G04 #@! TO.P,U2,2*
G04 #@! TO.N,GND*
X190250000Y-60000000D03*
G04 #@! TO.P,U2,1*
G04 #@! TO.N,/ADC*
X191650000Y-56650000D03*
G04 #@! TO.P,U2,3*
G04 #@! TO.N,+5VA*
X198350000Y-56650000D03*
G04 #@! TD*
D11*
G04 #@! TO.P,RV1,3*
G04 #@! TO.N,+5VA*
X203800000Y-72700000D03*
D12*
G04 #@! TO.P,RV1,1*
G04 #@! TO.N,GND*
X208800000Y-72700000D03*
D11*
G04 #@! TO.P,RV1,2*
G04 #@! TO.N,/ADC_POT*
X206300000Y-67700000D03*
G04 #@! TD*
D13*
G04 #@! TO.P,SW3,2*
G04 #@! TO.N,/S_R*
X187200000Y-84500000D03*
G04 #@! TO.P,SW3,1*
G04 #@! TO.N,Net-(Q3-Pad1)*
X187200000Y-89500000D03*
G04 #@! TO.P,SW3,2*
G04 #@! TO.N,/S_R*
X174700000Y-84500000D03*
G04 #@! TO.P,SW3,1*
G04 #@! TO.N,Net-(Q3-Pad1)*
X174700000Y-89500000D03*
G04 #@! TD*
G04 #@! TO.P,SW4,1*
G04 #@! TO.N,/INLET*
X174700000Y-76500000D03*
G04 #@! TO.P,SW4,2*
G04 #@! TO.N,Net-(D13-Pad2)*
X174700000Y-71500000D03*
G04 #@! TO.P,SW4,1*
G04 #@! TO.N,/INLET*
X187200000Y-76500000D03*
G04 #@! TO.P,SW4,2*
G04 #@! TO.N,Net-(D13-Pad2)*
X187200000Y-71500000D03*
G04 #@! TD*
D14*
G04 #@! TO.P,TP6,1*
G04 #@! TO.N,Net-(Q10-Pad1)*
X206400000Y-61800000D03*
G04 #@! TD*
G04 #@! TO.P,TP3,1*
G04 #@! TO.N,GND*
X228000000Y-101000000D03*
G04 #@! TD*
G04 #@! TO.P,TP7,1*
G04 #@! TO.N,Net-(Q9-Pad1)*
X186000000Y-52000000D03*
G04 #@! TD*
G04 #@! TO.P,TP5,1*
G04 #@! TO.N,/SFT_SIG*
X185900000Y-98900000D03*
G04 #@! TD*
G04 #@! TO.P,TP4,1*
G04 #@! TO.N,/ADC*
X190800000Y-70700000D03*
G04 #@! TD*
G04 #@! TO.P,TP1,1*
G04 #@! TO.N,+12V*
X216700000Y-99200000D03*
G04 #@! TD*
G04 #@! TO.P,TP2,1*
G04 #@! TO.N,+5V*
X203800000Y-96600000D03*
G04 #@! TD*
D15*
G04 #@! TO.P,J2,1*
G04 #@! TO.N,+12V*
X164700000Y-91050000D03*
D16*
G04 #@! TO.P,J2,2*
G04 #@! TO.N,/B1*
X169700000Y-87550000D03*
G04 #@! TD*
D17*
G04 #@! TO.P,U4,4*
G04 #@! TO.N,+12V*
X182920000Y-54000000D03*
G04 #@! TO.P,U4,2*
G04 #@! TO.N,Net-(D11-Pad2)*
X175300000Y-56540000D03*
G04 #@! TO.P,U4,3*
G04 #@! TO.N,Net-(Q9-Pad1)*
X182920000Y-56540000D03*
D18*
G04 #@! TO.P,U4,1*
G04 #@! TO.N,Net-(D11-Pad1)*
X175300000Y-54000000D03*
G04 #@! TD*
D15*
G04 #@! TO.P,J1,1*
G04 #@! TO.N,Net-(D1-Pad1)*
X225300000Y-85950000D03*
D16*
G04 #@! TO.P,J1,2*
G04 #@! TO.N,GND*
X220300000Y-89450000D03*
G04 #@! TD*
D14*
G04 #@! TO.P,BZ1,2*
G04 #@! TO.N,Net-(BZ1-Pad2)*
X211000000Y-78300000D03*
D19*
G04 #@! TO.P,BZ1,1*
G04 #@! TO.N,+5V*
X211000000Y-85900000D03*
G04 #@! TD*
D20*
G04 #@! TO.P,J4,10*
G04 #@! TO.N,GND*
X189840000Y-106540000D03*
G04 #@! TO.P,J4,9*
G04 #@! TO.N,/MISO*
X189840000Y-104000000D03*
G04 #@! TO.P,J4,8*
G04 #@! TO.N,GND*
X192380000Y-106540000D03*
G04 #@! TO.P,J4,7*
G04 #@! TO.N,/SCK*
X192380000Y-104000000D03*
G04 #@! TO.P,J4,6*
G04 #@! TO.N,GND*
X194920000Y-106540000D03*
G04 #@! TO.P,J4,5*
G04 #@! TO.N,/RST*
X194920000Y-104000000D03*
G04 #@! TO.P,J4,4*
G04 #@! TO.N,GND*
X197460000Y-106540000D03*
G04 #@! TO.P,J4,3*
G04 #@! TO.N,Net-(J4-Pad3)*
X197460000Y-104000000D03*
G04 #@! TO.P,J4,2*
G04 #@! TO.N,+5V*
X200000000Y-106540000D03*
D21*
G04 #@! TO.P,J4,1*
G04 #@! TO.N,/MOSI*
X200000000Y-104000000D03*
G04 #@! TD*
D15*
G04 #@! TO.P,J3,1*
G04 #@! TO.N,+12V*
X164700000Y-99650000D03*
D16*
G04 #@! TO.P,J3,2*
G04 #@! TO.N,/B2*
X169700000Y-96150000D03*
G04 #@! TD*
D15*
G04 #@! TO.P,J5,1*
G04 #@! TO.N,+12V*
X164700000Y-73850000D03*
D16*
G04 #@! TO.P,J5,2*
G04 #@! TO.N,/INLET*
X169700000Y-70350000D03*
G04 #@! TD*
D15*
G04 #@! TO.P,J7,1*
G04 #@! TO.N,Net-(J7-Pad1)*
X164700000Y-65250000D03*
D16*
G04 #@! TO.P,J7,2*
G04 #@! TO.N,Net-(D11-Pad2)*
X169700000Y-61750000D03*
G04 #@! TD*
D15*
G04 #@! TO.P,J8,1*
G04 #@! TO.N,Net-(J8-Pad1)*
X225300000Y-60150000D03*
D16*
G04 #@! TO.P,J8,2*
G04 #@! TO.N,Net-(D12-Pad2)*
X220300000Y-63650000D03*
G04 #@! TD*
D15*
G04 #@! TO.P,J9,1*
G04 #@! TO.N,+12V*
X164700000Y-82450000D03*
D16*
G04 #@! TO.P,J9,2*
G04 #@! TO.N,Net-(D13-Pad2)*
X169700000Y-78950000D03*
G04 #@! TD*
D15*
G04 #@! TO.P,J10,1*
G04 #@! TO.N,+12V*
X225300000Y-68750000D03*
D16*
G04 #@! TO.P,J10,2*
G04 #@! TO.N,Net-(D14-Pad2)*
X220300000Y-72250000D03*
G04 #@! TD*
D15*
G04 #@! TO.P,J6,1*
G04 #@! TO.N,+12V*
X225300000Y-77350000D03*
D16*
G04 #@! TO.P,J6,2*
G04 #@! TO.N,Net-(D10-Pad2)*
X220300000Y-80850000D03*
G04 #@! TD*
D17*
G04 #@! TO.P,U5,4*
G04 #@! TO.N,+12V*
X207900000Y-56500000D03*
G04 #@! TO.P,U5,2*
G04 #@! TO.N,Net-(D12-Pad2)*
X215520000Y-53960000D03*
G04 #@! TO.P,U5,3*
G04 #@! TO.N,Net-(Q10-Pad1)*
X207900000Y-53960000D03*
D18*
G04 #@! TO.P,U5,1*
G04 #@! TO.N,Net-(D12-Pad1)*
X215520000Y-56500000D03*
G04 #@! TD*
D22*
G04 #@! TO.N,/SFT_SIG*
X181700000Y-99900000D03*
X186100000Y-67200000D03*
X207000000Y-63700000D03*
G04 #@! TO.N,GND*
X195900000Y-87500000D03*
X205000000Y-86000000D03*
X202000000Y-93000000D03*
X204000000Y-100000000D03*
X207000000Y-101000000D03*
X207000000Y-101000000D03*
X207000000Y-101000000D03*
X207000000Y-103000000D03*
X215700000Y-101500000D03*
X218000000Y-103000000D03*
X207000000Y-105000000D03*
X209000000Y-94000000D03*
X212000000Y-88000000D03*
X209000000Y-88000000D03*
X172000000Y-108000000D03*
X173000000Y-101000000D03*
X197000000Y-91000000D03*
X205000000Y-78000000D03*
X211400000Y-67000000D03*
X190000000Y-75000000D03*
X180000000Y-86000000D03*
X192200000Y-87900000D03*
X187000000Y-108000000D03*
X208000000Y-52000000D03*
X182000000Y-52000000D03*
X195000000Y-52000000D03*
G04 #@! TO.N,/H2_SIG*
X180099969Y-108400031D03*
X193000000Y-80600000D03*
G04 #@! TO.N,+12V*
X214400000Y-96450000D03*
X210989294Y-107874990D03*
X172300000Y-83600000D03*
X214400000Y-63100000D03*
X214400000Y-66900000D03*
X183600000Y-64300000D03*
X178991190Y-64331996D03*
G04 #@! TO.N,+5V*
X206451794Y-87300008D03*
X196500008Y-88299998D03*
G04 #@! TO.N,Net-(BZ1-Pad2)*
X201200000Y-75200002D03*
G04 #@! TO.N,/MOSI*
X197700000Y-79500000D03*
G04 #@! TO.N,/MISO*
X196200000Y-78699990D03*
G04 #@! TO.N,/SCK*
X199100000Y-76200000D03*
G04 #@! TO.N,/ADC_POT*
X193000806Y-77200000D03*
G04 #@! TD*
D23*
G04 #@! TO.N,/SFT_SIG*
X181700000Y-99900000D02*
X181700000Y-71600000D01*
X181700000Y-71600000D02*
X186100000Y-67200000D01*
X184900000Y-99900000D02*
X185900000Y-98900000D01*
X181700000Y-99900000D02*
X184900000Y-99900000D01*
X186100000Y-67200000D02*
X203500000Y-67200000D01*
X203500000Y-67200000D02*
X206600001Y-64099999D01*
X206600001Y-64099999D02*
X207000000Y-63700000D01*
D24*
G04 #@! TO.N,/H2_SIG*
X193000000Y-81165685D02*
X193000000Y-80600000D01*
X180099969Y-108400031D02*
X182999969Y-108400031D01*
X193000000Y-98400000D02*
X193000000Y-81165685D01*
X182999969Y-108400031D02*
X193000000Y-98400000D01*
D23*
G04 #@! TO.N,+12V*
X164600000Y-92650000D02*
X164600000Y-99350000D01*
X164600000Y-90850000D02*
X164600000Y-92650000D01*
X214400000Y-104464284D02*
X211389293Y-107474991D01*
X211389293Y-107474991D02*
X210989294Y-107874990D01*
X214400000Y-96450000D02*
X214400000Y-104464284D01*
X164600000Y-88100000D02*
X169100000Y-83600000D01*
X164600000Y-90850000D02*
X164600000Y-88100000D01*
X169100000Y-83600000D02*
X171734315Y-83600000D01*
X171734315Y-83600000D02*
X172300000Y-83600000D01*
X207700000Y-56500000D02*
X207900000Y-56500000D01*
X205200000Y-54000000D02*
X207700000Y-56500000D01*
X183240000Y-54000000D02*
X205200000Y-54000000D01*
X182920000Y-54000000D02*
X182920000Y-53680000D01*
X182920000Y-53680000D02*
X183240000Y-54000000D01*
X207900000Y-56600000D02*
X207900000Y-56500000D01*
X214400000Y-63100000D02*
X207900000Y-56600000D01*
X214400000Y-96450000D02*
X214400000Y-66900000D01*
X214400000Y-63100000D02*
X214400000Y-66900000D01*
X172300000Y-83600000D02*
X178991190Y-76908810D01*
X178991190Y-76908810D02*
X178991190Y-64897681D01*
X178991190Y-64897681D02*
X178991190Y-64331996D01*
X179023186Y-64300000D02*
X178991190Y-64331996D01*
X183600000Y-64300000D02*
X179023186Y-64300000D01*
X179000000Y-57520000D02*
X179000000Y-64323186D01*
X179000000Y-64323186D02*
X178991190Y-64331996D01*
X182920000Y-54000000D02*
X182520000Y-54000000D01*
X182520000Y-54000000D02*
X179000000Y-57520000D01*
G04 #@! TO.N,+5V*
X197065693Y-88299998D02*
X196500008Y-88299998D01*
X206451794Y-87300008D02*
X205451804Y-88299998D01*
X205451804Y-88299998D02*
X197065693Y-88299998D01*
X207851802Y-85900000D02*
X206451794Y-87300008D01*
X211000000Y-85900000D02*
X207851802Y-85900000D01*
G04 #@! TO.N,/INLET*
X169600000Y-70350000D02*
X169600000Y-72700000D01*
X173400000Y-76500000D02*
X174700000Y-76500000D01*
X169600000Y-72700000D02*
X173400000Y-76500000D01*
G04 #@! TO.N,Net-(BZ1-Pad2)*
X211000000Y-78300000D02*
X207900002Y-75200002D01*
X207899998Y-75200002D02*
X201200000Y-75200002D01*
X207900000Y-75200000D02*
X207899998Y-75200002D01*
D25*
G04 #@! TO.N,/MOSI*
X197300001Y-79899999D02*
X197700000Y-79500000D01*
X194400000Y-82800000D02*
X197300001Y-79899999D01*
X194400000Y-98300000D02*
X194400000Y-82800000D01*
X200000000Y-104000000D02*
X200000000Y-103900000D01*
X200000000Y-103900000D02*
X194400000Y-98300000D01*
G04 #@! TO.N,/MISO*
X193499978Y-100340022D02*
X193499978Y-81400012D01*
X189840000Y-104000000D02*
X193499978Y-100340022D01*
X195800001Y-79099989D02*
X196200000Y-78699990D01*
X193499978Y-81400012D02*
X195800001Y-79099989D01*
G04 #@! TO.N,/SCK*
X192380000Y-104000000D02*
X193949989Y-102430011D01*
X193949989Y-82023013D02*
X199100000Y-76873002D01*
X199100000Y-76765685D02*
X199100000Y-76200000D01*
X199100000Y-76873002D02*
X199100000Y-76765685D01*
X193949989Y-102430011D02*
X193949989Y-82023013D01*
D23*
G04 #@! TO.N,/ADC_POT*
X193566491Y-77200000D02*
X193000806Y-77200000D01*
X196100000Y-77200000D02*
X193566491Y-77200000D01*
X206300000Y-67700000D02*
X205600000Y-67700000D01*
X205600000Y-67700000D02*
X196100000Y-77200000D01*
G04 #@! TD*
D25*
G04 #@! TO.N,GND*
G36*
X206387282Y-56071165D02*
X206301981Y-56500000D01*
X206393175Y-56958462D01*
X206652873Y-57347127D01*
X207041538Y-57606825D01*
X207384276Y-57675000D01*
X208091118Y-57675000D01*
X213625000Y-63208883D01*
X213625000Y-63254157D01*
X213742987Y-63539002D01*
X213775000Y-63571015D01*
X213775001Y-66428984D01*
X213742987Y-66460998D01*
X213625000Y-66745843D01*
X213625000Y-67054157D01*
X213742987Y-67339002D01*
X213775001Y-67371016D01*
X213775000Y-95978985D01*
X213742987Y-96010998D01*
X213625000Y-96295843D01*
X213625000Y-96604157D01*
X213742987Y-96889002D01*
X213775000Y-96921015D01*
X213775001Y-104205400D01*
X210990880Y-106989522D01*
X210990877Y-106989524D01*
X210880411Y-107099990D01*
X210835137Y-107099990D01*
X210550292Y-107217977D01*
X210332281Y-107435988D01*
X210214294Y-107720833D01*
X210214294Y-108029147D01*
X210332281Y-108313992D01*
X210550292Y-108532003D01*
X210835137Y-108649990D01*
X211143451Y-108649990D01*
X211428296Y-108532003D01*
X211646307Y-108313992D01*
X211764294Y-108029147D01*
X211764294Y-107983873D01*
X211874760Y-107873407D01*
X211874762Y-107873404D01*
X214798412Y-104949755D01*
X214850600Y-104914884D01*
X214988737Y-104708147D01*
X215008826Y-104607148D01*
X223025000Y-104607148D01*
X223025000Y-105392852D01*
X223325675Y-106118748D01*
X223881252Y-106674325D01*
X224607148Y-106975000D01*
X225392852Y-106975000D01*
X226118748Y-106674325D01*
X226674325Y-106118748D01*
X226975000Y-105392852D01*
X226975000Y-104607148D01*
X226674325Y-103881252D01*
X226118748Y-103325675D01*
X225392852Y-103025000D01*
X224607148Y-103025000D01*
X223881252Y-103325675D01*
X223325675Y-103881252D01*
X223025000Y-104607148D01*
X215008826Y-104607148D01*
X215025000Y-104525839D01*
X215037244Y-104464284D01*
X215025000Y-104402729D01*
X215025000Y-102003793D01*
X227102273Y-102003793D01*
X227207812Y-102217951D01*
X227734204Y-102428397D01*
X228301060Y-102421383D01*
X228792188Y-102217951D01*
X228897727Y-102003793D01*
X228000000Y-101106066D01*
X227102273Y-102003793D01*
X215025000Y-102003793D01*
X215025000Y-100734204D01*
X226571603Y-100734204D01*
X226578617Y-101301060D01*
X226782049Y-101792188D01*
X226996207Y-101897727D01*
X227893934Y-101000000D01*
X228106066Y-101000000D01*
X229003793Y-101897727D01*
X229217951Y-101792188D01*
X229428397Y-101265796D01*
X229421383Y-100698940D01*
X229217951Y-100207812D01*
X229003793Y-100102273D01*
X228106066Y-101000000D01*
X227893934Y-101000000D01*
X226996207Y-100102273D01*
X226782049Y-100207812D01*
X226571603Y-100734204D01*
X215025000Y-100734204D01*
X215025000Y-98926495D01*
X215325000Y-98926495D01*
X215325000Y-99473505D01*
X215534331Y-99978875D01*
X215921125Y-100365669D01*
X216426495Y-100575000D01*
X216973505Y-100575000D01*
X217478875Y-100365669D01*
X217848337Y-99996207D01*
X227102273Y-99996207D01*
X228000000Y-100893934D01*
X228897727Y-99996207D01*
X228792188Y-99782049D01*
X228265796Y-99571603D01*
X227698940Y-99578617D01*
X227207812Y-99782049D01*
X227102273Y-99996207D01*
X217848337Y-99996207D01*
X217865669Y-99978875D01*
X218075000Y-99473505D01*
X218075000Y-98926495D01*
X217865669Y-98421125D01*
X217478875Y-98034331D01*
X216973505Y-97825000D01*
X216426495Y-97825000D01*
X215921125Y-98034331D01*
X215534331Y-98421125D01*
X215325000Y-98926495D01*
X215025000Y-98926495D01*
X215025000Y-96921015D01*
X215057013Y-96889002D01*
X215175000Y-96604157D01*
X215175000Y-96295843D01*
X215057013Y-96010998D01*
X215025000Y-95978985D01*
X215025000Y-90670355D01*
X219185711Y-90670355D01*
X219327823Y-90915684D01*
X219962719Y-91176151D01*
X220648961Y-91173827D01*
X221272177Y-90915684D01*
X221414289Y-90670355D01*
X220300000Y-89556066D01*
X219185711Y-90670355D01*
X215025000Y-90670355D01*
X215025000Y-89112719D01*
X218573849Y-89112719D01*
X218576173Y-89798961D01*
X218834316Y-90422177D01*
X219079645Y-90564289D01*
X220193934Y-89450000D01*
X220406066Y-89450000D01*
X221520355Y-90564289D01*
X221765684Y-90422177D01*
X222026151Y-89787281D01*
X222023827Y-89101039D01*
X221765684Y-88477823D01*
X221520355Y-88335711D01*
X220406066Y-89450000D01*
X220193934Y-89450000D01*
X219079645Y-88335711D01*
X218834316Y-88477823D01*
X218573849Y-89112719D01*
X215025000Y-89112719D01*
X215025000Y-88229645D01*
X219185711Y-88229645D01*
X220300000Y-89343934D01*
X221414289Y-88229645D01*
X221272177Y-87984316D01*
X220637281Y-87723849D01*
X219951039Y-87726173D01*
X219327823Y-87984316D01*
X219185711Y-88229645D01*
X215025000Y-88229645D01*
X215025000Y-84650000D01*
X223617654Y-84650000D01*
X223617654Y-87250000D01*
X223646758Y-87396317D01*
X223729641Y-87520359D01*
X223853683Y-87603242D01*
X224000000Y-87632346D01*
X226600000Y-87632346D01*
X226746317Y-87603242D01*
X226870359Y-87520359D01*
X226953242Y-87396317D01*
X226982346Y-87250000D01*
X226982346Y-84650000D01*
X226953242Y-84503683D01*
X226870359Y-84379641D01*
X226746317Y-84296758D01*
X226600000Y-84267654D01*
X224000000Y-84267654D01*
X223853683Y-84296758D01*
X223729641Y-84379641D01*
X223646758Y-84503683D01*
X223617654Y-84650000D01*
X215025000Y-84650000D01*
X215025000Y-80516822D01*
X218625000Y-80516822D01*
X218625000Y-81183178D01*
X218880004Y-81798811D01*
X219351189Y-82269996D01*
X219966822Y-82525000D01*
X220633178Y-82525000D01*
X221248811Y-82269996D01*
X221719996Y-81798811D01*
X221975000Y-81183178D01*
X221975000Y-80516822D01*
X221719996Y-79901189D01*
X221248811Y-79430004D01*
X220633178Y-79175000D01*
X219966822Y-79175000D01*
X219351189Y-79430004D01*
X218880004Y-79901189D01*
X218625000Y-80516822D01*
X215025000Y-80516822D01*
X215025000Y-76050000D01*
X223617654Y-76050000D01*
X223617654Y-78650000D01*
X223646758Y-78796317D01*
X223729641Y-78920359D01*
X223853683Y-79003242D01*
X224000000Y-79032346D01*
X226600000Y-79032346D01*
X226746317Y-79003242D01*
X226870359Y-78920359D01*
X226953242Y-78796317D01*
X226982346Y-78650000D01*
X226982346Y-76050000D01*
X226953242Y-75903683D01*
X226870359Y-75779641D01*
X226746317Y-75696758D01*
X226600000Y-75667654D01*
X224000000Y-75667654D01*
X223853683Y-75696758D01*
X223729641Y-75779641D01*
X223646758Y-75903683D01*
X223617654Y-76050000D01*
X215025000Y-76050000D01*
X215025000Y-71916822D01*
X218625000Y-71916822D01*
X218625000Y-72583178D01*
X218880004Y-73198811D01*
X219351189Y-73669996D01*
X219966822Y-73925000D01*
X220633178Y-73925000D01*
X221248811Y-73669996D01*
X221719996Y-73198811D01*
X221975000Y-72583178D01*
X221975000Y-71916822D01*
X221719996Y-71301189D01*
X221248811Y-70830004D01*
X220633178Y-70575000D01*
X219966822Y-70575000D01*
X219351189Y-70830004D01*
X218880004Y-71301189D01*
X218625000Y-71916822D01*
X215025000Y-71916822D01*
X215025000Y-67371015D01*
X215057013Y-67339002D01*
X215175000Y-67054157D01*
X215175000Y-66745843D01*
X215057013Y-66460998D01*
X215025000Y-66428985D01*
X215025000Y-63571015D01*
X215057013Y-63539002D01*
X215146408Y-63323184D01*
X218911612Y-67088388D01*
X218952165Y-67115485D01*
X219000000Y-67125000D01*
X223811416Y-67125000D01*
X223729641Y-67179641D01*
X223646758Y-67303683D01*
X223617654Y-67450000D01*
X223617654Y-70050000D01*
X223646758Y-70196317D01*
X223729641Y-70320359D01*
X223853683Y-70403242D01*
X224000000Y-70432346D01*
X226600000Y-70432346D01*
X226746317Y-70403242D01*
X226870359Y-70320359D01*
X226953242Y-70196317D01*
X226982346Y-70050000D01*
X226982346Y-67450000D01*
X226953242Y-67303683D01*
X226870359Y-67179641D01*
X226788584Y-67125000D01*
X229550000Y-67125000D01*
X229550001Y-109550000D01*
X160450000Y-109550000D01*
X160450000Y-108245874D01*
X179324969Y-108245874D01*
X179324969Y-108554188D01*
X179442956Y-108839033D01*
X179660967Y-109057044D01*
X179945812Y-109175031D01*
X180254126Y-109175031D01*
X180538971Y-109057044D01*
X180670984Y-108925031D01*
X182948263Y-108925031D01*
X182999969Y-108935316D01*
X183051675Y-108925031D01*
X183204814Y-108894570D01*
X183378473Y-108778535D01*
X183407766Y-108734695D01*
X185327144Y-106815317D01*
X188581149Y-106815317D01*
X188782333Y-107276101D01*
X189144537Y-107624820D01*
X189564684Y-107798845D01*
X189765000Y-107719969D01*
X189765000Y-106615000D01*
X189915000Y-106615000D01*
X189915000Y-107719969D01*
X190115316Y-107798845D01*
X190535463Y-107624820D01*
X190897667Y-107276101D01*
X191098851Y-106815317D01*
X191121149Y-106815317D01*
X191322333Y-107276101D01*
X191684537Y-107624820D01*
X192104684Y-107798845D01*
X192305000Y-107719969D01*
X192305000Y-106615000D01*
X192455000Y-106615000D01*
X192455000Y-107719969D01*
X192655316Y-107798845D01*
X193075463Y-107624820D01*
X193437667Y-107276101D01*
X193638851Y-106815317D01*
X193661149Y-106815317D01*
X193862333Y-107276101D01*
X194224537Y-107624820D01*
X194644684Y-107798845D01*
X194845000Y-107719969D01*
X194845000Y-106615000D01*
X194995000Y-106615000D01*
X194995000Y-107719969D01*
X195195316Y-107798845D01*
X195615463Y-107624820D01*
X195977667Y-107276101D01*
X196178851Y-106815317D01*
X196201149Y-106815317D01*
X196402333Y-107276101D01*
X196764537Y-107624820D01*
X197184684Y-107798845D01*
X197385000Y-107719969D01*
X197385000Y-106615000D01*
X196279828Y-106615000D01*
X196201149Y-106815317D01*
X196178851Y-106815317D01*
X196100172Y-106615000D01*
X194995000Y-106615000D01*
X194845000Y-106615000D01*
X193739828Y-106615000D01*
X193661149Y-106815317D01*
X193638851Y-106815317D01*
X193560172Y-106615000D01*
X192455000Y-106615000D01*
X192305000Y-106615000D01*
X191199828Y-106615000D01*
X191121149Y-106815317D01*
X191098851Y-106815317D01*
X191020172Y-106615000D01*
X189915000Y-106615000D01*
X189765000Y-106615000D01*
X188659828Y-106615000D01*
X188581149Y-106815317D01*
X185327144Y-106815317D01*
X185877778Y-106264683D01*
X188581149Y-106264683D01*
X188659828Y-106465000D01*
X189765000Y-106465000D01*
X189765000Y-105360031D01*
X189915000Y-105360031D01*
X189915000Y-106465000D01*
X191020172Y-106465000D01*
X191098851Y-106264683D01*
X191121149Y-106264683D01*
X191199828Y-106465000D01*
X192305000Y-106465000D01*
X192305000Y-105360031D01*
X192455000Y-105360031D01*
X192455000Y-106465000D01*
X193560172Y-106465000D01*
X193638851Y-106264683D01*
X193661149Y-106264683D01*
X193739828Y-106465000D01*
X194845000Y-106465000D01*
X194845000Y-105360031D01*
X194995000Y-105360031D01*
X194995000Y-106465000D01*
X196100172Y-106465000D01*
X196178851Y-106264683D01*
X196201149Y-106264683D01*
X196279828Y-106465000D01*
X197385000Y-106465000D01*
X197385000Y-105360031D01*
X197535000Y-105360031D01*
X197535000Y-106465000D01*
X197555000Y-106465000D01*
X197555000Y-106615000D01*
X197535000Y-106615000D01*
X197535000Y-107719969D01*
X197735316Y-107798845D01*
X198155463Y-107624820D01*
X198517667Y-107276101D01*
X198718851Y-106815317D01*
X198640173Y-106615002D01*
X198748600Y-106615002D01*
X198748600Y-106597638D01*
X198833265Y-107023278D01*
X199107020Y-107432980D01*
X199516722Y-107706735D01*
X199878012Y-107778600D01*
X200121988Y-107778600D01*
X200483278Y-107706735D01*
X200892980Y-107432980D01*
X201166735Y-107023278D01*
X201262865Y-106540000D01*
X201166735Y-106056722D01*
X200892980Y-105647020D01*
X200483278Y-105373265D01*
X200121988Y-105301400D01*
X199878012Y-105301400D01*
X199516722Y-105373265D01*
X199107020Y-105647020D01*
X198833265Y-106056722D01*
X198748600Y-106482362D01*
X198748600Y-106464998D01*
X198640173Y-106464998D01*
X198718851Y-106264683D01*
X198517667Y-105803899D01*
X198155463Y-105455180D01*
X197735316Y-105281155D01*
X197535000Y-105360031D01*
X197385000Y-105360031D01*
X197184684Y-105281155D01*
X196764537Y-105455180D01*
X196402333Y-105803899D01*
X196201149Y-106264683D01*
X196178851Y-106264683D01*
X195977667Y-105803899D01*
X195615463Y-105455180D01*
X195195316Y-105281155D01*
X194995000Y-105360031D01*
X194845000Y-105360031D01*
X194644684Y-105281155D01*
X194224537Y-105455180D01*
X193862333Y-105803899D01*
X193661149Y-106264683D01*
X193638851Y-106264683D01*
X193437667Y-105803899D01*
X193075463Y-105455180D01*
X192655316Y-105281155D01*
X192455000Y-105360031D01*
X192305000Y-105360031D01*
X192104684Y-105281155D01*
X191684537Y-105455180D01*
X191322333Y-105803899D01*
X191121149Y-106264683D01*
X191098851Y-106264683D01*
X190897667Y-105803899D01*
X190535463Y-105455180D01*
X190115316Y-105281155D01*
X189915000Y-105360031D01*
X189765000Y-105360031D01*
X189564684Y-105281155D01*
X189144537Y-105455180D01*
X188782333Y-105803899D01*
X188581149Y-106264683D01*
X185877778Y-106264683D01*
X188768967Y-103373495D01*
X188673265Y-103516722D01*
X188577135Y-104000000D01*
X188673265Y-104483278D01*
X188947020Y-104892980D01*
X189356722Y-105166735D01*
X189718012Y-105238600D01*
X189961988Y-105238600D01*
X190323278Y-105166735D01*
X190732980Y-104892980D01*
X191006735Y-104483278D01*
X191102865Y-104000000D01*
X191010659Y-103536447D01*
X193449989Y-101097117D01*
X193449989Y-102222904D01*
X192843552Y-102829341D01*
X192501988Y-102761400D01*
X192258012Y-102761400D01*
X191896722Y-102833265D01*
X191487020Y-103107020D01*
X191213265Y-103516722D01*
X191117135Y-104000000D01*
X191213265Y-104483278D01*
X191487020Y-104892980D01*
X191896722Y-105166735D01*
X192258012Y-105238600D01*
X192501988Y-105238600D01*
X192863278Y-105166735D01*
X193272980Y-104892980D01*
X193546735Y-104483278D01*
X193642865Y-104000000D01*
X193657135Y-104000000D01*
X193753265Y-104483278D01*
X194027020Y-104892980D01*
X194436722Y-105166735D01*
X194798012Y-105238600D01*
X195041988Y-105238600D01*
X195403278Y-105166735D01*
X195812980Y-104892980D01*
X196086735Y-104483278D01*
X196182865Y-104000000D01*
X196197135Y-104000000D01*
X196293265Y-104483278D01*
X196567020Y-104892980D01*
X196976722Y-105166735D01*
X197338012Y-105238600D01*
X197581988Y-105238600D01*
X197943278Y-105166735D01*
X198352980Y-104892980D01*
X198626735Y-104483278D01*
X198722865Y-104000000D01*
X198626735Y-103516722D01*
X198352980Y-103107020D01*
X197943278Y-102833265D01*
X197581988Y-102761400D01*
X197338012Y-102761400D01*
X196976722Y-102833265D01*
X196567020Y-103107020D01*
X196293265Y-103516722D01*
X196197135Y-104000000D01*
X196182865Y-104000000D01*
X196086735Y-103516722D01*
X195812980Y-103107020D01*
X195403278Y-102833265D01*
X195041988Y-102761400D01*
X194798012Y-102761400D01*
X194436722Y-102833265D01*
X194027020Y-103107020D01*
X193753265Y-103516722D01*
X193657135Y-104000000D01*
X193642865Y-104000000D01*
X193550659Y-103536448D01*
X194268722Y-102818385D01*
X194310469Y-102790491D01*
X194420978Y-102625101D01*
X194449989Y-102479254D01*
X194449989Y-102479253D01*
X194459784Y-102430011D01*
X194449989Y-102380768D01*
X194449989Y-99057095D01*
X198754054Y-103361161D01*
X198754054Y-104863600D01*
X198783158Y-105009917D01*
X198866041Y-105133959D01*
X198990083Y-105216842D01*
X199136400Y-105245946D01*
X200863600Y-105245946D01*
X201009917Y-105216842D01*
X201133959Y-105133959D01*
X201216842Y-105009917D01*
X201245946Y-104863600D01*
X201245946Y-103136400D01*
X201216842Y-102990083D01*
X201133959Y-102866041D01*
X201009917Y-102783158D01*
X200863600Y-102754054D01*
X199561161Y-102754054D01*
X194900000Y-98092894D01*
X194900000Y-96326495D01*
X202425000Y-96326495D01*
X202425000Y-96873505D01*
X202634331Y-97378875D01*
X203021125Y-97765669D01*
X203526495Y-97975000D01*
X204073505Y-97975000D01*
X204578875Y-97765669D01*
X204965669Y-97378875D01*
X205175000Y-96873505D01*
X205175000Y-96326495D01*
X204965669Y-95821125D01*
X204578875Y-95434331D01*
X204073505Y-95225000D01*
X203526495Y-95225000D01*
X203021125Y-95434331D01*
X202634331Y-95821125D01*
X202425000Y-96326495D01*
X194900000Y-96326495D01*
X194900000Y-88145841D01*
X195725008Y-88145841D01*
X195725008Y-88454155D01*
X195842995Y-88739000D01*
X196061006Y-88957011D01*
X196345851Y-89074998D01*
X196654165Y-89074998D01*
X196939010Y-88957011D01*
X196971023Y-88924998D01*
X205390249Y-88924998D01*
X205451804Y-88937242D01*
X205513359Y-88924998D01*
X205695667Y-88888735D01*
X205902404Y-88750598D01*
X205937276Y-88698408D01*
X206560677Y-88075008D01*
X206605951Y-88075008D01*
X206890796Y-87957021D01*
X207108807Y-87739010D01*
X207226794Y-87454165D01*
X207226794Y-87408890D01*
X208110685Y-86525000D01*
X209617654Y-86525000D01*
X209617654Y-86900000D01*
X209646758Y-87046317D01*
X209729641Y-87170359D01*
X209853683Y-87253242D01*
X210000000Y-87282346D01*
X212000000Y-87282346D01*
X212146317Y-87253242D01*
X212270359Y-87170359D01*
X212353242Y-87046317D01*
X212382346Y-86900000D01*
X212382346Y-84900000D01*
X212353242Y-84753683D01*
X212270359Y-84629641D01*
X212146317Y-84546758D01*
X212000000Y-84517654D01*
X210000000Y-84517654D01*
X209853683Y-84546758D01*
X209729641Y-84629641D01*
X209646758Y-84753683D01*
X209617654Y-84900000D01*
X209617654Y-85275000D01*
X207913355Y-85275000D01*
X207851801Y-85262756D01*
X207790247Y-85275000D01*
X207607939Y-85311263D01*
X207401202Y-85449400D01*
X207366331Y-85501588D01*
X206342912Y-86525008D01*
X206297637Y-86525008D01*
X206012792Y-86642995D01*
X205794781Y-86861006D01*
X205676794Y-87145851D01*
X205676794Y-87191125D01*
X205192922Y-87674998D01*
X196971023Y-87674998D01*
X196939010Y-87642985D01*
X196654165Y-87524998D01*
X196345851Y-87524998D01*
X196061006Y-87642985D01*
X195842995Y-87860996D01*
X195725008Y-88145841D01*
X194900000Y-88145841D01*
X194900000Y-83007106D01*
X197632107Y-80275000D01*
X197854157Y-80275000D01*
X198139002Y-80157013D01*
X198357013Y-79939002D01*
X198475000Y-79654157D01*
X198475000Y-79345843D01*
X198357013Y-79060998D01*
X198139002Y-78842987D01*
X197925541Y-78754568D01*
X199418733Y-77261376D01*
X199460480Y-77233482D01*
X199570989Y-77068092D01*
X199600000Y-76922245D01*
X199600000Y-76922244D01*
X199609795Y-76873003D01*
X199600000Y-76823762D01*
X199600000Y-76796015D01*
X199757013Y-76639002D01*
X199875000Y-76354157D01*
X199875000Y-76045843D01*
X199757013Y-75760998D01*
X199539002Y-75542987D01*
X199254157Y-75425000D01*
X198945843Y-75425000D01*
X198660998Y-75542987D01*
X198442987Y-75760998D01*
X198325000Y-76045843D01*
X198325000Y-76354157D01*
X198442987Y-76639002D01*
X198534940Y-76730955D01*
X196900330Y-78365565D01*
X196857013Y-78260988D01*
X196639002Y-78042977D01*
X196354157Y-77924990D01*
X196045843Y-77924990D01*
X195760998Y-78042977D01*
X195542987Y-78260988D01*
X195425000Y-78545833D01*
X195425000Y-78767883D01*
X193766811Y-80426073D01*
X193657013Y-80160998D01*
X193439002Y-79942987D01*
X193154157Y-79825000D01*
X192845843Y-79825000D01*
X192560998Y-79942987D01*
X192342987Y-80160998D01*
X192225000Y-80445843D01*
X192225000Y-80754157D01*
X192342987Y-81039002D01*
X192475000Y-81171015D01*
X192475000Y-81217390D01*
X192475001Y-81217395D01*
X192475000Y-98182538D01*
X182782508Y-107875031D01*
X180670984Y-107875031D01*
X180538971Y-107743018D01*
X180254126Y-107625031D01*
X179945812Y-107625031D01*
X179660967Y-107743018D01*
X179442956Y-107961029D01*
X179324969Y-108245874D01*
X160450000Y-108245874D01*
X160450000Y-104607148D01*
X163025000Y-104607148D01*
X163025000Y-105392852D01*
X163325675Y-106118748D01*
X163881252Y-106674325D01*
X164607148Y-106975000D01*
X165392852Y-106975000D01*
X166118748Y-106674325D01*
X166674325Y-106118748D01*
X166975000Y-105392852D01*
X166975000Y-104607148D01*
X166674325Y-103881252D01*
X166118748Y-103325675D01*
X165392852Y-103025000D01*
X164607148Y-103025000D01*
X163881252Y-103325675D01*
X163325675Y-103881252D01*
X163025000Y-104607148D01*
X160450000Y-104607148D01*
X160450000Y-81150000D01*
X163017654Y-81150000D01*
X163017654Y-83750000D01*
X163046758Y-83896317D01*
X163129641Y-84020359D01*
X163253683Y-84103242D01*
X163400000Y-84132346D01*
X166000000Y-84132346D01*
X166146317Y-84103242D01*
X166270359Y-84020359D01*
X166353242Y-83896317D01*
X166382346Y-83750000D01*
X166382346Y-81150000D01*
X166353242Y-81003683D01*
X166270359Y-80879641D01*
X166146317Y-80796758D01*
X166000000Y-80767654D01*
X163400000Y-80767654D01*
X163253683Y-80796758D01*
X163129641Y-80879641D01*
X163046758Y-81003683D01*
X163017654Y-81150000D01*
X160450000Y-81150000D01*
X160450000Y-78616822D01*
X168025000Y-78616822D01*
X168025000Y-79283178D01*
X168280004Y-79898811D01*
X168751189Y-80369996D01*
X169366822Y-80625000D01*
X170033178Y-80625000D01*
X170648811Y-80369996D01*
X171119996Y-79898811D01*
X171375000Y-79283178D01*
X171375000Y-78616822D01*
X171119996Y-78001189D01*
X170648811Y-77530004D01*
X170033178Y-77275000D01*
X169366822Y-77275000D01*
X168751189Y-77530004D01*
X168280004Y-78001189D01*
X168025000Y-78616822D01*
X160450000Y-78616822D01*
X160450000Y-72550000D01*
X163017654Y-72550000D01*
X163017654Y-75150000D01*
X163046758Y-75296317D01*
X163129641Y-75420359D01*
X163253683Y-75503242D01*
X163400000Y-75532346D01*
X166000000Y-75532346D01*
X166146317Y-75503242D01*
X166270359Y-75420359D01*
X166353242Y-75296317D01*
X166382346Y-75150000D01*
X166382346Y-72550000D01*
X166353242Y-72403683D01*
X166270359Y-72279641D01*
X166146317Y-72196758D01*
X166000000Y-72167654D01*
X163400000Y-72167654D01*
X163253683Y-72196758D01*
X163129641Y-72279641D01*
X163046758Y-72403683D01*
X163017654Y-72550000D01*
X160450000Y-72550000D01*
X160450000Y-70016822D01*
X168025000Y-70016822D01*
X168025000Y-70683178D01*
X168280004Y-71298811D01*
X168751189Y-71769996D01*
X168975001Y-71862702D01*
X168975001Y-72638440D01*
X168962756Y-72700000D01*
X169011263Y-72943862D01*
X169011264Y-72943863D01*
X169149401Y-73150600D01*
X169201588Y-73185470D01*
X172841447Y-76825331D01*
X172872865Y-76983278D01*
X173146620Y-77392980D01*
X173556322Y-77666735D01*
X173917612Y-77738600D01*
X175482388Y-77738600D01*
X175843678Y-77666735D01*
X176253380Y-77392980D01*
X176527135Y-76983278D01*
X176623265Y-76500000D01*
X176527135Y-76016722D01*
X176253380Y-75607020D01*
X175843678Y-75333265D01*
X175482388Y-75261400D01*
X173917612Y-75261400D01*
X173556322Y-75333265D01*
X173293057Y-75509173D01*
X170225000Y-72441118D01*
X170225000Y-71945545D01*
X170648811Y-71769996D01*
X170918807Y-71500000D01*
X172776735Y-71500000D01*
X172872865Y-71983278D01*
X173146620Y-72392980D01*
X173556322Y-72666735D01*
X173917612Y-72738600D01*
X175482388Y-72738600D01*
X175843678Y-72666735D01*
X176253380Y-72392980D01*
X176527135Y-71983278D01*
X176623265Y-71500000D01*
X176527135Y-71016722D01*
X176253380Y-70607020D01*
X175843678Y-70333265D01*
X175482388Y-70261400D01*
X173917612Y-70261400D01*
X173556322Y-70333265D01*
X173146620Y-70607020D01*
X172872865Y-71016722D01*
X172776735Y-71500000D01*
X170918807Y-71500000D01*
X171119996Y-71298811D01*
X171375000Y-70683178D01*
X171375000Y-70016822D01*
X171119996Y-69401189D01*
X170648811Y-68930004D01*
X170033178Y-68675000D01*
X169366822Y-68675000D01*
X168751189Y-68930004D01*
X168280004Y-69401189D01*
X168025000Y-70016822D01*
X160450000Y-70016822D01*
X160450000Y-67125000D01*
X171000000Y-67125000D01*
X171047835Y-67115485D01*
X171088388Y-67088388D01*
X178375000Y-59801776D01*
X178375001Y-63852170D01*
X178334177Y-63892994D01*
X178216190Y-64177839D01*
X178216190Y-64486153D01*
X178334177Y-64770998D01*
X178366190Y-64803011D01*
X178366190Y-64959235D01*
X178366191Y-64959240D01*
X178366190Y-76649927D01*
X172191118Y-82825000D01*
X172145843Y-82825000D01*
X171860998Y-82942987D01*
X171828985Y-82975000D01*
X169161554Y-82975000D01*
X169099999Y-82962756D01*
X168856137Y-83011263D01*
X168649400Y-83149400D01*
X168614529Y-83201588D01*
X164201588Y-87614530D01*
X164149401Y-87649400D01*
X164089526Y-87739010D01*
X164011263Y-87856138D01*
X163962756Y-88100000D01*
X163975001Y-88161560D01*
X163975001Y-89367654D01*
X163400000Y-89367654D01*
X163253683Y-89396758D01*
X163129641Y-89479641D01*
X163046758Y-89603683D01*
X163017654Y-89750000D01*
X163017654Y-92350000D01*
X163046758Y-92496317D01*
X163129641Y-92620359D01*
X163253683Y-92703242D01*
X163400000Y-92732346D01*
X163975000Y-92732346D01*
X163975001Y-97967654D01*
X163400000Y-97967654D01*
X163253683Y-97996758D01*
X163129641Y-98079641D01*
X163046758Y-98203683D01*
X163017654Y-98350000D01*
X163017654Y-100950000D01*
X163046758Y-101096317D01*
X163129641Y-101220359D01*
X163253683Y-101303242D01*
X163400000Y-101332346D01*
X166000000Y-101332346D01*
X166146317Y-101303242D01*
X166270359Y-101220359D01*
X166353242Y-101096317D01*
X166382346Y-100950000D01*
X166382346Y-99745843D01*
X180925000Y-99745843D01*
X180925000Y-100054157D01*
X181042987Y-100339002D01*
X181260998Y-100557013D01*
X181545843Y-100675000D01*
X181854157Y-100675000D01*
X182139002Y-100557013D01*
X182171015Y-100525000D01*
X184838445Y-100525000D01*
X184900000Y-100537244D01*
X184961555Y-100525000D01*
X185143863Y-100488737D01*
X185350600Y-100350600D01*
X185385472Y-100298410D01*
X185472620Y-100211263D01*
X185626495Y-100275000D01*
X186173505Y-100275000D01*
X186678875Y-100065669D01*
X187065669Y-99678875D01*
X187275000Y-99173505D01*
X187275000Y-98626495D01*
X187065669Y-98121125D01*
X186678875Y-97734331D01*
X186173505Y-97525000D01*
X185626495Y-97525000D01*
X185121125Y-97734331D01*
X184734331Y-98121125D01*
X184525000Y-98626495D01*
X184525000Y-99173505D01*
X184567041Y-99275000D01*
X182325000Y-99275000D01*
X182325000Y-89500000D01*
X185276735Y-89500000D01*
X185372865Y-89983278D01*
X185646620Y-90392980D01*
X186056322Y-90666735D01*
X186417612Y-90738600D01*
X187982388Y-90738600D01*
X188343678Y-90666735D01*
X188753380Y-90392980D01*
X189027135Y-89983278D01*
X189123265Y-89500000D01*
X189027135Y-89016722D01*
X188753380Y-88607020D01*
X188343678Y-88333265D01*
X187982388Y-88261400D01*
X186417612Y-88261400D01*
X186056322Y-88333265D01*
X185646620Y-88607020D01*
X185372865Y-89016722D01*
X185276735Y-89500000D01*
X182325000Y-89500000D01*
X182325000Y-84500000D01*
X185276735Y-84500000D01*
X185372865Y-84983278D01*
X185646620Y-85392980D01*
X186056322Y-85666735D01*
X186417612Y-85738600D01*
X187982388Y-85738600D01*
X188343678Y-85666735D01*
X188753380Y-85392980D01*
X189027135Y-84983278D01*
X189123265Y-84500000D01*
X189027135Y-84016722D01*
X188753380Y-83607020D01*
X188343678Y-83333265D01*
X187982388Y-83261400D01*
X186417612Y-83261400D01*
X186056322Y-83333265D01*
X185646620Y-83607020D01*
X185372865Y-84016722D01*
X185276735Y-84500000D01*
X182325000Y-84500000D01*
X182325000Y-76500000D01*
X185276735Y-76500000D01*
X185372865Y-76983278D01*
X185646620Y-77392980D01*
X186056322Y-77666735D01*
X186417612Y-77738600D01*
X187982388Y-77738600D01*
X188343678Y-77666735D01*
X188753380Y-77392980D01*
X188985330Y-77045843D01*
X192225806Y-77045843D01*
X192225806Y-77354157D01*
X192343793Y-77639002D01*
X192561804Y-77857013D01*
X192846649Y-77975000D01*
X193154963Y-77975000D01*
X193439808Y-77857013D01*
X193471821Y-77825000D01*
X196038445Y-77825000D01*
X196100000Y-77837244D01*
X196161555Y-77825000D01*
X196343863Y-77788737D01*
X196550600Y-77650600D01*
X196585473Y-77598409D01*
X199138037Y-75045845D01*
X200425000Y-75045845D01*
X200425000Y-75354159D01*
X200542987Y-75639004D01*
X200760998Y-75857015D01*
X201045843Y-75975002D01*
X201354157Y-75975002D01*
X201639002Y-75857015D01*
X201671015Y-75825002D01*
X207641120Y-75825002D01*
X209688737Y-77872620D01*
X209625000Y-78026495D01*
X209625000Y-78573505D01*
X209834331Y-79078875D01*
X210221125Y-79465669D01*
X210726495Y-79675000D01*
X211273505Y-79675000D01*
X211778875Y-79465669D01*
X212165669Y-79078875D01*
X212375000Y-78573505D01*
X212375000Y-78026495D01*
X212165669Y-77521125D01*
X211778875Y-77134331D01*
X211273505Y-76925000D01*
X210726495Y-76925000D01*
X210572620Y-76988737D01*
X208385468Y-74801586D01*
X208350599Y-74749401D01*
X208143862Y-74611263D01*
X207900000Y-74562756D01*
X207838435Y-74575002D01*
X201671015Y-74575002D01*
X201639002Y-74542989D01*
X201354157Y-74425002D01*
X201045843Y-74425002D01*
X200760998Y-74542989D01*
X200542987Y-74761000D01*
X200425000Y-75045845D01*
X199138037Y-75045845D01*
X201712631Y-72471251D01*
X202650000Y-72471251D01*
X202650000Y-72928749D01*
X202825077Y-73351423D01*
X203148577Y-73674923D01*
X203571251Y-73850000D01*
X204028749Y-73850000D01*
X204451423Y-73674923D01*
X204774923Y-73351423D01*
X204950000Y-72928749D01*
X204950000Y-72881250D01*
X207600000Y-72881250D01*
X207600000Y-73559538D01*
X207664702Y-73715743D01*
X207784257Y-73835298D01*
X207940462Y-73900000D01*
X208618750Y-73900000D01*
X208725000Y-73793750D01*
X208725000Y-72775000D01*
X208875000Y-72775000D01*
X208875000Y-73793750D01*
X208981250Y-73900000D01*
X209659538Y-73900000D01*
X209815743Y-73835298D01*
X209935298Y-73715743D01*
X210000000Y-73559538D01*
X210000000Y-72881250D01*
X209893750Y-72775000D01*
X208875000Y-72775000D01*
X208725000Y-72775000D01*
X207706250Y-72775000D01*
X207600000Y-72881250D01*
X204950000Y-72881250D01*
X204950000Y-72471251D01*
X204774923Y-72048577D01*
X204566808Y-71840462D01*
X207600000Y-71840462D01*
X207600000Y-72518750D01*
X207706250Y-72625000D01*
X208725000Y-72625000D01*
X208725000Y-71606250D01*
X208875000Y-71606250D01*
X208875000Y-72625000D01*
X209893750Y-72625000D01*
X210000000Y-72518750D01*
X210000000Y-71840462D01*
X209935298Y-71684257D01*
X209815743Y-71564702D01*
X209659538Y-71500000D01*
X208981250Y-71500000D01*
X208875000Y-71606250D01*
X208725000Y-71606250D01*
X208618750Y-71500000D01*
X207940462Y-71500000D01*
X207784257Y-71564702D01*
X207664702Y-71684257D01*
X207600000Y-71840462D01*
X204566808Y-71840462D01*
X204451423Y-71725077D01*
X204028749Y-71550000D01*
X203571251Y-71550000D01*
X203148577Y-71725077D01*
X202825077Y-72048577D01*
X202650000Y-72471251D01*
X201712631Y-72471251D01*
X205578768Y-68605114D01*
X205648577Y-68674923D01*
X206071251Y-68850000D01*
X206528749Y-68850000D01*
X206951423Y-68674923D01*
X207274923Y-68351423D01*
X207450000Y-67928749D01*
X207450000Y-67471251D01*
X207274923Y-67048577D01*
X206951423Y-66725077D01*
X206528749Y-66550000D01*
X206071251Y-66550000D01*
X205648577Y-66725077D01*
X205325077Y-67048577D01*
X205277289Y-67163947D01*
X205149400Y-67249400D01*
X205114529Y-67301588D01*
X195841118Y-76575000D01*
X193471821Y-76575000D01*
X193439808Y-76542987D01*
X193154963Y-76425000D01*
X192846649Y-76425000D01*
X192561804Y-76542987D01*
X192343793Y-76760998D01*
X192225806Y-77045843D01*
X188985330Y-77045843D01*
X189027135Y-76983278D01*
X189123265Y-76500000D01*
X189027135Y-76016722D01*
X188753380Y-75607020D01*
X188343678Y-75333265D01*
X187982388Y-75261400D01*
X186417612Y-75261400D01*
X186056322Y-75333265D01*
X185646620Y-75607020D01*
X185372865Y-76016722D01*
X185276735Y-76500000D01*
X182325000Y-76500000D01*
X182325000Y-71858882D01*
X182683882Y-71500000D01*
X185276735Y-71500000D01*
X185372865Y-71983278D01*
X185646620Y-72392980D01*
X186056322Y-72666735D01*
X186417612Y-72738600D01*
X187982388Y-72738600D01*
X188343678Y-72666735D01*
X188753380Y-72392980D01*
X189027135Y-71983278D01*
X189123265Y-71500000D01*
X189027135Y-71016722D01*
X188753380Y-70607020D01*
X188483207Y-70426495D01*
X189425000Y-70426495D01*
X189425000Y-70973505D01*
X189634331Y-71478875D01*
X190021125Y-71865669D01*
X190526495Y-72075000D01*
X191073505Y-72075000D01*
X191578875Y-71865669D01*
X191965669Y-71478875D01*
X192175000Y-70973505D01*
X192175000Y-70426495D01*
X191965669Y-69921125D01*
X191578875Y-69534331D01*
X191073505Y-69325000D01*
X190526495Y-69325000D01*
X190021125Y-69534331D01*
X189634331Y-69921125D01*
X189425000Y-70426495D01*
X188483207Y-70426495D01*
X188343678Y-70333265D01*
X187982388Y-70261400D01*
X186417612Y-70261400D01*
X186056322Y-70333265D01*
X185646620Y-70607020D01*
X185372865Y-71016722D01*
X185276735Y-71500000D01*
X182683882Y-71500000D01*
X186208883Y-67975000D01*
X186254157Y-67975000D01*
X186539002Y-67857013D01*
X186571015Y-67825000D01*
X203438445Y-67825000D01*
X203500000Y-67837244D01*
X203561555Y-67825000D01*
X203743863Y-67788737D01*
X203950600Y-67650600D01*
X203985472Y-67598410D01*
X207085468Y-64498416D01*
X207085472Y-64498411D01*
X207108882Y-64475000D01*
X207154157Y-64475000D01*
X207439002Y-64357013D01*
X207657013Y-64139002D01*
X207775000Y-63854157D01*
X207775000Y-63545843D01*
X207657013Y-63260998D01*
X207439002Y-63042987D01*
X207200393Y-62944151D01*
X207565669Y-62578875D01*
X207775000Y-62073505D01*
X207775000Y-61526495D01*
X207565669Y-61021125D01*
X207178875Y-60634331D01*
X206673505Y-60425000D01*
X206126495Y-60425000D01*
X205621125Y-60634331D01*
X205234331Y-61021125D01*
X205025000Y-61526495D01*
X205025000Y-62073505D01*
X205234331Y-62578875D01*
X205621125Y-62965669D01*
X206126495Y-63175000D01*
X206428985Y-63175000D01*
X206342987Y-63260998D01*
X206225000Y-63545843D01*
X206225000Y-63591118D01*
X206201589Y-63614528D01*
X206201584Y-63614532D01*
X203241118Y-66575000D01*
X186571015Y-66575000D01*
X186539002Y-66542987D01*
X186254157Y-66425000D01*
X185945843Y-66425000D01*
X185660998Y-66542987D01*
X185442987Y-66760998D01*
X185325000Y-67045843D01*
X185325000Y-67091117D01*
X181301588Y-71114530D01*
X181249401Y-71149400D01*
X181149568Y-71298811D01*
X181111263Y-71356138D01*
X181062756Y-71600000D01*
X181075001Y-71661560D01*
X181075000Y-99428985D01*
X181042987Y-99460998D01*
X180925000Y-99745843D01*
X166382346Y-99745843D01*
X166382346Y-98350000D01*
X166353242Y-98203683D01*
X166270359Y-98079641D01*
X166146317Y-97996758D01*
X166000000Y-97967654D01*
X165225000Y-97967654D01*
X165225000Y-95816822D01*
X168025000Y-95816822D01*
X168025000Y-96483178D01*
X168280004Y-97098811D01*
X168751189Y-97569996D01*
X169366822Y-97825000D01*
X170033178Y-97825000D01*
X170648811Y-97569996D01*
X171119996Y-97098811D01*
X171375000Y-96483178D01*
X171375000Y-95816822D01*
X171119996Y-95201189D01*
X170648811Y-94730004D01*
X170033178Y-94475000D01*
X169366822Y-94475000D01*
X168751189Y-94730004D01*
X168280004Y-95201189D01*
X168025000Y-95816822D01*
X165225000Y-95816822D01*
X165225000Y-92732346D01*
X166000000Y-92732346D01*
X166146317Y-92703242D01*
X166270359Y-92620359D01*
X166353242Y-92496317D01*
X166382346Y-92350000D01*
X166382346Y-89750000D01*
X166353242Y-89603683D01*
X166283963Y-89500000D01*
X172776735Y-89500000D01*
X172872865Y-89983278D01*
X173146620Y-90392980D01*
X173556322Y-90666735D01*
X173917612Y-90738600D01*
X175482388Y-90738600D01*
X175843678Y-90666735D01*
X176253380Y-90392980D01*
X176527135Y-89983278D01*
X176623265Y-89500000D01*
X176527135Y-89016722D01*
X176253380Y-88607020D01*
X175843678Y-88333265D01*
X175482388Y-88261400D01*
X173917612Y-88261400D01*
X173556322Y-88333265D01*
X173146620Y-88607020D01*
X172872865Y-89016722D01*
X172776735Y-89500000D01*
X166283963Y-89500000D01*
X166270359Y-89479641D01*
X166146317Y-89396758D01*
X166000000Y-89367654D01*
X165225000Y-89367654D01*
X165225000Y-88358882D01*
X166367060Y-87216822D01*
X168025000Y-87216822D01*
X168025000Y-87883178D01*
X168280004Y-88498811D01*
X168751189Y-88969996D01*
X169366822Y-89225000D01*
X170033178Y-89225000D01*
X170648811Y-88969996D01*
X171119996Y-88498811D01*
X171375000Y-87883178D01*
X171375000Y-87216822D01*
X171119996Y-86601189D01*
X170648811Y-86130004D01*
X170033178Y-85875000D01*
X169366822Y-85875000D01*
X168751189Y-86130004D01*
X168280004Y-86601189D01*
X168025000Y-87216822D01*
X166367060Y-87216822D01*
X169358883Y-84225000D01*
X171828985Y-84225000D01*
X171860998Y-84257013D01*
X172145843Y-84375000D01*
X172454157Y-84375000D01*
X172739002Y-84257013D01*
X172846439Y-84149576D01*
X172776735Y-84500000D01*
X172872865Y-84983278D01*
X173146620Y-85392980D01*
X173556322Y-85666735D01*
X173917612Y-85738600D01*
X175482388Y-85738600D01*
X175843678Y-85666735D01*
X176253380Y-85392980D01*
X176527135Y-84983278D01*
X176623265Y-84500000D01*
X176527135Y-84016722D01*
X176253380Y-83607020D01*
X175843678Y-83333265D01*
X175482388Y-83261400D01*
X173917612Y-83261400D01*
X173556322Y-83333265D01*
X173237760Y-83546122D01*
X179389603Y-77394280D01*
X179441790Y-77359410D01*
X179579927Y-77152673D01*
X179613186Y-76985468D01*
X179628434Y-76908810D01*
X179616190Y-76847255D01*
X179616190Y-64925000D01*
X183128985Y-64925000D01*
X183160998Y-64957013D01*
X183445843Y-65075000D01*
X183754157Y-65075000D01*
X184039002Y-64957013D01*
X184257013Y-64739002D01*
X184375000Y-64454157D01*
X184375000Y-64145843D01*
X184257013Y-63860998D01*
X184039002Y-63642987D01*
X183754157Y-63525000D01*
X183445843Y-63525000D01*
X183160998Y-63642987D01*
X183128985Y-63675000D01*
X179625000Y-63675000D01*
X179625000Y-63036713D01*
X190075000Y-63036713D01*
X190075000Y-63663287D01*
X190314780Y-64242166D01*
X190757834Y-64685220D01*
X191336713Y-64925000D01*
X191963287Y-64925000D01*
X192542166Y-64685220D01*
X192985220Y-64242166D01*
X193225000Y-63663287D01*
X193225000Y-63036713D01*
X196775000Y-63036713D01*
X196775000Y-63663287D01*
X197014780Y-64242166D01*
X197457834Y-64685220D01*
X198036713Y-64925000D01*
X198663287Y-64925000D01*
X199242166Y-64685220D01*
X199685220Y-64242166D01*
X199925000Y-63663287D01*
X199925000Y-63036713D01*
X199685220Y-62457834D01*
X199242166Y-62014780D01*
X198663287Y-61775000D01*
X198036713Y-61775000D01*
X197457834Y-62014780D01*
X197014780Y-62457834D01*
X196775000Y-63036713D01*
X193225000Y-63036713D01*
X192985220Y-62457834D01*
X192542166Y-62014780D01*
X191963287Y-61775000D01*
X191336713Y-61775000D01*
X190757834Y-62014780D01*
X190314780Y-62457834D01*
X190075000Y-63036713D01*
X179625000Y-63036713D01*
X179625000Y-61148179D01*
X189207887Y-61148179D01*
X189337810Y-61383119D01*
X189936543Y-61626915D01*
X190582997Y-61623029D01*
X191162190Y-61383119D01*
X191292113Y-61148179D01*
X190250000Y-60106066D01*
X189207887Y-61148179D01*
X179625000Y-61148179D01*
X179625000Y-59686543D01*
X188623085Y-59686543D01*
X188626971Y-60332997D01*
X188866881Y-60912190D01*
X189101821Y-61042113D01*
X190143934Y-60000000D01*
X190356066Y-60000000D01*
X191398179Y-61042113D01*
X191633119Y-60912190D01*
X191876915Y-60313457D01*
X191873148Y-59686713D01*
X198175000Y-59686713D01*
X198175000Y-60313287D01*
X198414780Y-60892166D01*
X198857834Y-61335220D01*
X199436713Y-61575000D01*
X200063287Y-61575000D01*
X200642166Y-61335220D01*
X201085220Y-60892166D01*
X201325000Y-60313287D01*
X201325000Y-59686713D01*
X201085220Y-59107834D01*
X200642166Y-58664780D01*
X200063287Y-58425000D01*
X199436713Y-58425000D01*
X198857834Y-58664780D01*
X198414780Y-59107834D01*
X198175000Y-59686713D01*
X191873148Y-59686713D01*
X191873029Y-59667003D01*
X191633119Y-59087810D01*
X191398179Y-58957887D01*
X190356066Y-60000000D01*
X190143934Y-60000000D01*
X189101821Y-58957887D01*
X188866881Y-59087810D01*
X188623085Y-59686543D01*
X179625000Y-59686543D01*
X179625000Y-58851821D01*
X189207887Y-58851821D01*
X190250000Y-59893934D01*
X191292113Y-58851821D01*
X191162190Y-58616881D01*
X190563457Y-58373085D01*
X189917003Y-58376971D01*
X189337810Y-58616881D01*
X189207887Y-58851821D01*
X179625000Y-58851821D01*
X179625000Y-58551776D01*
X180088388Y-58088388D01*
X180115485Y-58047835D01*
X180125000Y-58000000D01*
X180125000Y-57278882D01*
X181596078Y-55807804D01*
X181413175Y-56081538D01*
X181321981Y-56540000D01*
X181413175Y-56998462D01*
X181672873Y-57387127D01*
X182061538Y-57646825D01*
X182404276Y-57715000D01*
X183435724Y-57715000D01*
X183778462Y-57646825D01*
X184167127Y-57387127D01*
X184426825Y-56998462D01*
X184518019Y-56540000D01*
X184477583Y-56336713D01*
X190075000Y-56336713D01*
X190075000Y-56963287D01*
X190314780Y-57542166D01*
X190757834Y-57985220D01*
X191336713Y-58225000D01*
X191963287Y-58225000D01*
X192542166Y-57985220D01*
X192985220Y-57542166D01*
X193225000Y-56963287D01*
X193225000Y-56336713D01*
X196775000Y-56336713D01*
X196775000Y-56963287D01*
X197014780Y-57542166D01*
X197457834Y-57985220D01*
X198036713Y-58225000D01*
X198663287Y-58225000D01*
X199242166Y-57985220D01*
X199685220Y-57542166D01*
X199925000Y-56963287D01*
X199925000Y-56336713D01*
X199685220Y-55757834D01*
X199242166Y-55314780D01*
X198663287Y-55075000D01*
X198036713Y-55075000D01*
X197457834Y-55314780D01*
X197014780Y-55757834D01*
X196775000Y-56336713D01*
X193225000Y-56336713D01*
X192985220Y-55757834D01*
X192542166Y-55314780D01*
X191963287Y-55075000D01*
X191336713Y-55075000D01*
X190757834Y-55314780D01*
X190314780Y-55757834D01*
X190075000Y-56336713D01*
X184477583Y-56336713D01*
X184426825Y-56081538D01*
X184167127Y-55692873D01*
X183778462Y-55433175D01*
X183435724Y-55365000D01*
X182404276Y-55365000D01*
X182061538Y-55433175D01*
X181787805Y-55616078D01*
X182257982Y-55145900D01*
X182404276Y-55175000D01*
X183435724Y-55175000D01*
X183778462Y-55106825D01*
X184167127Y-54847127D01*
X184315548Y-54625000D01*
X204941118Y-54625000D01*
X206387282Y-56071165D01*
X206387282Y-56071165D01*
G37*
X206387282Y-56071165D02*
X206301981Y-56500000D01*
X206393175Y-56958462D01*
X206652873Y-57347127D01*
X207041538Y-57606825D01*
X207384276Y-57675000D01*
X208091118Y-57675000D01*
X213625000Y-63208883D01*
X213625000Y-63254157D01*
X213742987Y-63539002D01*
X213775000Y-63571015D01*
X213775001Y-66428984D01*
X213742987Y-66460998D01*
X213625000Y-66745843D01*
X213625000Y-67054157D01*
X213742987Y-67339002D01*
X213775001Y-67371016D01*
X213775000Y-95978985D01*
X213742987Y-96010998D01*
X213625000Y-96295843D01*
X213625000Y-96604157D01*
X213742987Y-96889002D01*
X213775000Y-96921015D01*
X213775001Y-104205400D01*
X210990880Y-106989522D01*
X210990877Y-106989524D01*
X210880411Y-107099990D01*
X210835137Y-107099990D01*
X210550292Y-107217977D01*
X210332281Y-107435988D01*
X210214294Y-107720833D01*
X210214294Y-108029147D01*
X210332281Y-108313992D01*
X210550292Y-108532003D01*
X210835137Y-108649990D01*
X211143451Y-108649990D01*
X211428296Y-108532003D01*
X211646307Y-108313992D01*
X211764294Y-108029147D01*
X211764294Y-107983873D01*
X211874760Y-107873407D01*
X211874762Y-107873404D01*
X214798412Y-104949755D01*
X214850600Y-104914884D01*
X214988737Y-104708147D01*
X215008826Y-104607148D01*
X223025000Y-104607148D01*
X223025000Y-105392852D01*
X223325675Y-106118748D01*
X223881252Y-106674325D01*
X224607148Y-106975000D01*
X225392852Y-106975000D01*
X226118748Y-106674325D01*
X226674325Y-106118748D01*
X226975000Y-105392852D01*
X226975000Y-104607148D01*
X226674325Y-103881252D01*
X226118748Y-103325675D01*
X225392852Y-103025000D01*
X224607148Y-103025000D01*
X223881252Y-103325675D01*
X223325675Y-103881252D01*
X223025000Y-104607148D01*
X215008826Y-104607148D01*
X215025000Y-104525839D01*
X215037244Y-104464284D01*
X215025000Y-104402729D01*
X215025000Y-102003793D01*
X227102273Y-102003793D01*
X227207812Y-102217951D01*
X227734204Y-102428397D01*
X228301060Y-102421383D01*
X228792188Y-102217951D01*
X228897727Y-102003793D01*
X228000000Y-101106066D01*
X227102273Y-102003793D01*
X215025000Y-102003793D01*
X215025000Y-100734204D01*
X226571603Y-100734204D01*
X226578617Y-101301060D01*
X226782049Y-101792188D01*
X226996207Y-101897727D01*
X227893934Y-101000000D01*
X228106066Y-101000000D01*
X229003793Y-101897727D01*
X229217951Y-101792188D01*
X229428397Y-101265796D01*
X229421383Y-100698940D01*
X229217951Y-100207812D01*
X229003793Y-100102273D01*
X228106066Y-101000000D01*
X227893934Y-101000000D01*
X226996207Y-100102273D01*
X226782049Y-100207812D01*
X226571603Y-100734204D01*
X215025000Y-100734204D01*
X215025000Y-98926495D01*
X215325000Y-98926495D01*
X215325000Y-99473505D01*
X215534331Y-99978875D01*
X215921125Y-100365669D01*
X216426495Y-100575000D01*
X216973505Y-100575000D01*
X217478875Y-100365669D01*
X217848337Y-99996207D01*
X227102273Y-99996207D01*
X228000000Y-100893934D01*
X228897727Y-99996207D01*
X228792188Y-99782049D01*
X228265796Y-99571603D01*
X227698940Y-99578617D01*
X227207812Y-99782049D01*
X227102273Y-99996207D01*
X217848337Y-99996207D01*
X217865669Y-99978875D01*
X218075000Y-99473505D01*
X218075000Y-98926495D01*
X217865669Y-98421125D01*
X217478875Y-98034331D01*
X216973505Y-97825000D01*
X216426495Y-97825000D01*
X215921125Y-98034331D01*
X215534331Y-98421125D01*
X215325000Y-98926495D01*
X215025000Y-98926495D01*
X215025000Y-96921015D01*
X215057013Y-96889002D01*
X215175000Y-96604157D01*
X215175000Y-96295843D01*
X215057013Y-96010998D01*
X215025000Y-95978985D01*
X215025000Y-90670355D01*
X219185711Y-90670355D01*
X219327823Y-90915684D01*
X219962719Y-91176151D01*
X220648961Y-91173827D01*
X221272177Y-90915684D01*
X221414289Y-90670355D01*
X220300000Y-89556066D01*
X219185711Y-90670355D01*
X215025000Y-90670355D01*
X215025000Y-89112719D01*
X218573849Y-89112719D01*
X218576173Y-89798961D01*
X218834316Y-90422177D01*
X219079645Y-90564289D01*
X220193934Y-89450000D01*
X220406066Y-89450000D01*
X221520355Y-90564289D01*
X221765684Y-90422177D01*
X222026151Y-89787281D01*
X222023827Y-89101039D01*
X221765684Y-88477823D01*
X221520355Y-88335711D01*
X220406066Y-89450000D01*
X220193934Y-89450000D01*
X219079645Y-88335711D01*
X218834316Y-88477823D01*
X218573849Y-89112719D01*
X215025000Y-89112719D01*
X215025000Y-88229645D01*
X219185711Y-88229645D01*
X220300000Y-89343934D01*
X221414289Y-88229645D01*
X221272177Y-87984316D01*
X220637281Y-87723849D01*
X219951039Y-87726173D01*
X219327823Y-87984316D01*
X219185711Y-88229645D01*
X215025000Y-88229645D01*
X215025000Y-84650000D01*
X223617654Y-84650000D01*
X223617654Y-87250000D01*
X223646758Y-87396317D01*
X223729641Y-87520359D01*
X223853683Y-87603242D01*
X224000000Y-87632346D01*
X226600000Y-87632346D01*
X226746317Y-87603242D01*
X226870359Y-87520359D01*
X226953242Y-87396317D01*
X226982346Y-87250000D01*
X226982346Y-84650000D01*
X226953242Y-84503683D01*
X226870359Y-84379641D01*
X226746317Y-84296758D01*
X226600000Y-84267654D01*
X224000000Y-84267654D01*
X223853683Y-84296758D01*
X223729641Y-84379641D01*
X223646758Y-84503683D01*
X223617654Y-84650000D01*
X215025000Y-84650000D01*
X215025000Y-80516822D01*
X218625000Y-80516822D01*
X218625000Y-81183178D01*
X218880004Y-81798811D01*
X219351189Y-82269996D01*
X219966822Y-82525000D01*
X220633178Y-82525000D01*
X221248811Y-82269996D01*
X221719996Y-81798811D01*
X221975000Y-81183178D01*
X221975000Y-80516822D01*
X221719996Y-79901189D01*
X221248811Y-79430004D01*
X220633178Y-79175000D01*
X219966822Y-79175000D01*
X219351189Y-79430004D01*
X218880004Y-79901189D01*
X218625000Y-80516822D01*
X215025000Y-80516822D01*
X215025000Y-76050000D01*
X223617654Y-76050000D01*
X223617654Y-78650000D01*
X223646758Y-78796317D01*
X223729641Y-78920359D01*
X223853683Y-79003242D01*
X224000000Y-79032346D01*
X226600000Y-79032346D01*
X226746317Y-79003242D01*
X226870359Y-78920359D01*
X226953242Y-78796317D01*
X226982346Y-78650000D01*
X226982346Y-76050000D01*
X226953242Y-75903683D01*
X226870359Y-75779641D01*
X226746317Y-75696758D01*
X226600000Y-75667654D01*
X224000000Y-75667654D01*
X223853683Y-75696758D01*
X223729641Y-75779641D01*
X223646758Y-75903683D01*
X223617654Y-76050000D01*
X215025000Y-76050000D01*
X215025000Y-71916822D01*
X218625000Y-71916822D01*
X218625000Y-72583178D01*
X218880004Y-73198811D01*
X219351189Y-73669996D01*
X219966822Y-73925000D01*
X220633178Y-73925000D01*
X221248811Y-73669996D01*
X221719996Y-73198811D01*
X221975000Y-72583178D01*
X221975000Y-71916822D01*
X221719996Y-71301189D01*
X221248811Y-70830004D01*
X220633178Y-70575000D01*
X219966822Y-70575000D01*
X219351189Y-70830004D01*
X218880004Y-71301189D01*
X218625000Y-71916822D01*
X215025000Y-71916822D01*
X215025000Y-67371015D01*
X215057013Y-67339002D01*
X215175000Y-67054157D01*
X215175000Y-66745843D01*
X215057013Y-66460998D01*
X215025000Y-66428985D01*
X215025000Y-63571015D01*
X215057013Y-63539002D01*
X215146408Y-63323184D01*
X218911612Y-67088388D01*
X218952165Y-67115485D01*
X219000000Y-67125000D01*
X223811416Y-67125000D01*
X223729641Y-67179641D01*
X223646758Y-67303683D01*
X223617654Y-67450000D01*
X223617654Y-70050000D01*
X223646758Y-70196317D01*
X223729641Y-70320359D01*
X223853683Y-70403242D01*
X224000000Y-70432346D01*
X226600000Y-70432346D01*
X226746317Y-70403242D01*
X226870359Y-70320359D01*
X226953242Y-70196317D01*
X226982346Y-70050000D01*
X226982346Y-67450000D01*
X226953242Y-67303683D01*
X226870359Y-67179641D01*
X226788584Y-67125000D01*
X229550000Y-67125000D01*
X229550001Y-109550000D01*
X160450000Y-109550000D01*
X160450000Y-108245874D01*
X179324969Y-108245874D01*
X179324969Y-108554188D01*
X179442956Y-108839033D01*
X179660967Y-109057044D01*
X179945812Y-109175031D01*
X180254126Y-109175031D01*
X180538971Y-109057044D01*
X180670984Y-108925031D01*
X182948263Y-108925031D01*
X182999969Y-108935316D01*
X183051675Y-108925031D01*
X183204814Y-108894570D01*
X183378473Y-108778535D01*
X183407766Y-108734695D01*
X185327144Y-106815317D01*
X188581149Y-106815317D01*
X188782333Y-107276101D01*
X189144537Y-107624820D01*
X189564684Y-107798845D01*
X189765000Y-107719969D01*
X189765000Y-106615000D01*
X189915000Y-106615000D01*
X189915000Y-107719969D01*
X190115316Y-107798845D01*
X190535463Y-107624820D01*
X190897667Y-107276101D01*
X191098851Y-106815317D01*
X191121149Y-106815317D01*
X191322333Y-107276101D01*
X191684537Y-107624820D01*
X192104684Y-107798845D01*
X192305000Y-107719969D01*
X192305000Y-106615000D01*
X192455000Y-106615000D01*
X192455000Y-107719969D01*
X192655316Y-107798845D01*
X193075463Y-107624820D01*
X193437667Y-107276101D01*
X193638851Y-106815317D01*
X193661149Y-106815317D01*
X193862333Y-107276101D01*
X194224537Y-107624820D01*
X194644684Y-107798845D01*
X194845000Y-107719969D01*
X194845000Y-106615000D01*
X194995000Y-106615000D01*
X194995000Y-107719969D01*
X195195316Y-107798845D01*
X195615463Y-107624820D01*
X195977667Y-107276101D01*
X196178851Y-106815317D01*
X196201149Y-106815317D01*
X196402333Y-107276101D01*
X196764537Y-107624820D01*
X197184684Y-107798845D01*
X197385000Y-107719969D01*
X197385000Y-106615000D01*
X196279828Y-106615000D01*
X196201149Y-106815317D01*
X196178851Y-106815317D01*
X196100172Y-106615000D01*
X194995000Y-106615000D01*
X194845000Y-106615000D01*
X193739828Y-106615000D01*
X193661149Y-106815317D01*
X193638851Y-106815317D01*
X193560172Y-106615000D01*
X192455000Y-106615000D01*
X192305000Y-106615000D01*
X191199828Y-106615000D01*
X191121149Y-106815317D01*
X191098851Y-106815317D01*
X191020172Y-106615000D01*
X189915000Y-106615000D01*
X189765000Y-106615000D01*
X188659828Y-106615000D01*
X188581149Y-106815317D01*
X185327144Y-106815317D01*
X185877778Y-106264683D01*
X188581149Y-106264683D01*
X188659828Y-106465000D01*
X189765000Y-106465000D01*
X189765000Y-105360031D01*
X189915000Y-105360031D01*
X189915000Y-106465000D01*
X191020172Y-106465000D01*
X191098851Y-106264683D01*
X191121149Y-106264683D01*
X191199828Y-106465000D01*
X192305000Y-106465000D01*
X192305000Y-105360031D01*
X192455000Y-105360031D01*
X192455000Y-106465000D01*
X193560172Y-106465000D01*
X193638851Y-106264683D01*
X193661149Y-106264683D01*
X193739828Y-106465000D01*
X194845000Y-106465000D01*
X194845000Y-105360031D01*
X194995000Y-105360031D01*
X194995000Y-106465000D01*
X196100172Y-106465000D01*
X196178851Y-106264683D01*
X196201149Y-106264683D01*
X196279828Y-106465000D01*
X197385000Y-106465000D01*
X197385000Y-105360031D01*
X197535000Y-105360031D01*
X197535000Y-106465000D01*
X197555000Y-106465000D01*
X197555000Y-106615000D01*
X197535000Y-106615000D01*
X197535000Y-107719969D01*
X197735316Y-107798845D01*
X198155463Y-107624820D01*
X198517667Y-107276101D01*
X198718851Y-106815317D01*
X198640173Y-106615002D01*
X198748600Y-106615002D01*
X198748600Y-106597638D01*
X198833265Y-107023278D01*
X199107020Y-107432980D01*
X199516722Y-107706735D01*
X199878012Y-107778600D01*
X200121988Y-107778600D01*
X200483278Y-107706735D01*
X200892980Y-107432980D01*
X201166735Y-107023278D01*
X201262865Y-106540000D01*
X201166735Y-106056722D01*
X200892980Y-105647020D01*
X200483278Y-105373265D01*
X200121988Y-105301400D01*
X199878012Y-105301400D01*
X199516722Y-105373265D01*
X199107020Y-105647020D01*
X198833265Y-106056722D01*
X198748600Y-106482362D01*
X198748600Y-106464998D01*
X198640173Y-106464998D01*
X198718851Y-106264683D01*
X198517667Y-105803899D01*
X198155463Y-105455180D01*
X197735316Y-105281155D01*
X197535000Y-105360031D01*
X197385000Y-105360031D01*
X197184684Y-105281155D01*
X196764537Y-105455180D01*
X196402333Y-105803899D01*
X196201149Y-106264683D01*
X196178851Y-106264683D01*
X195977667Y-105803899D01*
X195615463Y-105455180D01*
X195195316Y-105281155D01*
X194995000Y-105360031D01*
X194845000Y-105360031D01*
X194644684Y-105281155D01*
X194224537Y-105455180D01*
X193862333Y-105803899D01*
X193661149Y-106264683D01*
X193638851Y-106264683D01*
X193437667Y-105803899D01*
X193075463Y-105455180D01*
X192655316Y-105281155D01*
X192455000Y-105360031D01*
X192305000Y-105360031D01*
X192104684Y-105281155D01*
X191684537Y-105455180D01*
X191322333Y-105803899D01*
X191121149Y-106264683D01*
X191098851Y-106264683D01*
X190897667Y-105803899D01*
X190535463Y-105455180D01*
X190115316Y-105281155D01*
X189915000Y-105360031D01*
X189765000Y-105360031D01*
X189564684Y-105281155D01*
X189144537Y-105455180D01*
X188782333Y-105803899D01*
X188581149Y-106264683D01*
X185877778Y-106264683D01*
X188768967Y-103373495D01*
X188673265Y-103516722D01*
X188577135Y-104000000D01*
X188673265Y-104483278D01*
X188947020Y-104892980D01*
X189356722Y-105166735D01*
X189718012Y-105238600D01*
X189961988Y-105238600D01*
X190323278Y-105166735D01*
X190732980Y-104892980D01*
X191006735Y-104483278D01*
X191102865Y-104000000D01*
X191010659Y-103536447D01*
X193449989Y-101097117D01*
X193449989Y-102222904D01*
X192843552Y-102829341D01*
X192501988Y-102761400D01*
X192258012Y-102761400D01*
X191896722Y-102833265D01*
X191487020Y-103107020D01*
X191213265Y-103516722D01*
X191117135Y-104000000D01*
X191213265Y-104483278D01*
X191487020Y-104892980D01*
X191896722Y-105166735D01*
X192258012Y-105238600D01*
X192501988Y-105238600D01*
X192863278Y-105166735D01*
X193272980Y-104892980D01*
X193546735Y-104483278D01*
X193642865Y-104000000D01*
X193657135Y-104000000D01*
X193753265Y-104483278D01*
X194027020Y-104892980D01*
X194436722Y-105166735D01*
X194798012Y-105238600D01*
X195041988Y-105238600D01*
X195403278Y-105166735D01*
X195812980Y-104892980D01*
X196086735Y-104483278D01*
X196182865Y-104000000D01*
X196197135Y-104000000D01*
X196293265Y-104483278D01*
X196567020Y-104892980D01*
X196976722Y-105166735D01*
X197338012Y-105238600D01*
X197581988Y-105238600D01*
X197943278Y-105166735D01*
X198352980Y-104892980D01*
X198626735Y-104483278D01*
X198722865Y-104000000D01*
X198626735Y-103516722D01*
X198352980Y-103107020D01*
X197943278Y-102833265D01*
X197581988Y-102761400D01*
X197338012Y-102761400D01*
X196976722Y-102833265D01*
X196567020Y-103107020D01*
X196293265Y-103516722D01*
X196197135Y-104000000D01*
X196182865Y-104000000D01*
X196086735Y-103516722D01*
X195812980Y-103107020D01*
X195403278Y-102833265D01*
X195041988Y-102761400D01*
X194798012Y-102761400D01*
X194436722Y-102833265D01*
X194027020Y-103107020D01*
X193753265Y-103516722D01*
X193657135Y-104000000D01*
X193642865Y-104000000D01*
X193550659Y-103536448D01*
X194268722Y-102818385D01*
X194310469Y-102790491D01*
X194420978Y-102625101D01*
X194449989Y-102479254D01*
X194449989Y-102479253D01*
X194459784Y-102430011D01*
X194449989Y-102380768D01*
X194449989Y-99057095D01*
X198754054Y-103361161D01*
X198754054Y-104863600D01*
X198783158Y-105009917D01*
X198866041Y-105133959D01*
X198990083Y-105216842D01*
X199136400Y-105245946D01*
X200863600Y-105245946D01*
X201009917Y-105216842D01*
X201133959Y-105133959D01*
X201216842Y-105009917D01*
X201245946Y-104863600D01*
X201245946Y-103136400D01*
X201216842Y-102990083D01*
X201133959Y-102866041D01*
X201009917Y-102783158D01*
X200863600Y-102754054D01*
X199561161Y-102754054D01*
X194900000Y-98092894D01*
X194900000Y-96326495D01*
X202425000Y-96326495D01*
X202425000Y-96873505D01*
X202634331Y-97378875D01*
X203021125Y-97765669D01*
X203526495Y-97975000D01*
X204073505Y-97975000D01*
X204578875Y-97765669D01*
X204965669Y-97378875D01*
X205175000Y-96873505D01*
X205175000Y-96326495D01*
X204965669Y-95821125D01*
X204578875Y-95434331D01*
X204073505Y-95225000D01*
X203526495Y-95225000D01*
X203021125Y-95434331D01*
X202634331Y-95821125D01*
X202425000Y-96326495D01*
X194900000Y-96326495D01*
X194900000Y-88145841D01*
X195725008Y-88145841D01*
X195725008Y-88454155D01*
X195842995Y-88739000D01*
X196061006Y-88957011D01*
X196345851Y-89074998D01*
X196654165Y-89074998D01*
X196939010Y-88957011D01*
X196971023Y-88924998D01*
X205390249Y-88924998D01*
X205451804Y-88937242D01*
X205513359Y-88924998D01*
X205695667Y-88888735D01*
X205902404Y-88750598D01*
X205937276Y-88698408D01*
X206560677Y-88075008D01*
X206605951Y-88075008D01*
X206890796Y-87957021D01*
X207108807Y-87739010D01*
X207226794Y-87454165D01*
X207226794Y-87408890D01*
X208110685Y-86525000D01*
X209617654Y-86525000D01*
X209617654Y-86900000D01*
X209646758Y-87046317D01*
X209729641Y-87170359D01*
X209853683Y-87253242D01*
X210000000Y-87282346D01*
X212000000Y-87282346D01*
X212146317Y-87253242D01*
X212270359Y-87170359D01*
X212353242Y-87046317D01*
X212382346Y-86900000D01*
X212382346Y-84900000D01*
X212353242Y-84753683D01*
X212270359Y-84629641D01*
X212146317Y-84546758D01*
X212000000Y-84517654D01*
X210000000Y-84517654D01*
X209853683Y-84546758D01*
X209729641Y-84629641D01*
X209646758Y-84753683D01*
X209617654Y-84900000D01*
X209617654Y-85275000D01*
X207913355Y-85275000D01*
X207851801Y-85262756D01*
X207790247Y-85275000D01*
X207607939Y-85311263D01*
X207401202Y-85449400D01*
X207366331Y-85501588D01*
X206342912Y-86525008D01*
X206297637Y-86525008D01*
X206012792Y-86642995D01*
X205794781Y-86861006D01*
X205676794Y-87145851D01*
X205676794Y-87191125D01*
X205192922Y-87674998D01*
X196971023Y-87674998D01*
X196939010Y-87642985D01*
X196654165Y-87524998D01*
X196345851Y-87524998D01*
X196061006Y-87642985D01*
X195842995Y-87860996D01*
X195725008Y-88145841D01*
X194900000Y-88145841D01*
X194900000Y-83007106D01*
X197632107Y-80275000D01*
X197854157Y-80275000D01*
X198139002Y-80157013D01*
X198357013Y-79939002D01*
X198475000Y-79654157D01*
X198475000Y-79345843D01*
X198357013Y-79060998D01*
X198139002Y-78842987D01*
X197925541Y-78754568D01*
X199418733Y-77261376D01*
X199460480Y-77233482D01*
X199570989Y-77068092D01*
X199600000Y-76922245D01*
X199600000Y-76922244D01*
X199609795Y-76873003D01*
X199600000Y-76823762D01*
X199600000Y-76796015D01*
X199757013Y-76639002D01*
X199875000Y-76354157D01*
X199875000Y-76045843D01*
X199757013Y-75760998D01*
X199539002Y-75542987D01*
X199254157Y-75425000D01*
X198945843Y-75425000D01*
X198660998Y-75542987D01*
X198442987Y-75760998D01*
X198325000Y-76045843D01*
X198325000Y-76354157D01*
X198442987Y-76639002D01*
X198534940Y-76730955D01*
X196900330Y-78365565D01*
X196857013Y-78260988D01*
X196639002Y-78042977D01*
X196354157Y-77924990D01*
X196045843Y-77924990D01*
X195760998Y-78042977D01*
X195542987Y-78260988D01*
X195425000Y-78545833D01*
X195425000Y-78767883D01*
X193766811Y-80426073D01*
X193657013Y-80160998D01*
X193439002Y-79942987D01*
X193154157Y-79825000D01*
X192845843Y-79825000D01*
X192560998Y-79942987D01*
X192342987Y-80160998D01*
X192225000Y-80445843D01*
X192225000Y-80754157D01*
X192342987Y-81039002D01*
X192475000Y-81171015D01*
X192475000Y-81217390D01*
X192475001Y-81217395D01*
X192475000Y-98182538D01*
X182782508Y-107875031D01*
X180670984Y-107875031D01*
X180538971Y-107743018D01*
X180254126Y-107625031D01*
X179945812Y-107625031D01*
X179660967Y-107743018D01*
X179442956Y-107961029D01*
X179324969Y-108245874D01*
X160450000Y-108245874D01*
X160450000Y-104607148D01*
X163025000Y-104607148D01*
X163025000Y-105392852D01*
X163325675Y-106118748D01*
X163881252Y-106674325D01*
X164607148Y-106975000D01*
X165392852Y-106975000D01*
X166118748Y-106674325D01*
X166674325Y-106118748D01*
X166975000Y-105392852D01*
X166975000Y-104607148D01*
X166674325Y-103881252D01*
X166118748Y-103325675D01*
X165392852Y-103025000D01*
X164607148Y-103025000D01*
X163881252Y-103325675D01*
X163325675Y-103881252D01*
X163025000Y-104607148D01*
X160450000Y-104607148D01*
X160450000Y-81150000D01*
X163017654Y-81150000D01*
X163017654Y-83750000D01*
X163046758Y-83896317D01*
X163129641Y-84020359D01*
X163253683Y-84103242D01*
X163400000Y-84132346D01*
X166000000Y-84132346D01*
X166146317Y-84103242D01*
X166270359Y-84020359D01*
X166353242Y-83896317D01*
X166382346Y-83750000D01*
X166382346Y-81150000D01*
X166353242Y-81003683D01*
X166270359Y-80879641D01*
X166146317Y-80796758D01*
X166000000Y-80767654D01*
X163400000Y-80767654D01*
X163253683Y-80796758D01*
X163129641Y-80879641D01*
X163046758Y-81003683D01*
X163017654Y-81150000D01*
X160450000Y-81150000D01*
X160450000Y-78616822D01*
X168025000Y-78616822D01*
X168025000Y-79283178D01*
X168280004Y-79898811D01*
X168751189Y-80369996D01*
X169366822Y-80625000D01*
X170033178Y-80625000D01*
X170648811Y-80369996D01*
X171119996Y-79898811D01*
X171375000Y-79283178D01*
X171375000Y-78616822D01*
X171119996Y-78001189D01*
X170648811Y-77530004D01*
X170033178Y-77275000D01*
X169366822Y-77275000D01*
X168751189Y-77530004D01*
X168280004Y-78001189D01*
X168025000Y-78616822D01*
X160450000Y-78616822D01*
X160450000Y-72550000D01*
X163017654Y-72550000D01*
X163017654Y-75150000D01*
X163046758Y-75296317D01*
X163129641Y-75420359D01*
X163253683Y-75503242D01*
X163400000Y-75532346D01*
X166000000Y-75532346D01*
X166146317Y-75503242D01*
X166270359Y-75420359D01*
X166353242Y-75296317D01*
X166382346Y-75150000D01*
X166382346Y-72550000D01*
X166353242Y-72403683D01*
X166270359Y-72279641D01*
X166146317Y-72196758D01*
X166000000Y-72167654D01*
X163400000Y-72167654D01*
X163253683Y-72196758D01*
X163129641Y-72279641D01*
X163046758Y-72403683D01*
X163017654Y-72550000D01*
X160450000Y-72550000D01*
X160450000Y-70016822D01*
X168025000Y-70016822D01*
X168025000Y-70683178D01*
X168280004Y-71298811D01*
X168751189Y-71769996D01*
X168975001Y-71862702D01*
X168975001Y-72638440D01*
X168962756Y-72700000D01*
X169011263Y-72943862D01*
X169011264Y-72943863D01*
X169149401Y-73150600D01*
X169201588Y-73185470D01*
X172841447Y-76825331D01*
X172872865Y-76983278D01*
X173146620Y-77392980D01*
X173556322Y-77666735D01*
X173917612Y-77738600D01*
X175482388Y-77738600D01*
X175843678Y-77666735D01*
X176253380Y-77392980D01*
X176527135Y-76983278D01*
X176623265Y-76500000D01*
X176527135Y-76016722D01*
X176253380Y-75607020D01*
X175843678Y-75333265D01*
X175482388Y-75261400D01*
X173917612Y-75261400D01*
X173556322Y-75333265D01*
X173293057Y-75509173D01*
X170225000Y-72441118D01*
X170225000Y-71945545D01*
X170648811Y-71769996D01*
X170918807Y-71500000D01*
X172776735Y-71500000D01*
X172872865Y-71983278D01*
X173146620Y-72392980D01*
X173556322Y-72666735D01*
X173917612Y-72738600D01*
X175482388Y-72738600D01*
X175843678Y-72666735D01*
X176253380Y-72392980D01*
X176527135Y-71983278D01*
X176623265Y-71500000D01*
X176527135Y-71016722D01*
X176253380Y-70607020D01*
X175843678Y-70333265D01*
X175482388Y-70261400D01*
X173917612Y-70261400D01*
X173556322Y-70333265D01*
X173146620Y-70607020D01*
X172872865Y-71016722D01*
X172776735Y-71500000D01*
X170918807Y-71500000D01*
X171119996Y-71298811D01*
X171375000Y-70683178D01*
X171375000Y-70016822D01*
X171119996Y-69401189D01*
X170648811Y-68930004D01*
X170033178Y-68675000D01*
X169366822Y-68675000D01*
X168751189Y-68930004D01*
X168280004Y-69401189D01*
X168025000Y-70016822D01*
X160450000Y-70016822D01*
X160450000Y-67125000D01*
X171000000Y-67125000D01*
X171047835Y-67115485D01*
X171088388Y-67088388D01*
X178375000Y-59801776D01*
X178375001Y-63852170D01*
X178334177Y-63892994D01*
X178216190Y-64177839D01*
X178216190Y-64486153D01*
X178334177Y-64770998D01*
X178366190Y-64803011D01*
X178366190Y-64959235D01*
X178366191Y-64959240D01*
X178366190Y-76649927D01*
X172191118Y-82825000D01*
X172145843Y-82825000D01*
X171860998Y-82942987D01*
X171828985Y-82975000D01*
X169161554Y-82975000D01*
X169099999Y-82962756D01*
X168856137Y-83011263D01*
X168649400Y-83149400D01*
X168614529Y-83201588D01*
X164201588Y-87614530D01*
X164149401Y-87649400D01*
X164089526Y-87739010D01*
X164011263Y-87856138D01*
X163962756Y-88100000D01*
X163975001Y-88161560D01*
X163975001Y-89367654D01*
X163400000Y-89367654D01*
X163253683Y-89396758D01*
X163129641Y-89479641D01*
X163046758Y-89603683D01*
X163017654Y-89750000D01*
X163017654Y-92350000D01*
X163046758Y-92496317D01*
X163129641Y-92620359D01*
X163253683Y-92703242D01*
X163400000Y-92732346D01*
X163975000Y-92732346D01*
X163975001Y-97967654D01*
X163400000Y-97967654D01*
X163253683Y-97996758D01*
X163129641Y-98079641D01*
X163046758Y-98203683D01*
X163017654Y-98350000D01*
X163017654Y-100950000D01*
X163046758Y-101096317D01*
X163129641Y-101220359D01*
X163253683Y-101303242D01*
X163400000Y-101332346D01*
X166000000Y-101332346D01*
X166146317Y-101303242D01*
X166270359Y-101220359D01*
X166353242Y-101096317D01*
X166382346Y-100950000D01*
X166382346Y-99745843D01*
X180925000Y-99745843D01*
X180925000Y-100054157D01*
X181042987Y-100339002D01*
X181260998Y-100557013D01*
X181545843Y-100675000D01*
X181854157Y-100675000D01*
X182139002Y-100557013D01*
X182171015Y-100525000D01*
X184838445Y-100525000D01*
X184900000Y-100537244D01*
X184961555Y-100525000D01*
X185143863Y-100488737D01*
X185350600Y-100350600D01*
X185385472Y-100298410D01*
X185472620Y-100211263D01*
X185626495Y-100275000D01*
X186173505Y-100275000D01*
X186678875Y-100065669D01*
X187065669Y-99678875D01*
X187275000Y-99173505D01*
X187275000Y-98626495D01*
X187065669Y-98121125D01*
X186678875Y-97734331D01*
X186173505Y-97525000D01*
X185626495Y-97525000D01*
X185121125Y-97734331D01*
X184734331Y-98121125D01*
X184525000Y-98626495D01*
X184525000Y-99173505D01*
X184567041Y-99275000D01*
X182325000Y-99275000D01*
X182325000Y-89500000D01*
X185276735Y-89500000D01*
X185372865Y-89983278D01*
X185646620Y-90392980D01*
X186056322Y-90666735D01*
X186417612Y-90738600D01*
X187982388Y-90738600D01*
X188343678Y-90666735D01*
X188753380Y-90392980D01*
X189027135Y-89983278D01*
X189123265Y-89500000D01*
X189027135Y-89016722D01*
X188753380Y-88607020D01*
X188343678Y-88333265D01*
X187982388Y-88261400D01*
X186417612Y-88261400D01*
X186056322Y-88333265D01*
X185646620Y-88607020D01*
X185372865Y-89016722D01*
X185276735Y-89500000D01*
X182325000Y-89500000D01*
X182325000Y-84500000D01*
X185276735Y-84500000D01*
X185372865Y-84983278D01*
X185646620Y-85392980D01*
X186056322Y-85666735D01*
X186417612Y-85738600D01*
X187982388Y-85738600D01*
X188343678Y-85666735D01*
X188753380Y-85392980D01*
X189027135Y-84983278D01*
X189123265Y-84500000D01*
X189027135Y-84016722D01*
X188753380Y-83607020D01*
X188343678Y-83333265D01*
X187982388Y-83261400D01*
X186417612Y-83261400D01*
X186056322Y-83333265D01*
X185646620Y-83607020D01*
X185372865Y-84016722D01*
X185276735Y-84500000D01*
X182325000Y-84500000D01*
X182325000Y-76500000D01*
X185276735Y-76500000D01*
X185372865Y-76983278D01*
X185646620Y-77392980D01*
X186056322Y-77666735D01*
X186417612Y-77738600D01*
X187982388Y-77738600D01*
X188343678Y-77666735D01*
X188753380Y-77392980D01*
X188985330Y-77045843D01*
X192225806Y-77045843D01*
X192225806Y-77354157D01*
X192343793Y-77639002D01*
X192561804Y-77857013D01*
X192846649Y-77975000D01*
X193154963Y-77975000D01*
X193439808Y-77857013D01*
X193471821Y-77825000D01*
X196038445Y-77825000D01*
X196100000Y-77837244D01*
X196161555Y-77825000D01*
X196343863Y-77788737D01*
X196550600Y-77650600D01*
X196585473Y-77598409D01*
X199138037Y-75045845D01*
X200425000Y-75045845D01*
X200425000Y-75354159D01*
X200542987Y-75639004D01*
X200760998Y-75857015D01*
X201045843Y-75975002D01*
X201354157Y-75975002D01*
X201639002Y-75857015D01*
X201671015Y-75825002D01*
X207641120Y-75825002D01*
X209688737Y-77872620D01*
X209625000Y-78026495D01*
X209625000Y-78573505D01*
X209834331Y-79078875D01*
X210221125Y-79465669D01*
X210726495Y-79675000D01*
X211273505Y-79675000D01*
X211778875Y-79465669D01*
X212165669Y-79078875D01*
X212375000Y-78573505D01*
X212375000Y-78026495D01*
X212165669Y-77521125D01*
X211778875Y-77134331D01*
X211273505Y-76925000D01*
X210726495Y-76925000D01*
X210572620Y-76988737D01*
X208385468Y-74801586D01*
X208350599Y-74749401D01*
X208143862Y-74611263D01*
X207900000Y-74562756D01*
X207838435Y-74575002D01*
X201671015Y-74575002D01*
X201639002Y-74542989D01*
X201354157Y-74425002D01*
X201045843Y-74425002D01*
X200760998Y-74542989D01*
X200542987Y-74761000D01*
X200425000Y-75045845D01*
X199138037Y-75045845D01*
X201712631Y-72471251D01*
X202650000Y-72471251D01*
X202650000Y-72928749D01*
X202825077Y-73351423D01*
X203148577Y-73674923D01*
X203571251Y-73850000D01*
X204028749Y-73850000D01*
X204451423Y-73674923D01*
X204774923Y-73351423D01*
X204950000Y-72928749D01*
X204950000Y-72881250D01*
X207600000Y-72881250D01*
X207600000Y-73559538D01*
X207664702Y-73715743D01*
X207784257Y-73835298D01*
X207940462Y-73900000D01*
X208618750Y-73900000D01*
X208725000Y-73793750D01*
X208725000Y-72775000D01*
X208875000Y-72775000D01*
X208875000Y-73793750D01*
X208981250Y-73900000D01*
X209659538Y-73900000D01*
X209815743Y-73835298D01*
X209935298Y-73715743D01*
X210000000Y-73559538D01*
X210000000Y-72881250D01*
X209893750Y-72775000D01*
X208875000Y-72775000D01*
X208725000Y-72775000D01*
X207706250Y-72775000D01*
X207600000Y-72881250D01*
X204950000Y-72881250D01*
X204950000Y-72471251D01*
X204774923Y-72048577D01*
X204566808Y-71840462D01*
X207600000Y-71840462D01*
X207600000Y-72518750D01*
X207706250Y-72625000D01*
X208725000Y-72625000D01*
X208725000Y-71606250D01*
X208875000Y-71606250D01*
X208875000Y-72625000D01*
X209893750Y-72625000D01*
X210000000Y-72518750D01*
X210000000Y-71840462D01*
X209935298Y-71684257D01*
X209815743Y-71564702D01*
X209659538Y-71500000D01*
X208981250Y-71500000D01*
X208875000Y-71606250D01*
X208725000Y-71606250D01*
X208618750Y-71500000D01*
X207940462Y-71500000D01*
X207784257Y-71564702D01*
X207664702Y-71684257D01*
X207600000Y-71840462D01*
X204566808Y-71840462D01*
X204451423Y-71725077D01*
X204028749Y-71550000D01*
X203571251Y-71550000D01*
X203148577Y-71725077D01*
X202825077Y-72048577D01*
X202650000Y-72471251D01*
X201712631Y-72471251D01*
X205578768Y-68605114D01*
X205648577Y-68674923D01*
X206071251Y-68850000D01*
X206528749Y-68850000D01*
X206951423Y-68674923D01*
X207274923Y-68351423D01*
X207450000Y-67928749D01*
X207450000Y-67471251D01*
X207274923Y-67048577D01*
X206951423Y-66725077D01*
X206528749Y-66550000D01*
X206071251Y-66550000D01*
X205648577Y-66725077D01*
X205325077Y-67048577D01*
X205277289Y-67163947D01*
X205149400Y-67249400D01*
X205114529Y-67301588D01*
X195841118Y-76575000D01*
X193471821Y-76575000D01*
X193439808Y-76542987D01*
X193154963Y-76425000D01*
X192846649Y-76425000D01*
X192561804Y-76542987D01*
X192343793Y-76760998D01*
X192225806Y-77045843D01*
X188985330Y-77045843D01*
X189027135Y-76983278D01*
X189123265Y-76500000D01*
X189027135Y-76016722D01*
X188753380Y-75607020D01*
X188343678Y-75333265D01*
X187982388Y-75261400D01*
X186417612Y-75261400D01*
X186056322Y-75333265D01*
X185646620Y-75607020D01*
X185372865Y-76016722D01*
X185276735Y-76500000D01*
X182325000Y-76500000D01*
X182325000Y-71858882D01*
X182683882Y-71500000D01*
X185276735Y-71500000D01*
X185372865Y-71983278D01*
X185646620Y-72392980D01*
X186056322Y-72666735D01*
X186417612Y-72738600D01*
X187982388Y-72738600D01*
X188343678Y-72666735D01*
X188753380Y-72392980D01*
X189027135Y-71983278D01*
X189123265Y-71500000D01*
X189027135Y-71016722D01*
X188753380Y-70607020D01*
X188483207Y-70426495D01*
X189425000Y-70426495D01*
X189425000Y-70973505D01*
X189634331Y-71478875D01*
X190021125Y-71865669D01*
X190526495Y-72075000D01*
X191073505Y-72075000D01*
X191578875Y-71865669D01*
X191965669Y-71478875D01*
X192175000Y-70973505D01*
X192175000Y-70426495D01*
X191965669Y-69921125D01*
X191578875Y-69534331D01*
X191073505Y-69325000D01*
X190526495Y-69325000D01*
X190021125Y-69534331D01*
X189634331Y-69921125D01*
X189425000Y-70426495D01*
X188483207Y-70426495D01*
X188343678Y-70333265D01*
X187982388Y-70261400D01*
X186417612Y-70261400D01*
X186056322Y-70333265D01*
X185646620Y-70607020D01*
X185372865Y-71016722D01*
X185276735Y-71500000D01*
X182683882Y-71500000D01*
X186208883Y-67975000D01*
X186254157Y-67975000D01*
X186539002Y-67857013D01*
X186571015Y-67825000D01*
X203438445Y-67825000D01*
X203500000Y-67837244D01*
X203561555Y-67825000D01*
X203743863Y-67788737D01*
X203950600Y-67650600D01*
X203985472Y-67598410D01*
X207085468Y-64498416D01*
X207085472Y-64498411D01*
X207108882Y-64475000D01*
X207154157Y-64475000D01*
X207439002Y-64357013D01*
X207657013Y-64139002D01*
X207775000Y-63854157D01*
X207775000Y-63545843D01*
X207657013Y-63260998D01*
X207439002Y-63042987D01*
X207200393Y-62944151D01*
X207565669Y-62578875D01*
X207775000Y-62073505D01*
X207775000Y-61526495D01*
X207565669Y-61021125D01*
X207178875Y-60634331D01*
X206673505Y-60425000D01*
X206126495Y-60425000D01*
X205621125Y-60634331D01*
X205234331Y-61021125D01*
X205025000Y-61526495D01*
X205025000Y-62073505D01*
X205234331Y-62578875D01*
X205621125Y-62965669D01*
X206126495Y-63175000D01*
X206428985Y-63175000D01*
X206342987Y-63260998D01*
X206225000Y-63545843D01*
X206225000Y-63591118D01*
X206201589Y-63614528D01*
X206201584Y-63614532D01*
X203241118Y-66575000D01*
X186571015Y-66575000D01*
X186539002Y-66542987D01*
X186254157Y-66425000D01*
X185945843Y-66425000D01*
X185660998Y-66542987D01*
X185442987Y-66760998D01*
X185325000Y-67045843D01*
X185325000Y-67091117D01*
X181301588Y-71114530D01*
X181249401Y-71149400D01*
X181149568Y-71298811D01*
X181111263Y-71356138D01*
X181062756Y-71600000D01*
X181075001Y-71661560D01*
X181075000Y-99428985D01*
X181042987Y-99460998D01*
X180925000Y-99745843D01*
X166382346Y-99745843D01*
X166382346Y-98350000D01*
X166353242Y-98203683D01*
X166270359Y-98079641D01*
X166146317Y-97996758D01*
X166000000Y-97967654D01*
X165225000Y-97967654D01*
X165225000Y-95816822D01*
X168025000Y-95816822D01*
X168025000Y-96483178D01*
X168280004Y-97098811D01*
X168751189Y-97569996D01*
X169366822Y-97825000D01*
X170033178Y-97825000D01*
X170648811Y-97569996D01*
X171119996Y-97098811D01*
X171375000Y-96483178D01*
X171375000Y-95816822D01*
X171119996Y-95201189D01*
X170648811Y-94730004D01*
X170033178Y-94475000D01*
X169366822Y-94475000D01*
X168751189Y-94730004D01*
X168280004Y-95201189D01*
X168025000Y-95816822D01*
X165225000Y-95816822D01*
X165225000Y-92732346D01*
X166000000Y-92732346D01*
X166146317Y-92703242D01*
X166270359Y-92620359D01*
X166353242Y-92496317D01*
X166382346Y-92350000D01*
X166382346Y-89750000D01*
X166353242Y-89603683D01*
X166283963Y-89500000D01*
X172776735Y-89500000D01*
X172872865Y-89983278D01*
X173146620Y-90392980D01*
X173556322Y-90666735D01*
X173917612Y-90738600D01*
X175482388Y-90738600D01*
X175843678Y-90666735D01*
X176253380Y-90392980D01*
X176527135Y-89983278D01*
X176623265Y-89500000D01*
X176527135Y-89016722D01*
X176253380Y-88607020D01*
X175843678Y-88333265D01*
X175482388Y-88261400D01*
X173917612Y-88261400D01*
X173556322Y-88333265D01*
X173146620Y-88607020D01*
X172872865Y-89016722D01*
X172776735Y-89500000D01*
X166283963Y-89500000D01*
X166270359Y-89479641D01*
X166146317Y-89396758D01*
X166000000Y-89367654D01*
X165225000Y-89367654D01*
X165225000Y-88358882D01*
X166367060Y-87216822D01*
X168025000Y-87216822D01*
X168025000Y-87883178D01*
X168280004Y-88498811D01*
X168751189Y-88969996D01*
X169366822Y-89225000D01*
X170033178Y-89225000D01*
X170648811Y-88969996D01*
X171119996Y-88498811D01*
X171375000Y-87883178D01*
X171375000Y-87216822D01*
X171119996Y-86601189D01*
X170648811Y-86130004D01*
X170033178Y-85875000D01*
X169366822Y-85875000D01*
X168751189Y-86130004D01*
X168280004Y-86601189D01*
X168025000Y-87216822D01*
X166367060Y-87216822D01*
X169358883Y-84225000D01*
X171828985Y-84225000D01*
X171860998Y-84257013D01*
X172145843Y-84375000D01*
X172454157Y-84375000D01*
X172739002Y-84257013D01*
X172846439Y-84149576D01*
X172776735Y-84500000D01*
X172872865Y-84983278D01*
X173146620Y-85392980D01*
X173556322Y-85666735D01*
X173917612Y-85738600D01*
X175482388Y-85738600D01*
X175843678Y-85666735D01*
X176253380Y-85392980D01*
X176527135Y-84983278D01*
X176623265Y-84500000D01*
X176527135Y-84016722D01*
X176253380Y-83607020D01*
X175843678Y-83333265D01*
X175482388Y-83261400D01*
X173917612Y-83261400D01*
X173556322Y-83333265D01*
X173237760Y-83546122D01*
X179389603Y-77394280D01*
X179441790Y-77359410D01*
X179579927Y-77152673D01*
X179613186Y-76985468D01*
X179628434Y-76908810D01*
X179616190Y-76847255D01*
X179616190Y-64925000D01*
X183128985Y-64925000D01*
X183160998Y-64957013D01*
X183445843Y-65075000D01*
X183754157Y-65075000D01*
X184039002Y-64957013D01*
X184257013Y-64739002D01*
X184375000Y-64454157D01*
X184375000Y-64145843D01*
X184257013Y-63860998D01*
X184039002Y-63642987D01*
X183754157Y-63525000D01*
X183445843Y-63525000D01*
X183160998Y-63642987D01*
X183128985Y-63675000D01*
X179625000Y-63675000D01*
X179625000Y-63036713D01*
X190075000Y-63036713D01*
X190075000Y-63663287D01*
X190314780Y-64242166D01*
X190757834Y-64685220D01*
X191336713Y-64925000D01*
X191963287Y-64925000D01*
X192542166Y-64685220D01*
X192985220Y-64242166D01*
X193225000Y-63663287D01*
X193225000Y-63036713D01*
X196775000Y-63036713D01*
X196775000Y-63663287D01*
X197014780Y-64242166D01*
X197457834Y-64685220D01*
X198036713Y-64925000D01*
X198663287Y-64925000D01*
X199242166Y-64685220D01*
X199685220Y-64242166D01*
X199925000Y-63663287D01*
X199925000Y-63036713D01*
X199685220Y-62457834D01*
X199242166Y-62014780D01*
X198663287Y-61775000D01*
X198036713Y-61775000D01*
X197457834Y-62014780D01*
X197014780Y-62457834D01*
X196775000Y-63036713D01*
X193225000Y-63036713D01*
X192985220Y-62457834D01*
X192542166Y-62014780D01*
X191963287Y-61775000D01*
X191336713Y-61775000D01*
X190757834Y-62014780D01*
X190314780Y-62457834D01*
X190075000Y-63036713D01*
X179625000Y-63036713D01*
X179625000Y-61148179D01*
X189207887Y-61148179D01*
X189337810Y-61383119D01*
X189936543Y-61626915D01*
X190582997Y-61623029D01*
X191162190Y-61383119D01*
X191292113Y-61148179D01*
X190250000Y-60106066D01*
X189207887Y-61148179D01*
X179625000Y-61148179D01*
X179625000Y-59686543D01*
X188623085Y-59686543D01*
X188626971Y-60332997D01*
X188866881Y-60912190D01*
X189101821Y-61042113D01*
X190143934Y-60000000D01*
X190356066Y-60000000D01*
X191398179Y-61042113D01*
X191633119Y-60912190D01*
X191876915Y-60313457D01*
X191873148Y-59686713D01*
X198175000Y-59686713D01*
X198175000Y-60313287D01*
X198414780Y-60892166D01*
X198857834Y-61335220D01*
X199436713Y-61575000D01*
X200063287Y-61575000D01*
X200642166Y-61335220D01*
X201085220Y-60892166D01*
X201325000Y-60313287D01*
X201325000Y-59686713D01*
X201085220Y-59107834D01*
X200642166Y-58664780D01*
X200063287Y-58425000D01*
X199436713Y-58425000D01*
X198857834Y-58664780D01*
X198414780Y-59107834D01*
X198175000Y-59686713D01*
X191873148Y-59686713D01*
X191873029Y-59667003D01*
X191633119Y-59087810D01*
X191398179Y-58957887D01*
X190356066Y-60000000D01*
X190143934Y-60000000D01*
X189101821Y-58957887D01*
X188866881Y-59087810D01*
X188623085Y-59686543D01*
X179625000Y-59686543D01*
X179625000Y-58851821D01*
X189207887Y-58851821D01*
X190250000Y-59893934D01*
X191292113Y-58851821D01*
X191162190Y-58616881D01*
X190563457Y-58373085D01*
X189917003Y-58376971D01*
X189337810Y-58616881D01*
X189207887Y-58851821D01*
X179625000Y-58851821D01*
X179625000Y-58551776D01*
X180088388Y-58088388D01*
X180115485Y-58047835D01*
X180125000Y-58000000D01*
X180125000Y-57278882D01*
X181596078Y-55807804D01*
X181413175Y-56081538D01*
X181321981Y-56540000D01*
X181413175Y-56998462D01*
X181672873Y-57387127D01*
X182061538Y-57646825D01*
X182404276Y-57715000D01*
X183435724Y-57715000D01*
X183778462Y-57646825D01*
X184167127Y-57387127D01*
X184426825Y-56998462D01*
X184518019Y-56540000D01*
X184477583Y-56336713D01*
X190075000Y-56336713D01*
X190075000Y-56963287D01*
X190314780Y-57542166D01*
X190757834Y-57985220D01*
X191336713Y-58225000D01*
X191963287Y-58225000D01*
X192542166Y-57985220D01*
X192985220Y-57542166D01*
X193225000Y-56963287D01*
X193225000Y-56336713D01*
X196775000Y-56336713D01*
X196775000Y-56963287D01*
X197014780Y-57542166D01*
X197457834Y-57985220D01*
X198036713Y-58225000D01*
X198663287Y-58225000D01*
X199242166Y-57985220D01*
X199685220Y-57542166D01*
X199925000Y-56963287D01*
X199925000Y-56336713D01*
X199685220Y-55757834D01*
X199242166Y-55314780D01*
X198663287Y-55075000D01*
X198036713Y-55075000D01*
X197457834Y-55314780D01*
X197014780Y-55757834D01*
X196775000Y-56336713D01*
X193225000Y-56336713D01*
X192985220Y-55757834D01*
X192542166Y-55314780D01*
X191963287Y-55075000D01*
X191336713Y-55075000D01*
X190757834Y-55314780D01*
X190314780Y-55757834D01*
X190075000Y-56336713D01*
X184477583Y-56336713D01*
X184426825Y-56081538D01*
X184167127Y-55692873D01*
X183778462Y-55433175D01*
X183435724Y-55365000D01*
X182404276Y-55365000D01*
X182061538Y-55433175D01*
X181787805Y-55616078D01*
X182257982Y-55145900D01*
X182404276Y-55175000D01*
X183435724Y-55175000D01*
X183778462Y-55106825D01*
X184167127Y-54847127D01*
X184315548Y-54625000D01*
X204941118Y-54625000D01*
X206387282Y-56071165D01*
G36*
X209875000Y-57691118D02*
X209300889Y-57117007D01*
X209406825Y-56958462D01*
X209498019Y-56500000D01*
X209406825Y-56041538D01*
X209147127Y-55652873D01*
X208758462Y-55393175D01*
X208415724Y-55325000D01*
X207408883Y-55325000D01*
X207177815Y-55093932D01*
X207384276Y-55135000D01*
X208415724Y-55135000D01*
X208758462Y-55066825D01*
X209147127Y-54807127D01*
X209406825Y-54418462D01*
X209498019Y-53960000D01*
X209406825Y-53501538D01*
X209147127Y-53112873D01*
X208758462Y-52853175D01*
X208415724Y-52785000D01*
X207384276Y-52785000D01*
X207041538Y-52853175D01*
X206652873Y-53112873D01*
X206393175Y-53501538D01*
X206301981Y-53960000D01*
X206366068Y-54282186D01*
X205685472Y-53601590D01*
X205650600Y-53549400D01*
X205443863Y-53411263D01*
X205261555Y-53375000D01*
X205200000Y-53362756D01*
X205138445Y-53375000D01*
X186273505Y-53375000D01*
X186778875Y-53165669D01*
X187165669Y-52778875D01*
X187375000Y-52273505D01*
X187375000Y-51726495D01*
X187165669Y-51221125D01*
X186778875Y-50834331D01*
X186273505Y-50625000D01*
X185726495Y-50625000D01*
X185221125Y-50834331D01*
X184834331Y-51221125D01*
X184625000Y-51726495D01*
X184625000Y-52273505D01*
X184834331Y-52778875D01*
X185221125Y-53165669D01*
X185726495Y-53375000D01*
X184315548Y-53375000D01*
X184167127Y-53152873D01*
X183778462Y-52893175D01*
X183435724Y-52825000D01*
X182404276Y-52825000D01*
X182061538Y-52893175D01*
X181672873Y-53152873D01*
X181413175Y-53541538D01*
X181321981Y-54000000D01*
X181374100Y-54262018D01*
X180125000Y-55511118D01*
X180125000Y-50450000D01*
X209875000Y-50450000D01*
X209875000Y-57691118D01*
X209875000Y-57691118D01*
G37*
X209875000Y-57691118D02*
X209300889Y-57117007D01*
X209406825Y-56958462D01*
X209498019Y-56500000D01*
X209406825Y-56041538D01*
X209147127Y-55652873D01*
X208758462Y-55393175D01*
X208415724Y-55325000D01*
X207408883Y-55325000D01*
X207177815Y-55093932D01*
X207384276Y-55135000D01*
X208415724Y-55135000D01*
X208758462Y-55066825D01*
X209147127Y-54807127D01*
X209406825Y-54418462D01*
X209498019Y-53960000D01*
X209406825Y-53501538D01*
X209147127Y-53112873D01*
X208758462Y-52853175D01*
X208415724Y-52785000D01*
X207384276Y-52785000D01*
X207041538Y-52853175D01*
X206652873Y-53112873D01*
X206393175Y-53501538D01*
X206301981Y-53960000D01*
X206366068Y-54282186D01*
X205685472Y-53601590D01*
X205650600Y-53549400D01*
X205443863Y-53411263D01*
X205261555Y-53375000D01*
X205200000Y-53362756D01*
X205138445Y-53375000D01*
X186273505Y-53375000D01*
X186778875Y-53165669D01*
X187165669Y-52778875D01*
X187375000Y-52273505D01*
X187375000Y-51726495D01*
X187165669Y-51221125D01*
X186778875Y-50834331D01*
X186273505Y-50625000D01*
X185726495Y-50625000D01*
X185221125Y-50834331D01*
X184834331Y-51221125D01*
X184625000Y-51726495D01*
X184625000Y-52273505D01*
X184834331Y-52778875D01*
X185221125Y-53165669D01*
X185726495Y-53375000D01*
X184315548Y-53375000D01*
X184167127Y-53152873D01*
X183778462Y-52893175D01*
X183435724Y-52825000D01*
X182404276Y-52825000D01*
X182061538Y-52893175D01*
X181672873Y-53152873D01*
X181413175Y-53541538D01*
X181321981Y-54000000D01*
X181374100Y-54262018D01*
X180125000Y-55511118D01*
X180125000Y-50450000D01*
X209875000Y-50450000D01*
X209875000Y-57691118D01*
G04 #@! TD*
M02*
