G04 #@! TF.GenerationSoftware,KiCad,Pcbnew,(5.0.2)-1*
G04 #@! TF.CreationDate,2019-05-12T17:58:37+02:00*
G04 #@! TF.ProjectId,SystemSupply,53797374-656d-4537-9570-706c792e6b69,rev?*
G04 #@! TF.SameCoordinates,Original*
G04 #@! TF.FileFunction,Copper,L2,Bot*
G04 #@! TF.FilePolarity,Positive*
%FSLAX46Y46*%
G04 Gerber Fmt 4.6, Leading zero omitted, Abs format (unit mm)*
G04 Created by KiCad (PCBNEW (5.0.2)-1) date 12.05.2019 17:58:37*
%MOMM*%
%LPD*%
G01*
G04 APERTURE LIST*
G04 #@! TA.AperFunction,ComponentPad*
%ADD10R,3.450000X3.450000*%
G04 #@! TD*
G04 #@! TA.AperFunction,ComponentPad*
%ADD11C,4.200000*%
G04 #@! TD*
G04 #@! TA.AperFunction,ComponentPad*
%ADD12C,2.200000*%
G04 #@! TD*
G04 #@! TA.AperFunction,ComponentPad*
%ADD13O,3.048000X1.727200*%
G04 #@! TD*
G04 #@! TA.AperFunction,ComponentPad*
%ADD14C,1.800000*%
G04 #@! TD*
G04 #@! TA.AperFunction,ComponentPad*
%ADD15R,2.600000X2.600000*%
G04 #@! TD*
G04 #@! TA.AperFunction,ComponentPad*
%ADD16C,2.600000*%
G04 #@! TD*
G04 #@! TA.AperFunction,ComponentPad*
%ADD17O,2.000000X4.700000*%
G04 #@! TD*
G04 #@! TA.AperFunction,ComponentPad*
%ADD18O,2.000000X4.750000*%
G04 #@! TD*
G04 #@! TA.AperFunction,ComponentPad*
%ADD19O,4.000000X2.400000*%
G04 #@! TD*
G04 #@! TA.AperFunction,ComponentPad*
%ADD20O,4.000000X2.500000*%
G04 #@! TD*
G04 #@! TA.AperFunction,ComponentPad*
%ADD21C,1.600000*%
G04 #@! TD*
G04 #@! TA.AperFunction,ComponentPad*
%ADD22C,2.000000*%
G04 #@! TD*
G04 #@! TA.AperFunction,ComponentPad*
%ADD23C,3.700000*%
G04 #@! TD*
G04 #@! TA.AperFunction,ComponentPad*
%ADD24O,2.400000X1.600000*%
G04 #@! TD*
G04 #@! TA.AperFunction,ComponentPad*
%ADD25R,2.400000X1.600000*%
G04 #@! TD*
G04 #@! TA.AperFunction,ComponentPad*
%ADD26O,1.400000X1.400000*%
G04 #@! TD*
G04 #@! TA.AperFunction,ComponentPad*
%ADD27C,1.400000*%
G04 #@! TD*
G04 #@! TA.AperFunction,ViaPad*
%ADD28C,0.700000*%
G04 #@! TD*
G04 #@! TA.AperFunction,Conductor*
%ADD29C,5.000000*%
G04 #@! TD*
G04 #@! TA.AperFunction,Conductor*
%ADD30C,2.000000*%
G04 #@! TD*
G04 #@! TA.AperFunction,Conductor*
%ADD31C,0.500000*%
G04 #@! TD*
G04 #@! TA.AperFunction,Conductor*
%ADD32C,0.254000*%
G04 #@! TD*
G04 #@! TA.AperFunction,Conductor*
%ADD33C,0.200000*%
G04 #@! TD*
G04 APERTURE END LIST*
D10*
G04 #@! TO.P,U2,4*
G04 #@! TO.N,GND*
X125800000Y-121900000D03*
G04 #@! TO.P,U2,3*
G04 #@! TO.N,/OUT+*
X108400000Y-121900000D03*
G04 #@! TO.P,U2,2*
G04 #@! TO.N,GNDPWR*
X125800000Y-161900000D03*
G04 #@! TO.P,U2,1*
G04 #@! TO.N,/IN+*
X108400000Y-161900000D03*
G04 #@! TD*
D11*
G04 #@! TO.P,K1,14*
G04 #@! TO.N,Net-(F1-Pad1)*
X84100000Y-123700000D03*
G04 #@! TO.P,K1,11*
G04 #@! TO.N,Net-(D1-Pad1)*
X86640000Y-141500000D03*
D12*
G04 #@! TO.P,K1,A1*
G04 #@! TO.N,Net-(J6-Pad1)*
X99500000Y-127500000D03*
G04 #@! TO.P,K1,A2*
G04 #@! TO.N,Net-(J6-Pad2)*
X99500000Y-137700000D03*
G04 #@! TD*
D13*
G04 #@! TO.P,SW3,1*
G04 #@! TO.N,Net-(D6-Pad2)*
X101500000Y-114300000D03*
G04 #@! TO.P,SW3,2*
G04 #@! TO.N,GND*
X101500000Y-119300000D03*
G04 #@! TO.P,SW3,1*
G04 #@! TO.N,Net-(D6-Pad2)*
X89000000Y-114300000D03*
G04 #@! TO.P,SW3,2*
G04 #@! TO.N,GND*
X89000000Y-119300000D03*
G04 #@! TD*
D14*
G04 #@! TO.P,J3,1*
G04 #@! TO.N,GND*
X123300000Y-104250000D03*
G04 #@! TO.P,J3,2*
G04 #@! TO.N,Net-(D2-Pad1)*
X122030000Y-106790000D03*
G04 #@! TO.P,J3,4*
G04 #@! TO.N,Net-(J3-Pad4)*
X119490000Y-106790000D03*
G04 #@! TO.P,J3,3*
G04 #@! TO.N,Net-(J3-Pad3)*
X120760000Y-104250000D03*
G04 #@! TD*
G04 #@! TO.P,J7,1*
G04 #@! TO.N,GND*
X111300000Y-104250000D03*
G04 #@! TO.P,J7,2*
G04 #@! TO.N,Net-(D2-Pad1)*
X110030000Y-106790000D03*
G04 #@! TO.P,J7,4*
G04 #@! TO.N,Net-(J3-Pad4)*
X107490000Y-106790000D03*
G04 #@! TO.P,J7,3*
G04 #@! TO.N,Net-(J3-Pad3)*
X108760000Y-104250000D03*
G04 #@! TD*
D15*
G04 #@! TO.P,J10,1*
G04 #@! TO.N,Net-(D7-Pad2)*
X87950000Y-94700000D03*
D16*
G04 #@! TO.P,J10,2*
G04 #@! TO.N,Net-(J10-Pad2)*
X91450000Y-99700000D03*
G04 #@! TD*
D15*
G04 #@! TO.P,J9,1*
G04 #@! TO.N,Net-(D6-Pad2)*
X96550000Y-94700000D03*
D16*
G04 #@! TO.P,J9,2*
G04 #@! TO.N,+12V*
X100050000Y-99700000D03*
G04 #@! TD*
D15*
G04 #@! TO.P,J8,1*
G04 #@! TO.N,GND*
X70750000Y-94700000D03*
D16*
G04 #@! TO.P,J8,2*
G04 #@! TO.N,Net-(D5-Pad1)*
X74250000Y-99700000D03*
G04 #@! TD*
D15*
G04 #@! TO.P,J6,1*
G04 #@! TO.N,Net-(J6-Pad1)*
X79350000Y-94700000D03*
D16*
G04 #@! TO.P,J6,2*
G04 #@! TO.N,Net-(J6-Pad2)*
X82850000Y-99700000D03*
G04 #@! TD*
D17*
G04 #@! TO.P,F1,2*
G04 #@! TO.N,Net-(F1-Pad2)*
X61920000Y-123572000D03*
D18*
X72080000Y-123572000D03*
D17*
G04 #@! TO.P,F1,1*
G04 #@! TO.N,Net-(F1-Pad1)*
X61920000Y-114428000D03*
D18*
X72080000Y-114428000D03*
G04 #@! TD*
D19*
G04 #@! TO.P,J4,1*
G04 #@! TO.N,GNDPWR*
X68100000Y-137900000D03*
D20*
X63100000Y-137900000D03*
G04 #@! TD*
D19*
G04 #@! TO.P,J5,1*
G04 #@! TO.N,GNDPWR*
X68100000Y-147900000D03*
D20*
X63100000Y-147900000D03*
G04 #@! TD*
D19*
G04 #@! TO.P,J2,1*
G04 #@! TO.N,Net-(F1-Pad2)*
X68100000Y-130900000D03*
D20*
X63100000Y-130900000D03*
G04 #@! TD*
D19*
G04 #@! TO.P,J1,1*
G04 #@! TO.N,+24V*
X68100000Y-154900000D03*
D20*
X63100000Y-154900000D03*
G04 #@! TD*
D21*
G04 #@! TO.P,C4,2*
G04 #@! TO.N,GND*
X130300000Y-120700000D03*
G04 #@! TO.P,C4,1*
G04 #@! TO.N,+12V*
X132300000Y-120700000D03*
G04 #@! TD*
G04 #@! TO.P,C3,1*
G04 #@! TO.N,/IN+*
X103900000Y-159500000D03*
G04 #@! TO.P,C3,2*
G04 #@! TO.N,GNDPWR*
X101900000Y-159500000D03*
G04 #@! TD*
D22*
G04 #@! TO.P,TP1,1*
G04 #@! TO.N,Net-(D1-Pad1)*
X72900000Y-150400000D03*
G04 #@! TD*
G04 #@! TO.P,TP5,1*
G04 #@! TO.N,+12V*
X123000000Y-117000000D03*
G04 #@! TD*
G04 #@! TO.P,TP6,1*
G04 #@! TO.N,GND*
X109700000Y-117000000D03*
G04 #@! TD*
D23*
G04 #@! TO.P,SW2,3*
G04 #@! TO.N,Net-(D5-Pad1)*
X72600000Y-106300000D03*
G04 #@! TO.P,SW2,2*
X77300000Y-106300000D03*
G04 #@! TO.P,SW2,1*
G04 #@! TO.N,+12V*
X82000000Y-106300000D03*
G04 #@! TD*
G04 #@! TO.P,SW1,3*
G04 #@! TO.N,Net-(D2-Pad1)*
X120900000Y-111600000D03*
G04 #@! TO.P,SW1,2*
X116200000Y-111600000D03*
G04 #@! TO.P,SW1,1*
G04 #@! TO.N,+12V*
X111500000Y-111600000D03*
G04 #@! TD*
D22*
G04 #@! TO.P,U3,5*
G04 #@! TO.N,GND*
X109740000Y-132240000D03*
G04 #@! TO.P,U3,4*
G04 #@! TO.N,Net-(U3-Pad4)*
X119900000Y-132240000D03*
G04 #@! TO.P,U3,3*
G04 #@! TO.N,/OUT+*
X130060000Y-132240000D03*
G04 #@! TO.P,U3,6*
G04 #@! TO.N,Net-(U3-Pad6)*
X109740000Y-152560000D03*
G04 #@! TO.P,U3,1*
G04 #@! TO.N,/IN+*
X122440000Y-152560000D03*
G04 #@! TO.P,U3,2*
G04 #@! TO.N,GNDPWR*
X117360000Y-152560000D03*
G04 #@! TD*
D24*
G04 #@! TO.P,U4,4*
G04 #@! TO.N,+12V*
X97420000Y-106000000D03*
G04 #@! TO.P,U4,2*
G04 #@! TO.N,Net-(D7-Pad2)*
X89800000Y-108540000D03*
G04 #@! TO.P,U4,3*
G04 #@! TO.N,Net-(Q2-Pad1)*
X97420000Y-108540000D03*
D25*
G04 #@! TO.P,U4,1*
G04 #@! TO.N,Net-(D7-Pad1)*
X89800000Y-106000000D03*
G04 #@! TD*
D26*
G04 #@! TO.P,R1,2*
G04 #@! TO.N,GNDPWR*
X90500000Y-152580000D03*
D27*
G04 #@! TO.P,R1,1*
G04 #@! TO.N,Net-(D1-Pad1)*
X90500000Y-147500000D03*
G04 #@! TD*
D28*
G04 #@! TO.N,Net-(D1-Pad1)*
X78600000Y-148200000D03*
X78600000Y-150900000D03*
X78600000Y-150000000D03*
X78600000Y-147300000D03*
X78600000Y-149100000D03*
X77700000Y-148200000D03*
X77700000Y-150900000D03*
X77700000Y-150000000D03*
X77700000Y-147300000D03*
X77700000Y-149100000D03*
X76800000Y-148200000D03*
X76800000Y-150900000D03*
X76800000Y-150000000D03*
X76800000Y-147300000D03*
X76800000Y-149100000D03*
X75900000Y-147300000D03*
X75900000Y-148200000D03*
X75900000Y-150900000D03*
X75900000Y-149100000D03*
X75900000Y-150000000D03*
G04 #@! TO.N,GNDPWR*
X118000000Y-162000000D03*
X128000000Y-149000000D03*
X99500000Y-147800000D03*
X98000000Y-159000000D03*
X93000000Y-157000000D03*
X92000000Y-150000000D03*
X90000000Y-150000000D03*
X133000000Y-163000000D03*
X133000000Y-158000000D03*
X133000000Y-153000000D03*
X133000000Y-149000000D03*
X123000000Y-149000000D03*
X118000000Y-149000000D03*
X112000000Y-149000000D03*
X107000000Y-149000000D03*
X99500000Y-147800000D03*
X96000000Y-150000000D03*
X99500000Y-147800000D03*
X99500000Y-147800000D03*
X99500000Y-147800000D03*
X97000000Y-150000000D03*
X98000000Y-150000000D03*
X122075000Y-161900000D03*
X90000000Y-163000000D03*
G04 #@! TO.N,GND*
X94000000Y-134000000D03*
X94000000Y-107000000D03*
X97000000Y-113000000D03*
X107000000Y-116000000D03*
X133000000Y-145000000D03*
X128000000Y-145000000D03*
X123000000Y-145000000D03*
X118000000Y-145000000D03*
X113000000Y-145000000D03*
X108000000Y-145000000D03*
X105000000Y-145000000D03*
X102000000Y-142000000D03*
X100000000Y-140000000D03*
X97000000Y-137000000D03*
X94000000Y-129000000D03*
X94000000Y-124000000D03*
X92000000Y-121000000D03*
X87000000Y-117000000D03*
X84000000Y-114000000D03*
X80000000Y-110000000D03*
X75000000Y-109000000D03*
X70000000Y-109000000D03*
X62000000Y-109000000D03*
X62000000Y-92000000D03*
X62000000Y-97000000D03*
X62000000Y-102000000D03*
X67000000Y-92000000D03*
X72000000Y-92000000D03*
X77000000Y-92000000D03*
X82000000Y-92000000D03*
X87000000Y-92000000D03*
X92000000Y-92000000D03*
X97000000Y-92000000D03*
X102000000Y-92000000D03*
X107000000Y-92000000D03*
X133000000Y-92000000D03*
X128000000Y-92000000D03*
X123000000Y-92000000D03*
X118000000Y-92000000D03*
X113000000Y-92000000D03*
X133000000Y-97000000D03*
X133000000Y-102000000D03*
X133000000Y-110000000D03*
X133000000Y-115000000D03*
X133000000Y-126000000D03*
X129000000Y-126000000D03*
X126000000Y-126000000D03*
X125400000Y-119000000D03*
X115000000Y-119000000D03*
X106000000Y-119000000D03*
X99000000Y-131000000D03*
X110000000Y-135000000D03*
X110000000Y-129000000D03*
X133000000Y-140000000D03*
X133000000Y-135000000D03*
X133000000Y-130000000D03*
X89000000Y-98000000D03*
X95000000Y-100000000D03*
X105000000Y-103000000D03*
X101000000Y-111000000D03*
X82000000Y-103000000D03*
X119000000Y-114000000D03*
X125400000Y-114000000D03*
X125400000Y-109000000D03*
X119000000Y-109000000D03*
X116000000Y-106000000D03*
X114000000Y-106000000D03*
X127000000Y-104000000D03*
X121600000Y-101200000D03*
X89000000Y-101000000D03*
X74000000Y-103000000D03*
G04 #@! TO.N,+24V*
X77900000Y-157300000D03*
X77900000Y-155500000D03*
X77900000Y-154600000D03*
X77900000Y-156400000D03*
X77900000Y-158200000D03*
X77000000Y-157300000D03*
X77000000Y-155500000D03*
X77000000Y-154600000D03*
X77000000Y-156400000D03*
X77000000Y-158200000D03*
X76100000Y-157300000D03*
X76100000Y-155500000D03*
X76100000Y-154600000D03*
X76100000Y-156400000D03*
X76100000Y-158200000D03*
X75200000Y-154600000D03*
X75200000Y-155500000D03*
X75200000Y-156400000D03*
X75200000Y-157300000D03*
X75200000Y-158200000D03*
G04 #@! TD*
D29*
G04 #@! TO.N,Net-(D1-Pad1)*
X86640000Y-141500000D02*
X81200000Y-141500000D01*
X77160000Y-145540000D02*
X77160000Y-149450000D01*
X81200000Y-141500000D02*
X77160000Y-145540000D01*
G04 #@! TO.N,GNDPWR*
X63100000Y-147900000D02*
X68100000Y-147900000D01*
X68100000Y-147900000D02*
X68100000Y-137900000D01*
X63100000Y-137900000D02*
X68100000Y-137900000D01*
X63100000Y-137900000D02*
X63100000Y-147900000D01*
X99500000Y-146000000D02*
X98000000Y-150000000D01*
X88500000Y-135000000D02*
X99500000Y-146000000D01*
X68100000Y-137900000D02*
X72285045Y-137900000D01*
X75185045Y-135000000D02*
X88500000Y-135000000D01*
X72285045Y-137900000D02*
X75185045Y-135000000D01*
X99500000Y-147800000D02*
X99500000Y-147800000D01*
D30*
X122075000Y-161900000D02*
X122075000Y-161900000D01*
X125800000Y-161900000D02*
X122075000Y-161900000D01*
D29*
X99500000Y-147800000D02*
X99500000Y-147800000D01*
X99500000Y-147800000D02*
X99500000Y-147800000D01*
X99500000Y-147800000D02*
X99500000Y-147800000D01*
X99500000Y-147800000D02*
X99500000Y-147800000D01*
X97000000Y-150000000D02*
X99500000Y-147800000D01*
X97000000Y-150000000D02*
X97000000Y-150000000D01*
X98000000Y-150000000D02*
X97000000Y-150000000D01*
D30*
X122075000Y-161900000D02*
X121975000Y-161800000D01*
G04 #@! TO.N,GND*
X125400000Y-106350000D02*
X123300000Y-104250000D01*
X125400000Y-121600000D02*
X125400000Y-119000000D01*
X111300000Y-102800000D02*
X111300000Y-104250000D01*
X121600000Y-101200000D02*
X121600000Y-101200000D01*
X112900000Y-101200000D02*
X111300000Y-102800000D01*
X123300000Y-104250000D02*
X123300000Y-102900000D01*
X123300000Y-102900000D02*
X121600000Y-101200000D01*
X125400000Y-119000000D02*
X125400000Y-114000000D01*
X125400000Y-114000000D02*
X125400000Y-109000000D01*
X125400000Y-109000000D02*
X125400000Y-106350000D01*
X121600000Y-101200000D02*
X112900000Y-101200000D01*
D29*
G04 #@! TO.N,+24V*
X76600000Y-155400000D02*
X76600000Y-157500000D01*
X63100000Y-154900000D02*
X76100000Y-154900000D01*
X76100000Y-154900000D02*
X76600000Y-155400000D01*
D30*
G04 #@! TO.N,+12V*
X85300000Y-103000000D02*
X83849999Y-104450001D01*
X100283705Y-103000000D02*
X85300000Y-103000000D01*
X111500000Y-111600000D02*
X108883705Y-111600000D01*
X83849999Y-104450001D02*
X82000000Y-106300000D01*
X108883705Y-111600000D02*
X100283705Y-103000000D01*
D31*
X99750000Y-99700000D02*
X99850000Y-99800000D01*
X99850000Y-99800000D02*
X99850000Y-102566295D01*
X97420000Y-106000000D02*
X97420000Y-103380000D01*
D29*
G04 #@! TO.N,Net-(F1-Pad1)*
X72080000Y-114428000D02*
X62775010Y-114428000D01*
X74928000Y-114428000D02*
X72080000Y-114428000D01*
X84100000Y-123700000D02*
X84100000Y-123600000D01*
X84100000Y-123600000D02*
X74928000Y-114428000D01*
G04 #@! TO.N,Net-(F1-Pad2)*
X72080000Y-123572000D02*
X62775010Y-123572000D01*
X68100000Y-130900000D02*
X68100000Y-123572000D01*
X63100000Y-130900000D02*
X68100000Y-130900000D01*
X63100000Y-130900000D02*
X63100000Y-123896990D01*
D30*
G04 #@! TO.N,Net-(D2-Pad1)*
X111390000Y-106790000D02*
X110030000Y-106790000D01*
X116200000Y-111600000D02*
X111390000Y-106790000D01*
X122030000Y-110470000D02*
X122030000Y-106790000D01*
X120900000Y-111600000D02*
X122030000Y-110470000D01*
X116200000Y-111600000D02*
X120900000Y-111600000D01*
G04 #@! TD*
D32*
G04 #@! TO.N,GNDPWR*
G36*
X101873000Y-147500000D02*
X101882667Y-147548601D01*
X101910197Y-147589803D01*
X101951399Y-147617333D01*
X102000000Y-147627000D01*
X134290001Y-147627000D01*
X134290001Y-164290000D01*
X86127000Y-164290000D01*
X86127000Y-159279431D01*
X100668560Y-159279431D01*
X100677890Y-159767473D01*
X100846706Y-160175030D01*
X101040896Y-160255867D01*
X101796762Y-159500000D01*
X101040896Y-158744133D01*
X100846706Y-158824970D01*
X100668560Y-159279431D01*
X86127000Y-159279431D01*
X86127000Y-158640896D01*
X101144133Y-158640896D01*
X101900000Y-159396762D01*
X101914142Y-159382620D01*
X102017380Y-159485858D01*
X102003238Y-159500000D01*
X102017380Y-159514142D01*
X101914142Y-159617380D01*
X101900000Y-159603238D01*
X101144133Y-160359104D01*
X101224970Y-160553294D01*
X101679431Y-160731440D01*
X102167473Y-160722110D01*
X102575030Y-160553294D01*
X102655866Y-160359106D01*
X102731238Y-160434478D01*
X102768160Y-160397556D01*
X103087138Y-160716534D01*
X103614561Y-160935000D01*
X104185439Y-160935000D01*
X104712862Y-160716534D01*
X105116534Y-160312862D01*
X105173638Y-160175000D01*
X106027560Y-160175000D01*
X106027560Y-163625000D01*
X106076843Y-163872765D01*
X106217191Y-164082809D01*
X106427235Y-164223157D01*
X106675000Y-164272440D01*
X110125000Y-164272440D01*
X110372765Y-164223157D01*
X110582809Y-164082809D01*
X110723157Y-163872765D01*
X110772440Y-163625000D01*
X110772440Y-162079750D01*
X123648000Y-162079750D01*
X123648000Y-163709935D01*
X123713007Y-163866876D01*
X123833124Y-163986993D01*
X123990064Y-164052000D01*
X125620250Y-164052000D01*
X125727000Y-163945250D01*
X125727000Y-161973000D01*
X125873000Y-161973000D01*
X125873000Y-163945250D01*
X125979750Y-164052000D01*
X127609936Y-164052000D01*
X127766876Y-163986993D01*
X127886993Y-163866876D01*
X127952000Y-163709935D01*
X127952000Y-162079750D01*
X127845250Y-161973000D01*
X125873000Y-161973000D01*
X125727000Y-161973000D01*
X123754750Y-161973000D01*
X123648000Y-162079750D01*
X110772440Y-162079750D01*
X110772440Y-160175000D01*
X110755546Y-160090065D01*
X123648000Y-160090065D01*
X123648000Y-161720250D01*
X123754750Y-161827000D01*
X125727000Y-161827000D01*
X125727000Y-159854750D01*
X125873000Y-159854750D01*
X125873000Y-161827000D01*
X127845250Y-161827000D01*
X127952000Y-161720250D01*
X127952000Y-160896026D01*
X128105259Y-161266026D01*
X128733974Y-161894741D01*
X129555431Y-162235000D01*
X130444569Y-162235000D01*
X131266026Y-161894741D01*
X131894741Y-161266026D01*
X132235000Y-160444569D01*
X132235000Y-159555431D01*
X131894741Y-158733974D01*
X131266026Y-158105259D01*
X130444569Y-157765000D01*
X129555431Y-157765000D01*
X128733974Y-158105259D01*
X128105259Y-158733974D01*
X127765000Y-159555431D01*
X127765000Y-159812230D01*
X127609936Y-159748000D01*
X125979750Y-159748000D01*
X125873000Y-159854750D01*
X125727000Y-159854750D01*
X125620250Y-159748000D01*
X123990064Y-159748000D01*
X123833124Y-159813007D01*
X123713007Y-159933124D01*
X123648000Y-160090065D01*
X110755546Y-160090065D01*
X110723157Y-159927235D01*
X110582809Y-159717191D01*
X110372765Y-159576843D01*
X110125000Y-159527560D01*
X106675000Y-159527560D01*
X106427235Y-159576843D01*
X106217191Y-159717191D01*
X106076843Y-159927235D01*
X106027560Y-160175000D01*
X105173638Y-160175000D01*
X105335000Y-159785439D01*
X105335000Y-159214561D01*
X105116534Y-158687138D01*
X104712862Y-158283466D01*
X104185439Y-158065000D01*
X103614561Y-158065000D01*
X103087138Y-158283466D01*
X102768160Y-158602444D01*
X102731238Y-158565522D01*
X102655866Y-158640894D01*
X102575030Y-158446706D01*
X102120569Y-158268560D01*
X101632527Y-158277890D01*
X101224970Y-158446706D01*
X101144133Y-158640896D01*
X86127000Y-158640896D01*
X86127000Y-152828034D01*
X89400625Y-152828034D01*
X89579228Y-153229866D01*
X89898011Y-153532762D01*
X90251967Y-153679367D01*
X90427000Y-153597635D01*
X90427000Y-152653000D01*
X90573000Y-152653000D01*
X90573000Y-153597635D01*
X90748033Y-153679367D01*
X91101989Y-153532762D01*
X91420772Y-153229866D01*
X91599375Y-152828034D01*
X91517891Y-152653000D01*
X90573000Y-152653000D01*
X90427000Y-152653000D01*
X89482109Y-152653000D01*
X89400625Y-152828034D01*
X86127000Y-152828034D01*
X86127000Y-152331966D01*
X89400625Y-152331966D01*
X89482109Y-152507000D01*
X90427000Y-152507000D01*
X90427000Y-151562365D01*
X90573000Y-151562365D01*
X90573000Y-152507000D01*
X91517891Y-152507000D01*
X91599375Y-152331966D01*
X91556178Y-152234778D01*
X108105000Y-152234778D01*
X108105000Y-152885222D01*
X108353914Y-153486153D01*
X108813847Y-153946086D01*
X109414778Y-154195000D01*
X110065222Y-154195000D01*
X110666153Y-153946086D01*
X111048693Y-153563546D01*
X116459691Y-153563546D01*
X116564933Y-153778511D01*
X117091758Y-153990016D01*
X117659420Y-153983815D01*
X118155067Y-153778511D01*
X118260309Y-153563546D01*
X117360000Y-152663238D01*
X116459691Y-153563546D01*
X111048693Y-153563546D01*
X111126086Y-153486153D01*
X111375000Y-152885222D01*
X111375000Y-152291758D01*
X115929984Y-152291758D01*
X115936185Y-152859420D01*
X116141489Y-153355067D01*
X116356454Y-153460309D01*
X117256762Y-152560000D01*
X117463238Y-152560000D01*
X118363546Y-153460309D01*
X118578511Y-153355067D01*
X118790016Y-152828242D01*
X118783815Y-152260580D01*
X118773128Y-152234778D01*
X120805000Y-152234778D01*
X120805000Y-152885222D01*
X121053914Y-153486153D01*
X121513847Y-153946086D01*
X122114778Y-154195000D01*
X122765222Y-154195000D01*
X123366153Y-153946086D01*
X123826086Y-153486153D01*
X124075000Y-152885222D01*
X124075000Y-152234778D01*
X123826086Y-151633847D01*
X123366153Y-151173914D01*
X122765222Y-150925000D01*
X122114778Y-150925000D01*
X121513847Y-151173914D01*
X121053914Y-151633847D01*
X120805000Y-152234778D01*
X118773128Y-152234778D01*
X118578511Y-151764933D01*
X118363546Y-151659691D01*
X117463238Y-152560000D01*
X117256762Y-152560000D01*
X116356454Y-151659691D01*
X116141489Y-151764933D01*
X115929984Y-152291758D01*
X111375000Y-152291758D01*
X111375000Y-152234778D01*
X111126086Y-151633847D01*
X111048693Y-151556454D01*
X116459691Y-151556454D01*
X117360000Y-152456762D01*
X118260309Y-151556454D01*
X118155067Y-151341489D01*
X117628242Y-151129984D01*
X117060580Y-151136185D01*
X116564933Y-151341489D01*
X116459691Y-151556454D01*
X111048693Y-151556454D01*
X110666153Y-151173914D01*
X110065222Y-150925000D01*
X109414778Y-150925000D01*
X108813847Y-151173914D01*
X108353914Y-151633847D01*
X108105000Y-152234778D01*
X91556178Y-152234778D01*
X91420772Y-151930134D01*
X91101989Y-151627238D01*
X90748033Y-151480633D01*
X90573000Y-151562365D01*
X90427000Y-151562365D01*
X90251967Y-151480633D01*
X89898011Y-151627238D01*
X89579228Y-151930134D01*
X89400625Y-152331966D01*
X86127000Y-152331966D01*
X86127000Y-147234452D01*
X89165000Y-147234452D01*
X89165000Y-147765548D01*
X89368242Y-148256217D01*
X89743783Y-148631758D01*
X90234452Y-148835000D01*
X90765548Y-148835000D01*
X91256217Y-148631758D01*
X91631758Y-148256217D01*
X91835000Y-147765548D01*
X91835000Y-147234452D01*
X91631758Y-146743783D01*
X91256217Y-146368242D01*
X90765548Y-146165000D01*
X90234452Y-146165000D01*
X89743783Y-146368242D01*
X89368242Y-146743783D01*
X89165000Y-147234452D01*
X86127000Y-147234452D01*
X86127000Y-146127000D01*
X101873000Y-146127000D01*
X101873000Y-147500000D01*
X101873000Y-147500000D01*
G37*
X101873000Y-147500000D02*
X101882667Y-147548601D01*
X101910197Y-147589803D01*
X101951399Y-147617333D01*
X102000000Y-147627000D01*
X134290001Y-147627000D01*
X134290001Y-164290000D01*
X86127000Y-164290000D01*
X86127000Y-159279431D01*
X100668560Y-159279431D01*
X100677890Y-159767473D01*
X100846706Y-160175030D01*
X101040896Y-160255867D01*
X101796762Y-159500000D01*
X101040896Y-158744133D01*
X100846706Y-158824970D01*
X100668560Y-159279431D01*
X86127000Y-159279431D01*
X86127000Y-158640896D01*
X101144133Y-158640896D01*
X101900000Y-159396762D01*
X101914142Y-159382620D01*
X102017380Y-159485858D01*
X102003238Y-159500000D01*
X102017380Y-159514142D01*
X101914142Y-159617380D01*
X101900000Y-159603238D01*
X101144133Y-160359104D01*
X101224970Y-160553294D01*
X101679431Y-160731440D01*
X102167473Y-160722110D01*
X102575030Y-160553294D01*
X102655866Y-160359106D01*
X102731238Y-160434478D01*
X102768160Y-160397556D01*
X103087138Y-160716534D01*
X103614561Y-160935000D01*
X104185439Y-160935000D01*
X104712862Y-160716534D01*
X105116534Y-160312862D01*
X105173638Y-160175000D01*
X106027560Y-160175000D01*
X106027560Y-163625000D01*
X106076843Y-163872765D01*
X106217191Y-164082809D01*
X106427235Y-164223157D01*
X106675000Y-164272440D01*
X110125000Y-164272440D01*
X110372765Y-164223157D01*
X110582809Y-164082809D01*
X110723157Y-163872765D01*
X110772440Y-163625000D01*
X110772440Y-162079750D01*
X123648000Y-162079750D01*
X123648000Y-163709935D01*
X123713007Y-163866876D01*
X123833124Y-163986993D01*
X123990064Y-164052000D01*
X125620250Y-164052000D01*
X125727000Y-163945250D01*
X125727000Y-161973000D01*
X125873000Y-161973000D01*
X125873000Y-163945250D01*
X125979750Y-164052000D01*
X127609936Y-164052000D01*
X127766876Y-163986993D01*
X127886993Y-163866876D01*
X127952000Y-163709935D01*
X127952000Y-162079750D01*
X127845250Y-161973000D01*
X125873000Y-161973000D01*
X125727000Y-161973000D01*
X123754750Y-161973000D01*
X123648000Y-162079750D01*
X110772440Y-162079750D01*
X110772440Y-160175000D01*
X110755546Y-160090065D01*
X123648000Y-160090065D01*
X123648000Y-161720250D01*
X123754750Y-161827000D01*
X125727000Y-161827000D01*
X125727000Y-159854750D01*
X125873000Y-159854750D01*
X125873000Y-161827000D01*
X127845250Y-161827000D01*
X127952000Y-161720250D01*
X127952000Y-160896026D01*
X128105259Y-161266026D01*
X128733974Y-161894741D01*
X129555431Y-162235000D01*
X130444569Y-162235000D01*
X131266026Y-161894741D01*
X131894741Y-161266026D01*
X132235000Y-160444569D01*
X132235000Y-159555431D01*
X131894741Y-158733974D01*
X131266026Y-158105259D01*
X130444569Y-157765000D01*
X129555431Y-157765000D01*
X128733974Y-158105259D01*
X128105259Y-158733974D01*
X127765000Y-159555431D01*
X127765000Y-159812230D01*
X127609936Y-159748000D01*
X125979750Y-159748000D01*
X125873000Y-159854750D01*
X125727000Y-159854750D01*
X125620250Y-159748000D01*
X123990064Y-159748000D01*
X123833124Y-159813007D01*
X123713007Y-159933124D01*
X123648000Y-160090065D01*
X110755546Y-160090065D01*
X110723157Y-159927235D01*
X110582809Y-159717191D01*
X110372765Y-159576843D01*
X110125000Y-159527560D01*
X106675000Y-159527560D01*
X106427235Y-159576843D01*
X106217191Y-159717191D01*
X106076843Y-159927235D01*
X106027560Y-160175000D01*
X105173638Y-160175000D01*
X105335000Y-159785439D01*
X105335000Y-159214561D01*
X105116534Y-158687138D01*
X104712862Y-158283466D01*
X104185439Y-158065000D01*
X103614561Y-158065000D01*
X103087138Y-158283466D01*
X102768160Y-158602444D01*
X102731238Y-158565522D01*
X102655866Y-158640894D01*
X102575030Y-158446706D01*
X102120569Y-158268560D01*
X101632527Y-158277890D01*
X101224970Y-158446706D01*
X101144133Y-158640896D01*
X86127000Y-158640896D01*
X86127000Y-152828034D01*
X89400625Y-152828034D01*
X89579228Y-153229866D01*
X89898011Y-153532762D01*
X90251967Y-153679367D01*
X90427000Y-153597635D01*
X90427000Y-152653000D01*
X90573000Y-152653000D01*
X90573000Y-153597635D01*
X90748033Y-153679367D01*
X91101989Y-153532762D01*
X91420772Y-153229866D01*
X91599375Y-152828034D01*
X91517891Y-152653000D01*
X90573000Y-152653000D01*
X90427000Y-152653000D01*
X89482109Y-152653000D01*
X89400625Y-152828034D01*
X86127000Y-152828034D01*
X86127000Y-152331966D01*
X89400625Y-152331966D01*
X89482109Y-152507000D01*
X90427000Y-152507000D01*
X90427000Y-151562365D01*
X90573000Y-151562365D01*
X90573000Y-152507000D01*
X91517891Y-152507000D01*
X91599375Y-152331966D01*
X91556178Y-152234778D01*
X108105000Y-152234778D01*
X108105000Y-152885222D01*
X108353914Y-153486153D01*
X108813847Y-153946086D01*
X109414778Y-154195000D01*
X110065222Y-154195000D01*
X110666153Y-153946086D01*
X111048693Y-153563546D01*
X116459691Y-153563546D01*
X116564933Y-153778511D01*
X117091758Y-153990016D01*
X117659420Y-153983815D01*
X118155067Y-153778511D01*
X118260309Y-153563546D01*
X117360000Y-152663238D01*
X116459691Y-153563546D01*
X111048693Y-153563546D01*
X111126086Y-153486153D01*
X111375000Y-152885222D01*
X111375000Y-152291758D01*
X115929984Y-152291758D01*
X115936185Y-152859420D01*
X116141489Y-153355067D01*
X116356454Y-153460309D01*
X117256762Y-152560000D01*
X117463238Y-152560000D01*
X118363546Y-153460309D01*
X118578511Y-153355067D01*
X118790016Y-152828242D01*
X118783815Y-152260580D01*
X118773128Y-152234778D01*
X120805000Y-152234778D01*
X120805000Y-152885222D01*
X121053914Y-153486153D01*
X121513847Y-153946086D01*
X122114778Y-154195000D01*
X122765222Y-154195000D01*
X123366153Y-153946086D01*
X123826086Y-153486153D01*
X124075000Y-152885222D01*
X124075000Y-152234778D01*
X123826086Y-151633847D01*
X123366153Y-151173914D01*
X122765222Y-150925000D01*
X122114778Y-150925000D01*
X121513847Y-151173914D01*
X121053914Y-151633847D01*
X120805000Y-152234778D01*
X118773128Y-152234778D01*
X118578511Y-151764933D01*
X118363546Y-151659691D01*
X117463238Y-152560000D01*
X117256762Y-152560000D01*
X116356454Y-151659691D01*
X116141489Y-151764933D01*
X115929984Y-152291758D01*
X111375000Y-152291758D01*
X111375000Y-152234778D01*
X111126086Y-151633847D01*
X111048693Y-151556454D01*
X116459691Y-151556454D01*
X117360000Y-152456762D01*
X118260309Y-151556454D01*
X118155067Y-151341489D01*
X117628242Y-151129984D01*
X117060580Y-151136185D01*
X116564933Y-151341489D01*
X116459691Y-151556454D01*
X111048693Y-151556454D01*
X110666153Y-151173914D01*
X110065222Y-150925000D01*
X109414778Y-150925000D01*
X108813847Y-151173914D01*
X108353914Y-151633847D01*
X108105000Y-152234778D01*
X91556178Y-152234778D01*
X91420772Y-151930134D01*
X91101989Y-151627238D01*
X90748033Y-151480633D01*
X90573000Y-151562365D01*
X90427000Y-151562365D01*
X90251967Y-151480633D01*
X89898011Y-151627238D01*
X89579228Y-151930134D01*
X89400625Y-152331966D01*
X86127000Y-152331966D01*
X86127000Y-147234452D01*
X89165000Y-147234452D01*
X89165000Y-147765548D01*
X89368242Y-148256217D01*
X89743783Y-148631758D01*
X90234452Y-148835000D01*
X90765548Y-148835000D01*
X91256217Y-148631758D01*
X91631758Y-148256217D01*
X91835000Y-147765548D01*
X91835000Y-147234452D01*
X91631758Y-146743783D01*
X91256217Y-146368242D01*
X90765548Y-146165000D01*
X90234452Y-146165000D01*
X89743783Y-146368242D01*
X89368242Y-146743783D01*
X89165000Y-147234452D01*
X86127000Y-147234452D01*
X86127000Y-146127000D01*
X101873000Y-146127000D01*
X101873000Y-147500000D01*
D33*
G04 #@! TO.N,GND*
G36*
X134625001Y-146400000D02*
X104100000Y-146400000D01*
X104100000Y-145000000D01*
X104092388Y-144961732D01*
X104070711Y-144929289D01*
X96562945Y-137421523D01*
X98100000Y-137421523D01*
X98100000Y-137978477D01*
X98313137Y-138493037D01*
X98706963Y-138886863D01*
X99221523Y-139100000D01*
X99778477Y-139100000D01*
X100293037Y-138886863D01*
X100686863Y-138493037D01*
X100900000Y-137978477D01*
X100900000Y-137421523D01*
X100686863Y-136906963D01*
X100293037Y-136513137D01*
X99778477Y-136300000D01*
X99221523Y-136300000D01*
X98706963Y-136513137D01*
X98313137Y-136906963D01*
X98100000Y-137421523D01*
X96562945Y-137421523D01*
X93100000Y-133958578D01*
X93100000Y-133192094D01*
X108929328Y-133192094D01*
X109044032Y-133368049D01*
X109528695Y-133548517D01*
X110045527Y-133529775D01*
X110435968Y-133368049D01*
X110550672Y-133192094D01*
X109740000Y-132381421D01*
X108929328Y-133192094D01*
X93100000Y-133192094D01*
X93100000Y-132028695D01*
X108431483Y-132028695D01*
X108450225Y-132545527D01*
X108611951Y-132935968D01*
X108787906Y-133050672D01*
X109598579Y-132240000D01*
X109881421Y-132240000D01*
X110692094Y-133050672D01*
X110868049Y-132935968D01*
X111048517Y-132451305D01*
X111031478Y-131981414D01*
X118600000Y-131981414D01*
X118600000Y-132498586D01*
X118797913Y-132976391D01*
X119163609Y-133342087D01*
X119641414Y-133540000D01*
X120158586Y-133540000D01*
X120636391Y-133342087D01*
X121002087Y-132976391D01*
X121200000Y-132498586D01*
X121200000Y-131981414D01*
X128760000Y-131981414D01*
X128760000Y-132498586D01*
X128957913Y-132976391D01*
X129323609Y-133342087D01*
X129801414Y-133540000D01*
X130318586Y-133540000D01*
X130796391Y-133342087D01*
X131162087Y-132976391D01*
X131360000Y-132498586D01*
X131360000Y-131981414D01*
X131162087Y-131503609D01*
X130796391Y-131137913D01*
X130318586Y-130940000D01*
X129801414Y-130940000D01*
X129323609Y-131137913D01*
X128957913Y-131503609D01*
X128760000Y-131981414D01*
X121200000Y-131981414D01*
X121002087Y-131503609D01*
X120636391Y-131137913D01*
X120158586Y-130940000D01*
X119641414Y-130940000D01*
X119163609Y-131137913D01*
X118797913Y-131503609D01*
X118600000Y-131981414D01*
X111031478Y-131981414D01*
X111029775Y-131934473D01*
X110868049Y-131544032D01*
X110692094Y-131429328D01*
X109881421Y-132240000D01*
X109598579Y-132240000D01*
X108787906Y-131429328D01*
X108611951Y-131544032D01*
X108431483Y-132028695D01*
X93100000Y-132028695D01*
X93100000Y-131287906D01*
X108929328Y-131287906D01*
X109740000Y-132098579D01*
X110550672Y-131287906D01*
X110435968Y-131111951D01*
X109951305Y-130931483D01*
X109434473Y-130950225D01*
X109044032Y-131111951D01*
X108929328Y-131287906D01*
X93100000Y-131287906D01*
X93100000Y-127221523D01*
X98100000Y-127221523D01*
X98100000Y-127778477D01*
X98313137Y-128293037D01*
X98706963Y-128686863D01*
X99221523Y-128900000D01*
X99778477Y-128900000D01*
X100293037Y-128686863D01*
X100686863Y-128293037D01*
X100900000Y-127778477D01*
X100900000Y-127221523D01*
X100686863Y-126706963D01*
X100293037Y-126313137D01*
X99778477Y-126100000D01*
X99221523Y-126100000D01*
X98706963Y-126313137D01*
X98313137Y-126706963D01*
X98100000Y-127221523D01*
X93100000Y-127221523D01*
X93100000Y-124000000D01*
X93092388Y-123961732D01*
X93070711Y-123929289D01*
X89605022Y-120463600D01*
X89760400Y-120463600D01*
X90198078Y-120336758D01*
X90553900Y-120052079D01*
X90773695Y-119652903D01*
X90789779Y-119580123D01*
X99710221Y-119580123D01*
X99726305Y-119652903D01*
X99946100Y-120052079D01*
X100301922Y-120336758D01*
X100739600Y-120463600D01*
X101400000Y-120463600D01*
X101400000Y-119400000D01*
X101600000Y-119400000D01*
X101600000Y-120463600D01*
X102260400Y-120463600D01*
X102698078Y-120336758D01*
X102900260Y-120175000D01*
X106369123Y-120175000D01*
X106369123Y-123625000D01*
X106392407Y-123742054D01*
X106458712Y-123841288D01*
X106557946Y-123907593D01*
X106675000Y-123930877D01*
X110125000Y-123930877D01*
X110242054Y-123907593D01*
X110341288Y-123841288D01*
X110407593Y-123742054D01*
X110430877Y-123625000D01*
X110430877Y-122075000D01*
X123775000Y-122075000D01*
X123775000Y-123684674D01*
X123820672Y-123794937D01*
X123905064Y-123879328D01*
X124015327Y-123925000D01*
X125625000Y-123925000D01*
X125700000Y-123850000D01*
X125700000Y-122000000D01*
X125900000Y-122000000D01*
X125900000Y-123850000D01*
X125975000Y-123925000D01*
X127584673Y-123925000D01*
X127694936Y-123879328D01*
X127779328Y-123794937D01*
X127825000Y-123684674D01*
X127825000Y-122075000D01*
X127750000Y-122000000D01*
X125900000Y-122000000D01*
X125700000Y-122000000D01*
X123850000Y-122000000D01*
X123775000Y-122075000D01*
X110430877Y-122075000D01*
X110430877Y-120175000D01*
X110419007Y-120115326D01*
X123775000Y-120115326D01*
X123775000Y-121725000D01*
X123850000Y-121800000D01*
X125700000Y-121800000D01*
X125700000Y-119950000D01*
X125900000Y-119950000D01*
X125900000Y-121800000D01*
X127750000Y-121800000D01*
X127825000Y-121725000D01*
X127825000Y-121507347D01*
X129634074Y-121507347D01*
X129724297Y-121662517D01*
X130136459Y-121809562D01*
X130573519Y-121787686D01*
X130875703Y-121662517D01*
X130965926Y-121507347D01*
X130300000Y-120841421D01*
X129634074Y-121507347D01*
X127825000Y-121507347D01*
X127825000Y-120536459D01*
X129190438Y-120536459D01*
X129212314Y-120973519D01*
X129337483Y-121275703D01*
X129492653Y-121365926D01*
X130158579Y-120700000D01*
X130441421Y-120700000D01*
X131107347Y-121365926D01*
X131262517Y-121275703D01*
X131301996Y-121165044D01*
X131367465Y-121323100D01*
X131676900Y-121632535D01*
X132081196Y-121800000D01*
X132518804Y-121800000D01*
X132923100Y-121632535D01*
X133232535Y-121323100D01*
X133400000Y-120918804D01*
X133400000Y-120481196D01*
X133232535Y-120076900D01*
X132923100Y-119767465D01*
X132518804Y-119600000D01*
X132081196Y-119600000D01*
X131676900Y-119767465D01*
X131367465Y-120076900D01*
X131305175Y-120227282D01*
X131262517Y-120124297D01*
X131107347Y-120034074D01*
X130441421Y-120700000D01*
X130158579Y-120700000D01*
X129492653Y-120034074D01*
X129337483Y-120124297D01*
X129190438Y-120536459D01*
X127825000Y-120536459D01*
X127825000Y-120115326D01*
X127779328Y-120005063D01*
X127694936Y-119920672D01*
X127627292Y-119892653D01*
X129634074Y-119892653D01*
X130300000Y-120558579D01*
X130965926Y-119892653D01*
X130875703Y-119737483D01*
X130463541Y-119590438D01*
X130026481Y-119612314D01*
X129724297Y-119737483D01*
X129634074Y-119892653D01*
X127627292Y-119892653D01*
X127584673Y-119875000D01*
X125975000Y-119875000D01*
X125900000Y-119950000D01*
X125700000Y-119950000D01*
X125625000Y-119875000D01*
X124015327Y-119875000D01*
X123905064Y-119920672D01*
X123820672Y-120005063D01*
X123775000Y-120115326D01*
X110419007Y-120115326D01*
X110407593Y-120057946D01*
X110341288Y-119958712D01*
X110242054Y-119892407D01*
X110125000Y-119869123D01*
X106675000Y-119869123D01*
X106557946Y-119892407D01*
X106458712Y-119958712D01*
X106392407Y-120057946D01*
X106369123Y-120175000D01*
X102900260Y-120175000D01*
X103053900Y-120052079D01*
X103273695Y-119652903D01*
X103289779Y-119580123D01*
X103244397Y-119400000D01*
X101600000Y-119400000D01*
X101400000Y-119400000D01*
X99755603Y-119400000D01*
X99710221Y-119580123D01*
X90789779Y-119580123D01*
X90744397Y-119400000D01*
X89100000Y-119400000D01*
X89100000Y-119420000D01*
X88900000Y-119420000D01*
X88900000Y-119400000D01*
X88880000Y-119400000D01*
X88880000Y-119200000D01*
X88900000Y-119200000D01*
X88900000Y-118136400D01*
X89100000Y-118136400D01*
X89100000Y-119200000D01*
X90744397Y-119200000D01*
X90789779Y-119019877D01*
X99710221Y-119019877D01*
X99755603Y-119200000D01*
X101400000Y-119200000D01*
X101400000Y-118136400D01*
X101600000Y-118136400D01*
X101600000Y-119200000D01*
X103244397Y-119200000D01*
X103289779Y-119019877D01*
X103273695Y-118947097D01*
X103053900Y-118547921D01*
X102698078Y-118263242D01*
X102260400Y-118136400D01*
X101600000Y-118136400D01*
X101400000Y-118136400D01*
X100739600Y-118136400D01*
X100301922Y-118263242D01*
X99946100Y-118547921D01*
X99726305Y-118947097D01*
X99710221Y-119019877D01*
X90789779Y-119019877D01*
X90773695Y-118947097D01*
X90553900Y-118547921D01*
X90198078Y-118263242D01*
X89760400Y-118136400D01*
X89100000Y-118136400D01*
X88900000Y-118136400D01*
X88239600Y-118136400D01*
X87801922Y-118263242D01*
X87581230Y-118439808D01*
X87093516Y-117952094D01*
X108889328Y-117952094D01*
X109004032Y-118128049D01*
X109488695Y-118308517D01*
X110005527Y-118289775D01*
X110395968Y-118128049D01*
X110510672Y-117952094D01*
X109700000Y-117141421D01*
X108889328Y-117952094D01*
X87093516Y-117952094D01*
X85930117Y-116788695D01*
X108391483Y-116788695D01*
X108410225Y-117305527D01*
X108571951Y-117695968D01*
X108747906Y-117810672D01*
X109558579Y-117000000D01*
X109841421Y-117000000D01*
X110652094Y-117810672D01*
X110828049Y-117695968D01*
X111008517Y-117211305D01*
X110991478Y-116741414D01*
X121700000Y-116741414D01*
X121700000Y-117258586D01*
X121897913Y-117736391D01*
X122263609Y-118102087D01*
X122741414Y-118300000D01*
X123258586Y-118300000D01*
X123736391Y-118102087D01*
X124102087Y-117736391D01*
X124300000Y-117258586D01*
X124300000Y-116741414D01*
X124102087Y-116263609D01*
X123736391Y-115897913D01*
X123258586Y-115700000D01*
X122741414Y-115700000D01*
X122263609Y-115897913D01*
X121897913Y-116263609D01*
X121700000Y-116741414D01*
X110991478Y-116741414D01*
X110989775Y-116694473D01*
X110828049Y-116304032D01*
X110652094Y-116189328D01*
X109841421Y-117000000D01*
X109558579Y-117000000D01*
X108747906Y-116189328D01*
X108571951Y-116304032D01*
X108391483Y-116788695D01*
X85930117Y-116788695D01*
X85189328Y-116047906D01*
X108889328Y-116047906D01*
X109700000Y-116858579D01*
X110510672Y-116047906D01*
X110395968Y-115871951D01*
X109911305Y-115691483D01*
X109394473Y-115710225D01*
X109004032Y-115871951D01*
X108889328Y-116047906D01*
X85189328Y-116047906D01*
X83441422Y-114300000D01*
X87153204Y-114300000D01*
X87243513Y-114754014D01*
X87500691Y-115138909D01*
X87885586Y-115396087D01*
X88224997Y-115463600D01*
X89775003Y-115463600D01*
X90114414Y-115396087D01*
X90499309Y-115138909D01*
X90756487Y-114754014D01*
X90846796Y-114300000D01*
X99653204Y-114300000D01*
X99743513Y-114754014D01*
X100000691Y-115138909D01*
X100385586Y-115396087D01*
X100724997Y-115463600D01*
X102275003Y-115463600D01*
X102614414Y-115396087D01*
X102999309Y-115138909D01*
X103256487Y-114754014D01*
X103346796Y-114300000D01*
X103256487Y-113845986D01*
X102999309Y-113461091D01*
X102614414Y-113203913D01*
X102275003Y-113136400D01*
X100724997Y-113136400D01*
X100385586Y-113203913D01*
X100000691Y-113461091D01*
X99743513Y-113845986D01*
X99653204Y-114300000D01*
X90846796Y-114300000D01*
X90756487Y-113845986D01*
X90499309Y-113461091D01*
X90114414Y-113203913D01*
X89775003Y-113136400D01*
X88224997Y-113136400D01*
X87885586Y-113203913D01*
X87500691Y-113461091D01*
X87243513Y-113845986D01*
X87153204Y-114300000D01*
X83441422Y-114300000D01*
X79070711Y-109929289D01*
X79038268Y-109907612D01*
X79000000Y-109900000D01*
X60375000Y-109900000D01*
X60375000Y-108540000D01*
X88278450Y-108540000D01*
X88363823Y-108969199D01*
X88606944Y-109333056D01*
X88970801Y-109576177D01*
X89291661Y-109640000D01*
X90308339Y-109640000D01*
X90629199Y-109576177D01*
X90993056Y-109333056D01*
X91236177Y-108969199D01*
X91321550Y-108540000D01*
X95898450Y-108540000D01*
X95983823Y-108969199D01*
X96226944Y-109333056D01*
X96590801Y-109576177D01*
X96911661Y-109640000D01*
X97928339Y-109640000D01*
X98249199Y-109576177D01*
X98613056Y-109333056D01*
X98856177Y-108969199D01*
X98941550Y-108540000D01*
X98856177Y-108110801D01*
X98613056Y-107746944D01*
X98249199Y-107503823D01*
X97928339Y-107440000D01*
X96911661Y-107440000D01*
X96590801Y-107503823D01*
X96226944Y-107746944D01*
X95983823Y-108110801D01*
X95898450Y-108540000D01*
X91321550Y-108540000D01*
X91236177Y-108110801D01*
X90993056Y-107746944D01*
X90629199Y-107503823D01*
X90308339Y-107440000D01*
X89291661Y-107440000D01*
X88970801Y-107503823D01*
X88606944Y-107746944D01*
X88363823Y-108110801D01*
X88278450Y-108540000D01*
X60375000Y-108540000D01*
X60375000Y-105872338D01*
X70450000Y-105872338D01*
X70450000Y-106727662D01*
X70777318Y-107517877D01*
X71382123Y-108122682D01*
X72172338Y-108450000D01*
X73027662Y-108450000D01*
X73817877Y-108122682D01*
X74422682Y-107517877D01*
X74750000Y-106727662D01*
X74750000Y-105872338D01*
X75150000Y-105872338D01*
X75150000Y-106727662D01*
X75477318Y-107517877D01*
X76082123Y-108122682D01*
X76872338Y-108450000D01*
X77727662Y-108450000D01*
X78517877Y-108122682D01*
X79122682Y-107517877D01*
X79450000Y-106727662D01*
X79450000Y-105872338D01*
X79850000Y-105872338D01*
X79850000Y-106727662D01*
X80177318Y-107517877D01*
X80782123Y-108122682D01*
X81572338Y-108450000D01*
X82427662Y-108450000D01*
X83217877Y-108122682D01*
X83822682Y-107517877D01*
X84150000Y-106727662D01*
X84150000Y-105988477D01*
X84938477Y-105200000D01*
X88294123Y-105200000D01*
X88294123Y-106800000D01*
X88317407Y-106917054D01*
X88383712Y-107016288D01*
X88482946Y-107082593D01*
X88600000Y-107105877D01*
X91000000Y-107105877D01*
X91117054Y-107082593D01*
X91216288Y-107016288D01*
X91282593Y-106917054D01*
X91305877Y-106800000D01*
X91305877Y-105200000D01*
X91282593Y-105082946D01*
X91216288Y-104983712D01*
X91117054Y-104917407D01*
X91000000Y-104894123D01*
X88600000Y-104894123D01*
X88482946Y-104917407D01*
X88383712Y-104983712D01*
X88317407Y-105082946D01*
X88294123Y-105200000D01*
X84938477Y-105200000D01*
X85838477Y-104300000D01*
X96870001Y-104300000D01*
X96870000Y-104908287D01*
X96590801Y-104963823D01*
X96226944Y-105206944D01*
X95983823Y-105570801D01*
X95898450Y-106000000D01*
X95983823Y-106429199D01*
X96226944Y-106793056D01*
X96590801Y-107036177D01*
X96911661Y-107100000D01*
X97928339Y-107100000D01*
X98249199Y-107036177D01*
X98613056Y-106793056D01*
X98856177Y-106429199D01*
X98941550Y-106000000D01*
X98856177Y-105570801D01*
X98613056Y-105206944D01*
X98249199Y-104963823D01*
X97970000Y-104908287D01*
X97970000Y-104300000D01*
X99745229Y-104300000D01*
X107873931Y-112428703D01*
X107946458Y-112537247D01*
X108376470Y-112824573D01*
X108755668Y-112900000D01*
X108755672Y-112900000D01*
X108883705Y-112925467D01*
X109011738Y-112900000D01*
X109759441Y-112900000D01*
X110282123Y-113422682D01*
X111072338Y-113750000D01*
X111927662Y-113750000D01*
X112717877Y-113422682D01*
X113322682Y-112817877D01*
X113650000Y-112027662D01*
X113650000Y-111172338D01*
X113449280Y-110687757D01*
X114050000Y-111288477D01*
X114050000Y-112027662D01*
X114377318Y-112817877D01*
X114982123Y-113422682D01*
X115772338Y-113750000D01*
X116627662Y-113750000D01*
X117417877Y-113422682D01*
X117940559Y-112900000D01*
X119159441Y-112900000D01*
X119682123Y-113422682D01*
X120472338Y-113750000D01*
X121327662Y-113750000D01*
X122117877Y-113422682D01*
X122722682Y-112817877D01*
X123050000Y-112027662D01*
X123050000Y-111283400D01*
X123177378Y-111092765D01*
X123254573Y-110977235D01*
X123330000Y-110598037D01*
X123330000Y-110598032D01*
X123355467Y-110470001D01*
X123330000Y-110341969D01*
X123330000Y-106661963D01*
X123254573Y-106282765D01*
X122967247Y-105852753D01*
X122537235Y-105565427D01*
X122030000Y-105464532D01*
X121522766Y-105565427D01*
X121092754Y-105852753D01*
X120805428Y-106282765D01*
X120730001Y-106661963D01*
X120730000Y-109450000D01*
X120472338Y-109450000D01*
X119682123Y-109777318D01*
X119159441Y-110300000D01*
X117940559Y-110300000D01*
X117417877Y-109777318D01*
X116627662Y-109450000D01*
X115888477Y-109450000D01*
X112989782Y-106551305D01*
X118290000Y-106551305D01*
X118290000Y-107028695D01*
X118472689Y-107469745D01*
X118810255Y-107807311D01*
X119251305Y-107990000D01*
X119728695Y-107990000D01*
X120169745Y-107807311D01*
X120507311Y-107469745D01*
X120690000Y-107028695D01*
X120690000Y-106551305D01*
X120507311Y-106110255D01*
X120169745Y-105772689D01*
X119728695Y-105590000D01*
X119251305Y-105590000D01*
X118810255Y-105772689D01*
X118472689Y-106110255D01*
X118290000Y-106551305D01*
X112989782Y-106551305D01*
X112399776Y-105961300D01*
X112327247Y-105852753D01*
X111897235Y-105565427D01*
X111518037Y-105490000D01*
X111518033Y-105490000D01*
X111390000Y-105464533D01*
X111261967Y-105490000D01*
X109901963Y-105490000D01*
X109522765Y-105565427D01*
X109092753Y-105852753D01*
X108805427Y-106282765D01*
X108704532Y-106790000D01*
X108805427Y-107297235D01*
X109092753Y-107727247D01*
X109522765Y-108014573D01*
X109901963Y-108090000D01*
X110851524Y-108090000D01*
X112412244Y-109650720D01*
X111927662Y-109450000D01*
X111072338Y-109450000D01*
X110282123Y-109777318D01*
X109759441Y-110300000D01*
X109422182Y-110300000D01*
X107013807Y-107891625D01*
X107251305Y-107990000D01*
X107728695Y-107990000D01*
X108169745Y-107807311D01*
X108507311Y-107469745D01*
X108690000Y-107028695D01*
X108690000Y-106551305D01*
X108507311Y-106110255D01*
X108169745Y-105772689D01*
X107728695Y-105590000D01*
X107251305Y-105590000D01*
X106810255Y-105772689D01*
X106472689Y-106110255D01*
X106290000Y-106551305D01*
X106290000Y-107028695D01*
X106388375Y-107266194D01*
X103133486Y-104011305D01*
X107560000Y-104011305D01*
X107560000Y-104488695D01*
X107742689Y-104929745D01*
X108080255Y-105267311D01*
X108521305Y-105450000D01*
X108998695Y-105450000D01*
X109439745Y-105267311D01*
X109577311Y-105129745D01*
X110561677Y-105129745D01*
X110664147Y-105295307D01*
X111112571Y-105459068D01*
X111589528Y-105438760D01*
X111935853Y-105295307D01*
X112038323Y-105129745D01*
X111300000Y-104391421D01*
X110561677Y-105129745D01*
X109577311Y-105129745D01*
X109777311Y-104929745D01*
X109960000Y-104488695D01*
X109960000Y-104062571D01*
X110090932Y-104062571D01*
X110111240Y-104539528D01*
X110254693Y-104885853D01*
X110420255Y-104988323D01*
X111158579Y-104250000D01*
X111441421Y-104250000D01*
X112179745Y-104988323D01*
X112345307Y-104885853D01*
X112509068Y-104437429D01*
X112490925Y-104011305D01*
X119560000Y-104011305D01*
X119560000Y-104488695D01*
X119742689Y-104929745D01*
X120080255Y-105267311D01*
X120521305Y-105450000D01*
X120998695Y-105450000D01*
X121439745Y-105267311D01*
X121577311Y-105129745D01*
X122561677Y-105129745D01*
X122664147Y-105295307D01*
X123112571Y-105459068D01*
X123589528Y-105438760D01*
X123935853Y-105295307D01*
X124038323Y-105129745D01*
X123300000Y-104391421D01*
X122561677Y-105129745D01*
X121577311Y-105129745D01*
X121777311Y-104929745D01*
X121960000Y-104488695D01*
X121960000Y-104062571D01*
X122090932Y-104062571D01*
X122111240Y-104539528D01*
X122254693Y-104885853D01*
X122420255Y-104988323D01*
X123158579Y-104250000D01*
X123441421Y-104250000D01*
X124179745Y-104988323D01*
X124345307Y-104885853D01*
X124509068Y-104437429D01*
X124488760Y-103960472D01*
X124345307Y-103614147D01*
X124179745Y-103511677D01*
X123441421Y-104250000D01*
X123158579Y-104250000D01*
X122420255Y-103511677D01*
X122254693Y-103614147D01*
X122090932Y-104062571D01*
X121960000Y-104062571D01*
X121960000Y-104011305D01*
X121777311Y-103570255D01*
X121577311Y-103370255D01*
X122561677Y-103370255D01*
X123300000Y-104108579D01*
X124038323Y-103370255D01*
X123935853Y-103204693D01*
X123487429Y-103040932D01*
X123010472Y-103061240D01*
X122664147Y-103204693D01*
X122561677Y-103370255D01*
X121577311Y-103370255D01*
X121439745Y-103232689D01*
X120998695Y-103050000D01*
X120521305Y-103050000D01*
X120080255Y-103232689D01*
X119742689Y-103570255D01*
X119560000Y-104011305D01*
X112490925Y-104011305D01*
X112488760Y-103960472D01*
X112345307Y-103614147D01*
X112179745Y-103511677D01*
X111441421Y-104250000D01*
X111158579Y-104250000D01*
X110420255Y-103511677D01*
X110254693Y-103614147D01*
X110090932Y-104062571D01*
X109960000Y-104062571D01*
X109960000Y-104011305D01*
X109777311Y-103570255D01*
X109577311Y-103370255D01*
X110561677Y-103370255D01*
X111300000Y-104108579D01*
X112038323Y-103370255D01*
X111935853Y-103204693D01*
X111487429Y-103040932D01*
X111010472Y-103061240D01*
X110664147Y-103204693D01*
X110561677Y-103370255D01*
X109577311Y-103370255D01*
X109439745Y-103232689D01*
X108998695Y-103050000D01*
X108521305Y-103050000D01*
X108080255Y-103232689D01*
X107742689Y-103570255D01*
X107560000Y-104011305D01*
X103133486Y-104011305D01*
X101293481Y-102171300D01*
X101220952Y-102062753D01*
X100790940Y-101775427D01*
X100411742Y-101700000D01*
X100411738Y-101700000D01*
X100400000Y-101697665D01*
X100400000Y-101286853D01*
X100956327Y-101056415D01*
X101406415Y-100606327D01*
X101650000Y-100018260D01*
X101650000Y-99381740D01*
X101406415Y-98793673D01*
X100956327Y-98343585D01*
X100368260Y-98100000D01*
X99731740Y-98100000D01*
X99143673Y-98343585D01*
X98693585Y-98793673D01*
X98450000Y-99381740D01*
X98450000Y-100018260D01*
X98693585Y-100606327D01*
X99143673Y-101056415D01*
X99300000Y-101121168D01*
X99300001Y-101700000D01*
X85428032Y-101700000D01*
X85299999Y-101674533D01*
X85171966Y-101700000D01*
X85171963Y-101700000D01*
X84792765Y-101775427D01*
X84471296Y-101990226D01*
X84471294Y-101990228D01*
X84362753Y-102062753D01*
X84290227Y-102171295D01*
X83021298Y-103440225D01*
X82311523Y-104150000D01*
X81572338Y-104150000D01*
X80782123Y-104477318D01*
X80177318Y-105082123D01*
X79850000Y-105872338D01*
X79450000Y-105872338D01*
X79122682Y-105082123D01*
X78517877Y-104477318D01*
X77727662Y-104150000D01*
X76872338Y-104150000D01*
X76082123Y-104477318D01*
X75477318Y-105082123D01*
X75150000Y-105872338D01*
X74750000Y-105872338D01*
X74422682Y-105082123D01*
X73817877Y-104477318D01*
X73027662Y-104150000D01*
X72172338Y-104150000D01*
X71382123Y-104477318D01*
X70777318Y-105082123D01*
X70450000Y-105872338D01*
X60375000Y-105872338D01*
X60375000Y-99381740D01*
X72650000Y-99381740D01*
X72650000Y-100018260D01*
X72893585Y-100606327D01*
X73343673Y-101056415D01*
X73931740Y-101300000D01*
X74568260Y-101300000D01*
X75156327Y-101056415D01*
X75606415Y-100606327D01*
X75850000Y-100018260D01*
X75850000Y-99381740D01*
X81250000Y-99381740D01*
X81250000Y-100018260D01*
X81493585Y-100606327D01*
X81943673Y-101056415D01*
X82531740Y-101300000D01*
X83168260Y-101300000D01*
X83756327Y-101056415D01*
X84206415Y-100606327D01*
X84450000Y-100018260D01*
X84450000Y-99381740D01*
X89850000Y-99381740D01*
X89850000Y-100018260D01*
X90093585Y-100606327D01*
X90543673Y-101056415D01*
X91131740Y-101300000D01*
X91768260Y-101300000D01*
X92356327Y-101056415D01*
X92806415Y-100606327D01*
X93050000Y-100018260D01*
X93050000Y-99381740D01*
X92806415Y-98793673D01*
X92356327Y-98343585D01*
X91768260Y-98100000D01*
X91131740Y-98100000D01*
X90543673Y-98343585D01*
X90093585Y-98793673D01*
X89850000Y-99381740D01*
X84450000Y-99381740D01*
X84206415Y-98793673D01*
X83756327Y-98343585D01*
X83168260Y-98100000D01*
X82531740Y-98100000D01*
X81943673Y-98343585D01*
X81493585Y-98793673D01*
X81250000Y-99381740D01*
X75850000Y-99381740D01*
X75606415Y-98793673D01*
X75156327Y-98343585D01*
X74568260Y-98100000D01*
X73931740Y-98100000D01*
X73343673Y-98343585D01*
X72893585Y-98793673D01*
X72650000Y-99381740D01*
X60375000Y-99381740D01*
X60375000Y-97517094D01*
X103665000Y-97517094D01*
X103665000Y-98282906D01*
X103958064Y-98990425D01*
X104499575Y-99531936D01*
X105207094Y-99825000D01*
X105972906Y-99825000D01*
X106680425Y-99531936D01*
X107221936Y-98990425D01*
X107515000Y-98282906D01*
X107515000Y-97517094D01*
X111285000Y-97517094D01*
X111285000Y-98282906D01*
X111578064Y-98990425D01*
X112119575Y-99531936D01*
X112827094Y-99825000D01*
X113592906Y-99825000D01*
X114300425Y-99531936D01*
X114841936Y-98990425D01*
X115135000Y-98282906D01*
X115135000Y-97517094D01*
X115665000Y-97517094D01*
X115665000Y-98282906D01*
X115958064Y-98990425D01*
X116499575Y-99531936D01*
X117207094Y-99825000D01*
X117972906Y-99825000D01*
X118680425Y-99531936D01*
X119221936Y-98990425D01*
X119515000Y-98282906D01*
X119515000Y-97517094D01*
X123285000Y-97517094D01*
X123285000Y-98282906D01*
X123578064Y-98990425D01*
X124119575Y-99531936D01*
X124827094Y-99825000D01*
X125592906Y-99825000D01*
X126300425Y-99531936D01*
X126841936Y-98990425D01*
X127135000Y-98282906D01*
X127135000Y-97517094D01*
X126841936Y-96809575D01*
X126300425Y-96268064D01*
X125592906Y-95975000D01*
X124827094Y-95975000D01*
X124119575Y-96268064D01*
X123578064Y-96809575D01*
X123285000Y-97517094D01*
X119515000Y-97517094D01*
X119221936Y-96809575D01*
X118680425Y-96268064D01*
X117972906Y-95975000D01*
X117207094Y-95975000D01*
X116499575Y-96268064D01*
X115958064Y-96809575D01*
X115665000Y-97517094D01*
X115135000Y-97517094D01*
X114841936Y-96809575D01*
X114300425Y-96268064D01*
X113592906Y-95975000D01*
X112827094Y-95975000D01*
X112119575Y-96268064D01*
X111578064Y-96809575D01*
X111285000Y-97517094D01*
X107515000Y-97517094D01*
X107221936Y-96809575D01*
X106680425Y-96268064D01*
X105972906Y-95975000D01*
X105207094Y-95975000D01*
X104499575Y-96268064D01*
X103958064Y-96809575D01*
X103665000Y-97517094D01*
X60375000Y-97517094D01*
X60375000Y-94622067D01*
X63100000Y-94622067D01*
X63100000Y-95377933D01*
X63389258Y-96076263D01*
X63923737Y-96610742D01*
X64622067Y-96900000D01*
X65377933Y-96900000D01*
X66076263Y-96610742D01*
X66610742Y-96076263D01*
X66900000Y-95377933D01*
X66900000Y-94875000D01*
X69150000Y-94875000D01*
X69150000Y-96059673D01*
X69195672Y-96169936D01*
X69280063Y-96254328D01*
X69390326Y-96300000D01*
X70575000Y-96300000D01*
X70650000Y-96225000D01*
X70650000Y-94800000D01*
X70850000Y-94800000D01*
X70850000Y-96225000D01*
X70925000Y-96300000D01*
X72109674Y-96300000D01*
X72219937Y-96254328D01*
X72304328Y-96169936D01*
X72350000Y-96059673D01*
X72350000Y-94875000D01*
X72275000Y-94800000D01*
X70850000Y-94800000D01*
X70650000Y-94800000D01*
X69225000Y-94800000D01*
X69150000Y-94875000D01*
X66900000Y-94875000D01*
X66900000Y-94622067D01*
X66610742Y-93923737D01*
X66076263Y-93389258D01*
X65958134Y-93340327D01*
X69150000Y-93340327D01*
X69150000Y-94525000D01*
X69225000Y-94600000D01*
X70650000Y-94600000D01*
X70650000Y-93175000D01*
X70850000Y-93175000D01*
X70850000Y-94600000D01*
X72275000Y-94600000D01*
X72350000Y-94525000D01*
X72350000Y-93400000D01*
X77744123Y-93400000D01*
X77744123Y-96000000D01*
X77767407Y-96117054D01*
X77833712Y-96216288D01*
X77932946Y-96282593D01*
X78050000Y-96305877D01*
X80650000Y-96305877D01*
X80767054Y-96282593D01*
X80866288Y-96216288D01*
X80932593Y-96117054D01*
X80955877Y-96000000D01*
X80955877Y-93400000D01*
X86344123Y-93400000D01*
X86344123Y-96000000D01*
X86367407Y-96117054D01*
X86433712Y-96216288D01*
X86532946Y-96282593D01*
X86650000Y-96305877D01*
X89250000Y-96305877D01*
X89367054Y-96282593D01*
X89466288Y-96216288D01*
X89532593Y-96117054D01*
X89555877Y-96000000D01*
X89555877Y-93400000D01*
X94944123Y-93400000D01*
X94944123Y-96000000D01*
X94967407Y-96117054D01*
X95033712Y-96216288D01*
X95132946Y-96282593D01*
X95250000Y-96305877D01*
X97850000Y-96305877D01*
X97967054Y-96282593D01*
X98066288Y-96216288D01*
X98132593Y-96117054D01*
X98155877Y-96000000D01*
X98155877Y-93622067D01*
X129100000Y-93622067D01*
X129100000Y-94377933D01*
X129389258Y-95076263D01*
X129923737Y-95610742D01*
X130622067Y-95900000D01*
X131377933Y-95900000D01*
X132076263Y-95610742D01*
X132610742Y-95076263D01*
X132900000Y-94377933D01*
X132900000Y-93622067D01*
X132610742Y-92923737D01*
X132076263Y-92389258D01*
X131377933Y-92100000D01*
X130622067Y-92100000D01*
X129923737Y-92389258D01*
X129389258Y-92923737D01*
X129100000Y-93622067D01*
X98155877Y-93622067D01*
X98155877Y-93400000D01*
X98132593Y-93282946D01*
X98066288Y-93183712D01*
X97967054Y-93117407D01*
X97850000Y-93094123D01*
X95250000Y-93094123D01*
X95132946Y-93117407D01*
X95033712Y-93183712D01*
X94967407Y-93282946D01*
X94944123Y-93400000D01*
X89555877Y-93400000D01*
X89532593Y-93282946D01*
X89466288Y-93183712D01*
X89367054Y-93117407D01*
X89250000Y-93094123D01*
X86650000Y-93094123D01*
X86532946Y-93117407D01*
X86433712Y-93183712D01*
X86367407Y-93282946D01*
X86344123Y-93400000D01*
X80955877Y-93400000D01*
X80932593Y-93282946D01*
X80866288Y-93183712D01*
X80767054Y-93117407D01*
X80650000Y-93094123D01*
X78050000Y-93094123D01*
X77932946Y-93117407D01*
X77833712Y-93183712D01*
X77767407Y-93282946D01*
X77744123Y-93400000D01*
X72350000Y-93400000D01*
X72350000Y-93340327D01*
X72304328Y-93230064D01*
X72219937Y-93145672D01*
X72109674Y-93100000D01*
X70925000Y-93100000D01*
X70850000Y-93175000D01*
X70650000Y-93175000D01*
X70575000Y-93100000D01*
X69390326Y-93100000D01*
X69280063Y-93145672D01*
X69195672Y-93230064D01*
X69150000Y-93340327D01*
X65958134Y-93340327D01*
X65377933Y-93100000D01*
X64622067Y-93100000D01*
X63923737Y-93389258D01*
X63389258Y-93923737D01*
X63100000Y-94622067D01*
X60375000Y-94622067D01*
X60375000Y-90375000D01*
X134625000Y-90375000D01*
X134625001Y-146400000D01*
X134625001Y-146400000D01*
G37*
X134625001Y-146400000D02*
X104100000Y-146400000D01*
X104100000Y-145000000D01*
X104092388Y-144961732D01*
X104070711Y-144929289D01*
X96562945Y-137421523D01*
X98100000Y-137421523D01*
X98100000Y-137978477D01*
X98313137Y-138493037D01*
X98706963Y-138886863D01*
X99221523Y-139100000D01*
X99778477Y-139100000D01*
X100293037Y-138886863D01*
X100686863Y-138493037D01*
X100900000Y-137978477D01*
X100900000Y-137421523D01*
X100686863Y-136906963D01*
X100293037Y-136513137D01*
X99778477Y-136300000D01*
X99221523Y-136300000D01*
X98706963Y-136513137D01*
X98313137Y-136906963D01*
X98100000Y-137421523D01*
X96562945Y-137421523D01*
X93100000Y-133958578D01*
X93100000Y-133192094D01*
X108929328Y-133192094D01*
X109044032Y-133368049D01*
X109528695Y-133548517D01*
X110045527Y-133529775D01*
X110435968Y-133368049D01*
X110550672Y-133192094D01*
X109740000Y-132381421D01*
X108929328Y-133192094D01*
X93100000Y-133192094D01*
X93100000Y-132028695D01*
X108431483Y-132028695D01*
X108450225Y-132545527D01*
X108611951Y-132935968D01*
X108787906Y-133050672D01*
X109598579Y-132240000D01*
X109881421Y-132240000D01*
X110692094Y-133050672D01*
X110868049Y-132935968D01*
X111048517Y-132451305D01*
X111031478Y-131981414D01*
X118600000Y-131981414D01*
X118600000Y-132498586D01*
X118797913Y-132976391D01*
X119163609Y-133342087D01*
X119641414Y-133540000D01*
X120158586Y-133540000D01*
X120636391Y-133342087D01*
X121002087Y-132976391D01*
X121200000Y-132498586D01*
X121200000Y-131981414D01*
X128760000Y-131981414D01*
X128760000Y-132498586D01*
X128957913Y-132976391D01*
X129323609Y-133342087D01*
X129801414Y-133540000D01*
X130318586Y-133540000D01*
X130796391Y-133342087D01*
X131162087Y-132976391D01*
X131360000Y-132498586D01*
X131360000Y-131981414D01*
X131162087Y-131503609D01*
X130796391Y-131137913D01*
X130318586Y-130940000D01*
X129801414Y-130940000D01*
X129323609Y-131137913D01*
X128957913Y-131503609D01*
X128760000Y-131981414D01*
X121200000Y-131981414D01*
X121002087Y-131503609D01*
X120636391Y-131137913D01*
X120158586Y-130940000D01*
X119641414Y-130940000D01*
X119163609Y-131137913D01*
X118797913Y-131503609D01*
X118600000Y-131981414D01*
X111031478Y-131981414D01*
X111029775Y-131934473D01*
X110868049Y-131544032D01*
X110692094Y-131429328D01*
X109881421Y-132240000D01*
X109598579Y-132240000D01*
X108787906Y-131429328D01*
X108611951Y-131544032D01*
X108431483Y-132028695D01*
X93100000Y-132028695D01*
X93100000Y-131287906D01*
X108929328Y-131287906D01*
X109740000Y-132098579D01*
X110550672Y-131287906D01*
X110435968Y-131111951D01*
X109951305Y-130931483D01*
X109434473Y-130950225D01*
X109044032Y-131111951D01*
X108929328Y-131287906D01*
X93100000Y-131287906D01*
X93100000Y-127221523D01*
X98100000Y-127221523D01*
X98100000Y-127778477D01*
X98313137Y-128293037D01*
X98706963Y-128686863D01*
X99221523Y-128900000D01*
X99778477Y-128900000D01*
X100293037Y-128686863D01*
X100686863Y-128293037D01*
X100900000Y-127778477D01*
X100900000Y-127221523D01*
X100686863Y-126706963D01*
X100293037Y-126313137D01*
X99778477Y-126100000D01*
X99221523Y-126100000D01*
X98706963Y-126313137D01*
X98313137Y-126706963D01*
X98100000Y-127221523D01*
X93100000Y-127221523D01*
X93100000Y-124000000D01*
X93092388Y-123961732D01*
X93070711Y-123929289D01*
X89605022Y-120463600D01*
X89760400Y-120463600D01*
X90198078Y-120336758D01*
X90553900Y-120052079D01*
X90773695Y-119652903D01*
X90789779Y-119580123D01*
X99710221Y-119580123D01*
X99726305Y-119652903D01*
X99946100Y-120052079D01*
X100301922Y-120336758D01*
X100739600Y-120463600D01*
X101400000Y-120463600D01*
X101400000Y-119400000D01*
X101600000Y-119400000D01*
X101600000Y-120463600D01*
X102260400Y-120463600D01*
X102698078Y-120336758D01*
X102900260Y-120175000D01*
X106369123Y-120175000D01*
X106369123Y-123625000D01*
X106392407Y-123742054D01*
X106458712Y-123841288D01*
X106557946Y-123907593D01*
X106675000Y-123930877D01*
X110125000Y-123930877D01*
X110242054Y-123907593D01*
X110341288Y-123841288D01*
X110407593Y-123742054D01*
X110430877Y-123625000D01*
X110430877Y-122075000D01*
X123775000Y-122075000D01*
X123775000Y-123684674D01*
X123820672Y-123794937D01*
X123905064Y-123879328D01*
X124015327Y-123925000D01*
X125625000Y-123925000D01*
X125700000Y-123850000D01*
X125700000Y-122000000D01*
X125900000Y-122000000D01*
X125900000Y-123850000D01*
X125975000Y-123925000D01*
X127584673Y-123925000D01*
X127694936Y-123879328D01*
X127779328Y-123794937D01*
X127825000Y-123684674D01*
X127825000Y-122075000D01*
X127750000Y-122000000D01*
X125900000Y-122000000D01*
X125700000Y-122000000D01*
X123850000Y-122000000D01*
X123775000Y-122075000D01*
X110430877Y-122075000D01*
X110430877Y-120175000D01*
X110419007Y-120115326D01*
X123775000Y-120115326D01*
X123775000Y-121725000D01*
X123850000Y-121800000D01*
X125700000Y-121800000D01*
X125700000Y-119950000D01*
X125900000Y-119950000D01*
X125900000Y-121800000D01*
X127750000Y-121800000D01*
X127825000Y-121725000D01*
X127825000Y-121507347D01*
X129634074Y-121507347D01*
X129724297Y-121662517D01*
X130136459Y-121809562D01*
X130573519Y-121787686D01*
X130875703Y-121662517D01*
X130965926Y-121507347D01*
X130300000Y-120841421D01*
X129634074Y-121507347D01*
X127825000Y-121507347D01*
X127825000Y-120536459D01*
X129190438Y-120536459D01*
X129212314Y-120973519D01*
X129337483Y-121275703D01*
X129492653Y-121365926D01*
X130158579Y-120700000D01*
X130441421Y-120700000D01*
X131107347Y-121365926D01*
X131262517Y-121275703D01*
X131301996Y-121165044D01*
X131367465Y-121323100D01*
X131676900Y-121632535D01*
X132081196Y-121800000D01*
X132518804Y-121800000D01*
X132923100Y-121632535D01*
X133232535Y-121323100D01*
X133400000Y-120918804D01*
X133400000Y-120481196D01*
X133232535Y-120076900D01*
X132923100Y-119767465D01*
X132518804Y-119600000D01*
X132081196Y-119600000D01*
X131676900Y-119767465D01*
X131367465Y-120076900D01*
X131305175Y-120227282D01*
X131262517Y-120124297D01*
X131107347Y-120034074D01*
X130441421Y-120700000D01*
X130158579Y-120700000D01*
X129492653Y-120034074D01*
X129337483Y-120124297D01*
X129190438Y-120536459D01*
X127825000Y-120536459D01*
X127825000Y-120115326D01*
X127779328Y-120005063D01*
X127694936Y-119920672D01*
X127627292Y-119892653D01*
X129634074Y-119892653D01*
X130300000Y-120558579D01*
X130965926Y-119892653D01*
X130875703Y-119737483D01*
X130463541Y-119590438D01*
X130026481Y-119612314D01*
X129724297Y-119737483D01*
X129634074Y-119892653D01*
X127627292Y-119892653D01*
X127584673Y-119875000D01*
X125975000Y-119875000D01*
X125900000Y-119950000D01*
X125700000Y-119950000D01*
X125625000Y-119875000D01*
X124015327Y-119875000D01*
X123905064Y-119920672D01*
X123820672Y-120005063D01*
X123775000Y-120115326D01*
X110419007Y-120115326D01*
X110407593Y-120057946D01*
X110341288Y-119958712D01*
X110242054Y-119892407D01*
X110125000Y-119869123D01*
X106675000Y-119869123D01*
X106557946Y-119892407D01*
X106458712Y-119958712D01*
X106392407Y-120057946D01*
X106369123Y-120175000D01*
X102900260Y-120175000D01*
X103053900Y-120052079D01*
X103273695Y-119652903D01*
X103289779Y-119580123D01*
X103244397Y-119400000D01*
X101600000Y-119400000D01*
X101400000Y-119400000D01*
X99755603Y-119400000D01*
X99710221Y-119580123D01*
X90789779Y-119580123D01*
X90744397Y-119400000D01*
X89100000Y-119400000D01*
X89100000Y-119420000D01*
X88900000Y-119420000D01*
X88900000Y-119400000D01*
X88880000Y-119400000D01*
X88880000Y-119200000D01*
X88900000Y-119200000D01*
X88900000Y-118136400D01*
X89100000Y-118136400D01*
X89100000Y-119200000D01*
X90744397Y-119200000D01*
X90789779Y-119019877D01*
X99710221Y-119019877D01*
X99755603Y-119200000D01*
X101400000Y-119200000D01*
X101400000Y-118136400D01*
X101600000Y-118136400D01*
X101600000Y-119200000D01*
X103244397Y-119200000D01*
X103289779Y-119019877D01*
X103273695Y-118947097D01*
X103053900Y-118547921D01*
X102698078Y-118263242D01*
X102260400Y-118136400D01*
X101600000Y-118136400D01*
X101400000Y-118136400D01*
X100739600Y-118136400D01*
X100301922Y-118263242D01*
X99946100Y-118547921D01*
X99726305Y-118947097D01*
X99710221Y-119019877D01*
X90789779Y-119019877D01*
X90773695Y-118947097D01*
X90553900Y-118547921D01*
X90198078Y-118263242D01*
X89760400Y-118136400D01*
X89100000Y-118136400D01*
X88900000Y-118136400D01*
X88239600Y-118136400D01*
X87801922Y-118263242D01*
X87581230Y-118439808D01*
X87093516Y-117952094D01*
X108889328Y-117952094D01*
X109004032Y-118128049D01*
X109488695Y-118308517D01*
X110005527Y-118289775D01*
X110395968Y-118128049D01*
X110510672Y-117952094D01*
X109700000Y-117141421D01*
X108889328Y-117952094D01*
X87093516Y-117952094D01*
X85930117Y-116788695D01*
X108391483Y-116788695D01*
X108410225Y-117305527D01*
X108571951Y-117695968D01*
X108747906Y-117810672D01*
X109558579Y-117000000D01*
X109841421Y-117000000D01*
X110652094Y-117810672D01*
X110828049Y-117695968D01*
X111008517Y-117211305D01*
X110991478Y-116741414D01*
X121700000Y-116741414D01*
X121700000Y-117258586D01*
X121897913Y-117736391D01*
X122263609Y-118102087D01*
X122741414Y-118300000D01*
X123258586Y-118300000D01*
X123736391Y-118102087D01*
X124102087Y-117736391D01*
X124300000Y-117258586D01*
X124300000Y-116741414D01*
X124102087Y-116263609D01*
X123736391Y-115897913D01*
X123258586Y-115700000D01*
X122741414Y-115700000D01*
X122263609Y-115897913D01*
X121897913Y-116263609D01*
X121700000Y-116741414D01*
X110991478Y-116741414D01*
X110989775Y-116694473D01*
X110828049Y-116304032D01*
X110652094Y-116189328D01*
X109841421Y-117000000D01*
X109558579Y-117000000D01*
X108747906Y-116189328D01*
X108571951Y-116304032D01*
X108391483Y-116788695D01*
X85930117Y-116788695D01*
X85189328Y-116047906D01*
X108889328Y-116047906D01*
X109700000Y-116858579D01*
X110510672Y-116047906D01*
X110395968Y-115871951D01*
X109911305Y-115691483D01*
X109394473Y-115710225D01*
X109004032Y-115871951D01*
X108889328Y-116047906D01*
X85189328Y-116047906D01*
X83441422Y-114300000D01*
X87153204Y-114300000D01*
X87243513Y-114754014D01*
X87500691Y-115138909D01*
X87885586Y-115396087D01*
X88224997Y-115463600D01*
X89775003Y-115463600D01*
X90114414Y-115396087D01*
X90499309Y-115138909D01*
X90756487Y-114754014D01*
X90846796Y-114300000D01*
X99653204Y-114300000D01*
X99743513Y-114754014D01*
X100000691Y-115138909D01*
X100385586Y-115396087D01*
X100724997Y-115463600D01*
X102275003Y-115463600D01*
X102614414Y-115396087D01*
X102999309Y-115138909D01*
X103256487Y-114754014D01*
X103346796Y-114300000D01*
X103256487Y-113845986D01*
X102999309Y-113461091D01*
X102614414Y-113203913D01*
X102275003Y-113136400D01*
X100724997Y-113136400D01*
X100385586Y-113203913D01*
X100000691Y-113461091D01*
X99743513Y-113845986D01*
X99653204Y-114300000D01*
X90846796Y-114300000D01*
X90756487Y-113845986D01*
X90499309Y-113461091D01*
X90114414Y-113203913D01*
X89775003Y-113136400D01*
X88224997Y-113136400D01*
X87885586Y-113203913D01*
X87500691Y-113461091D01*
X87243513Y-113845986D01*
X87153204Y-114300000D01*
X83441422Y-114300000D01*
X79070711Y-109929289D01*
X79038268Y-109907612D01*
X79000000Y-109900000D01*
X60375000Y-109900000D01*
X60375000Y-108540000D01*
X88278450Y-108540000D01*
X88363823Y-108969199D01*
X88606944Y-109333056D01*
X88970801Y-109576177D01*
X89291661Y-109640000D01*
X90308339Y-109640000D01*
X90629199Y-109576177D01*
X90993056Y-109333056D01*
X91236177Y-108969199D01*
X91321550Y-108540000D01*
X95898450Y-108540000D01*
X95983823Y-108969199D01*
X96226944Y-109333056D01*
X96590801Y-109576177D01*
X96911661Y-109640000D01*
X97928339Y-109640000D01*
X98249199Y-109576177D01*
X98613056Y-109333056D01*
X98856177Y-108969199D01*
X98941550Y-108540000D01*
X98856177Y-108110801D01*
X98613056Y-107746944D01*
X98249199Y-107503823D01*
X97928339Y-107440000D01*
X96911661Y-107440000D01*
X96590801Y-107503823D01*
X96226944Y-107746944D01*
X95983823Y-108110801D01*
X95898450Y-108540000D01*
X91321550Y-108540000D01*
X91236177Y-108110801D01*
X90993056Y-107746944D01*
X90629199Y-107503823D01*
X90308339Y-107440000D01*
X89291661Y-107440000D01*
X88970801Y-107503823D01*
X88606944Y-107746944D01*
X88363823Y-108110801D01*
X88278450Y-108540000D01*
X60375000Y-108540000D01*
X60375000Y-105872338D01*
X70450000Y-105872338D01*
X70450000Y-106727662D01*
X70777318Y-107517877D01*
X71382123Y-108122682D01*
X72172338Y-108450000D01*
X73027662Y-108450000D01*
X73817877Y-108122682D01*
X74422682Y-107517877D01*
X74750000Y-106727662D01*
X74750000Y-105872338D01*
X75150000Y-105872338D01*
X75150000Y-106727662D01*
X75477318Y-107517877D01*
X76082123Y-108122682D01*
X76872338Y-108450000D01*
X77727662Y-108450000D01*
X78517877Y-108122682D01*
X79122682Y-107517877D01*
X79450000Y-106727662D01*
X79450000Y-105872338D01*
X79850000Y-105872338D01*
X79850000Y-106727662D01*
X80177318Y-107517877D01*
X80782123Y-108122682D01*
X81572338Y-108450000D01*
X82427662Y-108450000D01*
X83217877Y-108122682D01*
X83822682Y-107517877D01*
X84150000Y-106727662D01*
X84150000Y-105988477D01*
X84938477Y-105200000D01*
X88294123Y-105200000D01*
X88294123Y-106800000D01*
X88317407Y-106917054D01*
X88383712Y-107016288D01*
X88482946Y-107082593D01*
X88600000Y-107105877D01*
X91000000Y-107105877D01*
X91117054Y-107082593D01*
X91216288Y-107016288D01*
X91282593Y-106917054D01*
X91305877Y-106800000D01*
X91305877Y-105200000D01*
X91282593Y-105082946D01*
X91216288Y-104983712D01*
X91117054Y-104917407D01*
X91000000Y-104894123D01*
X88600000Y-104894123D01*
X88482946Y-104917407D01*
X88383712Y-104983712D01*
X88317407Y-105082946D01*
X88294123Y-105200000D01*
X84938477Y-105200000D01*
X85838477Y-104300000D01*
X96870001Y-104300000D01*
X96870000Y-104908287D01*
X96590801Y-104963823D01*
X96226944Y-105206944D01*
X95983823Y-105570801D01*
X95898450Y-106000000D01*
X95983823Y-106429199D01*
X96226944Y-106793056D01*
X96590801Y-107036177D01*
X96911661Y-107100000D01*
X97928339Y-107100000D01*
X98249199Y-107036177D01*
X98613056Y-106793056D01*
X98856177Y-106429199D01*
X98941550Y-106000000D01*
X98856177Y-105570801D01*
X98613056Y-105206944D01*
X98249199Y-104963823D01*
X97970000Y-104908287D01*
X97970000Y-104300000D01*
X99745229Y-104300000D01*
X107873931Y-112428703D01*
X107946458Y-112537247D01*
X108376470Y-112824573D01*
X108755668Y-112900000D01*
X108755672Y-112900000D01*
X108883705Y-112925467D01*
X109011738Y-112900000D01*
X109759441Y-112900000D01*
X110282123Y-113422682D01*
X111072338Y-113750000D01*
X111927662Y-113750000D01*
X112717877Y-113422682D01*
X113322682Y-112817877D01*
X113650000Y-112027662D01*
X113650000Y-111172338D01*
X113449280Y-110687757D01*
X114050000Y-111288477D01*
X114050000Y-112027662D01*
X114377318Y-112817877D01*
X114982123Y-113422682D01*
X115772338Y-113750000D01*
X116627662Y-113750000D01*
X117417877Y-113422682D01*
X117940559Y-112900000D01*
X119159441Y-112900000D01*
X119682123Y-113422682D01*
X120472338Y-113750000D01*
X121327662Y-113750000D01*
X122117877Y-113422682D01*
X122722682Y-112817877D01*
X123050000Y-112027662D01*
X123050000Y-111283400D01*
X123177378Y-111092765D01*
X123254573Y-110977235D01*
X123330000Y-110598037D01*
X123330000Y-110598032D01*
X123355467Y-110470001D01*
X123330000Y-110341969D01*
X123330000Y-106661963D01*
X123254573Y-106282765D01*
X122967247Y-105852753D01*
X122537235Y-105565427D01*
X122030000Y-105464532D01*
X121522766Y-105565427D01*
X121092754Y-105852753D01*
X120805428Y-106282765D01*
X120730001Y-106661963D01*
X120730000Y-109450000D01*
X120472338Y-109450000D01*
X119682123Y-109777318D01*
X119159441Y-110300000D01*
X117940559Y-110300000D01*
X117417877Y-109777318D01*
X116627662Y-109450000D01*
X115888477Y-109450000D01*
X112989782Y-106551305D01*
X118290000Y-106551305D01*
X118290000Y-107028695D01*
X118472689Y-107469745D01*
X118810255Y-107807311D01*
X119251305Y-107990000D01*
X119728695Y-107990000D01*
X120169745Y-107807311D01*
X120507311Y-107469745D01*
X120690000Y-107028695D01*
X120690000Y-106551305D01*
X120507311Y-106110255D01*
X120169745Y-105772689D01*
X119728695Y-105590000D01*
X119251305Y-105590000D01*
X118810255Y-105772689D01*
X118472689Y-106110255D01*
X118290000Y-106551305D01*
X112989782Y-106551305D01*
X112399776Y-105961300D01*
X112327247Y-105852753D01*
X111897235Y-105565427D01*
X111518037Y-105490000D01*
X111518033Y-105490000D01*
X111390000Y-105464533D01*
X111261967Y-105490000D01*
X109901963Y-105490000D01*
X109522765Y-105565427D01*
X109092753Y-105852753D01*
X108805427Y-106282765D01*
X108704532Y-106790000D01*
X108805427Y-107297235D01*
X109092753Y-107727247D01*
X109522765Y-108014573D01*
X109901963Y-108090000D01*
X110851524Y-108090000D01*
X112412244Y-109650720D01*
X111927662Y-109450000D01*
X111072338Y-109450000D01*
X110282123Y-109777318D01*
X109759441Y-110300000D01*
X109422182Y-110300000D01*
X107013807Y-107891625D01*
X107251305Y-107990000D01*
X107728695Y-107990000D01*
X108169745Y-107807311D01*
X108507311Y-107469745D01*
X108690000Y-107028695D01*
X108690000Y-106551305D01*
X108507311Y-106110255D01*
X108169745Y-105772689D01*
X107728695Y-105590000D01*
X107251305Y-105590000D01*
X106810255Y-105772689D01*
X106472689Y-106110255D01*
X106290000Y-106551305D01*
X106290000Y-107028695D01*
X106388375Y-107266194D01*
X103133486Y-104011305D01*
X107560000Y-104011305D01*
X107560000Y-104488695D01*
X107742689Y-104929745D01*
X108080255Y-105267311D01*
X108521305Y-105450000D01*
X108998695Y-105450000D01*
X109439745Y-105267311D01*
X109577311Y-105129745D01*
X110561677Y-105129745D01*
X110664147Y-105295307D01*
X111112571Y-105459068D01*
X111589528Y-105438760D01*
X111935853Y-105295307D01*
X112038323Y-105129745D01*
X111300000Y-104391421D01*
X110561677Y-105129745D01*
X109577311Y-105129745D01*
X109777311Y-104929745D01*
X109960000Y-104488695D01*
X109960000Y-104062571D01*
X110090932Y-104062571D01*
X110111240Y-104539528D01*
X110254693Y-104885853D01*
X110420255Y-104988323D01*
X111158579Y-104250000D01*
X111441421Y-104250000D01*
X112179745Y-104988323D01*
X112345307Y-104885853D01*
X112509068Y-104437429D01*
X112490925Y-104011305D01*
X119560000Y-104011305D01*
X119560000Y-104488695D01*
X119742689Y-104929745D01*
X120080255Y-105267311D01*
X120521305Y-105450000D01*
X120998695Y-105450000D01*
X121439745Y-105267311D01*
X121577311Y-105129745D01*
X122561677Y-105129745D01*
X122664147Y-105295307D01*
X123112571Y-105459068D01*
X123589528Y-105438760D01*
X123935853Y-105295307D01*
X124038323Y-105129745D01*
X123300000Y-104391421D01*
X122561677Y-105129745D01*
X121577311Y-105129745D01*
X121777311Y-104929745D01*
X121960000Y-104488695D01*
X121960000Y-104062571D01*
X122090932Y-104062571D01*
X122111240Y-104539528D01*
X122254693Y-104885853D01*
X122420255Y-104988323D01*
X123158579Y-104250000D01*
X123441421Y-104250000D01*
X124179745Y-104988323D01*
X124345307Y-104885853D01*
X124509068Y-104437429D01*
X124488760Y-103960472D01*
X124345307Y-103614147D01*
X124179745Y-103511677D01*
X123441421Y-104250000D01*
X123158579Y-104250000D01*
X122420255Y-103511677D01*
X122254693Y-103614147D01*
X122090932Y-104062571D01*
X121960000Y-104062571D01*
X121960000Y-104011305D01*
X121777311Y-103570255D01*
X121577311Y-103370255D01*
X122561677Y-103370255D01*
X123300000Y-104108579D01*
X124038323Y-103370255D01*
X123935853Y-103204693D01*
X123487429Y-103040932D01*
X123010472Y-103061240D01*
X122664147Y-103204693D01*
X122561677Y-103370255D01*
X121577311Y-103370255D01*
X121439745Y-103232689D01*
X120998695Y-103050000D01*
X120521305Y-103050000D01*
X120080255Y-103232689D01*
X119742689Y-103570255D01*
X119560000Y-104011305D01*
X112490925Y-104011305D01*
X112488760Y-103960472D01*
X112345307Y-103614147D01*
X112179745Y-103511677D01*
X111441421Y-104250000D01*
X111158579Y-104250000D01*
X110420255Y-103511677D01*
X110254693Y-103614147D01*
X110090932Y-104062571D01*
X109960000Y-104062571D01*
X109960000Y-104011305D01*
X109777311Y-103570255D01*
X109577311Y-103370255D01*
X110561677Y-103370255D01*
X111300000Y-104108579D01*
X112038323Y-103370255D01*
X111935853Y-103204693D01*
X111487429Y-103040932D01*
X111010472Y-103061240D01*
X110664147Y-103204693D01*
X110561677Y-103370255D01*
X109577311Y-103370255D01*
X109439745Y-103232689D01*
X108998695Y-103050000D01*
X108521305Y-103050000D01*
X108080255Y-103232689D01*
X107742689Y-103570255D01*
X107560000Y-104011305D01*
X103133486Y-104011305D01*
X101293481Y-102171300D01*
X101220952Y-102062753D01*
X100790940Y-101775427D01*
X100411742Y-101700000D01*
X100411738Y-101700000D01*
X100400000Y-101697665D01*
X100400000Y-101286853D01*
X100956327Y-101056415D01*
X101406415Y-100606327D01*
X101650000Y-100018260D01*
X101650000Y-99381740D01*
X101406415Y-98793673D01*
X100956327Y-98343585D01*
X100368260Y-98100000D01*
X99731740Y-98100000D01*
X99143673Y-98343585D01*
X98693585Y-98793673D01*
X98450000Y-99381740D01*
X98450000Y-100018260D01*
X98693585Y-100606327D01*
X99143673Y-101056415D01*
X99300000Y-101121168D01*
X99300001Y-101700000D01*
X85428032Y-101700000D01*
X85299999Y-101674533D01*
X85171966Y-101700000D01*
X85171963Y-101700000D01*
X84792765Y-101775427D01*
X84471296Y-101990226D01*
X84471294Y-101990228D01*
X84362753Y-102062753D01*
X84290227Y-102171295D01*
X83021298Y-103440225D01*
X82311523Y-104150000D01*
X81572338Y-104150000D01*
X80782123Y-104477318D01*
X80177318Y-105082123D01*
X79850000Y-105872338D01*
X79450000Y-105872338D01*
X79122682Y-105082123D01*
X78517877Y-104477318D01*
X77727662Y-104150000D01*
X76872338Y-104150000D01*
X76082123Y-104477318D01*
X75477318Y-105082123D01*
X75150000Y-105872338D01*
X74750000Y-105872338D01*
X74422682Y-105082123D01*
X73817877Y-104477318D01*
X73027662Y-104150000D01*
X72172338Y-104150000D01*
X71382123Y-104477318D01*
X70777318Y-105082123D01*
X70450000Y-105872338D01*
X60375000Y-105872338D01*
X60375000Y-99381740D01*
X72650000Y-99381740D01*
X72650000Y-100018260D01*
X72893585Y-100606327D01*
X73343673Y-101056415D01*
X73931740Y-101300000D01*
X74568260Y-101300000D01*
X75156327Y-101056415D01*
X75606415Y-100606327D01*
X75850000Y-100018260D01*
X75850000Y-99381740D01*
X81250000Y-99381740D01*
X81250000Y-100018260D01*
X81493585Y-100606327D01*
X81943673Y-101056415D01*
X82531740Y-101300000D01*
X83168260Y-101300000D01*
X83756327Y-101056415D01*
X84206415Y-100606327D01*
X84450000Y-100018260D01*
X84450000Y-99381740D01*
X89850000Y-99381740D01*
X89850000Y-100018260D01*
X90093585Y-100606327D01*
X90543673Y-101056415D01*
X91131740Y-101300000D01*
X91768260Y-101300000D01*
X92356327Y-101056415D01*
X92806415Y-100606327D01*
X93050000Y-100018260D01*
X93050000Y-99381740D01*
X92806415Y-98793673D01*
X92356327Y-98343585D01*
X91768260Y-98100000D01*
X91131740Y-98100000D01*
X90543673Y-98343585D01*
X90093585Y-98793673D01*
X89850000Y-99381740D01*
X84450000Y-99381740D01*
X84206415Y-98793673D01*
X83756327Y-98343585D01*
X83168260Y-98100000D01*
X82531740Y-98100000D01*
X81943673Y-98343585D01*
X81493585Y-98793673D01*
X81250000Y-99381740D01*
X75850000Y-99381740D01*
X75606415Y-98793673D01*
X75156327Y-98343585D01*
X74568260Y-98100000D01*
X73931740Y-98100000D01*
X73343673Y-98343585D01*
X72893585Y-98793673D01*
X72650000Y-99381740D01*
X60375000Y-99381740D01*
X60375000Y-97517094D01*
X103665000Y-97517094D01*
X103665000Y-98282906D01*
X103958064Y-98990425D01*
X104499575Y-99531936D01*
X105207094Y-99825000D01*
X105972906Y-99825000D01*
X106680425Y-99531936D01*
X107221936Y-98990425D01*
X107515000Y-98282906D01*
X107515000Y-97517094D01*
X111285000Y-97517094D01*
X111285000Y-98282906D01*
X111578064Y-98990425D01*
X112119575Y-99531936D01*
X112827094Y-99825000D01*
X113592906Y-99825000D01*
X114300425Y-99531936D01*
X114841936Y-98990425D01*
X115135000Y-98282906D01*
X115135000Y-97517094D01*
X115665000Y-97517094D01*
X115665000Y-98282906D01*
X115958064Y-98990425D01*
X116499575Y-99531936D01*
X117207094Y-99825000D01*
X117972906Y-99825000D01*
X118680425Y-99531936D01*
X119221936Y-98990425D01*
X119515000Y-98282906D01*
X119515000Y-97517094D01*
X123285000Y-97517094D01*
X123285000Y-98282906D01*
X123578064Y-98990425D01*
X124119575Y-99531936D01*
X124827094Y-99825000D01*
X125592906Y-99825000D01*
X126300425Y-99531936D01*
X126841936Y-98990425D01*
X127135000Y-98282906D01*
X127135000Y-97517094D01*
X126841936Y-96809575D01*
X126300425Y-96268064D01*
X125592906Y-95975000D01*
X124827094Y-95975000D01*
X124119575Y-96268064D01*
X123578064Y-96809575D01*
X123285000Y-97517094D01*
X119515000Y-97517094D01*
X119221936Y-96809575D01*
X118680425Y-96268064D01*
X117972906Y-95975000D01*
X117207094Y-95975000D01*
X116499575Y-96268064D01*
X115958064Y-96809575D01*
X115665000Y-97517094D01*
X115135000Y-97517094D01*
X114841936Y-96809575D01*
X114300425Y-96268064D01*
X113592906Y-95975000D01*
X112827094Y-95975000D01*
X112119575Y-96268064D01*
X111578064Y-96809575D01*
X111285000Y-97517094D01*
X107515000Y-97517094D01*
X107221936Y-96809575D01*
X106680425Y-96268064D01*
X105972906Y-95975000D01*
X105207094Y-95975000D01*
X104499575Y-96268064D01*
X103958064Y-96809575D01*
X103665000Y-97517094D01*
X60375000Y-97517094D01*
X60375000Y-94622067D01*
X63100000Y-94622067D01*
X63100000Y-95377933D01*
X63389258Y-96076263D01*
X63923737Y-96610742D01*
X64622067Y-96900000D01*
X65377933Y-96900000D01*
X66076263Y-96610742D01*
X66610742Y-96076263D01*
X66900000Y-95377933D01*
X66900000Y-94875000D01*
X69150000Y-94875000D01*
X69150000Y-96059673D01*
X69195672Y-96169936D01*
X69280063Y-96254328D01*
X69390326Y-96300000D01*
X70575000Y-96300000D01*
X70650000Y-96225000D01*
X70650000Y-94800000D01*
X70850000Y-94800000D01*
X70850000Y-96225000D01*
X70925000Y-96300000D01*
X72109674Y-96300000D01*
X72219937Y-96254328D01*
X72304328Y-96169936D01*
X72350000Y-96059673D01*
X72350000Y-94875000D01*
X72275000Y-94800000D01*
X70850000Y-94800000D01*
X70650000Y-94800000D01*
X69225000Y-94800000D01*
X69150000Y-94875000D01*
X66900000Y-94875000D01*
X66900000Y-94622067D01*
X66610742Y-93923737D01*
X66076263Y-93389258D01*
X65958134Y-93340327D01*
X69150000Y-93340327D01*
X69150000Y-94525000D01*
X69225000Y-94600000D01*
X70650000Y-94600000D01*
X70650000Y-93175000D01*
X70850000Y-93175000D01*
X70850000Y-94600000D01*
X72275000Y-94600000D01*
X72350000Y-94525000D01*
X72350000Y-93400000D01*
X77744123Y-93400000D01*
X77744123Y-96000000D01*
X77767407Y-96117054D01*
X77833712Y-96216288D01*
X77932946Y-96282593D01*
X78050000Y-96305877D01*
X80650000Y-96305877D01*
X80767054Y-96282593D01*
X80866288Y-96216288D01*
X80932593Y-96117054D01*
X80955877Y-96000000D01*
X80955877Y-93400000D01*
X86344123Y-93400000D01*
X86344123Y-96000000D01*
X86367407Y-96117054D01*
X86433712Y-96216288D01*
X86532946Y-96282593D01*
X86650000Y-96305877D01*
X89250000Y-96305877D01*
X89367054Y-96282593D01*
X89466288Y-96216288D01*
X89532593Y-96117054D01*
X89555877Y-96000000D01*
X89555877Y-93400000D01*
X94944123Y-93400000D01*
X94944123Y-96000000D01*
X94967407Y-96117054D01*
X95033712Y-96216288D01*
X95132946Y-96282593D01*
X95250000Y-96305877D01*
X97850000Y-96305877D01*
X97967054Y-96282593D01*
X98066288Y-96216288D01*
X98132593Y-96117054D01*
X98155877Y-96000000D01*
X98155877Y-93622067D01*
X129100000Y-93622067D01*
X129100000Y-94377933D01*
X129389258Y-95076263D01*
X129923737Y-95610742D01*
X130622067Y-95900000D01*
X131377933Y-95900000D01*
X132076263Y-95610742D01*
X132610742Y-95076263D01*
X132900000Y-94377933D01*
X132900000Y-93622067D01*
X132610742Y-92923737D01*
X132076263Y-92389258D01*
X131377933Y-92100000D01*
X130622067Y-92100000D01*
X129923737Y-92389258D01*
X129389258Y-92923737D01*
X129100000Y-93622067D01*
X98155877Y-93622067D01*
X98155877Y-93400000D01*
X98132593Y-93282946D01*
X98066288Y-93183712D01*
X97967054Y-93117407D01*
X97850000Y-93094123D01*
X95250000Y-93094123D01*
X95132946Y-93117407D01*
X95033712Y-93183712D01*
X94967407Y-93282946D01*
X94944123Y-93400000D01*
X89555877Y-93400000D01*
X89532593Y-93282946D01*
X89466288Y-93183712D01*
X89367054Y-93117407D01*
X89250000Y-93094123D01*
X86650000Y-93094123D01*
X86532946Y-93117407D01*
X86433712Y-93183712D01*
X86367407Y-93282946D01*
X86344123Y-93400000D01*
X80955877Y-93400000D01*
X80932593Y-93282946D01*
X80866288Y-93183712D01*
X80767054Y-93117407D01*
X80650000Y-93094123D01*
X78050000Y-93094123D01*
X77932946Y-93117407D01*
X77833712Y-93183712D01*
X77767407Y-93282946D01*
X77744123Y-93400000D01*
X72350000Y-93400000D01*
X72350000Y-93340327D01*
X72304328Y-93230064D01*
X72219937Y-93145672D01*
X72109674Y-93100000D01*
X70925000Y-93100000D01*
X70850000Y-93175000D01*
X70650000Y-93175000D01*
X70575000Y-93100000D01*
X69390326Y-93100000D01*
X69280063Y-93145672D01*
X69195672Y-93230064D01*
X69150000Y-93340327D01*
X65958134Y-93340327D01*
X65377933Y-93100000D01*
X64622067Y-93100000D01*
X63923737Y-93389258D01*
X63389258Y-93923737D01*
X63100000Y-94622067D01*
X60375000Y-94622067D01*
X60375000Y-90375000D01*
X134625000Y-90375000D01*
X134625001Y-146400000D01*
G04 #@! TD*
M02*
