G04 #@! TF.GenerationSoftware,KiCad,Pcbnew,(5.0.2)-1*
G04 #@! TF.CreationDate,2019-05-12T17:58:37+02:00*
G04 #@! TF.ProjectId,SystemSupply,53797374-656d-4537-9570-706c792e6b69,rev?*
G04 #@! TF.SameCoordinates,Original*
G04 #@! TF.FileFunction,Copper,L1,Top*
G04 #@! TF.FilePolarity,Positive*
%FSLAX46Y46*%
G04 Gerber Fmt 4.6, Leading zero omitted, Abs format (unit mm)*
G04 Created by KiCad (PCBNEW (5.0.2)-1) date 12.05.2019 17:58:37*
%MOMM*%
%LPD*%
G01*
G04 APERTURE LIST*
G04 #@! TA.AperFunction,ComponentPad*
%ADD10R,3.450000X3.450000*%
G04 #@! TD*
G04 #@! TA.AperFunction,ComponentPad*
%ADD11C,4.200000*%
G04 #@! TD*
G04 #@! TA.AperFunction,ComponentPad*
%ADD12C,2.200000*%
G04 #@! TD*
G04 #@! TA.AperFunction,ComponentPad*
%ADD13O,3.048000X1.727200*%
G04 #@! TD*
G04 #@! TA.AperFunction,ComponentPad*
%ADD14C,1.800000*%
G04 #@! TD*
G04 #@! TA.AperFunction,ComponentPad*
%ADD15R,2.600000X2.600000*%
G04 #@! TD*
G04 #@! TA.AperFunction,ComponentPad*
%ADD16C,2.600000*%
G04 #@! TD*
G04 #@! TA.AperFunction,ComponentPad*
%ADD17O,2.000000X4.700000*%
G04 #@! TD*
G04 #@! TA.AperFunction,ComponentPad*
%ADD18O,2.000000X4.750000*%
G04 #@! TD*
G04 #@! TA.AperFunction,ComponentPad*
%ADD19O,4.000000X2.400000*%
G04 #@! TD*
G04 #@! TA.AperFunction,ComponentPad*
%ADD20O,4.000000X2.500000*%
G04 #@! TD*
G04 #@! TA.AperFunction,ComponentPad*
%ADD21C,1.600000*%
G04 #@! TD*
G04 #@! TA.AperFunction,ComponentPad*
%ADD22C,2.000000*%
G04 #@! TD*
G04 #@! TA.AperFunction,SMDPad,CuDef*
%ADD23C,0.300000*%
G04 #@! TD*
G04 #@! TA.AperFunction,Conductor*
%ADD24C,0.100000*%
G04 #@! TD*
G04 #@! TA.AperFunction,SMDPad,CuDef*
%ADD25R,3.300000X2.500000*%
G04 #@! TD*
G04 #@! TA.AperFunction,SMDPad,CuDef*
%ADD26C,1.125000*%
G04 #@! TD*
G04 #@! TA.AperFunction,SMDPad,CuDef*
%ADD27C,0.875000*%
G04 #@! TD*
G04 #@! TA.AperFunction,ComponentPad*
%ADD28C,3.700000*%
G04 #@! TD*
G04 #@! TA.AperFunction,SMDPad,CuDef*
%ADD29R,10.800000X9.400000*%
G04 #@! TD*
G04 #@! TA.AperFunction,SMDPad,CuDef*
%ADD30R,1.100000X4.600000*%
G04 #@! TD*
G04 #@! TA.AperFunction,SMDPad,CuDef*
%ADD31C,0.975000*%
G04 #@! TD*
G04 #@! TA.AperFunction,SMDPad,CuDef*
%ADD32R,1.300000X1.700000*%
G04 #@! TD*
G04 #@! TA.AperFunction,SMDPad,CuDef*
%ADD33R,1.700000X1.300000*%
G04 #@! TD*
G04 #@! TA.AperFunction,SMDPad,CuDef*
%ADD34C,1.300000*%
G04 #@! TD*
G04 #@! TA.AperFunction,ComponentPad*
%ADD35O,2.400000X1.600000*%
G04 #@! TD*
G04 #@! TA.AperFunction,ComponentPad*
%ADD36R,2.400000X1.600000*%
G04 #@! TD*
G04 #@! TA.AperFunction,SMDPad,CuDef*
%ADD37R,0.800000X0.900000*%
G04 #@! TD*
G04 #@! TA.AperFunction,SMDPad,CuDef*
%ADD38R,1.060000X0.650000*%
G04 #@! TD*
G04 #@! TA.AperFunction,ComponentPad*
%ADD39O,1.400000X1.400000*%
G04 #@! TD*
G04 #@! TA.AperFunction,ComponentPad*
%ADD40C,1.400000*%
G04 #@! TD*
G04 #@! TA.AperFunction,ViaPad*
%ADD41C,0.700000*%
G04 #@! TD*
G04 #@! TA.AperFunction,Conductor*
%ADD42C,0.250000*%
G04 #@! TD*
G04 #@! TA.AperFunction,Conductor*
%ADD43C,0.300000*%
G04 #@! TD*
G04 #@! TA.AperFunction,Conductor*
%ADD44C,5.000000*%
G04 #@! TD*
G04 #@! TA.AperFunction,Conductor*
%ADD45C,1.000000*%
G04 #@! TD*
G04 #@! TA.AperFunction,Conductor*
%ADD46C,0.500000*%
G04 #@! TD*
G04 #@! TA.AperFunction,Conductor*
%ADD47C,2.000000*%
G04 #@! TD*
G04 #@! TA.AperFunction,Conductor*
%ADD48C,0.200000*%
G04 #@! TD*
G04 #@! TA.AperFunction,Conductor*
%ADD49C,0.254000*%
G04 #@! TD*
G04 APERTURE END LIST*
D10*
G04 #@! TO.P,U2,4*
G04 #@! TO.N,GND*
X125800000Y-121900000D03*
G04 #@! TO.P,U2,3*
G04 #@! TO.N,/OUT+*
X108400000Y-121900000D03*
G04 #@! TO.P,U2,2*
G04 #@! TO.N,GNDPWR*
X125800000Y-161900000D03*
G04 #@! TO.P,U2,1*
G04 #@! TO.N,/IN+*
X108400000Y-161900000D03*
G04 #@! TD*
D11*
G04 #@! TO.P,K1,14*
G04 #@! TO.N,Net-(F1-Pad1)*
X84100000Y-123700000D03*
G04 #@! TO.P,K1,11*
G04 #@! TO.N,Net-(D1-Pad1)*
X86640000Y-141500000D03*
D12*
G04 #@! TO.P,K1,A1*
G04 #@! TO.N,Net-(J6-Pad1)*
X99500000Y-127500000D03*
G04 #@! TO.P,K1,A2*
G04 #@! TO.N,Net-(J6-Pad2)*
X99500000Y-137700000D03*
G04 #@! TD*
D13*
G04 #@! TO.P,SW3,1*
G04 #@! TO.N,Net-(D6-Pad2)*
X101500000Y-114300000D03*
G04 #@! TO.P,SW3,2*
G04 #@! TO.N,GND*
X101500000Y-119300000D03*
G04 #@! TO.P,SW3,1*
G04 #@! TO.N,Net-(D6-Pad2)*
X89000000Y-114300000D03*
G04 #@! TO.P,SW3,2*
G04 #@! TO.N,GND*
X89000000Y-119300000D03*
G04 #@! TD*
D14*
G04 #@! TO.P,J3,1*
G04 #@! TO.N,GND*
X123300000Y-104250000D03*
G04 #@! TO.P,J3,2*
G04 #@! TO.N,Net-(D2-Pad1)*
X122030000Y-106790000D03*
G04 #@! TO.P,J3,4*
G04 #@! TO.N,Net-(J3-Pad4)*
X119490000Y-106790000D03*
G04 #@! TO.P,J3,3*
G04 #@! TO.N,Net-(J3-Pad3)*
X120760000Y-104250000D03*
G04 #@! TD*
G04 #@! TO.P,J7,1*
G04 #@! TO.N,GND*
X111300000Y-104250000D03*
G04 #@! TO.P,J7,2*
G04 #@! TO.N,Net-(D2-Pad1)*
X110030000Y-106790000D03*
G04 #@! TO.P,J7,4*
G04 #@! TO.N,Net-(J3-Pad4)*
X107490000Y-106790000D03*
G04 #@! TO.P,J7,3*
G04 #@! TO.N,Net-(J3-Pad3)*
X108760000Y-104250000D03*
G04 #@! TD*
D15*
G04 #@! TO.P,J10,1*
G04 #@! TO.N,Net-(D7-Pad2)*
X87950000Y-94700000D03*
D16*
G04 #@! TO.P,J10,2*
G04 #@! TO.N,Net-(J10-Pad2)*
X91450000Y-99700000D03*
G04 #@! TD*
D15*
G04 #@! TO.P,J9,1*
G04 #@! TO.N,Net-(D6-Pad2)*
X96550000Y-94700000D03*
D16*
G04 #@! TO.P,J9,2*
G04 #@! TO.N,+12V*
X100050000Y-99700000D03*
G04 #@! TD*
D15*
G04 #@! TO.P,J8,1*
G04 #@! TO.N,GND*
X70750000Y-94700000D03*
D16*
G04 #@! TO.P,J8,2*
G04 #@! TO.N,Net-(D5-Pad1)*
X74250000Y-99700000D03*
G04 #@! TD*
D15*
G04 #@! TO.P,J6,1*
G04 #@! TO.N,Net-(J6-Pad1)*
X79350000Y-94700000D03*
D16*
G04 #@! TO.P,J6,2*
G04 #@! TO.N,Net-(J6-Pad2)*
X82850000Y-99700000D03*
G04 #@! TD*
D17*
G04 #@! TO.P,F1,2*
G04 #@! TO.N,Net-(F1-Pad2)*
X61920000Y-123572000D03*
D18*
X72080000Y-123572000D03*
D17*
G04 #@! TO.P,F1,1*
G04 #@! TO.N,Net-(F1-Pad1)*
X61920000Y-114428000D03*
D18*
X72080000Y-114428000D03*
G04 #@! TD*
D19*
G04 #@! TO.P,J4,1*
G04 #@! TO.N,GNDPWR*
X68100000Y-137900000D03*
D20*
X63100000Y-137900000D03*
G04 #@! TD*
D19*
G04 #@! TO.P,J5,1*
G04 #@! TO.N,GNDPWR*
X68100000Y-147900000D03*
D20*
X63100000Y-147900000D03*
G04 #@! TD*
D19*
G04 #@! TO.P,J2,1*
G04 #@! TO.N,Net-(F1-Pad2)*
X68100000Y-130900000D03*
D20*
X63100000Y-130900000D03*
G04 #@! TD*
D19*
G04 #@! TO.P,J1,1*
G04 #@! TO.N,+24V*
X68100000Y-154900000D03*
D20*
X63100000Y-154900000D03*
G04 #@! TD*
D21*
G04 #@! TO.P,C4,2*
G04 #@! TO.N,GND*
X130300000Y-120700000D03*
G04 #@! TO.P,C4,1*
G04 #@! TO.N,+12V*
X132300000Y-120700000D03*
G04 #@! TD*
G04 #@! TO.P,C3,1*
G04 #@! TO.N,/IN+*
X103900000Y-159500000D03*
G04 #@! TO.P,C3,2*
G04 #@! TO.N,GNDPWR*
X101900000Y-159500000D03*
G04 #@! TD*
D22*
G04 #@! TO.P,TP1,1*
G04 #@! TO.N,Net-(D1-Pad1)*
X72900000Y-150400000D03*
G04 #@! TD*
G04 #@! TO.P,TP5,1*
G04 #@! TO.N,+12V*
X123000000Y-117000000D03*
G04 #@! TD*
G04 #@! TO.P,TP6,1*
G04 #@! TO.N,GND*
X109700000Y-117000000D03*
G04 #@! TD*
D23*
G04 #@! TO.P,JP5,1*
G04 #@! TO.N,/OUT+*
X131000000Y-126625000D03*
D24*
G04 #@! TD*
G04 #@! TO.N,/OUT+*
G04 #@! TO.C,JP5*
G36*
X131000000Y-125625000D02*
X131750000Y-126125000D01*
X131750000Y-127125000D01*
X130250000Y-127125000D01*
X130250000Y-126125000D01*
X131000000Y-125625000D01*
X131000000Y-125625000D01*
G37*
D23*
G04 #@! TO.P,JP5,2*
G04 #@! TO.N,+12V*
X131000000Y-125175000D03*
D24*
G04 #@! TD*
G04 #@! TO.N,+12V*
G04 #@! TO.C,JP5*
G36*
X131750000Y-124675000D02*
X131750000Y-125825000D01*
X131000000Y-125325000D01*
X130250000Y-125825000D01*
X130250000Y-124675000D01*
X131750000Y-124675000D01*
X131750000Y-124675000D01*
G37*
D25*
G04 #@! TO.P,D1,2*
G04 #@! TO.N,GNDPWR*
X95200000Y-152600000D03*
G04 #@! TO.P,D1,1*
G04 #@! TO.N,Net-(D1-Pad1)*
X95200000Y-145800000D03*
G04 #@! TD*
D24*
G04 #@! TO.N,/OUT+*
G04 #@! TO.C,L2*
G36*
X132474505Y-127476204D02*
X132498773Y-127479804D01*
X132522572Y-127485765D01*
X132545671Y-127494030D01*
X132567850Y-127504520D01*
X132588893Y-127517132D01*
X132608599Y-127531747D01*
X132626777Y-127548223D01*
X132643253Y-127566401D01*
X132657868Y-127586107D01*
X132670480Y-127607150D01*
X132680970Y-127629329D01*
X132689235Y-127652428D01*
X132695196Y-127676227D01*
X132698796Y-127700495D01*
X132700000Y-127724999D01*
X132700000Y-128350001D01*
X132698796Y-128374505D01*
X132695196Y-128398773D01*
X132689235Y-128422572D01*
X132680970Y-128445671D01*
X132670480Y-128467850D01*
X132657868Y-128488893D01*
X132643253Y-128508599D01*
X132626777Y-128526777D01*
X132608599Y-128543253D01*
X132588893Y-128557868D01*
X132567850Y-128570480D01*
X132545671Y-128580970D01*
X132522572Y-128589235D01*
X132498773Y-128595196D01*
X132474505Y-128598796D01*
X132450001Y-128600000D01*
X129549999Y-128600000D01*
X129525495Y-128598796D01*
X129501227Y-128595196D01*
X129477428Y-128589235D01*
X129454329Y-128580970D01*
X129432150Y-128570480D01*
X129411107Y-128557868D01*
X129391401Y-128543253D01*
X129373223Y-128526777D01*
X129356747Y-128508599D01*
X129342132Y-128488893D01*
X129329520Y-128467850D01*
X129319030Y-128445671D01*
X129310765Y-128422572D01*
X129304804Y-128398773D01*
X129301204Y-128374505D01*
X129300000Y-128350001D01*
X129300000Y-127724999D01*
X129301204Y-127700495D01*
X129304804Y-127676227D01*
X129310765Y-127652428D01*
X129319030Y-127629329D01*
X129329520Y-127607150D01*
X129342132Y-127586107D01*
X129356747Y-127566401D01*
X129373223Y-127548223D01*
X129391401Y-127531747D01*
X129411107Y-127517132D01*
X129432150Y-127504520D01*
X129454329Y-127494030D01*
X129477428Y-127485765D01*
X129501227Y-127479804D01*
X129525495Y-127476204D01*
X129549999Y-127475000D01*
X132450001Y-127475000D01*
X132474505Y-127476204D01*
X132474505Y-127476204D01*
G37*
D26*
G04 #@! TD*
G04 #@! TO.P,L2,2*
G04 #@! TO.N,/OUT+*
X131000000Y-128037500D03*
D24*
G04 #@! TO.N,+12V*
G04 #@! TO.C,L2*
G36*
X132474505Y-123201204D02*
X132498773Y-123204804D01*
X132522572Y-123210765D01*
X132545671Y-123219030D01*
X132567850Y-123229520D01*
X132588893Y-123242132D01*
X132608599Y-123256747D01*
X132626777Y-123273223D01*
X132643253Y-123291401D01*
X132657868Y-123311107D01*
X132670480Y-123332150D01*
X132680970Y-123354329D01*
X132689235Y-123377428D01*
X132695196Y-123401227D01*
X132698796Y-123425495D01*
X132700000Y-123449999D01*
X132700000Y-124075001D01*
X132698796Y-124099505D01*
X132695196Y-124123773D01*
X132689235Y-124147572D01*
X132680970Y-124170671D01*
X132670480Y-124192850D01*
X132657868Y-124213893D01*
X132643253Y-124233599D01*
X132626777Y-124251777D01*
X132608599Y-124268253D01*
X132588893Y-124282868D01*
X132567850Y-124295480D01*
X132545671Y-124305970D01*
X132522572Y-124314235D01*
X132498773Y-124320196D01*
X132474505Y-124323796D01*
X132450001Y-124325000D01*
X129549999Y-124325000D01*
X129525495Y-124323796D01*
X129501227Y-124320196D01*
X129477428Y-124314235D01*
X129454329Y-124305970D01*
X129432150Y-124295480D01*
X129411107Y-124282868D01*
X129391401Y-124268253D01*
X129373223Y-124251777D01*
X129356747Y-124233599D01*
X129342132Y-124213893D01*
X129329520Y-124192850D01*
X129319030Y-124170671D01*
X129310765Y-124147572D01*
X129304804Y-124123773D01*
X129301204Y-124099505D01*
X129300000Y-124075001D01*
X129300000Y-123449999D01*
X129301204Y-123425495D01*
X129304804Y-123401227D01*
X129310765Y-123377428D01*
X129319030Y-123354329D01*
X129329520Y-123332150D01*
X129342132Y-123311107D01*
X129356747Y-123291401D01*
X129373223Y-123273223D01*
X129391401Y-123256747D01*
X129411107Y-123242132D01*
X129432150Y-123229520D01*
X129454329Y-123219030D01*
X129477428Y-123210765D01*
X129501227Y-123204804D01*
X129525495Y-123201204D01*
X129549999Y-123200000D01*
X132450001Y-123200000D01*
X132474505Y-123201204D01*
X132474505Y-123201204D01*
G37*
D26*
G04 #@! TD*
G04 #@! TO.P,L2,1*
G04 #@! TO.N,+12V*
X131000000Y-123762500D03*
D24*
G04 #@! TO.N,Net-(J10-Pad2)*
G04 #@! TO.C,R5*
G36*
X94827691Y-102726053D02*
X94848926Y-102729203D01*
X94869750Y-102734419D01*
X94889962Y-102741651D01*
X94909368Y-102750830D01*
X94927781Y-102761866D01*
X94945024Y-102774654D01*
X94960930Y-102789070D01*
X94975346Y-102804976D01*
X94988134Y-102822219D01*
X94999170Y-102840632D01*
X95008349Y-102860038D01*
X95015581Y-102880250D01*
X95020797Y-102901074D01*
X95023947Y-102922309D01*
X95025000Y-102943750D01*
X95025000Y-103456250D01*
X95023947Y-103477691D01*
X95020797Y-103498926D01*
X95015581Y-103519750D01*
X95008349Y-103539962D01*
X94999170Y-103559368D01*
X94988134Y-103577781D01*
X94975346Y-103595024D01*
X94960930Y-103610930D01*
X94945024Y-103625346D01*
X94927781Y-103638134D01*
X94909368Y-103649170D01*
X94889962Y-103658349D01*
X94869750Y-103665581D01*
X94848926Y-103670797D01*
X94827691Y-103673947D01*
X94806250Y-103675000D01*
X94368750Y-103675000D01*
X94347309Y-103673947D01*
X94326074Y-103670797D01*
X94305250Y-103665581D01*
X94285038Y-103658349D01*
X94265632Y-103649170D01*
X94247219Y-103638134D01*
X94229976Y-103625346D01*
X94214070Y-103610930D01*
X94199654Y-103595024D01*
X94186866Y-103577781D01*
X94175830Y-103559368D01*
X94166651Y-103539962D01*
X94159419Y-103519750D01*
X94154203Y-103498926D01*
X94151053Y-103477691D01*
X94150000Y-103456250D01*
X94150000Y-102943750D01*
X94151053Y-102922309D01*
X94154203Y-102901074D01*
X94159419Y-102880250D01*
X94166651Y-102860038D01*
X94175830Y-102840632D01*
X94186866Y-102822219D01*
X94199654Y-102804976D01*
X94214070Y-102789070D01*
X94229976Y-102774654D01*
X94247219Y-102761866D01*
X94265632Y-102750830D01*
X94285038Y-102741651D01*
X94305250Y-102734419D01*
X94326074Y-102729203D01*
X94347309Y-102726053D01*
X94368750Y-102725000D01*
X94806250Y-102725000D01*
X94827691Y-102726053D01*
X94827691Y-102726053D01*
G37*
D27*
G04 #@! TD*
G04 #@! TO.P,R5,2*
G04 #@! TO.N,Net-(J10-Pad2)*
X94587500Y-103200000D03*
D24*
G04 #@! TO.N,Net-(D7-Pad1)*
G04 #@! TO.C,R5*
G36*
X93252691Y-102726053D02*
X93273926Y-102729203D01*
X93294750Y-102734419D01*
X93314962Y-102741651D01*
X93334368Y-102750830D01*
X93352781Y-102761866D01*
X93370024Y-102774654D01*
X93385930Y-102789070D01*
X93400346Y-102804976D01*
X93413134Y-102822219D01*
X93424170Y-102840632D01*
X93433349Y-102860038D01*
X93440581Y-102880250D01*
X93445797Y-102901074D01*
X93448947Y-102922309D01*
X93450000Y-102943750D01*
X93450000Y-103456250D01*
X93448947Y-103477691D01*
X93445797Y-103498926D01*
X93440581Y-103519750D01*
X93433349Y-103539962D01*
X93424170Y-103559368D01*
X93413134Y-103577781D01*
X93400346Y-103595024D01*
X93385930Y-103610930D01*
X93370024Y-103625346D01*
X93352781Y-103638134D01*
X93334368Y-103649170D01*
X93314962Y-103658349D01*
X93294750Y-103665581D01*
X93273926Y-103670797D01*
X93252691Y-103673947D01*
X93231250Y-103675000D01*
X92793750Y-103675000D01*
X92772309Y-103673947D01*
X92751074Y-103670797D01*
X92730250Y-103665581D01*
X92710038Y-103658349D01*
X92690632Y-103649170D01*
X92672219Y-103638134D01*
X92654976Y-103625346D01*
X92639070Y-103610930D01*
X92624654Y-103595024D01*
X92611866Y-103577781D01*
X92600830Y-103559368D01*
X92591651Y-103539962D01*
X92584419Y-103519750D01*
X92579203Y-103498926D01*
X92576053Y-103477691D01*
X92575000Y-103456250D01*
X92575000Y-102943750D01*
X92576053Y-102922309D01*
X92579203Y-102901074D01*
X92584419Y-102880250D01*
X92591651Y-102860038D01*
X92600830Y-102840632D01*
X92611866Y-102822219D01*
X92624654Y-102804976D01*
X92639070Y-102789070D01*
X92654976Y-102774654D01*
X92672219Y-102761866D01*
X92690632Y-102750830D01*
X92710038Y-102741651D01*
X92730250Y-102734419D01*
X92751074Y-102729203D01*
X92772309Y-102726053D01*
X92793750Y-102725000D01*
X93231250Y-102725000D01*
X93252691Y-102726053D01*
X93252691Y-102726053D01*
G37*
D27*
G04 #@! TD*
G04 #@! TO.P,R5,1*
G04 #@! TO.N,Net-(D7-Pad1)*
X93012500Y-103200000D03*
D28*
G04 #@! TO.P,SW2,3*
G04 #@! TO.N,Net-(D5-Pad1)*
X72600000Y-106300000D03*
G04 #@! TO.P,SW2,2*
X77300000Y-106300000D03*
G04 #@! TO.P,SW2,1*
G04 #@! TO.N,+12V*
X82000000Y-106300000D03*
G04 #@! TD*
G04 #@! TO.P,SW1,3*
G04 #@! TO.N,Net-(D2-Pad1)*
X120900000Y-111600000D03*
G04 #@! TO.P,SW1,2*
X116200000Y-111600000D03*
G04 #@! TO.P,SW1,1*
G04 #@! TO.N,+12V*
X111500000Y-111600000D03*
G04 #@! TD*
D29*
G04 #@! TO.P,Q1,2*
G04 #@! TO.N,+24V*
X79700000Y-158600000D03*
D30*
G04 #@! TO.P,Q1,3*
G04 #@! TO.N,Net-(D1-Pad1)*
X77160000Y-149450000D03*
G04 #@! TO.P,Q1,1*
G04 #@! TO.N,Net-(Q1-Pad1)*
X82240000Y-149450000D03*
G04 #@! TD*
D22*
G04 #@! TO.P,U3,5*
G04 #@! TO.N,GND*
X109740000Y-132240000D03*
G04 #@! TO.P,U3,4*
G04 #@! TO.N,Net-(U3-Pad4)*
X119900000Y-132240000D03*
G04 #@! TO.P,U3,3*
G04 #@! TO.N,/OUT+*
X130060000Y-132240000D03*
G04 #@! TO.P,U3,6*
G04 #@! TO.N,Net-(U3-Pad6)*
X109740000Y-152560000D03*
G04 #@! TO.P,U3,1*
G04 #@! TO.N,/IN+*
X122440000Y-152560000D03*
G04 #@! TO.P,U3,2*
G04 #@! TO.N,GNDPWR*
X117360000Y-152560000D03*
G04 #@! TD*
D24*
G04 #@! TO.N,GNDPWR*
G04 #@! TO.C,C1*
G36*
X88457173Y-150098929D02*
X88478408Y-150102079D01*
X88499232Y-150107295D01*
X88519444Y-150114527D01*
X88538850Y-150123706D01*
X88557263Y-150134742D01*
X88574506Y-150147530D01*
X88590412Y-150161946D01*
X88604828Y-150177852D01*
X88617616Y-150195095D01*
X88628652Y-150213508D01*
X88637831Y-150232914D01*
X88645063Y-150253126D01*
X88650279Y-150273950D01*
X88653429Y-150295185D01*
X88654482Y-150316626D01*
X88654482Y-150754126D01*
X88653429Y-150775567D01*
X88650279Y-150796802D01*
X88645063Y-150817626D01*
X88637831Y-150837838D01*
X88628652Y-150857244D01*
X88617616Y-150875657D01*
X88604828Y-150892900D01*
X88590412Y-150908806D01*
X88574506Y-150923222D01*
X88557263Y-150936010D01*
X88538850Y-150947046D01*
X88519444Y-150956225D01*
X88499232Y-150963457D01*
X88478408Y-150968673D01*
X88457173Y-150971823D01*
X88435732Y-150972876D01*
X87923232Y-150972876D01*
X87901791Y-150971823D01*
X87880556Y-150968673D01*
X87859732Y-150963457D01*
X87839520Y-150956225D01*
X87820114Y-150947046D01*
X87801701Y-150936010D01*
X87784458Y-150923222D01*
X87768552Y-150908806D01*
X87754136Y-150892900D01*
X87741348Y-150875657D01*
X87730312Y-150857244D01*
X87721133Y-150837838D01*
X87713901Y-150817626D01*
X87708685Y-150796802D01*
X87705535Y-150775567D01*
X87704482Y-150754126D01*
X87704482Y-150316626D01*
X87705535Y-150295185D01*
X87708685Y-150273950D01*
X87713901Y-150253126D01*
X87721133Y-150232914D01*
X87730312Y-150213508D01*
X87741348Y-150195095D01*
X87754136Y-150177852D01*
X87768552Y-150161946D01*
X87784458Y-150147530D01*
X87801701Y-150134742D01*
X87820114Y-150123706D01*
X87839520Y-150114527D01*
X87859732Y-150107295D01*
X87880556Y-150102079D01*
X87901791Y-150098929D01*
X87923232Y-150097876D01*
X88435732Y-150097876D01*
X88457173Y-150098929D01*
X88457173Y-150098929D01*
G37*
D27*
G04 #@! TD*
G04 #@! TO.P,C1,2*
G04 #@! TO.N,GNDPWR*
X88179482Y-150535376D03*
D24*
G04 #@! TO.N,Net-(C1-Pad1)*
G04 #@! TO.C,C1*
G36*
X88457173Y-151673929D02*
X88478408Y-151677079D01*
X88499232Y-151682295D01*
X88519444Y-151689527D01*
X88538850Y-151698706D01*
X88557263Y-151709742D01*
X88574506Y-151722530D01*
X88590412Y-151736946D01*
X88604828Y-151752852D01*
X88617616Y-151770095D01*
X88628652Y-151788508D01*
X88637831Y-151807914D01*
X88645063Y-151828126D01*
X88650279Y-151848950D01*
X88653429Y-151870185D01*
X88654482Y-151891626D01*
X88654482Y-152329126D01*
X88653429Y-152350567D01*
X88650279Y-152371802D01*
X88645063Y-152392626D01*
X88637831Y-152412838D01*
X88628652Y-152432244D01*
X88617616Y-152450657D01*
X88604828Y-152467900D01*
X88590412Y-152483806D01*
X88574506Y-152498222D01*
X88557263Y-152511010D01*
X88538850Y-152522046D01*
X88519444Y-152531225D01*
X88499232Y-152538457D01*
X88478408Y-152543673D01*
X88457173Y-152546823D01*
X88435732Y-152547876D01*
X87923232Y-152547876D01*
X87901791Y-152546823D01*
X87880556Y-152543673D01*
X87859732Y-152538457D01*
X87839520Y-152531225D01*
X87820114Y-152522046D01*
X87801701Y-152511010D01*
X87784458Y-152498222D01*
X87768552Y-152483806D01*
X87754136Y-152467900D01*
X87741348Y-152450657D01*
X87730312Y-152432244D01*
X87721133Y-152412838D01*
X87713901Y-152392626D01*
X87708685Y-152371802D01*
X87705535Y-152350567D01*
X87704482Y-152329126D01*
X87704482Y-151891626D01*
X87705535Y-151870185D01*
X87708685Y-151848950D01*
X87713901Y-151828126D01*
X87721133Y-151807914D01*
X87730312Y-151788508D01*
X87741348Y-151770095D01*
X87754136Y-151752852D01*
X87768552Y-151736946D01*
X87784458Y-151722530D01*
X87801701Y-151709742D01*
X87820114Y-151698706D01*
X87839520Y-151689527D01*
X87859732Y-151682295D01*
X87880556Y-151677079D01*
X87901791Y-151673929D01*
X87923232Y-151672876D01*
X88435732Y-151672876D01*
X88457173Y-151673929D01*
X88457173Y-151673929D01*
G37*
D27*
G04 #@! TD*
G04 #@! TO.P,C1,1*
G04 #@! TO.N,Net-(C1-Pad1)*
X88179482Y-152110376D03*
D24*
G04 #@! TO.N,GNDPWR*
G04 #@! TO.C,C2*
G36*
X90580142Y-155076174D02*
X90603803Y-155079684D01*
X90627007Y-155085496D01*
X90649529Y-155093554D01*
X90671153Y-155103782D01*
X90691670Y-155116079D01*
X90710883Y-155130329D01*
X90728607Y-155146393D01*
X90744671Y-155164117D01*
X90758921Y-155183330D01*
X90771218Y-155203847D01*
X90781446Y-155225471D01*
X90789504Y-155247993D01*
X90795316Y-155271197D01*
X90798826Y-155294858D01*
X90800000Y-155318750D01*
X90800000Y-155806250D01*
X90798826Y-155830142D01*
X90795316Y-155853803D01*
X90789504Y-155877007D01*
X90781446Y-155899529D01*
X90771218Y-155921153D01*
X90758921Y-155941670D01*
X90744671Y-155960883D01*
X90728607Y-155978607D01*
X90710883Y-155994671D01*
X90691670Y-156008921D01*
X90671153Y-156021218D01*
X90649529Y-156031446D01*
X90627007Y-156039504D01*
X90603803Y-156045316D01*
X90580142Y-156048826D01*
X90556250Y-156050000D01*
X89643750Y-156050000D01*
X89619858Y-156048826D01*
X89596197Y-156045316D01*
X89572993Y-156039504D01*
X89550471Y-156031446D01*
X89528847Y-156021218D01*
X89508330Y-156008921D01*
X89489117Y-155994671D01*
X89471393Y-155978607D01*
X89455329Y-155960883D01*
X89441079Y-155941670D01*
X89428782Y-155921153D01*
X89418554Y-155899529D01*
X89410496Y-155877007D01*
X89404684Y-155853803D01*
X89401174Y-155830142D01*
X89400000Y-155806250D01*
X89400000Y-155318750D01*
X89401174Y-155294858D01*
X89404684Y-155271197D01*
X89410496Y-155247993D01*
X89418554Y-155225471D01*
X89428782Y-155203847D01*
X89441079Y-155183330D01*
X89455329Y-155164117D01*
X89471393Y-155146393D01*
X89489117Y-155130329D01*
X89508330Y-155116079D01*
X89528847Y-155103782D01*
X89550471Y-155093554D01*
X89572993Y-155085496D01*
X89596197Y-155079684D01*
X89619858Y-155076174D01*
X89643750Y-155075000D01*
X90556250Y-155075000D01*
X90580142Y-155076174D01*
X90580142Y-155076174D01*
G37*
D31*
G04 #@! TD*
G04 #@! TO.P,C2,2*
G04 #@! TO.N,GNDPWR*
X90100000Y-155562500D03*
D24*
G04 #@! TO.N,Net-(C2-Pad1)*
G04 #@! TO.C,C2*
G36*
X90580142Y-156951174D02*
X90603803Y-156954684D01*
X90627007Y-156960496D01*
X90649529Y-156968554D01*
X90671153Y-156978782D01*
X90691670Y-156991079D01*
X90710883Y-157005329D01*
X90728607Y-157021393D01*
X90744671Y-157039117D01*
X90758921Y-157058330D01*
X90771218Y-157078847D01*
X90781446Y-157100471D01*
X90789504Y-157122993D01*
X90795316Y-157146197D01*
X90798826Y-157169858D01*
X90800000Y-157193750D01*
X90800000Y-157681250D01*
X90798826Y-157705142D01*
X90795316Y-157728803D01*
X90789504Y-157752007D01*
X90781446Y-157774529D01*
X90771218Y-157796153D01*
X90758921Y-157816670D01*
X90744671Y-157835883D01*
X90728607Y-157853607D01*
X90710883Y-157869671D01*
X90691670Y-157883921D01*
X90671153Y-157896218D01*
X90649529Y-157906446D01*
X90627007Y-157914504D01*
X90603803Y-157920316D01*
X90580142Y-157923826D01*
X90556250Y-157925000D01*
X89643750Y-157925000D01*
X89619858Y-157923826D01*
X89596197Y-157920316D01*
X89572993Y-157914504D01*
X89550471Y-157906446D01*
X89528847Y-157896218D01*
X89508330Y-157883921D01*
X89489117Y-157869671D01*
X89471393Y-157853607D01*
X89455329Y-157835883D01*
X89441079Y-157816670D01*
X89428782Y-157796153D01*
X89418554Y-157774529D01*
X89410496Y-157752007D01*
X89404684Y-157728803D01*
X89401174Y-157705142D01*
X89400000Y-157681250D01*
X89400000Y-157193750D01*
X89401174Y-157169858D01*
X89404684Y-157146197D01*
X89410496Y-157122993D01*
X89418554Y-157100471D01*
X89428782Y-157078847D01*
X89441079Y-157058330D01*
X89455329Y-157039117D01*
X89471393Y-157021393D01*
X89489117Y-157005329D01*
X89508330Y-156991079D01*
X89528847Y-156978782D01*
X89550471Y-156968554D01*
X89572993Y-156960496D01*
X89596197Y-156954684D01*
X89619858Y-156951174D01*
X89643750Y-156950000D01*
X90556250Y-156950000D01*
X90580142Y-156951174D01*
X90580142Y-156951174D01*
G37*
D31*
G04 #@! TD*
G04 #@! TO.P,C2,1*
G04 #@! TO.N,Net-(C2-Pad1)*
X90100000Y-157437500D03*
D32*
G04 #@! TO.P,D6,2*
G04 #@! TO.N,Net-(D6-Pad2)*
X96350000Y-103300000D03*
G04 #@! TO.P,D6,1*
G04 #@! TO.N,+12V*
X99850000Y-103300000D03*
G04 #@! TD*
D33*
G04 #@! TO.P,D3,2*
G04 #@! TO.N,+24V*
X87900000Y-154800000D03*
G04 #@! TO.P,D3,1*
G04 #@! TO.N,Net-(C2-Pad1)*
X87900000Y-158300000D03*
G04 #@! TD*
D32*
G04 #@! TO.P,D7,2*
G04 #@! TO.N,Net-(D7-Pad2)*
X87650000Y-103300000D03*
G04 #@! TO.P,D7,1*
G04 #@! TO.N,Net-(D7-Pad1)*
X91150000Y-103300000D03*
G04 #@! TD*
D25*
G04 #@! TO.P,D5,2*
G04 #@! TO.N,GND*
X65000000Y-100600000D03*
G04 #@! TO.P,D5,1*
G04 #@! TO.N,Net-(D5-Pad1)*
X65000000Y-107400000D03*
G04 #@! TD*
G04 #@! TO.P,D2,2*
G04 #@! TO.N,GND*
X131000000Y-99600000D03*
G04 #@! TO.P,D2,1*
G04 #@! TO.N,Net-(D2-Pad1)*
X131000000Y-106400000D03*
G04 #@! TD*
D24*
G04 #@! TO.N,/IN+*
G04 #@! TO.C,L1*
G36*
X92424504Y-159501204D02*
X92448773Y-159504804D01*
X92472571Y-159510765D01*
X92495671Y-159519030D01*
X92517849Y-159529520D01*
X92538893Y-159542133D01*
X92558598Y-159556747D01*
X92576777Y-159573223D01*
X92593253Y-159591402D01*
X92607867Y-159611107D01*
X92620480Y-159632151D01*
X92630970Y-159654329D01*
X92639235Y-159677429D01*
X92645196Y-159701227D01*
X92648796Y-159725496D01*
X92650000Y-159750000D01*
X92650000Y-162650000D01*
X92648796Y-162674504D01*
X92645196Y-162698773D01*
X92639235Y-162722571D01*
X92630970Y-162745671D01*
X92620480Y-162767849D01*
X92607867Y-162788893D01*
X92593253Y-162808598D01*
X92576777Y-162826777D01*
X92558598Y-162843253D01*
X92538893Y-162857867D01*
X92517849Y-162870480D01*
X92495671Y-162880970D01*
X92472571Y-162889235D01*
X92448773Y-162895196D01*
X92424504Y-162898796D01*
X92400000Y-162900000D01*
X91600000Y-162900000D01*
X91575496Y-162898796D01*
X91551227Y-162895196D01*
X91527429Y-162889235D01*
X91504329Y-162880970D01*
X91482151Y-162870480D01*
X91461107Y-162857867D01*
X91441402Y-162843253D01*
X91423223Y-162826777D01*
X91406747Y-162808598D01*
X91392133Y-162788893D01*
X91379520Y-162767849D01*
X91369030Y-162745671D01*
X91360765Y-162722571D01*
X91354804Y-162698773D01*
X91351204Y-162674504D01*
X91350000Y-162650000D01*
X91350000Y-159750000D01*
X91351204Y-159725496D01*
X91354804Y-159701227D01*
X91360765Y-159677429D01*
X91369030Y-159654329D01*
X91379520Y-159632151D01*
X91392133Y-159611107D01*
X91406747Y-159591402D01*
X91423223Y-159573223D01*
X91441402Y-159556747D01*
X91461107Y-159542133D01*
X91482151Y-159529520D01*
X91504329Y-159519030D01*
X91527429Y-159510765D01*
X91551227Y-159504804D01*
X91575496Y-159501204D01*
X91600000Y-159500000D01*
X92400000Y-159500000D01*
X92424504Y-159501204D01*
X92424504Y-159501204D01*
G37*
D34*
G04 #@! TD*
G04 #@! TO.P,L1,2*
G04 #@! TO.N,/IN+*
X92000000Y-161200000D03*
D24*
G04 #@! TO.N,Net-(C2-Pad1)*
G04 #@! TO.C,L1*
G36*
X87974504Y-159501204D02*
X87998773Y-159504804D01*
X88022571Y-159510765D01*
X88045671Y-159519030D01*
X88067849Y-159529520D01*
X88088893Y-159542133D01*
X88108598Y-159556747D01*
X88126777Y-159573223D01*
X88143253Y-159591402D01*
X88157867Y-159611107D01*
X88170480Y-159632151D01*
X88180970Y-159654329D01*
X88189235Y-159677429D01*
X88195196Y-159701227D01*
X88198796Y-159725496D01*
X88200000Y-159750000D01*
X88200000Y-162650000D01*
X88198796Y-162674504D01*
X88195196Y-162698773D01*
X88189235Y-162722571D01*
X88180970Y-162745671D01*
X88170480Y-162767849D01*
X88157867Y-162788893D01*
X88143253Y-162808598D01*
X88126777Y-162826777D01*
X88108598Y-162843253D01*
X88088893Y-162857867D01*
X88067849Y-162870480D01*
X88045671Y-162880970D01*
X88022571Y-162889235D01*
X87998773Y-162895196D01*
X87974504Y-162898796D01*
X87950000Y-162900000D01*
X87150000Y-162900000D01*
X87125496Y-162898796D01*
X87101227Y-162895196D01*
X87077429Y-162889235D01*
X87054329Y-162880970D01*
X87032151Y-162870480D01*
X87011107Y-162857867D01*
X86991402Y-162843253D01*
X86973223Y-162826777D01*
X86956747Y-162808598D01*
X86942133Y-162788893D01*
X86929520Y-162767849D01*
X86919030Y-162745671D01*
X86910765Y-162722571D01*
X86904804Y-162698773D01*
X86901204Y-162674504D01*
X86900000Y-162650000D01*
X86900000Y-159750000D01*
X86901204Y-159725496D01*
X86904804Y-159701227D01*
X86910765Y-159677429D01*
X86919030Y-159654329D01*
X86929520Y-159632151D01*
X86942133Y-159611107D01*
X86956747Y-159591402D01*
X86973223Y-159573223D01*
X86991402Y-159556747D01*
X87011107Y-159542133D01*
X87032151Y-159529520D01*
X87054329Y-159519030D01*
X87077429Y-159510765D01*
X87101227Y-159504804D01*
X87125496Y-159501204D01*
X87150000Y-159500000D01*
X87950000Y-159500000D01*
X87974504Y-159501204D01*
X87974504Y-159501204D01*
G37*
D34*
G04 #@! TD*
G04 #@! TO.P,L1,1*
G04 #@! TO.N,Net-(C2-Pad1)*
X87550000Y-161200000D03*
D23*
G04 #@! TO.P,JP1,1*
G04 #@! TO.N,Net-(J3-Pad3)*
X105100000Y-111275000D03*
D24*
G04 #@! TD*
G04 #@! TO.N,Net-(J3-Pad3)*
G04 #@! TO.C,JP1*
G36*
X105100000Y-112275000D02*
X104350000Y-111775000D01*
X104350000Y-110775000D01*
X105850000Y-110775000D01*
X105850000Y-111775000D01*
X105100000Y-112275000D01*
X105100000Y-112275000D01*
G37*
D23*
G04 #@! TO.P,JP1,2*
G04 #@! TO.N,Net-(JP1-Pad2)*
X105100000Y-112725000D03*
D24*
G04 #@! TD*
G04 #@! TO.N,Net-(JP1-Pad2)*
G04 #@! TO.C,JP1*
G36*
X104350000Y-113225000D02*
X104350000Y-112075000D01*
X105100000Y-112575000D01*
X105850000Y-112075000D01*
X105850000Y-113225000D01*
X104350000Y-113225000D01*
X104350000Y-113225000D01*
G37*
D23*
G04 #@! TO.P,JP4,1*
G04 #@! TO.N,GNDPWR*
X102075000Y-145900000D03*
D24*
G04 #@! TD*
G04 #@! TO.N,GNDPWR*
G04 #@! TO.C,JP4*
G36*
X103075000Y-145900000D02*
X102575000Y-146650000D01*
X101575000Y-146650000D01*
X101575000Y-145150000D01*
X102575000Y-145150000D01*
X103075000Y-145900000D01*
X103075000Y-145900000D01*
G37*
D23*
G04 #@! TO.P,JP4,2*
G04 #@! TO.N,GND*
X103525000Y-145900000D03*
D24*
G04 #@! TD*
G04 #@! TO.N,GND*
G04 #@! TO.C,JP4*
G36*
X104025000Y-146650000D02*
X102875000Y-146650000D01*
X103375000Y-145900000D01*
X102875000Y-145150000D01*
X104025000Y-145150000D01*
X104025000Y-146650000D01*
X104025000Y-146650000D01*
G37*
D23*
G04 #@! TO.P,JP3,1*
G04 #@! TO.N,Net-(C2-Pad1)*
X89075000Y-161200000D03*
D24*
G04 #@! TD*
G04 #@! TO.N,Net-(C2-Pad1)*
G04 #@! TO.C,JP3*
G36*
X90075000Y-161200000D02*
X89575000Y-161950000D01*
X88575000Y-161950000D01*
X88575000Y-160450000D01*
X89575000Y-160450000D01*
X90075000Y-161200000D01*
X90075000Y-161200000D01*
G37*
D23*
G04 #@! TO.P,JP3,2*
G04 #@! TO.N,/IN+*
X90525000Y-161200000D03*
D24*
G04 #@! TD*
G04 #@! TO.N,/IN+*
G04 #@! TO.C,JP3*
G36*
X91025000Y-161950000D02*
X89875000Y-161950000D01*
X90375000Y-161200000D01*
X89875000Y-160450000D01*
X91025000Y-160450000D01*
X91025000Y-161950000D01*
X91025000Y-161950000D01*
G37*
D23*
G04 #@! TO.P,JP2,1*
G04 #@! TO.N,+24V*
X87900000Y-155775000D03*
D24*
G04 #@! TD*
G04 #@! TO.N,+24V*
G04 #@! TO.C,JP2*
G36*
X87900000Y-156775000D02*
X87150000Y-156275000D01*
X87150000Y-155275000D01*
X88650000Y-155275000D01*
X88650000Y-156275000D01*
X87900000Y-156775000D01*
X87900000Y-156775000D01*
G37*
D23*
G04 #@! TO.P,JP2,2*
G04 #@! TO.N,Net-(C2-Pad1)*
X87900000Y-157225000D03*
D24*
G04 #@! TD*
G04 #@! TO.N,Net-(C2-Pad1)*
G04 #@! TO.C,JP2*
G36*
X87150000Y-157725000D02*
X87150000Y-156575000D01*
X87900000Y-157075000D01*
X88650000Y-156575000D01*
X88650000Y-157725000D01*
X87150000Y-157725000D01*
X87150000Y-157725000D01*
G37*
D35*
G04 #@! TO.P,U4,4*
G04 #@! TO.N,+12V*
X97420000Y-106000000D03*
G04 #@! TO.P,U4,2*
G04 #@! TO.N,Net-(D7-Pad2)*
X89800000Y-108540000D03*
G04 #@! TO.P,U4,3*
G04 #@! TO.N,Net-(Q2-Pad1)*
X97420000Y-108540000D03*
D36*
G04 #@! TO.P,U4,1*
G04 #@! TO.N,Net-(D7-Pad1)*
X89800000Y-106000000D03*
G04 #@! TD*
D37*
G04 #@! TO.P,Q2,3*
G04 #@! TO.N,Net-(D6-Pad2)*
X100900000Y-105400000D03*
G04 #@! TO.P,Q2,2*
G04 #@! TO.N,GND*
X101850000Y-107400000D03*
G04 #@! TO.P,Q2,1*
G04 #@! TO.N,Net-(Q2-Pad1)*
X99950000Y-107400000D03*
G04 #@! TD*
D38*
G04 #@! TO.P,U1,5*
G04 #@! TO.N,Net-(Q1-Pad1)*
X84479482Y-148722876D03*
G04 #@! TO.P,U1,6*
G04 #@! TO.N,+24V*
X84479482Y-149672876D03*
G04 #@! TO.P,U1,4*
G04 #@! TO.N,Net-(D1-Pad1)*
X84479482Y-147772876D03*
G04 #@! TO.P,U1,3*
G04 #@! TO.N,Net-(R3-Pad2)*
X86679482Y-147772876D03*
G04 #@! TO.P,U1,2*
G04 #@! TO.N,GNDPWR*
X86679482Y-148722876D03*
G04 #@! TO.P,U1,1*
G04 #@! TO.N,Net-(C1-Pad1)*
X86679482Y-149672876D03*
G04 #@! TD*
D24*
G04 #@! TO.N,Net-(JP1-Pad2)*
G04 #@! TO.C,R4*
G36*
X107377691Y-112351053D02*
X107398926Y-112354203D01*
X107419750Y-112359419D01*
X107439962Y-112366651D01*
X107459368Y-112375830D01*
X107477781Y-112386866D01*
X107495024Y-112399654D01*
X107510930Y-112414070D01*
X107525346Y-112429976D01*
X107538134Y-112447219D01*
X107549170Y-112465632D01*
X107558349Y-112485038D01*
X107565581Y-112505250D01*
X107570797Y-112526074D01*
X107573947Y-112547309D01*
X107575000Y-112568750D01*
X107575000Y-113006250D01*
X107573947Y-113027691D01*
X107570797Y-113048926D01*
X107565581Y-113069750D01*
X107558349Y-113089962D01*
X107549170Y-113109368D01*
X107538134Y-113127781D01*
X107525346Y-113145024D01*
X107510930Y-113160930D01*
X107495024Y-113175346D01*
X107477781Y-113188134D01*
X107459368Y-113199170D01*
X107439962Y-113208349D01*
X107419750Y-113215581D01*
X107398926Y-113220797D01*
X107377691Y-113223947D01*
X107356250Y-113225000D01*
X106843750Y-113225000D01*
X106822309Y-113223947D01*
X106801074Y-113220797D01*
X106780250Y-113215581D01*
X106760038Y-113208349D01*
X106740632Y-113199170D01*
X106722219Y-113188134D01*
X106704976Y-113175346D01*
X106689070Y-113160930D01*
X106674654Y-113145024D01*
X106661866Y-113127781D01*
X106650830Y-113109368D01*
X106641651Y-113089962D01*
X106634419Y-113069750D01*
X106629203Y-113048926D01*
X106626053Y-113027691D01*
X106625000Y-113006250D01*
X106625000Y-112568750D01*
X106626053Y-112547309D01*
X106629203Y-112526074D01*
X106634419Y-112505250D01*
X106641651Y-112485038D01*
X106650830Y-112465632D01*
X106661866Y-112447219D01*
X106674654Y-112429976D01*
X106689070Y-112414070D01*
X106704976Y-112399654D01*
X106722219Y-112386866D01*
X106740632Y-112375830D01*
X106760038Y-112366651D01*
X106780250Y-112359419D01*
X106801074Y-112354203D01*
X106822309Y-112351053D01*
X106843750Y-112350000D01*
X107356250Y-112350000D01*
X107377691Y-112351053D01*
X107377691Y-112351053D01*
G37*
D27*
G04 #@! TD*
G04 #@! TO.P,R4,2*
G04 #@! TO.N,Net-(JP1-Pad2)*
X107100000Y-112787500D03*
D24*
G04 #@! TO.N,Net-(J3-Pad4)*
G04 #@! TO.C,R4*
G36*
X107377691Y-110776053D02*
X107398926Y-110779203D01*
X107419750Y-110784419D01*
X107439962Y-110791651D01*
X107459368Y-110800830D01*
X107477781Y-110811866D01*
X107495024Y-110824654D01*
X107510930Y-110839070D01*
X107525346Y-110854976D01*
X107538134Y-110872219D01*
X107549170Y-110890632D01*
X107558349Y-110910038D01*
X107565581Y-110930250D01*
X107570797Y-110951074D01*
X107573947Y-110972309D01*
X107575000Y-110993750D01*
X107575000Y-111431250D01*
X107573947Y-111452691D01*
X107570797Y-111473926D01*
X107565581Y-111494750D01*
X107558349Y-111514962D01*
X107549170Y-111534368D01*
X107538134Y-111552781D01*
X107525346Y-111570024D01*
X107510930Y-111585930D01*
X107495024Y-111600346D01*
X107477781Y-111613134D01*
X107459368Y-111624170D01*
X107439962Y-111633349D01*
X107419750Y-111640581D01*
X107398926Y-111645797D01*
X107377691Y-111648947D01*
X107356250Y-111650000D01*
X106843750Y-111650000D01*
X106822309Y-111648947D01*
X106801074Y-111645797D01*
X106780250Y-111640581D01*
X106760038Y-111633349D01*
X106740632Y-111624170D01*
X106722219Y-111613134D01*
X106704976Y-111600346D01*
X106689070Y-111585930D01*
X106674654Y-111570024D01*
X106661866Y-111552781D01*
X106650830Y-111534368D01*
X106641651Y-111514962D01*
X106634419Y-111494750D01*
X106629203Y-111473926D01*
X106626053Y-111452691D01*
X106625000Y-111431250D01*
X106625000Y-110993750D01*
X106626053Y-110972309D01*
X106629203Y-110951074D01*
X106634419Y-110930250D01*
X106641651Y-110910038D01*
X106650830Y-110890632D01*
X106661866Y-110872219D01*
X106674654Y-110854976D01*
X106689070Y-110839070D01*
X106704976Y-110824654D01*
X106722219Y-110811866D01*
X106740632Y-110800830D01*
X106760038Y-110791651D01*
X106780250Y-110784419D01*
X106801074Y-110779203D01*
X106822309Y-110776053D01*
X106843750Y-110775000D01*
X107356250Y-110775000D01*
X107377691Y-110776053D01*
X107377691Y-110776053D01*
G37*
D27*
G04 #@! TD*
G04 #@! TO.P,R4,1*
G04 #@! TO.N,Net-(J3-Pad4)*
X107100000Y-111212500D03*
D24*
G04 #@! TO.N,Net-(R3-Pad2)*
G04 #@! TO.C,R3*
G36*
X88477691Y-147176053D02*
X88498926Y-147179203D01*
X88519750Y-147184419D01*
X88539962Y-147191651D01*
X88559368Y-147200830D01*
X88577781Y-147211866D01*
X88595024Y-147224654D01*
X88610930Y-147239070D01*
X88625346Y-147254976D01*
X88638134Y-147272219D01*
X88649170Y-147290632D01*
X88658349Y-147310038D01*
X88665581Y-147330250D01*
X88670797Y-147351074D01*
X88673947Y-147372309D01*
X88675000Y-147393750D01*
X88675000Y-147831250D01*
X88673947Y-147852691D01*
X88670797Y-147873926D01*
X88665581Y-147894750D01*
X88658349Y-147914962D01*
X88649170Y-147934368D01*
X88638134Y-147952781D01*
X88625346Y-147970024D01*
X88610930Y-147985930D01*
X88595024Y-148000346D01*
X88577781Y-148013134D01*
X88559368Y-148024170D01*
X88539962Y-148033349D01*
X88519750Y-148040581D01*
X88498926Y-148045797D01*
X88477691Y-148048947D01*
X88456250Y-148050000D01*
X87943750Y-148050000D01*
X87922309Y-148048947D01*
X87901074Y-148045797D01*
X87880250Y-148040581D01*
X87860038Y-148033349D01*
X87840632Y-148024170D01*
X87822219Y-148013134D01*
X87804976Y-148000346D01*
X87789070Y-147985930D01*
X87774654Y-147970024D01*
X87761866Y-147952781D01*
X87750830Y-147934368D01*
X87741651Y-147914962D01*
X87734419Y-147894750D01*
X87729203Y-147873926D01*
X87726053Y-147852691D01*
X87725000Y-147831250D01*
X87725000Y-147393750D01*
X87726053Y-147372309D01*
X87729203Y-147351074D01*
X87734419Y-147330250D01*
X87741651Y-147310038D01*
X87750830Y-147290632D01*
X87761866Y-147272219D01*
X87774654Y-147254976D01*
X87789070Y-147239070D01*
X87804976Y-147224654D01*
X87822219Y-147211866D01*
X87840632Y-147200830D01*
X87860038Y-147191651D01*
X87880250Y-147184419D01*
X87901074Y-147179203D01*
X87922309Y-147176053D01*
X87943750Y-147175000D01*
X88456250Y-147175000D01*
X88477691Y-147176053D01*
X88477691Y-147176053D01*
G37*
D27*
G04 #@! TD*
G04 #@! TO.P,R3,2*
G04 #@! TO.N,Net-(R3-Pad2)*
X88200000Y-147612500D03*
D24*
G04 #@! TO.N,GNDPWR*
G04 #@! TO.C,R3*
G36*
X88477691Y-148751053D02*
X88498926Y-148754203D01*
X88519750Y-148759419D01*
X88539962Y-148766651D01*
X88559368Y-148775830D01*
X88577781Y-148786866D01*
X88595024Y-148799654D01*
X88610930Y-148814070D01*
X88625346Y-148829976D01*
X88638134Y-148847219D01*
X88649170Y-148865632D01*
X88658349Y-148885038D01*
X88665581Y-148905250D01*
X88670797Y-148926074D01*
X88673947Y-148947309D01*
X88675000Y-148968750D01*
X88675000Y-149406250D01*
X88673947Y-149427691D01*
X88670797Y-149448926D01*
X88665581Y-149469750D01*
X88658349Y-149489962D01*
X88649170Y-149509368D01*
X88638134Y-149527781D01*
X88625346Y-149545024D01*
X88610930Y-149560930D01*
X88595024Y-149575346D01*
X88577781Y-149588134D01*
X88559368Y-149599170D01*
X88539962Y-149608349D01*
X88519750Y-149615581D01*
X88498926Y-149620797D01*
X88477691Y-149623947D01*
X88456250Y-149625000D01*
X87943750Y-149625000D01*
X87922309Y-149623947D01*
X87901074Y-149620797D01*
X87880250Y-149615581D01*
X87860038Y-149608349D01*
X87840632Y-149599170D01*
X87822219Y-149588134D01*
X87804976Y-149575346D01*
X87789070Y-149560930D01*
X87774654Y-149545024D01*
X87761866Y-149527781D01*
X87750830Y-149509368D01*
X87741651Y-149489962D01*
X87734419Y-149469750D01*
X87729203Y-149448926D01*
X87726053Y-149427691D01*
X87725000Y-149406250D01*
X87725000Y-148968750D01*
X87726053Y-148947309D01*
X87729203Y-148926074D01*
X87734419Y-148905250D01*
X87741651Y-148885038D01*
X87750830Y-148865632D01*
X87761866Y-148847219D01*
X87774654Y-148829976D01*
X87789070Y-148814070D01*
X87804976Y-148799654D01*
X87822219Y-148786866D01*
X87840632Y-148775830D01*
X87860038Y-148766651D01*
X87880250Y-148759419D01*
X87901074Y-148754203D01*
X87922309Y-148751053D01*
X87943750Y-148750000D01*
X88456250Y-148750000D01*
X88477691Y-148751053D01*
X88477691Y-148751053D01*
G37*
D27*
G04 #@! TD*
G04 #@! TO.P,R3,1*
G04 #@! TO.N,GNDPWR*
X88200000Y-149187500D03*
D24*
G04 #@! TO.N,Net-(C1-Pad1)*
G04 #@! TO.C,R2*
G36*
X86607173Y-150848929D02*
X86628408Y-150852079D01*
X86649232Y-150857295D01*
X86669444Y-150864527D01*
X86688850Y-150873706D01*
X86707263Y-150884742D01*
X86724506Y-150897530D01*
X86740412Y-150911946D01*
X86754828Y-150927852D01*
X86767616Y-150945095D01*
X86778652Y-150963508D01*
X86787831Y-150982914D01*
X86795063Y-151003126D01*
X86800279Y-151023950D01*
X86803429Y-151045185D01*
X86804482Y-151066626D01*
X86804482Y-151579126D01*
X86803429Y-151600567D01*
X86800279Y-151621802D01*
X86795063Y-151642626D01*
X86787831Y-151662838D01*
X86778652Y-151682244D01*
X86767616Y-151700657D01*
X86754828Y-151717900D01*
X86740412Y-151733806D01*
X86724506Y-151748222D01*
X86707263Y-151761010D01*
X86688850Y-151772046D01*
X86669444Y-151781225D01*
X86649232Y-151788457D01*
X86628408Y-151793673D01*
X86607173Y-151796823D01*
X86585732Y-151797876D01*
X86148232Y-151797876D01*
X86126791Y-151796823D01*
X86105556Y-151793673D01*
X86084732Y-151788457D01*
X86064520Y-151781225D01*
X86045114Y-151772046D01*
X86026701Y-151761010D01*
X86009458Y-151748222D01*
X85993552Y-151733806D01*
X85979136Y-151717900D01*
X85966348Y-151700657D01*
X85955312Y-151682244D01*
X85946133Y-151662838D01*
X85938901Y-151642626D01*
X85933685Y-151621802D01*
X85930535Y-151600567D01*
X85929482Y-151579126D01*
X85929482Y-151066626D01*
X85930535Y-151045185D01*
X85933685Y-151023950D01*
X85938901Y-151003126D01*
X85946133Y-150982914D01*
X85955312Y-150963508D01*
X85966348Y-150945095D01*
X85979136Y-150927852D01*
X85993552Y-150911946D01*
X86009458Y-150897530D01*
X86026701Y-150884742D01*
X86045114Y-150873706D01*
X86064520Y-150864527D01*
X86084732Y-150857295D01*
X86105556Y-150852079D01*
X86126791Y-150848929D01*
X86148232Y-150847876D01*
X86585732Y-150847876D01*
X86607173Y-150848929D01*
X86607173Y-150848929D01*
G37*
D27*
G04 #@! TD*
G04 #@! TO.P,R2,2*
G04 #@! TO.N,Net-(C1-Pad1)*
X86366982Y-151322876D03*
D24*
G04 #@! TO.N,+24V*
G04 #@! TO.C,R2*
G36*
X85032173Y-150848929D02*
X85053408Y-150852079D01*
X85074232Y-150857295D01*
X85094444Y-150864527D01*
X85113850Y-150873706D01*
X85132263Y-150884742D01*
X85149506Y-150897530D01*
X85165412Y-150911946D01*
X85179828Y-150927852D01*
X85192616Y-150945095D01*
X85203652Y-150963508D01*
X85212831Y-150982914D01*
X85220063Y-151003126D01*
X85225279Y-151023950D01*
X85228429Y-151045185D01*
X85229482Y-151066626D01*
X85229482Y-151579126D01*
X85228429Y-151600567D01*
X85225279Y-151621802D01*
X85220063Y-151642626D01*
X85212831Y-151662838D01*
X85203652Y-151682244D01*
X85192616Y-151700657D01*
X85179828Y-151717900D01*
X85165412Y-151733806D01*
X85149506Y-151748222D01*
X85132263Y-151761010D01*
X85113850Y-151772046D01*
X85094444Y-151781225D01*
X85074232Y-151788457D01*
X85053408Y-151793673D01*
X85032173Y-151796823D01*
X85010732Y-151797876D01*
X84573232Y-151797876D01*
X84551791Y-151796823D01*
X84530556Y-151793673D01*
X84509732Y-151788457D01*
X84489520Y-151781225D01*
X84470114Y-151772046D01*
X84451701Y-151761010D01*
X84434458Y-151748222D01*
X84418552Y-151733806D01*
X84404136Y-151717900D01*
X84391348Y-151700657D01*
X84380312Y-151682244D01*
X84371133Y-151662838D01*
X84363901Y-151642626D01*
X84358685Y-151621802D01*
X84355535Y-151600567D01*
X84354482Y-151579126D01*
X84354482Y-151066626D01*
X84355535Y-151045185D01*
X84358685Y-151023950D01*
X84363901Y-151003126D01*
X84371133Y-150982914D01*
X84380312Y-150963508D01*
X84391348Y-150945095D01*
X84404136Y-150927852D01*
X84418552Y-150911946D01*
X84434458Y-150897530D01*
X84451701Y-150884742D01*
X84470114Y-150873706D01*
X84489520Y-150864527D01*
X84509732Y-150857295D01*
X84530556Y-150852079D01*
X84551791Y-150848929D01*
X84573232Y-150847876D01*
X85010732Y-150847876D01*
X85032173Y-150848929D01*
X85032173Y-150848929D01*
G37*
D27*
G04 #@! TD*
G04 #@! TO.P,R2,1*
G04 #@! TO.N,+24V*
X84791982Y-151322876D03*
D24*
G04 #@! TO.N,GND*
G04 #@! TO.C,R6*
G36*
X101927691Y-108326053D02*
X101948926Y-108329203D01*
X101969750Y-108334419D01*
X101989962Y-108341651D01*
X102009368Y-108350830D01*
X102027781Y-108361866D01*
X102045024Y-108374654D01*
X102060930Y-108389070D01*
X102075346Y-108404976D01*
X102088134Y-108422219D01*
X102099170Y-108440632D01*
X102108349Y-108460038D01*
X102115581Y-108480250D01*
X102120797Y-108501074D01*
X102123947Y-108522309D01*
X102125000Y-108543750D01*
X102125000Y-109056250D01*
X102123947Y-109077691D01*
X102120797Y-109098926D01*
X102115581Y-109119750D01*
X102108349Y-109139962D01*
X102099170Y-109159368D01*
X102088134Y-109177781D01*
X102075346Y-109195024D01*
X102060930Y-109210930D01*
X102045024Y-109225346D01*
X102027781Y-109238134D01*
X102009368Y-109249170D01*
X101989962Y-109258349D01*
X101969750Y-109265581D01*
X101948926Y-109270797D01*
X101927691Y-109273947D01*
X101906250Y-109275000D01*
X101468750Y-109275000D01*
X101447309Y-109273947D01*
X101426074Y-109270797D01*
X101405250Y-109265581D01*
X101385038Y-109258349D01*
X101365632Y-109249170D01*
X101347219Y-109238134D01*
X101329976Y-109225346D01*
X101314070Y-109210930D01*
X101299654Y-109195024D01*
X101286866Y-109177781D01*
X101275830Y-109159368D01*
X101266651Y-109139962D01*
X101259419Y-109119750D01*
X101254203Y-109098926D01*
X101251053Y-109077691D01*
X101250000Y-109056250D01*
X101250000Y-108543750D01*
X101251053Y-108522309D01*
X101254203Y-108501074D01*
X101259419Y-108480250D01*
X101266651Y-108460038D01*
X101275830Y-108440632D01*
X101286866Y-108422219D01*
X101299654Y-108404976D01*
X101314070Y-108389070D01*
X101329976Y-108374654D01*
X101347219Y-108361866D01*
X101365632Y-108350830D01*
X101385038Y-108341651D01*
X101405250Y-108334419D01*
X101426074Y-108329203D01*
X101447309Y-108326053D01*
X101468750Y-108325000D01*
X101906250Y-108325000D01*
X101927691Y-108326053D01*
X101927691Y-108326053D01*
G37*
D27*
G04 #@! TD*
G04 #@! TO.P,R6,2*
G04 #@! TO.N,GND*
X101687500Y-108800000D03*
D24*
G04 #@! TO.N,Net-(Q2-Pad1)*
G04 #@! TO.C,R6*
G36*
X100352691Y-108326053D02*
X100373926Y-108329203D01*
X100394750Y-108334419D01*
X100414962Y-108341651D01*
X100434368Y-108350830D01*
X100452781Y-108361866D01*
X100470024Y-108374654D01*
X100485930Y-108389070D01*
X100500346Y-108404976D01*
X100513134Y-108422219D01*
X100524170Y-108440632D01*
X100533349Y-108460038D01*
X100540581Y-108480250D01*
X100545797Y-108501074D01*
X100548947Y-108522309D01*
X100550000Y-108543750D01*
X100550000Y-109056250D01*
X100548947Y-109077691D01*
X100545797Y-109098926D01*
X100540581Y-109119750D01*
X100533349Y-109139962D01*
X100524170Y-109159368D01*
X100513134Y-109177781D01*
X100500346Y-109195024D01*
X100485930Y-109210930D01*
X100470024Y-109225346D01*
X100452781Y-109238134D01*
X100434368Y-109249170D01*
X100414962Y-109258349D01*
X100394750Y-109265581D01*
X100373926Y-109270797D01*
X100352691Y-109273947D01*
X100331250Y-109275000D01*
X99893750Y-109275000D01*
X99872309Y-109273947D01*
X99851074Y-109270797D01*
X99830250Y-109265581D01*
X99810038Y-109258349D01*
X99790632Y-109249170D01*
X99772219Y-109238134D01*
X99754976Y-109225346D01*
X99739070Y-109210930D01*
X99724654Y-109195024D01*
X99711866Y-109177781D01*
X99700830Y-109159368D01*
X99691651Y-109139962D01*
X99684419Y-109119750D01*
X99679203Y-109098926D01*
X99676053Y-109077691D01*
X99675000Y-109056250D01*
X99675000Y-108543750D01*
X99676053Y-108522309D01*
X99679203Y-108501074D01*
X99684419Y-108480250D01*
X99691651Y-108460038D01*
X99700830Y-108440632D01*
X99711866Y-108422219D01*
X99724654Y-108404976D01*
X99739070Y-108389070D01*
X99754976Y-108374654D01*
X99772219Y-108361866D01*
X99790632Y-108350830D01*
X99810038Y-108341651D01*
X99830250Y-108334419D01*
X99851074Y-108329203D01*
X99872309Y-108326053D01*
X99893750Y-108325000D01*
X100331250Y-108325000D01*
X100352691Y-108326053D01*
X100352691Y-108326053D01*
G37*
D27*
G04 #@! TD*
G04 #@! TO.P,R6,1*
G04 #@! TO.N,Net-(Q2-Pad1)*
X100112500Y-108800000D03*
D39*
G04 #@! TO.P,R1,2*
G04 #@! TO.N,GNDPWR*
X90500000Y-152580000D03*
D40*
G04 #@! TO.P,R1,1*
G04 #@! TO.N,Net-(D1-Pad1)*
X90500000Y-147500000D03*
G04 #@! TD*
D41*
G04 #@! TO.N,Net-(D1-Pad1)*
X78600000Y-148200000D03*
X78600000Y-150900000D03*
X78600000Y-150000000D03*
X78600000Y-147300000D03*
X78600000Y-149100000D03*
X77700000Y-148200000D03*
X77700000Y-150900000D03*
X77700000Y-150000000D03*
X77700000Y-147300000D03*
X77700000Y-149100000D03*
X76800000Y-148200000D03*
X76800000Y-150900000D03*
X76800000Y-150000000D03*
X76800000Y-147300000D03*
X76800000Y-149100000D03*
X75900000Y-147300000D03*
X75900000Y-148200000D03*
X75900000Y-150900000D03*
X75900000Y-149100000D03*
X75900000Y-150000000D03*
G04 #@! TO.N,GNDPWR*
X118000000Y-162000000D03*
X128000000Y-149000000D03*
X99500000Y-147800000D03*
X98000000Y-159000000D03*
X93000000Y-157000000D03*
X92000000Y-150000000D03*
X90000000Y-150000000D03*
X133000000Y-163000000D03*
X133000000Y-158000000D03*
X133000000Y-153000000D03*
X133000000Y-149000000D03*
X123000000Y-149000000D03*
X118000000Y-149000000D03*
X112000000Y-149000000D03*
X107000000Y-149000000D03*
X99500000Y-147800000D03*
X96000000Y-150000000D03*
X99500000Y-147800000D03*
X99500000Y-147800000D03*
X99500000Y-147800000D03*
X97000000Y-150000000D03*
X98000000Y-150000000D03*
X122075000Y-161900000D03*
X90000000Y-163000000D03*
G04 #@! TO.N,GND*
X94000000Y-134000000D03*
X94000000Y-107000000D03*
X97000000Y-113000000D03*
X107000000Y-116000000D03*
X133000000Y-145000000D03*
X128000000Y-145000000D03*
X123000000Y-145000000D03*
X118000000Y-145000000D03*
X113000000Y-145000000D03*
X108000000Y-145000000D03*
X105000000Y-145000000D03*
X102000000Y-142000000D03*
X100000000Y-140000000D03*
X97000000Y-137000000D03*
X94000000Y-129000000D03*
X94000000Y-124000000D03*
X92000000Y-121000000D03*
X87000000Y-117000000D03*
X84000000Y-114000000D03*
X80000000Y-110000000D03*
X75000000Y-109000000D03*
X70000000Y-109000000D03*
X62000000Y-109000000D03*
X62000000Y-92000000D03*
X62000000Y-97000000D03*
X62000000Y-102000000D03*
X67000000Y-92000000D03*
X72000000Y-92000000D03*
X77000000Y-92000000D03*
X82000000Y-92000000D03*
X87000000Y-92000000D03*
X92000000Y-92000000D03*
X97000000Y-92000000D03*
X102000000Y-92000000D03*
X107000000Y-92000000D03*
X133000000Y-92000000D03*
X128000000Y-92000000D03*
X123000000Y-92000000D03*
X118000000Y-92000000D03*
X113000000Y-92000000D03*
X133000000Y-97000000D03*
X133000000Y-102000000D03*
X133000000Y-110000000D03*
X133000000Y-115000000D03*
X133000000Y-126000000D03*
X129000000Y-126000000D03*
X126000000Y-126000000D03*
X125400000Y-119000000D03*
X115000000Y-119000000D03*
X106000000Y-119000000D03*
X99000000Y-131000000D03*
X110000000Y-135000000D03*
X110000000Y-129000000D03*
X133000000Y-140000000D03*
X133000000Y-135000000D03*
X133000000Y-130000000D03*
X89000000Y-98000000D03*
X95000000Y-100000000D03*
X105000000Y-103000000D03*
X101000000Y-111000000D03*
X82000000Y-103000000D03*
X119000000Y-114000000D03*
X125400000Y-114000000D03*
X125400000Y-109000000D03*
X119000000Y-109000000D03*
X116000000Y-106000000D03*
X114000000Y-106000000D03*
X127000000Y-104000000D03*
X121600000Y-101200000D03*
X89000000Y-101000000D03*
X74000000Y-103000000D03*
G04 #@! TO.N,+24V*
X77900000Y-157300000D03*
X77900000Y-155500000D03*
X77900000Y-154600000D03*
X77900000Y-156400000D03*
X77900000Y-158200000D03*
X77000000Y-157300000D03*
X77000000Y-155500000D03*
X77000000Y-154600000D03*
X77000000Y-156400000D03*
X77000000Y-158200000D03*
X76100000Y-157300000D03*
X76100000Y-155500000D03*
X76100000Y-154600000D03*
X76100000Y-156400000D03*
X76100000Y-158200000D03*
X75200000Y-154600000D03*
X75200000Y-155500000D03*
X75200000Y-156400000D03*
X75200000Y-157300000D03*
X75200000Y-158200000D03*
G04 #@! TD*
D42*
G04 #@! TO.N,Net-(D1-Pad1)*
X77160000Y-149450000D02*
X77160000Y-147700000D01*
D43*
X77160000Y-147740000D02*
X77160000Y-149450000D01*
X78600000Y-146300000D02*
X77160000Y-147740000D01*
D44*
X86640000Y-141500000D02*
X81160000Y-141500000D01*
X77160000Y-145500000D02*
X77160000Y-149450000D01*
X81160000Y-141500000D02*
X77160000Y-145500000D01*
D45*
X86640000Y-141500000D02*
X87500000Y-141500000D01*
D46*
X77950000Y-149450000D02*
X77160000Y-149450000D01*
X81100000Y-146300000D02*
X77950000Y-149450000D01*
X83200000Y-146300000D02*
X81100000Y-146300000D01*
X84479482Y-147772876D02*
X84479482Y-147579482D01*
X84479482Y-147579482D02*
X83200000Y-146300000D01*
D47*
X90940000Y-145800000D02*
X95200000Y-145800000D01*
X86640000Y-141500000D02*
X90940000Y-145800000D01*
D45*
X90500000Y-146240000D02*
X90940000Y-145800000D01*
X90500000Y-147500000D02*
X90500000Y-146240000D01*
D46*
X75500000Y-150400000D02*
X75900000Y-150000000D01*
X72400000Y-150400000D02*
X75500000Y-150400000D01*
D44*
G04 #@! TO.N,GNDPWR*
X63100000Y-147900000D02*
X63100000Y-137900000D01*
X68100000Y-137900000D02*
X68100000Y-147900000D01*
X63100000Y-137900000D02*
X68100000Y-137900000D01*
D46*
X87735376Y-148722876D02*
X88200000Y-149187500D01*
X86679482Y-148722876D02*
X87735376Y-148722876D01*
X88179482Y-149208018D02*
X88200000Y-149187500D01*
X88179482Y-150535376D02*
X88179482Y-149208018D01*
D47*
X95200000Y-152600000D02*
X95600000Y-152600000D01*
X68100000Y-137900000D02*
X68600000Y-137900000D01*
D46*
X100100000Y-145900000D02*
X100000000Y-146000000D01*
X102075000Y-145900000D02*
X100100000Y-145900000D01*
X102075000Y-145900000D02*
X102075000Y-147875000D01*
D47*
X100000000Y-144700000D02*
X100000000Y-146000000D01*
X91800000Y-136500000D02*
X100000000Y-144700000D01*
X63100000Y-137900000D02*
X64500000Y-136500000D01*
X64500000Y-136500000D02*
X91800000Y-136500000D01*
D44*
X68100000Y-147900000D02*
X63100000Y-147900000D01*
D47*
X122075000Y-161900000D02*
X121675000Y-161500000D01*
X125800000Y-161900000D02*
X122075000Y-161900000D01*
D45*
X95200000Y-152600000D02*
X95200000Y-149800000D01*
X97850000Y-152600000D02*
X98450000Y-152000000D01*
X95200000Y-152600000D02*
X97850000Y-152600000D01*
X95200000Y-154850000D02*
X95000000Y-155050000D01*
X95200000Y-152600000D02*
X95200000Y-154850000D01*
X95200000Y-152600000D02*
X92400000Y-152600000D01*
D46*
G04 #@! TO.N,Net-(Q2-Pad1)*
X99852500Y-108540000D02*
X100112500Y-108800000D01*
X97420000Y-108540000D02*
X99852500Y-108540000D01*
X100112500Y-107562500D02*
X99950000Y-107400000D01*
X100112500Y-108800000D02*
X100112500Y-107562500D01*
G04 #@! TO.N,GND*
X101850000Y-108637500D02*
X101687500Y-108800000D01*
X101850000Y-107400000D02*
X101850000Y-108637500D01*
X104900000Y-145900000D02*
X105000000Y-146000000D01*
X103625000Y-145900000D02*
X105000000Y-145900000D01*
X103600000Y-145925000D02*
X103600000Y-144000000D01*
D45*
X109740000Y-129260000D02*
X110000000Y-129000000D01*
X109740000Y-132240000D02*
X109740000Y-129260000D01*
X109740000Y-134740000D02*
X110000000Y-135000000D01*
X109740000Y-132240000D02*
X109740000Y-134740000D01*
X108325787Y-132240000D02*
X108085787Y-132000000D01*
X109740000Y-132240000D02*
X108325787Y-132240000D01*
X109740000Y-132240000D02*
X114760000Y-132240000D01*
X123075000Y-121900000D02*
X122975000Y-122000000D01*
X125800000Y-121900000D02*
X123075000Y-121900000D01*
X127766001Y-99016001D02*
X127535001Y-99016001D01*
X131000000Y-99600000D02*
X128350000Y-99600000D01*
X128350000Y-99600000D02*
X127766001Y-99016001D01*
X131000000Y-99600000D02*
X131000000Y-97000000D01*
X131000000Y-99600000D02*
X131000000Y-103000000D01*
X133650000Y-99600000D02*
X134000000Y-99950000D01*
X131000000Y-99600000D02*
X133650000Y-99600000D01*
X67650000Y-100600000D02*
X68250000Y-100000000D01*
X65000000Y-100600000D02*
X67650000Y-100600000D01*
X62350000Y-100600000D02*
X62000000Y-100950000D01*
X65000000Y-100600000D02*
X62350000Y-100600000D01*
X65000000Y-100600000D02*
X65000000Y-103000000D01*
X70750000Y-94700000D02*
X70750000Y-97250000D01*
X70750000Y-94700000D02*
X73300000Y-94700000D01*
X70750000Y-94700000D02*
X70750000Y-92250000D01*
X70750000Y-94700000D02*
X69300000Y-94700000D01*
X65000000Y-98350000D02*
X65350000Y-98000000D01*
X65000000Y-100600000D02*
X65000000Y-98350000D01*
D42*
G04 #@! TO.N,Net-(C1-Pad1)*
X86679482Y-151010376D02*
X86366982Y-151322876D01*
D46*
X87310376Y-152110376D02*
X88179482Y-152110376D01*
X86679482Y-149672876D02*
X86679482Y-151479482D01*
X86679482Y-151479482D02*
X87310376Y-152110376D01*
D47*
G04 #@! TO.N,+24V*
X83500000Y-154800000D02*
X79700000Y-158600000D01*
X87900000Y-154800000D02*
X83500000Y-154800000D01*
D46*
X84479482Y-151010376D02*
X84791982Y-151322876D01*
X84479482Y-149672876D02*
X84479482Y-151010376D01*
X84791982Y-153508018D02*
X79700000Y-158600000D01*
X84791982Y-151322876D02*
X84791982Y-153508018D01*
D44*
X63100000Y-154900000D02*
X76000000Y-154900000D01*
X76000000Y-154900000D02*
X79700000Y-158600000D01*
D43*
G04 #@! TO.N,Net-(R3-Pad2)*
X86679482Y-147772876D02*
X86679482Y-147666982D01*
D46*
X88039624Y-147772876D02*
X88200000Y-147612500D01*
X86679482Y-147772876D02*
X88039624Y-147772876D01*
G04 #@! TO.N,Net-(J10-Pad2)*
X94587500Y-103037500D02*
X91250000Y-99700000D01*
X94587500Y-103200000D02*
X94587500Y-103037500D01*
G04 #@! TO.N,Net-(D7-Pad1)*
X89800000Y-104650000D02*
X91150000Y-103300000D01*
X89800000Y-106000000D02*
X89800000Y-104650000D01*
X91250000Y-103200000D02*
X91150000Y-103300000D01*
X93012500Y-103200000D02*
X91250000Y-103200000D01*
G04 #@! TO.N,Net-(J3-Pad4)*
X107100000Y-111212500D02*
X107600000Y-110712500D01*
X107600000Y-106900000D02*
X107490000Y-106790000D01*
X107600000Y-110712500D02*
X107600000Y-106900000D01*
X117580000Y-108700000D02*
X119490000Y-106790000D01*
X107600000Y-107700000D02*
X107600000Y-108700000D01*
X107600000Y-108700000D02*
X117580000Y-108700000D01*
G04 #@! TO.N,Net-(JP1-Pad2)*
X107100000Y-112787500D02*
X105162500Y-112787500D01*
D43*
G04 #@! TO.N,Net-(Q1-Pad1)*
X82222876Y-149432876D02*
X82240000Y-149450000D01*
X82267124Y-149422876D02*
X82240000Y-149450000D01*
D46*
X82967124Y-148722876D02*
X82240000Y-149450000D01*
X84479482Y-148722876D02*
X82967124Y-148722876D01*
G04 #@! TO.N,Net-(D6-Pad2)*
X96250000Y-103200000D02*
X96350000Y-103300000D01*
X96250000Y-94700000D02*
X96250000Y-103200000D01*
X101800000Y-105400000D02*
X100900000Y-105400000D01*
X103100000Y-106700000D02*
X101800000Y-105400000D01*
X101500000Y-114300000D02*
X103100000Y-112700000D01*
X103100000Y-112700000D02*
X103100000Y-106700000D01*
X100000000Y-105400000D02*
X100900000Y-105400000D01*
X99500000Y-105400000D02*
X100000000Y-105400000D01*
X96350000Y-103300000D02*
X97400000Y-103300000D01*
X97400000Y-103300000D02*
X99500000Y-105400000D01*
G04 #@! TO.N,Net-(D7-Pad2)*
X87750000Y-103200000D02*
X87650000Y-103300000D01*
X87750000Y-94700000D02*
X87750000Y-103200000D01*
X87650000Y-106790000D02*
X89400000Y-108540000D01*
X89400000Y-108540000D02*
X89800000Y-108540000D01*
X87650000Y-103300000D02*
X87650000Y-106790000D01*
G04 #@! TO.N,+12V*
X99850000Y-99800000D02*
X99750000Y-99700000D01*
X99850000Y-103300000D02*
X99850000Y-99800000D01*
X99850000Y-103300000D02*
X99850000Y-103570000D01*
D47*
X131000000Y-124300000D02*
X131000000Y-124424990D01*
X131000000Y-123762500D02*
X131000000Y-124300000D01*
X132300000Y-122462500D02*
X132300000Y-120700000D01*
X131000000Y-123762500D02*
X132300000Y-122462500D01*
X111500000Y-113400000D02*
X111500000Y-111600000D01*
X114800000Y-116700000D02*
X111500000Y-113400000D01*
X129431370Y-116700000D02*
X114800000Y-116700000D01*
X132300000Y-120700000D02*
X132300000Y-119568630D01*
X132300000Y-119568630D02*
X129431370Y-116700000D01*
G04 #@! TO.N,Net-(C2-Pad1)*
X88150000Y-161200000D02*
X88674990Y-161200000D01*
X87900000Y-160950000D02*
X88150000Y-161200000D01*
X87900000Y-158300000D02*
X87900000Y-160950000D01*
D46*
X90100000Y-157437500D02*
X88112500Y-157437500D01*
D47*
G04 #@! TO.N,/IN+*
X92000000Y-161200000D02*
X91300000Y-161200000D01*
X91300000Y-161200000D02*
X91275010Y-161200000D01*
X112900000Y-162100000D02*
X122440000Y-152560000D01*
X108900000Y-162100000D02*
X112900000Y-162100000D01*
X100000000Y-162100000D02*
X108900000Y-162100000D01*
X92000000Y-161200000D02*
X92900000Y-162100000D01*
X92900000Y-162100000D02*
X100000000Y-162100000D01*
X104800000Y-162100000D02*
X108900000Y-162100000D01*
X103900000Y-161200000D02*
X104800000Y-162100000D01*
X103900000Y-159500000D02*
X103900000Y-161200000D01*
D46*
G04 #@! TO.N,Net-(J3-Pad3)*
X108760000Y-102977208D02*
X109637208Y-102100000D01*
X108760000Y-104250000D02*
X108760000Y-102977208D01*
X118610000Y-102100000D02*
X120760000Y-104250000D01*
X109637208Y-102100000D02*
X118610000Y-102100000D01*
X108760000Y-104250000D02*
X107050000Y-104250000D01*
X105100000Y-106200000D02*
X105100000Y-111275000D01*
X107050000Y-104250000D02*
X105100000Y-106200000D01*
D47*
G04 #@! TO.N,/OUT+*
X131000000Y-127375000D02*
X131000000Y-127025010D01*
X131000000Y-128037500D02*
X131000000Y-127375000D01*
X131000000Y-131300000D02*
X130060000Y-132240000D01*
X131000000Y-128037500D02*
X131000000Y-131300000D01*
X126940000Y-132240000D02*
X130060000Y-132240000D01*
X108800000Y-121600000D02*
X116300000Y-121600000D01*
X116300000Y-121600000D02*
X126940000Y-132240000D01*
D46*
G04 #@! TO.N,Net-(J6-Pad2)*
X97099989Y-119299989D02*
X97099989Y-135299989D01*
X98400001Y-136600001D02*
X99500000Y-137700000D01*
X85200000Y-107400000D02*
X97099989Y-119299989D01*
X97099989Y-135299989D02*
X98400001Y-136600001D01*
X85200000Y-102150000D02*
X85200000Y-107400000D01*
X82750000Y-99700000D02*
X85200000Y-102150000D01*
G04 #@! TO.N,Net-(J6-Pad1)*
X97800000Y-125800000D02*
X99500000Y-127500000D01*
X86200000Y-107410036D02*
X97800000Y-119010036D01*
X79250000Y-94700000D02*
X81050000Y-94700000D01*
X81050000Y-94700000D02*
X86200000Y-99850000D01*
X86200000Y-99850000D02*
X86200000Y-107410036D01*
X97800000Y-119010036D02*
X97800000Y-125800000D01*
D44*
G04 #@! TO.N,Net-(F1-Pad1)*
X66080000Y-114428000D02*
X62775010Y-114428000D01*
X72080000Y-114428000D02*
X66080000Y-114428000D01*
X74828000Y-114428000D02*
X84100000Y-123700000D01*
X72080000Y-114428000D02*
X74828000Y-114428000D01*
G04 #@! TO.N,Net-(F1-Pad2)*
X68100000Y-130900000D02*
X63100000Y-130900000D01*
X68100000Y-130900000D02*
X68100000Y-124700000D01*
X72080000Y-123572000D02*
X62775010Y-123572000D01*
X63100000Y-123896990D02*
X62775010Y-123572000D01*
X63100000Y-130900000D02*
X63100000Y-123896990D01*
D47*
G04 #@! TO.N,Net-(D5-Pad1)*
X66100000Y-106300000D02*
X65000000Y-107400000D01*
X77300000Y-106300000D02*
X66100000Y-106300000D01*
X74250000Y-99700000D02*
X74300000Y-99700000D01*
X77300000Y-102700000D02*
X77300000Y-106300000D01*
X74300000Y-99700000D02*
X77300000Y-102700000D01*
G04 #@! TO.N,Net-(D2-Pad1)*
X130610000Y-106790000D02*
X122030000Y-106790000D01*
X131000000Y-106400000D02*
X130610000Y-106790000D01*
X125800000Y-111600000D02*
X131000000Y-106400000D01*
X120900000Y-111600000D02*
X125800000Y-111600000D01*
G04 #@! TD*
D48*
G04 #@! TO.N,GND*
G36*
X134625001Y-146400000D02*
X104330877Y-146400000D01*
X104330877Y-145150000D01*
X104307593Y-145032946D01*
X104241288Y-144933712D01*
X104142054Y-144867407D01*
X104025000Y-144844123D01*
X103985545Y-144844123D01*
X93100000Y-133958578D01*
X93100000Y-124000000D01*
X93092388Y-123961732D01*
X93070711Y-123929289D01*
X89605022Y-120463600D01*
X89760400Y-120463600D01*
X90198078Y-120336758D01*
X90553900Y-120052079D01*
X90773695Y-119652903D01*
X90789779Y-119580123D01*
X90744397Y-119400000D01*
X89100000Y-119400000D01*
X89100000Y-119420000D01*
X88900000Y-119420000D01*
X88900000Y-119400000D01*
X88880000Y-119400000D01*
X88880000Y-119200000D01*
X88900000Y-119200000D01*
X88900000Y-118136400D01*
X89100000Y-118136400D01*
X89100000Y-119200000D01*
X90744397Y-119200000D01*
X90789779Y-119019877D01*
X90773695Y-118947097D01*
X90553900Y-118547921D01*
X90198078Y-118263242D01*
X89760400Y-118136400D01*
X89100000Y-118136400D01*
X88900000Y-118136400D01*
X88239600Y-118136400D01*
X87801922Y-118263242D01*
X87581230Y-118439808D01*
X79070711Y-109929289D01*
X79038268Y-109907612D01*
X79000000Y-109900000D01*
X60375000Y-109900000D01*
X60375000Y-106150000D01*
X63044123Y-106150000D01*
X63044123Y-108650000D01*
X63067407Y-108767054D01*
X63133712Y-108866288D01*
X63232946Y-108932593D01*
X63350000Y-108955877D01*
X66650000Y-108955877D01*
X66767054Y-108932593D01*
X66866288Y-108866288D01*
X66932593Y-108767054D01*
X66955877Y-108650000D01*
X66955877Y-107600000D01*
X70859441Y-107600000D01*
X71382123Y-108122682D01*
X72172338Y-108450000D01*
X73027662Y-108450000D01*
X73817877Y-108122682D01*
X74340559Y-107600000D01*
X75559441Y-107600000D01*
X76082123Y-108122682D01*
X76872338Y-108450000D01*
X77727662Y-108450000D01*
X78517877Y-108122682D01*
X79122682Y-107517877D01*
X79450000Y-106727662D01*
X79450000Y-105872338D01*
X79850000Y-105872338D01*
X79850000Y-106727662D01*
X80177318Y-107517877D01*
X80782123Y-108122682D01*
X81572338Y-108450000D01*
X82427662Y-108450000D01*
X83217877Y-108122682D01*
X83822682Y-107517877D01*
X84150000Y-106727662D01*
X84150000Y-105872338D01*
X83822682Y-105082123D01*
X83217877Y-104477318D01*
X82427662Y-104150000D01*
X81572338Y-104150000D01*
X80782123Y-104477318D01*
X80177318Y-105082123D01*
X79850000Y-105872338D01*
X79450000Y-105872338D01*
X79122682Y-105082123D01*
X78600000Y-104559441D01*
X78600000Y-102828033D01*
X78625467Y-102700000D01*
X78600000Y-102571967D01*
X78600000Y-102571963D01*
X78524573Y-102192765D01*
X78237247Y-101762753D01*
X78128703Y-101690226D01*
X75850000Y-99411524D01*
X75850000Y-99381740D01*
X75606415Y-98793673D01*
X75156327Y-98343585D01*
X74568260Y-98100000D01*
X73931740Y-98100000D01*
X73343673Y-98343585D01*
X72893585Y-98793673D01*
X72650000Y-99381740D01*
X72650000Y-100018260D01*
X72893585Y-100606327D01*
X73343673Y-101056415D01*
X73931740Y-101300000D01*
X74061524Y-101300000D01*
X76000000Y-103238477D01*
X76000001Y-104559440D01*
X75559441Y-105000000D01*
X74340559Y-105000000D01*
X73817877Y-104477318D01*
X73027662Y-104150000D01*
X72172338Y-104150000D01*
X71382123Y-104477318D01*
X70859441Y-105000000D01*
X66228033Y-105000000D01*
X66100000Y-104974533D01*
X65971967Y-105000000D01*
X65971963Y-105000000D01*
X65592765Y-105075427D01*
X65162753Y-105362753D01*
X65090225Y-105471298D01*
X64717400Y-105844123D01*
X63350000Y-105844123D01*
X63232946Y-105867407D01*
X63133712Y-105933712D01*
X63067407Y-106032946D01*
X63044123Y-106150000D01*
X60375000Y-106150000D01*
X60375000Y-100775000D01*
X63050000Y-100775000D01*
X63050000Y-101909673D01*
X63095672Y-102019936D01*
X63180063Y-102104328D01*
X63290326Y-102150000D01*
X64825000Y-102150000D01*
X64900000Y-102075000D01*
X64900000Y-100700000D01*
X65100000Y-100700000D01*
X65100000Y-102075000D01*
X65175000Y-102150000D01*
X66709674Y-102150000D01*
X66819937Y-102104328D01*
X66904328Y-102019936D01*
X66950000Y-101909673D01*
X66950000Y-100775000D01*
X66875000Y-100700000D01*
X65100000Y-100700000D01*
X64900000Y-100700000D01*
X63125000Y-100700000D01*
X63050000Y-100775000D01*
X60375000Y-100775000D01*
X60375000Y-99290327D01*
X63050000Y-99290327D01*
X63050000Y-100425000D01*
X63125000Y-100500000D01*
X64900000Y-100500000D01*
X64900000Y-99125000D01*
X65100000Y-99125000D01*
X65100000Y-100500000D01*
X66875000Y-100500000D01*
X66950000Y-100425000D01*
X66950000Y-99290327D01*
X66904328Y-99180064D01*
X66819937Y-99095672D01*
X66709674Y-99050000D01*
X65175000Y-99050000D01*
X65100000Y-99125000D01*
X64900000Y-99125000D01*
X64825000Y-99050000D01*
X63290326Y-99050000D01*
X63180063Y-99095672D01*
X63095672Y-99180064D01*
X63050000Y-99290327D01*
X60375000Y-99290327D01*
X60375000Y-94622067D01*
X63100000Y-94622067D01*
X63100000Y-95377933D01*
X63389258Y-96076263D01*
X63923737Y-96610742D01*
X64622067Y-96900000D01*
X65377933Y-96900000D01*
X66076263Y-96610742D01*
X66610742Y-96076263D01*
X66900000Y-95377933D01*
X66900000Y-94875000D01*
X69150000Y-94875000D01*
X69150000Y-96059673D01*
X69195672Y-96169936D01*
X69280063Y-96254328D01*
X69390326Y-96300000D01*
X70575000Y-96300000D01*
X70650000Y-96225000D01*
X70650000Y-94800000D01*
X70850000Y-94800000D01*
X70850000Y-96225000D01*
X70925000Y-96300000D01*
X72109674Y-96300000D01*
X72219937Y-96254328D01*
X72304328Y-96169936D01*
X72350000Y-96059673D01*
X72350000Y-94875000D01*
X72275000Y-94800000D01*
X70850000Y-94800000D01*
X70650000Y-94800000D01*
X69225000Y-94800000D01*
X69150000Y-94875000D01*
X66900000Y-94875000D01*
X66900000Y-94622067D01*
X66610742Y-93923737D01*
X66076263Y-93389258D01*
X65958134Y-93340327D01*
X69150000Y-93340327D01*
X69150000Y-94525000D01*
X69225000Y-94600000D01*
X70650000Y-94600000D01*
X70650000Y-93175000D01*
X70850000Y-93175000D01*
X70850000Y-94600000D01*
X72275000Y-94600000D01*
X72350000Y-94525000D01*
X72350000Y-93400000D01*
X77744123Y-93400000D01*
X77744123Y-96000000D01*
X77767407Y-96117054D01*
X77833712Y-96216288D01*
X77932946Y-96282593D01*
X78050000Y-96305877D01*
X80650000Y-96305877D01*
X80767054Y-96282593D01*
X80866288Y-96216288D01*
X80932593Y-96117054D01*
X80955877Y-96000000D01*
X80955877Y-95383693D01*
X85650000Y-100077817D01*
X85650000Y-101833499D01*
X85596528Y-101753472D01*
X85550603Y-101722786D01*
X84273115Y-100445299D01*
X84450000Y-100018260D01*
X84450000Y-99381740D01*
X84206415Y-98793673D01*
X83756327Y-98343585D01*
X83168260Y-98100000D01*
X82531740Y-98100000D01*
X81943673Y-98343585D01*
X81493585Y-98793673D01*
X81250000Y-99381740D01*
X81250000Y-100018260D01*
X81493585Y-100606327D01*
X81943673Y-101056415D01*
X82531740Y-101300000D01*
X83168260Y-101300000D01*
X83453877Y-101181694D01*
X84650000Y-102377817D01*
X84650001Y-107345826D01*
X84639225Y-107400000D01*
X84671549Y-107562500D01*
X84681912Y-107614599D01*
X84803473Y-107796528D01*
X84849398Y-107827214D01*
X90450987Y-113428803D01*
X90114414Y-113203913D01*
X89775003Y-113136400D01*
X88224997Y-113136400D01*
X87885586Y-113203913D01*
X87500691Y-113461091D01*
X87243513Y-113845986D01*
X87153204Y-114300000D01*
X87243513Y-114754014D01*
X87500691Y-115138909D01*
X87885586Y-115396087D01*
X88224997Y-115463600D01*
X89775003Y-115463600D01*
X90114414Y-115396087D01*
X90499309Y-115138909D01*
X90756487Y-114754014D01*
X90846796Y-114300000D01*
X90756487Y-113845986D01*
X90531597Y-113509413D01*
X96549989Y-119527806D01*
X96549990Y-135245815D01*
X96539214Y-135299989D01*
X96577055Y-135490226D01*
X96581901Y-135514588D01*
X96703462Y-135696517D01*
X96749387Y-135727203D01*
X98049396Y-137027213D01*
X98049399Y-137027215D01*
X98200669Y-137178485D01*
X98100000Y-137421523D01*
X98100000Y-137978477D01*
X98313137Y-138493037D01*
X98706963Y-138886863D01*
X99221523Y-139100000D01*
X99778477Y-139100000D01*
X100293037Y-138886863D01*
X100686863Y-138493037D01*
X100900000Y-137978477D01*
X100900000Y-137421523D01*
X100686863Y-136906963D01*
X100293037Y-136513137D01*
X99778477Y-136300000D01*
X99221523Y-136300000D01*
X98978485Y-136400669D01*
X98827215Y-136249399D01*
X98827213Y-136249396D01*
X97649989Y-135072173D01*
X97649989Y-133192094D01*
X108929328Y-133192094D01*
X109044032Y-133368049D01*
X109528695Y-133548517D01*
X110045527Y-133529775D01*
X110435968Y-133368049D01*
X110550672Y-133192094D01*
X109740000Y-132381421D01*
X108929328Y-133192094D01*
X97649989Y-133192094D01*
X97649989Y-132028695D01*
X108431483Y-132028695D01*
X108450225Y-132545527D01*
X108611951Y-132935968D01*
X108787906Y-133050672D01*
X109598579Y-132240000D01*
X109881421Y-132240000D01*
X110692094Y-133050672D01*
X110868049Y-132935968D01*
X111048517Y-132451305D01*
X111031478Y-131981414D01*
X118600000Y-131981414D01*
X118600000Y-132498586D01*
X118797913Y-132976391D01*
X119163609Y-133342087D01*
X119641414Y-133540000D01*
X120158586Y-133540000D01*
X120636391Y-133342087D01*
X121002087Y-132976391D01*
X121200000Y-132498586D01*
X121200000Y-131981414D01*
X121002087Y-131503609D01*
X120636391Y-131137913D01*
X120158586Y-130940000D01*
X119641414Y-130940000D01*
X119163609Y-131137913D01*
X118797913Y-131503609D01*
X118600000Y-131981414D01*
X111031478Y-131981414D01*
X111029775Y-131934473D01*
X110868049Y-131544032D01*
X110692094Y-131429328D01*
X109881421Y-132240000D01*
X109598579Y-132240000D01*
X108787906Y-131429328D01*
X108611951Y-131544032D01*
X108431483Y-132028695D01*
X97649989Y-132028695D01*
X97649989Y-131287906D01*
X108929328Y-131287906D01*
X109740000Y-132098579D01*
X110550672Y-131287906D01*
X110435968Y-131111951D01*
X109951305Y-130931483D01*
X109434473Y-130950225D01*
X109044032Y-131111951D01*
X108929328Y-131287906D01*
X97649989Y-131287906D01*
X97649989Y-126427805D01*
X98200669Y-126978486D01*
X98100000Y-127221523D01*
X98100000Y-127778477D01*
X98313137Y-128293037D01*
X98706963Y-128686863D01*
X99221523Y-128900000D01*
X99778477Y-128900000D01*
X100293037Y-128686863D01*
X100686863Y-128293037D01*
X100900000Y-127778477D01*
X100900000Y-127221523D01*
X100686863Y-126706963D01*
X100293037Y-126313137D01*
X99778477Y-126100000D01*
X99221523Y-126100000D01*
X98978486Y-126200669D01*
X98350000Y-125572184D01*
X98350000Y-119580123D01*
X99710221Y-119580123D01*
X99726305Y-119652903D01*
X99946100Y-120052079D01*
X100301922Y-120336758D01*
X100739600Y-120463600D01*
X101400000Y-120463600D01*
X101400000Y-119400000D01*
X101600000Y-119400000D01*
X101600000Y-120463600D01*
X102260400Y-120463600D01*
X102698078Y-120336758D01*
X102900260Y-120175000D01*
X106369123Y-120175000D01*
X106369123Y-123625000D01*
X106392407Y-123742054D01*
X106458712Y-123841288D01*
X106557946Y-123907593D01*
X106675000Y-123930877D01*
X110125000Y-123930877D01*
X110242054Y-123907593D01*
X110341288Y-123841288D01*
X110407593Y-123742054D01*
X110430877Y-123625000D01*
X110430877Y-122900000D01*
X115761524Y-122900000D01*
X125930228Y-133068706D01*
X126002753Y-133177247D01*
X126111294Y-133249772D01*
X126111296Y-133249774D01*
X126230760Y-133329597D01*
X126432765Y-133464573D01*
X126811963Y-133540000D01*
X126811968Y-133540000D01*
X126939999Y-133565467D01*
X127068031Y-133540000D01*
X129931967Y-133540000D01*
X130060000Y-133565467D01*
X130188033Y-133540000D01*
X130318586Y-133540000D01*
X130439197Y-133490041D01*
X130567235Y-133464573D01*
X130675779Y-133392046D01*
X130796391Y-133342087D01*
X130888706Y-133249772D01*
X130997247Y-133177247D01*
X131069772Y-133068706D01*
X131162087Y-132976391D01*
X131162088Y-132976388D01*
X131828702Y-132309775D01*
X131937247Y-132237247D01*
X132224573Y-131807235D01*
X132300000Y-131428037D01*
X132300000Y-131428033D01*
X132325467Y-131300000D01*
X132300000Y-131171967D01*
X132300000Y-128905877D01*
X132450001Y-128905877D01*
X132662726Y-128863563D01*
X132843065Y-128743065D01*
X132963563Y-128562726D01*
X133005877Y-128350001D01*
X133005877Y-127724999D01*
X132963563Y-127512274D01*
X132843065Y-127331935D01*
X132662726Y-127211437D01*
X132450001Y-127169123D01*
X132300000Y-127169123D01*
X132300000Y-126896974D01*
X132224573Y-126517776D01*
X132055877Y-126265305D01*
X132055877Y-126125000D01*
X132049937Y-126065013D01*
X132011790Y-125973188D01*
X132032593Y-125942054D01*
X132055877Y-125825000D01*
X132055877Y-125184695D01*
X132224573Y-124932224D01*
X132284515Y-124630877D01*
X132450001Y-124630877D01*
X132662726Y-124588563D01*
X132843065Y-124468065D01*
X132963563Y-124287726D01*
X133005877Y-124075001D01*
X133005877Y-123595100D01*
X133128703Y-123472274D01*
X133237247Y-123399747D01*
X133524573Y-122969735D01*
X133600000Y-122590537D01*
X133600000Y-122590533D01*
X133625467Y-122462500D01*
X133600000Y-122334467D01*
X133600000Y-119696661D01*
X133625467Y-119568629D01*
X133600000Y-119440598D01*
X133600000Y-119440593D01*
X133524573Y-119061395D01*
X133389597Y-118859390D01*
X133309774Y-118739926D01*
X133309772Y-118739924D01*
X133237247Y-118631383D01*
X133128705Y-118558858D01*
X130441146Y-115871300D01*
X130368617Y-115762753D01*
X129938605Y-115475427D01*
X129559407Y-115400000D01*
X129559403Y-115400000D01*
X129431370Y-115374533D01*
X129303337Y-115400000D01*
X115338477Y-115400000D01*
X113039518Y-113101041D01*
X113322682Y-112817877D01*
X113650000Y-112027662D01*
X113650000Y-111172338D01*
X114050000Y-111172338D01*
X114050000Y-112027662D01*
X114377318Y-112817877D01*
X114982123Y-113422682D01*
X115772338Y-113750000D01*
X116627662Y-113750000D01*
X117417877Y-113422682D01*
X118022682Y-112817877D01*
X118350000Y-112027662D01*
X118350000Y-111172338D01*
X118750000Y-111172338D01*
X118750000Y-112027662D01*
X119077318Y-112817877D01*
X119682123Y-113422682D01*
X120472338Y-113750000D01*
X121327662Y-113750000D01*
X122117877Y-113422682D01*
X122640559Y-112900000D01*
X125671967Y-112900000D01*
X125800000Y-112925467D01*
X125928033Y-112900000D01*
X125928037Y-112900000D01*
X126307235Y-112824573D01*
X126737247Y-112537247D01*
X126809776Y-112428700D01*
X131282600Y-107955877D01*
X132650000Y-107955877D01*
X132767054Y-107932593D01*
X132866288Y-107866288D01*
X132932593Y-107767054D01*
X132955877Y-107650000D01*
X132955877Y-105150000D01*
X132932593Y-105032946D01*
X132866288Y-104933712D01*
X132767054Y-104867407D01*
X132650000Y-104844123D01*
X129350000Y-104844123D01*
X129232946Y-104867407D01*
X129133712Y-104933712D01*
X129067407Y-105032946D01*
X129044123Y-105150000D01*
X129044123Y-105490000D01*
X121901963Y-105490000D01*
X121522765Y-105565427D01*
X121092753Y-105852753D01*
X120805427Y-106282765D01*
X120704532Y-106790000D01*
X120805427Y-107297235D01*
X121092753Y-107727247D01*
X121522765Y-108014573D01*
X121901963Y-108090000D01*
X127471524Y-108090000D01*
X125261524Y-110300000D01*
X122640559Y-110300000D01*
X122117877Y-109777318D01*
X121327662Y-109450000D01*
X120472338Y-109450000D01*
X119682123Y-109777318D01*
X119077318Y-110382123D01*
X118750000Y-111172338D01*
X118350000Y-111172338D01*
X118022682Y-110382123D01*
X117417877Y-109777318D01*
X116627662Y-109450000D01*
X115772338Y-109450000D01*
X114982123Y-109777318D01*
X114377318Y-110382123D01*
X114050000Y-111172338D01*
X113650000Y-111172338D01*
X113322682Y-110382123D01*
X112717877Y-109777318D01*
X111927662Y-109450000D01*
X111072338Y-109450000D01*
X110282123Y-109777318D01*
X109677318Y-110382123D01*
X109350000Y-111172338D01*
X109350000Y-112027662D01*
X109677318Y-112817877D01*
X110188620Y-113329179D01*
X110174533Y-113400000D01*
X110200000Y-113528033D01*
X110200000Y-113528036D01*
X110275427Y-113907234D01*
X110562753Y-114337247D01*
X110671300Y-114409776D01*
X113790225Y-117528702D01*
X113862753Y-117637247D01*
X114292765Y-117924573D01*
X114671963Y-118000000D01*
X114671967Y-118000000D01*
X114800000Y-118025467D01*
X114928033Y-118000000D01*
X122161522Y-118000000D01*
X122263609Y-118102087D01*
X122741414Y-118300000D01*
X123258586Y-118300000D01*
X123736391Y-118102087D01*
X123838478Y-118000000D01*
X128892894Y-118000000D01*
X130494307Y-119601414D01*
X130463541Y-119590438D01*
X130026481Y-119612314D01*
X129724297Y-119737483D01*
X129634074Y-119892653D01*
X130300000Y-120558579D01*
X130314143Y-120544437D01*
X130455564Y-120685858D01*
X130441421Y-120700000D01*
X130455564Y-120714143D01*
X130314143Y-120855564D01*
X130300000Y-120841421D01*
X129634074Y-121507347D01*
X129724297Y-121662517D01*
X130136459Y-121809562D01*
X130573519Y-121787686D01*
X130875703Y-121662517D01*
X130965925Y-121507349D01*
X131000000Y-121541424D01*
X131000000Y-121924023D01*
X130171300Y-122752724D01*
X130062753Y-122825253D01*
X130016735Y-122894123D01*
X129549999Y-122894123D01*
X129337274Y-122936437D01*
X129156935Y-123056935D01*
X129036437Y-123237274D01*
X128994123Y-123449999D01*
X128994123Y-124075001D01*
X129036437Y-124287726D01*
X129156935Y-124468065D01*
X129337274Y-124588563D01*
X129549999Y-124630877D01*
X129715485Y-124630877D01*
X129775427Y-124932225D01*
X129944123Y-125184695D01*
X129944123Y-125825000D01*
X129989502Y-125974878D01*
X129967407Y-126007946D01*
X129944123Y-126125000D01*
X129944123Y-126265305D01*
X129775427Y-126517775D01*
X129700000Y-126896973D01*
X129700000Y-127169123D01*
X129549999Y-127169123D01*
X129337274Y-127211437D01*
X129156935Y-127331935D01*
X129036437Y-127512274D01*
X128994123Y-127724999D01*
X128994123Y-128350001D01*
X129036437Y-128562726D01*
X129156935Y-128743065D01*
X129337274Y-128863563D01*
X129549999Y-128905877D01*
X129700000Y-128905877D01*
X129700001Y-130761523D01*
X129521524Y-130940000D01*
X127478478Y-130940000D01*
X118613477Y-122075000D01*
X123775000Y-122075000D01*
X123775000Y-123684674D01*
X123820672Y-123794937D01*
X123905064Y-123879328D01*
X124015327Y-123925000D01*
X125625000Y-123925000D01*
X125700000Y-123850000D01*
X125700000Y-122000000D01*
X125900000Y-122000000D01*
X125900000Y-123850000D01*
X125975000Y-123925000D01*
X127584673Y-123925000D01*
X127694936Y-123879328D01*
X127779328Y-123794937D01*
X127825000Y-123684674D01*
X127825000Y-122075000D01*
X127750000Y-122000000D01*
X125900000Y-122000000D01*
X125700000Y-122000000D01*
X123850000Y-122000000D01*
X123775000Y-122075000D01*
X118613477Y-122075000D01*
X117309776Y-120771300D01*
X117237247Y-120662753D01*
X116807235Y-120375427D01*
X116428037Y-120300000D01*
X116428033Y-120300000D01*
X116300000Y-120274533D01*
X116171967Y-120300000D01*
X110430877Y-120300000D01*
X110430877Y-120175000D01*
X110419007Y-120115326D01*
X123775000Y-120115326D01*
X123775000Y-121725000D01*
X123850000Y-121800000D01*
X125700000Y-121800000D01*
X125700000Y-119950000D01*
X125900000Y-119950000D01*
X125900000Y-121800000D01*
X127750000Y-121800000D01*
X127825000Y-121725000D01*
X127825000Y-120536459D01*
X129190438Y-120536459D01*
X129212314Y-120973519D01*
X129337483Y-121275703D01*
X129492653Y-121365926D01*
X130158579Y-120700000D01*
X129492653Y-120034074D01*
X129337483Y-120124297D01*
X129190438Y-120536459D01*
X127825000Y-120536459D01*
X127825000Y-120115326D01*
X127779328Y-120005063D01*
X127694936Y-119920672D01*
X127584673Y-119875000D01*
X125975000Y-119875000D01*
X125900000Y-119950000D01*
X125700000Y-119950000D01*
X125625000Y-119875000D01*
X124015327Y-119875000D01*
X123905064Y-119920672D01*
X123820672Y-120005063D01*
X123775000Y-120115326D01*
X110419007Y-120115326D01*
X110407593Y-120057946D01*
X110341288Y-119958712D01*
X110242054Y-119892407D01*
X110125000Y-119869123D01*
X106675000Y-119869123D01*
X106557946Y-119892407D01*
X106458712Y-119958712D01*
X106392407Y-120057946D01*
X106369123Y-120175000D01*
X102900260Y-120175000D01*
X103053900Y-120052079D01*
X103273695Y-119652903D01*
X103289779Y-119580123D01*
X103244397Y-119400000D01*
X101600000Y-119400000D01*
X101400000Y-119400000D01*
X99755603Y-119400000D01*
X99710221Y-119580123D01*
X98350000Y-119580123D01*
X98350000Y-119064204D01*
X98358817Y-119019877D01*
X99710221Y-119019877D01*
X99755603Y-119200000D01*
X101400000Y-119200000D01*
X101400000Y-118136400D01*
X101600000Y-118136400D01*
X101600000Y-119200000D01*
X103244397Y-119200000D01*
X103289779Y-119019877D01*
X103273695Y-118947097D01*
X103053900Y-118547921D01*
X102698078Y-118263242D01*
X102260400Y-118136400D01*
X101600000Y-118136400D01*
X101400000Y-118136400D01*
X100739600Y-118136400D01*
X100301922Y-118263242D01*
X99946100Y-118547921D01*
X99726305Y-118947097D01*
X99710221Y-119019877D01*
X98358817Y-119019877D01*
X98360775Y-119010035D01*
X98318089Y-118795438D01*
X98318089Y-118795437D01*
X98196528Y-118613508D01*
X98150603Y-118582822D01*
X97519875Y-117952094D01*
X108889328Y-117952094D01*
X109004032Y-118128049D01*
X109488695Y-118308517D01*
X110005527Y-118289775D01*
X110395968Y-118128049D01*
X110510672Y-117952094D01*
X109700000Y-117141421D01*
X108889328Y-117952094D01*
X97519875Y-117952094D01*
X96356476Y-116788695D01*
X108391483Y-116788695D01*
X108410225Y-117305527D01*
X108571951Y-117695968D01*
X108747906Y-117810672D01*
X109558579Y-117000000D01*
X109841421Y-117000000D01*
X110652094Y-117810672D01*
X110828049Y-117695968D01*
X111008517Y-117211305D01*
X110989775Y-116694473D01*
X110828049Y-116304032D01*
X110652094Y-116189328D01*
X109841421Y-117000000D01*
X109558579Y-117000000D01*
X108747906Y-116189328D01*
X108571951Y-116304032D01*
X108391483Y-116788695D01*
X96356476Y-116788695D01*
X95615687Y-116047906D01*
X108889328Y-116047906D01*
X109700000Y-116858579D01*
X110510672Y-116047906D01*
X110395968Y-115871951D01*
X109911305Y-115691483D01*
X109394473Y-115710225D01*
X109004032Y-115871951D01*
X108889328Y-116047906D01*
X95615687Y-116047906D01*
X89186952Y-109619172D01*
X89291661Y-109640000D01*
X90308339Y-109640000D01*
X90629199Y-109576177D01*
X90993056Y-109333056D01*
X91236177Y-108969199D01*
X91321550Y-108540000D01*
X95898450Y-108540000D01*
X95983823Y-108969199D01*
X96226944Y-109333056D01*
X96590801Y-109576177D01*
X96911661Y-109640000D01*
X97928339Y-109640000D01*
X98249199Y-109576177D01*
X98613056Y-109333056D01*
X98775461Y-109090000D01*
X99375836Y-109090000D01*
X99409058Y-109257016D01*
X99522783Y-109427217D01*
X99692984Y-109540942D01*
X99893750Y-109580877D01*
X100331250Y-109580877D01*
X100532016Y-109540942D01*
X100702217Y-109427217D01*
X100815942Y-109257016D01*
X100855877Y-109056250D01*
X100855877Y-108975000D01*
X100950000Y-108975000D01*
X100950000Y-109334673D01*
X100995672Y-109444936D01*
X101080063Y-109529328D01*
X101190326Y-109575000D01*
X101512500Y-109575000D01*
X101587500Y-109500000D01*
X101587500Y-108900000D01*
X101787500Y-108900000D01*
X101787500Y-109500000D01*
X101862500Y-109575000D01*
X102184674Y-109575000D01*
X102294937Y-109529328D01*
X102379328Y-109444936D01*
X102425000Y-109334673D01*
X102425000Y-108975000D01*
X102350000Y-108900000D01*
X101787500Y-108900000D01*
X101587500Y-108900000D01*
X101025000Y-108900000D01*
X100950000Y-108975000D01*
X100855877Y-108975000D01*
X100855877Y-108543750D01*
X100815942Y-108342984D01*
X100764054Y-108265327D01*
X100950000Y-108265327D01*
X100950000Y-108625000D01*
X101025000Y-108700000D01*
X101587500Y-108700000D01*
X101587500Y-108680000D01*
X101787500Y-108680000D01*
X101787500Y-108700000D01*
X102350000Y-108700000D01*
X102425000Y-108625000D01*
X102425000Y-108265327D01*
X102379328Y-108155064D01*
X102355346Y-108131082D01*
X102419936Y-108104328D01*
X102504328Y-108019937D01*
X102550000Y-107909674D01*
X102550000Y-107575000D01*
X102475000Y-107500000D01*
X101950000Y-107500000D01*
X101950000Y-107520000D01*
X101750000Y-107520000D01*
X101750000Y-107500000D01*
X101225000Y-107500000D01*
X101150000Y-107575000D01*
X101150000Y-107909674D01*
X101195672Y-108019937D01*
X101200735Y-108025000D01*
X101190326Y-108025000D01*
X101080063Y-108070672D01*
X100995672Y-108155064D01*
X100950000Y-108265327D01*
X100764054Y-108265327D01*
X100702217Y-108172783D01*
X100662500Y-108146245D01*
X100662500Y-107616669D01*
X100673275Y-107562500D01*
X100662500Y-107508330D01*
X100655877Y-107475034D01*
X100655877Y-106950000D01*
X100644007Y-106890326D01*
X101150000Y-106890326D01*
X101150000Y-107225000D01*
X101225000Y-107300000D01*
X101750000Y-107300000D01*
X101750000Y-106725000D01*
X101675000Y-106650000D01*
X101390327Y-106650000D01*
X101280064Y-106695672D01*
X101195672Y-106780063D01*
X101150000Y-106890326D01*
X100644007Y-106890326D01*
X100632593Y-106832946D01*
X100566288Y-106733712D01*
X100467054Y-106667407D01*
X100350000Y-106644123D01*
X99550000Y-106644123D01*
X99432946Y-106667407D01*
X99333712Y-106733712D01*
X99267407Y-106832946D01*
X99244123Y-106950000D01*
X99244123Y-107850000D01*
X99267407Y-107967054D01*
X99282739Y-107990000D01*
X98775461Y-107990000D01*
X98613056Y-107746944D01*
X98249199Y-107503823D01*
X97928339Y-107440000D01*
X96911661Y-107440000D01*
X96590801Y-107503823D01*
X96226944Y-107746944D01*
X95983823Y-108110801D01*
X95898450Y-108540000D01*
X91321550Y-108540000D01*
X91236177Y-108110801D01*
X90993056Y-107746944D01*
X90629199Y-107503823D01*
X90308339Y-107440000D01*
X89291661Y-107440000D01*
X89113296Y-107475479D01*
X88743693Y-107105877D01*
X91000000Y-107105877D01*
X91117054Y-107082593D01*
X91216288Y-107016288D01*
X91282593Y-106917054D01*
X91305877Y-106800000D01*
X91305877Y-105200000D01*
X91282593Y-105082946D01*
X91216288Y-104983712D01*
X91117054Y-104917407D01*
X91000000Y-104894123D01*
X90350000Y-104894123D01*
X90350000Y-104877816D01*
X90771939Y-104455877D01*
X91800000Y-104455877D01*
X91917054Y-104432593D01*
X92016288Y-104366288D01*
X92082593Y-104267054D01*
X92105877Y-104150000D01*
X92105877Y-103750000D01*
X92371188Y-103750000D01*
X92422783Y-103827217D01*
X92592984Y-103940942D01*
X92793750Y-103980877D01*
X93231250Y-103980877D01*
X93432016Y-103940942D01*
X93602217Y-103827217D01*
X93715942Y-103657016D01*
X93755877Y-103456250D01*
X93755877Y-102983694D01*
X93844123Y-103071940D01*
X93844123Y-103456250D01*
X93884058Y-103657016D01*
X93997783Y-103827217D01*
X94167984Y-103940942D01*
X94368750Y-103980877D01*
X94806250Y-103980877D01*
X95007016Y-103940942D01*
X95177217Y-103827217D01*
X95290942Y-103657016D01*
X95330877Y-103456250D01*
X95330877Y-102943750D01*
X95290942Y-102742984D01*
X95177217Y-102572783D01*
X95007016Y-102459058D01*
X94806250Y-102419123D01*
X94746940Y-102419123D01*
X92843826Y-100516009D01*
X93050000Y-100018260D01*
X93050000Y-99381740D01*
X92806415Y-98793673D01*
X92356327Y-98343585D01*
X91768260Y-98100000D01*
X91131740Y-98100000D01*
X90543673Y-98343585D01*
X90093585Y-98793673D01*
X89850000Y-99381740D01*
X89850000Y-100018260D01*
X90093585Y-100606327D01*
X90543673Y-101056415D01*
X91131740Y-101300000D01*
X91768260Y-101300000D01*
X91983167Y-101210983D01*
X93191306Y-102419123D01*
X92793750Y-102419123D01*
X92592984Y-102459058D01*
X92422783Y-102572783D01*
X92371188Y-102650000D01*
X92105877Y-102650000D01*
X92105877Y-102450000D01*
X92082593Y-102332946D01*
X92016288Y-102233712D01*
X91917054Y-102167407D01*
X91800000Y-102144123D01*
X90500000Y-102144123D01*
X90382946Y-102167407D01*
X90283712Y-102233712D01*
X90217407Y-102332946D01*
X90194123Y-102450000D01*
X90194123Y-103478060D01*
X89449398Y-104222786D01*
X89403473Y-104253472D01*
X89283788Y-104432593D01*
X89281912Y-104435401D01*
X89239225Y-104650000D01*
X89250001Y-104704173D01*
X89250001Y-104894123D01*
X88600000Y-104894123D01*
X88482946Y-104917407D01*
X88383712Y-104983712D01*
X88317407Y-105082946D01*
X88294123Y-105200000D01*
X88294123Y-106656307D01*
X88200000Y-106562184D01*
X88200000Y-104455877D01*
X88300000Y-104455877D01*
X88417054Y-104432593D01*
X88516288Y-104366288D01*
X88582593Y-104267054D01*
X88605877Y-104150000D01*
X88605877Y-102450000D01*
X88582593Y-102332946D01*
X88516288Y-102233712D01*
X88417054Y-102167407D01*
X88300000Y-102144123D01*
X88300000Y-96305877D01*
X89250000Y-96305877D01*
X89367054Y-96282593D01*
X89466288Y-96216288D01*
X89532593Y-96117054D01*
X89555877Y-96000000D01*
X89555877Y-93400000D01*
X94944123Y-93400000D01*
X94944123Y-96000000D01*
X94967407Y-96117054D01*
X95033712Y-96216288D01*
X95132946Y-96282593D01*
X95250000Y-96305877D01*
X95700000Y-96305877D01*
X95700001Y-102144123D01*
X95700000Y-102144123D01*
X95582946Y-102167407D01*
X95483712Y-102233712D01*
X95417407Y-102332946D01*
X95394123Y-102450000D01*
X95394123Y-104150000D01*
X95417407Y-104267054D01*
X95483712Y-104366288D01*
X95582946Y-104432593D01*
X95700000Y-104455877D01*
X97000000Y-104455877D01*
X97117054Y-104432593D01*
X97216288Y-104366288D01*
X97282593Y-104267054D01*
X97305877Y-104150000D01*
X97305877Y-103983693D01*
X98360122Y-105037939D01*
X98249199Y-104963823D01*
X97928339Y-104900000D01*
X96911661Y-104900000D01*
X96590801Y-104963823D01*
X96226944Y-105206944D01*
X95983823Y-105570801D01*
X95898450Y-106000000D01*
X95983823Y-106429199D01*
X96226944Y-106793056D01*
X96590801Y-107036177D01*
X96911661Y-107100000D01*
X97928339Y-107100000D01*
X98249199Y-107036177D01*
X98613056Y-106793056D01*
X98856177Y-106429199D01*
X98941550Y-106000000D01*
X98856177Y-105570801D01*
X98782062Y-105459879D01*
X99072788Y-105750606D01*
X99103472Y-105796528D01*
X99149394Y-105827212D01*
X99285399Y-105918088D01*
X99285400Y-105918088D01*
X99285401Y-105918089D01*
X99445830Y-105950000D01*
X99445834Y-105950000D01*
X99499999Y-105960774D01*
X99554164Y-105950000D01*
X100214015Y-105950000D01*
X100217407Y-105967054D01*
X100283712Y-106066288D01*
X100382946Y-106132593D01*
X100500000Y-106155877D01*
X101300000Y-106155877D01*
X101417054Y-106132593D01*
X101516288Y-106066288D01*
X101582593Y-105967054D01*
X101583695Y-105961512D01*
X102272183Y-106650000D01*
X102025000Y-106650000D01*
X101950000Y-106725000D01*
X101950000Y-107300000D01*
X102475000Y-107300000D01*
X102550000Y-107225000D01*
X102550000Y-106927817D01*
X102550001Y-106927818D01*
X102550000Y-112472183D01*
X101885784Y-113136400D01*
X100724997Y-113136400D01*
X100385586Y-113203913D01*
X100000691Y-113461091D01*
X99743513Y-113845986D01*
X99653204Y-114300000D01*
X99743513Y-114754014D01*
X100000691Y-115138909D01*
X100385586Y-115396087D01*
X100724997Y-115463600D01*
X102275003Y-115463600D01*
X102614414Y-115396087D01*
X102999309Y-115138909D01*
X103256487Y-114754014D01*
X103346796Y-114300000D01*
X103256487Y-113845986D01*
X103046339Y-113531477D01*
X103450603Y-113127214D01*
X103496528Y-113096528D01*
X103618089Y-112914599D01*
X103650000Y-112754170D01*
X103650000Y-112754169D01*
X103660775Y-112700000D01*
X103650000Y-112645831D01*
X103650000Y-110775000D01*
X104044123Y-110775000D01*
X104044123Y-111775000D01*
X104050063Y-111834987D01*
X104088210Y-111926812D01*
X104067407Y-111957946D01*
X104044123Y-112075000D01*
X104044123Y-113225000D01*
X104067407Y-113342054D01*
X104133712Y-113441288D01*
X104232946Y-113507593D01*
X104350000Y-113530877D01*
X105850000Y-113530877D01*
X105967054Y-113507593D01*
X106066288Y-113441288D01*
X106132593Y-113342054D01*
X106133499Y-113337500D01*
X106446245Y-113337500D01*
X106472783Y-113377217D01*
X106642984Y-113490942D01*
X106843750Y-113530877D01*
X107356250Y-113530877D01*
X107557016Y-113490942D01*
X107727217Y-113377217D01*
X107840942Y-113207016D01*
X107880877Y-113006250D01*
X107880877Y-112568750D01*
X107840942Y-112367984D01*
X107727217Y-112197783D01*
X107557016Y-112084058D01*
X107356250Y-112044123D01*
X106843750Y-112044123D01*
X106642984Y-112084058D01*
X106472783Y-112197783D01*
X106446245Y-112237500D01*
X106155877Y-112237500D01*
X106155877Y-112075000D01*
X106110498Y-111925122D01*
X106132593Y-111892054D01*
X106155877Y-111775000D01*
X106155877Y-110775000D01*
X106132593Y-110657946D01*
X106066288Y-110558712D01*
X105967054Y-110492407D01*
X105850000Y-110469123D01*
X105650000Y-110469123D01*
X105650000Y-106551305D01*
X106290000Y-106551305D01*
X106290000Y-107028695D01*
X106472689Y-107469745D01*
X106810255Y-107807311D01*
X107050000Y-107906617D01*
X107050001Y-108265327D01*
X107050001Y-108645827D01*
X107039225Y-108700000D01*
X107050001Y-108754173D01*
X107050000Y-110469123D01*
X106843750Y-110469123D01*
X106642984Y-110509058D01*
X106472783Y-110622783D01*
X106359058Y-110792984D01*
X106319123Y-110993750D01*
X106319123Y-111431250D01*
X106359058Y-111632016D01*
X106472783Y-111802217D01*
X106642984Y-111915942D01*
X106843750Y-111955877D01*
X107356250Y-111955877D01*
X107557016Y-111915942D01*
X107727217Y-111802217D01*
X107840942Y-111632016D01*
X107880877Y-111431250D01*
X107880877Y-111209440D01*
X107950603Y-111139714D01*
X107996528Y-111109028D01*
X108118089Y-110927099D01*
X108150000Y-110766670D01*
X108150000Y-110766669D01*
X108160775Y-110712500D01*
X108150000Y-110658331D01*
X108150000Y-109250000D01*
X117525831Y-109250000D01*
X117580000Y-109260775D01*
X117634169Y-109250000D01*
X117634170Y-109250000D01*
X117794599Y-109218089D01*
X117976528Y-109096528D01*
X118007216Y-109050600D01*
X119121559Y-107936257D01*
X119251305Y-107990000D01*
X119728695Y-107990000D01*
X120169745Y-107807311D01*
X120507311Y-107469745D01*
X120690000Y-107028695D01*
X120690000Y-106551305D01*
X120507311Y-106110255D01*
X120169745Y-105772689D01*
X119728695Y-105590000D01*
X119251305Y-105590000D01*
X118810255Y-105772689D01*
X118472689Y-106110255D01*
X118290000Y-106551305D01*
X118290000Y-107028695D01*
X118343743Y-107158441D01*
X117352184Y-108150000D01*
X108150000Y-108150000D01*
X108150000Y-107815490D01*
X108169745Y-107807311D01*
X108507311Y-107469745D01*
X108690000Y-107028695D01*
X108690000Y-106551305D01*
X108830000Y-106551305D01*
X108830000Y-107028695D01*
X109012689Y-107469745D01*
X109350255Y-107807311D01*
X109791305Y-107990000D01*
X110268695Y-107990000D01*
X110709745Y-107807311D01*
X111047311Y-107469745D01*
X111230000Y-107028695D01*
X111230000Y-106551305D01*
X111047311Y-106110255D01*
X110709745Y-105772689D01*
X110268695Y-105590000D01*
X109791305Y-105590000D01*
X109350255Y-105772689D01*
X109012689Y-106110255D01*
X108830000Y-106551305D01*
X108690000Y-106551305D01*
X108507311Y-106110255D01*
X108169745Y-105772689D01*
X107728695Y-105590000D01*
X107251305Y-105590000D01*
X106810255Y-105772689D01*
X106472689Y-106110255D01*
X106290000Y-106551305D01*
X105650000Y-106551305D01*
X105650000Y-106427816D01*
X107277818Y-104800000D01*
X107688947Y-104800000D01*
X107742689Y-104929745D01*
X108080255Y-105267311D01*
X108521305Y-105450000D01*
X108998695Y-105450000D01*
X109439745Y-105267311D01*
X109577311Y-105129745D01*
X110561677Y-105129745D01*
X110664147Y-105295307D01*
X111112571Y-105459068D01*
X111589528Y-105438760D01*
X111935853Y-105295307D01*
X112038323Y-105129745D01*
X111300000Y-104391421D01*
X110561677Y-105129745D01*
X109577311Y-105129745D01*
X109777311Y-104929745D01*
X109960000Y-104488695D01*
X109960000Y-104062571D01*
X110090932Y-104062571D01*
X110111240Y-104539528D01*
X110254693Y-104885853D01*
X110420255Y-104988323D01*
X111158579Y-104250000D01*
X111441421Y-104250000D01*
X112179745Y-104988323D01*
X112345307Y-104885853D01*
X112509068Y-104437429D01*
X112488760Y-103960472D01*
X112345307Y-103614147D01*
X112179745Y-103511677D01*
X111441421Y-104250000D01*
X111158579Y-104250000D01*
X110420255Y-103511677D01*
X110254693Y-103614147D01*
X110090932Y-104062571D01*
X109960000Y-104062571D01*
X109960000Y-104011305D01*
X109777311Y-103570255D01*
X109577311Y-103370255D01*
X110561677Y-103370255D01*
X111300000Y-104108579D01*
X112038323Y-103370255D01*
X111935853Y-103204693D01*
X111487429Y-103040932D01*
X111010472Y-103061240D01*
X110664147Y-103204693D01*
X110561677Y-103370255D01*
X109577311Y-103370255D01*
X109439745Y-103232689D01*
X109328440Y-103186585D01*
X109865026Y-102650000D01*
X118382184Y-102650000D01*
X119613743Y-103881559D01*
X119560000Y-104011305D01*
X119560000Y-104488695D01*
X119742689Y-104929745D01*
X120080255Y-105267311D01*
X120521305Y-105450000D01*
X120998695Y-105450000D01*
X121439745Y-105267311D01*
X121577311Y-105129745D01*
X122561677Y-105129745D01*
X122664147Y-105295307D01*
X123112571Y-105459068D01*
X123589528Y-105438760D01*
X123935853Y-105295307D01*
X124038323Y-105129745D01*
X123300000Y-104391421D01*
X122561677Y-105129745D01*
X121577311Y-105129745D01*
X121777311Y-104929745D01*
X121960000Y-104488695D01*
X121960000Y-104062571D01*
X122090932Y-104062571D01*
X122111240Y-104539528D01*
X122254693Y-104885853D01*
X122420255Y-104988323D01*
X123158579Y-104250000D01*
X123441421Y-104250000D01*
X124179745Y-104988323D01*
X124345307Y-104885853D01*
X124509068Y-104437429D01*
X124488760Y-103960472D01*
X124345307Y-103614147D01*
X124179745Y-103511677D01*
X123441421Y-104250000D01*
X123158579Y-104250000D01*
X122420255Y-103511677D01*
X122254693Y-103614147D01*
X122090932Y-104062571D01*
X121960000Y-104062571D01*
X121960000Y-104011305D01*
X121777311Y-103570255D01*
X121577311Y-103370255D01*
X122561677Y-103370255D01*
X123300000Y-104108579D01*
X124038323Y-103370255D01*
X123935853Y-103204693D01*
X123487429Y-103040932D01*
X123010472Y-103061240D01*
X122664147Y-103204693D01*
X122561677Y-103370255D01*
X121577311Y-103370255D01*
X121439745Y-103232689D01*
X120998695Y-103050000D01*
X120521305Y-103050000D01*
X120391559Y-103103743D01*
X119037216Y-101749400D01*
X119006528Y-101703472D01*
X118824599Y-101581911D01*
X118664170Y-101550000D01*
X118664169Y-101550000D01*
X118610000Y-101539225D01*
X118555831Y-101550000D01*
X109691372Y-101550000D01*
X109637207Y-101539226D01*
X109583042Y-101550000D01*
X109583038Y-101550000D01*
X109422609Y-101581911D01*
X109422608Y-101581912D01*
X109422607Y-101581912D01*
X109347779Y-101631911D01*
X109240680Y-101703472D01*
X109209995Y-101749395D01*
X108409398Y-102549994D01*
X108363473Y-102580680D01*
X108257537Y-102739225D01*
X108241912Y-102762609D01*
X108199225Y-102977208D01*
X108210001Y-103031381D01*
X108210001Y-103178946D01*
X108080255Y-103232689D01*
X107742689Y-103570255D01*
X107688947Y-103700000D01*
X107104164Y-103700000D01*
X107049999Y-103689226D01*
X106995834Y-103700000D01*
X106995830Y-103700000D01*
X106835401Y-103731911D01*
X106835400Y-103731912D01*
X106835399Y-103731912D01*
X106808329Y-103750000D01*
X106653472Y-103853472D01*
X106622788Y-103899394D01*
X104749400Y-105772784D01*
X104703472Y-105803472D01*
X104581911Y-105985402D01*
X104552633Y-106132593D01*
X104539225Y-106200000D01*
X104550000Y-106254169D01*
X104550001Y-110469123D01*
X104350000Y-110469123D01*
X104232946Y-110492407D01*
X104133712Y-110558712D01*
X104067407Y-110657946D01*
X104044123Y-110775000D01*
X103650000Y-110775000D01*
X103650000Y-106754169D01*
X103660775Y-106700000D01*
X103649660Y-106644123D01*
X103618089Y-106485401D01*
X103496528Y-106303472D01*
X103450603Y-106272786D01*
X102227216Y-105049400D01*
X102196528Y-105003472D01*
X102014599Y-104881911D01*
X101854170Y-104850000D01*
X101854169Y-104850000D01*
X101800000Y-104839225D01*
X101745831Y-104850000D01*
X101585985Y-104850000D01*
X101582593Y-104832946D01*
X101516288Y-104733712D01*
X101417054Y-104667407D01*
X101300000Y-104644123D01*
X100500000Y-104644123D01*
X100382946Y-104667407D01*
X100283712Y-104733712D01*
X100217407Y-104832946D01*
X100214015Y-104850000D01*
X99727818Y-104850000D01*
X99333694Y-104455877D01*
X100500000Y-104455877D01*
X100617054Y-104432593D01*
X100716288Y-104366288D01*
X100782593Y-104267054D01*
X100805877Y-104150000D01*
X100805877Y-102450000D01*
X100782593Y-102332946D01*
X100716288Y-102233712D01*
X100617054Y-102167407D01*
X100500000Y-102144123D01*
X100400000Y-102144123D01*
X100400000Y-101286853D01*
X100956327Y-101056415D01*
X101406415Y-100606327D01*
X101650000Y-100018260D01*
X101650000Y-99381740D01*
X101406415Y-98793673D01*
X100956327Y-98343585D01*
X100368260Y-98100000D01*
X99731740Y-98100000D01*
X99143673Y-98343585D01*
X98693585Y-98793673D01*
X98450000Y-99381740D01*
X98450000Y-100018260D01*
X98693585Y-100606327D01*
X99143673Y-101056415D01*
X99300001Y-101121168D01*
X99300000Y-102144123D01*
X99200000Y-102144123D01*
X99082946Y-102167407D01*
X98983712Y-102233712D01*
X98917407Y-102332946D01*
X98894123Y-102450000D01*
X98894123Y-104016306D01*
X97827216Y-102949400D01*
X97796528Y-102903472D01*
X97614599Y-102781911D01*
X97454170Y-102750000D01*
X97454169Y-102750000D01*
X97400000Y-102739225D01*
X97345831Y-102750000D01*
X97305877Y-102750000D01*
X97305877Y-102450000D01*
X97282593Y-102332946D01*
X97216288Y-102233712D01*
X97117054Y-102167407D01*
X97000000Y-102144123D01*
X96800000Y-102144123D01*
X96800000Y-97517094D01*
X103665000Y-97517094D01*
X103665000Y-98282906D01*
X103958064Y-98990425D01*
X104499575Y-99531936D01*
X105207094Y-99825000D01*
X105972906Y-99825000D01*
X106680425Y-99531936D01*
X107221936Y-98990425D01*
X107515000Y-98282906D01*
X107515000Y-97517094D01*
X111285000Y-97517094D01*
X111285000Y-98282906D01*
X111578064Y-98990425D01*
X112119575Y-99531936D01*
X112827094Y-99825000D01*
X113592906Y-99825000D01*
X114300425Y-99531936D01*
X114841936Y-98990425D01*
X115135000Y-98282906D01*
X115135000Y-97517094D01*
X115665000Y-97517094D01*
X115665000Y-98282906D01*
X115958064Y-98990425D01*
X116499575Y-99531936D01*
X117207094Y-99825000D01*
X117972906Y-99825000D01*
X118680425Y-99531936D01*
X119221936Y-98990425D01*
X119515000Y-98282906D01*
X119515000Y-97517094D01*
X123285000Y-97517094D01*
X123285000Y-98282906D01*
X123578064Y-98990425D01*
X124119575Y-99531936D01*
X124827094Y-99825000D01*
X125592906Y-99825000D01*
X125713616Y-99775000D01*
X129050000Y-99775000D01*
X129050000Y-100909673D01*
X129095672Y-101019936D01*
X129180063Y-101104328D01*
X129290326Y-101150000D01*
X130825000Y-101150000D01*
X130900000Y-101075000D01*
X130900000Y-99700000D01*
X131100000Y-99700000D01*
X131100000Y-101075000D01*
X131175000Y-101150000D01*
X132709674Y-101150000D01*
X132819937Y-101104328D01*
X132904328Y-101019936D01*
X132950000Y-100909673D01*
X132950000Y-99775000D01*
X132875000Y-99700000D01*
X131100000Y-99700000D01*
X130900000Y-99700000D01*
X129125000Y-99700000D01*
X129050000Y-99775000D01*
X125713616Y-99775000D01*
X126300425Y-99531936D01*
X126841936Y-98990425D01*
X127131926Y-98290327D01*
X129050000Y-98290327D01*
X129050000Y-99425000D01*
X129125000Y-99500000D01*
X130900000Y-99500000D01*
X130900000Y-98125000D01*
X131100000Y-98125000D01*
X131100000Y-99500000D01*
X132875000Y-99500000D01*
X132950000Y-99425000D01*
X132950000Y-98290327D01*
X132904328Y-98180064D01*
X132819937Y-98095672D01*
X132709674Y-98050000D01*
X131175000Y-98050000D01*
X131100000Y-98125000D01*
X130900000Y-98125000D01*
X130825000Y-98050000D01*
X129290326Y-98050000D01*
X129180063Y-98095672D01*
X129095672Y-98180064D01*
X129050000Y-98290327D01*
X127131926Y-98290327D01*
X127135000Y-98282906D01*
X127135000Y-97517094D01*
X126841936Y-96809575D01*
X126300425Y-96268064D01*
X125592906Y-95975000D01*
X124827094Y-95975000D01*
X124119575Y-96268064D01*
X123578064Y-96809575D01*
X123285000Y-97517094D01*
X119515000Y-97517094D01*
X119221936Y-96809575D01*
X118680425Y-96268064D01*
X117972906Y-95975000D01*
X117207094Y-95975000D01*
X116499575Y-96268064D01*
X115958064Y-96809575D01*
X115665000Y-97517094D01*
X115135000Y-97517094D01*
X114841936Y-96809575D01*
X114300425Y-96268064D01*
X113592906Y-95975000D01*
X112827094Y-95975000D01*
X112119575Y-96268064D01*
X111578064Y-96809575D01*
X111285000Y-97517094D01*
X107515000Y-97517094D01*
X107221936Y-96809575D01*
X106680425Y-96268064D01*
X105972906Y-95975000D01*
X105207094Y-95975000D01*
X104499575Y-96268064D01*
X103958064Y-96809575D01*
X103665000Y-97517094D01*
X96800000Y-97517094D01*
X96800000Y-96305877D01*
X97850000Y-96305877D01*
X97967054Y-96282593D01*
X98066288Y-96216288D01*
X98132593Y-96117054D01*
X98155877Y-96000000D01*
X98155877Y-93622067D01*
X129100000Y-93622067D01*
X129100000Y-94377933D01*
X129389258Y-95076263D01*
X129923737Y-95610742D01*
X130622067Y-95900000D01*
X131377933Y-95900000D01*
X132076263Y-95610742D01*
X132610742Y-95076263D01*
X132900000Y-94377933D01*
X132900000Y-93622067D01*
X132610742Y-92923737D01*
X132076263Y-92389258D01*
X131377933Y-92100000D01*
X130622067Y-92100000D01*
X129923737Y-92389258D01*
X129389258Y-92923737D01*
X129100000Y-93622067D01*
X98155877Y-93622067D01*
X98155877Y-93400000D01*
X98132593Y-93282946D01*
X98066288Y-93183712D01*
X97967054Y-93117407D01*
X97850000Y-93094123D01*
X95250000Y-93094123D01*
X95132946Y-93117407D01*
X95033712Y-93183712D01*
X94967407Y-93282946D01*
X94944123Y-93400000D01*
X89555877Y-93400000D01*
X89532593Y-93282946D01*
X89466288Y-93183712D01*
X89367054Y-93117407D01*
X89250000Y-93094123D01*
X86650000Y-93094123D01*
X86532946Y-93117407D01*
X86433712Y-93183712D01*
X86367407Y-93282946D01*
X86344123Y-93400000D01*
X86344123Y-96000000D01*
X86367407Y-96117054D01*
X86433712Y-96216288D01*
X86532946Y-96282593D01*
X86650000Y-96305877D01*
X87200000Y-96305877D01*
X87200001Y-102144123D01*
X87000000Y-102144123D01*
X86882946Y-102167407D01*
X86783712Y-102233712D01*
X86750000Y-102284166D01*
X86750000Y-99904169D01*
X86760775Y-99850000D01*
X86750000Y-99795830D01*
X86718089Y-99635401D01*
X86596528Y-99453472D01*
X86550603Y-99422786D01*
X81477216Y-94349400D01*
X81446528Y-94303472D01*
X81264599Y-94181911D01*
X81104170Y-94150000D01*
X81104169Y-94150000D01*
X81050000Y-94139225D01*
X80995831Y-94150000D01*
X80955877Y-94150000D01*
X80955877Y-93400000D01*
X80932593Y-93282946D01*
X80866288Y-93183712D01*
X80767054Y-93117407D01*
X80650000Y-93094123D01*
X78050000Y-93094123D01*
X77932946Y-93117407D01*
X77833712Y-93183712D01*
X77767407Y-93282946D01*
X77744123Y-93400000D01*
X72350000Y-93400000D01*
X72350000Y-93340327D01*
X72304328Y-93230064D01*
X72219937Y-93145672D01*
X72109674Y-93100000D01*
X70925000Y-93100000D01*
X70850000Y-93175000D01*
X70650000Y-93175000D01*
X70575000Y-93100000D01*
X69390326Y-93100000D01*
X69280063Y-93145672D01*
X69195672Y-93230064D01*
X69150000Y-93340327D01*
X65958134Y-93340327D01*
X65377933Y-93100000D01*
X64622067Y-93100000D01*
X63923737Y-93389258D01*
X63389258Y-93923737D01*
X63100000Y-94622067D01*
X60375000Y-94622067D01*
X60375000Y-90375000D01*
X134625000Y-90375000D01*
X134625001Y-146400000D01*
X134625001Y-146400000D01*
G37*
X134625001Y-146400000D02*
X104330877Y-146400000D01*
X104330877Y-145150000D01*
X104307593Y-145032946D01*
X104241288Y-144933712D01*
X104142054Y-144867407D01*
X104025000Y-144844123D01*
X103985545Y-144844123D01*
X93100000Y-133958578D01*
X93100000Y-124000000D01*
X93092388Y-123961732D01*
X93070711Y-123929289D01*
X89605022Y-120463600D01*
X89760400Y-120463600D01*
X90198078Y-120336758D01*
X90553900Y-120052079D01*
X90773695Y-119652903D01*
X90789779Y-119580123D01*
X90744397Y-119400000D01*
X89100000Y-119400000D01*
X89100000Y-119420000D01*
X88900000Y-119420000D01*
X88900000Y-119400000D01*
X88880000Y-119400000D01*
X88880000Y-119200000D01*
X88900000Y-119200000D01*
X88900000Y-118136400D01*
X89100000Y-118136400D01*
X89100000Y-119200000D01*
X90744397Y-119200000D01*
X90789779Y-119019877D01*
X90773695Y-118947097D01*
X90553900Y-118547921D01*
X90198078Y-118263242D01*
X89760400Y-118136400D01*
X89100000Y-118136400D01*
X88900000Y-118136400D01*
X88239600Y-118136400D01*
X87801922Y-118263242D01*
X87581230Y-118439808D01*
X79070711Y-109929289D01*
X79038268Y-109907612D01*
X79000000Y-109900000D01*
X60375000Y-109900000D01*
X60375000Y-106150000D01*
X63044123Y-106150000D01*
X63044123Y-108650000D01*
X63067407Y-108767054D01*
X63133712Y-108866288D01*
X63232946Y-108932593D01*
X63350000Y-108955877D01*
X66650000Y-108955877D01*
X66767054Y-108932593D01*
X66866288Y-108866288D01*
X66932593Y-108767054D01*
X66955877Y-108650000D01*
X66955877Y-107600000D01*
X70859441Y-107600000D01*
X71382123Y-108122682D01*
X72172338Y-108450000D01*
X73027662Y-108450000D01*
X73817877Y-108122682D01*
X74340559Y-107600000D01*
X75559441Y-107600000D01*
X76082123Y-108122682D01*
X76872338Y-108450000D01*
X77727662Y-108450000D01*
X78517877Y-108122682D01*
X79122682Y-107517877D01*
X79450000Y-106727662D01*
X79450000Y-105872338D01*
X79850000Y-105872338D01*
X79850000Y-106727662D01*
X80177318Y-107517877D01*
X80782123Y-108122682D01*
X81572338Y-108450000D01*
X82427662Y-108450000D01*
X83217877Y-108122682D01*
X83822682Y-107517877D01*
X84150000Y-106727662D01*
X84150000Y-105872338D01*
X83822682Y-105082123D01*
X83217877Y-104477318D01*
X82427662Y-104150000D01*
X81572338Y-104150000D01*
X80782123Y-104477318D01*
X80177318Y-105082123D01*
X79850000Y-105872338D01*
X79450000Y-105872338D01*
X79122682Y-105082123D01*
X78600000Y-104559441D01*
X78600000Y-102828033D01*
X78625467Y-102700000D01*
X78600000Y-102571967D01*
X78600000Y-102571963D01*
X78524573Y-102192765D01*
X78237247Y-101762753D01*
X78128703Y-101690226D01*
X75850000Y-99411524D01*
X75850000Y-99381740D01*
X75606415Y-98793673D01*
X75156327Y-98343585D01*
X74568260Y-98100000D01*
X73931740Y-98100000D01*
X73343673Y-98343585D01*
X72893585Y-98793673D01*
X72650000Y-99381740D01*
X72650000Y-100018260D01*
X72893585Y-100606327D01*
X73343673Y-101056415D01*
X73931740Y-101300000D01*
X74061524Y-101300000D01*
X76000000Y-103238477D01*
X76000001Y-104559440D01*
X75559441Y-105000000D01*
X74340559Y-105000000D01*
X73817877Y-104477318D01*
X73027662Y-104150000D01*
X72172338Y-104150000D01*
X71382123Y-104477318D01*
X70859441Y-105000000D01*
X66228033Y-105000000D01*
X66100000Y-104974533D01*
X65971967Y-105000000D01*
X65971963Y-105000000D01*
X65592765Y-105075427D01*
X65162753Y-105362753D01*
X65090225Y-105471298D01*
X64717400Y-105844123D01*
X63350000Y-105844123D01*
X63232946Y-105867407D01*
X63133712Y-105933712D01*
X63067407Y-106032946D01*
X63044123Y-106150000D01*
X60375000Y-106150000D01*
X60375000Y-100775000D01*
X63050000Y-100775000D01*
X63050000Y-101909673D01*
X63095672Y-102019936D01*
X63180063Y-102104328D01*
X63290326Y-102150000D01*
X64825000Y-102150000D01*
X64900000Y-102075000D01*
X64900000Y-100700000D01*
X65100000Y-100700000D01*
X65100000Y-102075000D01*
X65175000Y-102150000D01*
X66709674Y-102150000D01*
X66819937Y-102104328D01*
X66904328Y-102019936D01*
X66950000Y-101909673D01*
X66950000Y-100775000D01*
X66875000Y-100700000D01*
X65100000Y-100700000D01*
X64900000Y-100700000D01*
X63125000Y-100700000D01*
X63050000Y-100775000D01*
X60375000Y-100775000D01*
X60375000Y-99290327D01*
X63050000Y-99290327D01*
X63050000Y-100425000D01*
X63125000Y-100500000D01*
X64900000Y-100500000D01*
X64900000Y-99125000D01*
X65100000Y-99125000D01*
X65100000Y-100500000D01*
X66875000Y-100500000D01*
X66950000Y-100425000D01*
X66950000Y-99290327D01*
X66904328Y-99180064D01*
X66819937Y-99095672D01*
X66709674Y-99050000D01*
X65175000Y-99050000D01*
X65100000Y-99125000D01*
X64900000Y-99125000D01*
X64825000Y-99050000D01*
X63290326Y-99050000D01*
X63180063Y-99095672D01*
X63095672Y-99180064D01*
X63050000Y-99290327D01*
X60375000Y-99290327D01*
X60375000Y-94622067D01*
X63100000Y-94622067D01*
X63100000Y-95377933D01*
X63389258Y-96076263D01*
X63923737Y-96610742D01*
X64622067Y-96900000D01*
X65377933Y-96900000D01*
X66076263Y-96610742D01*
X66610742Y-96076263D01*
X66900000Y-95377933D01*
X66900000Y-94875000D01*
X69150000Y-94875000D01*
X69150000Y-96059673D01*
X69195672Y-96169936D01*
X69280063Y-96254328D01*
X69390326Y-96300000D01*
X70575000Y-96300000D01*
X70650000Y-96225000D01*
X70650000Y-94800000D01*
X70850000Y-94800000D01*
X70850000Y-96225000D01*
X70925000Y-96300000D01*
X72109674Y-96300000D01*
X72219937Y-96254328D01*
X72304328Y-96169936D01*
X72350000Y-96059673D01*
X72350000Y-94875000D01*
X72275000Y-94800000D01*
X70850000Y-94800000D01*
X70650000Y-94800000D01*
X69225000Y-94800000D01*
X69150000Y-94875000D01*
X66900000Y-94875000D01*
X66900000Y-94622067D01*
X66610742Y-93923737D01*
X66076263Y-93389258D01*
X65958134Y-93340327D01*
X69150000Y-93340327D01*
X69150000Y-94525000D01*
X69225000Y-94600000D01*
X70650000Y-94600000D01*
X70650000Y-93175000D01*
X70850000Y-93175000D01*
X70850000Y-94600000D01*
X72275000Y-94600000D01*
X72350000Y-94525000D01*
X72350000Y-93400000D01*
X77744123Y-93400000D01*
X77744123Y-96000000D01*
X77767407Y-96117054D01*
X77833712Y-96216288D01*
X77932946Y-96282593D01*
X78050000Y-96305877D01*
X80650000Y-96305877D01*
X80767054Y-96282593D01*
X80866288Y-96216288D01*
X80932593Y-96117054D01*
X80955877Y-96000000D01*
X80955877Y-95383693D01*
X85650000Y-100077817D01*
X85650000Y-101833499D01*
X85596528Y-101753472D01*
X85550603Y-101722786D01*
X84273115Y-100445299D01*
X84450000Y-100018260D01*
X84450000Y-99381740D01*
X84206415Y-98793673D01*
X83756327Y-98343585D01*
X83168260Y-98100000D01*
X82531740Y-98100000D01*
X81943673Y-98343585D01*
X81493585Y-98793673D01*
X81250000Y-99381740D01*
X81250000Y-100018260D01*
X81493585Y-100606327D01*
X81943673Y-101056415D01*
X82531740Y-101300000D01*
X83168260Y-101300000D01*
X83453877Y-101181694D01*
X84650000Y-102377817D01*
X84650001Y-107345826D01*
X84639225Y-107400000D01*
X84671549Y-107562500D01*
X84681912Y-107614599D01*
X84803473Y-107796528D01*
X84849398Y-107827214D01*
X90450987Y-113428803D01*
X90114414Y-113203913D01*
X89775003Y-113136400D01*
X88224997Y-113136400D01*
X87885586Y-113203913D01*
X87500691Y-113461091D01*
X87243513Y-113845986D01*
X87153204Y-114300000D01*
X87243513Y-114754014D01*
X87500691Y-115138909D01*
X87885586Y-115396087D01*
X88224997Y-115463600D01*
X89775003Y-115463600D01*
X90114414Y-115396087D01*
X90499309Y-115138909D01*
X90756487Y-114754014D01*
X90846796Y-114300000D01*
X90756487Y-113845986D01*
X90531597Y-113509413D01*
X96549989Y-119527806D01*
X96549990Y-135245815D01*
X96539214Y-135299989D01*
X96577055Y-135490226D01*
X96581901Y-135514588D01*
X96703462Y-135696517D01*
X96749387Y-135727203D01*
X98049396Y-137027213D01*
X98049399Y-137027215D01*
X98200669Y-137178485D01*
X98100000Y-137421523D01*
X98100000Y-137978477D01*
X98313137Y-138493037D01*
X98706963Y-138886863D01*
X99221523Y-139100000D01*
X99778477Y-139100000D01*
X100293037Y-138886863D01*
X100686863Y-138493037D01*
X100900000Y-137978477D01*
X100900000Y-137421523D01*
X100686863Y-136906963D01*
X100293037Y-136513137D01*
X99778477Y-136300000D01*
X99221523Y-136300000D01*
X98978485Y-136400669D01*
X98827215Y-136249399D01*
X98827213Y-136249396D01*
X97649989Y-135072173D01*
X97649989Y-133192094D01*
X108929328Y-133192094D01*
X109044032Y-133368049D01*
X109528695Y-133548517D01*
X110045527Y-133529775D01*
X110435968Y-133368049D01*
X110550672Y-133192094D01*
X109740000Y-132381421D01*
X108929328Y-133192094D01*
X97649989Y-133192094D01*
X97649989Y-132028695D01*
X108431483Y-132028695D01*
X108450225Y-132545527D01*
X108611951Y-132935968D01*
X108787906Y-133050672D01*
X109598579Y-132240000D01*
X109881421Y-132240000D01*
X110692094Y-133050672D01*
X110868049Y-132935968D01*
X111048517Y-132451305D01*
X111031478Y-131981414D01*
X118600000Y-131981414D01*
X118600000Y-132498586D01*
X118797913Y-132976391D01*
X119163609Y-133342087D01*
X119641414Y-133540000D01*
X120158586Y-133540000D01*
X120636391Y-133342087D01*
X121002087Y-132976391D01*
X121200000Y-132498586D01*
X121200000Y-131981414D01*
X121002087Y-131503609D01*
X120636391Y-131137913D01*
X120158586Y-130940000D01*
X119641414Y-130940000D01*
X119163609Y-131137913D01*
X118797913Y-131503609D01*
X118600000Y-131981414D01*
X111031478Y-131981414D01*
X111029775Y-131934473D01*
X110868049Y-131544032D01*
X110692094Y-131429328D01*
X109881421Y-132240000D01*
X109598579Y-132240000D01*
X108787906Y-131429328D01*
X108611951Y-131544032D01*
X108431483Y-132028695D01*
X97649989Y-132028695D01*
X97649989Y-131287906D01*
X108929328Y-131287906D01*
X109740000Y-132098579D01*
X110550672Y-131287906D01*
X110435968Y-131111951D01*
X109951305Y-130931483D01*
X109434473Y-130950225D01*
X109044032Y-131111951D01*
X108929328Y-131287906D01*
X97649989Y-131287906D01*
X97649989Y-126427805D01*
X98200669Y-126978486D01*
X98100000Y-127221523D01*
X98100000Y-127778477D01*
X98313137Y-128293037D01*
X98706963Y-128686863D01*
X99221523Y-128900000D01*
X99778477Y-128900000D01*
X100293037Y-128686863D01*
X100686863Y-128293037D01*
X100900000Y-127778477D01*
X100900000Y-127221523D01*
X100686863Y-126706963D01*
X100293037Y-126313137D01*
X99778477Y-126100000D01*
X99221523Y-126100000D01*
X98978486Y-126200669D01*
X98350000Y-125572184D01*
X98350000Y-119580123D01*
X99710221Y-119580123D01*
X99726305Y-119652903D01*
X99946100Y-120052079D01*
X100301922Y-120336758D01*
X100739600Y-120463600D01*
X101400000Y-120463600D01*
X101400000Y-119400000D01*
X101600000Y-119400000D01*
X101600000Y-120463600D01*
X102260400Y-120463600D01*
X102698078Y-120336758D01*
X102900260Y-120175000D01*
X106369123Y-120175000D01*
X106369123Y-123625000D01*
X106392407Y-123742054D01*
X106458712Y-123841288D01*
X106557946Y-123907593D01*
X106675000Y-123930877D01*
X110125000Y-123930877D01*
X110242054Y-123907593D01*
X110341288Y-123841288D01*
X110407593Y-123742054D01*
X110430877Y-123625000D01*
X110430877Y-122900000D01*
X115761524Y-122900000D01*
X125930228Y-133068706D01*
X126002753Y-133177247D01*
X126111294Y-133249772D01*
X126111296Y-133249774D01*
X126230760Y-133329597D01*
X126432765Y-133464573D01*
X126811963Y-133540000D01*
X126811968Y-133540000D01*
X126939999Y-133565467D01*
X127068031Y-133540000D01*
X129931967Y-133540000D01*
X130060000Y-133565467D01*
X130188033Y-133540000D01*
X130318586Y-133540000D01*
X130439197Y-133490041D01*
X130567235Y-133464573D01*
X130675779Y-133392046D01*
X130796391Y-133342087D01*
X130888706Y-133249772D01*
X130997247Y-133177247D01*
X131069772Y-133068706D01*
X131162087Y-132976391D01*
X131162088Y-132976388D01*
X131828702Y-132309775D01*
X131937247Y-132237247D01*
X132224573Y-131807235D01*
X132300000Y-131428037D01*
X132300000Y-131428033D01*
X132325467Y-131300000D01*
X132300000Y-131171967D01*
X132300000Y-128905877D01*
X132450001Y-128905877D01*
X132662726Y-128863563D01*
X132843065Y-128743065D01*
X132963563Y-128562726D01*
X133005877Y-128350001D01*
X133005877Y-127724999D01*
X132963563Y-127512274D01*
X132843065Y-127331935D01*
X132662726Y-127211437D01*
X132450001Y-127169123D01*
X132300000Y-127169123D01*
X132300000Y-126896974D01*
X132224573Y-126517776D01*
X132055877Y-126265305D01*
X132055877Y-126125000D01*
X132049937Y-126065013D01*
X132011790Y-125973188D01*
X132032593Y-125942054D01*
X132055877Y-125825000D01*
X132055877Y-125184695D01*
X132224573Y-124932224D01*
X132284515Y-124630877D01*
X132450001Y-124630877D01*
X132662726Y-124588563D01*
X132843065Y-124468065D01*
X132963563Y-124287726D01*
X133005877Y-124075001D01*
X133005877Y-123595100D01*
X133128703Y-123472274D01*
X133237247Y-123399747D01*
X133524573Y-122969735D01*
X133600000Y-122590537D01*
X133600000Y-122590533D01*
X133625467Y-122462500D01*
X133600000Y-122334467D01*
X133600000Y-119696661D01*
X133625467Y-119568629D01*
X133600000Y-119440598D01*
X133600000Y-119440593D01*
X133524573Y-119061395D01*
X133389597Y-118859390D01*
X133309774Y-118739926D01*
X133309772Y-118739924D01*
X133237247Y-118631383D01*
X133128705Y-118558858D01*
X130441146Y-115871300D01*
X130368617Y-115762753D01*
X129938605Y-115475427D01*
X129559407Y-115400000D01*
X129559403Y-115400000D01*
X129431370Y-115374533D01*
X129303337Y-115400000D01*
X115338477Y-115400000D01*
X113039518Y-113101041D01*
X113322682Y-112817877D01*
X113650000Y-112027662D01*
X113650000Y-111172338D01*
X114050000Y-111172338D01*
X114050000Y-112027662D01*
X114377318Y-112817877D01*
X114982123Y-113422682D01*
X115772338Y-113750000D01*
X116627662Y-113750000D01*
X117417877Y-113422682D01*
X118022682Y-112817877D01*
X118350000Y-112027662D01*
X118350000Y-111172338D01*
X118750000Y-111172338D01*
X118750000Y-112027662D01*
X119077318Y-112817877D01*
X119682123Y-113422682D01*
X120472338Y-113750000D01*
X121327662Y-113750000D01*
X122117877Y-113422682D01*
X122640559Y-112900000D01*
X125671967Y-112900000D01*
X125800000Y-112925467D01*
X125928033Y-112900000D01*
X125928037Y-112900000D01*
X126307235Y-112824573D01*
X126737247Y-112537247D01*
X126809776Y-112428700D01*
X131282600Y-107955877D01*
X132650000Y-107955877D01*
X132767054Y-107932593D01*
X132866288Y-107866288D01*
X132932593Y-107767054D01*
X132955877Y-107650000D01*
X132955877Y-105150000D01*
X132932593Y-105032946D01*
X132866288Y-104933712D01*
X132767054Y-104867407D01*
X132650000Y-104844123D01*
X129350000Y-104844123D01*
X129232946Y-104867407D01*
X129133712Y-104933712D01*
X129067407Y-105032946D01*
X129044123Y-105150000D01*
X129044123Y-105490000D01*
X121901963Y-105490000D01*
X121522765Y-105565427D01*
X121092753Y-105852753D01*
X120805427Y-106282765D01*
X120704532Y-106790000D01*
X120805427Y-107297235D01*
X121092753Y-107727247D01*
X121522765Y-108014573D01*
X121901963Y-108090000D01*
X127471524Y-108090000D01*
X125261524Y-110300000D01*
X122640559Y-110300000D01*
X122117877Y-109777318D01*
X121327662Y-109450000D01*
X120472338Y-109450000D01*
X119682123Y-109777318D01*
X119077318Y-110382123D01*
X118750000Y-111172338D01*
X118350000Y-111172338D01*
X118022682Y-110382123D01*
X117417877Y-109777318D01*
X116627662Y-109450000D01*
X115772338Y-109450000D01*
X114982123Y-109777318D01*
X114377318Y-110382123D01*
X114050000Y-111172338D01*
X113650000Y-111172338D01*
X113322682Y-110382123D01*
X112717877Y-109777318D01*
X111927662Y-109450000D01*
X111072338Y-109450000D01*
X110282123Y-109777318D01*
X109677318Y-110382123D01*
X109350000Y-111172338D01*
X109350000Y-112027662D01*
X109677318Y-112817877D01*
X110188620Y-113329179D01*
X110174533Y-113400000D01*
X110200000Y-113528033D01*
X110200000Y-113528036D01*
X110275427Y-113907234D01*
X110562753Y-114337247D01*
X110671300Y-114409776D01*
X113790225Y-117528702D01*
X113862753Y-117637247D01*
X114292765Y-117924573D01*
X114671963Y-118000000D01*
X114671967Y-118000000D01*
X114800000Y-118025467D01*
X114928033Y-118000000D01*
X122161522Y-118000000D01*
X122263609Y-118102087D01*
X122741414Y-118300000D01*
X123258586Y-118300000D01*
X123736391Y-118102087D01*
X123838478Y-118000000D01*
X128892894Y-118000000D01*
X130494307Y-119601414D01*
X130463541Y-119590438D01*
X130026481Y-119612314D01*
X129724297Y-119737483D01*
X129634074Y-119892653D01*
X130300000Y-120558579D01*
X130314143Y-120544437D01*
X130455564Y-120685858D01*
X130441421Y-120700000D01*
X130455564Y-120714143D01*
X130314143Y-120855564D01*
X130300000Y-120841421D01*
X129634074Y-121507347D01*
X129724297Y-121662517D01*
X130136459Y-121809562D01*
X130573519Y-121787686D01*
X130875703Y-121662517D01*
X130965925Y-121507349D01*
X131000000Y-121541424D01*
X131000000Y-121924023D01*
X130171300Y-122752724D01*
X130062753Y-122825253D01*
X130016735Y-122894123D01*
X129549999Y-122894123D01*
X129337274Y-122936437D01*
X129156935Y-123056935D01*
X129036437Y-123237274D01*
X128994123Y-123449999D01*
X128994123Y-124075001D01*
X129036437Y-124287726D01*
X129156935Y-124468065D01*
X129337274Y-124588563D01*
X129549999Y-124630877D01*
X129715485Y-124630877D01*
X129775427Y-124932225D01*
X129944123Y-125184695D01*
X129944123Y-125825000D01*
X129989502Y-125974878D01*
X129967407Y-126007946D01*
X129944123Y-126125000D01*
X129944123Y-126265305D01*
X129775427Y-126517775D01*
X129700000Y-126896973D01*
X129700000Y-127169123D01*
X129549999Y-127169123D01*
X129337274Y-127211437D01*
X129156935Y-127331935D01*
X129036437Y-127512274D01*
X128994123Y-127724999D01*
X128994123Y-128350001D01*
X129036437Y-128562726D01*
X129156935Y-128743065D01*
X129337274Y-128863563D01*
X129549999Y-128905877D01*
X129700000Y-128905877D01*
X129700001Y-130761523D01*
X129521524Y-130940000D01*
X127478478Y-130940000D01*
X118613477Y-122075000D01*
X123775000Y-122075000D01*
X123775000Y-123684674D01*
X123820672Y-123794937D01*
X123905064Y-123879328D01*
X124015327Y-123925000D01*
X125625000Y-123925000D01*
X125700000Y-123850000D01*
X125700000Y-122000000D01*
X125900000Y-122000000D01*
X125900000Y-123850000D01*
X125975000Y-123925000D01*
X127584673Y-123925000D01*
X127694936Y-123879328D01*
X127779328Y-123794937D01*
X127825000Y-123684674D01*
X127825000Y-122075000D01*
X127750000Y-122000000D01*
X125900000Y-122000000D01*
X125700000Y-122000000D01*
X123850000Y-122000000D01*
X123775000Y-122075000D01*
X118613477Y-122075000D01*
X117309776Y-120771300D01*
X117237247Y-120662753D01*
X116807235Y-120375427D01*
X116428037Y-120300000D01*
X116428033Y-120300000D01*
X116300000Y-120274533D01*
X116171967Y-120300000D01*
X110430877Y-120300000D01*
X110430877Y-120175000D01*
X110419007Y-120115326D01*
X123775000Y-120115326D01*
X123775000Y-121725000D01*
X123850000Y-121800000D01*
X125700000Y-121800000D01*
X125700000Y-119950000D01*
X125900000Y-119950000D01*
X125900000Y-121800000D01*
X127750000Y-121800000D01*
X127825000Y-121725000D01*
X127825000Y-120536459D01*
X129190438Y-120536459D01*
X129212314Y-120973519D01*
X129337483Y-121275703D01*
X129492653Y-121365926D01*
X130158579Y-120700000D01*
X129492653Y-120034074D01*
X129337483Y-120124297D01*
X129190438Y-120536459D01*
X127825000Y-120536459D01*
X127825000Y-120115326D01*
X127779328Y-120005063D01*
X127694936Y-119920672D01*
X127584673Y-119875000D01*
X125975000Y-119875000D01*
X125900000Y-119950000D01*
X125700000Y-119950000D01*
X125625000Y-119875000D01*
X124015327Y-119875000D01*
X123905064Y-119920672D01*
X123820672Y-120005063D01*
X123775000Y-120115326D01*
X110419007Y-120115326D01*
X110407593Y-120057946D01*
X110341288Y-119958712D01*
X110242054Y-119892407D01*
X110125000Y-119869123D01*
X106675000Y-119869123D01*
X106557946Y-119892407D01*
X106458712Y-119958712D01*
X106392407Y-120057946D01*
X106369123Y-120175000D01*
X102900260Y-120175000D01*
X103053900Y-120052079D01*
X103273695Y-119652903D01*
X103289779Y-119580123D01*
X103244397Y-119400000D01*
X101600000Y-119400000D01*
X101400000Y-119400000D01*
X99755603Y-119400000D01*
X99710221Y-119580123D01*
X98350000Y-119580123D01*
X98350000Y-119064204D01*
X98358817Y-119019877D01*
X99710221Y-119019877D01*
X99755603Y-119200000D01*
X101400000Y-119200000D01*
X101400000Y-118136400D01*
X101600000Y-118136400D01*
X101600000Y-119200000D01*
X103244397Y-119200000D01*
X103289779Y-119019877D01*
X103273695Y-118947097D01*
X103053900Y-118547921D01*
X102698078Y-118263242D01*
X102260400Y-118136400D01*
X101600000Y-118136400D01*
X101400000Y-118136400D01*
X100739600Y-118136400D01*
X100301922Y-118263242D01*
X99946100Y-118547921D01*
X99726305Y-118947097D01*
X99710221Y-119019877D01*
X98358817Y-119019877D01*
X98360775Y-119010035D01*
X98318089Y-118795438D01*
X98318089Y-118795437D01*
X98196528Y-118613508D01*
X98150603Y-118582822D01*
X97519875Y-117952094D01*
X108889328Y-117952094D01*
X109004032Y-118128049D01*
X109488695Y-118308517D01*
X110005527Y-118289775D01*
X110395968Y-118128049D01*
X110510672Y-117952094D01*
X109700000Y-117141421D01*
X108889328Y-117952094D01*
X97519875Y-117952094D01*
X96356476Y-116788695D01*
X108391483Y-116788695D01*
X108410225Y-117305527D01*
X108571951Y-117695968D01*
X108747906Y-117810672D01*
X109558579Y-117000000D01*
X109841421Y-117000000D01*
X110652094Y-117810672D01*
X110828049Y-117695968D01*
X111008517Y-117211305D01*
X110989775Y-116694473D01*
X110828049Y-116304032D01*
X110652094Y-116189328D01*
X109841421Y-117000000D01*
X109558579Y-117000000D01*
X108747906Y-116189328D01*
X108571951Y-116304032D01*
X108391483Y-116788695D01*
X96356476Y-116788695D01*
X95615687Y-116047906D01*
X108889328Y-116047906D01*
X109700000Y-116858579D01*
X110510672Y-116047906D01*
X110395968Y-115871951D01*
X109911305Y-115691483D01*
X109394473Y-115710225D01*
X109004032Y-115871951D01*
X108889328Y-116047906D01*
X95615687Y-116047906D01*
X89186952Y-109619172D01*
X89291661Y-109640000D01*
X90308339Y-109640000D01*
X90629199Y-109576177D01*
X90993056Y-109333056D01*
X91236177Y-108969199D01*
X91321550Y-108540000D01*
X95898450Y-108540000D01*
X95983823Y-108969199D01*
X96226944Y-109333056D01*
X96590801Y-109576177D01*
X96911661Y-109640000D01*
X97928339Y-109640000D01*
X98249199Y-109576177D01*
X98613056Y-109333056D01*
X98775461Y-109090000D01*
X99375836Y-109090000D01*
X99409058Y-109257016D01*
X99522783Y-109427217D01*
X99692984Y-109540942D01*
X99893750Y-109580877D01*
X100331250Y-109580877D01*
X100532016Y-109540942D01*
X100702217Y-109427217D01*
X100815942Y-109257016D01*
X100855877Y-109056250D01*
X100855877Y-108975000D01*
X100950000Y-108975000D01*
X100950000Y-109334673D01*
X100995672Y-109444936D01*
X101080063Y-109529328D01*
X101190326Y-109575000D01*
X101512500Y-109575000D01*
X101587500Y-109500000D01*
X101587500Y-108900000D01*
X101787500Y-108900000D01*
X101787500Y-109500000D01*
X101862500Y-109575000D01*
X102184674Y-109575000D01*
X102294937Y-109529328D01*
X102379328Y-109444936D01*
X102425000Y-109334673D01*
X102425000Y-108975000D01*
X102350000Y-108900000D01*
X101787500Y-108900000D01*
X101587500Y-108900000D01*
X101025000Y-108900000D01*
X100950000Y-108975000D01*
X100855877Y-108975000D01*
X100855877Y-108543750D01*
X100815942Y-108342984D01*
X100764054Y-108265327D01*
X100950000Y-108265327D01*
X100950000Y-108625000D01*
X101025000Y-108700000D01*
X101587500Y-108700000D01*
X101587500Y-108680000D01*
X101787500Y-108680000D01*
X101787500Y-108700000D01*
X102350000Y-108700000D01*
X102425000Y-108625000D01*
X102425000Y-108265327D01*
X102379328Y-108155064D01*
X102355346Y-108131082D01*
X102419936Y-108104328D01*
X102504328Y-108019937D01*
X102550000Y-107909674D01*
X102550000Y-107575000D01*
X102475000Y-107500000D01*
X101950000Y-107500000D01*
X101950000Y-107520000D01*
X101750000Y-107520000D01*
X101750000Y-107500000D01*
X101225000Y-107500000D01*
X101150000Y-107575000D01*
X101150000Y-107909674D01*
X101195672Y-108019937D01*
X101200735Y-108025000D01*
X101190326Y-108025000D01*
X101080063Y-108070672D01*
X100995672Y-108155064D01*
X100950000Y-108265327D01*
X100764054Y-108265327D01*
X100702217Y-108172783D01*
X100662500Y-108146245D01*
X100662500Y-107616669D01*
X100673275Y-107562500D01*
X100662500Y-107508330D01*
X100655877Y-107475034D01*
X100655877Y-106950000D01*
X100644007Y-106890326D01*
X101150000Y-106890326D01*
X101150000Y-107225000D01*
X101225000Y-107300000D01*
X101750000Y-107300000D01*
X101750000Y-106725000D01*
X101675000Y-106650000D01*
X101390327Y-106650000D01*
X101280064Y-106695672D01*
X101195672Y-106780063D01*
X101150000Y-106890326D01*
X100644007Y-106890326D01*
X100632593Y-106832946D01*
X100566288Y-106733712D01*
X100467054Y-106667407D01*
X100350000Y-106644123D01*
X99550000Y-106644123D01*
X99432946Y-106667407D01*
X99333712Y-106733712D01*
X99267407Y-106832946D01*
X99244123Y-106950000D01*
X99244123Y-107850000D01*
X99267407Y-107967054D01*
X99282739Y-107990000D01*
X98775461Y-107990000D01*
X98613056Y-107746944D01*
X98249199Y-107503823D01*
X97928339Y-107440000D01*
X96911661Y-107440000D01*
X96590801Y-107503823D01*
X96226944Y-107746944D01*
X95983823Y-108110801D01*
X95898450Y-108540000D01*
X91321550Y-108540000D01*
X91236177Y-108110801D01*
X90993056Y-107746944D01*
X90629199Y-107503823D01*
X90308339Y-107440000D01*
X89291661Y-107440000D01*
X89113296Y-107475479D01*
X88743693Y-107105877D01*
X91000000Y-107105877D01*
X91117054Y-107082593D01*
X91216288Y-107016288D01*
X91282593Y-106917054D01*
X91305877Y-106800000D01*
X91305877Y-105200000D01*
X91282593Y-105082946D01*
X91216288Y-104983712D01*
X91117054Y-104917407D01*
X91000000Y-104894123D01*
X90350000Y-104894123D01*
X90350000Y-104877816D01*
X90771939Y-104455877D01*
X91800000Y-104455877D01*
X91917054Y-104432593D01*
X92016288Y-104366288D01*
X92082593Y-104267054D01*
X92105877Y-104150000D01*
X92105877Y-103750000D01*
X92371188Y-103750000D01*
X92422783Y-103827217D01*
X92592984Y-103940942D01*
X92793750Y-103980877D01*
X93231250Y-103980877D01*
X93432016Y-103940942D01*
X93602217Y-103827217D01*
X93715942Y-103657016D01*
X93755877Y-103456250D01*
X93755877Y-102983694D01*
X93844123Y-103071940D01*
X93844123Y-103456250D01*
X93884058Y-103657016D01*
X93997783Y-103827217D01*
X94167984Y-103940942D01*
X94368750Y-103980877D01*
X94806250Y-103980877D01*
X95007016Y-103940942D01*
X95177217Y-103827217D01*
X95290942Y-103657016D01*
X95330877Y-103456250D01*
X95330877Y-102943750D01*
X95290942Y-102742984D01*
X95177217Y-102572783D01*
X95007016Y-102459058D01*
X94806250Y-102419123D01*
X94746940Y-102419123D01*
X92843826Y-100516009D01*
X93050000Y-100018260D01*
X93050000Y-99381740D01*
X92806415Y-98793673D01*
X92356327Y-98343585D01*
X91768260Y-98100000D01*
X91131740Y-98100000D01*
X90543673Y-98343585D01*
X90093585Y-98793673D01*
X89850000Y-99381740D01*
X89850000Y-100018260D01*
X90093585Y-100606327D01*
X90543673Y-101056415D01*
X91131740Y-101300000D01*
X91768260Y-101300000D01*
X91983167Y-101210983D01*
X93191306Y-102419123D01*
X92793750Y-102419123D01*
X92592984Y-102459058D01*
X92422783Y-102572783D01*
X92371188Y-102650000D01*
X92105877Y-102650000D01*
X92105877Y-102450000D01*
X92082593Y-102332946D01*
X92016288Y-102233712D01*
X91917054Y-102167407D01*
X91800000Y-102144123D01*
X90500000Y-102144123D01*
X90382946Y-102167407D01*
X90283712Y-102233712D01*
X90217407Y-102332946D01*
X90194123Y-102450000D01*
X90194123Y-103478060D01*
X89449398Y-104222786D01*
X89403473Y-104253472D01*
X89283788Y-104432593D01*
X89281912Y-104435401D01*
X89239225Y-104650000D01*
X89250001Y-104704173D01*
X89250001Y-104894123D01*
X88600000Y-104894123D01*
X88482946Y-104917407D01*
X88383712Y-104983712D01*
X88317407Y-105082946D01*
X88294123Y-105200000D01*
X88294123Y-106656307D01*
X88200000Y-106562184D01*
X88200000Y-104455877D01*
X88300000Y-104455877D01*
X88417054Y-104432593D01*
X88516288Y-104366288D01*
X88582593Y-104267054D01*
X88605877Y-104150000D01*
X88605877Y-102450000D01*
X88582593Y-102332946D01*
X88516288Y-102233712D01*
X88417054Y-102167407D01*
X88300000Y-102144123D01*
X88300000Y-96305877D01*
X89250000Y-96305877D01*
X89367054Y-96282593D01*
X89466288Y-96216288D01*
X89532593Y-96117054D01*
X89555877Y-96000000D01*
X89555877Y-93400000D01*
X94944123Y-93400000D01*
X94944123Y-96000000D01*
X94967407Y-96117054D01*
X95033712Y-96216288D01*
X95132946Y-96282593D01*
X95250000Y-96305877D01*
X95700000Y-96305877D01*
X95700001Y-102144123D01*
X95700000Y-102144123D01*
X95582946Y-102167407D01*
X95483712Y-102233712D01*
X95417407Y-102332946D01*
X95394123Y-102450000D01*
X95394123Y-104150000D01*
X95417407Y-104267054D01*
X95483712Y-104366288D01*
X95582946Y-104432593D01*
X95700000Y-104455877D01*
X97000000Y-104455877D01*
X97117054Y-104432593D01*
X97216288Y-104366288D01*
X97282593Y-104267054D01*
X97305877Y-104150000D01*
X97305877Y-103983693D01*
X98360122Y-105037939D01*
X98249199Y-104963823D01*
X97928339Y-104900000D01*
X96911661Y-104900000D01*
X96590801Y-104963823D01*
X96226944Y-105206944D01*
X95983823Y-105570801D01*
X95898450Y-106000000D01*
X95983823Y-106429199D01*
X96226944Y-106793056D01*
X96590801Y-107036177D01*
X96911661Y-107100000D01*
X97928339Y-107100000D01*
X98249199Y-107036177D01*
X98613056Y-106793056D01*
X98856177Y-106429199D01*
X98941550Y-106000000D01*
X98856177Y-105570801D01*
X98782062Y-105459879D01*
X99072788Y-105750606D01*
X99103472Y-105796528D01*
X99149394Y-105827212D01*
X99285399Y-105918088D01*
X99285400Y-105918088D01*
X99285401Y-105918089D01*
X99445830Y-105950000D01*
X99445834Y-105950000D01*
X99499999Y-105960774D01*
X99554164Y-105950000D01*
X100214015Y-105950000D01*
X100217407Y-105967054D01*
X100283712Y-106066288D01*
X100382946Y-106132593D01*
X100500000Y-106155877D01*
X101300000Y-106155877D01*
X101417054Y-106132593D01*
X101516288Y-106066288D01*
X101582593Y-105967054D01*
X101583695Y-105961512D01*
X102272183Y-106650000D01*
X102025000Y-106650000D01*
X101950000Y-106725000D01*
X101950000Y-107300000D01*
X102475000Y-107300000D01*
X102550000Y-107225000D01*
X102550000Y-106927817D01*
X102550001Y-106927818D01*
X102550000Y-112472183D01*
X101885784Y-113136400D01*
X100724997Y-113136400D01*
X100385586Y-113203913D01*
X100000691Y-113461091D01*
X99743513Y-113845986D01*
X99653204Y-114300000D01*
X99743513Y-114754014D01*
X100000691Y-115138909D01*
X100385586Y-115396087D01*
X100724997Y-115463600D01*
X102275003Y-115463600D01*
X102614414Y-115396087D01*
X102999309Y-115138909D01*
X103256487Y-114754014D01*
X103346796Y-114300000D01*
X103256487Y-113845986D01*
X103046339Y-113531477D01*
X103450603Y-113127214D01*
X103496528Y-113096528D01*
X103618089Y-112914599D01*
X103650000Y-112754170D01*
X103650000Y-112754169D01*
X103660775Y-112700000D01*
X103650000Y-112645831D01*
X103650000Y-110775000D01*
X104044123Y-110775000D01*
X104044123Y-111775000D01*
X104050063Y-111834987D01*
X104088210Y-111926812D01*
X104067407Y-111957946D01*
X104044123Y-112075000D01*
X104044123Y-113225000D01*
X104067407Y-113342054D01*
X104133712Y-113441288D01*
X104232946Y-113507593D01*
X104350000Y-113530877D01*
X105850000Y-113530877D01*
X105967054Y-113507593D01*
X106066288Y-113441288D01*
X106132593Y-113342054D01*
X106133499Y-113337500D01*
X106446245Y-113337500D01*
X106472783Y-113377217D01*
X106642984Y-113490942D01*
X106843750Y-113530877D01*
X107356250Y-113530877D01*
X107557016Y-113490942D01*
X107727217Y-113377217D01*
X107840942Y-113207016D01*
X107880877Y-113006250D01*
X107880877Y-112568750D01*
X107840942Y-112367984D01*
X107727217Y-112197783D01*
X107557016Y-112084058D01*
X107356250Y-112044123D01*
X106843750Y-112044123D01*
X106642984Y-112084058D01*
X106472783Y-112197783D01*
X106446245Y-112237500D01*
X106155877Y-112237500D01*
X106155877Y-112075000D01*
X106110498Y-111925122D01*
X106132593Y-111892054D01*
X106155877Y-111775000D01*
X106155877Y-110775000D01*
X106132593Y-110657946D01*
X106066288Y-110558712D01*
X105967054Y-110492407D01*
X105850000Y-110469123D01*
X105650000Y-110469123D01*
X105650000Y-106551305D01*
X106290000Y-106551305D01*
X106290000Y-107028695D01*
X106472689Y-107469745D01*
X106810255Y-107807311D01*
X107050000Y-107906617D01*
X107050001Y-108265327D01*
X107050001Y-108645827D01*
X107039225Y-108700000D01*
X107050001Y-108754173D01*
X107050000Y-110469123D01*
X106843750Y-110469123D01*
X106642984Y-110509058D01*
X106472783Y-110622783D01*
X106359058Y-110792984D01*
X106319123Y-110993750D01*
X106319123Y-111431250D01*
X106359058Y-111632016D01*
X106472783Y-111802217D01*
X106642984Y-111915942D01*
X106843750Y-111955877D01*
X107356250Y-111955877D01*
X107557016Y-111915942D01*
X107727217Y-111802217D01*
X107840942Y-111632016D01*
X107880877Y-111431250D01*
X107880877Y-111209440D01*
X107950603Y-111139714D01*
X107996528Y-111109028D01*
X108118089Y-110927099D01*
X108150000Y-110766670D01*
X108150000Y-110766669D01*
X108160775Y-110712500D01*
X108150000Y-110658331D01*
X108150000Y-109250000D01*
X117525831Y-109250000D01*
X117580000Y-109260775D01*
X117634169Y-109250000D01*
X117634170Y-109250000D01*
X117794599Y-109218089D01*
X117976528Y-109096528D01*
X118007216Y-109050600D01*
X119121559Y-107936257D01*
X119251305Y-107990000D01*
X119728695Y-107990000D01*
X120169745Y-107807311D01*
X120507311Y-107469745D01*
X120690000Y-107028695D01*
X120690000Y-106551305D01*
X120507311Y-106110255D01*
X120169745Y-105772689D01*
X119728695Y-105590000D01*
X119251305Y-105590000D01*
X118810255Y-105772689D01*
X118472689Y-106110255D01*
X118290000Y-106551305D01*
X118290000Y-107028695D01*
X118343743Y-107158441D01*
X117352184Y-108150000D01*
X108150000Y-108150000D01*
X108150000Y-107815490D01*
X108169745Y-107807311D01*
X108507311Y-107469745D01*
X108690000Y-107028695D01*
X108690000Y-106551305D01*
X108830000Y-106551305D01*
X108830000Y-107028695D01*
X109012689Y-107469745D01*
X109350255Y-107807311D01*
X109791305Y-107990000D01*
X110268695Y-107990000D01*
X110709745Y-107807311D01*
X111047311Y-107469745D01*
X111230000Y-107028695D01*
X111230000Y-106551305D01*
X111047311Y-106110255D01*
X110709745Y-105772689D01*
X110268695Y-105590000D01*
X109791305Y-105590000D01*
X109350255Y-105772689D01*
X109012689Y-106110255D01*
X108830000Y-106551305D01*
X108690000Y-106551305D01*
X108507311Y-106110255D01*
X108169745Y-105772689D01*
X107728695Y-105590000D01*
X107251305Y-105590000D01*
X106810255Y-105772689D01*
X106472689Y-106110255D01*
X106290000Y-106551305D01*
X105650000Y-106551305D01*
X105650000Y-106427816D01*
X107277818Y-104800000D01*
X107688947Y-104800000D01*
X107742689Y-104929745D01*
X108080255Y-105267311D01*
X108521305Y-105450000D01*
X108998695Y-105450000D01*
X109439745Y-105267311D01*
X109577311Y-105129745D01*
X110561677Y-105129745D01*
X110664147Y-105295307D01*
X111112571Y-105459068D01*
X111589528Y-105438760D01*
X111935853Y-105295307D01*
X112038323Y-105129745D01*
X111300000Y-104391421D01*
X110561677Y-105129745D01*
X109577311Y-105129745D01*
X109777311Y-104929745D01*
X109960000Y-104488695D01*
X109960000Y-104062571D01*
X110090932Y-104062571D01*
X110111240Y-104539528D01*
X110254693Y-104885853D01*
X110420255Y-104988323D01*
X111158579Y-104250000D01*
X111441421Y-104250000D01*
X112179745Y-104988323D01*
X112345307Y-104885853D01*
X112509068Y-104437429D01*
X112488760Y-103960472D01*
X112345307Y-103614147D01*
X112179745Y-103511677D01*
X111441421Y-104250000D01*
X111158579Y-104250000D01*
X110420255Y-103511677D01*
X110254693Y-103614147D01*
X110090932Y-104062571D01*
X109960000Y-104062571D01*
X109960000Y-104011305D01*
X109777311Y-103570255D01*
X109577311Y-103370255D01*
X110561677Y-103370255D01*
X111300000Y-104108579D01*
X112038323Y-103370255D01*
X111935853Y-103204693D01*
X111487429Y-103040932D01*
X111010472Y-103061240D01*
X110664147Y-103204693D01*
X110561677Y-103370255D01*
X109577311Y-103370255D01*
X109439745Y-103232689D01*
X109328440Y-103186585D01*
X109865026Y-102650000D01*
X118382184Y-102650000D01*
X119613743Y-103881559D01*
X119560000Y-104011305D01*
X119560000Y-104488695D01*
X119742689Y-104929745D01*
X120080255Y-105267311D01*
X120521305Y-105450000D01*
X120998695Y-105450000D01*
X121439745Y-105267311D01*
X121577311Y-105129745D01*
X122561677Y-105129745D01*
X122664147Y-105295307D01*
X123112571Y-105459068D01*
X123589528Y-105438760D01*
X123935853Y-105295307D01*
X124038323Y-105129745D01*
X123300000Y-104391421D01*
X122561677Y-105129745D01*
X121577311Y-105129745D01*
X121777311Y-104929745D01*
X121960000Y-104488695D01*
X121960000Y-104062571D01*
X122090932Y-104062571D01*
X122111240Y-104539528D01*
X122254693Y-104885853D01*
X122420255Y-104988323D01*
X123158579Y-104250000D01*
X123441421Y-104250000D01*
X124179745Y-104988323D01*
X124345307Y-104885853D01*
X124509068Y-104437429D01*
X124488760Y-103960472D01*
X124345307Y-103614147D01*
X124179745Y-103511677D01*
X123441421Y-104250000D01*
X123158579Y-104250000D01*
X122420255Y-103511677D01*
X122254693Y-103614147D01*
X122090932Y-104062571D01*
X121960000Y-104062571D01*
X121960000Y-104011305D01*
X121777311Y-103570255D01*
X121577311Y-103370255D01*
X122561677Y-103370255D01*
X123300000Y-104108579D01*
X124038323Y-103370255D01*
X123935853Y-103204693D01*
X123487429Y-103040932D01*
X123010472Y-103061240D01*
X122664147Y-103204693D01*
X122561677Y-103370255D01*
X121577311Y-103370255D01*
X121439745Y-103232689D01*
X120998695Y-103050000D01*
X120521305Y-103050000D01*
X120391559Y-103103743D01*
X119037216Y-101749400D01*
X119006528Y-101703472D01*
X118824599Y-101581911D01*
X118664170Y-101550000D01*
X118664169Y-101550000D01*
X118610000Y-101539225D01*
X118555831Y-101550000D01*
X109691372Y-101550000D01*
X109637207Y-101539226D01*
X109583042Y-101550000D01*
X109583038Y-101550000D01*
X109422609Y-101581911D01*
X109422608Y-101581912D01*
X109422607Y-101581912D01*
X109347779Y-101631911D01*
X109240680Y-101703472D01*
X109209995Y-101749395D01*
X108409398Y-102549994D01*
X108363473Y-102580680D01*
X108257537Y-102739225D01*
X108241912Y-102762609D01*
X108199225Y-102977208D01*
X108210001Y-103031381D01*
X108210001Y-103178946D01*
X108080255Y-103232689D01*
X107742689Y-103570255D01*
X107688947Y-103700000D01*
X107104164Y-103700000D01*
X107049999Y-103689226D01*
X106995834Y-103700000D01*
X106995830Y-103700000D01*
X106835401Y-103731911D01*
X106835400Y-103731912D01*
X106835399Y-103731912D01*
X106808329Y-103750000D01*
X106653472Y-103853472D01*
X106622788Y-103899394D01*
X104749400Y-105772784D01*
X104703472Y-105803472D01*
X104581911Y-105985402D01*
X104552633Y-106132593D01*
X104539225Y-106200000D01*
X104550000Y-106254169D01*
X104550001Y-110469123D01*
X104350000Y-110469123D01*
X104232946Y-110492407D01*
X104133712Y-110558712D01*
X104067407Y-110657946D01*
X104044123Y-110775000D01*
X103650000Y-110775000D01*
X103650000Y-106754169D01*
X103660775Y-106700000D01*
X103649660Y-106644123D01*
X103618089Y-106485401D01*
X103496528Y-106303472D01*
X103450603Y-106272786D01*
X102227216Y-105049400D01*
X102196528Y-105003472D01*
X102014599Y-104881911D01*
X101854170Y-104850000D01*
X101854169Y-104850000D01*
X101800000Y-104839225D01*
X101745831Y-104850000D01*
X101585985Y-104850000D01*
X101582593Y-104832946D01*
X101516288Y-104733712D01*
X101417054Y-104667407D01*
X101300000Y-104644123D01*
X100500000Y-104644123D01*
X100382946Y-104667407D01*
X100283712Y-104733712D01*
X100217407Y-104832946D01*
X100214015Y-104850000D01*
X99727818Y-104850000D01*
X99333694Y-104455877D01*
X100500000Y-104455877D01*
X100617054Y-104432593D01*
X100716288Y-104366288D01*
X100782593Y-104267054D01*
X100805877Y-104150000D01*
X100805877Y-102450000D01*
X100782593Y-102332946D01*
X100716288Y-102233712D01*
X100617054Y-102167407D01*
X100500000Y-102144123D01*
X100400000Y-102144123D01*
X100400000Y-101286853D01*
X100956327Y-101056415D01*
X101406415Y-100606327D01*
X101650000Y-100018260D01*
X101650000Y-99381740D01*
X101406415Y-98793673D01*
X100956327Y-98343585D01*
X100368260Y-98100000D01*
X99731740Y-98100000D01*
X99143673Y-98343585D01*
X98693585Y-98793673D01*
X98450000Y-99381740D01*
X98450000Y-100018260D01*
X98693585Y-100606327D01*
X99143673Y-101056415D01*
X99300001Y-101121168D01*
X99300000Y-102144123D01*
X99200000Y-102144123D01*
X99082946Y-102167407D01*
X98983712Y-102233712D01*
X98917407Y-102332946D01*
X98894123Y-102450000D01*
X98894123Y-104016306D01*
X97827216Y-102949400D01*
X97796528Y-102903472D01*
X97614599Y-102781911D01*
X97454170Y-102750000D01*
X97454169Y-102750000D01*
X97400000Y-102739225D01*
X97345831Y-102750000D01*
X97305877Y-102750000D01*
X97305877Y-102450000D01*
X97282593Y-102332946D01*
X97216288Y-102233712D01*
X97117054Y-102167407D01*
X97000000Y-102144123D01*
X96800000Y-102144123D01*
X96800000Y-97517094D01*
X103665000Y-97517094D01*
X103665000Y-98282906D01*
X103958064Y-98990425D01*
X104499575Y-99531936D01*
X105207094Y-99825000D01*
X105972906Y-99825000D01*
X106680425Y-99531936D01*
X107221936Y-98990425D01*
X107515000Y-98282906D01*
X107515000Y-97517094D01*
X111285000Y-97517094D01*
X111285000Y-98282906D01*
X111578064Y-98990425D01*
X112119575Y-99531936D01*
X112827094Y-99825000D01*
X113592906Y-99825000D01*
X114300425Y-99531936D01*
X114841936Y-98990425D01*
X115135000Y-98282906D01*
X115135000Y-97517094D01*
X115665000Y-97517094D01*
X115665000Y-98282906D01*
X115958064Y-98990425D01*
X116499575Y-99531936D01*
X117207094Y-99825000D01*
X117972906Y-99825000D01*
X118680425Y-99531936D01*
X119221936Y-98990425D01*
X119515000Y-98282906D01*
X119515000Y-97517094D01*
X123285000Y-97517094D01*
X123285000Y-98282906D01*
X123578064Y-98990425D01*
X124119575Y-99531936D01*
X124827094Y-99825000D01*
X125592906Y-99825000D01*
X125713616Y-99775000D01*
X129050000Y-99775000D01*
X129050000Y-100909673D01*
X129095672Y-101019936D01*
X129180063Y-101104328D01*
X129290326Y-101150000D01*
X130825000Y-101150000D01*
X130900000Y-101075000D01*
X130900000Y-99700000D01*
X131100000Y-99700000D01*
X131100000Y-101075000D01*
X131175000Y-101150000D01*
X132709674Y-101150000D01*
X132819937Y-101104328D01*
X132904328Y-101019936D01*
X132950000Y-100909673D01*
X132950000Y-99775000D01*
X132875000Y-99700000D01*
X131100000Y-99700000D01*
X130900000Y-99700000D01*
X129125000Y-99700000D01*
X129050000Y-99775000D01*
X125713616Y-99775000D01*
X126300425Y-99531936D01*
X126841936Y-98990425D01*
X127131926Y-98290327D01*
X129050000Y-98290327D01*
X129050000Y-99425000D01*
X129125000Y-99500000D01*
X130900000Y-99500000D01*
X130900000Y-98125000D01*
X131100000Y-98125000D01*
X131100000Y-99500000D01*
X132875000Y-99500000D01*
X132950000Y-99425000D01*
X132950000Y-98290327D01*
X132904328Y-98180064D01*
X132819937Y-98095672D01*
X132709674Y-98050000D01*
X131175000Y-98050000D01*
X131100000Y-98125000D01*
X130900000Y-98125000D01*
X130825000Y-98050000D01*
X129290326Y-98050000D01*
X129180063Y-98095672D01*
X129095672Y-98180064D01*
X129050000Y-98290327D01*
X127131926Y-98290327D01*
X127135000Y-98282906D01*
X127135000Y-97517094D01*
X126841936Y-96809575D01*
X126300425Y-96268064D01*
X125592906Y-95975000D01*
X124827094Y-95975000D01*
X124119575Y-96268064D01*
X123578064Y-96809575D01*
X123285000Y-97517094D01*
X119515000Y-97517094D01*
X119221936Y-96809575D01*
X118680425Y-96268064D01*
X117972906Y-95975000D01*
X117207094Y-95975000D01*
X116499575Y-96268064D01*
X115958064Y-96809575D01*
X115665000Y-97517094D01*
X115135000Y-97517094D01*
X114841936Y-96809575D01*
X114300425Y-96268064D01*
X113592906Y-95975000D01*
X112827094Y-95975000D01*
X112119575Y-96268064D01*
X111578064Y-96809575D01*
X111285000Y-97517094D01*
X107515000Y-97517094D01*
X107221936Y-96809575D01*
X106680425Y-96268064D01*
X105972906Y-95975000D01*
X105207094Y-95975000D01*
X104499575Y-96268064D01*
X103958064Y-96809575D01*
X103665000Y-97517094D01*
X96800000Y-97517094D01*
X96800000Y-96305877D01*
X97850000Y-96305877D01*
X97967054Y-96282593D01*
X98066288Y-96216288D01*
X98132593Y-96117054D01*
X98155877Y-96000000D01*
X98155877Y-93622067D01*
X129100000Y-93622067D01*
X129100000Y-94377933D01*
X129389258Y-95076263D01*
X129923737Y-95610742D01*
X130622067Y-95900000D01*
X131377933Y-95900000D01*
X132076263Y-95610742D01*
X132610742Y-95076263D01*
X132900000Y-94377933D01*
X132900000Y-93622067D01*
X132610742Y-92923737D01*
X132076263Y-92389258D01*
X131377933Y-92100000D01*
X130622067Y-92100000D01*
X129923737Y-92389258D01*
X129389258Y-92923737D01*
X129100000Y-93622067D01*
X98155877Y-93622067D01*
X98155877Y-93400000D01*
X98132593Y-93282946D01*
X98066288Y-93183712D01*
X97967054Y-93117407D01*
X97850000Y-93094123D01*
X95250000Y-93094123D01*
X95132946Y-93117407D01*
X95033712Y-93183712D01*
X94967407Y-93282946D01*
X94944123Y-93400000D01*
X89555877Y-93400000D01*
X89532593Y-93282946D01*
X89466288Y-93183712D01*
X89367054Y-93117407D01*
X89250000Y-93094123D01*
X86650000Y-93094123D01*
X86532946Y-93117407D01*
X86433712Y-93183712D01*
X86367407Y-93282946D01*
X86344123Y-93400000D01*
X86344123Y-96000000D01*
X86367407Y-96117054D01*
X86433712Y-96216288D01*
X86532946Y-96282593D01*
X86650000Y-96305877D01*
X87200000Y-96305877D01*
X87200001Y-102144123D01*
X87000000Y-102144123D01*
X86882946Y-102167407D01*
X86783712Y-102233712D01*
X86750000Y-102284166D01*
X86750000Y-99904169D01*
X86760775Y-99850000D01*
X86750000Y-99795830D01*
X86718089Y-99635401D01*
X86596528Y-99453472D01*
X86550603Y-99422786D01*
X81477216Y-94349400D01*
X81446528Y-94303472D01*
X81264599Y-94181911D01*
X81104170Y-94150000D01*
X81104169Y-94150000D01*
X81050000Y-94139225D01*
X80995831Y-94150000D01*
X80955877Y-94150000D01*
X80955877Y-93400000D01*
X80932593Y-93282946D01*
X80866288Y-93183712D01*
X80767054Y-93117407D01*
X80650000Y-93094123D01*
X78050000Y-93094123D01*
X77932946Y-93117407D01*
X77833712Y-93183712D01*
X77767407Y-93282946D01*
X77744123Y-93400000D01*
X72350000Y-93400000D01*
X72350000Y-93340327D01*
X72304328Y-93230064D01*
X72219937Y-93145672D01*
X72109674Y-93100000D01*
X70925000Y-93100000D01*
X70850000Y-93175000D01*
X70650000Y-93175000D01*
X70575000Y-93100000D01*
X69390326Y-93100000D01*
X69280063Y-93145672D01*
X69195672Y-93230064D01*
X69150000Y-93340327D01*
X65958134Y-93340327D01*
X65377933Y-93100000D01*
X64622067Y-93100000D01*
X63923737Y-93389258D01*
X63389258Y-93923737D01*
X63100000Y-94622067D01*
X60375000Y-94622067D01*
X60375000Y-90375000D01*
X134625000Y-90375000D01*
X134625001Y-146400000D01*
D49*
G04 #@! TO.N,GNDPWR*
G36*
X100927560Y-146650000D02*
X100976843Y-146897765D01*
X101117191Y-147107809D01*
X101327235Y-147248157D01*
X101575000Y-147297440D01*
X102373000Y-147297440D01*
X102373000Y-147500000D01*
X102382667Y-147548601D01*
X102410197Y-147589803D01*
X102451399Y-147617333D01*
X102500000Y-147627000D01*
X134290001Y-147627000D01*
X134290001Y-164290000D01*
X86127000Y-164290000D01*
X86127000Y-156435000D01*
X86528854Y-156435000D01*
X86529904Y-156437529D01*
X86502560Y-156575000D01*
X86502560Y-157326332D01*
X86451843Y-157402235D01*
X86417243Y-157576182D01*
X86359864Y-157662056D01*
X86265000Y-158138970D01*
X86265001Y-159687458D01*
X86252560Y-159750000D01*
X86252560Y-160851510D01*
X86232969Y-160950000D01*
X86252560Y-161048490D01*
X86252560Y-162650000D01*
X86320874Y-162993435D01*
X86515414Y-163284586D01*
X86806565Y-163479126D01*
X87150000Y-163547440D01*
X87950000Y-163547440D01*
X88293435Y-163479126D01*
X88584586Y-163284586D01*
X88779126Y-162993435D01*
X88810641Y-162835000D01*
X88836021Y-162835000D01*
X89312935Y-162740136D01*
X89526495Y-162597440D01*
X89575000Y-162597440D01*
X89701973Y-162584867D01*
X89737529Y-162570096D01*
X89875000Y-162597440D01*
X90423505Y-162597440D01*
X90637065Y-162740136D01*
X90723926Y-162757414D01*
X90770874Y-162993435D01*
X90965414Y-163284586D01*
X91256565Y-163479126D01*
X91600000Y-163547440D01*
X92123326Y-163547440D01*
X92262055Y-163640136D01*
X92738969Y-163735000D01*
X92738973Y-163735000D01*
X92899999Y-163767030D01*
X93061025Y-163735000D01*
X104638973Y-163735000D01*
X104799999Y-163767030D01*
X104961025Y-163735000D01*
X106049440Y-163735000D01*
X106076843Y-163872765D01*
X106217191Y-164082809D01*
X106427235Y-164223157D01*
X106675000Y-164272440D01*
X110125000Y-164272440D01*
X110372765Y-164223157D01*
X110582809Y-164082809D01*
X110723157Y-163872765D01*
X110750560Y-163735000D01*
X112738970Y-163735000D01*
X112900000Y-163767031D01*
X113061030Y-163735000D01*
X113061031Y-163735000D01*
X113537945Y-163640136D01*
X114078769Y-163278769D01*
X114169988Y-163142250D01*
X115232488Y-162079750D01*
X123648000Y-162079750D01*
X123648000Y-163709935D01*
X123713007Y-163866876D01*
X123833124Y-163986993D01*
X123990064Y-164052000D01*
X125620250Y-164052000D01*
X125727000Y-163945250D01*
X125727000Y-161973000D01*
X125873000Y-161973000D01*
X125873000Y-163945250D01*
X125979750Y-164052000D01*
X127609936Y-164052000D01*
X127766876Y-163986993D01*
X127886993Y-163866876D01*
X127952000Y-163709935D01*
X127952000Y-162079750D01*
X127845250Y-161973000D01*
X125873000Y-161973000D01*
X125727000Y-161973000D01*
X123754750Y-161973000D01*
X123648000Y-162079750D01*
X115232488Y-162079750D01*
X117222173Y-160090065D01*
X123648000Y-160090065D01*
X123648000Y-161720250D01*
X123754750Y-161827000D01*
X125727000Y-161827000D01*
X125727000Y-159854750D01*
X125873000Y-159854750D01*
X125873000Y-161827000D01*
X127845250Y-161827000D01*
X127952000Y-161720250D01*
X127952000Y-160896026D01*
X128105259Y-161266026D01*
X128733974Y-161894741D01*
X129555431Y-162235000D01*
X130444569Y-162235000D01*
X131266026Y-161894741D01*
X131894741Y-161266026D01*
X132235000Y-160444569D01*
X132235000Y-159555431D01*
X131894741Y-158733974D01*
X131266026Y-158105259D01*
X130444569Y-157765000D01*
X129555431Y-157765000D01*
X128733974Y-158105259D01*
X128105259Y-158733974D01*
X127765000Y-159555431D01*
X127765000Y-159812230D01*
X127609936Y-159748000D01*
X125979750Y-159748000D01*
X125873000Y-159854750D01*
X125727000Y-159854750D01*
X125620250Y-159748000D01*
X123990064Y-159748000D01*
X123833124Y-159813007D01*
X123713007Y-159933124D01*
X123648000Y-160090065D01*
X117222173Y-160090065D01*
X123709985Y-153602254D01*
X123826086Y-153486153D01*
X123888920Y-153334460D01*
X123980135Y-153197946D01*
X124012165Y-153036918D01*
X124075000Y-152885222D01*
X124075000Y-152721027D01*
X124107030Y-152560001D01*
X124075000Y-152398975D01*
X124075000Y-152234778D01*
X124012165Y-152083081D01*
X123980135Y-151922055D01*
X123888921Y-151785544D01*
X123826086Y-151633847D01*
X123709982Y-151517743D01*
X123618768Y-151381232D01*
X123482257Y-151290018D01*
X123366153Y-151173914D01*
X123214456Y-151111079D01*
X123077945Y-151019865D01*
X122916919Y-150987835D01*
X122765222Y-150925000D01*
X122601025Y-150925000D01*
X122439999Y-150892970D01*
X122278973Y-150925000D01*
X122114778Y-150925000D01*
X121963082Y-150987835D01*
X121802054Y-151019865D01*
X121665540Y-151111080D01*
X121513847Y-151173914D01*
X121397746Y-151290015D01*
X112222762Y-160465000D01*
X110772440Y-160465000D01*
X110772440Y-160175000D01*
X110723157Y-159927235D01*
X110582809Y-159717191D01*
X110372765Y-159576843D01*
X110125000Y-159527560D01*
X106675000Y-159527560D01*
X106427235Y-159576843D01*
X106217191Y-159717191D01*
X106076843Y-159927235D01*
X106027560Y-160175000D01*
X106027560Y-160465000D01*
X105535000Y-160465000D01*
X105535000Y-159338969D01*
X105440136Y-158862055D01*
X105078769Y-158321231D01*
X104537944Y-157959864D01*
X103900000Y-157832969D01*
X103262055Y-157959864D01*
X102721231Y-158321231D01*
X102598968Y-158504211D01*
X102575030Y-158446706D01*
X102120569Y-158268560D01*
X101632527Y-158277890D01*
X101224970Y-158446706D01*
X101144133Y-158640896D01*
X101900000Y-159396762D01*
X101914142Y-159382620D01*
X102017380Y-159485858D01*
X102003238Y-159500000D01*
X102017380Y-159514142D01*
X101914142Y-159617380D01*
X101900000Y-159603238D01*
X101144133Y-160359104D01*
X101188215Y-160465000D01*
X93577238Y-160465000D01*
X93297440Y-160185202D01*
X93297440Y-159750000D01*
X93229126Y-159406565D01*
X93144179Y-159279431D01*
X100668560Y-159279431D01*
X100677890Y-159767473D01*
X100846706Y-160175030D01*
X101040896Y-160255867D01*
X101796762Y-159500000D01*
X101040896Y-158744133D01*
X100846706Y-158824970D01*
X100668560Y-159279431D01*
X93144179Y-159279431D01*
X93034586Y-159115414D01*
X92743435Y-158920874D01*
X92400000Y-158852560D01*
X91600000Y-158852560D01*
X91256565Y-158920874D01*
X90965414Y-159115414D01*
X90770874Y-159406565D01*
X90723926Y-159642586D01*
X90637065Y-159659864D01*
X90423505Y-159802560D01*
X89875000Y-159802560D01*
X89756055Y-159838574D01*
X89575000Y-159802560D01*
X89535000Y-159802560D01*
X89535000Y-158550808D01*
X89643750Y-158572440D01*
X90556250Y-158572440D01*
X90897294Y-158504602D01*
X91186416Y-158311416D01*
X91379602Y-158022294D01*
X91447440Y-157681250D01*
X91447440Y-157193750D01*
X91379602Y-156852706D01*
X91186416Y-156563584D01*
X90991052Y-156433045D01*
X91041876Y-156411993D01*
X91161993Y-156291876D01*
X91227000Y-156134935D01*
X91227000Y-155742250D01*
X91120250Y-155635500D01*
X90173000Y-155635500D01*
X90173000Y-155655500D01*
X90027000Y-155655500D01*
X90027000Y-155635500D01*
X90007000Y-155635500D01*
X90007000Y-155489500D01*
X90027000Y-155489500D01*
X90027000Y-154754750D01*
X90173000Y-154754750D01*
X90173000Y-155489500D01*
X91120250Y-155489500D01*
X91227000Y-155382750D01*
X91227000Y-154990065D01*
X91161993Y-154833124D01*
X91041876Y-154713007D01*
X90884936Y-154648000D01*
X90279750Y-154648000D01*
X90173000Y-154754750D01*
X90027000Y-154754750D01*
X89920250Y-154648000D01*
X89536796Y-154648000D01*
X89440136Y-154162055D01*
X89382757Y-154076181D01*
X89348157Y-153902235D01*
X89207809Y-153692191D01*
X88997765Y-153551843D01*
X88965240Y-153545373D01*
X88537945Y-153259864D01*
X88213440Y-153195316D01*
X88435732Y-153195316D01*
X88767209Y-153129381D01*
X89048221Y-152941615D01*
X89124113Y-152828034D01*
X89400625Y-152828034D01*
X89579228Y-153229866D01*
X89898011Y-153532762D01*
X90251967Y-153679367D01*
X90427000Y-153597635D01*
X90427000Y-152653000D01*
X90573000Y-152653000D01*
X90573000Y-153597635D01*
X90748033Y-153679367D01*
X91101989Y-153532762D01*
X91420772Y-153229866D01*
X91599375Y-152828034D01*
X91576898Y-152779750D01*
X93123000Y-152779750D01*
X93123000Y-153934936D01*
X93188007Y-154091876D01*
X93308124Y-154211993D01*
X93465065Y-154277000D01*
X95020250Y-154277000D01*
X95127000Y-154170250D01*
X95127000Y-152673000D01*
X95273000Y-152673000D01*
X95273000Y-154170250D01*
X95379750Y-154277000D01*
X96934935Y-154277000D01*
X97091876Y-154211993D01*
X97211993Y-154091876D01*
X97277000Y-153934936D01*
X97277000Y-152779750D01*
X97170250Y-152673000D01*
X95273000Y-152673000D01*
X95127000Y-152673000D01*
X93229750Y-152673000D01*
X93123000Y-152779750D01*
X91576898Y-152779750D01*
X91517891Y-152653000D01*
X90573000Y-152653000D01*
X90427000Y-152653000D01*
X89482109Y-152653000D01*
X89400625Y-152828034D01*
X89124113Y-152828034D01*
X89235987Y-152660603D01*
X89301357Y-152331966D01*
X89400625Y-152331966D01*
X89482109Y-152507000D01*
X90427000Y-152507000D01*
X90427000Y-151562365D01*
X90573000Y-151562365D01*
X90573000Y-152507000D01*
X91517891Y-152507000D01*
X91599375Y-152331966D01*
X91420772Y-151930134D01*
X91101989Y-151627238D01*
X90748033Y-151480633D01*
X90573000Y-151562365D01*
X90427000Y-151562365D01*
X90251967Y-151480633D01*
X89898011Y-151627238D01*
X89579228Y-151930134D01*
X89400625Y-152331966D01*
X89301357Y-152331966D01*
X89301922Y-152329126D01*
X89301922Y-151891626D01*
X89235987Y-151560149D01*
X89048221Y-151279137D01*
X89027160Y-151265064D01*
X93123000Y-151265064D01*
X93123000Y-152420250D01*
X93229750Y-152527000D01*
X95127000Y-152527000D01*
X95127000Y-151029750D01*
X95273000Y-151029750D01*
X95273000Y-152527000D01*
X97170250Y-152527000D01*
X97277000Y-152420250D01*
X97277000Y-152234778D01*
X108105000Y-152234778D01*
X108105000Y-152885222D01*
X108353914Y-153486153D01*
X108813847Y-153946086D01*
X109414778Y-154195000D01*
X110065222Y-154195000D01*
X110666153Y-153946086D01*
X111048693Y-153563546D01*
X116459691Y-153563546D01*
X116564933Y-153778511D01*
X117091758Y-153990016D01*
X117659420Y-153983815D01*
X118155067Y-153778511D01*
X118260309Y-153563546D01*
X117360000Y-152663238D01*
X116459691Y-153563546D01*
X111048693Y-153563546D01*
X111126086Y-153486153D01*
X111375000Y-152885222D01*
X111375000Y-152291758D01*
X115929984Y-152291758D01*
X115936185Y-152859420D01*
X116141489Y-153355067D01*
X116356454Y-153460309D01*
X117256762Y-152560000D01*
X117463238Y-152560000D01*
X118363546Y-153460309D01*
X118578511Y-153355067D01*
X118790016Y-152828242D01*
X118783815Y-152260580D01*
X118578511Y-151764933D01*
X118363546Y-151659691D01*
X117463238Y-152560000D01*
X117256762Y-152560000D01*
X116356454Y-151659691D01*
X116141489Y-151764933D01*
X115929984Y-152291758D01*
X111375000Y-152291758D01*
X111375000Y-152234778D01*
X111126086Y-151633847D01*
X111048693Y-151556454D01*
X116459691Y-151556454D01*
X117360000Y-152456762D01*
X118260309Y-151556454D01*
X118155067Y-151341489D01*
X117628242Y-151129984D01*
X117060580Y-151136185D01*
X116564933Y-151341489D01*
X116459691Y-151556454D01*
X111048693Y-151556454D01*
X110666153Y-151173914D01*
X110065222Y-150925000D01*
X109414778Y-150925000D01*
X108813847Y-151173914D01*
X108353914Y-151633847D01*
X108105000Y-152234778D01*
X97277000Y-152234778D01*
X97277000Y-151265064D01*
X97211993Y-151108124D01*
X97091876Y-150988007D01*
X96934935Y-150923000D01*
X95379750Y-150923000D01*
X95273000Y-151029750D01*
X95127000Y-151029750D01*
X95020250Y-150923000D01*
X93465065Y-150923000D01*
X93308124Y-150988007D01*
X93188007Y-151108124D01*
X93123000Y-151265064D01*
X89027160Y-151265064D01*
X88990595Y-151240632D01*
X89016475Y-151214752D01*
X89081482Y-151057811D01*
X89081482Y-150715126D01*
X88974732Y-150608376D01*
X88252482Y-150608376D01*
X88252482Y-150628376D01*
X88106482Y-150628376D01*
X88106482Y-150608376D01*
X88086482Y-150608376D01*
X88086482Y-150462376D01*
X88106482Y-150462376D01*
X88106482Y-149965768D01*
X88127000Y-149945250D01*
X88127000Y-149777626D01*
X88252482Y-149777626D01*
X88252482Y-150462376D01*
X88974732Y-150462376D01*
X89081482Y-150355626D01*
X89081482Y-150012941D01*
X89025670Y-149878199D01*
X89036993Y-149866876D01*
X89102000Y-149709935D01*
X89102000Y-149367250D01*
X88995250Y-149260500D01*
X88273000Y-149260500D01*
X88273000Y-149757108D01*
X88252482Y-149777626D01*
X88127000Y-149777626D01*
X88127000Y-149260500D01*
X88107000Y-149260500D01*
X88107000Y-149114500D01*
X88127000Y-149114500D01*
X88127000Y-149094500D01*
X88273000Y-149094500D01*
X88273000Y-149114500D01*
X88995250Y-149114500D01*
X89102000Y-149007750D01*
X89102000Y-148665065D01*
X89036993Y-148508124D01*
X89011113Y-148482244D01*
X89068739Y-148443739D01*
X89256505Y-148162727D01*
X89280192Y-148043645D01*
X89368242Y-148256217D01*
X89743783Y-148631758D01*
X90234452Y-148835000D01*
X90765548Y-148835000D01*
X91256217Y-148631758D01*
X91631758Y-148256217D01*
X91835000Y-147765548D01*
X91835000Y-147435000D01*
X93043541Y-147435000D01*
X93092191Y-147507809D01*
X93302235Y-147648157D01*
X93550000Y-147697440D01*
X96850000Y-147697440D01*
X97097765Y-147648157D01*
X97307809Y-147507809D01*
X97448157Y-147297765D01*
X97497440Y-147050000D01*
X97497440Y-146127000D01*
X100927560Y-146127000D01*
X100927560Y-146650000D01*
X100927560Y-146650000D01*
G37*
X100927560Y-146650000D02*
X100976843Y-146897765D01*
X101117191Y-147107809D01*
X101327235Y-147248157D01*
X101575000Y-147297440D01*
X102373000Y-147297440D01*
X102373000Y-147500000D01*
X102382667Y-147548601D01*
X102410197Y-147589803D01*
X102451399Y-147617333D01*
X102500000Y-147627000D01*
X134290001Y-147627000D01*
X134290001Y-164290000D01*
X86127000Y-164290000D01*
X86127000Y-156435000D01*
X86528854Y-156435000D01*
X86529904Y-156437529D01*
X86502560Y-156575000D01*
X86502560Y-157326332D01*
X86451843Y-157402235D01*
X86417243Y-157576182D01*
X86359864Y-157662056D01*
X86265000Y-158138970D01*
X86265001Y-159687458D01*
X86252560Y-159750000D01*
X86252560Y-160851510D01*
X86232969Y-160950000D01*
X86252560Y-161048490D01*
X86252560Y-162650000D01*
X86320874Y-162993435D01*
X86515414Y-163284586D01*
X86806565Y-163479126D01*
X87150000Y-163547440D01*
X87950000Y-163547440D01*
X88293435Y-163479126D01*
X88584586Y-163284586D01*
X88779126Y-162993435D01*
X88810641Y-162835000D01*
X88836021Y-162835000D01*
X89312935Y-162740136D01*
X89526495Y-162597440D01*
X89575000Y-162597440D01*
X89701973Y-162584867D01*
X89737529Y-162570096D01*
X89875000Y-162597440D01*
X90423505Y-162597440D01*
X90637065Y-162740136D01*
X90723926Y-162757414D01*
X90770874Y-162993435D01*
X90965414Y-163284586D01*
X91256565Y-163479126D01*
X91600000Y-163547440D01*
X92123326Y-163547440D01*
X92262055Y-163640136D01*
X92738969Y-163735000D01*
X92738973Y-163735000D01*
X92899999Y-163767030D01*
X93061025Y-163735000D01*
X104638973Y-163735000D01*
X104799999Y-163767030D01*
X104961025Y-163735000D01*
X106049440Y-163735000D01*
X106076843Y-163872765D01*
X106217191Y-164082809D01*
X106427235Y-164223157D01*
X106675000Y-164272440D01*
X110125000Y-164272440D01*
X110372765Y-164223157D01*
X110582809Y-164082809D01*
X110723157Y-163872765D01*
X110750560Y-163735000D01*
X112738970Y-163735000D01*
X112900000Y-163767031D01*
X113061030Y-163735000D01*
X113061031Y-163735000D01*
X113537945Y-163640136D01*
X114078769Y-163278769D01*
X114169988Y-163142250D01*
X115232488Y-162079750D01*
X123648000Y-162079750D01*
X123648000Y-163709935D01*
X123713007Y-163866876D01*
X123833124Y-163986993D01*
X123990064Y-164052000D01*
X125620250Y-164052000D01*
X125727000Y-163945250D01*
X125727000Y-161973000D01*
X125873000Y-161973000D01*
X125873000Y-163945250D01*
X125979750Y-164052000D01*
X127609936Y-164052000D01*
X127766876Y-163986993D01*
X127886993Y-163866876D01*
X127952000Y-163709935D01*
X127952000Y-162079750D01*
X127845250Y-161973000D01*
X125873000Y-161973000D01*
X125727000Y-161973000D01*
X123754750Y-161973000D01*
X123648000Y-162079750D01*
X115232488Y-162079750D01*
X117222173Y-160090065D01*
X123648000Y-160090065D01*
X123648000Y-161720250D01*
X123754750Y-161827000D01*
X125727000Y-161827000D01*
X125727000Y-159854750D01*
X125873000Y-159854750D01*
X125873000Y-161827000D01*
X127845250Y-161827000D01*
X127952000Y-161720250D01*
X127952000Y-160896026D01*
X128105259Y-161266026D01*
X128733974Y-161894741D01*
X129555431Y-162235000D01*
X130444569Y-162235000D01*
X131266026Y-161894741D01*
X131894741Y-161266026D01*
X132235000Y-160444569D01*
X132235000Y-159555431D01*
X131894741Y-158733974D01*
X131266026Y-158105259D01*
X130444569Y-157765000D01*
X129555431Y-157765000D01*
X128733974Y-158105259D01*
X128105259Y-158733974D01*
X127765000Y-159555431D01*
X127765000Y-159812230D01*
X127609936Y-159748000D01*
X125979750Y-159748000D01*
X125873000Y-159854750D01*
X125727000Y-159854750D01*
X125620250Y-159748000D01*
X123990064Y-159748000D01*
X123833124Y-159813007D01*
X123713007Y-159933124D01*
X123648000Y-160090065D01*
X117222173Y-160090065D01*
X123709985Y-153602254D01*
X123826086Y-153486153D01*
X123888920Y-153334460D01*
X123980135Y-153197946D01*
X124012165Y-153036918D01*
X124075000Y-152885222D01*
X124075000Y-152721027D01*
X124107030Y-152560001D01*
X124075000Y-152398975D01*
X124075000Y-152234778D01*
X124012165Y-152083081D01*
X123980135Y-151922055D01*
X123888921Y-151785544D01*
X123826086Y-151633847D01*
X123709982Y-151517743D01*
X123618768Y-151381232D01*
X123482257Y-151290018D01*
X123366153Y-151173914D01*
X123214456Y-151111079D01*
X123077945Y-151019865D01*
X122916919Y-150987835D01*
X122765222Y-150925000D01*
X122601025Y-150925000D01*
X122439999Y-150892970D01*
X122278973Y-150925000D01*
X122114778Y-150925000D01*
X121963082Y-150987835D01*
X121802054Y-151019865D01*
X121665540Y-151111080D01*
X121513847Y-151173914D01*
X121397746Y-151290015D01*
X112222762Y-160465000D01*
X110772440Y-160465000D01*
X110772440Y-160175000D01*
X110723157Y-159927235D01*
X110582809Y-159717191D01*
X110372765Y-159576843D01*
X110125000Y-159527560D01*
X106675000Y-159527560D01*
X106427235Y-159576843D01*
X106217191Y-159717191D01*
X106076843Y-159927235D01*
X106027560Y-160175000D01*
X106027560Y-160465000D01*
X105535000Y-160465000D01*
X105535000Y-159338969D01*
X105440136Y-158862055D01*
X105078769Y-158321231D01*
X104537944Y-157959864D01*
X103900000Y-157832969D01*
X103262055Y-157959864D01*
X102721231Y-158321231D01*
X102598968Y-158504211D01*
X102575030Y-158446706D01*
X102120569Y-158268560D01*
X101632527Y-158277890D01*
X101224970Y-158446706D01*
X101144133Y-158640896D01*
X101900000Y-159396762D01*
X101914142Y-159382620D01*
X102017380Y-159485858D01*
X102003238Y-159500000D01*
X102017380Y-159514142D01*
X101914142Y-159617380D01*
X101900000Y-159603238D01*
X101144133Y-160359104D01*
X101188215Y-160465000D01*
X93577238Y-160465000D01*
X93297440Y-160185202D01*
X93297440Y-159750000D01*
X93229126Y-159406565D01*
X93144179Y-159279431D01*
X100668560Y-159279431D01*
X100677890Y-159767473D01*
X100846706Y-160175030D01*
X101040896Y-160255867D01*
X101796762Y-159500000D01*
X101040896Y-158744133D01*
X100846706Y-158824970D01*
X100668560Y-159279431D01*
X93144179Y-159279431D01*
X93034586Y-159115414D01*
X92743435Y-158920874D01*
X92400000Y-158852560D01*
X91600000Y-158852560D01*
X91256565Y-158920874D01*
X90965414Y-159115414D01*
X90770874Y-159406565D01*
X90723926Y-159642586D01*
X90637065Y-159659864D01*
X90423505Y-159802560D01*
X89875000Y-159802560D01*
X89756055Y-159838574D01*
X89575000Y-159802560D01*
X89535000Y-159802560D01*
X89535000Y-158550808D01*
X89643750Y-158572440D01*
X90556250Y-158572440D01*
X90897294Y-158504602D01*
X91186416Y-158311416D01*
X91379602Y-158022294D01*
X91447440Y-157681250D01*
X91447440Y-157193750D01*
X91379602Y-156852706D01*
X91186416Y-156563584D01*
X90991052Y-156433045D01*
X91041876Y-156411993D01*
X91161993Y-156291876D01*
X91227000Y-156134935D01*
X91227000Y-155742250D01*
X91120250Y-155635500D01*
X90173000Y-155635500D01*
X90173000Y-155655500D01*
X90027000Y-155655500D01*
X90027000Y-155635500D01*
X90007000Y-155635500D01*
X90007000Y-155489500D01*
X90027000Y-155489500D01*
X90027000Y-154754750D01*
X90173000Y-154754750D01*
X90173000Y-155489500D01*
X91120250Y-155489500D01*
X91227000Y-155382750D01*
X91227000Y-154990065D01*
X91161993Y-154833124D01*
X91041876Y-154713007D01*
X90884936Y-154648000D01*
X90279750Y-154648000D01*
X90173000Y-154754750D01*
X90027000Y-154754750D01*
X89920250Y-154648000D01*
X89536796Y-154648000D01*
X89440136Y-154162055D01*
X89382757Y-154076181D01*
X89348157Y-153902235D01*
X89207809Y-153692191D01*
X88997765Y-153551843D01*
X88965240Y-153545373D01*
X88537945Y-153259864D01*
X88213440Y-153195316D01*
X88435732Y-153195316D01*
X88767209Y-153129381D01*
X89048221Y-152941615D01*
X89124113Y-152828034D01*
X89400625Y-152828034D01*
X89579228Y-153229866D01*
X89898011Y-153532762D01*
X90251967Y-153679367D01*
X90427000Y-153597635D01*
X90427000Y-152653000D01*
X90573000Y-152653000D01*
X90573000Y-153597635D01*
X90748033Y-153679367D01*
X91101989Y-153532762D01*
X91420772Y-153229866D01*
X91599375Y-152828034D01*
X91576898Y-152779750D01*
X93123000Y-152779750D01*
X93123000Y-153934936D01*
X93188007Y-154091876D01*
X93308124Y-154211993D01*
X93465065Y-154277000D01*
X95020250Y-154277000D01*
X95127000Y-154170250D01*
X95127000Y-152673000D01*
X95273000Y-152673000D01*
X95273000Y-154170250D01*
X95379750Y-154277000D01*
X96934935Y-154277000D01*
X97091876Y-154211993D01*
X97211993Y-154091876D01*
X97277000Y-153934936D01*
X97277000Y-152779750D01*
X97170250Y-152673000D01*
X95273000Y-152673000D01*
X95127000Y-152673000D01*
X93229750Y-152673000D01*
X93123000Y-152779750D01*
X91576898Y-152779750D01*
X91517891Y-152653000D01*
X90573000Y-152653000D01*
X90427000Y-152653000D01*
X89482109Y-152653000D01*
X89400625Y-152828034D01*
X89124113Y-152828034D01*
X89235987Y-152660603D01*
X89301357Y-152331966D01*
X89400625Y-152331966D01*
X89482109Y-152507000D01*
X90427000Y-152507000D01*
X90427000Y-151562365D01*
X90573000Y-151562365D01*
X90573000Y-152507000D01*
X91517891Y-152507000D01*
X91599375Y-152331966D01*
X91420772Y-151930134D01*
X91101989Y-151627238D01*
X90748033Y-151480633D01*
X90573000Y-151562365D01*
X90427000Y-151562365D01*
X90251967Y-151480633D01*
X89898011Y-151627238D01*
X89579228Y-151930134D01*
X89400625Y-152331966D01*
X89301357Y-152331966D01*
X89301922Y-152329126D01*
X89301922Y-151891626D01*
X89235987Y-151560149D01*
X89048221Y-151279137D01*
X89027160Y-151265064D01*
X93123000Y-151265064D01*
X93123000Y-152420250D01*
X93229750Y-152527000D01*
X95127000Y-152527000D01*
X95127000Y-151029750D01*
X95273000Y-151029750D01*
X95273000Y-152527000D01*
X97170250Y-152527000D01*
X97277000Y-152420250D01*
X97277000Y-152234778D01*
X108105000Y-152234778D01*
X108105000Y-152885222D01*
X108353914Y-153486153D01*
X108813847Y-153946086D01*
X109414778Y-154195000D01*
X110065222Y-154195000D01*
X110666153Y-153946086D01*
X111048693Y-153563546D01*
X116459691Y-153563546D01*
X116564933Y-153778511D01*
X117091758Y-153990016D01*
X117659420Y-153983815D01*
X118155067Y-153778511D01*
X118260309Y-153563546D01*
X117360000Y-152663238D01*
X116459691Y-153563546D01*
X111048693Y-153563546D01*
X111126086Y-153486153D01*
X111375000Y-152885222D01*
X111375000Y-152291758D01*
X115929984Y-152291758D01*
X115936185Y-152859420D01*
X116141489Y-153355067D01*
X116356454Y-153460309D01*
X117256762Y-152560000D01*
X117463238Y-152560000D01*
X118363546Y-153460309D01*
X118578511Y-153355067D01*
X118790016Y-152828242D01*
X118783815Y-152260580D01*
X118578511Y-151764933D01*
X118363546Y-151659691D01*
X117463238Y-152560000D01*
X117256762Y-152560000D01*
X116356454Y-151659691D01*
X116141489Y-151764933D01*
X115929984Y-152291758D01*
X111375000Y-152291758D01*
X111375000Y-152234778D01*
X111126086Y-151633847D01*
X111048693Y-151556454D01*
X116459691Y-151556454D01*
X117360000Y-152456762D01*
X118260309Y-151556454D01*
X118155067Y-151341489D01*
X117628242Y-151129984D01*
X117060580Y-151136185D01*
X116564933Y-151341489D01*
X116459691Y-151556454D01*
X111048693Y-151556454D01*
X110666153Y-151173914D01*
X110065222Y-150925000D01*
X109414778Y-150925000D01*
X108813847Y-151173914D01*
X108353914Y-151633847D01*
X108105000Y-152234778D01*
X97277000Y-152234778D01*
X97277000Y-151265064D01*
X97211993Y-151108124D01*
X97091876Y-150988007D01*
X96934935Y-150923000D01*
X95379750Y-150923000D01*
X95273000Y-151029750D01*
X95127000Y-151029750D01*
X95020250Y-150923000D01*
X93465065Y-150923000D01*
X93308124Y-150988007D01*
X93188007Y-151108124D01*
X93123000Y-151265064D01*
X89027160Y-151265064D01*
X88990595Y-151240632D01*
X89016475Y-151214752D01*
X89081482Y-151057811D01*
X89081482Y-150715126D01*
X88974732Y-150608376D01*
X88252482Y-150608376D01*
X88252482Y-150628376D01*
X88106482Y-150628376D01*
X88106482Y-150608376D01*
X88086482Y-150608376D01*
X88086482Y-150462376D01*
X88106482Y-150462376D01*
X88106482Y-149965768D01*
X88127000Y-149945250D01*
X88127000Y-149777626D01*
X88252482Y-149777626D01*
X88252482Y-150462376D01*
X88974732Y-150462376D01*
X89081482Y-150355626D01*
X89081482Y-150012941D01*
X89025670Y-149878199D01*
X89036993Y-149866876D01*
X89102000Y-149709935D01*
X89102000Y-149367250D01*
X88995250Y-149260500D01*
X88273000Y-149260500D01*
X88273000Y-149757108D01*
X88252482Y-149777626D01*
X88127000Y-149777626D01*
X88127000Y-149260500D01*
X88107000Y-149260500D01*
X88107000Y-149114500D01*
X88127000Y-149114500D01*
X88127000Y-149094500D01*
X88273000Y-149094500D01*
X88273000Y-149114500D01*
X88995250Y-149114500D01*
X89102000Y-149007750D01*
X89102000Y-148665065D01*
X89036993Y-148508124D01*
X89011113Y-148482244D01*
X89068739Y-148443739D01*
X89256505Y-148162727D01*
X89280192Y-148043645D01*
X89368242Y-148256217D01*
X89743783Y-148631758D01*
X90234452Y-148835000D01*
X90765548Y-148835000D01*
X91256217Y-148631758D01*
X91631758Y-148256217D01*
X91835000Y-147765548D01*
X91835000Y-147435000D01*
X93043541Y-147435000D01*
X93092191Y-147507809D01*
X93302235Y-147648157D01*
X93550000Y-147697440D01*
X96850000Y-147697440D01*
X97097765Y-147648157D01*
X97307809Y-147507809D01*
X97448157Y-147297765D01*
X97497440Y-147050000D01*
X97497440Y-146127000D01*
X100927560Y-146127000D01*
X100927560Y-146650000D01*
G04 #@! TD*
M02*
