M48
INCH,TZ
T1C0.0118
T2C0.0236
T3C0.0276
T4C0.0315
T5C0.0320
T6C0.0354
T7C0.0394
T8C0.0400
T9C0.0433
T10C0.0512
T11C0.0630
T12C0.0689
T13C0.0728
T14C0.0827
%
G90
G05
T1
X24409Y-36220
X24409Y-38189
X24409Y-40157
X24409Y-42913
X26378Y-36220
X27559Y-42913
X28346Y-36220
X29134Y-40551
X29528Y-42913
X29606Y-60866
X29606Y-61220
X29606Y-61575
X29606Y-61929
X29606Y-62283
X29882Y-57992
X29882Y-58346
X29882Y-58701
X29882Y-59055
X29882Y-59409
X29961Y-60866
X29961Y-61220
X29961Y-61575
X29961Y-61929
X29961Y-62283
X30236Y-57992
X30236Y-58346
X30236Y-58701
X30236Y-59055
X30236Y-59409
X30315Y-36220
X30315Y-60866
X30315Y-61220
X30315Y-61575
X30315Y-61929
X30315Y-62283
X30591Y-57992
X30591Y-58346
X30591Y-58701
X30591Y-59055
X30591Y-59409
X30669Y-60866
X30669Y-61220
X30669Y-61575
X30669Y-61929
X30669Y-62283
X30945Y-57992
X30945Y-58346
X30945Y-58701
X30945Y-59055
X30945Y-59409
X31496Y-43307
X32283Y-36220
X32283Y-40551
X33071Y-44882
X34252Y-36220
X34252Y-46063
X35039Y-38583
X35039Y-39764
X35433Y-59055
X35433Y-64173
X36220Y-36220
X36220Y-47638
X36220Y-59055
X36614Y-61811
X37008Y-42126
X37008Y-48819
X37008Y-50787
X37008Y-52756
X37402Y-39370
X37795Y-59055
X38189Y-36220
X38189Y-44488
X38189Y-53937
X38189Y-59055
X38583Y-59055
X38583Y-62598
X38976Y-51575
X39173Y-58189
X39173Y-58189
X39173Y-58189
X39173Y-58189
X39173Y-58189
X39370Y-55118
X39764Y-43701
X40157Y-36220
X40157Y-55906
X41339Y-40551
X41339Y-57087
X41732Y-46850
X42126Y-36220
X42126Y-45669
X42126Y-58661
X42520Y-57087
X43307Y-50787
X43307Y-53150
X44094Y-58661
X44488Y-36220
X44488Y-57087
X44882Y-41732
X45276Y-46850
X45669Y-41732
X46457Y-36220
X46457Y-57087
X46457Y-58661
X46457Y-63780
X46850Y-42913
X46850Y-44882
X47874Y-39843
X48061Y-63740
X48425Y-36220
X48425Y-57087
X48425Y-58661
X49370Y-42913
X49370Y-44882
X49370Y-46850
X49606Y-49606
X50000Y-40945
X50394Y-36220
X50394Y-57087
X50394Y-58661
X50787Y-49606
X52362Y-36220
X52362Y-38189
X52362Y-40157
X52362Y-43307
X52362Y-45276
X52362Y-49606
X52362Y-51181
X52362Y-53150
X52362Y-55118
X52362Y-57087
X52362Y-58661
X52362Y-60236
X52362Y-62205
X52362Y-64173
T3
X35630Y-58071
X35630Y-60071
T4
X40118Y-62795
X40906Y-62795
X35354Y-41732
X35354Y-42732
X38354Y-41732
X38354Y-42732
X51299Y-47520
X52087Y-47520
T5
X35039Y-45000
X35039Y-46969
X39961Y-45000
X39961Y-46969
T6
X47043Y-42043
X47543Y-41043
X48043Y-42043
X48543Y-41043
X42319Y-42043
X42819Y-41043
X43319Y-42043
X43819Y-41043
T7
X43189Y-46063
X48425Y-46063
X28701Y-59213
T8
X43205Y-52063
X43205Y-60063
X46205Y-60063
X47205Y-52063
X48205Y-60063
X51205Y-52063
T9
X39173Y-50197
X39173Y-54213
T10
X27854Y-37283
X29232Y-39252
X31240Y-37283
X32618Y-39252
X38012Y-37283
X39390Y-39252
X34626Y-37283
X36004Y-39252
T11
X24843Y-60984
X26811Y-60984
X24843Y-51535
X26811Y-51535
X24843Y-58228
X26811Y-58228
X24843Y-54291
X26811Y-54291
T12
X42677Y-47992
X42677Y-63740
X49528Y-47992
X49528Y-63740
T13
X28583Y-41850
X30433Y-41850
X32283Y-41850
X43898Y-43937
X45748Y-43937
X47598Y-43937
T14
X33110Y-48701
X34110Y-55709
T2
X24378Y-44834G85X24378Y-45267
G05
X24378Y-48434G85X24378Y-48867
G05
X28378Y-44649G85X28378Y-45452
G05
X28378Y-48249G85X28378Y-49052
G05
T0
M30
