G04 #@! TF.GenerationSoftware,KiCad,Pcbnew,(5.0.2)-1*
G04 #@! TF.CreationDate,2019-05-09T19:07:32+02:00*
G04 #@! TF.ProjectId,SystemSupply,53797374-656d-4537-9570-706c792e6b69,rev?*
G04 #@! TF.SameCoordinates,Original*
G04 #@! TF.FileFunction,Copper,L1,Top*
G04 #@! TF.FilePolarity,Positive*
%FSLAX46Y46*%
G04 Gerber Fmt 4.6, Leading zero omitted, Abs format (unit mm)*
G04 Created by KiCad (PCBNEW (5.0.2)-1) date 09.05.2019 19:07:32*
%MOMM*%
%LPD*%
G01*
G04 APERTURE LIST*
G04 #@! TA.AperFunction,ComponentPad*
%ADD10R,3.450000X3.450000*%
G04 #@! TD*
G04 #@! TA.AperFunction,ComponentPad*
%ADD11C,4.200000*%
G04 #@! TD*
G04 #@! TA.AperFunction,ComponentPad*
%ADD12C,2.200000*%
G04 #@! TD*
G04 #@! TA.AperFunction,ComponentPad*
%ADD13O,3.048000X1.727200*%
G04 #@! TD*
G04 #@! TA.AperFunction,ComponentPad*
%ADD14C,1.800000*%
G04 #@! TD*
G04 #@! TA.AperFunction,ComponentPad*
%ADD15R,2.600000X2.600000*%
G04 #@! TD*
G04 #@! TA.AperFunction,ComponentPad*
%ADD16C,2.600000*%
G04 #@! TD*
G04 #@! TA.AperFunction,ComponentPad*
%ADD17O,2.000000X4.700000*%
G04 #@! TD*
G04 #@! TA.AperFunction,ComponentPad*
%ADD18O,2.000000X4.750000*%
G04 #@! TD*
G04 #@! TA.AperFunction,ComponentPad*
%ADD19O,4.000000X2.400000*%
G04 #@! TD*
G04 #@! TA.AperFunction,ComponentPad*
%ADD20O,4.000000X2.500000*%
G04 #@! TD*
G04 #@! TA.AperFunction,ComponentPad*
%ADD21C,1.600000*%
G04 #@! TD*
G04 #@! TA.AperFunction,ComponentPad*
%ADD22C,2.000000*%
G04 #@! TD*
G04 #@! TA.AperFunction,SMDPad,CuDef*
%ADD23C,0.300000*%
G04 #@! TD*
G04 #@! TA.AperFunction,Conductor*
%ADD24C,0.100000*%
G04 #@! TD*
G04 #@! TA.AperFunction,SMDPad,CuDef*
%ADD25R,3.300000X2.500000*%
G04 #@! TD*
G04 #@! TA.AperFunction,SMDPad,CuDef*
%ADD26C,1.125000*%
G04 #@! TD*
G04 #@! TA.AperFunction,SMDPad,CuDef*
%ADD27C,0.875000*%
G04 #@! TD*
G04 #@! TA.AperFunction,ComponentPad*
%ADD28C,3.700000*%
G04 #@! TD*
G04 #@! TA.AperFunction,SMDPad,CuDef*
%ADD29R,10.800000X9.400000*%
G04 #@! TD*
G04 #@! TA.AperFunction,SMDPad,CuDef*
%ADD30R,1.100000X4.600000*%
G04 #@! TD*
G04 #@! TA.AperFunction,SMDPad,CuDef*
%ADD31C,0.975000*%
G04 #@! TD*
G04 #@! TA.AperFunction,SMDPad,CuDef*
%ADD32R,1.300000X1.700000*%
G04 #@! TD*
G04 #@! TA.AperFunction,SMDPad,CuDef*
%ADD33R,1.700000X1.300000*%
G04 #@! TD*
G04 #@! TA.AperFunction,SMDPad,CuDef*
%ADD34C,1.300000*%
G04 #@! TD*
G04 #@! TA.AperFunction,ComponentPad*
%ADD35O,2.400000X1.600000*%
G04 #@! TD*
G04 #@! TA.AperFunction,ComponentPad*
%ADD36R,2.400000X1.600000*%
G04 #@! TD*
G04 #@! TA.AperFunction,SMDPad,CuDef*
%ADD37R,0.800000X0.900000*%
G04 #@! TD*
G04 #@! TA.AperFunction,SMDPad,CuDef*
%ADD38R,1.060000X0.650000*%
G04 #@! TD*
G04 #@! TA.AperFunction,ComponentPad*
%ADD39O,1.400000X1.400000*%
G04 #@! TD*
G04 #@! TA.AperFunction,ComponentPad*
%ADD40C,1.400000*%
G04 #@! TD*
G04 #@! TA.AperFunction,ViaPad*
%ADD41C,0.600000*%
G04 #@! TD*
G04 #@! TA.AperFunction,Conductor*
%ADD42C,0.250000*%
G04 #@! TD*
G04 #@! TA.AperFunction,Conductor*
%ADD43C,0.300000*%
G04 #@! TD*
G04 #@! TA.AperFunction,Conductor*
%ADD44C,5.000000*%
G04 #@! TD*
G04 #@! TA.AperFunction,Conductor*
%ADD45C,1.000000*%
G04 #@! TD*
G04 #@! TA.AperFunction,Conductor*
%ADD46C,0.500000*%
G04 #@! TD*
G04 #@! TA.AperFunction,Conductor*
%ADD47C,2.000000*%
G04 #@! TD*
G04 #@! TA.AperFunction,Conductor*
%ADD48C,0.254000*%
G04 #@! TD*
G04 APERTURE END LIST*
D10*
G04 #@! TO.P,U2,4*
G04 #@! TO.N,GND*
X125800000Y-121900000D03*
G04 #@! TO.P,U2,3*
G04 #@! TO.N,/OUT+*
X108400000Y-121900000D03*
G04 #@! TO.P,U2,2*
G04 #@! TO.N,GNDPWR*
X125800000Y-161900000D03*
G04 #@! TO.P,U2,1*
G04 #@! TO.N,/IN+*
X108400000Y-161900000D03*
G04 #@! TD*
D11*
G04 #@! TO.P,K1,14*
G04 #@! TO.N,Net-(F1-Pad1)*
X84100000Y-123700000D03*
G04 #@! TO.P,K1,11*
G04 #@! TO.N,Net-(D1-Pad1)*
X86640000Y-141500000D03*
D12*
G04 #@! TO.P,K1,A1*
G04 #@! TO.N,Net-(J6-Pad1)*
X99500000Y-127500000D03*
G04 #@! TO.P,K1,A2*
G04 #@! TO.N,Net-(J6-Pad2)*
X99500000Y-137700000D03*
G04 #@! TD*
D13*
G04 #@! TO.P,SW3,1*
G04 #@! TO.N,Net-(D6-Pad2)*
X101500000Y-114300000D03*
G04 #@! TO.P,SW3,2*
G04 #@! TO.N,GND*
X101500000Y-119300000D03*
G04 #@! TO.P,SW3,1*
G04 #@! TO.N,Net-(D6-Pad2)*
X89000000Y-114300000D03*
G04 #@! TO.P,SW3,2*
G04 #@! TO.N,GND*
X89000000Y-119300000D03*
G04 #@! TD*
D14*
G04 #@! TO.P,J3,1*
G04 #@! TO.N,GND*
X123300000Y-104250000D03*
G04 #@! TO.P,J3,2*
G04 #@! TO.N,Net-(D2-Pad1)*
X122030000Y-106790000D03*
G04 #@! TO.P,J3,4*
G04 #@! TO.N,Net-(J3-Pad4)*
X119490000Y-106790000D03*
G04 #@! TO.P,J3,3*
G04 #@! TO.N,Net-(J3-Pad3)*
X120760000Y-104250000D03*
G04 #@! TD*
G04 #@! TO.P,J7,1*
G04 #@! TO.N,GND*
X111300000Y-104250000D03*
G04 #@! TO.P,J7,2*
G04 #@! TO.N,Net-(D2-Pad1)*
X110030000Y-106790000D03*
G04 #@! TO.P,J7,4*
G04 #@! TO.N,Net-(J3-Pad4)*
X107490000Y-106790000D03*
G04 #@! TO.P,J7,3*
G04 #@! TO.N,Net-(J3-Pad3)*
X108760000Y-104250000D03*
G04 #@! TD*
D15*
G04 #@! TO.P,J10,1*
G04 #@! TO.N,Net-(D7-Pad2)*
X87950000Y-94700000D03*
D16*
G04 #@! TO.P,J10,2*
G04 #@! TO.N,Net-(J10-Pad2)*
X91450000Y-99700000D03*
G04 #@! TD*
D15*
G04 #@! TO.P,J9,1*
G04 #@! TO.N,Net-(D6-Pad2)*
X96550000Y-94700000D03*
D16*
G04 #@! TO.P,J9,2*
G04 #@! TO.N,+12V*
X100050000Y-99700000D03*
G04 #@! TD*
D15*
G04 #@! TO.P,J8,1*
G04 #@! TO.N,GND*
X70750000Y-94700000D03*
D16*
G04 #@! TO.P,J8,2*
G04 #@! TO.N,Net-(D5-Pad1)*
X74250000Y-99700000D03*
G04 #@! TD*
D15*
G04 #@! TO.P,J6,1*
G04 #@! TO.N,Net-(J6-Pad1)*
X79350000Y-94700000D03*
D16*
G04 #@! TO.P,J6,2*
G04 #@! TO.N,Net-(J6-Pad2)*
X82850000Y-99700000D03*
G04 #@! TD*
D17*
G04 #@! TO.P,F1,2*
G04 #@! TO.N,Net-(F1-Pad2)*
X61920000Y-123572000D03*
D18*
X72080000Y-123572000D03*
D17*
G04 #@! TO.P,F1,1*
G04 #@! TO.N,Net-(F1-Pad1)*
X61920000Y-114428000D03*
D18*
X72080000Y-114428000D03*
G04 #@! TD*
D19*
G04 #@! TO.P,J4,1*
G04 #@! TO.N,GNDPWR*
X68100000Y-137900000D03*
D20*
X63100000Y-137900000D03*
G04 #@! TD*
D19*
G04 #@! TO.P,J5,1*
G04 #@! TO.N,GNDPWR*
X68100000Y-147900000D03*
D20*
X63100000Y-147900000D03*
G04 #@! TD*
D19*
G04 #@! TO.P,J2,1*
G04 #@! TO.N,Net-(F1-Pad2)*
X68100000Y-130900000D03*
D20*
X63100000Y-130900000D03*
G04 #@! TD*
D19*
G04 #@! TO.P,J1,1*
G04 #@! TO.N,+24V*
X68100000Y-154900000D03*
D20*
X63100000Y-154900000D03*
G04 #@! TD*
D21*
G04 #@! TO.P,C4,2*
G04 #@! TO.N,GND*
X130300000Y-120700000D03*
G04 #@! TO.P,C4,1*
G04 #@! TO.N,+12V*
X132300000Y-120700000D03*
G04 #@! TD*
G04 #@! TO.P,C3,1*
G04 #@! TO.N,/IN+*
X103900000Y-159500000D03*
G04 #@! TO.P,C3,2*
G04 #@! TO.N,GNDPWR*
X101900000Y-159500000D03*
G04 #@! TD*
D22*
G04 #@! TO.P,TP1,1*
G04 #@! TO.N,Net-(D1-Pad1)*
X72900000Y-150400000D03*
G04 #@! TD*
G04 #@! TO.P,TP5,1*
G04 #@! TO.N,+12V*
X123000000Y-117000000D03*
G04 #@! TD*
G04 #@! TO.P,TP6,1*
G04 #@! TO.N,GND*
X109700000Y-117000000D03*
G04 #@! TD*
D23*
G04 #@! TO.P,JP5,1*
G04 #@! TO.N,/OUT+*
X131000000Y-126625000D03*
D24*
G04 #@! TD*
G04 #@! TO.N,/OUT+*
G04 #@! TO.C,JP5*
G36*
X131000000Y-125625000D02*
X131750000Y-126125000D01*
X131750000Y-127125000D01*
X130250000Y-127125000D01*
X130250000Y-126125000D01*
X131000000Y-125625000D01*
X131000000Y-125625000D01*
G37*
D23*
G04 #@! TO.P,JP5,2*
G04 #@! TO.N,+12V*
X131000000Y-125175000D03*
D24*
G04 #@! TD*
G04 #@! TO.N,+12V*
G04 #@! TO.C,JP5*
G36*
X131750000Y-124675000D02*
X131750000Y-125825000D01*
X131000000Y-125325000D01*
X130250000Y-125825000D01*
X130250000Y-124675000D01*
X131750000Y-124675000D01*
X131750000Y-124675000D01*
G37*
D25*
G04 #@! TO.P,D1,2*
G04 #@! TO.N,GNDPWR*
X95200000Y-152600000D03*
G04 #@! TO.P,D1,1*
G04 #@! TO.N,Net-(D1-Pad1)*
X95200000Y-145800000D03*
G04 #@! TD*
D24*
G04 #@! TO.N,/OUT+*
G04 #@! TO.C,L2*
G36*
X132474505Y-127476204D02*
X132498773Y-127479804D01*
X132522572Y-127485765D01*
X132545671Y-127494030D01*
X132567850Y-127504520D01*
X132588893Y-127517132D01*
X132608599Y-127531747D01*
X132626777Y-127548223D01*
X132643253Y-127566401D01*
X132657868Y-127586107D01*
X132670480Y-127607150D01*
X132680970Y-127629329D01*
X132689235Y-127652428D01*
X132695196Y-127676227D01*
X132698796Y-127700495D01*
X132700000Y-127724999D01*
X132700000Y-128350001D01*
X132698796Y-128374505D01*
X132695196Y-128398773D01*
X132689235Y-128422572D01*
X132680970Y-128445671D01*
X132670480Y-128467850D01*
X132657868Y-128488893D01*
X132643253Y-128508599D01*
X132626777Y-128526777D01*
X132608599Y-128543253D01*
X132588893Y-128557868D01*
X132567850Y-128570480D01*
X132545671Y-128580970D01*
X132522572Y-128589235D01*
X132498773Y-128595196D01*
X132474505Y-128598796D01*
X132450001Y-128600000D01*
X129549999Y-128600000D01*
X129525495Y-128598796D01*
X129501227Y-128595196D01*
X129477428Y-128589235D01*
X129454329Y-128580970D01*
X129432150Y-128570480D01*
X129411107Y-128557868D01*
X129391401Y-128543253D01*
X129373223Y-128526777D01*
X129356747Y-128508599D01*
X129342132Y-128488893D01*
X129329520Y-128467850D01*
X129319030Y-128445671D01*
X129310765Y-128422572D01*
X129304804Y-128398773D01*
X129301204Y-128374505D01*
X129300000Y-128350001D01*
X129300000Y-127724999D01*
X129301204Y-127700495D01*
X129304804Y-127676227D01*
X129310765Y-127652428D01*
X129319030Y-127629329D01*
X129329520Y-127607150D01*
X129342132Y-127586107D01*
X129356747Y-127566401D01*
X129373223Y-127548223D01*
X129391401Y-127531747D01*
X129411107Y-127517132D01*
X129432150Y-127504520D01*
X129454329Y-127494030D01*
X129477428Y-127485765D01*
X129501227Y-127479804D01*
X129525495Y-127476204D01*
X129549999Y-127475000D01*
X132450001Y-127475000D01*
X132474505Y-127476204D01*
X132474505Y-127476204D01*
G37*
D26*
G04 #@! TD*
G04 #@! TO.P,L2,2*
G04 #@! TO.N,/OUT+*
X131000000Y-128037500D03*
D24*
G04 #@! TO.N,+12V*
G04 #@! TO.C,L2*
G36*
X132474505Y-123201204D02*
X132498773Y-123204804D01*
X132522572Y-123210765D01*
X132545671Y-123219030D01*
X132567850Y-123229520D01*
X132588893Y-123242132D01*
X132608599Y-123256747D01*
X132626777Y-123273223D01*
X132643253Y-123291401D01*
X132657868Y-123311107D01*
X132670480Y-123332150D01*
X132680970Y-123354329D01*
X132689235Y-123377428D01*
X132695196Y-123401227D01*
X132698796Y-123425495D01*
X132700000Y-123449999D01*
X132700000Y-124075001D01*
X132698796Y-124099505D01*
X132695196Y-124123773D01*
X132689235Y-124147572D01*
X132680970Y-124170671D01*
X132670480Y-124192850D01*
X132657868Y-124213893D01*
X132643253Y-124233599D01*
X132626777Y-124251777D01*
X132608599Y-124268253D01*
X132588893Y-124282868D01*
X132567850Y-124295480D01*
X132545671Y-124305970D01*
X132522572Y-124314235D01*
X132498773Y-124320196D01*
X132474505Y-124323796D01*
X132450001Y-124325000D01*
X129549999Y-124325000D01*
X129525495Y-124323796D01*
X129501227Y-124320196D01*
X129477428Y-124314235D01*
X129454329Y-124305970D01*
X129432150Y-124295480D01*
X129411107Y-124282868D01*
X129391401Y-124268253D01*
X129373223Y-124251777D01*
X129356747Y-124233599D01*
X129342132Y-124213893D01*
X129329520Y-124192850D01*
X129319030Y-124170671D01*
X129310765Y-124147572D01*
X129304804Y-124123773D01*
X129301204Y-124099505D01*
X129300000Y-124075001D01*
X129300000Y-123449999D01*
X129301204Y-123425495D01*
X129304804Y-123401227D01*
X129310765Y-123377428D01*
X129319030Y-123354329D01*
X129329520Y-123332150D01*
X129342132Y-123311107D01*
X129356747Y-123291401D01*
X129373223Y-123273223D01*
X129391401Y-123256747D01*
X129411107Y-123242132D01*
X129432150Y-123229520D01*
X129454329Y-123219030D01*
X129477428Y-123210765D01*
X129501227Y-123204804D01*
X129525495Y-123201204D01*
X129549999Y-123200000D01*
X132450001Y-123200000D01*
X132474505Y-123201204D01*
X132474505Y-123201204D01*
G37*
D26*
G04 #@! TD*
G04 #@! TO.P,L2,1*
G04 #@! TO.N,+12V*
X131000000Y-123762500D03*
D24*
G04 #@! TO.N,Net-(J10-Pad2)*
G04 #@! TO.C,R5*
G36*
X94827691Y-102726053D02*
X94848926Y-102729203D01*
X94869750Y-102734419D01*
X94889962Y-102741651D01*
X94909368Y-102750830D01*
X94927781Y-102761866D01*
X94945024Y-102774654D01*
X94960930Y-102789070D01*
X94975346Y-102804976D01*
X94988134Y-102822219D01*
X94999170Y-102840632D01*
X95008349Y-102860038D01*
X95015581Y-102880250D01*
X95020797Y-102901074D01*
X95023947Y-102922309D01*
X95025000Y-102943750D01*
X95025000Y-103456250D01*
X95023947Y-103477691D01*
X95020797Y-103498926D01*
X95015581Y-103519750D01*
X95008349Y-103539962D01*
X94999170Y-103559368D01*
X94988134Y-103577781D01*
X94975346Y-103595024D01*
X94960930Y-103610930D01*
X94945024Y-103625346D01*
X94927781Y-103638134D01*
X94909368Y-103649170D01*
X94889962Y-103658349D01*
X94869750Y-103665581D01*
X94848926Y-103670797D01*
X94827691Y-103673947D01*
X94806250Y-103675000D01*
X94368750Y-103675000D01*
X94347309Y-103673947D01*
X94326074Y-103670797D01*
X94305250Y-103665581D01*
X94285038Y-103658349D01*
X94265632Y-103649170D01*
X94247219Y-103638134D01*
X94229976Y-103625346D01*
X94214070Y-103610930D01*
X94199654Y-103595024D01*
X94186866Y-103577781D01*
X94175830Y-103559368D01*
X94166651Y-103539962D01*
X94159419Y-103519750D01*
X94154203Y-103498926D01*
X94151053Y-103477691D01*
X94150000Y-103456250D01*
X94150000Y-102943750D01*
X94151053Y-102922309D01*
X94154203Y-102901074D01*
X94159419Y-102880250D01*
X94166651Y-102860038D01*
X94175830Y-102840632D01*
X94186866Y-102822219D01*
X94199654Y-102804976D01*
X94214070Y-102789070D01*
X94229976Y-102774654D01*
X94247219Y-102761866D01*
X94265632Y-102750830D01*
X94285038Y-102741651D01*
X94305250Y-102734419D01*
X94326074Y-102729203D01*
X94347309Y-102726053D01*
X94368750Y-102725000D01*
X94806250Y-102725000D01*
X94827691Y-102726053D01*
X94827691Y-102726053D01*
G37*
D27*
G04 #@! TD*
G04 #@! TO.P,R5,2*
G04 #@! TO.N,Net-(J10-Pad2)*
X94587500Y-103200000D03*
D24*
G04 #@! TO.N,Net-(D7-Pad1)*
G04 #@! TO.C,R5*
G36*
X93252691Y-102726053D02*
X93273926Y-102729203D01*
X93294750Y-102734419D01*
X93314962Y-102741651D01*
X93334368Y-102750830D01*
X93352781Y-102761866D01*
X93370024Y-102774654D01*
X93385930Y-102789070D01*
X93400346Y-102804976D01*
X93413134Y-102822219D01*
X93424170Y-102840632D01*
X93433349Y-102860038D01*
X93440581Y-102880250D01*
X93445797Y-102901074D01*
X93448947Y-102922309D01*
X93450000Y-102943750D01*
X93450000Y-103456250D01*
X93448947Y-103477691D01*
X93445797Y-103498926D01*
X93440581Y-103519750D01*
X93433349Y-103539962D01*
X93424170Y-103559368D01*
X93413134Y-103577781D01*
X93400346Y-103595024D01*
X93385930Y-103610930D01*
X93370024Y-103625346D01*
X93352781Y-103638134D01*
X93334368Y-103649170D01*
X93314962Y-103658349D01*
X93294750Y-103665581D01*
X93273926Y-103670797D01*
X93252691Y-103673947D01*
X93231250Y-103675000D01*
X92793750Y-103675000D01*
X92772309Y-103673947D01*
X92751074Y-103670797D01*
X92730250Y-103665581D01*
X92710038Y-103658349D01*
X92690632Y-103649170D01*
X92672219Y-103638134D01*
X92654976Y-103625346D01*
X92639070Y-103610930D01*
X92624654Y-103595024D01*
X92611866Y-103577781D01*
X92600830Y-103559368D01*
X92591651Y-103539962D01*
X92584419Y-103519750D01*
X92579203Y-103498926D01*
X92576053Y-103477691D01*
X92575000Y-103456250D01*
X92575000Y-102943750D01*
X92576053Y-102922309D01*
X92579203Y-102901074D01*
X92584419Y-102880250D01*
X92591651Y-102860038D01*
X92600830Y-102840632D01*
X92611866Y-102822219D01*
X92624654Y-102804976D01*
X92639070Y-102789070D01*
X92654976Y-102774654D01*
X92672219Y-102761866D01*
X92690632Y-102750830D01*
X92710038Y-102741651D01*
X92730250Y-102734419D01*
X92751074Y-102729203D01*
X92772309Y-102726053D01*
X92793750Y-102725000D01*
X93231250Y-102725000D01*
X93252691Y-102726053D01*
X93252691Y-102726053D01*
G37*
D27*
G04 #@! TD*
G04 #@! TO.P,R5,1*
G04 #@! TO.N,Net-(D7-Pad1)*
X93012500Y-103200000D03*
D28*
G04 #@! TO.P,SW2,3*
G04 #@! TO.N,Net-(D5-Pad1)*
X72600000Y-106300000D03*
G04 #@! TO.P,SW2,2*
X77300000Y-106300000D03*
G04 #@! TO.P,SW2,1*
G04 #@! TO.N,+12V*
X82000000Y-106300000D03*
G04 #@! TD*
G04 #@! TO.P,SW1,3*
G04 #@! TO.N,Net-(D2-Pad1)*
X120900000Y-111600000D03*
G04 #@! TO.P,SW1,2*
X116200000Y-111600000D03*
G04 #@! TO.P,SW1,1*
G04 #@! TO.N,+12V*
X111500000Y-111600000D03*
G04 #@! TD*
D29*
G04 #@! TO.P,Q1,2*
G04 #@! TO.N,+24V*
X79700000Y-158600000D03*
D30*
G04 #@! TO.P,Q1,3*
G04 #@! TO.N,Net-(D1-Pad1)*
X77160000Y-149450000D03*
G04 #@! TO.P,Q1,1*
G04 #@! TO.N,Net-(Q1-Pad1)*
X82240000Y-149450000D03*
G04 #@! TD*
D22*
G04 #@! TO.P,U3,5*
G04 #@! TO.N,GND*
X109740000Y-132240000D03*
G04 #@! TO.P,U3,4*
G04 #@! TO.N,Net-(U3-Pad4)*
X119900000Y-132240000D03*
G04 #@! TO.P,U3,3*
G04 #@! TO.N,/OUT+*
X130060000Y-132240000D03*
G04 #@! TO.P,U3,6*
G04 #@! TO.N,Net-(U3-Pad6)*
X109740000Y-152560000D03*
G04 #@! TO.P,U3,1*
G04 #@! TO.N,/IN+*
X122440000Y-152560000D03*
G04 #@! TO.P,U3,2*
G04 #@! TO.N,GNDPWR*
X117360000Y-152560000D03*
G04 #@! TD*
D24*
G04 #@! TO.N,GNDPWR*
G04 #@! TO.C,C1*
G36*
X88457173Y-150098929D02*
X88478408Y-150102079D01*
X88499232Y-150107295D01*
X88519444Y-150114527D01*
X88538850Y-150123706D01*
X88557263Y-150134742D01*
X88574506Y-150147530D01*
X88590412Y-150161946D01*
X88604828Y-150177852D01*
X88617616Y-150195095D01*
X88628652Y-150213508D01*
X88637831Y-150232914D01*
X88645063Y-150253126D01*
X88650279Y-150273950D01*
X88653429Y-150295185D01*
X88654482Y-150316626D01*
X88654482Y-150754126D01*
X88653429Y-150775567D01*
X88650279Y-150796802D01*
X88645063Y-150817626D01*
X88637831Y-150837838D01*
X88628652Y-150857244D01*
X88617616Y-150875657D01*
X88604828Y-150892900D01*
X88590412Y-150908806D01*
X88574506Y-150923222D01*
X88557263Y-150936010D01*
X88538850Y-150947046D01*
X88519444Y-150956225D01*
X88499232Y-150963457D01*
X88478408Y-150968673D01*
X88457173Y-150971823D01*
X88435732Y-150972876D01*
X87923232Y-150972876D01*
X87901791Y-150971823D01*
X87880556Y-150968673D01*
X87859732Y-150963457D01*
X87839520Y-150956225D01*
X87820114Y-150947046D01*
X87801701Y-150936010D01*
X87784458Y-150923222D01*
X87768552Y-150908806D01*
X87754136Y-150892900D01*
X87741348Y-150875657D01*
X87730312Y-150857244D01*
X87721133Y-150837838D01*
X87713901Y-150817626D01*
X87708685Y-150796802D01*
X87705535Y-150775567D01*
X87704482Y-150754126D01*
X87704482Y-150316626D01*
X87705535Y-150295185D01*
X87708685Y-150273950D01*
X87713901Y-150253126D01*
X87721133Y-150232914D01*
X87730312Y-150213508D01*
X87741348Y-150195095D01*
X87754136Y-150177852D01*
X87768552Y-150161946D01*
X87784458Y-150147530D01*
X87801701Y-150134742D01*
X87820114Y-150123706D01*
X87839520Y-150114527D01*
X87859732Y-150107295D01*
X87880556Y-150102079D01*
X87901791Y-150098929D01*
X87923232Y-150097876D01*
X88435732Y-150097876D01*
X88457173Y-150098929D01*
X88457173Y-150098929D01*
G37*
D27*
G04 #@! TD*
G04 #@! TO.P,C1,2*
G04 #@! TO.N,GNDPWR*
X88179482Y-150535376D03*
D24*
G04 #@! TO.N,Net-(C1-Pad1)*
G04 #@! TO.C,C1*
G36*
X88457173Y-151673929D02*
X88478408Y-151677079D01*
X88499232Y-151682295D01*
X88519444Y-151689527D01*
X88538850Y-151698706D01*
X88557263Y-151709742D01*
X88574506Y-151722530D01*
X88590412Y-151736946D01*
X88604828Y-151752852D01*
X88617616Y-151770095D01*
X88628652Y-151788508D01*
X88637831Y-151807914D01*
X88645063Y-151828126D01*
X88650279Y-151848950D01*
X88653429Y-151870185D01*
X88654482Y-151891626D01*
X88654482Y-152329126D01*
X88653429Y-152350567D01*
X88650279Y-152371802D01*
X88645063Y-152392626D01*
X88637831Y-152412838D01*
X88628652Y-152432244D01*
X88617616Y-152450657D01*
X88604828Y-152467900D01*
X88590412Y-152483806D01*
X88574506Y-152498222D01*
X88557263Y-152511010D01*
X88538850Y-152522046D01*
X88519444Y-152531225D01*
X88499232Y-152538457D01*
X88478408Y-152543673D01*
X88457173Y-152546823D01*
X88435732Y-152547876D01*
X87923232Y-152547876D01*
X87901791Y-152546823D01*
X87880556Y-152543673D01*
X87859732Y-152538457D01*
X87839520Y-152531225D01*
X87820114Y-152522046D01*
X87801701Y-152511010D01*
X87784458Y-152498222D01*
X87768552Y-152483806D01*
X87754136Y-152467900D01*
X87741348Y-152450657D01*
X87730312Y-152432244D01*
X87721133Y-152412838D01*
X87713901Y-152392626D01*
X87708685Y-152371802D01*
X87705535Y-152350567D01*
X87704482Y-152329126D01*
X87704482Y-151891626D01*
X87705535Y-151870185D01*
X87708685Y-151848950D01*
X87713901Y-151828126D01*
X87721133Y-151807914D01*
X87730312Y-151788508D01*
X87741348Y-151770095D01*
X87754136Y-151752852D01*
X87768552Y-151736946D01*
X87784458Y-151722530D01*
X87801701Y-151709742D01*
X87820114Y-151698706D01*
X87839520Y-151689527D01*
X87859732Y-151682295D01*
X87880556Y-151677079D01*
X87901791Y-151673929D01*
X87923232Y-151672876D01*
X88435732Y-151672876D01*
X88457173Y-151673929D01*
X88457173Y-151673929D01*
G37*
D27*
G04 #@! TD*
G04 #@! TO.P,C1,1*
G04 #@! TO.N,Net-(C1-Pad1)*
X88179482Y-152110376D03*
D24*
G04 #@! TO.N,GNDPWR*
G04 #@! TO.C,C2*
G36*
X90580142Y-155076174D02*
X90603803Y-155079684D01*
X90627007Y-155085496D01*
X90649529Y-155093554D01*
X90671153Y-155103782D01*
X90691670Y-155116079D01*
X90710883Y-155130329D01*
X90728607Y-155146393D01*
X90744671Y-155164117D01*
X90758921Y-155183330D01*
X90771218Y-155203847D01*
X90781446Y-155225471D01*
X90789504Y-155247993D01*
X90795316Y-155271197D01*
X90798826Y-155294858D01*
X90800000Y-155318750D01*
X90800000Y-155806250D01*
X90798826Y-155830142D01*
X90795316Y-155853803D01*
X90789504Y-155877007D01*
X90781446Y-155899529D01*
X90771218Y-155921153D01*
X90758921Y-155941670D01*
X90744671Y-155960883D01*
X90728607Y-155978607D01*
X90710883Y-155994671D01*
X90691670Y-156008921D01*
X90671153Y-156021218D01*
X90649529Y-156031446D01*
X90627007Y-156039504D01*
X90603803Y-156045316D01*
X90580142Y-156048826D01*
X90556250Y-156050000D01*
X89643750Y-156050000D01*
X89619858Y-156048826D01*
X89596197Y-156045316D01*
X89572993Y-156039504D01*
X89550471Y-156031446D01*
X89528847Y-156021218D01*
X89508330Y-156008921D01*
X89489117Y-155994671D01*
X89471393Y-155978607D01*
X89455329Y-155960883D01*
X89441079Y-155941670D01*
X89428782Y-155921153D01*
X89418554Y-155899529D01*
X89410496Y-155877007D01*
X89404684Y-155853803D01*
X89401174Y-155830142D01*
X89400000Y-155806250D01*
X89400000Y-155318750D01*
X89401174Y-155294858D01*
X89404684Y-155271197D01*
X89410496Y-155247993D01*
X89418554Y-155225471D01*
X89428782Y-155203847D01*
X89441079Y-155183330D01*
X89455329Y-155164117D01*
X89471393Y-155146393D01*
X89489117Y-155130329D01*
X89508330Y-155116079D01*
X89528847Y-155103782D01*
X89550471Y-155093554D01*
X89572993Y-155085496D01*
X89596197Y-155079684D01*
X89619858Y-155076174D01*
X89643750Y-155075000D01*
X90556250Y-155075000D01*
X90580142Y-155076174D01*
X90580142Y-155076174D01*
G37*
D31*
G04 #@! TD*
G04 #@! TO.P,C2,2*
G04 #@! TO.N,GNDPWR*
X90100000Y-155562500D03*
D24*
G04 #@! TO.N,Net-(C2-Pad1)*
G04 #@! TO.C,C2*
G36*
X90580142Y-156951174D02*
X90603803Y-156954684D01*
X90627007Y-156960496D01*
X90649529Y-156968554D01*
X90671153Y-156978782D01*
X90691670Y-156991079D01*
X90710883Y-157005329D01*
X90728607Y-157021393D01*
X90744671Y-157039117D01*
X90758921Y-157058330D01*
X90771218Y-157078847D01*
X90781446Y-157100471D01*
X90789504Y-157122993D01*
X90795316Y-157146197D01*
X90798826Y-157169858D01*
X90800000Y-157193750D01*
X90800000Y-157681250D01*
X90798826Y-157705142D01*
X90795316Y-157728803D01*
X90789504Y-157752007D01*
X90781446Y-157774529D01*
X90771218Y-157796153D01*
X90758921Y-157816670D01*
X90744671Y-157835883D01*
X90728607Y-157853607D01*
X90710883Y-157869671D01*
X90691670Y-157883921D01*
X90671153Y-157896218D01*
X90649529Y-157906446D01*
X90627007Y-157914504D01*
X90603803Y-157920316D01*
X90580142Y-157923826D01*
X90556250Y-157925000D01*
X89643750Y-157925000D01*
X89619858Y-157923826D01*
X89596197Y-157920316D01*
X89572993Y-157914504D01*
X89550471Y-157906446D01*
X89528847Y-157896218D01*
X89508330Y-157883921D01*
X89489117Y-157869671D01*
X89471393Y-157853607D01*
X89455329Y-157835883D01*
X89441079Y-157816670D01*
X89428782Y-157796153D01*
X89418554Y-157774529D01*
X89410496Y-157752007D01*
X89404684Y-157728803D01*
X89401174Y-157705142D01*
X89400000Y-157681250D01*
X89400000Y-157193750D01*
X89401174Y-157169858D01*
X89404684Y-157146197D01*
X89410496Y-157122993D01*
X89418554Y-157100471D01*
X89428782Y-157078847D01*
X89441079Y-157058330D01*
X89455329Y-157039117D01*
X89471393Y-157021393D01*
X89489117Y-157005329D01*
X89508330Y-156991079D01*
X89528847Y-156978782D01*
X89550471Y-156968554D01*
X89572993Y-156960496D01*
X89596197Y-156954684D01*
X89619858Y-156951174D01*
X89643750Y-156950000D01*
X90556250Y-156950000D01*
X90580142Y-156951174D01*
X90580142Y-156951174D01*
G37*
D31*
G04 #@! TD*
G04 #@! TO.P,C2,1*
G04 #@! TO.N,Net-(C2-Pad1)*
X90100000Y-157437500D03*
D32*
G04 #@! TO.P,D6,2*
G04 #@! TO.N,Net-(D6-Pad2)*
X96350000Y-103300000D03*
G04 #@! TO.P,D6,1*
G04 #@! TO.N,+12V*
X99850000Y-103300000D03*
G04 #@! TD*
D33*
G04 #@! TO.P,D3,2*
G04 #@! TO.N,+24V*
X87900000Y-154800000D03*
G04 #@! TO.P,D3,1*
G04 #@! TO.N,Net-(C2-Pad1)*
X87900000Y-158300000D03*
G04 #@! TD*
D32*
G04 #@! TO.P,D7,2*
G04 #@! TO.N,Net-(D7-Pad2)*
X87650000Y-103300000D03*
G04 #@! TO.P,D7,1*
G04 #@! TO.N,Net-(D7-Pad1)*
X91150000Y-103300000D03*
G04 #@! TD*
D25*
G04 #@! TO.P,D5,2*
G04 #@! TO.N,GND*
X65000000Y-100600000D03*
G04 #@! TO.P,D5,1*
G04 #@! TO.N,Net-(D5-Pad1)*
X65000000Y-107400000D03*
G04 #@! TD*
G04 #@! TO.P,D2,2*
G04 #@! TO.N,GND*
X131000000Y-99600000D03*
G04 #@! TO.P,D2,1*
G04 #@! TO.N,Net-(D2-Pad1)*
X131000000Y-106400000D03*
G04 #@! TD*
D24*
G04 #@! TO.N,/IN+*
G04 #@! TO.C,L1*
G36*
X92424504Y-159501204D02*
X92448773Y-159504804D01*
X92472571Y-159510765D01*
X92495671Y-159519030D01*
X92517849Y-159529520D01*
X92538893Y-159542133D01*
X92558598Y-159556747D01*
X92576777Y-159573223D01*
X92593253Y-159591402D01*
X92607867Y-159611107D01*
X92620480Y-159632151D01*
X92630970Y-159654329D01*
X92639235Y-159677429D01*
X92645196Y-159701227D01*
X92648796Y-159725496D01*
X92650000Y-159750000D01*
X92650000Y-162650000D01*
X92648796Y-162674504D01*
X92645196Y-162698773D01*
X92639235Y-162722571D01*
X92630970Y-162745671D01*
X92620480Y-162767849D01*
X92607867Y-162788893D01*
X92593253Y-162808598D01*
X92576777Y-162826777D01*
X92558598Y-162843253D01*
X92538893Y-162857867D01*
X92517849Y-162870480D01*
X92495671Y-162880970D01*
X92472571Y-162889235D01*
X92448773Y-162895196D01*
X92424504Y-162898796D01*
X92400000Y-162900000D01*
X91600000Y-162900000D01*
X91575496Y-162898796D01*
X91551227Y-162895196D01*
X91527429Y-162889235D01*
X91504329Y-162880970D01*
X91482151Y-162870480D01*
X91461107Y-162857867D01*
X91441402Y-162843253D01*
X91423223Y-162826777D01*
X91406747Y-162808598D01*
X91392133Y-162788893D01*
X91379520Y-162767849D01*
X91369030Y-162745671D01*
X91360765Y-162722571D01*
X91354804Y-162698773D01*
X91351204Y-162674504D01*
X91350000Y-162650000D01*
X91350000Y-159750000D01*
X91351204Y-159725496D01*
X91354804Y-159701227D01*
X91360765Y-159677429D01*
X91369030Y-159654329D01*
X91379520Y-159632151D01*
X91392133Y-159611107D01*
X91406747Y-159591402D01*
X91423223Y-159573223D01*
X91441402Y-159556747D01*
X91461107Y-159542133D01*
X91482151Y-159529520D01*
X91504329Y-159519030D01*
X91527429Y-159510765D01*
X91551227Y-159504804D01*
X91575496Y-159501204D01*
X91600000Y-159500000D01*
X92400000Y-159500000D01*
X92424504Y-159501204D01*
X92424504Y-159501204D01*
G37*
D34*
G04 #@! TD*
G04 #@! TO.P,L1,2*
G04 #@! TO.N,/IN+*
X92000000Y-161200000D03*
D24*
G04 #@! TO.N,Net-(C2-Pad1)*
G04 #@! TO.C,L1*
G36*
X87974504Y-159501204D02*
X87998773Y-159504804D01*
X88022571Y-159510765D01*
X88045671Y-159519030D01*
X88067849Y-159529520D01*
X88088893Y-159542133D01*
X88108598Y-159556747D01*
X88126777Y-159573223D01*
X88143253Y-159591402D01*
X88157867Y-159611107D01*
X88170480Y-159632151D01*
X88180970Y-159654329D01*
X88189235Y-159677429D01*
X88195196Y-159701227D01*
X88198796Y-159725496D01*
X88200000Y-159750000D01*
X88200000Y-162650000D01*
X88198796Y-162674504D01*
X88195196Y-162698773D01*
X88189235Y-162722571D01*
X88180970Y-162745671D01*
X88170480Y-162767849D01*
X88157867Y-162788893D01*
X88143253Y-162808598D01*
X88126777Y-162826777D01*
X88108598Y-162843253D01*
X88088893Y-162857867D01*
X88067849Y-162870480D01*
X88045671Y-162880970D01*
X88022571Y-162889235D01*
X87998773Y-162895196D01*
X87974504Y-162898796D01*
X87950000Y-162900000D01*
X87150000Y-162900000D01*
X87125496Y-162898796D01*
X87101227Y-162895196D01*
X87077429Y-162889235D01*
X87054329Y-162880970D01*
X87032151Y-162870480D01*
X87011107Y-162857867D01*
X86991402Y-162843253D01*
X86973223Y-162826777D01*
X86956747Y-162808598D01*
X86942133Y-162788893D01*
X86929520Y-162767849D01*
X86919030Y-162745671D01*
X86910765Y-162722571D01*
X86904804Y-162698773D01*
X86901204Y-162674504D01*
X86900000Y-162650000D01*
X86900000Y-159750000D01*
X86901204Y-159725496D01*
X86904804Y-159701227D01*
X86910765Y-159677429D01*
X86919030Y-159654329D01*
X86929520Y-159632151D01*
X86942133Y-159611107D01*
X86956747Y-159591402D01*
X86973223Y-159573223D01*
X86991402Y-159556747D01*
X87011107Y-159542133D01*
X87032151Y-159529520D01*
X87054329Y-159519030D01*
X87077429Y-159510765D01*
X87101227Y-159504804D01*
X87125496Y-159501204D01*
X87150000Y-159500000D01*
X87950000Y-159500000D01*
X87974504Y-159501204D01*
X87974504Y-159501204D01*
G37*
D34*
G04 #@! TD*
G04 #@! TO.P,L1,1*
G04 #@! TO.N,Net-(C2-Pad1)*
X87550000Y-161200000D03*
D23*
G04 #@! TO.P,JP1,1*
G04 #@! TO.N,Net-(J3-Pad3)*
X105100000Y-111275000D03*
D24*
G04 #@! TD*
G04 #@! TO.N,Net-(J3-Pad3)*
G04 #@! TO.C,JP1*
G36*
X105100000Y-112275000D02*
X104350000Y-111775000D01*
X104350000Y-110775000D01*
X105850000Y-110775000D01*
X105850000Y-111775000D01*
X105100000Y-112275000D01*
X105100000Y-112275000D01*
G37*
D23*
G04 #@! TO.P,JP1,2*
G04 #@! TO.N,Net-(JP1-Pad2)*
X105100000Y-112725000D03*
D24*
G04 #@! TD*
G04 #@! TO.N,Net-(JP1-Pad2)*
G04 #@! TO.C,JP1*
G36*
X104350000Y-113225000D02*
X104350000Y-112075000D01*
X105100000Y-112575000D01*
X105850000Y-112075000D01*
X105850000Y-113225000D01*
X104350000Y-113225000D01*
X104350000Y-113225000D01*
G37*
D23*
G04 #@! TO.P,JP4,1*
G04 #@! TO.N,GNDPWR*
X102075000Y-145900000D03*
D24*
G04 #@! TD*
G04 #@! TO.N,GNDPWR*
G04 #@! TO.C,JP4*
G36*
X103075000Y-145900000D02*
X102575000Y-146650000D01*
X101575000Y-146650000D01*
X101575000Y-145150000D01*
X102575000Y-145150000D01*
X103075000Y-145900000D01*
X103075000Y-145900000D01*
G37*
D23*
G04 #@! TO.P,JP4,2*
G04 #@! TO.N,GND*
X103525000Y-145900000D03*
D24*
G04 #@! TD*
G04 #@! TO.N,GND*
G04 #@! TO.C,JP4*
G36*
X104025000Y-146650000D02*
X102875000Y-146650000D01*
X103375000Y-145900000D01*
X102875000Y-145150000D01*
X104025000Y-145150000D01*
X104025000Y-146650000D01*
X104025000Y-146650000D01*
G37*
D23*
G04 #@! TO.P,JP3,1*
G04 #@! TO.N,Net-(C2-Pad1)*
X89075000Y-161200000D03*
D24*
G04 #@! TD*
G04 #@! TO.N,Net-(C2-Pad1)*
G04 #@! TO.C,JP3*
G36*
X90075000Y-161200000D02*
X89575000Y-161950000D01*
X88575000Y-161950000D01*
X88575000Y-160450000D01*
X89575000Y-160450000D01*
X90075000Y-161200000D01*
X90075000Y-161200000D01*
G37*
D23*
G04 #@! TO.P,JP3,2*
G04 #@! TO.N,/IN+*
X90525000Y-161200000D03*
D24*
G04 #@! TD*
G04 #@! TO.N,/IN+*
G04 #@! TO.C,JP3*
G36*
X91025000Y-161950000D02*
X89875000Y-161950000D01*
X90375000Y-161200000D01*
X89875000Y-160450000D01*
X91025000Y-160450000D01*
X91025000Y-161950000D01*
X91025000Y-161950000D01*
G37*
D23*
G04 #@! TO.P,JP2,1*
G04 #@! TO.N,+24V*
X87900000Y-155775000D03*
D24*
G04 #@! TD*
G04 #@! TO.N,+24V*
G04 #@! TO.C,JP2*
G36*
X87900000Y-156775000D02*
X87150000Y-156275000D01*
X87150000Y-155275000D01*
X88650000Y-155275000D01*
X88650000Y-156275000D01*
X87900000Y-156775000D01*
X87900000Y-156775000D01*
G37*
D23*
G04 #@! TO.P,JP2,2*
G04 #@! TO.N,Net-(C2-Pad1)*
X87900000Y-157225000D03*
D24*
G04 #@! TD*
G04 #@! TO.N,Net-(C2-Pad1)*
G04 #@! TO.C,JP2*
G36*
X87150000Y-157725000D02*
X87150000Y-156575000D01*
X87900000Y-157075000D01*
X88650000Y-156575000D01*
X88650000Y-157725000D01*
X87150000Y-157725000D01*
X87150000Y-157725000D01*
G37*
D35*
G04 #@! TO.P,U4,4*
G04 #@! TO.N,+12V*
X97420000Y-106000000D03*
G04 #@! TO.P,U4,2*
G04 #@! TO.N,Net-(D7-Pad2)*
X89800000Y-108540000D03*
G04 #@! TO.P,U4,3*
G04 #@! TO.N,Net-(Q2-Pad1)*
X97420000Y-108540000D03*
D36*
G04 #@! TO.P,U4,1*
G04 #@! TO.N,Net-(D7-Pad1)*
X89800000Y-106000000D03*
G04 #@! TD*
D37*
G04 #@! TO.P,Q2,3*
G04 #@! TO.N,Net-(D6-Pad2)*
X100900000Y-105400000D03*
G04 #@! TO.P,Q2,2*
G04 #@! TO.N,GND*
X101850000Y-107400000D03*
G04 #@! TO.P,Q2,1*
G04 #@! TO.N,Net-(Q2-Pad1)*
X99950000Y-107400000D03*
G04 #@! TD*
D38*
G04 #@! TO.P,U1,5*
G04 #@! TO.N,Net-(Q1-Pad1)*
X84479482Y-148722876D03*
G04 #@! TO.P,U1,6*
G04 #@! TO.N,+24V*
X84479482Y-149672876D03*
G04 #@! TO.P,U1,4*
G04 #@! TO.N,Net-(D1-Pad1)*
X84479482Y-147772876D03*
G04 #@! TO.P,U1,3*
G04 #@! TO.N,Net-(R3-Pad2)*
X86679482Y-147772876D03*
G04 #@! TO.P,U1,2*
G04 #@! TO.N,GNDPWR*
X86679482Y-148722876D03*
G04 #@! TO.P,U1,1*
G04 #@! TO.N,Net-(C1-Pad1)*
X86679482Y-149672876D03*
G04 #@! TD*
D24*
G04 #@! TO.N,Net-(JP1-Pad2)*
G04 #@! TO.C,R4*
G36*
X107377691Y-112351053D02*
X107398926Y-112354203D01*
X107419750Y-112359419D01*
X107439962Y-112366651D01*
X107459368Y-112375830D01*
X107477781Y-112386866D01*
X107495024Y-112399654D01*
X107510930Y-112414070D01*
X107525346Y-112429976D01*
X107538134Y-112447219D01*
X107549170Y-112465632D01*
X107558349Y-112485038D01*
X107565581Y-112505250D01*
X107570797Y-112526074D01*
X107573947Y-112547309D01*
X107575000Y-112568750D01*
X107575000Y-113006250D01*
X107573947Y-113027691D01*
X107570797Y-113048926D01*
X107565581Y-113069750D01*
X107558349Y-113089962D01*
X107549170Y-113109368D01*
X107538134Y-113127781D01*
X107525346Y-113145024D01*
X107510930Y-113160930D01*
X107495024Y-113175346D01*
X107477781Y-113188134D01*
X107459368Y-113199170D01*
X107439962Y-113208349D01*
X107419750Y-113215581D01*
X107398926Y-113220797D01*
X107377691Y-113223947D01*
X107356250Y-113225000D01*
X106843750Y-113225000D01*
X106822309Y-113223947D01*
X106801074Y-113220797D01*
X106780250Y-113215581D01*
X106760038Y-113208349D01*
X106740632Y-113199170D01*
X106722219Y-113188134D01*
X106704976Y-113175346D01*
X106689070Y-113160930D01*
X106674654Y-113145024D01*
X106661866Y-113127781D01*
X106650830Y-113109368D01*
X106641651Y-113089962D01*
X106634419Y-113069750D01*
X106629203Y-113048926D01*
X106626053Y-113027691D01*
X106625000Y-113006250D01*
X106625000Y-112568750D01*
X106626053Y-112547309D01*
X106629203Y-112526074D01*
X106634419Y-112505250D01*
X106641651Y-112485038D01*
X106650830Y-112465632D01*
X106661866Y-112447219D01*
X106674654Y-112429976D01*
X106689070Y-112414070D01*
X106704976Y-112399654D01*
X106722219Y-112386866D01*
X106740632Y-112375830D01*
X106760038Y-112366651D01*
X106780250Y-112359419D01*
X106801074Y-112354203D01*
X106822309Y-112351053D01*
X106843750Y-112350000D01*
X107356250Y-112350000D01*
X107377691Y-112351053D01*
X107377691Y-112351053D01*
G37*
D27*
G04 #@! TD*
G04 #@! TO.P,R4,2*
G04 #@! TO.N,Net-(JP1-Pad2)*
X107100000Y-112787500D03*
D24*
G04 #@! TO.N,Net-(J3-Pad4)*
G04 #@! TO.C,R4*
G36*
X107377691Y-110776053D02*
X107398926Y-110779203D01*
X107419750Y-110784419D01*
X107439962Y-110791651D01*
X107459368Y-110800830D01*
X107477781Y-110811866D01*
X107495024Y-110824654D01*
X107510930Y-110839070D01*
X107525346Y-110854976D01*
X107538134Y-110872219D01*
X107549170Y-110890632D01*
X107558349Y-110910038D01*
X107565581Y-110930250D01*
X107570797Y-110951074D01*
X107573947Y-110972309D01*
X107575000Y-110993750D01*
X107575000Y-111431250D01*
X107573947Y-111452691D01*
X107570797Y-111473926D01*
X107565581Y-111494750D01*
X107558349Y-111514962D01*
X107549170Y-111534368D01*
X107538134Y-111552781D01*
X107525346Y-111570024D01*
X107510930Y-111585930D01*
X107495024Y-111600346D01*
X107477781Y-111613134D01*
X107459368Y-111624170D01*
X107439962Y-111633349D01*
X107419750Y-111640581D01*
X107398926Y-111645797D01*
X107377691Y-111648947D01*
X107356250Y-111650000D01*
X106843750Y-111650000D01*
X106822309Y-111648947D01*
X106801074Y-111645797D01*
X106780250Y-111640581D01*
X106760038Y-111633349D01*
X106740632Y-111624170D01*
X106722219Y-111613134D01*
X106704976Y-111600346D01*
X106689070Y-111585930D01*
X106674654Y-111570024D01*
X106661866Y-111552781D01*
X106650830Y-111534368D01*
X106641651Y-111514962D01*
X106634419Y-111494750D01*
X106629203Y-111473926D01*
X106626053Y-111452691D01*
X106625000Y-111431250D01*
X106625000Y-110993750D01*
X106626053Y-110972309D01*
X106629203Y-110951074D01*
X106634419Y-110930250D01*
X106641651Y-110910038D01*
X106650830Y-110890632D01*
X106661866Y-110872219D01*
X106674654Y-110854976D01*
X106689070Y-110839070D01*
X106704976Y-110824654D01*
X106722219Y-110811866D01*
X106740632Y-110800830D01*
X106760038Y-110791651D01*
X106780250Y-110784419D01*
X106801074Y-110779203D01*
X106822309Y-110776053D01*
X106843750Y-110775000D01*
X107356250Y-110775000D01*
X107377691Y-110776053D01*
X107377691Y-110776053D01*
G37*
D27*
G04 #@! TD*
G04 #@! TO.P,R4,1*
G04 #@! TO.N,Net-(J3-Pad4)*
X107100000Y-111212500D03*
D24*
G04 #@! TO.N,Net-(R3-Pad2)*
G04 #@! TO.C,R3*
G36*
X88477691Y-147176053D02*
X88498926Y-147179203D01*
X88519750Y-147184419D01*
X88539962Y-147191651D01*
X88559368Y-147200830D01*
X88577781Y-147211866D01*
X88595024Y-147224654D01*
X88610930Y-147239070D01*
X88625346Y-147254976D01*
X88638134Y-147272219D01*
X88649170Y-147290632D01*
X88658349Y-147310038D01*
X88665581Y-147330250D01*
X88670797Y-147351074D01*
X88673947Y-147372309D01*
X88675000Y-147393750D01*
X88675000Y-147831250D01*
X88673947Y-147852691D01*
X88670797Y-147873926D01*
X88665581Y-147894750D01*
X88658349Y-147914962D01*
X88649170Y-147934368D01*
X88638134Y-147952781D01*
X88625346Y-147970024D01*
X88610930Y-147985930D01*
X88595024Y-148000346D01*
X88577781Y-148013134D01*
X88559368Y-148024170D01*
X88539962Y-148033349D01*
X88519750Y-148040581D01*
X88498926Y-148045797D01*
X88477691Y-148048947D01*
X88456250Y-148050000D01*
X87943750Y-148050000D01*
X87922309Y-148048947D01*
X87901074Y-148045797D01*
X87880250Y-148040581D01*
X87860038Y-148033349D01*
X87840632Y-148024170D01*
X87822219Y-148013134D01*
X87804976Y-148000346D01*
X87789070Y-147985930D01*
X87774654Y-147970024D01*
X87761866Y-147952781D01*
X87750830Y-147934368D01*
X87741651Y-147914962D01*
X87734419Y-147894750D01*
X87729203Y-147873926D01*
X87726053Y-147852691D01*
X87725000Y-147831250D01*
X87725000Y-147393750D01*
X87726053Y-147372309D01*
X87729203Y-147351074D01*
X87734419Y-147330250D01*
X87741651Y-147310038D01*
X87750830Y-147290632D01*
X87761866Y-147272219D01*
X87774654Y-147254976D01*
X87789070Y-147239070D01*
X87804976Y-147224654D01*
X87822219Y-147211866D01*
X87840632Y-147200830D01*
X87860038Y-147191651D01*
X87880250Y-147184419D01*
X87901074Y-147179203D01*
X87922309Y-147176053D01*
X87943750Y-147175000D01*
X88456250Y-147175000D01*
X88477691Y-147176053D01*
X88477691Y-147176053D01*
G37*
D27*
G04 #@! TD*
G04 #@! TO.P,R3,2*
G04 #@! TO.N,Net-(R3-Pad2)*
X88200000Y-147612500D03*
D24*
G04 #@! TO.N,GNDPWR*
G04 #@! TO.C,R3*
G36*
X88477691Y-148751053D02*
X88498926Y-148754203D01*
X88519750Y-148759419D01*
X88539962Y-148766651D01*
X88559368Y-148775830D01*
X88577781Y-148786866D01*
X88595024Y-148799654D01*
X88610930Y-148814070D01*
X88625346Y-148829976D01*
X88638134Y-148847219D01*
X88649170Y-148865632D01*
X88658349Y-148885038D01*
X88665581Y-148905250D01*
X88670797Y-148926074D01*
X88673947Y-148947309D01*
X88675000Y-148968750D01*
X88675000Y-149406250D01*
X88673947Y-149427691D01*
X88670797Y-149448926D01*
X88665581Y-149469750D01*
X88658349Y-149489962D01*
X88649170Y-149509368D01*
X88638134Y-149527781D01*
X88625346Y-149545024D01*
X88610930Y-149560930D01*
X88595024Y-149575346D01*
X88577781Y-149588134D01*
X88559368Y-149599170D01*
X88539962Y-149608349D01*
X88519750Y-149615581D01*
X88498926Y-149620797D01*
X88477691Y-149623947D01*
X88456250Y-149625000D01*
X87943750Y-149625000D01*
X87922309Y-149623947D01*
X87901074Y-149620797D01*
X87880250Y-149615581D01*
X87860038Y-149608349D01*
X87840632Y-149599170D01*
X87822219Y-149588134D01*
X87804976Y-149575346D01*
X87789070Y-149560930D01*
X87774654Y-149545024D01*
X87761866Y-149527781D01*
X87750830Y-149509368D01*
X87741651Y-149489962D01*
X87734419Y-149469750D01*
X87729203Y-149448926D01*
X87726053Y-149427691D01*
X87725000Y-149406250D01*
X87725000Y-148968750D01*
X87726053Y-148947309D01*
X87729203Y-148926074D01*
X87734419Y-148905250D01*
X87741651Y-148885038D01*
X87750830Y-148865632D01*
X87761866Y-148847219D01*
X87774654Y-148829976D01*
X87789070Y-148814070D01*
X87804976Y-148799654D01*
X87822219Y-148786866D01*
X87840632Y-148775830D01*
X87860038Y-148766651D01*
X87880250Y-148759419D01*
X87901074Y-148754203D01*
X87922309Y-148751053D01*
X87943750Y-148750000D01*
X88456250Y-148750000D01*
X88477691Y-148751053D01*
X88477691Y-148751053D01*
G37*
D27*
G04 #@! TD*
G04 #@! TO.P,R3,1*
G04 #@! TO.N,GNDPWR*
X88200000Y-149187500D03*
D24*
G04 #@! TO.N,Net-(C1-Pad1)*
G04 #@! TO.C,R2*
G36*
X86607173Y-150848929D02*
X86628408Y-150852079D01*
X86649232Y-150857295D01*
X86669444Y-150864527D01*
X86688850Y-150873706D01*
X86707263Y-150884742D01*
X86724506Y-150897530D01*
X86740412Y-150911946D01*
X86754828Y-150927852D01*
X86767616Y-150945095D01*
X86778652Y-150963508D01*
X86787831Y-150982914D01*
X86795063Y-151003126D01*
X86800279Y-151023950D01*
X86803429Y-151045185D01*
X86804482Y-151066626D01*
X86804482Y-151579126D01*
X86803429Y-151600567D01*
X86800279Y-151621802D01*
X86795063Y-151642626D01*
X86787831Y-151662838D01*
X86778652Y-151682244D01*
X86767616Y-151700657D01*
X86754828Y-151717900D01*
X86740412Y-151733806D01*
X86724506Y-151748222D01*
X86707263Y-151761010D01*
X86688850Y-151772046D01*
X86669444Y-151781225D01*
X86649232Y-151788457D01*
X86628408Y-151793673D01*
X86607173Y-151796823D01*
X86585732Y-151797876D01*
X86148232Y-151797876D01*
X86126791Y-151796823D01*
X86105556Y-151793673D01*
X86084732Y-151788457D01*
X86064520Y-151781225D01*
X86045114Y-151772046D01*
X86026701Y-151761010D01*
X86009458Y-151748222D01*
X85993552Y-151733806D01*
X85979136Y-151717900D01*
X85966348Y-151700657D01*
X85955312Y-151682244D01*
X85946133Y-151662838D01*
X85938901Y-151642626D01*
X85933685Y-151621802D01*
X85930535Y-151600567D01*
X85929482Y-151579126D01*
X85929482Y-151066626D01*
X85930535Y-151045185D01*
X85933685Y-151023950D01*
X85938901Y-151003126D01*
X85946133Y-150982914D01*
X85955312Y-150963508D01*
X85966348Y-150945095D01*
X85979136Y-150927852D01*
X85993552Y-150911946D01*
X86009458Y-150897530D01*
X86026701Y-150884742D01*
X86045114Y-150873706D01*
X86064520Y-150864527D01*
X86084732Y-150857295D01*
X86105556Y-150852079D01*
X86126791Y-150848929D01*
X86148232Y-150847876D01*
X86585732Y-150847876D01*
X86607173Y-150848929D01*
X86607173Y-150848929D01*
G37*
D27*
G04 #@! TD*
G04 #@! TO.P,R2,2*
G04 #@! TO.N,Net-(C1-Pad1)*
X86366982Y-151322876D03*
D24*
G04 #@! TO.N,+24V*
G04 #@! TO.C,R2*
G36*
X85032173Y-150848929D02*
X85053408Y-150852079D01*
X85074232Y-150857295D01*
X85094444Y-150864527D01*
X85113850Y-150873706D01*
X85132263Y-150884742D01*
X85149506Y-150897530D01*
X85165412Y-150911946D01*
X85179828Y-150927852D01*
X85192616Y-150945095D01*
X85203652Y-150963508D01*
X85212831Y-150982914D01*
X85220063Y-151003126D01*
X85225279Y-151023950D01*
X85228429Y-151045185D01*
X85229482Y-151066626D01*
X85229482Y-151579126D01*
X85228429Y-151600567D01*
X85225279Y-151621802D01*
X85220063Y-151642626D01*
X85212831Y-151662838D01*
X85203652Y-151682244D01*
X85192616Y-151700657D01*
X85179828Y-151717900D01*
X85165412Y-151733806D01*
X85149506Y-151748222D01*
X85132263Y-151761010D01*
X85113850Y-151772046D01*
X85094444Y-151781225D01*
X85074232Y-151788457D01*
X85053408Y-151793673D01*
X85032173Y-151796823D01*
X85010732Y-151797876D01*
X84573232Y-151797876D01*
X84551791Y-151796823D01*
X84530556Y-151793673D01*
X84509732Y-151788457D01*
X84489520Y-151781225D01*
X84470114Y-151772046D01*
X84451701Y-151761010D01*
X84434458Y-151748222D01*
X84418552Y-151733806D01*
X84404136Y-151717900D01*
X84391348Y-151700657D01*
X84380312Y-151682244D01*
X84371133Y-151662838D01*
X84363901Y-151642626D01*
X84358685Y-151621802D01*
X84355535Y-151600567D01*
X84354482Y-151579126D01*
X84354482Y-151066626D01*
X84355535Y-151045185D01*
X84358685Y-151023950D01*
X84363901Y-151003126D01*
X84371133Y-150982914D01*
X84380312Y-150963508D01*
X84391348Y-150945095D01*
X84404136Y-150927852D01*
X84418552Y-150911946D01*
X84434458Y-150897530D01*
X84451701Y-150884742D01*
X84470114Y-150873706D01*
X84489520Y-150864527D01*
X84509732Y-150857295D01*
X84530556Y-150852079D01*
X84551791Y-150848929D01*
X84573232Y-150847876D01*
X85010732Y-150847876D01*
X85032173Y-150848929D01*
X85032173Y-150848929D01*
G37*
D27*
G04 #@! TD*
G04 #@! TO.P,R2,1*
G04 #@! TO.N,+24V*
X84791982Y-151322876D03*
D24*
G04 #@! TO.N,GND*
G04 #@! TO.C,R6*
G36*
X101927691Y-108326053D02*
X101948926Y-108329203D01*
X101969750Y-108334419D01*
X101989962Y-108341651D01*
X102009368Y-108350830D01*
X102027781Y-108361866D01*
X102045024Y-108374654D01*
X102060930Y-108389070D01*
X102075346Y-108404976D01*
X102088134Y-108422219D01*
X102099170Y-108440632D01*
X102108349Y-108460038D01*
X102115581Y-108480250D01*
X102120797Y-108501074D01*
X102123947Y-108522309D01*
X102125000Y-108543750D01*
X102125000Y-109056250D01*
X102123947Y-109077691D01*
X102120797Y-109098926D01*
X102115581Y-109119750D01*
X102108349Y-109139962D01*
X102099170Y-109159368D01*
X102088134Y-109177781D01*
X102075346Y-109195024D01*
X102060930Y-109210930D01*
X102045024Y-109225346D01*
X102027781Y-109238134D01*
X102009368Y-109249170D01*
X101989962Y-109258349D01*
X101969750Y-109265581D01*
X101948926Y-109270797D01*
X101927691Y-109273947D01*
X101906250Y-109275000D01*
X101468750Y-109275000D01*
X101447309Y-109273947D01*
X101426074Y-109270797D01*
X101405250Y-109265581D01*
X101385038Y-109258349D01*
X101365632Y-109249170D01*
X101347219Y-109238134D01*
X101329976Y-109225346D01*
X101314070Y-109210930D01*
X101299654Y-109195024D01*
X101286866Y-109177781D01*
X101275830Y-109159368D01*
X101266651Y-109139962D01*
X101259419Y-109119750D01*
X101254203Y-109098926D01*
X101251053Y-109077691D01*
X101250000Y-109056250D01*
X101250000Y-108543750D01*
X101251053Y-108522309D01*
X101254203Y-108501074D01*
X101259419Y-108480250D01*
X101266651Y-108460038D01*
X101275830Y-108440632D01*
X101286866Y-108422219D01*
X101299654Y-108404976D01*
X101314070Y-108389070D01*
X101329976Y-108374654D01*
X101347219Y-108361866D01*
X101365632Y-108350830D01*
X101385038Y-108341651D01*
X101405250Y-108334419D01*
X101426074Y-108329203D01*
X101447309Y-108326053D01*
X101468750Y-108325000D01*
X101906250Y-108325000D01*
X101927691Y-108326053D01*
X101927691Y-108326053D01*
G37*
D27*
G04 #@! TD*
G04 #@! TO.P,R6,2*
G04 #@! TO.N,GND*
X101687500Y-108800000D03*
D24*
G04 #@! TO.N,Net-(Q2-Pad1)*
G04 #@! TO.C,R6*
G36*
X100352691Y-108326053D02*
X100373926Y-108329203D01*
X100394750Y-108334419D01*
X100414962Y-108341651D01*
X100434368Y-108350830D01*
X100452781Y-108361866D01*
X100470024Y-108374654D01*
X100485930Y-108389070D01*
X100500346Y-108404976D01*
X100513134Y-108422219D01*
X100524170Y-108440632D01*
X100533349Y-108460038D01*
X100540581Y-108480250D01*
X100545797Y-108501074D01*
X100548947Y-108522309D01*
X100550000Y-108543750D01*
X100550000Y-109056250D01*
X100548947Y-109077691D01*
X100545797Y-109098926D01*
X100540581Y-109119750D01*
X100533349Y-109139962D01*
X100524170Y-109159368D01*
X100513134Y-109177781D01*
X100500346Y-109195024D01*
X100485930Y-109210930D01*
X100470024Y-109225346D01*
X100452781Y-109238134D01*
X100434368Y-109249170D01*
X100414962Y-109258349D01*
X100394750Y-109265581D01*
X100373926Y-109270797D01*
X100352691Y-109273947D01*
X100331250Y-109275000D01*
X99893750Y-109275000D01*
X99872309Y-109273947D01*
X99851074Y-109270797D01*
X99830250Y-109265581D01*
X99810038Y-109258349D01*
X99790632Y-109249170D01*
X99772219Y-109238134D01*
X99754976Y-109225346D01*
X99739070Y-109210930D01*
X99724654Y-109195024D01*
X99711866Y-109177781D01*
X99700830Y-109159368D01*
X99691651Y-109139962D01*
X99684419Y-109119750D01*
X99679203Y-109098926D01*
X99676053Y-109077691D01*
X99675000Y-109056250D01*
X99675000Y-108543750D01*
X99676053Y-108522309D01*
X99679203Y-108501074D01*
X99684419Y-108480250D01*
X99691651Y-108460038D01*
X99700830Y-108440632D01*
X99711866Y-108422219D01*
X99724654Y-108404976D01*
X99739070Y-108389070D01*
X99754976Y-108374654D01*
X99772219Y-108361866D01*
X99790632Y-108350830D01*
X99810038Y-108341651D01*
X99830250Y-108334419D01*
X99851074Y-108329203D01*
X99872309Y-108326053D01*
X99893750Y-108325000D01*
X100331250Y-108325000D01*
X100352691Y-108326053D01*
X100352691Y-108326053D01*
G37*
D27*
G04 #@! TD*
G04 #@! TO.P,R6,1*
G04 #@! TO.N,Net-(Q2-Pad1)*
X100112500Y-108800000D03*
D39*
G04 #@! TO.P,R1,2*
G04 #@! TO.N,GNDPWR*
X90500000Y-152580000D03*
D40*
G04 #@! TO.P,R1,1*
G04 #@! TO.N,Net-(D1-Pad1)*
X90500000Y-147500000D03*
G04 #@! TD*
D41*
G04 #@! TO.N,Net-(D1-Pad1)*
X75900000Y-148000000D03*
X75900000Y-151000000D03*
X75900000Y-149000000D03*
X78400000Y-148000000D03*
X78400000Y-149000000D03*
X78400000Y-150000000D03*
X78400000Y-151000000D03*
X75900000Y-150000000D03*
G04 #@! TO.N,GNDPWR*
X118000000Y-162000000D03*
X132000000Y-156000000D03*
X132000000Y-156000000D03*
X132000000Y-156000000D03*
X132000000Y-149000000D03*
X126000000Y-149000000D03*
X114000000Y-149000000D03*
X106000000Y-149000000D03*
X99500000Y-147800000D03*
X98000000Y-159000000D03*
X93000000Y-157000000D03*
X92000000Y-150000000D03*
X90000000Y-150000000D03*
G04 #@! TO.N,GND*
X132000000Y-144000000D03*
X126000000Y-144000000D03*
X114000000Y-144000000D03*
X106000000Y-144000000D03*
X103000000Y-140000000D03*
X132000000Y-137000000D03*
X132000000Y-114000000D03*
X132000000Y-103000000D03*
X127000000Y-93000000D03*
X117000000Y-93000000D03*
X109000000Y-93000000D03*
X101000000Y-93000000D03*
X92000000Y-93000000D03*
X84000000Y-93000000D03*
X75000000Y-93000000D03*
X65000000Y-104000000D03*
X95000000Y-131000000D03*
X95000000Y-126000000D03*
X94000000Y-120000000D03*
X84000000Y-112000000D03*
X94000000Y-107000000D03*
X97000000Y-113000000D03*
X107000000Y-116000000D03*
G04 #@! TO.N,+24V*
X76000000Y-157500000D03*
X76000000Y-159000000D03*
X77500000Y-157500000D03*
X79000000Y-157500000D03*
X79000000Y-159000000D03*
X77500000Y-159000000D03*
X79000000Y-160500000D03*
X77500000Y-160500000D03*
G04 #@! TD*
D42*
G04 #@! TO.N,Net-(D1-Pad1)*
X77160000Y-149450000D02*
X77160000Y-147700000D01*
D43*
X77160000Y-147740000D02*
X77160000Y-149450000D01*
X78600000Y-146300000D02*
X77160000Y-147740000D01*
D44*
X86640000Y-141500000D02*
X81160000Y-141500000D01*
X77160000Y-145500000D02*
X77160000Y-149450000D01*
X81160000Y-141500000D02*
X77160000Y-145500000D01*
D45*
X86640000Y-141500000D02*
X87500000Y-141500000D01*
D46*
X77950000Y-149450000D02*
X77160000Y-149450000D01*
X81100000Y-146300000D02*
X77950000Y-149450000D01*
X83200000Y-146300000D02*
X81100000Y-146300000D01*
X84479482Y-147772876D02*
X84479482Y-147579482D01*
X84479482Y-147579482D02*
X83200000Y-146300000D01*
D47*
X90940000Y-145800000D02*
X95200000Y-145800000D01*
X86640000Y-141500000D02*
X90940000Y-145800000D01*
D45*
X90500000Y-146240000D02*
X90940000Y-145800000D01*
X90500000Y-147500000D02*
X90500000Y-146240000D01*
D46*
X75500000Y-150400000D02*
X75900000Y-150000000D01*
X72400000Y-150400000D02*
X75500000Y-150400000D01*
D44*
G04 #@! TO.N,GNDPWR*
X63100000Y-147900000D02*
X63100000Y-137900000D01*
X68100000Y-137900000D02*
X68100000Y-147900000D01*
X63100000Y-137900000D02*
X68100000Y-137900000D01*
D46*
X87735376Y-148722876D02*
X88200000Y-149187500D01*
X86679482Y-148722876D02*
X87735376Y-148722876D01*
X88179482Y-149208018D02*
X88200000Y-149187500D01*
X88179482Y-150535376D02*
X88179482Y-149208018D01*
D47*
X95200000Y-152600000D02*
X95600000Y-152600000D01*
X68100000Y-137900000D02*
X68600000Y-137900000D01*
D46*
X100100000Y-145900000D02*
X100000000Y-146000000D01*
X102075000Y-145900000D02*
X100100000Y-145900000D01*
X102075000Y-145900000D02*
X102075000Y-147875000D01*
D47*
X100000000Y-144700000D02*
X100000000Y-146000000D01*
X91800000Y-136500000D02*
X100000000Y-144700000D01*
X63100000Y-137900000D02*
X64500000Y-136500000D01*
X64500000Y-136500000D02*
X91800000Y-136500000D01*
D44*
X68100000Y-147900000D02*
X63100000Y-147900000D01*
D47*
X122075000Y-161900000D02*
X121675000Y-161500000D01*
X125800000Y-161900000D02*
X122075000Y-161900000D01*
D46*
G04 #@! TO.N,Net-(Q2-Pad1)*
X99852500Y-108540000D02*
X100112500Y-108800000D01*
X97420000Y-108540000D02*
X99852500Y-108540000D01*
X100112500Y-107562500D02*
X99950000Y-107400000D01*
X100112500Y-108800000D02*
X100112500Y-107562500D01*
G04 #@! TO.N,GND*
X101850000Y-108637500D02*
X101687500Y-108800000D01*
X101850000Y-107400000D02*
X101850000Y-108637500D01*
X104900000Y-145900000D02*
X105000000Y-146000000D01*
X103625000Y-145900000D02*
X105000000Y-145900000D01*
X103600000Y-145925000D02*
X103600000Y-144000000D01*
D42*
G04 #@! TO.N,Net-(C1-Pad1)*
X86679482Y-151010376D02*
X86366982Y-151322876D01*
D46*
X87310376Y-152110376D02*
X88179482Y-152110376D01*
X86679482Y-149672876D02*
X86679482Y-151479482D01*
X86679482Y-151479482D02*
X87310376Y-152110376D01*
D44*
G04 #@! TO.N,+24V*
X78600000Y-157500000D02*
X77500000Y-160500000D01*
D47*
X83500000Y-154800000D02*
X79700000Y-158600000D01*
X87900000Y-154800000D02*
X83500000Y-154800000D01*
D44*
X76000000Y-154900000D02*
X79700000Y-158600000D01*
X63100000Y-154900000D02*
X76000000Y-154900000D01*
X77500000Y-160500000D02*
X79700000Y-158600000D01*
D46*
X84479482Y-151010376D02*
X84791982Y-151322876D01*
X84479482Y-149672876D02*
X84479482Y-151010376D01*
X84791982Y-153508018D02*
X79700000Y-158600000D01*
X84791982Y-151322876D02*
X84791982Y-153508018D01*
D43*
G04 #@! TO.N,Net-(R3-Pad2)*
X86679482Y-147772876D02*
X86679482Y-147666982D01*
D46*
X88039624Y-147772876D02*
X88200000Y-147612500D01*
X86679482Y-147772876D02*
X88039624Y-147772876D01*
G04 #@! TO.N,Net-(J10-Pad2)*
X94587500Y-103037500D02*
X91250000Y-99700000D01*
X94587500Y-103200000D02*
X94587500Y-103037500D01*
G04 #@! TO.N,Net-(D7-Pad1)*
X89800000Y-104650000D02*
X91150000Y-103300000D01*
X89800000Y-106000000D02*
X89800000Y-104650000D01*
X91250000Y-103200000D02*
X91150000Y-103300000D01*
X93012500Y-103200000D02*
X91250000Y-103200000D01*
G04 #@! TO.N,Net-(J3-Pad4)*
X107100000Y-111212500D02*
X107600000Y-110712500D01*
X107600000Y-106900000D02*
X107490000Y-106790000D01*
X107600000Y-110712500D02*
X107600000Y-106900000D01*
X117580000Y-108700000D02*
X119490000Y-106790000D01*
X107600000Y-107700000D02*
X107600000Y-108700000D01*
X107600000Y-108700000D02*
X117580000Y-108700000D01*
G04 #@! TO.N,Net-(JP1-Pad2)*
X107100000Y-112787500D02*
X105162500Y-112787500D01*
D43*
G04 #@! TO.N,Net-(Q1-Pad1)*
X82222876Y-149432876D02*
X82240000Y-149450000D01*
X82267124Y-149422876D02*
X82240000Y-149450000D01*
D46*
X82967124Y-148722876D02*
X82240000Y-149450000D01*
X84479482Y-148722876D02*
X82967124Y-148722876D01*
G04 #@! TO.N,Net-(D6-Pad2)*
X96250000Y-103200000D02*
X96350000Y-103300000D01*
X96250000Y-94700000D02*
X96250000Y-103200000D01*
X101800000Y-105400000D02*
X100900000Y-105400000D01*
X103100000Y-106700000D02*
X101800000Y-105400000D01*
X101500000Y-114300000D02*
X103100000Y-112700000D01*
X103100000Y-112700000D02*
X103100000Y-106700000D01*
X100000000Y-105400000D02*
X100900000Y-105400000D01*
X99500000Y-105400000D02*
X100000000Y-105400000D01*
X96350000Y-103300000D02*
X97400000Y-103300000D01*
X97400000Y-103300000D02*
X99500000Y-105400000D01*
G04 #@! TO.N,Net-(D7-Pad2)*
X87750000Y-103200000D02*
X87650000Y-103300000D01*
X87750000Y-94700000D02*
X87750000Y-103200000D01*
X87650000Y-106790000D02*
X89400000Y-108540000D01*
X89400000Y-108540000D02*
X89800000Y-108540000D01*
X87650000Y-103300000D02*
X87650000Y-106790000D01*
G04 #@! TO.N,+12V*
X99850000Y-99800000D02*
X99750000Y-99700000D01*
X99850000Y-103300000D02*
X99850000Y-99800000D01*
X99850000Y-103300000D02*
X99850000Y-103570000D01*
D47*
X131000000Y-124300000D02*
X131000000Y-124424990D01*
X131000000Y-123762500D02*
X131000000Y-124300000D01*
X132300000Y-122462500D02*
X132300000Y-120700000D01*
X131000000Y-123762500D02*
X132300000Y-122462500D01*
X111500000Y-113400000D02*
X111500000Y-111600000D01*
X114800000Y-116700000D02*
X111500000Y-113400000D01*
X129431370Y-116700000D02*
X114800000Y-116700000D01*
X132300000Y-120700000D02*
X132300000Y-119568630D01*
X132300000Y-119568630D02*
X129431370Y-116700000D01*
G04 #@! TO.N,Net-(C2-Pad1)*
X88150000Y-161200000D02*
X88674990Y-161200000D01*
X87900000Y-160950000D02*
X88150000Y-161200000D01*
X87900000Y-158300000D02*
X87900000Y-160950000D01*
D46*
X90100000Y-157437500D02*
X88112500Y-157437500D01*
D47*
G04 #@! TO.N,/IN+*
X92000000Y-161200000D02*
X91300000Y-161200000D01*
X91300000Y-161200000D02*
X91275010Y-161200000D01*
X112900000Y-162100000D02*
X122440000Y-152560000D01*
X108900000Y-162100000D02*
X112900000Y-162100000D01*
X100000000Y-162100000D02*
X108900000Y-162100000D01*
X92000000Y-161200000D02*
X92900000Y-162100000D01*
X92900000Y-162100000D02*
X100000000Y-162100000D01*
X104800000Y-162100000D02*
X108900000Y-162100000D01*
X103900000Y-161200000D02*
X104800000Y-162100000D01*
X103900000Y-159500000D02*
X103900000Y-161200000D01*
D46*
G04 #@! TO.N,Net-(J3-Pad3)*
X108760000Y-102977208D02*
X109637208Y-102100000D01*
X108760000Y-104250000D02*
X108760000Y-102977208D01*
X118610000Y-102100000D02*
X120760000Y-104250000D01*
X109637208Y-102100000D02*
X118610000Y-102100000D01*
X108760000Y-104250000D02*
X107050000Y-104250000D01*
X105100000Y-106200000D02*
X105100000Y-111275000D01*
X107050000Y-104250000D02*
X105100000Y-106200000D01*
D47*
G04 #@! TO.N,/OUT+*
X131000000Y-127375000D02*
X131000000Y-127025010D01*
X131000000Y-128037500D02*
X131000000Y-127375000D01*
X131000000Y-131300000D02*
X130060000Y-132240000D01*
X131000000Y-128037500D02*
X131000000Y-131300000D01*
X126940000Y-132240000D02*
X130060000Y-132240000D01*
X108800000Y-121600000D02*
X116300000Y-121600000D01*
X116300000Y-121600000D02*
X126940000Y-132240000D01*
D46*
G04 #@! TO.N,Net-(J6-Pad2)*
X97099989Y-119299989D02*
X97099989Y-135299989D01*
X98400001Y-136600001D02*
X99500000Y-137700000D01*
X85200000Y-107400000D02*
X97099989Y-119299989D01*
X97099989Y-135299989D02*
X98400001Y-136600001D01*
X85200000Y-102150000D02*
X85200000Y-107400000D01*
X82750000Y-99700000D02*
X85200000Y-102150000D01*
G04 #@! TO.N,Net-(J6-Pad1)*
X97800000Y-125800000D02*
X99500000Y-127500000D01*
X86200000Y-107410036D02*
X97800000Y-119010036D01*
X79250000Y-94700000D02*
X81050000Y-94700000D01*
X81050000Y-94700000D02*
X86200000Y-99850000D01*
X86200000Y-99850000D02*
X86200000Y-107410036D01*
X97800000Y-119010036D02*
X97800000Y-125800000D01*
D44*
G04 #@! TO.N,Net-(F1-Pad1)*
X66080000Y-114428000D02*
X62775010Y-114428000D01*
X72080000Y-114428000D02*
X66080000Y-114428000D01*
X74828000Y-114428000D02*
X84100000Y-123700000D01*
X72080000Y-114428000D02*
X74828000Y-114428000D01*
G04 #@! TO.N,Net-(F1-Pad2)*
X68100000Y-130900000D02*
X63100000Y-130900000D01*
X68100000Y-130900000D02*
X68100000Y-124700000D01*
X72080000Y-123572000D02*
X62775010Y-123572000D01*
X63100000Y-123896990D02*
X62775010Y-123572000D01*
X63100000Y-130900000D02*
X63100000Y-123896990D01*
D47*
G04 #@! TO.N,Net-(D5-Pad1)*
X66100000Y-106300000D02*
X65000000Y-107400000D01*
X77300000Y-106300000D02*
X66100000Y-106300000D01*
X74250000Y-99700000D02*
X74300000Y-99700000D01*
X77300000Y-102700000D02*
X77300000Y-106300000D01*
X74300000Y-99700000D02*
X77300000Y-102700000D01*
G04 #@! TO.N,Net-(D2-Pad1)*
X130610000Y-106790000D02*
X122030000Y-106790000D01*
X131000000Y-106400000D02*
X130610000Y-106790000D01*
X125800000Y-111600000D02*
X131000000Y-106400000D01*
X120900000Y-111600000D02*
X125800000Y-111600000D01*
G04 #@! TD*
D42*
G04 #@! TO.N,GND*
G36*
X134550001Y-146375000D02*
X104407347Y-146375000D01*
X104407347Y-145150000D01*
X104378243Y-145003682D01*
X104295360Y-144879640D01*
X104171318Y-144796757D01*
X104025000Y-144767653D01*
X103956586Y-144767653D01*
X93125000Y-132951377D01*
X93125000Y-124000000D01*
X93115485Y-123952165D01*
X93088388Y-123911612D01*
X89759188Y-120582412D01*
X90222817Y-120461810D01*
X90624611Y-120158145D01*
X90879613Y-119723835D01*
X90919245Y-119575316D01*
X90840369Y-119375000D01*
X89075000Y-119375000D01*
X89075000Y-119395000D01*
X88925000Y-119395000D01*
X88925000Y-119375000D01*
X88905000Y-119375000D01*
X88905000Y-119225000D01*
X88925000Y-119225000D01*
X88925000Y-118011400D01*
X89075000Y-118011400D01*
X89075000Y-119225000D01*
X90840369Y-119225000D01*
X90919245Y-119024684D01*
X90879613Y-118876165D01*
X90624611Y-118441855D01*
X90222817Y-118138190D01*
X89735400Y-118011400D01*
X89075000Y-118011400D01*
X88925000Y-118011400D01*
X88264600Y-118011400D01*
X87777183Y-118138190D01*
X87513927Y-118337151D01*
X79088388Y-109911612D01*
X79047835Y-109884515D01*
X79000000Y-109875000D01*
X60450000Y-109875000D01*
X60450000Y-106150000D01*
X62967654Y-106150000D01*
X62967654Y-108650000D01*
X62996758Y-108796317D01*
X63079641Y-108920359D01*
X63203683Y-109003242D01*
X63350000Y-109032346D01*
X66650000Y-109032346D01*
X66796317Y-109003242D01*
X66920359Y-108920359D01*
X67003242Y-108796317D01*
X67032346Y-108650000D01*
X67032346Y-107675000D01*
X70828375Y-107675000D01*
X71339639Y-108186264D01*
X72157420Y-108525000D01*
X73042580Y-108525000D01*
X73860361Y-108186264D01*
X74371625Y-107675000D01*
X75528375Y-107675000D01*
X76039639Y-108186264D01*
X76857420Y-108525000D01*
X77742580Y-108525000D01*
X78560361Y-108186264D01*
X79186264Y-107560361D01*
X79525000Y-106742580D01*
X79525000Y-105857420D01*
X79775000Y-105857420D01*
X79775000Y-106742580D01*
X80113736Y-107560361D01*
X80739639Y-108186264D01*
X81557420Y-108525000D01*
X82442580Y-108525000D01*
X83260361Y-108186264D01*
X83886264Y-107560361D01*
X84225000Y-106742580D01*
X84225000Y-105857420D01*
X83886264Y-105039639D01*
X83260361Y-104413736D01*
X82442580Y-104075000D01*
X81557420Y-104075000D01*
X80739639Y-104413736D01*
X80113736Y-105039639D01*
X79775000Y-105857420D01*
X79525000Y-105857420D01*
X79186264Y-105039639D01*
X78675000Y-104528375D01*
X78675000Y-102835418D01*
X78701936Y-102700000D01*
X78675000Y-102564582D01*
X78675000Y-102564578D01*
X78595221Y-102163502D01*
X78531177Y-102067654D01*
X78368029Y-101823486D01*
X78368028Y-101823485D01*
X78291318Y-101708681D01*
X78176515Y-101631972D01*
X75925000Y-99380457D01*
X75925000Y-99366822D01*
X75669996Y-98751189D01*
X75198811Y-98280004D01*
X74583178Y-98025000D01*
X73916822Y-98025000D01*
X73301189Y-98280004D01*
X72830004Y-98751189D01*
X72575000Y-99366822D01*
X72575000Y-100033178D01*
X72830004Y-100648811D01*
X73301189Y-101119996D01*
X73916822Y-101375000D01*
X74030457Y-101375000D01*
X75925000Y-103269543D01*
X75925001Y-104528374D01*
X75528375Y-104925000D01*
X74371625Y-104925000D01*
X73860361Y-104413736D01*
X73042580Y-104075000D01*
X72157420Y-104075000D01*
X71339639Y-104413736D01*
X70828375Y-104925000D01*
X66235417Y-104925000D01*
X66100000Y-104898064D01*
X65964583Y-104925000D01*
X65964578Y-104925000D01*
X65563502Y-105004779D01*
X65108681Y-105308681D01*
X65031970Y-105423487D01*
X64687803Y-105767654D01*
X63350000Y-105767654D01*
X63203683Y-105796758D01*
X63079641Y-105879641D01*
X62996758Y-106003683D01*
X62967654Y-106150000D01*
X60450000Y-106150000D01*
X60450000Y-100781250D01*
X62925000Y-100781250D01*
X62925000Y-101934538D01*
X62989702Y-102090743D01*
X63109257Y-102210298D01*
X63265462Y-102275000D01*
X64818750Y-102275000D01*
X64925000Y-102168750D01*
X64925000Y-100675000D01*
X65075000Y-100675000D01*
X65075000Y-102168750D01*
X65181250Y-102275000D01*
X66734538Y-102275000D01*
X66890743Y-102210298D01*
X67010298Y-102090743D01*
X67075000Y-101934538D01*
X67075000Y-100781250D01*
X66968750Y-100675000D01*
X65075000Y-100675000D01*
X64925000Y-100675000D01*
X63031250Y-100675000D01*
X62925000Y-100781250D01*
X60450000Y-100781250D01*
X60450000Y-99265462D01*
X62925000Y-99265462D01*
X62925000Y-100418750D01*
X63031250Y-100525000D01*
X64925000Y-100525000D01*
X64925000Y-99031250D01*
X65075000Y-99031250D01*
X65075000Y-100525000D01*
X66968750Y-100525000D01*
X67075000Y-100418750D01*
X67075000Y-99265462D01*
X67010298Y-99109257D01*
X66890743Y-98989702D01*
X66734538Y-98925000D01*
X65181250Y-98925000D01*
X65075000Y-99031250D01*
X64925000Y-99031250D01*
X64818750Y-98925000D01*
X63265462Y-98925000D01*
X63109257Y-98989702D01*
X62989702Y-99109257D01*
X62925000Y-99265462D01*
X60450000Y-99265462D01*
X60450000Y-94607148D01*
X63025000Y-94607148D01*
X63025000Y-95392852D01*
X63325675Y-96118748D01*
X63881252Y-96674325D01*
X64607148Y-96975000D01*
X65392852Y-96975000D01*
X66118748Y-96674325D01*
X66674325Y-96118748D01*
X66975000Y-95392852D01*
X66975000Y-94881250D01*
X69025000Y-94881250D01*
X69025000Y-96084538D01*
X69089702Y-96240743D01*
X69209257Y-96360298D01*
X69365462Y-96425000D01*
X70568750Y-96425000D01*
X70675000Y-96318750D01*
X70675000Y-94775000D01*
X70825000Y-94775000D01*
X70825000Y-96318750D01*
X70931250Y-96425000D01*
X72134538Y-96425000D01*
X72290743Y-96360298D01*
X72410298Y-96240743D01*
X72475000Y-96084538D01*
X72475000Y-94881250D01*
X72368750Y-94775000D01*
X70825000Y-94775000D01*
X70675000Y-94775000D01*
X69131250Y-94775000D01*
X69025000Y-94881250D01*
X66975000Y-94881250D01*
X66975000Y-94607148D01*
X66674325Y-93881252D01*
X66118748Y-93325675D01*
X66094092Y-93315462D01*
X69025000Y-93315462D01*
X69025000Y-94518750D01*
X69131250Y-94625000D01*
X70675000Y-94625000D01*
X70675000Y-93081250D01*
X70825000Y-93081250D01*
X70825000Y-94625000D01*
X72368750Y-94625000D01*
X72475000Y-94518750D01*
X72475000Y-93400000D01*
X77667654Y-93400000D01*
X77667654Y-96000000D01*
X77696758Y-96146317D01*
X77779641Y-96270359D01*
X77903683Y-96353242D01*
X78050000Y-96382346D01*
X80650000Y-96382346D01*
X80796317Y-96353242D01*
X80920359Y-96270359D01*
X81003242Y-96146317D01*
X81032346Y-96000000D01*
X81032346Y-95566228D01*
X83708864Y-98242747D01*
X83183178Y-98025000D01*
X82516822Y-98025000D01*
X81901189Y-98280004D01*
X81430004Y-98751189D01*
X81175000Y-99366822D01*
X81175000Y-100033178D01*
X81430004Y-100648811D01*
X81901189Y-101119996D01*
X82516822Y-101375000D01*
X83183178Y-101375000D01*
X83436279Y-101270162D01*
X84575000Y-102408883D01*
X84575001Y-107338440D01*
X84562756Y-107400000D01*
X84611263Y-107643862D01*
X84617969Y-107653898D01*
X84749401Y-107850600D01*
X84801589Y-107885471D01*
X90025969Y-113109851D01*
X89782388Y-113061400D01*
X88217612Y-113061400D01*
X87856322Y-113133265D01*
X87446620Y-113407020D01*
X87172865Y-113816722D01*
X87076735Y-114300000D01*
X87172865Y-114783278D01*
X87446620Y-115192980D01*
X87856322Y-115466735D01*
X88217612Y-115538600D01*
X89782388Y-115538600D01*
X90143678Y-115466735D01*
X90553380Y-115192980D01*
X90827135Y-114783278D01*
X90923265Y-114300000D01*
X90850549Y-113934431D01*
X96474989Y-119558872D01*
X96474990Y-135238429D01*
X96462745Y-135299989D01*
X96511252Y-135543851D01*
X96511253Y-135543852D01*
X96649390Y-135750589D01*
X96701577Y-135785459D01*
X98001585Y-137085468D01*
X98001588Y-137085470D01*
X98112201Y-137196083D01*
X98025000Y-137406604D01*
X98025000Y-137993396D01*
X98249555Y-138535520D01*
X98664480Y-138950445D01*
X99206604Y-139175000D01*
X99793396Y-139175000D01*
X100335520Y-138950445D01*
X100750445Y-138535520D01*
X100975000Y-137993396D01*
X100975000Y-137406604D01*
X100750445Y-136864480D01*
X100335520Y-136449555D01*
X99793396Y-136225000D01*
X99206604Y-136225000D01*
X98996083Y-136312201D01*
X98885470Y-136201588D01*
X98885468Y-136201585D01*
X97724989Y-135041107D01*
X97724989Y-133243793D01*
X108842273Y-133243793D01*
X108947812Y-133457951D01*
X109474204Y-133668397D01*
X110041060Y-133661383D01*
X110532188Y-133457951D01*
X110637727Y-133243793D01*
X109740000Y-132346066D01*
X108842273Y-133243793D01*
X97724989Y-133243793D01*
X97724989Y-131974204D01*
X108311603Y-131974204D01*
X108318617Y-132541060D01*
X108522049Y-133032188D01*
X108736207Y-133137727D01*
X109633934Y-132240000D01*
X109846066Y-132240000D01*
X110743793Y-133137727D01*
X110957951Y-133032188D01*
X111168397Y-132505796D01*
X111161724Y-131966495D01*
X118525000Y-131966495D01*
X118525000Y-132513505D01*
X118734331Y-133018875D01*
X119121125Y-133405669D01*
X119626495Y-133615000D01*
X120173505Y-133615000D01*
X120678875Y-133405669D01*
X121065669Y-133018875D01*
X121275000Y-132513505D01*
X121275000Y-131966495D01*
X121065669Y-131461125D01*
X120678875Y-131074331D01*
X120173505Y-130865000D01*
X119626495Y-130865000D01*
X119121125Y-131074331D01*
X118734331Y-131461125D01*
X118525000Y-131966495D01*
X111161724Y-131966495D01*
X111161383Y-131938940D01*
X110957951Y-131447812D01*
X110743793Y-131342273D01*
X109846066Y-132240000D01*
X109633934Y-132240000D01*
X108736207Y-131342273D01*
X108522049Y-131447812D01*
X108311603Y-131974204D01*
X97724989Y-131974204D01*
X97724989Y-131236207D01*
X108842273Y-131236207D01*
X109740000Y-132133934D01*
X110637727Y-131236207D01*
X110532188Y-131022049D01*
X110005796Y-130811603D01*
X109438940Y-130818617D01*
X108947812Y-131022049D01*
X108842273Y-131236207D01*
X97724989Y-131236207D01*
X97724989Y-126608871D01*
X98112201Y-126996083D01*
X98025000Y-127206604D01*
X98025000Y-127793396D01*
X98249555Y-128335520D01*
X98664480Y-128750445D01*
X99206604Y-128975000D01*
X99793396Y-128975000D01*
X100335520Y-128750445D01*
X100750445Y-128335520D01*
X100975000Y-127793396D01*
X100975000Y-127206604D01*
X100750445Y-126664480D01*
X100335520Y-126249555D01*
X99793396Y-126025000D01*
X99206604Y-126025000D01*
X98996083Y-126112201D01*
X98425000Y-125541118D01*
X98425000Y-119575316D01*
X99580755Y-119575316D01*
X99620387Y-119723835D01*
X99875389Y-120158145D01*
X100277183Y-120461810D01*
X100764600Y-120588600D01*
X101425000Y-120588600D01*
X101425000Y-119375000D01*
X101575000Y-119375000D01*
X101575000Y-120588600D01*
X102235400Y-120588600D01*
X102722817Y-120461810D01*
X103102309Y-120175000D01*
X106292654Y-120175000D01*
X106292654Y-123625000D01*
X106321758Y-123771317D01*
X106404641Y-123895359D01*
X106528683Y-123978242D01*
X106675000Y-124007346D01*
X110125000Y-124007346D01*
X110271317Y-123978242D01*
X110395359Y-123895359D01*
X110478242Y-123771317D01*
X110507346Y-123625000D01*
X110507346Y-122975000D01*
X115730457Y-122975000D01*
X125871972Y-133116516D01*
X125948681Y-133231319D01*
X126063484Y-133308028D01*
X126063485Y-133308029D01*
X126209614Y-133405669D01*
X126403502Y-133535221D01*
X126804578Y-133615000D01*
X126804582Y-133615000D01*
X126939999Y-133641936D01*
X127075416Y-133615000D01*
X129924583Y-133615000D01*
X130060000Y-133641936D01*
X130195417Y-133615000D01*
X130333505Y-133615000D01*
X130461077Y-133562158D01*
X130596498Y-133535221D01*
X130711302Y-133458512D01*
X130838875Y-133405669D01*
X130936516Y-133308028D01*
X131051319Y-133231319D01*
X131128028Y-133116516D01*
X131225669Y-133018875D01*
X131225670Y-133018873D01*
X131876513Y-132368030D01*
X131991319Y-132291319D01*
X132171427Y-132021769D01*
X132295221Y-131836499D01*
X132311334Y-131755494D01*
X132375000Y-131435422D01*
X132375000Y-131435418D01*
X132401936Y-131300000D01*
X132375000Y-131164582D01*
X132375000Y-128982346D01*
X132450001Y-128982346D01*
X132691989Y-128934212D01*
X132897136Y-128797136D01*
X133034212Y-128591989D01*
X133082346Y-128350001D01*
X133082346Y-127724999D01*
X133034212Y-127483011D01*
X132897136Y-127277864D01*
X132691989Y-127140788D01*
X132450001Y-127092654D01*
X132375000Y-127092654D01*
X132375000Y-126889589D01*
X132295221Y-126488513D01*
X132132347Y-126244755D01*
X132132347Y-126125000D01*
X132124922Y-126050016D01*
X132096451Y-125981483D01*
X132103243Y-125971318D01*
X132132347Y-125825000D01*
X132132347Y-125205245D01*
X132295221Y-124961487D01*
X132345773Y-124707346D01*
X132450001Y-124707346D01*
X132691989Y-124659212D01*
X132897136Y-124522136D01*
X133034212Y-124316989D01*
X133082346Y-124075001D01*
X133082346Y-123624697D01*
X133176515Y-123530528D01*
X133291318Y-123453819D01*
X133443541Y-123226003D01*
X133595221Y-122998998D01*
X133595221Y-122998997D01*
X133675000Y-122597922D01*
X133675000Y-122597921D01*
X133701937Y-122462500D01*
X133675000Y-122327078D01*
X133675000Y-119704046D01*
X133701936Y-119568629D01*
X133675000Y-119433212D01*
X133675000Y-119433208D01*
X133595221Y-119032132D01*
X133473116Y-118849389D01*
X133368029Y-118692115D01*
X133368028Y-118692114D01*
X133291319Y-118577311D01*
X133176516Y-118500602D01*
X130499399Y-115823486D01*
X130422689Y-115708681D01*
X129967868Y-115404779D01*
X129566792Y-115325000D01*
X129566787Y-115325000D01*
X129431370Y-115298064D01*
X129295953Y-115325000D01*
X115369543Y-115325000D01*
X113145584Y-113101041D01*
X113386264Y-112860361D01*
X113725000Y-112042580D01*
X113725000Y-111157420D01*
X113975000Y-111157420D01*
X113975000Y-112042580D01*
X114313736Y-112860361D01*
X114939639Y-113486264D01*
X115757420Y-113825000D01*
X116642580Y-113825000D01*
X117460361Y-113486264D01*
X118086264Y-112860361D01*
X118425000Y-112042580D01*
X118425000Y-111157420D01*
X118086264Y-110339639D01*
X117460361Y-109713736D01*
X116642580Y-109375000D01*
X115757420Y-109375000D01*
X114939639Y-109713736D01*
X114313736Y-110339639D01*
X113975000Y-111157420D01*
X113725000Y-111157420D01*
X113386264Y-110339639D01*
X112760361Y-109713736D01*
X111942580Y-109375000D01*
X111057420Y-109375000D01*
X110239639Y-109713736D01*
X109613736Y-110339639D01*
X109275000Y-111157420D01*
X109275000Y-112042580D01*
X109613736Y-112860361D01*
X110107241Y-113353866D01*
X110098064Y-113400000D01*
X110125000Y-113535417D01*
X110125000Y-113535421D01*
X110204779Y-113936497D01*
X110508681Y-114391318D01*
X110623485Y-114468028D01*
X113731970Y-117576513D01*
X113808681Y-117691319D01*
X113923486Y-117768029D01*
X114263501Y-117995221D01*
X114306596Y-118003793D01*
X114664578Y-118075000D01*
X114664582Y-118075000D01*
X114800000Y-118101936D01*
X114935418Y-118075000D01*
X122130456Y-118075000D01*
X122221125Y-118165669D01*
X122726495Y-118375000D01*
X123273505Y-118375000D01*
X123778875Y-118165669D01*
X123869544Y-118075000D01*
X128861827Y-118075000D01*
X130262346Y-119475519D01*
X130030889Y-119480338D01*
X129627858Y-119647278D01*
X129546730Y-119840664D01*
X130300000Y-120593934D01*
X130314143Y-120579792D01*
X130420209Y-120685858D01*
X130406066Y-120700000D01*
X130420209Y-120714143D01*
X130314143Y-120820209D01*
X130300000Y-120806066D01*
X129546730Y-121559336D01*
X129627858Y-121752722D01*
X130081882Y-121929806D01*
X130569111Y-121919662D01*
X130925000Y-121772249D01*
X130925000Y-121892957D01*
X130123485Y-122694472D01*
X130008681Y-122771182D01*
X129977629Y-122817654D01*
X129549999Y-122817654D01*
X129308011Y-122865788D01*
X129102864Y-123002864D01*
X128965788Y-123208011D01*
X128917654Y-123449999D01*
X128917654Y-124075001D01*
X128965788Y-124316989D01*
X129102864Y-124522136D01*
X129308011Y-124659212D01*
X129549999Y-124707346D01*
X129654227Y-124707346D01*
X129704779Y-124961488D01*
X129867653Y-125205245D01*
X129867653Y-125825000D01*
X129908750Y-125960734D01*
X129896757Y-125978682D01*
X129867653Y-126125000D01*
X129867653Y-126244755D01*
X129704779Y-126488512D01*
X129625000Y-126889588D01*
X129625000Y-127092654D01*
X129549999Y-127092654D01*
X129308011Y-127140788D01*
X129102864Y-127277864D01*
X128965788Y-127483011D01*
X128917654Y-127724999D01*
X128917654Y-128350001D01*
X128965788Y-128591989D01*
X129102864Y-128797136D01*
X129308011Y-128934212D01*
X129549999Y-128982346D01*
X129625000Y-128982346D01*
X129625001Y-130730456D01*
X129490457Y-130865000D01*
X127509544Y-130865000D01*
X118725794Y-122081250D01*
X123650000Y-122081250D01*
X123650000Y-123709538D01*
X123714702Y-123865743D01*
X123834257Y-123985298D01*
X123990462Y-124050000D01*
X125618750Y-124050000D01*
X125725000Y-123943750D01*
X125725000Y-121975000D01*
X125875000Y-121975000D01*
X125875000Y-123943750D01*
X125981250Y-124050000D01*
X127609538Y-124050000D01*
X127765743Y-123985298D01*
X127885298Y-123865743D01*
X127950000Y-123709538D01*
X127950000Y-122081250D01*
X127843750Y-121975000D01*
X125875000Y-121975000D01*
X125725000Y-121975000D01*
X123756250Y-121975000D01*
X123650000Y-122081250D01*
X118725794Y-122081250D01*
X117368030Y-120723487D01*
X117291319Y-120608681D01*
X116836498Y-120304779D01*
X116435422Y-120225000D01*
X116435417Y-120225000D01*
X116300000Y-120198064D01*
X116164583Y-120225000D01*
X110507346Y-120225000D01*
X110507346Y-120175000D01*
X110490531Y-120090462D01*
X123650000Y-120090462D01*
X123650000Y-121718750D01*
X123756250Y-121825000D01*
X125725000Y-121825000D01*
X125725000Y-119856250D01*
X125875000Y-119856250D01*
X125875000Y-121825000D01*
X127843750Y-121825000D01*
X127950000Y-121718750D01*
X127950000Y-120481882D01*
X129070194Y-120481882D01*
X129080338Y-120969111D01*
X129247278Y-121372142D01*
X129440664Y-121453270D01*
X130193934Y-120700000D01*
X129440664Y-119946730D01*
X129247278Y-120027858D01*
X129070194Y-120481882D01*
X127950000Y-120481882D01*
X127950000Y-120090462D01*
X127885298Y-119934257D01*
X127765743Y-119814702D01*
X127609538Y-119750000D01*
X125981250Y-119750000D01*
X125875000Y-119856250D01*
X125725000Y-119856250D01*
X125618750Y-119750000D01*
X123990462Y-119750000D01*
X123834257Y-119814702D01*
X123714702Y-119934257D01*
X123650000Y-120090462D01*
X110490531Y-120090462D01*
X110478242Y-120028683D01*
X110395359Y-119904641D01*
X110271317Y-119821758D01*
X110125000Y-119792654D01*
X106675000Y-119792654D01*
X106528683Y-119821758D01*
X106404641Y-119904641D01*
X106321758Y-120028683D01*
X106292654Y-120175000D01*
X103102309Y-120175000D01*
X103124611Y-120158145D01*
X103379613Y-119723835D01*
X103419245Y-119575316D01*
X103340369Y-119375000D01*
X101575000Y-119375000D01*
X101425000Y-119375000D01*
X99659631Y-119375000D01*
X99580755Y-119575316D01*
X98425000Y-119575316D01*
X98425000Y-119071589D01*
X98434330Y-119024684D01*
X99580755Y-119024684D01*
X99659631Y-119225000D01*
X101425000Y-119225000D01*
X101425000Y-118011400D01*
X101575000Y-118011400D01*
X101575000Y-119225000D01*
X103340369Y-119225000D01*
X103419245Y-119024684D01*
X103379613Y-118876165D01*
X103124611Y-118441855D01*
X102722817Y-118138190D01*
X102235400Y-118011400D01*
X101575000Y-118011400D01*
X101425000Y-118011400D01*
X100764600Y-118011400D01*
X100277183Y-118138190D01*
X99875389Y-118441855D01*
X99620387Y-118876165D01*
X99580755Y-119024684D01*
X98434330Y-119024684D01*
X98437244Y-119010035D01*
X98415669Y-118901573D01*
X98388737Y-118766173D01*
X98250600Y-118559436D01*
X98198416Y-118524568D01*
X97677641Y-118003793D01*
X108802273Y-118003793D01*
X108907812Y-118217951D01*
X109434204Y-118428397D01*
X110001060Y-118421383D01*
X110492188Y-118217951D01*
X110597727Y-118003793D01*
X109700000Y-117106066D01*
X108802273Y-118003793D01*
X97677641Y-118003793D01*
X96408052Y-116734204D01*
X108271603Y-116734204D01*
X108278617Y-117301060D01*
X108482049Y-117792188D01*
X108696207Y-117897727D01*
X109593934Y-117000000D01*
X109806066Y-117000000D01*
X110703793Y-117897727D01*
X110917951Y-117792188D01*
X111128397Y-117265796D01*
X111121383Y-116698940D01*
X110917951Y-116207812D01*
X110703793Y-116102273D01*
X109806066Y-117000000D01*
X109593934Y-117000000D01*
X108696207Y-116102273D01*
X108482049Y-116207812D01*
X108271603Y-116734204D01*
X96408052Y-116734204D01*
X95670055Y-115996207D01*
X108802273Y-115996207D01*
X109700000Y-116893934D01*
X110597727Y-115996207D01*
X110492188Y-115782049D01*
X109965796Y-115571603D01*
X109398940Y-115578617D01*
X108907812Y-115782049D01*
X108802273Y-115996207D01*
X95670055Y-115996207D01*
X89388846Y-109715000D01*
X90315724Y-109715000D01*
X90658462Y-109646825D01*
X91047127Y-109387127D01*
X91306825Y-108998462D01*
X91398019Y-108540000D01*
X91306825Y-108081538D01*
X91047127Y-107692873D01*
X90658462Y-107433175D01*
X90315724Y-107365000D01*
X89284276Y-107365000D01*
X89137982Y-107394100D01*
X88926228Y-107182346D01*
X91000000Y-107182346D01*
X91146317Y-107153242D01*
X91270359Y-107070359D01*
X91353242Y-106946317D01*
X91382346Y-106800000D01*
X91382346Y-105200000D01*
X91353242Y-105053683D01*
X91270359Y-104929641D01*
X91146317Y-104846758D01*
X91000000Y-104817654D01*
X90516228Y-104817654D01*
X90801536Y-104532346D01*
X91800000Y-104532346D01*
X91946317Y-104503242D01*
X92070359Y-104420359D01*
X92153242Y-104296317D01*
X92182346Y-104150000D01*
X92182346Y-103825000D01*
X92331100Y-103825000D01*
X92368711Y-103881289D01*
X92563721Y-104011590D01*
X92793750Y-104057346D01*
X93231250Y-104057346D01*
X93461279Y-104011590D01*
X93656289Y-103881289D01*
X93786590Y-103686279D01*
X93800000Y-103618863D01*
X93813410Y-103686279D01*
X93943711Y-103881289D01*
X94138721Y-104011590D01*
X94368750Y-104057346D01*
X94806250Y-104057346D01*
X95036279Y-104011590D01*
X95231289Y-103881289D01*
X95317654Y-103752034D01*
X95317654Y-104150000D01*
X95346758Y-104296317D01*
X95429641Y-104420359D01*
X95553683Y-104503242D01*
X95700000Y-104532346D01*
X97000000Y-104532346D01*
X97146317Y-104503242D01*
X97270359Y-104420359D01*
X97353242Y-104296317D01*
X97379654Y-104163536D01*
X98067286Y-104851169D01*
X97935724Y-104825000D01*
X96904276Y-104825000D01*
X96561538Y-104893175D01*
X96172873Y-105152873D01*
X95913175Y-105541538D01*
X95821981Y-106000000D01*
X95913175Y-106458462D01*
X96172873Y-106847127D01*
X96561538Y-107106825D01*
X96904276Y-107175000D01*
X97935724Y-107175000D01*
X98278462Y-107106825D01*
X98667127Y-106847127D01*
X98926825Y-106458462D01*
X99018019Y-106000000D01*
X98968831Y-105752715D01*
X99014531Y-105798415D01*
X99049400Y-105850600D01*
X99256137Y-105988737D01*
X99438445Y-106025000D01*
X99499999Y-106037244D01*
X99561553Y-106025000D01*
X100165924Y-106025000D01*
X100229641Y-106120359D01*
X100353683Y-106203242D01*
X100500000Y-106232346D01*
X101300000Y-106232346D01*
X101446317Y-106203242D01*
X101570359Y-106120359D01*
X101596842Y-106080724D01*
X102041117Y-106525000D01*
X102031250Y-106525000D01*
X101925000Y-106631250D01*
X101925000Y-107325000D01*
X101945000Y-107325000D01*
X101945000Y-107475000D01*
X101925000Y-107475000D01*
X101925000Y-107495000D01*
X101775000Y-107495000D01*
X101775000Y-107475000D01*
X101131250Y-107475000D01*
X101025000Y-107581250D01*
X101025000Y-107934538D01*
X101033359Y-107954719D01*
X101009257Y-107964702D01*
X100889702Y-108084257D01*
X100829837Y-108228784D01*
X100756289Y-108118711D01*
X100737500Y-108106157D01*
X100737500Y-107624055D01*
X100749744Y-107562500D01*
X100737500Y-107500945D01*
X100732346Y-107475034D01*
X100732346Y-106950000D01*
X100715531Y-106865462D01*
X101025000Y-106865462D01*
X101025000Y-107218750D01*
X101131250Y-107325000D01*
X101775000Y-107325000D01*
X101775000Y-106631250D01*
X101668750Y-106525000D01*
X101365462Y-106525000D01*
X101209257Y-106589702D01*
X101089702Y-106709257D01*
X101025000Y-106865462D01*
X100715531Y-106865462D01*
X100703242Y-106803683D01*
X100620359Y-106679641D01*
X100496317Y-106596758D01*
X100350000Y-106567654D01*
X99550000Y-106567654D01*
X99403683Y-106596758D01*
X99279641Y-106679641D01*
X99196758Y-106803683D01*
X99167654Y-106950000D01*
X99167654Y-107850000D01*
X99180583Y-107915000D01*
X98815548Y-107915000D01*
X98667127Y-107692873D01*
X98278462Y-107433175D01*
X97935724Y-107365000D01*
X96904276Y-107365000D01*
X96561538Y-107433175D01*
X96172873Y-107692873D01*
X95913175Y-108081538D01*
X95821981Y-108540000D01*
X95913175Y-108998462D01*
X96172873Y-109387127D01*
X96561538Y-109646825D01*
X96904276Y-109715000D01*
X97935724Y-109715000D01*
X98278462Y-109646825D01*
X98667127Y-109387127D01*
X98815548Y-109165000D01*
X99314286Y-109165000D01*
X99338410Y-109286279D01*
X99468711Y-109481289D01*
X99663721Y-109611590D01*
X99893750Y-109657346D01*
X100331250Y-109657346D01*
X100561279Y-109611590D01*
X100756289Y-109481289D01*
X100829837Y-109371216D01*
X100889702Y-109515743D01*
X101009257Y-109635298D01*
X101165462Y-109700000D01*
X101506250Y-109700000D01*
X101612500Y-109593750D01*
X101612500Y-108875000D01*
X101592500Y-108875000D01*
X101592500Y-108725000D01*
X101612500Y-108725000D01*
X101612500Y-108705000D01*
X101762500Y-108705000D01*
X101762500Y-108725000D01*
X101782500Y-108725000D01*
X101782500Y-108875000D01*
X101762500Y-108875000D01*
X101762500Y-109593750D01*
X101868750Y-109700000D01*
X102209538Y-109700000D01*
X102365743Y-109635298D01*
X102475001Y-109526040D01*
X102475000Y-112441117D01*
X101854718Y-113061400D01*
X100717612Y-113061400D01*
X100356322Y-113133265D01*
X99946620Y-113407020D01*
X99672865Y-113816722D01*
X99576735Y-114300000D01*
X99672865Y-114783278D01*
X99946620Y-115192980D01*
X100356322Y-115466735D01*
X100717612Y-115538600D01*
X102282388Y-115538600D01*
X102643678Y-115466735D01*
X103053380Y-115192980D01*
X103327135Y-114783278D01*
X103423265Y-114300000D01*
X103327135Y-113816722D01*
X103142895Y-113540988D01*
X103498413Y-113185470D01*
X103550600Y-113150600D01*
X103688737Y-112943863D01*
X103725000Y-112761555D01*
X103725000Y-112761554D01*
X103737244Y-112700000D01*
X103725000Y-112638445D01*
X103725000Y-110775000D01*
X103967653Y-110775000D01*
X103967653Y-111775000D01*
X103975078Y-111849984D01*
X104003549Y-111918517D01*
X103996757Y-111928682D01*
X103967653Y-112075000D01*
X103967653Y-113225000D01*
X103996757Y-113371318D01*
X104079640Y-113495360D01*
X104203682Y-113578243D01*
X104350000Y-113607347D01*
X105850000Y-113607347D01*
X105996318Y-113578243D01*
X106120360Y-113495360D01*
X106175726Y-113412500D01*
X106406157Y-113412500D01*
X106418711Y-113431289D01*
X106613721Y-113561590D01*
X106843750Y-113607346D01*
X107356250Y-113607346D01*
X107586279Y-113561590D01*
X107781289Y-113431289D01*
X107911590Y-113236279D01*
X107957346Y-113006250D01*
X107957346Y-112568750D01*
X107911590Y-112338721D01*
X107781289Y-112143711D01*
X107586279Y-112013410D01*
X107518863Y-112000000D01*
X107586279Y-111986590D01*
X107781289Y-111856289D01*
X107911590Y-111661279D01*
X107957346Y-111431250D01*
X107957346Y-111239037D01*
X107998413Y-111197970D01*
X108050600Y-111163100D01*
X108188737Y-110956363D01*
X108225000Y-110774055D01*
X108225000Y-110774054D01*
X108237244Y-110712500D01*
X108225000Y-110650945D01*
X108225000Y-109325000D01*
X117518445Y-109325000D01*
X117580000Y-109337244D01*
X117641555Y-109325000D01*
X117823863Y-109288737D01*
X118030600Y-109150600D01*
X118065472Y-109098410D01*
X119139157Y-108024726D01*
X119236387Y-108065000D01*
X119743613Y-108065000D01*
X120212230Y-107870893D01*
X120570893Y-107512230D01*
X120706569Y-107184678D01*
X120734779Y-107326498D01*
X121038681Y-107781319D01*
X121493502Y-108085221D01*
X121894578Y-108165000D01*
X127290457Y-108165000D01*
X125230457Y-110225000D01*
X122671625Y-110225000D01*
X122160361Y-109713736D01*
X121342580Y-109375000D01*
X120457420Y-109375000D01*
X119639639Y-109713736D01*
X119013736Y-110339639D01*
X118675000Y-111157420D01*
X118675000Y-112042580D01*
X119013736Y-112860361D01*
X119639639Y-113486264D01*
X120457420Y-113825000D01*
X121342580Y-113825000D01*
X122160361Y-113486264D01*
X122671625Y-112975000D01*
X125664583Y-112975000D01*
X125800000Y-113001936D01*
X125935417Y-112975000D01*
X125935422Y-112975000D01*
X126336498Y-112895221D01*
X126791319Y-112591319D01*
X126868030Y-112476513D01*
X131312197Y-108032346D01*
X132650000Y-108032346D01*
X132796317Y-108003242D01*
X132920359Y-107920359D01*
X133003242Y-107796317D01*
X133032346Y-107650000D01*
X133032346Y-105150000D01*
X133003242Y-105003683D01*
X132920359Y-104879641D01*
X132796317Y-104796758D01*
X132650000Y-104767654D01*
X129350000Y-104767654D01*
X129203683Y-104796758D01*
X129079641Y-104879641D01*
X128996758Y-105003683D01*
X128967654Y-105150000D01*
X128967654Y-105415000D01*
X123960584Y-105415000D01*
X124032173Y-105385347D01*
X124125509Y-105181575D01*
X123300000Y-104356066D01*
X122474491Y-105181575D01*
X122567827Y-105385347D01*
X122642846Y-105415000D01*
X121894578Y-105415000D01*
X121493502Y-105494779D01*
X121038681Y-105798681D01*
X120734779Y-106253502D01*
X120706569Y-106395322D01*
X120570893Y-106067770D01*
X120212230Y-105709107D01*
X119743613Y-105515000D01*
X119236387Y-105515000D01*
X118767770Y-105709107D01*
X118409107Y-106067770D01*
X118215000Y-106536387D01*
X118215000Y-107043613D01*
X118255274Y-107140843D01*
X117321118Y-108075000D01*
X108225000Y-108075000D01*
X108225000Y-107858123D01*
X108570893Y-107512230D01*
X108760000Y-107055684D01*
X108949107Y-107512230D01*
X109307770Y-107870893D01*
X109776387Y-108065000D01*
X110283613Y-108065000D01*
X110752230Y-107870893D01*
X111110893Y-107512230D01*
X111305000Y-107043613D01*
X111305000Y-106536387D01*
X111110893Y-106067770D01*
X110752230Y-105709107D01*
X110283613Y-105515000D01*
X109776387Y-105515000D01*
X109307770Y-105709107D01*
X108949107Y-106067770D01*
X108760000Y-106524316D01*
X108570893Y-106067770D01*
X108212230Y-105709107D01*
X107743613Y-105515000D01*
X107236387Y-105515000D01*
X106767770Y-105709107D01*
X106409107Y-106067770D01*
X106215000Y-106536387D01*
X106215000Y-107043613D01*
X106409107Y-107512230D01*
X106767770Y-107870893D01*
X106975000Y-107956730D01*
X106975001Y-108203242D01*
X106975001Y-108638442D01*
X106962756Y-108700000D01*
X106975001Y-108761558D01*
X106975000Y-110392654D01*
X106843750Y-110392654D01*
X106613721Y-110438410D01*
X106418711Y-110568711D01*
X106288410Y-110763721D01*
X106242654Y-110993750D01*
X106242654Y-111431250D01*
X106288410Y-111661279D01*
X106418711Y-111856289D01*
X106613721Y-111986590D01*
X106681137Y-112000000D01*
X106613721Y-112013410D01*
X106418711Y-112143711D01*
X106406157Y-112162500D01*
X106232347Y-112162500D01*
X106232347Y-112075000D01*
X106191250Y-111939266D01*
X106203243Y-111921318D01*
X106232347Y-111775000D01*
X106232347Y-110775000D01*
X106203243Y-110628682D01*
X106120360Y-110504640D01*
X105996318Y-110421757D01*
X105850000Y-110392653D01*
X105725000Y-110392653D01*
X105725000Y-106458882D01*
X107308884Y-104875000D01*
X107638833Y-104875000D01*
X107679107Y-104972230D01*
X108037770Y-105330893D01*
X108506387Y-105525000D01*
X109013613Y-105525000D01*
X109482230Y-105330893D01*
X109631548Y-105181575D01*
X110474491Y-105181575D01*
X110567827Y-105385347D01*
X111058039Y-105579114D01*
X111585087Y-105570536D01*
X112032173Y-105385347D01*
X112125509Y-105181575D01*
X111300000Y-104356066D01*
X110474491Y-105181575D01*
X109631548Y-105181575D01*
X109840893Y-104972230D01*
X110000714Y-104586388D01*
X110164653Y-104982173D01*
X110368425Y-105075509D01*
X111193934Y-104250000D01*
X111406066Y-104250000D01*
X112231575Y-105075509D01*
X112435347Y-104982173D01*
X112629114Y-104491961D01*
X112620536Y-103964913D01*
X112435347Y-103517827D01*
X112231575Y-103424491D01*
X111406066Y-104250000D01*
X111193934Y-104250000D01*
X110368425Y-103424491D01*
X110164653Y-103517827D01*
X110004550Y-103922873D01*
X109840893Y-103527770D01*
X109631548Y-103318425D01*
X110474491Y-103318425D01*
X111300000Y-104143934D01*
X112125509Y-103318425D01*
X112032173Y-103114653D01*
X111541961Y-102920886D01*
X111014913Y-102929464D01*
X110567827Y-103114653D01*
X110474491Y-103318425D01*
X109631548Y-103318425D01*
X109482230Y-103169107D01*
X109460843Y-103160248D01*
X109896092Y-102725000D01*
X118351118Y-102725000D01*
X119525274Y-103899157D01*
X119485000Y-103996387D01*
X119485000Y-104503613D01*
X119679107Y-104972230D01*
X120037770Y-105330893D01*
X120506387Y-105525000D01*
X121013613Y-105525000D01*
X121482230Y-105330893D01*
X121840893Y-104972230D01*
X122000714Y-104586388D01*
X122164653Y-104982173D01*
X122368425Y-105075509D01*
X123193934Y-104250000D01*
X123406066Y-104250000D01*
X124231575Y-105075509D01*
X124435347Y-104982173D01*
X124629114Y-104491961D01*
X124620536Y-103964913D01*
X124435347Y-103517827D01*
X124231575Y-103424491D01*
X123406066Y-104250000D01*
X123193934Y-104250000D01*
X122368425Y-103424491D01*
X122164653Y-103517827D01*
X122004550Y-103922873D01*
X121840893Y-103527770D01*
X121631548Y-103318425D01*
X122474491Y-103318425D01*
X123300000Y-104143934D01*
X124125509Y-103318425D01*
X124032173Y-103114653D01*
X123541961Y-102920886D01*
X123014913Y-102929464D01*
X122567827Y-103114653D01*
X122474491Y-103318425D01*
X121631548Y-103318425D01*
X121482230Y-103169107D01*
X121013613Y-102975000D01*
X120506387Y-102975000D01*
X120409157Y-103015274D01*
X119095472Y-101701590D01*
X119060600Y-101649400D01*
X118853863Y-101511263D01*
X118671555Y-101475000D01*
X118610000Y-101462756D01*
X118548445Y-101475000D01*
X109698761Y-101475000D01*
X109637207Y-101462756D01*
X109575653Y-101475000D01*
X109393345Y-101511263D01*
X109186608Y-101649400D01*
X109151739Y-101701585D01*
X108361588Y-102491738D01*
X108309401Y-102526608D01*
X108252836Y-102611264D01*
X108171263Y-102733346D01*
X108122756Y-102977208D01*
X108135001Y-103038768D01*
X108135001Y-103128833D01*
X108037770Y-103169107D01*
X107679107Y-103527770D01*
X107638833Y-103625000D01*
X107111553Y-103625000D01*
X107049999Y-103612756D01*
X106988445Y-103625000D01*
X106806137Y-103661263D01*
X106599400Y-103799400D01*
X106564532Y-103851584D01*
X104701590Y-105714528D01*
X104649400Y-105749400D01*
X104558484Y-105885467D01*
X104511263Y-105956138D01*
X104462756Y-106200000D01*
X104475000Y-106261555D01*
X104475001Y-110392653D01*
X104350000Y-110392653D01*
X104203682Y-110421757D01*
X104079640Y-110504640D01*
X103996757Y-110628682D01*
X103967653Y-110775000D01*
X103725000Y-110775000D01*
X103725000Y-106761555D01*
X103737244Y-106700000D01*
X103688737Y-106456137D01*
X103651228Y-106400001D01*
X103550600Y-106249400D01*
X103498412Y-106214529D01*
X102285472Y-105001590D01*
X102250600Y-104949400D01*
X102043863Y-104811263D01*
X101861555Y-104775000D01*
X101800000Y-104762756D01*
X101738445Y-104775000D01*
X101634076Y-104775000D01*
X101570359Y-104679641D01*
X101446317Y-104596758D01*
X101300000Y-104567654D01*
X100500000Y-104567654D01*
X100353683Y-104596758D01*
X100229641Y-104679641D01*
X100165924Y-104775000D01*
X99758884Y-104775000D01*
X99516230Y-104532346D01*
X100500000Y-104532346D01*
X100646317Y-104503242D01*
X100770359Y-104420359D01*
X100853242Y-104296317D01*
X100882346Y-104150000D01*
X100882346Y-102450000D01*
X100853242Y-102303683D01*
X100770359Y-102179641D01*
X100646317Y-102096758D01*
X100500000Y-102067654D01*
X100475000Y-102067654D01*
X100475000Y-101336966D01*
X100998811Y-101119996D01*
X101469996Y-100648811D01*
X101725000Y-100033178D01*
X101725000Y-99366822D01*
X101469996Y-98751189D01*
X100998811Y-98280004D01*
X100383178Y-98025000D01*
X99716822Y-98025000D01*
X99101189Y-98280004D01*
X98630004Y-98751189D01*
X98375000Y-99366822D01*
X98375000Y-100033178D01*
X98630004Y-100648811D01*
X99101189Y-101119996D01*
X99225001Y-101171281D01*
X99225000Y-102067654D01*
X99200000Y-102067654D01*
X99053683Y-102096758D01*
X98929641Y-102179641D01*
X98846758Y-102303683D01*
X98817654Y-102450000D01*
X98817654Y-103833771D01*
X97885472Y-102901590D01*
X97850600Y-102849400D01*
X97643863Y-102711263D01*
X97461555Y-102675000D01*
X97400000Y-102662756D01*
X97382346Y-102666268D01*
X97382346Y-102450000D01*
X97353242Y-102303683D01*
X97270359Y-102179641D01*
X97146317Y-102096758D01*
X97000000Y-102067654D01*
X96875000Y-102067654D01*
X96875000Y-97502175D01*
X103590000Y-97502175D01*
X103590000Y-98297825D01*
X103894482Y-99032909D01*
X104457091Y-99595518D01*
X105192175Y-99900000D01*
X105987825Y-99900000D01*
X106722909Y-99595518D01*
X107285518Y-99032909D01*
X107590000Y-98297825D01*
X107590000Y-97502175D01*
X111210000Y-97502175D01*
X111210000Y-98297825D01*
X111514482Y-99032909D01*
X112077091Y-99595518D01*
X112812175Y-99900000D01*
X113607825Y-99900000D01*
X114342909Y-99595518D01*
X114905518Y-99032909D01*
X115210000Y-98297825D01*
X115210000Y-97502175D01*
X115590000Y-97502175D01*
X115590000Y-98297825D01*
X115894482Y-99032909D01*
X116457091Y-99595518D01*
X117192175Y-99900000D01*
X117987825Y-99900000D01*
X118722909Y-99595518D01*
X119285518Y-99032909D01*
X119590000Y-98297825D01*
X119590000Y-97502175D01*
X123210000Y-97502175D01*
X123210000Y-98297825D01*
X123514482Y-99032909D01*
X124077091Y-99595518D01*
X124812175Y-99900000D01*
X125607825Y-99900000D01*
X125894512Y-99781250D01*
X128925000Y-99781250D01*
X128925000Y-100934538D01*
X128989702Y-101090743D01*
X129109257Y-101210298D01*
X129265462Y-101275000D01*
X130818750Y-101275000D01*
X130925000Y-101168750D01*
X130925000Y-99675000D01*
X131075000Y-99675000D01*
X131075000Y-101168750D01*
X131181250Y-101275000D01*
X132734538Y-101275000D01*
X132890743Y-101210298D01*
X133010298Y-101090743D01*
X133075000Y-100934538D01*
X133075000Y-99781250D01*
X132968750Y-99675000D01*
X131075000Y-99675000D01*
X130925000Y-99675000D01*
X129031250Y-99675000D01*
X128925000Y-99781250D01*
X125894512Y-99781250D01*
X126342909Y-99595518D01*
X126905518Y-99032909D01*
X127210000Y-98297825D01*
X127210000Y-98265462D01*
X128925000Y-98265462D01*
X128925000Y-99418750D01*
X129031250Y-99525000D01*
X130925000Y-99525000D01*
X130925000Y-98031250D01*
X131075000Y-98031250D01*
X131075000Y-99525000D01*
X132968750Y-99525000D01*
X133075000Y-99418750D01*
X133075000Y-98265462D01*
X133010298Y-98109257D01*
X132890743Y-97989702D01*
X132734538Y-97925000D01*
X131181250Y-97925000D01*
X131075000Y-98031250D01*
X130925000Y-98031250D01*
X130818750Y-97925000D01*
X129265462Y-97925000D01*
X129109257Y-97989702D01*
X128989702Y-98109257D01*
X128925000Y-98265462D01*
X127210000Y-98265462D01*
X127210000Y-97502175D01*
X126905518Y-96767091D01*
X126342909Y-96204482D01*
X125607825Y-95900000D01*
X124812175Y-95900000D01*
X124077091Y-96204482D01*
X123514482Y-96767091D01*
X123210000Y-97502175D01*
X119590000Y-97502175D01*
X119285518Y-96767091D01*
X118722909Y-96204482D01*
X117987825Y-95900000D01*
X117192175Y-95900000D01*
X116457091Y-96204482D01*
X115894482Y-96767091D01*
X115590000Y-97502175D01*
X115210000Y-97502175D01*
X114905518Y-96767091D01*
X114342909Y-96204482D01*
X113607825Y-95900000D01*
X112812175Y-95900000D01*
X112077091Y-96204482D01*
X111514482Y-96767091D01*
X111210000Y-97502175D01*
X107590000Y-97502175D01*
X107285518Y-96767091D01*
X106722909Y-96204482D01*
X105987825Y-95900000D01*
X105192175Y-95900000D01*
X104457091Y-96204482D01*
X103894482Y-96767091D01*
X103590000Y-97502175D01*
X96875000Y-97502175D01*
X96875000Y-96382346D01*
X97850000Y-96382346D01*
X97996317Y-96353242D01*
X98120359Y-96270359D01*
X98203242Y-96146317D01*
X98232346Y-96000000D01*
X98232346Y-93607148D01*
X129025000Y-93607148D01*
X129025000Y-94392852D01*
X129325675Y-95118748D01*
X129881252Y-95674325D01*
X130607148Y-95975000D01*
X131392852Y-95975000D01*
X132118748Y-95674325D01*
X132674325Y-95118748D01*
X132975000Y-94392852D01*
X132975000Y-93607148D01*
X132674325Y-92881252D01*
X132118748Y-92325675D01*
X131392852Y-92025000D01*
X130607148Y-92025000D01*
X129881252Y-92325675D01*
X129325675Y-92881252D01*
X129025000Y-93607148D01*
X98232346Y-93607148D01*
X98232346Y-93400000D01*
X98203242Y-93253683D01*
X98120359Y-93129641D01*
X97996317Y-93046758D01*
X97850000Y-93017654D01*
X95250000Y-93017654D01*
X95103683Y-93046758D01*
X94979641Y-93129641D01*
X94896758Y-93253683D01*
X94867654Y-93400000D01*
X94867654Y-96000000D01*
X94896758Y-96146317D01*
X94979641Y-96270359D01*
X95103683Y-96353242D01*
X95250000Y-96382346D01*
X95625000Y-96382346D01*
X95625001Y-102082572D01*
X95553683Y-102096758D01*
X95429641Y-102179641D01*
X95346758Y-102303683D01*
X95317654Y-102450000D01*
X95317654Y-102647966D01*
X95231289Y-102518711D01*
X95036279Y-102388410D01*
X94806250Y-102342654D01*
X94776537Y-102342654D01*
X92932294Y-100498411D01*
X93125000Y-100033178D01*
X93125000Y-99366822D01*
X92869996Y-98751189D01*
X92398811Y-98280004D01*
X91783178Y-98025000D01*
X91116822Y-98025000D01*
X90501189Y-98280004D01*
X90030004Y-98751189D01*
X89775000Y-99366822D01*
X89775000Y-100033178D01*
X90030004Y-100648811D01*
X90501189Y-101119996D01*
X91116822Y-101375000D01*
X91783178Y-101375000D01*
X91965569Y-101299451D01*
X93008771Y-102342654D01*
X92793750Y-102342654D01*
X92563721Y-102388410D01*
X92368711Y-102518711D01*
X92331100Y-102575000D01*
X92182346Y-102575000D01*
X92182346Y-102450000D01*
X92153242Y-102303683D01*
X92070359Y-102179641D01*
X91946317Y-102096758D01*
X91800000Y-102067654D01*
X90500000Y-102067654D01*
X90353683Y-102096758D01*
X90229641Y-102179641D01*
X90146758Y-102303683D01*
X90117654Y-102450000D01*
X90117654Y-103448463D01*
X89401588Y-104164530D01*
X89349401Y-104199400D01*
X89274462Y-104311555D01*
X89211263Y-104406138D01*
X89162756Y-104650000D01*
X89175001Y-104711560D01*
X89175001Y-104817654D01*
X88600000Y-104817654D01*
X88453683Y-104846758D01*
X88329641Y-104929641D01*
X88275000Y-105011416D01*
X88275000Y-104532346D01*
X88300000Y-104532346D01*
X88446317Y-104503242D01*
X88570359Y-104420359D01*
X88653242Y-104296317D01*
X88682346Y-104150000D01*
X88682346Y-102450000D01*
X88653242Y-102303683D01*
X88570359Y-102179641D01*
X88446317Y-102096758D01*
X88375000Y-102082572D01*
X88375000Y-96382346D01*
X89250000Y-96382346D01*
X89396317Y-96353242D01*
X89520359Y-96270359D01*
X89603242Y-96146317D01*
X89632346Y-96000000D01*
X89632346Y-93400000D01*
X89603242Y-93253683D01*
X89520359Y-93129641D01*
X89396317Y-93046758D01*
X89250000Y-93017654D01*
X86650000Y-93017654D01*
X86503683Y-93046758D01*
X86379641Y-93129641D01*
X86296758Y-93253683D01*
X86267654Y-93400000D01*
X86267654Y-96000000D01*
X86296758Y-96146317D01*
X86379641Y-96270359D01*
X86503683Y-96353242D01*
X86650000Y-96382346D01*
X87125000Y-96382346D01*
X87125001Y-102067654D01*
X87000000Y-102067654D01*
X86853683Y-102096758D01*
X86825000Y-102115924D01*
X86825000Y-99911555D01*
X86837244Y-99850000D01*
X86788737Y-99606137D01*
X86781642Y-99595518D01*
X86650600Y-99399400D01*
X86598413Y-99364530D01*
X81535473Y-94301590D01*
X81500600Y-94249400D01*
X81293863Y-94111263D01*
X81111555Y-94075000D01*
X81050000Y-94062756D01*
X81032346Y-94066268D01*
X81032346Y-93400000D01*
X81003242Y-93253683D01*
X80920359Y-93129641D01*
X80796317Y-93046758D01*
X80650000Y-93017654D01*
X78050000Y-93017654D01*
X77903683Y-93046758D01*
X77779641Y-93129641D01*
X77696758Y-93253683D01*
X77667654Y-93400000D01*
X72475000Y-93400000D01*
X72475000Y-93315462D01*
X72410298Y-93159257D01*
X72290743Y-93039702D01*
X72134538Y-92975000D01*
X70931250Y-92975000D01*
X70825000Y-93081250D01*
X70675000Y-93081250D01*
X70568750Y-92975000D01*
X69365462Y-92975000D01*
X69209257Y-93039702D01*
X69089702Y-93159257D01*
X69025000Y-93315462D01*
X66094092Y-93315462D01*
X65392852Y-93025000D01*
X64607148Y-93025000D01*
X63881252Y-93325675D01*
X63325675Y-93881252D01*
X63025000Y-94607148D01*
X60450000Y-94607148D01*
X60450000Y-90450000D01*
X134550000Y-90450000D01*
X134550001Y-146375000D01*
X134550001Y-146375000D01*
G37*
X134550001Y-146375000D02*
X104407347Y-146375000D01*
X104407347Y-145150000D01*
X104378243Y-145003682D01*
X104295360Y-144879640D01*
X104171318Y-144796757D01*
X104025000Y-144767653D01*
X103956586Y-144767653D01*
X93125000Y-132951377D01*
X93125000Y-124000000D01*
X93115485Y-123952165D01*
X93088388Y-123911612D01*
X89759188Y-120582412D01*
X90222817Y-120461810D01*
X90624611Y-120158145D01*
X90879613Y-119723835D01*
X90919245Y-119575316D01*
X90840369Y-119375000D01*
X89075000Y-119375000D01*
X89075000Y-119395000D01*
X88925000Y-119395000D01*
X88925000Y-119375000D01*
X88905000Y-119375000D01*
X88905000Y-119225000D01*
X88925000Y-119225000D01*
X88925000Y-118011400D01*
X89075000Y-118011400D01*
X89075000Y-119225000D01*
X90840369Y-119225000D01*
X90919245Y-119024684D01*
X90879613Y-118876165D01*
X90624611Y-118441855D01*
X90222817Y-118138190D01*
X89735400Y-118011400D01*
X89075000Y-118011400D01*
X88925000Y-118011400D01*
X88264600Y-118011400D01*
X87777183Y-118138190D01*
X87513927Y-118337151D01*
X79088388Y-109911612D01*
X79047835Y-109884515D01*
X79000000Y-109875000D01*
X60450000Y-109875000D01*
X60450000Y-106150000D01*
X62967654Y-106150000D01*
X62967654Y-108650000D01*
X62996758Y-108796317D01*
X63079641Y-108920359D01*
X63203683Y-109003242D01*
X63350000Y-109032346D01*
X66650000Y-109032346D01*
X66796317Y-109003242D01*
X66920359Y-108920359D01*
X67003242Y-108796317D01*
X67032346Y-108650000D01*
X67032346Y-107675000D01*
X70828375Y-107675000D01*
X71339639Y-108186264D01*
X72157420Y-108525000D01*
X73042580Y-108525000D01*
X73860361Y-108186264D01*
X74371625Y-107675000D01*
X75528375Y-107675000D01*
X76039639Y-108186264D01*
X76857420Y-108525000D01*
X77742580Y-108525000D01*
X78560361Y-108186264D01*
X79186264Y-107560361D01*
X79525000Y-106742580D01*
X79525000Y-105857420D01*
X79775000Y-105857420D01*
X79775000Y-106742580D01*
X80113736Y-107560361D01*
X80739639Y-108186264D01*
X81557420Y-108525000D01*
X82442580Y-108525000D01*
X83260361Y-108186264D01*
X83886264Y-107560361D01*
X84225000Y-106742580D01*
X84225000Y-105857420D01*
X83886264Y-105039639D01*
X83260361Y-104413736D01*
X82442580Y-104075000D01*
X81557420Y-104075000D01*
X80739639Y-104413736D01*
X80113736Y-105039639D01*
X79775000Y-105857420D01*
X79525000Y-105857420D01*
X79186264Y-105039639D01*
X78675000Y-104528375D01*
X78675000Y-102835418D01*
X78701936Y-102700000D01*
X78675000Y-102564582D01*
X78675000Y-102564578D01*
X78595221Y-102163502D01*
X78531177Y-102067654D01*
X78368029Y-101823486D01*
X78368028Y-101823485D01*
X78291318Y-101708681D01*
X78176515Y-101631972D01*
X75925000Y-99380457D01*
X75925000Y-99366822D01*
X75669996Y-98751189D01*
X75198811Y-98280004D01*
X74583178Y-98025000D01*
X73916822Y-98025000D01*
X73301189Y-98280004D01*
X72830004Y-98751189D01*
X72575000Y-99366822D01*
X72575000Y-100033178D01*
X72830004Y-100648811D01*
X73301189Y-101119996D01*
X73916822Y-101375000D01*
X74030457Y-101375000D01*
X75925000Y-103269543D01*
X75925001Y-104528374D01*
X75528375Y-104925000D01*
X74371625Y-104925000D01*
X73860361Y-104413736D01*
X73042580Y-104075000D01*
X72157420Y-104075000D01*
X71339639Y-104413736D01*
X70828375Y-104925000D01*
X66235417Y-104925000D01*
X66100000Y-104898064D01*
X65964583Y-104925000D01*
X65964578Y-104925000D01*
X65563502Y-105004779D01*
X65108681Y-105308681D01*
X65031970Y-105423487D01*
X64687803Y-105767654D01*
X63350000Y-105767654D01*
X63203683Y-105796758D01*
X63079641Y-105879641D01*
X62996758Y-106003683D01*
X62967654Y-106150000D01*
X60450000Y-106150000D01*
X60450000Y-100781250D01*
X62925000Y-100781250D01*
X62925000Y-101934538D01*
X62989702Y-102090743D01*
X63109257Y-102210298D01*
X63265462Y-102275000D01*
X64818750Y-102275000D01*
X64925000Y-102168750D01*
X64925000Y-100675000D01*
X65075000Y-100675000D01*
X65075000Y-102168750D01*
X65181250Y-102275000D01*
X66734538Y-102275000D01*
X66890743Y-102210298D01*
X67010298Y-102090743D01*
X67075000Y-101934538D01*
X67075000Y-100781250D01*
X66968750Y-100675000D01*
X65075000Y-100675000D01*
X64925000Y-100675000D01*
X63031250Y-100675000D01*
X62925000Y-100781250D01*
X60450000Y-100781250D01*
X60450000Y-99265462D01*
X62925000Y-99265462D01*
X62925000Y-100418750D01*
X63031250Y-100525000D01*
X64925000Y-100525000D01*
X64925000Y-99031250D01*
X65075000Y-99031250D01*
X65075000Y-100525000D01*
X66968750Y-100525000D01*
X67075000Y-100418750D01*
X67075000Y-99265462D01*
X67010298Y-99109257D01*
X66890743Y-98989702D01*
X66734538Y-98925000D01*
X65181250Y-98925000D01*
X65075000Y-99031250D01*
X64925000Y-99031250D01*
X64818750Y-98925000D01*
X63265462Y-98925000D01*
X63109257Y-98989702D01*
X62989702Y-99109257D01*
X62925000Y-99265462D01*
X60450000Y-99265462D01*
X60450000Y-94607148D01*
X63025000Y-94607148D01*
X63025000Y-95392852D01*
X63325675Y-96118748D01*
X63881252Y-96674325D01*
X64607148Y-96975000D01*
X65392852Y-96975000D01*
X66118748Y-96674325D01*
X66674325Y-96118748D01*
X66975000Y-95392852D01*
X66975000Y-94881250D01*
X69025000Y-94881250D01*
X69025000Y-96084538D01*
X69089702Y-96240743D01*
X69209257Y-96360298D01*
X69365462Y-96425000D01*
X70568750Y-96425000D01*
X70675000Y-96318750D01*
X70675000Y-94775000D01*
X70825000Y-94775000D01*
X70825000Y-96318750D01*
X70931250Y-96425000D01*
X72134538Y-96425000D01*
X72290743Y-96360298D01*
X72410298Y-96240743D01*
X72475000Y-96084538D01*
X72475000Y-94881250D01*
X72368750Y-94775000D01*
X70825000Y-94775000D01*
X70675000Y-94775000D01*
X69131250Y-94775000D01*
X69025000Y-94881250D01*
X66975000Y-94881250D01*
X66975000Y-94607148D01*
X66674325Y-93881252D01*
X66118748Y-93325675D01*
X66094092Y-93315462D01*
X69025000Y-93315462D01*
X69025000Y-94518750D01*
X69131250Y-94625000D01*
X70675000Y-94625000D01*
X70675000Y-93081250D01*
X70825000Y-93081250D01*
X70825000Y-94625000D01*
X72368750Y-94625000D01*
X72475000Y-94518750D01*
X72475000Y-93400000D01*
X77667654Y-93400000D01*
X77667654Y-96000000D01*
X77696758Y-96146317D01*
X77779641Y-96270359D01*
X77903683Y-96353242D01*
X78050000Y-96382346D01*
X80650000Y-96382346D01*
X80796317Y-96353242D01*
X80920359Y-96270359D01*
X81003242Y-96146317D01*
X81032346Y-96000000D01*
X81032346Y-95566228D01*
X83708864Y-98242747D01*
X83183178Y-98025000D01*
X82516822Y-98025000D01*
X81901189Y-98280004D01*
X81430004Y-98751189D01*
X81175000Y-99366822D01*
X81175000Y-100033178D01*
X81430004Y-100648811D01*
X81901189Y-101119996D01*
X82516822Y-101375000D01*
X83183178Y-101375000D01*
X83436279Y-101270162D01*
X84575000Y-102408883D01*
X84575001Y-107338440D01*
X84562756Y-107400000D01*
X84611263Y-107643862D01*
X84617969Y-107653898D01*
X84749401Y-107850600D01*
X84801589Y-107885471D01*
X90025969Y-113109851D01*
X89782388Y-113061400D01*
X88217612Y-113061400D01*
X87856322Y-113133265D01*
X87446620Y-113407020D01*
X87172865Y-113816722D01*
X87076735Y-114300000D01*
X87172865Y-114783278D01*
X87446620Y-115192980D01*
X87856322Y-115466735D01*
X88217612Y-115538600D01*
X89782388Y-115538600D01*
X90143678Y-115466735D01*
X90553380Y-115192980D01*
X90827135Y-114783278D01*
X90923265Y-114300000D01*
X90850549Y-113934431D01*
X96474989Y-119558872D01*
X96474990Y-135238429D01*
X96462745Y-135299989D01*
X96511252Y-135543851D01*
X96511253Y-135543852D01*
X96649390Y-135750589D01*
X96701577Y-135785459D01*
X98001585Y-137085468D01*
X98001588Y-137085470D01*
X98112201Y-137196083D01*
X98025000Y-137406604D01*
X98025000Y-137993396D01*
X98249555Y-138535520D01*
X98664480Y-138950445D01*
X99206604Y-139175000D01*
X99793396Y-139175000D01*
X100335520Y-138950445D01*
X100750445Y-138535520D01*
X100975000Y-137993396D01*
X100975000Y-137406604D01*
X100750445Y-136864480D01*
X100335520Y-136449555D01*
X99793396Y-136225000D01*
X99206604Y-136225000D01*
X98996083Y-136312201D01*
X98885470Y-136201588D01*
X98885468Y-136201585D01*
X97724989Y-135041107D01*
X97724989Y-133243793D01*
X108842273Y-133243793D01*
X108947812Y-133457951D01*
X109474204Y-133668397D01*
X110041060Y-133661383D01*
X110532188Y-133457951D01*
X110637727Y-133243793D01*
X109740000Y-132346066D01*
X108842273Y-133243793D01*
X97724989Y-133243793D01*
X97724989Y-131974204D01*
X108311603Y-131974204D01*
X108318617Y-132541060D01*
X108522049Y-133032188D01*
X108736207Y-133137727D01*
X109633934Y-132240000D01*
X109846066Y-132240000D01*
X110743793Y-133137727D01*
X110957951Y-133032188D01*
X111168397Y-132505796D01*
X111161724Y-131966495D01*
X118525000Y-131966495D01*
X118525000Y-132513505D01*
X118734331Y-133018875D01*
X119121125Y-133405669D01*
X119626495Y-133615000D01*
X120173505Y-133615000D01*
X120678875Y-133405669D01*
X121065669Y-133018875D01*
X121275000Y-132513505D01*
X121275000Y-131966495D01*
X121065669Y-131461125D01*
X120678875Y-131074331D01*
X120173505Y-130865000D01*
X119626495Y-130865000D01*
X119121125Y-131074331D01*
X118734331Y-131461125D01*
X118525000Y-131966495D01*
X111161724Y-131966495D01*
X111161383Y-131938940D01*
X110957951Y-131447812D01*
X110743793Y-131342273D01*
X109846066Y-132240000D01*
X109633934Y-132240000D01*
X108736207Y-131342273D01*
X108522049Y-131447812D01*
X108311603Y-131974204D01*
X97724989Y-131974204D01*
X97724989Y-131236207D01*
X108842273Y-131236207D01*
X109740000Y-132133934D01*
X110637727Y-131236207D01*
X110532188Y-131022049D01*
X110005796Y-130811603D01*
X109438940Y-130818617D01*
X108947812Y-131022049D01*
X108842273Y-131236207D01*
X97724989Y-131236207D01*
X97724989Y-126608871D01*
X98112201Y-126996083D01*
X98025000Y-127206604D01*
X98025000Y-127793396D01*
X98249555Y-128335520D01*
X98664480Y-128750445D01*
X99206604Y-128975000D01*
X99793396Y-128975000D01*
X100335520Y-128750445D01*
X100750445Y-128335520D01*
X100975000Y-127793396D01*
X100975000Y-127206604D01*
X100750445Y-126664480D01*
X100335520Y-126249555D01*
X99793396Y-126025000D01*
X99206604Y-126025000D01*
X98996083Y-126112201D01*
X98425000Y-125541118D01*
X98425000Y-119575316D01*
X99580755Y-119575316D01*
X99620387Y-119723835D01*
X99875389Y-120158145D01*
X100277183Y-120461810D01*
X100764600Y-120588600D01*
X101425000Y-120588600D01*
X101425000Y-119375000D01*
X101575000Y-119375000D01*
X101575000Y-120588600D01*
X102235400Y-120588600D01*
X102722817Y-120461810D01*
X103102309Y-120175000D01*
X106292654Y-120175000D01*
X106292654Y-123625000D01*
X106321758Y-123771317D01*
X106404641Y-123895359D01*
X106528683Y-123978242D01*
X106675000Y-124007346D01*
X110125000Y-124007346D01*
X110271317Y-123978242D01*
X110395359Y-123895359D01*
X110478242Y-123771317D01*
X110507346Y-123625000D01*
X110507346Y-122975000D01*
X115730457Y-122975000D01*
X125871972Y-133116516D01*
X125948681Y-133231319D01*
X126063484Y-133308028D01*
X126063485Y-133308029D01*
X126209614Y-133405669D01*
X126403502Y-133535221D01*
X126804578Y-133615000D01*
X126804582Y-133615000D01*
X126939999Y-133641936D01*
X127075416Y-133615000D01*
X129924583Y-133615000D01*
X130060000Y-133641936D01*
X130195417Y-133615000D01*
X130333505Y-133615000D01*
X130461077Y-133562158D01*
X130596498Y-133535221D01*
X130711302Y-133458512D01*
X130838875Y-133405669D01*
X130936516Y-133308028D01*
X131051319Y-133231319D01*
X131128028Y-133116516D01*
X131225669Y-133018875D01*
X131225670Y-133018873D01*
X131876513Y-132368030D01*
X131991319Y-132291319D01*
X132171427Y-132021769D01*
X132295221Y-131836499D01*
X132311334Y-131755494D01*
X132375000Y-131435422D01*
X132375000Y-131435418D01*
X132401936Y-131300000D01*
X132375000Y-131164582D01*
X132375000Y-128982346D01*
X132450001Y-128982346D01*
X132691989Y-128934212D01*
X132897136Y-128797136D01*
X133034212Y-128591989D01*
X133082346Y-128350001D01*
X133082346Y-127724999D01*
X133034212Y-127483011D01*
X132897136Y-127277864D01*
X132691989Y-127140788D01*
X132450001Y-127092654D01*
X132375000Y-127092654D01*
X132375000Y-126889589D01*
X132295221Y-126488513D01*
X132132347Y-126244755D01*
X132132347Y-126125000D01*
X132124922Y-126050016D01*
X132096451Y-125981483D01*
X132103243Y-125971318D01*
X132132347Y-125825000D01*
X132132347Y-125205245D01*
X132295221Y-124961487D01*
X132345773Y-124707346D01*
X132450001Y-124707346D01*
X132691989Y-124659212D01*
X132897136Y-124522136D01*
X133034212Y-124316989D01*
X133082346Y-124075001D01*
X133082346Y-123624697D01*
X133176515Y-123530528D01*
X133291318Y-123453819D01*
X133443541Y-123226003D01*
X133595221Y-122998998D01*
X133595221Y-122998997D01*
X133675000Y-122597922D01*
X133675000Y-122597921D01*
X133701937Y-122462500D01*
X133675000Y-122327078D01*
X133675000Y-119704046D01*
X133701936Y-119568629D01*
X133675000Y-119433212D01*
X133675000Y-119433208D01*
X133595221Y-119032132D01*
X133473116Y-118849389D01*
X133368029Y-118692115D01*
X133368028Y-118692114D01*
X133291319Y-118577311D01*
X133176516Y-118500602D01*
X130499399Y-115823486D01*
X130422689Y-115708681D01*
X129967868Y-115404779D01*
X129566792Y-115325000D01*
X129566787Y-115325000D01*
X129431370Y-115298064D01*
X129295953Y-115325000D01*
X115369543Y-115325000D01*
X113145584Y-113101041D01*
X113386264Y-112860361D01*
X113725000Y-112042580D01*
X113725000Y-111157420D01*
X113975000Y-111157420D01*
X113975000Y-112042580D01*
X114313736Y-112860361D01*
X114939639Y-113486264D01*
X115757420Y-113825000D01*
X116642580Y-113825000D01*
X117460361Y-113486264D01*
X118086264Y-112860361D01*
X118425000Y-112042580D01*
X118425000Y-111157420D01*
X118086264Y-110339639D01*
X117460361Y-109713736D01*
X116642580Y-109375000D01*
X115757420Y-109375000D01*
X114939639Y-109713736D01*
X114313736Y-110339639D01*
X113975000Y-111157420D01*
X113725000Y-111157420D01*
X113386264Y-110339639D01*
X112760361Y-109713736D01*
X111942580Y-109375000D01*
X111057420Y-109375000D01*
X110239639Y-109713736D01*
X109613736Y-110339639D01*
X109275000Y-111157420D01*
X109275000Y-112042580D01*
X109613736Y-112860361D01*
X110107241Y-113353866D01*
X110098064Y-113400000D01*
X110125000Y-113535417D01*
X110125000Y-113535421D01*
X110204779Y-113936497D01*
X110508681Y-114391318D01*
X110623485Y-114468028D01*
X113731970Y-117576513D01*
X113808681Y-117691319D01*
X113923486Y-117768029D01*
X114263501Y-117995221D01*
X114306596Y-118003793D01*
X114664578Y-118075000D01*
X114664582Y-118075000D01*
X114800000Y-118101936D01*
X114935418Y-118075000D01*
X122130456Y-118075000D01*
X122221125Y-118165669D01*
X122726495Y-118375000D01*
X123273505Y-118375000D01*
X123778875Y-118165669D01*
X123869544Y-118075000D01*
X128861827Y-118075000D01*
X130262346Y-119475519D01*
X130030889Y-119480338D01*
X129627858Y-119647278D01*
X129546730Y-119840664D01*
X130300000Y-120593934D01*
X130314143Y-120579792D01*
X130420209Y-120685858D01*
X130406066Y-120700000D01*
X130420209Y-120714143D01*
X130314143Y-120820209D01*
X130300000Y-120806066D01*
X129546730Y-121559336D01*
X129627858Y-121752722D01*
X130081882Y-121929806D01*
X130569111Y-121919662D01*
X130925000Y-121772249D01*
X130925000Y-121892957D01*
X130123485Y-122694472D01*
X130008681Y-122771182D01*
X129977629Y-122817654D01*
X129549999Y-122817654D01*
X129308011Y-122865788D01*
X129102864Y-123002864D01*
X128965788Y-123208011D01*
X128917654Y-123449999D01*
X128917654Y-124075001D01*
X128965788Y-124316989D01*
X129102864Y-124522136D01*
X129308011Y-124659212D01*
X129549999Y-124707346D01*
X129654227Y-124707346D01*
X129704779Y-124961488D01*
X129867653Y-125205245D01*
X129867653Y-125825000D01*
X129908750Y-125960734D01*
X129896757Y-125978682D01*
X129867653Y-126125000D01*
X129867653Y-126244755D01*
X129704779Y-126488512D01*
X129625000Y-126889588D01*
X129625000Y-127092654D01*
X129549999Y-127092654D01*
X129308011Y-127140788D01*
X129102864Y-127277864D01*
X128965788Y-127483011D01*
X128917654Y-127724999D01*
X128917654Y-128350001D01*
X128965788Y-128591989D01*
X129102864Y-128797136D01*
X129308011Y-128934212D01*
X129549999Y-128982346D01*
X129625000Y-128982346D01*
X129625001Y-130730456D01*
X129490457Y-130865000D01*
X127509544Y-130865000D01*
X118725794Y-122081250D01*
X123650000Y-122081250D01*
X123650000Y-123709538D01*
X123714702Y-123865743D01*
X123834257Y-123985298D01*
X123990462Y-124050000D01*
X125618750Y-124050000D01*
X125725000Y-123943750D01*
X125725000Y-121975000D01*
X125875000Y-121975000D01*
X125875000Y-123943750D01*
X125981250Y-124050000D01*
X127609538Y-124050000D01*
X127765743Y-123985298D01*
X127885298Y-123865743D01*
X127950000Y-123709538D01*
X127950000Y-122081250D01*
X127843750Y-121975000D01*
X125875000Y-121975000D01*
X125725000Y-121975000D01*
X123756250Y-121975000D01*
X123650000Y-122081250D01*
X118725794Y-122081250D01*
X117368030Y-120723487D01*
X117291319Y-120608681D01*
X116836498Y-120304779D01*
X116435422Y-120225000D01*
X116435417Y-120225000D01*
X116300000Y-120198064D01*
X116164583Y-120225000D01*
X110507346Y-120225000D01*
X110507346Y-120175000D01*
X110490531Y-120090462D01*
X123650000Y-120090462D01*
X123650000Y-121718750D01*
X123756250Y-121825000D01*
X125725000Y-121825000D01*
X125725000Y-119856250D01*
X125875000Y-119856250D01*
X125875000Y-121825000D01*
X127843750Y-121825000D01*
X127950000Y-121718750D01*
X127950000Y-120481882D01*
X129070194Y-120481882D01*
X129080338Y-120969111D01*
X129247278Y-121372142D01*
X129440664Y-121453270D01*
X130193934Y-120700000D01*
X129440664Y-119946730D01*
X129247278Y-120027858D01*
X129070194Y-120481882D01*
X127950000Y-120481882D01*
X127950000Y-120090462D01*
X127885298Y-119934257D01*
X127765743Y-119814702D01*
X127609538Y-119750000D01*
X125981250Y-119750000D01*
X125875000Y-119856250D01*
X125725000Y-119856250D01*
X125618750Y-119750000D01*
X123990462Y-119750000D01*
X123834257Y-119814702D01*
X123714702Y-119934257D01*
X123650000Y-120090462D01*
X110490531Y-120090462D01*
X110478242Y-120028683D01*
X110395359Y-119904641D01*
X110271317Y-119821758D01*
X110125000Y-119792654D01*
X106675000Y-119792654D01*
X106528683Y-119821758D01*
X106404641Y-119904641D01*
X106321758Y-120028683D01*
X106292654Y-120175000D01*
X103102309Y-120175000D01*
X103124611Y-120158145D01*
X103379613Y-119723835D01*
X103419245Y-119575316D01*
X103340369Y-119375000D01*
X101575000Y-119375000D01*
X101425000Y-119375000D01*
X99659631Y-119375000D01*
X99580755Y-119575316D01*
X98425000Y-119575316D01*
X98425000Y-119071589D01*
X98434330Y-119024684D01*
X99580755Y-119024684D01*
X99659631Y-119225000D01*
X101425000Y-119225000D01*
X101425000Y-118011400D01*
X101575000Y-118011400D01*
X101575000Y-119225000D01*
X103340369Y-119225000D01*
X103419245Y-119024684D01*
X103379613Y-118876165D01*
X103124611Y-118441855D01*
X102722817Y-118138190D01*
X102235400Y-118011400D01*
X101575000Y-118011400D01*
X101425000Y-118011400D01*
X100764600Y-118011400D01*
X100277183Y-118138190D01*
X99875389Y-118441855D01*
X99620387Y-118876165D01*
X99580755Y-119024684D01*
X98434330Y-119024684D01*
X98437244Y-119010035D01*
X98415669Y-118901573D01*
X98388737Y-118766173D01*
X98250600Y-118559436D01*
X98198416Y-118524568D01*
X97677641Y-118003793D01*
X108802273Y-118003793D01*
X108907812Y-118217951D01*
X109434204Y-118428397D01*
X110001060Y-118421383D01*
X110492188Y-118217951D01*
X110597727Y-118003793D01*
X109700000Y-117106066D01*
X108802273Y-118003793D01*
X97677641Y-118003793D01*
X96408052Y-116734204D01*
X108271603Y-116734204D01*
X108278617Y-117301060D01*
X108482049Y-117792188D01*
X108696207Y-117897727D01*
X109593934Y-117000000D01*
X109806066Y-117000000D01*
X110703793Y-117897727D01*
X110917951Y-117792188D01*
X111128397Y-117265796D01*
X111121383Y-116698940D01*
X110917951Y-116207812D01*
X110703793Y-116102273D01*
X109806066Y-117000000D01*
X109593934Y-117000000D01*
X108696207Y-116102273D01*
X108482049Y-116207812D01*
X108271603Y-116734204D01*
X96408052Y-116734204D01*
X95670055Y-115996207D01*
X108802273Y-115996207D01*
X109700000Y-116893934D01*
X110597727Y-115996207D01*
X110492188Y-115782049D01*
X109965796Y-115571603D01*
X109398940Y-115578617D01*
X108907812Y-115782049D01*
X108802273Y-115996207D01*
X95670055Y-115996207D01*
X89388846Y-109715000D01*
X90315724Y-109715000D01*
X90658462Y-109646825D01*
X91047127Y-109387127D01*
X91306825Y-108998462D01*
X91398019Y-108540000D01*
X91306825Y-108081538D01*
X91047127Y-107692873D01*
X90658462Y-107433175D01*
X90315724Y-107365000D01*
X89284276Y-107365000D01*
X89137982Y-107394100D01*
X88926228Y-107182346D01*
X91000000Y-107182346D01*
X91146317Y-107153242D01*
X91270359Y-107070359D01*
X91353242Y-106946317D01*
X91382346Y-106800000D01*
X91382346Y-105200000D01*
X91353242Y-105053683D01*
X91270359Y-104929641D01*
X91146317Y-104846758D01*
X91000000Y-104817654D01*
X90516228Y-104817654D01*
X90801536Y-104532346D01*
X91800000Y-104532346D01*
X91946317Y-104503242D01*
X92070359Y-104420359D01*
X92153242Y-104296317D01*
X92182346Y-104150000D01*
X92182346Y-103825000D01*
X92331100Y-103825000D01*
X92368711Y-103881289D01*
X92563721Y-104011590D01*
X92793750Y-104057346D01*
X93231250Y-104057346D01*
X93461279Y-104011590D01*
X93656289Y-103881289D01*
X93786590Y-103686279D01*
X93800000Y-103618863D01*
X93813410Y-103686279D01*
X93943711Y-103881289D01*
X94138721Y-104011590D01*
X94368750Y-104057346D01*
X94806250Y-104057346D01*
X95036279Y-104011590D01*
X95231289Y-103881289D01*
X95317654Y-103752034D01*
X95317654Y-104150000D01*
X95346758Y-104296317D01*
X95429641Y-104420359D01*
X95553683Y-104503242D01*
X95700000Y-104532346D01*
X97000000Y-104532346D01*
X97146317Y-104503242D01*
X97270359Y-104420359D01*
X97353242Y-104296317D01*
X97379654Y-104163536D01*
X98067286Y-104851169D01*
X97935724Y-104825000D01*
X96904276Y-104825000D01*
X96561538Y-104893175D01*
X96172873Y-105152873D01*
X95913175Y-105541538D01*
X95821981Y-106000000D01*
X95913175Y-106458462D01*
X96172873Y-106847127D01*
X96561538Y-107106825D01*
X96904276Y-107175000D01*
X97935724Y-107175000D01*
X98278462Y-107106825D01*
X98667127Y-106847127D01*
X98926825Y-106458462D01*
X99018019Y-106000000D01*
X98968831Y-105752715D01*
X99014531Y-105798415D01*
X99049400Y-105850600D01*
X99256137Y-105988737D01*
X99438445Y-106025000D01*
X99499999Y-106037244D01*
X99561553Y-106025000D01*
X100165924Y-106025000D01*
X100229641Y-106120359D01*
X100353683Y-106203242D01*
X100500000Y-106232346D01*
X101300000Y-106232346D01*
X101446317Y-106203242D01*
X101570359Y-106120359D01*
X101596842Y-106080724D01*
X102041117Y-106525000D01*
X102031250Y-106525000D01*
X101925000Y-106631250D01*
X101925000Y-107325000D01*
X101945000Y-107325000D01*
X101945000Y-107475000D01*
X101925000Y-107475000D01*
X101925000Y-107495000D01*
X101775000Y-107495000D01*
X101775000Y-107475000D01*
X101131250Y-107475000D01*
X101025000Y-107581250D01*
X101025000Y-107934538D01*
X101033359Y-107954719D01*
X101009257Y-107964702D01*
X100889702Y-108084257D01*
X100829837Y-108228784D01*
X100756289Y-108118711D01*
X100737500Y-108106157D01*
X100737500Y-107624055D01*
X100749744Y-107562500D01*
X100737500Y-107500945D01*
X100732346Y-107475034D01*
X100732346Y-106950000D01*
X100715531Y-106865462D01*
X101025000Y-106865462D01*
X101025000Y-107218750D01*
X101131250Y-107325000D01*
X101775000Y-107325000D01*
X101775000Y-106631250D01*
X101668750Y-106525000D01*
X101365462Y-106525000D01*
X101209257Y-106589702D01*
X101089702Y-106709257D01*
X101025000Y-106865462D01*
X100715531Y-106865462D01*
X100703242Y-106803683D01*
X100620359Y-106679641D01*
X100496317Y-106596758D01*
X100350000Y-106567654D01*
X99550000Y-106567654D01*
X99403683Y-106596758D01*
X99279641Y-106679641D01*
X99196758Y-106803683D01*
X99167654Y-106950000D01*
X99167654Y-107850000D01*
X99180583Y-107915000D01*
X98815548Y-107915000D01*
X98667127Y-107692873D01*
X98278462Y-107433175D01*
X97935724Y-107365000D01*
X96904276Y-107365000D01*
X96561538Y-107433175D01*
X96172873Y-107692873D01*
X95913175Y-108081538D01*
X95821981Y-108540000D01*
X95913175Y-108998462D01*
X96172873Y-109387127D01*
X96561538Y-109646825D01*
X96904276Y-109715000D01*
X97935724Y-109715000D01*
X98278462Y-109646825D01*
X98667127Y-109387127D01*
X98815548Y-109165000D01*
X99314286Y-109165000D01*
X99338410Y-109286279D01*
X99468711Y-109481289D01*
X99663721Y-109611590D01*
X99893750Y-109657346D01*
X100331250Y-109657346D01*
X100561279Y-109611590D01*
X100756289Y-109481289D01*
X100829837Y-109371216D01*
X100889702Y-109515743D01*
X101009257Y-109635298D01*
X101165462Y-109700000D01*
X101506250Y-109700000D01*
X101612500Y-109593750D01*
X101612500Y-108875000D01*
X101592500Y-108875000D01*
X101592500Y-108725000D01*
X101612500Y-108725000D01*
X101612500Y-108705000D01*
X101762500Y-108705000D01*
X101762500Y-108725000D01*
X101782500Y-108725000D01*
X101782500Y-108875000D01*
X101762500Y-108875000D01*
X101762500Y-109593750D01*
X101868750Y-109700000D01*
X102209538Y-109700000D01*
X102365743Y-109635298D01*
X102475001Y-109526040D01*
X102475000Y-112441117D01*
X101854718Y-113061400D01*
X100717612Y-113061400D01*
X100356322Y-113133265D01*
X99946620Y-113407020D01*
X99672865Y-113816722D01*
X99576735Y-114300000D01*
X99672865Y-114783278D01*
X99946620Y-115192980D01*
X100356322Y-115466735D01*
X100717612Y-115538600D01*
X102282388Y-115538600D01*
X102643678Y-115466735D01*
X103053380Y-115192980D01*
X103327135Y-114783278D01*
X103423265Y-114300000D01*
X103327135Y-113816722D01*
X103142895Y-113540988D01*
X103498413Y-113185470D01*
X103550600Y-113150600D01*
X103688737Y-112943863D01*
X103725000Y-112761555D01*
X103725000Y-112761554D01*
X103737244Y-112700000D01*
X103725000Y-112638445D01*
X103725000Y-110775000D01*
X103967653Y-110775000D01*
X103967653Y-111775000D01*
X103975078Y-111849984D01*
X104003549Y-111918517D01*
X103996757Y-111928682D01*
X103967653Y-112075000D01*
X103967653Y-113225000D01*
X103996757Y-113371318D01*
X104079640Y-113495360D01*
X104203682Y-113578243D01*
X104350000Y-113607347D01*
X105850000Y-113607347D01*
X105996318Y-113578243D01*
X106120360Y-113495360D01*
X106175726Y-113412500D01*
X106406157Y-113412500D01*
X106418711Y-113431289D01*
X106613721Y-113561590D01*
X106843750Y-113607346D01*
X107356250Y-113607346D01*
X107586279Y-113561590D01*
X107781289Y-113431289D01*
X107911590Y-113236279D01*
X107957346Y-113006250D01*
X107957346Y-112568750D01*
X107911590Y-112338721D01*
X107781289Y-112143711D01*
X107586279Y-112013410D01*
X107518863Y-112000000D01*
X107586279Y-111986590D01*
X107781289Y-111856289D01*
X107911590Y-111661279D01*
X107957346Y-111431250D01*
X107957346Y-111239037D01*
X107998413Y-111197970D01*
X108050600Y-111163100D01*
X108188737Y-110956363D01*
X108225000Y-110774055D01*
X108225000Y-110774054D01*
X108237244Y-110712500D01*
X108225000Y-110650945D01*
X108225000Y-109325000D01*
X117518445Y-109325000D01*
X117580000Y-109337244D01*
X117641555Y-109325000D01*
X117823863Y-109288737D01*
X118030600Y-109150600D01*
X118065472Y-109098410D01*
X119139157Y-108024726D01*
X119236387Y-108065000D01*
X119743613Y-108065000D01*
X120212230Y-107870893D01*
X120570893Y-107512230D01*
X120706569Y-107184678D01*
X120734779Y-107326498D01*
X121038681Y-107781319D01*
X121493502Y-108085221D01*
X121894578Y-108165000D01*
X127290457Y-108165000D01*
X125230457Y-110225000D01*
X122671625Y-110225000D01*
X122160361Y-109713736D01*
X121342580Y-109375000D01*
X120457420Y-109375000D01*
X119639639Y-109713736D01*
X119013736Y-110339639D01*
X118675000Y-111157420D01*
X118675000Y-112042580D01*
X119013736Y-112860361D01*
X119639639Y-113486264D01*
X120457420Y-113825000D01*
X121342580Y-113825000D01*
X122160361Y-113486264D01*
X122671625Y-112975000D01*
X125664583Y-112975000D01*
X125800000Y-113001936D01*
X125935417Y-112975000D01*
X125935422Y-112975000D01*
X126336498Y-112895221D01*
X126791319Y-112591319D01*
X126868030Y-112476513D01*
X131312197Y-108032346D01*
X132650000Y-108032346D01*
X132796317Y-108003242D01*
X132920359Y-107920359D01*
X133003242Y-107796317D01*
X133032346Y-107650000D01*
X133032346Y-105150000D01*
X133003242Y-105003683D01*
X132920359Y-104879641D01*
X132796317Y-104796758D01*
X132650000Y-104767654D01*
X129350000Y-104767654D01*
X129203683Y-104796758D01*
X129079641Y-104879641D01*
X128996758Y-105003683D01*
X128967654Y-105150000D01*
X128967654Y-105415000D01*
X123960584Y-105415000D01*
X124032173Y-105385347D01*
X124125509Y-105181575D01*
X123300000Y-104356066D01*
X122474491Y-105181575D01*
X122567827Y-105385347D01*
X122642846Y-105415000D01*
X121894578Y-105415000D01*
X121493502Y-105494779D01*
X121038681Y-105798681D01*
X120734779Y-106253502D01*
X120706569Y-106395322D01*
X120570893Y-106067770D01*
X120212230Y-105709107D01*
X119743613Y-105515000D01*
X119236387Y-105515000D01*
X118767770Y-105709107D01*
X118409107Y-106067770D01*
X118215000Y-106536387D01*
X118215000Y-107043613D01*
X118255274Y-107140843D01*
X117321118Y-108075000D01*
X108225000Y-108075000D01*
X108225000Y-107858123D01*
X108570893Y-107512230D01*
X108760000Y-107055684D01*
X108949107Y-107512230D01*
X109307770Y-107870893D01*
X109776387Y-108065000D01*
X110283613Y-108065000D01*
X110752230Y-107870893D01*
X111110893Y-107512230D01*
X111305000Y-107043613D01*
X111305000Y-106536387D01*
X111110893Y-106067770D01*
X110752230Y-105709107D01*
X110283613Y-105515000D01*
X109776387Y-105515000D01*
X109307770Y-105709107D01*
X108949107Y-106067770D01*
X108760000Y-106524316D01*
X108570893Y-106067770D01*
X108212230Y-105709107D01*
X107743613Y-105515000D01*
X107236387Y-105515000D01*
X106767770Y-105709107D01*
X106409107Y-106067770D01*
X106215000Y-106536387D01*
X106215000Y-107043613D01*
X106409107Y-107512230D01*
X106767770Y-107870893D01*
X106975000Y-107956730D01*
X106975001Y-108203242D01*
X106975001Y-108638442D01*
X106962756Y-108700000D01*
X106975001Y-108761558D01*
X106975000Y-110392654D01*
X106843750Y-110392654D01*
X106613721Y-110438410D01*
X106418711Y-110568711D01*
X106288410Y-110763721D01*
X106242654Y-110993750D01*
X106242654Y-111431250D01*
X106288410Y-111661279D01*
X106418711Y-111856289D01*
X106613721Y-111986590D01*
X106681137Y-112000000D01*
X106613721Y-112013410D01*
X106418711Y-112143711D01*
X106406157Y-112162500D01*
X106232347Y-112162500D01*
X106232347Y-112075000D01*
X106191250Y-111939266D01*
X106203243Y-111921318D01*
X106232347Y-111775000D01*
X106232347Y-110775000D01*
X106203243Y-110628682D01*
X106120360Y-110504640D01*
X105996318Y-110421757D01*
X105850000Y-110392653D01*
X105725000Y-110392653D01*
X105725000Y-106458882D01*
X107308884Y-104875000D01*
X107638833Y-104875000D01*
X107679107Y-104972230D01*
X108037770Y-105330893D01*
X108506387Y-105525000D01*
X109013613Y-105525000D01*
X109482230Y-105330893D01*
X109631548Y-105181575D01*
X110474491Y-105181575D01*
X110567827Y-105385347D01*
X111058039Y-105579114D01*
X111585087Y-105570536D01*
X112032173Y-105385347D01*
X112125509Y-105181575D01*
X111300000Y-104356066D01*
X110474491Y-105181575D01*
X109631548Y-105181575D01*
X109840893Y-104972230D01*
X110000714Y-104586388D01*
X110164653Y-104982173D01*
X110368425Y-105075509D01*
X111193934Y-104250000D01*
X111406066Y-104250000D01*
X112231575Y-105075509D01*
X112435347Y-104982173D01*
X112629114Y-104491961D01*
X112620536Y-103964913D01*
X112435347Y-103517827D01*
X112231575Y-103424491D01*
X111406066Y-104250000D01*
X111193934Y-104250000D01*
X110368425Y-103424491D01*
X110164653Y-103517827D01*
X110004550Y-103922873D01*
X109840893Y-103527770D01*
X109631548Y-103318425D01*
X110474491Y-103318425D01*
X111300000Y-104143934D01*
X112125509Y-103318425D01*
X112032173Y-103114653D01*
X111541961Y-102920886D01*
X111014913Y-102929464D01*
X110567827Y-103114653D01*
X110474491Y-103318425D01*
X109631548Y-103318425D01*
X109482230Y-103169107D01*
X109460843Y-103160248D01*
X109896092Y-102725000D01*
X118351118Y-102725000D01*
X119525274Y-103899157D01*
X119485000Y-103996387D01*
X119485000Y-104503613D01*
X119679107Y-104972230D01*
X120037770Y-105330893D01*
X120506387Y-105525000D01*
X121013613Y-105525000D01*
X121482230Y-105330893D01*
X121840893Y-104972230D01*
X122000714Y-104586388D01*
X122164653Y-104982173D01*
X122368425Y-105075509D01*
X123193934Y-104250000D01*
X123406066Y-104250000D01*
X124231575Y-105075509D01*
X124435347Y-104982173D01*
X124629114Y-104491961D01*
X124620536Y-103964913D01*
X124435347Y-103517827D01*
X124231575Y-103424491D01*
X123406066Y-104250000D01*
X123193934Y-104250000D01*
X122368425Y-103424491D01*
X122164653Y-103517827D01*
X122004550Y-103922873D01*
X121840893Y-103527770D01*
X121631548Y-103318425D01*
X122474491Y-103318425D01*
X123300000Y-104143934D01*
X124125509Y-103318425D01*
X124032173Y-103114653D01*
X123541961Y-102920886D01*
X123014913Y-102929464D01*
X122567827Y-103114653D01*
X122474491Y-103318425D01*
X121631548Y-103318425D01*
X121482230Y-103169107D01*
X121013613Y-102975000D01*
X120506387Y-102975000D01*
X120409157Y-103015274D01*
X119095472Y-101701590D01*
X119060600Y-101649400D01*
X118853863Y-101511263D01*
X118671555Y-101475000D01*
X118610000Y-101462756D01*
X118548445Y-101475000D01*
X109698761Y-101475000D01*
X109637207Y-101462756D01*
X109575653Y-101475000D01*
X109393345Y-101511263D01*
X109186608Y-101649400D01*
X109151739Y-101701585D01*
X108361588Y-102491738D01*
X108309401Y-102526608D01*
X108252836Y-102611264D01*
X108171263Y-102733346D01*
X108122756Y-102977208D01*
X108135001Y-103038768D01*
X108135001Y-103128833D01*
X108037770Y-103169107D01*
X107679107Y-103527770D01*
X107638833Y-103625000D01*
X107111553Y-103625000D01*
X107049999Y-103612756D01*
X106988445Y-103625000D01*
X106806137Y-103661263D01*
X106599400Y-103799400D01*
X106564532Y-103851584D01*
X104701590Y-105714528D01*
X104649400Y-105749400D01*
X104558484Y-105885467D01*
X104511263Y-105956138D01*
X104462756Y-106200000D01*
X104475000Y-106261555D01*
X104475001Y-110392653D01*
X104350000Y-110392653D01*
X104203682Y-110421757D01*
X104079640Y-110504640D01*
X103996757Y-110628682D01*
X103967653Y-110775000D01*
X103725000Y-110775000D01*
X103725000Y-106761555D01*
X103737244Y-106700000D01*
X103688737Y-106456137D01*
X103651228Y-106400001D01*
X103550600Y-106249400D01*
X103498412Y-106214529D01*
X102285472Y-105001590D01*
X102250600Y-104949400D01*
X102043863Y-104811263D01*
X101861555Y-104775000D01*
X101800000Y-104762756D01*
X101738445Y-104775000D01*
X101634076Y-104775000D01*
X101570359Y-104679641D01*
X101446317Y-104596758D01*
X101300000Y-104567654D01*
X100500000Y-104567654D01*
X100353683Y-104596758D01*
X100229641Y-104679641D01*
X100165924Y-104775000D01*
X99758884Y-104775000D01*
X99516230Y-104532346D01*
X100500000Y-104532346D01*
X100646317Y-104503242D01*
X100770359Y-104420359D01*
X100853242Y-104296317D01*
X100882346Y-104150000D01*
X100882346Y-102450000D01*
X100853242Y-102303683D01*
X100770359Y-102179641D01*
X100646317Y-102096758D01*
X100500000Y-102067654D01*
X100475000Y-102067654D01*
X100475000Y-101336966D01*
X100998811Y-101119996D01*
X101469996Y-100648811D01*
X101725000Y-100033178D01*
X101725000Y-99366822D01*
X101469996Y-98751189D01*
X100998811Y-98280004D01*
X100383178Y-98025000D01*
X99716822Y-98025000D01*
X99101189Y-98280004D01*
X98630004Y-98751189D01*
X98375000Y-99366822D01*
X98375000Y-100033178D01*
X98630004Y-100648811D01*
X99101189Y-101119996D01*
X99225001Y-101171281D01*
X99225000Y-102067654D01*
X99200000Y-102067654D01*
X99053683Y-102096758D01*
X98929641Y-102179641D01*
X98846758Y-102303683D01*
X98817654Y-102450000D01*
X98817654Y-103833771D01*
X97885472Y-102901590D01*
X97850600Y-102849400D01*
X97643863Y-102711263D01*
X97461555Y-102675000D01*
X97400000Y-102662756D01*
X97382346Y-102666268D01*
X97382346Y-102450000D01*
X97353242Y-102303683D01*
X97270359Y-102179641D01*
X97146317Y-102096758D01*
X97000000Y-102067654D01*
X96875000Y-102067654D01*
X96875000Y-97502175D01*
X103590000Y-97502175D01*
X103590000Y-98297825D01*
X103894482Y-99032909D01*
X104457091Y-99595518D01*
X105192175Y-99900000D01*
X105987825Y-99900000D01*
X106722909Y-99595518D01*
X107285518Y-99032909D01*
X107590000Y-98297825D01*
X107590000Y-97502175D01*
X111210000Y-97502175D01*
X111210000Y-98297825D01*
X111514482Y-99032909D01*
X112077091Y-99595518D01*
X112812175Y-99900000D01*
X113607825Y-99900000D01*
X114342909Y-99595518D01*
X114905518Y-99032909D01*
X115210000Y-98297825D01*
X115210000Y-97502175D01*
X115590000Y-97502175D01*
X115590000Y-98297825D01*
X115894482Y-99032909D01*
X116457091Y-99595518D01*
X117192175Y-99900000D01*
X117987825Y-99900000D01*
X118722909Y-99595518D01*
X119285518Y-99032909D01*
X119590000Y-98297825D01*
X119590000Y-97502175D01*
X123210000Y-97502175D01*
X123210000Y-98297825D01*
X123514482Y-99032909D01*
X124077091Y-99595518D01*
X124812175Y-99900000D01*
X125607825Y-99900000D01*
X125894512Y-99781250D01*
X128925000Y-99781250D01*
X128925000Y-100934538D01*
X128989702Y-101090743D01*
X129109257Y-101210298D01*
X129265462Y-101275000D01*
X130818750Y-101275000D01*
X130925000Y-101168750D01*
X130925000Y-99675000D01*
X131075000Y-99675000D01*
X131075000Y-101168750D01*
X131181250Y-101275000D01*
X132734538Y-101275000D01*
X132890743Y-101210298D01*
X133010298Y-101090743D01*
X133075000Y-100934538D01*
X133075000Y-99781250D01*
X132968750Y-99675000D01*
X131075000Y-99675000D01*
X130925000Y-99675000D01*
X129031250Y-99675000D01*
X128925000Y-99781250D01*
X125894512Y-99781250D01*
X126342909Y-99595518D01*
X126905518Y-99032909D01*
X127210000Y-98297825D01*
X127210000Y-98265462D01*
X128925000Y-98265462D01*
X128925000Y-99418750D01*
X129031250Y-99525000D01*
X130925000Y-99525000D01*
X130925000Y-98031250D01*
X131075000Y-98031250D01*
X131075000Y-99525000D01*
X132968750Y-99525000D01*
X133075000Y-99418750D01*
X133075000Y-98265462D01*
X133010298Y-98109257D01*
X132890743Y-97989702D01*
X132734538Y-97925000D01*
X131181250Y-97925000D01*
X131075000Y-98031250D01*
X130925000Y-98031250D01*
X130818750Y-97925000D01*
X129265462Y-97925000D01*
X129109257Y-97989702D01*
X128989702Y-98109257D01*
X128925000Y-98265462D01*
X127210000Y-98265462D01*
X127210000Y-97502175D01*
X126905518Y-96767091D01*
X126342909Y-96204482D01*
X125607825Y-95900000D01*
X124812175Y-95900000D01*
X124077091Y-96204482D01*
X123514482Y-96767091D01*
X123210000Y-97502175D01*
X119590000Y-97502175D01*
X119285518Y-96767091D01*
X118722909Y-96204482D01*
X117987825Y-95900000D01*
X117192175Y-95900000D01*
X116457091Y-96204482D01*
X115894482Y-96767091D01*
X115590000Y-97502175D01*
X115210000Y-97502175D01*
X114905518Y-96767091D01*
X114342909Y-96204482D01*
X113607825Y-95900000D01*
X112812175Y-95900000D01*
X112077091Y-96204482D01*
X111514482Y-96767091D01*
X111210000Y-97502175D01*
X107590000Y-97502175D01*
X107285518Y-96767091D01*
X106722909Y-96204482D01*
X105987825Y-95900000D01*
X105192175Y-95900000D01*
X104457091Y-96204482D01*
X103894482Y-96767091D01*
X103590000Y-97502175D01*
X96875000Y-97502175D01*
X96875000Y-96382346D01*
X97850000Y-96382346D01*
X97996317Y-96353242D01*
X98120359Y-96270359D01*
X98203242Y-96146317D01*
X98232346Y-96000000D01*
X98232346Y-93607148D01*
X129025000Y-93607148D01*
X129025000Y-94392852D01*
X129325675Y-95118748D01*
X129881252Y-95674325D01*
X130607148Y-95975000D01*
X131392852Y-95975000D01*
X132118748Y-95674325D01*
X132674325Y-95118748D01*
X132975000Y-94392852D01*
X132975000Y-93607148D01*
X132674325Y-92881252D01*
X132118748Y-92325675D01*
X131392852Y-92025000D01*
X130607148Y-92025000D01*
X129881252Y-92325675D01*
X129325675Y-92881252D01*
X129025000Y-93607148D01*
X98232346Y-93607148D01*
X98232346Y-93400000D01*
X98203242Y-93253683D01*
X98120359Y-93129641D01*
X97996317Y-93046758D01*
X97850000Y-93017654D01*
X95250000Y-93017654D01*
X95103683Y-93046758D01*
X94979641Y-93129641D01*
X94896758Y-93253683D01*
X94867654Y-93400000D01*
X94867654Y-96000000D01*
X94896758Y-96146317D01*
X94979641Y-96270359D01*
X95103683Y-96353242D01*
X95250000Y-96382346D01*
X95625000Y-96382346D01*
X95625001Y-102082572D01*
X95553683Y-102096758D01*
X95429641Y-102179641D01*
X95346758Y-102303683D01*
X95317654Y-102450000D01*
X95317654Y-102647966D01*
X95231289Y-102518711D01*
X95036279Y-102388410D01*
X94806250Y-102342654D01*
X94776537Y-102342654D01*
X92932294Y-100498411D01*
X93125000Y-100033178D01*
X93125000Y-99366822D01*
X92869996Y-98751189D01*
X92398811Y-98280004D01*
X91783178Y-98025000D01*
X91116822Y-98025000D01*
X90501189Y-98280004D01*
X90030004Y-98751189D01*
X89775000Y-99366822D01*
X89775000Y-100033178D01*
X90030004Y-100648811D01*
X90501189Y-101119996D01*
X91116822Y-101375000D01*
X91783178Y-101375000D01*
X91965569Y-101299451D01*
X93008771Y-102342654D01*
X92793750Y-102342654D01*
X92563721Y-102388410D01*
X92368711Y-102518711D01*
X92331100Y-102575000D01*
X92182346Y-102575000D01*
X92182346Y-102450000D01*
X92153242Y-102303683D01*
X92070359Y-102179641D01*
X91946317Y-102096758D01*
X91800000Y-102067654D01*
X90500000Y-102067654D01*
X90353683Y-102096758D01*
X90229641Y-102179641D01*
X90146758Y-102303683D01*
X90117654Y-102450000D01*
X90117654Y-103448463D01*
X89401588Y-104164530D01*
X89349401Y-104199400D01*
X89274462Y-104311555D01*
X89211263Y-104406138D01*
X89162756Y-104650000D01*
X89175001Y-104711560D01*
X89175001Y-104817654D01*
X88600000Y-104817654D01*
X88453683Y-104846758D01*
X88329641Y-104929641D01*
X88275000Y-105011416D01*
X88275000Y-104532346D01*
X88300000Y-104532346D01*
X88446317Y-104503242D01*
X88570359Y-104420359D01*
X88653242Y-104296317D01*
X88682346Y-104150000D01*
X88682346Y-102450000D01*
X88653242Y-102303683D01*
X88570359Y-102179641D01*
X88446317Y-102096758D01*
X88375000Y-102082572D01*
X88375000Y-96382346D01*
X89250000Y-96382346D01*
X89396317Y-96353242D01*
X89520359Y-96270359D01*
X89603242Y-96146317D01*
X89632346Y-96000000D01*
X89632346Y-93400000D01*
X89603242Y-93253683D01*
X89520359Y-93129641D01*
X89396317Y-93046758D01*
X89250000Y-93017654D01*
X86650000Y-93017654D01*
X86503683Y-93046758D01*
X86379641Y-93129641D01*
X86296758Y-93253683D01*
X86267654Y-93400000D01*
X86267654Y-96000000D01*
X86296758Y-96146317D01*
X86379641Y-96270359D01*
X86503683Y-96353242D01*
X86650000Y-96382346D01*
X87125000Y-96382346D01*
X87125001Y-102067654D01*
X87000000Y-102067654D01*
X86853683Y-102096758D01*
X86825000Y-102115924D01*
X86825000Y-99911555D01*
X86837244Y-99850000D01*
X86788737Y-99606137D01*
X86781642Y-99595518D01*
X86650600Y-99399400D01*
X86598413Y-99364530D01*
X81535473Y-94301590D01*
X81500600Y-94249400D01*
X81293863Y-94111263D01*
X81111555Y-94075000D01*
X81050000Y-94062756D01*
X81032346Y-94066268D01*
X81032346Y-93400000D01*
X81003242Y-93253683D01*
X80920359Y-93129641D01*
X80796317Y-93046758D01*
X80650000Y-93017654D01*
X78050000Y-93017654D01*
X77903683Y-93046758D01*
X77779641Y-93129641D01*
X77696758Y-93253683D01*
X77667654Y-93400000D01*
X72475000Y-93400000D01*
X72475000Y-93315462D01*
X72410298Y-93159257D01*
X72290743Y-93039702D01*
X72134538Y-92975000D01*
X70931250Y-92975000D01*
X70825000Y-93081250D01*
X70675000Y-93081250D01*
X70568750Y-92975000D01*
X69365462Y-92975000D01*
X69209257Y-93039702D01*
X69089702Y-93159257D01*
X69025000Y-93315462D01*
X66094092Y-93315462D01*
X65392852Y-93025000D01*
X64607148Y-93025000D01*
X63881252Y-93325675D01*
X63325675Y-93881252D01*
X63025000Y-94607148D01*
X60450000Y-94607148D01*
X60450000Y-90450000D01*
X134550000Y-90450000D01*
X134550001Y-146375000D01*
D48*
G04 #@! TO.N,GNDPWR*
G36*
X100927560Y-146650000D02*
X100976843Y-146897765D01*
X101117191Y-147107809D01*
X101327235Y-147248157D01*
X101575000Y-147297440D01*
X102373000Y-147297440D01*
X102373000Y-147500000D01*
X102382667Y-147548601D01*
X102410197Y-147589803D01*
X102451399Y-147617333D01*
X102500000Y-147627000D01*
X134290001Y-147627000D01*
X134290001Y-164290000D01*
X86127000Y-164290000D01*
X86127000Y-156435000D01*
X86528854Y-156435000D01*
X86529904Y-156437529D01*
X86502560Y-156575000D01*
X86502560Y-157326332D01*
X86451843Y-157402235D01*
X86417243Y-157576182D01*
X86359864Y-157662056D01*
X86265000Y-158138970D01*
X86265001Y-159687458D01*
X86252560Y-159750000D01*
X86252560Y-160851510D01*
X86232969Y-160950000D01*
X86252560Y-161048490D01*
X86252560Y-162650000D01*
X86320874Y-162993435D01*
X86515414Y-163284586D01*
X86806565Y-163479126D01*
X87150000Y-163547440D01*
X87950000Y-163547440D01*
X88293435Y-163479126D01*
X88584586Y-163284586D01*
X88779126Y-162993435D01*
X88810641Y-162835000D01*
X88836021Y-162835000D01*
X89312935Y-162740136D01*
X89526495Y-162597440D01*
X89575000Y-162597440D01*
X89701973Y-162584867D01*
X89737529Y-162570096D01*
X89875000Y-162597440D01*
X90423505Y-162597440D01*
X90637065Y-162740136D01*
X90723926Y-162757414D01*
X90770874Y-162993435D01*
X90965414Y-163284586D01*
X91256565Y-163479126D01*
X91600000Y-163547440D01*
X92123326Y-163547440D01*
X92262055Y-163640136D01*
X92738969Y-163735000D01*
X92738973Y-163735000D01*
X92899999Y-163767030D01*
X93061025Y-163735000D01*
X104638973Y-163735000D01*
X104799999Y-163767030D01*
X104961025Y-163735000D01*
X106049440Y-163735000D01*
X106076843Y-163872765D01*
X106217191Y-164082809D01*
X106427235Y-164223157D01*
X106675000Y-164272440D01*
X110125000Y-164272440D01*
X110372765Y-164223157D01*
X110582809Y-164082809D01*
X110723157Y-163872765D01*
X110750560Y-163735000D01*
X112738970Y-163735000D01*
X112900000Y-163767031D01*
X113061030Y-163735000D01*
X113061031Y-163735000D01*
X113537945Y-163640136D01*
X114078769Y-163278769D01*
X114169988Y-163142250D01*
X115232488Y-162079750D01*
X123648000Y-162079750D01*
X123648000Y-163709935D01*
X123713007Y-163866876D01*
X123833124Y-163986993D01*
X123990064Y-164052000D01*
X125620250Y-164052000D01*
X125727000Y-163945250D01*
X125727000Y-161973000D01*
X125873000Y-161973000D01*
X125873000Y-163945250D01*
X125979750Y-164052000D01*
X127609936Y-164052000D01*
X127766876Y-163986993D01*
X127886993Y-163866876D01*
X127952000Y-163709935D01*
X127952000Y-162079750D01*
X127845250Y-161973000D01*
X125873000Y-161973000D01*
X125727000Y-161973000D01*
X123754750Y-161973000D01*
X123648000Y-162079750D01*
X115232488Y-162079750D01*
X117222173Y-160090065D01*
X123648000Y-160090065D01*
X123648000Y-161720250D01*
X123754750Y-161827000D01*
X125727000Y-161827000D01*
X125727000Y-159854750D01*
X125873000Y-159854750D01*
X125873000Y-161827000D01*
X127845250Y-161827000D01*
X127952000Y-161720250D01*
X127952000Y-160896026D01*
X128105259Y-161266026D01*
X128733974Y-161894741D01*
X129555431Y-162235000D01*
X130444569Y-162235000D01*
X131266026Y-161894741D01*
X131894741Y-161266026D01*
X132235000Y-160444569D01*
X132235000Y-159555431D01*
X131894741Y-158733974D01*
X131266026Y-158105259D01*
X130444569Y-157765000D01*
X129555431Y-157765000D01*
X128733974Y-158105259D01*
X128105259Y-158733974D01*
X127765000Y-159555431D01*
X127765000Y-159812230D01*
X127609936Y-159748000D01*
X125979750Y-159748000D01*
X125873000Y-159854750D01*
X125727000Y-159854750D01*
X125620250Y-159748000D01*
X123990064Y-159748000D01*
X123833124Y-159813007D01*
X123713007Y-159933124D01*
X123648000Y-160090065D01*
X117222173Y-160090065D01*
X123709985Y-153602254D01*
X123826086Y-153486153D01*
X123888920Y-153334460D01*
X123980135Y-153197946D01*
X124012165Y-153036918D01*
X124075000Y-152885222D01*
X124075000Y-152721027D01*
X124107030Y-152560001D01*
X124075000Y-152398975D01*
X124075000Y-152234778D01*
X124012165Y-152083081D01*
X123980135Y-151922055D01*
X123888921Y-151785544D01*
X123826086Y-151633847D01*
X123709982Y-151517743D01*
X123618768Y-151381232D01*
X123482257Y-151290018D01*
X123366153Y-151173914D01*
X123214456Y-151111079D01*
X123077945Y-151019865D01*
X122916919Y-150987835D01*
X122765222Y-150925000D01*
X122601025Y-150925000D01*
X122439999Y-150892970D01*
X122278973Y-150925000D01*
X122114778Y-150925000D01*
X121963082Y-150987835D01*
X121802054Y-151019865D01*
X121665540Y-151111080D01*
X121513847Y-151173914D01*
X121397746Y-151290015D01*
X112222762Y-160465000D01*
X110772440Y-160465000D01*
X110772440Y-160175000D01*
X110723157Y-159927235D01*
X110582809Y-159717191D01*
X110372765Y-159576843D01*
X110125000Y-159527560D01*
X106675000Y-159527560D01*
X106427235Y-159576843D01*
X106217191Y-159717191D01*
X106076843Y-159927235D01*
X106027560Y-160175000D01*
X106027560Y-160465000D01*
X105535000Y-160465000D01*
X105535000Y-159338969D01*
X105440136Y-158862055D01*
X105078769Y-158321231D01*
X104537944Y-157959864D01*
X103900000Y-157832969D01*
X103262055Y-157959864D01*
X102721231Y-158321231D01*
X102598968Y-158504211D01*
X102575030Y-158446706D01*
X102120569Y-158268560D01*
X101632527Y-158277890D01*
X101224970Y-158446706D01*
X101144133Y-158640896D01*
X101900000Y-159396762D01*
X101914142Y-159382620D01*
X102017380Y-159485858D01*
X102003238Y-159500000D01*
X102017380Y-159514142D01*
X101914142Y-159617380D01*
X101900000Y-159603238D01*
X101144133Y-160359104D01*
X101188215Y-160465000D01*
X93577238Y-160465000D01*
X93297440Y-160185202D01*
X93297440Y-159750000D01*
X93229126Y-159406565D01*
X93144179Y-159279431D01*
X100668560Y-159279431D01*
X100677890Y-159767473D01*
X100846706Y-160175030D01*
X101040896Y-160255867D01*
X101796762Y-159500000D01*
X101040896Y-158744133D01*
X100846706Y-158824970D01*
X100668560Y-159279431D01*
X93144179Y-159279431D01*
X93034586Y-159115414D01*
X92743435Y-158920874D01*
X92400000Y-158852560D01*
X91600000Y-158852560D01*
X91256565Y-158920874D01*
X90965414Y-159115414D01*
X90770874Y-159406565D01*
X90723926Y-159642586D01*
X90637065Y-159659864D01*
X90423505Y-159802560D01*
X89875000Y-159802560D01*
X89756055Y-159838574D01*
X89575000Y-159802560D01*
X89535000Y-159802560D01*
X89535000Y-158550808D01*
X89643750Y-158572440D01*
X90556250Y-158572440D01*
X90897294Y-158504602D01*
X91186416Y-158311416D01*
X91379602Y-158022294D01*
X91447440Y-157681250D01*
X91447440Y-157193750D01*
X91379602Y-156852706D01*
X91186416Y-156563584D01*
X90991052Y-156433045D01*
X91041876Y-156411993D01*
X91161993Y-156291876D01*
X91227000Y-156134935D01*
X91227000Y-155742250D01*
X91120250Y-155635500D01*
X90173000Y-155635500D01*
X90173000Y-155655500D01*
X90027000Y-155655500D01*
X90027000Y-155635500D01*
X90007000Y-155635500D01*
X90007000Y-155489500D01*
X90027000Y-155489500D01*
X90027000Y-154754750D01*
X90173000Y-154754750D01*
X90173000Y-155489500D01*
X91120250Y-155489500D01*
X91227000Y-155382750D01*
X91227000Y-154990065D01*
X91161993Y-154833124D01*
X91041876Y-154713007D01*
X90884936Y-154648000D01*
X90279750Y-154648000D01*
X90173000Y-154754750D01*
X90027000Y-154754750D01*
X89920250Y-154648000D01*
X89536796Y-154648000D01*
X89440136Y-154162055D01*
X89382757Y-154076181D01*
X89348157Y-153902235D01*
X89207809Y-153692191D01*
X88997765Y-153551843D01*
X88965240Y-153545373D01*
X88537945Y-153259864D01*
X88213440Y-153195316D01*
X88435732Y-153195316D01*
X88767209Y-153129381D01*
X89048221Y-152941615D01*
X89124113Y-152828034D01*
X89400625Y-152828034D01*
X89579228Y-153229866D01*
X89898011Y-153532762D01*
X90251967Y-153679367D01*
X90427000Y-153597635D01*
X90427000Y-152653000D01*
X90573000Y-152653000D01*
X90573000Y-153597635D01*
X90748033Y-153679367D01*
X91101989Y-153532762D01*
X91420772Y-153229866D01*
X91599375Y-152828034D01*
X91576898Y-152779750D01*
X93123000Y-152779750D01*
X93123000Y-153934936D01*
X93188007Y-154091876D01*
X93308124Y-154211993D01*
X93465065Y-154277000D01*
X95020250Y-154277000D01*
X95127000Y-154170250D01*
X95127000Y-152673000D01*
X95273000Y-152673000D01*
X95273000Y-154170250D01*
X95379750Y-154277000D01*
X96934935Y-154277000D01*
X97091876Y-154211993D01*
X97211993Y-154091876D01*
X97277000Y-153934936D01*
X97277000Y-152779750D01*
X97170250Y-152673000D01*
X95273000Y-152673000D01*
X95127000Y-152673000D01*
X93229750Y-152673000D01*
X93123000Y-152779750D01*
X91576898Y-152779750D01*
X91517891Y-152653000D01*
X90573000Y-152653000D01*
X90427000Y-152653000D01*
X89482109Y-152653000D01*
X89400625Y-152828034D01*
X89124113Y-152828034D01*
X89235987Y-152660603D01*
X89301357Y-152331966D01*
X89400625Y-152331966D01*
X89482109Y-152507000D01*
X90427000Y-152507000D01*
X90427000Y-151562365D01*
X90573000Y-151562365D01*
X90573000Y-152507000D01*
X91517891Y-152507000D01*
X91599375Y-152331966D01*
X91420772Y-151930134D01*
X91101989Y-151627238D01*
X90748033Y-151480633D01*
X90573000Y-151562365D01*
X90427000Y-151562365D01*
X90251967Y-151480633D01*
X89898011Y-151627238D01*
X89579228Y-151930134D01*
X89400625Y-152331966D01*
X89301357Y-152331966D01*
X89301922Y-152329126D01*
X89301922Y-151891626D01*
X89235987Y-151560149D01*
X89048221Y-151279137D01*
X89027160Y-151265064D01*
X93123000Y-151265064D01*
X93123000Y-152420250D01*
X93229750Y-152527000D01*
X95127000Y-152527000D01*
X95127000Y-151029750D01*
X95273000Y-151029750D01*
X95273000Y-152527000D01*
X97170250Y-152527000D01*
X97277000Y-152420250D01*
X97277000Y-152234778D01*
X108105000Y-152234778D01*
X108105000Y-152885222D01*
X108353914Y-153486153D01*
X108813847Y-153946086D01*
X109414778Y-154195000D01*
X110065222Y-154195000D01*
X110666153Y-153946086D01*
X111048693Y-153563546D01*
X116459691Y-153563546D01*
X116564933Y-153778511D01*
X117091758Y-153990016D01*
X117659420Y-153983815D01*
X118155067Y-153778511D01*
X118260309Y-153563546D01*
X117360000Y-152663238D01*
X116459691Y-153563546D01*
X111048693Y-153563546D01*
X111126086Y-153486153D01*
X111375000Y-152885222D01*
X111375000Y-152291758D01*
X115929984Y-152291758D01*
X115936185Y-152859420D01*
X116141489Y-153355067D01*
X116356454Y-153460309D01*
X117256762Y-152560000D01*
X117463238Y-152560000D01*
X118363546Y-153460309D01*
X118578511Y-153355067D01*
X118790016Y-152828242D01*
X118783815Y-152260580D01*
X118578511Y-151764933D01*
X118363546Y-151659691D01*
X117463238Y-152560000D01*
X117256762Y-152560000D01*
X116356454Y-151659691D01*
X116141489Y-151764933D01*
X115929984Y-152291758D01*
X111375000Y-152291758D01*
X111375000Y-152234778D01*
X111126086Y-151633847D01*
X111048693Y-151556454D01*
X116459691Y-151556454D01*
X117360000Y-152456762D01*
X118260309Y-151556454D01*
X118155067Y-151341489D01*
X117628242Y-151129984D01*
X117060580Y-151136185D01*
X116564933Y-151341489D01*
X116459691Y-151556454D01*
X111048693Y-151556454D01*
X110666153Y-151173914D01*
X110065222Y-150925000D01*
X109414778Y-150925000D01*
X108813847Y-151173914D01*
X108353914Y-151633847D01*
X108105000Y-152234778D01*
X97277000Y-152234778D01*
X97277000Y-151265064D01*
X97211993Y-151108124D01*
X97091876Y-150988007D01*
X96934935Y-150923000D01*
X95379750Y-150923000D01*
X95273000Y-151029750D01*
X95127000Y-151029750D01*
X95020250Y-150923000D01*
X93465065Y-150923000D01*
X93308124Y-150988007D01*
X93188007Y-151108124D01*
X93123000Y-151265064D01*
X89027160Y-151265064D01*
X88990595Y-151240632D01*
X89016475Y-151214752D01*
X89081482Y-151057811D01*
X89081482Y-150715126D01*
X88974732Y-150608376D01*
X88252482Y-150608376D01*
X88252482Y-150628376D01*
X88106482Y-150628376D01*
X88106482Y-150608376D01*
X88086482Y-150608376D01*
X88086482Y-150462376D01*
X88106482Y-150462376D01*
X88106482Y-149965768D01*
X88127000Y-149945250D01*
X88127000Y-149777626D01*
X88252482Y-149777626D01*
X88252482Y-150462376D01*
X88974732Y-150462376D01*
X89081482Y-150355626D01*
X89081482Y-150012941D01*
X89025670Y-149878199D01*
X89036993Y-149866876D01*
X89102000Y-149709935D01*
X89102000Y-149367250D01*
X88995250Y-149260500D01*
X88273000Y-149260500D01*
X88273000Y-149757108D01*
X88252482Y-149777626D01*
X88127000Y-149777626D01*
X88127000Y-149260500D01*
X88107000Y-149260500D01*
X88107000Y-149114500D01*
X88127000Y-149114500D01*
X88127000Y-149094500D01*
X88273000Y-149094500D01*
X88273000Y-149114500D01*
X88995250Y-149114500D01*
X89102000Y-149007750D01*
X89102000Y-148665065D01*
X89036993Y-148508124D01*
X89011113Y-148482244D01*
X89068739Y-148443739D01*
X89256505Y-148162727D01*
X89280192Y-148043645D01*
X89368242Y-148256217D01*
X89743783Y-148631758D01*
X90234452Y-148835000D01*
X90765548Y-148835000D01*
X91256217Y-148631758D01*
X91631758Y-148256217D01*
X91835000Y-147765548D01*
X91835000Y-147435000D01*
X93043541Y-147435000D01*
X93092191Y-147507809D01*
X93302235Y-147648157D01*
X93550000Y-147697440D01*
X96850000Y-147697440D01*
X97097765Y-147648157D01*
X97307809Y-147507809D01*
X97448157Y-147297765D01*
X97497440Y-147050000D01*
X97497440Y-146127000D01*
X100927560Y-146127000D01*
X100927560Y-146650000D01*
X100927560Y-146650000D01*
G37*
X100927560Y-146650000D02*
X100976843Y-146897765D01*
X101117191Y-147107809D01*
X101327235Y-147248157D01*
X101575000Y-147297440D01*
X102373000Y-147297440D01*
X102373000Y-147500000D01*
X102382667Y-147548601D01*
X102410197Y-147589803D01*
X102451399Y-147617333D01*
X102500000Y-147627000D01*
X134290001Y-147627000D01*
X134290001Y-164290000D01*
X86127000Y-164290000D01*
X86127000Y-156435000D01*
X86528854Y-156435000D01*
X86529904Y-156437529D01*
X86502560Y-156575000D01*
X86502560Y-157326332D01*
X86451843Y-157402235D01*
X86417243Y-157576182D01*
X86359864Y-157662056D01*
X86265000Y-158138970D01*
X86265001Y-159687458D01*
X86252560Y-159750000D01*
X86252560Y-160851510D01*
X86232969Y-160950000D01*
X86252560Y-161048490D01*
X86252560Y-162650000D01*
X86320874Y-162993435D01*
X86515414Y-163284586D01*
X86806565Y-163479126D01*
X87150000Y-163547440D01*
X87950000Y-163547440D01*
X88293435Y-163479126D01*
X88584586Y-163284586D01*
X88779126Y-162993435D01*
X88810641Y-162835000D01*
X88836021Y-162835000D01*
X89312935Y-162740136D01*
X89526495Y-162597440D01*
X89575000Y-162597440D01*
X89701973Y-162584867D01*
X89737529Y-162570096D01*
X89875000Y-162597440D01*
X90423505Y-162597440D01*
X90637065Y-162740136D01*
X90723926Y-162757414D01*
X90770874Y-162993435D01*
X90965414Y-163284586D01*
X91256565Y-163479126D01*
X91600000Y-163547440D01*
X92123326Y-163547440D01*
X92262055Y-163640136D01*
X92738969Y-163735000D01*
X92738973Y-163735000D01*
X92899999Y-163767030D01*
X93061025Y-163735000D01*
X104638973Y-163735000D01*
X104799999Y-163767030D01*
X104961025Y-163735000D01*
X106049440Y-163735000D01*
X106076843Y-163872765D01*
X106217191Y-164082809D01*
X106427235Y-164223157D01*
X106675000Y-164272440D01*
X110125000Y-164272440D01*
X110372765Y-164223157D01*
X110582809Y-164082809D01*
X110723157Y-163872765D01*
X110750560Y-163735000D01*
X112738970Y-163735000D01*
X112900000Y-163767031D01*
X113061030Y-163735000D01*
X113061031Y-163735000D01*
X113537945Y-163640136D01*
X114078769Y-163278769D01*
X114169988Y-163142250D01*
X115232488Y-162079750D01*
X123648000Y-162079750D01*
X123648000Y-163709935D01*
X123713007Y-163866876D01*
X123833124Y-163986993D01*
X123990064Y-164052000D01*
X125620250Y-164052000D01*
X125727000Y-163945250D01*
X125727000Y-161973000D01*
X125873000Y-161973000D01*
X125873000Y-163945250D01*
X125979750Y-164052000D01*
X127609936Y-164052000D01*
X127766876Y-163986993D01*
X127886993Y-163866876D01*
X127952000Y-163709935D01*
X127952000Y-162079750D01*
X127845250Y-161973000D01*
X125873000Y-161973000D01*
X125727000Y-161973000D01*
X123754750Y-161973000D01*
X123648000Y-162079750D01*
X115232488Y-162079750D01*
X117222173Y-160090065D01*
X123648000Y-160090065D01*
X123648000Y-161720250D01*
X123754750Y-161827000D01*
X125727000Y-161827000D01*
X125727000Y-159854750D01*
X125873000Y-159854750D01*
X125873000Y-161827000D01*
X127845250Y-161827000D01*
X127952000Y-161720250D01*
X127952000Y-160896026D01*
X128105259Y-161266026D01*
X128733974Y-161894741D01*
X129555431Y-162235000D01*
X130444569Y-162235000D01*
X131266026Y-161894741D01*
X131894741Y-161266026D01*
X132235000Y-160444569D01*
X132235000Y-159555431D01*
X131894741Y-158733974D01*
X131266026Y-158105259D01*
X130444569Y-157765000D01*
X129555431Y-157765000D01*
X128733974Y-158105259D01*
X128105259Y-158733974D01*
X127765000Y-159555431D01*
X127765000Y-159812230D01*
X127609936Y-159748000D01*
X125979750Y-159748000D01*
X125873000Y-159854750D01*
X125727000Y-159854750D01*
X125620250Y-159748000D01*
X123990064Y-159748000D01*
X123833124Y-159813007D01*
X123713007Y-159933124D01*
X123648000Y-160090065D01*
X117222173Y-160090065D01*
X123709985Y-153602254D01*
X123826086Y-153486153D01*
X123888920Y-153334460D01*
X123980135Y-153197946D01*
X124012165Y-153036918D01*
X124075000Y-152885222D01*
X124075000Y-152721027D01*
X124107030Y-152560001D01*
X124075000Y-152398975D01*
X124075000Y-152234778D01*
X124012165Y-152083081D01*
X123980135Y-151922055D01*
X123888921Y-151785544D01*
X123826086Y-151633847D01*
X123709982Y-151517743D01*
X123618768Y-151381232D01*
X123482257Y-151290018D01*
X123366153Y-151173914D01*
X123214456Y-151111079D01*
X123077945Y-151019865D01*
X122916919Y-150987835D01*
X122765222Y-150925000D01*
X122601025Y-150925000D01*
X122439999Y-150892970D01*
X122278973Y-150925000D01*
X122114778Y-150925000D01*
X121963082Y-150987835D01*
X121802054Y-151019865D01*
X121665540Y-151111080D01*
X121513847Y-151173914D01*
X121397746Y-151290015D01*
X112222762Y-160465000D01*
X110772440Y-160465000D01*
X110772440Y-160175000D01*
X110723157Y-159927235D01*
X110582809Y-159717191D01*
X110372765Y-159576843D01*
X110125000Y-159527560D01*
X106675000Y-159527560D01*
X106427235Y-159576843D01*
X106217191Y-159717191D01*
X106076843Y-159927235D01*
X106027560Y-160175000D01*
X106027560Y-160465000D01*
X105535000Y-160465000D01*
X105535000Y-159338969D01*
X105440136Y-158862055D01*
X105078769Y-158321231D01*
X104537944Y-157959864D01*
X103900000Y-157832969D01*
X103262055Y-157959864D01*
X102721231Y-158321231D01*
X102598968Y-158504211D01*
X102575030Y-158446706D01*
X102120569Y-158268560D01*
X101632527Y-158277890D01*
X101224970Y-158446706D01*
X101144133Y-158640896D01*
X101900000Y-159396762D01*
X101914142Y-159382620D01*
X102017380Y-159485858D01*
X102003238Y-159500000D01*
X102017380Y-159514142D01*
X101914142Y-159617380D01*
X101900000Y-159603238D01*
X101144133Y-160359104D01*
X101188215Y-160465000D01*
X93577238Y-160465000D01*
X93297440Y-160185202D01*
X93297440Y-159750000D01*
X93229126Y-159406565D01*
X93144179Y-159279431D01*
X100668560Y-159279431D01*
X100677890Y-159767473D01*
X100846706Y-160175030D01*
X101040896Y-160255867D01*
X101796762Y-159500000D01*
X101040896Y-158744133D01*
X100846706Y-158824970D01*
X100668560Y-159279431D01*
X93144179Y-159279431D01*
X93034586Y-159115414D01*
X92743435Y-158920874D01*
X92400000Y-158852560D01*
X91600000Y-158852560D01*
X91256565Y-158920874D01*
X90965414Y-159115414D01*
X90770874Y-159406565D01*
X90723926Y-159642586D01*
X90637065Y-159659864D01*
X90423505Y-159802560D01*
X89875000Y-159802560D01*
X89756055Y-159838574D01*
X89575000Y-159802560D01*
X89535000Y-159802560D01*
X89535000Y-158550808D01*
X89643750Y-158572440D01*
X90556250Y-158572440D01*
X90897294Y-158504602D01*
X91186416Y-158311416D01*
X91379602Y-158022294D01*
X91447440Y-157681250D01*
X91447440Y-157193750D01*
X91379602Y-156852706D01*
X91186416Y-156563584D01*
X90991052Y-156433045D01*
X91041876Y-156411993D01*
X91161993Y-156291876D01*
X91227000Y-156134935D01*
X91227000Y-155742250D01*
X91120250Y-155635500D01*
X90173000Y-155635500D01*
X90173000Y-155655500D01*
X90027000Y-155655500D01*
X90027000Y-155635500D01*
X90007000Y-155635500D01*
X90007000Y-155489500D01*
X90027000Y-155489500D01*
X90027000Y-154754750D01*
X90173000Y-154754750D01*
X90173000Y-155489500D01*
X91120250Y-155489500D01*
X91227000Y-155382750D01*
X91227000Y-154990065D01*
X91161993Y-154833124D01*
X91041876Y-154713007D01*
X90884936Y-154648000D01*
X90279750Y-154648000D01*
X90173000Y-154754750D01*
X90027000Y-154754750D01*
X89920250Y-154648000D01*
X89536796Y-154648000D01*
X89440136Y-154162055D01*
X89382757Y-154076181D01*
X89348157Y-153902235D01*
X89207809Y-153692191D01*
X88997765Y-153551843D01*
X88965240Y-153545373D01*
X88537945Y-153259864D01*
X88213440Y-153195316D01*
X88435732Y-153195316D01*
X88767209Y-153129381D01*
X89048221Y-152941615D01*
X89124113Y-152828034D01*
X89400625Y-152828034D01*
X89579228Y-153229866D01*
X89898011Y-153532762D01*
X90251967Y-153679367D01*
X90427000Y-153597635D01*
X90427000Y-152653000D01*
X90573000Y-152653000D01*
X90573000Y-153597635D01*
X90748033Y-153679367D01*
X91101989Y-153532762D01*
X91420772Y-153229866D01*
X91599375Y-152828034D01*
X91576898Y-152779750D01*
X93123000Y-152779750D01*
X93123000Y-153934936D01*
X93188007Y-154091876D01*
X93308124Y-154211993D01*
X93465065Y-154277000D01*
X95020250Y-154277000D01*
X95127000Y-154170250D01*
X95127000Y-152673000D01*
X95273000Y-152673000D01*
X95273000Y-154170250D01*
X95379750Y-154277000D01*
X96934935Y-154277000D01*
X97091876Y-154211993D01*
X97211993Y-154091876D01*
X97277000Y-153934936D01*
X97277000Y-152779750D01*
X97170250Y-152673000D01*
X95273000Y-152673000D01*
X95127000Y-152673000D01*
X93229750Y-152673000D01*
X93123000Y-152779750D01*
X91576898Y-152779750D01*
X91517891Y-152653000D01*
X90573000Y-152653000D01*
X90427000Y-152653000D01*
X89482109Y-152653000D01*
X89400625Y-152828034D01*
X89124113Y-152828034D01*
X89235987Y-152660603D01*
X89301357Y-152331966D01*
X89400625Y-152331966D01*
X89482109Y-152507000D01*
X90427000Y-152507000D01*
X90427000Y-151562365D01*
X90573000Y-151562365D01*
X90573000Y-152507000D01*
X91517891Y-152507000D01*
X91599375Y-152331966D01*
X91420772Y-151930134D01*
X91101989Y-151627238D01*
X90748033Y-151480633D01*
X90573000Y-151562365D01*
X90427000Y-151562365D01*
X90251967Y-151480633D01*
X89898011Y-151627238D01*
X89579228Y-151930134D01*
X89400625Y-152331966D01*
X89301357Y-152331966D01*
X89301922Y-152329126D01*
X89301922Y-151891626D01*
X89235987Y-151560149D01*
X89048221Y-151279137D01*
X89027160Y-151265064D01*
X93123000Y-151265064D01*
X93123000Y-152420250D01*
X93229750Y-152527000D01*
X95127000Y-152527000D01*
X95127000Y-151029750D01*
X95273000Y-151029750D01*
X95273000Y-152527000D01*
X97170250Y-152527000D01*
X97277000Y-152420250D01*
X97277000Y-152234778D01*
X108105000Y-152234778D01*
X108105000Y-152885222D01*
X108353914Y-153486153D01*
X108813847Y-153946086D01*
X109414778Y-154195000D01*
X110065222Y-154195000D01*
X110666153Y-153946086D01*
X111048693Y-153563546D01*
X116459691Y-153563546D01*
X116564933Y-153778511D01*
X117091758Y-153990016D01*
X117659420Y-153983815D01*
X118155067Y-153778511D01*
X118260309Y-153563546D01*
X117360000Y-152663238D01*
X116459691Y-153563546D01*
X111048693Y-153563546D01*
X111126086Y-153486153D01*
X111375000Y-152885222D01*
X111375000Y-152291758D01*
X115929984Y-152291758D01*
X115936185Y-152859420D01*
X116141489Y-153355067D01*
X116356454Y-153460309D01*
X117256762Y-152560000D01*
X117463238Y-152560000D01*
X118363546Y-153460309D01*
X118578511Y-153355067D01*
X118790016Y-152828242D01*
X118783815Y-152260580D01*
X118578511Y-151764933D01*
X118363546Y-151659691D01*
X117463238Y-152560000D01*
X117256762Y-152560000D01*
X116356454Y-151659691D01*
X116141489Y-151764933D01*
X115929984Y-152291758D01*
X111375000Y-152291758D01*
X111375000Y-152234778D01*
X111126086Y-151633847D01*
X111048693Y-151556454D01*
X116459691Y-151556454D01*
X117360000Y-152456762D01*
X118260309Y-151556454D01*
X118155067Y-151341489D01*
X117628242Y-151129984D01*
X117060580Y-151136185D01*
X116564933Y-151341489D01*
X116459691Y-151556454D01*
X111048693Y-151556454D01*
X110666153Y-151173914D01*
X110065222Y-150925000D01*
X109414778Y-150925000D01*
X108813847Y-151173914D01*
X108353914Y-151633847D01*
X108105000Y-152234778D01*
X97277000Y-152234778D01*
X97277000Y-151265064D01*
X97211993Y-151108124D01*
X97091876Y-150988007D01*
X96934935Y-150923000D01*
X95379750Y-150923000D01*
X95273000Y-151029750D01*
X95127000Y-151029750D01*
X95020250Y-150923000D01*
X93465065Y-150923000D01*
X93308124Y-150988007D01*
X93188007Y-151108124D01*
X93123000Y-151265064D01*
X89027160Y-151265064D01*
X88990595Y-151240632D01*
X89016475Y-151214752D01*
X89081482Y-151057811D01*
X89081482Y-150715126D01*
X88974732Y-150608376D01*
X88252482Y-150608376D01*
X88252482Y-150628376D01*
X88106482Y-150628376D01*
X88106482Y-150608376D01*
X88086482Y-150608376D01*
X88086482Y-150462376D01*
X88106482Y-150462376D01*
X88106482Y-149965768D01*
X88127000Y-149945250D01*
X88127000Y-149777626D01*
X88252482Y-149777626D01*
X88252482Y-150462376D01*
X88974732Y-150462376D01*
X89081482Y-150355626D01*
X89081482Y-150012941D01*
X89025670Y-149878199D01*
X89036993Y-149866876D01*
X89102000Y-149709935D01*
X89102000Y-149367250D01*
X88995250Y-149260500D01*
X88273000Y-149260500D01*
X88273000Y-149757108D01*
X88252482Y-149777626D01*
X88127000Y-149777626D01*
X88127000Y-149260500D01*
X88107000Y-149260500D01*
X88107000Y-149114500D01*
X88127000Y-149114500D01*
X88127000Y-149094500D01*
X88273000Y-149094500D01*
X88273000Y-149114500D01*
X88995250Y-149114500D01*
X89102000Y-149007750D01*
X89102000Y-148665065D01*
X89036993Y-148508124D01*
X89011113Y-148482244D01*
X89068739Y-148443739D01*
X89256505Y-148162727D01*
X89280192Y-148043645D01*
X89368242Y-148256217D01*
X89743783Y-148631758D01*
X90234452Y-148835000D01*
X90765548Y-148835000D01*
X91256217Y-148631758D01*
X91631758Y-148256217D01*
X91835000Y-147765548D01*
X91835000Y-147435000D01*
X93043541Y-147435000D01*
X93092191Y-147507809D01*
X93302235Y-147648157D01*
X93550000Y-147697440D01*
X96850000Y-147697440D01*
X97097765Y-147648157D01*
X97307809Y-147507809D01*
X97448157Y-147297765D01*
X97497440Y-147050000D01*
X97497440Y-146127000D01*
X100927560Y-146127000D01*
X100927560Y-146650000D01*
G04 #@! TD*
M02*
