M48
INCH,TZ
T1C0.0118
T2C0.0236
T3C0.0276
T4C0.0315
T5C0.0320
T6C0.0354
T7C0.0394
T8C0.0400
T9C0.0433
T10C0.0512
T11C0.0630
T12C0.0689
T13C0.0728
T14C0.0827
%
G90
G05
T1
X25591Y-40945
X29528Y-36614
X29882Y-58268
X29882Y-58661
X29882Y-59055
X29882Y-59449
X29921Y-62008
X29921Y-62598
X30512Y-62008
X30512Y-62598
X30512Y-63189
X30866Y-58268
X30866Y-58661
X30866Y-59055
X30866Y-59449
X31102Y-62008
X31102Y-62598
X31102Y-63189
X33071Y-36614
X33071Y-44094
X35433Y-59055
X36220Y-36614
X36220Y-59055
X36614Y-61811
X37008Y-42126
X37008Y-47244
X37402Y-49606
X37402Y-51575
X38189Y-44488
X38583Y-62598
X39173Y-58189
X39764Y-36614
X40551Y-55118
X41732Y-56693
X41732Y-58661
X42126Y-45669
X42913Y-36614
X44882Y-56693
X44882Y-58661
X46063Y-36614
X46457Y-63780
X49606Y-56693
X49606Y-58661
X50000Y-36614
X51969Y-40551
X51969Y-44882
X51969Y-53937
X51969Y-56693
X51969Y-58661
X51969Y-61417
X51969Y-61417
X51969Y-61417
T3
X35630Y-58071
X35630Y-60071
T4
X35354Y-41732
X35354Y-42732
X38354Y-41732
X38354Y-42732
X51299Y-47520
X52087Y-47520
X40118Y-62795
X40906Y-62795
T5
X35039Y-45000
X35039Y-46969
X39961Y-45000
X39961Y-46969
T6
X42319Y-42043
X42819Y-41043
X43319Y-42043
X43819Y-41043
X47043Y-42043
X47543Y-41043
X48043Y-42043
X48543Y-41043
T7
X48425Y-46063
X28701Y-59213
X43189Y-46063
T8
X43205Y-52063
X43205Y-60063
X46205Y-60063
X47205Y-52063
X48205Y-60063
X51205Y-52063
T9
X39173Y-50197
X39173Y-54213
T10
X31240Y-37283
X32618Y-39252
X38012Y-37283
X39390Y-39252
X27854Y-37283
X29232Y-39252
X34626Y-37283
X36004Y-39252
T11
X24843Y-60984
X26811Y-60984
X24843Y-58228
X26811Y-58228
X24843Y-54291
X26811Y-54291
X24843Y-51535
X26811Y-51535
T12
X42677Y-47992
X42677Y-63740
X49528Y-47992
X49528Y-63740
T13
X28583Y-41850
X30433Y-41850
X32283Y-41850
X43898Y-43937
X45748Y-43937
X47598Y-43937
T14
X33110Y-48701
X34110Y-55709
T2
X24378Y-44834G85X24378Y-45267
G05
X24378Y-48434G85X24378Y-48867
G05
X28378Y-44649G85X28378Y-45452
G05
X28378Y-48249G85X28378Y-49052
G05
T0
M30
