G04 #@! TF.GenerationSoftware,KiCad,Pcbnew,(5.0.2)-1*
G04 #@! TF.CreationDate,2019-05-09T19:07:32+02:00*
G04 #@! TF.ProjectId,SystemSupply,53797374-656d-4537-9570-706c792e6b69,rev?*
G04 #@! TF.SameCoordinates,Original*
G04 #@! TF.FileFunction,Legend,Top*
G04 #@! TF.FilePolarity,Positive*
%FSLAX46Y46*%
G04 Gerber Fmt 4.6, Leading zero omitted, Abs format (unit mm)*
G04 Created by KiCad (PCBNEW (5.0.2)-1) date 09.05.2019 19:07:32*
%MOMM*%
%LPD*%
G01*
G04 APERTURE LIST*
%ADD10C,0.250000*%
%ADD11C,0.300000*%
%ADD12C,0.010000*%
%ADD13C,0.150000*%
%ADD14C,0.120000*%
%ADD15C,0.100000*%
G04 APERTURE END LIST*
D10*
X71428571Y-130807142D02*
X72571428Y-130807142D01*
X72000000Y-131378571D02*
X72000000Y-130235714D01*
X71328571Y-154907142D02*
X72471428Y-154907142D01*
X71900000Y-155478571D02*
X71900000Y-154335714D01*
X71428571Y-147907142D02*
X72571428Y-147907142D01*
X71428571Y-138007142D02*
X72571428Y-138007142D01*
X62092857Y-150678571D02*
X62378571Y-150678571D01*
X62521428Y-150750000D01*
X62664285Y-150892857D01*
X62735714Y-151178571D01*
X62735714Y-151678571D01*
X62664285Y-151964285D01*
X62521428Y-152107142D01*
X62378571Y-152178571D01*
X62092857Y-152178571D01*
X61950000Y-152107142D01*
X61807142Y-151964285D01*
X61735714Y-151678571D01*
X61735714Y-151178571D01*
X61807142Y-150892857D01*
X61950000Y-150750000D01*
X62092857Y-150678571D01*
X63378571Y-150678571D02*
X63378571Y-151892857D01*
X63450000Y-152035714D01*
X63521428Y-152107142D01*
X63664285Y-152178571D01*
X63950000Y-152178571D01*
X64092857Y-152107142D01*
X64164285Y-152035714D01*
X64235714Y-151892857D01*
X64235714Y-150678571D01*
X64735714Y-150678571D02*
X65592857Y-150678571D01*
X65164285Y-152178571D02*
X65164285Y-150678571D01*
X66092857Y-152178571D02*
X66092857Y-150678571D01*
X66664285Y-150678571D01*
X66807142Y-150750000D01*
X66878571Y-150821428D01*
X66950000Y-150964285D01*
X66950000Y-151178571D01*
X66878571Y-151321428D01*
X66807142Y-151392857D01*
X66664285Y-151464285D01*
X66092857Y-151464285D01*
X67592857Y-150678571D02*
X67592857Y-151892857D01*
X67664285Y-152035714D01*
X67735714Y-152107142D01*
X67878571Y-152178571D01*
X68164285Y-152178571D01*
X68307142Y-152107142D01*
X68378571Y-152035714D01*
X68450000Y-151892857D01*
X68450000Y-150678571D01*
X68950000Y-150678571D02*
X69807142Y-150678571D01*
X69378571Y-152178571D02*
X69378571Y-150678571D01*
X62807142Y-135178571D02*
X62807142Y-133678571D01*
X63521428Y-135178571D02*
X63521428Y-133678571D01*
X64378571Y-135178571D01*
X64378571Y-133678571D01*
X65092857Y-135178571D02*
X65092857Y-133678571D01*
X65664285Y-133678571D01*
X65807142Y-133750000D01*
X65878571Y-133821428D01*
X65950000Y-133964285D01*
X65950000Y-134178571D01*
X65878571Y-134321428D01*
X65807142Y-134392857D01*
X65664285Y-134464285D01*
X65092857Y-134464285D01*
X66592857Y-133678571D02*
X66592857Y-134892857D01*
X66664285Y-135035714D01*
X66735714Y-135107142D01*
X66878571Y-135178571D01*
X67164285Y-135178571D01*
X67307142Y-135107142D01*
X67378571Y-135035714D01*
X67450000Y-134892857D01*
X67450000Y-133678571D01*
X67950000Y-133678571D02*
X68807142Y-133678571D01*
X68378571Y-135178571D02*
X68378571Y-133678571D01*
X98869047Y-156059523D02*
X99183333Y-156154761D01*
X99707142Y-156154761D01*
X99916666Y-156059523D01*
X100021428Y-155964285D01*
X100126190Y-155773809D01*
X100126190Y-155583333D01*
X100021428Y-155392857D01*
X99916666Y-155297619D01*
X99707142Y-155202380D01*
X99288095Y-155107142D01*
X99078571Y-155011904D01*
X98973809Y-154916666D01*
X98869047Y-154726190D01*
X98869047Y-154535714D01*
X98973809Y-154345238D01*
X99078571Y-154250000D01*
X99288095Y-154154761D01*
X99811904Y-154154761D01*
X100126190Y-154250000D01*
X101069047Y-155107142D02*
X101802380Y-155107142D01*
X102116666Y-156154761D02*
X101069047Y-156154761D01*
X101069047Y-154154761D01*
X102116666Y-154154761D01*
X103059523Y-156154761D02*
X103059523Y-154154761D01*
X103792857Y-155583333D01*
X104526190Y-154154761D01*
X104526190Y-156154761D01*
D11*
X86492857Y-106935714D02*
X86492857Y-107435714D01*
X87278571Y-107435714D02*
X85778571Y-107435714D01*
X85778571Y-106721428D01*
X87135714Y-105292857D02*
X87207142Y-105364285D01*
X87278571Y-105578571D01*
X87278571Y-105721428D01*
X87207142Y-105935714D01*
X87064285Y-106078571D01*
X86921428Y-106150000D01*
X86635714Y-106221428D01*
X86421428Y-106221428D01*
X86135714Y-106150000D01*
X85992857Y-106078571D01*
X85850000Y-105935714D01*
X85778571Y-105721428D01*
X85778571Y-105578571D01*
X85850000Y-105364285D01*
X85921428Y-105292857D01*
X125792857Y-113092857D02*
X125864285Y-112878571D01*
X125935714Y-112807142D01*
X126078571Y-112735714D01*
X126292857Y-112735714D01*
X126435714Y-112807142D01*
X126507142Y-112878571D01*
X126578571Y-113021428D01*
X126578571Y-113592857D01*
X125078571Y-113592857D01*
X125078571Y-113092857D01*
X125150000Y-112950000D01*
X125221428Y-112878571D01*
X125364285Y-112807142D01*
X125507142Y-112807142D01*
X125650000Y-112878571D01*
X125721428Y-112950000D01*
X125792857Y-113092857D01*
X125792857Y-113592857D01*
X125078571Y-112092857D02*
X126292857Y-112092857D01*
X126435714Y-112021428D01*
X126507142Y-111950000D01*
X126578571Y-111807142D01*
X126578571Y-111521428D01*
X126507142Y-111378571D01*
X126435714Y-111307142D01*
X126292857Y-111235714D01*
X125078571Y-111235714D01*
X126507142Y-110592857D02*
X126578571Y-110378571D01*
X126578571Y-110021428D01*
X126507142Y-109878571D01*
X126435714Y-109807142D01*
X126292857Y-109735714D01*
X126150000Y-109735714D01*
X126007142Y-109807142D01*
X125935714Y-109878571D01*
X125864285Y-110021428D01*
X125792857Y-110307142D01*
X125721428Y-110450000D01*
X125650000Y-110521428D01*
X125507142Y-110592857D01*
X125364285Y-110592857D01*
X125221428Y-110521428D01*
X125150000Y-110450000D01*
X125078571Y-110307142D01*
X125078571Y-109950000D01*
X125150000Y-109735714D01*
X112871428Y-115578571D02*
X113157142Y-115578571D01*
X113300000Y-115650000D01*
X113442857Y-115792857D01*
X113514285Y-116078571D01*
X113514285Y-116578571D01*
X113442857Y-116864285D01*
X113300000Y-117007142D01*
X113157142Y-117078571D01*
X112871428Y-117078571D01*
X112728571Y-117007142D01*
X112585714Y-116864285D01*
X112514285Y-116578571D01*
X112514285Y-116078571D01*
X112585714Y-115792857D01*
X112728571Y-115650000D01*
X112871428Y-115578571D01*
X114157142Y-117078571D02*
X114157142Y-115578571D01*
X115014285Y-117078571D01*
X115014285Y-115578571D01*
X117171428Y-115578571D02*
X117457142Y-115578571D01*
X117600000Y-115650000D01*
X117742857Y-115792857D01*
X117814285Y-116078571D01*
X117814285Y-116578571D01*
X117742857Y-116864285D01*
X117600000Y-117007142D01*
X117457142Y-117078571D01*
X117171428Y-117078571D01*
X117028571Y-117007142D01*
X116885714Y-116864285D01*
X116814285Y-116578571D01*
X116814285Y-116078571D01*
X116885714Y-115792857D01*
X117028571Y-115650000D01*
X117171428Y-115578571D01*
X118957142Y-116292857D02*
X118457142Y-116292857D01*
X118457142Y-117078571D02*
X118457142Y-115578571D01*
X119171428Y-115578571D01*
X120242857Y-116292857D02*
X119742857Y-116292857D01*
X119742857Y-117078571D02*
X119742857Y-115578571D01*
X120457142Y-115578571D01*
X105878571Y-121357142D02*
X104378571Y-121357142D01*
X104378571Y-120785714D01*
X104450000Y-120642857D01*
X104521428Y-120571428D01*
X104664285Y-120500000D01*
X104878571Y-120500000D01*
X105021428Y-120571428D01*
X105092857Y-120642857D01*
X105164285Y-120785714D01*
X105164285Y-121357142D01*
X104378571Y-119857142D02*
X105592857Y-119857142D01*
X105735714Y-119785714D01*
X105807142Y-119714285D01*
X105878571Y-119571428D01*
X105878571Y-119285714D01*
X105807142Y-119142857D01*
X105735714Y-119071428D01*
X105592857Y-119000000D01*
X104378571Y-119000000D01*
X105878571Y-117428571D02*
X105164285Y-117928571D01*
X105878571Y-118285714D02*
X104378571Y-118285714D01*
X104378571Y-117714285D01*
X104450000Y-117571428D01*
X104521428Y-117500000D01*
X104664285Y-117428571D01*
X104878571Y-117428571D01*
X105021428Y-117500000D01*
X105092857Y-117571428D01*
X105164285Y-117714285D01*
X105164285Y-118285714D01*
X104450000Y-116000000D02*
X104378571Y-116142857D01*
X104378571Y-116357142D01*
X104450000Y-116571428D01*
X104592857Y-116714285D01*
X104735714Y-116785714D01*
X105021428Y-116857142D01*
X105235714Y-116857142D01*
X105521428Y-116785714D01*
X105664285Y-116714285D01*
X105807142Y-116571428D01*
X105878571Y-116357142D01*
X105878571Y-116214285D01*
X105807142Y-116000000D01*
X105735714Y-115928571D01*
X105235714Y-115928571D01*
X105235714Y-116214285D01*
X105092857Y-115285714D02*
X105092857Y-114785714D01*
X105878571Y-114571428D02*
X105878571Y-115285714D01*
X104378571Y-115285714D01*
X104378571Y-114571428D01*
X73571428Y-110378571D02*
X73857142Y-110378571D01*
X74000000Y-110450000D01*
X74142857Y-110592857D01*
X74214285Y-110878571D01*
X74214285Y-111378571D01*
X74142857Y-111664285D01*
X74000000Y-111807142D01*
X73857142Y-111878571D01*
X73571428Y-111878571D01*
X73428571Y-111807142D01*
X73285714Y-111664285D01*
X73214285Y-111378571D01*
X73214285Y-110878571D01*
X73285714Y-110592857D01*
X73428571Y-110450000D01*
X73571428Y-110378571D01*
X75357142Y-111092857D02*
X74857142Y-111092857D01*
X74857142Y-111878571D02*
X74857142Y-110378571D01*
X75571428Y-110378571D01*
X76642857Y-111092857D02*
X76142857Y-111092857D01*
X76142857Y-111878571D02*
X76142857Y-110378571D01*
X76857142Y-110378571D01*
X78771428Y-110378571D02*
X79057142Y-110378571D01*
X79200000Y-110450000D01*
X79342857Y-110592857D01*
X79414285Y-110878571D01*
X79414285Y-111378571D01*
X79342857Y-111664285D01*
X79200000Y-111807142D01*
X79057142Y-111878571D01*
X78771428Y-111878571D01*
X78628571Y-111807142D01*
X78485714Y-111664285D01*
X78414285Y-111378571D01*
X78414285Y-110878571D01*
X78485714Y-110592857D01*
X78628571Y-110450000D01*
X78771428Y-110378571D01*
X80057142Y-111878571D02*
X80057142Y-110378571D01*
X80914285Y-111878571D01*
X80914285Y-110378571D01*
D10*
X61552380Y-117809523D02*
X61600000Y-117857142D01*
X61647619Y-117952380D01*
X61647619Y-118190476D01*
X61600000Y-118285714D01*
X61552380Y-118333333D01*
X61457142Y-118380952D01*
X61361904Y-118380952D01*
X61219047Y-118333333D01*
X60647619Y-117761904D01*
X60647619Y-118380952D01*
X61647619Y-119000000D02*
X61647619Y-119095238D01*
X61600000Y-119190476D01*
X61552380Y-119238095D01*
X61457142Y-119285714D01*
X61266666Y-119333333D01*
X61028571Y-119333333D01*
X60838095Y-119285714D01*
X60742857Y-119238095D01*
X60695238Y-119190476D01*
X60647619Y-119095238D01*
X60647619Y-119000000D01*
X60695238Y-118904761D01*
X60742857Y-118857142D01*
X60838095Y-118809523D01*
X61028571Y-118761904D01*
X61266666Y-118761904D01*
X61457142Y-118809523D01*
X61552380Y-118857142D01*
X61600000Y-118904761D01*
X61647619Y-119000000D01*
X60933333Y-119714285D02*
X60933333Y-120190476D01*
X60647619Y-119619047D02*
X61647619Y-119952380D01*
X60647619Y-120285714D01*
D12*
G04 #@! TO.C,G1*
G36*
X81276990Y-114928601D02*
X81393482Y-114939822D01*
X81495562Y-114959344D01*
X81499494Y-114960368D01*
X81545249Y-114973897D01*
X81603356Y-114993166D01*
X81667882Y-115015966D01*
X81732894Y-115040088D01*
X81792458Y-115063322D01*
X81840641Y-115083459D01*
X81871510Y-115098289D01*
X81874329Y-115099949D01*
X81881537Y-115111973D01*
X81885922Y-115139394D01*
X81887725Y-115185368D01*
X81887188Y-115253049D01*
X81886933Y-115264753D01*
X81883350Y-115419554D01*
X81794450Y-115354161D01*
X81683283Y-115282393D01*
X81561827Y-115221376D01*
X81440037Y-115175901D01*
X81401893Y-115165228D01*
X81311736Y-115148657D01*
X81211152Y-115140579D01*
X81109695Y-115141113D01*
X81016917Y-115150379D01*
X80970783Y-115159819D01*
X80851597Y-115203039D01*
X80745561Y-115267046D01*
X80653485Y-115350425D01*
X80576179Y-115451764D01*
X80514453Y-115569647D01*
X80469116Y-115702660D01*
X80440980Y-115849391D01*
X80430852Y-116008424D01*
X80433136Y-116098550D01*
X80451536Y-116261940D01*
X80487535Y-116408788D01*
X80540666Y-116538449D01*
X80610464Y-116650280D01*
X80696464Y-116743640D01*
X80798201Y-116817884D01*
X80915208Y-116872371D01*
X81013400Y-116900030D01*
X81102008Y-116911832D01*
X81203792Y-116914048D01*
X81308548Y-116907018D01*
X81406072Y-116891083D01*
X81426150Y-116886261D01*
X81511945Y-116857444D01*
X81606631Y-116814298D01*
X81701824Y-116761121D01*
X81789145Y-116702211D01*
X81797625Y-116695784D01*
X81889700Y-116625136D01*
X81889700Y-116939339D01*
X81803975Y-116978546D01*
X81708768Y-117020423D01*
X81626765Y-117052385D01*
X81549367Y-117077543D01*
X81477694Y-117096660D01*
X81407362Y-117109870D01*
X81321862Y-117119885D01*
X81229390Y-117126294D01*
X81138141Y-117128682D01*
X81056308Y-117126637D01*
X80998337Y-117120803D01*
X80859413Y-117092111D01*
X80739152Y-117052070D01*
X80632404Y-116998158D01*
X80534016Y-116927858D01*
X80454600Y-116854840D01*
X80371045Y-116762331D01*
X80311421Y-116677767D01*
X80299869Y-116657132D01*
X80243769Y-116527402D01*
X80202377Y-116381774D01*
X80175976Y-116225256D01*
X80164850Y-116062856D01*
X80169283Y-115899582D01*
X80189557Y-115740444D01*
X80225957Y-115590450D01*
X80237493Y-115555303D01*
X80299838Y-115412269D01*
X80381398Y-115285378D01*
X80480935Y-115175713D01*
X80597213Y-115084354D01*
X80728995Y-115012380D01*
X80875046Y-114960873D01*
X80933759Y-114946947D01*
X81037857Y-114931944D01*
X81155357Y-114925902D01*
X81276990Y-114928601D01*
X81276990Y-114928601D01*
G37*
X81276990Y-114928601D02*
X81393482Y-114939822D01*
X81495562Y-114959344D01*
X81499494Y-114960368D01*
X81545249Y-114973897D01*
X81603356Y-114993166D01*
X81667882Y-115015966D01*
X81732894Y-115040088D01*
X81792458Y-115063322D01*
X81840641Y-115083459D01*
X81871510Y-115098289D01*
X81874329Y-115099949D01*
X81881537Y-115111973D01*
X81885922Y-115139394D01*
X81887725Y-115185368D01*
X81887188Y-115253049D01*
X81886933Y-115264753D01*
X81883350Y-115419554D01*
X81794450Y-115354161D01*
X81683283Y-115282393D01*
X81561827Y-115221376D01*
X81440037Y-115175901D01*
X81401893Y-115165228D01*
X81311736Y-115148657D01*
X81211152Y-115140579D01*
X81109695Y-115141113D01*
X81016917Y-115150379D01*
X80970783Y-115159819D01*
X80851597Y-115203039D01*
X80745561Y-115267046D01*
X80653485Y-115350425D01*
X80576179Y-115451764D01*
X80514453Y-115569647D01*
X80469116Y-115702660D01*
X80440980Y-115849391D01*
X80430852Y-116008424D01*
X80433136Y-116098550D01*
X80451536Y-116261940D01*
X80487535Y-116408788D01*
X80540666Y-116538449D01*
X80610464Y-116650280D01*
X80696464Y-116743640D01*
X80798201Y-116817884D01*
X80915208Y-116872371D01*
X81013400Y-116900030D01*
X81102008Y-116911832D01*
X81203792Y-116914048D01*
X81308548Y-116907018D01*
X81406072Y-116891083D01*
X81426150Y-116886261D01*
X81511945Y-116857444D01*
X81606631Y-116814298D01*
X81701824Y-116761121D01*
X81789145Y-116702211D01*
X81797625Y-116695784D01*
X81889700Y-116625136D01*
X81889700Y-116939339D01*
X81803975Y-116978546D01*
X81708768Y-117020423D01*
X81626765Y-117052385D01*
X81549367Y-117077543D01*
X81477694Y-117096660D01*
X81407362Y-117109870D01*
X81321862Y-117119885D01*
X81229390Y-117126294D01*
X81138141Y-117128682D01*
X81056308Y-117126637D01*
X80998337Y-117120803D01*
X80859413Y-117092111D01*
X80739152Y-117052070D01*
X80632404Y-116998158D01*
X80534016Y-116927858D01*
X80454600Y-116854840D01*
X80371045Y-116762331D01*
X80311421Y-116677767D01*
X80299869Y-116657132D01*
X80243769Y-116527402D01*
X80202377Y-116381774D01*
X80175976Y-116225256D01*
X80164850Y-116062856D01*
X80169283Y-115899582D01*
X80189557Y-115740444D01*
X80225957Y-115590450D01*
X80237493Y-115555303D01*
X80299838Y-115412269D01*
X80381398Y-115285378D01*
X80480935Y-115175713D01*
X80597213Y-115084354D01*
X80728995Y-115012380D01*
X80875046Y-114960873D01*
X80933759Y-114946947D01*
X81037857Y-114931944D01*
X81155357Y-114925902D01*
X81276990Y-114928601D01*
G36*
X84694050Y-112403607D02*
X84915489Y-112424304D01*
X85132817Y-112464693D01*
X85341298Y-112524542D01*
X85343101Y-112525162D01*
X85431617Y-112559303D01*
X85532635Y-112604269D01*
X85639009Y-112656394D01*
X85743596Y-112712009D01*
X85839248Y-112767448D01*
X85918823Y-112819041D01*
X85927283Y-112825037D01*
X86078831Y-112944820D01*
X86225568Y-113082033D01*
X86361912Y-113230756D01*
X86482277Y-113385070D01*
X86547299Y-113482350D01*
X86663995Y-113692844D01*
X86757167Y-113910901D01*
X86826924Y-114134777D01*
X86873376Y-114362731D01*
X86896635Y-114593020D01*
X86896810Y-114823903D01*
X86874011Y-115053637D01*
X86828349Y-115280480D01*
X86759933Y-115502691D01*
X86668874Y-115718527D01*
X86555282Y-115926246D01*
X86419267Y-116124106D01*
X86376821Y-116177945D01*
X86303951Y-116262310D01*
X86222044Y-116348144D01*
X86137282Y-116429453D01*
X86055845Y-116500245D01*
X86000026Y-116543292D01*
X85964569Y-116569951D01*
X85939047Y-116591491D01*
X85928915Y-116603303D01*
X85928909Y-116603375D01*
X85940617Y-116606816D01*
X85973174Y-116609703D01*
X86022028Y-116611790D01*
X86082632Y-116612829D01*
X86103983Y-116612900D01*
X86175207Y-116613287D01*
X86224697Y-116614716D01*
X86256111Y-116617581D01*
X86273108Y-116622280D01*
X86279345Y-116629209D01*
X86279666Y-116631950D01*
X86274336Y-116642423D01*
X86255215Y-116648354D01*
X86217603Y-116650777D01*
X86193176Y-116651000D01*
X86106686Y-116651000D01*
X86103218Y-116876261D01*
X86101667Y-116958406D01*
X86099695Y-117018494D01*
X86096963Y-117059867D01*
X86093134Y-117085870D01*
X86087869Y-117099844D01*
X86080831Y-117105132D01*
X86080080Y-117105300D01*
X86057502Y-117103725D01*
X86051505Y-117100172D01*
X86048597Y-117085139D01*
X86046087Y-117049014D01*
X86044142Y-116996103D01*
X86042929Y-116930715D01*
X86042600Y-116871133D01*
X86042600Y-116651000D01*
X85835200Y-116651000D01*
X85843514Y-114923800D01*
X85851828Y-113196599D01*
X85515414Y-113196600D01*
X85179000Y-113196600D01*
X85176037Y-113707775D01*
X85175375Y-113823117D01*
X85174755Y-113933710D01*
X85174192Y-114036239D01*
X85173706Y-114127392D01*
X85173312Y-114203855D01*
X85173030Y-114262316D01*
X85172877Y-114299462D01*
X85172862Y-114304696D01*
X85172650Y-114390443D01*
X84585275Y-114390421D01*
X83997900Y-114390400D01*
X83997900Y-112475715D01*
X84052424Y-112461986D01*
X84257781Y-112422216D01*
X84473235Y-112402833D01*
X84694050Y-112403607D01*
X84694050Y-112403607D01*
G37*
X84694050Y-112403607D02*
X84915489Y-112424304D01*
X85132817Y-112464693D01*
X85341298Y-112524542D01*
X85343101Y-112525162D01*
X85431617Y-112559303D01*
X85532635Y-112604269D01*
X85639009Y-112656394D01*
X85743596Y-112712009D01*
X85839248Y-112767448D01*
X85918823Y-112819041D01*
X85927283Y-112825037D01*
X86078831Y-112944820D01*
X86225568Y-113082033D01*
X86361912Y-113230756D01*
X86482277Y-113385070D01*
X86547299Y-113482350D01*
X86663995Y-113692844D01*
X86757167Y-113910901D01*
X86826924Y-114134777D01*
X86873376Y-114362731D01*
X86896635Y-114593020D01*
X86896810Y-114823903D01*
X86874011Y-115053637D01*
X86828349Y-115280480D01*
X86759933Y-115502691D01*
X86668874Y-115718527D01*
X86555282Y-115926246D01*
X86419267Y-116124106D01*
X86376821Y-116177945D01*
X86303951Y-116262310D01*
X86222044Y-116348144D01*
X86137282Y-116429453D01*
X86055845Y-116500245D01*
X86000026Y-116543292D01*
X85964569Y-116569951D01*
X85939047Y-116591491D01*
X85928915Y-116603303D01*
X85928909Y-116603375D01*
X85940617Y-116606816D01*
X85973174Y-116609703D01*
X86022028Y-116611790D01*
X86082632Y-116612829D01*
X86103983Y-116612900D01*
X86175207Y-116613287D01*
X86224697Y-116614716D01*
X86256111Y-116617581D01*
X86273108Y-116622280D01*
X86279345Y-116629209D01*
X86279666Y-116631950D01*
X86274336Y-116642423D01*
X86255215Y-116648354D01*
X86217603Y-116650777D01*
X86193176Y-116651000D01*
X86106686Y-116651000D01*
X86103218Y-116876261D01*
X86101667Y-116958406D01*
X86099695Y-117018494D01*
X86096963Y-117059867D01*
X86093134Y-117085870D01*
X86087869Y-117099844D01*
X86080831Y-117105132D01*
X86080080Y-117105300D01*
X86057502Y-117103725D01*
X86051505Y-117100172D01*
X86048597Y-117085139D01*
X86046087Y-117049014D01*
X86044142Y-116996103D01*
X86042929Y-116930715D01*
X86042600Y-116871133D01*
X86042600Y-116651000D01*
X85835200Y-116651000D01*
X85843514Y-114923800D01*
X85851828Y-113196599D01*
X85515414Y-113196600D01*
X85179000Y-113196600D01*
X85176037Y-113707775D01*
X85175375Y-113823117D01*
X85174755Y-113933710D01*
X85174192Y-114036239D01*
X85173706Y-114127392D01*
X85173312Y-114203855D01*
X85173030Y-114262316D01*
X85172877Y-114299462D01*
X85172862Y-114304696D01*
X85172650Y-114390443D01*
X84585275Y-114390421D01*
X83997900Y-114390400D01*
X83997900Y-112475715D01*
X84052424Y-112461986D01*
X84257781Y-112422216D01*
X84473235Y-112402833D01*
X84694050Y-112403607D01*
G36*
X86586097Y-116613349D02*
X86631776Y-116615004D01*
X86659706Y-116618322D01*
X86673707Y-116623761D01*
X86677599Y-116631781D01*
X86677600Y-116631950D01*
X86673511Y-116640649D01*
X86658513Y-116646308D01*
X86628505Y-116649513D01*
X86579386Y-116650849D01*
X86544250Y-116651000D01*
X86410900Y-116651000D01*
X86410900Y-116816100D01*
X86537900Y-116816100D01*
X86597122Y-116816729D01*
X86635144Y-116819035D01*
X86656144Y-116823645D01*
X86664298Y-116831185D01*
X86664900Y-116835150D01*
X86660703Y-116844033D01*
X86645327Y-116849736D01*
X86614595Y-116852886D01*
X86564329Y-116854109D01*
X86537900Y-116854200D01*
X86410900Y-116854200D01*
X86410900Y-117057400D01*
X86545181Y-117057400D01*
X86605003Y-117057778D01*
X86643679Y-117059396D01*
X86665459Y-117062981D01*
X86674591Y-117069260D01*
X86675324Y-117078957D01*
X86675201Y-117079625D01*
X86670631Y-117089100D01*
X86658408Y-117095698D01*
X86634353Y-117100092D01*
X86594288Y-117102958D01*
X86534036Y-117104971D01*
X86515520Y-117105415D01*
X86360100Y-117108981D01*
X86360100Y-116612900D01*
X86518850Y-116612900D01*
X86586097Y-116613349D01*
X86586097Y-116613349D01*
G37*
X86586097Y-116613349D02*
X86631776Y-116615004D01*
X86659706Y-116618322D01*
X86673707Y-116623761D01*
X86677599Y-116631781D01*
X86677600Y-116631950D01*
X86673511Y-116640649D01*
X86658513Y-116646308D01*
X86628505Y-116649513D01*
X86579386Y-116650849D01*
X86544250Y-116651000D01*
X86410900Y-116651000D01*
X86410900Y-116816100D01*
X86537900Y-116816100D01*
X86597122Y-116816729D01*
X86635144Y-116819035D01*
X86656144Y-116823645D01*
X86664298Y-116831185D01*
X86664900Y-116835150D01*
X86660703Y-116844033D01*
X86645327Y-116849736D01*
X86614595Y-116852886D01*
X86564329Y-116854109D01*
X86537900Y-116854200D01*
X86410900Y-116854200D01*
X86410900Y-117057400D01*
X86545181Y-117057400D01*
X86605003Y-117057778D01*
X86643679Y-117059396D01*
X86665459Y-117062981D01*
X86674591Y-117069260D01*
X86675324Y-117078957D01*
X86675201Y-117079625D01*
X86670631Y-117089100D01*
X86658408Y-117095698D01*
X86634353Y-117100092D01*
X86594288Y-117102958D01*
X86534036Y-117104971D01*
X86515520Y-117105415D01*
X86360100Y-117108981D01*
X86360100Y-116612900D01*
X86518850Y-116612900D01*
X86586097Y-116613349D01*
G36*
X87065170Y-116849673D02*
X87092455Y-116922831D01*
X87116765Y-116987916D01*
X87136688Y-117041155D01*
X87150812Y-117078776D01*
X87157726Y-117097007D01*
X87158083Y-117097907D01*
X87150792Y-117105747D01*
X87132604Y-117108200D01*
X87114205Y-117104140D01*
X87099455Y-117088409D01*
X87084268Y-117055674D01*
X87076633Y-117035175D01*
X87050375Y-116962150D01*
X86826420Y-116962150D01*
X86800347Y-117035175D01*
X86781505Y-117080254D01*
X86764346Y-117103373D01*
X86751337Y-117108200D01*
X86732464Y-117100989D01*
X86729106Y-117092325D01*
X86733609Y-117075934D01*
X86745723Y-117039761D01*
X86764049Y-116987772D01*
X86787188Y-116923934D01*
X86793573Y-116906684D01*
X86846783Y-116906684D01*
X86854731Y-116913349D01*
X86877308Y-116916621D01*
X86919133Y-116917654D01*
X86937950Y-116917700D01*
X86987144Y-116917153D01*
X87015569Y-116914744D01*
X87027845Y-116909322D01*
X87028592Y-116899734D01*
X87027102Y-116895475D01*
X87018886Y-116873825D01*
X87004595Y-116835297D01*
X86986817Y-116786887D01*
X86979849Y-116767802D01*
X86962383Y-116721517D01*
X86948057Y-116686572D01*
X86939024Y-116668089D01*
X86937235Y-116666530D01*
X86931207Y-116679536D01*
X86918739Y-116710609D01*
X86902129Y-116753964D01*
X86895386Y-116771978D01*
X86876966Y-116821310D01*
X86861133Y-116863387D01*
X86850593Y-116891022D01*
X86848847Y-116895475D01*
X86846783Y-116906684D01*
X86793573Y-116906684D01*
X86813739Y-116852212D01*
X86815371Y-116847850D01*
X86845106Y-116768780D01*
X86867733Y-116710347D01*
X86884945Y-116669360D01*
X86898436Y-116642630D01*
X86909898Y-116626966D01*
X86921024Y-116619179D01*
X86933510Y-116616078D01*
X86938711Y-116615490D01*
X86976491Y-116611731D01*
X87065170Y-116849673D01*
X87065170Y-116849673D01*
G37*
X87065170Y-116849673D02*
X87092455Y-116922831D01*
X87116765Y-116987916D01*
X87136688Y-117041155D01*
X87150812Y-117078776D01*
X87157726Y-117097007D01*
X87158083Y-117097907D01*
X87150792Y-117105747D01*
X87132604Y-117108200D01*
X87114205Y-117104140D01*
X87099455Y-117088409D01*
X87084268Y-117055674D01*
X87076633Y-117035175D01*
X87050375Y-116962150D01*
X86826420Y-116962150D01*
X86800347Y-117035175D01*
X86781505Y-117080254D01*
X86764346Y-117103373D01*
X86751337Y-117108200D01*
X86732464Y-117100989D01*
X86729106Y-117092325D01*
X86733609Y-117075934D01*
X86745723Y-117039761D01*
X86764049Y-116987772D01*
X86787188Y-116923934D01*
X86793573Y-116906684D01*
X86846783Y-116906684D01*
X86854731Y-116913349D01*
X86877308Y-116916621D01*
X86919133Y-116917654D01*
X86937950Y-116917700D01*
X86987144Y-116917153D01*
X87015569Y-116914744D01*
X87027845Y-116909322D01*
X87028592Y-116899734D01*
X87027102Y-116895475D01*
X87018886Y-116873825D01*
X87004595Y-116835297D01*
X86986817Y-116786887D01*
X86979849Y-116767802D01*
X86962383Y-116721517D01*
X86948057Y-116686572D01*
X86939024Y-116668089D01*
X86937235Y-116666530D01*
X86931207Y-116679536D01*
X86918739Y-116710609D01*
X86902129Y-116753964D01*
X86895386Y-116771978D01*
X86876966Y-116821310D01*
X86861133Y-116863387D01*
X86850593Y-116891022D01*
X86848847Y-116895475D01*
X86846783Y-116906684D01*
X86793573Y-116906684D01*
X86813739Y-116852212D01*
X86815371Y-116847850D01*
X86845106Y-116768780D01*
X86867733Y-116710347D01*
X86884945Y-116669360D01*
X86898436Y-116642630D01*
X86909898Y-116626966D01*
X86921024Y-116619179D01*
X86933510Y-116616078D01*
X86938711Y-116615490D01*
X86976491Y-116611731D01*
X87065170Y-116849673D01*
G36*
X87287580Y-116614697D02*
X87301509Y-116622594D01*
X87316374Y-116640346D01*
X87334983Y-116671711D01*
X87360139Y-116720444D01*
X87376100Y-116752600D01*
X87403055Y-116806100D01*
X87426301Y-116850133D01*
X87443447Y-116880313D01*
X87452102Y-116892258D01*
X87452300Y-116892300D01*
X87460369Y-116881589D01*
X87477073Y-116852380D01*
X87500020Y-116809055D01*
X87526820Y-116755999D01*
X87528500Y-116752600D01*
X87557995Y-116693743D01*
X87579536Y-116654138D01*
X87595928Y-116630029D01*
X87609976Y-116617659D01*
X87624485Y-116613273D01*
X87632814Y-116612900D01*
X87668200Y-116612900D01*
X87668200Y-116860550D01*
X87668090Y-116945614D01*
X87667539Y-117008592D01*
X87666210Y-117052795D01*
X87663767Y-117081535D01*
X87659875Y-117098127D01*
X87654198Y-117105881D01*
X87646400Y-117108111D01*
X87643099Y-117108200D01*
X87633976Y-117106937D01*
X87627288Y-117100801D01*
X87622576Y-117086272D01*
X87619379Y-117059828D01*
X87617237Y-117017948D01*
X87615688Y-116957112D01*
X87614524Y-116889732D01*
X87611050Y-116671264D01*
X87538506Y-116819882D01*
X87510495Y-116875321D01*
X87485423Y-116921367D01*
X87465757Y-116953735D01*
X87453964Y-116968144D01*
X87452884Y-116968500D01*
X87442602Y-116957788D01*
X87423703Y-116928472D01*
X87398702Y-116884779D01*
X87370112Y-116830935D01*
X87364161Y-116819275D01*
X87288517Y-116670050D01*
X87287858Y-116889125D01*
X87287488Y-116968450D01*
X87286649Y-117025897D01*
X87284922Y-117064986D01*
X87281887Y-117089239D01*
X87277127Y-117102177D01*
X87270222Y-117107322D01*
X87261800Y-117108200D01*
X87253076Y-117107181D01*
X87246619Y-117101916D01*
X87242086Y-117089091D01*
X87239139Y-117065390D01*
X87237437Y-117027500D01*
X87236641Y-116972106D01*
X87236410Y-116895895D01*
X87236400Y-116860550D01*
X87236400Y-116612900D01*
X87271785Y-116612900D01*
X87287580Y-116614697D01*
X87287580Y-116614697D01*
G37*
X87287580Y-116614697D02*
X87301509Y-116622594D01*
X87316374Y-116640346D01*
X87334983Y-116671711D01*
X87360139Y-116720444D01*
X87376100Y-116752600D01*
X87403055Y-116806100D01*
X87426301Y-116850133D01*
X87443447Y-116880313D01*
X87452102Y-116892258D01*
X87452300Y-116892300D01*
X87460369Y-116881589D01*
X87477073Y-116852380D01*
X87500020Y-116809055D01*
X87526820Y-116755999D01*
X87528500Y-116752600D01*
X87557995Y-116693743D01*
X87579536Y-116654138D01*
X87595928Y-116630029D01*
X87609976Y-116617659D01*
X87624485Y-116613273D01*
X87632814Y-116612900D01*
X87668200Y-116612900D01*
X87668200Y-116860550D01*
X87668090Y-116945614D01*
X87667539Y-117008592D01*
X87666210Y-117052795D01*
X87663767Y-117081535D01*
X87659875Y-117098127D01*
X87654198Y-117105881D01*
X87646400Y-117108111D01*
X87643099Y-117108200D01*
X87633976Y-117106937D01*
X87627288Y-117100801D01*
X87622576Y-117086272D01*
X87619379Y-117059828D01*
X87617237Y-117017948D01*
X87615688Y-116957112D01*
X87614524Y-116889732D01*
X87611050Y-116671264D01*
X87538506Y-116819882D01*
X87510495Y-116875321D01*
X87485423Y-116921367D01*
X87465757Y-116953735D01*
X87453964Y-116968144D01*
X87452884Y-116968500D01*
X87442602Y-116957788D01*
X87423703Y-116928472D01*
X87398702Y-116884779D01*
X87370112Y-116830935D01*
X87364161Y-116819275D01*
X87288517Y-116670050D01*
X87287858Y-116889125D01*
X87287488Y-116968450D01*
X87286649Y-117025897D01*
X87284922Y-117064986D01*
X87281887Y-117089239D01*
X87277127Y-117102177D01*
X87270222Y-117107322D01*
X87261800Y-117108200D01*
X87253076Y-117107181D01*
X87246619Y-117101916D01*
X87242086Y-117089091D01*
X87239139Y-117065390D01*
X87237437Y-117027500D01*
X87236641Y-116972106D01*
X87236410Y-116895895D01*
X87236400Y-116860550D01*
X87236400Y-116612900D01*
X87271785Y-116612900D01*
X87287580Y-116614697D01*
G36*
X78194000Y-115177800D02*
X77432000Y-115177800D01*
X77432000Y-117095500D01*
X77165300Y-117095500D01*
X77165300Y-115177800D01*
X76409650Y-115177800D01*
X76409650Y-114961900D01*
X78194000Y-114961900D01*
X78194000Y-115177800D01*
X78194000Y-115177800D01*
G37*
X78194000Y-115177800D02*
X77432000Y-115177800D01*
X77432000Y-117095500D01*
X77165300Y-117095500D01*
X77165300Y-115177800D01*
X76409650Y-115177800D01*
X76409650Y-114961900D01*
X78194000Y-114961900D01*
X78194000Y-115177800D01*
G36*
X79883100Y-115177800D02*
X78752800Y-115177800D01*
X78752800Y-115812800D01*
X79857700Y-115812800D01*
X79857700Y-116041400D01*
X78752800Y-116041400D01*
X78752800Y-116866900D01*
X79883100Y-116866900D01*
X79883100Y-117095500D01*
X78498800Y-117095500D01*
X78498800Y-114961900D01*
X79883100Y-114961900D01*
X79883100Y-115177800D01*
X79883100Y-115177800D01*
G37*
X79883100Y-115177800D02*
X78752800Y-115177800D01*
X78752800Y-115812800D01*
X79857700Y-115812800D01*
X79857700Y-116041400D01*
X78752800Y-116041400D01*
X78752800Y-116866900D01*
X79883100Y-116866900D01*
X79883100Y-117095500D01*
X78498800Y-117095500D01*
X78498800Y-114961900D01*
X79883100Y-114961900D01*
X79883100Y-115177800D01*
G36*
X83321670Y-114502717D02*
X83324890Y-116231900D01*
X83997900Y-116231900D01*
X83997900Y-115063500D01*
X85166300Y-115063500D01*
X85166300Y-116953764D01*
X85080575Y-116972983D01*
X84949054Y-116997051D01*
X84804127Y-117014274D01*
X84655323Y-117024001D01*
X84512171Y-117025581D01*
X84397950Y-117019669D01*
X84152608Y-116985531D01*
X83917144Y-116928070D01*
X83692073Y-116847533D01*
X83477907Y-116744165D01*
X83275160Y-116618210D01*
X83084345Y-116469915D01*
X82918400Y-116312535D01*
X82787635Y-116166110D01*
X82675647Y-116016863D01*
X82576425Y-115856422D01*
X82532458Y-115774700D01*
X82432015Y-115553198D01*
X82355996Y-115326519D01*
X82304311Y-115096135D01*
X82276870Y-114863518D01*
X82273582Y-114630141D01*
X82294358Y-114397477D01*
X82339108Y-114166998D01*
X82407742Y-113940177D01*
X82500169Y-113718486D01*
X82616299Y-113503399D01*
X82677168Y-113407808D01*
X82747617Y-113311718D01*
X82834067Y-113208512D01*
X82930777Y-113104205D01*
X83032007Y-113004812D01*
X83132014Y-112916348D01*
X83190768Y-112869716D01*
X83318450Y-112773535D01*
X83321670Y-114502717D01*
X83321670Y-114502717D01*
G37*
X83321670Y-114502717D02*
X83324890Y-116231900D01*
X83997900Y-116231900D01*
X83997900Y-115063500D01*
X85166300Y-115063500D01*
X85166300Y-116953764D01*
X85080575Y-116972983D01*
X84949054Y-116997051D01*
X84804127Y-117014274D01*
X84655323Y-117024001D01*
X84512171Y-117025581D01*
X84397950Y-117019669D01*
X84152608Y-116985531D01*
X83917144Y-116928070D01*
X83692073Y-116847533D01*
X83477907Y-116744165D01*
X83275160Y-116618210D01*
X83084345Y-116469915D01*
X82918400Y-116312535D01*
X82787635Y-116166110D01*
X82675647Y-116016863D01*
X82576425Y-115856422D01*
X82532458Y-115774700D01*
X82432015Y-115553198D01*
X82355996Y-115326519D01*
X82304311Y-115096135D01*
X82276870Y-114863518D01*
X82273582Y-114630141D01*
X82294358Y-114397477D01*
X82339108Y-114166998D01*
X82407742Y-113940177D01*
X82500169Y-113718486D01*
X82616299Y-113503399D01*
X82677168Y-113407808D01*
X82747617Y-113311718D01*
X82834067Y-113208512D01*
X82930777Y-113104205D01*
X83032007Y-113004812D01*
X83132014Y-112916348D01*
X83190768Y-112869716D01*
X83318450Y-112773535D01*
X83321670Y-114502717D01*
G36*
X77813000Y-112625100D02*
X77243616Y-112625100D01*
X77125870Y-112625213D01*
X77016115Y-112625539D01*
X76916920Y-112626054D01*
X76830859Y-112626734D01*
X76760500Y-112627554D01*
X76708415Y-112628493D01*
X76677175Y-112629526D01*
X76668941Y-112630372D01*
X76667633Y-112643990D01*
X76666725Y-112679537D01*
X76666234Y-112733547D01*
X76666180Y-112802551D01*
X76666580Y-112883083D01*
X76667251Y-112954605D01*
X76670853Y-113273566D01*
X77229231Y-113270008D01*
X77787610Y-113266450D01*
X77787605Y-113377442D01*
X77787600Y-113488435D01*
X77228435Y-113491742D01*
X76669270Y-113495050D01*
X76669270Y-114333250D01*
X77813000Y-114339858D01*
X77813000Y-114568200D01*
X76403300Y-114568200D01*
X76403300Y-112396500D01*
X77813000Y-112396500D01*
X77813000Y-112625100D01*
X77813000Y-112625100D01*
G37*
X77813000Y-112625100D02*
X77243616Y-112625100D01*
X77125870Y-112625213D01*
X77016115Y-112625539D01*
X76916920Y-112626054D01*
X76830859Y-112626734D01*
X76760500Y-112627554D01*
X76708415Y-112628493D01*
X76677175Y-112629526D01*
X76668941Y-112630372D01*
X76667633Y-112643990D01*
X76666725Y-112679537D01*
X76666234Y-112733547D01*
X76666180Y-112802551D01*
X76666580Y-112883083D01*
X76667251Y-112954605D01*
X76670853Y-113273566D01*
X77229231Y-113270008D01*
X77787610Y-113266450D01*
X77787605Y-113377442D01*
X77787600Y-113488435D01*
X77228435Y-113491742D01*
X76669270Y-113495050D01*
X76669270Y-114333250D01*
X77813000Y-114339858D01*
X77813000Y-114568200D01*
X76403300Y-114568200D01*
X76403300Y-112396500D01*
X77813000Y-112396500D01*
X77813000Y-112625100D01*
G36*
X79254734Y-112401471D02*
X79377509Y-112417221D01*
X79498082Y-112445727D01*
X79624268Y-112488693D01*
X79714825Y-112525974D01*
X79832300Y-112577065D01*
X79832300Y-112728082D01*
X79831768Y-112786629D01*
X79830321Y-112834600D01*
X79828178Y-112867067D01*
X79825560Y-112879099D01*
X79825542Y-112879100D01*
X79812896Y-112872270D01*
X79784414Y-112853907D01*
X79744957Y-112827203D01*
X79718559Y-112808870D01*
X79584033Y-112725116D01*
X79451536Y-112664749D01*
X79317176Y-112626456D01*
X79177057Y-112608924D01*
X79121100Y-112607432D01*
X78981595Y-112617721D01*
X78856091Y-112649169D01*
X78744315Y-112701924D01*
X78645994Y-112776136D01*
X78560853Y-112871954D01*
X78518143Y-112936250D01*
X78465482Y-113044713D01*
X78425716Y-113170230D01*
X78399800Y-113307437D01*
X78388689Y-113450969D01*
X78393338Y-113595463D01*
X78396052Y-113622314D01*
X78422242Y-113778384D01*
X78463827Y-113914974D01*
X78521437Y-114033272D01*
X78595703Y-114134463D01*
X78687254Y-114219737D01*
X78729045Y-114249781D01*
X78805738Y-114294957D01*
X78882411Y-114326218D01*
X78965860Y-114345365D01*
X79062881Y-114354197D01*
X79127450Y-114355304D01*
X79268379Y-114347557D01*
X79394548Y-114323755D01*
X79512050Y-114281825D01*
X79626976Y-114219698D01*
X79722513Y-114153034D01*
X79768155Y-114118441D01*
X79799018Y-114098157D01*
X79817984Y-114094230D01*
X79827936Y-114108712D01*
X79831758Y-114143653D01*
X79832333Y-114201103D01*
X79832300Y-114231117D01*
X79832300Y-114379352D01*
X79738171Y-114422842D01*
X79647069Y-114461601D01*
X79549801Y-114497274D01*
X79454581Y-114527161D01*
X79369626Y-114548561D01*
X79337000Y-114554692D01*
X79269470Y-114562086D01*
X79186746Y-114565899D01*
X79097194Y-114566232D01*
X79009181Y-114563186D01*
X78931074Y-114556860D01*
X78879800Y-114549200D01*
X78729633Y-114507117D01*
X78594355Y-114444621D01*
X78474586Y-114362314D01*
X78370946Y-114260797D01*
X78284056Y-114140672D01*
X78214537Y-114002540D01*
X78165631Y-113857000D01*
X78155598Y-113816763D01*
X78148177Y-113778807D01*
X78142985Y-113738244D01*
X78139640Y-113690184D01*
X78137761Y-113629741D01*
X78136966Y-113552025D01*
X78136850Y-113488700D01*
X78138082Y-113371716D01*
X78142467Y-113274754D01*
X78151033Y-113192523D01*
X78164809Y-113119733D01*
X78184824Y-113051093D01*
X78212107Y-112981314D01*
X78247688Y-112905105D01*
X78252114Y-112896181D01*
X78330284Y-112765625D01*
X78424888Y-112654266D01*
X78535362Y-112562429D01*
X78661142Y-112490437D01*
X78801665Y-112438614D01*
X78956364Y-112407284D01*
X79121942Y-112396774D01*
X79254734Y-112401471D01*
X79254734Y-112401471D01*
G37*
X79254734Y-112401471D02*
X79377509Y-112417221D01*
X79498082Y-112445727D01*
X79624268Y-112488693D01*
X79714825Y-112525974D01*
X79832300Y-112577065D01*
X79832300Y-112728082D01*
X79831768Y-112786629D01*
X79830321Y-112834600D01*
X79828178Y-112867067D01*
X79825560Y-112879099D01*
X79825542Y-112879100D01*
X79812896Y-112872270D01*
X79784414Y-112853907D01*
X79744957Y-112827203D01*
X79718559Y-112808870D01*
X79584033Y-112725116D01*
X79451536Y-112664749D01*
X79317176Y-112626456D01*
X79177057Y-112608924D01*
X79121100Y-112607432D01*
X78981595Y-112617721D01*
X78856091Y-112649169D01*
X78744315Y-112701924D01*
X78645994Y-112776136D01*
X78560853Y-112871954D01*
X78518143Y-112936250D01*
X78465482Y-113044713D01*
X78425716Y-113170230D01*
X78399800Y-113307437D01*
X78388689Y-113450969D01*
X78393338Y-113595463D01*
X78396052Y-113622314D01*
X78422242Y-113778384D01*
X78463827Y-113914974D01*
X78521437Y-114033272D01*
X78595703Y-114134463D01*
X78687254Y-114219737D01*
X78729045Y-114249781D01*
X78805738Y-114294957D01*
X78882411Y-114326218D01*
X78965860Y-114345365D01*
X79062881Y-114354197D01*
X79127450Y-114355304D01*
X79268379Y-114347557D01*
X79394548Y-114323755D01*
X79512050Y-114281825D01*
X79626976Y-114219698D01*
X79722513Y-114153034D01*
X79768155Y-114118441D01*
X79799018Y-114098157D01*
X79817984Y-114094230D01*
X79827936Y-114108712D01*
X79831758Y-114143653D01*
X79832333Y-114201103D01*
X79832300Y-114231117D01*
X79832300Y-114379352D01*
X79738171Y-114422842D01*
X79647069Y-114461601D01*
X79549801Y-114497274D01*
X79454581Y-114527161D01*
X79369626Y-114548561D01*
X79337000Y-114554692D01*
X79269470Y-114562086D01*
X79186746Y-114565899D01*
X79097194Y-114566232D01*
X79009181Y-114563186D01*
X78931074Y-114556860D01*
X78879800Y-114549200D01*
X78729633Y-114507117D01*
X78594355Y-114444621D01*
X78474586Y-114362314D01*
X78370946Y-114260797D01*
X78284056Y-114140672D01*
X78214537Y-114002540D01*
X78165631Y-113857000D01*
X78155598Y-113816763D01*
X78148177Y-113778807D01*
X78142985Y-113738244D01*
X78139640Y-113690184D01*
X78137761Y-113629741D01*
X78136966Y-113552025D01*
X78136850Y-113488700D01*
X78138082Y-113371716D01*
X78142467Y-113274754D01*
X78151033Y-113192523D01*
X78164809Y-113119733D01*
X78184824Y-113051093D01*
X78212107Y-112981314D01*
X78247688Y-112905105D01*
X78252114Y-112896181D01*
X78330284Y-112765625D01*
X78424888Y-112654266D01*
X78535362Y-112562429D01*
X78661142Y-112490437D01*
X78801665Y-112438614D01*
X78956364Y-112407284D01*
X79121942Y-112396774D01*
X79254734Y-112401471D01*
G36*
X81159952Y-112407258D02*
X81195381Y-112408268D01*
X81245647Y-112408950D01*
X81305327Y-112409200D01*
X81457554Y-112409200D01*
X81499002Y-112544649D01*
X81540450Y-112680099D01*
X81610197Y-112710948D01*
X81679944Y-112741796D01*
X81816635Y-112674353D01*
X81953326Y-112606909D01*
X82036770Y-112689029D01*
X82077286Y-112729992D01*
X82113494Y-112768536D01*
X82139494Y-112798310D01*
X82145504Y-112806049D01*
X82170793Y-112840949D01*
X82104849Y-112967049D01*
X82038904Y-113093149D01*
X82068108Y-113163610D01*
X82097313Y-113234070D01*
X82234806Y-113279885D01*
X82372300Y-113325700D01*
X82372300Y-113648995D01*
X82098626Y-113731927D01*
X82070814Y-113808293D01*
X82043001Y-113884658D01*
X82107160Y-114012509D01*
X82171318Y-114140359D01*
X81946850Y-114364275D01*
X81818583Y-114298698D01*
X81690316Y-114233122D01*
X81615421Y-114265466D01*
X81540526Y-114297811D01*
X81494372Y-114429830D01*
X81448217Y-114561850D01*
X81132637Y-114568922D01*
X81088893Y-114433048D01*
X81045150Y-114297174D01*
X80970746Y-114265377D01*
X80896343Y-114233580D01*
X80766267Y-114298271D01*
X80636192Y-114362962D01*
X80525293Y-114251547D01*
X80414395Y-114140132D01*
X80544361Y-113881144D01*
X80515355Y-113805861D01*
X80486350Y-113730578D01*
X80219650Y-113646738D01*
X80216104Y-113486342D01*
X80216036Y-113483265D01*
X80852721Y-113483265D01*
X80860056Y-113575471D01*
X80884353Y-113658785D01*
X80887820Y-113666500D01*
X80932110Y-113745607D01*
X80984936Y-113807461D01*
X81038654Y-113850549D01*
X81132357Y-113900877D01*
X81231657Y-113927113D01*
X81333540Y-113929030D01*
X81434990Y-113906402D01*
X81487900Y-113884208D01*
X81575932Y-113828059D01*
X81646231Y-113754406D01*
X81697483Y-113668024D01*
X81715206Y-113625516D01*
X81725448Y-113585551D01*
X81730063Y-113538177D01*
X81730950Y-113488432D01*
X81729837Y-113431053D01*
X81725013Y-113388717D01*
X81714243Y-113351112D01*
X81695297Y-113307924D01*
X81689141Y-113295291D01*
X81635246Y-113209574D01*
X81565253Y-113141125D01*
X81475726Y-113086621D01*
X81470600Y-113084167D01*
X81428773Y-113066627D01*
X81389066Y-113056499D01*
X81341622Y-113051952D01*
X81292800Y-113051099D01*
X81232278Y-113052581D01*
X81186969Y-113058281D01*
X81146789Y-113070080D01*
X81112504Y-113084736D01*
X81030487Y-113135389D01*
X80957652Y-113204299D01*
X80901054Y-113284408D01*
X80888836Y-113308404D01*
X80862323Y-113391224D01*
X80852721Y-113483265D01*
X80216036Y-113483265D01*
X80212558Y-113325947D01*
X80351416Y-113279677D01*
X80490274Y-113233408D01*
X80547726Y-113091854D01*
X80483132Y-112961973D01*
X80418537Y-112832092D01*
X80531952Y-112719202D01*
X80645367Y-112606313D01*
X80775408Y-112674435D01*
X80905450Y-112742557D01*
X80974399Y-112711904D01*
X81043349Y-112681250D01*
X81089766Y-112542050D01*
X81108680Y-112487634D01*
X81125404Y-112443752D01*
X81138069Y-112415036D01*
X81144641Y-112406025D01*
X81159952Y-112407258D01*
X81159952Y-112407258D01*
G37*
X81159952Y-112407258D02*
X81195381Y-112408268D01*
X81245647Y-112408950D01*
X81305327Y-112409200D01*
X81457554Y-112409200D01*
X81499002Y-112544649D01*
X81540450Y-112680099D01*
X81610197Y-112710948D01*
X81679944Y-112741796D01*
X81816635Y-112674353D01*
X81953326Y-112606909D01*
X82036770Y-112689029D01*
X82077286Y-112729992D01*
X82113494Y-112768536D01*
X82139494Y-112798310D01*
X82145504Y-112806049D01*
X82170793Y-112840949D01*
X82104849Y-112967049D01*
X82038904Y-113093149D01*
X82068108Y-113163610D01*
X82097313Y-113234070D01*
X82234806Y-113279885D01*
X82372300Y-113325700D01*
X82372300Y-113648995D01*
X82098626Y-113731927D01*
X82070814Y-113808293D01*
X82043001Y-113884658D01*
X82107160Y-114012509D01*
X82171318Y-114140359D01*
X81946850Y-114364275D01*
X81818583Y-114298698D01*
X81690316Y-114233122D01*
X81615421Y-114265466D01*
X81540526Y-114297811D01*
X81494372Y-114429830D01*
X81448217Y-114561850D01*
X81132637Y-114568922D01*
X81088893Y-114433048D01*
X81045150Y-114297174D01*
X80970746Y-114265377D01*
X80896343Y-114233580D01*
X80766267Y-114298271D01*
X80636192Y-114362962D01*
X80525293Y-114251547D01*
X80414395Y-114140132D01*
X80544361Y-113881144D01*
X80515355Y-113805861D01*
X80486350Y-113730578D01*
X80219650Y-113646738D01*
X80216104Y-113486342D01*
X80216036Y-113483265D01*
X80852721Y-113483265D01*
X80860056Y-113575471D01*
X80884353Y-113658785D01*
X80887820Y-113666500D01*
X80932110Y-113745607D01*
X80984936Y-113807461D01*
X81038654Y-113850549D01*
X81132357Y-113900877D01*
X81231657Y-113927113D01*
X81333540Y-113929030D01*
X81434990Y-113906402D01*
X81487900Y-113884208D01*
X81575932Y-113828059D01*
X81646231Y-113754406D01*
X81697483Y-113668024D01*
X81715206Y-113625516D01*
X81725448Y-113585551D01*
X81730063Y-113538177D01*
X81730950Y-113488432D01*
X81729837Y-113431053D01*
X81725013Y-113388717D01*
X81714243Y-113351112D01*
X81695297Y-113307924D01*
X81689141Y-113295291D01*
X81635246Y-113209574D01*
X81565253Y-113141125D01*
X81475726Y-113086621D01*
X81470600Y-113084167D01*
X81428773Y-113066627D01*
X81389066Y-113056499D01*
X81341622Y-113051952D01*
X81292800Y-113051099D01*
X81232278Y-113052581D01*
X81186969Y-113058281D01*
X81146789Y-113070080D01*
X81112504Y-113084736D01*
X81030487Y-113135389D01*
X80957652Y-113204299D01*
X80901054Y-113284408D01*
X80888836Y-113308404D01*
X80862323Y-113391224D01*
X80852721Y-113483265D01*
X80216036Y-113483265D01*
X80212558Y-113325947D01*
X80351416Y-113279677D01*
X80490274Y-113233408D01*
X80547726Y-113091854D01*
X80483132Y-112961973D01*
X80418537Y-112832092D01*
X80531952Y-112719202D01*
X80645367Y-112606313D01*
X80775408Y-112674435D01*
X80905450Y-112742557D01*
X80974399Y-112711904D01*
X81043349Y-112681250D01*
X81089766Y-112542050D01*
X81108680Y-112487634D01*
X81125404Y-112443752D01*
X81138069Y-112415036D01*
X81144641Y-112406025D01*
X81159952Y-112407258D01*
D13*
G04 #@! TO.C,U2*
X127600000Y-120100000D02*
X106600000Y-120100000D01*
X127600000Y-163700000D02*
X127600000Y-120100000D01*
X106600000Y-163700000D02*
X127600000Y-163700000D01*
X106600000Y-120100000D02*
X106600000Y-163700000D01*
G04 #@! TO.C,K1*
X106500000Y-123700000D02*
X86500000Y-123700000D01*
X106500000Y-123700000D02*
X106500000Y-143900000D01*
X86500000Y-118400000D02*
X74000000Y-118400000D01*
X86500000Y-118400000D02*
X86500000Y-123700000D01*
X74000000Y-146000000D02*
X74000000Y-118400000D01*
X74000000Y-146000000D02*
X91500000Y-146000000D01*
X91500000Y-146000000D02*
X91500000Y-143900000D01*
X91500000Y-143900000D02*
X106500000Y-143900000D01*
D14*
G04 #@! TO.C,SW3*
X89100000Y-110650000D02*
X101400000Y-110650000D01*
X101400000Y-115230000D02*
X101400000Y-118370000D01*
X101400000Y-122950000D02*
X89100000Y-122950000D01*
X89100000Y-113370000D02*
X89100000Y-110650000D01*
X99929050Y-116840000D02*
G75*
G03X99929050Y-116840000I-4579050J0D01*
G01*
X89100000Y-122950000D02*
X89100000Y-120230000D01*
X89100000Y-118370000D02*
X89100000Y-115230000D01*
X101400000Y-120230000D02*
X101400000Y-122950000D01*
X101400000Y-110650000D02*
X101400000Y-113370000D01*
D13*
G04 #@! TO.C,J3*
X127000000Y-108100000D02*
X127000000Y-90100000D01*
X115800000Y-90100000D02*
X115800000Y-108100000D01*
X115800000Y-108100000D02*
X127000000Y-108100000D01*
X127000000Y-90000000D02*
X115775000Y-90000000D01*
G04 #@! TO.C,J7*
X115000000Y-108100000D02*
X115000000Y-90100000D01*
X103800000Y-90100000D02*
X103800000Y-108100000D01*
X103800000Y-108100000D02*
X115000000Y-108100000D01*
X115000000Y-90000000D02*
X103775000Y-90000000D01*
G04 #@! TO.C,J10*
X86200000Y-90000000D02*
X94700000Y-90000000D01*
X94700000Y-90000000D02*
X94700000Y-102000000D01*
X94700000Y-102000000D02*
X86200000Y-102000000D01*
X86200000Y-102000000D02*
X86200000Y-90000000D01*
G04 #@! TO.C,J9*
X94800000Y-90000000D02*
X103300000Y-90000000D01*
X103300000Y-90000000D02*
X103300000Y-102000000D01*
X103300000Y-102000000D02*
X94800000Y-102000000D01*
X94800000Y-102000000D02*
X94800000Y-90000000D01*
G04 #@! TO.C,J8*
X69000000Y-90000000D02*
X77500000Y-90000000D01*
X77500000Y-90000000D02*
X77500000Y-102000000D01*
X77500000Y-102000000D02*
X69000000Y-102000000D01*
X69000000Y-102000000D02*
X69000000Y-90000000D01*
G04 #@! TO.C,J6*
X77600000Y-90000000D02*
X86100000Y-90000000D01*
X86100000Y-90000000D02*
X86100000Y-102000000D01*
X86100000Y-102000000D02*
X77600000Y-102000000D01*
X77600000Y-102000000D02*
X77600000Y-90000000D01*
G04 #@! TO.C,F1*
X72080000Y-120522000D02*
X72080000Y-126622000D01*
X61920000Y-120524000D02*
X72080000Y-120524000D01*
X72080000Y-126620000D02*
X61920000Y-126620000D01*
X61920000Y-120522000D02*
X61920000Y-126622000D01*
X61920000Y-111380000D02*
X72080000Y-111380000D01*
X72080000Y-117476000D02*
X61920000Y-117476000D01*
X61920000Y-111378000D02*
X61920000Y-117478000D01*
X72080000Y-111378000D02*
X72080000Y-117478000D01*
G04 #@! TO.C,C4*
X133800000Y-120200000D02*
X133800000Y-121200000D01*
X134300000Y-120700000D02*
X133300000Y-120700000D01*
G04 #@! TO.C,C3*
X105900000Y-159500000D02*
X104900000Y-159500000D01*
X105400000Y-159000000D02*
X105400000Y-160000000D01*
D14*
G04 #@! TO.C,TP1*
X74400000Y-150400000D02*
G75*
G03X74400000Y-150400000I-1500000J0D01*
G01*
G04 #@! TO.C,TP5*
X124500000Y-117000000D02*
G75*
G03X124500000Y-117000000I-1500000J0D01*
G01*
G04 #@! TO.C,TP6*
X111200000Y-117000000D02*
G75*
G03X111200000Y-117000000I-1500000J0D01*
G01*
G04 #@! TO.C,JP5*
X130000000Y-127300000D02*
X130000000Y-124500000D01*
X130000000Y-124500000D02*
X132000000Y-124500000D01*
X132000000Y-124500000D02*
X132000000Y-127300000D01*
X132000000Y-127300000D02*
X130000000Y-127300000D01*
G04 #@! TO.C,D1*
X98450000Y-144400000D02*
X98450000Y-152800000D01*
X91950000Y-144400000D02*
X91950000Y-152800000D01*
X91950000Y-144400000D02*
X98450000Y-144400000D01*
G04 #@! TO.C,L2*
X129290000Y-124513748D02*
X129290000Y-127286252D01*
X132710000Y-124513748D02*
X132710000Y-127286252D01*
G04 #@! TO.C,R5*
X93637221Y-103710000D02*
X93962779Y-103710000D01*
X93637221Y-102690000D02*
X93962779Y-102690000D01*
D13*
G04 #@! TO.C,SW2*
X69425000Y-103000000D02*
X69425000Y-109600000D01*
X85175000Y-103000000D02*
X85175000Y-109600000D01*
X85175000Y-103000000D02*
X69425000Y-103000000D01*
X85175000Y-109600000D02*
X69425000Y-109600000D01*
G04 #@! TO.C,SW1*
X124075000Y-114900000D02*
X124075000Y-108300000D01*
X108325000Y-114900000D02*
X108325000Y-108300000D01*
X108325000Y-114900000D02*
X124075000Y-114900000D01*
X108325000Y-108300000D02*
X124075000Y-108300000D01*
D14*
G04 #@! TO.C,Q1*
X76310000Y-152275000D02*
X76310000Y-151175000D01*
X74500000Y-152275000D02*
X76310000Y-152275000D01*
X74500000Y-153775000D02*
X74500000Y-152275000D01*
X83090000Y-152275000D02*
X83090000Y-147150000D01*
X84900000Y-152275000D02*
X83090000Y-152275000D01*
X84900000Y-153775000D02*
X84900000Y-152275000D01*
D13*
G04 #@! TO.C,U3*
X132600000Y-152560000D02*
X132600000Y-132240000D01*
X130060000Y-129700000D02*
X109740000Y-129700000D01*
X107200000Y-132240000D02*
X107200000Y-152560000D01*
X109740000Y-155100000D02*
X130060000Y-155100000D01*
X132600000Y-132240000D02*
G75*
G03X130060000Y-129700000I-2540000J0D01*
G01*
X130060000Y-155100000D02*
G75*
G03X132600000Y-152560000I0J2540000D01*
G01*
X107200000Y-152560000D02*
G75*
G03X109740000Y-155100000I2540000J0D01*
G01*
X107200000Y-132240000D02*
G75*
G02X109740000Y-129700000I2540000J0D01*
G01*
D14*
G04 #@! TO.C,C1*
X88689482Y-151485655D02*
X88689482Y-151160097D01*
X87669482Y-151485655D02*
X87669482Y-151160097D01*
G04 #@! TO.C,C2*
X90810000Y-156758578D02*
X90810000Y-156241422D01*
X89390000Y-156758578D02*
X89390000Y-156241422D01*
G04 #@! TO.C,D6*
X100650000Y-102300000D02*
X96350000Y-102300000D01*
X100650000Y-104300000D02*
X100650000Y-102300000D01*
X96350000Y-104300000D02*
X100650000Y-104300000D01*
G04 #@! TO.C,D3*
X88900000Y-159100000D02*
X88900000Y-154800000D01*
X86900000Y-159100000D02*
X88900000Y-159100000D01*
X86900000Y-154800000D02*
X86900000Y-159100000D01*
G04 #@! TO.C,D7*
X91950000Y-102300000D02*
X87650000Y-102300000D01*
X91950000Y-104300000D02*
X91950000Y-102300000D01*
X87650000Y-104300000D02*
X91950000Y-104300000D01*
G04 #@! TO.C,D5*
X61750000Y-108800000D02*
X61750000Y-100400000D01*
X68250000Y-108800000D02*
X68250000Y-100400000D01*
X68250000Y-108800000D02*
X61750000Y-108800000D01*
G04 #@! TO.C,D2*
X127750000Y-107800000D02*
X127750000Y-99400000D01*
X134250000Y-107800000D02*
X134250000Y-99400000D01*
X134250000Y-107800000D02*
X127750000Y-107800000D01*
G04 #@! TO.C,L1*
X88388748Y-162910000D02*
X91161252Y-162910000D01*
X88388748Y-159490000D02*
X91161252Y-159490000D01*
G04 #@! TO.C,JP1*
X106100000Y-110600000D02*
X106100000Y-113400000D01*
X106100000Y-113400000D02*
X104100000Y-113400000D01*
X104100000Y-113400000D02*
X104100000Y-110600000D01*
X104100000Y-110600000D02*
X106100000Y-110600000D01*
G04 #@! TO.C,JP4*
X101400000Y-144900000D02*
X104200000Y-144900000D01*
X104200000Y-144900000D02*
X104200000Y-146900000D01*
X104200000Y-146900000D02*
X101400000Y-146900000D01*
X101400000Y-146900000D02*
X101400000Y-144900000D01*
G04 #@! TO.C,JP3*
X88400000Y-160200000D02*
X91200000Y-160200000D01*
X91200000Y-160200000D02*
X91200000Y-162200000D01*
X91200000Y-162200000D02*
X88400000Y-162200000D01*
X88400000Y-162200000D02*
X88400000Y-160200000D01*
G04 #@! TO.C,JP2*
X88900000Y-155100000D02*
X88900000Y-157900000D01*
X88900000Y-157900000D02*
X86900000Y-157900000D01*
X86900000Y-157900000D02*
X86900000Y-155100000D01*
X86900000Y-155100000D02*
X88900000Y-155100000D01*
G04 #@! TO.C,U4*
X95860000Y-104670000D02*
X94610000Y-104670000D01*
X95860000Y-109870000D02*
X95860000Y-104670000D01*
X91360000Y-109870000D02*
X95860000Y-109870000D01*
X91360000Y-104670000D02*
X91360000Y-109870000D01*
X92610000Y-104670000D02*
X91360000Y-104670000D01*
X94610000Y-104670000D02*
G75*
G02X92610000Y-104670000I-1000000J0D01*
G01*
G04 #@! TO.C,Q2*
X102480000Y-105640000D02*
X102480000Y-107100000D01*
X99320000Y-105640000D02*
X99320000Y-107800000D01*
X99320000Y-105640000D02*
X100250000Y-105640000D01*
X102480000Y-105640000D02*
X101550000Y-105640000D01*
G04 #@! TO.C,U1*
X84679482Y-150332876D02*
X87129482Y-150332876D01*
X86479482Y-147112876D02*
X84679482Y-147112876D01*
G04 #@! TO.C,R4*
X106590000Y-111837221D02*
X106590000Y-112162779D01*
X107610000Y-111837221D02*
X107610000Y-112162779D01*
G04 #@! TO.C,R3*
X88710000Y-148562779D02*
X88710000Y-148237221D01*
X87690000Y-148562779D02*
X87690000Y-148237221D01*
G04 #@! TO.C,R2*
X85416703Y-151832876D02*
X85742261Y-151832876D01*
X85416703Y-150812876D02*
X85742261Y-150812876D01*
G04 #@! TO.C,R6*
X100737221Y-109310000D02*
X101062779Y-109310000D01*
X100737221Y-108290000D02*
X101062779Y-108290000D01*
G04 #@! TO.C,R1*
X89580000Y-148120000D02*
X89580000Y-151960000D01*
X91420000Y-148120000D02*
X91420000Y-151960000D01*
G04 #@! TO.C,U2*
D15*
X127869047Y-128726190D02*
X127869047Y-129130952D01*
X127892857Y-129178571D01*
X127916666Y-129202380D01*
X127964285Y-129226190D01*
X128059523Y-129226190D01*
X128107142Y-129202380D01*
X128130952Y-129178571D01*
X128154761Y-129130952D01*
X128154761Y-128726190D01*
X128369047Y-128773809D02*
X128392857Y-128750000D01*
X128440476Y-128726190D01*
X128559523Y-128726190D01*
X128607142Y-128750000D01*
X128630952Y-128773809D01*
X128654761Y-128821428D01*
X128654761Y-128869047D01*
X128630952Y-128940476D01*
X128345238Y-129226190D01*
X128654761Y-129226190D01*
G04 #@! TO.C,K1*
X104430952Y-123226190D02*
X104430952Y-122726190D01*
X104716666Y-123226190D02*
X104502380Y-122940476D01*
X104716666Y-122726190D02*
X104430952Y-123011904D01*
X105192857Y-123226190D02*
X104907142Y-123226190D01*
X105050000Y-123226190D02*
X105050000Y-122726190D01*
X105002380Y-122797619D01*
X104954761Y-122845238D01*
X104907142Y-122869047D01*
G04 #@! TO.C,SW3*
D13*
X101666666Y-122654761D02*
X101809523Y-122702380D01*
X102047619Y-122702380D01*
X102142857Y-122654761D01*
X102190476Y-122607142D01*
X102238095Y-122511904D01*
X102238095Y-122416666D01*
X102190476Y-122321428D01*
X102142857Y-122273809D01*
X102047619Y-122226190D01*
X101857142Y-122178571D01*
X101761904Y-122130952D01*
X101714285Y-122083333D01*
X101666666Y-121988095D01*
X101666666Y-121892857D01*
X101714285Y-121797619D01*
X101761904Y-121750000D01*
X101857142Y-121702380D01*
X102095238Y-121702380D01*
X102238095Y-121750000D01*
X102571428Y-121702380D02*
X102809523Y-122702380D01*
X103000000Y-121988095D01*
X103190476Y-122702380D01*
X103428571Y-121702380D01*
X103714285Y-121702380D02*
X104333333Y-121702380D01*
X104000000Y-122083333D01*
X104142857Y-122083333D01*
X104238095Y-122130952D01*
X104285714Y-122178571D01*
X104333333Y-122273809D01*
X104333333Y-122511904D01*
X104285714Y-122607142D01*
X104238095Y-122654761D01*
X104142857Y-122702380D01*
X103857142Y-122702380D01*
X103761904Y-122654761D01*
X103714285Y-122607142D01*
G04 #@! TO.C,J3*
D15*
X126333333Y-108326190D02*
X126333333Y-108683333D01*
X126309523Y-108754761D01*
X126261904Y-108802380D01*
X126190476Y-108826190D01*
X126142857Y-108826190D01*
X126523809Y-108326190D02*
X126833333Y-108326190D01*
X126666666Y-108516666D01*
X126738095Y-108516666D01*
X126785714Y-108540476D01*
X126809523Y-108564285D01*
X126833333Y-108611904D01*
X126833333Y-108730952D01*
X126809523Y-108778571D01*
X126785714Y-108802380D01*
X126738095Y-108826190D01*
X126595238Y-108826190D01*
X126547619Y-108802380D01*
X126523809Y-108778571D01*
G04 #@! TO.C,J7*
X104133333Y-108426190D02*
X104133333Y-108783333D01*
X104109523Y-108854761D01*
X104061904Y-108902380D01*
X103990476Y-108926190D01*
X103942857Y-108926190D01*
X104323809Y-108426190D02*
X104657142Y-108426190D01*
X104442857Y-108926190D01*
G04 #@! TO.C,J10*
X85895238Y-102326190D02*
X85895238Y-102683333D01*
X85871428Y-102754761D01*
X85823809Y-102802380D01*
X85752380Y-102826190D01*
X85704761Y-102826190D01*
X86395238Y-102826190D02*
X86109523Y-102826190D01*
X86252380Y-102826190D02*
X86252380Y-102326190D01*
X86204761Y-102397619D01*
X86157142Y-102445238D01*
X86109523Y-102469047D01*
X86704761Y-102326190D02*
X86752380Y-102326190D01*
X86800000Y-102350000D01*
X86823809Y-102373809D01*
X86847619Y-102421428D01*
X86871428Y-102516666D01*
X86871428Y-102635714D01*
X86847619Y-102730952D01*
X86823809Y-102778571D01*
X86800000Y-102802380D01*
X86752380Y-102826190D01*
X86704761Y-102826190D01*
X86657142Y-102802380D01*
X86633333Y-102778571D01*
X86609523Y-102730952D01*
X86585714Y-102635714D01*
X86585714Y-102516666D01*
X86609523Y-102421428D01*
X86633333Y-102373809D01*
X86657142Y-102350000D01*
X86704761Y-102326190D01*
G04 #@! TO.C,J9*
X102633333Y-102226190D02*
X102633333Y-102583333D01*
X102609523Y-102654761D01*
X102561904Y-102702380D01*
X102490476Y-102726190D01*
X102442857Y-102726190D01*
X102895238Y-102726190D02*
X102990476Y-102726190D01*
X103038095Y-102702380D01*
X103061904Y-102678571D01*
X103109523Y-102607142D01*
X103133333Y-102511904D01*
X103133333Y-102321428D01*
X103109523Y-102273809D01*
X103085714Y-102250000D01*
X103038095Y-102226190D01*
X102942857Y-102226190D01*
X102895238Y-102250000D01*
X102871428Y-102273809D01*
X102847619Y-102321428D01*
X102847619Y-102440476D01*
X102871428Y-102488095D01*
X102895238Y-102511904D01*
X102942857Y-102535714D01*
X103038095Y-102535714D01*
X103085714Y-102511904D01*
X103109523Y-102488095D01*
X103133333Y-102440476D01*
G04 #@! TO.C,J8*
X69533333Y-102226190D02*
X69533333Y-102583333D01*
X69509523Y-102654761D01*
X69461904Y-102702380D01*
X69390476Y-102726190D01*
X69342857Y-102726190D01*
X69842857Y-102440476D02*
X69795238Y-102416666D01*
X69771428Y-102392857D01*
X69747619Y-102345238D01*
X69747619Y-102321428D01*
X69771428Y-102273809D01*
X69795238Y-102250000D01*
X69842857Y-102226190D01*
X69938095Y-102226190D01*
X69985714Y-102250000D01*
X70009523Y-102273809D01*
X70033333Y-102321428D01*
X70033333Y-102345238D01*
X70009523Y-102392857D01*
X69985714Y-102416666D01*
X69938095Y-102440476D01*
X69842857Y-102440476D01*
X69795238Y-102464285D01*
X69771428Y-102488095D01*
X69747619Y-102535714D01*
X69747619Y-102630952D01*
X69771428Y-102678571D01*
X69795238Y-102702380D01*
X69842857Y-102726190D01*
X69938095Y-102726190D01*
X69985714Y-102702380D01*
X70009523Y-102678571D01*
X70033333Y-102630952D01*
X70033333Y-102535714D01*
X70009523Y-102488095D01*
X69985714Y-102464285D01*
X69938095Y-102440476D01*
G04 #@! TO.C,J6*
X78583333Y-102226190D02*
X78583333Y-102583333D01*
X78559523Y-102654761D01*
X78511904Y-102702380D01*
X78440476Y-102726190D01*
X78392857Y-102726190D01*
X79035714Y-102226190D02*
X78940476Y-102226190D01*
X78892857Y-102250000D01*
X78869047Y-102273809D01*
X78821428Y-102345238D01*
X78797619Y-102440476D01*
X78797619Y-102630952D01*
X78821428Y-102678571D01*
X78845238Y-102702380D01*
X78892857Y-102726190D01*
X78988095Y-102726190D01*
X79035714Y-102702380D01*
X79059523Y-102678571D01*
X79083333Y-102630952D01*
X79083333Y-102511904D01*
X79059523Y-102464285D01*
X79035714Y-102440476D01*
X78988095Y-102416666D01*
X78892857Y-102416666D01*
X78845238Y-102440476D01*
X78821428Y-102464285D01*
X78797619Y-102511904D01*
G04 #@! TO.C,F1*
X67341333Y-118964285D02*
X67174666Y-118964285D01*
X67174666Y-119226190D02*
X67174666Y-118726190D01*
X67412761Y-118726190D01*
X67865142Y-119226190D02*
X67579428Y-119226190D01*
X67722285Y-119226190D02*
X67722285Y-118726190D01*
X67674666Y-118797619D01*
X67627047Y-118845238D01*
X67579428Y-118869047D01*
G04 #@! TO.C,J4*
X71083333Y-142476190D02*
X71083333Y-142833333D01*
X71059523Y-142904761D01*
X71011904Y-142952380D01*
X70940476Y-142976190D01*
X70892857Y-142976190D01*
X71535714Y-142642857D02*
X71535714Y-142976190D01*
X71416666Y-142452380D02*
X71297619Y-142809523D01*
X71607142Y-142809523D01*
G04 #@! TO.C,J5*
X65533333Y-145326190D02*
X65533333Y-145683333D01*
X65509523Y-145754761D01*
X65461904Y-145802380D01*
X65390476Y-145826190D01*
X65342857Y-145826190D01*
X66009523Y-145326190D02*
X65771428Y-145326190D01*
X65747619Y-145564285D01*
X65771428Y-145540476D01*
X65819047Y-145516666D01*
X65938095Y-145516666D01*
X65985714Y-145540476D01*
X66009523Y-145564285D01*
X66033333Y-145611904D01*
X66033333Y-145730952D01*
X66009523Y-145778571D01*
X65985714Y-145802380D01*
X65938095Y-145826190D01*
X65819047Y-145826190D01*
X65771428Y-145802380D01*
X65747619Y-145778571D01*
G04 #@! TO.C,J2*
X69033333Y-128526190D02*
X69033333Y-128883333D01*
X69009523Y-128954761D01*
X68961904Y-129002380D01*
X68890476Y-129026190D01*
X68842857Y-129026190D01*
X69247619Y-128573809D02*
X69271428Y-128550000D01*
X69319047Y-128526190D01*
X69438095Y-128526190D01*
X69485714Y-128550000D01*
X69509523Y-128573809D01*
X69533333Y-128621428D01*
X69533333Y-128669047D01*
X69509523Y-128740476D01*
X69223809Y-129026190D01*
X69533333Y-129026190D01*
G04 #@! TO.C,J1*
X69033333Y-156726190D02*
X69033333Y-157083333D01*
X69009523Y-157154761D01*
X68961904Y-157202380D01*
X68890476Y-157226190D01*
X68842857Y-157226190D01*
X69533333Y-157226190D02*
X69247619Y-157226190D01*
X69390476Y-157226190D02*
X69390476Y-156726190D01*
X69342857Y-156797619D01*
X69295238Y-156845238D01*
X69247619Y-156869047D01*
G04 #@! TO.C,C4*
X131216666Y-122378571D02*
X131192857Y-122402380D01*
X131121428Y-122426190D01*
X131073809Y-122426190D01*
X131002380Y-122402380D01*
X130954761Y-122354761D01*
X130930952Y-122307142D01*
X130907142Y-122211904D01*
X130907142Y-122140476D01*
X130930952Y-122045238D01*
X130954761Y-121997619D01*
X131002380Y-121950000D01*
X131073809Y-121926190D01*
X131121428Y-121926190D01*
X131192857Y-121950000D01*
X131216666Y-121973809D01*
X131645238Y-122092857D02*
X131645238Y-122426190D01*
X131526190Y-121902380D02*
X131407142Y-122259523D01*
X131716666Y-122259523D01*
G04 #@! TO.C,C3*
X99416666Y-159928571D02*
X99392857Y-159952380D01*
X99321428Y-159976190D01*
X99273809Y-159976190D01*
X99202380Y-159952380D01*
X99154761Y-159904761D01*
X99130952Y-159857142D01*
X99107142Y-159761904D01*
X99107142Y-159690476D01*
X99130952Y-159595238D01*
X99154761Y-159547619D01*
X99202380Y-159500000D01*
X99273809Y-159476190D01*
X99321428Y-159476190D01*
X99392857Y-159500000D01*
X99416666Y-159523809D01*
X99583333Y-159476190D02*
X99892857Y-159476190D01*
X99726190Y-159666666D01*
X99797619Y-159666666D01*
X99845238Y-159690476D01*
X99869047Y-159714285D01*
X99892857Y-159761904D01*
X99892857Y-159880952D01*
X99869047Y-159928571D01*
X99845238Y-159952380D01*
X99797619Y-159976190D01*
X99654761Y-159976190D01*
X99607142Y-159952380D01*
X99583333Y-159928571D01*
G04 #@! TO.C,TP1*
X72869047Y-147976190D02*
X73154761Y-147976190D01*
X73011904Y-148476190D02*
X73011904Y-147976190D01*
X73321428Y-148476190D02*
X73321428Y-147976190D01*
X73511904Y-147976190D01*
X73559523Y-148000000D01*
X73583333Y-148023809D01*
X73607142Y-148071428D01*
X73607142Y-148142857D01*
X73583333Y-148190476D01*
X73559523Y-148214285D01*
X73511904Y-148238095D01*
X73321428Y-148238095D01*
X74083333Y-148476190D02*
X73797619Y-148476190D01*
X73940476Y-148476190D02*
X73940476Y-147976190D01*
X73892857Y-148047619D01*
X73845238Y-148095238D01*
X73797619Y-148119047D01*
G04 #@! TO.C,TP5*
X123069047Y-119226190D02*
X123354761Y-119226190D01*
X123211904Y-119726190D02*
X123211904Y-119226190D01*
X123521428Y-119726190D02*
X123521428Y-119226190D01*
X123711904Y-119226190D01*
X123759523Y-119250000D01*
X123783333Y-119273809D01*
X123807142Y-119321428D01*
X123807142Y-119392857D01*
X123783333Y-119440476D01*
X123759523Y-119464285D01*
X123711904Y-119488095D01*
X123521428Y-119488095D01*
X124259523Y-119226190D02*
X124021428Y-119226190D01*
X123997619Y-119464285D01*
X124021428Y-119440476D01*
X124069047Y-119416666D01*
X124188095Y-119416666D01*
X124235714Y-119440476D01*
X124259523Y-119464285D01*
X124283333Y-119511904D01*
X124283333Y-119630952D01*
X124259523Y-119678571D01*
X124235714Y-119702380D01*
X124188095Y-119726190D01*
X124069047Y-119726190D01*
X124021428Y-119702380D01*
X123997619Y-119678571D01*
G04 #@! TO.C,TP6*
X111369047Y-117926190D02*
X111654761Y-117926190D01*
X111511904Y-118426190D02*
X111511904Y-117926190D01*
X111821428Y-118426190D02*
X111821428Y-117926190D01*
X112011904Y-117926190D01*
X112059523Y-117950000D01*
X112083333Y-117973809D01*
X112107142Y-118021428D01*
X112107142Y-118092857D01*
X112083333Y-118140476D01*
X112059523Y-118164285D01*
X112011904Y-118188095D01*
X111821428Y-118188095D01*
X112535714Y-117926190D02*
X112440476Y-117926190D01*
X112392857Y-117950000D01*
X112369047Y-117973809D01*
X112321428Y-118045238D01*
X112297619Y-118140476D01*
X112297619Y-118330952D01*
X112321428Y-118378571D01*
X112345238Y-118402380D01*
X112392857Y-118426190D01*
X112488095Y-118426190D01*
X112535714Y-118402380D01*
X112559523Y-118378571D01*
X112583333Y-118330952D01*
X112583333Y-118211904D01*
X112559523Y-118164285D01*
X112535714Y-118140476D01*
X112488095Y-118116666D01*
X112392857Y-118116666D01*
X112345238Y-118140476D01*
X112321428Y-118164285D01*
X112297619Y-118211904D01*
G04 #@! TO.C,JP5*
X128326190Y-126316666D02*
X128683333Y-126316666D01*
X128754761Y-126340476D01*
X128802380Y-126388095D01*
X128826190Y-126459523D01*
X128826190Y-126507142D01*
X128826190Y-126078571D02*
X128326190Y-126078571D01*
X128326190Y-125888095D01*
X128350000Y-125840476D01*
X128373809Y-125816666D01*
X128421428Y-125792857D01*
X128492857Y-125792857D01*
X128540476Y-125816666D01*
X128564285Y-125840476D01*
X128588095Y-125888095D01*
X128588095Y-126078571D01*
X128326190Y-125340476D02*
X128326190Y-125578571D01*
X128564285Y-125602380D01*
X128540476Y-125578571D01*
X128516666Y-125530952D01*
X128516666Y-125411904D01*
X128540476Y-125364285D01*
X128564285Y-125340476D01*
X128611904Y-125316666D01*
X128730952Y-125316666D01*
X128778571Y-125340476D01*
X128802380Y-125364285D01*
X128826190Y-125411904D01*
X128826190Y-125530952D01*
X128802380Y-125578571D01*
X128778571Y-125602380D01*
G04 #@! TO.C,D1*
X94830952Y-154776190D02*
X94830952Y-154276190D01*
X94950000Y-154276190D01*
X95021428Y-154300000D01*
X95069047Y-154347619D01*
X95092857Y-154395238D01*
X95116666Y-154490476D01*
X95116666Y-154561904D01*
X95092857Y-154657142D01*
X95069047Y-154704761D01*
X95021428Y-154752380D01*
X94950000Y-154776190D01*
X94830952Y-154776190D01*
X95592857Y-154776190D02*
X95307142Y-154776190D01*
X95450000Y-154776190D02*
X95450000Y-154276190D01*
X95402380Y-154347619D01*
X95354761Y-154395238D01*
X95307142Y-154419047D01*
G04 #@! TO.C,L2*
X133876190Y-125983333D02*
X133876190Y-126221428D01*
X133376190Y-126221428D01*
X133423809Y-125840476D02*
X133400000Y-125816666D01*
X133376190Y-125769047D01*
X133376190Y-125650000D01*
X133400000Y-125602380D01*
X133423809Y-125578571D01*
X133471428Y-125554761D01*
X133519047Y-125554761D01*
X133590476Y-125578571D01*
X133876190Y-125864285D01*
X133876190Y-125554761D01*
G04 #@! TO.C,R5*
X93616666Y-104526190D02*
X93450000Y-104288095D01*
X93330952Y-104526190D02*
X93330952Y-104026190D01*
X93521428Y-104026190D01*
X93569047Y-104050000D01*
X93592857Y-104073809D01*
X93616666Y-104121428D01*
X93616666Y-104192857D01*
X93592857Y-104240476D01*
X93569047Y-104264285D01*
X93521428Y-104288095D01*
X93330952Y-104288095D01*
X94069047Y-104026190D02*
X93830952Y-104026190D01*
X93807142Y-104264285D01*
X93830952Y-104240476D01*
X93878571Y-104216666D01*
X93997619Y-104216666D01*
X94045238Y-104240476D01*
X94069047Y-104264285D01*
X94092857Y-104311904D01*
X94092857Y-104430952D01*
X94069047Y-104478571D01*
X94045238Y-104502380D01*
X93997619Y-104526190D01*
X93878571Y-104526190D01*
X93830952Y-104502380D01*
X93807142Y-104478571D01*
G04 #@! TO.C,SW2*
X69433333Y-110402380D02*
X69504761Y-110426190D01*
X69623809Y-110426190D01*
X69671428Y-110402380D01*
X69695238Y-110378571D01*
X69719047Y-110330952D01*
X69719047Y-110283333D01*
X69695238Y-110235714D01*
X69671428Y-110211904D01*
X69623809Y-110188095D01*
X69528571Y-110164285D01*
X69480952Y-110140476D01*
X69457142Y-110116666D01*
X69433333Y-110069047D01*
X69433333Y-110021428D01*
X69457142Y-109973809D01*
X69480952Y-109950000D01*
X69528571Y-109926190D01*
X69647619Y-109926190D01*
X69719047Y-109950000D01*
X69885714Y-109926190D02*
X70004761Y-110426190D01*
X70100000Y-110069047D01*
X70195238Y-110426190D01*
X70314285Y-109926190D01*
X70480952Y-109973809D02*
X70504761Y-109950000D01*
X70552380Y-109926190D01*
X70671428Y-109926190D01*
X70719047Y-109950000D01*
X70742857Y-109973809D01*
X70766666Y-110021428D01*
X70766666Y-110069047D01*
X70742857Y-110140476D01*
X70457142Y-110426190D01*
X70766666Y-110426190D01*
G04 #@! TO.C,SW1*
X108102380Y-115066666D02*
X108126190Y-114995238D01*
X108126190Y-114876190D01*
X108102380Y-114828571D01*
X108078571Y-114804761D01*
X108030952Y-114780952D01*
X107983333Y-114780952D01*
X107935714Y-114804761D01*
X107911904Y-114828571D01*
X107888095Y-114876190D01*
X107864285Y-114971428D01*
X107840476Y-115019047D01*
X107816666Y-115042857D01*
X107769047Y-115066666D01*
X107721428Y-115066666D01*
X107673809Y-115042857D01*
X107650000Y-115019047D01*
X107626190Y-114971428D01*
X107626190Y-114852380D01*
X107650000Y-114780952D01*
X107626190Y-114614285D02*
X108126190Y-114495238D01*
X107769047Y-114400000D01*
X108126190Y-114304761D01*
X107626190Y-114185714D01*
X108126190Y-113733333D02*
X108126190Y-114019047D01*
X108126190Y-113876190D02*
X107626190Y-113876190D01*
X107697619Y-113923809D01*
X107745238Y-113971428D01*
X107769047Y-114019047D01*
G04 #@! TO.C,Q1*
X74652380Y-164173809D02*
X74604761Y-164150000D01*
X74557142Y-164102380D01*
X74485714Y-164030952D01*
X74438095Y-164007142D01*
X74390476Y-164007142D01*
X74414285Y-164126190D02*
X74366666Y-164102380D01*
X74319047Y-164054761D01*
X74295238Y-163959523D01*
X74295238Y-163792857D01*
X74319047Y-163697619D01*
X74366666Y-163650000D01*
X74414285Y-163626190D01*
X74509523Y-163626190D01*
X74557142Y-163650000D01*
X74604761Y-163697619D01*
X74628571Y-163792857D01*
X74628571Y-163959523D01*
X74604761Y-164054761D01*
X74557142Y-164102380D01*
X74509523Y-164126190D01*
X74414285Y-164126190D01*
X75104761Y-164126190D02*
X74819047Y-164126190D01*
X74961904Y-164126190D02*
X74961904Y-163626190D01*
X74914285Y-163697619D01*
X74866666Y-163745238D01*
X74819047Y-163769047D01*
G04 #@! TO.C,U3*
X107319047Y-118926190D02*
X107319047Y-119330952D01*
X107342857Y-119378571D01*
X107366666Y-119402380D01*
X107414285Y-119426190D01*
X107509523Y-119426190D01*
X107557142Y-119402380D01*
X107580952Y-119378571D01*
X107604761Y-119330952D01*
X107604761Y-118926190D01*
X107795238Y-118926190D02*
X108104761Y-118926190D01*
X107938095Y-119116666D01*
X108009523Y-119116666D01*
X108057142Y-119140476D01*
X108080952Y-119164285D01*
X108104761Y-119211904D01*
X108104761Y-119330952D01*
X108080952Y-119378571D01*
X108057142Y-119402380D01*
X108009523Y-119426190D01*
X107866666Y-119426190D01*
X107819047Y-119402380D01*
X107795238Y-119378571D01*
G04 #@! TO.C,C1*
X88116666Y-153328571D02*
X88092857Y-153352380D01*
X88021428Y-153376190D01*
X87973809Y-153376190D01*
X87902380Y-153352380D01*
X87854761Y-153304761D01*
X87830952Y-153257142D01*
X87807142Y-153161904D01*
X87807142Y-153090476D01*
X87830952Y-152995238D01*
X87854761Y-152947619D01*
X87902380Y-152900000D01*
X87973809Y-152876190D01*
X88021428Y-152876190D01*
X88092857Y-152900000D01*
X88116666Y-152923809D01*
X88592857Y-153376190D02*
X88307142Y-153376190D01*
X88450000Y-153376190D02*
X88450000Y-152876190D01*
X88402380Y-152947619D01*
X88354761Y-152995238D01*
X88307142Y-153019047D01*
G04 #@! TO.C,C2*
X91678571Y-156583333D02*
X91702380Y-156607142D01*
X91726190Y-156678571D01*
X91726190Y-156726190D01*
X91702380Y-156797619D01*
X91654761Y-156845238D01*
X91607142Y-156869047D01*
X91511904Y-156892857D01*
X91440476Y-156892857D01*
X91345238Y-156869047D01*
X91297619Y-156845238D01*
X91250000Y-156797619D01*
X91226190Y-156726190D01*
X91226190Y-156678571D01*
X91250000Y-156607142D01*
X91273809Y-156583333D01*
X91273809Y-156392857D02*
X91250000Y-156369047D01*
X91226190Y-156321428D01*
X91226190Y-156202380D01*
X91250000Y-156154761D01*
X91273809Y-156130952D01*
X91321428Y-156107142D01*
X91369047Y-156107142D01*
X91440476Y-156130952D01*
X91726190Y-156416666D01*
X91726190Y-156107142D01*
G04 #@! TO.C,D6*
X101130952Y-103526190D02*
X101130952Y-103026190D01*
X101250000Y-103026190D01*
X101321428Y-103050000D01*
X101369047Y-103097619D01*
X101392857Y-103145238D01*
X101416666Y-103240476D01*
X101416666Y-103311904D01*
X101392857Y-103407142D01*
X101369047Y-103454761D01*
X101321428Y-103502380D01*
X101250000Y-103526190D01*
X101130952Y-103526190D01*
X101845238Y-103026190D02*
X101750000Y-103026190D01*
X101702380Y-103050000D01*
X101678571Y-103073809D01*
X101630952Y-103145238D01*
X101607142Y-103240476D01*
X101607142Y-103430952D01*
X101630952Y-103478571D01*
X101654761Y-103502380D01*
X101702380Y-103526190D01*
X101797619Y-103526190D01*
X101845238Y-103502380D01*
X101869047Y-103478571D01*
X101892857Y-103430952D01*
X101892857Y-103311904D01*
X101869047Y-103264285D01*
X101845238Y-103240476D01*
X101797619Y-103216666D01*
X101702380Y-103216666D01*
X101654761Y-103240476D01*
X101630952Y-103264285D01*
X101607142Y-103311904D01*
G04 #@! TO.C,D3*
X86376190Y-155619047D02*
X85876190Y-155619047D01*
X85876190Y-155500000D01*
X85900000Y-155428571D01*
X85947619Y-155380952D01*
X85995238Y-155357142D01*
X86090476Y-155333333D01*
X86161904Y-155333333D01*
X86257142Y-155357142D01*
X86304761Y-155380952D01*
X86352380Y-155428571D01*
X86376190Y-155500000D01*
X86376190Y-155619047D01*
X85876190Y-155166666D02*
X85876190Y-154857142D01*
X86066666Y-155023809D01*
X86066666Y-154952380D01*
X86090476Y-154904761D01*
X86114285Y-154880952D01*
X86161904Y-154857142D01*
X86280952Y-154857142D01*
X86328571Y-154880952D01*
X86352380Y-154904761D01*
X86376190Y-154952380D01*
X86376190Y-155095238D01*
X86352380Y-155142857D01*
X86328571Y-155166666D01*
G04 #@! TO.C,D7*
X87630952Y-104976190D02*
X87630952Y-104476190D01*
X87750000Y-104476190D01*
X87821428Y-104500000D01*
X87869047Y-104547619D01*
X87892857Y-104595238D01*
X87916666Y-104690476D01*
X87916666Y-104761904D01*
X87892857Y-104857142D01*
X87869047Y-104904761D01*
X87821428Y-104952380D01*
X87750000Y-104976190D01*
X87630952Y-104976190D01*
X88083333Y-104476190D02*
X88416666Y-104476190D01*
X88202380Y-104976190D01*
G04 #@! TO.C,D5*
X64730952Y-98826190D02*
X64730952Y-98326190D01*
X64850000Y-98326190D01*
X64921428Y-98350000D01*
X64969047Y-98397619D01*
X64992857Y-98445238D01*
X65016666Y-98540476D01*
X65016666Y-98611904D01*
X64992857Y-98707142D01*
X64969047Y-98754761D01*
X64921428Y-98802380D01*
X64850000Y-98826190D01*
X64730952Y-98826190D01*
X65469047Y-98326190D02*
X65230952Y-98326190D01*
X65207142Y-98564285D01*
X65230952Y-98540476D01*
X65278571Y-98516666D01*
X65397619Y-98516666D01*
X65445238Y-98540476D01*
X65469047Y-98564285D01*
X65492857Y-98611904D01*
X65492857Y-98730952D01*
X65469047Y-98778571D01*
X65445238Y-98802380D01*
X65397619Y-98826190D01*
X65278571Y-98826190D01*
X65230952Y-98802380D01*
X65207142Y-98778571D01*
G04 #@! TO.C,D2*
X130630952Y-97726190D02*
X130630952Y-97226190D01*
X130750000Y-97226190D01*
X130821428Y-97250000D01*
X130869047Y-97297619D01*
X130892857Y-97345238D01*
X130916666Y-97440476D01*
X130916666Y-97511904D01*
X130892857Y-97607142D01*
X130869047Y-97654761D01*
X130821428Y-97702380D01*
X130750000Y-97726190D01*
X130630952Y-97726190D01*
X131107142Y-97273809D02*
X131130952Y-97250000D01*
X131178571Y-97226190D01*
X131297619Y-97226190D01*
X131345238Y-97250000D01*
X131369047Y-97273809D01*
X131392857Y-97321428D01*
X131392857Y-97369047D01*
X131369047Y-97440476D01*
X131083333Y-97726190D01*
X131392857Y-97726190D01*
G04 #@! TO.C,L1*
X86376190Y-161283333D02*
X86376190Y-161521428D01*
X85876190Y-161521428D01*
X86376190Y-160854761D02*
X86376190Y-161140476D01*
X86376190Y-160997619D02*
X85876190Y-160997619D01*
X85947619Y-161045238D01*
X85995238Y-161092857D01*
X86019047Y-161140476D01*
G04 #@! TO.C,JP1*
X104683333Y-109726190D02*
X104683333Y-110083333D01*
X104659523Y-110154761D01*
X104611904Y-110202380D01*
X104540476Y-110226190D01*
X104492857Y-110226190D01*
X104921428Y-110226190D02*
X104921428Y-109726190D01*
X105111904Y-109726190D01*
X105159523Y-109750000D01*
X105183333Y-109773809D01*
X105207142Y-109821428D01*
X105207142Y-109892857D01*
X105183333Y-109940476D01*
X105159523Y-109964285D01*
X105111904Y-109988095D01*
X104921428Y-109988095D01*
X105683333Y-110226190D02*
X105397619Y-110226190D01*
X105540476Y-110226190D02*
X105540476Y-109726190D01*
X105492857Y-109797619D01*
X105445238Y-109845238D01*
X105397619Y-109869047D01*
G04 #@! TO.C,JP4*
X100426190Y-146216666D02*
X100783333Y-146216666D01*
X100854761Y-146240476D01*
X100902380Y-146288095D01*
X100926190Y-146359523D01*
X100926190Y-146407142D01*
X100926190Y-145978571D02*
X100426190Y-145978571D01*
X100426190Y-145788095D01*
X100450000Y-145740476D01*
X100473809Y-145716666D01*
X100521428Y-145692857D01*
X100592857Y-145692857D01*
X100640476Y-145716666D01*
X100664285Y-145740476D01*
X100688095Y-145788095D01*
X100688095Y-145978571D01*
X100592857Y-145264285D02*
X100926190Y-145264285D01*
X100402380Y-145383333D02*
X100759523Y-145502380D01*
X100759523Y-145192857D01*
G04 #@! TO.C,JP3*
X89483333Y-163276190D02*
X89483333Y-163633333D01*
X89459523Y-163704761D01*
X89411904Y-163752380D01*
X89340476Y-163776190D01*
X89292857Y-163776190D01*
X89721428Y-163776190D02*
X89721428Y-163276190D01*
X89911904Y-163276190D01*
X89959523Y-163300000D01*
X89983333Y-163323809D01*
X90007142Y-163371428D01*
X90007142Y-163442857D01*
X89983333Y-163490476D01*
X89959523Y-163514285D01*
X89911904Y-163538095D01*
X89721428Y-163538095D01*
X90173809Y-163276190D02*
X90483333Y-163276190D01*
X90316666Y-163466666D01*
X90388095Y-163466666D01*
X90435714Y-163490476D01*
X90459523Y-163514285D01*
X90483333Y-163561904D01*
X90483333Y-163680952D01*
X90459523Y-163728571D01*
X90435714Y-163752380D01*
X90388095Y-163776190D01*
X90245238Y-163776190D01*
X90197619Y-163752380D01*
X90173809Y-163728571D01*
G04 #@! TO.C,JP2*
X85876190Y-157266666D02*
X86233333Y-157266666D01*
X86304761Y-157290476D01*
X86352380Y-157338095D01*
X86376190Y-157409523D01*
X86376190Y-157457142D01*
X86376190Y-157028571D02*
X85876190Y-157028571D01*
X85876190Y-156838095D01*
X85900000Y-156790476D01*
X85923809Y-156766666D01*
X85971428Y-156742857D01*
X86042857Y-156742857D01*
X86090476Y-156766666D01*
X86114285Y-156790476D01*
X86138095Y-156838095D01*
X86138095Y-157028571D01*
X85923809Y-156552380D02*
X85900000Y-156528571D01*
X85876190Y-156480952D01*
X85876190Y-156361904D01*
X85900000Y-156314285D01*
X85923809Y-156290476D01*
X85971428Y-156266666D01*
X86019047Y-156266666D01*
X86090476Y-156290476D01*
X86376190Y-156576190D01*
X86376190Y-156266666D01*
G04 #@! TO.C,U4*
X87626190Y-107680952D02*
X88030952Y-107680952D01*
X88078571Y-107657142D01*
X88102380Y-107633333D01*
X88126190Y-107585714D01*
X88126190Y-107490476D01*
X88102380Y-107442857D01*
X88078571Y-107419047D01*
X88030952Y-107395238D01*
X87626190Y-107395238D01*
X87792857Y-106942857D02*
X88126190Y-106942857D01*
X87602380Y-107061904D02*
X87959523Y-107180952D01*
X87959523Y-106871428D01*
G04 #@! TO.C,Q2*
X102052380Y-105273809D02*
X102004761Y-105250000D01*
X101957142Y-105202380D01*
X101885714Y-105130952D01*
X101838095Y-105107142D01*
X101790476Y-105107142D01*
X101814285Y-105226190D02*
X101766666Y-105202380D01*
X101719047Y-105154761D01*
X101695238Y-105059523D01*
X101695238Y-104892857D01*
X101719047Y-104797619D01*
X101766666Y-104750000D01*
X101814285Y-104726190D01*
X101909523Y-104726190D01*
X101957142Y-104750000D01*
X102004761Y-104797619D01*
X102028571Y-104892857D01*
X102028571Y-105059523D01*
X102004761Y-105154761D01*
X101957142Y-105202380D01*
X101909523Y-105226190D01*
X101814285Y-105226190D01*
X102219047Y-104773809D02*
X102242857Y-104750000D01*
X102290476Y-104726190D01*
X102409523Y-104726190D01*
X102457142Y-104750000D01*
X102480952Y-104773809D01*
X102504761Y-104821428D01*
X102504761Y-104869047D01*
X102480952Y-104940476D01*
X102195238Y-105226190D01*
X102504761Y-105226190D01*
G04 #@! TO.C,U1*
X83569047Y-146326190D02*
X83569047Y-146730952D01*
X83592857Y-146778571D01*
X83616666Y-146802380D01*
X83664285Y-146826190D01*
X83759523Y-146826190D01*
X83807142Y-146802380D01*
X83830952Y-146778571D01*
X83854761Y-146730952D01*
X83854761Y-146326190D01*
X84354761Y-146826190D02*
X84069047Y-146826190D01*
X84211904Y-146826190D02*
X84211904Y-146326190D01*
X84164285Y-146397619D01*
X84116666Y-146445238D01*
X84069047Y-146469047D01*
G04 #@! TO.C,R4*
X107016666Y-110426190D02*
X106850000Y-110188095D01*
X106730952Y-110426190D02*
X106730952Y-109926190D01*
X106921428Y-109926190D01*
X106969047Y-109950000D01*
X106992857Y-109973809D01*
X107016666Y-110021428D01*
X107016666Y-110092857D01*
X106992857Y-110140476D01*
X106969047Y-110164285D01*
X106921428Y-110188095D01*
X106730952Y-110188095D01*
X107445238Y-110092857D02*
X107445238Y-110426190D01*
X107326190Y-109902380D02*
X107207142Y-110259523D01*
X107516666Y-110259523D01*
G04 #@! TO.C,R3*
X88116666Y-146826190D02*
X87950000Y-146588095D01*
X87830952Y-146826190D02*
X87830952Y-146326190D01*
X88021428Y-146326190D01*
X88069047Y-146350000D01*
X88092857Y-146373809D01*
X88116666Y-146421428D01*
X88116666Y-146492857D01*
X88092857Y-146540476D01*
X88069047Y-146564285D01*
X88021428Y-146588095D01*
X87830952Y-146588095D01*
X88283333Y-146326190D02*
X88592857Y-146326190D01*
X88426190Y-146516666D01*
X88497619Y-146516666D01*
X88545238Y-146540476D01*
X88569047Y-146564285D01*
X88592857Y-146611904D01*
X88592857Y-146730952D01*
X88569047Y-146778571D01*
X88545238Y-146802380D01*
X88497619Y-146826190D01*
X88354761Y-146826190D01*
X88307142Y-146802380D01*
X88283333Y-146778571D01*
G04 #@! TO.C,R2*
X85866666Y-152726190D02*
X85700000Y-152488095D01*
X85580952Y-152726190D02*
X85580952Y-152226190D01*
X85771428Y-152226190D01*
X85819047Y-152250000D01*
X85842857Y-152273809D01*
X85866666Y-152321428D01*
X85866666Y-152392857D01*
X85842857Y-152440476D01*
X85819047Y-152464285D01*
X85771428Y-152488095D01*
X85580952Y-152488095D01*
X86057142Y-152273809D02*
X86080952Y-152250000D01*
X86128571Y-152226190D01*
X86247619Y-152226190D01*
X86295238Y-152250000D01*
X86319047Y-152273809D01*
X86342857Y-152321428D01*
X86342857Y-152369047D01*
X86319047Y-152440476D01*
X86033333Y-152726190D01*
X86342857Y-152726190D01*
G04 #@! TO.C,R6*
X100716666Y-110326190D02*
X100550000Y-110088095D01*
X100430952Y-110326190D02*
X100430952Y-109826190D01*
X100621428Y-109826190D01*
X100669047Y-109850000D01*
X100692857Y-109873809D01*
X100716666Y-109921428D01*
X100716666Y-109992857D01*
X100692857Y-110040476D01*
X100669047Y-110064285D01*
X100621428Y-110088095D01*
X100430952Y-110088095D01*
X101145238Y-109826190D02*
X101050000Y-109826190D01*
X101002380Y-109850000D01*
X100978571Y-109873809D01*
X100930952Y-109945238D01*
X100907142Y-110040476D01*
X100907142Y-110230952D01*
X100930952Y-110278571D01*
X100954761Y-110302380D01*
X101002380Y-110326190D01*
X101097619Y-110326190D01*
X101145238Y-110302380D01*
X101169047Y-110278571D01*
X101192857Y-110230952D01*
X101192857Y-110111904D01*
X101169047Y-110064285D01*
X101145238Y-110040476D01*
X101097619Y-110016666D01*
X101002380Y-110016666D01*
X100954761Y-110040476D01*
X100930952Y-110064285D01*
X100907142Y-110111904D01*
G04 #@! TO.C,R1*
X90416666Y-154176190D02*
X90250000Y-153938095D01*
X90130952Y-154176190D02*
X90130952Y-153676190D01*
X90321428Y-153676190D01*
X90369047Y-153700000D01*
X90392857Y-153723809D01*
X90416666Y-153771428D01*
X90416666Y-153842857D01*
X90392857Y-153890476D01*
X90369047Y-153914285D01*
X90321428Y-153938095D01*
X90130952Y-153938095D01*
X90892857Y-154176190D02*
X90607142Y-154176190D01*
X90750000Y-154176190D02*
X90750000Y-153676190D01*
X90702380Y-153747619D01*
X90654761Y-153795238D01*
X90607142Y-153819047D01*
G04 #@! TD*
M02*
