G04 #@! TF.GenerationSoftware,KiCad,Pcbnew,5.1.5+dfsg1-2build2*
G04 #@! TF.CreationDate,2020-08-31T23:04:32+02:00*
G04 #@! TF.ProjectId,Telemetry,54656c65-6d65-4747-9279-2e6b69636164,rev?*
G04 #@! TF.SameCoordinates,Original*
G04 #@! TF.FileFunction,Legend,Bot*
G04 #@! TF.FilePolarity,Positive*
%FSLAX46Y46*%
G04 Gerber Fmt 4.6, Leading zero omitted, Abs format (unit mm)*
G04 Created by KiCad (PCBNEW 5.1.5+dfsg1-2build2) date 2020-08-31 23:04:32*
%MOMM*%
%LPD*%
G04 APERTURE LIST*
%ADD10C,0.150000*%
%ADD11C,0.120000*%
G04 APERTURE END LIST*
D10*
X118773809Y-113904761D02*
X118630952Y-113952380D01*
X118392857Y-113952380D01*
X118297619Y-113904761D01*
X118250000Y-113857142D01*
X118202380Y-113761904D01*
X118202380Y-113666666D01*
X118250000Y-113571428D01*
X118297619Y-113523809D01*
X118392857Y-113476190D01*
X118583333Y-113428571D01*
X118678571Y-113380952D01*
X118726190Y-113333333D01*
X118773809Y-113238095D01*
X118773809Y-113142857D01*
X118726190Y-113047619D01*
X118678571Y-113000000D01*
X118583333Y-112952380D01*
X118345238Y-112952380D01*
X118202380Y-113000000D01*
X117916666Y-112952380D02*
X117345238Y-112952380D01*
X117630952Y-113952380D02*
X117630952Y-112952380D01*
X117011904Y-113952380D02*
X117011904Y-112952380D01*
X116678571Y-113666666D01*
X116345238Y-112952380D01*
X116345238Y-113952380D01*
X115869047Y-113571428D02*
X115107142Y-113571428D01*
X114154761Y-113952380D02*
X114630952Y-113952380D01*
X114630952Y-112952380D01*
X113821428Y-113952380D02*
X113821428Y-112952380D01*
X113345238Y-113952380D02*
X113345238Y-112952380D01*
X112773809Y-113952380D01*
X112773809Y-112952380D01*
X112297619Y-113952380D02*
X112297619Y-112952380D01*
X111726190Y-113952380D02*
X112154761Y-113380952D01*
X111726190Y-112952380D02*
X112297619Y-113523809D01*
D11*
X117250000Y-119750000D02*
X117250000Y-114250000D01*
X117250000Y-114250000D02*
X119200000Y-114250000D01*
X119200000Y-114250000D02*
X119200000Y-119750000D01*
X119200000Y-119750000D02*
X117250000Y-119750000D01*
X119450000Y-118400000D02*
X119750000Y-118700000D01*
X119750000Y-118700000D02*
X119750000Y-118100000D01*
X119750000Y-118100000D02*
X119450000Y-118400000D01*
X114250000Y-119750000D02*
X114250000Y-114250000D01*
X114250000Y-114250000D02*
X116200000Y-114250000D01*
X116200000Y-114250000D02*
X116200000Y-119750000D01*
X116200000Y-119750000D02*
X114250000Y-119750000D01*
X116450000Y-118400000D02*
X116750000Y-118700000D01*
X116750000Y-118700000D02*
X116750000Y-118100000D01*
X116750000Y-118100000D02*
X116450000Y-118400000D01*
X111250000Y-119750000D02*
X111250000Y-114250000D01*
X111250000Y-114250000D02*
X113200000Y-114250000D01*
X113200000Y-114250000D02*
X113200000Y-119750000D01*
X113200000Y-119750000D02*
X111250000Y-119750000D01*
X113450000Y-118400000D02*
X113750000Y-118700000D01*
X113750000Y-118700000D02*
X113750000Y-118100000D01*
X113750000Y-118100000D02*
X113450000Y-118400000D01*
X119339285Y-116375000D02*
X119875000Y-116375000D01*
X119982142Y-116339285D01*
X120053571Y-116267857D01*
X120089285Y-116160714D01*
X120089285Y-116089285D01*
X120089285Y-116732142D02*
X119339285Y-116732142D01*
X119339285Y-117017857D01*
X119375000Y-117089285D01*
X119410714Y-117125000D01*
X119482142Y-117160714D01*
X119589285Y-117160714D01*
X119660714Y-117125000D01*
X119696428Y-117089285D01*
X119732142Y-117017857D01*
X119732142Y-116732142D01*
X119589285Y-117803571D02*
X120089285Y-117803571D01*
X119303571Y-117625000D02*
X119839285Y-117446428D01*
X119839285Y-117910714D01*
X116339285Y-116375000D02*
X116875000Y-116375000D01*
X116982142Y-116339285D01*
X117053571Y-116267857D01*
X117089285Y-116160714D01*
X117089285Y-116089285D01*
X117089285Y-116732142D02*
X116339285Y-116732142D01*
X116339285Y-117017857D01*
X116375000Y-117089285D01*
X116410714Y-117125000D01*
X116482142Y-117160714D01*
X116589285Y-117160714D01*
X116660714Y-117125000D01*
X116696428Y-117089285D01*
X116732142Y-117017857D01*
X116732142Y-116732142D01*
X116339285Y-117803571D02*
X116339285Y-117660714D01*
X116375000Y-117589285D01*
X116410714Y-117553571D01*
X116517857Y-117482142D01*
X116660714Y-117446428D01*
X116946428Y-117446428D01*
X117017857Y-117482142D01*
X117053571Y-117517857D01*
X117089285Y-117589285D01*
X117089285Y-117732142D01*
X117053571Y-117803571D01*
X117017857Y-117839285D01*
X116946428Y-117875000D01*
X116767857Y-117875000D01*
X116696428Y-117839285D01*
X116660714Y-117803571D01*
X116625000Y-117732142D01*
X116625000Y-117589285D01*
X116660714Y-117517857D01*
X116696428Y-117482142D01*
X116767857Y-117446428D01*
X113339285Y-116375000D02*
X113875000Y-116375000D01*
X113982142Y-116339285D01*
X114053571Y-116267857D01*
X114089285Y-116160714D01*
X114089285Y-116089285D01*
X114089285Y-116732142D02*
X113339285Y-116732142D01*
X113339285Y-117017857D01*
X113375000Y-117089285D01*
X113410714Y-117125000D01*
X113482142Y-117160714D01*
X113589285Y-117160714D01*
X113660714Y-117125000D01*
X113696428Y-117089285D01*
X113732142Y-117017857D01*
X113732142Y-116732142D01*
X113339285Y-117839285D02*
X113339285Y-117482142D01*
X113696428Y-117446428D01*
X113660714Y-117482142D01*
X113625000Y-117553571D01*
X113625000Y-117732142D01*
X113660714Y-117803571D01*
X113696428Y-117839285D01*
X113767857Y-117875000D01*
X113946428Y-117875000D01*
X114017857Y-117839285D01*
X114053571Y-117803571D01*
X114089285Y-117732142D01*
X114089285Y-117553571D01*
X114053571Y-117482142D01*
X114017857Y-117446428D01*
M02*
