G04 #@! TF.GenerationSoftware,KiCad,Pcbnew,5.1.5-52549c5~84~ubuntu18.04.1*
G04 #@! TF.CreationDate,2020-03-13T12:33:57+01:00*
G04 #@! TF.ProjectId,Telemetry,54656c65-6d65-4747-9279-2e6b69636164,rev?*
G04 #@! TF.SameCoordinates,Original*
G04 #@! TF.FileFunction,Soldermask,Top*
G04 #@! TF.FilePolarity,Negative*
%FSLAX46Y46*%
G04 Gerber Fmt 4.6, Leading zero omitted, Abs format (unit mm)*
G04 Created by KiCad (PCBNEW 5.1.5-52549c5~84~ubuntu18.04.1) date 2020-03-13 12:33:57*
%MOMM*%
%LPD*%
G04 APERTURE LIST*
%ADD10C,0.100000*%
G04 APERTURE END LIST*
D10*
G36*
X132455256Y-190161298D02*
G01*
X132561579Y-190182447D01*
X132862042Y-190306903D01*
X133132451Y-190487585D01*
X133362415Y-190717549D01*
X133543097Y-190987958D01*
X133667553Y-191288421D01*
X133731000Y-191607391D01*
X133731000Y-191932609D01*
X133667553Y-192251579D01*
X133543097Y-192552042D01*
X133362415Y-192822451D01*
X133132451Y-193052415D01*
X132862042Y-193233097D01*
X132561579Y-193357553D01*
X132455256Y-193378702D01*
X132242611Y-193421000D01*
X131917389Y-193421000D01*
X131704744Y-193378702D01*
X131598421Y-193357553D01*
X131297958Y-193233097D01*
X131027549Y-193052415D01*
X130797585Y-192822451D01*
X130616903Y-192552042D01*
X130492447Y-192251579D01*
X130429000Y-191932609D01*
X130429000Y-191607391D01*
X130492447Y-191288421D01*
X130616903Y-190987958D01*
X130797585Y-190717549D01*
X131027549Y-190487585D01*
X131297958Y-190306903D01*
X131598421Y-190182447D01*
X131704744Y-190161298D01*
X131917389Y-190119000D01*
X132242611Y-190119000D01*
X132455256Y-190161298D01*
G37*
G36*
X32125256Y-190161298D02*
G01*
X32231579Y-190182447D01*
X32532042Y-190306903D01*
X32802451Y-190487585D01*
X33032415Y-190717549D01*
X33213097Y-190987958D01*
X33337553Y-191288421D01*
X33401000Y-191607391D01*
X33401000Y-191932609D01*
X33337553Y-192251579D01*
X33213097Y-192552042D01*
X33032415Y-192822451D01*
X32802451Y-193052415D01*
X32532042Y-193233097D01*
X32231579Y-193357553D01*
X32125256Y-193378702D01*
X31912611Y-193421000D01*
X31587389Y-193421000D01*
X31374744Y-193378702D01*
X31268421Y-193357553D01*
X30967958Y-193233097D01*
X30697549Y-193052415D01*
X30467585Y-192822451D01*
X30286903Y-192552042D01*
X30162447Y-192251579D01*
X30099000Y-191932609D01*
X30099000Y-191607391D01*
X30162447Y-191288421D01*
X30286903Y-190987958D01*
X30467585Y-190717549D01*
X30697549Y-190487585D01*
X30967958Y-190306903D01*
X31268421Y-190182447D01*
X31374744Y-190161298D01*
X31587389Y-190119000D01*
X31912611Y-190119000D01*
X32125256Y-190161298D01*
G37*
G36*
X76784468Y-186761065D02*
G01*
X76823138Y-186772796D01*
X76858777Y-186791846D01*
X76890017Y-186817483D01*
X76915654Y-186848723D01*
X76934704Y-186884362D01*
X76946435Y-186923032D01*
X76951000Y-186969388D01*
X76951000Y-187620612D01*
X76946435Y-187666968D01*
X76934704Y-187705638D01*
X76915654Y-187741277D01*
X76890017Y-187772517D01*
X76858777Y-187798154D01*
X76823138Y-187817204D01*
X76784468Y-187828935D01*
X76738112Y-187833500D01*
X75661888Y-187833500D01*
X75615532Y-187828935D01*
X75576862Y-187817204D01*
X75541223Y-187798154D01*
X75509983Y-187772517D01*
X75484346Y-187741277D01*
X75465296Y-187705638D01*
X75453565Y-187666968D01*
X75449000Y-187620612D01*
X75449000Y-186969388D01*
X75453565Y-186923032D01*
X75465296Y-186884362D01*
X75484346Y-186848723D01*
X75509983Y-186817483D01*
X75541223Y-186791846D01*
X75576862Y-186772796D01*
X75615532Y-186761065D01*
X75661888Y-186756500D01*
X76738112Y-186756500D01*
X76784468Y-186761065D01*
G37*
G36*
X72974468Y-186761065D02*
G01*
X73013138Y-186772796D01*
X73048777Y-186791846D01*
X73080017Y-186817483D01*
X73105654Y-186848723D01*
X73124704Y-186884362D01*
X73136435Y-186923032D01*
X73141000Y-186969388D01*
X73141000Y-187620612D01*
X73136435Y-187666968D01*
X73124704Y-187705638D01*
X73105654Y-187741277D01*
X73080017Y-187772517D01*
X73048777Y-187798154D01*
X73013138Y-187817204D01*
X72974468Y-187828935D01*
X72928112Y-187833500D01*
X71851888Y-187833500D01*
X71805532Y-187828935D01*
X71766862Y-187817204D01*
X71731223Y-187798154D01*
X71699983Y-187772517D01*
X71674346Y-187741277D01*
X71655296Y-187705638D01*
X71643565Y-187666968D01*
X71639000Y-187620612D01*
X71639000Y-186969388D01*
X71643565Y-186923032D01*
X71655296Y-186884362D01*
X71674346Y-186848723D01*
X71699983Y-186817483D01*
X71731223Y-186791846D01*
X71766862Y-186772796D01*
X71805532Y-186761065D01*
X71851888Y-186756500D01*
X72928112Y-186756500D01*
X72974468Y-186761065D01*
G37*
G36*
X80594468Y-186761065D02*
G01*
X80633138Y-186772796D01*
X80668777Y-186791846D01*
X80700017Y-186817483D01*
X80725654Y-186848723D01*
X80744704Y-186884362D01*
X80756435Y-186923032D01*
X80761000Y-186969388D01*
X80761000Y-187620612D01*
X80756435Y-187666968D01*
X80744704Y-187705638D01*
X80725654Y-187741277D01*
X80700017Y-187772517D01*
X80668777Y-187798154D01*
X80633138Y-187817204D01*
X80594468Y-187828935D01*
X80548112Y-187833500D01*
X79471888Y-187833500D01*
X79425532Y-187828935D01*
X79386862Y-187817204D01*
X79351223Y-187798154D01*
X79319983Y-187772517D01*
X79294346Y-187741277D01*
X79275296Y-187705638D01*
X79263565Y-187666968D01*
X79259000Y-187620612D01*
X79259000Y-186969388D01*
X79263565Y-186923032D01*
X79275296Y-186884362D01*
X79294346Y-186848723D01*
X79319983Y-186817483D01*
X79351223Y-186791846D01*
X79386862Y-186772796D01*
X79425532Y-186761065D01*
X79471888Y-186756500D01*
X80548112Y-186756500D01*
X80594468Y-186761065D01*
G37*
G36*
X80594468Y-184886065D02*
G01*
X80633138Y-184897796D01*
X80668777Y-184916846D01*
X80700017Y-184942483D01*
X80725654Y-184973723D01*
X80744704Y-185009362D01*
X80756435Y-185048032D01*
X80761000Y-185094388D01*
X80761000Y-185745612D01*
X80756435Y-185791968D01*
X80744704Y-185830638D01*
X80725654Y-185866277D01*
X80700017Y-185897517D01*
X80668777Y-185923154D01*
X80633138Y-185942204D01*
X80594468Y-185953935D01*
X80548112Y-185958500D01*
X79471888Y-185958500D01*
X79425532Y-185953935D01*
X79386862Y-185942204D01*
X79351223Y-185923154D01*
X79319983Y-185897517D01*
X79294346Y-185866277D01*
X79275296Y-185830638D01*
X79263565Y-185791968D01*
X79259000Y-185745612D01*
X79259000Y-185094388D01*
X79263565Y-185048032D01*
X79275296Y-185009362D01*
X79294346Y-184973723D01*
X79319983Y-184942483D01*
X79351223Y-184916846D01*
X79386862Y-184897796D01*
X79425532Y-184886065D01*
X79471888Y-184881500D01*
X80548112Y-184881500D01*
X80594468Y-184886065D01*
G37*
G36*
X72974468Y-184886065D02*
G01*
X73013138Y-184897796D01*
X73048777Y-184916846D01*
X73080017Y-184942483D01*
X73105654Y-184973723D01*
X73124704Y-185009362D01*
X73136435Y-185048032D01*
X73141000Y-185094388D01*
X73141000Y-185745612D01*
X73136435Y-185791968D01*
X73124704Y-185830638D01*
X73105654Y-185866277D01*
X73080017Y-185897517D01*
X73048777Y-185923154D01*
X73013138Y-185942204D01*
X72974468Y-185953935D01*
X72928112Y-185958500D01*
X71851888Y-185958500D01*
X71805532Y-185953935D01*
X71766862Y-185942204D01*
X71731223Y-185923154D01*
X71699983Y-185897517D01*
X71674346Y-185866277D01*
X71655296Y-185830638D01*
X71643565Y-185791968D01*
X71639000Y-185745612D01*
X71639000Y-185094388D01*
X71643565Y-185048032D01*
X71655296Y-185009362D01*
X71674346Y-184973723D01*
X71699983Y-184942483D01*
X71731223Y-184916846D01*
X71766862Y-184897796D01*
X71805532Y-184886065D01*
X71851888Y-184881500D01*
X72928112Y-184881500D01*
X72974468Y-184886065D01*
G37*
G36*
X76784468Y-184886065D02*
G01*
X76823138Y-184897796D01*
X76858777Y-184916846D01*
X76890017Y-184942483D01*
X76915654Y-184973723D01*
X76934704Y-185009362D01*
X76946435Y-185048032D01*
X76951000Y-185094388D01*
X76951000Y-185745612D01*
X76946435Y-185791968D01*
X76934704Y-185830638D01*
X76915654Y-185866277D01*
X76890017Y-185897517D01*
X76858777Y-185923154D01*
X76823138Y-185942204D01*
X76784468Y-185953935D01*
X76738112Y-185958500D01*
X75661888Y-185958500D01*
X75615532Y-185953935D01*
X75576862Y-185942204D01*
X75541223Y-185923154D01*
X75509983Y-185897517D01*
X75484346Y-185866277D01*
X75465296Y-185830638D01*
X75453565Y-185791968D01*
X75449000Y-185745612D01*
X75449000Y-185094388D01*
X75453565Y-185048032D01*
X75465296Y-185009362D01*
X75484346Y-184973723D01*
X75509983Y-184942483D01*
X75541223Y-184916846D01*
X75576862Y-184897796D01*
X75615532Y-184886065D01*
X75661888Y-184881500D01*
X76738112Y-184881500D01*
X76784468Y-184886065D01*
G37*
G36*
X129835229Y-181229890D02*
G01*
X130028871Y-181268408D01*
X130333883Y-181394748D01*
X130608387Y-181578166D01*
X130841834Y-181811613D01*
X131025252Y-182086117D01*
X131151592Y-182391129D01*
X131173329Y-182500409D01*
X131210923Y-182689401D01*
X131216000Y-182714928D01*
X131216000Y-183045072D01*
X131151592Y-183368871D01*
X131025252Y-183673883D01*
X130841834Y-183948387D01*
X130608387Y-184181834D01*
X130333883Y-184365252D01*
X130028871Y-184491592D01*
X129866971Y-184523796D01*
X129705073Y-184556000D01*
X129374927Y-184556000D01*
X129213029Y-184523796D01*
X129051129Y-184491592D01*
X128746117Y-184365252D01*
X128471613Y-184181834D01*
X128238166Y-183948387D01*
X128054748Y-183673883D01*
X127928408Y-183368871D01*
X127864000Y-183045072D01*
X127864000Y-182714928D01*
X127869078Y-182689401D01*
X127906671Y-182500409D01*
X127928408Y-182391129D01*
X128054748Y-182086117D01*
X128238166Y-181811613D01*
X128471613Y-181578166D01*
X128746117Y-181394748D01*
X129051129Y-181268408D01*
X129244771Y-181229890D01*
X129374927Y-181204000D01*
X129705073Y-181204000D01*
X129835229Y-181229890D01*
G37*
G36*
X95592091Y-182358085D02*
G01*
X95626069Y-182368393D01*
X95657390Y-182385134D01*
X95684839Y-182407661D01*
X95707366Y-182435110D01*
X95724107Y-182466431D01*
X95734415Y-182500409D01*
X95738500Y-182541890D01*
X95738500Y-183218110D01*
X95734415Y-183259591D01*
X95724107Y-183293569D01*
X95707366Y-183324890D01*
X95684839Y-183352339D01*
X95657390Y-183374866D01*
X95626069Y-183391607D01*
X95592091Y-183401915D01*
X95550610Y-183406000D01*
X94949390Y-183406000D01*
X94907909Y-183401915D01*
X94873931Y-183391607D01*
X94842610Y-183374866D01*
X94815161Y-183352339D01*
X94792634Y-183324890D01*
X94775893Y-183293569D01*
X94765585Y-183259591D01*
X94761500Y-183218110D01*
X94761500Y-182541890D01*
X94765585Y-182500409D01*
X94775893Y-182466431D01*
X94792634Y-182435110D01*
X94815161Y-182407661D01*
X94842610Y-182385134D01*
X94873931Y-182368393D01*
X94907909Y-182358085D01*
X94949390Y-182354000D01*
X95550610Y-182354000D01*
X95592091Y-182358085D01*
G37*
G36*
X97167091Y-182358085D02*
G01*
X97201069Y-182368393D01*
X97232390Y-182385134D01*
X97259839Y-182407661D01*
X97282366Y-182435110D01*
X97299107Y-182466431D01*
X97309415Y-182500409D01*
X97313500Y-182541890D01*
X97313500Y-183218110D01*
X97309415Y-183259591D01*
X97299107Y-183293569D01*
X97282366Y-183324890D01*
X97259839Y-183352339D01*
X97232390Y-183374866D01*
X97201069Y-183391607D01*
X97167091Y-183401915D01*
X97125610Y-183406000D01*
X96524390Y-183406000D01*
X96482909Y-183401915D01*
X96448931Y-183391607D01*
X96417610Y-183374866D01*
X96390161Y-183352339D01*
X96367634Y-183324890D01*
X96350893Y-183293569D01*
X96340585Y-183259591D01*
X96336500Y-183218110D01*
X96336500Y-182541890D01*
X96340585Y-182500409D01*
X96350893Y-182466431D01*
X96367634Y-182435110D01*
X96390161Y-182407661D01*
X96417610Y-182385134D01*
X96448931Y-182368393D01*
X96482909Y-182358085D01*
X96524390Y-182354000D01*
X97125610Y-182354000D01*
X97167091Y-182358085D01*
G37*
G36*
X99831000Y-183011000D02*
G01*
X98829000Y-183011000D01*
X98829000Y-182109000D01*
X99831000Y-182109000D01*
X99831000Y-183011000D01*
G37*
G36*
X92199999Y-180334737D02*
G01*
X92209608Y-180337652D01*
X92218472Y-180342390D01*
X92226237Y-180348763D01*
X92232610Y-180356528D01*
X92237348Y-180365392D01*
X92240263Y-180375001D01*
X92241852Y-180391140D01*
X92241852Y-181528860D01*
X92240263Y-181544999D01*
X92237348Y-181554608D01*
X92232610Y-181563472D01*
X92226237Y-181571237D01*
X92213263Y-181581884D01*
X92204032Y-181588053D01*
X92186706Y-181605381D01*
X92173093Y-181625756D01*
X92163717Y-181648395D01*
X92158937Y-181672428D01*
X92158938Y-181696932D01*
X92163720Y-181720965D01*
X92173098Y-181743604D01*
X92186713Y-181763978D01*
X92204041Y-181781304D01*
X92213317Y-181788175D01*
X92218427Y-181792360D01*
X92226199Y-181798725D01*
X92232581Y-181806484D01*
X92237326Y-181815339D01*
X92237326Y-181815340D01*
X92240242Y-181824915D01*
X92240242Y-181824918D01*
X92240252Y-181824950D01*
X92241247Y-181835000D01*
X92241247Y-181835065D01*
X92241852Y-181841175D01*
X92241852Y-182828860D01*
X92240263Y-182844999D01*
X92237348Y-182854608D01*
X92232610Y-182863472D01*
X92226237Y-182871237D01*
X92218472Y-182877610D01*
X92209608Y-182882348D01*
X92199999Y-182885263D01*
X92183860Y-182886852D01*
X90696140Y-182886852D01*
X90680001Y-182885263D01*
X90670392Y-182882348D01*
X90661528Y-182877610D01*
X90653763Y-182871237D01*
X90647390Y-182863472D01*
X90642652Y-182854608D01*
X90639737Y-182844999D01*
X90638148Y-182828860D01*
X90638148Y-181841140D01*
X90639737Y-181825001D01*
X90642652Y-181815392D01*
X90647390Y-181806528D01*
X90653742Y-181798788D01*
X90653743Y-181798787D01*
X90653763Y-181798763D01*
X90661573Y-181792360D01*
X90661628Y-181792323D01*
X90671147Y-181784520D01*
X90671122Y-181784489D01*
X90684972Y-181773147D01*
X90700537Y-181754221D01*
X90712111Y-181732623D01*
X90719249Y-181709181D01*
X90721676Y-181684798D01*
X90719300Y-181660409D01*
X90712211Y-181636953D01*
X90700682Y-181615330D01*
X90685157Y-181596372D01*
X90666231Y-181580807D01*
X90663175Y-181578971D01*
X90661486Y-181577582D01*
X90661484Y-181577581D01*
X90653725Y-181571199D01*
X90651603Y-181568608D01*
X90647358Y-181563425D01*
X90644209Y-181557517D01*
X90642633Y-181554562D01*
X90639727Y-181544945D01*
X90639718Y-181544915D01*
X90638148Y-181528887D01*
X90638148Y-180391140D01*
X90639737Y-180375001D01*
X90642652Y-180365392D01*
X90647390Y-180356528D01*
X90653763Y-180348763D01*
X90661528Y-180342390D01*
X90670392Y-180337652D01*
X90680001Y-180334737D01*
X90696140Y-180333148D01*
X92183860Y-180333148D01*
X92199999Y-180334737D01*
G37*
G36*
X80389591Y-181913085D02*
G01*
X80423569Y-181923393D01*
X80454890Y-181940134D01*
X80482339Y-181962661D01*
X80504866Y-181990110D01*
X80521607Y-182021431D01*
X80531915Y-182055409D01*
X80536000Y-182096890D01*
X80536000Y-182698110D01*
X80531915Y-182739591D01*
X80521607Y-182773569D01*
X80504866Y-182804890D01*
X80482339Y-182832339D01*
X80454890Y-182854866D01*
X80423569Y-182871607D01*
X80389591Y-182881915D01*
X80348110Y-182886000D01*
X79671890Y-182886000D01*
X79630409Y-182881915D01*
X79596431Y-182871607D01*
X79565110Y-182854866D01*
X79537661Y-182832339D01*
X79515134Y-182804890D01*
X79498393Y-182773569D01*
X79488085Y-182739591D01*
X79484000Y-182698110D01*
X79484000Y-182096890D01*
X79488085Y-182055409D01*
X79498393Y-182021431D01*
X79515134Y-181990110D01*
X79537661Y-181962661D01*
X79565110Y-181940134D01*
X79596431Y-181923393D01*
X79630409Y-181913085D01*
X79671890Y-181909000D01*
X80348110Y-181909000D01*
X80389591Y-181913085D01*
G37*
G36*
X52932091Y-181913085D02*
G01*
X52966069Y-181923393D01*
X52997390Y-181940134D01*
X53024839Y-181962661D01*
X53047366Y-181990110D01*
X53064107Y-182021431D01*
X53074415Y-182055409D01*
X53078500Y-182096890D01*
X53078500Y-182698110D01*
X53074415Y-182739591D01*
X53064107Y-182773569D01*
X53047366Y-182804890D01*
X53024839Y-182832339D01*
X52997390Y-182854866D01*
X52966069Y-182871607D01*
X52932091Y-182881915D01*
X52890610Y-182886000D01*
X52214390Y-182886000D01*
X52172909Y-182881915D01*
X52138931Y-182871607D01*
X52107610Y-182854866D01*
X52080161Y-182832339D01*
X52057634Y-182804890D01*
X52040893Y-182773569D01*
X52030585Y-182739591D01*
X52026500Y-182698110D01*
X52026500Y-182096890D01*
X52030585Y-182055409D01*
X52040893Y-182021431D01*
X52057634Y-181990110D01*
X52080161Y-181962661D01*
X52107610Y-181940134D01*
X52138931Y-181923393D01*
X52172909Y-181913085D01*
X52214390Y-181909000D01*
X52890610Y-181909000D01*
X52932091Y-181913085D01*
G37*
G36*
X57529591Y-181913085D02*
G01*
X57563569Y-181923393D01*
X57594890Y-181940134D01*
X57622339Y-181962661D01*
X57644866Y-181990110D01*
X57661607Y-182021431D01*
X57671915Y-182055409D01*
X57676000Y-182096890D01*
X57676000Y-182698110D01*
X57671915Y-182739591D01*
X57661607Y-182773569D01*
X57644866Y-182804890D01*
X57622339Y-182832339D01*
X57594890Y-182854866D01*
X57563569Y-182871607D01*
X57529591Y-182881915D01*
X57488110Y-182886000D01*
X56811890Y-182886000D01*
X56770409Y-182881915D01*
X56736431Y-182871607D01*
X56705110Y-182854866D01*
X56677661Y-182832339D01*
X56655134Y-182804890D01*
X56638393Y-182773569D01*
X56628085Y-182739591D01*
X56624000Y-182698110D01*
X56624000Y-182096890D01*
X56628085Y-182055409D01*
X56638393Y-182021431D01*
X56655134Y-181990110D01*
X56677661Y-181962661D01*
X56705110Y-181940134D01*
X56736431Y-181923393D01*
X56770409Y-181913085D01*
X56811890Y-181909000D01*
X57488110Y-181909000D01*
X57529591Y-181913085D01*
G37*
G36*
X65149591Y-181913085D02*
G01*
X65183569Y-181923393D01*
X65214890Y-181940134D01*
X65242339Y-181962661D01*
X65264866Y-181990110D01*
X65281607Y-182021431D01*
X65291915Y-182055409D01*
X65296000Y-182096890D01*
X65296000Y-182698110D01*
X65291915Y-182739591D01*
X65281607Y-182773569D01*
X65264866Y-182804890D01*
X65242339Y-182832339D01*
X65214890Y-182854866D01*
X65183569Y-182871607D01*
X65149591Y-182881915D01*
X65108110Y-182886000D01*
X64431890Y-182886000D01*
X64390409Y-182881915D01*
X64356431Y-182871607D01*
X64325110Y-182854866D01*
X64297661Y-182832339D01*
X64275134Y-182804890D01*
X64258393Y-182773569D01*
X64248085Y-182739591D01*
X64244000Y-182698110D01*
X64244000Y-182096890D01*
X64248085Y-182055409D01*
X64258393Y-182021431D01*
X64275134Y-181990110D01*
X64297661Y-181962661D01*
X64325110Y-181940134D01*
X64356431Y-181923393D01*
X64390409Y-181913085D01*
X64431890Y-181909000D01*
X65108110Y-181909000D01*
X65149591Y-181913085D01*
G37*
G36*
X84199591Y-181913085D02*
G01*
X84233569Y-181923393D01*
X84264890Y-181940134D01*
X84292339Y-181962661D01*
X84314866Y-181990110D01*
X84331607Y-182021431D01*
X84341915Y-182055409D01*
X84346000Y-182096890D01*
X84346000Y-182698110D01*
X84341915Y-182739591D01*
X84331607Y-182773569D01*
X84314866Y-182804890D01*
X84292339Y-182832339D01*
X84264890Y-182854866D01*
X84233569Y-182871607D01*
X84199591Y-182881915D01*
X84158110Y-182886000D01*
X83481890Y-182886000D01*
X83440409Y-182881915D01*
X83406431Y-182871607D01*
X83375110Y-182854866D01*
X83347661Y-182832339D01*
X83325134Y-182804890D01*
X83308393Y-182773569D01*
X83298085Y-182739591D01*
X83294000Y-182698110D01*
X83294000Y-182096890D01*
X83298085Y-182055409D01*
X83308393Y-182021431D01*
X83325134Y-181990110D01*
X83347661Y-181962661D01*
X83375110Y-181940134D01*
X83406431Y-181923393D01*
X83440409Y-181913085D01*
X83481890Y-181909000D01*
X84158110Y-181909000D01*
X84199591Y-181913085D01*
G37*
G36*
X48639591Y-181913085D02*
G01*
X48673569Y-181923393D01*
X48704890Y-181940134D01*
X48732339Y-181962661D01*
X48754866Y-181990110D01*
X48771607Y-182021431D01*
X48781915Y-182055409D01*
X48786000Y-182096890D01*
X48786000Y-182698110D01*
X48781915Y-182739591D01*
X48771607Y-182773569D01*
X48754866Y-182804890D01*
X48732339Y-182832339D01*
X48704890Y-182854866D01*
X48673569Y-182871607D01*
X48639591Y-182881915D01*
X48598110Y-182886000D01*
X47921890Y-182886000D01*
X47880409Y-182881915D01*
X47846431Y-182871607D01*
X47815110Y-182854866D01*
X47787661Y-182832339D01*
X47765134Y-182804890D01*
X47748393Y-182773569D01*
X47738085Y-182739591D01*
X47734000Y-182698110D01*
X47734000Y-182096890D01*
X47738085Y-182055409D01*
X47748393Y-182021431D01*
X47765134Y-181990110D01*
X47787661Y-181962661D01*
X47815110Y-181940134D01*
X47846431Y-181923393D01*
X47880409Y-181913085D01*
X47921890Y-181909000D01*
X48598110Y-181909000D01*
X48639591Y-181913085D01*
G37*
G36*
X76579591Y-181913085D02*
G01*
X76613569Y-181923393D01*
X76644890Y-181940134D01*
X76672339Y-181962661D01*
X76694866Y-181990110D01*
X76711607Y-182021431D01*
X76721915Y-182055409D01*
X76726000Y-182096890D01*
X76726000Y-182698110D01*
X76721915Y-182739591D01*
X76711607Y-182773569D01*
X76694866Y-182804890D01*
X76672339Y-182832339D01*
X76644890Y-182854866D01*
X76613569Y-182871607D01*
X76579591Y-182881915D01*
X76538110Y-182886000D01*
X75861890Y-182886000D01*
X75820409Y-182881915D01*
X75786431Y-182871607D01*
X75755110Y-182854866D01*
X75727661Y-182832339D01*
X75705134Y-182804890D01*
X75688393Y-182773569D01*
X75678085Y-182739591D01*
X75674000Y-182698110D01*
X75674000Y-182096890D01*
X75678085Y-182055409D01*
X75688393Y-182021431D01*
X75705134Y-181990110D01*
X75727661Y-181962661D01*
X75755110Y-181940134D01*
X75786431Y-181923393D01*
X75820409Y-181913085D01*
X75861890Y-181909000D01*
X76538110Y-181909000D01*
X76579591Y-181913085D01*
G37*
G36*
X72769591Y-181913085D02*
G01*
X72803569Y-181923393D01*
X72834890Y-181940134D01*
X72862339Y-181962661D01*
X72884866Y-181990110D01*
X72901607Y-182021431D01*
X72911915Y-182055409D01*
X72916000Y-182096890D01*
X72916000Y-182698110D01*
X72911915Y-182739591D01*
X72901607Y-182773569D01*
X72884866Y-182804890D01*
X72862339Y-182832339D01*
X72834890Y-182854866D01*
X72803569Y-182871607D01*
X72769591Y-182881915D01*
X72728110Y-182886000D01*
X72051890Y-182886000D01*
X72010409Y-182881915D01*
X71976431Y-182871607D01*
X71945110Y-182854866D01*
X71917661Y-182832339D01*
X71895134Y-182804890D01*
X71878393Y-182773569D01*
X71868085Y-182739591D01*
X71864000Y-182698110D01*
X71864000Y-182096890D01*
X71868085Y-182055409D01*
X71878393Y-182021431D01*
X71895134Y-181990110D01*
X71917661Y-181962661D01*
X71945110Y-181940134D01*
X71976431Y-181923393D01*
X72010409Y-181913085D01*
X72051890Y-181909000D01*
X72728110Y-181909000D01*
X72769591Y-181913085D01*
G37*
G36*
X30771000Y-182791000D02*
G01*
X28969000Y-182791000D01*
X28969000Y-181689000D01*
X30771000Y-181689000D01*
X30771000Y-182791000D01*
G37*
G36*
X37071000Y-182791000D02*
G01*
X35269000Y-182791000D01*
X35269000Y-181689000D01*
X37071000Y-181689000D01*
X37071000Y-182791000D01*
G37*
G36*
X113336564Y-180599389D02*
G01*
X113461164Y-180651000D01*
X113527835Y-180678616D01*
X113699973Y-180793635D01*
X113846365Y-180940027D01*
X113960606Y-181111000D01*
X113961385Y-181112167D01*
X114040611Y-181303436D01*
X114081000Y-181506484D01*
X114081000Y-181713516D01*
X114040611Y-181916564D01*
X113965918Y-182096890D01*
X113961384Y-182107835D01*
X113846365Y-182279973D01*
X113699973Y-182426365D01*
X113527835Y-182541384D01*
X113527834Y-182541385D01*
X113527833Y-182541385D01*
X113336564Y-182620611D01*
X113133516Y-182661000D01*
X112926484Y-182661000D01*
X112723436Y-182620611D01*
X112532167Y-182541385D01*
X112532166Y-182541385D01*
X112532165Y-182541384D01*
X112360027Y-182426365D01*
X112213635Y-182279973D01*
X112098616Y-182107835D01*
X112094082Y-182096890D01*
X112019389Y-181916564D01*
X111979000Y-181713516D01*
X111979000Y-181506484D01*
X112019389Y-181303436D01*
X112098615Y-181112167D01*
X112099395Y-181111000D01*
X112213635Y-180940027D01*
X112360027Y-180793635D01*
X112532165Y-180678616D01*
X112598836Y-180651000D01*
X112723436Y-180599389D01*
X112926484Y-180559000D01*
X113133516Y-180559000D01*
X113336564Y-180599389D01*
G37*
G36*
X101831000Y-182061000D02*
G01*
X100829000Y-182061000D01*
X100829000Y-181159000D01*
X101831000Y-181159000D01*
X101831000Y-182061000D01*
G37*
G36*
X123467395Y-180055546D02*
G01*
X123640466Y-180127234D01*
X123717818Y-180178919D01*
X123796227Y-180231310D01*
X123928690Y-180363773D01*
X123936192Y-180375001D01*
X124032766Y-180519534D01*
X124104454Y-180692605D01*
X124141000Y-180876333D01*
X124141000Y-181063667D01*
X124104454Y-181247395D01*
X124032766Y-181420466D01*
X124032765Y-181420467D01*
X123928690Y-181576227D01*
X123796227Y-181708690D01*
X123743974Y-181743604D01*
X123640466Y-181812766D01*
X123467395Y-181884454D01*
X123283667Y-181921000D01*
X123096333Y-181921000D01*
X122912605Y-181884454D01*
X122739534Y-181812766D01*
X122636026Y-181743604D01*
X122583773Y-181708690D01*
X122451310Y-181576227D01*
X122347235Y-181420467D01*
X122347234Y-181420466D01*
X122275546Y-181247395D01*
X122239000Y-181063667D01*
X122239000Y-180876333D01*
X122275546Y-180692605D01*
X122347234Y-180519534D01*
X122443808Y-180375001D01*
X122451310Y-180363773D01*
X122583773Y-180231310D01*
X122662182Y-180178919D01*
X122739534Y-180127234D01*
X122912605Y-180055546D01*
X123096333Y-180019000D01*
X123283667Y-180019000D01*
X123467395Y-180055546D01*
G37*
G36*
X57529591Y-180338085D02*
G01*
X57563569Y-180348393D01*
X57594890Y-180365134D01*
X57622339Y-180387661D01*
X57644866Y-180415110D01*
X57661607Y-180446431D01*
X57671915Y-180480409D01*
X57676000Y-180521890D01*
X57676000Y-181123110D01*
X57671915Y-181164591D01*
X57661607Y-181198569D01*
X57644866Y-181229890D01*
X57622339Y-181257339D01*
X57594890Y-181279866D01*
X57563569Y-181296607D01*
X57529591Y-181306915D01*
X57488110Y-181311000D01*
X56811890Y-181311000D01*
X56770409Y-181306915D01*
X56736431Y-181296607D01*
X56705110Y-181279866D01*
X56677661Y-181257339D01*
X56655134Y-181229890D01*
X56638393Y-181198569D01*
X56628085Y-181164591D01*
X56624000Y-181123110D01*
X56624000Y-180521890D01*
X56628085Y-180480409D01*
X56638393Y-180446431D01*
X56655134Y-180415110D01*
X56677661Y-180387661D01*
X56705110Y-180365134D01*
X56736431Y-180348393D01*
X56770409Y-180338085D01*
X56811890Y-180334000D01*
X57488110Y-180334000D01*
X57529591Y-180338085D01*
G37*
G36*
X80389591Y-180338085D02*
G01*
X80423569Y-180348393D01*
X80454890Y-180365134D01*
X80482339Y-180387661D01*
X80504866Y-180415110D01*
X80521607Y-180446431D01*
X80531915Y-180480409D01*
X80536000Y-180521890D01*
X80536000Y-181123110D01*
X80531915Y-181164591D01*
X80521607Y-181198569D01*
X80504866Y-181229890D01*
X80482339Y-181257339D01*
X80454890Y-181279866D01*
X80423569Y-181296607D01*
X80389591Y-181306915D01*
X80348110Y-181311000D01*
X79671890Y-181311000D01*
X79630409Y-181306915D01*
X79596431Y-181296607D01*
X79565110Y-181279866D01*
X79537661Y-181257339D01*
X79515134Y-181229890D01*
X79498393Y-181198569D01*
X79488085Y-181164591D01*
X79484000Y-181123110D01*
X79484000Y-180521890D01*
X79488085Y-180480409D01*
X79498393Y-180446431D01*
X79515134Y-180415110D01*
X79537661Y-180387661D01*
X79565110Y-180365134D01*
X79596431Y-180348393D01*
X79630409Y-180338085D01*
X79671890Y-180334000D01*
X80348110Y-180334000D01*
X80389591Y-180338085D01*
G37*
G36*
X76579591Y-180338085D02*
G01*
X76613569Y-180348393D01*
X76644890Y-180365134D01*
X76672339Y-180387661D01*
X76694866Y-180415110D01*
X76711607Y-180446431D01*
X76721915Y-180480409D01*
X76726000Y-180521890D01*
X76726000Y-181123110D01*
X76721915Y-181164591D01*
X76711607Y-181198569D01*
X76694866Y-181229890D01*
X76672339Y-181257339D01*
X76644890Y-181279866D01*
X76613569Y-181296607D01*
X76579591Y-181306915D01*
X76538110Y-181311000D01*
X75861890Y-181311000D01*
X75820409Y-181306915D01*
X75786431Y-181296607D01*
X75755110Y-181279866D01*
X75727661Y-181257339D01*
X75705134Y-181229890D01*
X75688393Y-181198569D01*
X75678085Y-181164591D01*
X75674000Y-181123110D01*
X75674000Y-180521890D01*
X75678085Y-180480409D01*
X75688393Y-180446431D01*
X75705134Y-180415110D01*
X75727661Y-180387661D01*
X75755110Y-180365134D01*
X75786431Y-180348393D01*
X75820409Y-180338085D01*
X75861890Y-180334000D01*
X76538110Y-180334000D01*
X76579591Y-180338085D01*
G37*
G36*
X72769591Y-180338085D02*
G01*
X72803569Y-180348393D01*
X72834890Y-180365134D01*
X72862339Y-180387661D01*
X72884866Y-180415110D01*
X72901607Y-180446431D01*
X72911915Y-180480409D01*
X72916000Y-180521890D01*
X72916000Y-181123110D01*
X72911915Y-181164591D01*
X72901607Y-181198569D01*
X72884866Y-181229890D01*
X72862339Y-181257339D01*
X72834890Y-181279866D01*
X72803569Y-181296607D01*
X72769591Y-181306915D01*
X72728110Y-181311000D01*
X72051890Y-181311000D01*
X72010409Y-181306915D01*
X71976431Y-181296607D01*
X71945110Y-181279866D01*
X71917661Y-181257339D01*
X71895134Y-181229890D01*
X71878393Y-181198569D01*
X71868085Y-181164591D01*
X71864000Y-181123110D01*
X71864000Y-180521890D01*
X71868085Y-180480409D01*
X71878393Y-180446431D01*
X71895134Y-180415110D01*
X71917661Y-180387661D01*
X71945110Y-180365134D01*
X71976431Y-180348393D01*
X72010409Y-180338085D01*
X72051890Y-180334000D01*
X72728110Y-180334000D01*
X72769591Y-180338085D01*
G37*
G36*
X65149591Y-180338085D02*
G01*
X65183569Y-180348393D01*
X65214890Y-180365134D01*
X65242339Y-180387661D01*
X65264866Y-180415110D01*
X65281607Y-180446431D01*
X65291915Y-180480409D01*
X65296000Y-180521890D01*
X65296000Y-181123110D01*
X65291915Y-181164591D01*
X65281607Y-181198569D01*
X65264866Y-181229890D01*
X65242339Y-181257339D01*
X65214890Y-181279866D01*
X65183569Y-181296607D01*
X65149591Y-181306915D01*
X65108110Y-181311000D01*
X64431890Y-181311000D01*
X64390409Y-181306915D01*
X64356431Y-181296607D01*
X64325110Y-181279866D01*
X64297661Y-181257339D01*
X64275134Y-181229890D01*
X64258393Y-181198569D01*
X64248085Y-181164591D01*
X64244000Y-181123110D01*
X64244000Y-180521890D01*
X64248085Y-180480409D01*
X64258393Y-180446431D01*
X64275134Y-180415110D01*
X64297661Y-180387661D01*
X64325110Y-180365134D01*
X64356431Y-180348393D01*
X64390409Y-180338085D01*
X64431890Y-180334000D01*
X65108110Y-180334000D01*
X65149591Y-180338085D01*
G37*
G36*
X52932091Y-180338085D02*
G01*
X52966069Y-180348393D01*
X52997390Y-180365134D01*
X53024839Y-180387661D01*
X53047366Y-180415110D01*
X53064107Y-180446431D01*
X53074415Y-180480409D01*
X53078500Y-180521890D01*
X53078500Y-181123110D01*
X53074415Y-181164591D01*
X53064107Y-181198569D01*
X53047366Y-181229890D01*
X53024839Y-181257339D01*
X52997390Y-181279866D01*
X52966069Y-181296607D01*
X52932091Y-181306915D01*
X52890610Y-181311000D01*
X52214390Y-181311000D01*
X52172909Y-181306915D01*
X52138931Y-181296607D01*
X52107610Y-181279866D01*
X52080161Y-181257339D01*
X52057634Y-181229890D01*
X52040893Y-181198569D01*
X52030585Y-181164591D01*
X52026500Y-181123110D01*
X52026500Y-180521890D01*
X52030585Y-180480409D01*
X52040893Y-180446431D01*
X52057634Y-180415110D01*
X52080161Y-180387661D01*
X52107610Y-180365134D01*
X52138931Y-180348393D01*
X52172909Y-180338085D01*
X52214390Y-180334000D01*
X52890610Y-180334000D01*
X52932091Y-180338085D01*
G37*
G36*
X48639591Y-180338085D02*
G01*
X48673569Y-180348393D01*
X48704890Y-180365134D01*
X48732339Y-180387661D01*
X48754866Y-180415110D01*
X48771607Y-180446431D01*
X48781915Y-180480409D01*
X48786000Y-180521890D01*
X48786000Y-181123110D01*
X48781915Y-181164591D01*
X48771607Y-181198569D01*
X48754866Y-181229890D01*
X48732339Y-181257339D01*
X48704890Y-181279866D01*
X48673569Y-181296607D01*
X48639591Y-181306915D01*
X48598110Y-181311000D01*
X47921890Y-181311000D01*
X47880409Y-181306915D01*
X47846431Y-181296607D01*
X47815110Y-181279866D01*
X47787661Y-181257339D01*
X47765134Y-181229890D01*
X47748393Y-181198569D01*
X47738085Y-181164591D01*
X47734000Y-181123110D01*
X47734000Y-180521890D01*
X47738085Y-180480409D01*
X47748393Y-180446431D01*
X47765134Y-180415110D01*
X47787661Y-180387661D01*
X47815110Y-180365134D01*
X47846431Y-180348393D01*
X47880409Y-180338085D01*
X47921890Y-180334000D01*
X48598110Y-180334000D01*
X48639591Y-180338085D01*
G37*
G36*
X84199591Y-180338085D02*
G01*
X84233569Y-180348393D01*
X84264890Y-180365134D01*
X84292339Y-180387661D01*
X84314866Y-180415110D01*
X84331607Y-180446431D01*
X84341915Y-180480409D01*
X84346000Y-180521890D01*
X84346000Y-181123110D01*
X84341915Y-181164591D01*
X84331607Y-181198569D01*
X84314866Y-181229890D01*
X84292339Y-181257339D01*
X84264890Y-181279866D01*
X84233569Y-181296607D01*
X84199591Y-181306915D01*
X84158110Y-181311000D01*
X83481890Y-181311000D01*
X83440409Y-181306915D01*
X83406431Y-181296607D01*
X83375110Y-181279866D01*
X83347661Y-181257339D01*
X83325134Y-181229890D01*
X83308393Y-181198569D01*
X83298085Y-181164591D01*
X83294000Y-181123110D01*
X83294000Y-180521890D01*
X83298085Y-180480409D01*
X83308393Y-180446431D01*
X83325134Y-180415110D01*
X83347661Y-180387661D01*
X83375110Y-180365134D01*
X83406431Y-180348393D01*
X83440409Y-180338085D01*
X83481890Y-180334000D01*
X84158110Y-180334000D01*
X84199591Y-180338085D01*
G37*
G36*
X99831000Y-181111000D02*
G01*
X98829000Y-181111000D01*
X98829000Y-180209000D01*
X99831000Y-180209000D01*
X99831000Y-181111000D01*
G37*
G36*
X60726968Y-179593565D02*
G01*
X60765638Y-179605296D01*
X60801277Y-179624346D01*
X60832517Y-179649983D01*
X60858154Y-179681223D01*
X60877204Y-179716862D01*
X60888935Y-179755532D01*
X60893500Y-179801888D01*
X60893500Y-180878112D01*
X60888935Y-180924468D01*
X60877204Y-180963138D01*
X60858154Y-180998777D01*
X60832517Y-181030017D01*
X60801277Y-181055654D01*
X60765638Y-181074704D01*
X60726968Y-181086435D01*
X60680612Y-181091000D01*
X60029388Y-181091000D01*
X59983032Y-181086435D01*
X59944362Y-181074704D01*
X59908723Y-181055654D01*
X59877483Y-181030017D01*
X59851846Y-180998777D01*
X59832796Y-180963138D01*
X59821065Y-180924468D01*
X59816500Y-180878112D01*
X59816500Y-179801888D01*
X59821065Y-179755532D01*
X59832796Y-179716862D01*
X59851846Y-179681223D01*
X59877483Y-179649983D01*
X59908723Y-179624346D01*
X59944362Y-179605296D01*
X59983032Y-179593565D01*
X60029388Y-179589000D01*
X60680612Y-179589000D01*
X60726968Y-179593565D01*
G37*
G36*
X62601968Y-179593565D02*
G01*
X62640638Y-179605296D01*
X62676277Y-179624346D01*
X62707517Y-179649983D01*
X62733154Y-179681223D01*
X62752204Y-179716862D01*
X62763935Y-179755532D01*
X62768500Y-179801888D01*
X62768500Y-180878112D01*
X62763935Y-180924468D01*
X62752204Y-180963138D01*
X62733154Y-180998777D01*
X62707517Y-181030017D01*
X62676277Y-181055654D01*
X62640638Y-181074704D01*
X62601968Y-181086435D01*
X62555612Y-181091000D01*
X61904388Y-181091000D01*
X61858032Y-181086435D01*
X61819362Y-181074704D01*
X61783723Y-181055654D01*
X61752483Y-181030017D01*
X61726846Y-180998777D01*
X61707796Y-180963138D01*
X61696065Y-180924468D01*
X61691500Y-180878112D01*
X61691500Y-179801888D01*
X61696065Y-179755532D01*
X61707796Y-179716862D01*
X61726846Y-179681223D01*
X61752483Y-179649983D01*
X61783723Y-179624346D01*
X61819362Y-179605296D01*
X61858032Y-179593565D01*
X61904388Y-179589000D01*
X62555612Y-179589000D01*
X62601968Y-179593565D01*
G37*
G36*
X120927395Y-178785546D02*
G01*
X121100466Y-178857234D01*
X121177818Y-178908919D01*
X121256227Y-178961310D01*
X121388690Y-179093773D01*
X121388691Y-179093775D01*
X121492766Y-179249534D01*
X121564454Y-179422605D01*
X121601000Y-179606333D01*
X121601000Y-179793667D01*
X121564454Y-179977395D01*
X121492766Y-180150466D01*
X121492765Y-180150467D01*
X121388690Y-180306227D01*
X121256227Y-180438690D01*
X121193790Y-180480409D01*
X121100466Y-180542766D01*
X120927395Y-180614454D01*
X120743667Y-180651000D01*
X120556333Y-180651000D01*
X120372605Y-180614454D01*
X120199534Y-180542766D01*
X120106210Y-180480409D01*
X120043773Y-180438690D01*
X119911310Y-180306227D01*
X119807235Y-180150467D01*
X119807234Y-180150466D01*
X119735546Y-179977395D01*
X119699000Y-179793667D01*
X119699000Y-179606333D01*
X119735546Y-179422605D01*
X119807234Y-179249534D01*
X119911309Y-179093775D01*
X119911310Y-179093773D01*
X120043773Y-178961310D01*
X120122182Y-178908919D01*
X120199534Y-178857234D01*
X120372605Y-178785546D01*
X120556333Y-178749000D01*
X120743667Y-178749000D01*
X120927395Y-178785546D01*
G37*
G36*
X123467395Y-177515546D02*
G01*
X123640466Y-177587234D01*
X123717818Y-177638919D01*
X123796227Y-177691310D01*
X123928690Y-177823773D01*
X123928691Y-177823775D01*
X124032766Y-177979534D01*
X124104454Y-178152605D01*
X124141000Y-178336333D01*
X124141000Y-178523667D01*
X124104454Y-178707395D01*
X124032766Y-178880466D01*
X124032765Y-178880467D01*
X123928690Y-179036227D01*
X123796227Y-179168690D01*
X123717818Y-179221081D01*
X123640466Y-179272766D01*
X123467395Y-179344454D01*
X123283667Y-179381000D01*
X123096333Y-179381000D01*
X122912605Y-179344454D01*
X122739534Y-179272766D01*
X122662182Y-179221081D01*
X122583773Y-179168690D01*
X122451310Y-179036227D01*
X122347235Y-178880467D01*
X122347234Y-178880466D01*
X122275546Y-178707395D01*
X122239000Y-178523667D01*
X122239000Y-178336333D01*
X122275546Y-178152605D01*
X122347234Y-177979534D01*
X122451309Y-177823775D01*
X122451310Y-177823773D01*
X122583773Y-177691310D01*
X122662182Y-177638919D01*
X122739534Y-177587234D01*
X122912605Y-177515546D01*
X123096333Y-177479000D01*
X123283667Y-177479000D01*
X123467395Y-177515546D01*
G37*
G36*
X37071000Y-178991000D02*
G01*
X35269000Y-178991000D01*
X35269000Y-177889000D01*
X37071000Y-177889000D01*
X37071000Y-178991000D01*
G37*
G36*
X30771000Y-178991000D02*
G01*
X28969000Y-178991000D01*
X28969000Y-177889000D01*
X30771000Y-177889000D01*
X30771000Y-178991000D01*
G37*
G36*
X120927395Y-176245546D02*
G01*
X121100466Y-176317234D01*
X121177818Y-176368919D01*
X121256227Y-176421310D01*
X121388690Y-176553773D01*
X121388691Y-176553775D01*
X121492766Y-176709534D01*
X121564454Y-176882605D01*
X121601000Y-177066333D01*
X121601000Y-177253667D01*
X121564454Y-177437395D01*
X121492766Y-177610466D01*
X121492765Y-177610467D01*
X121388690Y-177766227D01*
X121256227Y-177898690D01*
X121177818Y-177951081D01*
X121100466Y-178002766D01*
X120927395Y-178074454D01*
X120743667Y-178111000D01*
X120556333Y-178111000D01*
X120372605Y-178074454D01*
X120199534Y-178002766D01*
X120122182Y-177951081D01*
X120043773Y-177898690D01*
X119911310Y-177766227D01*
X119807235Y-177610467D01*
X119807234Y-177610466D01*
X119735546Y-177437395D01*
X119699000Y-177253667D01*
X119699000Y-177066333D01*
X119735546Y-176882605D01*
X119807234Y-176709534D01*
X119911309Y-176553775D01*
X119911310Y-176553773D01*
X120043773Y-176421310D01*
X120122182Y-176368919D01*
X120199534Y-176317234D01*
X120372605Y-176245546D01*
X120556333Y-176209000D01*
X120743667Y-176209000D01*
X120927395Y-176245546D01*
G37*
G36*
X129866971Y-173616204D02*
G01*
X130028871Y-173648408D01*
X130333883Y-173774748D01*
X130608387Y-173958166D01*
X130841834Y-174191613D01*
X131025252Y-174466117D01*
X131151592Y-174771129D01*
X131216000Y-175094928D01*
X131216000Y-175425072D01*
X131151592Y-175748871D01*
X131025252Y-176053883D01*
X130841834Y-176328387D01*
X130608387Y-176561834D01*
X130333883Y-176745252D01*
X130028871Y-176871592D01*
X129973510Y-176882604D01*
X129705073Y-176936000D01*
X129374927Y-176936000D01*
X129106490Y-176882604D01*
X129051129Y-176871592D01*
X128746117Y-176745252D01*
X128471613Y-176561834D01*
X128238166Y-176328387D01*
X128054748Y-176053883D01*
X127928408Y-175748871D01*
X127864000Y-175425072D01*
X127864000Y-175094928D01*
X127928408Y-174771129D01*
X128054748Y-174466117D01*
X128238166Y-174191613D01*
X128471613Y-173958166D01*
X128746117Y-173774748D01*
X129051129Y-173648408D01*
X129213029Y-173616204D01*
X129374927Y-173584000D01*
X129705073Y-173584000D01*
X129866971Y-173616204D01*
G37*
G36*
X129835229Y-169799890D02*
G01*
X130028871Y-169838408D01*
X130333883Y-169964748D01*
X130608387Y-170148166D01*
X130841834Y-170381613D01*
X131025252Y-170656117D01*
X131151592Y-170961129D01*
X131174228Y-171074928D01*
X131216000Y-171284927D01*
X131216000Y-171615073D01*
X131192344Y-171734000D01*
X131151592Y-171938871D01*
X131025252Y-172243883D01*
X130841834Y-172518387D01*
X130608387Y-172751834D01*
X130333883Y-172935252D01*
X130028871Y-173061592D01*
X129705073Y-173126000D01*
X129374927Y-173126000D01*
X129051129Y-173061592D01*
X128746117Y-172935252D01*
X128471613Y-172751834D01*
X128238166Y-172518387D01*
X128054748Y-172243883D01*
X127928408Y-171938871D01*
X127887656Y-171734000D01*
X127864000Y-171615073D01*
X127864000Y-171284927D01*
X127905772Y-171074928D01*
X127928408Y-170961129D01*
X128054748Y-170656117D01*
X128238166Y-170381613D01*
X128471613Y-170148166D01*
X128746117Y-169964748D01*
X129051129Y-169838408D01*
X129244771Y-169799890D01*
X129374927Y-169774000D01*
X129705073Y-169774000D01*
X129835229Y-169799890D01*
G37*
G36*
X37071000Y-172631000D02*
G01*
X35269000Y-172631000D01*
X35269000Y-171529000D01*
X37071000Y-171529000D01*
X37071000Y-172631000D01*
G37*
G36*
X30771000Y-172631000D02*
G01*
X28969000Y-172631000D01*
X28969000Y-171529000D01*
X30771000Y-171529000D01*
X30771000Y-172631000D01*
G37*
G36*
X103869928Y-171736764D02*
G01*
X103891009Y-171743160D01*
X103910445Y-171753548D01*
X103927476Y-171767524D01*
X103941452Y-171784555D01*
X103951840Y-171803991D01*
X103958236Y-171825072D01*
X103961000Y-171853140D01*
X103961000Y-172316860D01*
X103958236Y-172344928D01*
X103951840Y-172366009D01*
X103941452Y-172385445D01*
X103927476Y-172402476D01*
X103910445Y-172416452D01*
X103891009Y-172426840D01*
X103869928Y-172433236D01*
X103841860Y-172436000D01*
X102028140Y-172436000D01*
X102000072Y-172433236D01*
X101978991Y-172426840D01*
X101959555Y-172416452D01*
X101942524Y-172402476D01*
X101928548Y-172385445D01*
X101918160Y-172366009D01*
X101911764Y-172344928D01*
X101909000Y-172316860D01*
X101909000Y-171853140D01*
X101911764Y-171825072D01*
X101918160Y-171803991D01*
X101928548Y-171784555D01*
X101942524Y-171767524D01*
X101959555Y-171753548D01*
X101978991Y-171743160D01*
X102000072Y-171736764D01*
X102028140Y-171734000D01*
X103841860Y-171734000D01*
X103869928Y-171736764D01*
G37*
G36*
X108819928Y-171736764D02*
G01*
X108841009Y-171743160D01*
X108860445Y-171753548D01*
X108877476Y-171767524D01*
X108891452Y-171784555D01*
X108901840Y-171803991D01*
X108908236Y-171825072D01*
X108911000Y-171853140D01*
X108911000Y-172316860D01*
X108908236Y-172344928D01*
X108901840Y-172366009D01*
X108891452Y-172385445D01*
X108877476Y-172402476D01*
X108860445Y-172416452D01*
X108841009Y-172426840D01*
X108819928Y-172433236D01*
X108791860Y-172436000D01*
X106978140Y-172436000D01*
X106950072Y-172433236D01*
X106928991Y-172426840D01*
X106909555Y-172416452D01*
X106892524Y-172402476D01*
X106878548Y-172385445D01*
X106868160Y-172366009D01*
X106861764Y-172344928D01*
X106859000Y-172316860D01*
X106859000Y-171853140D01*
X106861764Y-171825072D01*
X106868160Y-171803991D01*
X106878548Y-171784555D01*
X106892524Y-171767524D01*
X106909555Y-171753548D01*
X106928991Y-171743160D01*
X106950072Y-171736764D01*
X106978140Y-171734000D01*
X108791860Y-171734000D01*
X108819928Y-171736764D01*
G37*
G36*
X62011000Y-171651000D02*
G01*
X59909000Y-171651000D01*
X59909000Y-167049000D01*
X62011000Y-167049000D01*
X62011000Y-171651000D01*
G37*
G36*
X96021000Y-171581000D02*
G01*
X95019000Y-171581000D01*
X95019000Y-170679000D01*
X96021000Y-170679000D01*
X96021000Y-171581000D01*
G37*
G36*
X93089591Y-170483085D02*
G01*
X93123569Y-170493393D01*
X93154890Y-170510134D01*
X93182339Y-170532661D01*
X93204866Y-170560110D01*
X93221607Y-170591431D01*
X93231915Y-170625409D01*
X93236000Y-170666890D01*
X93236000Y-171268110D01*
X93231915Y-171309591D01*
X93221607Y-171343569D01*
X93204866Y-171374890D01*
X93182339Y-171402339D01*
X93154890Y-171424866D01*
X93123569Y-171441607D01*
X93089591Y-171451915D01*
X93048110Y-171456000D01*
X92371890Y-171456000D01*
X92330409Y-171451915D01*
X92296431Y-171441607D01*
X92265110Y-171424866D01*
X92237661Y-171402339D01*
X92215134Y-171374890D01*
X92198393Y-171343569D01*
X92188085Y-171309591D01*
X92184000Y-171268110D01*
X92184000Y-170666890D01*
X92188085Y-170625409D01*
X92198393Y-170591431D01*
X92215134Y-170560110D01*
X92237661Y-170532661D01*
X92265110Y-170510134D01*
X92296431Y-170493393D01*
X92330409Y-170483085D01*
X92371890Y-170479000D01*
X93048110Y-170479000D01*
X93089591Y-170483085D01*
G37*
G36*
X108819928Y-170466764D02*
G01*
X108841009Y-170473160D01*
X108860445Y-170483548D01*
X108877476Y-170497524D01*
X108891452Y-170514555D01*
X108901840Y-170533991D01*
X108908236Y-170555072D01*
X108911000Y-170583140D01*
X108911000Y-171046860D01*
X108908236Y-171074928D01*
X108901840Y-171096009D01*
X108891452Y-171115445D01*
X108877476Y-171132476D01*
X108860445Y-171146452D01*
X108841009Y-171156840D01*
X108819928Y-171163236D01*
X108791860Y-171166000D01*
X106978140Y-171166000D01*
X106950072Y-171163236D01*
X106928991Y-171156840D01*
X106909555Y-171146452D01*
X106892524Y-171132476D01*
X106878548Y-171115445D01*
X106868160Y-171096009D01*
X106861764Y-171074928D01*
X106859000Y-171046860D01*
X106859000Y-170583140D01*
X106861764Y-170555072D01*
X106868160Y-170533991D01*
X106878548Y-170514555D01*
X106892524Y-170497524D01*
X106909555Y-170483548D01*
X106928991Y-170473160D01*
X106950072Y-170466764D01*
X106978140Y-170464000D01*
X108791860Y-170464000D01*
X108819928Y-170466764D01*
G37*
G36*
X103869928Y-170466764D02*
G01*
X103891009Y-170473160D01*
X103910445Y-170483548D01*
X103927476Y-170497524D01*
X103941452Y-170514555D01*
X103951840Y-170533991D01*
X103958236Y-170555072D01*
X103961000Y-170583140D01*
X103961000Y-171046860D01*
X103958236Y-171074928D01*
X103951840Y-171096009D01*
X103941452Y-171115445D01*
X103927476Y-171132476D01*
X103910445Y-171146452D01*
X103891009Y-171156840D01*
X103869928Y-171163236D01*
X103841860Y-171166000D01*
X102028140Y-171166000D01*
X102000072Y-171163236D01*
X101978991Y-171156840D01*
X101959555Y-171146452D01*
X101942524Y-171132476D01*
X101928548Y-171115445D01*
X101918160Y-171096009D01*
X101911764Y-171074928D01*
X101909000Y-171046860D01*
X101909000Y-170583140D01*
X101911764Y-170555072D01*
X101918160Y-170533991D01*
X101928548Y-170514555D01*
X101942524Y-170497524D01*
X101959555Y-170483548D01*
X101978991Y-170473160D01*
X102000072Y-170466764D01*
X102028140Y-170464000D01*
X103841860Y-170464000D01*
X103869928Y-170466764D01*
G37*
G36*
X98021000Y-170631000D02*
G01*
X97019000Y-170631000D01*
X97019000Y-169729000D01*
X98021000Y-169729000D01*
X98021000Y-170631000D01*
G37*
G36*
X123467395Y-168625546D02*
G01*
X123640466Y-168697234D01*
X123717818Y-168748919D01*
X123796227Y-168801310D01*
X123928690Y-168933773D01*
X123928691Y-168933775D01*
X124032766Y-169089534D01*
X124104454Y-169262605D01*
X124141000Y-169446333D01*
X124141000Y-169633667D01*
X124104454Y-169817395D01*
X124032766Y-169990466D01*
X124005807Y-170030813D01*
X123928690Y-170146227D01*
X123796227Y-170278690D01*
X123717818Y-170331081D01*
X123640466Y-170382766D01*
X123467395Y-170454454D01*
X123283667Y-170491000D01*
X123096333Y-170491000D01*
X122912605Y-170454454D01*
X122739534Y-170382766D01*
X122662182Y-170331081D01*
X122583773Y-170278690D01*
X122451310Y-170146227D01*
X122374193Y-170030813D01*
X122347234Y-169990466D01*
X122275546Y-169817395D01*
X122239000Y-169633667D01*
X122239000Y-169446333D01*
X122275546Y-169262605D01*
X122347234Y-169089534D01*
X122451309Y-168933775D01*
X122451310Y-168933773D01*
X122583773Y-168801310D01*
X122662182Y-168748919D01*
X122739534Y-168697234D01*
X122912605Y-168625546D01*
X123096333Y-168589000D01*
X123283667Y-168589000D01*
X123467395Y-168625546D01*
G37*
G36*
X54989591Y-169213085D02*
G01*
X55023569Y-169223393D01*
X55054890Y-169240134D01*
X55082339Y-169262661D01*
X55104866Y-169290110D01*
X55121607Y-169321431D01*
X55131915Y-169355409D01*
X55136000Y-169396890D01*
X55136000Y-169998110D01*
X55131915Y-170039591D01*
X55121607Y-170073569D01*
X55104866Y-170104890D01*
X55082339Y-170132339D01*
X55054890Y-170154866D01*
X55023569Y-170171607D01*
X54989591Y-170181915D01*
X54948110Y-170186000D01*
X54271890Y-170186000D01*
X54230409Y-170181915D01*
X54196431Y-170171607D01*
X54165110Y-170154866D01*
X54137661Y-170132339D01*
X54115134Y-170104890D01*
X54098393Y-170073569D01*
X54088085Y-170039591D01*
X54084000Y-169998110D01*
X54084000Y-169396890D01*
X54088085Y-169355409D01*
X54098393Y-169321431D01*
X54115134Y-169290110D01*
X54137661Y-169262661D01*
X54165110Y-169240134D01*
X54196431Y-169223393D01*
X54230409Y-169213085D01*
X54271890Y-169209000D01*
X54948110Y-169209000D01*
X54989591Y-169213085D01*
G37*
G36*
X68959591Y-169213085D02*
G01*
X68993569Y-169223393D01*
X69024890Y-169240134D01*
X69052339Y-169262661D01*
X69074866Y-169290110D01*
X69091607Y-169321431D01*
X69101915Y-169355409D01*
X69106000Y-169396890D01*
X69106000Y-169998110D01*
X69101915Y-170039591D01*
X69091607Y-170073569D01*
X69074866Y-170104890D01*
X69052339Y-170132339D01*
X69024890Y-170154866D01*
X68993569Y-170171607D01*
X68959591Y-170181915D01*
X68918110Y-170186000D01*
X68241890Y-170186000D01*
X68200409Y-170181915D01*
X68166431Y-170171607D01*
X68135110Y-170154866D01*
X68107661Y-170132339D01*
X68085134Y-170104890D01*
X68068393Y-170073569D01*
X68058085Y-170039591D01*
X68054000Y-169998110D01*
X68054000Y-169396890D01*
X68058085Y-169355409D01*
X68068393Y-169321431D01*
X68085134Y-169290110D01*
X68107661Y-169262661D01*
X68135110Y-169240134D01*
X68166431Y-169223393D01*
X68200409Y-169213085D01*
X68241890Y-169209000D01*
X68918110Y-169209000D01*
X68959591Y-169213085D01*
G37*
G36*
X77430295Y-168475323D02*
G01*
X77437309Y-168477451D01*
X77451077Y-168484810D01*
X77473716Y-168494187D01*
X77497749Y-168498967D01*
X77522253Y-168498967D01*
X77546286Y-168494186D01*
X77568923Y-168484810D01*
X77582691Y-168477451D01*
X77589705Y-168475323D01*
X77603140Y-168474000D01*
X77916860Y-168474000D01*
X77930295Y-168475323D01*
X77937309Y-168477451D01*
X77951077Y-168484810D01*
X77973716Y-168494187D01*
X77997749Y-168498967D01*
X78022253Y-168498967D01*
X78046286Y-168494186D01*
X78068923Y-168484810D01*
X78082691Y-168477451D01*
X78089705Y-168475323D01*
X78103140Y-168474000D01*
X78416860Y-168474000D01*
X78430295Y-168475323D01*
X78437309Y-168477451D01*
X78451077Y-168484810D01*
X78473716Y-168494187D01*
X78497749Y-168498967D01*
X78522253Y-168498967D01*
X78546286Y-168494186D01*
X78568923Y-168484810D01*
X78582691Y-168477451D01*
X78589705Y-168475323D01*
X78603140Y-168474000D01*
X78916860Y-168474000D01*
X78930295Y-168475323D01*
X78937309Y-168477451D01*
X78951077Y-168484810D01*
X78973716Y-168494187D01*
X78997749Y-168498967D01*
X79022253Y-168498967D01*
X79046286Y-168494186D01*
X79068923Y-168484810D01*
X79082691Y-168477451D01*
X79089705Y-168475323D01*
X79103140Y-168474000D01*
X79416860Y-168474000D01*
X79430295Y-168475323D01*
X79437309Y-168477451D01*
X79451077Y-168484810D01*
X79473716Y-168494187D01*
X79497749Y-168498967D01*
X79522253Y-168498967D01*
X79546286Y-168494186D01*
X79568923Y-168484810D01*
X79582691Y-168477451D01*
X79589705Y-168475323D01*
X79603140Y-168474000D01*
X79916860Y-168474000D01*
X79930295Y-168475323D01*
X79937309Y-168477451D01*
X79951077Y-168484810D01*
X79973716Y-168494187D01*
X79997749Y-168498967D01*
X80022253Y-168498967D01*
X80046286Y-168494186D01*
X80068923Y-168484810D01*
X80082691Y-168477451D01*
X80089705Y-168475323D01*
X80103140Y-168474000D01*
X80416860Y-168474000D01*
X80430295Y-168475323D01*
X80437309Y-168477451D01*
X80451077Y-168484810D01*
X80473716Y-168494187D01*
X80497749Y-168498967D01*
X80522253Y-168498967D01*
X80546286Y-168494186D01*
X80568923Y-168484810D01*
X80582691Y-168477451D01*
X80589705Y-168475323D01*
X80603140Y-168474000D01*
X80916860Y-168474000D01*
X80930295Y-168475323D01*
X80937309Y-168477451D01*
X80951077Y-168484810D01*
X80973716Y-168494187D01*
X80997749Y-168498967D01*
X81022253Y-168498967D01*
X81046286Y-168494186D01*
X81068923Y-168484810D01*
X81082691Y-168477451D01*
X81089705Y-168475323D01*
X81103140Y-168474000D01*
X81416860Y-168474000D01*
X81430295Y-168475323D01*
X81437309Y-168477451D01*
X81451077Y-168484810D01*
X81473716Y-168494187D01*
X81497749Y-168498967D01*
X81522253Y-168498967D01*
X81546286Y-168494186D01*
X81568923Y-168484810D01*
X81582691Y-168477451D01*
X81589705Y-168475323D01*
X81603140Y-168474000D01*
X81916860Y-168474000D01*
X81930295Y-168475323D01*
X81937309Y-168477451D01*
X81951077Y-168484810D01*
X81973716Y-168494187D01*
X81997749Y-168498967D01*
X82022253Y-168498967D01*
X82046286Y-168494186D01*
X82068923Y-168484810D01*
X82082691Y-168477451D01*
X82089705Y-168475323D01*
X82103140Y-168474000D01*
X82416860Y-168474000D01*
X82430295Y-168475323D01*
X82437309Y-168477451D01*
X82451077Y-168484810D01*
X82473716Y-168494187D01*
X82497749Y-168498967D01*
X82522253Y-168498967D01*
X82546286Y-168494186D01*
X82568923Y-168484810D01*
X82582691Y-168477451D01*
X82589705Y-168475323D01*
X82603140Y-168474000D01*
X82916860Y-168474000D01*
X82930295Y-168475323D01*
X82937310Y-168477451D01*
X82943776Y-168480908D01*
X82949442Y-168485558D01*
X82954092Y-168491224D01*
X82957549Y-168497690D01*
X82959677Y-168504705D01*
X82961000Y-168518140D01*
X82961000Y-170006860D01*
X82959677Y-170020295D01*
X82957549Y-170027310D01*
X82954092Y-170033776D01*
X82949442Y-170039442D01*
X82943776Y-170044092D01*
X82937310Y-170047549D01*
X82930295Y-170049677D01*
X82916860Y-170051000D01*
X82603140Y-170051000D01*
X82589705Y-170049677D01*
X82582691Y-170047549D01*
X82568923Y-170040190D01*
X82546284Y-170030813D01*
X82522251Y-170026033D01*
X82497747Y-170026033D01*
X82473714Y-170030814D01*
X82451077Y-170040190D01*
X82437309Y-170047549D01*
X82430295Y-170049677D01*
X82416860Y-170051000D01*
X82103140Y-170051000D01*
X82089705Y-170049677D01*
X82082691Y-170047549D01*
X82068923Y-170040190D01*
X82046284Y-170030813D01*
X82022251Y-170026033D01*
X81997747Y-170026033D01*
X81973714Y-170030814D01*
X81951077Y-170040190D01*
X81937309Y-170047549D01*
X81930295Y-170049677D01*
X81916860Y-170051000D01*
X81603140Y-170051000D01*
X81589705Y-170049677D01*
X81582691Y-170047549D01*
X81568923Y-170040190D01*
X81546284Y-170030813D01*
X81522251Y-170026033D01*
X81497747Y-170026033D01*
X81473714Y-170030814D01*
X81451077Y-170040190D01*
X81437309Y-170047549D01*
X81430295Y-170049677D01*
X81416860Y-170051000D01*
X81103140Y-170051000D01*
X81089705Y-170049677D01*
X81082691Y-170047549D01*
X81068923Y-170040190D01*
X81046284Y-170030813D01*
X81022251Y-170026033D01*
X80997747Y-170026033D01*
X80973714Y-170030814D01*
X80951077Y-170040190D01*
X80937309Y-170047549D01*
X80930295Y-170049677D01*
X80916860Y-170051000D01*
X80603140Y-170051000D01*
X80589705Y-170049677D01*
X80582691Y-170047549D01*
X80568923Y-170040190D01*
X80546284Y-170030813D01*
X80522251Y-170026033D01*
X80497747Y-170026033D01*
X80473714Y-170030814D01*
X80451077Y-170040190D01*
X80437309Y-170047549D01*
X80430295Y-170049677D01*
X80416860Y-170051000D01*
X80103140Y-170051000D01*
X80089705Y-170049677D01*
X80082691Y-170047549D01*
X80068923Y-170040190D01*
X80046284Y-170030813D01*
X80022251Y-170026033D01*
X79997747Y-170026033D01*
X79973714Y-170030814D01*
X79951077Y-170040190D01*
X79937309Y-170047549D01*
X79930295Y-170049677D01*
X79916860Y-170051000D01*
X79603140Y-170051000D01*
X79589705Y-170049677D01*
X79582691Y-170047549D01*
X79568923Y-170040190D01*
X79546284Y-170030813D01*
X79522251Y-170026033D01*
X79497747Y-170026033D01*
X79473714Y-170030814D01*
X79451077Y-170040190D01*
X79437309Y-170047549D01*
X79430295Y-170049677D01*
X79416860Y-170051000D01*
X79103140Y-170051000D01*
X79089705Y-170049677D01*
X79082691Y-170047549D01*
X79068923Y-170040190D01*
X79046284Y-170030813D01*
X79022251Y-170026033D01*
X78997747Y-170026033D01*
X78973714Y-170030814D01*
X78951077Y-170040190D01*
X78937309Y-170047549D01*
X78930295Y-170049677D01*
X78916860Y-170051000D01*
X78603140Y-170051000D01*
X78589705Y-170049677D01*
X78582691Y-170047549D01*
X78568923Y-170040190D01*
X78546284Y-170030813D01*
X78522251Y-170026033D01*
X78497747Y-170026033D01*
X78473714Y-170030814D01*
X78451077Y-170040190D01*
X78437309Y-170047549D01*
X78430295Y-170049677D01*
X78416860Y-170051000D01*
X78103140Y-170051000D01*
X78089705Y-170049677D01*
X78082691Y-170047549D01*
X78068923Y-170040190D01*
X78046284Y-170030813D01*
X78022251Y-170026033D01*
X77997747Y-170026033D01*
X77973714Y-170030814D01*
X77951077Y-170040190D01*
X77937309Y-170047549D01*
X77930295Y-170049677D01*
X77916860Y-170051000D01*
X77603140Y-170051000D01*
X77589705Y-170049677D01*
X77582691Y-170047549D01*
X77568923Y-170040190D01*
X77546284Y-170030813D01*
X77522251Y-170026033D01*
X77497747Y-170026033D01*
X77473714Y-170030814D01*
X77451077Y-170040190D01*
X77437309Y-170047549D01*
X77430295Y-170049677D01*
X77416860Y-170051000D01*
X77103140Y-170051000D01*
X77089705Y-170049677D01*
X77082690Y-170047549D01*
X77076224Y-170044092D01*
X77070558Y-170039442D01*
X77065908Y-170033776D01*
X77062451Y-170027310D01*
X77060323Y-170020295D01*
X77059000Y-170006860D01*
X77059000Y-168518140D01*
X77060323Y-168504705D01*
X77062451Y-168497690D01*
X77065908Y-168491224D01*
X77070558Y-168485558D01*
X77076224Y-168480908D01*
X77082690Y-168477451D01*
X77089705Y-168475323D01*
X77103140Y-168474000D01*
X77416860Y-168474000D01*
X77430295Y-168475323D01*
G37*
G36*
X108819928Y-169196764D02*
G01*
X108841009Y-169203160D01*
X108860445Y-169213548D01*
X108877476Y-169227524D01*
X108891452Y-169244555D01*
X108901840Y-169263991D01*
X108908236Y-169285072D01*
X108911000Y-169313140D01*
X108911000Y-169776860D01*
X108908236Y-169804928D01*
X108901840Y-169826009D01*
X108891452Y-169845445D01*
X108877476Y-169862476D01*
X108860445Y-169876452D01*
X108841009Y-169886840D01*
X108819928Y-169893236D01*
X108791860Y-169896000D01*
X106978140Y-169896000D01*
X106950072Y-169893236D01*
X106928991Y-169886840D01*
X106909555Y-169876452D01*
X106892524Y-169862476D01*
X106878548Y-169845445D01*
X106868160Y-169826009D01*
X106861764Y-169804928D01*
X106859000Y-169776860D01*
X106859000Y-169313140D01*
X106861764Y-169285072D01*
X106868160Y-169263991D01*
X106878548Y-169244555D01*
X106892524Y-169227524D01*
X106909555Y-169213548D01*
X106928991Y-169203160D01*
X106950072Y-169196764D01*
X106978140Y-169194000D01*
X108791860Y-169194000D01*
X108819928Y-169196764D01*
G37*
G36*
X103869928Y-169196764D02*
G01*
X103891009Y-169203160D01*
X103910445Y-169213548D01*
X103927476Y-169227524D01*
X103941452Y-169244555D01*
X103951840Y-169263991D01*
X103958236Y-169285072D01*
X103961000Y-169313140D01*
X103961000Y-169776860D01*
X103958236Y-169804928D01*
X103951840Y-169826009D01*
X103941452Y-169845445D01*
X103927476Y-169862476D01*
X103910445Y-169876452D01*
X103891009Y-169886840D01*
X103869928Y-169893236D01*
X103841860Y-169896000D01*
X102028140Y-169896000D01*
X102000072Y-169893236D01*
X101978991Y-169886840D01*
X101959555Y-169876452D01*
X101942524Y-169862476D01*
X101928548Y-169845445D01*
X101918160Y-169826009D01*
X101911764Y-169804928D01*
X101909000Y-169776860D01*
X101909000Y-169313140D01*
X101911764Y-169285072D01*
X101918160Y-169263991D01*
X101928548Y-169244555D01*
X101942524Y-169227524D01*
X101959555Y-169213548D01*
X101978991Y-169203160D01*
X102000072Y-169196764D01*
X102028140Y-169194000D01*
X103841860Y-169194000D01*
X103869928Y-169196764D01*
G37*
G36*
X93089591Y-168908085D02*
G01*
X93123569Y-168918393D01*
X93154890Y-168935134D01*
X93182339Y-168957661D01*
X93204866Y-168985110D01*
X93221607Y-169016431D01*
X93231915Y-169050409D01*
X93236000Y-169091890D01*
X93236000Y-169693110D01*
X93231915Y-169734591D01*
X93221607Y-169768569D01*
X93204866Y-169799890D01*
X93182339Y-169827339D01*
X93154890Y-169849866D01*
X93123569Y-169866607D01*
X93089591Y-169876915D01*
X93048110Y-169881000D01*
X92371890Y-169881000D01*
X92330409Y-169876915D01*
X92296431Y-169866607D01*
X92265110Y-169849866D01*
X92237661Y-169827339D01*
X92215134Y-169799890D01*
X92198393Y-169768569D01*
X92188085Y-169734591D01*
X92184000Y-169693110D01*
X92184000Y-169091890D01*
X92188085Y-169050409D01*
X92198393Y-169016431D01*
X92215134Y-168985110D01*
X92237661Y-168957661D01*
X92265110Y-168935134D01*
X92296431Y-168918393D01*
X92330409Y-168908085D01*
X92371890Y-168904000D01*
X93048110Y-168904000D01*
X93089591Y-168908085D01*
G37*
G36*
X96021000Y-169681000D02*
G01*
X95019000Y-169681000D01*
X95019000Y-168779000D01*
X96021000Y-168779000D01*
X96021000Y-169681000D01*
G37*
G36*
X120927395Y-167355546D02*
G01*
X121100466Y-167427234D01*
X121135286Y-167450500D01*
X121256227Y-167531310D01*
X121388690Y-167663773D01*
X121396301Y-167675164D01*
X121492766Y-167819534D01*
X121564454Y-167992605D01*
X121601000Y-168176333D01*
X121601000Y-168363667D01*
X121564454Y-168547395D01*
X121492766Y-168720466D01*
X121492765Y-168720467D01*
X121388690Y-168876227D01*
X121256227Y-169008690D01*
X121193790Y-169050409D01*
X121100466Y-169112766D01*
X120927395Y-169184454D01*
X120743667Y-169221000D01*
X120556333Y-169221000D01*
X120372605Y-169184454D01*
X120199534Y-169112766D01*
X120106210Y-169050409D01*
X120043773Y-169008690D01*
X119911310Y-168876227D01*
X119807235Y-168720467D01*
X119807234Y-168720466D01*
X119735546Y-168547395D01*
X119699000Y-168363667D01*
X119699000Y-168176333D01*
X119735546Y-167992605D01*
X119807234Y-167819534D01*
X119903699Y-167675164D01*
X119911310Y-167663773D01*
X120043773Y-167531310D01*
X120164714Y-167450500D01*
X120199534Y-167427234D01*
X120372605Y-167355546D01*
X120556333Y-167319000D01*
X120743667Y-167319000D01*
X120927395Y-167355546D01*
G37*
G36*
X30771000Y-168831000D02*
G01*
X28969000Y-168831000D01*
X28969000Y-167729000D01*
X30771000Y-167729000D01*
X30771000Y-168831000D01*
G37*
G36*
X37071000Y-168831000D02*
G01*
X35269000Y-168831000D01*
X35269000Y-167729000D01*
X37071000Y-167729000D01*
X37071000Y-168831000D01*
G37*
G36*
X108819928Y-167926764D02*
G01*
X108841009Y-167933160D01*
X108860445Y-167943548D01*
X108877476Y-167957524D01*
X108891452Y-167974555D01*
X108901840Y-167993991D01*
X108908236Y-168015072D01*
X108911000Y-168043140D01*
X108911000Y-168506860D01*
X108908236Y-168534928D01*
X108901840Y-168556009D01*
X108891452Y-168575445D01*
X108877476Y-168592476D01*
X108860445Y-168606452D01*
X108841009Y-168616840D01*
X108819928Y-168623236D01*
X108791860Y-168626000D01*
X106978140Y-168626000D01*
X106950072Y-168623236D01*
X106928991Y-168616840D01*
X106909555Y-168606452D01*
X106892524Y-168592476D01*
X106878548Y-168575445D01*
X106868160Y-168556009D01*
X106861764Y-168534928D01*
X106859000Y-168506860D01*
X106859000Y-168043140D01*
X106861764Y-168015072D01*
X106868160Y-167993991D01*
X106878548Y-167974555D01*
X106892524Y-167957524D01*
X106909555Y-167943548D01*
X106928991Y-167933160D01*
X106950072Y-167926764D01*
X106978140Y-167924000D01*
X108791860Y-167924000D01*
X108819928Y-167926764D01*
G37*
G36*
X103869928Y-167926764D02*
G01*
X103891009Y-167933160D01*
X103910445Y-167943548D01*
X103927476Y-167957524D01*
X103941452Y-167974555D01*
X103951840Y-167993991D01*
X103958236Y-168015072D01*
X103961000Y-168043140D01*
X103961000Y-168506860D01*
X103958236Y-168534928D01*
X103951840Y-168556009D01*
X103941452Y-168575445D01*
X103927476Y-168592476D01*
X103910445Y-168606452D01*
X103891009Y-168616840D01*
X103869928Y-168623236D01*
X103841860Y-168626000D01*
X102028140Y-168626000D01*
X102000072Y-168623236D01*
X101978991Y-168616840D01*
X101959555Y-168606452D01*
X101942524Y-168592476D01*
X101928548Y-168575445D01*
X101918160Y-168556009D01*
X101911764Y-168534928D01*
X101909000Y-168506860D01*
X101909000Y-168043140D01*
X101911764Y-168015072D01*
X101918160Y-167993991D01*
X101928548Y-167974555D01*
X101942524Y-167957524D01*
X101959555Y-167943548D01*
X101978991Y-167933160D01*
X102000072Y-167926764D01*
X102028140Y-167924000D01*
X103841860Y-167924000D01*
X103869928Y-167926764D01*
G37*
G36*
X54989591Y-167638085D02*
G01*
X55023569Y-167648393D01*
X55054890Y-167665134D01*
X55082339Y-167687661D01*
X55104866Y-167715110D01*
X55121607Y-167746431D01*
X55131915Y-167780409D01*
X55136000Y-167821890D01*
X55136000Y-168423110D01*
X55131915Y-168464591D01*
X55121607Y-168498569D01*
X55104866Y-168529890D01*
X55082339Y-168557339D01*
X55054890Y-168579866D01*
X55023569Y-168596607D01*
X54989591Y-168606915D01*
X54948110Y-168611000D01*
X54271890Y-168611000D01*
X54230409Y-168606915D01*
X54196431Y-168596607D01*
X54165110Y-168579866D01*
X54137661Y-168557339D01*
X54115134Y-168529890D01*
X54098393Y-168498569D01*
X54088085Y-168464591D01*
X54084000Y-168423110D01*
X54084000Y-167821890D01*
X54088085Y-167780409D01*
X54098393Y-167746431D01*
X54115134Y-167715110D01*
X54137661Y-167687661D01*
X54165110Y-167665134D01*
X54196431Y-167648393D01*
X54230409Y-167638085D01*
X54271890Y-167634000D01*
X54948110Y-167634000D01*
X54989591Y-167638085D01*
G37*
G36*
X68959591Y-167638085D02*
G01*
X68993569Y-167648393D01*
X69024890Y-167665134D01*
X69052339Y-167687661D01*
X69074866Y-167715110D01*
X69091607Y-167746431D01*
X69101915Y-167780409D01*
X69106000Y-167821890D01*
X69106000Y-168423110D01*
X69101915Y-168464591D01*
X69091607Y-168498569D01*
X69074866Y-168529890D01*
X69052339Y-168557339D01*
X69024890Y-168579866D01*
X68993569Y-168596607D01*
X68959591Y-168606915D01*
X68918110Y-168611000D01*
X68241890Y-168611000D01*
X68200409Y-168606915D01*
X68166431Y-168596607D01*
X68135110Y-168579866D01*
X68107661Y-168557339D01*
X68085134Y-168529890D01*
X68068393Y-168498569D01*
X68058085Y-168464591D01*
X68054000Y-168423110D01*
X68054000Y-167821890D01*
X68058085Y-167780409D01*
X68068393Y-167746431D01*
X68085134Y-167715110D01*
X68107661Y-167687661D01*
X68135110Y-167665134D01*
X68166431Y-167648393D01*
X68200409Y-167638085D01*
X68241890Y-167634000D01*
X68918110Y-167634000D01*
X68959591Y-167638085D01*
G37*
G36*
X76605295Y-162150323D02*
G01*
X76612310Y-162152451D01*
X76618776Y-162155908D01*
X76624442Y-162160558D01*
X76629092Y-162166224D01*
X76632549Y-162172690D01*
X76634677Y-162179705D01*
X76636000Y-162193140D01*
X76636000Y-162506860D01*
X76634677Y-162520295D01*
X76632549Y-162527309D01*
X76625190Y-162541077D01*
X76615813Y-162563716D01*
X76611033Y-162587749D01*
X76611033Y-162612253D01*
X76615814Y-162636286D01*
X76625190Y-162658923D01*
X76632549Y-162672691D01*
X76634677Y-162679705D01*
X76636000Y-162693140D01*
X76636000Y-163006860D01*
X76634677Y-163020295D01*
X76632549Y-163027309D01*
X76625190Y-163041077D01*
X76615813Y-163063716D01*
X76611033Y-163087749D01*
X76611033Y-163112253D01*
X76615814Y-163136286D01*
X76625190Y-163158923D01*
X76632549Y-163172691D01*
X76634677Y-163179705D01*
X76636000Y-163193140D01*
X76636000Y-163506860D01*
X76634677Y-163520295D01*
X76632549Y-163527309D01*
X76625190Y-163541077D01*
X76615813Y-163563716D01*
X76611033Y-163587749D01*
X76611033Y-163612253D01*
X76615814Y-163636286D01*
X76625190Y-163658923D01*
X76632549Y-163672691D01*
X76634677Y-163679705D01*
X76636000Y-163693140D01*
X76636000Y-164006860D01*
X76634677Y-164020295D01*
X76632549Y-164027309D01*
X76625190Y-164041077D01*
X76615813Y-164063716D01*
X76611033Y-164087749D01*
X76611033Y-164112253D01*
X76615814Y-164136286D01*
X76625190Y-164158923D01*
X76632549Y-164172691D01*
X76634677Y-164179705D01*
X76636000Y-164193140D01*
X76636000Y-164506860D01*
X76634677Y-164520295D01*
X76632549Y-164527309D01*
X76625190Y-164541077D01*
X76615813Y-164563716D01*
X76611033Y-164587749D01*
X76611033Y-164612253D01*
X76615814Y-164636286D01*
X76625190Y-164658923D01*
X76632549Y-164672691D01*
X76634677Y-164679705D01*
X76636000Y-164693140D01*
X76636000Y-165006860D01*
X76634677Y-165020295D01*
X76632549Y-165027309D01*
X76625190Y-165041077D01*
X76615813Y-165063716D01*
X76611033Y-165087749D01*
X76611033Y-165112253D01*
X76615814Y-165136286D01*
X76625190Y-165158923D01*
X76632549Y-165172691D01*
X76634677Y-165179705D01*
X76636000Y-165193140D01*
X76636000Y-165506860D01*
X76634677Y-165520295D01*
X76632549Y-165527309D01*
X76625190Y-165541077D01*
X76615813Y-165563716D01*
X76611033Y-165587749D01*
X76611033Y-165612253D01*
X76615814Y-165636286D01*
X76625190Y-165658923D01*
X76632549Y-165672691D01*
X76634677Y-165679705D01*
X76636000Y-165693140D01*
X76636000Y-166006860D01*
X76634677Y-166020295D01*
X76632549Y-166027309D01*
X76625190Y-166041077D01*
X76615813Y-166063716D01*
X76611033Y-166087749D01*
X76611033Y-166112253D01*
X76615814Y-166136286D01*
X76625190Y-166158923D01*
X76632549Y-166172691D01*
X76634677Y-166179705D01*
X76636000Y-166193140D01*
X76636000Y-166506860D01*
X76634677Y-166520295D01*
X76632549Y-166527309D01*
X76625190Y-166541077D01*
X76615813Y-166563716D01*
X76611033Y-166587749D01*
X76611033Y-166612253D01*
X76615814Y-166636286D01*
X76625190Y-166658923D01*
X76632549Y-166672691D01*
X76634677Y-166679705D01*
X76636000Y-166693140D01*
X76636000Y-167006860D01*
X76634677Y-167020295D01*
X76632549Y-167027309D01*
X76625190Y-167041077D01*
X76615813Y-167063716D01*
X76611033Y-167087749D01*
X76611033Y-167112253D01*
X76615814Y-167136286D01*
X76625190Y-167158923D01*
X76632549Y-167172691D01*
X76634677Y-167179705D01*
X76636000Y-167193140D01*
X76636000Y-167506860D01*
X76634677Y-167520295D01*
X76632549Y-167527309D01*
X76625190Y-167541077D01*
X76615813Y-167563716D01*
X76611033Y-167587749D01*
X76611033Y-167612253D01*
X76615814Y-167636286D01*
X76625190Y-167658923D01*
X76632549Y-167672691D01*
X76634677Y-167679705D01*
X76636000Y-167693140D01*
X76636000Y-168006860D01*
X76634677Y-168020295D01*
X76632549Y-168027310D01*
X76629092Y-168033776D01*
X76624442Y-168039442D01*
X76618776Y-168044092D01*
X76612310Y-168047549D01*
X76605295Y-168049677D01*
X76591860Y-168051000D01*
X75103140Y-168051000D01*
X75089705Y-168049677D01*
X75082690Y-168047549D01*
X75076224Y-168044092D01*
X75070558Y-168039442D01*
X75065908Y-168033776D01*
X75062451Y-168027310D01*
X75060323Y-168020295D01*
X75059000Y-168006860D01*
X75059000Y-167693140D01*
X75060323Y-167679705D01*
X75062451Y-167672691D01*
X75069810Y-167658923D01*
X75079187Y-167636284D01*
X75083967Y-167612251D01*
X75083967Y-167587747D01*
X75079186Y-167563714D01*
X75069810Y-167541077D01*
X75062451Y-167527309D01*
X75060323Y-167520295D01*
X75059000Y-167506860D01*
X75059000Y-167193140D01*
X75060323Y-167179705D01*
X75062451Y-167172691D01*
X75069810Y-167158923D01*
X75079187Y-167136284D01*
X75083967Y-167112251D01*
X75083967Y-167087747D01*
X75079186Y-167063714D01*
X75069810Y-167041077D01*
X75062451Y-167027309D01*
X75060323Y-167020295D01*
X75059000Y-167006860D01*
X75059000Y-166693140D01*
X75060323Y-166679705D01*
X75062451Y-166672691D01*
X75069810Y-166658923D01*
X75079187Y-166636284D01*
X75083967Y-166612251D01*
X75083967Y-166587747D01*
X75079186Y-166563714D01*
X75069810Y-166541077D01*
X75062451Y-166527309D01*
X75060323Y-166520295D01*
X75059000Y-166506860D01*
X75059000Y-166193140D01*
X75060323Y-166179705D01*
X75062451Y-166172691D01*
X75069810Y-166158923D01*
X75079187Y-166136284D01*
X75083967Y-166112251D01*
X75083967Y-166087747D01*
X75079186Y-166063714D01*
X75069810Y-166041077D01*
X75062451Y-166027309D01*
X75060323Y-166020295D01*
X75059000Y-166006860D01*
X75059000Y-165693140D01*
X75060323Y-165679705D01*
X75062451Y-165672691D01*
X75069810Y-165658923D01*
X75079187Y-165636284D01*
X75083967Y-165612251D01*
X75083967Y-165587747D01*
X75079186Y-165563714D01*
X75069810Y-165541077D01*
X75062451Y-165527309D01*
X75060323Y-165520295D01*
X75059000Y-165506860D01*
X75059000Y-165193140D01*
X75060323Y-165179705D01*
X75062451Y-165172691D01*
X75069810Y-165158923D01*
X75079187Y-165136284D01*
X75083967Y-165112251D01*
X75083967Y-165087747D01*
X75079186Y-165063714D01*
X75069810Y-165041077D01*
X75062451Y-165027309D01*
X75060323Y-165020295D01*
X75059000Y-165006860D01*
X75059000Y-164693140D01*
X75060323Y-164679705D01*
X75062451Y-164672691D01*
X75069810Y-164658923D01*
X75079187Y-164636284D01*
X75083967Y-164612251D01*
X75083967Y-164587747D01*
X75079186Y-164563714D01*
X75069810Y-164541077D01*
X75062451Y-164527309D01*
X75060323Y-164520295D01*
X75059000Y-164506860D01*
X75059000Y-164193140D01*
X75060323Y-164179705D01*
X75062451Y-164172691D01*
X75069810Y-164158923D01*
X75079187Y-164136284D01*
X75083967Y-164112251D01*
X75083967Y-164087747D01*
X75079186Y-164063714D01*
X75069810Y-164041077D01*
X75062451Y-164027309D01*
X75060323Y-164020295D01*
X75059000Y-164006860D01*
X75059000Y-163693140D01*
X75060323Y-163679705D01*
X75062451Y-163672691D01*
X75069810Y-163658923D01*
X75079187Y-163636284D01*
X75083967Y-163612251D01*
X75083967Y-163587747D01*
X75079186Y-163563714D01*
X75069810Y-163541077D01*
X75062451Y-163527309D01*
X75060323Y-163520295D01*
X75059000Y-163506860D01*
X75059000Y-163193140D01*
X75060323Y-163179705D01*
X75062451Y-163172691D01*
X75069810Y-163158923D01*
X75079187Y-163136284D01*
X75083967Y-163112251D01*
X75083967Y-163087747D01*
X75079186Y-163063714D01*
X75069810Y-163041077D01*
X75062451Y-163027309D01*
X75060323Y-163020295D01*
X75059000Y-163006860D01*
X75059000Y-162693140D01*
X75060323Y-162679705D01*
X75062451Y-162672691D01*
X75069810Y-162658923D01*
X75079187Y-162636284D01*
X75083967Y-162612251D01*
X75083967Y-162587747D01*
X75079186Y-162563714D01*
X75069810Y-162541077D01*
X75062451Y-162527309D01*
X75060323Y-162520295D01*
X75059000Y-162506860D01*
X75059000Y-162193140D01*
X75060323Y-162179705D01*
X75062451Y-162172690D01*
X75065908Y-162166224D01*
X75070558Y-162160558D01*
X75076224Y-162155908D01*
X75082690Y-162152451D01*
X75089705Y-162150323D01*
X75103140Y-162149000D01*
X76591860Y-162149000D01*
X76605295Y-162150323D01*
G37*
G36*
X84930295Y-162150323D02*
G01*
X84937310Y-162152451D01*
X84943776Y-162155908D01*
X84949442Y-162160558D01*
X84954092Y-162166224D01*
X84957549Y-162172690D01*
X84959677Y-162179705D01*
X84961000Y-162193140D01*
X84961000Y-162506860D01*
X84959677Y-162520295D01*
X84957549Y-162527309D01*
X84950190Y-162541077D01*
X84940813Y-162563716D01*
X84936033Y-162587749D01*
X84936033Y-162612253D01*
X84940814Y-162636286D01*
X84950190Y-162658923D01*
X84957549Y-162672691D01*
X84959677Y-162679705D01*
X84961000Y-162693140D01*
X84961000Y-163006860D01*
X84959677Y-163020295D01*
X84957549Y-163027309D01*
X84950190Y-163041077D01*
X84940813Y-163063716D01*
X84936033Y-163087749D01*
X84936033Y-163112253D01*
X84940814Y-163136286D01*
X84950190Y-163158923D01*
X84957549Y-163172691D01*
X84959677Y-163179705D01*
X84961000Y-163193140D01*
X84961000Y-163506860D01*
X84959677Y-163520295D01*
X84957549Y-163527309D01*
X84950190Y-163541077D01*
X84940813Y-163563716D01*
X84936033Y-163587749D01*
X84936033Y-163612253D01*
X84940814Y-163636286D01*
X84950190Y-163658923D01*
X84957549Y-163672691D01*
X84959677Y-163679705D01*
X84961000Y-163693140D01*
X84961000Y-164006860D01*
X84959677Y-164020295D01*
X84957549Y-164027309D01*
X84950190Y-164041077D01*
X84940813Y-164063716D01*
X84936033Y-164087749D01*
X84936033Y-164112253D01*
X84940814Y-164136286D01*
X84950190Y-164158923D01*
X84957549Y-164172691D01*
X84959677Y-164179705D01*
X84961000Y-164193140D01*
X84961000Y-164506860D01*
X84959677Y-164520295D01*
X84957549Y-164527309D01*
X84950190Y-164541077D01*
X84940813Y-164563716D01*
X84936033Y-164587749D01*
X84936033Y-164612253D01*
X84940814Y-164636286D01*
X84950190Y-164658923D01*
X84957549Y-164672691D01*
X84959677Y-164679705D01*
X84961000Y-164693140D01*
X84961000Y-165006860D01*
X84959677Y-165020295D01*
X84957549Y-165027309D01*
X84950190Y-165041077D01*
X84940813Y-165063716D01*
X84936033Y-165087749D01*
X84936033Y-165112253D01*
X84940814Y-165136286D01*
X84950190Y-165158923D01*
X84957549Y-165172691D01*
X84959677Y-165179705D01*
X84961000Y-165193140D01*
X84961000Y-165506860D01*
X84959677Y-165520295D01*
X84957549Y-165527309D01*
X84950190Y-165541077D01*
X84940813Y-165563716D01*
X84936033Y-165587749D01*
X84936033Y-165612253D01*
X84940814Y-165636286D01*
X84950190Y-165658923D01*
X84957549Y-165672691D01*
X84959677Y-165679705D01*
X84961000Y-165693140D01*
X84961000Y-166006860D01*
X84959677Y-166020295D01*
X84957549Y-166027309D01*
X84950190Y-166041077D01*
X84940813Y-166063716D01*
X84936033Y-166087749D01*
X84936033Y-166112253D01*
X84940814Y-166136286D01*
X84950190Y-166158923D01*
X84957549Y-166172691D01*
X84959677Y-166179705D01*
X84961000Y-166193140D01*
X84961000Y-166506860D01*
X84959677Y-166520295D01*
X84957549Y-166527309D01*
X84950190Y-166541077D01*
X84940813Y-166563716D01*
X84936033Y-166587749D01*
X84936033Y-166612253D01*
X84940814Y-166636286D01*
X84950190Y-166658923D01*
X84957549Y-166672691D01*
X84959677Y-166679705D01*
X84961000Y-166693140D01*
X84961000Y-167006860D01*
X84959677Y-167020295D01*
X84957549Y-167027309D01*
X84950190Y-167041077D01*
X84940813Y-167063716D01*
X84936033Y-167087749D01*
X84936033Y-167112253D01*
X84940814Y-167136286D01*
X84950190Y-167158923D01*
X84957549Y-167172691D01*
X84959677Y-167179705D01*
X84961000Y-167193140D01*
X84961000Y-167506860D01*
X84959677Y-167520295D01*
X84957549Y-167527309D01*
X84950190Y-167541077D01*
X84940813Y-167563716D01*
X84936033Y-167587749D01*
X84936033Y-167612253D01*
X84940814Y-167636286D01*
X84950190Y-167658923D01*
X84957549Y-167672691D01*
X84959677Y-167679705D01*
X84961000Y-167693140D01*
X84961000Y-168006860D01*
X84959677Y-168020295D01*
X84957549Y-168027310D01*
X84954092Y-168033776D01*
X84949442Y-168039442D01*
X84943776Y-168044092D01*
X84937310Y-168047549D01*
X84930295Y-168049677D01*
X84916860Y-168051000D01*
X83428140Y-168051000D01*
X83414705Y-168049677D01*
X83407690Y-168047549D01*
X83401224Y-168044092D01*
X83395558Y-168039442D01*
X83390908Y-168033776D01*
X83387451Y-168027310D01*
X83385323Y-168020295D01*
X83384000Y-168006860D01*
X83384000Y-167693140D01*
X83385323Y-167679705D01*
X83387451Y-167672691D01*
X83394810Y-167658923D01*
X83404187Y-167636284D01*
X83408967Y-167612251D01*
X83408967Y-167587747D01*
X83404186Y-167563714D01*
X83394810Y-167541077D01*
X83387451Y-167527309D01*
X83385323Y-167520295D01*
X83384000Y-167506860D01*
X83384000Y-167193140D01*
X83385323Y-167179705D01*
X83387451Y-167172691D01*
X83394810Y-167158923D01*
X83404187Y-167136284D01*
X83408967Y-167112251D01*
X83408967Y-167087747D01*
X83404186Y-167063714D01*
X83394810Y-167041077D01*
X83387451Y-167027309D01*
X83385323Y-167020295D01*
X83384000Y-167006860D01*
X83384000Y-166693140D01*
X83385323Y-166679705D01*
X83387451Y-166672691D01*
X83394810Y-166658923D01*
X83404187Y-166636284D01*
X83408967Y-166612251D01*
X83408967Y-166587747D01*
X83404186Y-166563714D01*
X83394810Y-166541077D01*
X83387451Y-166527309D01*
X83385323Y-166520295D01*
X83384000Y-166506860D01*
X83384000Y-166193140D01*
X83385323Y-166179705D01*
X83387451Y-166172691D01*
X83394810Y-166158923D01*
X83404187Y-166136284D01*
X83408967Y-166112251D01*
X83408967Y-166087747D01*
X83404186Y-166063714D01*
X83394810Y-166041077D01*
X83387451Y-166027309D01*
X83385323Y-166020295D01*
X83384000Y-166006860D01*
X83384000Y-165693140D01*
X83385323Y-165679705D01*
X83387451Y-165672691D01*
X83394810Y-165658923D01*
X83404187Y-165636284D01*
X83408967Y-165612251D01*
X83408967Y-165587747D01*
X83404186Y-165563714D01*
X83394810Y-165541077D01*
X83387451Y-165527309D01*
X83385323Y-165520295D01*
X83384000Y-165506860D01*
X83384000Y-165193140D01*
X83385323Y-165179705D01*
X83387451Y-165172691D01*
X83394810Y-165158923D01*
X83404187Y-165136284D01*
X83408967Y-165112251D01*
X83408967Y-165087747D01*
X83404186Y-165063714D01*
X83394810Y-165041077D01*
X83387451Y-165027309D01*
X83385323Y-165020295D01*
X83384000Y-165006860D01*
X83384000Y-164693140D01*
X83385323Y-164679705D01*
X83387451Y-164672691D01*
X83394810Y-164658923D01*
X83404187Y-164636284D01*
X83408967Y-164612251D01*
X83408967Y-164587747D01*
X83404186Y-164563714D01*
X83394810Y-164541077D01*
X83387451Y-164527309D01*
X83385323Y-164520295D01*
X83384000Y-164506860D01*
X83384000Y-164193140D01*
X83385323Y-164179705D01*
X83387451Y-164172691D01*
X83394810Y-164158923D01*
X83404187Y-164136284D01*
X83408967Y-164112251D01*
X83408967Y-164087747D01*
X83404186Y-164063714D01*
X83394810Y-164041077D01*
X83387451Y-164027309D01*
X83385323Y-164020295D01*
X83384000Y-164006860D01*
X83384000Y-163693140D01*
X83385323Y-163679705D01*
X83387451Y-163672691D01*
X83394810Y-163658923D01*
X83404187Y-163636284D01*
X83408967Y-163612251D01*
X83408967Y-163587747D01*
X83404186Y-163563714D01*
X83394810Y-163541077D01*
X83387451Y-163527309D01*
X83385323Y-163520295D01*
X83384000Y-163506860D01*
X83384000Y-163193140D01*
X83385323Y-163179705D01*
X83387451Y-163172691D01*
X83394810Y-163158923D01*
X83404187Y-163136284D01*
X83408967Y-163112251D01*
X83408967Y-163087747D01*
X83404186Y-163063714D01*
X83394810Y-163041077D01*
X83387451Y-163027309D01*
X83385323Y-163020295D01*
X83384000Y-163006860D01*
X83384000Y-162693140D01*
X83385323Y-162679705D01*
X83387451Y-162672691D01*
X83394810Y-162658923D01*
X83404187Y-162636284D01*
X83408967Y-162612251D01*
X83408967Y-162587747D01*
X83404186Y-162563714D01*
X83394810Y-162541077D01*
X83387451Y-162527309D01*
X83385323Y-162520295D01*
X83384000Y-162506860D01*
X83384000Y-162193140D01*
X83385323Y-162179705D01*
X83387451Y-162172690D01*
X83390908Y-162166224D01*
X83395558Y-162160558D01*
X83401224Y-162155908D01*
X83407690Y-162152451D01*
X83414705Y-162150323D01*
X83428140Y-162149000D01*
X84916860Y-162149000D01*
X84930295Y-162150323D01*
G37*
G36*
X123467395Y-166085546D02*
G01*
X123640466Y-166157234D01*
X123694203Y-166193140D01*
X123796227Y-166261310D01*
X123928690Y-166393773D01*
X123981081Y-166472182D01*
X124032766Y-166549534D01*
X124104454Y-166722605D01*
X124141000Y-166906333D01*
X124141000Y-167093667D01*
X124104454Y-167277395D01*
X124032766Y-167450466D01*
X124032765Y-167450467D01*
X123928690Y-167606227D01*
X123796227Y-167738690D01*
X123733790Y-167780409D01*
X123640466Y-167842766D01*
X123467395Y-167914454D01*
X123283667Y-167951000D01*
X123096333Y-167951000D01*
X122912605Y-167914454D01*
X122739534Y-167842766D01*
X122646210Y-167780409D01*
X122583773Y-167738690D01*
X122451310Y-167606227D01*
X122347235Y-167450467D01*
X122347234Y-167450466D01*
X122275546Y-167277395D01*
X122239000Y-167093667D01*
X122239000Y-166906333D01*
X122275546Y-166722605D01*
X122347234Y-166549534D01*
X122398919Y-166472182D01*
X122451310Y-166393773D01*
X122583773Y-166261310D01*
X122685797Y-166193140D01*
X122739534Y-166157234D01*
X122912605Y-166085546D01*
X123096333Y-166049000D01*
X123283667Y-166049000D01*
X123467395Y-166085546D01*
G37*
G36*
X120927395Y-164815546D02*
G01*
X121100466Y-164887234D01*
X121177818Y-164938919D01*
X121256227Y-164991310D01*
X121388690Y-165123773D01*
X121412176Y-165158923D01*
X121492766Y-165279534D01*
X121564454Y-165452605D01*
X121601000Y-165636333D01*
X121601000Y-165823667D01*
X121564454Y-166007395D01*
X121492766Y-166180466D01*
X121472337Y-166211040D01*
X121388690Y-166336227D01*
X121256227Y-166468690D01*
X121199887Y-166506335D01*
X121100466Y-166572766D01*
X120927395Y-166644454D01*
X120743667Y-166681000D01*
X120556333Y-166681000D01*
X120372605Y-166644454D01*
X120199534Y-166572766D01*
X120100113Y-166506335D01*
X120043773Y-166468690D01*
X119911310Y-166336227D01*
X119827663Y-166211040D01*
X119807234Y-166180466D01*
X119735546Y-166007395D01*
X119699000Y-165823667D01*
X119699000Y-165636333D01*
X119735546Y-165452605D01*
X119807234Y-165279534D01*
X119887824Y-165158923D01*
X119911310Y-165123773D01*
X120043773Y-164991310D01*
X120122182Y-164938919D01*
X120199534Y-164887234D01*
X120372605Y-164815546D01*
X120556333Y-164779000D01*
X120743667Y-164779000D01*
X120927395Y-164815546D01*
G37*
G36*
X49010000Y-165204911D02*
G01*
X49012402Y-165229297D01*
X49019515Y-165252746D01*
X49031066Y-165274357D01*
X49038456Y-165284310D01*
X49046199Y-165293725D01*
X49052581Y-165301484D01*
X49057326Y-165310339D01*
X49057326Y-165310340D01*
X49060242Y-165319915D01*
X49060242Y-165319918D01*
X49060252Y-165319950D01*
X49061247Y-165330000D01*
X49061247Y-165330065D01*
X49061852Y-165336175D01*
X49061852Y-166323860D01*
X49060263Y-166339999D01*
X49057348Y-166349608D01*
X49052610Y-166358472D01*
X49046237Y-166366237D01*
X49038472Y-166372610D01*
X49029608Y-166377348D01*
X49019999Y-166380263D01*
X49003860Y-166381852D01*
X47516140Y-166381852D01*
X47500001Y-166380263D01*
X47490392Y-166377348D01*
X47481528Y-166372610D01*
X47473763Y-166366237D01*
X47467390Y-166358472D01*
X47462652Y-166349608D01*
X47459737Y-166339999D01*
X47458148Y-166323860D01*
X47458148Y-165336140D01*
X47459737Y-165320001D01*
X47462652Y-165310392D01*
X47467390Y-165301528D01*
X47481258Y-165284630D01*
X47481347Y-165284541D01*
X47481423Y-165284429D01*
X47481575Y-165284243D01*
X47481557Y-165284229D01*
X47495033Y-165264214D01*
X47504489Y-165241608D01*
X47509354Y-165217592D01*
X47510000Y-165204903D01*
X47510000Y-164280000D01*
X49010000Y-164280000D01*
X49010000Y-165204911D01*
G37*
G36*
X98169591Y-164615585D02*
G01*
X98203569Y-164625893D01*
X98234890Y-164642634D01*
X98262339Y-164665161D01*
X98284866Y-164692610D01*
X98301607Y-164723931D01*
X98311915Y-164757909D01*
X98316000Y-164799390D01*
X98316000Y-165400610D01*
X98311915Y-165442091D01*
X98301607Y-165476069D01*
X98284866Y-165507390D01*
X98262339Y-165534839D01*
X98234890Y-165557366D01*
X98203569Y-165574107D01*
X98169591Y-165584415D01*
X98128110Y-165588500D01*
X97451890Y-165588500D01*
X97410409Y-165584415D01*
X97376431Y-165574107D01*
X97345110Y-165557366D01*
X97317661Y-165534839D01*
X97295134Y-165507390D01*
X97278393Y-165476069D01*
X97268085Y-165442091D01*
X97264000Y-165400610D01*
X97264000Y-164799390D01*
X97268085Y-164757909D01*
X97278393Y-164723931D01*
X97295134Y-164692610D01*
X97317661Y-164665161D01*
X97345110Y-164642634D01*
X97376431Y-164625893D01*
X97410409Y-164615585D01*
X97451890Y-164611500D01*
X98128110Y-164611500D01*
X98169591Y-164615585D01*
G37*
G36*
X129834299Y-162179705D02*
G01*
X130028871Y-162218408D01*
X130333883Y-162344748D01*
X130608387Y-162528166D01*
X130841834Y-162761613D01*
X131025252Y-163036117D01*
X131113638Y-163249500D01*
X131151592Y-163341130D01*
X131216000Y-163664927D01*
X131216000Y-163995073D01*
X131209588Y-164027309D01*
X131151592Y-164318871D01*
X131025252Y-164623883D01*
X130841834Y-164898387D01*
X130608387Y-165131834D01*
X130333883Y-165315252D01*
X130028871Y-165441592D01*
X129973510Y-165452604D01*
X129705073Y-165506000D01*
X129374927Y-165506000D01*
X129106490Y-165452604D01*
X129051129Y-165441592D01*
X128746117Y-165315252D01*
X128471613Y-165131834D01*
X128238166Y-164898387D01*
X128054748Y-164623883D01*
X127928408Y-164318871D01*
X127870412Y-164027309D01*
X127864000Y-163995073D01*
X127864000Y-163664927D01*
X127928408Y-163341130D01*
X127966362Y-163249500D01*
X128054748Y-163036117D01*
X128238166Y-162761613D01*
X128471613Y-162528166D01*
X128746117Y-162344748D01*
X129051129Y-162218408D01*
X129245701Y-162179705D01*
X129374927Y-162154000D01*
X129705073Y-162154000D01*
X129834299Y-162179705D01*
G37*
G36*
X98169591Y-163040585D02*
G01*
X98203569Y-163050893D01*
X98234890Y-163067634D01*
X98262339Y-163090161D01*
X98284866Y-163117610D01*
X98301607Y-163148931D01*
X98311915Y-163182909D01*
X98316000Y-163224390D01*
X98316000Y-163825610D01*
X98311915Y-163867091D01*
X98301607Y-163901069D01*
X98284866Y-163932390D01*
X98262339Y-163959839D01*
X98234890Y-163982366D01*
X98203569Y-163999107D01*
X98169591Y-164009415D01*
X98128110Y-164013500D01*
X97451890Y-164013500D01*
X97410409Y-164009415D01*
X97376431Y-163999107D01*
X97345110Y-163982366D01*
X97317661Y-163959839D01*
X97295134Y-163932390D01*
X97278393Y-163901069D01*
X97268085Y-163867091D01*
X97264000Y-163825610D01*
X97264000Y-163224390D01*
X97268085Y-163182909D01*
X97278393Y-163148931D01*
X97295134Y-163117610D01*
X97317661Y-163090161D01*
X97345110Y-163067634D01*
X97376431Y-163050893D01*
X97410409Y-163040585D01*
X97451890Y-163036500D01*
X98128110Y-163036500D01*
X98169591Y-163040585D01*
G37*
G36*
X49019999Y-161279737D02*
G01*
X49029608Y-161282652D01*
X49038472Y-161287390D01*
X49046237Y-161293763D01*
X49052610Y-161301528D01*
X49057348Y-161310392D01*
X49060263Y-161320001D01*
X49061852Y-161336140D01*
X49061852Y-162323860D01*
X49060263Y-162339999D01*
X49057348Y-162349608D01*
X49052610Y-162358472D01*
X49038742Y-162375370D01*
X49038653Y-162375459D01*
X49038577Y-162375571D01*
X49038425Y-162375757D01*
X49038443Y-162375771D01*
X49024967Y-162395786D01*
X49015511Y-162418392D01*
X49010646Y-162442408D01*
X49010000Y-162455097D01*
X49010000Y-163380000D01*
X47510000Y-163380000D01*
X47510000Y-162455089D01*
X47507598Y-162430703D01*
X47500485Y-162407254D01*
X47488934Y-162385643D01*
X47481544Y-162375690D01*
X47473439Y-162365835D01*
X47467419Y-162358516D01*
X47462674Y-162349661D01*
X47461178Y-162344748D01*
X47459758Y-162340085D01*
X47459758Y-162340082D01*
X47459748Y-162340050D01*
X47458753Y-162330000D01*
X47458753Y-162329935D01*
X47458148Y-162323825D01*
X47458148Y-161336140D01*
X47459737Y-161320001D01*
X47462652Y-161310392D01*
X47467390Y-161301528D01*
X47473763Y-161293763D01*
X47481528Y-161287390D01*
X47490392Y-161282652D01*
X47500001Y-161279737D01*
X47516140Y-161278148D01*
X49003860Y-161278148D01*
X49019999Y-161279737D01*
G37*
G36*
X62011000Y-163151000D02*
G01*
X59909000Y-163151000D01*
X59909000Y-158549000D01*
X62011000Y-158549000D01*
X62011000Y-163151000D01*
G37*
G36*
X54989591Y-161593085D02*
G01*
X55023569Y-161603393D01*
X55054890Y-161620134D01*
X55082339Y-161642661D01*
X55104866Y-161670110D01*
X55121607Y-161701431D01*
X55131915Y-161735409D01*
X55136000Y-161776890D01*
X55136000Y-162378110D01*
X55131915Y-162419591D01*
X55121607Y-162453569D01*
X55104866Y-162484890D01*
X55082339Y-162512339D01*
X55054890Y-162534866D01*
X55023569Y-162551607D01*
X54989591Y-162561915D01*
X54948110Y-162566000D01*
X54271890Y-162566000D01*
X54230409Y-162561915D01*
X54196431Y-162551607D01*
X54165110Y-162534866D01*
X54137661Y-162512339D01*
X54115134Y-162484890D01*
X54098393Y-162453569D01*
X54088085Y-162419591D01*
X54084000Y-162378110D01*
X54084000Y-161776890D01*
X54088085Y-161735409D01*
X54098393Y-161701431D01*
X54115134Y-161670110D01*
X54137661Y-161642661D01*
X54165110Y-161620134D01*
X54196431Y-161603393D01*
X54230409Y-161593085D01*
X54271890Y-161589000D01*
X54948110Y-161589000D01*
X54989591Y-161593085D01*
G37*
G36*
X68959591Y-161593085D02*
G01*
X68993569Y-161603393D01*
X69024890Y-161620134D01*
X69052339Y-161642661D01*
X69074866Y-161670110D01*
X69091607Y-161701431D01*
X69101915Y-161735409D01*
X69106000Y-161776890D01*
X69106000Y-162378110D01*
X69101915Y-162419591D01*
X69091607Y-162453569D01*
X69074866Y-162484890D01*
X69052339Y-162512339D01*
X69024890Y-162534866D01*
X68993569Y-162551607D01*
X68959591Y-162561915D01*
X68918110Y-162566000D01*
X68241890Y-162566000D01*
X68200409Y-162561915D01*
X68166431Y-162551607D01*
X68135110Y-162534866D01*
X68107661Y-162512339D01*
X68085134Y-162484890D01*
X68068393Y-162453569D01*
X68058085Y-162419591D01*
X68054000Y-162378110D01*
X68054000Y-161776890D01*
X68058085Y-161735409D01*
X68068393Y-161701431D01*
X68085134Y-161670110D01*
X68107661Y-161642661D01*
X68135110Y-161620134D01*
X68166431Y-161603393D01*
X68200409Y-161593085D01*
X68241890Y-161589000D01*
X68918110Y-161589000D01*
X68959591Y-161593085D01*
G37*
G36*
X77430295Y-160150323D02*
G01*
X77437309Y-160152451D01*
X77451077Y-160159810D01*
X77473716Y-160169187D01*
X77497749Y-160173967D01*
X77522253Y-160173967D01*
X77546286Y-160169186D01*
X77568923Y-160159810D01*
X77582691Y-160152451D01*
X77589705Y-160150323D01*
X77603140Y-160149000D01*
X77916860Y-160149000D01*
X77930295Y-160150323D01*
X77937309Y-160152451D01*
X77951077Y-160159810D01*
X77973716Y-160169187D01*
X77997749Y-160173967D01*
X78022253Y-160173967D01*
X78046286Y-160169186D01*
X78068923Y-160159810D01*
X78082691Y-160152451D01*
X78089705Y-160150323D01*
X78103140Y-160149000D01*
X78416860Y-160149000D01*
X78430295Y-160150323D01*
X78437309Y-160152451D01*
X78451077Y-160159810D01*
X78473716Y-160169187D01*
X78497749Y-160173967D01*
X78522253Y-160173967D01*
X78546286Y-160169186D01*
X78568923Y-160159810D01*
X78582691Y-160152451D01*
X78589705Y-160150323D01*
X78603140Y-160149000D01*
X78916860Y-160149000D01*
X78930295Y-160150323D01*
X78937309Y-160152451D01*
X78951077Y-160159810D01*
X78973716Y-160169187D01*
X78997749Y-160173967D01*
X79022253Y-160173967D01*
X79046286Y-160169186D01*
X79068923Y-160159810D01*
X79082691Y-160152451D01*
X79089705Y-160150323D01*
X79103140Y-160149000D01*
X79416860Y-160149000D01*
X79430295Y-160150323D01*
X79437309Y-160152451D01*
X79451077Y-160159810D01*
X79473716Y-160169187D01*
X79497749Y-160173967D01*
X79522253Y-160173967D01*
X79546286Y-160169186D01*
X79568923Y-160159810D01*
X79582691Y-160152451D01*
X79589705Y-160150323D01*
X79603140Y-160149000D01*
X79916860Y-160149000D01*
X79930295Y-160150323D01*
X79937309Y-160152451D01*
X79951077Y-160159810D01*
X79973716Y-160169187D01*
X79997749Y-160173967D01*
X80022253Y-160173967D01*
X80046286Y-160169186D01*
X80068923Y-160159810D01*
X80082691Y-160152451D01*
X80089705Y-160150323D01*
X80103140Y-160149000D01*
X80416860Y-160149000D01*
X80430295Y-160150323D01*
X80437309Y-160152451D01*
X80451077Y-160159810D01*
X80473716Y-160169187D01*
X80497749Y-160173967D01*
X80522253Y-160173967D01*
X80546286Y-160169186D01*
X80568923Y-160159810D01*
X80582691Y-160152451D01*
X80589705Y-160150323D01*
X80603140Y-160149000D01*
X80916860Y-160149000D01*
X80930295Y-160150323D01*
X80937309Y-160152451D01*
X80951077Y-160159810D01*
X80973716Y-160169187D01*
X80997749Y-160173967D01*
X81022253Y-160173967D01*
X81046286Y-160169186D01*
X81068923Y-160159810D01*
X81082691Y-160152451D01*
X81089705Y-160150323D01*
X81103140Y-160149000D01*
X81416860Y-160149000D01*
X81430295Y-160150323D01*
X81437309Y-160152451D01*
X81451077Y-160159810D01*
X81473716Y-160169187D01*
X81497749Y-160173967D01*
X81522253Y-160173967D01*
X81546286Y-160169186D01*
X81568923Y-160159810D01*
X81582691Y-160152451D01*
X81589705Y-160150323D01*
X81603140Y-160149000D01*
X81916860Y-160149000D01*
X81930295Y-160150323D01*
X81937309Y-160152451D01*
X81951077Y-160159810D01*
X81973716Y-160169187D01*
X81997749Y-160173967D01*
X82022253Y-160173967D01*
X82046286Y-160169186D01*
X82068923Y-160159810D01*
X82082691Y-160152451D01*
X82089705Y-160150323D01*
X82103140Y-160149000D01*
X82416860Y-160149000D01*
X82430295Y-160150323D01*
X82437309Y-160152451D01*
X82451077Y-160159810D01*
X82473716Y-160169187D01*
X82497749Y-160173967D01*
X82522253Y-160173967D01*
X82546286Y-160169186D01*
X82568923Y-160159810D01*
X82582691Y-160152451D01*
X82589705Y-160150323D01*
X82603140Y-160149000D01*
X82916860Y-160149000D01*
X82930295Y-160150323D01*
X82937310Y-160152451D01*
X82943776Y-160155908D01*
X82949442Y-160160558D01*
X82954092Y-160166224D01*
X82957549Y-160172690D01*
X82959677Y-160179705D01*
X82961000Y-160193140D01*
X82961000Y-161681860D01*
X82959677Y-161695295D01*
X82957549Y-161702310D01*
X82954092Y-161708776D01*
X82949442Y-161714442D01*
X82943776Y-161719092D01*
X82937310Y-161722549D01*
X82930295Y-161724677D01*
X82916860Y-161726000D01*
X82603140Y-161726000D01*
X82589705Y-161724677D01*
X82582691Y-161722549D01*
X82568923Y-161715190D01*
X82546284Y-161705813D01*
X82522251Y-161701033D01*
X82497747Y-161701033D01*
X82473714Y-161705814D01*
X82451077Y-161715190D01*
X82437309Y-161722549D01*
X82430295Y-161724677D01*
X82416860Y-161726000D01*
X82103140Y-161726000D01*
X82089705Y-161724677D01*
X82082691Y-161722549D01*
X82068923Y-161715190D01*
X82046284Y-161705813D01*
X82022251Y-161701033D01*
X81997747Y-161701033D01*
X81973714Y-161705814D01*
X81951077Y-161715190D01*
X81937309Y-161722549D01*
X81930295Y-161724677D01*
X81916860Y-161726000D01*
X81603140Y-161726000D01*
X81589705Y-161724677D01*
X81582691Y-161722549D01*
X81568923Y-161715190D01*
X81546284Y-161705813D01*
X81522251Y-161701033D01*
X81497747Y-161701033D01*
X81473714Y-161705814D01*
X81451077Y-161715190D01*
X81437309Y-161722549D01*
X81430295Y-161724677D01*
X81416860Y-161726000D01*
X81103140Y-161726000D01*
X81089705Y-161724677D01*
X81082691Y-161722549D01*
X81068923Y-161715190D01*
X81046284Y-161705813D01*
X81022251Y-161701033D01*
X80997747Y-161701033D01*
X80973714Y-161705814D01*
X80951077Y-161715190D01*
X80937309Y-161722549D01*
X80930295Y-161724677D01*
X80916860Y-161726000D01*
X80603140Y-161726000D01*
X80589705Y-161724677D01*
X80582691Y-161722549D01*
X80568923Y-161715190D01*
X80546284Y-161705813D01*
X80522251Y-161701033D01*
X80497747Y-161701033D01*
X80473714Y-161705814D01*
X80451077Y-161715190D01*
X80437309Y-161722549D01*
X80430295Y-161724677D01*
X80416860Y-161726000D01*
X80103140Y-161726000D01*
X80089705Y-161724677D01*
X80082691Y-161722549D01*
X80068923Y-161715190D01*
X80046284Y-161705813D01*
X80022251Y-161701033D01*
X79997747Y-161701033D01*
X79973714Y-161705814D01*
X79951077Y-161715190D01*
X79937309Y-161722549D01*
X79930295Y-161724677D01*
X79916860Y-161726000D01*
X79603140Y-161726000D01*
X79589705Y-161724677D01*
X79582691Y-161722549D01*
X79568923Y-161715190D01*
X79546284Y-161705813D01*
X79522251Y-161701033D01*
X79497747Y-161701033D01*
X79473714Y-161705814D01*
X79451077Y-161715190D01*
X79437309Y-161722549D01*
X79430295Y-161724677D01*
X79416860Y-161726000D01*
X79103140Y-161726000D01*
X79089705Y-161724677D01*
X79082691Y-161722549D01*
X79068923Y-161715190D01*
X79046284Y-161705813D01*
X79022251Y-161701033D01*
X78997747Y-161701033D01*
X78973714Y-161705814D01*
X78951077Y-161715190D01*
X78937309Y-161722549D01*
X78930295Y-161724677D01*
X78916860Y-161726000D01*
X78603140Y-161726000D01*
X78589705Y-161724677D01*
X78582691Y-161722549D01*
X78568923Y-161715190D01*
X78546284Y-161705813D01*
X78522251Y-161701033D01*
X78497747Y-161701033D01*
X78473714Y-161705814D01*
X78451077Y-161715190D01*
X78437309Y-161722549D01*
X78430295Y-161724677D01*
X78416860Y-161726000D01*
X78103140Y-161726000D01*
X78089705Y-161724677D01*
X78082691Y-161722549D01*
X78068923Y-161715190D01*
X78046284Y-161705813D01*
X78022251Y-161701033D01*
X77997747Y-161701033D01*
X77973714Y-161705814D01*
X77951077Y-161715190D01*
X77937309Y-161722549D01*
X77930295Y-161724677D01*
X77916860Y-161726000D01*
X77603140Y-161726000D01*
X77589705Y-161724677D01*
X77582691Y-161722549D01*
X77568923Y-161715190D01*
X77546284Y-161705813D01*
X77522251Y-161701033D01*
X77497747Y-161701033D01*
X77473714Y-161705814D01*
X77451077Y-161715190D01*
X77437309Y-161722549D01*
X77430295Y-161724677D01*
X77416860Y-161726000D01*
X77103140Y-161726000D01*
X77089705Y-161724677D01*
X77082690Y-161722549D01*
X77076224Y-161719092D01*
X77070558Y-161714442D01*
X77065908Y-161708776D01*
X77062451Y-161702310D01*
X77060323Y-161695295D01*
X77059000Y-161681860D01*
X77059000Y-160193140D01*
X77060323Y-160179705D01*
X77062451Y-160172690D01*
X77065908Y-160166224D01*
X77070558Y-160160558D01*
X77076224Y-160155908D01*
X77082690Y-160152451D01*
X77089705Y-160150323D01*
X77103140Y-160149000D01*
X77416860Y-160149000D01*
X77430295Y-160150323D01*
G37*
G36*
X54989591Y-160018085D02*
G01*
X55023569Y-160028393D01*
X55054890Y-160045134D01*
X55082339Y-160067661D01*
X55104866Y-160095110D01*
X55121607Y-160126431D01*
X55131915Y-160160409D01*
X55136000Y-160201890D01*
X55136000Y-160803110D01*
X55131915Y-160844591D01*
X55121607Y-160878569D01*
X55104866Y-160909890D01*
X55082339Y-160937339D01*
X55054890Y-160959866D01*
X55023569Y-160976607D01*
X54989591Y-160986915D01*
X54948110Y-160991000D01*
X54271890Y-160991000D01*
X54230409Y-160986915D01*
X54196431Y-160976607D01*
X54165110Y-160959866D01*
X54137661Y-160937339D01*
X54115134Y-160909890D01*
X54098393Y-160878569D01*
X54088085Y-160844591D01*
X54084000Y-160803110D01*
X54084000Y-160201890D01*
X54088085Y-160160409D01*
X54098393Y-160126431D01*
X54115134Y-160095110D01*
X54137661Y-160067661D01*
X54165110Y-160045134D01*
X54196431Y-160028393D01*
X54230409Y-160018085D01*
X54271890Y-160014000D01*
X54948110Y-160014000D01*
X54989591Y-160018085D01*
G37*
G36*
X68959591Y-160018085D02*
G01*
X68993569Y-160028393D01*
X69024890Y-160045134D01*
X69052339Y-160067661D01*
X69074866Y-160095110D01*
X69091607Y-160126431D01*
X69101915Y-160160409D01*
X69106000Y-160201890D01*
X69106000Y-160803110D01*
X69101915Y-160844591D01*
X69091607Y-160878569D01*
X69074866Y-160909890D01*
X69052339Y-160937339D01*
X69024890Y-160959866D01*
X68993569Y-160976607D01*
X68959591Y-160986915D01*
X68918110Y-160991000D01*
X68241890Y-160991000D01*
X68200409Y-160986915D01*
X68166431Y-160976607D01*
X68135110Y-160959866D01*
X68107661Y-160937339D01*
X68085134Y-160909890D01*
X68068393Y-160878569D01*
X68058085Y-160844591D01*
X68054000Y-160803110D01*
X68054000Y-160201890D01*
X68058085Y-160160409D01*
X68068393Y-160126431D01*
X68085134Y-160095110D01*
X68107661Y-160067661D01*
X68135110Y-160045134D01*
X68166431Y-160028393D01*
X68200409Y-160018085D01*
X68241890Y-160014000D01*
X68918110Y-160014000D01*
X68959591Y-160018085D01*
G37*
G36*
X113336564Y-155199389D02*
G01*
X113527833Y-155278615D01*
X113527835Y-155278616D01*
X113648138Y-155359000D01*
X113699973Y-155393635D01*
X113846365Y-155540027D01*
X113961385Y-155712167D01*
X114040611Y-155903436D01*
X114081000Y-156106484D01*
X114081000Y-156313516D01*
X114040611Y-156516564D01*
X113988147Y-156643224D01*
X113961384Y-156707835D01*
X113846365Y-156879973D01*
X113699973Y-157026365D01*
X113527835Y-157141384D01*
X113527834Y-157141385D01*
X113527833Y-157141385D01*
X113336564Y-157220611D01*
X113133516Y-157261000D01*
X112926484Y-157261000D01*
X112723436Y-157220611D01*
X112532167Y-157141385D01*
X112532166Y-157141385D01*
X112532165Y-157141384D01*
X112360027Y-157026365D01*
X112213635Y-156879973D01*
X112098616Y-156707835D01*
X112071853Y-156643224D01*
X112019389Y-156516564D01*
X111979000Y-156313516D01*
X111979000Y-156106484D01*
X112019389Y-155903436D01*
X112098615Y-155712167D01*
X112213635Y-155540027D01*
X112360027Y-155393635D01*
X112411862Y-155359000D01*
X112532165Y-155278616D01*
X112532167Y-155278615D01*
X112723436Y-155199389D01*
X112926484Y-155159000D01*
X113133516Y-155159000D01*
X113336564Y-155199389D01*
G37*
G36*
X99366564Y-155199389D02*
G01*
X99557833Y-155278615D01*
X99557835Y-155278616D01*
X99678138Y-155359000D01*
X99729973Y-155393635D01*
X99876365Y-155540027D01*
X99991385Y-155712167D01*
X100070611Y-155903436D01*
X100111000Y-156106484D01*
X100111000Y-156313516D01*
X100070611Y-156516564D01*
X100018147Y-156643224D01*
X99991384Y-156707835D01*
X99876365Y-156879973D01*
X99729973Y-157026365D01*
X99557835Y-157141384D01*
X99557834Y-157141385D01*
X99557833Y-157141385D01*
X99366564Y-157220611D01*
X99163516Y-157261000D01*
X98956484Y-157261000D01*
X98753436Y-157220611D01*
X98562167Y-157141385D01*
X98562166Y-157141385D01*
X98562165Y-157141384D01*
X98390027Y-157026365D01*
X98243635Y-156879973D01*
X98128616Y-156707835D01*
X98101853Y-156643224D01*
X98049389Y-156516564D01*
X98009000Y-156313516D01*
X98009000Y-156106484D01*
X98049389Y-155903436D01*
X98128615Y-155712167D01*
X98243635Y-155540027D01*
X98390027Y-155393635D01*
X98441862Y-155359000D01*
X98562165Y-155278616D01*
X98562167Y-155278615D01*
X98753436Y-155199389D01*
X98956484Y-155159000D01*
X99163516Y-155159000D01*
X99366564Y-155199389D01*
G37*
G36*
X106986564Y-155199389D02*
G01*
X107177833Y-155278615D01*
X107177835Y-155278616D01*
X107298138Y-155359000D01*
X107349973Y-155393635D01*
X107496365Y-155540027D01*
X107611385Y-155712167D01*
X107690611Y-155903436D01*
X107731000Y-156106484D01*
X107731000Y-156313516D01*
X107690611Y-156516564D01*
X107638147Y-156643224D01*
X107611384Y-156707835D01*
X107496365Y-156879973D01*
X107349973Y-157026365D01*
X107177835Y-157141384D01*
X107177834Y-157141385D01*
X107177833Y-157141385D01*
X106986564Y-157220611D01*
X106783516Y-157261000D01*
X106576484Y-157261000D01*
X106373436Y-157220611D01*
X106182167Y-157141385D01*
X106182166Y-157141385D01*
X106182165Y-157141384D01*
X106010027Y-157026365D01*
X105863635Y-156879973D01*
X105748616Y-156707835D01*
X105721853Y-156643224D01*
X105669389Y-156516564D01*
X105629000Y-156313516D01*
X105629000Y-156106484D01*
X105669389Y-155903436D01*
X105748615Y-155712167D01*
X105863635Y-155540027D01*
X106010027Y-155393635D01*
X106061862Y-155359000D01*
X106182165Y-155278616D01*
X106182167Y-155278615D01*
X106373436Y-155199389D01*
X106576484Y-155159000D01*
X106783516Y-155159000D01*
X106986564Y-155199389D01*
G37*
G36*
X32016778Y-155330547D02*
G01*
X32183224Y-155399491D01*
X32333022Y-155499583D01*
X32460417Y-155626978D01*
X32560509Y-155776776D01*
X32629453Y-155943222D01*
X32664600Y-156119918D01*
X32664600Y-156300082D01*
X32629453Y-156476778D01*
X32560509Y-156643224D01*
X32460417Y-156793022D01*
X32333022Y-156920417D01*
X32183224Y-157020509D01*
X32016778Y-157089453D01*
X31840082Y-157124600D01*
X31659918Y-157124600D01*
X31483222Y-157089453D01*
X31316776Y-157020509D01*
X31166978Y-156920417D01*
X31039583Y-156793022D01*
X30939491Y-156643224D01*
X30870547Y-156476778D01*
X30835400Y-156300082D01*
X30835400Y-156119918D01*
X30870547Y-155943222D01*
X30939491Y-155776776D01*
X31039583Y-155626978D01*
X31166978Y-155499583D01*
X31316776Y-155399491D01*
X31483222Y-155330547D01*
X31659918Y-155295400D01*
X31840082Y-155295400D01*
X32016778Y-155330547D01*
G37*
G36*
X34556778Y-155330547D02*
G01*
X34723224Y-155399491D01*
X34873022Y-155499583D01*
X35000417Y-155626978D01*
X35100509Y-155776776D01*
X35169453Y-155943222D01*
X35204600Y-156119918D01*
X35204600Y-156300082D01*
X35169453Y-156476778D01*
X35100509Y-156643224D01*
X35000417Y-156793022D01*
X34873022Y-156920417D01*
X34723224Y-157020509D01*
X34556778Y-157089453D01*
X34380082Y-157124600D01*
X34199918Y-157124600D01*
X34023222Y-157089453D01*
X33856776Y-157020509D01*
X33706978Y-156920417D01*
X33579583Y-156793022D01*
X33479491Y-156643224D01*
X33410547Y-156476778D01*
X33375400Y-156300082D01*
X33375400Y-156119918D01*
X33410547Y-155943222D01*
X33479491Y-155776776D01*
X33579583Y-155626978D01*
X33706978Y-155499583D01*
X33856776Y-155399491D01*
X34023222Y-155330547D01*
X34199918Y-155295400D01*
X34380082Y-155295400D01*
X34556778Y-155330547D01*
G37*
G36*
X119628228Y-155391703D02*
G01*
X119783100Y-155455853D01*
X119922481Y-155548985D01*
X120041015Y-155667519D01*
X120134147Y-155806900D01*
X120198297Y-155961772D01*
X120231000Y-156126184D01*
X120231000Y-156293816D01*
X120198297Y-156458228D01*
X120134147Y-156613100D01*
X120041015Y-156752481D01*
X119922481Y-156871015D01*
X119783100Y-156964147D01*
X119628228Y-157028297D01*
X119463816Y-157061000D01*
X119296184Y-157061000D01*
X119131772Y-157028297D01*
X118976900Y-156964147D01*
X118837519Y-156871015D01*
X118718985Y-156752481D01*
X118625853Y-156613100D01*
X118561703Y-156458228D01*
X118529000Y-156293816D01*
X118529000Y-156126184D01*
X118561703Y-155961772D01*
X118625853Y-155806900D01*
X118718985Y-155667519D01*
X118837519Y-155548985D01*
X118976900Y-155455853D01*
X119131772Y-155391703D01*
X119296184Y-155359000D01*
X119463816Y-155359000D01*
X119628228Y-155391703D01*
G37*
G36*
X119628228Y-153391703D02*
G01*
X119783100Y-153455853D01*
X119922481Y-153548985D01*
X120041015Y-153667519D01*
X120134147Y-153806900D01*
X120198297Y-153961772D01*
X120231000Y-154126184D01*
X120231000Y-154293816D01*
X120198297Y-154458228D01*
X120134147Y-154613100D01*
X120041015Y-154752481D01*
X119922481Y-154871015D01*
X119783100Y-154964147D01*
X119628228Y-155028297D01*
X119463816Y-155061000D01*
X119296184Y-155061000D01*
X119131772Y-155028297D01*
X118976900Y-154964147D01*
X118837519Y-154871015D01*
X118718985Y-154752481D01*
X118625853Y-154613100D01*
X118561703Y-154458228D01*
X118529000Y-154293816D01*
X118529000Y-154126184D01*
X118561703Y-153961772D01*
X118625853Y-153806900D01*
X118718985Y-153667519D01*
X118837519Y-153548985D01*
X118976900Y-153455853D01*
X119131772Y-153391703D01*
X119296184Y-153359000D01*
X119463816Y-153359000D01*
X119628228Y-153391703D01*
G37*
G36*
X34556778Y-152790547D02*
G01*
X34723224Y-152859491D01*
X34873022Y-152959583D01*
X35000417Y-153086978D01*
X35100509Y-153236776D01*
X35169453Y-153403222D01*
X35204600Y-153579918D01*
X35204600Y-153760082D01*
X35169453Y-153936778D01*
X35100509Y-154103224D01*
X35000417Y-154253022D01*
X34873022Y-154380417D01*
X34723224Y-154480509D01*
X34556778Y-154549453D01*
X34380082Y-154584600D01*
X34199918Y-154584600D01*
X34023222Y-154549453D01*
X33856776Y-154480509D01*
X33706978Y-154380417D01*
X33579583Y-154253022D01*
X33479491Y-154103224D01*
X33410547Y-153936778D01*
X33375400Y-153760082D01*
X33375400Y-153579918D01*
X33410547Y-153403222D01*
X33479491Y-153236776D01*
X33579583Y-153086978D01*
X33706978Y-152959583D01*
X33856776Y-152859491D01*
X34023222Y-152790547D01*
X34199918Y-152755400D01*
X34380082Y-152755400D01*
X34556778Y-152790547D01*
G37*
G36*
X32016778Y-152790547D02*
G01*
X32183224Y-152859491D01*
X32333022Y-152959583D01*
X32460417Y-153086978D01*
X32560509Y-153236776D01*
X32629453Y-153403222D01*
X32664600Y-153579918D01*
X32664600Y-153760082D01*
X32629453Y-153936778D01*
X32560509Y-154103224D01*
X32460417Y-154253022D01*
X32333022Y-154380417D01*
X32183224Y-154480509D01*
X32016778Y-154549453D01*
X31840082Y-154584600D01*
X31659918Y-154584600D01*
X31483222Y-154549453D01*
X31316776Y-154480509D01*
X31166978Y-154380417D01*
X31039583Y-154253022D01*
X30939491Y-154103224D01*
X30870547Y-153936778D01*
X30835400Y-153760082D01*
X30835400Y-153579918D01*
X30870547Y-153403222D01*
X30939491Y-153236776D01*
X31039583Y-153086978D01*
X31166978Y-152959583D01*
X31316776Y-152859491D01*
X31483222Y-152790547D01*
X31659918Y-152755400D01*
X31840082Y-152755400D01*
X32016778Y-152790547D01*
G37*
G36*
X34556778Y-150250547D02*
G01*
X34723224Y-150319491D01*
X34873022Y-150419583D01*
X35000417Y-150546978D01*
X35100509Y-150696776D01*
X35169453Y-150863222D01*
X35204600Y-151039918D01*
X35204600Y-151220082D01*
X35169453Y-151396778D01*
X35100509Y-151563224D01*
X35000417Y-151713022D01*
X34873022Y-151840417D01*
X34723224Y-151940509D01*
X34556778Y-152009453D01*
X34380082Y-152044600D01*
X34199918Y-152044600D01*
X34023222Y-152009453D01*
X33856776Y-151940509D01*
X33706978Y-151840417D01*
X33579583Y-151713022D01*
X33479491Y-151563224D01*
X33410547Y-151396778D01*
X33375400Y-151220082D01*
X33375400Y-151039918D01*
X33410547Y-150863222D01*
X33479491Y-150696776D01*
X33579583Y-150546978D01*
X33706978Y-150419583D01*
X33856776Y-150319491D01*
X34023222Y-150250547D01*
X34199918Y-150215400D01*
X34380082Y-150215400D01*
X34556778Y-150250547D01*
G37*
G36*
X32016778Y-150250547D02*
G01*
X32183224Y-150319491D01*
X32333022Y-150419583D01*
X32460417Y-150546978D01*
X32560509Y-150696776D01*
X32629453Y-150863222D01*
X32664600Y-151039918D01*
X32664600Y-151220082D01*
X32629453Y-151396778D01*
X32560509Y-151563224D01*
X32460417Y-151713022D01*
X32333022Y-151840417D01*
X32183224Y-151940509D01*
X32016778Y-152009453D01*
X31840082Y-152044600D01*
X31659918Y-152044600D01*
X31483222Y-152009453D01*
X31316776Y-151940509D01*
X31166978Y-151840417D01*
X31039583Y-151713022D01*
X30939491Y-151563224D01*
X30870547Y-151396778D01*
X30835400Y-151220082D01*
X30835400Y-151039918D01*
X30870547Y-150863222D01*
X30939491Y-150696776D01*
X31039583Y-150546978D01*
X31166978Y-150419583D01*
X31316776Y-150319491D01*
X31483222Y-150250547D01*
X31659918Y-150215400D01*
X31840082Y-150215400D01*
X32016778Y-150250547D01*
G37*
G36*
X83599999Y-150329737D02*
G01*
X83609608Y-150332652D01*
X83618472Y-150337390D01*
X83635370Y-150351258D01*
X83635459Y-150351347D01*
X83635571Y-150351423D01*
X83635757Y-150351575D01*
X83635771Y-150351557D01*
X83655786Y-150365033D01*
X83678392Y-150374489D01*
X83702408Y-150379354D01*
X83715097Y-150380000D01*
X84640000Y-150380000D01*
X84640000Y-151880000D01*
X83715089Y-151880000D01*
X83690703Y-151882402D01*
X83667254Y-151889515D01*
X83645643Y-151901066D01*
X83635690Y-151908456D01*
X83626275Y-151916199D01*
X83618516Y-151922581D01*
X83609661Y-151927326D01*
X83606623Y-151928251D01*
X83600085Y-151930242D01*
X83600082Y-151930242D01*
X83600050Y-151930252D01*
X83590000Y-151931247D01*
X83589935Y-151931247D01*
X83583825Y-151931852D01*
X82596140Y-151931852D01*
X82580001Y-151930263D01*
X82570392Y-151927348D01*
X82561528Y-151922610D01*
X82553763Y-151916237D01*
X82547390Y-151908472D01*
X82542652Y-151899608D01*
X82539737Y-151889999D01*
X82538148Y-151873860D01*
X82538148Y-150386140D01*
X82539737Y-150370001D01*
X82542652Y-150360392D01*
X82547390Y-150351528D01*
X82553763Y-150343763D01*
X82561528Y-150337390D01*
X82570392Y-150332652D01*
X82580001Y-150329737D01*
X82596140Y-150328148D01*
X83583860Y-150328148D01*
X83599999Y-150329737D01*
G37*
G36*
X87599999Y-150329737D02*
G01*
X87609608Y-150332652D01*
X87618472Y-150337390D01*
X87626237Y-150343763D01*
X87632610Y-150351528D01*
X87637348Y-150360392D01*
X87640263Y-150370001D01*
X87641852Y-150386140D01*
X87641852Y-151873860D01*
X87640263Y-151889999D01*
X87637348Y-151899608D01*
X87632610Y-151908472D01*
X87626237Y-151916237D01*
X87618472Y-151922610D01*
X87609608Y-151927348D01*
X87599999Y-151930263D01*
X87583860Y-151931852D01*
X86596140Y-151931852D01*
X86580001Y-151930263D01*
X86570392Y-151927348D01*
X86561528Y-151922610D01*
X86544630Y-151908742D01*
X86544541Y-151908653D01*
X86544429Y-151908577D01*
X86544243Y-151908425D01*
X86544229Y-151908443D01*
X86524214Y-151894967D01*
X86501608Y-151885511D01*
X86477592Y-151880646D01*
X86464903Y-151880000D01*
X85540000Y-151880000D01*
X85540000Y-150380000D01*
X86464911Y-150380000D01*
X86489297Y-150377598D01*
X86512746Y-150370485D01*
X86534357Y-150358934D01*
X86544310Y-150351544D01*
X86554165Y-150343439D01*
X86561484Y-150337419D01*
X86570339Y-150332674D01*
X86573377Y-150331749D01*
X86579915Y-150329758D01*
X86579918Y-150329758D01*
X86579950Y-150329748D01*
X86590000Y-150328753D01*
X86590065Y-150328753D01*
X86596175Y-150328148D01*
X87583860Y-150328148D01*
X87599999Y-150329737D01*
G37*
G36*
X77439999Y-150329737D02*
G01*
X77449608Y-150332652D01*
X77458472Y-150337390D01*
X77466237Y-150343763D01*
X77472610Y-150351528D01*
X77477348Y-150360392D01*
X77480263Y-150370001D01*
X77481852Y-150386140D01*
X77481852Y-151873860D01*
X77480263Y-151889999D01*
X77477348Y-151899608D01*
X77472610Y-151908472D01*
X77466237Y-151916237D01*
X77458472Y-151922610D01*
X77449608Y-151927348D01*
X77439999Y-151930263D01*
X77423860Y-151931852D01*
X76436140Y-151931852D01*
X76420001Y-151930263D01*
X76410392Y-151927348D01*
X76401528Y-151922610D01*
X76384630Y-151908742D01*
X76384541Y-151908653D01*
X76384429Y-151908577D01*
X76384243Y-151908425D01*
X76384229Y-151908443D01*
X76364214Y-151894967D01*
X76341608Y-151885511D01*
X76317592Y-151880646D01*
X76304903Y-151880000D01*
X75380000Y-151880000D01*
X75380000Y-150380000D01*
X76304911Y-150380000D01*
X76329297Y-150377598D01*
X76352746Y-150370485D01*
X76374357Y-150358934D01*
X76384310Y-150351544D01*
X76394165Y-150343439D01*
X76401484Y-150337419D01*
X76410339Y-150332674D01*
X76413377Y-150331749D01*
X76419915Y-150329758D01*
X76419918Y-150329758D01*
X76419950Y-150329748D01*
X76430000Y-150328753D01*
X76430065Y-150328753D01*
X76436175Y-150328148D01*
X77423860Y-150328148D01*
X77439999Y-150329737D01*
G37*
G36*
X73439999Y-150329737D02*
G01*
X73449608Y-150332652D01*
X73458472Y-150337390D01*
X73475370Y-150351258D01*
X73475459Y-150351347D01*
X73475571Y-150351423D01*
X73475757Y-150351575D01*
X73475771Y-150351557D01*
X73495786Y-150365033D01*
X73518392Y-150374489D01*
X73542408Y-150379354D01*
X73555097Y-150380000D01*
X74480000Y-150380000D01*
X74480000Y-151880000D01*
X73555089Y-151880000D01*
X73530703Y-151882402D01*
X73507254Y-151889515D01*
X73485643Y-151901066D01*
X73475690Y-151908456D01*
X73466275Y-151916199D01*
X73458516Y-151922581D01*
X73449661Y-151927326D01*
X73446623Y-151928251D01*
X73440085Y-151930242D01*
X73440082Y-151930242D01*
X73440050Y-151930252D01*
X73430000Y-151931247D01*
X73429935Y-151931247D01*
X73423825Y-151931852D01*
X72436140Y-151931852D01*
X72420001Y-151930263D01*
X72410392Y-151927348D01*
X72401528Y-151922610D01*
X72393763Y-151916237D01*
X72387390Y-151908472D01*
X72382652Y-151899608D01*
X72379737Y-151889999D01*
X72378148Y-151873860D01*
X72378148Y-150386140D01*
X72379737Y-150370001D01*
X72382652Y-150360392D01*
X72387390Y-150351528D01*
X72393763Y-150343763D01*
X72401528Y-150337390D01*
X72410392Y-150332652D01*
X72420001Y-150329737D01*
X72436140Y-150328148D01*
X73423860Y-150328148D01*
X73439999Y-150329737D01*
G37*
G36*
X34556778Y-147710547D02*
G01*
X34723224Y-147779491D01*
X34873022Y-147879583D01*
X35000417Y-148006978D01*
X35100509Y-148156776D01*
X35169453Y-148323222D01*
X35204600Y-148499918D01*
X35204600Y-148680082D01*
X35169453Y-148856778D01*
X35100509Y-149023224D01*
X35000417Y-149173022D01*
X34873022Y-149300417D01*
X34723224Y-149400509D01*
X34556778Y-149469453D01*
X34380082Y-149504600D01*
X34199918Y-149504600D01*
X34023222Y-149469453D01*
X33856776Y-149400509D01*
X33706978Y-149300417D01*
X33579583Y-149173022D01*
X33479491Y-149023224D01*
X33410547Y-148856778D01*
X33375400Y-148680082D01*
X33375400Y-148499918D01*
X33410547Y-148323222D01*
X33479491Y-148156776D01*
X33579583Y-148006978D01*
X33706978Y-147879583D01*
X33856776Y-147779491D01*
X34023222Y-147710547D01*
X34199918Y-147675400D01*
X34380082Y-147675400D01*
X34556778Y-147710547D01*
G37*
G36*
X32016778Y-147710547D02*
G01*
X32183224Y-147779491D01*
X32333022Y-147879583D01*
X32460417Y-148006978D01*
X32560509Y-148156776D01*
X32629453Y-148323222D01*
X32664600Y-148499918D01*
X32664600Y-148680082D01*
X32629453Y-148856778D01*
X32560509Y-149023224D01*
X32460417Y-149173022D01*
X32333022Y-149300417D01*
X32183224Y-149400509D01*
X32016778Y-149469453D01*
X31840082Y-149504600D01*
X31659918Y-149504600D01*
X31483222Y-149469453D01*
X31316776Y-149400509D01*
X31166978Y-149300417D01*
X31039583Y-149173022D01*
X30939491Y-149023224D01*
X30870547Y-148856778D01*
X30835400Y-148680082D01*
X30835400Y-148499918D01*
X30870547Y-148323222D01*
X30939491Y-148156776D01*
X31039583Y-148006978D01*
X31166978Y-147879583D01*
X31316776Y-147779491D01*
X31483222Y-147710547D01*
X31659918Y-147675400D01*
X31840082Y-147675400D01*
X32016778Y-147710547D01*
G37*
G36*
X136751000Y-149191000D02*
G01*
X133849000Y-149191000D01*
X133849000Y-148089000D01*
X136751000Y-148089000D01*
X136751000Y-149191000D01*
G37*
G36*
X125601000Y-149191000D02*
G01*
X124299000Y-149191000D01*
X124299000Y-148089000D01*
X125601000Y-148089000D01*
X125601000Y-149191000D01*
G37*
G36*
X131601000Y-149191000D02*
G01*
X130699000Y-149191000D01*
X130699000Y-148089000D01*
X131601000Y-148089000D01*
X131601000Y-149191000D01*
G37*
G36*
X121301000Y-148091000D02*
G01*
X119999000Y-148091000D01*
X119999000Y-146339000D01*
X121301000Y-146339000D01*
X121301000Y-148091000D01*
G37*
G36*
X32664600Y-146964600D02*
G01*
X30835400Y-146964600D01*
X30835400Y-145135400D01*
X32664600Y-145135400D01*
X32664600Y-146964600D01*
G37*
G36*
X34556778Y-145170547D02*
G01*
X34723224Y-145239491D01*
X34873022Y-145339583D01*
X35000417Y-145466978D01*
X35100509Y-145616776D01*
X35169453Y-145783222D01*
X35204600Y-145959918D01*
X35204600Y-146140082D01*
X35169453Y-146316778D01*
X35100509Y-146483224D01*
X35000417Y-146633022D01*
X34873022Y-146760417D01*
X34723224Y-146860509D01*
X34556778Y-146929453D01*
X34380082Y-146964600D01*
X34199918Y-146964600D01*
X34023222Y-146929453D01*
X33856776Y-146860509D01*
X33706978Y-146760417D01*
X33579583Y-146633022D01*
X33479491Y-146483224D01*
X33410547Y-146316778D01*
X33375400Y-146140082D01*
X33375400Y-145959918D01*
X33410547Y-145783222D01*
X33479491Y-145616776D01*
X33579583Y-145466978D01*
X33706978Y-145339583D01*
X33856776Y-145239491D01*
X34023222Y-145170547D01*
X34199918Y-145135400D01*
X34380082Y-145135400D01*
X34556778Y-145170547D01*
G37*
G36*
X121301000Y-146041000D02*
G01*
X119999000Y-146041000D01*
X119999000Y-145239000D01*
X121301000Y-145239000D01*
X121301000Y-146041000D01*
G37*
G36*
X121301000Y-144941000D02*
G01*
X119999000Y-144941000D01*
X119999000Y-144139000D01*
X121301000Y-144139000D01*
X121301000Y-144941000D01*
G37*
G36*
X95629591Y-143813085D02*
G01*
X95663569Y-143823393D01*
X95694890Y-143840134D01*
X95722339Y-143862661D01*
X95744866Y-143890110D01*
X95761607Y-143921431D01*
X95771915Y-143955409D01*
X95776000Y-143996890D01*
X95776000Y-144598110D01*
X95771915Y-144639591D01*
X95761607Y-144673569D01*
X95744866Y-144704890D01*
X95722339Y-144732339D01*
X95694890Y-144754866D01*
X95663569Y-144771607D01*
X95629591Y-144781915D01*
X95588110Y-144786000D01*
X94911890Y-144786000D01*
X94870409Y-144781915D01*
X94836431Y-144771607D01*
X94805110Y-144754866D01*
X94777661Y-144732339D01*
X94755134Y-144704890D01*
X94738393Y-144673569D01*
X94728085Y-144639591D01*
X94724000Y-144598110D01*
X94724000Y-143996890D01*
X94728085Y-143955409D01*
X94738393Y-143921431D01*
X94755134Y-143890110D01*
X94777661Y-143862661D01*
X94805110Y-143840134D01*
X94836431Y-143823393D01*
X94870409Y-143813085D01*
X94911890Y-143809000D01*
X95588110Y-143809000D01*
X95629591Y-143813085D01*
G37*
G36*
X91819591Y-143813085D02*
G01*
X91853569Y-143823393D01*
X91884890Y-143840134D01*
X91912339Y-143862661D01*
X91934866Y-143890110D01*
X91951607Y-143921431D01*
X91961915Y-143955409D01*
X91966000Y-143996890D01*
X91966000Y-144598110D01*
X91961915Y-144639591D01*
X91951607Y-144673569D01*
X91934866Y-144704890D01*
X91912339Y-144732339D01*
X91884890Y-144754866D01*
X91853569Y-144771607D01*
X91819591Y-144781915D01*
X91778110Y-144786000D01*
X91101890Y-144786000D01*
X91060409Y-144781915D01*
X91026431Y-144771607D01*
X90995110Y-144754866D01*
X90967661Y-144732339D01*
X90945134Y-144704890D01*
X90928393Y-144673569D01*
X90918085Y-144639591D01*
X90914000Y-144598110D01*
X90914000Y-143996890D01*
X90918085Y-143955409D01*
X90928393Y-143921431D01*
X90945134Y-143890110D01*
X90967661Y-143862661D01*
X90995110Y-143840134D01*
X91026431Y-143823393D01*
X91060409Y-143813085D01*
X91101890Y-143809000D01*
X91778110Y-143809000D01*
X91819591Y-143813085D01*
G37*
G36*
X88214468Y-143581065D02*
G01*
X88253138Y-143592796D01*
X88288777Y-143611846D01*
X88320017Y-143637483D01*
X88345654Y-143668723D01*
X88364704Y-143704362D01*
X88376435Y-143743032D01*
X88381000Y-143789388D01*
X88381000Y-144440612D01*
X88376435Y-144486968D01*
X88364704Y-144525638D01*
X88345654Y-144561277D01*
X88320017Y-144592517D01*
X88288777Y-144618154D01*
X88253138Y-144637204D01*
X88214468Y-144648935D01*
X88168112Y-144653500D01*
X87091888Y-144653500D01*
X87045532Y-144648935D01*
X87006862Y-144637204D01*
X86971223Y-144618154D01*
X86939983Y-144592517D01*
X86914346Y-144561277D01*
X86895296Y-144525638D01*
X86883565Y-144486968D01*
X86879000Y-144440612D01*
X86879000Y-143789388D01*
X86883565Y-143743032D01*
X86895296Y-143704362D01*
X86914346Y-143668723D01*
X86939983Y-143637483D01*
X86971223Y-143611846D01*
X87006862Y-143592796D01*
X87045532Y-143581065D01*
X87091888Y-143576500D01*
X88168112Y-143576500D01*
X88214468Y-143581065D01*
G37*
G36*
X121301000Y-143841000D02*
G01*
X119999000Y-143841000D01*
X119999000Y-143039000D01*
X121301000Y-143039000D01*
X121301000Y-143841000D01*
G37*
G36*
X73966564Y-141229389D02*
G01*
X74157833Y-141308615D01*
X74157835Y-141308616D01*
X74329973Y-141423635D01*
X74476365Y-141570027D01*
X74567670Y-141706674D01*
X74591385Y-141742167D01*
X74670611Y-141933436D01*
X74711000Y-142136484D01*
X74711000Y-142343516D01*
X74670611Y-142546564D01*
X74643387Y-142612288D01*
X74591384Y-142737835D01*
X74476365Y-142909973D01*
X74329973Y-143056365D01*
X74157835Y-143171384D01*
X74157834Y-143171385D01*
X74157833Y-143171385D01*
X73966564Y-143250611D01*
X73763516Y-143291000D01*
X73556484Y-143291000D01*
X73353436Y-143250611D01*
X73162167Y-143171385D01*
X73162166Y-143171385D01*
X73162165Y-143171384D01*
X72990027Y-143056365D01*
X72843635Y-142909973D01*
X72728616Y-142737835D01*
X72676613Y-142612288D01*
X72649389Y-142546564D01*
X72609000Y-142343516D01*
X72609000Y-142136484D01*
X72649389Y-141933436D01*
X72728615Y-141742167D01*
X72752331Y-141706674D01*
X72843635Y-141570027D01*
X72990027Y-141423635D01*
X73162165Y-141308616D01*
X73162167Y-141308615D01*
X73353436Y-141229389D01*
X73556484Y-141189000D01*
X73763516Y-141189000D01*
X73966564Y-141229389D01*
G37*
G36*
X58726564Y-141229389D02*
G01*
X58917833Y-141308615D01*
X58917835Y-141308616D01*
X59089973Y-141423635D01*
X59236365Y-141570027D01*
X59327670Y-141706674D01*
X59351385Y-141742167D01*
X59430611Y-141933436D01*
X59471000Y-142136484D01*
X59471000Y-142343516D01*
X59430611Y-142546564D01*
X59403387Y-142612288D01*
X59351384Y-142737835D01*
X59236365Y-142909973D01*
X59089973Y-143056365D01*
X58917835Y-143171384D01*
X58917834Y-143171385D01*
X58917833Y-143171385D01*
X58726564Y-143250611D01*
X58523516Y-143291000D01*
X58316484Y-143291000D01*
X58113436Y-143250611D01*
X57922167Y-143171385D01*
X57922166Y-143171385D01*
X57922165Y-143171384D01*
X57750027Y-143056365D01*
X57603635Y-142909973D01*
X57488616Y-142737835D01*
X57436613Y-142612288D01*
X57409389Y-142546564D01*
X57369000Y-142343516D01*
X57369000Y-142136484D01*
X57409389Y-141933436D01*
X57488615Y-141742167D01*
X57512331Y-141706674D01*
X57603635Y-141570027D01*
X57750027Y-141423635D01*
X57922165Y-141308616D01*
X57922167Y-141308615D01*
X58113436Y-141229389D01*
X58316484Y-141189000D01*
X58523516Y-141189000D01*
X58726564Y-141229389D01*
G37*
G36*
X95629591Y-142238085D02*
G01*
X95663569Y-142248393D01*
X95694890Y-142265134D01*
X95722339Y-142287661D01*
X95744866Y-142315110D01*
X95761607Y-142346431D01*
X95771915Y-142380409D01*
X95776000Y-142421890D01*
X95776000Y-143023110D01*
X95771915Y-143064591D01*
X95761607Y-143098569D01*
X95744866Y-143129890D01*
X95722339Y-143157339D01*
X95694890Y-143179866D01*
X95663569Y-143196607D01*
X95629591Y-143206915D01*
X95588110Y-143211000D01*
X94911890Y-143211000D01*
X94870409Y-143206915D01*
X94836431Y-143196607D01*
X94805110Y-143179866D01*
X94777661Y-143157339D01*
X94755134Y-143129890D01*
X94738393Y-143098569D01*
X94728085Y-143064591D01*
X94724000Y-143023110D01*
X94724000Y-142421890D01*
X94728085Y-142380409D01*
X94738393Y-142346431D01*
X94755134Y-142315110D01*
X94777661Y-142287661D01*
X94805110Y-142265134D01*
X94836431Y-142248393D01*
X94870409Y-142238085D01*
X94911890Y-142234000D01*
X95588110Y-142234000D01*
X95629591Y-142238085D01*
G37*
G36*
X91819591Y-142238085D02*
G01*
X91853569Y-142248393D01*
X91884890Y-142265134D01*
X91912339Y-142287661D01*
X91934866Y-142315110D01*
X91951607Y-142346431D01*
X91961915Y-142380409D01*
X91966000Y-142421890D01*
X91966000Y-143023110D01*
X91961915Y-143064591D01*
X91951607Y-143098569D01*
X91934866Y-143129890D01*
X91912339Y-143157339D01*
X91884890Y-143179866D01*
X91853569Y-143196607D01*
X91819591Y-143206915D01*
X91778110Y-143211000D01*
X91101890Y-143211000D01*
X91060409Y-143206915D01*
X91026431Y-143196607D01*
X90995110Y-143179866D01*
X90967661Y-143157339D01*
X90945134Y-143129890D01*
X90928393Y-143098569D01*
X90918085Y-143064591D01*
X90914000Y-143023110D01*
X90914000Y-142421890D01*
X90918085Y-142380409D01*
X90928393Y-142346431D01*
X90945134Y-142315110D01*
X90967661Y-142287661D01*
X90995110Y-142265134D01*
X91026431Y-142248393D01*
X91060409Y-142238085D01*
X91101890Y-142234000D01*
X91778110Y-142234000D01*
X91819591Y-142238085D01*
G37*
G36*
X45351000Y-143141000D02*
G01*
X43549000Y-143141000D01*
X43549000Y-141339000D01*
X45351000Y-141339000D01*
X45351000Y-143141000D01*
G37*
G36*
X47103512Y-141343927D02*
G01*
X47252812Y-141373624D01*
X47416784Y-141441544D01*
X47564354Y-141540147D01*
X47689853Y-141665646D01*
X47788456Y-141813216D01*
X47856376Y-141977188D01*
X47891000Y-142151259D01*
X47891000Y-142328741D01*
X47856376Y-142502812D01*
X47788456Y-142666784D01*
X47689853Y-142814354D01*
X47564354Y-142939853D01*
X47416784Y-143038456D01*
X47252812Y-143106376D01*
X47103512Y-143136073D01*
X47078742Y-143141000D01*
X46901258Y-143141000D01*
X46876488Y-143136073D01*
X46727188Y-143106376D01*
X46563216Y-143038456D01*
X46415646Y-142939853D01*
X46290147Y-142814354D01*
X46191544Y-142666784D01*
X46123624Y-142502812D01*
X46089000Y-142328741D01*
X46089000Y-142151259D01*
X46123624Y-141977188D01*
X46191544Y-141813216D01*
X46290147Y-141665646D01*
X46415646Y-141540147D01*
X46563216Y-141441544D01*
X46727188Y-141373624D01*
X46876488Y-141343927D01*
X46901258Y-141339000D01*
X47078742Y-141339000D01*
X47103512Y-141343927D01*
G37*
G36*
X88214468Y-141706065D02*
G01*
X88253138Y-141717796D01*
X88288777Y-141736846D01*
X88320017Y-141762483D01*
X88345654Y-141793723D01*
X88364704Y-141829362D01*
X88376435Y-141868032D01*
X88381000Y-141914388D01*
X88381000Y-142565612D01*
X88376435Y-142611968D01*
X88364704Y-142650638D01*
X88345654Y-142686277D01*
X88320017Y-142717517D01*
X88288777Y-142743154D01*
X88253138Y-142762204D01*
X88214468Y-142773935D01*
X88168112Y-142778500D01*
X87091888Y-142778500D01*
X87045532Y-142773935D01*
X87006862Y-142762204D01*
X86971223Y-142743154D01*
X86939983Y-142717517D01*
X86914346Y-142686277D01*
X86895296Y-142650638D01*
X86883565Y-142611968D01*
X86879000Y-142565612D01*
X86879000Y-141914388D01*
X86883565Y-141868032D01*
X86895296Y-141829362D01*
X86914346Y-141793723D01*
X86939983Y-141762483D01*
X86971223Y-141736846D01*
X87006862Y-141717796D01*
X87045532Y-141706065D01*
X87091888Y-141701500D01*
X88168112Y-141701500D01*
X88214468Y-141706065D01*
G37*
G36*
X121301000Y-142741000D02*
G01*
X119999000Y-142741000D01*
X119999000Y-141939000D01*
X121301000Y-141939000D01*
X121301000Y-142741000D01*
G37*
G36*
X121301000Y-141641000D02*
G01*
X119999000Y-141641000D01*
X119999000Y-140839000D01*
X121301000Y-140839000D01*
X121301000Y-141641000D01*
G37*
G36*
X121301000Y-140541000D02*
G01*
X119999000Y-140541000D01*
X119999000Y-139739000D01*
X121301000Y-139739000D01*
X121301000Y-140541000D01*
G37*
G36*
X121301000Y-139441000D02*
G01*
X119999000Y-139441000D01*
X119999000Y-138639000D01*
X121301000Y-138639000D01*
X121301000Y-139441000D01*
G37*
G36*
X121301000Y-138041000D02*
G01*
X119999000Y-138041000D01*
X119999000Y-136939000D01*
X121301000Y-136939000D01*
X121301000Y-138041000D01*
G37*
G36*
X84404468Y-136293565D02*
G01*
X84443138Y-136305296D01*
X84478777Y-136324346D01*
X84510017Y-136349983D01*
X84535654Y-136381223D01*
X84554704Y-136416862D01*
X84566435Y-136455532D01*
X84571000Y-136501888D01*
X84571000Y-137153112D01*
X84566435Y-137199468D01*
X84554704Y-137238138D01*
X84535654Y-137273777D01*
X84510017Y-137305017D01*
X84478777Y-137330654D01*
X84443138Y-137349704D01*
X84404468Y-137361435D01*
X84358112Y-137366000D01*
X83281888Y-137366000D01*
X83235532Y-137361435D01*
X83196862Y-137349704D01*
X83161223Y-137330654D01*
X83129983Y-137305017D01*
X83104346Y-137273777D01*
X83085296Y-137238138D01*
X83073565Y-137199468D01*
X83069000Y-137153112D01*
X83069000Y-136501888D01*
X83073565Y-136455532D01*
X83085296Y-136416862D01*
X83104346Y-136381223D01*
X83129983Y-136349983D01*
X83161223Y-136324346D01*
X83196862Y-136305296D01*
X83235532Y-136293565D01*
X83281888Y-136289000D01*
X84358112Y-136289000D01*
X84404468Y-136293565D01*
G37*
G36*
X88009591Y-136193085D02*
G01*
X88043569Y-136203393D01*
X88074890Y-136220134D01*
X88102339Y-136242661D01*
X88124866Y-136270110D01*
X88141607Y-136301431D01*
X88151915Y-136335409D01*
X88156000Y-136376890D01*
X88156000Y-136978110D01*
X88151915Y-137019591D01*
X88141607Y-137053569D01*
X88124866Y-137084890D01*
X88102339Y-137112339D01*
X88074890Y-137134866D01*
X88043569Y-137151607D01*
X88009591Y-137161915D01*
X87968110Y-137166000D01*
X87291890Y-137166000D01*
X87250409Y-137161915D01*
X87216431Y-137151607D01*
X87185110Y-137134866D01*
X87157661Y-137112339D01*
X87135134Y-137084890D01*
X87118393Y-137053569D01*
X87108085Y-137019591D01*
X87104000Y-136978110D01*
X87104000Y-136376890D01*
X87108085Y-136335409D01*
X87118393Y-136301431D01*
X87135134Y-136270110D01*
X87157661Y-136242661D01*
X87185110Y-136220134D01*
X87216431Y-136203393D01*
X87250409Y-136193085D01*
X87291890Y-136189000D01*
X87968110Y-136189000D01*
X88009591Y-136193085D01*
G37*
G36*
X96951000Y-136781000D02*
G01*
X93549000Y-136781000D01*
X93549000Y-134179000D01*
X96951000Y-134179000D01*
X96951000Y-136781000D01*
G37*
G36*
X63271000Y-136021000D02*
G01*
X62269000Y-136021000D01*
X62269000Y-135119000D01*
X63271000Y-135119000D01*
X63271000Y-136021000D01*
G37*
G36*
X136751000Y-135841000D02*
G01*
X134749000Y-135841000D01*
X134749000Y-134439000D01*
X136751000Y-134439000D01*
X136751000Y-135841000D01*
G37*
G36*
X104724468Y-134691065D02*
G01*
X104763138Y-134702796D01*
X104798777Y-134721846D01*
X104830017Y-134747483D01*
X104855654Y-134778723D01*
X104874704Y-134814362D01*
X104886435Y-134853032D01*
X104891000Y-134899388D01*
X104891000Y-135550612D01*
X104886435Y-135596968D01*
X104874704Y-135635638D01*
X104855654Y-135671277D01*
X104830017Y-135702517D01*
X104798777Y-135728154D01*
X104763138Y-135747204D01*
X104724468Y-135758935D01*
X104678112Y-135763500D01*
X103601888Y-135763500D01*
X103555532Y-135758935D01*
X103516862Y-135747204D01*
X103481223Y-135728154D01*
X103449983Y-135702517D01*
X103424346Y-135671277D01*
X103405296Y-135635638D01*
X103393565Y-135596968D01*
X103389000Y-135550612D01*
X103389000Y-134899388D01*
X103393565Y-134853032D01*
X103405296Y-134814362D01*
X103424346Y-134778723D01*
X103449983Y-134747483D01*
X103481223Y-134721846D01*
X103516862Y-134702796D01*
X103555532Y-134691065D01*
X103601888Y-134686500D01*
X104678112Y-134686500D01*
X104724468Y-134691065D01*
G37*
G36*
X88009591Y-134618085D02*
G01*
X88043569Y-134628393D01*
X88074890Y-134645134D01*
X88102339Y-134667661D01*
X88124866Y-134695110D01*
X88141607Y-134726431D01*
X88151915Y-134760409D01*
X88156000Y-134801890D01*
X88156000Y-135403110D01*
X88151915Y-135444591D01*
X88141607Y-135478569D01*
X88124866Y-135509890D01*
X88102339Y-135537339D01*
X88074890Y-135559866D01*
X88043569Y-135576607D01*
X88009591Y-135586915D01*
X87968110Y-135591000D01*
X87291890Y-135591000D01*
X87250409Y-135586915D01*
X87216431Y-135576607D01*
X87185110Y-135559866D01*
X87157661Y-135537339D01*
X87135134Y-135509890D01*
X87118393Y-135478569D01*
X87108085Y-135444591D01*
X87104000Y-135403110D01*
X87104000Y-134801890D01*
X87108085Y-134760409D01*
X87118393Y-134726431D01*
X87135134Y-134695110D01*
X87157661Y-134667661D01*
X87185110Y-134645134D01*
X87216431Y-134628393D01*
X87250409Y-134618085D01*
X87291890Y-134614000D01*
X87968110Y-134614000D01*
X88009591Y-134618085D01*
G37*
G36*
X84404468Y-134418565D02*
G01*
X84443138Y-134430296D01*
X84478777Y-134449346D01*
X84510017Y-134474983D01*
X84535654Y-134506223D01*
X84554704Y-134541862D01*
X84566435Y-134580532D01*
X84571000Y-134626888D01*
X84571000Y-135278112D01*
X84566435Y-135324468D01*
X84554704Y-135363138D01*
X84535654Y-135398777D01*
X84510017Y-135430017D01*
X84478777Y-135455654D01*
X84443138Y-135474704D01*
X84404468Y-135486435D01*
X84358112Y-135491000D01*
X83281888Y-135491000D01*
X83235532Y-135486435D01*
X83196862Y-135474704D01*
X83161223Y-135455654D01*
X83129983Y-135430017D01*
X83104346Y-135398777D01*
X83085296Y-135363138D01*
X83073565Y-135324468D01*
X83069000Y-135278112D01*
X83069000Y-134626888D01*
X83073565Y-134580532D01*
X83085296Y-134541862D01*
X83104346Y-134506223D01*
X83129983Y-134474983D01*
X83161223Y-134449346D01*
X83196862Y-134430296D01*
X83235532Y-134418565D01*
X83281888Y-134414000D01*
X84358112Y-134414000D01*
X84404468Y-134418565D01*
G37*
G36*
X79131000Y-135181000D02*
G01*
X77029000Y-135181000D01*
X77029000Y-133579000D01*
X79131000Y-133579000D01*
X79131000Y-135181000D01*
G37*
G36*
X65271000Y-135071000D02*
G01*
X64269000Y-135071000D01*
X64269000Y-134169000D01*
X65271000Y-134169000D01*
X65271000Y-135071000D01*
G37*
G36*
X63271000Y-134121000D02*
G01*
X62269000Y-134121000D01*
X62269000Y-133219000D01*
X63271000Y-133219000D01*
X63271000Y-134121000D01*
G37*
G36*
X72831000Y-134031000D02*
G01*
X70729000Y-134031000D01*
X70729000Y-130129000D01*
X72831000Y-130129000D01*
X72831000Y-134031000D01*
G37*
G36*
X104724468Y-132816065D02*
G01*
X104763138Y-132827796D01*
X104798777Y-132846846D01*
X104830017Y-132872483D01*
X104855654Y-132903723D01*
X104874704Y-132939362D01*
X104886435Y-132978032D01*
X104891000Y-133024388D01*
X104891000Y-133675612D01*
X104886435Y-133721968D01*
X104874704Y-133760638D01*
X104855654Y-133796277D01*
X104830017Y-133827517D01*
X104798777Y-133853154D01*
X104763138Y-133872204D01*
X104724468Y-133883935D01*
X104678112Y-133888500D01*
X103601888Y-133888500D01*
X103555532Y-133883935D01*
X103516862Y-133872204D01*
X103481223Y-133853154D01*
X103449983Y-133827517D01*
X103424346Y-133796277D01*
X103405296Y-133760638D01*
X103393565Y-133721968D01*
X103389000Y-133675612D01*
X103389000Y-133024388D01*
X103393565Y-132978032D01*
X103405296Y-132939362D01*
X103424346Y-132903723D01*
X103449983Y-132872483D01*
X103481223Y-132846846D01*
X103516862Y-132827796D01*
X103555532Y-132816065D01*
X103601888Y-132811500D01*
X104678112Y-132811500D01*
X104724468Y-132816065D01*
G37*
G36*
X59004468Y-132483565D02*
G01*
X59043138Y-132495296D01*
X59078777Y-132514346D01*
X59110017Y-132539983D01*
X59135654Y-132571223D01*
X59154704Y-132606862D01*
X59166435Y-132645532D01*
X59171000Y-132691888D01*
X59171000Y-133343112D01*
X59166435Y-133389468D01*
X59154704Y-133428138D01*
X59135654Y-133463777D01*
X59110017Y-133495017D01*
X59078777Y-133520654D01*
X59043138Y-133539704D01*
X59004468Y-133551435D01*
X58958112Y-133556000D01*
X57881888Y-133556000D01*
X57835532Y-133551435D01*
X57796862Y-133539704D01*
X57761223Y-133520654D01*
X57729983Y-133495017D01*
X57704346Y-133463777D01*
X57685296Y-133428138D01*
X57673565Y-133389468D01*
X57669000Y-133343112D01*
X57669000Y-132691888D01*
X57673565Y-132645532D01*
X57685296Y-132606862D01*
X57704346Y-132571223D01*
X57729983Y-132539983D01*
X57761223Y-132514346D01*
X57796862Y-132495296D01*
X57835532Y-132483565D01*
X57881888Y-132479000D01*
X58958112Y-132479000D01*
X59004468Y-132483565D01*
G37*
G36*
X79131000Y-132881000D02*
G01*
X77029000Y-132881000D01*
X77029000Y-131279000D01*
X79131000Y-131279000D01*
X79131000Y-132881000D01*
G37*
G36*
X59004468Y-130608565D02*
G01*
X59043138Y-130620296D01*
X59078777Y-130639346D01*
X59110017Y-130664983D01*
X59135654Y-130696223D01*
X59154704Y-130731862D01*
X59166435Y-130770532D01*
X59171000Y-130816888D01*
X59171000Y-131468112D01*
X59166435Y-131514468D01*
X59154704Y-131553138D01*
X59135654Y-131588777D01*
X59110017Y-131620017D01*
X59078777Y-131645654D01*
X59043138Y-131664704D01*
X59004468Y-131676435D01*
X58958112Y-131681000D01*
X57881888Y-131681000D01*
X57835532Y-131676435D01*
X57796862Y-131664704D01*
X57761223Y-131645654D01*
X57729983Y-131620017D01*
X57704346Y-131588777D01*
X57685296Y-131553138D01*
X57673565Y-131514468D01*
X57669000Y-131468112D01*
X57669000Y-130816888D01*
X57673565Y-130770532D01*
X57685296Y-130731862D01*
X57704346Y-130696223D01*
X57729983Y-130664983D01*
X57761223Y-130639346D01*
X57796862Y-130620296D01*
X57835532Y-130608565D01*
X57881888Y-130604000D01*
X58958112Y-130604000D01*
X59004468Y-130608565D01*
G37*
G36*
X84404468Y-130276065D02*
G01*
X84443138Y-130287796D01*
X84478777Y-130306846D01*
X84510017Y-130332483D01*
X84535654Y-130363723D01*
X84554704Y-130399362D01*
X84566435Y-130438032D01*
X84571000Y-130484388D01*
X84571000Y-131135612D01*
X84566435Y-131181968D01*
X84554704Y-131220638D01*
X84535654Y-131256277D01*
X84510017Y-131287517D01*
X84478777Y-131313154D01*
X84443138Y-131332204D01*
X84404468Y-131343935D01*
X84358112Y-131348500D01*
X83281888Y-131348500D01*
X83235532Y-131343935D01*
X83196862Y-131332204D01*
X83161223Y-131313154D01*
X83129983Y-131287517D01*
X83104346Y-131256277D01*
X83085296Y-131220638D01*
X83073565Y-131181968D01*
X83069000Y-131135612D01*
X83069000Y-130484388D01*
X83073565Y-130438032D01*
X83085296Y-130399362D01*
X83104346Y-130363723D01*
X83129983Y-130332483D01*
X83161223Y-130306846D01*
X83196862Y-130287796D01*
X83235532Y-130276065D01*
X83281888Y-130271500D01*
X84358112Y-130271500D01*
X84404468Y-130276065D01*
G37*
G36*
X104519591Y-129843085D02*
G01*
X104553569Y-129853393D01*
X104584890Y-129870134D01*
X104612339Y-129892661D01*
X104634866Y-129920110D01*
X104651607Y-129951431D01*
X104661915Y-129985409D01*
X104666000Y-130026890D01*
X104666000Y-130628110D01*
X104661915Y-130669591D01*
X104651607Y-130703569D01*
X104634866Y-130734890D01*
X104612339Y-130762339D01*
X104584890Y-130784866D01*
X104553569Y-130801607D01*
X104519591Y-130811915D01*
X104478110Y-130816000D01*
X103801890Y-130816000D01*
X103760409Y-130811915D01*
X103726431Y-130801607D01*
X103695110Y-130784866D01*
X103667661Y-130762339D01*
X103645134Y-130734890D01*
X103628393Y-130703569D01*
X103618085Y-130669591D01*
X103614000Y-130628110D01*
X103614000Y-130026890D01*
X103618085Y-129985409D01*
X103628393Y-129951431D01*
X103645134Y-129920110D01*
X103667661Y-129892661D01*
X103695110Y-129870134D01*
X103726431Y-129853393D01*
X103760409Y-129843085D01*
X103801890Y-129839000D01*
X104478110Y-129839000D01*
X104519591Y-129843085D01*
G37*
G36*
X79131000Y-130581000D02*
G01*
X77029000Y-130581000D01*
X77029000Y-128979000D01*
X79131000Y-128979000D01*
X79131000Y-130581000D01*
G37*
G36*
X65141968Y-128793565D02*
G01*
X65180638Y-128805296D01*
X65216277Y-128824346D01*
X65247517Y-128849983D01*
X65273154Y-128881223D01*
X65292204Y-128916862D01*
X65303935Y-128955532D01*
X65308500Y-129001888D01*
X65308500Y-130078112D01*
X65303935Y-130124468D01*
X65292204Y-130163138D01*
X65273154Y-130198777D01*
X65247517Y-130230017D01*
X65216277Y-130255654D01*
X65180638Y-130274704D01*
X65141968Y-130286435D01*
X65095612Y-130291000D01*
X64444388Y-130291000D01*
X64398032Y-130286435D01*
X64359362Y-130274704D01*
X64323723Y-130255654D01*
X64292483Y-130230017D01*
X64266846Y-130198777D01*
X64247796Y-130163138D01*
X64236065Y-130124468D01*
X64231500Y-130078112D01*
X64231500Y-129001888D01*
X64236065Y-128955532D01*
X64247796Y-128916862D01*
X64266846Y-128881223D01*
X64292483Y-128849983D01*
X64323723Y-128824346D01*
X64359362Y-128805296D01*
X64398032Y-128793565D01*
X64444388Y-128789000D01*
X65095612Y-128789000D01*
X65141968Y-128793565D01*
G37*
G36*
X63266968Y-128793565D02*
G01*
X63305638Y-128805296D01*
X63341277Y-128824346D01*
X63372517Y-128849983D01*
X63398154Y-128881223D01*
X63417204Y-128916862D01*
X63428935Y-128955532D01*
X63433500Y-129001888D01*
X63433500Y-130078112D01*
X63428935Y-130124468D01*
X63417204Y-130163138D01*
X63398154Y-130198777D01*
X63372517Y-130230017D01*
X63341277Y-130255654D01*
X63305638Y-130274704D01*
X63266968Y-130286435D01*
X63220612Y-130291000D01*
X62569388Y-130291000D01*
X62523032Y-130286435D01*
X62484362Y-130274704D01*
X62448723Y-130255654D01*
X62417483Y-130230017D01*
X62391846Y-130198777D01*
X62372796Y-130163138D01*
X62361065Y-130124468D01*
X62356500Y-130078112D01*
X62356500Y-129001888D01*
X62361065Y-128955532D01*
X62372796Y-128916862D01*
X62391846Y-128881223D01*
X62417483Y-128849983D01*
X62448723Y-128824346D01*
X62484362Y-128805296D01*
X62523032Y-128793565D01*
X62569388Y-128789000D01*
X63220612Y-128789000D01*
X63266968Y-128793565D01*
G37*
G36*
X96951000Y-129981000D02*
G01*
X93549000Y-129981000D01*
X93549000Y-127379000D01*
X96951000Y-127379000D01*
X96951000Y-129981000D01*
G37*
G36*
X132455256Y-126661298D02*
G01*
X132561579Y-126682447D01*
X132862042Y-126806903D01*
X133132451Y-126987585D01*
X133362415Y-127217549D01*
X133362416Y-127217551D01*
X133543098Y-127487960D01*
X133667553Y-127788422D01*
X133731000Y-128107389D01*
X133731000Y-128432611D01*
X133715954Y-128508250D01*
X133667553Y-128751579D01*
X133599090Y-128916862D01*
X133563872Y-129001888D01*
X133543097Y-129052042D01*
X133362415Y-129322451D01*
X133132451Y-129552415D01*
X132862042Y-129733097D01*
X132561579Y-129857553D01*
X132498330Y-129870134D01*
X132242611Y-129921000D01*
X131917389Y-129921000D01*
X131661670Y-129870134D01*
X131598421Y-129857553D01*
X131297958Y-129733097D01*
X131027549Y-129552415D01*
X130797585Y-129322451D01*
X130616903Y-129052042D01*
X130596129Y-129001888D01*
X130560910Y-128916862D01*
X130492447Y-128751579D01*
X130444046Y-128508250D01*
X130429000Y-128432611D01*
X130429000Y-128107389D01*
X130492447Y-127788422D01*
X130616902Y-127487960D01*
X130797584Y-127217551D01*
X130797585Y-127217549D01*
X131027549Y-126987585D01*
X131297958Y-126806903D01*
X131598421Y-126682447D01*
X131704744Y-126661298D01*
X131917389Y-126619000D01*
X132242611Y-126619000D01*
X132455256Y-126661298D01*
G37*
G36*
X32125256Y-126661298D02*
G01*
X32231579Y-126682447D01*
X32532042Y-126806903D01*
X32802451Y-126987585D01*
X33032415Y-127217549D01*
X33032416Y-127217551D01*
X33213098Y-127487960D01*
X33337553Y-127788422D01*
X33401000Y-128107389D01*
X33401000Y-128432611D01*
X33385954Y-128508250D01*
X33337553Y-128751579D01*
X33269090Y-128916862D01*
X33233872Y-129001888D01*
X33213097Y-129052042D01*
X33032415Y-129322451D01*
X32802451Y-129552415D01*
X32532042Y-129733097D01*
X32231579Y-129857553D01*
X32168330Y-129870134D01*
X31912611Y-129921000D01*
X31587389Y-129921000D01*
X31331670Y-129870134D01*
X31268421Y-129857553D01*
X30967958Y-129733097D01*
X30697549Y-129552415D01*
X30467585Y-129322451D01*
X30286903Y-129052042D01*
X30266129Y-129001888D01*
X30230910Y-128916862D01*
X30162447Y-128751579D01*
X30114046Y-128508250D01*
X30099000Y-128432611D01*
X30099000Y-128107389D01*
X30162447Y-127788422D01*
X30286902Y-127487960D01*
X30467584Y-127217551D01*
X30467585Y-127217549D01*
X30697549Y-126987585D01*
X30967958Y-126806903D01*
X31268421Y-126682447D01*
X31374744Y-126661298D01*
X31587389Y-126619000D01*
X31912611Y-126619000D01*
X32125256Y-126661298D01*
G37*
G36*
X84404468Y-128401065D02*
G01*
X84443138Y-128412796D01*
X84478777Y-128431846D01*
X84510017Y-128457483D01*
X84535654Y-128488723D01*
X84554704Y-128524362D01*
X84566435Y-128563032D01*
X84571000Y-128609388D01*
X84571000Y-129260612D01*
X84566435Y-129306968D01*
X84554704Y-129345638D01*
X84535654Y-129381277D01*
X84510017Y-129412517D01*
X84478777Y-129438154D01*
X84443138Y-129457204D01*
X84404468Y-129468935D01*
X84358112Y-129473500D01*
X83281888Y-129473500D01*
X83235532Y-129468935D01*
X83196862Y-129457204D01*
X83161223Y-129438154D01*
X83129983Y-129412517D01*
X83104346Y-129381277D01*
X83085296Y-129345638D01*
X83073565Y-129306968D01*
X83069000Y-129260612D01*
X83069000Y-128609388D01*
X83073565Y-128563032D01*
X83085296Y-128524362D01*
X83104346Y-128488723D01*
X83129983Y-128457483D01*
X83161223Y-128431846D01*
X83196862Y-128412796D01*
X83235532Y-128401065D01*
X83281888Y-128396500D01*
X84358112Y-128396500D01*
X84404468Y-128401065D01*
G37*
G36*
X104519591Y-128268085D02*
G01*
X104553569Y-128278393D01*
X104584890Y-128295134D01*
X104612339Y-128317661D01*
X104634866Y-128345110D01*
X104651607Y-128376431D01*
X104661915Y-128410409D01*
X104666000Y-128451890D01*
X104666000Y-129053110D01*
X104661915Y-129094591D01*
X104651607Y-129128569D01*
X104634866Y-129159890D01*
X104612339Y-129187339D01*
X104584890Y-129209866D01*
X104553569Y-129226607D01*
X104519591Y-129236915D01*
X104478110Y-129241000D01*
X103801890Y-129241000D01*
X103760409Y-129236915D01*
X103726431Y-129226607D01*
X103695110Y-129209866D01*
X103667661Y-129187339D01*
X103645134Y-129159890D01*
X103628393Y-129128569D01*
X103618085Y-129094591D01*
X103614000Y-129053110D01*
X103614000Y-128451890D01*
X103618085Y-128410409D01*
X103628393Y-128376431D01*
X103645134Y-128345110D01*
X103667661Y-128317661D01*
X103695110Y-128295134D01*
X103726431Y-128278393D01*
X103760409Y-128268085D01*
X103801890Y-128264000D01*
X104478110Y-128264000D01*
X104519591Y-128268085D01*
G37*
M02*
