G04 #@! TF.GenerationSoftware,KiCad,Pcbnew,5.1.5+dfsg1-2build2*
G04 #@! TF.CreationDate,2020-08-31T23:04:32+02:00*
G04 #@! TF.ProjectId,Telemetry,54656c65-6d65-4747-9279-2e6b69636164,rev?*
G04 #@! TF.SameCoordinates,Original*
G04 #@! TF.FileFunction,Legend,Top*
G04 #@! TF.FilePolarity,Positive*
%FSLAX46Y46*%
G04 Gerber Fmt 4.6, Leading zero omitted, Abs format (unit mm)*
G04 Created by KiCad (PCBNEW 5.1.5+dfsg1-2build2) date 2020-08-31 23:04:32*
%MOMM*%
%LPD*%
G04 APERTURE LIST*
%ADD10C,0.180000*%
%ADD11C,0.150000*%
%ADD12C,0.120000*%
%ADD13C,0.127000*%
%ADD14C,0.200000*%
%ADD15C,0.010000*%
G04 APERTURE END LIST*
D10*
X117273809Y-150862380D02*
X117845238Y-150862380D01*
X117559523Y-151862380D02*
X117559523Y-150862380D01*
X118559523Y-151814761D02*
X118464285Y-151862380D01*
X118273809Y-151862380D01*
X118178571Y-151814761D01*
X118130952Y-151719523D01*
X118130952Y-151338571D01*
X118178571Y-151243333D01*
X118273809Y-151195714D01*
X118464285Y-151195714D01*
X118559523Y-151243333D01*
X118607142Y-151338571D01*
X118607142Y-151433809D01*
X118130952Y-151529047D01*
X119178571Y-151862380D02*
X119083333Y-151814761D01*
X119035714Y-151719523D01*
X119035714Y-150862380D01*
X119940476Y-151814761D02*
X119845238Y-151862380D01*
X119654761Y-151862380D01*
X119559523Y-151814761D01*
X119511904Y-151719523D01*
X119511904Y-151338571D01*
X119559523Y-151243333D01*
X119654761Y-151195714D01*
X119845238Y-151195714D01*
X119940476Y-151243333D01*
X119988095Y-151338571D01*
X119988095Y-151433809D01*
X119511904Y-151529047D01*
X120416666Y-151862380D02*
X120416666Y-151195714D01*
X120416666Y-151290952D02*
X120464285Y-151243333D01*
X120559523Y-151195714D01*
X120702380Y-151195714D01*
X120797619Y-151243333D01*
X120845238Y-151338571D01*
X120845238Y-151862380D01*
X120845238Y-151338571D02*
X120892857Y-151243333D01*
X120988095Y-151195714D01*
X121130952Y-151195714D01*
X121226190Y-151243333D01*
X121273809Y-151338571D01*
X121273809Y-151862380D01*
X122130952Y-151814761D02*
X122035714Y-151862380D01*
X121845238Y-151862380D01*
X121750000Y-151814761D01*
X121702380Y-151719523D01*
X121702380Y-151338571D01*
X121750000Y-151243333D01*
X121845238Y-151195714D01*
X122035714Y-151195714D01*
X122130952Y-151243333D01*
X122178571Y-151338571D01*
X122178571Y-151433809D01*
X121702380Y-151529047D01*
X122464285Y-151195714D02*
X122845238Y-151195714D01*
X122607142Y-150862380D02*
X122607142Y-151719523D01*
X122654761Y-151814761D01*
X122750000Y-151862380D01*
X122845238Y-151862380D01*
X123178571Y-151862380D02*
X123178571Y-151195714D01*
X123178571Y-151386190D02*
X123226190Y-151290952D01*
X123273809Y-151243333D01*
X123369047Y-151195714D01*
X123464285Y-151195714D01*
X123702380Y-151195714D02*
X123940476Y-151862380D01*
X124178571Y-151195714D02*
X123940476Y-151862380D01*
X123845238Y-152100476D01*
X123797619Y-152148095D01*
X123702380Y-152195714D01*
X114654761Y-152875714D02*
X114892857Y-153542380D01*
X115130952Y-152875714D01*
X116035714Y-153542380D02*
X115464285Y-153542380D01*
X115750000Y-153542380D02*
X115750000Y-152542380D01*
X115654761Y-152685238D01*
X115559523Y-152780476D01*
X115464285Y-152828095D01*
X116464285Y-153447142D02*
X116511904Y-153494761D01*
X116464285Y-153542380D01*
X116416666Y-153494761D01*
X116464285Y-153447142D01*
X116464285Y-153542380D01*
X117369047Y-152875714D02*
X117369047Y-153542380D01*
X117130952Y-152494761D02*
X116892857Y-153209047D01*
X117511904Y-153209047D01*
X118607142Y-152637619D02*
X118654761Y-152590000D01*
X118750000Y-152542380D01*
X118988095Y-152542380D01*
X119083333Y-152590000D01*
X119130952Y-152637619D01*
X119178571Y-152732857D01*
X119178571Y-152828095D01*
X119130952Y-152970952D01*
X118559523Y-153542380D01*
X119178571Y-153542380D01*
X119750000Y-152970952D02*
X119654761Y-152923333D01*
X119607142Y-152875714D01*
X119559523Y-152780476D01*
X119559523Y-152732857D01*
X119607142Y-152637619D01*
X119654761Y-152590000D01*
X119750000Y-152542380D01*
X119940476Y-152542380D01*
X120035714Y-152590000D01*
X120083333Y-152637619D01*
X120130952Y-152732857D01*
X120130952Y-152780476D01*
X120083333Y-152875714D01*
X120035714Y-152923333D01*
X119940476Y-152970952D01*
X119750000Y-152970952D01*
X119654761Y-153018571D01*
X119607142Y-153066190D01*
X119559523Y-153161428D01*
X119559523Y-153351904D01*
X119607142Y-153447142D01*
X119654761Y-153494761D01*
X119750000Y-153542380D01*
X119940476Y-153542380D01*
X120035714Y-153494761D01*
X120083333Y-153447142D01*
X120130952Y-153351904D01*
X120130952Y-153161428D01*
X120083333Y-153066190D01*
X120035714Y-153018571D01*
X119940476Y-152970952D01*
X120559523Y-153447142D02*
X120607142Y-153494761D01*
X120559523Y-153542380D01*
X120511904Y-153494761D01*
X120559523Y-153447142D01*
X120559523Y-153542380D01*
X121226190Y-152542380D02*
X121321428Y-152542380D01*
X121416666Y-152590000D01*
X121464285Y-152637619D01*
X121511904Y-152732857D01*
X121559523Y-152923333D01*
X121559523Y-153161428D01*
X121511904Y-153351904D01*
X121464285Y-153447142D01*
X121416666Y-153494761D01*
X121321428Y-153542380D01*
X121226190Y-153542380D01*
X121130952Y-153494761D01*
X121083333Y-153447142D01*
X121035714Y-153351904D01*
X120988095Y-153161428D01*
X120988095Y-152923333D01*
X121035714Y-152732857D01*
X121083333Y-152637619D01*
X121130952Y-152590000D01*
X121226190Y-152542380D01*
X122130952Y-152970952D02*
X122035714Y-152923333D01*
X121988095Y-152875714D01*
X121940476Y-152780476D01*
X121940476Y-152732857D01*
X121988095Y-152637619D01*
X122035714Y-152590000D01*
X122130952Y-152542380D01*
X122321428Y-152542380D01*
X122416666Y-152590000D01*
X122464285Y-152637619D01*
X122511904Y-152732857D01*
X122511904Y-152780476D01*
X122464285Y-152875714D01*
X122416666Y-152923333D01*
X122321428Y-152970952D01*
X122130952Y-152970952D01*
X122035714Y-153018571D01*
X121988095Y-153066190D01*
X121940476Y-153161428D01*
X121940476Y-153351904D01*
X121988095Y-153447142D01*
X122035714Y-153494761D01*
X122130952Y-153542380D01*
X122321428Y-153542380D01*
X122416666Y-153494761D01*
X122464285Y-153447142D01*
X122511904Y-153351904D01*
X122511904Y-153161428D01*
X122464285Y-153066190D01*
X122416666Y-153018571D01*
X122321428Y-152970952D01*
X122940476Y-153447142D02*
X122988095Y-153494761D01*
X122940476Y-153542380D01*
X122892857Y-153494761D01*
X122940476Y-153447142D01*
X122940476Y-153542380D01*
X123369047Y-152637619D02*
X123416666Y-152590000D01*
X123511904Y-152542380D01*
X123750000Y-152542380D01*
X123845238Y-152590000D01*
X123892857Y-152637619D01*
X123940476Y-152732857D01*
X123940476Y-152828095D01*
X123892857Y-152970952D01*
X123321428Y-153542380D01*
X123940476Y-153542380D01*
X124559523Y-152542380D02*
X124654761Y-152542380D01*
X124750000Y-152590000D01*
X124797619Y-152637619D01*
X124845238Y-152732857D01*
X124892857Y-152923333D01*
X124892857Y-153161428D01*
X124845238Y-153351904D01*
X124797619Y-153447142D01*
X124750000Y-153494761D01*
X124654761Y-153542380D01*
X124559523Y-153542380D01*
X124464285Y-153494761D01*
X124416666Y-153447142D01*
X124369047Y-153351904D01*
X124321428Y-153161428D01*
X124321428Y-152923333D01*
X124369047Y-152732857D01*
X124416666Y-152637619D01*
X124464285Y-152590000D01*
X124559523Y-152542380D01*
X125273809Y-152637619D02*
X125321428Y-152590000D01*
X125416666Y-152542380D01*
X125654761Y-152542380D01*
X125750000Y-152590000D01*
X125797619Y-152637619D01*
X125845238Y-152732857D01*
X125845238Y-152828095D01*
X125797619Y-152970952D01*
X125226190Y-153542380D01*
X125845238Y-153542380D01*
X126464285Y-152542380D02*
X126559523Y-152542380D01*
X126654761Y-152590000D01*
X126702380Y-152637619D01*
X126750000Y-152732857D01*
X126797619Y-152923333D01*
X126797619Y-153161428D01*
X126750000Y-153351904D01*
X126702380Y-153447142D01*
X126654761Y-153494761D01*
X126559523Y-153542380D01*
X126464285Y-153542380D01*
X126369047Y-153494761D01*
X126321428Y-153447142D01*
X126273809Y-153351904D01*
X126226190Y-153161428D01*
X126226190Y-152923333D01*
X126273809Y-152732857D01*
X126321428Y-152637619D01*
X126369047Y-152590000D01*
X126464285Y-152542380D01*
D11*
X145800000Y-120350000D02*
X160400000Y-120338000D01*
X160400000Y-109162000D02*
X145800000Y-109150000D01*
X145800000Y-109150000D02*
X145800000Y-120350000D01*
X160400000Y-120338000D02*
X160400000Y-109162000D01*
X145800000Y-131850000D02*
X160400000Y-131840000D01*
X160400000Y-120662000D02*
X145800000Y-120650000D01*
X145800000Y-120650000D02*
X145800000Y-131850000D01*
X160400000Y-131840000D02*
X160400000Y-120662000D01*
D12*
X128110000Y-117590000D02*
X128110000Y-117140000D01*
X128110000Y-117140000D02*
X127660000Y-117140000D01*
X128110000Y-123910000D02*
X128110000Y-124360000D01*
X128110000Y-124360000D02*
X127660000Y-124360000D01*
X120890000Y-117590000D02*
X120890000Y-117140000D01*
X120890000Y-117140000D02*
X121340000Y-117140000D01*
X120890000Y-123910000D02*
X120890000Y-124360000D01*
X120890000Y-124360000D02*
X121340000Y-124360000D01*
X121340000Y-124360000D02*
X121340000Y-125650000D01*
X117000000Y-147000000D02*
G75*
G03X117000000Y-147000000I-1500000J0D01*
G01*
X121000000Y-147000000D02*
G75*
G03X121000000Y-147000000I-1500000J0D01*
G01*
X125000000Y-147000000D02*
G75*
G03X125000000Y-147000000I-1500000J0D01*
G01*
X129000000Y-147000000D02*
G75*
G03X129000000Y-147000000I-1500000J0D01*
G01*
D13*
X131700000Y-153000000D02*
X142700000Y-153000000D01*
X131150000Y-137050000D02*
X130700000Y-137050000D01*
X130700000Y-137050000D02*
X130700000Y-137600000D01*
X142700000Y-137050000D02*
X144550000Y-137050000D01*
X144550000Y-137050000D02*
X144550000Y-151200000D01*
D14*
X140700000Y-135800000D02*
G75*
G03X140700000Y-135800000I-250000J0D01*
G01*
D13*
X130700000Y-150200000D02*
X130700000Y-148600000D01*
D12*
X145720000Y-107960000D02*
X145720000Y-106500000D01*
X148880000Y-107960000D02*
X148880000Y-105800000D01*
X148880000Y-107960000D02*
X147950000Y-107960000D01*
X145720000Y-107960000D02*
X146650000Y-107960000D01*
X141000000Y-116690000D02*
X137550000Y-116690000D01*
X141000000Y-116690000D02*
X142950000Y-116690000D01*
X141000000Y-121810000D02*
X139050000Y-121810000D01*
X141000000Y-121810000D02*
X142950000Y-121810000D01*
X119650000Y-131500000D02*
X132250000Y-131500000D01*
X119650000Y-126400000D02*
X119650000Y-131500000D01*
X132250000Y-126400000D02*
X119650000Y-126400000D01*
X122760000Y-108330000D02*
X121300000Y-108330000D01*
X122760000Y-105170000D02*
X120600000Y-105170000D01*
X122760000Y-105170000D02*
X122760000Y-106100000D01*
X122760000Y-108330000D02*
X122760000Y-107400000D01*
X132600000Y-108410000D02*
X126590000Y-108410000D01*
X130350000Y-101590000D02*
X126590000Y-101590000D01*
X126590000Y-108410000D02*
X126590000Y-107150000D01*
X126590000Y-101590000D02*
X126590000Y-102850000D01*
X138900000Y-110580000D02*
G75*
G03X138900000Y-110580000I-1500000J0D01*
G01*
X131450000Y-110550000D02*
G75*
G03X131450000Y-110550000I-1500000J0D01*
G01*
X135200000Y-110550000D02*
G75*
G03X135200000Y-110550000I-1500000J0D01*
G01*
X141000000Y-128200000D02*
G75*
G03X141000000Y-128200000I-1500000J0D01*
G01*
X141000000Y-124400000D02*
G75*
G03X141000000Y-124400000I-1500000J0D01*
G01*
X141000000Y-132000000D02*
G75*
G03X141000000Y-132000000I-1500000J0D01*
G01*
X113050000Y-137350000D02*
X115550000Y-137350000D01*
X111550000Y-139100000D02*
X111550000Y-141100000D01*
X113050000Y-142850000D02*
X115550000Y-142850000D01*
X117050000Y-139100000D02*
X117050000Y-141100000D01*
X112600000Y-137800000D02*
X113050000Y-137350000D01*
X116000000Y-137800000D02*
X115550000Y-137350000D01*
X116000000Y-142400000D02*
X115550000Y-142850000D01*
X112600000Y-142400000D02*
X113050000Y-142850000D01*
X115550000Y-135650000D02*
X113050000Y-135650000D01*
X117050000Y-133900000D02*
X117050000Y-131900000D01*
X115550000Y-130150000D02*
X113050000Y-130150000D01*
X111550000Y-133900000D02*
X111550000Y-131900000D01*
X116000000Y-135200000D02*
X115550000Y-135650000D01*
X112600000Y-135200000D02*
X113050000Y-135650000D01*
X112600000Y-130600000D02*
X113050000Y-130150000D01*
X116000000Y-130600000D02*
X115550000Y-130150000D01*
X131740000Y-120087221D02*
X131740000Y-120412779D01*
X132760000Y-120087221D02*
X132760000Y-120412779D01*
X131740000Y-123837221D02*
X131740000Y-124162779D01*
X132760000Y-123837221D02*
X132760000Y-124162779D01*
X135762779Y-123690000D02*
X135437221Y-123690000D01*
X135762779Y-124710000D02*
X135437221Y-124710000D01*
X135087221Y-118010000D02*
X135412779Y-118010000D01*
X135087221Y-116990000D02*
X135412779Y-116990000D01*
X114990000Y-127587221D02*
X114990000Y-127912779D01*
X116010000Y-127587221D02*
X116010000Y-127912779D01*
X121510000Y-138462779D02*
X121510000Y-138137221D01*
X120490000Y-138462779D02*
X120490000Y-138137221D01*
X125010000Y-138462779D02*
X125010000Y-138137221D01*
X123990000Y-138462779D02*
X123990000Y-138137221D01*
X128410000Y-138362779D02*
X128410000Y-138037221D01*
X127390000Y-138362779D02*
X127390000Y-138037221D01*
X147690000Y-145837221D02*
X147690000Y-146162779D01*
X148710000Y-145837221D02*
X148710000Y-146162779D01*
X118760000Y-127912779D02*
X118760000Y-127587221D01*
X117740000Y-127912779D02*
X117740000Y-127587221D01*
X135760000Y-121830000D02*
X134300000Y-121830000D01*
X135760000Y-118670000D02*
X133600000Y-118670000D01*
X135760000Y-118670000D02*
X135760000Y-119600000D01*
X135760000Y-121830000D02*
X135760000Y-120900000D01*
X122991422Y-113960000D02*
X123508578Y-113960000D01*
X122991422Y-112540000D02*
X123508578Y-112540000D01*
X134200000Y-126600000D02*
X137000000Y-126600000D01*
X137000000Y-126600000D02*
X137000000Y-128600000D01*
X137000000Y-128600000D02*
X134200000Y-128600000D01*
X134200000Y-128600000D02*
X134200000Y-126600000D01*
X105270000Y-130370000D02*
X106600000Y-130370000D01*
X105270000Y-131700000D02*
X105270000Y-130370000D01*
X105270000Y-132970000D02*
X107930000Y-132970000D01*
X107930000Y-132970000D02*
X107930000Y-135570000D01*
X105270000Y-132970000D02*
X105270000Y-135570000D01*
X105270000Y-135570000D02*
X107930000Y-135570000D01*
X113155000Y-127850000D02*
X110615000Y-127850000D01*
X113155000Y-127850000D02*
X113155000Y-125310000D01*
X112905000Y-127600000D02*
X103555000Y-127600000D01*
X112905000Y-106740000D02*
X112905000Y-127600000D01*
X103555000Y-106740000D02*
X112905000Y-106740000D01*
X103555000Y-127600000D02*
X103555000Y-106740000D01*
D15*
G36*
X107428601Y-143473010D02*
G01*
X107439822Y-143356518D01*
X107459344Y-143254438D01*
X107460368Y-143250506D01*
X107473897Y-143204751D01*
X107493166Y-143146644D01*
X107515966Y-143082118D01*
X107540088Y-143017106D01*
X107563322Y-142957542D01*
X107583459Y-142909359D01*
X107598289Y-142878490D01*
X107599949Y-142875671D01*
X107611973Y-142868463D01*
X107639394Y-142864078D01*
X107685368Y-142862275D01*
X107753049Y-142862812D01*
X107764753Y-142863067D01*
X107919554Y-142866650D01*
X107854161Y-142955550D01*
X107782393Y-143066717D01*
X107721376Y-143188173D01*
X107675901Y-143309963D01*
X107665228Y-143348107D01*
X107648657Y-143438264D01*
X107640579Y-143538848D01*
X107641113Y-143640305D01*
X107650379Y-143733083D01*
X107659819Y-143779217D01*
X107703039Y-143898403D01*
X107767046Y-144004439D01*
X107850425Y-144096515D01*
X107951764Y-144173821D01*
X108069647Y-144235547D01*
X108202660Y-144280884D01*
X108349391Y-144309020D01*
X108508424Y-144319148D01*
X108598550Y-144316864D01*
X108761940Y-144298464D01*
X108908788Y-144262465D01*
X109038449Y-144209334D01*
X109150280Y-144139536D01*
X109243640Y-144053536D01*
X109317884Y-143951799D01*
X109372371Y-143834792D01*
X109400030Y-143736600D01*
X109411832Y-143647992D01*
X109414048Y-143546208D01*
X109407018Y-143441452D01*
X109391083Y-143343928D01*
X109386261Y-143323850D01*
X109357444Y-143238055D01*
X109314298Y-143143369D01*
X109261121Y-143048176D01*
X109202211Y-142960855D01*
X109195784Y-142952375D01*
X109125136Y-142860300D01*
X109439339Y-142860300D01*
X109478546Y-142946025D01*
X109520423Y-143041232D01*
X109552385Y-143123235D01*
X109577543Y-143200633D01*
X109596660Y-143272306D01*
X109609870Y-143342638D01*
X109619885Y-143428138D01*
X109626294Y-143520610D01*
X109628682Y-143611859D01*
X109626637Y-143693692D01*
X109620803Y-143751663D01*
X109592111Y-143890587D01*
X109552070Y-144010848D01*
X109498158Y-144117596D01*
X109427858Y-144215984D01*
X109354840Y-144295400D01*
X109262331Y-144378955D01*
X109177767Y-144438579D01*
X109157132Y-144450131D01*
X109027402Y-144506231D01*
X108881774Y-144547623D01*
X108725256Y-144574024D01*
X108562856Y-144585150D01*
X108399582Y-144580717D01*
X108240444Y-144560443D01*
X108090450Y-144524043D01*
X108055303Y-144512507D01*
X107912269Y-144450162D01*
X107785378Y-144368602D01*
X107675713Y-144269065D01*
X107584354Y-144152787D01*
X107512380Y-144021005D01*
X107460873Y-143874954D01*
X107446947Y-143816241D01*
X107431944Y-143712143D01*
X107425902Y-143594643D01*
X107428601Y-143473010D01*
G37*
X107428601Y-143473010D02*
X107439822Y-143356518D01*
X107459344Y-143254438D01*
X107460368Y-143250506D01*
X107473897Y-143204751D01*
X107493166Y-143146644D01*
X107515966Y-143082118D01*
X107540088Y-143017106D01*
X107563322Y-142957542D01*
X107583459Y-142909359D01*
X107598289Y-142878490D01*
X107599949Y-142875671D01*
X107611973Y-142868463D01*
X107639394Y-142864078D01*
X107685368Y-142862275D01*
X107753049Y-142862812D01*
X107764753Y-142863067D01*
X107919554Y-142866650D01*
X107854161Y-142955550D01*
X107782393Y-143066717D01*
X107721376Y-143188173D01*
X107675901Y-143309963D01*
X107665228Y-143348107D01*
X107648657Y-143438264D01*
X107640579Y-143538848D01*
X107641113Y-143640305D01*
X107650379Y-143733083D01*
X107659819Y-143779217D01*
X107703039Y-143898403D01*
X107767046Y-144004439D01*
X107850425Y-144096515D01*
X107951764Y-144173821D01*
X108069647Y-144235547D01*
X108202660Y-144280884D01*
X108349391Y-144309020D01*
X108508424Y-144319148D01*
X108598550Y-144316864D01*
X108761940Y-144298464D01*
X108908788Y-144262465D01*
X109038449Y-144209334D01*
X109150280Y-144139536D01*
X109243640Y-144053536D01*
X109317884Y-143951799D01*
X109372371Y-143834792D01*
X109400030Y-143736600D01*
X109411832Y-143647992D01*
X109414048Y-143546208D01*
X109407018Y-143441452D01*
X109391083Y-143343928D01*
X109386261Y-143323850D01*
X109357444Y-143238055D01*
X109314298Y-143143369D01*
X109261121Y-143048176D01*
X109202211Y-142960855D01*
X109195784Y-142952375D01*
X109125136Y-142860300D01*
X109439339Y-142860300D01*
X109478546Y-142946025D01*
X109520423Y-143041232D01*
X109552385Y-143123235D01*
X109577543Y-143200633D01*
X109596660Y-143272306D01*
X109609870Y-143342638D01*
X109619885Y-143428138D01*
X109626294Y-143520610D01*
X109628682Y-143611859D01*
X109626637Y-143693692D01*
X109620803Y-143751663D01*
X109592111Y-143890587D01*
X109552070Y-144010848D01*
X109498158Y-144117596D01*
X109427858Y-144215984D01*
X109354840Y-144295400D01*
X109262331Y-144378955D01*
X109177767Y-144438579D01*
X109157132Y-144450131D01*
X109027402Y-144506231D01*
X108881774Y-144547623D01*
X108725256Y-144574024D01*
X108562856Y-144585150D01*
X108399582Y-144580717D01*
X108240444Y-144560443D01*
X108090450Y-144524043D01*
X108055303Y-144512507D01*
X107912269Y-144450162D01*
X107785378Y-144368602D01*
X107675713Y-144269065D01*
X107584354Y-144152787D01*
X107512380Y-144021005D01*
X107460873Y-143874954D01*
X107446947Y-143816241D01*
X107431944Y-143712143D01*
X107425902Y-143594643D01*
X107428601Y-143473010D01*
G36*
X104903607Y-140055950D02*
G01*
X104924304Y-139834511D01*
X104964693Y-139617183D01*
X105024542Y-139408702D01*
X105025162Y-139406899D01*
X105059303Y-139318383D01*
X105104269Y-139217365D01*
X105156394Y-139110991D01*
X105212009Y-139006404D01*
X105267448Y-138910752D01*
X105319041Y-138831177D01*
X105325037Y-138822717D01*
X105444820Y-138671169D01*
X105582033Y-138524432D01*
X105730756Y-138388088D01*
X105885070Y-138267723D01*
X105982350Y-138202701D01*
X106192844Y-138086005D01*
X106410901Y-137992833D01*
X106634777Y-137923076D01*
X106862731Y-137876624D01*
X107093020Y-137853365D01*
X107323903Y-137853190D01*
X107553637Y-137875989D01*
X107780480Y-137921651D01*
X108002691Y-137990067D01*
X108218527Y-138081126D01*
X108426246Y-138194718D01*
X108624106Y-138330733D01*
X108677945Y-138373179D01*
X108762310Y-138446049D01*
X108848144Y-138527956D01*
X108929453Y-138612718D01*
X109000245Y-138694155D01*
X109043292Y-138749974D01*
X109069951Y-138785431D01*
X109091491Y-138810953D01*
X109103303Y-138821085D01*
X109103375Y-138821091D01*
X109106816Y-138809383D01*
X109109703Y-138776826D01*
X109111790Y-138727972D01*
X109112829Y-138667368D01*
X109112900Y-138646017D01*
X109113287Y-138574793D01*
X109114716Y-138525303D01*
X109117581Y-138493889D01*
X109122280Y-138476892D01*
X109129209Y-138470655D01*
X109131950Y-138470334D01*
X109142423Y-138475664D01*
X109148354Y-138494785D01*
X109150777Y-138532397D01*
X109151000Y-138556824D01*
X109151000Y-138643314D01*
X109376261Y-138646782D01*
X109458406Y-138648333D01*
X109518494Y-138650305D01*
X109559867Y-138653037D01*
X109585870Y-138656866D01*
X109599844Y-138662131D01*
X109605132Y-138669169D01*
X109605300Y-138669920D01*
X109603725Y-138692498D01*
X109600172Y-138698495D01*
X109585139Y-138701403D01*
X109549014Y-138703913D01*
X109496103Y-138705858D01*
X109430715Y-138707071D01*
X109371133Y-138707400D01*
X109151000Y-138707400D01*
X109151000Y-138914800D01*
X107423800Y-138906486D01*
X105696599Y-138898172D01*
X105696600Y-139234586D01*
X105696600Y-139571000D01*
X106207775Y-139573963D01*
X106323117Y-139574625D01*
X106433710Y-139575245D01*
X106536239Y-139575808D01*
X106627392Y-139576294D01*
X106703855Y-139576688D01*
X106762316Y-139576970D01*
X106799462Y-139577123D01*
X106804696Y-139577138D01*
X106890443Y-139577350D01*
X106890421Y-140164725D01*
X106890400Y-140752100D01*
X104975715Y-140752100D01*
X104961986Y-140697576D01*
X104922216Y-140492219D01*
X104902833Y-140276765D01*
X104903607Y-140055950D01*
G37*
X104903607Y-140055950D02*
X104924304Y-139834511D01*
X104964693Y-139617183D01*
X105024542Y-139408702D01*
X105025162Y-139406899D01*
X105059303Y-139318383D01*
X105104269Y-139217365D01*
X105156394Y-139110991D01*
X105212009Y-139006404D01*
X105267448Y-138910752D01*
X105319041Y-138831177D01*
X105325037Y-138822717D01*
X105444820Y-138671169D01*
X105582033Y-138524432D01*
X105730756Y-138388088D01*
X105885070Y-138267723D01*
X105982350Y-138202701D01*
X106192844Y-138086005D01*
X106410901Y-137992833D01*
X106634777Y-137923076D01*
X106862731Y-137876624D01*
X107093020Y-137853365D01*
X107323903Y-137853190D01*
X107553637Y-137875989D01*
X107780480Y-137921651D01*
X108002691Y-137990067D01*
X108218527Y-138081126D01*
X108426246Y-138194718D01*
X108624106Y-138330733D01*
X108677945Y-138373179D01*
X108762310Y-138446049D01*
X108848144Y-138527956D01*
X108929453Y-138612718D01*
X109000245Y-138694155D01*
X109043292Y-138749974D01*
X109069951Y-138785431D01*
X109091491Y-138810953D01*
X109103303Y-138821085D01*
X109103375Y-138821091D01*
X109106816Y-138809383D01*
X109109703Y-138776826D01*
X109111790Y-138727972D01*
X109112829Y-138667368D01*
X109112900Y-138646017D01*
X109113287Y-138574793D01*
X109114716Y-138525303D01*
X109117581Y-138493889D01*
X109122280Y-138476892D01*
X109129209Y-138470655D01*
X109131950Y-138470334D01*
X109142423Y-138475664D01*
X109148354Y-138494785D01*
X109150777Y-138532397D01*
X109151000Y-138556824D01*
X109151000Y-138643314D01*
X109376261Y-138646782D01*
X109458406Y-138648333D01*
X109518494Y-138650305D01*
X109559867Y-138653037D01*
X109585870Y-138656866D01*
X109599844Y-138662131D01*
X109605132Y-138669169D01*
X109605300Y-138669920D01*
X109603725Y-138692498D01*
X109600172Y-138698495D01*
X109585139Y-138701403D01*
X109549014Y-138703913D01*
X109496103Y-138705858D01*
X109430715Y-138707071D01*
X109371133Y-138707400D01*
X109151000Y-138707400D01*
X109151000Y-138914800D01*
X107423800Y-138906486D01*
X105696599Y-138898172D01*
X105696600Y-139234586D01*
X105696600Y-139571000D01*
X106207775Y-139573963D01*
X106323117Y-139574625D01*
X106433710Y-139575245D01*
X106536239Y-139575808D01*
X106627392Y-139576294D01*
X106703855Y-139576688D01*
X106762316Y-139576970D01*
X106799462Y-139577123D01*
X106804696Y-139577138D01*
X106890443Y-139577350D01*
X106890421Y-140164725D01*
X106890400Y-140752100D01*
X104975715Y-140752100D01*
X104961986Y-140697576D01*
X104922216Y-140492219D01*
X104902833Y-140276765D01*
X104903607Y-140055950D01*
G36*
X109113349Y-138163903D02*
G01*
X109115004Y-138118224D01*
X109118322Y-138090294D01*
X109123761Y-138076293D01*
X109131781Y-138072401D01*
X109131950Y-138072400D01*
X109140649Y-138076489D01*
X109146308Y-138091487D01*
X109149513Y-138121495D01*
X109150849Y-138170614D01*
X109151000Y-138205750D01*
X109151000Y-138339100D01*
X109316100Y-138339100D01*
X109316100Y-138212100D01*
X109316729Y-138152878D01*
X109319035Y-138114856D01*
X109323645Y-138093856D01*
X109331185Y-138085702D01*
X109335150Y-138085100D01*
X109344033Y-138089297D01*
X109349736Y-138104673D01*
X109352886Y-138135405D01*
X109354109Y-138185671D01*
X109354200Y-138212100D01*
X109354200Y-138339100D01*
X109557400Y-138339100D01*
X109557400Y-138204819D01*
X109557778Y-138144997D01*
X109559396Y-138106321D01*
X109562981Y-138084541D01*
X109569260Y-138075409D01*
X109578957Y-138074676D01*
X109579625Y-138074799D01*
X109589100Y-138079369D01*
X109595698Y-138091592D01*
X109600092Y-138115647D01*
X109602958Y-138155712D01*
X109604971Y-138215964D01*
X109605415Y-138234480D01*
X109608981Y-138389900D01*
X109112900Y-138389900D01*
X109112900Y-138231150D01*
X109113349Y-138163903D01*
G37*
X109113349Y-138163903D02*
X109115004Y-138118224D01*
X109118322Y-138090294D01*
X109123761Y-138076293D01*
X109131781Y-138072401D01*
X109131950Y-138072400D01*
X109140649Y-138076489D01*
X109146308Y-138091487D01*
X109149513Y-138121495D01*
X109150849Y-138170614D01*
X109151000Y-138205750D01*
X109151000Y-138339100D01*
X109316100Y-138339100D01*
X109316100Y-138212100D01*
X109316729Y-138152878D01*
X109319035Y-138114856D01*
X109323645Y-138093856D01*
X109331185Y-138085702D01*
X109335150Y-138085100D01*
X109344033Y-138089297D01*
X109349736Y-138104673D01*
X109352886Y-138135405D01*
X109354109Y-138185671D01*
X109354200Y-138212100D01*
X109354200Y-138339100D01*
X109557400Y-138339100D01*
X109557400Y-138204819D01*
X109557778Y-138144997D01*
X109559396Y-138106321D01*
X109562981Y-138084541D01*
X109569260Y-138075409D01*
X109578957Y-138074676D01*
X109579625Y-138074799D01*
X109589100Y-138079369D01*
X109595698Y-138091592D01*
X109600092Y-138115647D01*
X109602958Y-138155712D01*
X109604971Y-138215964D01*
X109605415Y-138234480D01*
X109608981Y-138389900D01*
X109112900Y-138389900D01*
X109112900Y-138231150D01*
X109113349Y-138163903D01*
G36*
X109349673Y-137684830D02*
G01*
X109422831Y-137657545D01*
X109487916Y-137633235D01*
X109541155Y-137613312D01*
X109578776Y-137599188D01*
X109597007Y-137592274D01*
X109597907Y-137591917D01*
X109605747Y-137599208D01*
X109608200Y-137617396D01*
X109604140Y-137635795D01*
X109588409Y-137650545D01*
X109555674Y-137665732D01*
X109535175Y-137673367D01*
X109462150Y-137699625D01*
X109462150Y-137923580D01*
X109535175Y-137949653D01*
X109580254Y-137968495D01*
X109603373Y-137985654D01*
X109608200Y-137998663D01*
X109600989Y-138017536D01*
X109592325Y-138020894D01*
X109575934Y-138016391D01*
X109539761Y-138004277D01*
X109487772Y-137985951D01*
X109423934Y-137962812D01*
X109406684Y-137956427D01*
X109406684Y-137903217D01*
X109413349Y-137895269D01*
X109416621Y-137872692D01*
X109417654Y-137830867D01*
X109417700Y-137812050D01*
X109417153Y-137762856D01*
X109414744Y-137734431D01*
X109409322Y-137722155D01*
X109399734Y-137721408D01*
X109395475Y-137722898D01*
X109373825Y-137731114D01*
X109335297Y-137745405D01*
X109286887Y-137763183D01*
X109267802Y-137770151D01*
X109221517Y-137787617D01*
X109186572Y-137801943D01*
X109168089Y-137810976D01*
X109166530Y-137812765D01*
X109179536Y-137818793D01*
X109210609Y-137831261D01*
X109253964Y-137847871D01*
X109271978Y-137854614D01*
X109321310Y-137873034D01*
X109363387Y-137888867D01*
X109391022Y-137899407D01*
X109395475Y-137901153D01*
X109406684Y-137903217D01*
X109406684Y-137956427D01*
X109352212Y-137936261D01*
X109347850Y-137934629D01*
X109268780Y-137904894D01*
X109210347Y-137882267D01*
X109169360Y-137865055D01*
X109142630Y-137851564D01*
X109126966Y-137840102D01*
X109119179Y-137828976D01*
X109116078Y-137816490D01*
X109115490Y-137811289D01*
X109111731Y-137773509D01*
X109349673Y-137684830D01*
G37*
X109349673Y-137684830D02*
X109422831Y-137657545D01*
X109487916Y-137633235D01*
X109541155Y-137613312D01*
X109578776Y-137599188D01*
X109597007Y-137592274D01*
X109597907Y-137591917D01*
X109605747Y-137599208D01*
X109608200Y-137617396D01*
X109604140Y-137635795D01*
X109588409Y-137650545D01*
X109555674Y-137665732D01*
X109535175Y-137673367D01*
X109462150Y-137699625D01*
X109462150Y-137923580D01*
X109535175Y-137949653D01*
X109580254Y-137968495D01*
X109603373Y-137985654D01*
X109608200Y-137998663D01*
X109600989Y-138017536D01*
X109592325Y-138020894D01*
X109575934Y-138016391D01*
X109539761Y-138004277D01*
X109487772Y-137985951D01*
X109423934Y-137962812D01*
X109406684Y-137956427D01*
X109406684Y-137903217D01*
X109413349Y-137895269D01*
X109416621Y-137872692D01*
X109417654Y-137830867D01*
X109417700Y-137812050D01*
X109417153Y-137762856D01*
X109414744Y-137734431D01*
X109409322Y-137722155D01*
X109399734Y-137721408D01*
X109395475Y-137722898D01*
X109373825Y-137731114D01*
X109335297Y-137745405D01*
X109286887Y-137763183D01*
X109267802Y-137770151D01*
X109221517Y-137787617D01*
X109186572Y-137801943D01*
X109168089Y-137810976D01*
X109166530Y-137812765D01*
X109179536Y-137818793D01*
X109210609Y-137831261D01*
X109253964Y-137847871D01*
X109271978Y-137854614D01*
X109321310Y-137873034D01*
X109363387Y-137888867D01*
X109391022Y-137899407D01*
X109395475Y-137901153D01*
X109406684Y-137903217D01*
X109406684Y-137956427D01*
X109352212Y-137936261D01*
X109347850Y-137934629D01*
X109268780Y-137904894D01*
X109210347Y-137882267D01*
X109169360Y-137865055D01*
X109142630Y-137851564D01*
X109126966Y-137840102D01*
X109119179Y-137828976D01*
X109116078Y-137816490D01*
X109115490Y-137811289D01*
X109111731Y-137773509D01*
X109349673Y-137684830D01*
G36*
X109114697Y-137462420D02*
G01*
X109122594Y-137448491D01*
X109140346Y-137433626D01*
X109171711Y-137415017D01*
X109220444Y-137389861D01*
X109252600Y-137373900D01*
X109306100Y-137346945D01*
X109350133Y-137323699D01*
X109380313Y-137306553D01*
X109392258Y-137297898D01*
X109392300Y-137297700D01*
X109381589Y-137289631D01*
X109352380Y-137272927D01*
X109309055Y-137249980D01*
X109255999Y-137223180D01*
X109252600Y-137221500D01*
X109193743Y-137192005D01*
X109154138Y-137170464D01*
X109130029Y-137154072D01*
X109117659Y-137140024D01*
X109113273Y-137125515D01*
X109112900Y-137117186D01*
X109112900Y-137081800D01*
X109360550Y-137081800D01*
X109445614Y-137081910D01*
X109508592Y-137082461D01*
X109552795Y-137083790D01*
X109581535Y-137086233D01*
X109598127Y-137090125D01*
X109605881Y-137095802D01*
X109608111Y-137103600D01*
X109608200Y-137106901D01*
X109606937Y-137116024D01*
X109600801Y-137122712D01*
X109586272Y-137127424D01*
X109559828Y-137130621D01*
X109517948Y-137132763D01*
X109457112Y-137134312D01*
X109389732Y-137135476D01*
X109171264Y-137138950D01*
X109319882Y-137211494D01*
X109375321Y-137239505D01*
X109421367Y-137264577D01*
X109453735Y-137284243D01*
X109468144Y-137296036D01*
X109468500Y-137297116D01*
X109457788Y-137307398D01*
X109428472Y-137326297D01*
X109384779Y-137351298D01*
X109330935Y-137379888D01*
X109319275Y-137385839D01*
X109170050Y-137461483D01*
X109389125Y-137462142D01*
X109468450Y-137462512D01*
X109525897Y-137463351D01*
X109564986Y-137465078D01*
X109589239Y-137468113D01*
X109602177Y-137472873D01*
X109607322Y-137479778D01*
X109608200Y-137488200D01*
X109607181Y-137496924D01*
X109601916Y-137503381D01*
X109589091Y-137507914D01*
X109565390Y-137510861D01*
X109527500Y-137512563D01*
X109472106Y-137513359D01*
X109395895Y-137513590D01*
X109360550Y-137513600D01*
X109112900Y-137513600D01*
X109112900Y-137478215D01*
X109114697Y-137462420D01*
G37*
X109114697Y-137462420D02*
X109122594Y-137448491D01*
X109140346Y-137433626D01*
X109171711Y-137415017D01*
X109220444Y-137389861D01*
X109252600Y-137373900D01*
X109306100Y-137346945D01*
X109350133Y-137323699D01*
X109380313Y-137306553D01*
X109392258Y-137297898D01*
X109392300Y-137297700D01*
X109381589Y-137289631D01*
X109352380Y-137272927D01*
X109309055Y-137249980D01*
X109255999Y-137223180D01*
X109252600Y-137221500D01*
X109193743Y-137192005D01*
X109154138Y-137170464D01*
X109130029Y-137154072D01*
X109117659Y-137140024D01*
X109113273Y-137125515D01*
X109112900Y-137117186D01*
X109112900Y-137081800D01*
X109360550Y-137081800D01*
X109445614Y-137081910D01*
X109508592Y-137082461D01*
X109552795Y-137083790D01*
X109581535Y-137086233D01*
X109598127Y-137090125D01*
X109605881Y-137095802D01*
X109608111Y-137103600D01*
X109608200Y-137106901D01*
X109606937Y-137116024D01*
X109600801Y-137122712D01*
X109586272Y-137127424D01*
X109559828Y-137130621D01*
X109517948Y-137132763D01*
X109457112Y-137134312D01*
X109389732Y-137135476D01*
X109171264Y-137138950D01*
X109319882Y-137211494D01*
X109375321Y-137239505D01*
X109421367Y-137264577D01*
X109453735Y-137284243D01*
X109468144Y-137296036D01*
X109468500Y-137297116D01*
X109457788Y-137307398D01*
X109428472Y-137326297D01*
X109384779Y-137351298D01*
X109330935Y-137379888D01*
X109319275Y-137385839D01*
X109170050Y-137461483D01*
X109389125Y-137462142D01*
X109468450Y-137462512D01*
X109525897Y-137463351D01*
X109564986Y-137465078D01*
X109589239Y-137468113D01*
X109602177Y-137472873D01*
X109607322Y-137479778D01*
X109608200Y-137488200D01*
X109607181Y-137496924D01*
X109601916Y-137503381D01*
X109589091Y-137507914D01*
X109565390Y-137510861D01*
X109527500Y-137512563D01*
X109472106Y-137513359D01*
X109395895Y-137513590D01*
X109360550Y-137513600D01*
X109112900Y-137513600D01*
X109112900Y-137478215D01*
X109114697Y-137462420D01*
G36*
X107677800Y-146556000D02*
G01*
X107677800Y-147318000D01*
X109595500Y-147318000D01*
X109595500Y-147584700D01*
X107677800Y-147584700D01*
X107677800Y-148340350D01*
X107461900Y-148340350D01*
X107461900Y-146556000D01*
X107677800Y-146556000D01*
G37*
X107677800Y-146556000D02*
X107677800Y-147318000D01*
X109595500Y-147318000D01*
X109595500Y-147584700D01*
X107677800Y-147584700D01*
X107677800Y-148340350D01*
X107461900Y-148340350D01*
X107461900Y-146556000D01*
X107677800Y-146556000D01*
G36*
X107677800Y-144866900D02*
G01*
X107677800Y-145997200D01*
X108312800Y-145997200D01*
X108312800Y-144892300D01*
X108541400Y-144892300D01*
X108541400Y-145997200D01*
X109366900Y-145997200D01*
X109366900Y-144866900D01*
X109595500Y-144866900D01*
X109595500Y-146251200D01*
X107461900Y-146251200D01*
X107461900Y-144866900D01*
X107677800Y-144866900D01*
G37*
X107677800Y-144866900D02*
X107677800Y-145997200D01*
X108312800Y-145997200D01*
X108312800Y-144892300D01*
X108541400Y-144892300D01*
X108541400Y-145997200D01*
X109366900Y-145997200D01*
X109366900Y-144866900D01*
X109595500Y-144866900D01*
X109595500Y-146251200D01*
X107461900Y-146251200D01*
X107461900Y-144866900D01*
X107677800Y-144866900D01*
G36*
X107002717Y-141428330D02*
G01*
X108731900Y-141425110D01*
X108731900Y-140752100D01*
X107563500Y-140752100D01*
X107563500Y-139583700D01*
X109453764Y-139583700D01*
X109472983Y-139669425D01*
X109497051Y-139800946D01*
X109514274Y-139945873D01*
X109524001Y-140094677D01*
X109525581Y-140237829D01*
X109519669Y-140352050D01*
X109485531Y-140597392D01*
X109428070Y-140832856D01*
X109347533Y-141057927D01*
X109244165Y-141272093D01*
X109118210Y-141474840D01*
X108969915Y-141665655D01*
X108812535Y-141831600D01*
X108666110Y-141962365D01*
X108516863Y-142074353D01*
X108356422Y-142173575D01*
X108274700Y-142217542D01*
X108053198Y-142317985D01*
X107826519Y-142394004D01*
X107596135Y-142445689D01*
X107363518Y-142473130D01*
X107130141Y-142476418D01*
X106897477Y-142455642D01*
X106666998Y-142410892D01*
X106440177Y-142342258D01*
X106218486Y-142249831D01*
X106003399Y-142133701D01*
X105907808Y-142072832D01*
X105811718Y-142002383D01*
X105708512Y-141915933D01*
X105604205Y-141819223D01*
X105504812Y-141717993D01*
X105416348Y-141617986D01*
X105369716Y-141559232D01*
X105273535Y-141431550D01*
X107002717Y-141428330D01*
G37*
X107002717Y-141428330D02*
X108731900Y-141425110D01*
X108731900Y-140752100D01*
X107563500Y-140752100D01*
X107563500Y-139583700D01*
X109453764Y-139583700D01*
X109472983Y-139669425D01*
X109497051Y-139800946D01*
X109514274Y-139945873D01*
X109524001Y-140094677D01*
X109525581Y-140237829D01*
X109519669Y-140352050D01*
X109485531Y-140597392D01*
X109428070Y-140832856D01*
X109347533Y-141057927D01*
X109244165Y-141272093D01*
X109118210Y-141474840D01*
X108969915Y-141665655D01*
X108812535Y-141831600D01*
X108666110Y-141962365D01*
X108516863Y-142074353D01*
X108356422Y-142173575D01*
X108274700Y-142217542D01*
X108053198Y-142317985D01*
X107826519Y-142394004D01*
X107596135Y-142445689D01*
X107363518Y-142473130D01*
X107130141Y-142476418D01*
X106897477Y-142455642D01*
X106666998Y-142410892D01*
X106440177Y-142342258D01*
X106218486Y-142249831D01*
X106003399Y-142133701D01*
X105907808Y-142072832D01*
X105811718Y-142002383D01*
X105708512Y-141915933D01*
X105604205Y-141819223D01*
X105504812Y-141717993D01*
X105416348Y-141617986D01*
X105369716Y-141559232D01*
X105273535Y-141431550D01*
X107002717Y-141428330D01*
G36*
X105125100Y-146937000D02*
G01*
X105125100Y-147506384D01*
X105125213Y-147624130D01*
X105125539Y-147733885D01*
X105126054Y-147833080D01*
X105126734Y-147919141D01*
X105127554Y-147989500D01*
X105128493Y-148041585D01*
X105129526Y-148072825D01*
X105130372Y-148081059D01*
X105143990Y-148082367D01*
X105179537Y-148083275D01*
X105233547Y-148083766D01*
X105302551Y-148083820D01*
X105383083Y-148083420D01*
X105454605Y-148082749D01*
X105773566Y-148079147D01*
X105770008Y-147520769D01*
X105766450Y-146962390D01*
X105877442Y-146962395D01*
X105988435Y-146962400D01*
X105991742Y-147521565D01*
X105995050Y-148080730D01*
X106833250Y-148080730D01*
X106839858Y-146937000D01*
X107068200Y-146937000D01*
X107068200Y-148346700D01*
X104896500Y-148346700D01*
X104896500Y-146937000D01*
X105125100Y-146937000D01*
G37*
X105125100Y-146937000D02*
X105125100Y-147506384D01*
X105125213Y-147624130D01*
X105125539Y-147733885D01*
X105126054Y-147833080D01*
X105126734Y-147919141D01*
X105127554Y-147989500D01*
X105128493Y-148041585D01*
X105129526Y-148072825D01*
X105130372Y-148081059D01*
X105143990Y-148082367D01*
X105179537Y-148083275D01*
X105233547Y-148083766D01*
X105302551Y-148083820D01*
X105383083Y-148083420D01*
X105454605Y-148082749D01*
X105773566Y-148079147D01*
X105770008Y-147520769D01*
X105766450Y-146962390D01*
X105877442Y-146962395D01*
X105988435Y-146962400D01*
X105991742Y-147521565D01*
X105995050Y-148080730D01*
X106833250Y-148080730D01*
X106839858Y-146937000D01*
X107068200Y-146937000D01*
X107068200Y-148346700D01*
X104896500Y-148346700D01*
X104896500Y-146937000D01*
X105125100Y-146937000D01*
G36*
X104901471Y-145495266D02*
G01*
X104917221Y-145372491D01*
X104945727Y-145251918D01*
X104988693Y-145125732D01*
X105025974Y-145035175D01*
X105077065Y-144917700D01*
X105228082Y-144917700D01*
X105286629Y-144918232D01*
X105334600Y-144919679D01*
X105367067Y-144921822D01*
X105379099Y-144924440D01*
X105379100Y-144924458D01*
X105372270Y-144937104D01*
X105353907Y-144965586D01*
X105327203Y-145005043D01*
X105308870Y-145031441D01*
X105225116Y-145165967D01*
X105164749Y-145298464D01*
X105126456Y-145432824D01*
X105108924Y-145572943D01*
X105107432Y-145628900D01*
X105117721Y-145768405D01*
X105149169Y-145893909D01*
X105201924Y-146005685D01*
X105276136Y-146104006D01*
X105371954Y-146189147D01*
X105436250Y-146231857D01*
X105544713Y-146284518D01*
X105670230Y-146324284D01*
X105807437Y-146350200D01*
X105950969Y-146361311D01*
X106095463Y-146356662D01*
X106122314Y-146353948D01*
X106278384Y-146327758D01*
X106414974Y-146286173D01*
X106533272Y-146228563D01*
X106634463Y-146154297D01*
X106719737Y-146062746D01*
X106749781Y-146020955D01*
X106794957Y-145944262D01*
X106826218Y-145867589D01*
X106845365Y-145784140D01*
X106854197Y-145687119D01*
X106855304Y-145622550D01*
X106847557Y-145481621D01*
X106823755Y-145355452D01*
X106781825Y-145237950D01*
X106719698Y-145123024D01*
X106653034Y-145027487D01*
X106618441Y-144981845D01*
X106598157Y-144950982D01*
X106594230Y-144932016D01*
X106608712Y-144922064D01*
X106643653Y-144918242D01*
X106701103Y-144917667D01*
X106731117Y-144917700D01*
X106879352Y-144917700D01*
X106922842Y-145011829D01*
X106961601Y-145102931D01*
X106997274Y-145200199D01*
X107027161Y-145295419D01*
X107048561Y-145380374D01*
X107054692Y-145413000D01*
X107062086Y-145480530D01*
X107065899Y-145563254D01*
X107066232Y-145652806D01*
X107063186Y-145740819D01*
X107056860Y-145818926D01*
X107049200Y-145870200D01*
X107007117Y-146020367D01*
X106944621Y-146155645D01*
X106862314Y-146275414D01*
X106760797Y-146379054D01*
X106640672Y-146465944D01*
X106502540Y-146535463D01*
X106357000Y-146584369D01*
X106316763Y-146594402D01*
X106278807Y-146601823D01*
X106238244Y-146607015D01*
X106190184Y-146610360D01*
X106129741Y-146612239D01*
X106052025Y-146613034D01*
X105988700Y-146613150D01*
X105871716Y-146611918D01*
X105774754Y-146607533D01*
X105692523Y-146598967D01*
X105619733Y-146585191D01*
X105551093Y-146565176D01*
X105481314Y-146537893D01*
X105405105Y-146502312D01*
X105396181Y-146497886D01*
X105265625Y-146419716D01*
X105154266Y-146325112D01*
X105062429Y-146214638D01*
X104990437Y-146088858D01*
X104938614Y-145948335D01*
X104907284Y-145793636D01*
X104896774Y-145628058D01*
X104901471Y-145495266D01*
G37*
X104901471Y-145495266D02*
X104917221Y-145372491D01*
X104945727Y-145251918D01*
X104988693Y-145125732D01*
X105025974Y-145035175D01*
X105077065Y-144917700D01*
X105228082Y-144917700D01*
X105286629Y-144918232D01*
X105334600Y-144919679D01*
X105367067Y-144921822D01*
X105379099Y-144924440D01*
X105379100Y-144924458D01*
X105372270Y-144937104D01*
X105353907Y-144965586D01*
X105327203Y-145005043D01*
X105308870Y-145031441D01*
X105225116Y-145165967D01*
X105164749Y-145298464D01*
X105126456Y-145432824D01*
X105108924Y-145572943D01*
X105107432Y-145628900D01*
X105117721Y-145768405D01*
X105149169Y-145893909D01*
X105201924Y-146005685D01*
X105276136Y-146104006D01*
X105371954Y-146189147D01*
X105436250Y-146231857D01*
X105544713Y-146284518D01*
X105670230Y-146324284D01*
X105807437Y-146350200D01*
X105950969Y-146361311D01*
X106095463Y-146356662D01*
X106122314Y-146353948D01*
X106278384Y-146327758D01*
X106414974Y-146286173D01*
X106533272Y-146228563D01*
X106634463Y-146154297D01*
X106719737Y-146062746D01*
X106749781Y-146020955D01*
X106794957Y-145944262D01*
X106826218Y-145867589D01*
X106845365Y-145784140D01*
X106854197Y-145687119D01*
X106855304Y-145622550D01*
X106847557Y-145481621D01*
X106823755Y-145355452D01*
X106781825Y-145237950D01*
X106719698Y-145123024D01*
X106653034Y-145027487D01*
X106618441Y-144981845D01*
X106598157Y-144950982D01*
X106594230Y-144932016D01*
X106608712Y-144922064D01*
X106643653Y-144918242D01*
X106701103Y-144917667D01*
X106731117Y-144917700D01*
X106879352Y-144917700D01*
X106922842Y-145011829D01*
X106961601Y-145102931D01*
X106997274Y-145200199D01*
X107027161Y-145295419D01*
X107048561Y-145380374D01*
X107054692Y-145413000D01*
X107062086Y-145480530D01*
X107065899Y-145563254D01*
X107066232Y-145652806D01*
X107063186Y-145740819D01*
X107056860Y-145818926D01*
X107049200Y-145870200D01*
X107007117Y-146020367D01*
X106944621Y-146155645D01*
X106862314Y-146275414D01*
X106760797Y-146379054D01*
X106640672Y-146465944D01*
X106502540Y-146535463D01*
X106357000Y-146584369D01*
X106316763Y-146594402D01*
X106278807Y-146601823D01*
X106238244Y-146607015D01*
X106190184Y-146610360D01*
X106129741Y-146612239D01*
X106052025Y-146613034D01*
X105988700Y-146613150D01*
X105871716Y-146611918D01*
X105774754Y-146607533D01*
X105692523Y-146598967D01*
X105619733Y-146585191D01*
X105551093Y-146565176D01*
X105481314Y-146537893D01*
X105405105Y-146502312D01*
X105396181Y-146497886D01*
X105265625Y-146419716D01*
X105154266Y-146325112D01*
X105062429Y-146214638D01*
X104990437Y-146088858D01*
X104938614Y-145948335D01*
X104907284Y-145793636D01*
X104896774Y-145628058D01*
X104901471Y-145495266D01*
G36*
X104907258Y-143590048D02*
G01*
X104908268Y-143554619D01*
X104908950Y-143504353D01*
X104909200Y-143444673D01*
X104909200Y-143292446D01*
X105044649Y-143250998D01*
X105180099Y-143209550D01*
X105210948Y-143139803D01*
X105241796Y-143070056D01*
X105174353Y-142933365D01*
X105106909Y-142796674D01*
X105189029Y-142713230D01*
X105229992Y-142672714D01*
X105268536Y-142636506D01*
X105298310Y-142610506D01*
X105306049Y-142604496D01*
X105340949Y-142579207D01*
X105467049Y-142645151D01*
X105593149Y-142711096D01*
X105663610Y-142681892D01*
X105734070Y-142652687D01*
X105779885Y-142515194D01*
X105825700Y-142377700D01*
X106148995Y-142377700D01*
X106231927Y-142651374D01*
X106308293Y-142679186D01*
X106384658Y-142706999D01*
X106512509Y-142642840D01*
X106640359Y-142578682D01*
X106864275Y-142803150D01*
X106798698Y-142931417D01*
X106733122Y-143059684D01*
X106765466Y-143134579D01*
X106797811Y-143209474D01*
X106929830Y-143255628D01*
X107061850Y-143301783D01*
X107068922Y-143617363D01*
X106933048Y-143661107D01*
X106797174Y-143704850D01*
X106765377Y-143779254D01*
X106733580Y-143853657D01*
X106798271Y-143983733D01*
X106862962Y-144113808D01*
X106751547Y-144224707D01*
X106640132Y-144335605D01*
X106381144Y-144205639D01*
X106305861Y-144234645D01*
X106230578Y-144263650D01*
X106146738Y-144530350D01*
X105986342Y-144533896D01*
X105983265Y-144533964D01*
X105983265Y-143897279D01*
X106075471Y-143889944D01*
X106158785Y-143865647D01*
X106166500Y-143862180D01*
X106245607Y-143817890D01*
X106307461Y-143765064D01*
X106350549Y-143711346D01*
X106400877Y-143617643D01*
X106427113Y-143518343D01*
X106429030Y-143416460D01*
X106406402Y-143315010D01*
X106384208Y-143262100D01*
X106328059Y-143174068D01*
X106254406Y-143103769D01*
X106168024Y-143052517D01*
X106125516Y-143034794D01*
X106085551Y-143024552D01*
X106038177Y-143019937D01*
X105988432Y-143019050D01*
X105931053Y-143020163D01*
X105888717Y-143024987D01*
X105851112Y-143035757D01*
X105807924Y-143054703D01*
X105795291Y-143060859D01*
X105709574Y-143114754D01*
X105641125Y-143184747D01*
X105586621Y-143274274D01*
X105584167Y-143279400D01*
X105566627Y-143321227D01*
X105556499Y-143360934D01*
X105551952Y-143408378D01*
X105551099Y-143457200D01*
X105552581Y-143517722D01*
X105558281Y-143563031D01*
X105570080Y-143603211D01*
X105584736Y-143637496D01*
X105635389Y-143719513D01*
X105704299Y-143792348D01*
X105784408Y-143848946D01*
X105808404Y-143861164D01*
X105891224Y-143887677D01*
X105983265Y-143897279D01*
X105983265Y-144533964D01*
X105825947Y-144537442D01*
X105779677Y-144398584D01*
X105733408Y-144259726D01*
X105591854Y-144202274D01*
X105461973Y-144266868D01*
X105332092Y-144331463D01*
X105219202Y-144218048D01*
X105106313Y-144104633D01*
X105174435Y-143974592D01*
X105242557Y-143844550D01*
X105211904Y-143775601D01*
X105181250Y-143706651D01*
X105042050Y-143660234D01*
X104987634Y-143641320D01*
X104943752Y-143624596D01*
X104915036Y-143611931D01*
X104906025Y-143605359D01*
X104907258Y-143590048D01*
G37*
X104907258Y-143590048D02*
X104908268Y-143554619D01*
X104908950Y-143504353D01*
X104909200Y-143444673D01*
X104909200Y-143292446D01*
X105044649Y-143250998D01*
X105180099Y-143209550D01*
X105210948Y-143139803D01*
X105241796Y-143070056D01*
X105174353Y-142933365D01*
X105106909Y-142796674D01*
X105189029Y-142713230D01*
X105229992Y-142672714D01*
X105268536Y-142636506D01*
X105298310Y-142610506D01*
X105306049Y-142604496D01*
X105340949Y-142579207D01*
X105467049Y-142645151D01*
X105593149Y-142711096D01*
X105663610Y-142681892D01*
X105734070Y-142652687D01*
X105779885Y-142515194D01*
X105825700Y-142377700D01*
X106148995Y-142377700D01*
X106231927Y-142651374D01*
X106308293Y-142679186D01*
X106384658Y-142706999D01*
X106512509Y-142642840D01*
X106640359Y-142578682D01*
X106864275Y-142803150D01*
X106798698Y-142931417D01*
X106733122Y-143059684D01*
X106765466Y-143134579D01*
X106797811Y-143209474D01*
X106929830Y-143255628D01*
X107061850Y-143301783D01*
X107068922Y-143617363D01*
X106933048Y-143661107D01*
X106797174Y-143704850D01*
X106765377Y-143779254D01*
X106733580Y-143853657D01*
X106798271Y-143983733D01*
X106862962Y-144113808D01*
X106751547Y-144224707D01*
X106640132Y-144335605D01*
X106381144Y-144205639D01*
X106305861Y-144234645D01*
X106230578Y-144263650D01*
X106146738Y-144530350D01*
X105986342Y-144533896D01*
X105983265Y-144533964D01*
X105983265Y-143897279D01*
X106075471Y-143889944D01*
X106158785Y-143865647D01*
X106166500Y-143862180D01*
X106245607Y-143817890D01*
X106307461Y-143765064D01*
X106350549Y-143711346D01*
X106400877Y-143617643D01*
X106427113Y-143518343D01*
X106429030Y-143416460D01*
X106406402Y-143315010D01*
X106384208Y-143262100D01*
X106328059Y-143174068D01*
X106254406Y-143103769D01*
X106168024Y-143052517D01*
X106125516Y-143034794D01*
X106085551Y-143024552D01*
X106038177Y-143019937D01*
X105988432Y-143019050D01*
X105931053Y-143020163D01*
X105888717Y-143024987D01*
X105851112Y-143035757D01*
X105807924Y-143054703D01*
X105795291Y-143060859D01*
X105709574Y-143114754D01*
X105641125Y-143184747D01*
X105586621Y-143274274D01*
X105584167Y-143279400D01*
X105566627Y-143321227D01*
X105556499Y-143360934D01*
X105551952Y-143408378D01*
X105551099Y-143457200D01*
X105552581Y-143517722D01*
X105558281Y-143563031D01*
X105570080Y-143603211D01*
X105584736Y-143637496D01*
X105635389Y-143719513D01*
X105704299Y-143792348D01*
X105784408Y-143848946D01*
X105808404Y-143861164D01*
X105891224Y-143887677D01*
X105983265Y-143897279D01*
X105983265Y-144533964D01*
X105825947Y-144537442D01*
X105779677Y-144398584D01*
X105733408Y-144259726D01*
X105591854Y-144202274D01*
X105461973Y-144266868D01*
X105332092Y-144331463D01*
X105219202Y-144218048D01*
X105106313Y-144104633D01*
X105174435Y-143974592D01*
X105242557Y-143844550D01*
X105211904Y-143775601D01*
X105181250Y-143706651D01*
X105042050Y-143660234D01*
X104987634Y-143641320D01*
X104943752Y-143624596D01*
X104915036Y-143611931D01*
X104906025Y-143605359D01*
X104907258Y-143590048D01*
D12*
X145800000Y-132600000D02*
X154200000Y-132600000D01*
X145800000Y-139100000D02*
X154200000Y-139100000D01*
X145800000Y-139100000D02*
X145800000Y-132600000D01*
X121960000Y-143585000D02*
X121960000Y-140900000D01*
X120040000Y-143585000D02*
X121960000Y-143585000D01*
X120040000Y-140900000D02*
X120040000Y-143585000D01*
X125460000Y-143585000D02*
X125460000Y-140900000D01*
X123540000Y-143585000D02*
X125460000Y-143585000D01*
X123540000Y-140900000D02*
X123540000Y-143585000D01*
X128860000Y-143547000D02*
X128860000Y-140862000D01*
X126940000Y-143547000D02*
X128860000Y-143547000D01*
X126940000Y-140862000D02*
X126940000Y-143547000D01*
X153185000Y-145040000D02*
X150500000Y-145040000D01*
X153185000Y-146960000D02*
X153185000Y-145040000D01*
X150500000Y-146960000D02*
X153185000Y-146960000D01*
D11*
X148350000Y-139500000D02*
X149350000Y-139500000D01*
X148850000Y-139000000D02*
X148850000Y-140000000D01*
D12*
X126337221Y-113760000D02*
X126662779Y-113760000D01*
X126337221Y-112740000D02*
X126662779Y-112740000D01*
X129510000Y-115912779D02*
X129510000Y-115587221D01*
X128490000Y-115912779D02*
X128490000Y-115587221D01*
X120760000Y-115662779D02*
X120760000Y-115337221D01*
X119740000Y-115662779D02*
X119740000Y-115337221D01*
X119412779Y-124740000D02*
X119087221Y-124740000D01*
X119412779Y-125760000D02*
X119087221Y-125760000D01*
X119810000Y-107008578D02*
X119810000Y-106491422D01*
X118390000Y-107008578D02*
X118390000Y-106491422D01*
X119810000Y-103258578D02*
X119810000Y-102741422D01*
X118390000Y-103258578D02*
X118390000Y-102741422D01*
X123460000Y-103308578D02*
X123460000Y-102791422D01*
X122040000Y-103308578D02*
X122040000Y-102791422D01*
X137912779Y-105740000D02*
X137587221Y-105740000D01*
X137912779Y-106760000D02*
X137587221Y-106760000D01*
X137960000Y-103758578D02*
X137960000Y-103241422D01*
X136540000Y-103758578D02*
X136540000Y-103241422D01*
X132770000Y-117362779D02*
X132770000Y-117037221D01*
X131750000Y-117362779D02*
X131750000Y-117037221D01*
X131587221Y-133060000D02*
X131912779Y-133060000D01*
X131587221Y-132040000D02*
X131912779Y-132040000D01*
X121112779Y-132040000D02*
X120787221Y-132040000D01*
X121112779Y-133060000D02*
X120787221Y-133060000D01*
X144010000Y-109662779D02*
X144010000Y-109337221D01*
X142990000Y-109662779D02*
X142990000Y-109337221D01*
X142790000Y-113741422D02*
X142790000Y-114258578D01*
X144210000Y-113741422D02*
X144210000Y-114258578D01*
X135837221Y-134790000D02*
X136162779Y-134790000D01*
X135837221Y-135810000D02*
X136162779Y-135810000D01*
X144739285Y-114950000D02*
X145275000Y-114950000D01*
X145382142Y-114985714D01*
X145453571Y-115057142D01*
X145489285Y-115164285D01*
X145489285Y-115235714D01*
X145060714Y-114485714D02*
X145025000Y-114557142D01*
X144989285Y-114592857D01*
X144917857Y-114628571D01*
X144882142Y-114628571D01*
X144810714Y-114592857D01*
X144775000Y-114557142D01*
X144739285Y-114485714D01*
X144739285Y-114342857D01*
X144775000Y-114271428D01*
X144810714Y-114235714D01*
X144882142Y-114200000D01*
X144917857Y-114200000D01*
X144989285Y-114235714D01*
X145025000Y-114271428D01*
X145060714Y-114342857D01*
X145060714Y-114485714D01*
X145096428Y-114557142D01*
X145132142Y-114592857D01*
X145203571Y-114628571D01*
X145346428Y-114628571D01*
X145417857Y-114592857D01*
X145453571Y-114557142D01*
X145489285Y-114485714D01*
X145489285Y-114342857D01*
X145453571Y-114271428D01*
X145417857Y-114235714D01*
X145346428Y-114200000D01*
X145203571Y-114200000D01*
X145132142Y-114235714D01*
X145096428Y-114271428D01*
X145060714Y-114342857D01*
X144739285Y-126450000D02*
X145275000Y-126450000D01*
X145382142Y-126485714D01*
X145453571Y-126557142D01*
X145489285Y-126664285D01*
X145489285Y-126735714D01*
X144739285Y-126164285D02*
X144739285Y-125664285D01*
X145489285Y-125985714D01*
X118339285Y-121321428D02*
X118946428Y-121321428D01*
X119017857Y-121285714D01*
X119053571Y-121250000D01*
X119089285Y-121178571D01*
X119089285Y-121035714D01*
X119053571Y-120964285D01*
X119017857Y-120928571D01*
X118946428Y-120892857D01*
X118339285Y-120892857D01*
X118589285Y-120214285D02*
X119089285Y-120214285D01*
X118303571Y-120392857D02*
X118839285Y-120571428D01*
X118839285Y-120107142D01*
X114321428Y-149839285D02*
X114321428Y-149089285D01*
X114571428Y-149625000D01*
X114821428Y-149089285D01*
X114821428Y-149839285D01*
X115178571Y-149839285D02*
X115178571Y-149089285D01*
X115500000Y-149803571D02*
X115607142Y-149839285D01*
X115785714Y-149839285D01*
X115857142Y-149803571D01*
X115892857Y-149767857D01*
X115928571Y-149696428D01*
X115928571Y-149625000D01*
X115892857Y-149553571D01*
X115857142Y-149517857D01*
X115785714Y-149482142D01*
X115642857Y-149446428D01*
X115571428Y-149410714D01*
X115535714Y-149375000D01*
X115500000Y-149303571D01*
X115500000Y-149232142D01*
X115535714Y-149160714D01*
X115571428Y-149125000D01*
X115642857Y-149089285D01*
X115821428Y-149089285D01*
X115928571Y-149125000D01*
X116392857Y-149089285D02*
X116535714Y-149089285D01*
X116607142Y-149125000D01*
X116678571Y-149196428D01*
X116714285Y-149339285D01*
X116714285Y-149589285D01*
X116678571Y-149732142D01*
X116607142Y-149803571D01*
X116535714Y-149839285D01*
X116392857Y-149839285D01*
X116321428Y-149803571D01*
X116250000Y-149732142D01*
X116214285Y-149589285D01*
X116214285Y-149339285D01*
X116250000Y-149196428D01*
X116321428Y-149125000D01*
X116392857Y-149089285D01*
X118535714Y-149803571D02*
X118642857Y-149839285D01*
X118821428Y-149839285D01*
X118892857Y-149803571D01*
X118928571Y-149767857D01*
X118964285Y-149696428D01*
X118964285Y-149625000D01*
X118928571Y-149553571D01*
X118892857Y-149517857D01*
X118821428Y-149482142D01*
X118678571Y-149446428D01*
X118607142Y-149410714D01*
X118571428Y-149375000D01*
X118535714Y-149303571D01*
X118535714Y-149232142D01*
X118571428Y-149160714D01*
X118607142Y-149125000D01*
X118678571Y-149089285D01*
X118857142Y-149089285D01*
X118964285Y-149125000D01*
X119714285Y-149767857D02*
X119678571Y-149803571D01*
X119571428Y-149839285D01*
X119500000Y-149839285D01*
X119392857Y-149803571D01*
X119321428Y-149732142D01*
X119285714Y-149660714D01*
X119250000Y-149517857D01*
X119250000Y-149410714D01*
X119285714Y-149267857D01*
X119321428Y-149196428D01*
X119392857Y-149125000D01*
X119500000Y-149089285D01*
X119571428Y-149089285D01*
X119678571Y-149125000D01*
X119714285Y-149160714D01*
X120035714Y-149839285D02*
X120035714Y-149089285D01*
X120464285Y-149839285D02*
X120142857Y-149410714D01*
X120464285Y-149089285D02*
X120035714Y-149517857D01*
X122321428Y-149839285D02*
X122321428Y-149089285D01*
X122571428Y-149625000D01*
X122821428Y-149089285D01*
X122821428Y-149839285D01*
X123321428Y-149089285D02*
X123464285Y-149089285D01*
X123535714Y-149125000D01*
X123607142Y-149196428D01*
X123642857Y-149339285D01*
X123642857Y-149589285D01*
X123607142Y-149732142D01*
X123535714Y-149803571D01*
X123464285Y-149839285D01*
X123321428Y-149839285D01*
X123250000Y-149803571D01*
X123178571Y-149732142D01*
X123142857Y-149589285D01*
X123142857Y-149339285D01*
X123178571Y-149196428D01*
X123250000Y-149125000D01*
X123321428Y-149089285D01*
X123928571Y-149803571D02*
X124035714Y-149839285D01*
X124214285Y-149839285D01*
X124285714Y-149803571D01*
X124321428Y-149767857D01*
X124357142Y-149696428D01*
X124357142Y-149625000D01*
X124321428Y-149553571D01*
X124285714Y-149517857D01*
X124214285Y-149482142D01*
X124071428Y-149446428D01*
X124000000Y-149410714D01*
X123964285Y-149375000D01*
X123928571Y-149303571D01*
X123928571Y-149232142D01*
X123964285Y-149160714D01*
X124000000Y-149125000D01*
X124071428Y-149089285D01*
X124250000Y-149089285D01*
X124357142Y-149125000D01*
X124678571Y-149839285D02*
X124678571Y-149089285D01*
X127375000Y-149767857D02*
X127339285Y-149803571D01*
X127232142Y-149839285D01*
X127160714Y-149839285D01*
X127053571Y-149803571D01*
X126982142Y-149732142D01*
X126946428Y-149660714D01*
X126910714Y-149517857D01*
X126910714Y-149410714D01*
X126946428Y-149267857D01*
X126982142Y-149196428D01*
X127053571Y-149125000D01*
X127160714Y-149089285D01*
X127232142Y-149089285D01*
X127339285Y-149125000D01*
X127375000Y-149160714D01*
X127660714Y-149803571D02*
X127767857Y-149839285D01*
X127946428Y-149839285D01*
X128017857Y-149803571D01*
X128053571Y-149767857D01*
X128089285Y-149696428D01*
X128089285Y-149625000D01*
X128053571Y-149553571D01*
X128017857Y-149517857D01*
X127946428Y-149482142D01*
X127803571Y-149446428D01*
X127732142Y-149410714D01*
X127696428Y-149375000D01*
X127660714Y-149303571D01*
X127660714Y-149232142D01*
X127696428Y-149160714D01*
X127732142Y-149125000D01*
X127803571Y-149089285D01*
X127982142Y-149089285D01*
X128089285Y-149125000D01*
X137000000Y-153339285D02*
X137000000Y-153875000D01*
X136964285Y-153982142D01*
X136892857Y-154053571D01*
X136785714Y-154089285D01*
X136714285Y-154089285D01*
X137750000Y-154089285D02*
X137321428Y-154089285D01*
X137535714Y-154089285D02*
X137535714Y-153339285D01*
X137464285Y-153446428D01*
X137392857Y-153517857D01*
X137321428Y-153553571D01*
X150139285Y-107653571D02*
X149389285Y-107653571D01*
X149389285Y-107475000D01*
X149425000Y-107367857D01*
X149496428Y-107296428D01*
X149567857Y-107260714D01*
X149710714Y-107225000D01*
X149817857Y-107225000D01*
X149960714Y-107260714D01*
X150032142Y-107296428D01*
X150103571Y-107367857D01*
X150139285Y-107475000D01*
X150139285Y-107653571D01*
X150139285Y-106867857D02*
X150139285Y-106725000D01*
X150103571Y-106653571D01*
X150067857Y-106617857D01*
X149960714Y-106546428D01*
X149817857Y-106510714D01*
X149532142Y-106510714D01*
X149460714Y-106546428D01*
X149425000Y-106582142D01*
X149389285Y-106653571D01*
X149389285Y-106796428D01*
X149425000Y-106867857D01*
X149460714Y-106903571D01*
X149532142Y-106939285D01*
X149710714Y-106939285D01*
X149782142Y-106903571D01*
X149817857Y-106867857D01*
X149853571Y-106796428D01*
X149853571Y-106653571D01*
X149817857Y-106582142D01*
X149782142Y-106546428D01*
X149710714Y-106510714D01*
X140428571Y-115439285D02*
X140428571Y-116046428D01*
X140464285Y-116117857D01*
X140500000Y-116153571D01*
X140571428Y-116189285D01*
X140714285Y-116189285D01*
X140785714Y-116153571D01*
X140821428Y-116117857D01*
X140857142Y-116046428D01*
X140857142Y-115439285D01*
X141142857Y-115439285D02*
X141607142Y-115439285D01*
X141357142Y-115725000D01*
X141464285Y-115725000D01*
X141535714Y-115760714D01*
X141571428Y-115796428D01*
X141607142Y-115867857D01*
X141607142Y-116046428D01*
X141571428Y-116117857D01*
X141535714Y-116153571D01*
X141464285Y-116189285D01*
X141250000Y-116189285D01*
X141178571Y-116153571D01*
X141142857Y-116117857D01*
X125892857Y-132232142D02*
X125892857Y-132589285D01*
X125642857Y-131839285D02*
X125892857Y-132232142D01*
X126142857Y-131839285D01*
X126785714Y-132589285D02*
X126357142Y-132589285D01*
X126571428Y-132589285D02*
X126571428Y-131839285D01*
X126500000Y-131946428D01*
X126428571Y-132017857D01*
X126357142Y-132053571D01*
X121428571Y-108789285D02*
X121428571Y-109396428D01*
X121464285Y-109467857D01*
X121500000Y-109503571D01*
X121571428Y-109539285D01*
X121714285Y-109539285D01*
X121785714Y-109503571D01*
X121821428Y-109467857D01*
X121857142Y-109396428D01*
X121857142Y-108789285D01*
X122535714Y-108789285D02*
X122392857Y-108789285D01*
X122321428Y-108825000D01*
X122285714Y-108860714D01*
X122214285Y-108967857D01*
X122178571Y-109110714D01*
X122178571Y-109396428D01*
X122214285Y-109467857D01*
X122250000Y-109503571D01*
X122321428Y-109539285D01*
X122464285Y-109539285D01*
X122535714Y-109503571D01*
X122571428Y-109467857D01*
X122607142Y-109396428D01*
X122607142Y-109217857D01*
X122571428Y-109146428D01*
X122535714Y-109110714D01*
X122464285Y-109075000D01*
X122321428Y-109075000D01*
X122250000Y-109110714D01*
X122214285Y-109146428D01*
X122178571Y-109217857D01*
X124728571Y-107489285D02*
X124728571Y-108096428D01*
X124764285Y-108167857D01*
X124800000Y-108203571D01*
X124871428Y-108239285D01*
X125014285Y-108239285D01*
X125085714Y-108203571D01*
X125121428Y-108167857D01*
X125157142Y-108096428D01*
X125157142Y-107489285D01*
X125871428Y-107489285D02*
X125514285Y-107489285D01*
X125478571Y-107846428D01*
X125514285Y-107810714D01*
X125585714Y-107775000D01*
X125764285Y-107775000D01*
X125835714Y-107810714D01*
X125871428Y-107846428D01*
X125907142Y-107917857D01*
X125907142Y-108096428D01*
X125871428Y-108167857D01*
X125835714Y-108203571D01*
X125764285Y-108239285D01*
X125585714Y-108239285D01*
X125514285Y-108203571D01*
X125478571Y-108167857D01*
X136828571Y-112425000D02*
X136757142Y-112389285D01*
X136650000Y-112389285D01*
X136542857Y-112425000D01*
X136471428Y-112496428D01*
X136435714Y-112567857D01*
X136400000Y-112710714D01*
X136400000Y-112817857D01*
X136435714Y-112960714D01*
X136471428Y-113032142D01*
X136542857Y-113103571D01*
X136650000Y-113139285D01*
X136721428Y-113139285D01*
X136828571Y-113103571D01*
X136864285Y-113067857D01*
X136864285Y-112817857D01*
X136721428Y-112817857D01*
X137185714Y-113139285D02*
X137185714Y-112389285D01*
X137614285Y-113139285D01*
X137614285Y-112389285D01*
X137971428Y-113139285D02*
X137971428Y-112389285D01*
X138150000Y-112389285D01*
X138257142Y-112425000D01*
X138328571Y-112496428D01*
X138364285Y-112567857D01*
X138400000Y-112710714D01*
X138400000Y-112817857D01*
X138364285Y-112960714D01*
X138328571Y-113032142D01*
X138257142Y-113103571D01*
X138150000Y-113139285D01*
X137971428Y-113139285D01*
X128892857Y-112339285D02*
X129357142Y-112339285D01*
X129107142Y-112625000D01*
X129214285Y-112625000D01*
X129285714Y-112660714D01*
X129321428Y-112696428D01*
X129357142Y-112767857D01*
X129357142Y-112946428D01*
X129321428Y-113017857D01*
X129285714Y-113053571D01*
X129214285Y-113089285D01*
X129000000Y-113089285D01*
X128928571Y-113053571D01*
X128892857Y-113017857D01*
X129678571Y-113017857D02*
X129714285Y-113053571D01*
X129678571Y-113089285D01*
X129642857Y-113053571D01*
X129678571Y-113017857D01*
X129678571Y-113089285D01*
X129964285Y-112339285D02*
X130428571Y-112339285D01*
X130178571Y-112625000D01*
X130285714Y-112625000D01*
X130357142Y-112660714D01*
X130392857Y-112696428D01*
X130428571Y-112767857D01*
X130428571Y-112946428D01*
X130392857Y-113017857D01*
X130357142Y-113053571D01*
X130285714Y-113089285D01*
X130071428Y-113089285D01*
X130000000Y-113053571D01*
X129964285Y-113017857D01*
X130642857Y-112339285D02*
X130892857Y-113089285D01*
X131142857Y-112339285D01*
X133607142Y-112339285D02*
X133250000Y-112339285D01*
X133214285Y-112696428D01*
X133250000Y-112660714D01*
X133321428Y-112625000D01*
X133500000Y-112625000D01*
X133571428Y-112660714D01*
X133607142Y-112696428D01*
X133642857Y-112767857D01*
X133642857Y-112946428D01*
X133607142Y-113017857D01*
X133571428Y-113053571D01*
X133500000Y-113089285D01*
X133321428Y-113089285D01*
X133250000Y-113053571D01*
X133214285Y-113017857D01*
X133857142Y-112339285D02*
X134107142Y-113089285D01*
X134357142Y-112339285D01*
X141339285Y-129553571D02*
X141339285Y-129125000D01*
X142089285Y-129339285D02*
X141339285Y-129339285D01*
X142089285Y-128875000D02*
X141339285Y-128875000D01*
X141339285Y-128589285D01*
X141375000Y-128517857D01*
X141410714Y-128482142D01*
X141482142Y-128446428D01*
X141589285Y-128446428D01*
X141660714Y-128482142D01*
X141696428Y-128517857D01*
X141732142Y-128589285D01*
X141732142Y-128875000D01*
X142089285Y-127732142D02*
X142089285Y-128160714D01*
X142089285Y-127946428D02*
X141339285Y-127946428D01*
X141446428Y-128017857D01*
X141517857Y-128089285D01*
X141553571Y-128160714D01*
X141410714Y-127446428D02*
X141375000Y-127410714D01*
X141339285Y-127339285D01*
X141339285Y-127160714D01*
X141375000Y-127089285D01*
X141410714Y-127053571D01*
X141482142Y-127017857D01*
X141553571Y-127017857D01*
X141660714Y-127053571D01*
X142089285Y-127482142D01*
X142089285Y-127017857D01*
X141339285Y-125703571D02*
X141339285Y-125275000D01*
X142089285Y-125489285D02*
X141339285Y-125489285D01*
X142089285Y-125025000D02*
X141339285Y-125025000D01*
X141339285Y-124739285D01*
X141375000Y-124667857D01*
X141410714Y-124632142D01*
X141482142Y-124596428D01*
X141589285Y-124596428D01*
X141660714Y-124632142D01*
X141696428Y-124667857D01*
X141732142Y-124739285D01*
X141732142Y-125025000D01*
X142089285Y-123882142D02*
X142089285Y-124310714D01*
X142089285Y-124096428D02*
X141339285Y-124096428D01*
X141446428Y-124167857D01*
X141517857Y-124239285D01*
X141553571Y-124310714D01*
X142089285Y-123167857D02*
X142089285Y-123596428D01*
X142089285Y-123382142D02*
X141339285Y-123382142D01*
X141446428Y-123453571D01*
X141517857Y-123525000D01*
X141553571Y-123596428D01*
X142089285Y-132464285D02*
X142089285Y-132892857D01*
X142089285Y-132678571D02*
X141339285Y-132678571D01*
X141446428Y-132750000D01*
X141517857Y-132821428D01*
X141553571Y-132892857D01*
X141410714Y-132178571D02*
X141375000Y-132142857D01*
X141339285Y-132071428D01*
X141339285Y-131892857D01*
X141375000Y-131821428D01*
X141410714Y-131785714D01*
X141482142Y-131750000D01*
X141553571Y-131750000D01*
X141660714Y-131785714D01*
X142089285Y-132214285D01*
X142089285Y-131750000D01*
X141339285Y-131535714D02*
X142089285Y-131285714D01*
X141339285Y-131035714D01*
X113103571Y-143189285D02*
X113532142Y-143189285D01*
X113317857Y-143939285D02*
X113317857Y-143189285D01*
X113782142Y-143546428D02*
X114032142Y-143546428D01*
X114139285Y-143939285D02*
X113782142Y-143939285D01*
X113782142Y-143189285D01*
X114139285Y-143189285D01*
X114425000Y-143903571D02*
X114532142Y-143939285D01*
X114710714Y-143939285D01*
X114782142Y-143903571D01*
X114817857Y-143867857D01*
X114853571Y-143796428D01*
X114853571Y-143725000D01*
X114817857Y-143653571D01*
X114782142Y-143617857D01*
X114710714Y-143582142D01*
X114567857Y-143546428D01*
X114496428Y-143510714D01*
X114460714Y-143475000D01*
X114425000Y-143403571D01*
X114425000Y-143332142D01*
X114460714Y-143260714D01*
X114496428Y-143225000D01*
X114567857Y-143189285D01*
X114746428Y-143189285D01*
X114853571Y-143225000D01*
X115067857Y-143189285D02*
X115496428Y-143189285D01*
X115282142Y-143939285D02*
X115282142Y-143189285D01*
X113210714Y-136739285D02*
X112960714Y-136382142D01*
X112782142Y-136739285D02*
X112782142Y-135989285D01*
X113067857Y-135989285D01*
X113139285Y-136025000D01*
X113175000Y-136060714D01*
X113210714Y-136132142D01*
X113210714Y-136239285D01*
X113175000Y-136310714D01*
X113139285Y-136346428D01*
X113067857Y-136382142D01*
X112782142Y-136382142D01*
X113532142Y-136346428D02*
X113782142Y-136346428D01*
X113889285Y-136739285D02*
X113532142Y-136739285D01*
X113532142Y-135989285D01*
X113889285Y-135989285D01*
X114175000Y-136703571D02*
X114282142Y-136739285D01*
X114460714Y-136739285D01*
X114532142Y-136703571D01*
X114567857Y-136667857D01*
X114603571Y-136596428D01*
X114603571Y-136525000D01*
X114567857Y-136453571D01*
X114532142Y-136417857D01*
X114460714Y-136382142D01*
X114317857Y-136346428D01*
X114246428Y-136310714D01*
X114210714Y-136275000D01*
X114175000Y-136203571D01*
X114175000Y-136132142D01*
X114210714Y-136060714D01*
X114246428Y-136025000D01*
X114317857Y-135989285D01*
X114496428Y-135989285D01*
X114603571Y-136025000D01*
X114925000Y-136346428D02*
X115175000Y-136346428D01*
X115282142Y-136739285D02*
X114925000Y-136739285D01*
X114925000Y-135989285D01*
X115282142Y-135989285D01*
X115496428Y-135989285D02*
X115925000Y-135989285D01*
X115710714Y-136739285D02*
X115710714Y-135989285D01*
X131249285Y-120732142D02*
X130892142Y-120982142D01*
X131249285Y-121160714D02*
X130499285Y-121160714D01*
X130499285Y-120875000D01*
X130535000Y-120803571D01*
X130570714Y-120767857D01*
X130642142Y-120732142D01*
X130749285Y-120732142D01*
X130820714Y-120767857D01*
X130856428Y-120803571D01*
X130892142Y-120875000D01*
X130892142Y-121160714D01*
X131249285Y-120017857D02*
X131249285Y-120446428D01*
X131249285Y-120232142D02*
X130499285Y-120232142D01*
X130606428Y-120303571D01*
X130677857Y-120375000D01*
X130713571Y-120446428D01*
X130820714Y-119589285D02*
X130785000Y-119660714D01*
X130749285Y-119696428D01*
X130677857Y-119732142D01*
X130642142Y-119732142D01*
X130570714Y-119696428D01*
X130535000Y-119660714D01*
X130499285Y-119589285D01*
X130499285Y-119446428D01*
X130535000Y-119375000D01*
X130570714Y-119339285D01*
X130642142Y-119303571D01*
X130677857Y-119303571D01*
X130749285Y-119339285D01*
X130785000Y-119375000D01*
X130820714Y-119446428D01*
X130820714Y-119589285D01*
X130856428Y-119660714D01*
X130892142Y-119696428D01*
X130963571Y-119732142D01*
X131106428Y-119732142D01*
X131177857Y-119696428D01*
X131213571Y-119660714D01*
X131249285Y-119589285D01*
X131249285Y-119446428D01*
X131213571Y-119375000D01*
X131177857Y-119339285D01*
X131106428Y-119303571D01*
X130963571Y-119303571D01*
X130892142Y-119339285D01*
X130856428Y-119375000D01*
X130820714Y-119446428D01*
X131339285Y-124482142D02*
X130982142Y-124732142D01*
X131339285Y-124910714D02*
X130589285Y-124910714D01*
X130589285Y-124625000D01*
X130625000Y-124553571D01*
X130660714Y-124517857D01*
X130732142Y-124482142D01*
X130839285Y-124482142D01*
X130910714Y-124517857D01*
X130946428Y-124553571D01*
X130982142Y-124625000D01*
X130982142Y-124910714D01*
X131339285Y-123767857D02*
X131339285Y-124196428D01*
X131339285Y-123982142D02*
X130589285Y-123982142D01*
X130696428Y-124053571D01*
X130767857Y-124125000D01*
X130803571Y-124196428D01*
X130589285Y-123517857D02*
X130589285Y-123017857D01*
X131339285Y-123339285D01*
X135117857Y-125969285D02*
X134867857Y-125612142D01*
X134689285Y-125969285D02*
X134689285Y-125219285D01*
X134975000Y-125219285D01*
X135046428Y-125255000D01*
X135082142Y-125290714D01*
X135117857Y-125362142D01*
X135117857Y-125469285D01*
X135082142Y-125540714D01*
X135046428Y-125576428D01*
X134975000Y-125612142D01*
X134689285Y-125612142D01*
X135832142Y-125969285D02*
X135403571Y-125969285D01*
X135617857Y-125969285D02*
X135617857Y-125219285D01*
X135546428Y-125326428D01*
X135475000Y-125397857D01*
X135403571Y-125433571D01*
X136475000Y-125219285D02*
X136332142Y-125219285D01*
X136260714Y-125255000D01*
X136225000Y-125290714D01*
X136153571Y-125397857D01*
X136117857Y-125540714D01*
X136117857Y-125826428D01*
X136153571Y-125897857D01*
X136189285Y-125933571D01*
X136260714Y-125969285D01*
X136403571Y-125969285D01*
X136475000Y-125933571D01*
X136510714Y-125897857D01*
X136546428Y-125826428D01*
X136546428Y-125647857D01*
X136510714Y-125576428D01*
X136475000Y-125540714D01*
X136403571Y-125505000D01*
X136260714Y-125505000D01*
X136189285Y-125540714D01*
X136153571Y-125576428D01*
X136117857Y-125647857D01*
X134767857Y-116339285D02*
X134517857Y-115982142D01*
X134339285Y-116339285D02*
X134339285Y-115589285D01*
X134625000Y-115589285D01*
X134696428Y-115625000D01*
X134732142Y-115660714D01*
X134767857Y-115732142D01*
X134767857Y-115839285D01*
X134732142Y-115910714D01*
X134696428Y-115946428D01*
X134625000Y-115982142D01*
X134339285Y-115982142D01*
X135482142Y-116339285D02*
X135053571Y-116339285D01*
X135267857Y-116339285D02*
X135267857Y-115589285D01*
X135196428Y-115696428D01*
X135125000Y-115767857D01*
X135053571Y-115803571D01*
X136160714Y-115589285D02*
X135803571Y-115589285D01*
X135767857Y-115946428D01*
X135803571Y-115910714D01*
X135875000Y-115875000D01*
X136053571Y-115875000D01*
X136125000Y-115910714D01*
X136160714Y-115946428D01*
X136196428Y-116017857D01*
X136196428Y-116196428D01*
X136160714Y-116267857D01*
X136125000Y-116303571D01*
X136053571Y-116339285D01*
X135875000Y-116339285D01*
X135803571Y-116303571D01*
X135767857Y-116267857D01*
X114539285Y-128232142D02*
X114182142Y-128482142D01*
X114539285Y-128660714D02*
X113789285Y-128660714D01*
X113789285Y-128375000D01*
X113825000Y-128303571D01*
X113860714Y-128267857D01*
X113932142Y-128232142D01*
X114039285Y-128232142D01*
X114110714Y-128267857D01*
X114146428Y-128303571D01*
X114182142Y-128375000D01*
X114182142Y-128660714D01*
X114539285Y-127517857D02*
X114539285Y-127946428D01*
X114539285Y-127732142D02*
X113789285Y-127732142D01*
X113896428Y-127803571D01*
X113967857Y-127875000D01*
X114003571Y-127946428D01*
X114039285Y-126875000D02*
X114539285Y-126875000D01*
X113753571Y-127053571D02*
X114289285Y-127232142D01*
X114289285Y-126767857D01*
X119909285Y-138782142D02*
X119552142Y-139032142D01*
X119909285Y-139210714D02*
X119159285Y-139210714D01*
X119159285Y-138925000D01*
X119195000Y-138853571D01*
X119230714Y-138817857D01*
X119302142Y-138782142D01*
X119409285Y-138782142D01*
X119480714Y-138817857D01*
X119516428Y-138853571D01*
X119552142Y-138925000D01*
X119552142Y-139210714D01*
X119909285Y-138067857D02*
X119909285Y-138496428D01*
X119909285Y-138282142D02*
X119159285Y-138282142D01*
X119266428Y-138353571D01*
X119337857Y-138425000D01*
X119373571Y-138496428D01*
X119159285Y-137817857D02*
X119159285Y-137353571D01*
X119445000Y-137603571D01*
X119445000Y-137496428D01*
X119480714Y-137425000D01*
X119516428Y-137389285D01*
X119587857Y-137353571D01*
X119766428Y-137353571D01*
X119837857Y-137389285D01*
X119873571Y-137425000D01*
X119909285Y-137496428D01*
X119909285Y-137710714D01*
X119873571Y-137782142D01*
X119837857Y-137817857D01*
X123409285Y-138782142D02*
X123052142Y-139032142D01*
X123409285Y-139210714D02*
X122659285Y-139210714D01*
X122659285Y-138925000D01*
X122695000Y-138853571D01*
X122730714Y-138817857D01*
X122802142Y-138782142D01*
X122909285Y-138782142D01*
X122980714Y-138817857D01*
X123016428Y-138853571D01*
X123052142Y-138925000D01*
X123052142Y-139210714D01*
X123409285Y-138067857D02*
X123409285Y-138496428D01*
X123409285Y-138282142D02*
X122659285Y-138282142D01*
X122766428Y-138353571D01*
X122837857Y-138425000D01*
X122873571Y-138496428D01*
X122730714Y-137782142D02*
X122695000Y-137746428D01*
X122659285Y-137675000D01*
X122659285Y-137496428D01*
X122695000Y-137425000D01*
X122730714Y-137389285D01*
X122802142Y-137353571D01*
X122873571Y-137353571D01*
X122980714Y-137389285D01*
X123409285Y-137817857D01*
X123409285Y-137353571D01*
X126809285Y-138682142D02*
X126452142Y-138932142D01*
X126809285Y-139110714D02*
X126059285Y-139110714D01*
X126059285Y-138825000D01*
X126095000Y-138753571D01*
X126130714Y-138717857D01*
X126202142Y-138682142D01*
X126309285Y-138682142D01*
X126380714Y-138717857D01*
X126416428Y-138753571D01*
X126452142Y-138825000D01*
X126452142Y-139110714D01*
X126809285Y-137967857D02*
X126809285Y-138396428D01*
X126809285Y-138182142D02*
X126059285Y-138182142D01*
X126166428Y-138253571D01*
X126237857Y-138325000D01*
X126273571Y-138396428D01*
X126809285Y-137253571D02*
X126809285Y-137682142D01*
X126809285Y-137467857D02*
X126059285Y-137467857D01*
X126166428Y-137539285D01*
X126237857Y-137610714D01*
X126273571Y-137682142D01*
X146789285Y-146482142D02*
X146432142Y-146732142D01*
X146789285Y-146910714D02*
X146039285Y-146910714D01*
X146039285Y-146625000D01*
X146075000Y-146553571D01*
X146110714Y-146517857D01*
X146182142Y-146482142D01*
X146289285Y-146482142D01*
X146360714Y-146517857D01*
X146396428Y-146553571D01*
X146432142Y-146625000D01*
X146432142Y-146910714D01*
X146789285Y-145767857D02*
X146789285Y-146196428D01*
X146789285Y-145982142D02*
X146039285Y-145982142D01*
X146146428Y-146053571D01*
X146217857Y-146125000D01*
X146253571Y-146196428D01*
X146039285Y-145303571D02*
X146039285Y-145232142D01*
X146075000Y-145160714D01*
X146110714Y-145125000D01*
X146182142Y-145089285D01*
X146325000Y-145053571D01*
X146503571Y-145053571D01*
X146646428Y-145089285D01*
X146717857Y-145125000D01*
X146753571Y-145160714D01*
X146789285Y-145232142D01*
X146789285Y-145303571D01*
X146753571Y-145375000D01*
X146717857Y-145410714D01*
X146646428Y-145446428D01*
X146503571Y-145482142D01*
X146325000Y-145482142D01*
X146182142Y-145446428D01*
X146110714Y-145410714D01*
X146075000Y-145375000D01*
X146039285Y-145303571D01*
X117339285Y-127925000D02*
X116982142Y-128175000D01*
X117339285Y-128353571D02*
X116589285Y-128353571D01*
X116589285Y-128067857D01*
X116625000Y-127996428D01*
X116660714Y-127960714D01*
X116732142Y-127925000D01*
X116839285Y-127925000D01*
X116910714Y-127960714D01*
X116946428Y-127996428D01*
X116982142Y-128067857D01*
X116982142Y-128353571D01*
X117339285Y-127567857D02*
X117339285Y-127425000D01*
X117303571Y-127353571D01*
X117267857Y-127317857D01*
X117160714Y-127246428D01*
X117017857Y-127210714D01*
X116732142Y-127210714D01*
X116660714Y-127246428D01*
X116625000Y-127282142D01*
X116589285Y-127353571D01*
X116589285Y-127496428D01*
X116625000Y-127567857D01*
X116660714Y-127603571D01*
X116732142Y-127639285D01*
X116910714Y-127639285D01*
X116982142Y-127603571D01*
X117017857Y-127567857D01*
X117053571Y-127496428D01*
X117053571Y-127353571D01*
X117017857Y-127282142D01*
X116982142Y-127246428D01*
X116910714Y-127210714D01*
X134928571Y-123160714D02*
X134857142Y-123125000D01*
X134785714Y-123053571D01*
X134678571Y-122946428D01*
X134607142Y-122910714D01*
X134535714Y-122910714D01*
X134571428Y-123089285D02*
X134500000Y-123053571D01*
X134428571Y-122982142D01*
X134392857Y-122839285D01*
X134392857Y-122589285D01*
X134428571Y-122446428D01*
X134500000Y-122375000D01*
X134571428Y-122339285D01*
X134714285Y-122339285D01*
X134785714Y-122375000D01*
X134857142Y-122446428D01*
X134892857Y-122589285D01*
X134892857Y-122839285D01*
X134857142Y-122982142D01*
X134785714Y-123053571D01*
X134714285Y-123089285D01*
X134571428Y-123089285D01*
X135142857Y-122339285D02*
X135607142Y-122339285D01*
X135357142Y-122625000D01*
X135464285Y-122625000D01*
X135535714Y-122660714D01*
X135571428Y-122696428D01*
X135607142Y-122767857D01*
X135607142Y-122946428D01*
X135571428Y-123017857D01*
X135535714Y-123053571D01*
X135464285Y-123089285D01*
X135250000Y-123089285D01*
X135178571Y-123053571D01*
X135142857Y-123017857D01*
X123125000Y-112089285D02*
X122767857Y-112089285D01*
X122767857Y-111339285D01*
X123339285Y-111410714D02*
X123375000Y-111375000D01*
X123446428Y-111339285D01*
X123625000Y-111339285D01*
X123696428Y-111375000D01*
X123732142Y-111410714D01*
X123767857Y-111482142D01*
X123767857Y-111553571D01*
X123732142Y-111660714D01*
X123303571Y-112089285D01*
X123767857Y-112089285D01*
X134975000Y-128839285D02*
X134975000Y-129375000D01*
X134939285Y-129482142D01*
X134867857Y-129553571D01*
X134760714Y-129589285D01*
X134689285Y-129589285D01*
X135332142Y-129589285D02*
X135332142Y-128839285D01*
X135617857Y-128839285D01*
X135689285Y-128875000D01*
X135725000Y-128910714D01*
X135760714Y-128982142D01*
X135760714Y-129089285D01*
X135725000Y-129160714D01*
X135689285Y-129196428D01*
X135617857Y-129232142D01*
X135332142Y-129232142D01*
X136010714Y-128839285D02*
X136475000Y-128839285D01*
X136225000Y-129125000D01*
X136332142Y-129125000D01*
X136403571Y-129160714D01*
X136439285Y-129196428D01*
X136475000Y-129267857D01*
X136475000Y-129446428D01*
X136439285Y-129517857D01*
X136403571Y-129553571D01*
X136332142Y-129589285D01*
X136117857Y-129589285D01*
X136046428Y-129553571D01*
X136010714Y-129517857D01*
X106125000Y-135939285D02*
X106125000Y-136475000D01*
X106089285Y-136582142D01*
X106017857Y-136653571D01*
X105910714Y-136689285D01*
X105839285Y-136689285D01*
X106482142Y-136689285D02*
X106482142Y-135939285D01*
X106767857Y-135939285D01*
X106839285Y-135975000D01*
X106875000Y-136010714D01*
X106910714Y-136082142D01*
X106910714Y-136189285D01*
X106875000Y-136260714D01*
X106839285Y-136296428D01*
X106767857Y-136332142D01*
X106482142Y-136332142D01*
X107625000Y-136689285D02*
X107196428Y-136689285D01*
X107410714Y-136689285D02*
X107410714Y-135939285D01*
X107339285Y-136046428D01*
X107267857Y-136117857D01*
X107196428Y-136153571D01*
X107750000Y-128089285D02*
X107750000Y-128625000D01*
X107714285Y-128732142D01*
X107642857Y-128803571D01*
X107535714Y-128839285D01*
X107464285Y-128839285D01*
X108464285Y-128089285D02*
X108107142Y-128089285D01*
X108071428Y-128446428D01*
X108107142Y-128410714D01*
X108178571Y-128375000D01*
X108357142Y-128375000D01*
X108428571Y-128410714D01*
X108464285Y-128446428D01*
X108500000Y-128517857D01*
X108500000Y-128696428D01*
X108464285Y-128767857D01*
X108428571Y-128803571D01*
X108357142Y-128839285D01*
X108178571Y-128839285D01*
X108107142Y-128803571D01*
X108071428Y-128767857D01*
X145339285Y-136303571D02*
X144589285Y-136303571D01*
X144589285Y-136125000D01*
X144625000Y-136017857D01*
X144696428Y-135946428D01*
X144767857Y-135910714D01*
X144910714Y-135875000D01*
X145017857Y-135875000D01*
X145160714Y-135910714D01*
X145232142Y-135946428D01*
X145303571Y-136017857D01*
X145339285Y-136125000D01*
X145339285Y-136303571D01*
X144910714Y-135446428D02*
X144875000Y-135517857D01*
X144839285Y-135553571D01*
X144767857Y-135589285D01*
X144732142Y-135589285D01*
X144660714Y-135553571D01*
X144625000Y-135517857D01*
X144589285Y-135446428D01*
X144589285Y-135303571D01*
X144625000Y-135232142D01*
X144660714Y-135196428D01*
X144732142Y-135160714D01*
X144767857Y-135160714D01*
X144839285Y-135196428D01*
X144875000Y-135232142D01*
X144910714Y-135303571D01*
X144910714Y-135446428D01*
X144946428Y-135517857D01*
X144982142Y-135553571D01*
X145053571Y-135589285D01*
X145196428Y-135589285D01*
X145267857Y-135553571D01*
X145303571Y-135517857D01*
X145339285Y-135446428D01*
X145339285Y-135303571D01*
X145303571Y-135232142D01*
X145267857Y-135196428D01*
X145196428Y-135160714D01*
X145053571Y-135160714D01*
X144982142Y-135196428D01*
X144946428Y-135232142D01*
X144910714Y-135303571D01*
X119689285Y-142453571D02*
X118939285Y-142453571D01*
X118939285Y-142275000D01*
X118975000Y-142167857D01*
X119046428Y-142096428D01*
X119117857Y-142060714D01*
X119260714Y-142025000D01*
X119367857Y-142025000D01*
X119510714Y-142060714D01*
X119582142Y-142096428D01*
X119653571Y-142167857D01*
X119689285Y-142275000D01*
X119689285Y-142453571D01*
X118939285Y-141775000D02*
X118939285Y-141275000D01*
X119689285Y-141596428D01*
X123189285Y-142453571D02*
X122439285Y-142453571D01*
X122439285Y-142275000D01*
X122475000Y-142167857D01*
X122546428Y-142096428D01*
X122617857Y-142060714D01*
X122760714Y-142025000D01*
X122867857Y-142025000D01*
X123010714Y-142060714D01*
X123082142Y-142096428D01*
X123153571Y-142167857D01*
X123189285Y-142275000D01*
X123189285Y-142453571D01*
X122439285Y-141382142D02*
X122439285Y-141525000D01*
X122475000Y-141596428D01*
X122510714Y-141632142D01*
X122617857Y-141703571D01*
X122760714Y-141739285D01*
X123046428Y-141739285D01*
X123117857Y-141703571D01*
X123153571Y-141667857D01*
X123189285Y-141596428D01*
X123189285Y-141453571D01*
X123153571Y-141382142D01*
X123117857Y-141346428D01*
X123046428Y-141310714D01*
X122867857Y-141310714D01*
X122796428Y-141346428D01*
X122760714Y-141382142D01*
X122725000Y-141453571D01*
X122725000Y-141596428D01*
X122760714Y-141667857D01*
X122796428Y-141703571D01*
X122867857Y-141739285D01*
X126589285Y-142415571D02*
X125839285Y-142415571D01*
X125839285Y-142237000D01*
X125875000Y-142129857D01*
X125946428Y-142058428D01*
X126017857Y-142022714D01*
X126160714Y-141987000D01*
X126267857Y-141987000D01*
X126410714Y-142022714D01*
X126482142Y-142058428D01*
X126553571Y-142129857D01*
X126589285Y-142237000D01*
X126589285Y-142415571D01*
X125839285Y-141308428D02*
X125839285Y-141665571D01*
X126196428Y-141701285D01*
X126160714Y-141665571D01*
X126125000Y-141594142D01*
X126125000Y-141415571D01*
X126160714Y-141344142D01*
X126196428Y-141308428D01*
X126267857Y-141272714D01*
X126446428Y-141272714D01*
X126517857Y-141308428D01*
X126553571Y-141344142D01*
X126589285Y-141415571D01*
X126589285Y-141594142D01*
X126553571Y-141665571D01*
X126517857Y-141701285D01*
X150946428Y-148089285D02*
X150946428Y-147339285D01*
X151125000Y-147339285D01*
X151232142Y-147375000D01*
X151303571Y-147446428D01*
X151339285Y-147517857D01*
X151375000Y-147660714D01*
X151375000Y-147767857D01*
X151339285Y-147910714D01*
X151303571Y-147982142D01*
X151232142Y-148053571D01*
X151125000Y-148089285D01*
X150946428Y-148089285D01*
X152017857Y-147589285D02*
X152017857Y-148089285D01*
X151839285Y-147303571D02*
X151660714Y-147839285D01*
X152125000Y-147839285D01*
X146667857Y-142482142D02*
X146703571Y-142517857D01*
X146739285Y-142625000D01*
X146739285Y-142696428D01*
X146703571Y-142803571D01*
X146632142Y-142875000D01*
X146560714Y-142910714D01*
X146417857Y-142946428D01*
X146310714Y-142946428D01*
X146167857Y-142910714D01*
X146096428Y-142875000D01*
X146025000Y-142803571D01*
X145989285Y-142696428D01*
X145989285Y-142625000D01*
X146025000Y-142517857D01*
X146060714Y-142482142D01*
X146060714Y-142196428D02*
X146025000Y-142160714D01*
X145989285Y-142089285D01*
X145989285Y-141910714D01*
X146025000Y-141839285D01*
X146060714Y-141803571D01*
X146132142Y-141767857D01*
X146203571Y-141767857D01*
X146310714Y-141803571D01*
X146739285Y-142232142D01*
X146739285Y-141767857D01*
X146060714Y-141482142D02*
X146025000Y-141446428D01*
X145989285Y-141375000D01*
X145989285Y-141196428D01*
X146025000Y-141125000D01*
X146060714Y-141089285D01*
X146132142Y-141053571D01*
X146203571Y-141053571D01*
X146310714Y-141089285D01*
X146739285Y-141517857D01*
X146739285Y-141053571D01*
X126017857Y-112017857D02*
X125982142Y-112053571D01*
X125875000Y-112089285D01*
X125803571Y-112089285D01*
X125696428Y-112053571D01*
X125625000Y-111982142D01*
X125589285Y-111910714D01*
X125553571Y-111767857D01*
X125553571Y-111660714D01*
X125589285Y-111517857D01*
X125625000Y-111446428D01*
X125696428Y-111375000D01*
X125803571Y-111339285D01*
X125875000Y-111339285D01*
X125982142Y-111375000D01*
X126017857Y-111410714D01*
X126303571Y-111410714D02*
X126339285Y-111375000D01*
X126410714Y-111339285D01*
X126589285Y-111339285D01*
X126660714Y-111375000D01*
X126696428Y-111410714D01*
X126732142Y-111482142D01*
X126732142Y-111553571D01*
X126696428Y-111660714D01*
X126267857Y-112089285D01*
X126732142Y-112089285D01*
X127446428Y-112089285D02*
X127017857Y-112089285D01*
X127232142Y-112089285D02*
X127232142Y-111339285D01*
X127160714Y-111446428D01*
X127089285Y-111517857D01*
X127017857Y-111553571D01*
X128517857Y-114067857D02*
X128482142Y-114103571D01*
X128375000Y-114139285D01*
X128303571Y-114139285D01*
X128196428Y-114103571D01*
X128125000Y-114032142D01*
X128089285Y-113960714D01*
X128053571Y-113817857D01*
X128053571Y-113710714D01*
X128089285Y-113567857D01*
X128125000Y-113496428D01*
X128196428Y-113425000D01*
X128303571Y-113389285D01*
X128375000Y-113389285D01*
X128482142Y-113425000D01*
X128517857Y-113460714D01*
X128803571Y-113460714D02*
X128839285Y-113425000D01*
X128910714Y-113389285D01*
X129089285Y-113389285D01*
X129160714Y-113425000D01*
X129196428Y-113460714D01*
X129232142Y-113532142D01*
X129232142Y-113603571D01*
X129196428Y-113710714D01*
X128767857Y-114139285D01*
X129232142Y-114139285D01*
X129696428Y-113389285D02*
X129767857Y-113389285D01*
X129839285Y-113425000D01*
X129875000Y-113460714D01*
X129910714Y-113532142D01*
X129946428Y-113675000D01*
X129946428Y-113853571D01*
X129910714Y-113996428D01*
X129875000Y-114067857D01*
X129839285Y-114103571D01*
X129767857Y-114139285D01*
X129696428Y-114139285D01*
X129625000Y-114103571D01*
X129589285Y-114067857D01*
X129553571Y-113996428D01*
X129517857Y-113853571D01*
X129517857Y-113675000D01*
X129553571Y-113532142D01*
X129589285Y-113460714D01*
X129625000Y-113425000D01*
X129696428Y-113389285D01*
X119717857Y-113867857D02*
X119682142Y-113903571D01*
X119575000Y-113939285D01*
X119503571Y-113939285D01*
X119396428Y-113903571D01*
X119325000Y-113832142D01*
X119289285Y-113760714D01*
X119253571Y-113617857D01*
X119253571Y-113510714D01*
X119289285Y-113367857D01*
X119325000Y-113296428D01*
X119396428Y-113225000D01*
X119503571Y-113189285D01*
X119575000Y-113189285D01*
X119682142Y-113225000D01*
X119717857Y-113260714D01*
X120432142Y-113939285D02*
X120003571Y-113939285D01*
X120217857Y-113939285D02*
X120217857Y-113189285D01*
X120146428Y-113296428D01*
X120075000Y-113367857D01*
X120003571Y-113403571D01*
X120789285Y-113939285D02*
X120932142Y-113939285D01*
X121003571Y-113903571D01*
X121039285Y-113867857D01*
X121110714Y-113760714D01*
X121146428Y-113617857D01*
X121146428Y-113332142D01*
X121110714Y-113260714D01*
X121075000Y-113225000D01*
X121003571Y-113189285D01*
X120860714Y-113189285D01*
X120789285Y-113225000D01*
X120753571Y-113260714D01*
X120717857Y-113332142D01*
X120717857Y-113510714D01*
X120753571Y-113582142D01*
X120789285Y-113617857D01*
X120860714Y-113653571D01*
X121003571Y-113653571D01*
X121075000Y-113617857D01*
X121110714Y-113582142D01*
X121146428Y-113510714D01*
X116117857Y-125467857D02*
X116082142Y-125503571D01*
X115975000Y-125539285D01*
X115903571Y-125539285D01*
X115796428Y-125503571D01*
X115725000Y-125432142D01*
X115689285Y-125360714D01*
X115653571Y-125217857D01*
X115653571Y-125110714D01*
X115689285Y-124967857D01*
X115725000Y-124896428D01*
X115796428Y-124825000D01*
X115903571Y-124789285D01*
X115975000Y-124789285D01*
X116082142Y-124825000D01*
X116117857Y-124860714D01*
X116832142Y-125539285D02*
X116403571Y-125539285D01*
X116617857Y-125539285D02*
X116617857Y-124789285D01*
X116546428Y-124896428D01*
X116475000Y-124967857D01*
X116403571Y-125003571D01*
X117260714Y-125110714D02*
X117189285Y-125075000D01*
X117153571Y-125039285D01*
X117117857Y-124967857D01*
X117117857Y-124932142D01*
X117153571Y-124860714D01*
X117189285Y-124825000D01*
X117260714Y-124789285D01*
X117403571Y-124789285D01*
X117475000Y-124825000D01*
X117510714Y-124860714D01*
X117546428Y-124932142D01*
X117546428Y-124967857D01*
X117510714Y-125039285D01*
X117475000Y-125075000D01*
X117403571Y-125110714D01*
X117260714Y-125110714D01*
X117189285Y-125146428D01*
X117153571Y-125182142D01*
X117117857Y-125253571D01*
X117117857Y-125396428D01*
X117153571Y-125467857D01*
X117189285Y-125503571D01*
X117260714Y-125539285D01*
X117403571Y-125539285D01*
X117475000Y-125503571D01*
X117510714Y-125467857D01*
X117546428Y-125396428D01*
X117546428Y-125253571D01*
X117510714Y-125182142D01*
X117475000Y-125146428D01*
X117403571Y-125110714D01*
X117717857Y-107232142D02*
X117753571Y-107267857D01*
X117789285Y-107375000D01*
X117789285Y-107446428D01*
X117753571Y-107553571D01*
X117682142Y-107625000D01*
X117610714Y-107660714D01*
X117467857Y-107696428D01*
X117360714Y-107696428D01*
X117217857Y-107660714D01*
X117146428Y-107625000D01*
X117075000Y-107553571D01*
X117039285Y-107446428D01*
X117039285Y-107375000D01*
X117075000Y-107267857D01*
X117110714Y-107232142D01*
X117789285Y-106517857D02*
X117789285Y-106946428D01*
X117789285Y-106732142D02*
X117039285Y-106732142D01*
X117146428Y-106803571D01*
X117217857Y-106875000D01*
X117253571Y-106946428D01*
X117039285Y-106267857D02*
X117039285Y-105767857D01*
X117789285Y-106089285D01*
X117717857Y-103482142D02*
X117753571Y-103517857D01*
X117789285Y-103625000D01*
X117789285Y-103696428D01*
X117753571Y-103803571D01*
X117682142Y-103875000D01*
X117610714Y-103910714D01*
X117467857Y-103946428D01*
X117360714Y-103946428D01*
X117217857Y-103910714D01*
X117146428Y-103875000D01*
X117075000Y-103803571D01*
X117039285Y-103696428D01*
X117039285Y-103625000D01*
X117075000Y-103517857D01*
X117110714Y-103482142D01*
X117789285Y-102767857D02*
X117789285Y-103196428D01*
X117789285Y-102982142D02*
X117039285Y-102982142D01*
X117146428Y-103053571D01*
X117217857Y-103125000D01*
X117253571Y-103196428D01*
X117039285Y-102125000D02*
X117039285Y-102267857D01*
X117075000Y-102339285D01*
X117110714Y-102375000D01*
X117217857Y-102446428D01*
X117360714Y-102482142D01*
X117646428Y-102482142D01*
X117717857Y-102446428D01*
X117753571Y-102410714D01*
X117789285Y-102339285D01*
X117789285Y-102196428D01*
X117753571Y-102125000D01*
X117717857Y-102089285D01*
X117646428Y-102053571D01*
X117467857Y-102053571D01*
X117396428Y-102089285D01*
X117360714Y-102125000D01*
X117325000Y-102196428D01*
X117325000Y-102339285D01*
X117360714Y-102410714D01*
X117396428Y-102446428D01*
X117467857Y-102482142D01*
X121367857Y-103532142D02*
X121403571Y-103567857D01*
X121439285Y-103675000D01*
X121439285Y-103746428D01*
X121403571Y-103853571D01*
X121332142Y-103925000D01*
X121260714Y-103960714D01*
X121117857Y-103996428D01*
X121010714Y-103996428D01*
X120867857Y-103960714D01*
X120796428Y-103925000D01*
X120725000Y-103853571D01*
X120689285Y-103746428D01*
X120689285Y-103675000D01*
X120725000Y-103567857D01*
X120760714Y-103532142D01*
X121439285Y-102817857D02*
X121439285Y-103246428D01*
X121439285Y-103032142D02*
X120689285Y-103032142D01*
X120796428Y-103103571D01*
X120867857Y-103175000D01*
X120903571Y-103246428D01*
X120689285Y-102139285D02*
X120689285Y-102496428D01*
X121046428Y-102532142D01*
X121010714Y-102496428D01*
X120975000Y-102425000D01*
X120975000Y-102246428D01*
X121010714Y-102175000D01*
X121046428Y-102139285D01*
X121117857Y-102103571D01*
X121296428Y-102103571D01*
X121367857Y-102139285D01*
X121403571Y-102175000D01*
X121439285Y-102246428D01*
X121439285Y-102425000D01*
X121403571Y-102496428D01*
X121367857Y-102532142D01*
X137267857Y-108017857D02*
X137232142Y-108053571D01*
X137125000Y-108089285D01*
X137053571Y-108089285D01*
X136946428Y-108053571D01*
X136875000Y-107982142D01*
X136839285Y-107910714D01*
X136803571Y-107767857D01*
X136803571Y-107660714D01*
X136839285Y-107517857D01*
X136875000Y-107446428D01*
X136946428Y-107375000D01*
X137053571Y-107339285D01*
X137125000Y-107339285D01*
X137232142Y-107375000D01*
X137267857Y-107410714D01*
X137982142Y-108089285D02*
X137553571Y-108089285D01*
X137767857Y-108089285D02*
X137767857Y-107339285D01*
X137696428Y-107446428D01*
X137625000Y-107517857D01*
X137553571Y-107553571D01*
X138625000Y-107589285D02*
X138625000Y-108089285D01*
X138446428Y-107303571D02*
X138267857Y-107839285D01*
X138732142Y-107839285D01*
X139267857Y-103982142D02*
X139303571Y-104017857D01*
X139339285Y-104125000D01*
X139339285Y-104196428D01*
X139303571Y-104303571D01*
X139232142Y-104375000D01*
X139160714Y-104410714D01*
X139017857Y-104446428D01*
X138910714Y-104446428D01*
X138767857Y-104410714D01*
X138696428Y-104375000D01*
X138625000Y-104303571D01*
X138589285Y-104196428D01*
X138589285Y-104125000D01*
X138625000Y-104017857D01*
X138660714Y-103982142D01*
X139339285Y-103267857D02*
X139339285Y-103696428D01*
X139339285Y-103482142D02*
X138589285Y-103482142D01*
X138696428Y-103553571D01*
X138767857Y-103625000D01*
X138803571Y-103696428D01*
X138589285Y-103017857D02*
X138589285Y-102553571D01*
X138875000Y-102803571D01*
X138875000Y-102696428D01*
X138910714Y-102625000D01*
X138946428Y-102589285D01*
X139017857Y-102553571D01*
X139196428Y-102553571D01*
X139267857Y-102589285D01*
X139303571Y-102625000D01*
X139339285Y-102696428D01*
X139339285Y-102910714D01*
X139303571Y-102982142D01*
X139267857Y-103017857D01*
X131127857Y-117682142D02*
X131163571Y-117717857D01*
X131199285Y-117825000D01*
X131199285Y-117896428D01*
X131163571Y-118003571D01*
X131092142Y-118075000D01*
X131020714Y-118110714D01*
X130877857Y-118146428D01*
X130770714Y-118146428D01*
X130627857Y-118110714D01*
X130556428Y-118075000D01*
X130485000Y-118003571D01*
X130449285Y-117896428D01*
X130449285Y-117825000D01*
X130485000Y-117717857D01*
X130520714Y-117682142D01*
X131199285Y-116967857D02*
X131199285Y-117396428D01*
X131199285Y-117182142D02*
X130449285Y-117182142D01*
X130556428Y-117253571D01*
X130627857Y-117325000D01*
X130663571Y-117396428D01*
X130520714Y-116682142D02*
X130485000Y-116646428D01*
X130449285Y-116575000D01*
X130449285Y-116396428D01*
X130485000Y-116325000D01*
X130520714Y-116289285D01*
X130592142Y-116253571D01*
X130663571Y-116253571D01*
X130770714Y-116289285D01*
X131199285Y-116717857D01*
X131199285Y-116253571D01*
X131267857Y-134267857D02*
X131232142Y-134303571D01*
X131125000Y-134339285D01*
X131053571Y-134339285D01*
X130946428Y-134303571D01*
X130875000Y-134232142D01*
X130839285Y-134160714D01*
X130803571Y-134017857D01*
X130803571Y-133910714D01*
X130839285Y-133767857D01*
X130875000Y-133696428D01*
X130946428Y-133625000D01*
X131053571Y-133589285D01*
X131125000Y-133589285D01*
X131232142Y-133625000D01*
X131267857Y-133660714D01*
X131982142Y-134339285D02*
X131553571Y-134339285D01*
X131767857Y-134339285D02*
X131767857Y-133589285D01*
X131696428Y-133696428D01*
X131625000Y-133767857D01*
X131553571Y-133803571D01*
X132696428Y-134339285D02*
X132267857Y-134339285D01*
X132482142Y-134339285D02*
X132482142Y-133589285D01*
X132410714Y-133696428D01*
X132339285Y-133767857D01*
X132267857Y-133803571D01*
X120467857Y-134267857D02*
X120432142Y-134303571D01*
X120325000Y-134339285D01*
X120253571Y-134339285D01*
X120146428Y-134303571D01*
X120075000Y-134232142D01*
X120039285Y-134160714D01*
X120003571Y-134017857D01*
X120003571Y-133910714D01*
X120039285Y-133767857D01*
X120075000Y-133696428D01*
X120146428Y-133625000D01*
X120253571Y-133589285D01*
X120325000Y-133589285D01*
X120432142Y-133625000D01*
X120467857Y-133660714D01*
X121182142Y-134339285D02*
X120753571Y-134339285D01*
X120967857Y-134339285D02*
X120967857Y-133589285D01*
X120896428Y-133696428D01*
X120825000Y-133767857D01*
X120753571Y-133803571D01*
X121646428Y-133589285D02*
X121717857Y-133589285D01*
X121789285Y-133625000D01*
X121825000Y-133660714D01*
X121860714Y-133732142D01*
X121896428Y-133875000D01*
X121896428Y-134053571D01*
X121860714Y-134196428D01*
X121825000Y-134267857D01*
X121789285Y-134303571D01*
X121717857Y-134339285D01*
X121646428Y-134339285D01*
X121575000Y-134303571D01*
X121539285Y-134267857D01*
X121503571Y-134196428D01*
X121467857Y-134053571D01*
X121467857Y-133875000D01*
X121503571Y-133732142D01*
X121539285Y-133660714D01*
X121575000Y-133625000D01*
X121646428Y-133589285D01*
X143375000Y-107767857D02*
X143339285Y-107803571D01*
X143232142Y-107839285D01*
X143160714Y-107839285D01*
X143053571Y-107803571D01*
X142982142Y-107732142D01*
X142946428Y-107660714D01*
X142910714Y-107517857D01*
X142910714Y-107410714D01*
X142946428Y-107267857D01*
X142982142Y-107196428D01*
X143053571Y-107125000D01*
X143160714Y-107089285D01*
X143232142Y-107089285D01*
X143339285Y-107125000D01*
X143375000Y-107160714D01*
X144053571Y-107089285D02*
X143696428Y-107089285D01*
X143660714Y-107446428D01*
X143696428Y-107410714D01*
X143767857Y-107375000D01*
X143946428Y-107375000D01*
X144017857Y-107410714D01*
X144053571Y-107446428D01*
X144089285Y-107517857D01*
X144089285Y-107696428D01*
X144053571Y-107767857D01*
X144017857Y-107803571D01*
X143946428Y-107839285D01*
X143767857Y-107839285D01*
X143696428Y-107803571D01*
X143660714Y-107767857D01*
X143375000Y-112017857D02*
X143339285Y-112053571D01*
X143232142Y-112089285D01*
X143160714Y-112089285D01*
X143053571Y-112053571D01*
X142982142Y-111982142D01*
X142946428Y-111910714D01*
X142910714Y-111767857D01*
X142910714Y-111660714D01*
X142946428Y-111517857D01*
X142982142Y-111446428D01*
X143053571Y-111375000D01*
X143160714Y-111339285D01*
X143232142Y-111339285D01*
X143339285Y-111375000D01*
X143375000Y-111410714D01*
X144017857Y-111589285D02*
X144017857Y-112089285D01*
X143839285Y-111303571D02*
X143660714Y-111839285D01*
X144125000Y-111839285D01*
X135517857Y-134167857D02*
X135482142Y-134203571D01*
X135375000Y-134239285D01*
X135303571Y-134239285D01*
X135196428Y-134203571D01*
X135125000Y-134132142D01*
X135089285Y-134060714D01*
X135053571Y-133917857D01*
X135053571Y-133810714D01*
X135089285Y-133667857D01*
X135125000Y-133596428D01*
X135196428Y-133525000D01*
X135303571Y-133489285D01*
X135375000Y-133489285D01*
X135482142Y-133525000D01*
X135517857Y-133560714D01*
X135803571Y-133560714D02*
X135839285Y-133525000D01*
X135910714Y-133489285D01*
X136089285Y-133489285D01*
X136160714Y-133525000D01*
X136196428Y-133560714D01*
X136232142Y-133632142D01*
X136232142Y-133703571D01*
X136196428Y-133810714D01*
X135767857Y-134239285D01*
X136232142Y-134239285D01*
X136482142Y-133489285D02*
X136946428Y-133489285D01*
X136696428Y-133775000D01*
X136803571Y-133775000D01*
X136875000Y-133810714D01*
X136910714Y-133846428D01*
X136946428Y-133917857D01*
X136946428Y-134096428D01*
X136910714Y-134167857D01*
X136875000Y-134203571D01*
X136803571Y-134239285D01*
X136589285Y-134239285D01*
X136517857Y-134203571D01*
X136482142Y-134167857D01*
M02*
