G04 #@! TF.GenerationSoftware,KiCad,Pcbnew,5.1.6-c6e7f7d~86~ubuntu18.04.1*
G04 #@! TF.CreationDate,2020-05-23T17:00:55+02:00*
G04 #@! TF.ProjectId,Telemetry,54656c65-6d65-4747-9279-2e6b69636164,rev?*
G04 #@! TF.SameCoordinates,Original*
G04 #@! TF.FileFunction,Soldermask,Top*
G04 #@! TF.FilePolarity,Negative*
%FSLAX46Y46*%
G04 Gerber Fmt 4.6, Leading zero omitted, Abs format (unit mm)*
G04 Created by KiCad (PCBNEW 5.1.6-c6e7f7d~86~ubuntu18.04.1) date 2020-05-23 17:00:55*
%MOMM*%
%LPD*%
G01*
G04 APERTURE LIST*
%ADD10C,0.100000*%
G04 APERTURE END LIST*
D10*
G36*
X145001000Y-153401000D02*
G01*
X143599000Y-153401000D01*
X143599000Y-151399000D01*
X145001000Y-151399000D01*
X145001000Y-153401000D01*
G37*
G36*
X131351000Y-153401000D02*
G01*
X130249000Y-153401000D01*
X130249000Y-150499000D01*
X131351000Y-150499000D01*
X131351000Y-153401000D01*
G37*
G36*
X107575256Y-149391298D02*
G01*
X107681579Y-149412447D01*
X107982042Y-149536903D01*
X108252451Y-149717585D01*
X108482415Y-149947549D01*
X108663097Y-150217958D01*
X108787553Y-150518421D01*
X108851000Y-150837391D01*
X108851000Y-151162609D01*
X108787553Y-151481579D01*
X108663097Y-151782042D01*
X108482415Y-152052451D01*
X108252451Y-152282415D01*
X107982042Y-152463097D01*
X107681579Y-152587553D01*
X107575256Y-152608702D01*
X107362611Y-152651000D01*
X107037389Y-152651000D01*
X106824744Y-152608702D01*
X106718421Y-152587553D01*
X106417958Y-152463097D01*
X106147549Y-152282415D01*
X105917585Y-152052451D01*
X105736903Y-151782042D01*
X105612447Y-151481579D01*
X105549000Y-151162609D01*
X105549000Y-150837391D01*
X105612447Y-150518421D01*
X105736903Y-150217958D01*
X105917585Y-149947549D01*
X106147549Y-149717585D01*
X106417958Y-149536903D01*
X106718421Y-149412447D01*
X106824744Y-149391298D01*
X107037389Y-149349000D01*
X107362611Y-149349000D01*
X107575256Y-149391298D01*
G37*
G36*
X156375256Y-149391298D02*
G01*
X156481579Y-149412447D01*
X156782042Y-149536903D01*
X157052451Y-149717585D01*
X157282415Y-149947549D01*
X157463097Y-150217958D01*
X157587553Y-150518421D01*
X157651000Y-150837391D01*
X157651000Y-151162609D01*
X157587553Y-151481579D01*
X157463097Y-151782042D01*
X157282415Y-152052451D01*
X157052451Y-152282415D01*
X156782042Y-152463097D01*
X156481579Y-152587553D01*
X156375256Y-152608702D01*
X156162611Y-152651000D01*
X155837389Y-152651000D01*
X155624744Y-152608702D01*
X155518421Y-152587553D01*
X155217958Y-152463097D01*
X154947549Y-152282415D01*
X154717585Y-152052451D01*
X154536903Y-151782042D01*
X154412447Y-151481579D01*
X154349000Y-151162609D01*
X154349000Y-150837391D01*
X154412447Y-150518421D01*
X154536903Y-150217958D01*
X154717585Y-149947549D01*
X154947549Y-149717585D01*
X155217958Y-149536903D01*
X155518421Y-149412447D01*
X155624744Y-149391298D01*
X155837389Y-149349000D01*
X156162611Y-149349000D01*
X156375256Y-149391298D01*
G37*
G36*
X131351000Y-148251000D02*
G01*
X130249000Y-148251000D01*
X130249000Y-147349000D01*
X131351000Y-147349000D01*
X131351000Y-148251000D01*
G37*
G36*
X148579591Y-146303085D02*
G01*
X148613569Y-146313393D01*
X148644890Y-146330134D01*
X148672339Y-146352661D01*
X148694866Y-146380110D01*
X148711607Y-146411431D01*
X148721915Y-146445409D01*
X148726000Y-146486890D01*
X148726000Y-147088110D01*
X148721915Y-147129591D01*
X148711607Y-147163569D01*
X148694866Y-147194890D01*
X148672339Y-147222339D01*
X148644890Y-147244866D01*
X148613569Y-147261607D01*
X148579591Y-147271915D01*
X148538110Y-147276000D01*
X147861890Y-147276000D01*
X147820409Y-147271915D01*
X147786431Y-147261607D01*
X147755110Y-147244866D01*
X147727661Y-147222339D01*
X147705134Y-147194890D01*
X147688393Y-147163569D01*
X147678085Y-147129591D01*
X147674000Y-147088110D01*
X147674000Y-146486890D01*
X147678085Y-146445409D01*
X147688393Y-146411431D01*
X147705134Y-146380110D01*
X147727661Y-146352661D01*
X147755110Y-146330134D01*
X147786431Y-146313393D01*
X147820409Y-146303085D01*
X147861890Y-146299000D01*
X148538110Y-146299000D01*
X148579591Y-146303085D01*
G37*
G36*
X150934468Y-145253565D02*
G01*
X150973138Y-145265296D01*
X151008777Y-145284346D01*
X151040017Y-145309983D01*
X151065654Y-145341223D01*
X151084704Y-145376862D01*
X151096435Y-145415532D01*
X151101000Y-145461888D01*
X151101000Y-146538112D01*
X151096435Y-146584468D01*
X151084704Y-146623138D01*
X151065654Y-146658777D01*
X151040017Y-146690017D01*
X151008777Y-146715654D01*
X150973138Y-146734704D01*
X150934468Y-146746435D01*
X150888112Y-146751000D01*
X150236888Y-146751000D01*
X150190532Y-146746435D01*
X150151862Y-146734704D01*
X150116223Y-146715654D01*
X150084983Y-146690017D01*
X150059346Y-146658777D01*
X150040296Y-146623138D01*
X150028565Y-146584468D01*
X150024000Y-146538112D01*
X150024000Y-145461888D01*
X150028565Y-145415532D01*
X150040296Y-145376862D01*
X150059346Y-145341223D01*
X150084983Y-145309983D01*
X150116223Y-145284346D01*
X150151862Y-145265296D01*
X150190532Y-145253565D01*
X150236888Y-145249000D01*
X150888112Y-145249000D01*
X150934468Y-145253565D01*
G37*
G36*
X152809468Y-145253565D02*
G01*
X152848138Y-145265296D01*
X152883777Y-145284346D01*
X152915017Y-145309983D01*
X152940654Y-145341223D01*
X152959704Y-145376862D01*
X152971435Y-145415532D01*
X152976000Y-145461888D01*
X152976000Y-146538112D01*
X152971435Y-146584468D01*
X152959704Y-146623138D01*
X152940654Y-146658777D01*
X152915017Y-146690017D01*
X152883777Y-146715654D01*
X152848138Y-146734704D01*
X152809468Y-146746435D01*
X152763112Y-146751000D01*
X152111888Y-146751000D01*
X152065532Y-146746435D01*
X152026862Y-146734704D01*
X151991223Y-146715654D01*
X151959983Y-146690017D01*
X151934346Y-146658777D01*
X151915296Y-146623138D01*
X151903565Y-146584468D01*
X151899000Y-146538112D01*
X151899000Y-145461888D01*
X151903565Y-145415532D01*
X151915296Y-145376862D01*
X151934346Y-145341223D01*
X151959983Y-145309983D01*
X151991223Y-145284346D01*
X152026862Y-145265296D01*
X152065532Y-145253565D01*
X152111888Y-145249000D01*
X152763112Y-145249000D01*
X152809468Y-145253565D01*
G37*
G36*
X148579591Y-144728085D02*
G01*
X148613569Y-144738393D01*
X148644890Y-144755134D01*
X148672339Y-144777661D01*
X148694866Y-144805110D01*
X148711607Y-144836431D01*
X148721915Y-144870409D01*
X148726000Y-144911890D01*
X148726000Y-145513110D01*
X148721915Y-145554591D01*
X148711607Y-145588569D01*
X148694866Y-145619890D01*
X148672339Y-145647339D01*
X148644890Y-145669866D01*
X148613569Y-145686607D01*
X148579591Y-145696915D01*
X148538110Y-145701000D01*
X147861890Y-145701000D01*
X147820409Y-145696915D01*
X147786431Y-145686607D01*
X147755110Y-145669866D01*
X147727661Y-145647339D01*
X147705134Y-145619890D01*
X147688393Y-145588569D01*
X147678085Y-145554591D01*
X147674000Y-145513110D01*
X147674000Y-144911890D01*
X147678085Y-144870409D01*
X147688393Y-144836431D01*
X147705134Y-144805110D01*
X147727661Y-144777661D01*
X147755110Y-144755134D01*
X147786431Y-144738393D01*
X147820409Y-144728085D01*
X147861890Y-144724000D01*
X148538110Y-144724000D01*
X148579591Y-144728085D01*
G37*
G36*
X125084468Y-143303565D02*
G01*
X125123138Y-143315296D01*
X125158777Y-143334346D01*
X125190017Y-143359983D01*
X125215654Y-143391223D01*
X125234704Y-143426862D01*
X125246435Y-143465532D01*
X125251000Y-143511888D01*
X125251000Y-144163112D01*
X125246435Y-144209468D01*
X125234704Y-144248138D01*
X125215654Y-144283777D01*
X125190017Y-144315017D01*
X125158777Y-144340654D01*
X125123138Y-144359704D01*
X125084468Y-144371435D01*
X125038112Y-144376000D01*
X123961888Y-144376000D01*
X123915532Y-144371435D01*
X123876862Y-144359704D01*
X123841223Y-144340654D01*
X123809983Y-144315017D01*
X123784346Y-144283777D01*
X123765296Y-144248138D01*
X123753565Y-144209468D01*
X123749000Y-144163112D01*
X123749000Y-143511888D01*
X123753565Y-143465532D01*
X123765296Y-143426862D01*
X123784346Y-143391223D01*
X123809983Y-143359983D01*
X123841223Y-143334346D01*
X123876862Y-143315296D01*
X123915532Y-143303565D01*
X123961888Y-143299000D01*
X125038112Y-143299000D01*
X125084468Y-143303565D01*
G37*
G36*
X121584468Y-143303565D02*
G01*
X121623138Y-143315296D01*
X121658777Y-143334346D01*
X121690017Y-143359983D01*
X121715654Y-143391223D01*
X121734704Y-143426862D01*
X121746435Y-143465532D01*
X121751000Y-143511888D01*
X121751000Y-144163112D01*
X121746435Y-144209468D01*
X121734704Y-144248138D01*
X121715654Y-144283777D01*
X121690017Y-144315017D01*
X121658777Y-144340654D01*
X121623138Y-144359704D01*
X121584468Y-144371435D01*
X121538112Y-144376000D01*
X120461888Y-144376000D01*
X120415532Y-144371435D01*
X120376862Y-144359704D01*
X120341223Y-144340654D01*
X120309983Y-144315017D01*
X120284346Y-144283777D01*
X120265296Y-144248138D01*
X120253565Y-144209468D01*
X120249000Y-144163112D01*
X120249000Y-143511888D01*
X120253565Y-143465532D01*
X120265296Y-143426862D01*
X120284346Y-143391223D01*
X120309983Y-143359983D01*
X120341223Y-143334346D01*
X120376862Y-143315296D01*
X120415532Y-143303565D01*
X120461888Y-143299000D01*
X121538112Y-143299000D01*
X121584468Y-143303565D01*
G37*
G36*
X128484468Y-143265565D02*
G01*
X128523138Y-143277296D01*
X128558777Y-143296346D01*
X128590017Y-143321983D01*
X128615654Y-143353223D01*
X128634704Y-143388862D01*
X128646435Y-143427532D01*
X128651000Y-143473888D01*
X128651000Y-144125112D01*
X128646435Y-144171468D01*
X128634704Y-144210138D01*
X128615654Y-144245777D01*
X128590017Y-144277017D01*
X128558777Y-144302654D01*
X128523138Y-144321704D01*
X128484468Y-144333435D01*
X128438112Y-144338000D01*
X127361888Y-144338000D01*
X127315532Y-144333435D01*
X127276862Y-144321704D01*
X127241223Y-144302654D01*
X127209983Y-144277017D01*
X127184346Y-144245777D01*
X127165296Y-144210138D01*
X127153565Y-144171468D01*
X127149000Y-144125112D01*
X127149000Y-143473888D01*
X127153565Y-143427532D01*
X127165296Y-143388862D01*
X127184346Y-143353223D01*
X127209983Y-143321983D01*
X127241223Y-143296346D01*
X127276862Y-143277296D01*
X127315532Y-143265565D01*
X127361888Y-143261000D01*
X128438112Y-143261000D01*
X128484468Y-143265565D01*
G37*
G36*
X149098228Y-142181703D02*
G01*
X149253100Y-142245853D01*
X149392481Y-142338985D01*
X149511015Y-142457519D01*
X149604147Y-142596900D01*
X149668297Y-142751772D01*
X149701000Y-142916184D01*
X149701000Y-143083816D01*
X149668297Y-143248228D01*
X149604147Y-143403100D01*
X149511015Y-143542481D01*
X149392481Y-143661015D01*
X149253100Y-143754147D01*
X149098228Y-143818297D01*
X148933816Y-143851000D01*
X148766184Y-143851000D01*
X148601772Y-143818297D01*
X148446900Y-143754147D01*
X148307519Y-143661015D01*
X148188985Y-143542481D01*
X148095853Y-143403100D01*
X148031703Y-143248228D01*
X147999000Y-143083816D01*
X147999000Y-142916184D01*
X148031703Y-142751772D01*
X148095853Y-142596900D01*
X148188985Y-142457519D01*
X148307519Y-142338985D01*
X148446900Y-142245853D01*
X148601772Y-142181703D01*
X148766184Y-142149000D01*
X148933816Y-142149000D01*
X149098228Y-142181703D01*
G37*
G36*
X118351000Y-143051000D02*
G01*
X116549000Y-143051000D01*
X116549000Y-141949000D01*
X118351000Y-141949000D01*
X118351000Y-143051000D01*
G37*
G36*
X112051000Y-143051000D02*
G01*
X110249000Y-143051000D01*
X110249000Y-141949000D01*
X112051000Y-141949000D01*
X112051000Y-143051000D01*
G37*
G36*
X121584468Y-141428565D02*
G01*
X121623138Y-141440296D01*
X121658777Y-141459346D01*
X121690017Y-141484983D01*
X121715654Y-141516223D01*
X121734704Y-141551862D01*
X121746435Y-141590532D01*
X121751000Y-141636888D01*
X121751000Y-142288112D01*
X121746435Y-142334468D01*
X121734704Y-142373138D01*
X121715654Y-142408777D01*
X121690017Y-142440017D01*
X121658777Y-142465654D01*
X121623138Y-142484704D01*
X121584468Y-142496435D01*
X121538112Y-142501000D01*
X120461888Y-142501000D01*
X120415532Y-142496435D01*
X120376862Y-142484704D01*
X120341223Y-142465654D01*
X120309983Y-142440017D01*
X120284346Y-142408777D01*
X120265296Y-142373138D01*
X120253565Y-142334468D01*
X120249000Y-142288112D01*
X120249000Y-141636888D01*
X120253565Y-141590532D01*
X120265296Y-141551862D01*
X120284346Y-141516223D01*
X120309983Y-141484983D01*
X120341223Y-141459346D01*
X120376862Y-141440296D01*
X120415532Y-141428565D01*
X120461888Y-141424000D01*
X121538112Y-141424000D01*
X121584468Y-141428565D01*
G37*
G36*
X125084468Y-141428565D02*
G01*
X125123138Y-141440296D01*
X125158777Y-141459346D01*
X125190017Y-141484983D01*
X125215654Y-141516223D01*
X125234704Y-141551862D01*
X125246435Y-141590532D01*
X125251000Y-141636888D01*
X125251000Y-142288112D01*
X125246435Y-142334468D01*
X125234704Y-142373138D01*
X125215654Y-142408777D01*
X125190017Y-142440017D01*
X125158777Y-142465654D01*
X125123138Y-142484704D01*
X125084468Y-142496435D01*
X125038112Y-142501000D01*
X123961888Y-142501000D01*
X123915532Y-142496435D01*
X123876862Y-142484704D01*
X123841223Y-142465654D01*
X123809983Y-142440017D01*
X123784346Y-142408777D01*
X123765296Y-142373138D01*
X123753565Y-142334468D01*
X123749000Y-142288112D01*
X123749000Y-141636888D01*
X123753565Y-141590532D01*
X123765296Y-141551862D01*
X123784346Y-141516223D01*
X123809983Y-141484983D01*
X123841223Y-141459346D01*
X123876862Y-141440296D01*
X123915532Y-141428565D01*
X123961888Y-141424000D01*
X125038112Y-141424000D01*
X125084468Y-141428565D01*
G37*
G36*
X128484468Y-141390565D02*
G01*
X128523138Y-141402296D01*
X128558777Y-141421346D01*
X128590017Y-141446983D01*
X128615654Y-141478223D01*
X128634704Y-141513862D01*
X128646435Y-141552532D01*
X128651000Y-141598888D01*
X128651000Y-142250112D01*
X128646435Y-142296468D01*
X128634704Y-142335138D01*
X128615654Y-142370777D01*
X128590017Y-142402017D01*
X128558777Y-142427654D01*
X128523138Y-142446704D01*
X128484468Y-142458435D01*
X128438112Y-142463000D01*
X127361888Y-142463000D01*
X127315532Y-142458435D01*
X127276862Y-142446704D01*
X127241223Y-142427654D01*
X127209983Y-142402017D01*
X127184346Y-142370777D01*
X127165296Y-142335138D01*
X127153565Y-142296468D01*
X127149000Y-142250112D01*
X127149000Y-141598888D01*
X127153565Y-141552532D01*
X127165296Y-141513862D01*
X127184346Y-141478223D01*
X127209983Y-141446983D01*
X127241223Y-141421346D01*
X127276862Y-141402296D01*
X127315532Y-141390565D01*
X127361888Y-141386000D01*
X128438112Y-141386000D01*
X128484468Y-141390565D01*
G37*
G36*
X131351000Y-142251000D02*
G01*
X130249000Y-142251000D01*
X130249000Y-140949000D01*
X131351000Y-140949000D01*
X131351000Y-142251000D01*
G37*
G36*
X149098228Y-140181703D02*
G01*
X149253100Y-140245853D01*
X149392481Y-140338985D01*
X149511015Y-140457519D01*
X149604147Y-140596900D01*
X149668297Y-140751772D01*
X149701000Y-140916184D01*
X149701000Y-141083816D01*
X149668297Y-141248228D01*
X149604147Y-141403100D01*
X149511015Y-141542481D01*
X149392481Y-141661015D01*
X149253100Y-141754147D01*
X149098228Y-141818297D01*
X148933816Y-141851000D01*
X148766184Y-141851000D01*
X148601772Y-141818297D01*
X148446900Y-141754147D01*
X148307519Y-141661015D01*
X148188985Y-141542481D01*
X148095853Y-141403100D01*
X148031703Y-141248228D01*
X147999000Y-141083816D01*
X147999000Y-140916184D01*
X148031703Y-140751772D01*
X148095853Y-140596900D01*
X148188985Y-140457519D01*
X148307519Y-140338985D01*
X148446900Y-140245853D01*
X148601772Y-140181703D01*
X148766184Y-140149000D01*
X148933816Y-140149000D01*
X149098228Y-140181703D01*
G37*
G36*
X124879591Y-139603085D02*
G01*
X124913569Y-139613393D01*
X124944890Y-139630134D01*
X124972339Y-139652661D01*
X124994866Y-139680110D01*
X125011607Y-139711431D01*
X125021915Y-139745409D01*
X125026000Y-139786890D01*
X125026000Y-140388110D01*
X125021915Y-140429591D01*
X125011607Y-140463569D01*
X124994866Y-140494890D01*
X124972339Y-140522339D01*
X124944890Y-140544866D01*
X124913569Y-140561607D01*
X124879591Y-140571915D01*
X124838110Y-140576000D01*
X124161890Y-140576000D01*
X124120409Y-140571915D01*
X124086431Y-140561607D01*
X124055110Y-140544866D01*
X124027661Y-140522339D01*
X124005134Y-140494890D01*
X123988393Y-140463569D01*
X123978085Y-140429591D01*
X123974000Y-140388110D01*
X123974000Y-139786890D01*
X123978085Y-139745409D01*
X123988393Y-139711431D01*
X124005134Y-139680110D01*
X124027661Y-139652661D01*
X124055110Y-139630134D01*
X124086431Y-139613393D01*
X124120409Y-139603085D01*
X124161890Y-139599000D01*
X124838110Y-139599000D01*
X124879591Y-139603085D01*
G37*
G36*
X121379591Y-139603085D02*
G01*
X121413569Y-139613393D01*
X121444890Y-139630134D01*
X121472339Y-139652661D01*
X121494866Y-139680110D01*
X121511607Y-139711431D01*
X121521915Y-139745409D01*
X121526000Y-139786890D01*
X121526000Y-140388110D01*
X121521915Y-140429591D01*
X121511607Y-140463569D01*
X121494866Y-140494890D01*
X121472339Y-140522339D01*
X121444890Y-140544866D01*
X121413569Y-140561607D01*
X121379591Y-140571915D01*
X121338110Y-140576000D01*
X120661890Y-140576000D01*
X120620409Y-140571915D01*
X120586431Y-140561607D01*
X120555110Y-140544866D01*
X120527661Y-140522339D01*
X120505134Y-140494890D01*
X120488393Y-140463569D01*
X120478085Y-140429591D01*
X120474000Y-140388110D01*
X120474000Y-139786890D01*
X120478085Y-139745409D01*
X120488393Y-139711431D01*
X120505134Y-139680110D01*
X120527661Y-139652661D01*
X120555110Y-139630134D01*
X120586431Y-139613393D01*
X120620409Y-139603085D01*
X120661890Y-139599000D01*
X121338110Y-139599000D01*
X121379591Y-139603085D01*
G37*
G36*
X128279591Y-139503085D02*
G01*
X128313569Y-139513393D01*
X128344890Y-139530134D01*
X128372339Y-139552661D01*
X128394866Y-139580110D01*
X128411607Y-139611431D01*
X128421915Y-139645409D01*
X128426000Y-139686890D01*
X128426000Y-140288110D01*
X128421915Y-140329591D01*
X128411607Y-140363569D01*
X128394866Y-140394890D01*
X128372339Y-140422339D01*
X128344890Y-140444866D01*
X128313569Y-140461607D01*
X128279591Y-140471915D01*
X128238110Y-140476000D01*
X127561890Y-140476000D01*
X127520409Y-140471915D01*
X127486431Y-140461607D01*
X127455110Y-140444866D01*
X127427661Y-140422339D01*
X127405134Y-140394890D01*
X127388393Y-140363569D01*
X127378085Y-140329591D01*
X127374000Y-140288110D01*
X127374000Y-139686890D01*
X127378085Y-139645409D01*
X127388393Y-139611431D01*
X127405134Y-139580110D01*
X127427661Y-139552661D01*
X127455110Y-139530134D01*
X127486431Y-139513393D01*
X127520409Y-139503085D01*
X127561890Y-139499000D01*
X128238110Y-139499000D01*
X128279591Y-139503085D01*
G37*
G36*
X112051000Y-139251000D02*
G01*
X110249000Y-139251000D01*
X110249000Y-138149000D01*
X112051000Y-138149000D01*
X112051000Y-139251000D01*
G37*
G36*
X118351000Y-139251000D02*
G01*
X116549000Y-139251000D01*
X116549000Y-138149000D01*
X118351000Y-138149000D01*
X118351000Y-139251000D01*
G37*
G36*
X124879591Y-138028085D02*
G01*
X124913569Y-138038393D01*
X124944890Y-138055134D01*
X124972339Y-138077661D01*
X124994866Y-138105110D01*
X125011607Y-138136431D01*
X125021915Y-138170409D01*
X125026000Y-138211890D01*
X125026000Y-138813110D01*
X125021915Y-138854591D01*
X125011607Y-138888569D01*
X124994866Y-138919890D01*
X124972339Y-138947339D01*
X124944890Y-138969866D01*
X124913569Y-138986607D01*
X124879591Y-138996915D01*
X124838110Y-139001000D01*
X124161890Y-139001000D01*
X124120409Y-138996915D01*
X124086431Y-138986607D01*
X124055110Y-138969866D01*
X124027661Y-138947339D01*
X124005134Y-138919890D01*
X123988393Y-138888569D01*
X123978085Y-138854591D01*
X123974000Y-138813110D01*
X123974000Y-138211890D01*
X123978085Y-138170409D01*
X123988393Y-138136431D01*
X124005134Y-138105110D01*
X124027661Y-138077661D01*
X124055110Y-138055134D01*
X124086431Y-138038393D01*
X124120409Y-138028085D01*
X124161890Y-138024000D01*
X124838110Y-138024000D01*
X124879591Y-138028085D01*
G37*
G36*
X121379591Y-138028085D02*
G01*
X121413569Y-138038393D01*
X121444890Y-138055134D01*
X121472339Y-138077661D01*
X121494866Y-138105110D01*
X121511607Y-138136431D01*
X121521915Y-138170409D01*
X121526000Y-138211890D01*
X121526000Y-138813110D01*
X121521915Y-138854591D01*
X121511607Y-138888569D01*
X121494866Y-138919890D01*
X121472339Y-138947339D01*
X121444890Y-138969866D01*
X121413569Y-138986607D01*
X121379591Y-138996915D01*
X121338110Y-139001000D01*
X120661890Y-139001000D01*
X120620409Y-138996915D01*
X120586431Y-138986607D01*
X120555110Y-138969866D01*
X120527661Y-138947339D01*
X120505134Y-138919890D01*
X120488393Y-138888569D01*
X120478085Y-138854591D01*
X120474000Y-138813110D01*
X120474000Y-138211890D01*
X120478085Y-138170409D01*
X120488393Y-138136431D01*
X120505134Y-138105110D01*
X120527661Y-138077661D01*
X120555110Y-138055134D01*
X120586431Y-138038393D01*
X120620409Y-138028085D01*
X120661890Y-138024000D01*
X121338110Y-138024000D01*
X121379591Y-138028085D01*
G37*
G36*
X128279591Y-137928085D02*
G01*
X128313569Y-137938393D01*
X128344890Y-137955134D01*
X128372339Y-137977661D01*
X128394866Y-138005110D01*
X128411607Y-138036431D01*
X128421915Y-138070409D01*
X128426000Y-138111890D01*
X128426000Y-138713110D01*
X128421915Y-138754591D01*
X128411607Y-138788569D01*
X128394866Y-138819890D01*
X128372339Y-138847339D01*
X128344890Y-138869866D01*
X128313569Y-138886607D01*
X128279591Y-138896915D01*
X128238110Y-138901000D01*
X127561890Y-138901000D01*
X127520409Y-138896915D01*
X127486431Y-138886607D01*
X127455110Y-138869866D01*
X127427661Y-138847339D01*
X127405134Y-138819890D01*
X127388393Y-138788569D01*
X127378085Y-138754591D01*
X127374000Y-138713110D01*
X127374000Y-138111890D01*
X127378085Y-138070409D01*
X127388393Y-138036431D01*
X127405134Y-138005110D01*
X127427661Y-137977661D01*
X127455110Y-137955134D01*
X127486431Y-137938393D01*
X127520409Y-137928085D01*
X127561890Y-137924000D01*
X128238110Y-137924000D01*
X128279591Y-137928085D01*
G37*
G36*
X142501000Y-137951000D02*
G01*
X141399000Y-137951000D01*
X141399000Y-136649000D01*
X142501000Y-136649000D01*
X142501000Y-137951000D01*
G37*
G36*
X140801000Y-137951000D02*
G01*
X139999000Y-137951000D01*
X139999000Y-136649000D01*
X140801000Y-136649000D01*
X140801000Y-137951000D01*
G37*
G36*
X139701000Y-137951000D02*
G01*
X138899000Y-137951000D01*
X138899000Y-136649000D01*
X139701000Y-136649000D01*
X139701000Y-137951000D01*
G37*
G36*
X138601000Y-137951000D02*
G01*
X137799000Y-137951000D01*
X137799000Y-136649000D01*
X138601000Y-136649000D01*
X138601000Y-137951000D01*
G37*
G36*
X137501000Y-137951000D02*
G01*
X136699000Y-137951000D01*
X136699000Y-136649000D01*
X137501000Y-136649000D01*
X137501000Y-137951000D01*
G37*
G36*
X135301000Y-137951000D02*
G01*
X134499000Y-137951000D01*
X134499000Y-136649000D01*
X135301000Y-136649000D01*
X135301000Y-137951000D01*
G37*
G36*
X134201000Y-137951000D02*
G01*
X133399000Y-137951000D01*
X133399000Y-136649000D01*
X134201000Y-136649000D01*
X134201000Y-137951000D01*
G37*
G36*
X133101000Y-137951000D02*
G01*
X131349000Y-137951000D01*
X131349000Y-136649000D01*
X133101000Y-136649000D01*
X133101000Y-137951000D01*
G37*
G36*
X136401000Y-137951000D02*
G01*
X135599000Y-137951000D01*
X135599000Y-136649000D01*
X136401000Y-136649000D01*
X136401000Y-137951000D01*
G37*
G36*
X155301000Y-137551000D02*
G01*
X152699000Y-137551000D01*
X152699000Y-134149000D01*
X155301000Y-134149000D01*
X155301000Y-137551000D01*
G37*
G36*
X148501000Y-137551000D02*
G01*
X145899000Y-137551000D01*
X145899000Y-134149000D01*
X148501000Y-134149000D01*
X148501000Y-137551000D01*
G37*
G36*
X135554591Y-134778085D02*
G01*
X135588569Y-134788393D01*
X135619890Y-134805134D01*
X135647339Y-134827661D01*
X135669866Y-134855110D01*
X135686607Y-134886431D01*
X135696915Y-134920409D01*
X135701000Y-134961890D01*
X135701000Y-135638110D01*
X135696915Y-135679591D01*
X135686607Y-135713569D01*
X135669866Y-135744890D01*
X135647339Y-135772339D01*
X135619890Y-135794866D01*
X135588569Y-135811607D01*
X135554591Y-135821915D01*
X135513110Y-135826000D01*
X134911890Y-135826000D01*
X134870409Y-135821915D01*
X134836431Y-135811607D01*
X134805110Y-135794866D01*
X134777661Y-135772339D01*
X134755134Y-135744890D01*
X134738393Y-135713569D01*
X134728085Y-135679591D01*
X134724000Y-135638110D01*
X134724000Y-134961890D01*
X134728085Y-134920409D01*
X134738393Y-134886431D01*
X134755134Y-134855110D01*
X134777661Y-134827661D01*
X134805110Y-134805134D01*
X134836431Y-134788393D01*
X134870409Y-134778085D01*
X134911890Y-134774000D01*
X135513110Y-134774000D01*
X135554591Y-134778085D01*
G37*
G36*
X137129591Y-134778085D02*
G01*
X137163569Y-134788393D01*
X137194890Y-134805134D01*
X137222339Y-134827661D01*
X137244866Y-134855110D01*
X137261607Y-134886431D01*
X137271915Y-134920409D01*
X137276000Y-134961890D01*
X137276000Y-135638110D01*
X137271915Y-135679591D01*
X137261607Y-135713569D01*
X137244866Y-135744890D01*
X137222339Y-135772339D01*
X137194890Y-135794866D01*
X137163569Y-135811607D01*
X137129591Y-135821915D01*
X137088110Y-135826000D01*
X136486890Y-135826000D01*
X136445409Y-135821915D01*
X136411431Y-135811607D01*
X136380110Y-135794866D01*
X136352661Y-135772339D01*
X136330134Y-135744890D01*
X136313393Y-135713569D01*
X136303085Y-135679591D01*
X136299000Y-135638110D01*
X136299000Y-134961890D01*
X136303085Y-134920409D01*
X136313393Y-134886431D01*
X136330134Y-134855110D01*
X136352661Y-134827661D01*
X136380110Y-134805134D01*
X136411431Y-134788393D01*
X136445409Y-134778085D01*
X136486890Y-134774000D01*
X137088110Y-134774000D01*
X137129591Y-134778085D01*
G37*
G36*
X112051000Y-135351000D02*
G01*
X110249000Y-135351000D01*
X110249000Y-134249000D01*
X112051000Y-134249000D01*
X112051000Y-135351000D01*
G37*
G36*
X118351000Y-135351000D02*
G01*
X116549000Y-135351000D01*
X116549000Y-134249000D01*
X118351000Y-134249000D01*
X118351000Y-135351000D01*
G37*
G36*
X106713512Y-133343927D02*
G01*
X106862812Y-133373624D01*
X107026784Y-133441544D01*
X107174354Y-133540147D01*
X107299853Y-133665646D01*
X107398456Y-133813216D01*
X107466376Y-133977188D01*
X107501000Y-134151259D01*
X107501000Y-134328741D01*
X107466376Y-134502812D01*
X107398456Y-134666784D01*
X107299853Y-134814354D01*
X107174354Y-134939853D01*
X107026784Y-135038456D01*
X106862812Y-135106376D01*
X106713512Y-135136073D01*
X106688742Y-135141000D01*
X106511258Y-135141000D01*
X106486488Y-135136073D01*
X106337188Y-135106376D01*
X106173216Y-135038456D01*
X106025646Y-134939853D01*
X105900147Y-134814354D01*
X105801544Y-134666784D01*
X105733624Y-134502812D01*
X105699000Y-134328741D01*
X105699000Y-134151259D01*
X105733624Y-133977188D01*
X105801544Y-133813216D01*
X105900147Y-133665646D01*
X106025646Y-133540147D01*
X106173216Y-133441544D01*
X106337188Y-133373624D01*
X106486488Y-133343927D01*
X106511258Y-133339000D01*
X106688742Y-133339000D01*
X106713512Y-133343927D01*
G37*
G36*
X120504591Y-132028085D02*
G01*
X120538569Y-132038393D01*
X120569890Y-132055134D01*
X120597339Y-132077661D01*
X120619866Y-132105110D01*
X120636607Y-132136431D01*
X120646915Y-132170409D01*
X120651000Y-132211890D01*
X120651000Y-132888110D01*
X120646915Y-132929591D01*
X120636607Y-132963569D01*
X120619866Y-132994890D01*
X120597339Y-133022339D01*
X120569890Y-133044866D01*
X120538569Y-133061607D01*
X120504591Y-133071915D01*
X120463110Y-133076000D01*
X119861890Y-133076000D01*
X119820409Y-133071915D01*
X119786431Y-133061607D01*
X119755110Y-133044866D01*
X119727661Y-133022339D01*
X119705134Y-132994890D01*
X119688393Y-132963569D01*
X119678085Y-132929591D01*
X119674000Y-132888110D01*
X119674000Y-132211890D01*
X119678085Y-132170409D01*
X119688393Y-132136431D01*
X119705134Y-132105110D01*
X119727661Y-132077661D01*
X119755110Y-132055134D01*
X119786431Y-132038393D01*
X119820409Y-132028085D01*
X119861890Y-132024000D01*
X120463110Y-132024000D01*
X120504591Y-132028085D01*
G37*
G36*
X122079591Y-132028085D02*
G01*
X122113569Y-132038393D01*
X122144890Y-132055134D01*
X122172339Y-132077661D01*
X122194866Y-132105110D01*
X122211607Y-132136431D01*
X122221915Y-132170409D01*
X122226000Y-132211890D01*
X122226000Y-132888110D01*
X122221915Y-132929591D01*
X122211607Y-132963569D01*
X122194866Y-132994890D01*
X122172339Y-133022339D01*
X122144890Y-133044866D01*
X122113569Y-133061607D01*
X122079591Y-133071915D01*
X122038110Y-133076000D01*
X121436890Y-133076000D01*
X121395409Y-133071915D01*
X121361431Y-133061607D01*
X121330110Y-133044866D01*
X121302661Y-133022339D01*
X121280134Y-132994890D01*
X121263393Y-132963569D01*
X121253085Y-132929591D01*
X121249000Y-132888110D01*
X121249000Y-132211890D01*
X121253085Y-132170409D01*
X121263393Y-132136431D01*
X121280134Y-132105110D01*
X121302661Y-132077661D01*
X121330110Y-132055134D01*
X121361431Y-132038393D01*
X121395409Y-132028085D01*
X121436890Y-132024000D01*
X122038110Y-132024000D01*
X122079591Y-132028085D01*
G37*
G36*
X131304591Y-132028085D02*
G01*
X131338569Y-132038393D01*
X131369890Y-132055134D01*
X131397339Y-132077661D01*
X131419866Y-132105110D01*
X131436607Y-132136431D01*
X131446915Y-132170409D01*
X131451000Y-132211890D01*
X131451000Y-132888110D01*
X131446915Y-132929591D01*
X131436607Y-132963569D01*
X131419866Y-132994890D01*
X131397339Y-133022339D01*
X131369890Y-133044866D01*
X131338569Y-133061607D01*
X131304591Y-133071915D01*
X131263110Y-133076000D01*
X130661890Y-133076000D01*
X130620409Y-133071915D01*
X130586431Y-133061607D01*
X130555110Y-133044866D01*
X130527661Y-133022339D01*
X130505134Y-132994890D01*
X130488393Y-132963569D01*
X130478085Y-132929591D01*
X130474000Y-132888110D01*
X130474000Y-132211890D01*
X130478085Y-132170409D01*
X130488393Y-132136431D01*
X130505134Y-132105110D01*
X130527661Y-132077661D01*
X130555110Y-132055134D01*
X130586431Y-132038393D01*
X130620409Y-132028085D01*
X130661890Y-132024000D01*
X131263110Y-132024000D01*
X131304591Y-132028085D01*
G37*
G36*
X132879591Y-132028085D02*
G01*
X132913569Y-132038393D01*
X132944890Y-132055134D01*
X132972339Y-132077661D01*
X132994866Y-132105110D01*
X133011607Y-132136431D01*
X133021915Y-132170409D01*
X133026000Y-132211890D01*
X133026000Y-132888110D01*
X133021915Y-132929591D01*
X133011607Y-132963569D01*
X132994866Y-132994890D01*
X132972339Y-133022339D01*
X132944890Y-133044866D01*
X132913569Y-133061607D01*
X132879591Y-133071915D01*
X132838110Y-133076000D01*
X132236890Y-133076000D01*
X132195409Y-133071915D01*
X132161431Y-133061607D01*
X132130110Y-133044866D01*
X132102661Y-133022339D01*
X132080134Y-132994890D01*
X132063393Y-132963569D01*
X132053085Y-132929591D01*
X132049000Y-132888110D01*
X132049000Y-132211890D01*
X132053085Y-132170409D01*
X132063393Y-132136431D01*
X132080134Y-132105110D01*
X132102661Y-132077661D01*
X132130110Y-132055134D01*
X132161431Y-132038393D01*
X132195409Y-132028085D01*
X132236890Y-132024000D01*
X132838110Y-132024000D01*
X132879591Y-132028085D01*
G37*
G36*
X139806564Y-130989389D02*
G01*
X139997833Y-131068615D01*
X139997835Y-131068616D01*
X140169973Y-131183635D01*
X140316365Y-131330027D01*
X140431385Y-131502167D01*
X140510611Y-131693436D01*
X140551000Y-131896484D01*
X140551000Y-132103516D01*
X140510611Y-132306564D01*
X140431385Y-132497833D01*
X140431384Y-132497835D01*
X140316365Y-132669973D01*
X140169973Y-132816365D01*
X139997835Y-132931384D01*
X139997834Y-132931385D01*
X139997833Y-132931385D01*
X139806564Y-133010611D01*
X139603516Y-133051000D01*
X139396484Y-133051000D01*
X139193436Y-133010611D01*
X139002167Y-132931385D01*
X139002166Y-132931385D01*
X139002165Y-132931384D01*
X138830027Y-132816365D01*
X138683635Y-132669973D01*
X138568616Y-132497835D01*
X138568615Y-132497833D01*
X138489389Y-132306564D01*
X138449000Y-132103516D01*
X138449000Y-131896484D01*
X138489389Y-131693436D01*
X138568615Y-131502167D01*
X138683635Y-131330027D01*
X138830027Y-131183635D01*
X139002165Y-131068616D01*
X139002167Y-131068615D01*
X139193436Y-130989389D01*
X139396484Y-130949000D01*
X139603516Y-130949000D01*
X139806564Y-130989389D01*
G37*
G36*
X107501000Y-132601000D02*
G01*
X105699000Y-132601000D01*
X105699000Y-130799000D01*
X107501000Y-130799000D01*
X107501000Y-132601000D01*
G37*
G36*
X156251778Y-128401247D02*
G01*
X156488871Y-128448408D01*
X156793883Y-128574748D01*
X157068387Y-128758166D01*
X157301834Y-128991613D01*
X157485252Y-129266117D01*
X157611592Y-129571129D01*
X157676000Y-129894928D01*
X157676000Y-130225072D01*
X157611592Y-130548871D01*
X157485252Y-130853883D01*
X157301834Y-131128387D01*
X157068387Y-131361834D01*
X156793883Y-131545252D01*
X156488871Y-131671592D01*
X156379059Y-131693435D01*
X156165073Y-131736000D01*
X155834927Y-131736000D01*
X155620941Y-131693435D01*
X155511129Y-131671592D01*
X155206117Y-131545252D01*
X154931613Y-131361834D01*
X154698166Y-131128387D01*
X154514748Y-130853883D01*
X154388408Y-130548871D01*
X154324000Y-130225072D01*
X154324000Y-129894928D01*
X154388408Y-129571129D01*
X154514748Y-129266117D01*
X154698166Y-128991613D01*
X154931613Y-128758166D01*
X155206117Y-128574748D01*
X155511129Y-128448408D01*
X155748222Y-128401247D01*
X155834927Y-128384000D01*
X156165073Y-128384000D01*
X156251778Y-128401247D01*
G37*
G36*
X112051000Y-131551000D02*
G01*
X110249000Y-131551000D01*
X110249000Y-130449000D01*
X112051000Y-130449000D01*
X112051000Y-131551000D01*
G37*
G36*
X118351000Y-131551000D02*
G01*
X116549000Y-131551000D01*
X116549000Y-130449000D01*
X118351000Y-130449000D01*
X118351000Y-131551000D01*
G37*
G36*
X132901000Y-130001000D02*
G01*
X128299000Y-130001000D01*
X128299000Y-127899000D01*
X132901000Y-127899000D01*
X132901000Y-130001000D01*
G37*
G36*
X124401000Y-130001000D02*
G01*
X119799000Y-130001000D01*
X119799000Y-127899000D01*
X124401000Y-127899000D01*
X124401000Y-130001000D01*
G37*
G36*
X139806564Y-127189389D02*
G01*
X139997833Y-127268615D01*
X139997835Y-127268616D01*
X140169973Y-127383635D01*
X140316365Y-127530027D01*
X140376257Y-127619661D01*
X140431385Y-127702167D01*
X140510611Y-127893436D01*
X140551000Y-128096484D01*
X140551000Y-128303516D01*
X140510611Y-128506564D01*
X140471715Y-128600467D01*
X140431384Y-128697835D01*
X140316365Y-128869973D01*
X140169973Y-129016365D01*
X139997835Y-129131384D01*
X139997834Y-129131385D01*
X139997833Y-129131385D01*
X139806564Y-129210611D01*
X139603516Y-129251000D01*
X139396484Y-129251000D01*
X139193436Y-129210611D01*
X139002167Y-129131385D01*
X139002166Y-129131385D01*
X139002165Y-129131384D01*
X138830027Y-129016365D01*
X138683635Y-128869973D01*
X138568616Y-128697835D01*
X138528285Y-128600467D01*
X138489389Y-128506564D01*
X138449000Y-128303516D01*
X138449000Y-128096484D01*
X138489389Y-127893436D01*
X138568615Y-127702167D01*
X138623744Y-127619661D01*
X138683635Y-127530027D01*
X138830027Y-127383635D01*
X139002165Y-127268616D01*
X139002167Y-127268615D01*
X139193436Y-127189389D01*
X139396484Y-127149000D01*
X139603516Y-127149000D01*
X139806564Y-127189389D01*
G37*
G36*
X149927395Y-127235546D02*
G01*
X150100466Y-127307234D01*
X150147362Y-127338569D01*
X150256227Y-127411310D01*
X150388690Y-127543773D01*
X150432975Y-127610050D01*
X150492766Y-127699534D01*
X150564454Y-127872605D01*
X150601000Y-128056333D01*
X150601000Y-128243667D01*
X150564454Y-128427395D01*
X150492766Y-128600466D01*
X150492765Y-128600467D01*
X150388690Y-128756227D01*
X150256227Y-128888690D01*
X150218993Y-128913569D01*
X150100466Y-128992766D01*
X149927395Y-129064454D01*
X149743667Y-129101000D01*
X149556333Y-129101000D01*
X149372605Y-129064454D01*
X149199534Y-128992766D01*
X149081007Y-128913569D01*
X149043773Y-128888690D01*
X148911310Y-128756227D01*
X148807235Y-128600467D01*
X148807234Y-128600466D01*
X148735546Y-128427395D01*
X148699000Y-128243667D01*
X148699000Y-128056333D01*
X148735546Y-127872605D01*
X148807234Y-127699534D01*
X148867025Y-127610050D01*
X148911310Y-127543773D01*
X149043773Y-127411310D01*
X149152638Y-127338569D01*
X149199534Y-127307234D01*
X149372605Y-127235546D01*
X149556333Y-127199000D01*
X149743667Y-127199000D01*
X149927395Y-127235546D01*
G37*
G36*
X115879591Y-128053085D02*
G01*
X115913569Y-128063393D01*
X115944890Y-128080134D01*
X115972339Y-128102661D01*
X115994866Y-128130110D01*
X116011607Y-128161431D01*
X116021915Y-128195409D01*
X116026000Y-128236890D01*
X116026000Y-128838110D01*
X116021915Y-128879591D01*
X116011607Y-128913569D01*
X115994866Y-128944890D01*
X115972339Y-128972339D01*
X115944890Y-128994866D01*
X115913569Y-129011607D01*
X115879591Y-129021915D01*
X115838110Y-129026000D01*
X115161890Y-129026000D01*
X115120409Y-129021915D01*
X115086431Y-129011607D01*
X115055110Y-128994866D01*
X115027661Y-128972339D01*
X115005134Y-128944890D01*
X114988393Y-128913569D01*
X114978085Y-128879591D01*
X114974000Y-128838110D01*
X114974000Y-128236890D01*
X114978085Y-128195409D01*
X114988393Y-128161431D01*
X115005134Y-128130110D01*
X115027661Y-128102661D01*
X115055110Y-128080134D01*
X115086431Y-128063393D01*
X115120409Y-128053085D01*
X115161890Y-128049000D01*
X115838110Y-128049000D01*
X115879591Y-128053085D01*
G37*
G36*
X118629591Y-128053085D02*
G01*
X118663569Y-128063393D01*
X118694890Y-128080134D01*
X118722339Y-128102661D01*
X118744866Y-128130110D01*
X118761607Y-128161431D01*
X118771915Y-128195409D01*
X118776000Y-128236890D01*
X118776000Y-128838110D01*
X118771915Y-128879591D01*
X118761607Y-128913569D01*
X118744866Y-128944890D01*
X118722339Y-128972339D01*
X118694890Y-128994866D01*
X118663569Y-129011607D01*
X118629591Y-129021915D01*
X118588110Y-129026000D01*
X117911890Y-129026000D01*
X117870409Y-129021915D01*
X117836431Y-129011607D01*
X117805110Y-128994866D01*
X117777661Y-128972339D01*
X117755134Y-128944890D01*
X117738393Y-128913569D01*
X117728085Y-128879591D01*
X117724000Y-128838110D01*
X117724000Y-128236890D01*
X117728085Y-128195409D01*
X117738393Y-128161431D01*
X117755134Y-128130110D01*
X117777661Y-128102661D01*
X117805110Y-128080134D01*
X117836431Y-128063393D01*
X117870409Y-128053085D01*
X117911890Y-128049000D01*
X118588110Y-128049000D01*
X118629591Y-128053085D01*
G37*
G36*
X135384999Y-126799737D02*
G01*
X135394608Y-126802652D01*
X135403472Y-126807390D01*
X135411212Y-126813742D01*
X135411213Y-126813743D01*
X135411237Y-126813763D01*
X135417640Y-126821573D01*
X135417677Y-126821628D01*
X135425480Y-126831147D01*
X135425511Y-126831122D01*
X135436853Y-126844972D01*
X135455779Y-126860537D01*
X135477377Y-126872111D01*
X135500819Y-126879249D01*
X135525202Y-126881676D01*
X135549591Y-126879300D01*
X135573047Y-126872211D01*
X135594670Y-126860682D01*
X135613628Y-126845157D01*
X135629193Y-126826231D01*
X135631029Y-126823175D01*
X135632418Y-126821486D01*
X135632419Y-126821484D01*
X135638801Y-126813725D01*
X135646573Y-126807360D01*
X135646575Y-126807358D01*
X135655399Y-126802654D01*
X135655438Y-126802633D01*
X135665055Y-126799727D01*
X135665085Y-126799718D01*
X135681113Y-126798148D01*
X136818860Y-126798148D01*
X136834999Y-126799737D01*
X136844608Y-126802652D01*
X136853472Y-126807390D01*
X136861237Y-126813763D01*
X136867610Y-126821528D01*
X136872348Y-126830392D01*
X136875263Y-126840001D01*
X136876852Y-126856140D01*
X136876852Y-128343860D01*
X136875263Y-128359999D01*
X136872348Y-128369608D01*
X136867610Y-128378472D01*
X136861237Y-128386237D01*
X136853472Y-128392610D01*
X136844608Y-128397348D01*
X136834999Y-128400263D01*
X136818860Y-128401852D01*
X135681140Y-128401852D01*
X135665001Y-128400263D01*
X135655392Y-128397348D01*
X135646528Y-128392610D01*
X135638763Y-128386237D01*
X135628116Y-128373263D01*
X135621947Y-128364032D01*
X135604619Y-128346706D01*
X135584244Y-128333093D01*
X135561605Y-128323717D01*
X135537572Y-128318937D01*
X135513068Y-128318938D01*
X135489035Y-128323720D01*
X135466396Y-128333098D01*
X135446022Y-128346713D01*
X135428696Y-128364041D01*
X135421825Y-128373317D01*
X135417640Y-128378427D01*
X135411275Y-128386199D01*
X135403516Y-128392581D01*
X135394661Y-128397326D01*
X135391623Y-128398251D01*
X135385085Y-128400242D01*
X135385082Y-128400242D01*
X135385050Y-128400252D01*
X135375000Y-128401247D01*
X135374935Y-128401247D01*
X135368825Y-128401852D01*
X134381140Y-128401852D01*
X134365001Y-128400263D01*
X134355392Y-128397348D01*
X134346528Y-128392610D01*
X134338763Y-128386237D01*
X134332390Y-128378472D01*
X134327652Y-128369608D01*
X134324737Y-128359999D01*
X134323148Y-128343860D01*
X134323148Y-126856140D01*
X134324737Y-126840001D01*
X134327652Y-126830392D01*
X134332390Y-126821528D01*
X134338763Y-126813763D01*
X134346528Y-126807390D01*
X134355392Y-126802652D01*
X134365001Y-126799737D01*
X134381140Y-126798148D01*
X135368860Y-126798148D01*
X135384999Y-126799737D01*
G37*
G36*
X147387395Y-125965546D02*
G01*
X147560466Y-126037234D01*
X147637818Y-126088919D01*
X147716227Y-126141310D01*
X147848690Y-126273773D01*
X147848691Y-126273775D01*
X147952766Y-126429534D01*
X148024454Y-126602605D01*
X148061000Y-126786333D01*
X148061000Y-126973667D01*
X148024454Y-127157395D01*
X147952766Y-127330466D01*
X147908083Y-127397339D01*
X147848690Y-127486227D01*
X147716227Y-127618690D01*
X147701654Y-127628427D01*
X147560466Y-127722766D01*
X147387395Y-127794454D01*
X147203667Y-127831000D01*
X147016333Y-127831000D01*
X146832605Y-127794454D01*
X146659534Y-127722766D01*
X146518346Y-127628427D01*
X146503773Y-127618690D01*
X146371310Y-127486227D01*
X146311917Y-127397339D01*
X146267234Y-127330466D01*
X146195546Y-127157395D01*
X146159000Y-126973667D01*
X146159000Y-126786333D01*
X146195546Y-126602605D01*
X146267234Y-126429534D01*
X146371309Y-126273775D01*
X146371310Y-126273773D01*
X146503773Y-126141310D01*
X146582182Y-126088919D01*
X146659534Y-126037234D01*
X146832605Y-125965546D01*
X147016333Y-125929000D01*
X147203667Y-125929000D01*
X147387395Y-125965546D01*
G37*
G36*
X118629591Y-126478085D02*
G01*
X118663569Y-126488393D01*
X118694890Y-126505134D01*
X118722339Y-126527661D01*
X118744866Y-126555110D01*
X118761607Y-126586431D01*
X118771915Y-126620409D01*
X118776000Y-126661890D01*
X118776000Y-127263110D01*
X118771915Y-127304591D01*
X118761607Y-127338569D01*
X118744866Y-127369890D01*
X118722339Y-127397339D01*
X118694890Y-127419866D01*
X118663569Y-127436607D01*
X118629591Y-127446915D01*
X118588110Y-127451000D01*
X117911890Y-127451000D01*
X117870409Y-127446915D01*
X117836431Y-127436607D01*
X117805110Y-127419866D01*
X117777661Y-127397339D01*
X117755134Y-127369890D01*
X117738393Y-127338569D01*
X117728085Y-127304591D01*
X117724000Y-127263110D01*
X117724000Y-126661890D01*
X117728085Y-126620409D01*
X117738393Y-126586431D01*
X117755134Y-126555110D01*
X117777661Y-126527661D01*
X117805110Y-126505134D01*
X117836431Y-126488393D01*
X117870409Y-126478085D01*
X117911890Y-126474000D01*
X118588110Y-126474000D01*
X118629591Y-126478085D01*
G37*
G36*
X115879591Y-126478085D02*
G01*
X115913569Y-126488393D01*
X115944890Y-126505134D01*
X115972339Y-126527661D01*
X115994866Y-126555110D01*
X116011607Y-126586431D01*
X116021915Y-126620409D01*
X116026000Y-126661890D01*
X116026000Y-127263110D01*
X116021915Y-127304591D01*
X116011607Y-127338569D01*
X115994866Y-127369890D01*
X115972339Y-127397339D01*
X115944890Y-127419866D01*
X115913569Y-127436607D01*
X115879591Y-127446915D01*
X115838110Y-127451000D01*
X115161890Y-127451000D01*
X115120409Y-127446915D01*
X115086431Y-127436607D01*
X115055110Y-127419866D01*
X115027661Y-127397339D01*
X115005134Y-127369890D01*
X114988393Y-127338569D01*
X114978085Y-127304591D01*
X114974000Y-127263110D01*
X114974000Y-126661890D01*
X114978085Y-126620409D01*
X114988393Y-126586431D01*
X115005134Y-126555110D01*
X115027661Y-126527661D01*
X115055110Y-126505134D01*
X115086431Y-126488393D01*
X115120409Y-126478085D01*
X115161890Y-126474000D01*
X115838110Y-126474000D01*
X115879591Y-126478085D01*
G37*
G36*
X149927395Y-124695546D02*
G01*
X150100466Y-124767234D01*
X150142827Y-124795539D01*
X150256227Y-124871310D01*
X150388690Y-125003773D01*
X150432923Y-125069973D01*
X150492766Y-125159534D01*
X150564454Y-125332605D01*
X150601000Y-125516333D01*
X150601000Y-125703667D01*
X150564454Y-125887395D01*
X150492766Y-126060466D01*
X150492765Y-126060467D01*
X150388690Y-126216227D01*
X150256227Y-126348690D01*
X150177818Y-126401081D01*
X150100466Y-126452766D01*
X149927395Y-126524454D01*
X149743667Y-126561000D01*
X149556333Y-126561000D01*
X149372605Y-126524454D01*
X149199534Y-126452766D01*
X149122182Y-126401081D01*
X149043773Y-126348690D01*
X148911310Y-126216227D01*
X148807235Y-126060467D01*
X148807234Y-126060466D01*
X148735546Y-125887395D01*
X148699000Y-125703667D01*
X148699000Y-125516333D01*
X148735546Y-125332605D01*
X148807234Y-125159534D01*
X148867077Y-125069973D01*
X148911310Y-125003773D01*
X149043773Y-124871310D01*
X149157173Y-124795539D01*
X149199534Y-124767234D01*
X149372605Y-124695546D01*
X149556333Y-124659000D01*
X149743667Y-124659000D01*
X149927395Y-124695546D01*
G37*
G36*
X118804591Y-124728085D02*
G01*
X118838569Y-124738393D01*
X118869890Y-124755134D01*
X118897339Y-124777661D01*
X118919866Y-124805110D01*
X118936607Y-124836431D01*
X118946915Y-124870409D01*
X118951000Y-124911890D01*
X118951000Y-125588110D01*
X118946915Y-125629591D01*
X118936607Y-125663569D01*
X118919866Y-125694890D01*
X118897339Y-125722339D01*
X118869890Y-125744866D01*
X118838569Y-125761607D01*
X118804591Y-125771915D01*
X118763110Y-125776000D01*
X118161890Y-125776000D01*
X118120409Y-125771915D01*
X118086431Y-125761607D01*
X118055110Y-125744866D01*
X118027661Y-125722339D01*
X118005134Y-125694890D01*
X117988393Y-125663569D01*
X117978085Y-125629591D01*
X117974000Y-125588110D01*
X117974000Y-124911890D01*
X117978085Y-124870409D01*
X117988393Y-124836431D01*
X118005134Y-124805110D01*
X118027661Y-124777661D01*
X118055110Y-124755134D01*
X118086431Y-124738393D01*
X118120409Y-124728085D01*
X118161890Y-124724000D01*
X118763110Y-124724000D01*
X118804591Y-124728085D01*
G37*
G36*
X120379591Y-124728085D02*
G01*
X120413569Y-124738393D01*
X120444890Y-124755134D01*
X120472339Y-124777661D01*
X120494866Y-124805110D01*
X120511607Y-124836431D01*
X120521915Y-124870409D01*
X120526000Y-124911890D01*
X120526000Y-125588110D01*
X120521915Y-125629591D01*
X120511607Y-125663569D01*
X120494866Y-125694890D01*
X120472339Y-125722339D01*
X120444890Y-125744866D01*
X120413569Y-125761607D01*
X120379591Y-125771915D01*
X120338110Y-125776000D01*
X119736890Y-125776000D01*
X119695409Y-125771915D01*
X119661431Y-125761607D01*
X119630110Y-125744866D01*
X119602661Y-125722339D01*
X119580134Y-125694890D01*
X119563393Y-125663569D01*
X119553085Y-125629591D01*
X119549000Y-125588110D01*
X119549000Y-124911890D01*
X119553085Y-124870409D01*
X119563393Y-124836431D01*
X119580134Y-124805110D01*
X119602661Y-124777661D01*
X119630110Y-124755134D01*
X119661431Y-124738393D01*
X119695409Y-124728085D01*
X119736890Y-124724000D01*
X120338110Y-124724000D01*
X120379591Y-124728085D01*
G37*
G36*
X121920295Y-124125323D02*
G01*
X121927309Y-124127451D01*
X121941077Y-124134810D01*
X121963716Y-124144187D01*
X121987749Y-124148967D01*
X122012253Y-124148967D01*
X122036286Y-124144186D01*
X122058923Y-124134810D01*
X122072691Y-124127451D01*
X122079705Y-124125323D01*
X122093140Y-124124000D01*
X122406860Y-124124000D01*
X122420295Y-124125323D01*
X122427309Y-124127451D01*
X122441077Y-124134810D01*
X122463716Y-124144187D01*
X122487749Y-124148967D01*
X122512253Y-124148967D01*
X122536286Y-124144186D01*
X122558923Y-124134810D01*
X122572691Y-124127451D01*
X122579705Y-124125323D01*
X122593140Y-124124000D01*
X122906860Y-124124000D01*
X122920295Y-124125323D01*
X122927309Y-124127451D01*
X122941077Y-124134810D01*
X122963716Y-124144187D01*
X122987749Y-124148967D01*
X123012253Y-124148967D01*
X123036286Y-124144186D01*
X123058923Y-124134810D01*
X123072691Y-124127451D01*
X123079705Y-124125323D01*
X123093140Y-124124000D01*
X123406860Y-124124000D01*
X123420295Y-124125323D01*
X123427309Y-124127451D01*
X123441077Y-124134810D01*
X123463716Y-124144187D01*
X123487749Y-124148967D01*
X123512253Y-124148967D01*
X123536286Y-124144186D01*
X123558923Y-124134810D01*
X123572691Y-124127451D01*
X123579705Y-124125323D01*
X123593140Y-124124000D01*
X123906860Y-124124000D01*
X123920295Y-124125323D01*
X123927309Y-124127451D01*
X123941077Y-124134810D01*
X123963716Y-124144187D01*
X123987749Y-124148967D01*
X124012253Y-124148967D01*
X124036286Y-124144186D01*
X124058923Y-124134810D01*
X124072691Y-124127451D01*
X124079705Y-124125323D01*
X124093140Y-124124000D01*
X124406860Y-124124000D01*
X124420295Y-124125323D01*
X124427309Y-124127451D01*
X124441077Y-124134810D01*
X124463716Y-124144187D01*
X124487749Y-124148967D01*
X124512253Y-124148967D01*
X124536286Y-124144186D01*
X124558923Y-124134810D01*
X124572691Y-124127451D01*
X124579705Y-124125323D01*
X124593140Y-124124000D01*
X124906860Y-124124000D01*
X124920295Y-124125323D01*
X124927309Y-124127451D01*
X124941077Y-124134810D01*
X124963716Y-124144187D01*
X124987749Y-124148967D01*
X125012253Y-124148967D01*
X125036286Y-124144186D01*
X125058923Y-124134810D01*
X125072691Y-124127451D01*
X125079705Y-124125323D01*
X125093140Y-124124000D01*
X125406860Y-124124000D01*
X125420295Y-124125323D01*
X125427309Y-124127451D01*
X125441077Y-124134810D01*
X125463716Y-124144187D01*
X125487749Y-124148967D01*
X125512253Y-124148967D01*
X125536286Y-124144186D01*
X125558923Y-124134810D01*
X125572691Y-124127451D01*
X125579705Y-124125323D01*
X125593140Y-124124000D01*
X125906860Y-124124000D01*
X125920295Y-124125323D01*
X125927309Y-124127451D01*
X125941077Y-124134810D01*
X125963716Y-124144187D01*
X125987749Y-124148967D01*
X126012253Y-124148967D01*
X126036286Y-124144186D01*
X126058923Y-124134810D01*
X126072691Y-124127451D01*
X126079705Y-124125323D01*
X126093140Y-124124000D01*
X126406860Y-124124000D01*
X126420295Y-124125323D01*
X126427309Y-124127451D01*
X126441077Y-124134810D01*
X126463716Y-124144187D01*
X126487749Y-124148967D01*
X126512253Y-124148967D01*
X126536286Y-124144186D01*
X126558923Y-124134810D01*
X126572691Y-124127451D01*
X126579705Y-124125323D01*
X126593140Y-124124000D01*
X126906860Y-124124000D01*
X126920295Y-124125323D01*
X126927309Y-124127451D01*
X126941077Y-124134810D01*
X126963716Y-124144187D01*
X126987749Y-124148967D01*
X127012253Y-124148967D01*
X127036286Y-124144186D01*
X127058923Y-124134810D01*
X127072691Y-124127451D01*
X127079705Y-124125323D01*
X127093140Y-124124000D01*
X127406860Y-124124000D01*
X127420295Y-124125323D01*
X127427310Y-124127451D01*
X127433776Y-124130908D01*
X127439442Y-124135558D01*
X127444092Y-124141224D01*
X127447549Y-124147690D01*
X127449677Y-124154705D01*
X127451000Y-124168140D01*
X127451000Y-125656860D01*
X127449677Y-125670295D01*
X127447549Y-125677310D01*
X127444092Y-125683776D01*
X127439442Y-125689442D01*
X127433776Y-125694092D01*
X127427310Y-125697549D01*
X127420295Y-125699677D01*
X127406860Y-125701000D01*
X127093140Y-125701000D01*
X127079705Y-125699677D01*
X127072691Y-125697549D01*
X127058923Y-125690190D01*
X127036284Y-125680813D01*
X127012251Y-125676033D01*
X126987747Y-125676033D01*
X126963714Y-125680814D01*
X126941077Y-125690190D01*
X126927309Y-125697549D01*
X126920295Y-125699677D01*
X126906860Y-125701000D01*
X126593140Y-125701000D01*
X126579705Y-125699677D01*
X126572691Y-125697549D01*
X126558923Y-125690190D01*
X126536284Y-125680813D01*
X126512251Y-125676033D01*
X126487747Y-125676033D01*
X126463714Y-125680814D01*
X126441077Y-125690190D01*
X126427309Y-125697549D01*
X126420295Y-125699677D01*
X126406860Y-125701000D01*
X126093140Y-125701000D01*
X126079705Y-125699677D01*
X126072691Y-125697549D01*
X126058923Y-125690190D01*
X126036284Y-125680813D01*
X126012251Y-125676033D01*
X125987747Y-125676033D01*
X125963714Y-125680814D01*
X125941077Y-125690190D01*
X125927309Y-125697549D01*
X125920295Y-125699677D01*
X125906860Y-125701000D01*
X125593140Y-125701000D01*
X125579705Y-125699677D01*
X125572691Y-125697549D01*
X125558923Y-125690190D01*
X125536284Y-125680813D01*
X125512251Y-125676033D01*
X125487747Y-125676033D01*
X125463714Y-125680814D01*
X125441077Y-125690190D01*
X125427309Y-125697549D01*
X125420295Y-125699677D01*
X125406860Y-125701000D01*
X125093140Y-125701000D01*
X125079705Y-125699677D01*
X125072691Y-125697549D01*
X125058923Y-125690190D01*
X125036284Y-125680813D01*
X125012251Y-125676033D01*
X124987747Y-125676033D01*
X124963714Y-125680814D01*
X124941077Y-125690190D01*
X124927309Y-125697549D01*
X124920295Y-125699677D01*
X124906860Y-125701000D01*
X124593140Y-125701000D01*
X124579705Y-125699677D01*
X124572691Y-125697549D01*
X124558923Y-125690190D01*
X124536284Y-125680813D01*
X124512251Y-125676033D01*
X124487747Y-125676033D01*
X124463714Y-125680814D01*
X124441077Y-125690190D01*
X124427309Y-125697549D01*
X124420295Y-125699677D01*
X124406860Y-125701000D01*
X124093140Y-125701000D01*
X124079705Y-125699677D01*
X124072691Y-125697549D01*
X124058923Y-125690190D01*
X124036284Y-125680813D01*
X124012251Y-125676033D01*
X123987747Y-125676033D01*
X123963714Y-125680814D01*
X123941077Y-125690190D01*
X123927309Y-125697549D01*
X123920295Y-125699677D01*
X123906860Y-125701000D01*
X123593140Y-125701000D01*
X123579705Y-125699677D01*
X123572691Y-125697549D01*
X123558923Y-125690190D01*
X123536284Y-125680813D01*
X123512251Y-125676033D01*
X123487747Y-125676033D01*
X123463714Y-125680814D01*
X123441077Y-125690190D01*
X123427309Y-125697549D01*
X123420295Y-125699677D01*
X123406860Y-125701000D01*
X123093140Y-125701000D01*
X123079705Y-125699677D01*
X123072691Y-125697549D01*
X123058923Y-125690190D01*
X123036284Y-125680813D01*
X123012251Y-125676033D01*
X122987747Y-125676033D01*
X122963714Y-125680814D01*
X122941077Y-125690190D01*
X122927309Y-125697549D01*
X122920295Y-125699677D01*
X122906860Y-125701000D01*
X122593140Y-125701000D01*
X122579705Y-125699677D01*
X122572691Y-125697549D01*
X122558923Y-125690190D01*
X122536284Y-125680813D01*
X122512251Y-125676033D01*
X122487747Y-125676033D01*
X122463714Y-125680814D01*
X122441077Y-125690190D01*
X122427309Y-125697549D01*
X122420295Y-125699677D01*
X122406860Y-125701000D01*
X122093140Y-125701000D01*
X122079705Y-125699677D01*
X122072691Y-125697549D01*
X122058923Y-125690190D01*
X122036284Y-125680813D01*
X122012251Y-125676033D01*
X121987747Y-125676033D01*
X121963714Y-125680814D01*
X121941077Y-125690190D01*
X121927309Y-125697549D01*
X121920295Y-125699677D01*
X121906860Y-125701000D01*
X121593140Y-125701000D01*
X121579705Y-125699677D01*
X121572690Y-125697549D01*
X121566224Y-125694092D01*
X121560558Y-125689442D01*
X121555908Y-125683776D01*
X121552451Y-125677310D01*
X121550323Y-125670295D01*
X121549000Y-125656860D01*
X121549000Y-124168140D01*
X121550323Y-124154705D01*
X121552451Y-124147690D01*
X121555908Y-124141224D01*
X121560558Y-124135558D01*
X121566224Y-124130908D01*
X121572690Y-124127451D01*
X121579705Y-124125323D01*
X121593140Y-124124000D01*
X121906860Y-124124000D01*
X121920295Y-124125323D01*
G37*
G36*
X115950000Y-124374911D02*
G01*
X115952402Y-124399297D01*
X115959515Y-124422746D01*
X115971066Y-124444357D01*
X115978456Y-124454310D01*
X115986199Y-124463725D01*
X115992581Y-124471484D01*
X115997326Y-124480339D01*
X115998251Y-124483377D01*
X116000242Y-124489915D01*
X116000242Y-124489918D01*
X116000252Y-124489950D01*
X116001247Y-124500000D01*
X116001247Y-124500065D01*
X116001852Y-124506175D01*
X116001852Y-125493860D01*
X116000263Y-125509999D01*
X115997348Y-125519608D01*
X115992610Y-125528472D01*
X115986237Y-125536237D01*
X115978472Y-125542610D01*
X115969608Y-125547348D01*
X115959999Y-125550263D01*
X115943860Y-125551852D01*
X114456140Y-125551852D01*
X114440001Y-125550263D01*
X114430392Y-125547348D01*
X114421528Y-125542610D01*
X114413763Y-125536237D01*
X114407390Y-125528472D01*
X114402652Y-125519608D01*
X114399737Y-125509999D01*
X114398148Y-125493860D01*
X114398148Y-124506140D01*
X114399737Y-124490001D01*
X114402652Y-124480392D01*
X114407390Y-124471528D01*
X114421258Y-124454630D01*
X114421347Y-124454541D01*
X114421423Y-124454429D01*
X114421575Y-124454243D01*
X114421557Y-124454229D01*
X114435033Y-124434214D01*
X114444489Y-124411608D01*
X114449354Y-124387592D01*
X114450000Y-124374903D01*
X114450000Y-123450000D01*
X115950000Y-123450000D01*
X115950000Y-124374911D01*
G37*
G36*
X139806564Y-123389389D02*
G01*
X139952892Y-123450000D01*
X139997835Y-123468616D01*
X140169973Y-123583635D01*
X140316365Y-123730027D01*
X140422944Y-123889533D01*
X140431385Y-123902167D01*
X140510611Y-124093436D01*
X140551000Y-124296484D01*
X140551000Y-124503516D01*
X140510611Y-124706564D01*
X140442371Y-124871310D01*
X140431384Y-124897835D01*
X140316365Y-125069973D01*
X140169973Y-125216365D01*
X139997835Y-125331384D01*
X139997834Y-125331385D01*
X139997833Y-125331385D01*
X139806564Y-125410611D01*
X139603516Y-125451000D01*
X139396484Y-125451000D01*
X139193436Y-125410611D01*
X139002167Y-125331385D01*
X139002166Y-125331385D01*
X139002165Y-125331384D01*
X138830027Y-125216365D01*
X138683635Y-125069973D01*
X138568616Y-124897835D01*
X138557629Y-124871310D01*
X138489389Y-124706564D01*
X138449000Y-124503516D01*
X138449000Y-124296484D01*
X138489389Y-124093436D01*
X138568615Y-123902167D01*
X138577057Y-123889533D01*
X138683635Y-123730027D01*
X138830027Y-123583635D01*
X139002165Y-123468616D01*
X139047108Y-123450000D01*
X139193436Y-123389389D01*
X139396484Y-123349000D01*
X139603516Y-123349000D01*
X139806564Y-123389389D01*
G37*
G36*
X147387395Y-123425546D02*
G01*
X147560466Y-123497234D01*
X147584226Y-123513110D01*
X147716227Y-123601310D01*
X147848690Y-123733773D01*
X147862947Y-123755110D01*
X147952766Y-123889534D01*
X148024454Y-124062605D01*
X148061000Y-124246333D01*
X148061000Y-124433667D01*
X148024454Y-124617395D01*
X147952766Y-124790466D01*
X147952765Y-124790467D01*
X147848690Y-124946227D01*
X147716227Y-125078690D01*
X147646590Y-125125220D01*
X147560466Y-125182766D01*
X147387395Y-125254454D01*
X147203667Y-125291000D01*
X147016333Y-125291000D01*
X146832605Y-125254454D01*
X146659534Y-125182766D01*
X146573410Y-125125220D01*
X146503773Y-125078690D01*
X146371310Y-124946227D01*
X146267235Y-124790467D01*
X146267234Y-124790466D01*
X146195546Y-124617395D01*
X146159000Y-124433667D01*
X146159000Y-124246333D01*
X146195546Y-124062605D01*
X146267234Y-123889534D01*
X146357053Y-123755110D01*
X146371310Y-123733773D01*
X146503773Y-123601310D01*
X146635774Y-123513110D01*
X146659534Y-123497234D01*
X146832605Y-123425546D01*
X147016333Y-123389000D01*
X147203667Y-123389000D01*
X147387395Y-123425546D01*
G37*
G36*
X132629591Y-124303085D02*
G01*
X132663569Y-124313393D01*
X132694890Y-124330134D01*
X132722339Y-124352661D01*
X132744866Y-124380110D01*
X132761607Y-124411431D01*
X132771915Y-124445409D01*
X132776000Y-124486890D01*
X132776000Y-125088110D01*
X132771915Y-125129591D01*
X132761607Y-125163569D01*
X132744866Y-125194890D01*
X132722339Y-125222339D01*
X132694890Y-125244866D01*
X132663569Y-125261607D01*
X132629591Y-125271915D01*
X132588110Y-125276000D01*
X131911890Y-125276000D01*
X131870409Y-125271915D01*
X131836431Y-125261607D01*
X131805110Y-125244866D01*
X131777661Y-125222339D01*
X131755134Y-125194890D01*
X131738393Y-125163569D01*
X131728085Y-125129591D01*
X131724000Y-125088110D01*
X131724000Y-124486890D01*
X131728085Y-124445409D01*
X131738393Y-124411431D01*
X131755134Y-124380110D01*
X131777661Y-124352661D01*
X131805110Y-124330134D01*
X131836431Y-124313393D01*
X131870409Y-124303085D01*
X131911890Y-124299000D01*
X132588110Y-124299000D01*
X132629591Y-124303085D01*
G37*
G36*
X135154591Y-123678085D02*
G01*
X135188569Y-123688393D01*
X135219890Y-123705134D01*
X135247339Y-123727661D01*
X135269866Y-123755110D01*
X135286607Y-123786431D01*
X135296915Y-123820409D01*
X135301000Y-123861890D01*
X135301000Y-124538110D01*
X135296915Y-124579591D01*
X135286607Y-124613569D01*
X135269866Y-124644890D01*
X135247339Y-124672339D01*
X135219890Y-124694866D01*
X135188569Y-124711607D01*
X135154591Y-124721915D01*
X135113110Y-124726000D01*
X134511890Y-124726000D01*
X134470409Y-124721915D01*
X134436431Y-124711607D01*
X134405110Y-124694866D01*
X134377661Y-124672339D01*
X134355134Y-124644890D01*
X134338393Y-124613569D01*
X134328085Y-124579591D01*
X134324000Y-124538110D01*
X134324000Y-123861890D01*
X134328085Y-123820409D01*
X134338393Y-123786431D01*
X134355134Y-123755110D01*
X134377661Y-123727661D01*
X134405110Y-123705134D01*
X134436431Y-123688393D01*
X134470409Y-123678085D01*
X134511890Y-123674000D01*
X135113110Y-123674000D01*
X135154591Y-123678085D01*
G37*
G36*
X136729591Y-123678085D02*
G01*
X136763569Y-123688393D01*
X136794890Y-123705134D01*
X136822339Y-123727661D01*
X136844866Y-123755110D01*
X136861607Y-123786431D01*
X136871915Y-123820409D01*
X136876000Y-123861890D01*
X136876000Y-124538110D01*
X136871915Y-124579591D01*
X136861607Y-124613569D01*
X136844866Y-124644890D01*
X136822339Y-124672339D01*
X136794890Y-124694866D01*
X136763569Y-124711607D01*
X136729591Y-124721915D01*
X136688110Y-124726000D01*
X136086890Y-124726000D01*
X136045409Y-124721915D01*
X136011431Y-124711607D01*
X135980110Y-124694866D01*
X135952661Y-124672339D01*
X135930134Y-124644890D01*
X135913393Y-124613569D01*
X135903085Y-124579591D01*
X135899000Y-124538110D01*
X135899000Y-123861890D01*
X135903085Y-123820409D01*
X135913393Y-123786431D01*
X135930134Y-123755110D01*
X135952661Y-123727661D01*
X135980110Y-123705134D01*
X136011431Y-123688393D01*
X136045409Y-123678085D01*
X136086890Y-123674000D01*
X136688110Y-123674000D01*
X136729591Y-123678085D01*
G37*
G36*
X156277101Y-120786284D02*
G01*
X156488871Y-120828408D01*
X156793883Y-120954748D01*
X157068387Y-121138166D01*
X157301834Y-121371613D01*
X157485252Y-121646117D01*
X157611592Y-121951129D01*
X157617976Y-121983222D01*
X157676000Y-122274927D01*
X157676000Y-122605073D01*
X157658440Y-122693350D01*
X157611592Y-122928871D01*
X157485252Y-123233883D01*
X157301834Y-123508387D01*
X157068387Y-123741834D01*
X156793883Y-123925252D01*
X156488871Y-124051592D01*
X156433510Y-124062604D01*
X156165073Y-124116000D01*
X155834927Y-124116000D01*
X155566490Y-124062604D01*
X155511129Y-124051592D01*
X155206117Y-123925252D01*
X154931613Y-123741834D01*
X154698166Y-123508387D01*
X154514748Y-123233883D01*
X154388408Y-122928871D01*
X154341560Y-122693350D01*
X154324000Y-122605073D01*
X154324000Y-122274927D01*
X154382024Y-121983222D01*
X154388408Y-121951129D01*
X154514748Y-121646117D01*
X154698166Y-121371613D01*
X154931613Y-121138166D01*
X155206117Y-120954748D01*
X155511129Y-120828408D01*
X155722899Y-120786284D01*
X155834927Y-120764000D01*
X156165073Y-120764000D01*
X156277101Y-120786284D01*
G37*
G36*
X129420295Y-117800323D02*
G01*
X129427310Y-117802451D01*
X129433776Y-117805908D01*
X129439442Y-117810558D01*
X129444092Y-117816224D01*
X129447549Y-117822690D01*
X129449677Y-117829705D01*
X129451000Y-117843140D01*
X129451000Y-118156860D01*
X129449677Y-118170295D01*
X129447549Y-118177309D01*
X129440190Y-118191077D01*
X129430813Y-118213716D01*
X129426033Y-118237749D01*
X129426033Y-118262253D01*
X129430814Y-118286286D01*
X129440190Y-118308923D01*
X129447549Y-118322691D01*
X129449677Y-118329705D01*
X129451000Y-118343140D01*
X129451000Y-118656860D01*
X129449677Y-118670295D01*
X129447549Y-118677309D01*
X129440190Y-118691077D01*
X129430813Y-118713716D01*
X129426033Y-118737749D01*
X129426033Y-118762253D01*
X129430814Y-118786286D01*
X129440190Y-118808923D01*
X129447549Y-118822691D01*
X129449677Y-118829705D01*
X129451000Y-118843140D01*
X129451000Y-119156860D01*
X129449677Y-119170295D01*
X129447549Y-119177309D01*
X129440190Y-119191077D01*
X129430813Y-119213716D01*
X129426033Y-119237749D01*
X129426033Y-119262253D01*
X129430814Y-119286286D01*
X129440190Y-119308923D01*
X129447549Y-119322691D01*
X129449677Y-119329705D01*
X129451000Y-119343140D01*
X129451000Y-119656860D01*
X129449677Y-119670295D01*
X129447549Y-119677309D01*
X129440190Y-119691077D01*
X129430813Y-119713716D01*
X129426033Y-119737749D01*
X129426033Y-119762253D01*
X129430814Y-119786286D01*
X129440190Y-119808923D01*
X129447549Y-119822691D01*
X129449677Y-119829705D01*
X129451000Y-119843140D01*
X129451000Y-120156860D01*
X129449677Y-120170295D01*
X129447549Y-120177309D01*
X129440190Y-120191077D01*
X129430813Y-120213716D01*
X129426033Y-120237749D01*
X129426033Y-120262253D01*
X129430814Y-120286286D01*
X129440190Y-120308923D01*
X129447549Y-120322691D01*
X129449677Y-120329705D01*
X129451000Y-120343140D01*
X129451000Y-120656860D01*
X129449677Y-120670295D01*
X129447549Y-120677309D01*
X129440190Y-120691077D01*
X129430813Y-120713716D01*
X129426033Y-120737749D01*
X129426033Y-120762253D01*
X129430814Y-120786286D01*
X129440190Y-120808923D01*
X129447549Y-120822691D01*
X129449677Y-120829705D01*
X129451000Y-120843140D01*
X129451000Y-121156860D01*
X129449677Y-121170295D01*
X129447549Y-121177309D01*
X129440190Y-121191077D01*
X129430813Y-121213716D01*
X129426033Y-121237749D01*
X129426033Y-121262253D01*
X129430814Y-121286286D01*
X129440190Y-121308923D01*
X129447549Y-121322691D01*
X129449677Y-121329705D01*
X129451000Y-121343140D01*
X129451000Y-121656860D01*
X129449677Y-121670295D01*
X129447549Y-121677309D01*
X129440190Y-121691077D01*
X129430813Y-121713716D01*
X129426033Y-121737749D01*
X129426033Y-121762253D01*
X129430814Y-121786286D01*
X129440190Y-121808923D01*
X129447549Y-121822691D01*
X129449677Y-121829705D01*
X129451000Y-121843140D01*
X129451000Y-122156860D01*
X129449677Y-122170295D01*
X129447549Y-122177309D01*
X129440190Y-122191077D01*
X129430813Y-122213716D01*
X129426033Y-122237749D01*
X129426033Y-122262253D01*
X129430814Y-122286286D01*
X129440190Y-122308923D01*
X129447549Y-122322691D01*
X129449677Y-122329705D01*
X129451000Y-122343140D01*
X129451000Y-122656860D01*
X129449677Y-122670295D01*
X129447549Y-122677309D01*
X129440190Y-122691077D01*
X129430813Y-122713716D01*
X129426033Y-122737749D01*
X129426033Y-122762253D01*
X129430814Y-122786286D01*
X129440190Y-122808923D01*
X129447549Y-122822691D01*
X129449677Y-122829705D01*
X129451000Y-122843140D01*
X129451000Y-123156860D01*
X129449677Y-123170295D01*
X129447549Y-123177309D01*
X129440190Y-123191077D01*
X129430813Y-123213716D01*
X129426033Y-123237749D01*
X129426033Y-123262253D01*
X129430814Y-123286286D01*
X129440190Y-123308923D01*
X129447549Y-123322691D01*
X129449677Y-123329705D01*
X129451000Y-123343140D01*
X129451000Y-123656860D01*
X129449677Y-123670295D01*
X129447549Y-123677310D01*
X129444092Y-123683776D01*
X129439442Y-123689442D01*
X129433776Y-123694092D01*
X129427310Y-123697549D01*
X129420295Y-123699677D01*
X129406860Y-123701000D01*
X127918140Y-123701000D01*
X127904705Y-123699677D01*
X127897690Y-123697549D01*
X127891224Y-123694092D01*
X127885558Y-123689442D01*
X127880908Y-123683776D01*
X127877451Y-123677310D01*
X127875323Y-123670295D01*
X127874000Y-123656860D01*
X127874000Y-123343140D01*
X127875323Y-123329705D01*
X127877451Y-123322691D01*
X127884810Y-123308923D01*
X127894187Y-123286284D01*
X127898967Y-123262251D01*
X127898967Y-123237747D01*
X127894186Y-123213714D01*
X127884810Y-123191077D01*
X127877451Y-123177309D01*
X127875323Y-123170295D01*
X127874000Y-123156860D01*
X127874000Y-122843140D01*
X127875323Y-122829705D01*
X127877451Y-122822691D01*
X127884810Y-122808923D01*
X127894187Y-122786284D01*
X127898967Y-122762251D01*
X127898967Y-122737747D01*
X127894186Y-122713714D01*
X127884810Y-122691077D01*
X127877451Y-122677309D01*
X127875323Y-122670295D01*
X127874000Y-122656860D01*
X127874000Y-122343140D01*
X127875323Y-122329705D01*
X127877451Y-122322691D01*
X127884810Y-122308923D01*
X127894187Y-122286284D01*
X127898967Y-122262251D01*
X127898967Y-122237747D01*
X127894186Y-122213714D01*
X127884810Y-122191077D01*
X127877451Y-122177309D01*
X127875323Y-122170295D01*
X127874000Y-122156860D01*
X127874000Y-121843140D01*
X127875323Y-121829705D01*
X127877451Y-121822691D01*
X127884810Y-121808923D01*
X127894187Y-121786284D01*
X127898967Y-121762251D01*
X127898967Y-121737747D01*
X127894186Y-121713714D01*
X127884810Y-121691077D01*
X127877451Y-121677309D01*
X127875323Y-121670295D01*
X127874000Y-121656860D01*
X127874000Y-121343140D01*
X127875323Y-121329705D01*
X127877451Y-121322691D01*
X127884810Y-121308923D01*
X127894187Y-121286284D01*
X127898967Y-121262251D01*
X127898967Y-121237747D01*
X127894186Y-121213714D01*
X127884810Y-121191077D01*
X127877451Y-121177309D01*
X127875323Y-121170295D01*
X127874000Y-121156860D01*
X127874000Y-120843140D01*
X127875323Y-120829705D01*
X127877451Y-120822691D01*
X127884810Y-120808923D01*
X127894187Y-120786284D01*
X127898967Y-120762251D01*
X127898967Y-120737747D01*
X127894186Y-120713714D01*
X127884810Y-120691077D01*
X127877451Y-120677309D01*
X127875323Y-120670295D01*
X127874000Y-120656860D01*
X127874000Y-120343140D01*
X127875323Y-120329705D01*
X127877451Y-120322691D01*
X127884810Y-120308923D01*
X127894187Y-120286284D01*
X127898967Y-120262251D01*
X127898967Y-120237747D01*
X127894186Y-120213714D01*
X127884810Y-120191077D01*
X127877451Y-120177309D01*
X127875323Y-120170295D01*
X127874000Y-120156860D01*
X127874000Y-119843140D01*
X127875323Y-119829705D01*
X127877451Y-119822691D01*
X127884810Y-119808923D01*
X127894187Y-119786284D01*
X127898967Y-119762251D01*
X127898967Y-119737747D01*
X127894186Y-119713714D01*
X127884810Y-119691077D01*
X127877451Y-119677309D01*
X127875323Y-119670295D01*
X127874000Y-119656860D01*
X127874000Y-119343140D01*
X127875323Y-119329705D01*
X127877451Y-119322691D01*
X127884810Y-119308923D01*
X127894187Y-119286284D01*
X127898967Y-119262251D01*
X127898967Y-119237747D01*
X127894186Y-119213714D01*
X127884810Y-119191077D01*
X127877451Y-119177309D01*
X127875323Y-119170295D01*
X127874000Y-119156860D01*
X127874000Y-118843140D01*
X127875323Y-118829705D01*
X127877451Y-118822691D01*
X127884810Y-118808923D01*
X127894187Y-118786284D01*
X127898967Y-118762251D01*
X127898967Y-118737747D01*
X127894186Y-118713714D01*
X127884810Y-118691077D01*
X127877451Y-118677309D01*
X127875323Y-118670295D01*
X127874000Y-118656860D01*
X127874000Y-118343140D01*
X127875323Y-118329705D01*
X127877451Y-118322691D01*
X127884810Y-118308923D01*
X127894187Y-118286284D01*
X127898967Y-118262251D01*
X127898967Y-118237747D01*
X127894186Y-118213714D01*
X127884810Y-118191077D01*
X127877451Y-118177309D01*
X127875323Y-118170295D01*
X127874000Y-118156860D01*
X127874000Y-117843140D01*
X127875323Y-117829705D01*
X127877451Y-117822690D01*
X127880908Y-117816224D01*
X127885558Y-117810558D01*
X127891224Y-117805908D01*
X127897690Y-117802451D01*
X127904705Y-117800323D01*
X127918140Y-117799000D01*
X129406860Y-117799000D01*
X129420295Y-117800323D01*
G37*
G36*
X132629591Y-122728085D02*
G01*
X132663569Y-122738393D01*
X132694890Y-122755134D01*
X132722339Y-122777661D01*
X132744866Y-122805110D01*
X132761607Y-122836431D01*
X132771915Y-122870409D01*
X132776000Y-122911890D01*
X132776000Y-123513110D01*
X132771915Y-123554591D01*
X132761607Y-123588569D01*
X132744866Y-123619890D01*
X132722339Y-123647339D01*
X132694890Y-123669866D01*
X132663569Y-123686607D01*
X132629591Y-123696915D01*
X132588110Y-123701000D01*
X131911890Y-123701000D01*
X131870409Y-123696915D01*
X131836431Y-123686607D01*
X131805110Y-123669866D01*
X131777661Y-123647339D01*
X131755134Y-123619890D01*
X131738393Y-123588569D01*
X131728085Y-123554591D01*
X131724000Y-123513110D01*
X131724000Y-122911890D01*
X131728085Y-122870409D01*
X131738393Y-122836431D01*
X131755134Y-122805110D01*
X131777661Y-122777661D01*
X131805110Y-122755134D01*
X131836431Y-122738393D01*
X131870409Y-122728085D01*
X131911890Y-122724000D01*
X132588110Y-122724000D01*
X132629591Y-122728085D01*
G37*
G36*
X121095295Y-117800323D02*
G01*
X121102310Y-117802451D01*
X121108776Y-117805908D01*
X121114442Y-117810558D01*
X121119092Y-117816224D01*
X121122549Y-117822690D01*
X121124677Y-117829705D01*
X121126000Y-117843140D01*
X121126000Y-118156860D01*
X121124677Y-118170295D01*
X121122549Y-118177309D01*
X121115190Y-118191077D01*
X121105813Y-118213716D01*
X121101033Y-118237749D01*
X121101033Y-118262253D01*
X121105814Y-118286286D01*
X121115190Y-118308923D01*
X121122549Y-118322691D01*
X121124677Y-118329705D01*
X121126000Y-118343140D01*
X121126000Y-118656860D01*
X121124677Y-118670295D01*
X121122549Y-118677309D01*
X121115190Y-118691077D01*
X121105813Y-118713716D01*
X121101033Y-118737749D01*
X121101033Y-118762253D01*
X121105814Y-118786286D01*
X121115190Y-118808923D01*
X121122549Y-118822691D01*
X121124677Y-118829705D01*
X121126000Y-118843140D01*
X121126000Y-119156860D01*
X121124677Y-119170295D01*
X121122549Y-119177309D01*
X121115190Y-119191077D01*
X121105813Y-119213716D01*
X121101033Y-119237749D01*
X121101033Y-119262253D01*
X121105814Y-119286286D01*
X121115190Y-119308923D01*
X121122549Y-119322691D01*
X121124677Y-119329705D01*
X121126000Y-119343140D01*
X121126000Y-119656860D01*
X121124677Y-119670295D01*
X121122549Y-119677309D01*
X121115190Y-119691077D01*
X121105813Y-119713716D01*
X121101033Y-119737749D01*
X121101033Y-119762253D01*
X121105814Y-119786286D01*
X121115190Y-119808923D01*
X121122549Y-119822691D01*
X121124677Y-119829705D01*
X121126000Y-119843140D01*
X121126000Y-120156860D01*
X121124677Y-120170295D01*
X121122549Y-120177309D01*
X121115190Y-120191077D01*
X121105813Y-120213716D01*
X121101033Y-120237749D01*
X121101033Y-120262253D01*
X121105814Y-120286286D01*
X121115190Y-120308923D01*
X121122549Y-120322691D01*
X121124677Y-120329705D01*
X121126000Y-120343140D01*
X121126000Y-120656860D01*
X121124677Y-120670295D01*
X121122549Y-120677309D01*
X121115190Y-120691077D01*
X121105813Y-120713716D01*
X121101033Y-120737749D01*
X121101033Y-120762253D01*
X121105814Y-120786286D01*
X121115190Y-120808923D01*
X121122549Y-120822691D01*
X121124677Y-120829705D01*
X121126000Y-120843140D01*
X121126000Y-121156860D01*
X121124677Y-121170295D01*
X121122549Y-121177309D01*
X121115190Y-121191077D01*
X121105813Y-121213716D01*
X121101033Y-121237749D01*
X121101033Y-121262253D01*
X121105814Y-121286286D01*
X121115190Y-121308923D01*
X121122549Y-121322691D01*
X121124677Y-121329705D01*
X121126000Y-121343140D01*
X121126000Y-121656860D01*
X121124677Y-121670295D01*
X121122549Y-121677309D01*
X121115190Y-121691077D01*
X121105813Y-121713716D01*
X121101033Y-121737749D01*
X121101033Y-121762253D01*
X121105814Y-121786286D01*
X121115190Y-121808923D01*
X121122549Y-121822691D01*
X121124677Y-121829705D01*
X121126000Y-121843140D01*
X121126000Y-122156860D01*
X121124677Y-122170295D01*
X121122549Y-122177309D01*
X121115190Y-122191077D01*
X121105813Y-122213716D01*
X121101033Y-122237749D01*
X121101033Y-122262253D01*
X121105814Y-122286286D01*
X121115190Y-122308923D01*
X121122549Y-122322691D01*
X121124677Y-122329705D01*
X121126000Y-122343140D01*
X121126000Y-122656860D01*
X121124677Y-122670295D01*
X121122549Y-122677309D01*
X121115190Y-122691077D01*
X121105813Y-122713716D01*
X121101033Y-122737749D01*
X121101033Y-122762253D01*
X121105814Y-122786286D01*
X121115190Y-122808923D01*
X121122549Y-122822691D01*
X121124677Y-122829705D01*
X121126000Y-122843140D01*
X121126000Y-123156860D01*
X121124677Y-123170295D01*
X121122549Y-123177309D01*
X121115190Y-123191077D01*
X121105813Y-123213716D01*
X121101033Y-123237749D01*
X121101033Y-123262253D01*
X121105814Y-123286286D01*
X121115190Y-123308923D01*
X121122549Y-123322691D01*
X121124677Y-123329705D01*
X121126000Y-123343140D01*
X121126000Y-123656860D01*
X121124677Y-123670295D01*
X121122549Y-123677310D01*
X121119092Y-123683776D01*
X121114442Y-123689442D01*
X121108776Y-123694092D01*
X121102310Y-123697549D01*
X121095295Y-123699677D01*
X121081860Y-123701000D01*
X119593140Y-123701000D01*
X119579705Y-123699677D01*
X119572690Y-123697549D01*
X119566224Y-123694092D01*
X119560558Y-123689442D01*
X119555908Y-123683776D01*
X119552451Y-123677310D01*
X119550323Y-123670295D01*
X119549000Y-123656860D01*
X119549000Y-123343140D01*
X119550323Y-123329705D01*
X119552451Y-123322691D01*
X119559810Y-123308923D01*
X119569187Y-123286284D01*
X119573967Y-123262251D01*
X119573967Y-123237747D01*
X119569186Y-123213714D01*
X119559810Y-123191077D01*
X119552451Y-123177309D01*
X119550323Y-123170295D01*
X119549000Y-123156860D01*
X119549000Y-122843140D01*
X119550323Y-122829705D01*
X119552451Y-122822691D01*
X119559810Y-122808923D01*
X119569187Y-122786284D01*
X119573967Y-122762251D01*
X119573967Y-122737747D01*
X119569186Y-122713714D01*
X119559810Y-122691077D01*
X119552451Y-122677309D01*
X119550323Y-122670295D01*
X119549000Y-122656860D01*
X119549000Y-122343140D01*
X119550323Y-122329705D01*
X119552451Y-122322691D01*
X119559810Y-122308923D01*
X119569187Y-122286284D01*
X119573967Y-122262251D01*
X119573967Y-122237747D01*
X119569186Y-122213714D01*
X119559810Y-122191077D01*
X119552451Y-122177309D01*
X119550323Y-122170295D01*
X119549000Y-122156860D01*
X119549000Y-121843140D01*
X119550323Y-121829705D01*
X119552451Y-121822691D01*
X119559810Y-121808923D01*
X119569187Y-121786284D01*
X119573967Y-121762251D01*
X119573967Y-121737747D01*
X119569186Y-121713714D01*
X119559810Y-121691077D01*
X119552451Y-121677309D01*
X119550323Y-121670295D01*
X119549000Y-121656860D01*
X119549000Y-121343140D01*
X119550323Y-121329705D01*
X119552451Y-121322691D01*
X119559810Y-121308923D01*
X119569187Y-121286284D01*
X119573967Y-121262251D01*
X119573967Y-121237747D01*
X119569186Y-121213714D01*
X119559810Y-121191077D01*
X119552451Y-121177309D01*
X119550323Y-121170295D01*
X119549000Y-121156860D01*
X119549000Y-120843140D01*
X119550323Y-120829705D01*
X119552451Y-120822691D01*
X119559810Y-120808923D01*
X119569187Y-120786284D01*
X119573967Y-120762251D01*
X119573967Y-120737747D01*
X119569186Y-120713714D01*
X119559810Y-120691077D01*
X119552451Y-120677309D01*
X119550323Y-120670295D01*
X119549000Y-120656860D01*
X119549000Y-120343140D01*
X119550323Y-120329705D01*
X119552451Y-120322691D01*
X119559810Y-120308923D01*
X119569187Y-120286284D01*
X119573967Y-120262251D01*
X119573967Y-120237747D01*
X119569186Y-120213714D01*
X119559810Y-120191077D01*
X119552451Y-120177309D01*
X119550323Y-120170295D01*
X119549000Y-120156860D01*
X119549000Y-119843140D01*
X119550323Y-119829705D01*
X119552451Y-119822691D01*
X119559810Y-119808923D01*
X119569187Y-119786284D01*
X119573967Y-119762251D01*
X119573967Y-119737747D01*
X119569186Y-119713714D01*
X119559810Y-119691077D01*
X119552451Y-119677309D01*
X119550323Y-119670295D01*
X119549000Y-119656860D01*
X119549000Y-119343140D01*
X119550323Y-119329705D01*
X119552451Y-119322691D01*
X119559810Y-119308923D01*
X119569187Y-119286284D01*
X119573967Y-119262251D01*
X119573967Y-119237747D01*
X119569186Y-119213714D01*
X119559810Y-119191077D01*
X119552451Y-119177309D01*
X119550323Y-119170295D01*
X119549000Y-119156860D01*
X119549000Y-118843140D01*
X119550323Y-118829705D01*
X119552451Y-118822691D01*
X119559810Y-118808923D01*
X119569187Y-118786284D01*
X119573967Y-118762251D01*
X119573967Y-118737747D01*
X119569186Y-118713714D01*
X119559810Y-118691077D01*
X119552451Y-118677309D01*
X119550323Y-118670295D01*
X119549000Y-118656860D01*
X119549000Y-118343140D01*
X119550323Y-118329705D01*
X119552451Y-118322691D01*
X119559810Y-118308923D01*
X119569187Y-118286284D01*
X119573967Y-118262251D01*
X119573967Y-118237747D01*
X119569186Y-118213714D01*
X119559810Y-118191077D01*
X119552451Y-118177309D01*
X119550323Y-118170295D01*
X119549000Y-118156860D01*
X119549000Y-117843140D01*
X119550323Y-117829705D01*
X119552451Y-117822690D01*
X119555908Y-117816224D01*
X119560558Y-117810558D01*
X119566224Y-117805908D01*
X119572690Y-117802451D01*
X119579705Y-117800323D01*
X119593140Y-117799000D01*
X121081860Y-117799000D01*
X121095295Y-117800323D01*
G37*
G36*
X110414600Y-123164600D02*
G01*
X108585400Y-123164600D01*
X108585400Y-121335400D01*
X110414600Y-121335400D01*
X110414600Y-123164600D01*
G37*
G36*
X107226778Y-121370547D02*
G01*
X107393224Y-121439491D01*
X107543022Y-121539583D01*
X107670417Y-121666978D01*
X107770509Y-121816776D01*
X107839453Y-121983222D01*
X107874600Y-122159918D01*
X107874600Y-122340082D01*
X107839453Y-122516778D01*
X107770509Y-122683224D01*
X107670417Y-122833022D01*
X107543022Y-122960417D01*
X107393224Y-123060509D01*
X107226778Y-123129453D01*
X107050082Y-123164600D01*
X106869918Y-123164600D01*
X106693222Y-123129453D01*
X106526776Y-123060509D01*
X106376978Y-122960417D01*
X106249583Y-122833022D01*
X106149491Y-122683224D01*
X106080547Y-122516778D01*
X106045400Y-122340082D01*
X106045400Y-122159918D01*
X106080547Y-121983222D01*
X106149491Y-121816776D01*
X106249583Y-121666978D01*
X106376978Y-121539583D01*
X106526776Y-121439491D01*
X106693222Y-121370547D01*
X106869918Y-121335400D01*
X107050082Y-121335400D01*
X107226778Y-121370547D01*
G37*
G36*
X115959999Y-120449737D02*
G01*
X115969608Y-120452652D01*
X115978472Y-120457390D01*
X115986237Y-120463763D01*
X115992610Y-120471528D01*
X115997348Y-120480392D01*
X116000263Y-120490001D01*
X116001852Y-120506140D01*
X116001852Y-121493860D01*
X116000263Y-121509999D01*
X115997348Y-121519608D01*
X115992610Y-121528472D01*
X115978742Y-121545370D01*
X115978653Y-121545459D01*
X115978577Y-121545571D01*
X115978425Y-121545757D01*
X115978443Y-121545771D01*
X115964967Y-121565786D01*
X115955511Y-121588392D01*
X115950646Y-121612408D01*
X115950000Y-121625097D01*
X115950000Y-122550000D01*
X114450000Y-122550000D01*
X114450000Y-121625089D01*
X114447598Y-121600703D01*
X114440485Y-121577254D01*
X114428934Y-121555643D01*
X114421544Y-121545690D01*
X114413439Y-121535835D01*
X114407419Y-121528516D01*
X114402674Y-121519661D01*
X114400222Y-121511607D01*
X114399758Y-121510085D01*
X114399758Y-121510082D01*
X114399748Y-121510050D01*
X114398753Y-121500000D01*
X114398753Y-121499935D01*
X114398148Y-121493825D01*
X114398148Y-120506140D01*
X114399737Y-120490001D01*
X114402652Y-120480392D01*
X114407390Y-120471528D01*
X114413763Y-120463763D01*
X114421528Y-120457390D01*
X114430392Y-120452652D01*
X114440001Y-120449737D01*
X114456140Y-120448148D01*
X115943860Y-120448148D01*
X115959999Y-120449737D01*
G37*
G36*
X134501000Y-121651000D02*
G01*
X133499000Y-121651000D01*
X133499000Y-120749000D01*
X134501000Y-120749000D01*
X134501000Y-121651000D01*
G37*
G36*
X132629591Y-120553085D02*
G01*
X132663569Y-120563393D01*
X132694890Y-120580134D01*
X132722339Y-120602661D01*
X132744866Y-120630110D01*
X132761607Y-120661431D01*
X132771915Y-120695409D01*
X132776000Y-120736890D01*
X132776000Y-121338110D01*
X132771915Y-121379591D01*
X132761607Y-121413569D01*
X132744866Y-121444890D01*
X132722339Y-121472339D01*
X132694890Y-121494866D01*
X132663569Y-121511607D01*
X132629591Y-121521915D01*
X132588110Y-121526000D01*
X131911890Y-121526000D01*
X131870409Y-121521915D01*
X131836431Y-121511607D01*
X131805110Y-121494866D01*
X131777661Y-121472339D01*
X131755134Y-121444890D01*
X131738393Y-121413569D01*
X131728085Y-121379591D01*
X131724000Y-121338110D01*
X131724000Y-120736890D01*
X131728085Y-120695409D01*
X131738393Y-120661431D01*
X131755134Y-120630110D01*
X131777661Y-120602661D01*
X131805110Y-120580134D01*
X131836431Y-120563393D01*
X131870409Y-120553085D01*
X131911890Y-120549000D01*
X132588110Y-120549000D01*
X132629591Y-120553085D01*
G37*
G36*
X139459928Y-120806764D02*
G01*
X139481009Y-120813160D01*
X139500445Y-120823548D01*
X139517476Y-120837524D01*
X139531452Y-120854555D01*
X139541840Y-120873991D01*
X139548236Y-120895072D01*
X139551000Y-120923140D01*
X139551000Y-121386860D01*
X139548236Y-121414928D01*
X139541840Y-121436009D01*
X139531452Y-121455445D01*
X139517476Y-121472476D01*
X139500445Y-121486452D01*
X139481009Y-121496840D01*
X139459928Y-121503236D01*
X139431860Y-121506000D01*
X137618140Y-121506000D01*
X137590072Y-121503236D01*
X137568991Y-121496840D01*
X137549555Y-121486452D01*
X137532524Y-121472476D01*
X137518548Y-121455445D01*
X137508160Y-121436009D01*
X137501764Y-121414928D01*
X137499000Y-121386860D01*
X137499000Y-120923140D01*
X137501764Y-120895072D01*
X137508160Y-120873991D01*
X137518548Y-120854555D01*
X137532524Y-120837524D01*
X137549555Y-120823548D01*
X137568991Y-120813160D01*
X137590072Y-120806764D01*
X137618140Y-120804000D01*
X139431860Y-120804000D01*
X139459928Y-120806764D01*
G37*
G36*
X144409928Y-120806764D02*
G01*
X144431009Y-120813160D01*
X144450445Y-120823548D01*
X144467476Y-120837524D01*
X144481452Y-120854555D01*
X144491840Y-120873991D01*
X144498236Y-120895072D01*
X144501000Y-120923140D01*
X144501000Y-121386860D01*
X144498236Y-121414928D01*
X144491840Y-121436009D01*
X144481452Y-121455445D01*
X144467476Y-121472476D01*
X144450445Y-121486452D01*
X144431009Y-121496840D01*
X144409928Y-121503236D01*
X144381860Y-121506000D01*
X142568140Y-121506000D01*
X142540072Y-121503236D01*
X142518991Y-121496840D01*
X142499555Y-121486452D01*
X142482524Y-121472476D01*
X142468548Y-121455445D01*
X142458160Y-121436009D01*
X142451764Y-121414928D01*
X142449000Y-121386860D01*
X142449000Y-120923140D01*
X142451764Y-120895072D01*
X142458160Y-120873991D01*
X142468548Y-120854555D01*
X142482524Y-120837524D01*
X142499555Y-120823548D01*
X142518991Y-120813160D01*
X142540072Y-120806764D01*
X142568140Y-120804000D01*
X144381860Y-120804000D01*
X144409928Y-120806764D01*
G37*
G36*
X136501000Y-120701000D02*
G01*
X135499000Y-120701000D01*
X135499000Y-119799000D01*
X136501000Y-119799000D01*
X136501000Y-120701000D01*
G37*
G36*
X107226778Y-118830547D02*
G01*
X107393224Y-118899491D01*
X107543022Y-118999583D01*
X107670417Y-119126978D01*
X107770509Y-119276776D01*
X107839453Y-119443222D01*
X107874600Y-119619918D01*
X107874600Y-119800082D01*
X107839453Y-119976778D01*
X107770509Y-120143224D01*
X107670417Y-120293022D01*
X107543022Y-120420417D01*
X107393224Y-120520509D01*
X107226778Y-120589453D01*
X107050082Y-120624600D01*
X106869918Y-120624600D01*
X106693222Y-120589453D01*
X106526776Y-120520509D01*
X106376978Y-120420417D01*
X106249583Y-120293022D01*
X106149491Y-120143224D01*
X106080547Y-119976778D01*
X106045400Y-119800082D01*
X106045400Y-119619918D01*
X106080547Y-119443222D01*
X106149491Y-119276776D01*
X106249583Y-119126978D01*
X106376978Y-118999583D01*
X106526776Y-118899491D01*
X106693222Y-118830547D01*
X106869918Y-118795400D01*
X107050082Y-118795400D01*
X107226778Y-118830547D01*
G37*
G36*
X109766778Y-118830547D02*
G01*
X109933224Y-118899491D01*
X110083022Y-118999583D01*
X110210417Y-119126978D01*
X110310509Y-119276776D01*
X110379453Y-119443222D01*
X110414600Y-119619918D01*
X110414600Y-119800082D01*
X110379453Y-119976778D01*
X110310509Y-120143224D01*
X110210417Y-120293022D01*
X110083022Y-120420417D01*
X109933224Y-120520509D01*
X109766778Y-120589453D01*
X109590082Y-120624600D01*
X109409918Y-120624600D01*
X109233222Y-120589453D01*
X109066776Y-120520509D01*
X108916978Y-120420417D01*
X108789583Y-120293022D01*
X108689491Y-120143224D01*
X108620547Y-119976778D01*
X108585400Y-119800082D01*
X108585400Y-119619918D01*
X108620547Y-119443222D01*
X108689491Y-119276776D01*
X108789583Y-119126978D01*
X108916978Y-118999583D01*
X109066776Y-118899491D01*
X109233222Y-118830547D01*
X109409918Y-118795400D01*
X109590082Y-118795400D01*
X109766778Y-118830547D01*
G37*
G36*
X139459928Y-119536764D02*
G01*
X139481009Y-119543160D01*
X139500445Y-119553548D01*
X139517476Y-119567524D01*
X139531452Y-119584555D01*
X139541840Y-119603991D01*
X139548236Y-119625072D01*
X139551000Y-119653140D01*
X139551000Y-120116860D01*
X139548236Y-120144928D01*
X139541840Y-120166009D01*
X139531452Y-120185445D01*
X139517476Y-120202476D01*
X139500445Y-120216452D01*
X139481009Y-120226840D01*
X139459928Y-120233236D01*
X139431860Y-120236000D01*
X137618140Y-120236000D01*
X137590072Y-120233236D01*
X137568991Y-120226840D01*
X137549555Y-120216452D01*
X137532524Y-120202476D01*
X137518548Y-120185445D01*
X137508160Y-120166009D01*
X137501764Y-120144928D01*
X137499000Y-120116860D01*
X137499000Y-119653140D01*
X137501764Y-119625072D01*
X137508160Y-119603991D01*
X137518548Y-119584555D01*
X137532524Y-119567524D01*
X137549555Y-119553548D01*
X137568991Y-119543160D01*
X137590072Y-119536764D01*
X137618140Y-119534000D01*
X139431860Y-119534000D01*
X139459928Y-119536764D01*
G37*
G36*
X144409928Y-119536764D02*
G01*
X144431009Y-119543160D01*
X144450445Y-119553548D01*
X144467476Y-119567524D01*
X144481452Y-119584555D01*
X144491840Y-119603991D01*
X144498236Y-119625072D01*
X144501000Y-119653140D01*
X144501000Y-120116860D01*
X144498236Y-120144928D01*
X144491840Y-120166009D01*
X144481452Y-120185445D01*
X144467476Y-120202476D01*
X144450445Y-120216452D01*
X144431009Y-120226840D01*
X144409928Y-120233236D01*
X144381860Y-120236000D01*
X142568140Y-120236000D01*
X142540072Y-120233236D01*
X142518991Y-120226840D01*
X142499555Y-120216452D01*
X142482524Y-120202476D01*
X142468548Y-120185445D01*
X142458160Y-120166009D01*
X142451764Y-120144928D01*
X142449000Y-120116860D01*
X142449000Y-119653140D01*
X142451764Y-119625072D01*
X142458160Y-119603991D01*
X142468548Y-119584555D01*
X142482524Y-119567524D01*
X142499555Y-119553548D01*
X142518991Y-119543160D01*
X142540072Y-119536764D01*
X142568140Y-119534000D01*
X144381860Y-119534000D01*
X144409928Y-119536764D01*
G37*
G36*
X156261702Y-116903221D02*
G01*
X156488871Y-116948408D01*
X156793883Y-117074748D01*
X157068387Y-117258166D01*
X157301834Y-117491613D01*
X157485252Y-117766117D01*
X157611592Y-118071129D01*
X157628541Y-118156335D01*
X157676000Y-118394927D01*
X157676000Y-118725073D01*
X157662011Y-118795400D01*
X157611592Y-119048871D01*
X157485252Y-119353883D01*
X157301834Y-119628387D01*
X157068387Y-119861834D01*
X156793883Y-120045252D01*
X156488871Y-120171592D01*
X156341028Y-120201000D01*
X156165073Y-120236000D01*
X155834927Y-120236000D01*
X155658972Y-120201000D01*
X155511129Y-120171592D01*
X155206117Y-120045252D01*
X154931613Y-119861834D01*
X154698166Y-119628387D01*
X154514748Y-119353883D01*
X154388408Y-119048871D01*
X154337989Y-118795400D01*
X154324000Y-118725073D01*
X154324000Y-118394927D01*
X154371459Y-118156335D01*
X154388408Y-118071129D01*
X154514748Y-117766117D01*
X154698166Y-117491613D01*
X154931613Y-117258166D01*
X155206117Y-117074748D01*
X155511129Y-116948408D01*
X155738298Y-116903221D01*
X155834927Y-116884000D01*
X156165073Y-116884000D01*
X156261702Y-116903221D01*
G37*
G36*
X132629591Y-118978085D02*
G01*
X132663569Y-118988393D01*
X132694890Y-119005134D01*
X132722339Y-119027661D01*
X132744866Y-119055110D01*
X132761607Y-119086431D01*
X132771915Y-119120409D01*
X132776000Y-119161890D01*
X132776000Y-119763110D01*
X132771915Y-119804591D01*
X132761607Y-119838569D01*
X132744866Y-119869890D01*
X132722339Y-119897339D01*
X132694890Y-119919866D01*
X132663569Y-119936607D01*
X132629591Y-119946915D01*
X132588110Y-119951000D01*
X131911890Y-119951000D01*
X131870409Y-119946915D01*
X131836431Y-119936607D01*
X131805110Y-119919866D01*
X131777661Y-119897339D01*
X131755134Y-119869890D01*
X131738393Y-119838569D01*
X131728085Y-119804591D01*
X131724000Y-119763110D01*
X131724000Y-119161890D01*
X131728085Y-119120409D01*
X131738393Y-119086431D01*
X131755134Y-119055110D01*
X131777661Y-119027661D01*
X131805110Y-119005134D01*
X131836431Y-118988393D01*
X131870409Y-118978085D01*
X131911890Y-118974000D01*
X132588110Y-118974000D01*
X132629591Y-118978085D01*
G37*
G36*
X134501000Y-119751000D02*
G01*
X133499000Y-119751000D01*
X133499000Y-118849000D01*
X134501000Y-118849000D01*
X134501000Y-119751000D01*
G37*
G36*
X116000000Y-118374911D02*
G01*
X116002402Y-118399297D01*
X116009515Y-118422746D01*
X116021066Y-118444357D01*
X116028456Y-118454310D01*
X116036199Y-118463725D01*
X116042581Y-118471484D01*
X116047326Y-118480339D01*
X116047326Y-118480340D01*
X116050242Y-118489915D01*
X116050242Y-118489918D01*
X116050252Y-118489950D01*
X116051247Y-118500000D01*
X116051247Y-118500065D01*
X116051852Y-118506175D01*
X116051852Y-119493860D01*
X116050263Y-119509999D01*
X116047348Y-119519608D01*
X116042610Y-119528472D01*
X116036237Y-119536237D01*
X116028472Y-119542610D01*
X116019608Y-119547348D01*
X116009999Y-119550263D01*
X115993860Y-119551852D01*
X114506140Y-119551852D01*
X114490001Y-119550263D01*
X114480392Y-119547348D01*
X114471528Y-119542610D01*
X114463763Y-119536237D01*
X114457390Y-119528472D01*
X114452652Y-119519608D01*
X114449737Y-119509999D01*
X114448148Y-119493860D01*
X114448148Y-118506140D01*
X114449737Y-118490001D01*
X114452652Y-118480392D01*
X114457390Y-118471528D01*
X114471258Y-118454630D01*
X114471347Y-118454541D01*
X114471423Y-118454429D01*
X114471575Y-118454243D01*
X114471557Y-118454229D01*
X114485033Y-118434214D01*
X114494489Y-118411608D01*
X114499354Y-118387592D01*
X114500000Y-118374903D01*
X114500000Y-117450000D01*
X116000000Y-117450000D01*
X116000000Y-118374911D01*
G37*
G36*
X144409928Y-118266764D02*
G01*
X144431009Y-118273160D01*
X144450445Y-118283548D01*
X144467476Y-118297524D01*
X144481452Y-118314555D01*
X144491840Y-118333991D01*
X144498236Y-118355072D01*
X144501000Y-118383140D01*
X144501000Y-118846860D01*
X144498236Y-118874928D01*
X144491840Y-118896009D01*
X144481452Y-118915445D01*
X144467476Y-118932476D01*
X144450445Y-118946452D01*
X144431009Y-118956840D01*
X144409928Y-118963236D01*
X144381860Y-118966000D01*
X142568140Y-118966000D01*
X142540072Y-118963236D01*
X142518991Y-118956840D01*
X142499555Y-118946452D01*
X142482524Y-118932476D01*
X142468548Y-118915445D01*
X142458160Y-118896009D01*
X142451764Y-118874928D01*
X142449000Y-118846860D01*
X142449000Y-118383140D01*
X142451764Y-118355072D01*
X142458160Y-118333991D01*
X142468548Y-118314555D01*
X142482524Y-118297524D01*
X142499555Y-118283548D01*
X142518991Y-118273160D01*
X142540072Y-118266764D01*
X142568140Y-118264000D01*
X144381860Y-118264000D01*
X144409928Y-118266764D01*
G37*
G36*
X139459928Y-118266764D02*
G01*
X139481009Y-118273160D01*
X139500445Y-118283548D01*
X139517476Y-118297524D01*
X139531452Y-118314555D01*
X139541840Y-118333991D01*
X139548236Y-118355072D01*
X139551000Y-118383140D01*
X139551000Y-118846860D01*
X139548236Y-118874928D01*
X139541840Y-118896009D01*
X139531452Y-118915445D01*
X139517476Y-118932476D01*
X139500445Y-118946452D01*
X139481009Y-118956840D01*
X139459928Y-118963236D01*
X139431860Y-118966000D01*
X137618140Y-118966000D01*
X137590072Y-118963236D01*
X137568991Y-118956840D01*
X137549555Y-118946452D01*
X137532524Y-118932476D01*
X137518548Y-118915445D01*
X137508160Y-118896009D01*
X137501764Y-118874928D01*
X137499000Y-118846860D01*
X137499000Y-118383140D01*
X137501764Y-118355072D01*
X137508160Y-118333991D01*
X137518548Y-118314555D01*
X137532524Y-118297524D01*
X137549555Y-118283548D01*
X137568991Y-118273160D01*
X137590072Y-118266764D01*
X137618140Y-118264000D01*
X139431860Y-118264000D01*
X139459928Y-118266764D01*
G37*
G36*
X132639591Y-117503085D02*
G01*
X132673569Y-117513393D01*
X132704890Y-117530134D01*
X132732339Y-117552661D01*
X132754866Y-117580110D01*
X132771607Y-117611431D01*
X132781915Y-117645409D01*
X132786000Y-117686890D01*
X132786000Y-118288110D01*
X132781915Y-118329591D01*
X132771607Y-118363569D01*
X132754866Y-118394890D01*
X132732339Y-118422339D01*
X132704890Y-118444866D01*
X132673569Y-118461607D01*
X132639591Y-118471915D01*
X132598110Y-118476000D01*
X131921890Y-118476000D01*
X131880409Y-118471915D01*
X131846431Y-118461607D01*
X131815110Y-118444866D01*
X131787661Y-118422339D01*
X131765134Y-118394890D01*
X131748393Y-118363569D01*
X131738085Y-118329591D01*
X131734000Y-118288110D01*
X131734000Y-117686890D01*
X131738085Y-117645409D01*
X131748393Y-117611431D01*
X131765134Y-117580110D01*
X131787661Y-117552661D01*
X131815110Y-117530134D01*
X131846431Y-117513393D01*
X131880409Y-117503085D01*
X131921890Y-117499000D01*
X132598110Y-117499000D01*
X132639591Y-117503085D01*
G37*
G36*
X107226778Y-116290547D02*
G01*
X107393224Y-116359491D01*
X107543022Y-116459583D01*
X107670417Y-116586978D01*
X107770509Y-116736776D01*
X107839453Y-116903222D01*
X107874600Y-117079918D01*
X107874600Y-117260082D01*
X107839453Y-117436778D01*
X107770509Y-117603224D01*
X107670417Y-117753022D01*
X107543022Y-117880417D01*
X107393224Y-117980509D01*
X107226778Y-118049453D01*
X107050082Y-118084600D01*
X106869918Y-118084600D01*
X106693222Y-118049453D01*
X106526776Y-117980509D01*
X106376978Y-117880417D01*
X106249583Y-117753022D01*
X106149491Y-117603224D01*
X106080547Y-117436778D01*
X106045400Y-117260082D01*
X106045400Y-117079918D01*
X106080547Y-116903222D01*
X106149491Y-116736776D01*
X106249583Y-116586978D01*
X106376978Y-116459583D01*
X106526776Y-116359491D01*
X106693222Y-116290547D01*
X106869918Y-116255400D01*
X107050082Y-116255400D01*
X107226778Y-116290547D01*
G37*
G36*
X109766778Y-116290547D02*
G01*
X109933224Y-116359491D01*
X110083022Y-116459583D01*
X110210417Y-116586978D01*
X110310509Y-116736776D01*
X110379453Y-116903222D01*
X110414600Y-117079918D01*
X110414600Y-117260082D01*
X110379453Y-117436778D01*
X110310509Y-117603224D01*
X110210417Y-117753022D01*
X110083022Y-117880417D01*
X109933224Y-117980509D01*
X109766778Y-118049453D01*
X109590082Y-118084600D01*
X109409918Y-118084600D01*
X109233222Y-118049453D01*
X109066776Y-117980509D01*
X108916978Y-117880417D01*
X108789583Y-117753022D01*
X108689491Y-117603224D01*
X108620547Y-117436778D01*
X108585400Y-117260082D01*
X108585400Y-117079918D01*
X108620547Y-116903222D01*
X108689491Y-116736776D01*
X108789583Y-116586978D01*
X108916978Y-116459583D01*
X109066776Y-116359491D01*
X109233222Y-116290547D01*
X109409918Y-116255400D01*
X109590082Y-116255400D01*
X109766778Y-116290547D01*
G37*
G36*
X134804591Y-116978085D02*
G01*
X134838569Y-116988393D01*
X134869890Y-117005134D01*
X134897339Y-117027661D01*
X134919866Y-117055110D01*
X134936607Y-117086431D01*
X134946915Y-117120409D01*
X134951000Y-117161890D01*
X134951000Y-117838110D01*
X134946915Y-117879591D01*
X134936607Y-117913569D01*
X134919866Y-117944890D01*
X134897339Y-117972339D01*
X134869890Y-117994866D01*
X134838569Y-118011607D01*
X134804591Y-118021915D01*
X134763110Y-118026000D01*
X134161890Y-118026000D01*
X134120409Y-118021915D01*
X134086431Y-118011607D01*
X134055110Y-117994866D01*
X134027661Y-117972339D01*
X134005134Y-117944890D01*
X133988393Y-117913569D01*
X133978085Y-117879591D01*
X133974000Y-117838110D01*
X133974000Y-117161890D01*
X133978085Y-117120409D01*
X133988393Y-117086431D01*
X134005134Y-117055110D01*
X134027661Y-117027661D01*
X134055110Y-117005134D01*
X134086431Y-116988393D01*
X134120409Y-116978085D01*
X134161890Y-116974000D01*
X134763110Y-116974000D01*
X134804591Y-116978085D01*
G37*
G36*
X136379591Y-116978085D02*
G01*
X136413569Y-116988393D01*
X136444890Y-117005134D01*
X136472339Y-117027661D01*
X136494866Y-117055110D01*
X136511607Y-117086431D01*
X136521915Y-117120409D01*
X136526000Y-117161890D01*
X136526000Y-117838110D01*
X136521915Y-117879591D01*
X136511607Y-117913569D01*
X136494866Y-117944890D01*
X136472339Y-117972339D01*
X136444890Y-117994866D01*
X136413569Y-118011607D01*
X136379591Y-118021915D01*
X136338110Y-118026000D01*
X135736890Y-118026000D01*
X135695409Y-118021915D01*
X135661431Y-118011607D01*
X135630110Y-117994866D01*
X135602661Y-117972339D01*
X135580134Y-117944890D01*
X135563393Y-117913569D01*
X135553085Y-117879591D01*
X135549000Y-117838110D01*
X135549000Y-117161890D01*
X135553085Y-117120409D01*
X135563393Y-117086431D01*
X135580134Y-117055110D01*
X135602661Y-117027661D01*
X135630110Y-117005134D01*
X135661431Y-116988393D01*
X135695409Y-116978085D01*
X135736890Y-116974000D01*
X136338110Y-116974000D01*
X136379591Y-116978085D01*
G37*
G36*
X144409928Y-116996764D02*
G01*
X144431009Y-117003160D01*
X144450445Y-117013548D01*
X144467476Y-117027524D01*
X144481452Y-117044555D01*
X144491840Y-117063991D01*
X144498236Y-117085072D01*
X144501000Y-117113140D01*
X144501000Y-117576860D01*
X144498236Y-117604928D01*
X144491840Y-117626009D01*
X144481452Y-117645445D01*
X144467476Y-117662476D01*
X144450445Y-117676452D01*
X144431009Y-117686840D01*
X144409928Y-117693236D01*
X144381860Y-117696000D01*
X142568140Y-117696000D01*
X142540072Y-117693236D01*
X142518991Y-117686840D01*
X142499555Y-117676452D01*
X142482524Y-117662476D01*
X142468548Y-117645445D01*
X142458160Y-117626009D01*
X142451764Y-117604928D01*
X142449000Y-117576860D01*
X142449000Y-117113140D01*
X142451764Y-117085072D01*
X142458160Y-117063991D01*
X142468548Y-117044555D01*
X142482524Y-117027524D01*
X142499555Y-117013548D01*
X142518991Y-117003160D01*
X142540072Y-116996764D01*
X142568140Y-116994000D01*
X144381860Y-116994000D01*
X144409928Y-116996764D01*
G37*
G36*
X139459928Y-116996764D02*
G01*
X139481009Y-117003160D01*
X139500445Y-117013548D01*
X139517476Y-117027524D01*
X139531452Y-117044555D01*
X139541840Y-117063991D01*
X139548236Y-117085072D01*
X139551000Y-117113140D01*
X139551000Y-117576860D01*
X139548236Y-117604928D01*
X139541840Y-117626009D01*
X139531452Y-117645445D01*
X139517476Y-117662476D01*
X139500445Y-117676452D01*
X139481009Y-117686840D01*
X139459928Y-117693236D01*
X139431860Y-117696000D01*
X137618140Y-117696000D01*
X137590072Y-117693236D01*
X137568991Y-117686840D01*
X137549555Y-117676452D01*
X137532524Y-117662476D01*
X137518548Y-117645445D01*
X137508160Y-117626009D01*
X137501764Y-117604928D01*
X137499000Y-117576860D01*
X137499000Y-117113140D01*
X137501764Y-117085072D01*
X137508160Y-117063991D01*
X137518548Y-117044555D01*
X137532524Y-117027524D01*
X137549555Y-117013548D01*
X137568991Y-117003160D01*
X137590072Y-116996764D01*
X137618140Y-116994000D01*
X139431860Y-116994000D01*
X139459928Y-116996764D01*
G37*
G36*
X149927395Y-115735546D02*
G01*
X150100466Y-115807234D01*
X150149749Y-115840164D01*
X150256227Y-115911310D01*
X150388690Y-116043773D01*
X150434204Y-116111890D01*
X150492766Y-116199534D01*
X150564454Y-116372605D01*
X150601000Y-116556333D01*
X150601000Y-116743667D01*
X150564454Y-116927395D01*
X150492766Y-117100466D01*
X150492765Y-117100467D01*
X150388690Y-117256227D01*
X150256227Y-117388690D01*
X150184258Y-117436778D01*
X150100466Y-117492766D01*
X149927395Y-117564454D01*
X149743667Y-117601000D01*
X149556333Y-117601000D01*
X149372605Y-117564454D01*
X149199534Y-117492766D01*
X149115742Y-117436778D01*
X149043773Y-117388690D01*
X148911310Y-117256227D01*
X148807235Y-117100467D01*
X148807234Y-117100466D01*
X148735546Y-116927395D01*
X148699000Y-116743667D01*
X148699000Y-116556333D01*
X148735546Y-116372605D01*
X148807234Y-116199534D01*
X148865796Y-116111890D01*
X148911310Y-116043773D01*
X149043773Y-115911310D01*
X149150251Y-115840164D01*
X149199534Y-115807234D01*
X149372605Y-115735546D01*
X149556333Y-115699000D01*
X149743667Y-115699000D01*
X149927395Y-115735546D01*
G37*
G36*
X121920295Y-115800323D02*
G01*
X121927309Y-115802451D01*
X121941077Y-115809810D01*
X121963716Y-115819187D01*
X121987749Y-115823967D01*
X122012253Y-115823967D01*
X122036286Y-115819186D01*
X122058923Y-115809810D01*
X122072691Y-115802451D01*
X122079705Y-115800323D01*
X122093140Y-115799000D01*
X122406860Y-115799000D01*
X122420295Y-115800323D01*
X122427309Y-115802451D01*
X122441077Y-115809810D01*
X122463716Y-115819187D01*
X122487749Y-115823967D01*
X122512253Y-115823967D01*
X122536286Y-115819186D01*
X122558923Y-115809810D01*
X122572691Y-115802451D01*
X122579705Y-115800323D01*
X122593140Y-115799000D01*
X122906860Y-115799000D01*
X122920295Y-115800323D01*
X122927309Y-115802451D01*
X122941077Y-115809810D01*
X122963716Y-115819187D01*
X122987749Y-115823967D01*
X123012253Y-115823967D01*
X123036286Y-115819186D01*
X123058923Y-115809810D01*
X123072691Y-115802451D01*
X123079705Y-115800323D01*
X123093140Y-115799000D01*
X123406860Y-115799000D01*
X123420295Y-115800323D01*
X123427309Y-115802451D01*
X123441077Y-115809810D01*
X123463716Y-115819187D01*
X123487749Y-115823967D01*
X123512253Y-115823967D01*
X123536286Y-115819186D01*
X123558923Y-115809810D01*
X123572691Y-115802451D01*
X123579705Y-115800323D01*
X123593140Y-115799000D01*
X123906860Y-115799000D01*
X123920295Y-115800323D01*
X123927309Y-115802451D01*
X123941077Y-115809810D01*
X123963716Y-115819187D01*
X123987749Y-115823967D01*
X124012253Y-115823967D01*
X124036286Y-115819186D01*
X124058923Y-115809810D01*
X124072691Y-115802451D01*
X124079705Y-115800323D01*
X124093140Y-115799000D01*
X124406860Y-115799000D01*
X124420295Y-115800323D01*
X124427309Y-115802451D01*
X124441077Y-115809810D01*
X124463716Y-115819187D01*
X124487749Y-115823967D01*
X124512253Y-115823967D01*
X124536286Y-115819186D01*
X124558923Y-115809810D01*
X124572691Y-115802451D01*
X124579705Y-115800323D01*
X124593140Y-115799000D01*
X124906860Y-115799000D01*
X124920295Y-115800323D01*
X124927309Y-115802451D01*
X124941077Y-115809810D01*
X124963716Y-115819187D01*
X124987749Y-115823967D01*
X125012253Y-115823967D01*
X125036286Y-115819186D01*
X125058923Y-115809810D01*
X125072691Y-115802451D01*
X125079705Y-115800323D01*
X125093140Y-115799000D01*
X125406860Y-115799000D01*
X125420295Y-115800323D01*
X125427309Y-115802451D01*
X125441077Y-115809810D01*
X125463716Y-115819187D01*
X125487749Y-115823967D01*
X125512253Y-115823967D01*
X125536286Y-115819186D01*
X125558923Y-115809810D01*
X125572691Y-115802451D01*
X125579705Y-115800323D01*
X125593140Y-115799000D01*
X125906860Y-115799000D01*
X125920295Y-115800323D01*
X125927309Y-115802451D01*
X125941077Y-115809810D01*
X125963716Y-115819187D01*
X125987749Y-115823967D01*
X126012253Y-115823967D01*
X126036286Y-115819186D01*
X126058923Y-115809810D01*
X126072691Y-115802451D01*
X126079705Y-115800323D01*
X126093140Y-115799000D01*
X126406860Y-115799000D01*
X126420295Y-115800323D01*
X126427309Y-115802451D01*
X126441077Y-115809810D01*
X126463716Y-115819187D01*
X126487749Y-115823967D01*
X126512253Y-115823967D01*
X126536286Y-115819186D01*
X126558923Y-115809810D01*
X126572691Y-115802451D01*
X126579705Y-115800323D01*
X126593140Y-115799000D01*
X126906860Y-115799000D01*
X126920295Y-115800323D01*
X126927309Y-115802451D01*
X126941077Y-115809810D01*
X126963716Y-115819187D01*
X126987749Y-115823967D01*
X127012253Y-115823967D01*
X127036286Y-115819186D01*
X127058923Y-115809810D01*
X127072691Y-115802451D01*
X127079705Y-115800323D01*
X127093140Y-115799000D01*
X127406860Y-115799000D01*
X127420295Y-115800323D01*
X127427310Y-115802451D01*
X127433776Y-115805908D01*
X127439442Y-115810558D01*
X127444092Y-115816224D01*
X127447549Y-115822690D01*
X127449677Y-115829705D01*
X127451000Y-115843140D01*
X127451000Y-117331860D01*
X127449677Y-117345295D01*
X127447549Y-117352310D01*
X127444092Y-117358776D01*
X127439442Y-117364442D01*
X127433776Y-117369092D01*
X127427310Y-117372549D01*
X127420295Y-117374677D01*
X127406860Y-117376000D01*
X127093140Y-117376000D01*
X127079705Y-117374677D01*
X127072691Y-117372549D01*
X127058923Y-117365190D01*
X127036284Y-117355813D01*
X127012251Y-117351033D01*
X126987747Y-117351033D01*
X126963714Y-117355814D01*
X126941077Y-117365190D01*
X126927309Y-117372549D01*
X126920295Y-117374677D01*
X126906860Y-117376000D01*
X126593140Y-117376000D01*
X126579705Y-117374677D01*
X126572691Y-117372549D01*
X126558923Y-117365190D01*
X126536284Y-117355813D01*
X126512251Y-117351033D01*
X126487747Y-117351033D01*
X126463714Y-117355814D01*
X126441077Y-117365190D01*
X126427309Y-117372549D01*
X126420295Y-117374677D01*
X126406860Y-117376000D01*
X126093140Y-117376000D01*
X126079705Y-117374677D01*
X126072691Y-117372549D01*
X126058923Y-117365190D01*
X126036284Y-117355813D01*
X126012251Y-117351033D01*
X125987747Y-117351033D01*
X125963714Y-117355814D01*
X125941077Y-117365190D01*
X125927309Y-117372549D01*
X125920295Y-117374677D01*
X125906860Y-117376000D01*
X125593140Y-117376000D01*
X125579705Y-117374677D01*
X125572691Y-117372549D01*
X125558923Y-117365190D01*
X125536284Y-117355813D01*
X125512251Y-117351033D01*
X125487747Y-117351033D01*
X125463714Y-117355814D01*
X125441077Y-117365190D01*
X125427309Y-117372549D01*
X125420295Y-117374677D01*
X125406860Y-117376000D01*
X125093140Y-117376000D01*
X125079705Y-117374677D01*
X125072691Y-117372549D01*
X125058923Y-117365190D01*
X125036284Y-117355813D01*
X125012251Y-117351033D01*
X124987747Y-117351033D01*
X124963714Y-117355814D01*
X124941077Y-117365190D01*
X124927309Y-117372549D01*
X124920295Y-117374677D01*
X124906860Y-117376000D01*
X124593140Y-117376000D01*
X124579705Y-117374677D01*
X124572691Y-117372549D01*
X124558923Y-117365190D01*
X124536284Y-117355813D01*
X124512251Y-117351033D01*
X124487747Y-117351033D01*
X124463714Y-117355814D01*
X124441077Y-117365190D01*
X124427309Y-117372549D01*
X124420295Y-117374677D01*
X124406860Y-117376000D01*
X124093140Y-117376000D01*
X124079705Y-117374677D01*
X124072691Y-117372549D01*
X124058923Y-117365190D01*
X124036284Y-117355813D01*
X124012251Y-117351033D01*
X123987747Y-117351033D01*
X123963714Y-117355814D01*
X123941077Y-117365190D01*
X123927309Y-117372549D01*
X123920295Y-117374677D01*
X123906860Y-117376000D01*
X123593140Y-117376000D01*
X123579705Y-117374677D01*
X123572691Y-117372549D01*
X123558923Y-117365190D01*
X123536284Y-117355813D01*
X123512251Y-117351033D01*
X123487747Y-117351033D01*
X123463714Y-117355814D01*
X123441077Y-117365190D01*
X123427309Y-117372549D01*
X123420295Y-117374677D01*
X123406860Y-117376000D01*
X123093140Y-117376000D01*
X123079705Y-117374677D01*
X123072691Y-117372549D01*
X123058923Y-117365190D01*
X123036284Y-117355813D01*
X123012251Y-117351033D01*
X122987747Y-117351033D01*
X122963714Y-117355814D01*
X122941077Y-117365190D01*
X122927309Y-117372549D01*
X122920295Y-117374677D01*
X122906860Y-117376000D01*
X122593140Y-117376000D01*
X122579705Y-117374677D01*
X122572691Y-117372549D01*
X122558923Y-117365190D01*
X122536284Y-117355813D01*
X122512251Y-117351033D01*
X122487747Y-117351033D01*
X122463714Y-117355814D01*
X122441077Y-117365190D01*
X122427309Y-117372549D01*
X122420295Y-117374677D01*
X122406860Y-117376000D01*
X122093140Y-117376000D01*
X122079705Y-117374677D01*
X122072691Y-117372549D01*
X122058923Y-117365190D01*
X122036284Y-117355813D01*
X122012251Y-117351033D01*
X121987747Y-117351033D01*
X121963714Y-117355814D01*
X121941077Y-117365190D01*
X121927309Y-117372549D01*
X121920295Y-117374677D01*
X121906860Y-117376000D01*
X121593140Y-117376000D01*
X121579705Y-117374677D01*
X121572690Y-117372549D01*
X121566224Y-117369092D01*
X121560558Y-117364442D01*
X121555908Y-117358776D01*
X121552451Y-117352310D01*
X121550323Y-117345295D01*
X121549000Y-117331860D01*
X121549000Y-115843140D01*
X121550323Y-115829705D01*
X121552451Y-115822690D01*
X121555908Y-115816224D01*
X121560558Y-115810558D01*
X121566224Y-115805908D01*
X121572690Y-115802451D01*
X121579705Y-115800323D01*
X121593140Y-115799000D01*
X121906860Y-115799000D01*
X121920295Y-115800323D01*
G37*
G36*
X129379591Y-116053085D02*
G01*
X129413569Y-116063393D01*
X129444890Y-116080134D01*
X129472339Y-116102661D01*
X129494866Y-116130110D01*
X129511607Y-116161431D01*
X129521915Y-116195409D01*
X129526000Y-116236890D01*
X129526000Y-116838110D01*
X129521915Y-116879591D01*
X129511607Y-116913569D01*
X129494866Y-116944890D01*
X129472339Y-116972339D01*
X129444890Y-116994866D01*
X129413569Y-117011607D01*
X129379591Y-117021915D01*
X129338110Y-117026000D01*
X128661890Y-117026000D01*
X128620409Y-117021915D01*
X128586431Y-117011607D01*
X128555110Y-116994866D01*
X128527661Y-116972339D01*
X128505134Y-116944890D01*
X128488393Y-116913569D01*
X128478085Y-116879591D01*
X128474000Y-116838110D01*
X128474000Y-116236890D01*
X128478085Y-116195409D01*
X128488393Y-116161431D01*
X128505134Y-116130110D01*
X128527661Y-116102661D01*
X128555110Y-116080134D01*
X128586431Y-116063393D01*
X128620409Y-116053085D01*
X128661890Y-116049000D01*
X129338110Y-116049000D01*
X129379591Y-116053085D01*
G37*
G36*
X132639591Y-115928085D02*
G01*
X132673569Y-115938393D01*
X132704890Y-115955134D01*
X132732339Y-115977661D01*
X132754866Y-116005110D01*
X132771607Y-116036431D01*
X132781915Y-116070409D01*
X132786000Y-116111890D01*
X132786000Y-116713110D01*
X132781915Y-116754591D01*
X132771607Y-116788569D01*
X132754866Y-116819890D01*
X132732339Y-116847339D01*
X132704890Y-116869866D01*
X132673569Y-116886607D01*
X132639591Y-116896915D01*
X132598110Y-116901000D01*
X131921890Y-116901000D01*
X131880409Y-116896915D01*
X131846431Y-116886607D01*
X131815110Y-116869866D01*
X131787661Y-116847339D01*
X131765134Y-116819890D01*
X131748393Y-116788569D01*
X131738085Y-116754591D01*
X131734000Y-116713110D01*
X131734000Y-116111890D01*
X131738085Y-116070409D01*
X131748393Y-116036431D01*
X131765134Y-116005110D01*
X131787661Y-115977661D01*
X131815110Y-115955134D01*
X131846431Y-115938393D01*
X131880409Y-115928085D01*
X131921890Y-115924000D01*
X132598110Y-115924000D01*
X132639591Y-115928085D01*
G37*
G36*
X120629591Y-115803085D02*
G01*
X120663569Y-115813393D01*
X120694890Y-115830134D01*
X120722339Y-115852661D01*
X120744866Y-115880110D01*
X120761607Y-115911431D01*
X120771915Y-115945409D01*
X120776000Y-115986890D01*
X120776000Y-116588110D01*
X120771915Y-116629591D01*
X120761607Y-116663569D01*
X120744866Y-116694890D01*
X120722339Y-116722339D01*
X120694890Y-116744866D01*
X120663569Y-116761607D01*
X120629591Y-116771915D01*
X120588110Y-116776000D01*
X119911890Y-116776000D01*
X119870409Y-116771915D01*
X119836431Y-116761607D01*
X119805110Y-116744866D01*
X119777661Y-116722339D01*
X119755134Y-116694890D01*
X119738393Y-116663569D01*
X119728085Y-116629591D01*
X119724000Y-116588110D01*
X119724000Y-115986890D01*
X119728085Y-115945409D01*
X119738393Y-115911431D01*
X119755134Y-115880110D01*
X119777661Y-115852661D01*
X119805110Y-115830134D01*
X119836431Y-115813393D01*
X119870409Y-115803085D01*
X119911890Y-115799000D01*
X120588110Y-115799000D01*
X120629591Y-115803085D01*
G37*
G36*
X116009999Y-114449737D02*
G01*
X116019608Y-114452652D01*
X116028472Y-114457390D01*
X116036237Y-114463763D01*
X116042610Y-114471528D01*
X116047348Y-114480392D01*
X116050263Y-114490001D01*
X116051852Y-114506140D01*
X116051852Y-115493860D01*
X116050263Y-115509999D01*
X116047348Y-115519608D01*
X116042610Y-115528472D01*
X116028742Y-115545370D01*
X116028653Y-115545459D01*
X116028577Y-115545571D01*
X116028425Y-115545757D01*
X116028443Y-115545771D01*
X116014967Y-115565786D01*
X116005511Y-115588392D01*
X116000646Y-115612408D01*
X116000000Y-115625089D01*
X116000000Y-116550000D01*
X114500000Y-116550000D01*
X114500000Y-115625089D01*
X114497598Y-115600703D01*
X114490485Y-115577254D01*
X114478934Y-115555643D01*
X114471544Y-115545690D01*
X114463439Y-115535835D01*
X114457419Y-115528516D01*
X114452674Y-115519661D01*
X114451749Y-115516623D01*
X114449758Y-115510085D01*
X114449758Y-115510082D01*
X114449748Y-115510050D01*
X114448753Y-115500000D01*
X114448753Y-115499935D01*
X114448148Y-115493825D01*
X114448148Y-114506140D01*
X114449737Y-114490001D01*
X114452652Y-114480392D01*
X114457390Y-114471528D01*
X114463763Y-114463763D01*
X114471528Y-114457390D01*
X114480392Y-114452652D01*
X114490001Y-114449737D01*
X114506140Y-114448148D01*
X115993860Y-114448148D01*
X116009999Y-114449737D01*
G37*
G36*
X147387395Y-114465546D02*
G01*
X147560466Y-114537234D01*
X147602338Y-114565212D01*
X147716227Y-114641310D01*
X147848690Y-114773773D01*
X147848691Y-114773775D01*
X147952766Y-114929534D01*
X148024454Y-115102605D01*
X148061000Y-115286333D01*
X148061000Y-115473667D01*
X148024454Y-115657395D01*
X147952766Y-115830466D01*
X147937936Y-115852661D01*
X147848690Y-115986227D01*
X147716227Y-116118690D01*
X147652260Y-116161431D01*
X147560466Y-116222766D01*
X147387395Y-116294454D01*
X147203667Y-116331000D01*
X147016333Y-116331000D01*
X146832605Y-116294454D01*
X146659534Y-116222766D01*
X146567740Y-116161431D01*
X146503773Y-116118690D01*
X146371310Y-115986227D01*
X146282064Y-115852661D01*
X146267234Y-115830466D01*
X146195546Y-115657395D01*
X146159000Y-115473667D01*
X146159000Y-115286333D01*
X146195546Y-115102605D01*
X146267234Y-114929534D01*
X146371309Y-114773775D01*
X146371310Y-114773773D01*
X146503773Y-114641310D01*
X146617662Y-114565212D01*
X146659534Y-114537234D01*
X146832605Y-114465546D01*
X147016333Y-114429000D01*
X147203667Y-114429000D01*
X147387395Y-114465546D01*
G37*
G36*
X109766778Y-113750547D02*
G01*
X109933224Y-113819491D01*
X110083022Y-113919583D01*
X110210417Y-114046978D01*
X110310509Y-114196776D01*
X110379453Y-114363222D01*
X110414600Y-114539918D01*
X110414600Y-114720082D01*
X110379453Y-114896778D01*
X110310509Y-115063224D01*
X110210417Y-115213022D01*
X110083022Y-115340417D01*
X109933224Y-115440509D01*
X109766778Y-115509453D01*
X109590082Y-115544600D01*
X109409918Y-115544600D01*
X109233222Y-115509453D01*
X109066776Y-115440509D01*
X108916978Y-115340417D01*
X108789583Y-115213022D01*
X108689491Y-115063224D01*
X108620547Y-114896778D01*
X108585400Y-114720082D01*
X108585400Y-114539918D01*
X108620547Y-114363222D01*
X108689491Y-114196776D01*
X108789583Y-114046978D01*
X108916978Y-113919583D01*
X109066776Y-113819491D01*
X109233222Y-113750547D01*
X109409918Y-113715400D01*
X109590082Y-113715400D01*
X109766778Y-113750547D01*
G37*
G36*
X107226778Y-113750547D02*
G01*
X107393224Y-113819491D01*
X107543022Y-113919583D01*
X107670417Y-114046978D01*
X107770509Y-114196776D01*
X107839453Y-114363222D01*
X107874600Y-114539918D01*
X107874600Y-114720082D01*
X107839453Y-114896778D01*
X107770509Y-115063224D01*
X107670417Y-115213022D01*
X107543022Y-115340417D01*
X107393224Y-115440509D01*
X107226778Y-115509453D01*
X107050082Y-115544600D01*
X106869918Y-115544600D01*
X106693222Y-115509453D01*
X106526776Y-115440509D01*
X106376978Y-115340417D01*
X106249583Y-115213022D01*
X106149491Y-115063224D01*
X106080547Y-114896778D01*
X106045400Y-114720082D01*
X106045400Y-114539918D01*
X106080547Y-114363222D01*
X106149491Y-114196776D01*
X106249583Y-114046978D01*
X106376978Y-113919583D01*
X106526776Y-113819491D01*
X106693222Y-113750547D01*
X106869918Y-113715400D01*
X107050082Y-113715400D01*
X107226778Y-113750547D01*
G37*
G36*
X144084468Y-114403565D02*
G01*
X144123138Y-114415296D01*
X144158777Y-114434346D01*
X144190017Y-114459983D01*
X144215654Y-114491223D01*
X144234704Y-114526862D01*
X144246435Y-114565532D01*
X144251000Y-114611888D01*
X144251000Y-115263112D01*
X144246435Y-115309468D01*
X144234704Y-115348138D01*
X144215654Y-115383777D01*
X144190017Y-115415017D01*
X144158777Y-115440654D01*
X144123138Y-115459704D01*
X144084468Y-115471435D01*
X144038112Y-115476000D01*
X142961888Y-115476000D01*
X142915532Y-115471435D01*
X142876862Y-115459704D01*
X142841223Y-115440654D01*
X142809983Y-115415017D01*
X142784346Y-115383777D01*
X142765296Y-115348138D01*
X142753565Y-115309468D01*
X142749000Y-115263112D01*
X142749000Y-114611888D01*
X142753565Y-114565532D01*
X142765296Y-114526862D01*
X142784346Y-114491223D01*
X142809983Y-114459983D01*
X142841223Y-114434346D01*
X142876862Y-114415296D01*
X142915532Y-114403565D01*
X142961888Y-114399000D01*
X144038112Y-114399000D01*
X144084468Y-114403565D01*
G37*
G36*
X129379591Y-114478085D02*
G01*
X129413569Y-114488393D01*
X129444890Y-114505134D01*
X129472339Y-114527661D01*
X129494866Y-114555110D01*
X129511607Y-114586431D01*
X129521915Y-114620409D01*
X129526000Y-114661890D01*
X129526000Y-115263110D01*
X129521915Y-115304591D01*
X129511607Y-115338569D01*
X129494866Y-115369890D01*
X129472339Y-115397339D01*
X129444890Y-115419866D01*
X129413569Y-115436607D01*
X129379591Y-115446915D01*
X129338110Y-115451000D01*
X128661890Y-115451000D01*
X128620409Y-115446915D01*
X128586431Y-115436607D01*
X128555110Y-115419866D01*
X128527661Y-115397339D01*
X128505134Y-115369890D01*
X128488393Y-115338569D01*
X128478085Y-115304591D01*
X128474000Y-115263110D01*
X128474000Y-114661890D01*
X128478085Y-114620409D01*
X128488393Y-114586431D01*
X128505134Y-114555110D01*
X128527661Y-114527661D01*
X128555110Y-114505134D01*
X128586431Y-114488393D01*
X128620409Y-114478085D01*
X128661890Y-114474000D01*
X129338110Y-114474000D01*
X129379591Y-114478085D01*
G37*
G36*
X120629591Y-114228085D02*
G01*
X120663569Y-114238393D01*
X120694890Y-114255134D01*
X120722339Y-114277661D01*
X120744866Y-114305110D01*
X120761607Y-114336431D01*
X120771915Y-114370409D01*
X120776000Y-114411890D01*
X120776000Y-115013110D01*
X120771915Y-115054591D01*
X120761607Y-115088569D01*
X120744866Y-115119890D01*
X120722339Y-115147339D01*
X120694890Y-115169866D01*
X120663569Y-115186607D01*
X120629591Y-115196915D01*
X120588110Y-115201000D01*
X119911890Y-115201000D01*
X119870409Y-115196915D01*
X119836431Y-115186607D01*
X119805110Y-115169866D01*
X119777661Y-115147339D01*
X119755134Y-115119890D01*
X119738393Y-115088569D01*
X119728085Y-115054591D01*
X119724000Y-115013110D01*
X119724000Y-114411890D01*
X119728085Y-114370409D01*
X119738393Y-114336431D01*
X119755134Y-114305110D01*
X119777661Y-114277661D01*
X119805110Y-114255134D01*
X119836431Y-114238393D01*
X119870409Y-114228085D01*
X119911890Y-114224000D01*
X120588110Y-114224000D01*
X120629591Y-114228085D01*
G37*
G36*
X149927395Y-113195546D02*
G01*
X150100466Y-113267234D01*
X150177818Y-113318919D01*
X150256227Y-113371310D01*
X150388690Y-113503773D01*
X150412907Y-113540017D01*
X150492766Y-113659534D01*
X150564454Y-113832605D01*
X150601000Y-114016333D01*
X150601000Y-114203667D01*
X150564454Y-114387395D01*
X150492766Y-114560466D01*
X150458407Y-114611888D01*
X150388690Y-114716227D01*
X150256227Y-114848690D01*
X150184258Y-114896778D01*
X150100466Y-114952766D01*
X149927395Y-115024454D01*
X149743667Y-115061000D01*
X149556333Y-115061000D01*
X149372605Y-115024454D01*
X149199534Y-114952766D01*
X149115742Y-114896778D01*
X149043773Y-114848690D01*
X148911310Y-114716227D01*
X148841593Y-114611888D01*
X148807234Y-114560466D01*
X148735546Y-114387395D01*
X148699000Y-114203667D01*
X148699000Y-114016333D01*
X148735546Y-113832605D01*
X148807234Y-113659534D01*
X148887093Y-113540017D01*
X148911310Y-113503773D01*
X149043773Y-113371310D01*
X149122182Y-113318919D01*
X149199534Y-113267234D01*
X149372605Y-113195546D01*
X149556333Y-113159000D01*
X149743667Y-113159000D01*
X149927395Y-113195546D01*
G37*
G36*
X124559468Y-112503565D02*
G01*
X124598138Y-112515296D01*
X124633777Y-112534346D01*
X124665017Y-112559983D01*
X124690654Y-112591223D01*
X124709704Y-112626862D01*
X124721435Y-112665532D01*
X124726000Y-112711888D01*
X124726000Y-113788112D01*
X124721435Y-113834468D01*
X124709704Y-113873138D01*
X124690654Y-113908777D01*
X124665017Y-113940017D01*
X124633777Y-113965654D01*
X124598138Y-113984704D01*
X124559468Y-113996435D01*
X124513112Y-114001000D01*
X123861888Y-114001000D01*
X123815532Y-113996435D01*
X123776862Y-113984704D01*
X123741223Y-113965654D01*
X123709983Y-113940017D01*
X123684346Y-113908777D01*
X123665296Y-113873138D01*
X123653565Y-113834468D01*
X123649000Y-113788112D01*
X123649000Y-112711888D01*
X123653565Y-112665532D01*
X123665296Y-112626862D01*
X123684346Y-112591223D01*
X123709983Y-112559983D01*
X123741223Y-112534346D01*
X123776862Y-112515296D01*
X123815532Y-112503565D01*
X123861888Y-112499000D01*
X124513112Y-112499000D01*
X124559468Y-112503565D01*
G37*
G36*
X122684468Y-112503565D02*
G01*
X122723138Y-112515296D01*
X122758777Y-112534346D01*
X122790017Y-112559983D01*
X122815654Y-112591223D01*
X122834704Y-112626862D01*
X122846435Y-112665532D01*
X122851000Y-112711888D01*
X122851000Y-113788112D01*
X122846435Y-113834468D01*
X122834704Y-113873138D01*
X122815654Y-113908777D01*
X122790017Y-113940017D01*
X122758777Y-113965654D01*
X122723138Y-113984704D01*
X122684468Y-113996435D01*
X122638112Y-114001000D01*
X121986888Y-114001000D01*
X121940532Y-113996435D01*
X121901862Y-113984704D01*
X121866223Y-113965654D01*
X121834983Y-113940017D01*
X121809346Y-113908777D01*
X121790296Y-113873138D01*
X121778565Y-113834468D01*
X121774000Y-113788112D01*
X121774000Y-112711888D01*
X121778565Y-112665532D01*
X121790296Y-112626862D01*
X121809346Y-112591223D01*
X121834983Y-112559983D01*
X121866223Y-112534346D01*
X121901862Y-112515296D01*
X121940532Y-112503565D01*
X121986888Y-112499000D01*
X122638112Y-112499000D01*
X122684468Y-112503565D01*
G37*
G36*
X147387395Y-111925546D02*
G01*
X147560466Y-111997234D01*
X147637818Y-112048919D01*
X147716227Y-112101310D01*
X147848690Y-112233773D01*
X147848691Y-112233775D01*
X147952766Y-112389534D01*
X148024454Y-112562605D01*
X148061000Y-112746333D01*
X148061000Y-112933667D01*
X148024454Y-113117395D01*
X147952766Y-113290466D01*
X147952765Y-113290467D01*
X147848690Y-113446227D01*
X147716227Y-113578690D01*
X147646590Y-113625220D01*
X147560466Y-113682766D01*
X147387395Y-113754454D01*
X147203667Y-113791000D01*
X147016333Y-113791000D01*
X146832605Y-113754454D01*
X146659534Y-113682766D01*
X146573410Y-113625220D01*
X146503773Y-113578690D01*
X146371310Y-113446227D01*
X146267235Y-113290467D01*
X146267234Y-113290466D01*
X146195546Y-113117395D01*
X146159000Y-112933667D01*
X146159000Y-112746333D01*
X146195546Y-112562605D01*
X146267234Y-112389534D01*
X146371309Y-112233775D01*
X146371310Y-112233773D01*
X146503773Y-112101310D01*
X146582182Y-112048919D01*
X146659534Y-111997234D01*
X146832605Y-111925546D01*
X147016333Y-111889000D01*
X147203667Y-111889000D01*
X147387395Y-111925546D01*
G37*
G36*
X127629591Y-112728085D02*
G01*
X127663569Y-112738393D01*
X127694890Y-112755134D01*
X127722339Y-112777661D01*
X127744866Y-112805110D01*
X127761607Y-112836431D01*
X127771915Y-112870409D01*
X127776000Y-112911890D01*
X127776000Y-113588110D01*
X127771915Y-113629591D01*
X127761607Y-113663569D01*
X127744866Y-113694890D01*
X127722339Y-113722339D01*
X127694890Y-113744866D01*
X127663569Y-113761607D01*
X127629591Y-113771915D01*
X127588110Y-113776000D01*
X126986890Y-113776000D01*
X126945409Y-113771915D01*
X126911431Y-113761607D01*
X126880110Y-113744866D01*
X126852661Y-113722339D01*
X126830134Y-113694890D01*
X126813393Y-113663569D01*
X126803085Y-113629591D01*
X126799000Y-113588110D01*
X126799000Y-112911890D01*
X126803085Y-112870409D01*
X126813393Y-112836431D01*
X126830134Y-112805110D01*
X126852661Y-112777661D01*
X126880110Y-112755134D01*
X126911431Y-112738393D01*
X126945409Y-112728085D01*
X126986890Y-112724000D01*
X127588110Y-112724000D01*
X127629591Y-112728085D01*
G37*
G36*
X126054591Y-112728085D02*
G01*
X126088569Y-112738393D01*
X126119890Y-112755134D01*
X126147339Y-112777661D01*
X126169866Y-112805110D01*
X126186607Y-112836431D01*
X126196915Y-112870409D01*
X126201000Y-112911890D01*
X126201000Y-113588110D01*
X126196915Y-113629591D01*
X126186607Y-113663569D01*
X126169866Y-113694890D01*
X126147339Y-113722339D01*
X126119890Y-113744866D01*
X126088569Y-113761607D01*
X126054591Y-113771915D01*
X126013110Y-113776000D01*
X125411890Y-113776000D01*
X125370409Y-113771915D01*
X125336431Y-113761607D01*
X125305110Y-113744866D01*
X125277661Y-113722339D01*
X125255134Y-113694890D01*
X125238393Y-113663569D01*
X125228085Y-113629591D01*
X125224000Y-113588110D01*
X125224000Y-112911890D01*
X125228085Y-112870409D01*
X125238393Y-112836431D01*
X125255134Y-112805110D01*
X125277661Y-112777661D01*
X125305110Y-112755134D01*
X125336431Y-112738393D01*
X125370409Y-112728085D01*
X125411890Y-112724000D01*
X126013110Y-112724000D01*
X126054591Y-112728085D01*
G37*
G36*
X144084468Y-112528565D02*
G01*
X144123138Y-112540296D01*
X144158777Y-112559346D01*
X144190017Y-112584983D01*
X144215654Y-112616223D01*
X144234704Y-112651862D01*
X144246435Y-112690532D01*
X144251000Y-112736888D01*
X144251000Y-113388112D01*
X144246435Y-113434468D01*
X144234704Y-113473138D01*
X144215654Y-113508777D01*
X144190017Y-113540017D01*
X144158777Y-113565654D01*
X144123138Y-113584704D01*
X144084468Y-113596435D01*
X144038112Y-113601000D01*
X142961888Y-113601000D01*
X142915532Y-113596435D01*
X142876862Y-113584704D01*
X142841223Y-113565654D01*
X142809983Y-113540017D01*
X142784346Y-113508777D01*
X142765296Y-113473138D01*
X142753565Y-113434468D01*
X142749000Y-113388112D01*
X142749000Y-112736888D01*
X142753565Y-112690532D01*
X142765296Y-112651862D01*
X142784346Y-112616223D01*
X142809983Y-112584983D01*
X142841223Y-112559346D01*
X142876862Y-112540296D01*
X142915532Y-112528565D01*
X142961888Y-112524000D01*
X144038112Y-112524000D01*
X144084468Y-112528565D01*
G37*
G36*
X115950000Y-112374911D02*
G01*
X115952402Y-112399297D01*
X115959515Y-112422746D01*
X115971066Y-112444357D01*
X115978456Y-112454310D01*
X115986199Y-112463725D01*
X115992581Y-112471484D01*
X115997326Y-112480339D01*
X115997326Y-112480340D01*
X116000242Y-112489915D01*
X116000242Y-112489918D01*
X116000252Y-112489950D01*
X116001247Y-112500000D01*
X116001247Y-112500065D01*
X116001852Y-112506175D01*
X116001852Y-113493860D01*
X116000263Y-113509999D01*
X115997348Y-113519608D01*
X115992610Y-113528472D01*
X115986237Y-113536237D01*
X115978472Y-113542610D01*
X115969608Y-113547348D01*
X115959999Y-113550263D01*
X115943860Y-113551852D01*
X114456140Y-113551852D01*
X114440001Y-113550263D01*
X114430392Y-113547348D01*
X114421528Y-113542610D01*
X114413763Y-113536237D01*
X114407390Y-113528472D01*
X114402652Y-113519608D01*
X114399737Y-113509999D01*
X114398148Y-113493860D01*
X114398148Y-112506140D01*
X114399737Y-112490001D01*
X114402652Y-112480392D01*
X114407390Y-112471528D01*
X114421258Y-112454630D01*
X114421347Y-112454541D01*
X114421423Y-112454429D01*
X114421575Y-112454243D01*
X114421557Y-112454229D01*
X114435033Y-112434214D01*
X114444489Y-112411608D01*
X114449354Y-112387592D01*
X114450000Y-112374903D01*
X114450000Y-111450000D01*
X115950000Y-111450000D01*
X115950000Y-112374911D01*
G37*
G36*
X107226778Y-111210547D02*
G01*
X107393224Y-111279491D01*
X107543022Y-111379583D01*
X107670417Y-111506978D01*
X107770509Y-111656776D01*
X107839453Y-111823222D01*
X107874600Y-111999918D01*
X107874600Y-112180082D01*
X107839453Y-112356778D01*
X107770509Y-112523224D01*
X107670417Y-112673022D01*
X107543022Y-112800417D01*
X107393224Y-112900509D01*
X107226778Y-112969453D01*
X107050082Y-113004600D01*
X106869918Y-113004600D01*
X106693222Y-112969453D01*
X106526776Y-112900509D01*
X106376978Y-112800417D01*
X106249583Y-112673022D01*
X106149491Y-112523224D01*
X106080547Y-112356778D01*
X106045400Y-112180082D01*
X106045400Y-111999918D01*
X106080547Y-111823222D01*
X106149491Y-111656776D01*
X106249583Y-111506978D01*
X106376978Y-111379583D01*
X106526776Y-111279491D01*
X106693222Y-111210547D01*
X106869918Y-111175400D01*
X107050082Y-111175400D01*
X107226778Y-111210547D01*
G37*
G36*
X109766778Y-111210547D02*
G01*
X109933224Y-111279491D01*
X110083022Y-111379583D01*
X110210417Y-111506978D01*
X110310509Y-111656776D01*
X110379453Y-111823222D01*
X110414600Y-111999918D01*
X110414600Y-112180082D01*
X110379453Y-112356778D01*
X110310509Y-112523224D01*
X110210417Y-112673022D01*
X110083022Y-112800417D01*
X109933224Y-112900509D01*
X109766778Y-112969453D01*
X109590082Y-113004600D01*
X109409918Y-113004600D01*
X109233222Y-112969453D01*
X109066776Y-112900509D01*
X108916978Y-112800417D01*
X108789583Y-112673022D01*
X108689491Y-112523224D01*
X108620547Y-112356778D01*
X108585400Y-112180082D01*
X108585400Y-111999918D01*
X108620547Y-111823222D01*
X108689491Y-111656776D01*
X108789583Y-111506978D01*
X108916978Y-111379583D01*
X109066776Y-111279491D01*
X109233222Y-111210547D01*
X109409918Y-111175400D01*
X109590082Y-111175400D01*
X109766778Y-111210547D01*
G37*
G36*
X156326971Y-109296204D02*
G01*
X156488871Y-109328408D01*
X156793883Y-109454748D01*
X157068387Y-109638166D01*
X157301834Y-109871613D01*
X157485252Y-110146117D01*
X157611592Y-110451129D01*
X157676000Y-110774928D01*
X157676000Y-111105072D01*
X157611592Y-111428871D01*
X157485252Y-111733883D01*
X157301834Y-112008387D01*
X157068387Y-112241834D01*
X156793883Y-112425252D01*
X156488871Y-112551592D01*
X156165073Y-112616000D01*
X155834927Y-112616000D01*
X155511129Y-112551592D01*
X155206117Y-112425252D01*
X154931613Y-112241834D01*
X154698166Y-112008387D01*
X154514748Y-111733883D01*
X154388408Y-111428871D01*
X154324000Y-111105072D01*
X154324000Y-110774928D01*
X154388408Y-110451129D01*
X154514748Y-110146117D01*
X154698166Y-109871613D01*
X154931613Y-109638166D01*
X155206117Y-109454748D01*
X155511129Y-109328408D01*
X155673029Y-109296204D01*
X155834927Y-109264000D01*
X156165073Y-109264000D01*
X156326971Y-109296204D01*
G37*
G36*
X137706564Y-109569389D02*
G01*
X137897833Y-109648615D01*
X137897835Y-109648616D01*
X138069973Y-109763635D01*
X138216365Y-109910027D01*
X138311339Y-110052165D01*
X138331385Y-110082167D01*
X138410611Y-110273436D01*
X138451000Y-110476484D01*
X138451000Y-110683516D01*
X138410611Y-110886564D01*
X138331385Y-111077833D01*
X138331384Y-111077835D01*
X138216365Y-111249973D01*
X138069973Y-111396365D01*
X137897835Y-111511384D01*
X137897834Y-111511385D01*
X137897833Y-111511385D01*
X137706564Y-111590611D01*
X137503516Y-111631000D01*
X137296484Y-111631000D01*
X137093436Y-111590611D01*
X136902167Y-111511385D01*
X136902166Y-111511385D01*
X136902165Y-111511384D01*
X136730027Y-111396365D01*
X136583635Y-111249973D01*
X136468616Y-111077835D01*
X136468615Y-111077833D01*
X136389389Y-110886564D01*
X136349000Y-110683516D01*
X136349000Y-110476484D01*
X136389389Y-110273436D01*
X136468615Y-110082167D01*
X136488662Y-110052165D01*
X136583635Y-109910027D01*
X136730027Y-109763635D01*
X136902165Y-109648616D01*
X136902167Y-109648615D01*
X137093436Y-109569389D01*
X137296484Y-109529000D01*
X137503516Y-109529000D01*
X137706564Y-109569389D01*
G37*
G36*
X134006564Y-109539389D02*
G01*
X134197833Y-109618615D01*
X134197835Y-109618616D01*
X134369973Y-109733635D01*
X134516365Y-109880027D01*
X134630771Y-110051247D01*
X134631385Y-110052167D01*
X134710611Y-110243436D01*
X134751000Y-110446484D01*
X134751000Y-110653516D01*
X134710611Y-110856564D01*
X134698184Y-110886565D01*
X134631384Y-111047835D01*
X134516365Y-111219973D01*
X134369973Y-111366365D01*
X134197835Y-111481384D01*
X134197834Y-111481385D01*
X134197833Y-111481385D01*
X134006564Y-111560611D01*
X133803516Y-111601000D01*
X133596484Y-111601000D01*
X133393436Y-111560611D01*
X133202167Y-111481385D01*
X133202166Y-111481385D01*
X133202165Y-111481384D01*
X133030027Y-111366365D01*
X132883635Y-111219973D01*
X132768616Y-111047835D01*
X132701816Y-110886565D01*
X132689389Y-110856564D01*
X132649000Y-110653516D01*
X132649000Y-110446484D01*
X132689389Y-110243436D01*
X132768615Y-110052167D01*
X132769230Y-110051247D01*
X132883635Y-109880027D01*
X133030027Y-109733635D01*
X133202165Y-109618616D01*
X133202167Y-109618615D01*
X133393436Y-109539389D01*
X133596484Y-109499000D01*
X133803516Y-109499000D01*
X134006564Y-109539389D01*
G37*
G36*
X130256564Y-109539389D02*
G01*
X130447833Y-109618615D01*
X130447835Y-109618616D01*
X130619973Y-109733635D01*
X130766365Y-109880027D01*
X130880771Y-110051247D01*
X130881385Y-110052167D01*
X130960611Y-110243436D01*
X131001000Y-110446484D01*
X131001000Y-110653516D01*
X130960611Y-110856564D01*
X130948184Y-110886565D01*
X130881384Y-111047835D01*
X130766365Y-111219973D01*
X130619973Y-111366365D01*
X130447835Y-111481384D01*
X130447834Y-111481385D01*
X130447833Y-111481385D01*
X130256564Y-111560611D01*
X130053516Y-111601000D01*
X129846484Y-111601000D01*
X129643436Y-111560611D01*
X129452167Y-111481385D01*
X129452166Y-111481385D01*
X129452165Y-111481384D01*
X129280027Y-111366365D01*
X129133635Y-111219973D01*
X129018616Y-111047835D01*
X128951816Y-110886565D01*
X128939389Y-110856564D01*
X128899000Y-110653516D01*
X128899000Y-110446484D01*
X128939389Y-110243436D01*
X129018615Y-110052167D01*
X129019230Y-110051247D01*
X129133635Y-109880027D01*
X129280027Y-109733635D01*
X129452165Y-109618616D01*
X129452167Y-109618615D01*
X129643436Y-109539389D01*
X129846484Y-109499000D01*
X130053516Y-109499000D01*
X130256564Y-109539389D01*
G37*
G36*
X143879591Y-109803085D02*
G01*
X143913569Y-109813393D01*
X143944890Y-109830134D01*
X143972339Y-109852661D01*
X143994866Y-109880110D01*
X144011607Y-109911431D01*
X144021915Y-109945409D01*
X144026000Y-109986890D01*
X144026000Y-110588110D01*
X144021915Y-110629591D01*
X144011607Y-110663569D01*
X143994866Y-110694890D01*
X143972339Y-110722339D01*
X143944890Y-110744866D01*
X143913569Y-110761607D01*
X143879591Y-110771915D01*
X143838110Y-110776000D01*
X143161890Y-110776000D01*
X143120409Y-110771915D01*
X143086431Y-110761607D01*
X143055110Y-110744866D01*
X143027661Y-110722339D01*
X143005134Y-110694890D01*
X142988393Y-110663569D01*
X142978085Y-110629591D01*
X142974000Y-110588110D01*
X142974000Y-109986890D01*
X142978085Y-109945409D01*
X142988393Y-109911431D01*
X143005134Y-109880110D01*
X143027661Y-109852661D01*
X143055110Y-109830134D01*
X143086431Y-109813393D01*
X143120409Y-109803085D01*
X143161890Y-109799000D01*
X143838110Y-109799000D01*
X143879591Y-109803085D01*
G37*
G36*
X115959999Y-108449737D02*
G01*
X115969608Y-108452652D01*
X115978472Y-108457390D01*
X115986237Y-108463763D01*
X115992610Y-108471528D01*
X115997348Y-108480392D01*
X116000263Y-108490001D01*
X116001852Y-108506140D01*
X116001852Y-109493860D01*
X116000263Y-109509999D01*
X115997348Y-109519608D01*
X115992610Y-109528472D01*
X115978742Y-109545370D01*
X115978653Y-109545459D01*
X115978577Y-109545571D01*
X115978425Y-109545757D01*
X115978443Y-109545771D01*
X115964967Y-109565786D01*
X115955511Y-109588392D01*
X115950646Y-109612408D01*
X115950000Y-109625089D01*
X115950000Y-110550000D01*
X114450000Y-110550000D01*
X114450000Y-109625089D01*
X114447598Y-109600703D01*
X114440485Y-109577254D01*
X114428934Y-109555643D01*
X114421544Y-109545690D01*
X114413439Y-109535835D01*
X114407419Y-109528516D01*
X114402674Y-109519661D01*
X114401749Y-109516623D01*
X114399758Y-109510085D01*
X114399758Y-109510082D01*
X114399748Y-109510050D01*
X114398753Y-109500000D01*
X114398753Y-109499935D01*
X114398148Y-109493825D01*
X114398148Y-108506140D01*
X114399737Y-108490001D01*
X114402652Y-108480392D01*
X114407390Y-108471528D01*
X114413763Y-108463763D01*
X114421528Y-108457390D01*
X114430392Y-108452652D01*
X114440001Y-108449737D01*
X114456140Y-108448148D01*
X115943860Y-108448148D01*
X115959999Y-108449737D01*
G37*
G36*
X143879591Y-108228085D02*
G01*
X143913569Y-108238393D01*
X143944890Y-108255134D01*
X143972339Y-108277661D01*
X143994866Y-108305110D01*
X144011607Y-108336431D01*
X144021915Y-108370409D01*
X144026000Y-108411890D01*
X144026000Y-109013110D01*
X144021915Y-109054591D01*
X144011607Y-109088569D01*
X143994866Y-109119890D01*
X143972339Y-109147339D01*
X143944890Y-109169866D01*
X143913569Y-109186607D01*
X143879591Y-109196915D01*
X143838110Y-109201000D01*
X143161890Y-109201000D01*
X143120409Y-109196915D01*
X143086431Y-109186607D01*
X143055110Y-109169866D01*
X143027661Y-109147339D01*
X143005134Y-109119890D01*
X142988393Y-109088569D01*
X142978085Y-109054591D01*
X142974000Y-109013110D01*
X142974000Y-108411890D01*
X142978085Y-108370409D01*
X142988393Y-108336431D01*
X143005134Y-108305110D01*
X143027661Y-108277661D01*
X143055110Y-108255134D01*
X143086431Y-108238393D01*
X143120409Y-108228085D01*
X143161890Y-108224000D01*
X143838110Y-108224000D01*
X143879591Y-108228085D01*
G37*
G36*
X147751000Y-108701000D02*
G01*
X146849000Y-108701000D01*
X146849000Y-107699000D01*
X147751000Y-107699000D01*
X147751000Y-108701000D01*
G37*
G36*
X119684468Y-107153565D02*
G01*
X119723138Y-107165296D01*
X119758777Y-107184346D01*
X119790017Y-107209983D01*
X119815654Y-107241223D01*
X119834704Y-107276862D01*
X119846435Y-107315532D01*
X119851000Y-107361888D01*
X119851000Y-108013112D01*
X119846435Y-108059468D01*
X119834704Y-108098138D01*
X119815654Y-108133777D01*
X119790017Y-108165017D01*
X119758777Y-108190654D01*
X119723138Y-108209704D01*
X119684468Y-108221435D01*
X119638112Y-108226000D01*
X118561888Y-108226000D01*
X118515532Y-108221435D01*
X118476862Y-108209704D01*
X118441223Y-108190654D01*
X118409983Y-108165017D01*
X118384346Y-108133777D01*
X118365296Y-108098138D01*
X118353565Y-108059468D01*
X118349000Y-108013112D01*
X118349000Y-107361888D01*
X118353565Y-107315532D01*
X118365296Y-107276862D01*
X118384346Y-107241223D01*
X118409983Y-107209983D01*
X118441223Y-107184346D01*
X118476862Y-107165296D01*
X118515532Y-107153565D01*
X118561888Y-107149000D01*
X119638112Y-107149000D01*
X119684468Y-107153565D01*
G37*
G36*
X121501000Y-108151000D02*
G01*
X120499000Y-108151000D01*
X120499000Y-107249000D01*
X121501000Y-107249000D01*
X121501000Y-108151000D01*
G37*
G36*
X132701000Y-108101000D02*
G01*
X130599000Y-108101000D01*
X130599000Y-106499000D01*
X132701000Y-106499000D01*
X132701000Y-108101000D01*
G37*
G36*
X123501000Y-107201000D02*
G01*
X122499000Y-107201000D01*
X122499000Y-106299000D01*
X123501000Y-106299000D01*
X123501000Y-107201000D01*
G37*
G36*
X126401000Y-106951000D02*
G01*
X124299000Y-106951000D01*
X124299000Y-103049000D01*
X126401000Y-103049000D01*
X126401000Y-106951000D01*
G37*
G36*
X137304591Y-105728085D02*
G01*
X137338569Y-105738393D01*
X137369890Y-105755134D01*
X137397339Y-105777661D01*
X137419866Y-105805110D01*
X137436607Y-105836431D01*
X137446915Y-105870409D01*
X137451000Y-105911890D01*
X137451000Y-106588110D01*
X137446915Y-106629591D01*
X137436607Y-106663569D01*
X137419866Y-106694890D01*
X137397339Y-106722339D01*
X137369890Y-106744866D01*
X137338569Y-106761607D01*
X137304591Y-106771915D01*
X137263110Y-106776000D01*
X136661890Y-106776000D01*
X136620409Y-106771915D01*
X136586431Y-106761607D01*
X136555110Y-106744866D01*
X136527661Y-106722339D01*
X136505134Y-106694890D01*
X136488393Y-106663569D01*
X136478085Y-106629591D01*
X136474000Y-106588110D01*
X136474000Y-105911890D01*
X136478085Y-105870409D01*
X136488393Y-105836431D01*
X136505134Y-105805110D01*
X136527661Y-105777661D01*
X136555110Y-105755134D01*
X136586431Y-105738393D01*
X136620409Y-105728085D01*
X136661890Y-105724000D01*
X137263110Y-105724000D01*
X137304591Y-105728085D01*
G37*
G36*
X138879591Y-105728085D02*
G01*
X138913569Y-105738393D01*
X138944890Y-105755134D01*
X138972339Y-105777661D01*
X138994866Y-105805110D01*
X139011607Y-105836431D01*
X139021915Y-105870409D01*
X139026000Y-105911890D01*
X139026000Y-106588110D01*
X139021915Y-106629591D01*
X139011607Y-106663569D01*
X138994866Y-106694890D01*
X138972339Y-106722339D01*
X138944890Y-106744866D01*
X138913569Y-106761607D01*
X138879591Y-106771915D01*
X138838110Y-106776000D01*
X138236890Y-106776000D01*
X138195409Y-106771915D01*
X138161431Y-106761607D01*
X138130110Y-106744866D01*
X138102661Y-106722339D01*
X138080134Y-106694890D01*
X138063393Y-106663569D01*
X138053085Y-106629591D01*
X138049000Y-106588110D01*
X138049000Y-105911890D01*
X138053085Y-105870409D01*
X138063393Y-105836431D01*
X138080134Y-105805110D01*
X138102661Y-105777661D01*
X138130110Y-105755134D01*
X138161431Y-105738393D01*
X138195409Y-105728085D01*
X138236890Y-105724000D01*
X138838110Y-105724000D01*
X138879591Y-105728085D01*
G37*
G36*
X148701000Y-106701000D02*
G01*
X147799000Y-106701000D01*
X147799000Y-105699000D01*
X148701000Y-105699000D01*
X148701000Y-106701000D01*
G37*
G36*
X146801000Y-106701000D02*
G01*
X145899000Y-106701000D01*
X145899000Y-105699000D01*
X146801000Y-105699000D01*
X146801000Y-106701000D01*
G37*
G36*
X119684468Y-105278565D02*
G01*
X119723138Y-105290296D01*
X119758777Y-105309346D01*
X119790017Y-105334983D01*
X119815654Y-105366223D01*
X119834704Y-105401862D01*
X119846435Y-105440532D01*
X119851000Y-105486888D01*
X119851000Y-106138112D01*
X119846435Y-106184468D01*
X119834704Y-106223138D01*
X119815654Y-106258777D01*
X119790017Y-106290017D01*
X119758777Y-106315654D01*
X119723138Y-106334704D01*
X119684468Y-106346435D01*
X119638112Y-106351000D01*
X118561888Y-106351000D01*
X118515532Y-106346435D01*
X118476862Y-106334704D01*
X118441223Y-106315654D01*
X118409983Y-106290017D01*
X118384346Y-106258777D01*
X118365296Y-106223138D01*
X118353565Y-106184468D01*
X118349000Y-106138112D01*
X118349000Y-105486888D01*
X118353565Y-105440532D01*
X118365296Y-105401862D01*
X118384346Y-105366223D01*
X118409983Y-105334983D01*
X118441223Y-105309346D01*
X118476862Y-105290296D01*
X118515532Y-105278565D01*
X118561888Y-105274000D01*
X119638112Y-105274000D01*
X119684468Y-105278565D01*
G37*
G36*
X121501000Y-106251000D02*
G01*
X120499000Y-106251000D01*
X120499000Y-105349000D01*
X121501000Y-105349000D01*
X121501000Y-106251000D01*
G37*
G36*
X132701000Y-105801000D02*
G01*
X130599000Y-105801000D01*
X130599000Y-104199000D01*
X132701000Y-104199000D01*
X132701000Y-105801000D01*
G37*
G36*
X156327255Y-102381750D02*
G01*
X156481579Y-102412447D01*
X156628100Y-102473138D01*
X156748811Y-102523138D01*
X156782042Y-102536903D01*
X157052451Y-102717585D01*
X157282415Y-102947549D01*
X157463097Y-103217958D01*
X157587553Y-103518421D01*
X157596860Y-103565212D01*
X157651000Y-103837389D01*
X157651000Y-104162611D01*
X157631009Y-104263112D01*
X157587553Y-104481579D01*
X157463097Y-104782042D01*
X157282415Y-105052451D01*
X157052451Y-105282415D01*
X156782042Y-105463097D01*
X156782041Y-105463098D01*
X156782040Y-105463098D01*
X156694037Y-105499550D01*
X156481579Y-105587553D01*
X156375256Y-105608702D01*
X156162611Y-105651000D01*
X155837389Y-105651000D01*
X155624744Y-105608702D01*
X155518421Y-105587553D01*
X155305963Y-105499550D01*
X155217960Y-105463098D01*
X155217959Y-105463098D01*
X155217958Y-105463097D01*
X154947549Y-105282415D01*
X154717585Y-105052451D01*
X154536903Y-104782042D01*
X154412447Y-104481579D01*
X154368991Y-104263112D01*
X154349000Y-104162611D01*
X154349000Y-103837389D01*
X154403140Y-103565212D01*
X154412447Y-103518421D01*
X154536903Y-103217958D01*
X154717585Y-102947549D01*
X154947549Y-102717585D01*
X155217958Y-102536903D01*
X155251190Y-102523138D01*
X155371900Y-102473138D01*
X155518421Y-102412447D01*
X155672745Y-102381750D01*
X155837389Y-102349000D01*
X156162611Y-102349000D01*
X156327255Y-102381750D01*
G37*
G36*
X107527255Y-102381750D02*
G01*
X107681579Y-102412447D01*
X107828100Y-102473138D01*
X107948811Y-102523138D01*
X107982042Y-102536903D01*
X108252451Y-102717585D01*
X108482415Y-102947549D01*
X108663097Y-103217958D01*
X108787553Y-103518421D01*
X108796860Y-103565212D01*
X108851000Y-103837389D01*
X108851000Y-104162611D01*
X108831009Y-104263112D01*
X108787553Y-104481579D01*
X108663097Y-104782042D01*
X108482415Y-105052451D01*
X108252451Y-105282415D01*
X107982042Y-105463097D01*
X107982041Y-105463098D01*
X107982040Y-105463098D01*
X107894037Y-105499550D01*
X107681579Y-105587553D01*
X107575256Y-105608702D01*
X107362611Y-105651000D01*
X107037389Y-105651000D01*
X106824744Y-105608702D01*
X106718421Y-105587553D01*
X106505963Y-105499550D01*
X106417960Y-105463098D01*
X106417959Y-105463098D01*
X106417958Y-105463097D01*
X106147549Y-105282415D01*
X105917585Y-105052451D01*
X105736903Y-104782042D01*
X105612447Y-104481579D01*
X105568991Y-104263112D01*
X105549000Y-104162611D01*
X105549000Y-103837389D01*
X105603140Y-103565212D01*
X105612447Y-103518421D01*
X105736903Y-103217958D01*
X105917585Y-102947549D01*
X106147549Y-102717585D01*
X106417958Y-102536903D01*
X106451190Y-102523138D01*
X106571900Y-102473138D01*
X106718421Y-102412447D01*
X106872745Y-102381750D01*
X107037389Y-102349000D01*
X107362611Y-102349000D01*
X107527255Y-102381750D01*
G37*
G36*
X137834468Y-103903565D02*
G01*
X137873138Y-103915296D01*
X137908777Y-103934346D01*
X137940017Y-103959983D01*
X137965654Y-103991223D01*
X137984704Y-104026862D01*
X137996435Y-104065532D01*
X138001000Y-104111888D01*
X138001000Y-104763112D01*
X137996435Y-104809468D01*
X137984704Y-104848138D01*
X137965654Y-104883777D01*
X137940017Y-104915017D01*
X137908777Y-104940654D01*
X137873138Y-104959704D01*
X137834468Y-104971435D01*
X137788112Y-104976000D01*
X136711888Y-104976000D01*
X136665532Y-104971435D01*
X136626862Y-104959704D01*
X136591223Y-104940654D01*
X136559983Y-104915017D01*
X136534346Y-104883777D01*
X136515296Y-104848138D01*
X136503565Y-104809468D01*
X136499000Y-104763112D01*
X136499000Y-104111888D01*
X136503565Y-104065532D01*
X136515296Y-104026862D01*
X136534346Y-103991223D01*
X136559983Y-103959983D01*
X136591223Y-103934346D01*
X136626862Y-103915296D01*
X136665532Y-103903565D01*
X136711888Y-103899000D01*
X137788112Y-103899000D01*
X137834468Y-103903565D01*
G37*
G36*
X123334468Y-103453565D02*
G01*
X123373138Y-103465296D01*
X123408777Y-103484346D01*
X123440017Y-103509983D01*
X123465654Y-103541223D01*
X123484704Y-103576862D01*
X123496435Y-103615532D01*
X123501000Y-103661888D01*
X123501000Y-104313112D01*
X123496435Y-104359468D01*
X123484704Y-104398138D01*
X123465654Y-104433777D01*
X123440017Y-104465017D01*
X123408777Y-104490654D01*
X123373138Y-104509704D01*
X123334468Y-104521435D01*
X123288112Y-104526000D01*
X122211888Y-104526000D01*
X122165532Y-104521435D01*
X122126862Y-104509704D01*
X122091223Y-104490654D01*
X122059983Y-104465017D01*
X122034346Y-104433777D01*
X122015296Y-104398138D01*
X122003565Y-104359468D01*
X121999000Y-104313112D01*
X121999000Y-103661888D01*
X122003565Y-103615532D01*
X122015296Y-103576862D01*
X122034346Y-103541223D01*
X122059983Y-103509983D01*
X122091223Y-103484346D01*
X122126862Y-103465296D01*
X122165532Y-103453565D01*
X122211888Y-103449000D01*
X123288112Y-103449000D01*
X123334468Y-103453565D01*
G37*
G36*
X119684468Y-103403565D02*
G01*
X119723138Y-103415296D01*
X119758777Y-103434346D01*
X119790017Y-103459983D01*
X119815654Y-103491223D01*
X119834704Y-103526862D01*
X119846435Y-103565532D01*
X119851000Y-103611888D01*
X119851000Y-104263112D01*
X119846435Y-104309468D01*
X119834704Y-104348138D01*
X119815654Y-104383777D01*
X119790017Y-104415017D01*
X119758777Y-104440654D01*
X119723138Y-104459704D01*
X119684468Y-104471435D01*
X119638112Y-104476000D01*
X118561888Y-104476000D01*
X118515532Y-104471435D01*
X118476862Y-104459704D01*
X118441223Y-104440654D01*
X118409983Y-104415017D01*
X118384346Y-104383777D01*
X118365296Y-104348138D01*
X118353565Y-104309468D01*
X118349000Y-104263112D01*
X118349000Y-103611888D01*
X118353565Y-103565532D01*
X118365296Y-103526862D01*
X118384346Y-103491223D01*
X118409983Y-103459983D01*
X118441223Y-103434346D01*
X118476862Y-103415296D01*
X118515532Y-103403565D01*
X118561888Y-103399000D01*
X119638112Y-103399000D01*
X119684468Y-103403565D01*
G37*
G36*
X132701000Y-103501000D02*
G01*
X130599000Y-103501000D01*
X130599000Y-101899000D01*
X132701000Y-101899000D01*
X132701000Y-103501000D01*
G37*
G36*
X137834468Y-102028565D02*
G01*
X137873138Y-102040296D01*
X137908777Y-102059346D01*
X137940017Y-102084983D01*
X137965654Y-102116223D01*
X137984704Y-102151862D01*
X137996435Y-102190532D01*
X138001000Y-102236888D01*
X138001000Y-102888112D01*
X137996435Y-102934468D01*
X137984704Y-102973138D01*
X137965654Y-103008777D01*
X137940017Y-103040017D01*
X137908777Y-103065654D01*
X137873138Y-103084704D01*
X137834468Y-103096435D01*
X137788112Y-103101000D01*
X136711888Y-103101000D01*
X136665532Y-103096435D01*
X136626862Y-103084704D01*
X136591223Y-103065654D01*
X136559983Y-103040017D01*
X136534346Y-103008777D01*
X136515296Y-102973138D01*
X136503565Y-102934468D01*
X136499000Y-102888112D01*
X136499000Y-102236888D01*
X136503565Y-102190532D01*
X136515296Y-102151862D01*
X136534346Y-102116223D01*
X136559983Y-102084983D01*
X136591223Y-102059346D01*
X136626862Y-102040296D01*
X136665532Y-102028565D01*
X136711888Y-102024000D01*
X137788112Y-102024000D01*
X137834468Y-102028565D01*
G37*
G36*
X123334468Y-101578565D02*
G01*
X123373138Y-101590296D01*
X123408777Y-101609346D01*
X123440017Y-101634983D01*
X123465654Y-101666223D01*
X123484704Y-101701862D01*
X123496435Y-101740532D01*
X123501000Y-101786888D01*
X123501000Y-102438112D01*
X123496435Y-102484468D01*
X123484704Y-102523138D01*
X123465654Y-102558777D01*
X123440017Y-102590017D01*
X123408777Y-102615654D01*
X123373138Y-102634704D01*
X123334468Y-102646435D01*
X123288112Y-102651000D01*
X122211888Y-102651000D01*
X122165532Y-102646435D01*
X122126862Y-102634704D01*
X122091223Y-102615654D01*
X122059983Y-102590017D01*
X122034346Y-102558777D01*
X122015296Y-102523138D01*
X122003565Y-102484468D01*
X121999000Y-102438112D01*
X121999000Y-101786888D01*
X122003565Y-101740532D01*
X122015296Y-101701862D01*
X122034346Y-101666223D01*
X122059983Y-101634983D01*
X122091223Y-101609346D01*
X122126862Y-101590296D01*
X122165532Y-101578565D01*
X122211888Y-101574000D01*
X123288112Y-101574000D01*
X123334468Y-101578565D01*
G37*
G36*
X119684468Y-101528565D02*
G01*
X119723138Y-101540296D01*
X119758777Y-101559346D01*
X119790017Y-101584983D01*
X119815654Y-101616223D01*
X119834704Y-101651862D01*
X119846435Y-101690532D01*
X119851000Y-101736888D01*
X119851000Y-102388112D01*
X119846435Y-102434468D01*
X119834704Y-102473138D01*
X119815654Y-102508777D01*
X119790017Y-102540017D01*
X119758777Y-102565654D01*
X119723138Y-102584704D01*
X119684468Y-102596435D01*
X119638112Y-102601000D01*
X118561888Y-102601000D01*
X118515532Y-102596435D01*
X118476862Y-102584704D01*
X118441223Y-102565654D01*
X118409983Y-102540017D01*
X118384346Y-102508777D01*
X118365296Y-102473138D01*
X118353565Y-102434468D01*
X118349000Y-102388112D01*
X118349000Y-101736888D01*
X118353565Y-101690532D01*
X118365296Y-101651862D01*
X118384346Y-101616223D01*
X118409983Y-101584983D01*
X118441223Y-101559346D01*
X118476862Y-101540296D01*
X118515532Y-101528565D01*
X118561888Y-101524000D01*
X119638112Y-101524000D01*
X119684468Y-101528565D01*
G37*
M02*
