G04 #@! TF.GenerationSoftware,KiCad,Pcbnew,5.1.6-c6e7f7d~86~ubuntu18.04.1*
G04 #@! TF.CreationDate,2020-05-31T12:22:36+02:00*
G04 #@! TF.ProjectId,Telemetry,54656c65-6d65-4747-9279-2e6b69636164,rev?*
G04 #@! TF.SameCoordinates,Original*
G04 #@! TF.FileFunction,Soldermask,Bot*
G04 #@! TF.FilePolarity,Negative*
%FSLAX46Y46*%
G04 Gerber Fmt 4.6, Leading zero omitted, Abs format (unit mm)*
G04 Created by KiCad (PCBNEW 5.1.6-c6e7f7d~86~ubuntu18.04.1) date 2020-05-31 12:22:36*
%MOMM*%
%LPD*%
G01*
G04 APERTURE LIST*
%ADD10C,0.100000*%
G04 APERTURE END LIST*
D10*
G36*
X156375256Y-149391298D02*
G01*
X156481579Y-149412447D01*
X156782042Y-149536903D01*
X157052451Y-149717585D01*
X157282415Y-149947549D01*
X157463097Y-150217958D01*
X157587553Y-150518421D01*
X157651000Y-150837391D01*
X157651000Y-151162609D01*
X157587553Y-151481579D01*
X157463097Y-151782042D01*
X157282415Y-152052451D01*
X157052451Y-152282415D01*
X156782042Y-152463097D01*
X156481579Y-152587553D01*
X156375256Y-152608702D01*
X156162611Y-152651000D01*
X155837389Y-152651000D01*
X155624744Y-152608702D01*
X155518421Y-152587553D01*
X155217958Y-152463097D01*
X154947549Y-152282415D01*
X154717585Y-152052451D01*
X154536903Y-151782042D01*
X154412447Y-151481579D01*
X154349000Y-151162609D01*
X154349000Y-150837391D01*
X154412447Y-150518421D01*
X154536903Y-150217958D01*
X154717585Y-149947549D01*
X154947549Y-149717585D01*
X155217958Y-149536903D01*
X155518421Y-149412447D01*
X155624744Y-149391298D01*
X155837389Y-149349000D01*
X156162611Y-149349000D01*
X156375256Y-149391298D01*
G37*
G36*
X107575256Y-149391298D02*
G01*
X107681579Y-149412447D01*
X107982042Y-149536903D01*
X108252451Y-149717585D01*
X108482415Y-149947549D01*
X108663097Y-150217958D01*
X108787553Y-150518421D01*
X108851000Y-150837391D01*
X108851000Y-151162609D01*
X108787553Y-151481579D01*
X108663097Y-151782042D01*
X108482415Y-152052451D01*
X108252451Y-152282415D01*
X107982042Y-152463097D01*
X107681579Y-152587553D01*
X107575256Y-152608702D01*
X107362611Y-152651000D01*
X107037389Y-152651000D01*
X106824744Y-152608702D01*
X106718421Y-152587553D01*
X106417958Y-152463097D01*
X106147549Y-152282415D01*
X105917585Y-152052451D01*
X105736903Y-151782042D01*
X105612447Y-151481579D01*
X105549000Y-151162609D01*
X105549000Y-150837391D01*
X105612447Y-150518421D01*
X105736903Y-150217958D01*
X105917585Y-149947549D01*
X106147549Y-149717585D01*
X106417958Y-149536903D01*
X106718421Y-149412447D01*
X106824744Y-149391298D01*
X107037389Y-149349000D01*
X107362611Y-149349000D01*
X107575256Y-149391298D01*
G37*
G36*
X127806564Y-145989389D02*
G01*
X127997833Y-146068615D01*
X127997835Y-146068616D01*
X128169973Y-146183635D01*
X128316365Y-146330027D01*
X128431385Y-146502167D01*
X128510611Y-146693436D01*
X128551000Y-146896484D01*
X128551000Y-147103516D01*
X128510611Y-147306564D01*
X128431385Y-147497833D01*
X128431384Y-147497835D01*
X128316365Y-147669973D01*
X128169973Y-147816365D01*
X127997835Y-147931384D01*
X127997834Y-147931385D01*
X127997833Y-147931385D01*
X127806564Y-148010611D01*
X127603516Y-148051000D01*
X127396484Y-148051000D01*
X127193436Y-148010611D01*
X127002167Y-147931385D01*
X127002166Y-147931385D01*
X127002165Y-147931384D01*
X126830027Y-147816365D01*
X126683635Y-147669973D01*
X126568616Y-147497835D01*
X126568615Y-147497833D01*
X126489389Y-147306564D01*
X126449000Y-147103516D01*
X126449000Y-146896484D01*
X126489389Y-146693436D01*
X126568615Y-146502167D01*
X126683635Y-146330027D01*
X126830027Y-146183635D01*
X127002165Y-146068616D01*
X127002167Y-146068615D01*
X127193436Y-145989389D01*
X127396484Y-145949000D01*
X127603516Y-145949000D01*
X127806564Y-145989389D01*
G37*
G36*
X123806564Y-145989389D02*
G01*
X123997833Y-146068615D01*
X123997835Y-146068616D01*
X124169973Y-146183635D01*
X124316365Y-146330027D01*
X124431385Y-146502167D01*
X124510611Y-146693436D01*
X124551000Y-146896484D01*
X124551000Y-147103516D01*
X124510611Y-147306564D01*
X124431385Y-147497833D01*
X124431384Y-147497835D01*
X124316365Y-147669973D01*
X124169973Y-147816365D01*
X123997835Y-147931384D01*
X123997834Y-147931385D01*
X123997833Y-147931385D01*
X123806564Y-148010611D01*
X123603516Y-148051000D01*
X123396484Y-148051000D01*
X123193436Y-148010611D01*
X123002167Y-147931385D01*
X123002166Y-147931385D01*
X123002165Y-147931384D01*
X122830027Y-147816365D01*
X122683635Y-147669973D01*
X122568616Y-147497835D01*
X122568615Y-147497833D01*
X122489389Y-147306564D01*
X122449000Y-147103516D01*
X122449000Y-146896484D01*
X122489389Y-146693436D01*
X122568615Y-146502167D01*
X122683635Y-146330027D01*
X122830027Y-146183635D01*
X123002165Y-146068616D01*
X123002167Y-146068615D01*
X123193436Y-145989389D01*
X123396484Y-145949000D01*
X123603516Y-145949000D01*
X123806564Y-145989389D01*
G37*
G36*
X119806564Y-145989389D02*
G01*
X119997833Y-146068615D01*
X119997835Y-146068616D01*
X120169973Y-146183635D01*
X120316365Y-146330027D01*
X120431385Y-146502167D01*
X120510611Y-146693436D01*
X120551000Y-146896484D01*
X120551000Y-147103516D01*
X120510611Y-147306564D01*
X120431385Y-147497833D01*
X120431384Y-147497835D01*
X120316365Y-147669973D01*
X120169973Y-147816365D01*
X119997835Y-147931384D01*
X119997834Y-147931385D01*
X119997833Y-147931385D01*
X119806564Y-148010611D01*
X119603516Y-148051000D01*
X119396484Y-148051000D01*
X119193436Y-148010611D01*
X119002167Y-147931385D01*
X119002166Y-147931385D01*
X119002165Y-147931384D01*
X118830027Y-147816365D01*
X118683635Y-147669973D01*
X118568616Y-147497835D01*
X118568615Y-147497833D01*
X118489389Y-147306564D01*
X118449000Y-147103516D01*
X118449000Y-146896484D01*
X118489389Y-146693436D01*
X118568615Y-146502167D01*
X118683635Y-146330027D01*
X118830027Y-146183635D01*
X119002165Y-146068616D01*
X119002167Y-146068615D01*
X119193436Y-145989389D01*
X119396484Y-145949000D01*
X119603516Y-145949000D01*
X119806564Y-145989389D01*
G37*
G36*
X115806564Y-145989389D02*
G01*
X115997833Y-146068615D01*
X115997835Y-146068616D01*
X116169973Y-146183635D01*
X116316365Y-146330027D01*
X116431385Y-146502167D01*
X116510611Y-146693436D01*
X116551000Y-146896484D01*
X116551000Y-147103516D01*
X116510611Y-147306564D01*
X116431385Y-147497833D01*
X116431384Y-147497835D01*
X116316365Y-147669973D01*
X116169973Y-147816365D01*
X115997835Y-147931384D01*
X115997834Y-147931385D01*
X115997833Y-147931385D01*
X115806564Y-148010611D01*
X115603516Y-148051000D01*
X115396484Y-148051000D01*
X115193436Y-148010611D01*
X115002167Y-147931385D01*
X115002166Y-147931385D01*
X115002165Y-147931384D01*
X114830027Y-147816365D01*
X114683635Y-147669973D01*
X114568616Y-147497835D01*
X114568615Y-147497833D01*
X114489389Y-147306564D01*
X114449000Y-147103516D01*
X114449000Y-146896484D01*
X114489389Y-146693436D01*
X114568615Y-146502167D01*
X114683635Y-146330027D01*
X114830027Y-146183635D01*
X115002165Y-146068616D01*
X115002167Y-146068615D01*
X115193436Y-145989389D01*
X115396484Y-145949000D01*
X115603516Y-145949000D01*
X115806564Y-145989389D01*
G37*
G36*
X149098228Y-142181703D02*
G01*
X149253100Y-142245853D01*
X149392481Y-142338985D01*
X149511015Y-142457519D01*
X149604147Y-142596900D01*
X149668297Y-142751772D01*
X149701000Y-142916184D01*
X149701000Y-143083816D01*
X149668297Y-143248228D01*
X149604147Y-143403100D01*
X149511015Y-143542481D01*
X149392481Y-143661015D01*
X149253100Y-143754147D01*
X149098228Y-143818297D01*
X148933816Y-143851000D01*
X148766184Y-143851000D01*
X148601772Y-143818297D01*
X148446900Y-143754147D01*
X148307519Y-143661015D01*
X148188985Y-143542481D01*
X148095853Y-143403100D01*
X148031703Y-143248228D01*
X147999000Y-143083816D01*
X147999000Y-142916184D01*
X148031703Y-142751772D01*
X148095853Y-142596900D01*
X148188985Y-142457519D01*
X148307519Y-142338985D01*
X148446900Y-142245853D01*
X148601772Y-142181703D01*
X148766184Y-142149000D01*
X148933816Y-142149000D01*
X149098228Y-142181703D01*
G37*
G36*
X149098228Y-140181703D02*
G01*
X149253100Y-140245853D01*
X149392481Y-140338985D01*
X149511015Y-140457519D01*
X149604147Y-140596900D01*
X149668297Y-140751772D01*
X149701000Y-140916184D01*
X149701000Y-141083816D01*
X149668297Y-141248228D01*
X149604147Y-141403100D01*
X149511015Y-141542481D01*
X149392481Y-141661015D01*
X149253100Y-141754147D01*
X149098228Y-141818297D01*
X148933816Y-141851000D01*
X148766184Y-141851000D01*
X148601772Y-141818297D01*
X148446900Y-141754147D01*
X148307519Y-141661015D01*
X148188985Y-141542481D01*
X148095853Y-141403100D01*
X148031703Y-141248228D01*
X147999000Y-141083816D01*
X147999000Y-140916184D01*
X148031703Y-140751772D01*
X148095853Y-140596900D01*
X148188985Y-140457519D01*
X148307519Y-140338985D01*
X148446900Y-140245853D01*
X148601772Y-140181703D01*
X148766184Y-140149000D01*
X148933816Y-140149000D01*
X149098228Y-140181703D01*
G37*
G36*
X106713512Y-133343927D02*
G01*
X106862812Y-133373624D01*
X107026784Y-133441544D01*
X107174354Y-133540147D01*
X107299853Y-133665646D01*
X107398456Y-133813216D01*
X107466376Y-133977188D01*
X107501000Y-134151259D01*
X107501000Y-134328741D01*
X107466376Y-134502812D01*
X107398456Y-134666784D01*
X107299853Y-134814354D01*
X107174354Y-134939853D01*
X107026784Y-135038456D01*
X106862812Y-135106376D01*
X106713512Y-135136073D01*
X106688742Y-135141000D01*
X106511258Y-135141000D01*
X106486488Y-135136073D01*
X106337188Y-135106376D01*
X106173216Y-135038456D01*
X106025646Y-134939853D01*
X105900147Y-134814354D01*
X105801544Y-134666784D01*
X105733624Y-134502812D01*
X105699000Y-134328741D01*
X105699000Y-134151259D01*
X105733624Y-133977188D01*
X105801544Y-133813216D01*
X105900147Y-133665646D01*
X106025646Y-133540147D01*
X106173216Y-133441544D01*
X106337188Y-133373624D01*
X106486488Y-133343927D01*
X106511258Y-133339000D01*
X106688742Y-133339000D01*
X106713512Y-133343927D01*
G37*
G36*
X139806564Y-130989389D02*
G01*
X139997833Y-131068615D01*
X139997835Y-131068616D01*
X140169973Y-131183635D01*
X140316365Y-131330027D01*
X140431385Y-131502167D01*
X140510611Y-131693436D01*
X140551000Y-131896484D01*
X140551000Y-132103516D01*
X140510611Y-132306564D01*
X140431385Y-132497833D01*
X140431384Y-132497835D01*
X140316365Y-132669973D01*
X140169973Y-132816365D01*
X139997835Y-132931384D01*
X139997834Y-132931385D01*
X139997833Y-132931385D01*
X139806564Y-133010611D01*
X139603516Y-133051000D01*
X139396484Y-133051000D01*
X139193436Y-133010611D01*
X139002167Y-132931385D01*
X139002166Y-132931385D01*
X139002165Y-132931384D01*
X138830027Y-132816365D01*
X138683635Y-132669973D01*
X138568616Y-132497835D01*
X138568615Y-132497833D01*
X138489389Y-132306564D01*
X138449000Y-132103516D01*
X138449000Y-131896484D01*
X138489389Y-131693436D01*
X138568615Y-131502167D01*
X138683635Y-131330027D01*
X138830027Y-131183635D01*
X139002165Y-131068616D01*
X139002167Y-131068615D01*
X139193436Y-130989389D01*
X139396484Y-130949000D01*
X139603516Y-130949000D01*
X139806564Y-130989389D01*
G37*
G36*
X107501000Y-132601000D02*
G01*
X105699000Y-132601000D01*
X105699000Y-130799000D01*
X107501000Y-130799000D01*
X107501000Y-132601000D01*
G37*
G36*
X156488871Y-128448408D02*
G01*
X156793883Y-128574748D01*
X157068387Y-128758166D01*
X157301834Y-128991613D01*
X157485252Y-129266117D01*
X157611592Y-129571129D01*
X157676000Y-129894928D01*
X157676000Y-130225072D01*
X157611592Y-130548871D01*
X157485252Y-130853883D01*
X157301834Y-131128387D01*
X157068387Y-131361834D01*
X156793883Y-131545252D01*
X156488871Y-131671592D01*
X156379059Y-131693435D01*
X156165073Y-131736000D01*
X155834927Y-131736000D01*
X155620941Y-131693435D01*
X155511129Y-131671592D01*
X155206117Y-131545252D01*
X154931613Y-131361834D01*
X154698166Y-131128387D01*
X154514748Y-130853883D01*
X154388408Y-130548871D01*
X154324000Y-130225072D01*
X154324000Y-129894928D01*
X154388408Y-129571129D01*
X154514748Y-129266117D01*
X154698166Y-128991613D01*
X154931613Y-128758166D01*
X155206117Y-128574748D01*
X155511129Y-128448408D01*
X155834927Y-128384000D01*
X156165073Y-128384000D01*
X156488871Y-128448408D01*
G37*
G36*
X139806564Y-127189389D02*
G01*
X139997833Y-127268615D01*
X139997835Y-127268616D01*
X140169973Y-127383635D01*
X140316365Y-127530027D01*
X140431385Y-127702167D01*
X140510611Y-127893436D01*
X140551000Y-128096484D01*
X140551000Y-128303516D01*
X140510611Y-128506564D01*
X140471715Y-128600467D01*
X140431384Y-128697835D01*
X140316365Y-128869973D01*
X140169973Y-129016365D01*
X139997835Y-129131384D01*
X139997834Y-129131385D01*
X139997833Y-129131385D01*
X139806564Y-129210611D01*
X139603516Y-129251000D01*
X139396484Y-129251000D01*
X139193436Y-129210611D01*
X139002167Y-129131385D01*
X139002166Y-129131385D01*
X139002165Y-129131384D01*
X138830027Y-129016365D01*
X138683635Y-128869973D01*
X138568616Y-128697835D01*
X138528285Y-128600467D01*
X138489389Y-128506564D01*
X138449000Y-128303516D01*
X138449000Y-128096484D01*
X138489389Y-127893436D01*
X138568615Y-127702167D01*
X138683635Y-127530027D01*
X138830027Y-127383635D01*
X139002165Y-127268616D01*
X139002167Y-127268615D01*
X139193436Y-127189389D01*
X139396484Y-127149000D01*
X139603516Y-127149000D01*
X139806564Y-127189389D01*
G37*
G36*
X149927395Y-127235546D02*
G01*
X150100466Y-127307234D01*
X150177818Y-127358919D01*
X150256227Y-127411310D01*
X150388690Y-127543773D01*
X150388691Y-127543775D01*
X150492766Y-127699534D01*
X150564454Y-127872605D01*
X150601000Y-128056333D01*
X150601000Y-128243667D01*
X150564454Y-128427395D01*
X150492766Y-128600466D01*
X150492765Y-128600467D01*
X150388690Y-128756227D01*
X150256227Y-128888690D01*
X150177818Y-128941081D01*
X150100466Y-128992766D01*
X149927395Y-129064454D01*
X149743667Y-129101000D01*
X149556333Y-129101000D01*
X149372605Y-129064454D01*
X149199534Y-128992766D01*
X149122182Y-128941081D01*
X149043773Y-128888690D01*
X148911310Y-128756227D01*
X148807235Y-128600467D01*
X148807234Y-128600466D01*
X148735546Y-128427395D01*
X148699000Y-128243667D01*
X148699000Y-128056333D01*
X148735546Y-127872605D01*
X148807234Y-127699534D01*
X148911309Y-127543775D01*
X148911310Y-127543773D01*
X149043773Y-127411310D01*
X149122182Y-127358919D01*
X149199534Y-127307234D01*
X149372605Y-127235546D01*
X149556333Y-127199000D01*
X149743667Y-127199000D01*
X149927395Y-127235546D01*
G37*
G36*
X147387395Y-125965546D02*
G01*
X147560466Y-126037234D01*
X147637818Y-126088919D01*
X147716227Y-126141310D01*
X147848690Y-126273773D01*
X147848691Y-126273775D01*
X147952766Y-126429534D01*
X148024454Y-126602605D01*
X148061000Y-126786333D01*
X148061000Y-126973667D01*
X148024454Y-127157395D01*
X147952766Y-127330466D01*
X147901081Y-127407818D01*
X147848690Y-127486227D01*
X147716227Y-127618690D01*
X147637818Y-127671081D01*
X147560466Y-127722766D01*
X147387395Y-127794454D01*
X147203667Y-127831000D01*
X147016333Y-127831000D01*
X146832605Y-127794454D01*
X146659534Y-127722766D01*
X146582182Y-127671081D01*
X146503773Y-127618690D01*
X146371310Y-127486227D01*
X146318919Y-127407818D01*
X146267234Y-127330466D01*
X146195546Y-127157395D01*
X146159000Y-126973667D01*
X146159000Y-126786333D01*
X146195546Y-126602605D01*
X146267234Y-126429534D01*
X146371309Y-126273775D01*
X146371310Y-126273773D01*
X146503773Y-126141310D01*
X146582182Y-126088919D01*
X146659534Y-126037234D01*
X146832605Y-125965546D01*
X147016333Y-125929000D01*
X147203667Y-125929000D01*
X147387395Y-125965546D01*
G37*
G36*
X149927395Y-124695546D02*
G01*
X150100466Y-124767234D01*
X150177818Y-124818919D01*
X150256227Y-124871310D01*
X150388690Y-125003773D01*
X150388691Y-125003775D01*
X150492766Y-125159534D01*
X150564454Y-125332605D01*
X150601000Y-125516333D01*
X150601000Y-125703667D01*
X150564454Y-125887395D01*
X150492766Y-126060466D01*
X150492765Y-126060467D01*
X150388690Y-126216227D01*
X150256227Y-126348690D01*
X150177818Y-126401081D01*
X150100466Y-126452766D01*
X149927395Y-126524454D01*
X149743667Y-126561000D01*
X149556333Y-126561000D01*
X149372605Y-126524454D01*
X149199534Y-126452766D01*
X149122182Y-126401081D01*
X149043773Y-126348690D01*
X148911310Y-126216227D01*
X148807235Y-126060467D01*
X148807234Y-126060466D01*
X148735546Y-125887395D01*
X148699000Y-125703667D01*
X148699000Y-125516333D01*
X148735546Y-125332605D01*
X148807234Y-125159534D01*
X148911309Y-125003775D01*
X148911310Y-125003773D01*
X149043773Y-124871310D01*
X149122182Y-124818919D01*
X149199534Y-124767234D01*
X149372605Y-124695546D01*
X149556333Y-124659000D01*
X149743667Y-124659000D01*
X149927395Y-124695546D01*
G37*
G36*
X139806564Y-123389389D02*
G01*
X139997833Y-123468615D01*
X139997835Y-123468616D01*
X140169973Y-123583635D01*
X140316365Y-123730027D01*
X140422944Y-123889533D01*
X140431385Y-123902167D01*
X140510611Y-124093436D01*
X140551000Y-124296484D01*
X140551000Y-124503516D01*
X140510611Y-124706564D01*
X140442371Y-124871310D01*
X140431384Y-124897835D01*
X140316365Y-125069973D01*
X140169973Y-125216365D01*
X139997835Y-125331384D01*
X139997834Y-125331385D01*
X139997833Y-125331385D01*
X139806564Y-125410611D01*
X139603516Y-125451000D01*
X139396484Y-125451000D01*
X139193436Y-125410611D01*
X139002167Y-125331385D01*
X139002166Y-125331385D01*
X139002165Y-125331384D01*
X138830027Y-125216365D01*
X138683635Y-125069973D01*
X138568616Y-124897835D01*
X138557629Y-124871310D01*
X138489389Y-124706564D01*
X138449000Y-124503516D01*
X138449000Y-124296484D01*
X138489389Y-124093436D01*
X138568615Y-123902167D01*
X138577057Y-123889533D01*
X138683635Y-123730027D01*
X138830027Y-123583635D01*
X139002165Y-123468616D01*
X139002167Y-123468615D01*
X139193436Y-123389389D01*
X139396484Y-123349000D01*
X139603516Y-123349000D01*
X139806564Y-123389389D01*
G37*
G36*
X147387395Y-123425546D02*
G01*
X147560466Y-123497234D01*
X147637818Y-123548919D01*
X147716227Y-123601310D01*
X147848690Y-123733773D01*
X147848691Y-123733775D01*
X147952766Y-123889534D01*
X148024454Y-124062605D01*
X148061000Y-124246333D01*
X148061000Y-124433667D01*
X148024454Y-124617395D01*
X147952766Y-124790466D01*
X147952765Y-124790467D01*
X147848690Y-124946227D01*
X147716227Y-125078690D01*
X147637818Y-125131081D01*
X147560466Y-125182766D01*
X147387395Y-125254454D01*
X147203667Y-125291000D01*
X147016333Y-125291000D01*
X146832605Y-125254454D01*
X146659534Y-125182766D01*
X146582182Y-125131081D01*
X146503773Y-125078690D01*
X146371310Y-124946227D01*
X146267235Y-124790467D01*
X146267234Y-124790466D01*
X146195546Y-124617395D01*
X146159000Y-124433667D01*
X146159000Y-124246333D01*
X146195546Y-124062605D01*
X146267234Y-123889534D01*
X146371309Y-123733775D01*
X146371310Y-123733773D01*
X146503773Y-123601310D01*
X146582182Y-123548919D01*
X146659534Y-123497234D01*
X146832605Y-123425546D01*
X147016333Y-123389000D01*
X147203667Y-123389000D01*
X147387395Y-123425546D01*
G37*
G36*
X156488871Y-120828408D02*
G01*
X156793883Y-120954748D01*
X157068387Y-121138166D01*
X157301834Y-121371613D01*
X157485252Y-121646117D01*
X157611592Y-121951129D01*
X157676000Y-122274928D01*
X157676000Y-122605072D01*
X157611592Y-122928871D01*
X157485252Y-123233883D01*
X157301834Y-123508387D01*
X157068387Y-123741834D01*
X156793883Y-123925252D01*
X156488871Y-124051592D01*
X156433510Y-124062604D01*
X156165073Y-124116000D01*
X155834927Y-124116000D01*
X155566490Y-124062604D01*
X155511129Y-124051592D01*
X155206117Y-123925252D01*
X154931613Y-123741834D01*
X154698166Y-123508387D01*
X154514748Y-123233883D01*
X154388408Y-122928871D01*
X154324000Y-122605072D01*
X154324000Y-122274928D01*
X154388408Y-121951129D01*
X154514748Y-121646117D01*
X154698166Y-121371613D01*
X154931613Y-121138166D01*
X155206117Y-120954748D01*
X155511129Y-120828408D01*
X155834927Y-120764000D01*
X156165073Y-120764000D01*
X156488871Y-120828408D01*
G37*
G36*
X110414600Y-123164600D02*
G01*
X108585400Y-123164600D01*
X108585400Y-121335400D01*
X110414600Y-121335400D01*
X110414600Y-123164600D01*
G37*
G36*
X107226778Y-121370547D02*
G01*
X107393224Y-121439491D01*
X107543022Y-121539583D01*
X107670417Y-121666978D01*
X107770509Y-121816776D01*
X107839453Y-121983222D01*
X107874600Y-122159918D01*
X107874600Y-122340082D01*
X107839453Y-122516778D01*
X107770509Y-122683224D01*
X107670417Y-122833022D01*
X107543022Y-122960417D01*
X107393224Y-123060509D01*
X107226778Y-123129453D01*
X107050082Y-123164600D01*
X106869918Y-123164600D01*
X106693222Y-123129453D01*
X106526776Y-123060509D01*
X106376978Y-122960417D01*
X106249583Y-122833022D01*
X106149491Y-122683224D01*
X106080547Y-122516778D01*
X106045400Y-122340082D01*
X106045400Y-122159918D01*
X106080547Y-121983222D01*
X106149491Y-121816776D01*
X106249583Y-121666978D01*
X106376978Y-121539583D01*
X106526776Y-121439491D01*
X106693222Y-121370547D01*
X106869918Y-121335400D01*
X107050082Y-121335400D01*
X107226778Y-121370547D01*
G37*
G36*
X107226778Y-118830547D02*
G01*
X107393224Y-118899491D01*
X107543022Y-118999583D01*
X107670417Y-119126978D01*
X107770509Y-119276776D01*
X107839453Y-119443222D01*
X107874600Y-119619918D01*
X107874600Y-119800082D01*
X107839453Y-119976778D01*
X107770509Y-120143224D01*
X107670417Y-120293022D01*
X107543022Y-120420417D01*
X107393224Y-120520509D01*
X107226778Y-120589453D01*
X107050082Y-120624600D01*
X106869918Y-120624600D01*
X106693222Y-120589453D01*
X106526776Y-120520509D01*
X106376978Y-120420417D01*
X106249583Y-120293022D01*
X106149491Y-120143224D01*
X106080547Y-119976778D01*
X106045400Y-119800082D01*
X106045400Y-119619918D01*
X106080547Y-119443222D01*
X106149491Y-119276776D01*
X106249583Y-119126978D01*
X106376978Y-118999583D01*
X106526776Y-118899491D01*
X106693222Y-118830547D01*
X106869918Y-118795400D01*
X107050082Y-118795400D01*
X107226778Y-118830547D01*
G37*
G36*
X109766778Y-118830547D02*
G01*
X109933224Y-118899491D01*
X110083022Y-118999583D01*
X110210417Y-119126978D01*
X110310509Y-119276776D01*
X110379453Y-119443222D01*
X110414600Y-119619918D01*
X110414600Y-119800082D01*
X110379453Y-119976778D01*
X110310509Y-120143224D01*
X110210417Y-120293022D01*
X110083022Y-120420417D01*
X109933224Y-120520509D01*
X109766778Y-120589453D01*
X109590082Y-120624600D01*
X109409918Y-120624600D01*
X109233222Y-120589453D01*
X109066776Y-120520509D01*
X108916978Y-120420417D01*
X108789583Y-120293022D01*
X108689491Y-120143224D01*
X108620547Y-119976778D01*
X108585400Y-119800082D01*
X108585400Y-119619918D01*
X108620547Y-119443222D01*
X108689491Y-119276776D01*
X108789583Y-119126978D01*
X108916978Y-118999583D01*
X109066776Y-118899491D01*
X109233222Y-118830547D01*
X109409918Y-118795400D01*
X109590082Y-118795400D01*
X109766778Y-118830547D01*
G37*
G36*
X156261702Y-116903221D02*
G01*
X156488871Y-116948408D01*
X156793883Y-117074748D01*
X157068387Y-117258166D01*
X157301834Y-117491613D01*
X157485252Y-117766117D01*
X157611592Y-118071129D01*
X157676000Y-118394928D01*
X157676000Y-118725072D01*
X157611592Y-119048871D01*
X157485252Y-119353883D01*
X157301834Y-119628387D01*
X157068387Y-119861834D01*
X156793883Y-120045252D01*
X156488871Y-120171592D01*
X156165073Y-120236000D01*
X155834927Y-120236000D01*
X155511129Y-120171592D01*
X155206117Y-120045252D01*
X154931613Y-119861834D01*
X154698166Y-119628387D01*
X154514748Y-119353883D01*
X154388408Y-119048871D01*
X154324000Y-118725072D01*
X154324000Y-118394928D01*
X154388408Y-118071129D01*
X154514748Y-117766117D01*
X154698166Y-117491613D01*
X154931613Y-117258166D01*
X155206117Y-117074748D01*
X155511129Y-116948408D01*
X155738298Y-116903221D01*
X155834927Y-116884000D01*
X156165073Y-116884000D01*
X156261702Y-116903221D01*
G37*
G36*
X109766778Y-116290547D02*
G01*
X109933224Y-116359491D01*
X110083022Y-116459583D01*
X110210417Y-116586978D01*
X110310509Y-116736776D01*
X110379453Y-116903222D01*
X110414600Y-117079918D01*
X110414600Y-117260082D01*
X110379453Y-117436778D01*
X110310509Y-117603224D01*
X110210417Y-117753022D01*
X110083022Y-117880417D01*
X109933224Y-117980509D01*
X109766778Y-118049453D01*
X109590082Y-118084600D01*
X109409918Y-118084600D01*
X109233222Y-118049453D01*
X109066776Y-117980509D01*
X108916978Y-117880417D01*
X108789583Y-117753022D01*
X108689491Y-117603224D01*
X108620547Y-117436778D01*
X108585400Y-117260082D01*
X108585400Y-117079918D01*
X108620547Y-116903222D01*
X108689491Y-116736776D01*
X108789583Y-116586978D01*
X108916978Y-116459583D01*
X109066776Y-116359491D01*
X109233222Y-116290547D01*
X109409918Y-116255400D01*
X109590082Y-116255400D01*
X109766778Y-116290547D01*
G37*
G36*
X107226778Y-116290547D02*
G01*
X107393224Y-116359491D01*
X107543022Y-116459583D01*
X107670417Y-116586978D01*
X107770509Y-116736776D01*
X107839453Y-116903222D01*
X107874600Y-117079918D01*
X107874600Y-117260082D01*
X107839453Y-117436778D01*
X107770509Y-117603224D01*
X107670417Y-117753022D01*
X107543022Y-117880417D01*
X107393224Y-117980509D01*
X107226778Y-118049453D01*
X107050082Y-118084600D01*
X106869918Y-118084600D01*
X106693222Y-118049453D01*
X106526776Y-117980509D01*
X106376978Y-117880417D01*
X106249583Y-117753022D01*
X106149491Y-117603224D01*
X106080547Y-117436778D01*
X106045400Y-117260082D01*
X106045400Y-117079918D01*
X106080547Y-116903222D01*
X106149491Y-116736776D01*
X106249583Y-116586978D01*
X106376978Y-116459583D01*
X106526776Y-116359491D01*
X106693222Y-116290547D01*
X106869918Y-116255400D01*
X107050082Y-116255400D01*
X107226778Y-116290547D01*
G37*
G36*
X149927395Y-115735546D02*
G01*
X150100466Y-115807234D01*
X150177818Y-115858919D01*
X150256227Y-115911310D01*
X150388690Y-116043773D01*
X150388691Y-116043775D01*
X150492766Y-116199534D01*
X150564454Y-116372605D01*
X150601000Y-116556333D01*
X150601000Y-116743667D01*
X150564454Y-116927395D01*
X150492766Y-117100466D01*
X150492765Y-117100467D01*
X150388690Y-117256227D01*
X150256227Y-117388690D01*
X150184258Y-117436778D01*
X150100466Y-117492766D01*
X149927395Y-117564454D01*
X149743667Y-117601000D01*
X149556333Y-117601000D01*
X149372605Y-117564454D01*
X149199534Y-117492766D01*
X149115742Y-117436778D01*
X149043773Y-117388690D01*
X148911310Y-117256227D01*
X148807235Y-117100467D01*
X148807234Y-117100466D01*
X148735546Y-116927395D01*
X148699000Y-116743667D01*
X148699000Y-116556333D01*
X148735546Y-116372605D01*
X148807234Y-116199534D01*
X148911309Y-116043775D01*
X148911310Y-116043773D01*
X149043773Y-115911310D01*
X149122182Y-115858919D01*
X149199534Y-115807234D01*
X149372605Y-115735546D01*
X149556333Y-115699000D01*
X149743667Y-115699000D01*
X149927395Y-115735546D01*
G37*
G36*
X147387395Y-114465546D02*
G01*
X147560466Y-114537234D01*
X147637818Y-114588919D01*
X147716227Y-114641310D01*
X147848690Y-114773773D01*
X147848691Y-114773775D01*
X147952766Y-114929534D01*
X148024454Y-115102605D01*
X148061000Y-115286333D01*
X148061000Y-115473667D01*
X148024454Y-115657395D01*
X147952766Y-115830466D01*
X147952765Y-115830467D01*
X147848690Y-115986227D01*
X147716227Y-116118690D01*
X147637818Y-116171081D01*
X147560466Y-116222766D01*
X147387395Y-116294454D01*
X147203667Y-116331000D01*
X147016333Y-116331000D01*
X146832605Y-116294454D01*
X146659534Y-116222766D01*
X146582182Y-116171081D01*
X146503773Y-116118690D01*
X146371310Y-115986227D01*
X146267235Y-115830467D01*
X146267234Y-115830466D01*
X146195546Y-115657395D01*
X146159000Y-115473667D01*
X146159000Y-115286333D01*
X146195546Y-115102605D01*
X146267234Y-114929534D01*
X146371309Y-114773775D01*
X146371310Y-114773773D01*
X146503773Y-114641310D01*
X146582182Y-114588919D01*
X146659534Y-114537234D01*
X146832605Y-114465546D01*
X147016333Y-114429000D01*
X147203667Y-114429000D01*
X147387395Y-114465546D01*
G37*
G36*
X107226778Y-113750547D02*
G01*
X107393224Y-113819491D01*
X107543022Y-113919583D01*
X107670417Y-114046978D01*
X107770509Y-114196776D01*
X107839453Y-114363222D01*
X107874600Y-114539918D01*
X107874600Y-114720082D01*
X107839453Y-114896778D01*
X107770509Y-115063224D01*
X107670417Y-115213022D01*
X107543022Y-115340417D01*
X107393224Y-115440509D01*
X107226778Y-115509453D01*
X107050082Y-115544600D01*
X106869918Y-115544600D01*
X106693222Y-115509453D01*
X106526776Y-115440509D01*
X106376978Y-115340417D01*
X106249583Y-115213022D01*
X106149491Y-115063224D01*
X106080547Y-114896778D01*
X106045400Y-114720082D01*
X106045400Y-114539918D01*
X106080547Y-114363222D01*
X106149491Y-114196776D01*
X106249583Y-114046978D01*
X106376978Y-113919583D01*
X106526776Y-113819491D01*
X106693222Y-113750547D01*
X106869918Y-113715400D01*
X107050082Y-113715400D01*
X107226778Y-113750547D01*
G37*
G36*
X109766778Y-113750547D02*
G01*
X109933224Y-113819491D01*
X110083022Y-113919583D01*
X110210417Y-114046978D01*
X110310509Y-114196776D01*
X110379453Y-114363222D01*
X110414600Y-114539918D01*
X110414600Y-114720082D01*
X110379453Y-114896778D01*
X110310509Y-115063224D01*
X110210417Y-115213022D01*
X110083022Y-115340417D01*
X109933224Y-115440509D01*
X109766778Y-115509453D01*
X109590082Y-115544600D01*
X109409918Y-115544600D01*
X109233222Y-115509453D01*
X109066776Y-115440509D01*
X108916978Y-115340417D01*
X108789583Y-115213022D01*
X108689491Y-115063224D01*
X108620547Y-114896778D01*
X108585400Y-114720082D01*
X108585400Y-114539918D01*
X108620547Y-114363222D01*
X108689491Y-114196776D01*
X108789583Y-114046978D01*
X108916978Y-113919583D01*
X109066776Y-113819491D01*
X109233222Y-113750547D01*
X109409918Y-113715400D01*
X109590082Y-113715400D01*
X109766778Y-113750547D01*
G37*
G36*
X149927395Y-113195546D02*
G01*
X150100466Y-113267234D01*
X150177818Y-113318919D01*
X150256227Y-113371310D01*
X150388690Y-113503773D01*
X150388691Y-113503775D01*
X150492766Y-113659534D01*
X150564454Y-113832605D01*
X150601000Y-114016333D01*
X150601000Y-114203667D01*
X150564454Y-114387395D01*
X150492766Y-114560466D01*
X150492765Y-114560467D01*
X150388690Y-114716227D01*
X150256227Y-114848690D01*
X150184258Y-114896778D01*
X150100466Y-114952766D01*
X149927395Y-115024454D01*
X149743667Y-115061000D01*
X149556333Y-115061000D01*
X149372605Y-115024454D01*
X149199534Y-114952766D01*
X149115742Y-114896778D01*
X149043773Y-114848690D01*
X148911310Y-114716227D01*
X148807235Y-114560467D01*
X148807234Y-114560466D01*
X148735546Y-114387395D01*
X148699000Y-114203667D01*
X148699000Y-114016333D01*
X148735546Y-113832605D01*
X148807234Y-113659534D01*
X148911309Y-113503775D01*
X148911310Y-113503773D01*
X149043773Y-113371310D01*
X149122182Y-113318919D01*
X149199534Y-113267234D01*
X149372605Y-113195546D01*
X149556333Y-113159000D01*
X149743667Y-113159000D01*
X149927395Y-113195546D01*
G37*
G36*
X147387395Y-111925546D02*
G01*
X147560466Y-111997234D01*
X147637818Y-112048919D01*
X147716227Y-112101310D01*
X147848690Y-112233773D01*
X147848691Y-112233775D01*
X147952766Y-112389534D01*
X148024454Y-112562605D01*
X148061000Y-112746333D01*
X148061000Y-112933667D01*
X148024454Y-113117395D01*
X147952766Y-113290466D01*
X147952765Y-113290467D01*
X147848690Y-113446227D01*
X147716227Y-113578690D01*
X147637818Y-113631081D01*
X147560466Y-113682766D01*
X147387395Y-113754454D01*
X147203667Y-113791000D01*
X147016333Y-113791000D01*
X146832605Y-113754454D01*
X146659534Y-113682766D01*
X146582182Y-113631081D01*
X146503773Y-113578690D01*
X146371310Y-113446227D01*
X146267235Y-113290467D01*
X146267234Y-113290466D01*
X146195546Y-113117395D01*
X146159000Y-112933667D01*
X146159000Y-112746333D01*
X146195546Y-112562605D01*
X146267234Y-112389534D01*
X146371309Y-112233775D01*
X146371310Y-112233773D01*
X146503773Y-112101310D01*
X146582182Y-112048919D01*
X146659534Y-111997234D01*
X146832605Y-111925546D01*
X147016333Y-111889000D01*
X147203667Y-111889000D01*
X147387395Y-111925546D01*
G37*
G36*
X107226778Y-111210547D02*
G01*
X107393224Y-111279491D01*
X107543022Y-111379583D01*
X107670417Y-111506978D01*
X107770509Y-111656776D01*
X107839453Y-111823222D01*
X107874600Y-111999918D01*
X107874600Y-112180082D01*
X107839453Y-112356778D01*
X107770509Y-112523224D01*
X107670417Y-112673022D01*
X107543022Y-112800417D01*
X107393224Y-112900509D01*
X107226778Y-112969453D01*
X107050082Y-113004600D01*
X106869918Y-113004600D01*
X106693222Y-112969453D01*
X106526776Y-112900509D01*
X106376978Y-112800417D01*
X106249583Y-112673022D01*
X106149491Y-112523224D01*
X106080547Y-112356778D01*
X106045400Y-112180082D01*
X106045400Y-111999918D01*
X106080547Y-111823222D01*
X106149491Y-111656776D01*
X106249583Y-111506978D01*
X106376978Y-111379583D01*
X106526776Y-111279491D01*
X106693222Y-111210547D01*
X106869918Y-111175400D01*
X107050082Y-111175400D01*
X107226778Y-111210547D01*
G37*
G36*
X109766778Y-111210547D02*
G01*
X109933224Y-111279491D01*
X110083022Y-111379583D01*
X110210417Y-111506978D01*
X110310509Y-111656776D01*
X110379453Y-111823222D01*
X110414600Y-111999918D01*
X110414600Y-112180082D01*
X110379453Y-112356778D01*
X110310509Y-112523224D01*
X110210417Y-112673022D01*
X110083022Y-112800417D01*
X109933224Y-112900509D01*
X109766778Y-112969453D01*
X109590082Y-113004600D01*
X109409918Y-113004600D01*
X109233222Y-112969453D01*
X109066776Y-112900509D01*
X108916978Y-112800417D01*
X108789583Y-112673022D01*
X108689491Y-112523224D01*
X108620547Y-112356778D01*
X108585400Y-112180082D01*
X108585400Y-111999918D01*
X108620547Y-111823222D01*
X108689491Y-111656776D01*
X108789583Y-111506978D01*
X108916978Y-111379583D01*
X109066776Y-111279491D01*
X109233222Y-111210547D01*
X109409918Y-111175400D01*
X109590082Y-111175400D01*
X109766778Y-111210547D01*
G37*
G36*
X156326971Y-109296204D02*
G01*
X156488871Y-109328408D01*
X156793883Y-109454748D01*
X157068387Y-109638166D01*
X157301834Y-109871613D01*
X157485252Y-110146117D01*
X157611592Y-110451129D01*
X157676000Y-110774928D01*
X157676000Y-111105072D01*
X157611592Y-111428871D01*
X157485252Y-111733883D01*
X157301834Y-112008387D01*
X157068387Y-112241834D01*
X156793883Y-112425252D01*
X156488871Y-112551592D01*
X156433510Y-112562604D01*
X156165073Y-112616000D01*
X155834927Y-112616000D01*
X155566490Y-112562604D01*
X155511129Y-112551592D01*
X155206117Y-112425252D01*
X154931613Y-112241834D01*
X154698166Y-112008387D01*
X154514748Y-111733883D01*
X154388408Y-111428871D01*
X154324000Y-111105072D01*
X154324000Y-110774928D01*
X154388408Y-110451129D01*
X154514748Y-110146117D01*
X154698166Y-109871613D01*
X154931613Y-109638166D01*
X155206117Y-109454748D01*
X155511129Y-109328408D01*
X155673029Y-109296204D01*
X155834927Y-109264000D01*
X156165073Y-109264000D01*
X156326971Y-109296204D01*
G37*
G36*
X137706564Y-109569389D02*
G01*
X137897833Y-109648615D01*
X137897835Y-109648616D01*
X138069973Y-109763635D01*
X138216365Y-109910027D01*
X138311339Y-110052165D01*
X138331385Y-110082167D01*
X138410611Y-110273436D01*
X138451000Y-110476484D01*
X138451000Y-110683516D01*
X138410611Y-110886564D01*
X138331385Y-111077833D01*
X138331384Y-111077835D01*
X138216365Y-111249973D01*
X138069973Y-111396365D01*
X137897835Y-111511384D01*
X137897834Y-111511385D01*
X137897833Y-111511385D01*
X137706564Y-111590611D01*
X137503516Y-111631000D01*
X137296484Y-111631000D01*
X137093436Y-111590611D01*
X136902167Y-111511385D01*
X136902166Y-111511385D01*
X136902165Y-111511384D01*
X136730027Y-111396365D01*
X136583635Y-111249973D01*
X136468616Y-111077835D01*
X136468615Y-111077833D01*
X136389389Y-110886564D01*
X136349000Y-110683516D01*
X136349000Y-110476484D01*
X136389389Y-110273436D01*
X136468615Y-110082167D01*
X136488662Y-110052165D01*
X136583635Y-109910027D01*
X136730027Y-109763635D01*
X136902165Y-109648616D01*
X136902167Y-109648615D01*
X137093436Y-109569389D01*
X137296484Y-109529000D01*
X137503516Y-109529000D01*
X137706564Y-109569389D01*
G37*
G36*
X134006564Y-109539389D02*
G01*
X134197833Y-109618615D01*
X134197835Y-109618616D01*
X134242733Y-109648616D01*
X134369973Y-109733635D01*
X134516365Y-109880027D01*
X134631385Y-110052167D01*
X134710611Y-110243436D01*
X134751000Y-110446484D01*
X134751000Y-110653516D01*
X134710611Y-110856564D01*
X134698184Y-110886565D01*
X134631384Y-111047835D01*
X134516365Y-111219973D01*
X134369973Y-111366365D01*
X134197835Y-111481384D01*
X134197834Y-111481385D01*
X134197833Y-111481385D01*
X134006564Y-111560611D01*
X133803516Y-111601000D01*
X133596484Y-111601000D01*
X133393436Y-111560611D01*
X133202167Y-111481385D01*
X133202166Y-111481385D01*
X133202165Y-111481384D01*
X133030027Y-111366365D01*
X132883635Y-111219973D01*
X132768616Y-111047835D01*
X132701816Y-110886565D01*
X132689389Y-110856564D01*
X132649000Y-110653516D01*
X132649000Y-110446484D01*
X132689389Y-110243436D01*
X132768615Y-110052167D01*
X132883635Y-109880027D01*
X133030027Y-109733635D01*
X133157267Y-109648616D01*
X133202165Y-109618616D01*
X133202167Y-109618615D01*
X133393436Y-109539389D01*
X133596484Y-109499000D01*
X133803516Y-109499000D01*
X134006564Y-109539389D01*
G37*
G36*
X130256564Y-109539389D02*
G01*
X130447833Y-109618615D01*
X130447835Y-109618616D01*
X130492733Y-109648616D01*
X130619973Y-109733635D01*
X130766365Y-109880027D01*
X130881385Y-110052167D01*
X130960611Y-110243436D01*
X131001000Y-110446484D01*
X131001000Y-110653516D01*
X130960611Y-110856564D01*
X130948184Y-110886565D01*
X130881384Y-111047835D01*
X130766365Y-111219973D01*
X130619973Y-111366365D01*
X130447835Y-111481384D01*
X130447834Y-111481385D01*
X130447833Y-111481385D01*
X130256564Y-111560611D01*
X130053516Y-111601000D01*
X129846484Y-111601000D01*
X129643436Y-111560611D01*
X129452167Y-111481385D01*
X129452166Y-111481385D01*
X129452165Y-111481384D01*
X129280027Y-111366365D01*
X129133635Y-111219973D01*
X129018616Y-111047835D01*
X128951816Y-110886565D01*
X128939389Y-110856564D01*
X128899000Y-110653516D01*
X128899000Y-110446484D01*
X128939389Y-110243436D01*
X129018615Y-110052167D01*
X129133635Y-109880027D01*
X129280027Y-109733635D01*
X129407267Y-109648616D01*
X129452165Y-109618616D01*
X129452167Y-109618615D01*
X129643436Y-109539389D01*
X129846484Y-109499000D01*
X130053516Y-109499000D01*
X130256564Y-109539389D01*
G37*
G36*
X107575256Y-102391298D02*
G01*
X107681579Y-102412447D01*
X107982042Y-102536903D01*
X108252451Y-102717585D01*
X108482415Y-102947549D01*
X108663097Y-103217958D01*
X108787553Y-103518421D01*
X108851000Y-103837391D01*
X108851000Y-104162609D01*
X108787553Y-104481579D01*
X108663097Y-104782042D01*
X108482415Y-105052451D01*
X108252451Y-105282415D01*
X107982042Y-105463097D01*
X107681579Y-105587553D01*
X107575256Y-105608702D01*
X107362611Y-105651000D01*
X107037389Y-105651000D01*
X106824744Y-105608702D01*
X106718421Y-105587553D01*
X106417958Y-105463097D01*
X106147549Y-105282415D01*
X105917585Y-105052451D01*
X105736903Y-104782042D01*
X105612447Y-104481579D01*
X105549000Y-104162609D01*
X105549000Y-103837391D01*
X105612447Y-103518421D01*
X105736903Y-103217958D01*
X105917585Y-102947549D01*
X106147549Y-102717585D01*
X106417958Y-102536903D01*
X106718421Y-102412447D01*
X106824744Y-102391298D01*
X107037389Y-102349000D01*
X107362611Y-102349000D01*
X107575256Y-102391298D01*
G37*
G36*
X156375256Y-102391298D02*
G01*
X156481579Y-102412447D01*
X156782042Y-102536903D01*
X157052451Y-102717585D01*
X157282415Y-102947549D01*
X157463097Y-103217958D01*
X157587553Y-103518421D01*
X157651000Y-103837391D01*
X157651000Y-104162609D01*
X157587553Y-104481579D01*
X157463097Y-104782042D01*
X157282415Y-105052451D01*
X157052451Y-105282415D01*
X156782042Y-105463097D01*
X156481579Y-105587553D01*
X156375256Y-105608702D01*
X156162611Y-105651000D01*
X155837389Y-105651000D01*
X155624744Y-105608702D01*
X155518421Y-105587553D01*
X155217958Y-105463097D01*
X154947549Y-105282415D01*
X154717585Y-105052451D01*
X154536903Y-104782042D01*
X154412447Y-104481579D01*
X154349000Y-104162609D01*
X154349000Y-103837391D01*
X154412447Y-103518421D01*
X154536903Y-103217958D01*
X154717585Y-102947549D01*
X154947549Y-102717585D01*
X155217958Y-102536903D01*
X155518421Y-102412447D01*
X155624744Y-102391298D01*
X155837389Y-102349000D01*
X156162611Y-102349000D01*
X156375256Y-102391298D01*
G37*
M02*
