G04 #@! TF.GenerationSoftware,KiCad,Pcbnew,5.1.5-52549c5~86~ubuntu18.04.1*
G04 #@! TF.CreationDate,2020-04-10T21:43:27+02:00*
G04 #@! TF.ProjectId,Telemetry,54656c65-6d65-4747-9279-2e6b69636164,rev?*
G04 #@! TF.SameCoordinates,Original*
G04 #@! TF.FileFunction,Copper,L2,Bot*
G04 #@! TF.FilePolarity,Positive*
%FSLAX46Y46*%
G04 Gerber Fmt 4.6, Leading zero omitted, Abs format (unit mm)*
G04 Created by KiCad (PCBNEW 5.1.5-52549c5~86~ubuntu18.04.1) date 2020-04-10 21:43:27*
%MOMM*%
%LPD*%
G04 APERTURE LIST*
%ADD10C,1.800000*%
%ADD11C,2.000000*%
%ADD12C,0.100000*%
%ADD13O,1.700000X1.700000*%
%ADD14R,1.700000X1.700000*%
%ADD15O,1.727200X1.727200*%
%ADD16R,1.727200X1.727200*%
%ADD17C,1.600000*%
%ADD18C,0.700000*%
%ADD19C,0.800000*%
%ADD20C,0.200000*%
%ADD21C,0.254000*%
G04 APERTURE END LIST*
D10*
X149650000Y-116650000D03*
X147110000Y-115380000D03*
X147110000Y-112840000D03*
X149650000Y-114110000D03*
X149650000Y-128150000D03*
X147110000Y-126880000D03*
X147110000Y-124340000D03*
X149650000Y-125610000D03*
D11*
X137400000Y-110580000D03*
X129950000Y-110550000D03*
X133700000Y-110550000D03*
X139500000Y-128200000D03*
X139500000Y-124400000D03*
X139500000Y-132000000D03*
G04 #@! TA.AperFunction,SMDPad,CuDef*
D12*
G36*
X115200000Y-112000000D02*
G01*
X115950000Y-112500000D01*
X115950000Y-113500000D01*
X114450000Y-113500000D01*
X114450000Y-112500000D01*
X115200000Y-112000000D01*
G37*
G04 #@! TD.AperFunction*
G04 #@! TA.AperFunction,Conductor*
G36*
X115200000Y-111700000D02*
G01*
X114450000Y-112200000D01*
X114450000Y-109800000D01*
X115200000Y-110300000D01*
X115950000Y-109800000D01*
X115950000Y-112200000D01*
X115200000Y-111700000D01*
G37*
G04 #@! TD.AperFunction*
G04 #@! TA.AperFunction,SMDPad,CuDef*
G36*
X115200000Y-110000000D02*
G01*
X114450000Y-109500000D01*
X114450000Y-108500000D01*
X115950000Y-108500000D01*
X115950000Y-109500000D01*
X115200000Y-110000000D01*
G37*
G04 #@! TD.AperFunction*
D13*
X106600000Y-134240000D03*
D14*
X106600000Y-131700000D03*
D15*
X106960000Y-112090000D03*
X109500000Y-112090000D03*
X106960000Y-114630000D03*
X109500000Y-114630000D03*
X106960000Y-117170000D03*
X109500000Y-117170000D03*
X106960000Y-119710000D03*
X109500000Y-119710000D03*
X106960000Y-122250000D03*
D16*
X109500000Y-122250000D03*
D17*
X148850000Y-143000000D03*
X148850000Y-141000000D03*
D18*
X147500000Y-150000000D03*
X147500000Y-152500000D03*
X157500000Y-135000000D03*
X157500000Y-137500000D03*
X155000000Y-140000000D03*
X155000000Y-142500000D03*
X157500000Y-145000000D03*
X155000000Y-145000000D03*
X155000000Y-147500000D03*
X157500000Y-147500000D03*
X107500000Y-137500000D03*
X107500000Y-140000000D03*
X107500000Y-142500000D03*
X107500000Y-145000000D03*
X107500000Y-147500000D03*
X110000000Y-147500000D03*
X110000000Y-150000000D03*
X112500000Y-150000000D03*
X115000000Y-150000000D03*
X117500000Y-150000000D03*
X120000000Y-150000000D03*
X122500000Y-150000000D03*
X125000000Y-150000000D03*
X127500000Y-150000000D03*
X127500000Y-152500000D03*
X125000000Y-152500000D03*
X122500000Y-152500000D03*
X120000000Y-152500000D03*
X117500000Y-152500000D03*
X115000000Y-152500000D03*
X112500000Y-152500000D03*
X110000000Y-152500000D03*
X105000000Y-147500000D03*
X105000000Y-145000000D03*
X105000000Y-142500000D03*
X105000000Y-140000000D03*
X105000000Y-137500000D03*
X110000000Y-105000000D03*
X110000000Y-102500000D03*
X150000000Y-107500000D03*
X150000000Y-105000000D03*
X147500000Y-105000000D03*
X145000000Y-105000000D03*
X142500000Y-105000000D03*
X152500000Y-107500000D03*
X152500000Y-105000000D03*
X152500000Y-102500000D03*
X150000000Y-102500000D03*
X147500000Y-102500000D03*
X145000000Y-102500000D03*
X142500000Y-102500000D03*
X115000000Y-102500000D03*
X112500000Y-102500000D03*
X157500000Y-142500000D03*
X157500000Y-140000000D03*
X110000000Y-107500000D03*
X107500000Y-107500000D03*
X117500000Y-102500000D03*
X105000000Y-107500000D03*
X152500000Y-150000000D03*
X152500000Y-152500000D03*
X150000000Y-152500000D03*
X150000000Y-150000000D03*
X110000000Y-145000000D03*
X112500000Y-145000000D03*
X112500000Y-147500000D03*
X152500000Y-110000000D03*
X152500000Y-112500000D03*
X152500000Y-115000000D03*
X152500000Y-117500000D03*
X152500000Y-120000000D03*
X152500000Y-122500000D03*
X152500000Y-127500000D03*
X152500000Y-125000000D03*
X152500000Y-130000000D03*
X155000000Y-115000000D03*
X157500000Y-115000000D03*
X155000000Y-107500000D03*
X157500000Y-107500000D03*
X155000000Y-125000000D03*
X157500000Y-125000000D03*
X155000000Y-127500000D03*
X157500000Y-127500000D03*
X152500000Y-132500000D03*
X155000000Y-132500000D03*
X157500000Y-132500000D03*
X150000000Y-110000000D03*
X122830200Y-127010600D03*
X123761100Y-123379200D03*
X131492100Y-126636400D03*
X124426800Y-122315100D03*
X128800000Y-134600000D03*
X133200000Y-134600000D03*
X137176800Y-125729900D03*
X136991300Y-129652900D03*
X130266200Y-123146200D03*
X138890800Y-135577000D03*
X121863100Y-126396600D03*
X118520800Y-129614100D03*
D19*
X122626500Y-114900300D03*
D18*
X127000000Y-136400000D03*
X129114700Y-125771400D03*
X127319100Y-126574900D03*
X124500000Y-136400000D03*
X126400000Y-126600000D03*
X121000000Y-136400000D03*
X130663600Y-120392600D03*
X132268700Y-122125000D03*
X118800000Y-120400000D03*
X114500000Y-138700000D03*
X136400000Y-115200000D03*
X126351400Y-119766700D03*
D20*
X147110000Y-126880000D02*
X148342400Y-125647600D01*
X148342400Y-125647600D02*
X148342400Y-116612400D01*
X148342400Y-116612400D02*
X147110000Y-115380000D01*
X123761100Y-123379200D02*
X123761100Y-126079700D01*
X123761100Y-126079700D02*
X122830200Y-127010600D01*
X124426800Y-122315100D02*
X125170700Y-121571200D01*
X125170700Y-121571200D02*
X129772800Y-121571200D01*
X129772800Y-121571200D02*
X131492100Y-123290500D01*
X131492100Y-123290500D02*
X131492100Y-126636400D01*
X128800000Y-134600000D02*
X130800000Y-134600000D01*
X130800000Y-134600000D02*
X133200000Y-134600000D01*
X147110000Y-112840000D02*
X145884600Y-114065400D01*
X145884600Y-114065400D02*
X145884600Y-123114600D01*
X145884600Y-123114600D02*
X147110000Y-124340000D01*
X137176800Y-125729900D02*
X138506700Y-124400000D01*
X138506700Y-124400000D02*
X139500000Y-124400000D01*
X136991300Y-129652900D02*
X138047100Y-129652900D01*
X138047100Y-129652900D02*
X139500000Y-128200000D01*
X138890800Y-135577000D02*
X130266200Y-126952400D01*
X130266200Y-126952400D02*
X130266200Y-123146200D01*
X115200000Y-113232200D02*
X115200000Y-113000000D01*
X115200000Y-113500000D02*
X115200000Y-113000000D01*
X110366399Y-118333601D02*
X115200000Y-113500000D01*
X108336399Y-118333601D02*
X110366399Y-118333601D01*
X106960000Y-119710000D02*
X108336399Y-118333601D01*
X115200000Y-109000000D02*
X114751500Y-109000000D01*
X114751500Y-109000000D02*
X111088200Y-112663300D01*
X105500000Y-120790000D02*
X106960000Y-122250000D01*
X111088200Y-112663300D02*
X111088200Y-115111800D01*
X111088200Y-115111800D02*
X110300000Y-115900000D01*
X110300000Y-115900000D02*
X106500000Y-115900000D01*
X106500000Y-115900000D02*
X105400000Y-117000000D01*
X105400000Y-120690000D02*
X105500000Y-120790000D01*
X105400000Y-117000000D02*
X105400000Y-120690000D01*
X109500000Y-122250000D02*
X109500000Y-126524700D01*
X106600000Y-129424700D02*
X106600000Y-131700000D01*
X109500000Y-126524700D02*
X106600000Y-129424700D01*
X118520800Y-129614100D02*
X118645600Y-129614100D01*
X118645600Y-129614100D02*
X121863100Y-126396600D01*
X115200000Y-111000000D02*
X118726200Y-111000000D01*
X118726200Y-111000000D02*
X122626500Y-114900300D01*
X129058100Y-125828000D02*
X129114700Y-125771400D01*
X127000000Y-136400000D02*
X127000000Y-131700000D01*
X129114700Y-129585300D02*
X129114700Y-125771400D01*
X127000000Y-131700000D02*
X129114700Y-129585300D01*
X124500000Y-136400000D02*
X124500000Y-132400000D01*
X127319100Y-129580900D02*
X127319100Y-126574900D01*
X124500000Y-132400000D02*
X127319100Y-129580900D01*
X121000000Y-136400000D02*
X121000000Y-134700000D01*
X126400000Y-129300000D02*
X126400000Y-126600000D01*
X121000000Y-134700000D02*
X126400000Y-129300000D01*
X132268700Y-122125000D02*
X132268700Y-121997700D01*
X132268700Y-121997700D02*
X130663600Y-120392600D01*
X116800000Y-129200000D02*
X116800000Y-123400000D01*
X118800000Y-121400000D02*
X118800000Y-120400000D01*
X116800000Y-123400000D02*
X118800000Y-121400000D01*
X114500000Y-138700000D02*
X114500000Y-131500000D01*
X114500000Y-131500000D02*
X116800000Y-129200000D01*
X127332800Y-119766700D02*
X126351400Y-119766700D01*
X136400000Y-115200000D02*
X131899500Y-115200000D01*
X131899500Y-115200000D02*
X127332800Y-119766700D01*
D21*
G36*
X159315001Y-154315000D02*
G01*
X104185000Y-154315000D01*
X104185000Y-150779872D01*
X104965000Y-150779872D01*
X104965000Y-151220128D01*
X105050890Y-151651925D01*
X105219369Y-152058669D01*
X105463962Y-152424729D01*
X105775271Y-152736038D01*
X106141331Y-152980631D01*
X106548075Y-153149110D01*
X106979872Y-153235000D01*
X107420128Y-153235000D01*
X107851925Y-153149110D01*
X108258669Y-152980631D01*
X108624729Y-152736038D01*
X108936038Y-152424729D01*
X109180631Y-152058669D01*
X109349110Y-151651925D01*
X109435000Y-151220128D01*
X109435000Y-150779872D01*
X153765000Y-150779872D01*
X153765000Y-151220128D01*
X153850890Y-151651925D01*
X154019369Y-152058669D01*
X154263962Y-152424729D01*
X154575271Y-152736038D01*
X154941331Y-152980631D01*
X155348075Y-153149110D01*
X155779872Y-153235000D01*
X156220128Y-153235000D01*
X156651925Y-153149110D01*
X157058669Y-152980631D01*
X157424729Y-152736038D01*
X157736038Y-152424729D01*
X157980631Y-152058669D01*
X158149110Y-151651925D01*
X158235000Y-151220128D01*
X158235000Y-150779872D01*
X158149110Y-150348075D01*
X157980631Y-149941331D01*
X157736038Y-149575271D01*
X157424729Y-149263962D01*
X157058669Y-149019369D01*
X156651925Y-148850890D01*
X156220128Y-148765000D01*
X155779872Y-148765000D01*
X155348075Y-148850890D01*
X154941331Y-149019369D01*
X154575271Y-149263962D01*
X154263962Y-149575271D01*
X154019369Y-149941331D01*
X153850890Y-150348075D01*
X153765000Y-150779872D01*
X109435000Y-150779872D01*
X109349110Y-150348075D01*
X109180631Y-149941331D01*
X108936038Y-149575271D01*
X108624729Y-149263962D01*
X108258669Y-149019369D01*
X107851925Y-148850890D01*
X107420128Y-148765000D01*
X106979872Y-148765000D01*
X106548075Y-148850890D01*
X106141331Y-149019369D01*
X105775271Y-149263962D01*
X105463962Y-149575271D01*
X105219369Y-149941331D01*
X105050890Y-150348075D01*
X104965000Y-150779872D01*
X104185000Y-150779872D01*
X104185000Y-143992702D01*
X148036903Y-143992702D01*
X148108486Y-144236671D01*
X148363996Y-144357571D01*
X148638184Y-144426300D01*
X148920512Y-144440217D01*
X149200130Y-144398787D01*
X149466292Y-144303603D01*
X149591514Y-144236671D01*
X149663097Y-143992702D01*
X148850000Y-143179605D01*
X148036903Y-143992702D01*
X104185000Y-143992702D01*
X104185000Y-143070512D01*
X147409783Y-143070512D01*
X147451213Y-143350130D01*
X147546397Y-143616292D01*
X147613329Y-143741514D01*
X147857298Y-143813097D01*
X148670395Y-143000000D01*
X148656253Y-142985858D01*
X148835858Y-142806253D01*
X148850000Y-142820395D01*
X148864143Y-142806253D01*
X149043748Y-142985858D01*
X149029605Y-143000000D01*
X149842702Y-143813097D01*
X150086671Y-143741514D01*
X150207571Y-143486004D01*
X150276300Y-143211816D01*
X150290217Y-142929488D01*
X150248787Y-142649870D01*
X150153603Y-142383708D01*
X150086671Y-142258486D01*
X149842704Y-142186903D01*
X149958977Y-142070630D01*
X149883872Y-141995525D01*
X149964637Y-141914759D01*
X150121680Y-141679727D01*
X150229853Y-141418574D01*
X150285000Y-141141335D01*
X150285000Y-140858665D01*
X150229853Y-140581426D01*
X150121680Y-140320273D01*
X149964637Y-140085241D01*
X149764759Y-139885363D01*
X149529727Y-139728320D01*
X149268574Y-139620147D01*
X148991335Y-139565000D01*
X148708665Y-139565000D01*
X148431426Y-139620147D01*
X148170273Y-139728320D01*
X147935241Y-139885363D01*
X147735363Y-140085241D01*
X147578320Y-140320273D01*
X147470147Y-140581426D01*
X147415000Y-140858665D01*
X147415000Y-141141335D01*
X147470147Y-141418574D01*
X147578320Y-141679727D01*
X147735363Y-141914759D01*
X147816129Y-141995525D01*
X147741023Y-142070630D01*
X147857296Y-142186903D01*
X147613329Y-142258486D01*
X147492429Y-142513996D01*
X147423700Y-142788184D01*
X147409783Y-143070512D01*
X104185000Y-143070512D01*
X104185000Y-138602986D01*
X113515000Y-138602986D01*
X113515000Y-138797014D01*
X113552853Y-138987314D01*
X113627104Y-139166572D01*
X113734901Y-139327901D01*
X113872099Y-139465099D01*
X114033428Y-139572896D01*
X114212686Y-139647147D01*
X114402986Y-139685000D01*
X114597014Y-139685000D01*
X114787314Y-139647147D01*
X114966572Y-139572896D01*
X115127901Y-139465099D01*
X115265099Y-139327901D01*
X115372896Y-139166572D01*
X115447147Y-138987314D01*
X115485000Y-138797014D01*
X115485000Y-138602986D01*
X115447147Y-138412686D01*
X115372896Y-138233428D01*
X115265099Y-138072099D01*
X115235000Y-138042000D01*
X115235000Y-131804446D01*
X117294197Y-129745250D01*
X117322237Y-129722238D01*
X117345250Y-129694197D01*
X117345253Y-129694194D01*
X117408601Y-129617005D01*
X117414087Y-129610320D01*
X117463921Y-129517086D01*
X117535800Y-129517086D01*
X117535800Y-129711114D01*
X117573653Y-129901414D01*
X117647904Y-130080672D01*
X117755701Y-130242001D01*
X117892899Y-130379199D01*
X118054228Y-130486996D01*
X118233486Y-130561247D01*
X118423786Y-130599100D01*
X118617814Y-130599100D01*
X118808114Y-130561247D01*
X118987372Y-130486996D01*
X119148701Y-130379199D01*
X119285899Y-130242001D01*
X119393696Y-130080672D01*
X119467947Y-129901414D01*
X119485382Y-129813765D01*
X121917547Y-127381600D01*
X121917717Y-127381600D01*
X121957304Y-127477172D01*
X122065101Y-127638501D01*
X122202299Y-127775699D01*
X122363628Y-127883496D01*
X122542886Y-127957747D01*
X122733186Y-127995600D01*
X122927214Y-127995600D01*
X123117514Y-127957747D01*
X123296772Y-127883496D01*
X123458101Y-127775699D01*
X123595299Y-127638501D01*
X123703096Y-127477172D01*
X123777347Y-127297914D01*
X123815200Y-127107614D01*
X123815200Y-127065046D01*
X124255293Y-126624954D01*
X124283338Y-126601938D01*
X124375187Y-126490020D01*
X124443437Y-126362333D01*
X124485465Y-126223785D01*
X124496100Y-126115805D01*
X124496100Y-126115796D01*
X124499655Y-126079701D01*
X124496100Y-126043606D01*
X124496100Y-124037200D01*
X124526199Y-124007101D01*
X124633996Y-123845772D01*
X124708247Y-123666514D01*
X124746100Y-123476214D01*
X124746100Y-123282186D01*
X124740001Y-123251524D01*
X124893372Y-123187996D01*
X125054701Y-123080199D01*
X125191899Y-122943001D01*
X125299696Y-122781672D01*
X125373947Y-122602414D01*
X125411800Y-122412114D01*
X125411800Y-122369547D01*
X125475147Y-122306200D01*
X129468354Y-122306200D01*
X129590777Y-122428623D01*
X129501101Y-122518299D01*
X129393304Y-122679628D01*
X129319053Y-122858886D01*
X129281200Y-123049186D01*
X129281200Y-123243214D01*
X129319053Y-123433514D01*
X129393304Y-123612772D01*
X129501101Y-123774101D01*
X129531201Y-123804201D01*
X129531201Y-124877764D01*
X129402014Y-124824253D01*
X129211714Y-124786400D01*
X129017686Y-124786400D01*
X128827386Y-124824253D01*
X128648128Y-124898504D01*
X128486799Y-125006301D01*
X128349601Y-125143499D01*
X128241804Y-125304828D01*
X128167553Y-125484086D01*
X128129700Y-125674386D01*
X128129700Y-125868414D01*
X128167553Y-126058714D01*
X128181756Y-126093002D01*
X128084199Y-125946999D01*
X127947001Y-125809801D01*
X127785672Y-125702004D01*
X127606414Y-125627753D01*
X127416114Y-125589900D01*
X127222086Y-125589900D01*
X127031786Y-125627753D01*
X126852528Y-125702004D01*
X126834713Y-125713908D01*
X126687314Y-125652853D01*
X126497014Y-125615000D01*
X126302986Y-125615000D01*
X126112686Y-125652853D01*
X125933428Y-125727104D01*
X125772099Y-125834901D01*
X125634901Y-125972099D01*
X125527104Y-126133428D01*
X125452853Y-126312686D01*
X125415000Y-126502986D01*
X125415000Y-126697014D01*
X125452853Y-126887314D01*
X125527104Y-127066572D01*
X125634901Y-127227901D01*
X125665001Y-127258001D01*
X125665000Y-128995553D01*
X120505808Y-134154746D01*
X120477763Y-134177762D01*
X120385914Y-134289680D01*
X120373617Y-134312686D01*
X120317664Y-134417367D01*
X120275635Y-134555915D01*
X120261444Y-134700000D01*
X120265001Y-134736115D01*
X120265000Y-135742000D01*
X120234901Y-135772099D01*
X120127104Y-135933428D01*
X120052853Y-136112686D01*
X120015000Y-136302986D01*
X120015000Y-136497014D01*
X120052853Y-136687314D01*
X120127104Y-136866572D01*
X120234901Y-137027901D01*
X120372099Y-137165099D01*
X120533428Y-137272896D01*
X120712686Y-137347147D01*
X120902986Y-137385000D01*
X121097014Y-137385000D01*
X121287314Y-137347147D01*
X121466572Y-137272896D01*
X121627901Y-137165099D01*
X121765099Y-137027901D01*
X121872896Y-136866572D01*
X121947147Y-136687314D01*
X121985000Y-136497014D01*
X121985000Y-136302986D01*
X121947147Y-136112686D01*
X121872896Y-135933428D01*
X121765099Y-135772099D01*
X121735000Y-135742000D01*
X121735000Y-135004446D01*
X123765001Y-132974446D01*
X123765000Y-135742000D01*
X123734901Y-135772099D01*
X123627104Y-135933428D01*
X123552853Y-136112686D01*
X123515000Y-136302986D01*
X123515000Y-136497014D01*
X123552853Y-136687314D01*
X123627104Y-136866572D01*
X123734901Y-137027901D01*
X123872099Y-137165099D01*
X124033428Y-137272896D01*
X124212686Y-137347147D01*
X124402986Y-137385000D01*
X124597014Y-137385000D01*
X124787314Y-137347147D01*
X124966572Y-137272896D01*
X125127901Y-137165099D01*
X125265099Y-137027901D01*
X125372896Y-136866572D01*
X125447147Y-136687314D01*
X125485000Y-136497014D01*
X125485000Y-136302986D01*
X125447147Y-136112686D01*
X125372896Y-135933428D01*
X125265099Y-135772099D01*
X125235000Y-135742000D01*
X125235000Y-132704446D01*
X126263847Y-131675599D01*
X126261444Y-131700000D01*
X126265001Y-131736115D01*
X126265000Y-135742000D01*
X126234901Y-135772099D01*
X126127104Y-135933428D01*
X126052853Y-136112686D01*
X126015000Y-136302986D01*
X126015000Y-136497014D01*
X126052853Y-136687314D01*
X126127104Y-136866572D01*
X126234901Y-137027901D01*
X126372099Y-137165099D01*
X126533428Y-137272896D01*
X126712686Y-137347147D01*
X126902986Y-137385000D01*
X127097014Y-137385000D01*
X127287314Y-137347147D01*
X127466572Y-137272896D01*
X127627901Y-137165099D01*
X127765099Y-137027901D01*
X127872896Y-136866572D01*
X127947147Y-136687314D01*
X127985000Y-136497014D01*
X127985000Y-136302986D01*
X127947147Y-136112686D01*
X127872896Y-135933428D01*
X127765099Y-135772099D01*
X127735000Y-135742000D01*
X127735000Y-134502986D01*
X127815000Y-134502986D01*
X127815000Y-134697014D01*
X127852853Y-134887314D01*
X127927104Y-135066572D01*
X128034901Y-135227901D01*
X128172099Y-135365099D01*
X128333428Y-135472896D01*
X128512686Y-135547147D01*
X128702986Y-135585000D01*
X128897014Y-135585000D01*
X129087314Y-135547147D01*
X129266572Y-135472896D01*
X129427901Y-135365099D01*
X129458000Y-135335000D01*
X132542000Y-135335000D01*
X132572099Y-135365099D01*
X132733428Y-135472896D01*
X132912686Y-135547147D01*
X133102986Y-135585000D01*
X133297014Y-135585000D01*
X133487314Y-135547147D01*
X133666572Y-135472896D01*
X133827901Y-135365099D01*
X133965099Y-135227901D01*
X134072896Y-135066572D01*
X134147147Y-134887314D01*
X134185000Y-134697014D01*
X134185000Y-134502986D01*
X134147147Y-134312686D01*
X134072896Y-134133428D01*
X133965099Y-133972099D01*
X133827901Y-133834901D01*
X133666572Y-133727104D01*
X133487314Y-133652853D01*
X133297014Y-133615000D01*
X133102986Y-133615000D01*
X132912686Y-133652853D01*
X132733428Y-133727104D01*
X132572099Y-133834901D01*
X132542000Y-133865000D01*
X129458000Y-133865000D01*
X129427901Y-133834901D01*
X129266572Y-133727104D01*
X129087314Y-133652853D01*
X128897014Y-133615000D01*
X128702986Y-133615000D01*
X128512686Y-133652853D01*
X128333428Y-133727104D01*
X128172099Y-133834901D01*
X128034901Y-133972099D01*
X127927104Y-134133428D01*
X127852853Y-134312686D01*
X127815000Y-134502986D01*
X127735000Y-134502986D01*
X127735000Y-132004446D01*
X129608897Y-130130550D01*
X129636937Y-130107538D01*
X129659950Y-130079497D01*
X129659953Y-130079494D01*
X129728786Y-129995621D01*
X129728787Y-129995620D01*
X129797037Y-129867933D01*
X129839065Y-129729385D01*
X129849700Y-129621405D01*
X129849700Y-129621396D01*
X129853255Y-129585301D01*
X129849700Y-129549206D01*
X129849700Y-127575346D01*
X137905800Y-135631447D01*
X137905800Y-135674014D01*
X137943653Y-135864314D01*
X138017904Y-136043572D01*
X138125701Y-136204901D01*
X138262899Y-136342099D01*
X138424228Y-136449896D01*
X138603486Y-136524147D01*
X138793786Y-136562000D01*
X138987814Y-136562000D01*
X139178114Y-136524147D01*
X139357372Y-136449896D01*
X139518701Y-136342099D01*
X139655899Y-136204901D01*
X139763696Y-136043572D01*
X139837947Y-135864314D01*
X139875800Y-135674014D01*
X139875800Y-135479986D01*
X139837947Y-135289686D01*
X139763696Y-135110428D01*
X139655899Y-134949099D01*
X139518701Y-134811901D01*
X139357372Y-134704104D01*
X139178114Y-134629853D01*
X138987814Y-134592000D01*
X138945247Y-134592000D01*
X136192214Y-131838967D01*
X137865000Y-131838967D01*
X137865000Y-132161033D01*
X137927832Y-132476912D01*
X138051082Y-132774463D01*
X138230013Y-133042252D01*
X138457748Y-133269987D01*
X138725537Y-133448918D01*
X139023088Y-133572168D01*
X139338967Y-133635000D01*
X139661033Y-133635000D01*
X139976912Y-133572168D01*
X140274463Y-133448918D01*
X140542252Y-133269987D01*
X140769987Y-133042252D01*
X140948918Y-132774463D01*
X141072168Y-132476912D01*
X141135000Y-132161033D01*
X141135000Y-131838967D01*
X141072168Y-131523088D01*
X140948918Y-131225537D01*
X140769987Y-130957748D01*
X140542252Y-130730013D01*
X140274463Y-130551082D01*
X139976912Y-130427832D01*
X139661033Y-130365000D01*
X139338967Y-130365000D01*
X139023088Y-130427832D01*
X138725537Y-130551082D01*
X138457748Y-130730013D01*
X138230013Y-130957748D01*
X138051082Y-131225537D01*
X137927832Y-131523088D01*
X137865000Y-131838967D01*
X136192214Y-131838967D01*
X133909133Y-129555886D01*
X136006300Y-129555886D01*
X136006300Y-129749914D01*
X136044153Y-129940214D01*
X136118404Y-130119472D01*
X136226201Y-130280801D01*
X136363399Y-130417999D01*
X136524728Y-130525796D01*
X136703986Y-130600047D01*
X136894286Y-130637900D01*
X137088314Y-130637900D01*
X137278614Y-130600047D01*
X137457872Y-130525796D01*
X137619201Y-130417999D01*
X137649300Y-130387900D01*
X138010995Y-130387900D01*
X138047100Y-130391456D01*
X138083205Y-130387900D01*
X138191185Y-130377265D01*
X138329733Y-130335237D01*
X138457420Y-130266987D01*
X138569338Y-130175138D01*
X138592358Y-130147088D01*
X138902037Y-129837409D01*
X153740000Y-129837409D01*
X153740000Y-130282591D01*
X153826851Y-130719218D01*
X153997214Y-131130511D01*
X154244544Y-131500666D01*
X154559334Y-131815456D01*
X154929489Y-132062786D01*
X155340782Y-132233149D01*
X155777409Y-132320000D01*
X156222591Y-132320000D01*
X156659218Y-132233149D01*
X157070511Y-132062786D01*
X157440666Y-131815456D01*
X157755456Y-131500666D01*
X158002786Y-131130511D01*
X158173149Y-130719218D01*
X158260000Y-130282591D01*
X158260000Y-129837409D01*
X158173149Y-129400782D01*
X158002786Y-128989489D01*
X157755456Y-128619334D01*
X157440666Y-128304544D01*
X157070511Y-128057214D01*
X156659218Y-127886851D01*
X156222591Y-127800000D01*
X155777409Y-127800000D01*
X155340782Y-127886851D01*
X154929489Y-128057214D01*
X154559334Y-128304544D01*
X154244544Y-128619334D01*
X153997214Y-128989489D01*
X153826851Y-129400782D01*
X153740000Y-129837409D01*
X138902037Y-129837409D01*
X138983625Y-129755822D01*
X139023088Y-129772168D01*
X139338967Y-129835000D01*
X139661033Y-129835000D01*
X139976912Y-129772168D01*
X140274463Y-129648918D01*
X140542252Y-129469987D01*
X140769987Y-129242252D01*
X140788810Y-129214080D01*
X148765525Y-129214080D01*
X148849208Y-129468261D01*
X149121775Y-129599158D01*
X149414642Y-129674365D01*
X149716553Y-129690991D01*
X150015907Y-129648397D01*
X150301199Y-129548222D01*
X150450792Y-129468261D01*
X150534475Y-129214080D01*
X149650000Y-128329605D01*
X148765525Y-129214080D01*
X140788810Y-129214080D01*
X140948918Y-128974463D01*
X141072168Y-128676912D01*
X141135000Y-128361033D01*
X141135000Y-128038967D01*
X141072168Y-127723088D01*
X140948918Y-127425537D01*
X140769987Y-127157748D01*
X140542252Y-126930013D01*
X140274463Y-126751082D01*
X139976912Y-126627832D01*
X139661033Y-126565000D01*
X139338967Y-126565000D01*
X139023088Y-126627832D01*
X138725537Y-126751082D01*
X138457748Y-126930013D01*
X138230013Y-127157748D01*
X138051082Y-127425537D01*
X137927832Y-127723088D01*
X137865000Y-128038967D01*
X137865000Y-128361033D01*
X137927832Y-128676912D01*
X137944178Y-128716375D01*
X137742654Y-128917900D01*
X137649300Y-128917900D01*
X137619201Y-128887801D01*
X137457872Y-128780004D01*
X137278614Y-128705753D01*
X137088314Y-128667900D01*
X136894286Y-128667900D01*
X136703986Y-128705753D01*
X136524728Y-128780004D01*
X136363399Y-128887801D01*
X136226201Y-129024999D01*
X136118404Y-129186328D01*
X136044153Y-129365586D01*
X136006300Y-129555886D01*
X133909133Y-129555886D01*
X131890698Y-127537452D01*
X131958672Y-127509296D01*
X132120001Y-127401499D01*
X132257199Y-127264301D01*
X132364996Y-127102972D01*
X132439247Y-126923714D01*
X132477100Y-126733414D01*
X132477100Y-126539386D01*
X132439247Y-126349086D01*
X132364996Y-126169828D01*
X132257199Y-126008499D01*
X132227100Y-125978400D01*
X132227100Y-125632886D01*
X136191800Y-125632886D01*
X136191800Y-125826914D01*
X136229653Y-126017214D01*
X136303904Y-126196472D01*
X136411701Y-126357801D01*
X136548899Y-126494999D01*
X136710228Y-126602796D01*
X136889486Y-126677047D01*
X137079786Y-126714900D01*
X137273814Y-126714900D01*
X137464114Y-126677047D01*
X137643372Y-126602796D01*
X137804701Y-126494999D01*
X137941899Y-126357801D01*
X138049696Y-126196472D01*
X138123947Y-126017214D01*
X138161800Y-125826914D01*
X138161800Y-125784346D01*
X138366954Y-125579193D01*
X138457748Y-125669987D01*
X138725537Y-125848918D01*
X139023088Y-125972168D01*
X139338967Y-126035000D01*
X139661033Y-126035000D01*
X139976912Y-125972168D01*
X140274463Y-125848918D01*
X140542252Y-125669987D01*
X140769987Y-125442252D01*
X140948918Y-125174463D01*
X141072168Y-124876912D01*
X141135000Y-124561033D01*
X141135000Y-124238967D01*
X141072168Y-123923088D01*
X140948918Y-123625537D01*
X140769987Y-123357748D01*
X140542252Y-123130013D01*
X140274463Y-122951082D01*
X139976912Y-122827832D01*
X139661033Y-122765000D01*
X139338967Y-122765000D01*
X139023088Y-122827832D01*
X138725537Y-122951082D01*
X138457748Y-123130013D01*
X138230013Y-123357748D01*
X138051082Y-123625537D01*
X137927832Y-123923088D01*
X137923776Y-123943477D01*
X137122354Y-124744900D01*
X137079786Y-124744900D01*
X136889486Y-124782753D01*
X136710228Y-124857004D01*
X136548899Y-124964801D01*
X136411701Y-125101999D01*
X136303904Y-125263328D01*
X136229653Y-125442586D01*
X136191800Y-125632886D01*
X132227100Y-125632886D01*
X132227100Y-123326594D01*
X132230655Y-123290499D01*
X132227100Y-123254404D01*
X132227100Y-123254395D01*
X132216465Y-123146415D01*
X132205419Y-123110000D01*
X132365714Y-123110000D01*
X132556014Y-123072147D01*
X132735272Y-122997896D01*
X132896601Y-122890099D01*
X133033799Y-122752901D01*
X133141596Y-122591572D01*
X133215847Y-122412314D01*
X133253700Y-122222014D01*
X133253700Y-122027986D01*
X133215847Y-121837686D01*
X133141596Y-121658428D01*
X133033799Y-121497099D01*
X132896601Y-121359901D01*
X132735272Y-121252104D01*
X132556014Y-121177853D01*
X132471486Y-121161039D01*
X131648600Y-120338154D01*
X131648600Y-120295586D01*
X131610747Y-120105286D01*
X131536496Y-119926028D01*
X131428699Y-119764699D01*
X131291501Y-119627501D01*
X131130172Y-119519704D01*
X130950914Y-119445453D01*
X130760614Y-119407600D01*
X130566586Y-119407600D01*
X130376286Y-119445453D01*
X130197028Y-119519704D01*
X130035699Y-119627501D01*
X129898501Y-119764699D01*
X129790704Y-119926028D01*
X129716453Y-120105286D01*
X129678600Y-120295586D01*
X129678600Y-120489614D01*
X129716453Y-120679914D01*
X129780010Y-120833354D01*
X129772800Y-120832644D01*
X129736695Y-120836200D01*
X125206794Y-120836200D01*
X125170699Y-120832645D01*
X125134604Y-120836200D01*
X125134595Y-120836200D01*
X125026615Y-120846835D01*
X124888067Y-120888863D01*
X124760380Y-120957113D01*
X124648462Y-121048962D01*
X124625446Y-121077007D01*
X124372353Y-121330100D01*
X124329786Y-121330100D01*
X124139486Y-121367953D01*
X123960228Y-121442204D01*
X123798899Y-121550001D01*
X123661701Y-121687199D01*
X123553904Y-121848528D01*
X123479653Y-122027786D01*
X123441800Y-122218086D01*
X123441800Y-122412114D01*
X123447899Y-122442776D01*
X123294528Y-122506304D01*
X123133199Y-122614101D01*
X122996001Y-122751299D01*
X122888204Y-122912628D01*
X122813953Y-123091886D01*
X122776100Y-123282186D01*
X122776100Y-123476214D01*
X122813953Y-123666514D01*
X122888204Y-123845772D01*
X122996001Y-124007101D01*
X123026100Y-124037200D01*
X123026101Y-125775252D01*
X122775754Y-126025600D01*
X122775583Y-126025600D01*
X122735996Y-125930028D01*
X122628199Y-125768699D01*
X122491001Y-125631501D01*
X122329672Y-125523704D01*
X122150414Y-125449453D01*
X121960114Y-125411600D01*
X121766086Y-125411600D01*
X121575786Y-125449453D01*
X121396528Y-125523704D01*
X121235199Y-125631501D01*
X121098001Y-125768699D01*
X120990204Y-125930028D01*
X120915953Y-126109286D01*
X120878100Y-126299586D01*
X120878100Y-126342153D01*
X118591154Y-128629100D01*
X118423786Y-128629100D01*
X118233486Y-128666953D01*
X118054228Y-128741204D01*
X117892899Y-128849001D01*
X117755701Y-128986199D01*
X117647904Y-129147528D01*
X117573653Y-129326786D01*
X117535800Y-129517086D01*
X117463921Y-129517086D01*
X117482337Y-129482633D01*
X117524365Y-129344085D01*
X117535000Y-129236105D01*
X117535000Y-129236096D01*
X117538555Y-129200001D01*
X117535000Y-129163906D01*
X117535000Y-123704446D01*
X119294197Y-121945250D01*
X119322237Y-121922238D01*
X119345250Y-121894197D01*
X119345253Y-121894194D01*
X119414086Y-121810321D01*
X119414087Y-121810320D01*
X119482337Y-121682633D01*
X119511616Y-121586114D01*
X119524365Y-121544086D01*
X119527580Y-121511444D01*
X119535000Y-121436105D01*
X119535000Y-121436098D01*
X119538555Y-121400001D01*
X119535000Y-121363904D01*
X119535000Y-121058000D01*
X119565099Y-121027901D01*
X119672896Y-120866572D01*
X119747147Y-120687314D01*
X119785000Y-120497014D01*
X119785000Y-120302986D01*
X119747147Y-120112686D01*
X119672896Y-119933428D01*
X119565099Y-119772099D01*
X119462686Y-119669686D01*
X125366400Y-119669686D01*
X125366400Y-119863714D01*
X125404253Y-120054014D01*
X125478504Y-120233272D01*
X125586301Y-120394601D01*
X125723499Y-120531799D01*
X125884828Y-120639596D01*
X126064086Y-120713847D01*
X126254386Y-120751700D01*
X126448414Y-120751700D01*
X126638714Y-120713847D01*
X126817972Y-120639596D01*
X126979301Y-120531799D01*
X127009400Y-120501700D01*
X127296695Y-120501700D01*
X127332800Y-120505256D01*
X127368905Y-120501700D01*
X127476885Y-120491065D01*
X127615433Y-120449037D01*
X127743120Y-120380787D01*
X127855038Y-120288938D01*
X127878059Y-120260887D01*
X132203947Y-115935000D01*
X135742000Y-115935000D01*
X135772099Y-115965099D01*
X135933428Y-116072896D01*
X136112686Y-116147147D01*
X136302986Y-116185000D01*
X136497014Y-116185000D01*
X136687314Y-116147147D01*
X136866572Y-116072896D01*
X137027901Y-115965099D01*
X137165099Y-115827901D01*
X137272896Y-115666572D01*
X137347147Y-115487314D01*
X137385000Y-115297014D01*
X137385000Y-115102986D01*
X137347147Y-114912686D01*
X137272896Y-114733428D01*
X137165099Y-114572099D01*
X137027901Y-114434901D01*
X136866572Y-114327104D01*
X136687314Y-114252853D01*
X136497014Y-114215000D01*
X136302986Y-114215000D01*
X136112686Y-114252853D01*
X135933428Y-114327104D01*
X135772099Y-114434901D01*
X135742000Y-114465000D01*
X131935604Y-114465000D01*
X131899499Y-114461444D01*
X131755414Y-114475635D01*
X131733110Y-114482401D01*
X131616867Y-114517663D01*
X131489180Y-114585913D01*
X131377262Y-114677762D01*
X131354246Y-114705807D01*
X127028354Y-119031700D01*
X127009400Y-119031700D01*
X126979301Y-119001601D01*
X126817972Y-118893804D01*
X126638714Y-118819553D01*
X126448414Y-118781700D01*
X126254386Y-118781700D01*
X126064086Y-118819553D01*
X125884828Y-118893804D01*
X125723499Y-119001601D01*
X125586301Y-119138799D01*
X125478504Y-119300128D01*
X125404253Y-119479386D01*
X125366400Y-119669686D01*
X119462686Y-119669686D01*
X119427901Y-119634901D01*
X119266572Y-119527104D01*
X119087314Y-119452853D01*
X118897014Y-119415000D01*
X118702986Y-119415000D01*
X118512686Y-119452853D01*
X118333428Y-119527104D01*
X118172099Y-119634901D01*
X118034901Y-119772099D01*
X117927104Y-119933428D01*
X117852853Y-120112686D01*
X117815000Y-120302986D01*
X117815000Y-120497014D01*
X117852853Y-120687314D01*
X117927104Y-120866572D01*
X118034901Y-121027901D01*
X118065000Y-121058000D01*
X118065000Y-121095553D01*
X116305808Y-122854746D01*
X116277763Y-122877762D01*
X116185914Y-122989680D01*
X116119143Y-123114600D01*
X116117664Y-123117367D01*
X116075635Y-123255915D01*
X116061444Y-123400000D01*
X116065001Y-123436115D01*
X116065000Y-128895553D01*
X114005808Y-130954746D01*
X113977763Y-130977762D01*
X113885914Y-131089680D01*
X113838833Y-131177762D01*
X113817664Y-131217367D01*
X113775635Y-131355915D01*
X113761444Y-131500000D01*
X113765001Y-131536115D01*
X113765000Y-138042000D01*
X113734901Y-138072099D01*
X113627104Y-138233428D01*
X113552853Y-138412686D01*
X113515000Y-138602986D01*
X104185000Y-138602986D01*
X104185000Y-117000000D01*
X104661444Y-117000000D01*
X104665000Y-117036105D01*
X104665001Y-120653885D01*
X104661444Y-120690000D01*
X104675635Y-120834085D01*
X104706313Y-120935215D01*
X104717664Y-120972633D01*
X104785914Y-121100320D01*
X104877763Y-121212238D01*
X104905808Y-121235254D01*
X105513090Y-121842536D01*
X105461400Y-122102401D01*
X105461400Y-122397599D01*
X105518990Y-122687125D01*
X105631958Y-122959853D01*
X105795961Y-123205302D01*
X106004698Y-123414039D01*
X106250147Y-123578042D01*
X106522875Y-123691010D01*
X106812401Y-123748600D01*
X107107599Y-123748600D01*
X107397125Y-123691010D01*
X107669853Y-123578042D01*
X107915302Y-123414039D01*
X108029364Y-123299977D01*
X108046898Y-123357780D01*
X108105863Y-123468094D01*
X108185215Y-123564785D01*
X108281906Y-123644137D01*
X108392220Y-123703102D01*
X108511918Y-123739412D01*
X108636400Y-123751672D01*
X108765000Y-123751672D01*
X108765001Y-126220252D01*
X106105808Y-128879446D01*
X106077762Y-128902463D01*
X105985913Y-129014381D01*
X105917663Y-129142068D01*
X105889138Y-129236104D01*
X105875635Y-129280615D01*
X105861444Y-129424700D01*
X105865000Y-129460805D01*
X105865000Y-130211928D01*
X105750000Y-130211928D01*
X105625518Y-130224188D01*
X105505820Y-130260498D01*
X105395506Y-130319463D01*
X105298815Y-130398815D01*
X105219463Y-130495506D01*
X105160498Y-130605820D01*
X105124188Y-130725518D01*
X105111928Y-130850000D01*
X105111928Y-132550000D01*
X105124188Y-132674482D01*
X105160498Y-132794180D01*
X105219463Y-132904494D01*
X105298815Y-133001185D01*
X105395506Y-133080537D01*
X105505820Y-133139502D01*
X105578380Y-133161513D01*
X105446525Y-133293368D01*
X105284010Y-133536589D01*
X105172068Y-133806842D01*
X105115000Y-134093740D01*
X105115000Y-134386260D01*
X105172068Y-134673158D01*
X105284010Y-134943411D01*
X105446525Y-135186632D01*
X105653368Y-135393475D01*
X105896589Y-135555990D01*
X106166842Y-135667932D01*
X106453740Y-135725000D01*
X106746260Y-135725000D01*
X107033158Y-135667932D01*
X107303411Y-135555990D01*
X107546632Y-135393475D01*
X107753475Y-135186632D01*
X107915990Y-134943411D01*
X108027932Y-134673158D01*
X108085000Y-134386260D01*
X108085000Y-134093740D01*
X108027932Y-133806842D01*
X107915990Y-133536589D01*
X107753475Y-133293368D01*
X107621620Y-133161513D01*
X107694180Y-133139502D01*
X107804494Y-133080537D01*
X107901185Y-133001185D01*
X107980537Y-132904494D01*
X108039502Y-132794180D01*
X108075812Y-132674482D01*
X108088072Y-132550000D01*
X108088072Y-130850000D01*
X108075812Y-130725518D01*
X108039502Y-130605820D01*
X107980537Y-130495506D01*
X107901185Y-130398815D01*
X107804494Y-130319463D01*
X107694180Y-130260498D01*
X107574482Y-130224188D01*
X107450000Y-130211928D01*
X107335000Y-130211928D01*
X107335000Y-129729146D01*
X109994193Y-127069954D01*
X110022238Y-127046938D01*
X110114087Y-126935020D01*
X110182337Y-126807333D01*
X110224365Y-126668785D01*
X110235000Y-126560805D01*
X110235000Y-126560796D01*
X110238555Y-126524701D01*
X110235000Y-126488606D01*
X110235000Y-123751672D01*
X110363600Y-123751672D01*
X110488082Y-123739412D01*
X110607780Y-123703102D01*
X110718094Y-123644137D01*
X110814785Y-123564785D01*
X110894137Y-123468094D01*
X110953102Y-123357780D01*
X110989412Y-123238082D01*
X111001672Y-123113600D01*
X111001672Y-121386400D01*
X110989412Y-121261918D01*
X110953102Y-121142220D01*
X110894137Y-121031906D01*
X110814785Y-120935215D01*
X110718094Y-120855863D01*
X110607780Y-120796898D01*
X110549977Y-120779364D01*
X110664039Y-120665302D01*
X110828042Y-120419853D01*
X110941010Y-120147125D01*
X110998600Y-119857599D01*
X110998600Y-119562401D01*
X110941010Y-119272875D01*
X110828042Y-119000147D01*
X110787228Y-118939064D01*
X110888637Y-118855839D01*
X110911658Y-118827788D01*
X115601375Y-114138072D01*
X115950000Y-114138072D01*
X116074482Y-114125812D01*
X116194180Y-114089502D01*
X116304494Y-114030537D01*
X116401185Y-113951185D01*
X116480537Y-113854494D01*
X116539502Y-113744180D01*
X116575812Y-113624482D01*
X116588072Y-113500000D01*
X116588072Y-112500000D01*
X116575681Y-112374864D01*
X116568091Y-112349936D01*
X116575812Y-112324482D01*
X116588072Y-112200000D01*
X116588072Y-111735000D01*
X118421754Y-111735000D01*
X121591500Y-114904747D01*
X121591500Y-115002239D01*
X121631274Y-115202198D01*
X121709295Y-115390556D01*
X121822563Y-115560074D01*
X121966726Y-115704237D01*
X122136244Y-115817505D01*
X122324602Y-115895526D01*
X122524561Y-115935300D01*
X122728439Y-115935300D01*
X122928398Y-115895526D01*
X123116756Y-115817505D01*
X123286274Y-115704237D01*
X123430437Y-115560074D01*
X123543705Y-115390556D01*
X123621726Y-115202198D01*
X123661500Y-115002239D01*
X123661500Y-114798361D01*
X123621726Y-114598402D01*
X123543705Y-114410044D01*
X123430437Y-114240526D01*
X123286274Y-114096363D01*
X123239935Y-114065400D01*
X145146044Y-114065400D01*
X145149600Y-114101505D01*
X145149601Y-123078485D01*
X145146044Y-123114600D01*
X145160235Y-123258685D01*
X145190286Y-123357748D01*
X145202264Y-123397233D01*
X145270514Y-123524920D01*
X145362363Y-123636838D01*
X145390408Y-123659854D01*
X145632134Y-123901581D01*
X145575000Y-124188816D01*
X145575000Y-124491184D01*
X145633989Y-124787743D01*
X145749701Y-125067095D01*
X145917688Y-125318505D01*
X146131495Y-125532312D01*
X146247763Y-125610000D01*
X146131495Y-125687688D01*
X145917688Y-125901495D01*
X145749701Y-126152905D01*
X145633989Y-126432257D01*
X145575000Y-126728816D01*
X145575000Y-127031184D01*
X145633989Y-127327743D01*
X145749701Y-127607095D01*
X145917688Y-127858505D01*
X146131495Y-128072312D01*
X146382905Y-128240299D01*
X146662257Y-128356011D01*
X146958816Y-128415000D01*
X147261184Y-128415000D01*
X147557743Y-128356011D01*
X147837095Y-128240299D01*
X148088505Y-128072312D01*
X148118610Y-128042207D01*
X148109009Y-128216553D01*
X148151603Y-128515907D01*
X148251778Y-128801199D01*
X148331739Y-128950792D01*
X148585920Y-129034475D01*
X149470395Y-128150000D01*
X149829605Y-128150000D01*
X150714080Y-129034475D01*
X150968261Y-128950792D01*
X151099158Y-128678225D01*
X151174365Y-128385358D01*
X151190991Y-128083447D01*
X151148397Y-127784093D01*
X151048222Y-127498801D01*
X150968261Y-127349208D01*
X150714080Y-127265525D01*
X149829605Y-128150000D01*
X149470395Y-128150000D01*
X149456253Y-128135858D01*
X149635858Y-127956253D01*
X149650000Y-127970395D01*
X150534475Y-127085920D01*
X150474895Y-126904951D01*
X150628505Y-126802312D01*
X150842312Y-126588505D01*
X151010299Y-126337095D01*
X151126011Y-126057743D01*
X151185000Y-125761184D01*
X151185000Y-125458816D01*
X151126011Y-125162257D01*
X151010299Y-124882905D01*
X150842312Y-124631495D01*
X150628505Y-124417688D01*
X150377095Y-124249701D01*
X150097743Y-124133989D01*
X149801184Y-124075000D01*
X149498816Y-124075000D01*
X149202257Y-124133989D01*
X149077400Y-124185707D01*
X149077400Y-118337409D01*
X153740000Y-118337409D01*
X153740000Y-118782591D01*
X153826851Y-119219218D01*
X153997214Y-119630511D01*
X154244544Y-120000666D01*
X154559334Y-120315456D01*
X154835523Y-120500000D01*
X154559334Y-120684544D01*
X154244544Y-120999334D01*
X153997214Y-121369489D01*
X153826851Y-121780782D01*
X153740000Y-122217409D01*
X153740000Y-122662591D01*
X153826851Y-123099218D01*
X153997214Y-123510511D01*
X154244544Y-123880666D01*
X154559334Y-124195456D01*
X154929489Y-124442786D01*
X155340782Y-124613149D01*
X155777409Y-124700000D01*
X156222591Y-124700000D01*
X156659218Y-124613149D01*
X157070511Y-124442786D01*
X157440666Y-124195456D01*
X157755456Y-123880666D01*
X158002786Y-123510511D01*
X158173149Y-123099218D01*
X158260000Y-122662591D01*
X158260000Y-122217409D01*
X158173149Y-121780782D01*
X158002786Y-121369489D01*
X157755456Y-120999334D01*
X157440666Y-120684544D01*
X157164477Y-120500000D01*
X157440666Y-120315456D01*
X157755456Y-120000666D01*
X158002786Y-119630511D01*
X158173149Y-119219218D01*
X158260000Y-118782591D01*
X158260000Y-118337409D01*
X158173149Y-117900782D01*
X158002786Y-117489489D01*
X157755456Y-117119334D01*
X157440666Y-116804544D01*
X157070511Y-116557214D01*
X156659218Y-116386851D01*
X156222591Y-116300000D01*
X155777409Y-116300000D01*
X155340782Y-116386851D01*
X154929489Y-116557214D01*
X154559334Y-116804544D01*
X154244544Y-117119334D01*
X153997214Y-117489489D01*
X153826851Y-117900782D01*
X153740000Y-118337409D01*
X149077400Y-118337409D01*
X149077400Y-118077847D01*
X149121775Y-118099158D01*
X149414642Y-118174365D01*
X149716553Y-118190991D01*
X150015907Y-118148397D01*
X150301199Y-118048222D01*
X150450792Y-117968261D01*
X150534475Y-117714080D01*
X149650000Y-116829605D01*
X149635858Y-116843748D01*
X149456253Y-116664143D01*
X149470395Y-116650000D01*
X149829605Y-116650000D01*
X150714080Y-117534475D01*
X150968261Y-117450792D01*
X151099158Y-117178225D01*
X151174365Y-116885358D01*
X151190991Y-116583447D01*
X151148397Y-116284093D01*
X151048222Y-115998801D01*
X150968261Y-115849208D01*
X150714080Y-115765525D01*
X149829605Y-116650000D01*
X149470395Y-116650000D01*
X149456253Y-116635858D01*
X149635858Y-116456253D01*
X149650000Y-116470395D01*
X150534475Y-115585920D01*
X150474895Y-115404951D01*
X150628505Y-115302312D01*
X150842312Y-115088505D01*
X151010299Y-114837095D01*
X151126011Y-114557743D01*
X151185000Y-114261184D01*
X151185000Y-113958816D01*
X151126011Y-113662257D01*
X151010299Y-113382905D01*
X150842312Y-113131495D01*
X150628505Y-112917688D01*
X150377095Y-112749701D01*
X150097743Y-112633989D01*
X149801184Y-112575000D01*
X149498816Y-112575000D01*
X149202257Y-112633989D01*
X148922905Y-112749701D01*
X148671495Y-112917688D01*
X148645000Y-112944183D01*
X148645000Y-112688816D01*
X148586011Y-112392257D01*
X148470299Y-112112905D01*
X148302312Y-111861495D01*
X148088505Y-111647688D01*
X147837095Y-111479701D01*
X147557743Y-111363989D01*
X147261184Y-111305000D01*
X146958816Y-111305000D01*
X146662257Y-111363989D01*
X146382905Y-111479701D01*
X146131495Y-111647688D01*
X145917688Y-111861495D01*
X145749701Y-112112905D01*
X145633989Y-112392257D01*
X145575000Y-112688816D01*
X145575000Y-112991184D01*
X145632134Y-113278419D01*
X145390408Y-113520146D01*
X145362362Y-113543163D01*
X145270513Y-113655081D01*
X145202263Y-113782768D01*
X145183385Y-113845000D01*
X145160235Y-113921315D01*
X145146044Y-114065400D01*
X123239935Y-114065400D01*
X123116756Y-113983095D01*
X122928398Y-113905074D01*
X122728439Y-113865300D01*
X122630947Y-113865300D01*
X119271459Y-110505813D01*
X119248438Y-110477762D01*
X119140242Y-110388967D01*
X128315000Y-110388967D01*
X128315000Y-110711033D01*
X128377832Y-111026912D01*
X128501082Y-111324463D01*
X128680013Y-111592252D01*
X128907748Y-111819987D01*
X129175537Y-111998918D01*
X129473088Y-112122168D01*
X129788967Y-112185000D01*
X130111033Y-112185000D01*
X130426912Y-112122168D01*
X130724463Y-111998918D01*
X130992252Y-111819987D01*
X131219987Y-111592252D01*
X131398918Y-111324463D01*
X131522168Y-111026912D01*
X131585000Y-110711033D01*
X131585000Y-110388967D01*
X132065000Y-110388967D01*
X132065000Y-110711033D01*
X132127832Y-111026912D01*
X132251082Y-111324463D01*
X132430013Y-111592252D01*
X132657748Y-111819987D01*
X132925537Y-111998918D01*
X133223088Y-112122168D01*
X133538967Y-112185000D01*
X133861033Y-112185000D01*
X134176912Y-112122168D01*
X134474463Y-111998918D01*
X134742252Y-111819987D01*
X134846826Y-111715413D01*
X136444192Y-111715413D01*
X136539956Y-111979814D01*
X136829571Y-112120704D01*
X137141108Y-112202384D01*
X137462595Y-112221718D01*
X137781675Y-112177961D01*
X138086088Y-112072795D01*
X138260044Y-111979814D01*
X138355808Y-111715413D01*
X137400000Y-110759605D01*
X136444192Y-111715413D01*
X134846826Y-111715413D01*
X134969987Y-111592252D01*
X135148918Y-111324463D01*
X135272168Y-111026912D01*
X135335000Y-110711033D01*
X135335000Y-110642595D01*
X135758282Y-110642595D01*
X135802039Y-110961675D01*
X135907205Y-111266088D01*
X136000186Y-111440044D01*
X136264587Y-111535808D01*
X137220395Y-110580000D01*
X137579605Y-110580000D01*
X138535413Y-111535808D01*
X138799814Y-111440044D01*
X138940704Y-111150429D01*
X139022384Y-110838892D01*
X139029689Y-110717409D01*
X153740000Y-110717409D01*
X153740000Y-111162591D01*
X153826851Y-111599218D01*
X153997214Y-112010511D01*
X154244544Y-112380666D01*
X154559334Y-112695456D01*
X154929489Y-112942786D01*
X155340782Y-113113149D01*
X155777409Y-113200000D01*
X156222591Y-113200000D01*
X156659218Y-113113149D01*
X157070511Y-112942786D01*
X157440666Y-112695456D01*
X157755456Y-112380666D01*
X158002786Y-112010511D01*
X158173149Y-111599218D01*
X158260000Y-111162591D01*
X158260000Y-110717409D01*
X158173149Y-110280782D01*
X158002786Y-109869489D01*
X157755456Y-109499334D01*
X157440666Y-109184544D01*
X157070511Y-108937214D01*
X156659218Y-108766851D01*
X156222591Y-108680000D01*
X155777409Y-108680000D01*
X155340782Y-108766851D01*
X154929489Y-108937214D01*
X154559334Y-109184544D01*
X154244544Y-109499334D01*
X153997214Y-109869489D01*
X153826851Y-110280782D01*
X153740000Y-110717409D01*
X139029689Y-110717409D01*
X139041718Y-110517405D01*
X138997961Y-110198325D01*
X138892795Y-109893912D01*
X138799814Y-109719956D01*
X138535413Y-109624192D01*
X137579605Y-110580000D01*
X137220395Y-110580000D01*
X136264587Y-109624192D01*
X136000186Y-109719956D01*
X135859296Y-110009571D01*
X135777616Y-110321108D01*
X135758282Y-110642595D01*
X135335000Y-110642595D01*
X135335000Y-110388967D01*
X135272168Y-110073088D01*
X135148918Y-109775537D01*
X134969987Y-109507748D01*
X134906826Y-109444587D01*
X136444192Y-109444587D01*
X137400000Y-110400395D01*
X138355808Y-109444587D01*
X138260044Y-109180186D01*
X137970429Y-109039296D01*
X137658892Y-108957616D01*
X137337405Y-108938282D01*
X137018325Y-108982039D01*
X136713912Y-109087205D01*
X136539956Y-109180186D01*
X136444192Y-109444587D01*
X134906826Y-109444587D01*
X134742252Y-109280013D01*
X134474463Y-109101082D01*
X134176912Y-108977832D01*
X133861033Y-108915000D01*
X133538967Y-108915000D01*
X133223088Y-108977832D01*
X132925537Y-109101082D01*
X132657748Y-109280013D01*
X132430013Y-109507748D01*
X132251082Y-109775537D01*
X132127832Y-110073088D01*
X132065000Y-110388967D01*
X131585000Y-110388967D01*
X131522168Y-110073088D01*
X131398918Y-109775537D01*
X131219987Y-109507748D01*
X130992252Y-109280013D01*
X130724463Y-109101082D01*
X130426912Y-108977832D01*
X130111033Y-108915000D01*
X129788967Y-108915000D01*
X129473088Y-108977832D01*
X129175537Y-109101082D01*
X128907748Y-109280013D01*
X128680013Y-109507748D01*
X128501082Y-109775537D01*
X128377832Y-110073088D01*
X128315000Y-110388967D01*
X119140242Y-110388967D01*
X119136520Y-110385913D01*
X119008833Y-110317663D01*
X118870285Y-110275635D01*
X118762305Y-110265000D01*
X118726200Y-110261444D01*
X118690095Y-110265000D01*
X116588072Y-110265000D01*
X116588072Y-109800000D01*
X116575941Y-109676173D01*
X116568051Y-109650065D01*
X116575812Y-109624482D01*
X116588072Y-109500000D01*
X116588072Y-108500000D01*
X116575812Y-108375518D01*
X116539502Y-108255820D01*
X116480537Y-108145506D01*
X116401185Y-108048815D01*
X116304494Y-107969463D01*
X116194180Y-107910498D01*
X116074482Y-107874188D01*
X115950000Y-107861928D01*
X114450000Y-107861928D01*
X114325518Y-107874188D01*
X114205820Y-107910498D01*
X114095506Y-107969463D01*
X113998815Y-108048815D01*
X113919463Y-108145506D01*
X113860498Y-108255820D01*
X113824188Y-108375518D01*
X113811928Y-108500000D01*
X113811928Y-108900125D01*
X110960615Y-111751438D01*
X110941010Y-111652875D01*
X110828042Y-111380147D01*
X110664039Y-111134698D01*
X110455302Y-110925961D01*
X110209853Y-110761958D01*
X109937125Y-110648990D01*
X109647599Y-110591400D01*
X109352401Y-110591400D01*
X109062875Y-110648990D01*
X108790147Y-110761958D01*
X108544698Y-110925961D01*
X108335961Y-111134698D01*
X108230000Y-111293281D01*
X108124039Y-111134698D01*
X107915302Y-110925961D01*
X107669853Y-110761958D01*
X107397125Y-110648990D01*
X107107599Y-110591400D01*
X106812401Y-110591400D01*
X106522875Y-110648990D01*
X106250147Y-110761958D01*
X106004698Y-110925961D01*
X105795961Y-111134698D01*
X105631958Y-111380147D01*
X105518990Y-111652875D01*
X105461400Y-111942401D01*
X105461400Y-112237599D01*
X105518990Y-112527125D01*
X105631958Y-112799853D01*
X105795961Y-113045302D01*
X106004698Y-113254039D01*
X106163281Y-113360000D01*
X106004698Y-113465961D01*
X105795961Y-113674698D01*
X105631958Y-113920147D01*
X105518990Y-114192875D01*
X105461400Y-114482401D01*
X105461400Y-114777599D01*
X105518990Y-115067125D01*
X105631958Y-115339853D01*
X105787666Y-115572887D01*
X104905808Y-116454746D01*
X104877762Y-116477763D01*
X104785913Y-116589681D01*
X104717663Y-116717368D01*
X104688384Y-116813887D01*
X104675635Y-116855915D01*
X104661444Y-117000000D01*
X104185000Y-117000000D01*
X104185000Y-103779872D01*
X104965000Y-103779872D01*
X104965000Y-104220128D01*
X105050890Y-104651925D01*
X105219369Y-105058669D01*
X105463962Y-105424729D01*
X105775271Y-105736038D01*
X106141331Y-105980631D01*
X106548075Y-106149110D01*
X106979872Y-106235000D01*
X107420128Y-106235000D01*
X107851925Y-106149110D01*
X108258669Y-105980631D01*
X108624729Y-105736038D01*
X108936038Y-105424729D01*
X109180631Y-105058669D01*
X109349110Y-104651925D01*
X109435000Y-104220128D01*
X109435000Y-103779872D01*
X153765000Y-103779872D01*
X153765000Y-104220128D01*
X153850890Y-104651925D01*
X154019369Y-105058669D01*
X154263962Y-105424729D01*
X154575271Y-105736038D01*
X154941331Y-105980631D01*
X155348075Y-106149110D01*
X155779872Y-106235000D01*
X156220128Y-106235000D01*
X156651925Y-106149110D01*
X157058669Y-105980631D01*
X157424729Y-105736038D01*
X157736038Y-105424729D01*
X157980631Y-105058669D01*
X158149110Y-104651925D01*
X158235000Y-104220128D01*
X158235000Y-103779872D01*
X158149110Y-103348075D01*
X157980631Y-102941331D01*
X157736038Y-102575271D01*
X157424729Y-102263962D01*
X157058669Y-102019369D01*
X156651925Y-101850890D01*
X156220128Y-101765000D01*
X155779872Y-101765000D01*
X155348075Y-101850890D01*
X154941331Y-102019369D01*
X154575271Y-102263962D01*
X154263962Y-102575271D01*
X154019369Y-102941331D01*
X153850890Y-103348075D01*
X153765000Y-103779872D01*
X109435000Y-103779872D01*
X109349110Y-103348075D01*
X109180631Y-102941331D01*
X108936038Y-102575271D01*
X108624729Y-102263962D01*
X108258669Y-102019369D01*
X107851925Y-101850890D01*
X107420128Y-101765000D01*
X106979872Y-101765000D01*
X106548075Y-101850890D01*
X106141331Y-102019369D01*
X105775271Y-102263962D01*
X105463962Y-102575271D01*
X105219369Y-102941331D01*
X105050890Y-103348075D01*
X104965000Y-103779872D01*
X104185000Y-103779872D01*
X104185000Y-100685000D01*
X159315000Y-100685000D01*
X159315001Y-154315000D01*
G37*
X159315001Y-154315000D02*
X104185000Y-154315000D01*
X104185000Y-150779872D01*
X104965000Y-150779872D01*
X104965000Y-151220128D01*
X105050890Y-151651925D01*
X105219369Y-152058669D01*
X105463962Y-152424729D01*
X105775271Y-152736038D01*
X106141331Y-152980631D01*
X106548075Y-153149110D01*
X106979872Y-153235000D01*
X107420128Y-153235000D01*
X107851925Y-153149110D01*
X108258669Y-152980631D01*
X108624729Y-152736038D01*
X108936038Y-152424729D01*
X109180631Y-152058669D01*
X109349110Y-151651925D01*
X109435000Y-151220128D01*
X109435000Y-150779872D01*
X153765000Y-150779872D01*
X153765000Y-151220128D01*
X153850890Y-151651925D01*
X154019369Y-152058669D01*
X154263962Y-152424729D01*
X154575271Y-152736038D01*
X154941331Y-152980631D01*
X155348075Y-153149110D01*
X155779872Y-153235000D01*
X156220128Y-153235000D01*
X156651925Y-153149110D01*
X157058669Y-152980631D01*
X157424729Y-152736038D01*
X157736038Y-152424729D01*
X157980631Y-152058669D01*
X158149110Y-151651925D01*
X158235000Y-151220128D01*
X158235000Y-150779872D01*
X158149110Y-150348075D01*
X157980631Y-149941331D01*
X157736038Y-149575271D01*
X157424729Y-149263962D01*
X157058669Y-149019369D01*
X156651925Y-148850890D01*
X156220128Y-148765000D01*
X155779872Y-148765000D01*
X155348075Y-148850890D01*
X154941331Y-149019369D01*
X154575271Y-149263962D01*
X154263962Y-149575271D01*
X154019369Y-149941331D01*
X153850890Y-150348075D01*
X153765000Y-150779872D01*
X109435000Y-150779872D01*
X109349110Y-150348075D01*
X109180631Y-149941331D01*
X108936038Y-149575271D01*
X108624729Y-149263962D01*
X108258669Y-149019369D01*
X107851925Y-148850890D01*
X107420128Y-148765000D01*
X106979872Y-148765000D01*
X106548075Y-148850890D01*
X106141331Y-149019369D01*
X105775271Y-149263962D01*
X105463962Y-149575271D01*
X105219369Y-149941331D01*
X105050890Y-150348075D01*
X104965000Y-150779872D01*
X104185000Y-150779872D01*
X104185000Y-143992702D01*
X148036903Y-143992702D01*
X148108486Y-144236671D01*
X148363996Y-144357571D01*
X148638184Y-144426300D01*
X148920512Y-144440217D01*
X149200130Y-144398787D01*
X149466292Y-144303603D01*
X149591514Y-144236671D01*
X149663097Y-143992702D01*
X148850000Y-143179605D01*
X148036903Y-143992702D01*
X104185000Y-143992702D01*
X104185000Y-143070512D01*
X147409783Y-143070512D01*
X147451213Y-143350130D01*
X147546397Y-143616292D01*
X147613329Y-143741514D01*
X147857298Y-143813097D01*
X148670395Y-143000000D01*
X148656253Y-142985858D01*
X148835858Y-142806253D01*
X148850000Y-142820395D01*
X148864143Y-142806253D01*
X149043748Y-142985858D01*
X149029605Y-143000000D01*
X149842702Y-143813097D01*
X150086671Y-143741514D01*
X150207571Y-143486004D01*
X150276300Y-143211816D01*
X150290217Y-142929488D01*
X150248787Y-142649870D01*
X150153603Y-142383708D01*
X150086671Y-142258486D01*
X149842704Y-142186903D01*
X149958977Y-142070630D01*
X149883872Y-141995525D01*
X149964637Y-141914759D01*
X150121680Y-141679727D01*
X150229853Y-141418574D01*
X150285000Y-141141335D01*
X150285000Y-140858665D01*
X150229853Y-140581426D01*
X150121680Y-140320273D01*
X149964637Y-140085241D01*
X149764759Y-139885363D01*
X149529727Y-139728320D01*
X149268574Y-139620147D01*
X148991335Y-139565000D01*
X148708665Y-139565000D01*
X148431426Y-139620147D01*
X148170273Y-139728320D01*
X147935241Y-139885363D01*
X147735363Y-140085241D01*
X147578320Y-140320273D01*
X147470147Y-140581426D01*
X147415000Y-140858665D01*
X147415000Y-141141335D01*
X147470147Y-141418574D01*
X147578320Y-141679727D01*
X147735363Y-141914759D01*
X147816129Y-141995525D01*
X147741023Y-142070630D01*
X147857296Y-142186903D01*
X147613329Y-142258486D01*
X147492429Y-142513996D01*
X147423700Y-142788184D01*
X147409783Y-143070512D01*
X104185000Y-143070512D01*
X104185000Y-138602986D01*
X113515000Y-138602986D01*
X113515000Y-138797014D01*
X113552853Y-138987314D01*
X113627104Y-139166572D01*
X113734901Y-139327901D01*
X113872099Y-139465099D01*
X114033428Y-139572896D01*
X114212686Y-139647147D01*
X114402986Y-139685000D01*
X114597014Y-139685000D01*
X114787314Y-139647147D01*
X114966572Y-139572896D01*
X115127901Y-139465099D01*
X115265099Y-139327901D01*
X115372896Y-139166572D01*
X115447147Y-138987314D01*
X115485000Y-138797014D01*
X115485000Y-138602986D01*
X115447147Y-138412686D01*
X115372896Y-138233428D01*
X115265099Y-138072099D01*
X115235000Y-138042000D01*
X115235000Y-131804446D01*
X117294197Y-129745250D01*
X117322237Y-129722238D01*
X117345250Y-129694197D01*
X117345253Y-129694194D01*
X117408601Y-129617005D01*
X117414087Y-129610320D01*
X117463921Y-129517086D01*
X117535800Y-129517086D01*
X117535800Y-129711114D01*
X117573653Y-129901414D01*
X117647904Y-130080672D01*
X117755701Y-130242001D01*
X117892899Y-130379199D01*
X118054228Y-130486996D01*
X118233486Y-130561247D01*
X118423786Y-130599100D01*
X118617814Y-130599100D01*
X118808114Y-130561247D01*
X118987372Y-130486996D01*
X119148701Y-130379199D01*
X119285899Y-130242001D01*
X119393696Y-130080672D01*
X119467947Y-129901414D01*
X119485382Y-129813765D01*
X121917547Y-127381600D01*
X121917717Y-127381600D01*
X121957304Y-127477172D01*
X122065101Y-127638501D01*
X122202299Y-127775699D01*
X122363628Y-127883496D01*
X122542886Y-127957747D01*
X122733186Y-127995600D01*
X122927214Y-127995600D01*
X123117514Y-127957747D01*
X123296772Y-127883496D01*
X123458101Y-127775699D01*
X123595299Y-127638501D01*
X123703096Y-127477172D01*
X123777347Y-127297914D01*
X123815200Y-127107614D01*
X123815200Y-127065046D01*
X124255293Y-126624954D01*
X124283338Y-126601938D01*
X124375187Y-126490020D01*
X124443437Y-126362333D01*
X124485465Y-126223785D01*
X124496100Y-126115805D01*
X124496100Y-126115796D01*
X124499655Y-126079701D01*
X124496100Y-126043606D01*
X124496100Y-124037200D01*
X124526199Y-124007101D01*
X124633996Y-123845772D01*
X124708247Y-123666514D01*
X124746100Y-123476214D01*
X124746100Y-123282186D01*
X124740001Y-123251524D01*
X124893372Y-123187996D01*
X125054701Y-123080199D01*
X125191899Y-122943001D01*
X125299696Y-122781672D01*
X125373947Y-122602414D01*
X125411800Y-122412114D01*
X125411800Y-122369547D01*
X125475147Y-122306200D01*
X129468354Y-122306200D01*
X129590777Y-122428623D01*
X129501101Y-122518299D01*
X129393304Y-122679628D01*
X129319053Y-122858886D01*
X129281200Y-123049186D01*
X129281200Y-123243214D01*
X129319053Y-123433514D01*
X129393304Y-123612772D01*
X129501101Y-123774101D01*
X129531201Y-123804201D01*
X129531201Y-124877764D01*
X129402014Y-124824253D01*
X129211714Y-124786400D01*
X129017686Y-124786400D01*
X128827386Y-124824253D01*
X128648128Y-124898504D01*
X128486799Y-125006301D01*
X128349601Y-125143499D01*
X128241804Y-125304828D01*
X128167553Y-125484086D01*
X128129700Y-125674386D01*
X128129700Y-125868414D01*
X128167553Y-126058714D01*
X128181756Y-126093002D01*
X128084199Y-125946999D01*
X127947001Y-125809801D01*
X127785672Y-125702004D01*
X127606414Y-125627753D01*
X127416114Y-125589900D01*
X127222086Y-125589900D01*
X127031786Y-125627753D01*
X126852528Y-125702004D01*
X126834713Y-125713908D01*
X126687314Y-125652853D01*
X126497014Y-125615000D01*
X126302986Y-125615000D01*
X126112686Y-125652853D01*
X125933428Y-125727104D01*
X125772099Y-125834901D01*
X125634901Y-125972099D01*
X125527104Y-126133428D01*
X125452853Y-126312686D01*
X125415000Y-126502986D01*
X125415000Y-126697014D01*
X125452853Y-126887314D01*
X125527104Y-127066572D01*
X125634901Y-127227901D01*
X125665001Y-127258001D01*
X125665000Y-128995553D01*
X120505808Y-134154746D01*
X120477763Y-134177762D01*
X120385914Y-134289680D01*
X120373617Y-134312686D01*
X120317664Y-134417367D01*
X120275635Y-134555915D01*
X120261444Y-134700000D01*
X120265001Y-134736115D01*
X120265000Y-135742000D01*
X120234901Y-135772099D01*
X120127104Y-135933428D01*
X120052853Y-136112686D01*
X120015000Y-136302986D01*
X120015000Y-136497014D01*
X120052853Y-136687314D01*
X120127104Y-136866572D01*
X120234901Y-137027901D01*
X120372099Y-137165099D01*
X120533428Y-137272896D01*
X120712686Y-137347147D01*
X120902986Y-137385000D01*
X121097014Y-137385000D01*
X121287314Y-137347147D01*
X121466572Y-137272896D01*
X121627901Y-137165099D01*
X121765099Y-137027901D01*
X121872896Y-136866572D01*
X121947147Y-136687314D01*
X121985000Y-136497014D01*
X121985000Y-136302986D01*
X121947147Y-136112686D01*
X121872896Y-135933428D01*
X121765099Y-135772099D01*
X121735000Y-135742000D01*
X121735000Y-135004446D01*
X123765001Y-132974446D01*
X123765000Y-135742000D01*
X123734901Y-135772099D01*
X123627104Y-135933428D01*
X123552853Y-136112686D01*
X123515000Y-136302986D01*
X123515000Y-136497014D01*
X123552853Y-136687314D01*
X123627104Y-136866572D01*
X123734901Y-137027901D01*
X123872099Y-137165099D01*
X124033428Y-137272896D01*
X124212686Y-137347147D01*
X124402986Y-137385000D01*
X124597014Y-137385000D01*
X124787314Y-137347147D01*
X124966572Y-137272896D01*
X125127901Y-137165099D01*
X125265099Y-137027901D01*
X125372896Y-136866572D01*
X125447147Y-136687314D01*
X125485000Y-136497014D01*
X125485000Y-136302986D01*
X125447147Y-136112686D01*
X125372896Y-135933428D01*
X125265099Y-135772099D01*
X125235000Y-135742000D01*
X125235000Y-132704446D01*
X126263847Y-131675599D01*
X126261444Y-131700000D01*
X126265001Y-131736115D01*
X126265000Y-135742000D01*
X126234901Y-135772099D01*
X126127104Y-135933428D01*
X126052853Y-136112686D01*
X126015000Y-136302986D01*
X126015000Y-136497014D01*
X126052853Y-136687314D01*
X126127104Y-136866572D01*
X126234901Y-137027901D01*
X126372099Y-137165099D01*
X126533428Y-137272896D01*
X126712686Y-137347147D01*
X126902986Y-137385000D01*
X127097014Y-137385000D01*
X127287314Y-137347147D01*
X127466572Y-137272896D01*
X127627901Y-137165099D01*
X127765099Y-137027901D01*
X127872896Y-136866572D01*
X127947147Y-136687314D01*
X127985000Y-136497014D01*
X127985000Y-136302986D01*
X127947147Y-136112686D01*
X127872896Y-135933428D01*
X127765099Y-135772099D01*
X127735000Y-135742000D01*
X127735000Y-134502986D01*
X127815000Y-134502986D01*
X127815000Y-134697014D01*
X127852853Y-134887314D01*
X127927104Y-135066572D01*
X128034901Y-135227901D01*
X128172099Y-135365099D01*
X128333428Y-135472896D01*
X128512686Y-135547147D01*
X128702986Y-135585000D01*
X128897014Y-135585000D01*
X129087314Y-135547147D01*
X129266572Y-135472896D01*
X129427901Y-135365099D01*
X129458000Y-135335000D01*
X132542000Y-135335000D01*
X132572099Y-135365099D01*
X132733428Y-135472896D01*
X132912686Y-135547147D01*
X133102986Y-135585000D01*
X133297014Y-135585000D01*
X133487314Y-135547147D01*
X133666572Y-135472896D01*
X133827901Y-135365099D01*
X133965099Y-135227901D01*
X134072896Y-135066572D01*
X134147147Y-134887314D01*
X134185000Y-134697014D01*
X134185000Y-134502986D01*
X134147147Y-134312686D01*
X134072896Y-134133428D01*
X133965099Y-133972099D01*
X133827901Y-133834901D01*
X133666572Y-133727104D01*
X133487314Y-133652853D01*
X133297014Y-133615000D01*
X133102986Y-133615000D01*
X132912686Y-133652853D01*
X132733428Y-133727104D01*
X132572099Y-133834901D01*
X132542000Y-133865000D01*
X129458000Y-133865000D01*
X129427901Y-133834901D01*
X129266572Y-133727104D01*
X129087314Y-133652853D01*
X128897014Y-133615000D01*
X128702986Y-133615000D01*
X128512686Y-133652853D01*
X128333428Y-133727104D01*
X128172099Y-133834901D01*
X128034901Y-133972099D01*
X127927104Y-134133428D01*
X127852853Y-134312686D01*
X127815000Y-134502986D01*
X127735000Y-134502986D01*
X127735000Y-132004446D01*
X129608897Y-130130550D01*
X129636937Y-130107538D01*
X129659950Y-130079497D01*
X129659953Y-130079494D01*
X129728786Y-129995621D01*
X129728787Y-129995620D01*
X129797037Y-129867933D01*
X129839065Y-129729385D01*
X129849700Y-129621405D01*
X129849700Y-129621396D01*
X129853255Y-129585301D01*
X129849700Y-129549206D01*
X129849700Y-127575346D01*
X137905800Y-135631447D01*
X137905800Y-135674014D01*
X137943653Y-135864314D01*
X138017904Y-136043572D01*
X138125701Y-136204901D01*
X138262899Y-136342099D01*
X138424228Y-136449896D01*
X138603486Y-136524147D01*
X138793786Y-136562000D01*
X138987814Y-136562000D01*
X139178114Y-136524147D01*
X139357372Y-136449896D01*
X139518701Y-136342099D01*
X139655899Y-136204901D01*
X139763696Y-136043572D01*
X139837947Y-135864314D01*
X139875800Y-135674014D01*
X139875800Y-135479986D01*
X139837947Y-135289686D01*
X139763696Y-135110428D01*
X139655899Y-134949099D01*
X139518701Y-134811901D01*
X139357372Y-134704104D01*
X139178114Y-134629853D01*
X138987814Y-134592000D01*
X138945247Y-134592000D01*
X136192214Y-131838967D01*
X137865000Y-131838967D01*
X137865000Y-132161033D01*
X137927832Y-132476912D01*
X138051082Y-132774463D01*
X138230013Y-133042252D01*
X138457748Y-133269987D01*
X138725537Y-133448918D01*
X139023088Y-133572168D01*
X139338967Y-133635000D01*
X139661033Y-133635000D01*
X139976912Y-133572168D01*
X140274463Y-133448918D01*
X140542252Y-133269987D01*
X140769987Y-133042252D01*
X140948918Y-132774463D01*
X141072168Y-132476912D01*
X141135000Y-132161033D01*
X141135000Y-131838967D01*
X141072168Y-131523088D01*
X140948918Y-131225537D01*
X140769987Y-130957748D01*
X140542252Y-130730013D01*
X140274463Y-130551082D01*
X139976912Y-130427832D01*
X139661033Y-130365000D01*
X139338967Y-130365000D01*
X139023088Y-130427832D01*
X138725537Y-130551082D01*
X138457748Y-130730013D01*
X138230013Y-130957748D01*
X138051082Y-131225537D01*
X137927832Y-131523088D01*
X137865000Y-131838967D01*
X136192214Y-131838967D01*
X133909133Y-129555886D01*
X136006300Y-129555886D01*
X136006300Y-129749914D01*
X136044153Y-129940214D01*
X136118404Y-130119472D01*
X136226201Y-130280801D01*
X136363399Y-130417999D01*
X136524728Y-130525796D01*
X136703986Y-130600047D01*
X136894286Y-130637900D01*
X137088314Y-130637900D01*
X137278614Y-130600047D01*
X137457872Y-130525796D01*
X137619201Y-130417999D01*
X137649300Y-130387900D01*
X138010995Y-130387900D01*
X138047100Y-130391456D01*
X138083205Y-130387900D01*
X138191185Y-130377265D01*
X138329733Y-130335237D01*
X138457420Y-130266987D01*
X138569338Y-130175138D01*
X138592358Y-130147088D01*
X138902037Y-129837409D01*
X153740000Y-129837409D01*
X153740000Y-130282591D01*
X153826851Y-130719218D01*
X153997214Y-131130511D01*
X154244544Y-131500666D01*
X154559334Y-131815456D01*
X154929489Y-132062786D01*
X155340782Y-132233149D01*
X155777409Y-132320000D01*
X156222591Y-132320000D01*
X156659218Y-132233149D01*
X157070511Y-132062786D01*
X157440666Y-131815456D01*
X157755456Y-131500666D01*
X158002786Y-131130511D01*
X158173149Y-130719218D01*
X158260000Y-130282591D01*
X158260000Y-129837409D01*
X158173149Y-129400782D01*
X158002786Y-128989489D01*
X157755456Y-128619334D01*
X157440666Y-128304544D01*
X157070511Y-128057214D01*
X156659218Y-127886851D01*
X156222591Y-127800000D01*
X155777409Y-127800000D01*
X155340782Y-127886851D01*
X154929489Y-128057214D01*
X154559334Y-128304544D01*
X154244544Y-128619334D01*
X153997214Y-128989489D01*
X153826851Y-129400782D01*
X153740000Y-129837409D01*
X138902037Y-129837409D01*
X138983625Y-129755822D01*
X139023088Y-129772168D01*
X139338967Y-129835000D01*
X139661033Y-129835000D01*
X139976912Y-129772168D01*
X140274463Y-129648918D01*
X140542252Y-129469987D01*
X140769987Y-129242252D01*
X140788810Y-129214080D01*
X148765525Y-129214080D01*
X148849208Y-129468261D01*
X149121775Y-129599158D01*
X149414642Y-129674365D01*
X149716553Y-129690991D01*
X150015907Y-129648397D01*
X150301199Y-129548222D01*
X150450792Y-129468261D01*
X150534475Y-129214080D01*
X149650000Y-128329605D01*
X148765525Y-129214080D01*
X140788810Y-129214080D01*
X140948918Y-128974463D01*
X141072168Y-128676912D01*
X141135000Y-128361033D01*
X141135000Y-128038967D01*
X141072168Y-127723088D01*
X140948918Y-127425537D01*
X140769987Y-127157748D01*
X140542252Y-126930013D01*
X140274463Y-126751082D01*
X139976912Y-126627832D01*
X139661033Y-126565000D01*
X139338967Y-126565000D01*
X139023088Y-126627832D01*
X138725537Y-126751082D01*
X138457748Y-126930013D01*
X138230013Y-127157748D01*
X138051082Y-127425537D01*
X137927832Y-127723088D01*
X137865000Y-128038967D01*
X137865000Y-128361033D01*
X137927832Y-128676912D01*
X137944178Y-128716375D01*
X137742654Y-128917900D01*
X137649300Y-128917900D01*
X137619201Y-128887801D01*
X137457872Y-128780004D01*
X137278614Y-128705753D01*
X137088314Y-128667900D01*
X136894286Y-128667900D01*
X136703986Y-128705753D01*
X136524728Y-128780004D01*
X136363399Y-128887801D01*
X136226201Y-129024999D01*
X136118404Y-129186328D01*
X136044153Y-129365586D01*
X136006300Y-129555886D01*
X133909133Y-129555886D01*
X131890698Y-127537452D01*
X131958672Y-127509296D01*
X132120001Y-127401499D01*
X132257199Y-127264301D01*
X132364996Y-127102972D01*
X132439247Y-126923714D01*
X132477100Y-126733414D01*
X132477100Y-126539386D01*
X132439247Y-126349086D01*
X132364996Y-126169828D01*
X132257199Y-126008499D01*
X132227100Y-125978400D01*
X132227100Y-125632886D01*
X136191800Y-125632886D01*
X136191800Y-125826914D01*
X136229653Y-126017214D01*
X136303904Y-126196472D01*
X136411701Y-126357801D01*
X136548899Y-126494999D01*
X136710228Y-126602796D01*
X136889486Y-126677047D01*
X137079786Y-126714900D01*
X137273814Y-126714900D01*
X137464114Y-126677047D01*
X137643372Y-126602796D01*
X137804701Y-126494999D01*
X137941899Y-126357801D01*
X138049696Y-126196472D01*
X138123947Y-126017214D01*
X138161800Y-125826914D01*
X138161800Y-125784346D01*
X138366954Y-125579193D01*
X138457748Y-125669987D01*
X138725537Y-125848918D01*
X139023088Y-125972168D01*
X139338967Y-126035000D01*
X139661033Y-126035000D01*
X139976912Y-125972168D01*
X140274463Y-125848918D01*
X140542252Y-125669987D01*
X140769987Y-125442252D01*
X140948918Y-125174463D01*
X141072168Y-124876912D01*
X141135000Y-124561033D01*
X141135000Y-124238967D01*
X141072168Y-123923088D01*
X140948918Y-123625537D01*
X140769987Y-123357748D01*
X140542252Y-123130013D01*
X140274463Y-122951082D01*
X139976912Y-122827832D01*
X139661033Y-122765000D01*
X139338967Y-122765000D01*
X139023088Y-122827832D01*
X138725537Y-122951082D01*
X138457748Y-123130013D01*
X138230013Y-123357748D01*
X138051082Y-123625537D01*
X137927832Y-123923088D01*
X137923776Y-123943477D01*
X137122354Y-124744900D01*
X137079786Y-124744900D01*
X136889486Y-124782753D01*
X136710228Y-124857004D01*
X136548899Y-124964801D01*
X136411701Y-125101999D01*
X136303904Y-125263328D01*
X136229653Y-125442586D01*
X136191800Y-125632886D01*
X132227100Y-125632886D01*
X132227100Y-123326594D01*
X132230655Y-123290499D01*
X132227100Y-123254404D01*
X132227100Y-123254395D01*
X132216465Y-123146415D01*
X132205419Y-123110000D01*
X132365714Y-123110000D01*
X132556014Y-123072147D01*
X132735272Y-122997896D01*
X132896601Y-122890099D01*
X133033799Y-122752901D01*
X133141596Y-122591572D01*
X133215847Y-122412314D01*
X133253700Y-122222014D01*
X133253700Y-122027986D01*
X133215847Y-121837686D01*
X133141596Y-121658428D01*
X133033799Y-121497099D01*
X132896601Y-121359901D01*
X132735272Y-121252104D01*
X132556014Y-121177853D01*
X132471486Y-121161039D01*
X131648600Y-120338154D01*
X131648600Y-120295586D01*
X131610747Y-120105286D01*
X131536496Y-119926028D01*
X131428699Y-119764699D01*
X131291501Y-119627501D01*
X131130172Y-119519704D01*
X130950914Y-119445453D01*
X130760614Y-119407600D01*
X130566586Y-119407600D01*
X130376286Y-119445453D01*
X130197028Y-119519704D01*
X130035699Y-119627501D01*
X129898501Y-119764699D01*
X129790704Y-119926028D01*
X129716453Y-120105286D01*
X129678600Y-120295586D01*
X129678600Y-120489614D01*
X129716453Y-120679914D01*
X129780010Y-120833354D01*
X129772800Y-120832644D01*
X129736695Y-120836200D01*
X125206794Y-120836200D01*
X125170699Y-120832645D01*
X125134604Y-120836200D01*
X125134595Y-120836200D01*
X125026615Y-120846835D01*
X124888067Y-120888863D01*
X124760380Y-120957113D01*
X124648462Y-121048962D01*
X124625446Y-121077007D01*
X124372353Y-121330100D01*
X124329786Y-121330100D01*
X124139486Y-121367953D01*
X123960228Y-121442204D01*
X123798899Y-121550001D01*
X123661701Y-121687199D01*
X123553904Y-121848528D01*
X123479653Y-122027786D01*
X123441800Y-122218086D01*
X123441800Y-122412114D01*
X123447899Y-122442776D01*
X123294528Y-122506304D01*
X123133199Y-122614101D01*
X122996001Y-122751299D01*
X122888204Y-122912628D01*
X122813953Y-123091886D01*
X122776100Y-123282186D01*
X122776100Y-123476214D01*
X122813953Y-123666514D01*
X122888204Y-123845772D01*
X122996001Y-124007101D01*
X123026100Y-124037200D01*
X123026101Y-125775252D01*
X122775754Y-126025600D01*
X122775583Y-126025600D01*
X122735996Y-125930028D01*
X122628199Y-125768699D01*
X122491001Y-125631501D01*
X122329672Y-125523704D01*
X122150414Y-125449453D01*
X121960114Y-125411600D01*
X121766086Y-125411600D01*
X121575786Y-125449453D01*
X121396528Y-125523704D01*
X121235199Y-125631501D01*
X121098001Y-125768699D01*
X120990204Y-125930028D01*
X120915953Y-126109286D01*
X120878100Y-126299586D01*
X120878100Y-126342153D01*
X118591154Y-128629100D01*
X118423786Y-128629100D01*
X118233486Y-128666953D01*
X118054228Y-128741204D01*
X117892899Y-128849001D01*
X117755701Y-128986199D01*
X117647904Y-129147528D01*
X117573653Y-129326786D01*
X117535800Y-129517086D01*
X117463921Y-129517086D01*
X117482337Y-129482633D01*
X117524365Y-129344085D01*
X117535000Y-129236105D01*
X117535000Y-129236096D01*
X117538555Y-129200001D01*
X117535000Y-129163906D01*
X117535000Y-123704446D01*
X119294197Y-121945250D01*
X119322237Y-121922238D01*
X119345250Y-121894197D01*
X119345253Y-121894194D01*
X119414086Y-121810321D01*
X119414087Y-121810320D01*
X119482337Y-121682633D01*
X119511616Y-121586114D01*
X119524365Y-121544086D01*
X119527580Y-121511444D01*
X119535000Y-121436105D01*
X119535000Y-121436098D01*
X119538555Y-121400001D01*
X119535000Y-121363904D01*
X119535000Y-121058000D01*
X119565099Y-121027901D01*
X119672896Y-120866572D01*
X119747147Y-120687314D01*
X119785000Y-120497014D01*
X119785000Y-120302986D01*
X119747147Y-120112686D01*
X119672896Y-119933428D01*
X119565099Y-119772099D01*
X119462686Y-119669686D01*
X125366400Y-119669686D01*
X125366400Y-119863714D01*
X125404253Y-120054014D01*
X125478504Y-120233272D01*
X125586301Y-120394601D01*
X125723499Y-120531799D01*
X125884828Y-120639596D01*
X126064086Y-120713847D01*
X126254386Y-120751700D01*
X126448414Y-120751700D01*
X126638714Y-120713847D01*
X126817972Y-120639596D01*
X126979301Y-120531799D01*
X127009400Y-120501700D01*
X127296695Y-120501700D01*
X127332800Y-120505256D01*
X127368905Y-120501700D01*
X127476885Y-120491065D01*
X127615433Y-120449037D01*
X127743120Y-120380787D01*
X127855038Y-120288938D01*
X127878059Y-120260887D01*
X132203947Y-115935000D01*
X135742000Y-115935000D01*
X135772099Y-115965099D01*
X135933428Y-116072896D01*
X136112686Y-116147147D01*
X136302986Y-116185000D01*
X136497014Y-116185000D01*
X136687314Y-116147147D01*
X136866572Y-116072896D01*
X137027901Y-115965099D01*
X137165099Y-115827901D01*
X137272896Y-115666572D01*
X137347147Y-115487314D01*
X137385000Y-115297014D01*
X137385000Y-115102986D01*
X137347147Y-114912686D01*
X137272896Y-114733428D01*
X137165099Y-114572099D01*
X137027901Y-114434901D01*
X136866572Y-114327104D01*
X136687314Y-114252853D01*
X136497014Y-114215000D01*
X136302986Y-114215000D01*
X136112686Y-114252853D01*
X135933428Y-114327104D01*
X135772099Y-114434901D01*
X135742000Y-114465000D01*
X131935604Y-114465000D01*
X131899499Y-114461444D01*
X131755414Y-114475635D01*
X131733110Y-114482401D01*
X131616867Y-114517663D01*
X131489180Y-114585913D01*
X131377262Y-114677762D01*
X131354246Y-114705807D01*
X127028354Y-119031700D01*
X127009400Y-119031700D01*
X126979301Y-119001601D01*
X126817972Y-118893804D01*
X126638714Y-118819553D01*
X126448414Y-118781700D01*
X126254386Y-118781700D01*
X126064086Y-118819553D01*
X125884828Y-118893804D01*
X125723499Y-119001601D01*
X125586301Y-119138799D01*
X125478504Y-119300128D01*
X125404253Y-119479386D01*
X125366400Y-119669686D01*
X119462686Y-119669686D01*
X119427901Y-119634901D01*
X119266572Y-119527104D01*
X119087314Y-119452853D01*
X118897014Y-119415000D01*
X118702986Y-119415000D01*
X118512686Y-119452853D01*
X118333428Y-119527104D01*
X118172099Y-119634901D01*
X118034901Y-119772099D01*
X117927104Y-119933428D01*
X117852853Y-120112686D01*
X117815000Y-120302986D01*
X117815000Y-120497014D01*
X117852853Y-120687314D01*
X117927104Y-120866572D01*
X118034901Y-121027901D01*
X118065000Y-121058000D01*
X118065000Y-121095553D01*
X116305808Y-122854746D01*
X116277763Y-122877762D01*
X116185914Y-122989680D01*
X116119143Y-123114600D01*
X116117664Y-123117367D01*
X116075635Y-123255915D01*
X116061444Y-123400000D01*
X116065001Y-123436115D01*
X116065000Y-128895553D01*
X114005808Y-130954746D01*
X113977763Y-130977762D01*
X113885914Y-131089680D01*
X113838833Y-131177762D01*
X113817664Y-131217367D01*
X113775635Y-131355915D01*
X113761444Y-131500000D01*
X113765001Y-131536115D01*
X113765000Y-138042000D01*
X113734901Y-138072099D01*
X113627104Y-138233428D01*
X113552853Y-138412686D01*
X113515000Y-138602986D01*
X104185000Y-138602986D01*
X104185000Y-117000000D01*
X104661444Y-117000000D01*
X104665000Y-117036105D01*
X104665001Y-120653885D01*
X104661444Y-120690000D01*
X104675635Y-120834085D01*
X104706313Y-120935215D01*
X104717664Y-120972633D01*
X104785914Y-121100320D01*
X104877763Y-121212238D01*
X104905808Y-121235254D01*
X105513090Y-121842536D01*
X105461400Y-122102401D01*
X105461400Y-122397599D01*
X105518990Y-122687125D01*
X105631958Y-122959853D01*
X105795961Y-123205302D01*
X106004698Y-123414039D01*
X106250147Y-123578042D01*
X106522875Y-123691010D01*
X106812401Y-123748600D01*
X107107599Y-123748600D01*
X107397125Y-123691010D01*
X107669853Y-123578042D01*
X107915302Y-123414039D01*
X108029364Y-123299977D01*
X108046898Y-123357780D01*
X108105863Y-123468094D01*
X108185215Y-123564785D01*
X108281906Y-123644137D01*
X108392220Y-123703102D01*
X108511918Y-123739412D01*
X108636400Y-123751672D01*
X108765000Y-123751672D01*
X108765001Y-126220252D01*
X106105808Y-128879446D01*
X106077762Y-128902463D01*
X105985913Y-129014381D01*
X105917663Y-129142068D01*
X105889138Y-129236104D01*
X105875635Y-129280615D01*
X105861444Y-129424700D01*
X105865000Y-129460805D01*
X105865000Y-130211928D01*
X105750000Y-130211928D01*
X105625518Y-130224188D01*
X105505820Y-130260498D01*
X105395506Y-130319463D01*
X105298815Y-130398815D01*
X105219463Y-130495506D01*
X105160498Y-130605820D01*
X105124188Y-130725518D01*
X105111928Y-130850000D01*
X105111928Y-132550000D01*
X105124188Y-132674482D01*
X105160498Y-132794180D01*
X105219463Y-132904494D01*
X105298815Y-133001185D01*
X105395506Y-133080537D01*
X105505820Y-133139502D01*
X105578380Y-133161513D01*
X105446525Y-133293368D01*
X105284010Y-133536589D01*
X105172068Y-133806842D01*
X105115000Y-134093740D01*
X105115000Y-134386260D01*
X105172068Y-134673158D01*
X105284010Y-134943411D01*
X105446525Y-135186632D01*
X105653368Y-135393475D01*
X105896589Y-135555990D01*
X106166842Y-135667932D01*
X106453740Y-135725000D01*
X106746260Y-135725000D01*
X107033158Y-135667932D01*
X107303411Y-135555990D01*
X107546632Y-135393475D01*
X107753475Y-135186632D01*
X107915990Y-134943411D01*
X108027932Y-134673158D01*
X108085000Y-134386260D01*
X108085000Y-134093740D01*
X108027932Y-133806842D01*
X107915990Y-133536589D01*
X107753475Y-133293368D01*
X107621620Y-133161513D01*
X107694180Y-133139502D01*
X107804494Y-133080537D01*
X107901185Y-133001185D01*
X107980537Y-132904494D01*
X108039502Y-132794180D01*
X108075812Y-132674482D01*
X108088072Y-132550000D01*
X108088072Y-130850000D01*
X108075812Y-130725518D01*
X108039502Y-130605820D01*
X107980537Y-130495506D01*
X107901185Y-130398815D01*
X107804494Y-130319463D01*
X107694180Y-130260498D01*
X107574482Y-130224188D01*
X107450000Y-130211928D01*
X107335000Y-130211928D01*
X107335000Y-129729146D01*
X109994193Y-127069954D01*
X110022238Y-127046938D01*
X110114087Y-126935020D01*
X110182337Y-126807333D01*
X110224365Y-126668785D01*
X110235000Y-126560805D01*
X110235000Y-126560796D01*
X110238555Y-126524701D01*
X110235000Y-126488606D01*
X110235000Y-123751672D01*
X110363600Y-123751672D01*
X110488082Y-123739412D01*
X110607780Y-123703102D01*
X110718094Y-123644137D01*
X110814785Y-123564785D01*
X110894137Y-123468094D01*
X110953102Y-123357780D01*
X110989412Y-123238082D01*
X111001672Y-123113600D01*
X111001672Y-121386400D01*
X110989412Y-121261918D01*
X110953102Y-121142220D01*
X110894137Y-121031906D01*
X110814785Y-120935215D01*
X110718094Y-120855863D01*
X110607780Y-120796898D01*
X110549977Y-120779364D01*
X110664039Y-120665302D01*
X110828042Y-120419853D01*
X110941010Y-120147125D01*
X110998600Y-119857599D01*
X110998600Y-119562401D01*
X110941010Y-119272875D01*
X110828042Y-119000147D01*
X110787228Y-118939064D01*
X110888637Y-118855839D01*
X110911658Y-118827788D01*
X115601375Y-114138072D01*
X115950000Y-114138072D01*
X116074482Y-114125812D01*
X116194180Y-114089502D01*
X116304494Y-114030537D01*
X116401185Y-113951185D01*
X116480537Y-113854494D01*
X116539502Y-113744180D01*
X116575812Y-113624482D01*
X116588072Y-113500000D01*
X116588072Y-112500000D01*
X116575681Y-112374864D01*
X116568091Y-112349936D01*
X116575812Y-112324482D01*
X116588072Y-112200000D01*
X116588072Y-111735000D01*
X118421754Y-111735000D01*
X121591500Y-114904747D01*
X121591500Y-115002239D01*
X121631274Y-115202198D01*
X121709295Y-115390556D01*
X121822563Y-115560074D01*
X121966726Y-115704237D01*
X122136244Y-115817505D01*
X122324602Y-115895526D01*
X122524561Y-115935300D01*
X122728439Y-115935300D01*
X122928398Y-115895526D01*
X123116756Y-115817505D01*
X123286274Y-115704237D01*
X123430437Y-115560074D01*
X123543705Y-115390556D01*
X123621726Y-115202198D01*
X123661500Y-115002239D01*
X123661500Y-114798361D01*
X123621726Y-114598402D01*
X123543705Y-114410044D01*
X123430437Y-114240526D01*
X123286274Y-114096363D01*
X123239935Y-114065400D01*
X145146044Y-114065400D01*
X145149600Y-114101505D01*
X145149601Y-123078485D01*
X145146044Y-123114600D01*
X145160235Y-123258685D01*
X145190286Y-123357748D01*
X145202264Y-123397233D01*
X145270514Y-123524920D01*
X145362363Y-123636838D01*
X145390408Y-123659854D01*
X145632134Y-123901581D01*
X145575000Y-124188816D01*
X145575000Y-124491184D01*
X145633989Y-124787743D01*
X145749701Y-125067095D01*
X145917688Y-125318505D01*
X146131495Y-125532312D01*
X146247763Y-125610000D01*
X146131495Y-125687688D01*
X145917688Y-125901495D01*
X145749701Y-126152905D01*
X145633989Y-126432257D01*
X145575000Y-126728816D01*
X145575000Y-127031184D01*
X145633989Y-127327743D01*
X145749701Y-127607095D01*
X145917688Y-127858505D01*
X146131495Y-128072312D01*
X146382905Y-128240299D01*
X146662257Y-128356011D01*
X146958816Y-128415000D01*
X147261184Y-128415000D01*
X147557743Y-128356011D01*
X147837095Y-128240299D01*
X148088505Y-128072312D01*
X148118610Y-128042207D01*
X148109009Y-128216553D01*
X148151603Y-128515907D01*
X148251778Y-128801199D01*
X148331739Y-128950792D01*
X148585920Y-129034475D01*
X149470395Y-128150000D01*
X149829605Y-128150000D01*
X150714080Y-129034475D01*
X150968261Y-128950792D01*
X151099158Y-128678225D01*
X151174365Y-128385358D01*
X151190991Y-128083447D01*
X151148397Y-127784093D01*
X151048222Y-127498801D01*
X150968261Y-127349208D01*
X150714080Y-127265525D01*
X149829605Y-128150000D01*
X149470395Y-128150000D01*
X149456253Y-128135858D01*
X149635858Y-127956253D01*
X149650000Y-127970395D01*
X150534475Y-127085920D01*
X150474895Y-126904951D01*
X150628505Y-126802312D01*
X150842312Y-126588505D01*
X151010299Y-126337095D01*
X151126011Y-126057743D01*
X151185000Y-125761184D01*
X151185000Y-125458816D01*
X151126011Y-125162257D01*
X151010299Y-124882905D01*
X150842312Y-124631495D01*
X150628505Y-124417688D01*
X150377095Y-124249701D01*
X150097743Y-124133989D01*
X149801184Y-124075000D01*
X149498816Y-124075000D01*
X149202257Y-124133989D01*
X149077400Y-124185707D01*
X149077400Y-118337409D01*
X153740000Y-118337409D01*
X153740000Y-118782591D01*
X153826851Y-119219218D01*
X153997214Y-119630511D01*
X154244544Y-120000666D01*
X154559334Y-120315456D01*
X154835523Y-120500000D01*
X154559334Y-120684544D01*
X154244544Y-120999334D01*
X153997214Y-121369489D01*
X153826851Y-121780782D01*
X153740000Y-122217409D01*
X153740000Y-122662591D01*
X153826851Y-123099218D01*
X153997214Y-123510511D01*
X154244544Y-123880666D01*
X154559334Y-124195456D01*
X154929489Y-124442786D01*
X155340782Y-124613149D01*
X155777409Y-124700000D01*
X156222591Y-124700000D01*
X156659218Y-124613149D01*
X157070511Y-124442786D01*
X157440666Y-124195456D01*
X157755456Y-123880666D01*
X158002786Y-123510511D01*
X158173149Y-123099218D01*
X158260000Y-122662591D01*
X158260000Y-122217409D01*
X158173149Y-121780782D01*
X158002786Y-121369489D01*
X157755456Y-120999334D01*
X157440666Y-120684544D01*
X157164477Y-120500000D01*
X157440666Y-120315456D01*
X157755456Y-120000666D01*
X158002786Y-119630511D01*
X158173149Y-119219218D01*
X158260000Y-118782591D01*
X158260000Y-118337409D01*
X158173149Y-117900782D01*
X158002786Y-117489489D01*
X157755456Y-117119334D01*
X157440666Y-116804544D01*
X157070511Y-116557214D01*
X156659218Y-116386851D01*
X156222591Y-116300000D01*
X155777409Y-116300000D01*
X155340782Y-116386851D01*
X154929489Y-116557214D01*
X154559334Y-116804544D01*
X154244544Y-117119334D01*
X153997214Y-117489489D01*
X153826851Y-117900782D01*
X153740000Y-118337409D01*
X149077400Y-118337409D01*
X149077400Y-118077847D01*
X149121775Y-118099158D01*
X149414642Y-118174365D01*
X149716553Y-118190991D01*
X150015907Y-118148397D01*
X150301199Y-118048222D01*
X150450792Y-117968261D01*
X150534475Y-117714080D01*
X149650000Y-116829605D01*
X149635858Y-116843748D01*
X149456253Y-116664143D01*
X149470395Y-116650000D01*
X149829605Y-116650000D01*
X150714080Y-117534475D01*
X150968261Y-117450792D01*
X151099158Y-117178225D01*
X151174365Y-116885358D01*
X151190991Y-116583447D01*
X151148397Y-116284093D01*
X151048222Y-115998801D01*
X150968261Y-115849208D01*
X150714080Y-115765525D01*
X149829605Y-116650000D01*
X149470395Y-116650000D01*
X149456253Y-116635858D01*
X149635858Y-116456253D01*
X149650000Y-116470395D01*
X150534475Y-115585920D01*
X150474895Y-115404951D01*
X150628505Y-115302312D01*
X150842312Y-115088505D01*
X151010299Y-114837095D01*
X151126011Y-114557743D01*
X151185000Y-114261184D01*
X151185000Y-113958816D01*
X151126011Y-113662257D01*
X151010299Y-113382905D01*
X150842312Y-113131495D01*
X150628505Y-112917688D01*
X150377095Y-112749701D01*
X150097743Y-112633989D01*
X149801184Y-112575000D01*
X149498816Y-112575000D01*
X149202257Y-112633989D01*
X148922905Y-112749701D01*
X148671495Y-112917688D01*
X148645000Y-112944183D01*
X148645000Y-112688816D01*
X148586011Y-112392257D01*
X148470299Y-112112905D01*
X148302312Y-111861495D01*
X148088505Y-111647688D01*
X147837095Y-111479701D01*
X147557743Y-111363989D01*
X147261184Y-111305000D01*
X146958816Y-111305000D01*
X146662257Y-111363989D01*
X146382905Y-111479701D01*
X146131495Y-111647688D01*
X145917688Y-111861495D01*
X145749701Y-112112905D01*
X145633989Y-112392257D01*
X145575000Y-112688816D01*
X145575000Y-112991184D01*
X145632134Y-113278419D01*
X145390408Y-113520146D01*
X145362362Y-113543163D01*
X145270513Y-113655081D01*
X145202263Y-113782768D01*
X145183385Y-113845000D01*
X145160235Y-113921315D01*
X145146044Y-114065400D01*
X123239935Y-114065400D01*
X123116756Y-113983095D01*
X122928398Y-113905074D01*
X122728439Y-113865300D01*
X122630947Y-113865300D01*
X119271459Y-110505813D01*
X119248438Y-110477762D01*
X119140242Y-110388967D01*
X128315000Y-110388967D01*
X128315000Y-110711033D01*
X128377832Y-111026912D01*
X128501082Y-111324463D01*
X128680013Y-111592252D01*
X128907748Y-111819987D01*
X129175537Y-111998918D01*
X129473088Y-112122168D01*
X129788967Y-112185000D01*
X130111033Y-112185000D01*
X130426912Y-112122168D01*
X130724463Y-111998918D01*
X130992252Y-111819987D01*
X131219987Y-111592252D01*
X131398918Y-111324463D01*
X131522168Y-111026912D01*
X131585000Y-110711033D01*
X131585000Y-110388967D01*
X132065000Y-110388967D01*
X132065000Y-110711033D01*
X132127832Y-111026912D01*
X132251082Y-111324463D01*
X132430013Y-111592252D01*
X132657748Y-111819987D01*
X132925537Y-111998918D01*
X133223088Y-112122168D01*
X133538967Y-112185000D01*
X133861033Y-112185000D01*
X134176912Y-112122168D01*
X134474463Y-111998918D01*
X134742252Y-111819987D01*
X134846826Y-111715413D01*
X136444192Y-111715413D01*
X136539956Y-111979814D01*
X136829571Y-112120704D01*
X137141108Y-112202384D01*
X137462595Y-112221718D01*
X137781675Y-112177961D01*
X138086088Y-112072795D01*
X138260044Y-111979814D01*
X138355808Y-111715413D01*
X137400000Y-110759605D01*
X136444192Y-111715413D01*
X134846826Y-111715413D01*
X134969987Y-111592252D01*
X135148918Y-111324463D01*
X135272168Y-111026912D01*
X135335000Y-110711033D01*
X135335000Y-110642595D01*
X135758282Y-110642595D01*
X135802039Y-110961675D01*
X135907205Y-111266088D01*
X136000186Y-111440044D01*
X136264587Y-111535808D01*
X137220395Y-110580000D01*
X137579605Y-110580000D01*
X138535413Y-111535808D01*
X138799814Y-111440044D01*
X138940704Y-111150429D01*
X139022384Y-110838892D01*
X139029689Y-110717409D01*
X153740000Y-110717409D01*
X153740000Y-111162591D01*
X153826851Y-111599218D01*
X153997214Y-112010511D01*
X154244544Y-112380666D01*
X154559334Y-112695456D01*
X154929489Y-112942786D01*
X155340782Y-113113149D01*
X155777409Y-113200000D01*
X156222591Y-113200000D01*
X156659218Y-113113149D01*
X157070511Y-112942786D01*
X157440666Y-112695456D01*
X157755456Y-112380666D01*
X158002786Y-112010511D01*
X158173149Y-111599218D01*
X158260000Y-111162591D01*
X158260000Y-110717409D01*
X158173149Y-110280782D01*
X158002786Y-109869489D01*
X157755456Y-109499334D01*
X157440666Y-109184544D01*
X157070511Y-108937214D01*
X156659218Y-108766851D01*
X156222591Y-108680000D01*
X155777409Y-108680000D01*
X155340782Y-108766851D01*
X154929489Y-108937214D01*
X154559334Y-109184544D01*
X154244544Y-109499334D01*
X153997214Y-109869489D01*
X153826851Y-110280782D01*
X153740000Y-110717409D01*
X139029689Y-110717409D01*
X139041718Y-110517405D01*
X138997961Y-110198325D01*
X138892795Y-109893912D01*
X138799814Y-109719956D01*
X138535413Y-109624192D01*
X137579605Y-110580000D01*
X137220395Y-110580000D01*
X136264587Y-109624192D01*
X136000186Y-109719956D01*
X135859296Y-110009571D01*
X135777616Y-110321108D01*
X135758282Y-110642595D01*
X135335000Y-110642595D01*
X135335000Y-110388967D01*
X135272168Y-110073088D01*
X135148918Y-109775537D01*
X134969987Y-109507748D01*
X134906826Y-109444587D01*
X136444192Y-109444587D01*
X137400000Y-110400395D01*
X138355808Y-109444587D01*
X138260044Y-109180186D01*
X137970429Y-109039296D01*
X137658892Y-108957616D01*
X137337405Y-108938282D01*
X137018325Y-108982039D01*
X136713912Y-109087205D01*
X136539956Y-109180186D01*
X136444192Y-109444587D01*
X134906826Y-109444587D01*
X134742252Y-109280013D01*
X134474463Y-109101082D01*
X134176912Y-108977832D01*
X133861033Y-108915000D01*
X133538967Y-108915000D01*
X133223088Y-108977832D01*
X132925537Y-109101082D01*
X132657748Y-109280013D01*
X132430013Y-109507748D01*
X132251082Y-109775537D01*
X132127832Y-110073088D01*
X132065000Y-110388967D01*
X131585000Y-110388967D01*
X131522168Y-110073088D01*
X131398918Y-109775537D01*
X131219987Y-109507748D01*
X130992252Y-109280013D01*
X130724463Y-109101082D01*
X130426912Y-108977832D01*
X130111033Y-108915000D01*
X129788967Y-108915000D01*
X129473088Y-108977832D01*
X129175537Y-109101082D01*
X128907748Y-109280013D01*
X128680013Y-109507748D01*
X128501082Y-109775537D01*
X128377832Y-110073088D01*
X128315000Y-110388967D01*
X119140242Y-110388967D01*
X119136520Y-110385913D01*
X119008833Y-110317663D01*
X118870285Y-110275635D01*
X118762305Y-110265000D01*
X118726200Y-110261444D01*
X118690095Y-110265000D01*
X116588072Y-110265000D01*
X116588072Y-109800000D01*
X116575941Y-109676173D01*
X116568051Y-109650065D01*
X116575812Y-109624482D01*
X116588072Y-109500000D01*
X116588072Y-108500000D01*
X116575812Y-108375518D01*
X116539502Y-108255820D01*
X116480537Y-108145506D01*
X116401185Y-108048815D01*
X116304494Y-107969463D01*
X116194180Y-107910498D01*
X116074482Y-107874188D01*
X115950000Y-107861928D01*
X114450000Y-107861928D01*
X114325518Y-107874188D01*
X114205820Y-107910498D01*
X114095506Y-107969463D01*
X113998815Y-108048815D01*
X113919463Y-108145506D01*
X113860498Y-108255820D01*
X113824188Y-108375518D01*
X113811928Y-108500000D01*
X113811928Y-108900125D01*
X110960615Y-111751438D01*
X110941010Y-111652875D01*
X110828042Y-111380147D01*
X110664039Y-111134698D01*
X110455302Y-110925961D01*
X110209853Y-110761958D01*
X109937125Y-110648990D01*
X109647599Y-110591400D01*
X109352401Y-110591400D01*
X109062875Y-110648990D01*
X108790147Y-110761958D01*
X108544698Y-110925961D01*
X108335961Y-111134698D01*
X108230000Y-111293281D01*
X108124039Y-111134698D01*
X107915302Y-110925961D01*
X107669853Y-110761958D01*
X107397125Y-110648990D01*
X107107599Y-110591400D01*
X106812401Y-110591400D01*
X106522875Y-110648990D01*
X106250147Y-110761958D01*
X106004698Y-110925961D01*
X105795961Y-111134698D01*
X105631958Y-111380147D01*
X105518990Y-111652875D01*
X105461400Y-111942401D01*
X105461400Y-112237599D01*
X105518990Y-112527125D01*
X105631958Y-112799853D01*
X105795961Y-113045302D01*
X106004698Y-113254039D01*
X106163281Y-113360000D01*
X106004698Y-113465961D01*
X105795961Y-113674698D01*
X105631958Y-113920147D01*
X105518990Y-114192875D01*
X105461400Y-114482401D01*
X105461400Y-114777599D01*
X105518990Y-115067125D01*
X105631958Y-115339853D01*
X105787666Y-115572887D01*
X104905808Y-116454746D01*
X104877762Y-116477763D01*
X104785913Y-116589681D01*
X104717663Y-116717368D01*
X104688384Y-116813887D01*
X104675635Y-116855915D01*
X104661444Y-117000000D01*
X104185000Y-117000000D01*
X104185000Y-103779872D01*
X104965000Y-103779872D01*
X104965000Y-104220128D01*
X105050890Y-104651925D01*
X105219369Y-105058669D01*
X105463962Y-105424729D01*
X105775271Y-105736038D01*
X106141331Y-105980631D01*
X106548075Y-106149110D01*
X106979872Y-106235000D01*
X107420128Y-106235000D01*
X107851925Y-106149110D01*
X108258669Y-105980631D01*
X108624729Y-105736038D01*
X108936038Y-105424729D01*
X109180631Y-105058669D01*
X109349110Y-104651925D01*
X109435000Y-104220128D01*
X109435000Y-103779872D01*
X153765000Y-103779872D01*
X153765000Y-104220128D01*
X153850890Y-104651925D01*
X154019369Y-105058669D01*
X154263962Y-105424729D01*
X154575271Y-105736038D01*
X154941331Y-105980631D01*
X155348075Y-106149110D01*
X155779872Y-106235000D01*
X156220128Y-106235000D01*
X156651925Y-106149110D01*
X157058669Y-105980631D01*
X157424729Y-105736038D01*
X157736038Y-105424729D01*
X157980631Y-105058669D01*
X158149110Y-104651925D01*
X158235000Y-104220128D01*
X158235000Y-103779872D01*
X158149110Y-103348075D01*
X157980631Y-102941331D01*
X157736038Y-102575271D01*
X157424729Y-102263962D01*
X157058669Y-102019369D01*
X156651925Y-101850890D01*
X156220128Y-101765000D01*
X155779872Y-101765000D01*
X155348075Y-101850890D01*
X154941331Y-102019369D01*
X154575271Y-102263962D01*
X154263962Y-102575271D01*
X154019369Y-102941331D01*
X153850890Y-103348075D01*
X153765000Y-103779872D01*
X109435000Y-103779872D01*
X109349110Y-103348075D01*
X109180631Y-102941331D01*
X108936038Y-102575271D01*
X108624729Y-102263962D01*
X108258669Y-102019369D01*
X107851925Y-101850890D01*
X107420128Y-101765000D01*
X106979872Y-101765000D01*
X106548075Y-101850890D01*
X106141331Y-102019369D01*
X105775271Y-102263962D01*
X105463962Y-102575271D01*
X105219369Y-102941331D01*
X105050890Y-103348075D01*
X104965000Y-103779872D01*
X104185000Y-103779872D01*
X104185000Y-100685000D01*
X159315000Y-100685000D01*
X159315001Y-154315000D01*
M02*
