G04 #@! TF.GenerationSoftware,KiCad,Pcbnew,5.1.6-c6e7f7d~86~ubuntu18.04.1*
G04 #@! TF.CreationDate,2020-05-31T12:22:36+02:00*
G04 #@! TF.ProjectId,Telemetry,54656c65-6d65-4747-9279-2e6b69636164,rev?*
G04 #@! TF.SameCoordinates,Original*
G04 #@! TF.FileFunction,Legend,Top*
G04 #@! TF.FilePolarity,Positive*
%FSLAX46Y46*%
G04 Gerber Fmt 4.6, Leading zero omitted, Abs format (unit mm)*
G04 Created by KiCad (PCBNEW 5.1.6-c6e7f7d~86~ubuntu18.04.1) date 2020-05-31 12:22:36*
%MOMM*%
%LPD*%
G01*
G04 APERTURE LIST*
%ADD10C,0.180000*%
%ADD11C,0.120000*%
%ADD12C,0.127000*%
%ADD13C,0.200000*%
%ADD14C,0.150000*%
%ADD15C,0.010000*%
%ADD16C,0.015000*%
%ADD17C,0.100000*%
%ADD18C,0.080000*%
G04 APERTURE END LIST*
D10*
X117273809Y-150862380D02*
X117845238Y-150862380D01*
X117559523Y-151862380D02*
X117559523Y-150862380D01*
X118559523Y-151814761D02*
X118464285Y-151862380D01*
X118273809Y-151862380D01*
X118178571Y-151814761D01*
X118130952Y-151719523D01*
X118130952Y-151338571D01*
X118178571Y-151243333D01*
X118273809Y-151195714D01*
X118464285Y-151195714D01*
X118559523Y-151243333D01*
X118607142Y-151338571D01*
X118607142Y-151433809D01*
X118130952Y-151529047D01*
X119178571Y-151862380D02*
X119083333Y-151814761D01*
X119035714Y-151719523D01*
X119035714Y-150862380D01*
X119940476Y-151814761D02*
X119845238Y-151862380D01*
X119654761Y-151862380D01*
X119559523Y-151814761D01*
X119511904Y-151719523D01*
X119511904Y-151338571D01*
X119559523Y-151243333D01*
X119654761Y-151195714D01*
X119845238Y-151195714D01*
X119940476Y-151243333D01*
X119988095Y-151338571D01*
X119988095Y-151433809D01*
X119511904Y-151529047D01*
X120416666Y-151862380D02*
X120416666Y-151195714D01*
X120416666Y-151290952D02*
X120464285Y-151243333D01*
X120559523Y-151195714D01*
X120702380Y-151195714D01*
X120797619Y-151243333D01*
X120845238Y-151338571D01*
X120845238Y-151862380D01*
X120845238Y-151338571D02*
X120892857Y-151243333D01*
X120988095Y-151195714D01*
X121130952Y-151195714D01*
X121226190Y-151243333D01*
X121273809Y-151338571D01*
X121273809Y-151862380D01*
X122130952Y-151814761D02*
X122035714Y-151862380D01*
X121845238Y-151862380D01*
X121750000Y-151814761D01*
X121702380Y-151719523D01*
X121702380Y-151338571D01*
X121750000Y-151243333D01*
X121845238Y-151195714D01*
X122035714Y-151195714D01*
X122130952Y-151243333D01*
X122178571Y-151338571D01*
X122178571Y-151433809D01*
X121702380Y-151529047D01*
X122464285Y-151195714D02*
X122845238Y-151195714D01*
X122607142Y-150862380D02*
X122607142Y-151719523D01*
X122654761Y-151814761D01*
X122750000Y-151862380D01*
X122845238Y-151862380D01*
X123178571Y-151862380D02*
X123178571Y-151195714D01*
X123178571Y-151386190D02*
X123226190Y-151290952D01*
X123273809Y-151243333D01*
X123369047Y-151195714D01*
X123464285Y-151195714D01*
X123702380Y-151195714D02*
X123940476Y-151862380D01*
X124178571Y-151195714D02*
X123940476Y-151862380D01*
X123845238Y-152100476D01*
X123797619Y-152148095D01*
X123702380Y-152195714D01*
X114654761Y-152875714D02*
X114892857Y-153542380D01*
X115130952Y-152875714D01*
X116035714Y-153542380D02*
X115464285Y-153542380D01*
X115750000Y-153542380D02*
X115750000Y-152542380D01*
X115654761Y-152685238D01*
X115559523Y-152780476D01*
X115464285Y-152828095D01*
X116464285Y-153447142D02*
X116511904Y-153494761D01*
X116464285Y-153542380D01*
X116416666Y-153494761D01*
X116464285Y-153447142D01*
X116464285Y-153542380D01*
X116845238Y-152542380D02*
X117464285Y-152542380D01*
X117130952Y-152923333D01*
X117273809Y-152923333D01*
X117369047Y-152970952D01*
X117416666Y-153018571D01*
X117464285Y-153113809D01*
X117464285Y-153351904D01*
X117416666Y-153447142D01*
X117369047Y-153494761D01*
X117273809Y-153542380D01*
X116988095Y-153542380D01*
X116892857Y-153494761D01*
X116845238Y-153447142D01*
X118559523Y-152542380D02*
X119178571Y-152542380D01*
X118845238Y-152923333D01*
X118988095Y-152923333D01*
X119083333Y-152970952D01*
X119130952Y-153018571D01*
X119178571Y-153113809D01*
X119178571Y-153351904D01*
X119130952Y-153447142D01*
X119083333Y-153494761D01*
X118988095Y-153542380D01*
X118702380Y-153542380D01*
X118607142Y-153494761D01*
X118559523Y-153447142D01*
X120130952Y-153542380D02*
X119559523Y-153542380D01*
X119845238Y-153542380D02*
X119845238Y-152542380D01*
X119750000Y-152685238D01*
X119654761Y-152780476D01*
X119559523Y-152828095D01*
X120559523Y-153447142D02*
X120607142Y-153494761D01*
X120559523Y-153542380D01*
X120511904Y-153494761D01*
X120559523Y-153447142D01*
X120559523Y-153542380D01*
X121226190Y-152542380D02*
X121321428Y-152542380D01*
X121416666Y-152590000D01*
X121464285Y-152637619D01*
X121511904Y-152732857D01*
X121559523Y-152923333D01*
X121559523Y-153161428D01*
X121511904Y-153351904D01*
X121464285Y-153447142D01*
X121416666Y-153494761D01*
X121321428Y-153542380D01*
X121226190Y-153542380D01*
X121130952Y-153494761D01*
X121083333Y-153447142D01*
X121035714Y-153351904D01*
X120988095Y-153161428D01*
X120988095Y-152923333D01*
X121035714Y-152732857D01*
X121083333Y-152637619D01*
X121130952Y-152590000D01*
X121226190Y-152542380D01*
X122464285Y-152542380D02*
X121988095Y-152542380D01*
X121940476Y-153018571D01*
X121988095Y-152970952D01*
X122083333Y-152923333D01*
X122321428Y-152923333D01*
X122416666Y-152970952D01*
X122464285Y-153018571D01*
X122511904Y-153113809D01*
X122511904Y-153351904D01*
X122464285Y-153447142D01*
X122416666Y-153494761D01*
X122321428Y-153542380D01*
X122083333Y-153542380D01*
X121988095Y-153494761D01*
X121940476Y-153447142D01*
X122940476Y-153447142D02*
X122988095Y-153494761D01*
X122940476Y-153542380D01*
X122892857Y-153494761D01*
X122940476Y-153447142D01*
X122940476Y-153542380D01*
X123369047Y-152637619D02*
X123416666Y-152590000D01*
X123511904Y-152542380D01*
X123750000Y-152542380D01*
X123845238Y-152590000D01*
X123892857Y-152637619D01*
X123940476Y-152732857D01*
X123940476Y-152828095D01*
X123892857Y-152970952D01*
X123321428Y-153542380D01*
X123940476Y-153542380D01*
X124559523Y-152542380D02*
X124654761Y-152542380D01*
X124750000Y-152590000D01*
X124797619Y-152637619D01*
X124845238Y-152732857D01*
X124892857Y-152923333D01*
X124892857Y-153161428D01*
X124845238Y-153351904D01*
X124797619Y-153447142D01*
X124750000Y-153494761D01*
X124654761Y-153542380D01*
X124559523Y-153542380D01*
X124464285Y-153494761D01*
X124416666Y-153447142D01*
X124369047Y-153351904D01*
X124321428Y-153161428D01*
X124321428Y-152923333D01*
X124369047Y-152732857D01*
X124416666Y-152637619D01*
X124464285Y-152590000D01*
X124559523Y-152542380D01*
X125273809Y-152637619D02*
X125321428Y-152590000D01*
X125416666Y-152542380D01*
X125654761Y-152542380D01*
X125750000Y-152590000D01*
X125797619Y-152637619D01*
X125845238Y-152732857D01*
X125845238Y-152828095D01*
X125797619Y-152970952D01*
X125226190Y-153542380D01*
X125845238Y-153542380D01*
X126464285Y-152542380D02*
X126559523Y-152542380D01*
X126654761Y-152590000D01*
X126702380Y-152637619D01*
X126750000Y-152732857D01*
X126797619Y-152923333D01*
X126797619Y-153161428D01*
X126750000Y-153351904D01*
X126702380Y-153447142D01*
X126654761Y-153494761D01*
X126559523Y-153542380D01*
X126464285Y-153542380D01*
X126369047Y-153494761D01*
X126321428Y-153447142D01*
X126273809Y-153351904D01*
X126226190Y-153161428D01*
X126226190Y-152923333D01*
X126273809Y-152732857D01*
X126321428Y-152637619D01*
X126369047Y-152590000D01*
X126464285Y-152542380D01*
D11*
X117000000Y-147000000D02*
G75*
G03*
X117000000Y-147000000I-1500000J0D01*
G01*
X121000000Y-147000000D02*
G75*
G03*
X121000000Y-147000000I-1500000J0D01*
G01*
X125000000Y-147000000D02*
G75*
G03*
X125000000Y-147000000I-1500000J0D01*
G01*
X129000000Y-147000000D02*
G75*
G03*
X129000000Y-147000000I-1500000J0D01*
G01*
D12*
X131700000Y-153000000D02*
X142700000Y-153000000D01*
X131150000Y-137050000D02*
X130700000Y-137050000D01*
X130700000Y-137050000D02*
X130700000Y-137600000D01*
X142700000Y-137050000D02*
X144550000Y-137050000D01*
X144550000Y-137050000D02*
X144550000Y-151200000D01*
D13*
X140700000Y-135800000D02*
G75*
G03*
X140700000Y-135800000I-250000J0D01*
G01*
D12*
X130700000Y-150200000D02*
X130700000Y-148600000D01*
D14*
X145800000Y-120350000D02*
X158032000Y-120338000D01*
X158032000Y-109162000D02*
X145800000Y-109150000D01*
X145800000Y-109150000D02*
X145800000Y-120350000D01*
X158032000Y-120338000D02*
X158032000Y-109162000D01*
X145800000Y-131850000D02*
X158032000Y-131838000D01*
X158032000Y-120650000D02*
X145800000Y-120650000D01*
X145800000Y-120650000D02*
X145800000Y-131850000D01*
X158032000Y-131838000D02*
X158032000Y-120662000D01*
D11*
X145720000Y-107960000D02*
X145720000Y-106500000D01*
X148880000Y-107960000D02*
X148880000Y-105800000D01*
X148880000Y-107960000D02*
X147950000Y-107960000D01*
X145720000Y-107960000D02*
X146650000Y-107960000D01*
X141000000Y-116690000D02*
X137550000Y-116690000D01*
X141000000Y-116690000D02*
X142950000Y-116690000D01*
X141000000Y-121810000D02*
X139050000Y-121810000D01*
X141000000Y-121810000D02*
X142950000Y-121810000D01*
X119650000Y-131500000D02*
X132250000Y-131500000D01*
X119650000Y-126400000D02*
X119650000Y-131500000D01*
X132250000Y-126400000D02*
X119650000Y-126400000D01*
X122760000Y-108330000D02*
X121300000Y-108330000D01*
X122760000Y-105170000D02*
X120600000Y-105170000D01*
X122760000Y-105170000D02*
X122760000Y-106100000D01*
X122760000Y-108330000D02*
X122760000Y-107400000D01*
X132600000Y-108410000D02*
X126590000Y-108410000D01*
X130350000Y-101590000D02*
X126590000Y-101590000D01*
X126590000Y-108410000D02*
X126590000Y-107150000D01*
X126590000Y-101590000D02*
X126590000Y-102850000D01*
X128110000Y-117590000D02*
X128110000Y-117140000D01*
X128110000Y-117140000D02*
X127660000Y-117140000D01*
X128110000Y-123910000D02*
X128110000Y-124360000D01*
X128110000Y-124360000D02*
X127660000Y-124360000D01*
X120890000Y-117590000D02*
X120890000Y-117140000D01*
X120890000Y-117140000D02*
X121340000Y-117140000D01*
X120890000Y-123910000D02*
X120890000Y-124360000D01*
X120890000Y-124360000D02*
X121340000Y-124360000D01*
X121340000Y-124360000D02*
X121340000Y-125650000D01*
X138900000Y-110580000D02*
G75*
G03*
X138900000Y-110580000I-1500000J0D01*
G01*
X131450000Y-110550000D02*
G75*
G03*
X131450000Y-110550000I-1500000J0D01*
G01*
X135200000Y-110550000D02*
G75*
G03*
X135200000Y-110550000I-1500000J0D01*
G01*
X141000000Y-128200000D02*
G75*
G03*
X141000000Y-128200000I-1500000J0D01*
G01*
X141000000Y-124400000D02*
G75*
G03*
X141000000Y-124400000I-1500000J0D01*
G01*
X141000000Y-132000000D02*
G75*
G03*
X141000000Y-132000000I-1500000J0D01*
G01*
X113050000Y-137350000D02*
X115550000Y-137350000D01*
X111550000Y-139100000D02*
X111550000Y-141100000D01*
X113050000Y-142850000D02*
X115550000Y-142850000D01*
X117050000Y-139100000D02*
X117050000Y-141100000D01*
X112600000Y-137800000D02*
X113050000Y-137350000D01*
X116000000Y-137800000D02*
X115550000Y-137350000D01*
X116000000Y-142400000D02*
X115550000Y-142850000D01*
X112600000Y-142400000D02*
X113050000Y-142850000D01*
X115550000Y-135650000D02*
X113050000Y-135650000D01*
X117050000Y-133900000D02*
X117050000Y-131900000D01*
X115550000Y-130150000D02*
X113050000Y-130150000D01*
X111550000Y-133900000D02*
X111550000Y-131900000D01*
X116000000Y-135200000D02*
X115550000Y-135650000D01*
X112600000Y-135200000D02*
X113050000Y-135650000D01*
X112600000Y-130600000D02*
X113050000Y-130150000D01*
X116000000Y-130600000D02*
X115550000Y-130150000D01*
X131740000Y-120087221D02*
X131740000Y-120412779D01*
X132760000Y-120087221D02*
X132760000Y-120412779D01*
X131740000Y-123837221D02*
X131740000Y-124162779D01*
X132760000Y-123837221D02*
X132760000Y-124162779D01*
X135762779Y-123690000D02*
X135437221Y-123690000D01*
X135762779Y-124710000D02*
X135437221Y-124710000D01*
X135087221Y-118010000D02*
X135412779Y-118010000D01*
X135087221Y-116990000D02*
X135412779Y-116990000D01*
X114990000Y-127587221D02*
X114990000Y-127912779D01*
X116010000Y-127587221D02*
X116010000Y-127912779D01*
X121510000Y-138462779D02*
X121510000Y-138137221D01*
X120490000Y-138462779D02*
X120490000Y-138137221D01*
X125010000Y-138462779D02*
X125010000Y-138137221D01*
X123990000Y-138462779D02*
X123990000Y-138137221D01*
X128410000Y-138362779D02*
X128410000Y-138037221D01*
X127390000Y-138362779D02*
X127390000Y-138037221D01*
X147690000Y-145837221D02*
X147690000Y-146162779D01*
X148710000Y-145837221D02*
X148710000Y-146162779D01*
X118760000Y-127912779D02*
X118760000Y-127587221D01*
X117740000Y-127912779D02*
X117740000Y-127587221D01*
X135760000Y-121830000D02*
X134300000Y-121830000D01*
X135760000Y-118670000D02*
X133600000Y-118670000D01*
X135760000Y-118670000D02*
X135760000Y-119600000D01*
X135760000Y-121830000D02*
X135760000Y-120900000D01*
X122991422Y-113960000D02*
X123508578Y-113960000D01*
X122991422Y-112540000D02*
X123508578Y-112540000D01*
X116200000Y-120250000D02*
X116200000Y-125750000D01*
X116200000Y-125750000D02*
X114250000Y-125750000D01*
X114250000Y-125750000D02*
X114250000Y-120250000D01*
X114250000Y-120250000D02*
X116200000Y-120250000D01*
X114000000Y-121600000D02*
X113700000Y-121300000D01*
X113700000Y-121300000D02*
X113700000Y-121900000D01*
X113700000Y-121900000D02*
X114000000Y-121600000D01*
X114250000Y-119750000D02*
X114250000Y-114250000D01*
X114250000Y-114250000D02*
X116200000Y-114250000D01*
X116200000Y-114250000D02*
X116200000Y-119750000D01*
X116200000Y-119750000D02*
X114250000Y-119750000D01*
X116450000Y-118400000D02*
X116750000Y-118700000D01*
X116750000Y-118700000D02*
X116750000Y-118100000D01*
X116750000Y-118100000D02*
X116450000Y-118400000D01*
X116200000Y-108250000D02*
X116200000Y-113750000D01*
X116200000Y-113750000D02*
X114250000Y-113750000D01*
X114250000Y-113750000D02*
X114250000Y-108250000D01*
X114250000Y-108250000D02*
X116200000Y-108250000D01*
X114000000Y-109600000D02*
X113700000Y-109300000D01*
X113700000Y-109300000D02*
X113700000Y-109900000D01*
X113700000Y-109900000D02*
X114000000Y-109600000D01*
X134200000Y-126600000D02*
X137000000Y-126600000D01*
X137000000Y-126600000D02*
X137000000Y-128600000D01*
X137000000Y-128600000D02*
X134200000Y-128600000D01*
X134200000Y-128600000D02*
X134200000Y-126600000D01*
X105270000Y-130370000D02*
X106600000Y-130370000D01*
X105270000Y-131700000D02*
X105270000Y-130370000D01*
X105270000Y-132970000D02*
X107930000Y-132970000D01*
X107930000Y-132970000D02*
X107930000Y-135570000D01*
X105270000Y-132970000D02*
X105270000Y-135570000D01*
X105270000Y-135570000D02*
X107930000Y-135570000D01*
X113155000Y-127850000D02*
X110615000Y-127850000D01*
X113155000Y-127850000D02*
X113155000Y-125310000D01*
X112905000Y-127600000D02*
X103555000Y-127600000D01*
X112905000Y-106740000D02*
X112905000Y-127600000D01*
X103555000Y-106740000D02*
X112905000Y-106740000D01*
X103555000Y-127600000D02*
X103555000Y-106740000D01*
D15*
G36*
X107428601Y-143473010D02*
G01*
X107439822Y-143356518D01*
X107459344Y-143254438D01*
X107460368Y-143250506D01*
X107473897Y-143204751D01*
X107493166Y-143146644D01*
X107515966Y-143082118D01*
X107540088Y-143017106D01*
X107563322Y-142957542D01*
X107583459Y-142909359D01*
X107598289Y-142878490D01*
X107599949Y-142875671D01*
X107611973Y-142868463D01*
X107639394Y-142864078D01*
X107685368Y-142862275D01*
X107753049Y-142862812D01*
X107764753Y-142863067D01*
X107919554Y-142866650D01*
X107854161Y-142955550D01*
X107782393Y-143066717D01*
X107721376Y-143188173D01*
X107675901Y-143309963D01*
X107665228Y-143348107D01*
X107648657Y-143438264D01*
X107640579Y-143538848D01*
X107641113Y-143640305D01*
X107650379Y-143733083D01*
X107659819Y-143779217D01*
X107703039Y-143898403D01*
X107767046Y-144004439D01*
X107850425Y-144096515D01*
X107951764Y-144173821D01*
X108069647Y-144235547D01*
X108202660Y-144280884D01*
X108349391Y-144309020D01*
X108508424Y-144319148D01*
X108598550Y-144316864D01*
X108761940Y-144298464D01*
X108908788Y-144262465D01*
X109038449Y-144209334D01*
X109150280Y-144139536D01*
X109243640Y-144053536D01*
X109317884Y-143951799D01*
X109372371Y-143834792D01*
X109400030Y-143736600D01*
X109411832Y-143647992D01*
X109414048Y-143546208D01*
X109407018Y-143441452D01*
X109391083Y-143343928D01*
X109386261Y-143323850D01*
X109357444Y-143238055D01*
X109314298Y-143143369D01*
X109261121Y-143048176D01*
X109202211Y-142960855D01*
X109195784Y-142952375D01*
X109125136Y-142860300D01*
X109439339Y-142860300D01*
X109478546Y-142946025D01*
X109520423Y-143041232D01*
X109552385Y-143123235D01*
X109577543Y-143200633D01*
X109596660Y-143272306D01*
X109609870Y-143342638D01*
X109619885Y-143428138D01*
X109626294Y-143520610D01*
X109628682Y-143611859D01*
X109626637Y-143693692D01*
X109620803Y-143751663D01*
X109592111Y-143890587D01*
X109552070Y-144010848D01*
X109498158Y-144117596D01*
X109427858Y-144215984D01*
X109354840Y-144295400D01*
X109262331Y-144378955D01*
X109177767Y-144438579D01*
X109157132Y-144450131D01*
X109027402Y-144506231D01*
X108881774Y-144547623D01*
X108725256Y-144574024D01*
X108562856Y-144585150D01*
X108399582Y-144580717D01*
X108240444Y-144560443D01*
X108090450Y-144524043D01*
X108055303Y-144512507D01*
X107912269Y-144450162D01*
X107785378Y-144368602D01*
X107675713Y-144269065D01*
X107584354Y-144152787D01*
X107512380Y-144021005D01*
X107460873Y-143874954D01*
X107446947Y-143816241D01*
X107431944Y-143712143D01*
X107425902Y-143594643D01*
X107428601Y-143473010D01*
G37*
X107428601Y-143473010D02*
X107439822Y-143356518D01*
X107459344Y-143254438D01*
X107460368Y-143250506D01*
X107473897Y-143204751D01*
X107493166Y-143146644D01*
X107515966Y-143082118D01*
X107540088Y-143017106D01*
X107563322Y-142957542D01*
X107583459Y-142909359D01*
X107598289Y-142878490D01*
X107599949Y-142875671D01*
X107611973Y-142868463D01*
X107639394Y-142864078D01*
X107685368Y-142862275D01*
X107753049Y-142862812D01*
X107764753Y-142863067D01*
X107919554Y-142866650D01*
X107854161Y-142955550D01*
X107782393Y-143066717D01*
X107721376Y-143188173D01*
X107675901Y-143309963D01*
X107665228Y-143348107D01*
X107648657Y-143438264D01*
X107640579Y-143538848D01*
X107641113Y-143640305D01*
X107650379Y-143733083D01*
X107659819Y-143779217D01*
X107703039Y-143898403D01*
X107767046Y-144004439D01*
X107850425Y-144096515D01*
X107951764Y-144173821D01*
X108069647Y-144235547D01*
X108202660Y-144280884D01*
X108349391Y-144309020D01*
X108508424Y-144319148D01*
X108598550Y-144316864D01*
X108761940Y-144298464D01*
X108908788Y-144262465D01*
X109038449Y-144209334D01*
X109150280Y-144139536D01*
X109243640Y-144053536D01*
X109317884Y-143951799D01*
X109372371Y-143834792D01*
X109400030Y-143736600D01*
X109411832Y-143647992D01*
X109414048Y-143546208D01*
X109407018Y-143441452D01*
X109391083Y-143343928D01*
X109386261Y-143323850D01*
X109357444Y-143238055D01*
X109314298Y-143143369D01*
X109261121Y-143048176D01*
X109202211Y-142960855D01*
X109195784Y-142952375D01*
X109125136Y-142860300D01*
X109439339Y-142860300D01*
X109478546Y-142946025D01*
X109520423Y-143041232D01*
X109552385Y-143123235D01*
X109577543Y-143200633D01*
X109596660Y-143272306D01*
X109609870Y-143342638D01*
X109619885Y-143428138D01*
X109626294Y-143520610D01*
X109628682Y-143611859D01*
X109626637Y-143693692D01*
X109620803Y-143751663D01*
X109592111Y-143890587D01*
X109552070Y-144010848D01*
X109498158Y-144117596D01*
X109427858Y-144215984D01*
X109354840Y-144295400D01*
X109262331Y-144378955D01*
X109177767Y-144438579D01*
X109157132Y-144450131D01*
X109027402Y-144506231D01*
X108881774Y-144547623D01*
X108725256Y-144574024D01*
X108562856Y-144585150D01*
X108399582Y-144580717D01*
X108240444Y-144560443D01*
X108090450Y-144524043D01*
X108055303Y-144512507D01*
X107912269Y-144450162D01*
X107785378Y-144368602D01*
X107675713Y-144269065D01*
X107584354Y-144152787D01*
X107512380Y-144021005D01*
X107460873Y-143874954D01*
X107446947Y-143816241D01*
X107431944Y-143712143D01*
X107425902Y-143594643D01*
X107428601Y-143473010D01*
G36*
X104903607Y-140055950D02*
G01*
X104924304Y-139834511D01*
X104964693Y-139617183D01*
X105024542Y-139408702D01*
X105025162Y-139406899D01*
X105059303Y-139318383D01*
X105104269Y-139217365D01*
X105156394Y-139110991D01*
X105212009Y-139006404D01*
X105267448Y-138910752D01*
X105319041Y-138831177D01*
X105325037Y-138822717D01*
X105444820Y-138671169D01*
X105582033Y-138524432D01*
X105730756Y-138388088D01*
X105885070Y-138267723D01*
X105982350Y-138202701D01*
X106192844Y-138086005D01*
X106410901Y-137992833D01*
X106634777Y-137923076D01*
X106862731Y-137876624D01*
X107093020Y-137853365D01*
X107323903Y-137853190D01*
X107553637Y-137875989D01*
X107780480Y-137921651D01*
X108002691Y-137990067D01*
X108218527Y-138081126D01*
X108426246Y-138194718D01*
X108624106Y-138330733D01*
X108677945Y-138373179D01*
X108762310Y-138446049D01*
X108848144Y-138527956D01*
X108929453Y-138612718D01*
X109000245Y-138694155D01*
X109043292Y-138749974D01*
X109069951Y-138785431D01*
X109091491Y-138810953D01*
X109103303Y-138821085D01*
X109103375Y-138821091D01*
X109106816Y-138809383D01*
X109109703Y-138776826D01*
X109111790Y-138727972D01*
X109112829Y-138667368D01*
X109112900Y-138646017D01*
X109113287Y-138574793D01*
X109114716Y-138525303D01*
X109117581Y-138493889D01*
X109122280Y-138476892D01*
X109129209Y-138470655D01*
X109131950Y-138470334D01*
X109142423Y-138475664D01*
X109148354Y-138494785D01*
X109150777Y-138532397D01*
X109151000Y-138556824D01*
X109151000Y-138643314D01*
X109376261Y-138646782D01*
X109458406Y-138648333D01*
X109518494Y-138650305D01*
X109559867Y-138653037D01*
X109585870Y-138656866D01*
X109599844Y-138662131D01*
X109605132Y-138669169D01*
X109605300Y-138669920D01*
X109603725Y-138692498D01*
X109600172Y-138698495D01*
X109585139Y-138701403D01*
X109549014Y-138703913D01*
X109496103Y-138705858D01*
X109430715Y-138707071D01*
X109371133Y-138707400D01*
X109151000Y-138707400D01*
X109151000Y-138914800D01*
X107423800Y-138906486D01*
X105696599Y-138898172D01*
X105696600Y-139234586D01*
X105696600Y-139571000D01*
X106207775Y-139573963D01*
X106323117Y-139574625D01*
X106433710Y-139575245D01*
X106536239Y-139575808D01*
X106627392Y-139576294D01*
X106703855Y-139576688D01*
X106762316Y-139576970D01*
X106799462Y-139577123D01*
X106804696Y-139577138D01*
X106890443Y-139577350D01*
X106890421Y-140164725D01*
X106890400Y-140752100D01*
X104975715Y-140752100D01*
X104961986Y-140697576D01*
X104922216Y-140492219D01*
X104902833Y-140276765D01*
X104903607Y-140055950D01*
G37*
X104903607Y-140055950D02*
X104924304Y-139834511D01*
X104964693Y-139617183D01*
X105024542Y-139408702D01*
X105025162Y-139406899D01*
X105059303Y-139318383D01*
X105104269Y-139217365D01*
X105156394Y-139110991D01*
X105212009Y-139006404D01*
X105267448Y-138910752D01*
X105319041Y-138831177D01*
X105325037Y-138822717D01*
X105444820Y-138671169D01*
X105582033Y-138524432D01*
X105730756Y-138388088D01*
X105885070Y-138267723D01*
X105982350Y-138202701D01*
X106192844Y-138086005D01*
X106410901Y-137992833D01*
X106634777Y-137923076D01*
X106862731Y-137876624D01*
X107093020Y-137853365D01*
X107323903Y-137853190D01*
X107553637Y-137875989D01*
X107780480Y-137921651D01*
X108002691Y-137990067D01*
X108218527Y-138081126D01*
X108426246Y-138194718D01*
X108624106Y-138330733D01*
X108677945Y-138373179D01*
X108762310Y-138446049D01*
X108848144Y-138527956D01*
X108929453Y-138612718D01*
X109000245Y-138694155D01*
X109043292Y-138749974D01*
X109069951Y-138785431D01*
X109091491Y-138810953D01*
X109103303Y-138821085D01*
X109103375Y-138821091D01*
X109106816Y-138809383D01*
X109109703Y-138776826D01*
X109111790Y-138727972D01*
X109112829Y-138667368D01*
X109112900Y-138646017D01*
X109113287Y-138574793D01*
X109114716Y-138525303D01*
X109117581Y-138493889D01*
X109122280Y-138476892D01*
X109129209Y-138470655D01*
X109131950Y-138470334D01*
X109142423Y-138475664D01*
X109148354Y-138494785D01*
X109150777Y-138532397D01*
X109151000Y-138556824D01*
X109151000Y-138643314D01*
X109376261Y-138646782D01*
X109458406Y-138648333D01*
X109518494Y-138650305D01*
X109559867Y-138653037D01*
X109585870Y-138656866D01*
X109599844Y-138662131D01*
X109605132Y-138669169D01*
X109605300Y-138669920D01*
X109603725Y-138692498D01*
X109600172Y-138698495D01*
X109585139Y-138701403D01*
X109549014Y-138703913D01*
X109496103Y-138705858D01*
X109430715Y-138707071D01*
X109371133Y-138707400D01*
X109151000Y-138707400D01*
X109151000Y-138914800D01*
X107423800Y-138906486D01*
X105696599Y-138898172D01*
X105696600Y-139234586D01*
X105696600Y-139571000D01*
X106207775Y-139573963D01*
X106323117Y-139574625D01*
X106433710Y-139575245D01*
X106536239Y-139575808D01*
X106627392Y-139576294D01*
X106703855Y-139576688D01*
X106762316Y-139576970D01*
X106799462Y-139577123D01*
X106804696Y-139577138D01*
X106890443Y-139577350D01*
X106890421Y-140164725D01*
X106890400Y-140752100D01*
X104975715Y-140752100D01*
X104961986Y-140697576D01*
X104922216Y-140492219D01*
X104902833Y-140276765D01*
X104903607Y-140055950D01*
G36*
X109113349Y-138163903D02*
G01*
X109115004Y-138118224D01*
X109118322Y-138090294D01*
X109123761Y-138076293D01*
X109131781Y-138072401D01*
X109131950Y-138072400D01*
X109140649Y-138076489D01*
X109146308Y-138091487D01*
X109149513Y-138121495D01*
X109150849Y-138170614D01*
X109151000Y-138205750D01*
X109151000Y-138339100D01*
X109316100Y-138339100D01*
X109316100Y-138212100D01*
X109316729Y-138152878D01*
X109319035Y-138114856D01*
X109323645Y-138093856D01*
X109331185Y-138085702D01*
X109335150Y-138085100D01*
X109344033Y-138089297D01*
X109349736Y-138104673D01*
X109352886Y-138135405D01*
X109354109Y-138185671D01*
X109354200Y-138212100D01*
X109354200Y-138339100D01*
X109557400Y-138339100D01*
X109557400Y-138204819D01*
X109557778Y-138144997D01*
X109559396Y-138106321D01*
X109562981Y-138084541D01*
X109569260Y-138075409D01*
X109578957Y-138074676D01*
X109579625Y-138074799D01*
X109589100Y-138079369D01*
X109595698Y-138091592D01*
X109600092Y-138115647D01*
X109602958Y-138155712D01*
X109604971Y-138215964D01*
X109605415Y-138234480D01*
X109608981Y-138389900D01*
X109112900Y-138389900D01*
X109112900Y-138231150D01*
X109113349Y-138163903D01*
G37*
X109113349Y-138163903D02*
X109115004Y-138118224D01*
X109118322Y-138090294D01*
X109123761Y-138076293D01*
X109131781Y-138072401D01*
X109131950Y-138072400D01*
X109140649Y-138076489D01*
X109146308Y-138091487D01*
X109149513Y-138121495D01*
X109150849Y-138170614D01*
X109151000Y-138205750D01*
X109151000Y-138339100D01*
X109316100Y-138339100D01*
X109316100Y-138212100D01*
X109316729Y-138152878D01*
X109319035Y-138114856D01*
X109323645Y-138093856D01*
X109331185Y-138085702D01*
X109335150Y-138085100D01*
X109344033Y-138089297D01*
X109349736Y-138104673D01*
X109352886Y-138135405D01*
X109354109Y-138185671D01*
X109354200Y-138212100D01*
X109354200Y-138339100D01*
X109557400Y-138339100D01*
X109557400Y-138204819D01*
X109557778Y-138144997D01*
X109559396Y-138106321D01*
X109562981Y-138084541D01*
X109569260Y-138075409D01*
X109578957Y-138074676D01*
X109579625Y-138074799D01*
X109589100Y-138079369D01*
X109595698Y-138091592D01*
X109600092Y-138115647D01*
X109602958Y-138155712D01*
X109604971Y-138215964D01*
X109605415Y-138234480D01*
X109608981Y-138389900D01*
X109112900Y-138389900D01*
X109112900Y-138231150D01*
X109113349Y-138163903D01*
G36*
X109349673Y-137684830D02*
G01*
X109422831Y-137657545D01*
X109487916Y-137633235D01*
X109541155Y-137613312D01*
X109578776Y-137599188D01*
X109597007Y-137592274D01*
X109597907Y-137591917D01*
X109605747Y-137599208D01*
X109608200Y-137617396D01*
X109604140Y-137635795D01*
X109588409Y-137650545D01*
X109555674Y-137665732D01*
X109535175Y-137673367D01*
X109462150Y-137699625D01*
X109462150Y-137923580D01*
X109535175Y-137949653D01*
X109580254Y-137968495D01*
X109603373Y-137985654D01*
X109608200Y-137998663D01*
X109600989Y-138017536D01*
X109592325Y-138020894D01*
X109575934Y-138016391D01*
X109539761Y-138004277D01*
X109487772Y-137985951D01*
X109423934Y-137962812D01*
X109406684Y-137956427D01*
X109406684Y-137903217D01*
X109413349Y-137895269D01*
X109416621Y-137872692D01*
X109417654Y-137830867D01*
X109417700Y-137812050D01*
X109417153Y-137762856D01*
X109414744Y-137734431D01*
X109409322Y-137722155D01*
X109399734Y-137721408D01*
X109395475Y-137722898D01*
X109373825Y-137731114D01*
X109335297Y-137745405D01*
X109286887Y-137763183D01*
X109267802Y-137770151D01*
X109221517Y-137787617D01*
X109186572Y-137801943D01*
X109168089Y-137810976D01*
X109166530Y-137812765D01*
X109179536Y-137818793D01*
X109210609Y-137831261D01*
X109253964Y-137847871D01*
X109271978Y-137854614D01*
X109321310Y-137873034D01*
X109363387Y-137888867D01*
X109391022Y-137899407D01*
X109395475Y-137901153D01*
X109406684Y-137903217D01*
X109406684Y-137956427D01*
X109352212Y-137936261D01*
X109347850Y-137934629D01*
X109268780Y-137904894D01*
X109210347Y-137882267D01*
X109169360Y-137865055D01*
X109142630Y-137851564D01*
X109126966Y-137840102D01*
X109119179Y-137828976D01*
X109116078Y-137816490D01*
X109115490Y-137811289D01*
X109111731Y-137773509D01*
X109349673Y-137684830D01*
G37*
X109349673Y-137684830D02*
X109422831Y-137657545D01*
X109487916Y-137633235D01*
X109541155Y-137613312D01*
X109578776Y-137599188D01*
X109597007Y-137592274D01*
X109597907Y-137591917D01*
X109605747Y-137599208D01*
X109608200Y-137617396D01*
X109604140Y-137635795D01*
X109588409Y-137650545D01*
X109555674Y-137665732D01*
X109535175Y-137673367D01*
X109462150Y-137699625D01*
X109462150Y-137923580D01*
X109535175Y-137949653D01*
X109580254Y-137968495D01*
X109603373Y-137985654D01*
X109608200Y-137998663D01*
X109600989Y-138017536D01*
X109592325Y-138020894D01*
X109575934Y-138016391D01*
X109539761Y-138004277D01*
X109487772Y-137985951D01*
X109423934Y-137962812D01*
X109406684Y-137956427D01*
X109406684Y-137903217D01*
X109413349Y-137895269D01*
X109416621Y-137872692D01*
X109417654Y-137830867D01*
X109417700Y-137812050D01*
X109417153Y-137762856D01*
X109414744Y-137734431D01*
X109409322Y-137722155D01*
X109399734Y-137721408D01*
X109395475Y-137722898D01*
X109373825Y-137731114D01*
X109335297Y-137745405D01*
X109286887Y-137763183D01*
X109267802Y-137770151D01*
X109221517Y-137787617D01*
X109186572Y-137801943D01*
X109168089Y-137810976D01*
X109166530Y-137812765D01*
X109179536Y-137818793D01*
X109210609Y-137831261D01*
X109253964Y-137847871D01*
X109271978Y-137854614D01*
X109321310Y-137873034D01*
X109363387Y-137888867D01*
X109391022Y-137899407D01*
X109395475Y-137901153D01*
X109406684Y-137903217D01*
X109406684Y-137956427D01*
X109352212Y-137936261D01*
X109347850Y-137934629D01*
X109268780Y-137904894D01*
X109210347Y-137882267D01*
X109169360Y-137865055D01*
X109142630Y-137851564D01*
X109126966Y-137840102D01*
X109119179Y-137828976D01*
X109116078Y-137816490D01*
X109115490Y-137811289D01*
X109111731Y-137773509D01*
X109349673Y-137684830D01*
G36*
X109114697Y-137462420D02*
G01*
X109122594Y-137448491D01*
X109140346Y-137433626D01*
X109171711Y-137415017D01*
X109220444Y-137389861D01*
X109252600Y-137373900D01*
X109306100Y-137346945D01*
X109350133Y-137323699D01*
X109380313Y-137306553D01*
X109392258Y-137297898D01*
X109392300Y-137297700D01*
X109381589Y-137289631D01*
X109352380Y-137272927D01*
X109309055Y-137249980D01*
X109255999Y-137223180D01*
X109252600Y-137221500D01*
X109193743Y-137192005D01*
X109154138Y-137170464D01*
X109130029Y-137154072D01*
X109117659Y-137140024D01*
X109113273Y-137125515D01*
X109112900Y-137117186D01*
X109112900Y-137081800D01*
X109360550Y-137081800D01*
X109445614Y-137081910D01*
X109508592Y-137082461D01*
X109552795Y-137083790D01*
X109581535Y-137086233D01*
X109598127Y-137090125D01*
X109605881Y-137095802D01*
X109608111Y-137103600D01*
X109608200Y-137106901D01*
X109606937Y-137116024D01*
X109600801Y-137122712D01*
X109586272Y-137127424D01*
X109559828Y-137130621D01*
X109517948Y-137132763D01*
X109457112Y-137134312D01*
X109389732Y-137135476D01*
X109171264Y-137138950D01*
X109319882Y-137211494D01*
X109375321Y-137239505D01*
X109421367Y-137264577D01*
X109453735Y-137284243D01*
X109468144Y-137296036D01*
X109468500Y-137297116D01*
X109457788Y-137307398D01*
X109428472Y-137326297D01*
X109384779Y-137351298D01*
X109330935Y-137379888D01*
X109319275Y-137385839D01*
X109170050Y-137461483D01*
X109389125Y-137462142D01*
X109468450Y-137462512D01*
X109525897Y-137463351D01*
X109564986Y-137465078D01*
X109589239Y-137468113D01*
X109602177Y-137472873D01*
X109607322Y-137479778D01*
X109608200Y-137488200D01*
X109607181Y-137496924D01*
X109601916Y-137503381D01*
X109589091Y-137507914D01*
X109565390Y-137510861D01*
X109527500Y-137512563D01*
X109472106Y-137513359D01*
X109395895Y-137513590D01*
X109360550Y-137513600D01*
X109112900Y-137513600D01*
X109112900Y-137478215D01*
X109114697Y-137462420D01*
G37*
X109114697Y-137462420D02*
X109122594Y-137448491D01*
X109140346Y-137433626D01*
X109171711Y-137415017D01*
X109220444Y-137389861D01*
X109252600Y-137373900D01*
X109306100Y-137346945D01*
X109350133Y-137323699D01*
X109380313Y-137306553D01*
X109392258Y-137297898D01*
X109392300Y-137297700D01*
X109381589Y-137289631D01*
X109352380Y-137272927D01*
X109309055Y-137249980D01*
X109255999Y-137223180D01*
X109252600Y-137221500D01*
X109193743Y-137192005D01*
X109154138Y-137170464D01*
X109130029Y-137154072D01*
X109117659Y-137140024D01*
X109113273Y-137125515D01*
X109112900Y-137117186D01*
X109112900Y-137081800D01*
X109360550Y-137081800D01*
X109445614Y-137081910D01*
X109508592Y-137082461D01*
X109552795Y-137083790D01*
X109581535Y-137086233D01*
X109598127Y-137090125D01*
X109605881Y-137095802D01*
X109608111Y-137103600D01*
X109608200Y-137106901D01*
X109606937Y-137116024D01*
X109600801Y-137122712D01*
X109586272Y-137127424D01*
X109559828Y-137130621D01*
X109517948Y-137132763D01*
X109457112Y-137134312D01*
X109389732Y-137135476D01*
X109171264Y-137138950D01*
X109319882Y-137211494D01*
X109375321Y-137239505D01*
X109421367Y-137264577D01*
X109453735Y-137284243D01*
X109468144Y-137296036D01*
X109468500Y-137297116D01*
X109457788Y-137307398D01*
X109428472Y-137326297D01*
X109384779Y-137351298D01*
X109330935Y-137379888D01*
X109319275Y-137385839D01*
X109170050Y-137461483D01*
X109389125Y-137462142D01*
X109468450Y-137462512D01*
X109525897Y-137463351D01*
X109564986Y-137465078D01*
X109589239Y-137468113D01*
X109602177Y-137472873D01*
X109607322Y-137479778D01*
X109608200Y-137488200D01*
X109607181Y-137496924D01*
X109601916Y-137503381D01*
X109589091Y-137507914D01*
X109565390Y-137510861D01*
X109527500Y-137512563D01*
X109472106Y-137513359D01*
X109395895Y-137513590D01*
X109360550Y-137513600D01*
X109112900Y-137513600D01*
X109112900Y-137478215D01*
X109114697Y-137462420D01*
G36*
X107677800Y-146556000D02*
G01*
X107677800Y-147318000D01*
X109595500Y-147318000D01*
X109595500Y-147584700D01*
X107677800Y-147584700D01*
X107677800Y-148340350D01*
X107461900Y-148340350D01*
X107461900Y-146556000D01*
X107677800Y-146556000D01*
G37*
X107677800Y-146556000D02*
X107677800Y-147318000D01*
X109595500Y-147318000D01*
X109595500Y-147584700D01*
X107677800Y-147584700D01*
X107677800Y-148340350D01*
X107461900Y-148340350D01*
X107461900Y-146556000D01*
X107677800Y-146556000D01*
G36*
X107677800Y-144866900D02*
G01*
X107677800Y-145997200D01*
X108312800Y-145997200D01*
X108312800Y-144892300D01*
X108541400Y-144892300D01*
X108541400Y-145997200D01*
X109366900Y-145997200D01*
X109366900Y-144866900D01*
X109595500Y-144866900D01*
X109595500Y-146251200D01*
X107461900Y-146251200D01*
X107461900Y-144866900D01*
X107677800Y-144866900D01*
G37*
X107677800Y-144866900D02*
X107677800Y-145997200D01*
X108312800Y-145997200D01*
X108312800Y-144892300D01*
X108541400Y-144892300D01*
X108541400Y-145997200D01*
X109366900Y-145997200D01*
X109366900Y-144866900D01*
X109595500Y-144866900D01*
X109595500Y-146251200D01*
X107461900Y-146251200D01*
X107461900Y-144866900D01*
X107677800Y-144866900D01*
G36*
X107002717Y-141428330D02*
G01*
X108731900Y-141425110D01*
X108731900Y-140752100D01*
X107563500Y-140752100D01*
X107563500Y-139583700D01*
X109453764Y-139583700D01*
X109472983Y-139669425D01*
X109497051Y-139800946D01*
X109514274Y-139945873D01*
X109524001Y-140094677D01*
X109525581Y-140237829D01*
X109519669Y-140352050D01*
X109485531Y-140597392D01*
X109428070Y-140832856D01*
X109347533Y-141057927D01*
X109244165Y-141272093D01*
X109118210Y-141474840D01*
X108969915Y-141665655D01*
X108812535Y-141831600D01*
X108666110Y-141962365D01*
X108516863Y-142074353D01*
X108356422Y-142173575D01*
X108274700Y-142217542D01*
X108053198Y-142317985D01*
X107826519Y-142394004D01*
X107596135Y-142445689D01*
X107363518Y-142473130D01*
X107130141Y-142476418D01*
X106897477Y-142455642D01*
X106666998Y-142410892D01*
X106440177Y-142342258D01*
X106218486Y-142249831D01*
X106003399Y-142133701D01*
X105907808Y-142072832D01*
X105811718Y-142002383D01*
X105708512Y-141915933D01*
X105604205Y-141819223D01*
X105504812Y-141717993D01*
X105416348Y-141617986D01*
X105369716Y-141559232D01*
X105273535Y-141431550D01*
X107002717Y-141428330D01*
G37*
X107002717Y-141428330D02*
X108731900Y-141425110D01*
X108731900Y-140752100D01*
X107563500Y-140752100D01*
X107563500Y-139583700D01*
X109453764Y-139583700D01*
X109472983Y-139669425D01*
X109497051Y-139800946D01*
X109514274Y-139945873D01*
X109524001Y-140094677D01*
X109525581Y-140237829D01*
X109519669Y-140352050D01*
X109485531Y-140597392D01*
X109428070Y-140832856D01*
X109347533Y-141057927D01*
X109244165Y-141272093D01*
X109118210Y-141474840D01*
X108969915Y-141665655D01*
X108812535Y-141831600D01*
X108666110Y-141962365D01*
X108516863Y-142074353D01*
X108356422Y-142173575D01*
X108274700Y-142217542D01*
X108053198Y-142317985D01*
X107826519Y-142394004D01*
X107596135Y-142445689D01*
X107363518Y-142473130D01*
X107130141Y-142476418D01*
X106897477Y-142455642D01*
X106666998Y-142410892D01*
X106440177Y-142342258D01*
X106218486Y-142249831D01*
X106003399Y-142133701D01*
X105907808Y-142072832D01*
X105811718Y-142002383D01*
X105708512Y-141915933D01*
X105604205Y-141819223D01*
X105504812Y-141717993D01*
X105416348Y-141617986D01*
X105369716Y-141559232D01*
X105273535Y-141431550D01*
X107002717Y-141428330D01*
G36*
X105125100Y-146937000D02*
G01*
X105125100Y-147506384D01*
X105125213Y-147624130D01*
X105125539Y-147733885D01*
X105126054Y-147833080D01*
X105126734Y-147919141D01*
X105127554Y-147989500D01*
X105128493Y-148041585D01*
X105129526Y-148072825D01*
X105130372Y-148081059D01*
X105143990Y-148082367D01*
X105179537Y-148083275D01*
X105233547Y-148083766D01*
X105302551Y-148083820D01*
X105383083Y-148083420D01*
X105454605Y-148082749D01*
X105773566Y-148079147D01*
X105770008Y-147520769D01*
X105766450Y-146962390D01*
X105877442Y-146962395D01*
X105988435Y-146962400D01*
X105991742Y-147521565D01*
X105995050Y-148080730D01*
X106833250Y-148080730D01*
X106839858Y-146937000D01*
X107068200Y-146937000D01*
X107068200Y-148346700D01*
X104896500Y-148346700D01*
X104896500Y-146937000D01*
X105125100Y-146937000D01*
G37*
X105125100Y-146937000D02*
X105125100Y-147506384D01*
X105125213Y-147624130D01*
X105125539Y-147733885D01*
X105126054Y-147833080D01*
X105126734Y-147919141D01*
X105127554Y-147989500D01*
X105128493Y-148041585D01*
X105129526Y-148072825D01*
X105130372Y-148081059D01*
X105143990Y-148082367D01*
X105179537Y-148083275D01*
X105233547Y-148083766D01*
X105302551Y-148083820D01*
X105383083Y-148083420D01*
X105454605Y-148082749D01*
X105773566Y-148079147D01*
X105770008Y-147520769D01*
X105766450Y-146962390D01*
X105877442Y-146962395D01*
X105988435Y-146962400D01*
X105991742Y-147521565D01*
X105995050Y-148080730D01*
X106833250Y-148080730D01*
X106839858Y-146937000D01*
X107068200Y-146937000D01*
X107068200Y-148346700D01*
X104896500Y-148346700D01*
X104896500Y-146937000D01*
X105125100Y-146937000D01*
G36*
X104901471Y-145495266D02*
G01*
X104917221Y-145372491D01*
X104945727Y-145251918D01*
X104988693Y-145125732D01*
X105025974Y-145035175D01*
X105077065Y-144917700D01*
X105228082Y-144917700D01*
X105286629Y-144918232D01*
X105334600Y-144919679D01*
X105367067Y-144921822D01*
X105379099Y-144924440D01*
X105379100Y-144924458D01*
X105372270Y-144937104D01*
X105353907Y-144965586D01*
X105327203Y-145005043D01*
X105308870Y-145031441D01*
X105225116Y-145165967D01*
X105164749Y-145298464D01*
X105126456Y-145432824D01*
X105108924Y-145572943D01*
X105107432Y-145628900D01*
X105117721Y-145768405D01*
X105149169Y-145893909D01*
X105201924Y-146005685D01*
X105276136Y-146104006D01*
X105371954Y-146189147D01*
X105436250Y-146231857D01*
X105544713Y-146284518D01*
X105670230Y-146324284D01*
X105807437Y-146350200D01*
X105950969Y-146361311D01*
X106095463Y-146356662D01*
X106122314Y-146353948D01*
X106278384Y-146327758D01*
X106414974Y-146286173D01*
X106533272Y-146228563D01*
X106634463Y-146154297D01*
X106719737Y-146062746D01*
X106749781Y-146020955D01*
X106794957Y-145944262D01*
X106826218Y-145867589D01*
X106845365Y-145784140D01*
X106854197Y-145687119D01*
X106855304Y-145622550D01*
X106847557Y-145481621D01*
X106823755Y-145355452D01*
X106781825Y-145237950D01*
X106719698Y-145123024D01*
X106653034Y-145027487D01*
X106618441Y-144981845D01*
X106598157Y-144950982D01*
X106594230Y-144932016D01*
X106608712Y-144922064D01*
X106643653Y-144918242D01*
X106701103Y-144917667D01*
X106731117Y-144917700D01*
X106879352Y-144917700D01*
X106922842Y-145011829D01*
X106961601Y-145102931D01*
X106997274Y-145200199D01*
X107027161Y-145295419D01*
X107048561Y-145380374D01*
X107054692Y-145413000D01*
X107062086Y-145480530D01*
X107065899Y-145563254D01*
X107066232Y-145652806D01*
X107063186Y-145740819D01*
X107056860Y-145818926D01*
X107049200Y-145870200D01*
X107007117Y-146020367D01*
X106944621Y-146155645D01*
X106862314Y-146275414D01*
X106760797Y-146379054D01*
X106640672Y-146465944D01*
X106502540Y-146535463D01*
X106357000Y-146584369D01*
X106316763Y-146594402D01*
X106278807Y-146601823D01*
X106238244Y-146607015D01*
X106190184Y-146610360D01*
X106129741Y-146612239D01*
X106052025Y-146613034D01*
X105988700Y-146613150D01*
X105871716Y-146611918D01*
X105774754Y-146607533D01*
X105692523Y-146598967D01*
X105619733Y-146585191D01*
X105551093Y-146565176D01*
X105481314Y-146537893D01*
X105405105Y-146502312D01*
X105396181Y-146497886D01*
X105265625Y-146419716D01*
X105154266Y-146325112D01*
X105062429Y-146214638D01*
X104990437Y-146088858D01*
X104938614Y-145948335D01*
X104907284Y-145793636D01*
X104896774Y-145628058D01*
X104901471Y-145495266D01*
G37*
X104901471Y-145495266D02*
X104917221Y-145372491D01*
X104945727Y-145251918D01*
X104988693Y-145125732D01*
X105025974Y-145035175D01*
X105077065Y-144917700D01*
X105228082Y-144917700D01*
X105286629Y-144918232D01*
X105334600Y-144919679D01*
X105367067Y-144921822D01*
X105379099Y-144924440D01*
X105379100Y-144924458D01*
X105372270Y-144937104D01*
X105353907Y-144965586D01*
X105327203Y-145005043D01*
X105308870Y-145031441D01*
X105225116Y-145165967D01*
X105164749Y-145298464D01*
X105126456Y-145432824D01*
X105108924Y-145572943D01*
X105107432Y-145628900D01*
X105117721Y-145768405D01*
X105149169Y-145893909D01*
X105201924Y-146005685D01*
X105276136Y-146104006D01*
X105371954Y-146189147D01*
X105436250Y-146231857D01*
X105544713Y-146284518D01*
X105670230Y-146324284D01*
X105807437Y-146350200D01*
X105950969Y-146361311D01*
X106095463Y-146356662D01*
X106122314Y-146353948D01*
X106278384Y-146327758D01*
X106414974Y-146286173D01*
X106533272Y-146228563D01*
X106634463Y-146154297D01*
X106719737Y-146062746D01*
X106749781Y-146020955D01*
X106794957Y-145944262D01*
X106826218Y-145867589D01*
X106845365Y-145784140D01*
X106854197Y-145687119D01*
X106855304Y-145622550D01*
X106847557Y-145481621D01*
X106823755Y-145355452D01*
X106781825Y-145237950D01*
X106719698Y-145123024D01*
X106653034Y-145027487D01*
X106618441Y-144981845D01*
X106598157Y-144950982D01*
X106594230Y-144932016D01*
X106608712Y-144922064D01*
X106643653Y-144918242D01*
X106701103Y-144917667D01*
X106731117Y-144917700D01*
X106879352Y-144917700D01*
X106922842Y-145011829D01*
X106961601Y-145102931D01*
X106997274Y-145200199D01*
X107027161Y-145295419D01*
X107048561Y-145380374D01*
X107054692Y-145413000D01*
X107062086Y-145480530D01*
X107065899Y-145563254D01*
X107066232Y-145652806D01*
X107063186Y-145740819D01*
X107056860Y-145818926D01*
X107049200Y-145870200D01*
X107007117Y-146020367D01*
X106944621Y-146155645D01*
X106862314Y-146275414D01*
X106760797Y-146379054D01*
X106640672Y-146465944D01*
X106502540Y-146535463D01*
X106357000Y-146584369D01*
X106316763Y-146594402D01*
X106278807Y-146601823D01*
X106238244Y-146607015D01*
X106190184Y-146610360D01*
X106129741Y-146612239D01*
X106052025Y-146613034D01*
X105988700Y-146613150D01*
X105871716Y-146611918D01*
X105774754Y-146607533D01*
X105692523Y-146598967D01*
X105619733Y-146585191D01*
X105551093Y-146565176D01*
X105481314Y-146537893D01*
X105405105Y-146502312D01*
X105396181Y-146497886D01*
X105265625Y-146419716D01*
X105154266Y-146325112D01*
X105062429Y-146214638D01*
X104990437Y-146088858D01*
X104938614Y-145948335D01*
X104907284Y-145793636D01*
X104896774Y-145628058D01*
X104901471Y-145495266D01*
G36*
X104907258Y-143590048D02*
G01*
X104908268Y-143554619D01*
X104908950Y-143504353D01*
X104909200Y-143444673D01*
X104909200Y-143292446D01*
X105044649Y-143250998D01*
X105180099Y-143209550D01*
X105210948Y-143139803D01*
X105241796Y-143070056D01*
X105174353Y-142933365D01*
X105106909Y-142796674D01*
X105189029Y-142713230D01*
X105229992Y-142672714D01*
X105268536Y-142636506D01*
X105298310Y-142610506D01*
X105306049Y-142604496D01*
X105340949Y-142579207D01*
X105467049Y-142645151D01*
X105593149Y-142711096D01*
X105663610Y-142681892D01*
X105734070Y-142652687D01*
X105779885Y-142515194D01*
X105825700Y-142377700D01*
X106148995Y-142377700D01*
X106231927Y-142651374D01*
X106308293Y-142679186D01*
X106384658Y-142706999D01*
X106512509Y-142642840D01*
X106640359Y-142578682D01*
X106864275Y-142803150D01*
X106798698Y-142931417D01*
X106733122Y-143059684D01*
X106765466Y-143134579D01*
X106797811Y-143209474D01*
X106929830Y-143255628D01*
X107061850Y-143301783D01*
X107068922Y-143617363D01*
X106933048Y-143661107D01*
X106797174Y-143704850D01*
X106765377Y-143779254D01*
X106733580Y-143853657D01*
X106798271Y-143983733D01*
X106862962Y-144113808D01*
X106751547Y-144224707D01*
X106640132Y-144335605D01*
X106381144Y-144205639D01*
X106305861Y-144234645D01*
X106230578Y-144263650D01*
X106146738Y-144530350D01*
X105986342Y-144533896D01*
X105983265Y-144533964D01*
X105983265Y-143897279D01*
X106075471Y-143889944D01*
X106158785Y-143865647D01*
X106166500Y-143862180D01*
X106245607Y-143817890D01*
X106307461Y-143765064D01*
X106350549Y-143711346D01*
X106400877Y-143617643D01*
X106427113Y-143518343D01*
X106429030Y-143416460D01*
X106406402Y-143315010D01*
X106384208Y-143262100D01*
X106328059Y-143174068D01*
X106254406Y-143103769D01*
X106168024Y-143052517D01*
X106125516Y-143034794D01*
X106085551Y-143024552D01*
X106038177Y-143019937D01*
X105988432Y-143019050D01*
X105931053Y-143020163D01*
X105888717Y-143024987D01*
X105851112Y-143035757D01*
X105807924Y-143054703D01*
X105795291Y-143060859D01*
X105709574Y-143114754D01*
X105641125Y-143184747D01*
X105586621Y-143274274D01*
X105584167Y-143279400D01*
X105566627Y-143321227D01*
X105556499Y-143360934D01*
X105551952Y-143408378D01*
X105551099Y-143457200D01*
X105552581Y-143517722D01*
X105558281Y-143563031D01*
X105570080Y-143603211D01*
X105584736Y-143637496D01*
X105635389Y-143719513D01*
X105704299Y-143792348D01*
X105784408Y-143848946D01*
X105808404Y-143861164D01*
X105891224Y-143887677D01*
X105983265Y-143897279D01*
X105983265Y-144533964D01*
X105825947Y-144537442D01*
X105779677Y-144398584D01*
X105733408Y-144259726D01*
X105591854Y-144202274D01*
X105461973Y-144266868D01*
X105332092Y-144331463D01*
X105219202Y-144218048D01*
X105106313Y-144104633D01*
X105174435Y-143974592D01*
X105242557Y-143844550D01*
X105211904Y-143775601D01*
X105181250Y-143706651D01*
X105042050Y-143660234D01*
X104987634Y-143641320D01*
X104943752Y-143624596D01*
X104915036Y-143611931D01*
X104906025Y-143605359D01*
X104907258Y-143590048D01*
G37*
X104907258Y-143590048D02*
X104908268Y-143554619D01*
X104908950Y-143504353D01*
X104909200Y-143444673D01*
X104909200Y-143292446D01*
X105044649Y-143250998D01*
X105180099Y-143209550D01*
X105210948Y-143139803D01*
X105241796Y-143070056D01*
X105174353Y-142933365D01*
X105106909Y-142796674D01*
X105189029Y-142713230D01*
X105229992Y-142672714D01*
X105268536Y-142636506D01*
X105298310Y-142610506D01*
X105306049Y-142604496D01*
X105340949Y-142579207D01*
X105467049Y-142645151D01*
X105593149Y-142711096D01*
X105663610Y-142681892D01*
X105734070Y-142652687D01*
X105779885Y-142515194D01*
X105825700Y-142377700D01*
X106148995Y-142377700D01*
X106231927Y-142651374D01*
X106308293Y-142679186D01*
X106384658Y-142706999D01*
X106512509Y-142642840D01*
X106640359Y-142578682D01*
X106864275Y-142803150D01*
X106798698Y-142931417D01*
X106733122Y-143059684D01*
X106765466Y-143134579D01*
X106797811Y-143209474D01*
X106929830Y-143255628D01*
X107061850Y-143301783D01*
X107068922Y-143617363D01*
X106933048Y-143661107D01*
X106797174Y-143704850D01*
X106765377Y-143779254D01*
X106733580Y-143853657D01*
X106798271Y-143983733D01*
X106862962Y-144113808D01*
X106751547Y-144224707D01*
X106640132Y-144335605D01*
X106381144Y-144205639D01*
X106305861Y-144234645D01*
X106230578Y-144263650D01*
X106146738Y-144530350D01*
X105986342Y-144533896D01*
X105983265Y-144533964D01*
X105983265Y-143897279D01*
X106075471Y-143889944D01*
X106158785Y-143865647D01*
X106166500Y-143862180D01*
X106245607Y-143817890D01*
X106307461Y-143765064D01*
X106350549Y-143711346D01*
X106400877Y-143617643D01*
X106427113Y-143518343D01*
X106429030Y-143416460D01*
X106406402Y-143315010D01*
X106384208Y-143262100D01*
X106328059Y-143174068D01*
X106254406Y-143103769D01*
X106168024Y-143052517D01*
X106125516Y-143034794D01*
X106085551Y-143024552D01*
X106038177Y-143019937D01*
X105988432Y-143019050D01*
X105931053Y-143020163D01*
X105888717Y-143024987D01*
X105851112Y-143035757D01*
X105807924Y-143054703D01*
X105795291Y-143060859D01*
X105709574Y-143114754D01*
X105641125Y-143184747D01*
X105586621Y-143274274D01*
X105584167Y-143279400D01*
X105566627Y-143321227D01*
X105556499Y-143360934D01*
X105551952Y-143408378D01*
X105551099Y-143457200D01*
X105552581Y-143517722D01*
X105558281Y-143563031D01*
X105570080Y-143603211D01*
X105584736Y-143637496D01*
X105635389Y-143719513D01*
X105704299Y-143792348D01*
X105784408Y-143848946D01*
X105808404Y-143861164D01*
X105891224Y-143887677D01*
X105983265Y-143897279D01*
X105983265Y-144533964D01*
X105825947Y-144537442D01*
X105779677Y-144398584D01*
X105733408Y-144259726D01*
X105591854Y-144202274D01*
X105461973Y-144266868D01*
X105332092Y-144331463D01*
X105219202Y-144218048D01*
X105106313Y-144104633D01*
X105174435Y-143974592D01*
X105242557Y-143844550D01*
X105211904Y-143775601D01*
X105181250Y-143706651D01*
X105042050Y-143660234D01*
X104987634Y-143641320D01*
X104943752Y-143624596D01*
X104915036Y-143611931D01*
X104906025Y-143605359D01*
X104907258Y-143590048D01*
D11*
X145800000Y-132600000D02*
X154200000Y-132600000D01*
X145800000Y-139100000D02*
X154200000Y-139100000D01*
X145800000Y-139100000D02*
X145800000Y-132600000D01*
X121960000Y-143585000D02*
X121960000Y-140900000D01*
X120040000Y-143585000D02*
X121960000Y-143585000D01*
X120040000Y-140900000D02*
X120040000Y-143585000D01*
X125460000Y-143585000D02*
X125460000Y-140900000D01*
X123540000Y-143585000D02*
X125460000Y-143585000D01*
X123540000Y-140900000D02*
X123540000Y-143585000D01*
X128860000Y-143547000D02*
X128860000Y-140862000D01*
X126940000Y-143547000D02*
X128860000Y-143547000D01*
X126940000Y-140862000D02*
X126940000Y-143547000D01*
X153185000Y-145040000D02*
X150500000Y-145040000D01*
X153185000Y-146960000D02*
X153185000Y-145040000D01*
X150500000Y-146960000D02*
X153185000Y-146960000D01*
D14*
X148350000Y-139500000D02*
X149350000Y-139500000D01*
X148850000Y-139000000D02*
X148850000Y-140000000D01*
D11*
X126337221Y-113760000D02*
X126662779Y-113760000D01*
X126337221Y-112740000D02*
X126662779Y-112740000D01*
X129510000Y-115912779D02*
X129510000Y-115587221D01*
X128490000Y-115912779D02*
X128490000Y-115587221D01*
X120760000Y-115662779D02*
X120760000Y-115337221D01*
X119740000Y-115662779D02*
X119740000Y-115337221D01*
X119412779Y-124740000D02*
X119087221Y-124740000D01*
X119412779Y-125760000D02*
X119087221Y-125760000D01*
X119810000Y-107008578D02*
X119810000Y-106491422D01*
X118390000Y-107008578D02*
X118390000Y-106491422D01*
X119810000Y-103258578D02*
X119810000Y-102741422D01*
X118390000Y-103258578D02*
X118390000Y-102741422D01*
X123460000Y-103308578D02*
X123460000Y-102791422D01*
X122040000Y-103308578D02*
X122040000Y-102791422D01*
X137912779Y-105740000D02*
X137587221Y-105740000D01*
X137912779Y-106760000D02*
X137587221Y-106760000D01*
X137960000Y-103758578D02*
X137960000Y-103241422D01*
X136540000Y-103758578D02*
X136540000Y-103241422D01*
X132770000Y-117362779D02*
X132770000Y-117037221D01*
X131750000Y-117362779D02*
X131750000Y-117037221D01*
X131587221Y-133060000D02*
X131912779Y-133060000D01*
X131587221Y-132040000D02*
X131912779Y-132040000D01*
X121112779Y-132040000D02*
X120787221Y-132040000D01*
X121112779Y-133060000D02*
X120787221Y-133060000D01*
X144010000Y-109662779D02*
X144010000Y-109337221D01*
X142990000Y-109662779D02*
X142990000Y-109337221D01*
X142790000Y-113741422D02*
X142790000Y-114258578D01*
X144210000Y-113741422D02*
X144210000Y-114258578D01*
X135837221Y-134790000D02*
X136162779Y-134790000D01*
X135837221Y-135810000D02*
X136162779Y-135810000D01*
D14*
X113761904Y-148952380D02*
X114333333Y-148952380D01*
X114047619Y-149952380D02*
X114047619Y-148952380D01*
X114666666Y-149952380D02*
X114666666Y-148952380D01*
X115047619Y-148952380D01*
X115142857Y-149000000D01*
X115190476Y-149047619D01*
X115238095Y-149142857D01*
X115238095Y-149285714D01*
X115190476Y-149380952D01*
X115142857Y-149428571D01*
X115047619Y-149476190D01*
X114666666Y-149476190D01*
X116190476Y-149952380D02*
X115619047Y-149952380D01*
X115904761Y-149952380D02*
X115904761Y-148952380D01*
X115809523Y-149095238D01*
X115714285Y-149190476D01*
X115619047Y-149238095D01*
X116666666Y-149952380D02*
X116857142Y-149952380D01*
X116952380Y-149904761D01*
X117000000Y-149857142D01*
X117095238Y-149714285D01*
X117142857Y-149523809D01*
X117142857Y-149142857D01*
X117095238Y-149047619D01*
X117047619Y-149000000D01*
X116952380Y-148952380D01*
X116761904Y-148952380D01*
X116666666Y-149000000D01*
X116619047Y-149047619D01*
X116571428Y-149142857D01*
X116571428Y-149380952D01*
X116619047Y-149476190D01*
X116666666Y-149523809D01*
X116761904Y-149571428D01*
X116952380Y-149571428D01*
X117047619Y-149523809D01*
X117095238Y-149476190D01*
X117142857Y-149380952D01*
X117761904Y-148952380D02*
X118333333Y-148952380D01*
X118047619Y-149952380D02*
X118047619Y-148952380D01*
X118666666Y-149952380D02*
X118666666Y-148952380D01*
X119047619Y-148952380D01*
X119142857Y-149000000D01*
X119190476Y-149047619D01*
X119238095Y-149142857D01*
X119238095Y-149285714D01*
X119190476Y-149380952D01*
X119142857Y-149428571D01*
X119047619Y-149476190D01*
X118666666Y-149476190D01*
X120190476Y-149952380D02*
X119619047Y-149952380D01*
X119904761Y-149952380D02*
X119904761Y-148952380D01*
X119809523Y-149095238D01*
X119714285Y-149190476D01*
X119619047Y-149238095D01*
X120761904Y-149380952D02*
X120666666Y-149333333D01*
X120619047Y-149285714D01*
X120571428Y-149190476D01*
X120571428Y-149142857D01*
X120619047Y-149047619D01*
X120666666Y-149000000D01*
X120761904Y-148952380D01*
X120952380Y-148952380D01*
X121047619Y-149000000D01*
X121095238Y-149047619D01*
X121142857Y-149142857D01*
X121142857Y-149190476D01*
X121095238Y-149285714D01*
X121047619Y-149333333D01*
X120952380Y-149380952D01*
X120761904Y-149380952D01*
X120666666Y-149428571D01*
X120619047Y-149476190D01*
X120571428Y-149571428D01*
X120571428Y-149761904D01*
X120619047Y-149857142D01*
X120666666Y-149904761D01*
X120761904Y-149952380D01*
X120952380Y-149952380D01*
X121047619Y-149904761D01*
X121095238Y-149857142D01*
X121142857Y-149761904D01*
X121142857Y-149571428D01*
X121095238Y-149476190D01*
X121047619Y-149428571D01*
X120952380Y-149380952D01*
X121761904Y-148952380D02*
X122333333Y-148952380D01*
X122047619Y-149952380D02*
X122047619Y-148952380D01*
X122666666Y-149952380D02*
X122666666Y-148952380D01*
X123047619Y-148952380D01*
X123142857Y-149000000D01*
X123190476Y-149047619D01*
X123238095Y-149142857D01*
X123238095Y-149285714D01*
X123190476Y-149380952D01*
X123142857Y-149428571D01*
X123047619Y-149476190D01*
X122666666Y-149476190D01*
X124190476Y-149952380D02*
X123619047Y-149952380D01*
X123904761Y-149952380D02*
X123904761Y-148952380D01*
X123809523Y-149095238D01*
X123714285Y-149190476D01*
X123619047Y-149238095D01*
X124523809Y-148952380D02*
X125190476Y-148952380D01*
X124761904Y-149952380D01*
X125761904Y-148952380D02*
X126333333Y-148952380D01*
X126047619Y-149952380D02*
X126047619Y-148952380D01*
X126666666Y-149952380D02*
X126666666Y-148952380D01*
X127047619Y-148952380D01*
X127142857Y-149000000D01*
X127190476Y-149047619D01*
X127238095Y-149142857D01*
X127238095Y-149285714D01*
X127190476Y-149380952D01*
X127142857Y-149428571D01*
X127047619Y-149476190D01*
X126666666Y-149476190D01*
X128190476Y-149952380D02*
X127619047Y-149952380D01*
X127904761Y-149952380D02*
X127904761Y-148952380D01*
X127809523Y-149095238D01*
X127714285Y-149190476D01*
X127619047Y-149238095D01*
X129047619Y-148952380D02*
X128857142Y-148952380D01*
X128761904Y-149000000D01*
X128714285Y-149047619D01*
X128619047Y-149190476D01*
X128571428Y-149380952D01*
X128571428Y-149761904D01*
X128619047Y-149857142D01*
X128666666Y-149904761D01*
X128761904Y-149952380D01*
X128952380Y-149952380D01*
X129047619Y-149904761D01*
X129095238Y-149857142D01*
X129142857Y-149761904D01*
X129142857Y-149523809D01*
X129095238Y-149428571D01*
X129047619Y-149380952D01*
X128952380Y-149333333D01*
X128761904Y-149333333D01*
X128666666Y-149380952D01*
X128619047Y-149428571D01*
X128571428Y-149523809D01*
D16*
X128616157Y-149151544D02*
X128616157Y-149866921D01*
X128568465Y-150009996D01*
X128473081Y-150105380D01*
X128330006Y-150153072D01*
X128234622Y-150153072D01*
X129617685Y-150153072D02*
X129045383Y-150153072D01*
X129331534Y-150153072D02*
X129331534Y-149151544D01*
X129236150Y-149294619D01*
X129140767Y-149390003D01*
X129045383Y-149437695D01*
D17*
X144876190Y-114866666D02*
X145233333Y-114866666D01*
X145304761Y-114890476D01*
X145352380Y-114938095D01*
X145376190Y-115009523D01*
X145376190Y-115057142D01*
X145090476Y-114557142D02*
X145066666Y-114604761D01*
X145042857Y-114628571D01*
X144995238Y-114652380D01*
X144971428Y-114652380D01*
X144923809Y-114628571D01*
X144900000Y-114604761D01*
X144876190Y-114557142D01*
X144876190Y-114461904D01*
X144900000Y-114414285D01*
X144923809Y-114390476D01*
X144971428Y-114366666D01*
X144995238Y-114366666D01*
X145042857Y-114390476D01*
X145066666Y-114414285D01*
X145090476Y-114461904D01*
X145090476Y-114557142D01*
X145114285Y-114604761D01*
X145138095Y-114628571D01*
X145185714Y-114652380D01*
X145280952Y-114652380D01*
X145328571Y-114628571D01*
X145352380Y-114604761D01*
X145376190Y-114557142D01*
X145376190Y-114461904D01*
X145352380Y-114414285D01*
X145328571Y-114390476D01*
X145280952Y-114366666D01*
X145185714Y-114366666D01*
X145138095Y-114390476D01*
X145114285Y-114414285D01*
X145090476Y-114461904D01*
X144876190Y-126366666D02*
X145233333Y-126366666D01*
X145304761Y-126390476D01*
X145352380Y-126438095D01*
X145376190Y-126509523D01*
X145376190Y-126557142D01*
X144876190Y-126176190D02*
X144876190Y-125842857D01*
X145376190Y-126057142D01*
D14*
X150252380Y-107838095D02*
X149252380Y-107838095D01*
X149252380Y-107600000D01*
X149300000Y-107457142D01*
X149395238Y-107361904D01*
X149490476Y-107314285D01*
X149680952Y-107266666D01*
X149823809Y-107266666D01*
X150014285Y-107314285D01*
X150109523Y-107361904D01*
X150204761Y-107457142D01*
X150252380Y-107600000D01*
X150252380Y-107838095D01*
X150252380Y-106790476D02*
X150252380Y-106600000D01*
X150204761Y-106504761D01*
X150157142Y-106457142D01*
X150014285Y-106361904D01*
X149823809Y-106314285D01*
X149442857Y-106314285D01*
X149347619Y-106361904D01*
X149300000Y-106409523D01*
X149252380Y-106504761D01*
X149252380Y-106695238D01*
X149300000Y-106790476D01*
X149347619Y-106838095D01*
X149442857Y-106885714D01*
X149680952Y-106885714D01*
X149776190Y-106838095D01*
X149823809Y-106790476D01*
X149871428Y-106695238D01*
X149871428Y-106504761D01*
X149823809Y-106409523D01*
X149776190Y-106361904D01*
X149680952Y-106314285D01*
X140238095Y-115302380D02*
X140238095Y-116111904D01*
X140285714Y-116207142D01*
X140333333Y-116254761D01*
X140428571Y-116302380D01*
X140619047Y-116302380D01*
X140714285Y-116254761D01*
X140761904Y-116207142D01*
X140809523Y-116111904D01*
X140809523Y-115302380D01*
X141190476Y-115302380D02*
X141809523Y-115302380D01*
X141476190Y-115683333D01*
X141619047Y-115683333D01*
X141714285Y-115730952D01*
X141761904Y-115778571D01*
X141809523Y-115873809D01*
X141809523Y-116111904D01*
X141761904Y-116207142D01*
X141714285Y-116254761D01*
X141619047Y-116302380D01*
X141333333Y-116302380D01*
X141238095Y-116254761D01*
X141190476Y-116207142D01*
X125773809Y-132226190D02*
X125773809Y-132702380D01*
X125440476Y-131702380D02*
X125773809Y-132226190D01*
X126107142Y-131702380D01*
X126964285Y-132702380D02*
X126392857Y-132702380D01*
X126678571Y-132702380D02*
X126678571Y-131702380D01*
X126583333Y-131845238D01*
X126488095Y-131940476D01*
X126392857Y-131988095D01*
X121238095Y-108952380D02*
X121238095Y-109761904D01*
X121285714Y-109857142D01*
X121333333Y-109904761D01*
X121428571Y-109952380D01*
X121619047Y-109952380D01*
X121714285Y-109904761D01*
X121761904Y-109857142D01*
X121809523Y-109761904D01*
X121809523Y-108952380D01*
X122714285Y-108952380D02*
X122523809Y-108952380D01*
X122428571Y-109000000D01*
X122380952Y-109047619D01*
X122285714Y-109190476D01*
X122238095Y-109380952D01*
X122238095Y-109761904D01*
X122285714Y-109857142D01*
X122333333Y-109904761D01*
X122428571Y-109952380D01*
X122619047Y-109952380D01*
X122714285Y-109904761D01*
X122761904Y-109857142D01*
X122809523Y-109761904D01*
X122809523Y-109523809D01*
X122761904Y-109428571D01*
X122714285Y-109380952D01*
X122619047Y-109333333D01*
X122428571Y-109333333D01*
X122333333Y-109380952D01*
X122285714Y-109428571D01*
X122238095Y-109523809D01*
X124738095Y-107452380D02*
X124738095Y-108261904D01*
X124785714Y-108357142D01*
X124833333Y-108404761D01*
X124928571Y-108452380D01*
X125119047Y-108452380D01*
X125214285Y-108404761D01*
X125261904Y-108357142D01*
X125309523Y-108261904D01*
X125309523Y-107452380D01*
X126261904Y-107452380D02*
X125785714Y-107452380D01*
X125738095Y-107928571D01*
X125785714Y-107880952D01*
X125880952Y-107833333D01*
X126119047Y-107833333D01*
X126214285Y-107880952D01*
X126261904Y-107928571D01*
X126309523Y-108023809D01*
X126309523Y-108261904D01*
X126261904Y-108357142D01*
X126214285Y-108404761D01*
X126119047Y-108452380D01*
X125880952Y-108452380D01*
X125785714Y-108404761D01*
X125738095Y-108357142D01*
X118202380Y-121511904D02*
X119011904Y-121511904D01*
X119107142Y-121464285D01*
X119154761Y-121416666D01*
X119202380Y-121321428D01*
X119202380Y-121130952D01*
X119154761Y-121035714D01*
X119107142Y-120988095D01*
X119011904Y-120940476D01*
X118202380Y-120940476D01*
X118535714Y-120035714D02*
X119202380Y-120035714D01*
X118154761Y-120273809D02*
X118869047Y-120511904D01*
X118869047Y-119892857D01*
D18*
X136530952Y-112526190D02*
X136816666Y-112526190D01*
X136673809Y-113026190D02*
X136673809Y-112526190D01*
X136983333Y-113026190D02*
X136983333Y-112526190D01*
X137173809Y-112526190D01*
X137221428Y-112550000D01*
X137245238Y-112573809D01*
X137269047Y-112621428D01*
X137269047Y-112692857D01*
X137245238Y-112740476D01*
X137221428Y-112764285D01*
X137173809Y-112788095D01*
X136983333Y-112788095D01*
X137745238Y-113026190D02*
X137459523Y-113026190D01*
X137602380Y-113026190D02*
X137602380Y-112526190D01*
X137554761Y-112597619D01*
X137507142Y-112645238D01*
X137459523Y-112669047D01*
X138197619Y-112526190D02*
X137959523Y-112526190D01*
X137935714Y-112764285D01*
X137959523Y-112740476D01*
X138007142Y-112716666D01*
X138126190Y-112716666D01*
X138173809Y-112740476D01*
X138197619Y-112764285D01*
X138221428Y-112811904D01*
X138221428Y-112930952D01*
X138197619Y-112978571D01*
X138173809Y-113002380D01*
X138126190Y-113026190D01*
X138007142Y-113026190D01*
X137959523Y-113002380D01*
X137935714Y-112978571D01*
X129130952Y-112476190D02*
X129416666Y-112476190D01*
X129273809Y-112976190D02*
X129273809Y-112476190D01*
X129583333Y-112976190D02*
X129583333Y-112476190D01*
X129773809Y-112476190D01*
X129821428Y-112500000D01*
X129845238Y-112523809D01*
X129869047Y-112571428D01*
X129869047Y-112642857D01*
X129845238Y-112690476D01*
X129821428Y-112714285D01*
X129773809Y-112738095D01*
X129583333Y-112738095D01*
X130345238Y-112976190D02*
X130059523Y-112976190D01*
X130202380Y-112976190D02*
X130202380Y-112476190D01*
X130154761Y-112547619D01*
X130107142Y-112595238D01*
X130059523Y-112619047D01*
X130773809Y-112642857D02*
X130773809Y-112976190D01*
X130654761Y-112452380D02*
X130535714Y-112809523D01*
X130845238Y-112809523D01*
X132880952Y-112476190D02*
X133166666Y-112476190D01*
X133023809Y-112976190D02*
X133023809Y-112476190D01*
X133333333Y-112976190D02*
X133333333Y-112476190D01*
X133523809Y-112476190D01*
X133571428Y-112500000D01*
X133595238Y-112523809D01*
X133619047Y-112571428D01*
X133619047Y-112642857D01*
X133595238Y-112690476D01*
X133571428Y-112714285D01*
X133523809Y-112738095D01*
X133333333Y-112738095D01*
X134095238Y-112976190D02*
X133809523Y-112976190D01*
X133952380Y-112976190D02*
X133952380Y-112476190D01*
X133904761Y-112547619D01*
X133857142Y-112595238D01*
X133809523Y-112619047D01*
X134261904Y-112476190D02*
X134571428Y-112476190D01*
X134404761Y-112666666D01*
X134476190Y-112666666D01*
X134523809Y-112690476D01*
X134547619Y-112714285D01*
X134571428Y-112761904D01*
X134571428Y-112880952D01*
X134547619Y-112928571D01*
X134523809Y-112952380D01*
X134476190Y-112976190D01*
X134333333Y-112976190D01*
X134285714Y-112952380D01*
X134261904Y-112928571D01*
D14*
X141552380Y-130138095D02*
X141552380Y-129566666D01*
X142552380Y-129852380D02*
X141552380Y-129852380D01*
X142552380Y-129233333D02*
X141552380Y-129233333D01*
X141552380Y-128852380D01*
X141600000Y-128757142D01*
X141647619Y-128709523D01*
X141742857Y-128661904D01*
X141885714Y-128661904D01*
X141980952Y-128709523D01*
X142028571Y-128757142D01*
X142076190Y-128852380D01*
X142076190Y-129233333D01*
X142552380Y-127709523D02*
X142552380Y-128280952D01*
X142552380Y-127995238D02*
X141552380Y-127995238D01*
X141695238Y-128090476D01*
X141790476Y-128185714D01*
X141838095Y-128280952D01*
X141647619Y-127328571D02*
X141600000Y-127280952D01*
X141552380Y-127185714D01*
X141552380Y-126947619D01*
X141600000Y-126852380D01*
X141647619Y-126804761D01*
X141742857Y-126757142D01*
X141838095Y-126757142D01*
X141980952Y-126804761D01*
X142552380Y-127376190D01*
X142552380Y-126757142D01*
X141552380Y-126138095D02*
X141552380Y-125566666D01*
X142552380Y-125852380D02*
X141552380Y-125852380D01*
X142552380Y-125233333D02*
X141552380Y-125233333D01*
X141552380Y-124852380D01*
X141600000Y-124757142D01*
X141647619Y-124709523D01*
X141742857Y-124661904D01*
X141885714Y-124661904D01*
X141980952Y-124709523D01*
X142028571Y-124757142D01*
X142076190Y-124852380D01*
X142076190Y-125233333D01*
X142552380Y-123709523D02*
X142552380Y-124280952D01*
X142552380Y-123995238D02*
X141552380Y-123995238D01*
X141695238Y-124090476D01*
X141790476Y-124185714D01*
X141838095Y-124280952D01*
X142552380Y-122757142D02*
X142552380Y-123328571D01*
X142552380Y-123042857D02*
X141552380Y-123042857D01*
X141695238Y-123138095D01*
X141790476Y-123233333D01*
X141838095Y-123328571D01*
X141552380Y-133938095D02*
X141552380Y-133366666D01*
X142552380Y-133652380D02*
X141552380Y-133652380D01*
X142552380Y-133033333D02*
X141552380Y-133033333D01*
X141552380Y-132652380D01*
X141600000Y-132557142D01*
X141647619Y-132509523D01*
X141742857Y-132461904D01*
X141885714Y-132461904D01*
X141980952Y-132509523D01*
X142028571Y-132557142D01*
X142076190Y-132652380D01*
X142076190Y-133033333D01*
X142552380Y-131509523D02*
X142552380Y-132080952D01*
X142552380Y-131795238D02*
X141552380Y-131795238D01*
X141695238Y-131890476D01*
X141790476Y-131985714D01*
X141838095Y-132080952D01*
X141552380Y-130890476D02*
X141552380Y-130795238D01*
X141600000Y-130700000D01*
X141647619Y-130652380D01*
X141742857Y-130604761D01*
X141933333Y-130557142D01*
X142171428Y-130557142D01*
X142361904Y-130604761D01*
X142457142Y-130652380D01*
X142504761Y-130700000D01*
X142552380Y-130795238D01*
X142552380Y-130890476D01*
X142504761Y-130985714D01*
X142457142Y-131033333D01*
X142361904Y-131080952D01*
X142171428Y-131128571D01*
X141933333Y-131128571D01*
X141742857Y-131080952D01*
X141647619Y-131033333D01*
X141600000Y-130985714D01*
X141552380Y-130890476D01*
X112966666Y-144004761D02*
X113109523Y-144052380D01*
X113347619Y-144052380D01*
X113442857Y-144004761D01*
X113490476Y-143957142D01*
X113538095Y-143861904D01*
X113538095Y-143766666D01*
X113490476Y-143671428D01*
X113442857Y-143623809D01*
X113347619Y-143576190D01*
X113157142Y-143528571D01*
X113061904Y-143480952D01*
X113014285Y-143433333D01*
X112966666Y-143338095D01*
X112966666Y-143242857D01*
X113014285Y-143147619D01*
X113061904Y-143100000D01*
X113157142Y-143052380D01*
X113395238Y-143052380D01*
X113538095Y-143100000D01*
X113871428Y-143052380D02*
X114109523Y-144052380D01*
X114300000Y-143338095D01*
X114490476Y-144052380D01*
X114728571Y-143052380D01*
X115014285Y-143052380D02*
X115633333Y-143052380D01*
X115300000Y-143433333D01*
X115442857Y-143433333D01*
X115538095Y-143480952D01*
X115585714Y-143528571D01*
X115633333Y-143623809D01*
X115633333Y-143861904D01*
X115585714Y-143957142D01*
X115538095Y-144004761D01*
X115442857Y-144052380D01*
X115157142Y-144052380D01*
X115061904Y-144004761D01*
X115014285Y-143957142D01*
X112966666Y-137104761D02*
X113109523Y-137152380D01*
X113347619Y-137152380D01*
X113442857Y-137104761D01*
X113490476Y-137057142D01*
X113538095Y-136961904D01*
X113538095Y-136866666D01*
X113490476Y-136771428D01*
X113442857Y-136723809D01*
X113347619Y-136676190D01*
X113157142Y-136628571D01*
X113061904Y-136580952D01*
X113014285Y-136533333D01*
X112966666Y-136438095D01*
X112966666Y-136342857D01*
X113014285Y-136247619D01*
X113061904Y-136200000D01*
X113157142Y-136152380D01*
X113395238Y-136152380D01*
X113538095Y-136200000D01*
X113871428Y-136152380D02*
X114109523Y-137152380D01*
X114300000Y-136438095D01*
X114490476Y-137152380D01*
X114728571Y-136152380D01*
X115633333Y-137152380D02*
X115061904Y-137152380D01*
X115347619Y-137152380D02*
X115347619Y-136152380D01*
X115252380Y-136295238D01*
X115157142Y-136390476D01*
X115061904Y-136438095D01*
X131362380Y-120892857D02*
X130886190Y-121226190D01*
X131362380Y-121464285D02*
X130362380Y-121464285D01*
X130362380Y-121083333D01*
X130410000Y-120988095D01*
X130457619Y-120940476D01*
X130552857Y-120892857D01*
X130695714Y-120892857D01*
X130790952Y-120940476D01*
X130838571Y-120988095D01*
X130886190Y-121083333D01*
X130886190Y-121464285D01*
X131362380Y-119940476D02*
X131362380Y-120511904D01*
X131362380Y-120226190D02*
X130362380Y-120226190D01*
X130505238Y-120321428D01*
X130600476Y-120416666D01*
X130648095Y-120511904D01*
X130790952Y-119369047D02*
X130743333Y-119464285D01*
X130695714Y-119511904D01*
X130600476Y-119559523D01*
X130552857Y-119559523D01*
X130457619Y-119511904D01*
X130410000Y-119464285D01*
X130362380Y-119369047D01*
X130362380Y-119178571D01*
X130410000Y-119083333D01*
X130457619Y-119035714D01*
X130552857Y-118988095D01*
X130600476Y-118988095D01*
X130695714Y-119035714D01*
X130743333Y-119083333D01*
X130790952Y-119178571D01*
X130790952Y-119369047D01*
X130838571Y-119464285D01*
X130886190Y-119511904D01*
X130981428Y-119559523D01*
X131171904Y-119559523D01*
X131267142Y-119511904D01*
X131314761Y-119464285D01*
X131362380Y-119369047D01*
X131362380Y-119178571D01*
X131314761Y-119083333D01*
X131267142Y-119035714D01*
X131171904Y-118988095D01*
X130981428Y-118988095D01*
X130886190Y-119035714D01*
X130838571Y-119083333D01*
X130790952Y-119178571D01*
X131452380Y-124642857D02*
X130976190Y-124976190D01*
X131452380Y-125214285D02*
X130452380Y-125214285D01*
X130452380Y-124833333D01*
X130500000Y-124738095D01*
X130547619Y-124690476D01*
X130642857Y-124642857D01*
X130785714Y-124642857D01*
X130880952Y-124690476D01*
X130928571Y-124738095D01*
X130976190Y-124833333D01*
X130976190Y-125214285D01*
X131452380Y-123690476D02*
X131452380Y-124261904D01*
X131452380Y-123976190D02*
X130452380Y-123976190D01*
X130595238Y-124071428D01*
X130690476Y-124166666D01*
X130738095Y-124261904D01*
X130452380Y-123357142D02*
X130452380Y-122690476D01*
X131452380Y-123119047D01*
X134957142Y-126082380D02*
X134623809Y-125606190D01*
X134385714Y-126082380D02*
X134385714Y-125082380D01*
X134766666Y-125082380D01*
X134861904Y-125130000D01*
X134909523Y-125177619D01*
X134957142Y-125272857D01*
X134957142Y-125415714D01*
X134909523Y-125510952D01*
X134861904Y-125558571D01*
X134766666Y-125606190D01*
X134385714Y-125606190D01*
X135909523Y-126082380D02*
X135338095Y-126082380D01*
X135623809Y-126082380D02*
X135623809Y-125082380D01*
X135528571Y-125225238D01*
X135433333Y-125320476D01*
X135338095Y-125368095D01*
X136766666Y-125082380D02*
X136576190Y-125082380D01*
X136480952Y-125130000D01*
X136433333Y-125177619D01*
X136338095Y-125320476D01*
X136290476Y-125510952D01*
X136290476Y-125891904D01*
X136338095Y-125987142D01*
X136385714Y-126034761D01*
X136480952Y-126082380D01*
X136671428Y-126082380D01*
X136766666Y-126034761D01*
X136814285Y-125987142D01*
X136861904Y-125891904D01*
X136861904Y-125653809D01*
X136814285Y-125558571D01*
X136766666Y-125510952D01*
X136671428Y-125463333D01*
X136480952Y-125463333D01*
X136385714Y-125510952D01*
X136338095Y-125558571D01*
X136290476Y-125653809D01*
X134607142Y-116452380D02*
X134273809Y-115976190D01*
X134035714Y-116452380D02*
X134035714Y-115452380D01*
X134416666Y-115452380D01*
X134511904Y-115500000D01*
X134559523Y-115547619D01*
X134607142Y-115642857D01*
X134607142Y-115785714D01*
X134559523Y-115880952D01*
X134511904Y-115928571D01*
X134416666Y-115976190D01*
X134035714Y-115976190D01*
X135559523Y-116452380D02*
X134988095Y-116452380D01*
X135273809Y-116452380D02*
X135273809Y-115452380D01*
X135178571Y-115595238D01*
X135083333Y-115690476D01*
X134988095Y-115738095D01*
X136464285Y-115452380D02*
X135988095Y-115452380D01*
X135940476Y-115928571D01*
X135988095Y-115880952D01*
X136083333Y-115833333D01*
X136321428Y-115833333D01*
X136416666Y-115880952D01*
X136464285Y-115928571D01*
X136511904Y-116023809D01*
X136511904Y-116261904D01*
X136464285Y-116357142D01*
X136416666Y-116404761D01*
X136321428Y-116452380D01*
X136083333Y-116452380D01*
X135988095Y-116404761D01*
X135940476Y-116357142D01*
D18*
X116976190Y-128071428D02*
X116738095Y-128238095D01*
X116976190Y-128357142D02*
X116476190Y-128357142D01*
X116476190Y-128166666D01*
X116500000Y-128119047D01*
X116523809Y-128095238D01*
X116571428Y-128071428D01*
X116642857Y-128071428D01*
X116690476Y-128095238D01*
X116714285Y-128119047D01*
X116738095Y-128166666D01*
X116738095Y-128357142D01*
X116976190Y-127595238D02*
X116976190Y-127880952D01*
X116976190Y-127738095D02*
X116476190Y-127738095D01*
X116547619Y-127785714D01*
X116595238Y-127833333D01*
X116619047Y-127880952D01*
X116642857Y-127166666D02*
X116976190Y-127166666D01*
X116452380Y-127285714D02*
X116809523Y-127404761D01*
X116809523Y-127095238D01*
D14*
X120022380Y-138942857D02*
X119546190Y-139276190D01*
X120022380Y-139514285D02*
X119022380Y-139514285D01*
X119022380Y-139133333D01*
X119070000Y-139038095D01*
X119117619Y-138990476D01*
X119212857Y-138942857D01*
X119355714Y-138942857D01*
X119450952Y-138990476D01*
X119498571Y-139038095D01*
X119546190Y-139133333D01*
X119546190Y-139514285D01*
X120022380Y-137990476D02*
X120022380Y-138561904D01*
X120022380Y-138276190D02*
X119022380Y-138276190D01*
X119165238Y-138371428D01*
X119260476Y-138466666D01*
X119308095Y-138561904D01*
X119022380Y-137657142D02*
X119022380Y-137038095D01*
X119403333Y-137371428D01*
X119403333Y-137228571D01*
X119450952Y-137133333D01*
X119498571Y-137085714D01*
X119593809Y-137038095D01*
X119831904Y-137038095D01*
X119927142Y-137085714D01*
X119974761Y-137133333D01*
X120022380Y-137228571D01*
X120022380Y-137514285D01*
X119974761Y-137609523D01*
X119927142Y-137657142D01*
X123522380Y-138942857D02*
X123046190Y-139276190D01*
X123522380Y-139514285D02*
X122522380Y-139514285D01*
X122522380Y-139133333D01*
X122570000Y-139038095D01*
X122617619Y-138990476D01*
X122712857Y-138942857D01*
X122855714Y-138942857D01*
X122950952Y-138990476D01*
X122998571Y-139038095D01*
X123046190Y-139133333D01*
X123046190Y-139514285D01*
X123522380Y-137990476D02*
X123522380Y-138561904D01*
X123522380Y-138276190D02*
X122522380Y-138276190D01*
X122665238Y-138371428D01*
X122760476Y-138466666D01*
X122808095Y-138561904D01*
X122617619Y-137609523D02*
X122570000Y-137561904D01*
X122522380Y-137466666D01*
X122522380Y-137228571D01*
X122570000Y-137133333D01*
X122617619Y-137085714D01*
X122712857Y-137038095D01*
X122808095Y-137038095D01*
X122950952Y-137085714D01*
X123522380Y-137657142D01*
X123522380Y-137038095D01*
X126922380Y-138842857D02*
X126446190Y-139176190D01*
X126922380Y-139414285D02*
X125922380Y-139414285D01*
X125922380Y-139033333D01*
X125970000Y-138938095D01*
X126017619Y-138890476D01*
X126112857Y-138842857D01*
X126255714Y-138842857D01*
X126350952Y-138890476D01*
X126398571Y-138938095D01*
X126446190Y-139033333D01*
X126446190Y-139414285D01*
X126922380Y-137890476D02*
X126922380Y-138461904D01*
X126922380Y-138176190D02*
X125922380Y-138176190D01*
X126065238Y-138271428D01*
X126160476Y-138366666D01*
X126208095Y-138461904D01*
X126922380Y-136938095D02*
X126922380Y-137509523D01*
X126922380Y-137223809D02*
X125922380Y-137223809D01*
X126065238Y-137319047D01*
X126160476Y-137414285D01*
X126208095Y-137509523D01*
X146902380Y-146642857D02*
X146426190Y-146976190D01*
X146902380Y-147214285D02*
X145902380Y-147214285D01*
X145902380Y-146833333D01*
X145950000Y-146738095D01*
X145997619Y-146690476D01*
X146092857Y-146642857D01*
X146235714Y-146642857D01*
X146330952Y-146690476D01*
X146378571Y-146738095D01*
X146426190Y-146833333D01*
X146426190Y-147214285D01*
X146902380Y-145690476D02*
X146902380Y-146261904D01*
X146902380Y-145976190D02*
X145902380Y-145976190D01*
X146045238Y-146071428D01*
X146140476Y-146166666D01*
X146188095Y-146261904D01*
X145902380Y-145071428D02*
X145902380Y-144976190D01*
X145950000Y-144880952D01*
X145997619Y-144833333D01*
X146092857Y-144785714D01*
X146283333Y-144738095D01*
X146521428Y-144738095D01*
X146711904Y-144785714D01*
X146807142Y-144833333D01*
X146854761Y-144880952D01*
X146902380Y-144976190D01*
X146902380Y-145071428D01*
X146854761Y-145166666D01*
X146807142Y-145214285D01*
X146711904Y-145261904D01*
X146521428Y-145309523D01*
X146283333Y-145309523D01*
X146092857Y-145261904D01*
X145997619Y-145214285D01*
X145950000Y-145166666D01*
X145902380Y-145071428D01*
D18*
X118166666Y-129976190D02*
X118000000Y-129738095D01*
X117880952Y-129976190D02*
X117880952Y-129476190D01*
X118071428Y-129476190D01*
X118119047Y-129500000D01*
X118142857Y-129523809D01*
X118166666Y-129571428D01*
X118166666Y-129642857D01*
X118142857Y-129690476D01*
X118119047Y-129714285D01*
X118071428Y-129738095D01*
X117880952Y-129738095D01*
X118404761Y-129976190D02*
X118500000Y-129976190D01*
X118547619Y-129952380D01*
X118571428Y-129928571D01*
X118619047Y-129857142D01*
X118642857Y-129761904D01*
X118642857Y-129571428D01*
X118619047Y-129523809D01*
X118595238Y-129500000D01*
X118547619Y-129476190D01*
X118452380Y-129476190D01*
X118404761Y-129500000D01*
X118380952Y-129523809D01*
X118357142Y-129571428D01*
X118357142Y-129690476D01*
X118380952Y-129738095D01*
X118404761Y-129761904D01*
X118452380Y-129785714D01*
X118547619Y-129785714D01*
X118595238Y-129761904D01*
X118619047Y-129738095D01*
X118642857Y-129690476D01*
D14*
X134904761Y-123297619D02*
X134809523Y-123250000D01*
X134714285Y-123154761D01*
X134571428Y-123011904D01*
X134476190Y-122964285D01*
X134380952Y-122964285D01*
X134428571Y-123202380D02*
X134333333Y-123154761D01*
X134238095Y-123059523D01*
X134190476Y-122869047D01*
X134190476Y-122535714D01*
X134238095Y-122345238D01*
X134333333Y-122250000D01*
X134428571Y-122202380D01*
X134619047Y-122202380D01*
X134714285Y-122250000D01*
X134809523Y-122345238D01*
X134857142Y-122535714D01*
X134857142Y-122869047D01*
X134809523Y-123059523D01*
X134714285Y-123154761D01*
X134619047Y-123202380D01*
X134428571Y-123202380D01*
X135190476Y-122202380D02*
X135809523Y-122202380D01*
X135476190Y-122583333D01*
X135619047Y-122583333D01*
X135714285Y-122630952D01*
X135761904Y-122678571D01*
X135809523Y-122773809D01*
X135809523Y-123011904D01*
X135761904Y-123107142D01*
X135714285Y-123154761D01*
X135619047Y-123202380D01*
X135333333Y-123202380D01*
X135238095Y-123154761D01*
X135190476Y-123107142D01*
X123083333Y-112202380D02*
X122607142Y-112202380D01*
X122607142Y-111202380D01*
X123369047Y-111297619D02*
X123416666Y-111250000D01*
X123511904Y-111202380D01*
X123750000Y-111202380D01*
X123845238Y-111250000D01*
X123892857Y-111297619D01*
X123940476Y-111392857D01*
X123940476Y-111488095D01*
X123892857Y-111630952D01*
X123321428Y-112202380D01*
X123940476Y-112202380D01*
D18*
X116476190Y-123416666D02*
X116833333Y-123416666D01*
X116904761Y-123440476D01*
X116952380Y-123488095D01*
X116976190Y-123559523D01*
X116976190Y-123607142D01*
X116976190Y-123178571D02*
X116476190Y-123178571D01*
X116476190Y-122988095D01*
X116500000Y-122940476D01*
X116523809Y-122916666D01*
X116571428Y-122892857D01*
X116642857Y-122892857D01*
X116690476Y-122916666D01*
X116714285Y-122940476D01*
X116738095Y-122988095D01*
X116738095Y-123178571D01*
X116476190Y-122464285D02*
X116476190Y-122559523D01*
X116500000Y-122607142D01*
X116523809Y-122630952D01*
X116595238Y-122678571D01*
X116690476Y-122702380D01*
X116880952Y-122702380D01*
X116928571Y-122678571D01*
X116952380Y-122654761D01*
X116976190Y-122607142D01*
X116976190Y-122511904D01*
X116952380Y-122464285D01*
X116928571Y-122440476D01*
X116880952Y-122416666D01*
X116761904Y-122416666D01*
X116714285Y-122440476D01*
X116690476Y-122464285D01*
X116666666Y-122511904D01*
X116666666Y-122607142D01*
X116690476Y-122654761D01*
X116714285Y-122678571D01*
X116761904Y-122702380D01*
X116476190Y-117416666D02*
X116833333Y-117416666D01*
X116904761Y-117440476D01*
X116952380Y-117488095D01*
X116976190Y-117559523D01*
X116976190Y-117607142D01*
X116976190Y-117178571D02*
X116476190Y-117178571D01*
X116476190Y-116988095D01*
X116500000Y-116940476D01*
X116523809Y-116916666D01*
X116571428Y-116892857D01*
X116642857Y-116892857D01*
X116690476Y-116916666D01*
X116714285Y-116940476D01*
X116738095Y-116988095D01*
X116738095Y-117178571D01*
X116476190Y-116440476D02*
X116476190Y-116678571D01*
X116714285Y-116702380D01*
X116690476Y-116678571D01*
X116666666Y-116630952D01*
X116666666Y-116511904D01*
X116690476Y-116464285D01*
X116714285Y-116440476D01*
X116761904Y-116416666D01*
X116880952Y-116416666D01*
X116928571Y-116440476D01*
X116952380Y-116464285D01*
X116976190Y-116511904D01*
X116976190Y-116630952D01*
X116952380Y-116678571D01*
X116928571Y-116702380D01*
X116476190Y-111416666D02*
X116833333Y-111416666D01*
X116904761Y-111440476D01*
X116952380Y-111488095D01*
X116976190Y-111559523D01*
X116976190Y-111607142D01*
X116976190Y-111178571D02*
X116476190Y-111178571D01*
X116476190Y-110988095D01*
X116500000Y-110940476D01*
X116523809Y-110916666D01*
X116571428Y-110892857D01*
X116642857Y-110892857D01*
X116690476Y-110916666D01*
X116714285Y-110940476D01*
X116738095Y-110988095D01*
X116738095Y-111178571D01*
X116642857Y-110464285D02*
X116976190Y-110464285D01*
X116452380Y-110583333D02*
X116809523Y-110702380D01*
X116809523Y-110392857D01*
D14*
X134766666Y-129252380D02*
X134766666Y-129966666D01*
X134719047Y-130109523D01*
X134623809Y-130204761D01*
X134480952Y-130252380D01*
X134385714Y-130252380D01*
X135242857Y-130252380D02*
X135242857Y-129252380D01*
X135623809Y-129252380D01*
X135719047Y-129300000D01*
X135766666Y-129347619D01*
X135814285Y-129442857D01*
X135814285Y-129585714D01*
X135766666Y-129680952D01*
X135719047Y-129728571D01*
X135623809Y-129776190D01*
X135242857Y-129776190D01*
X136147619Y-129252380D02*
X136766666Y-129252380D01*
X136433333Y-129633333D01*
X136576190Y-129633333D01*
X136671428Y-129680952D01*
X136719047Y-129728571D01*
X136766666Y-129823809D01*
X136766666Y-130061904D01*
X136719047Y-130157142D01*
X136671428Y-130204761D01*
X136576190Y-130252380D01*
X136290476Y-130252380D01*
X136195238Y-130204761D01*
X136147619Y-130157142D01*
X105916666Y-135802380D02*
X105916666Y-136516666D01*
X105869047Y-136659523D01*
X105773809Y-136754761D01*
X105630952Y-136802380D01*
X105535714Y-136802380D01*
X106392857Y-136802380D02*
X106392857Y-135802380D01*
X106773809Y-135802380D01*
X106869047Y-135850000D01*
X106916666Y-135897619D01*
X106964285Y-135992857D01*
X106964285Y-136135714D01*
X106916666Y-136230952D01*
X106869047Y-136278571D01*
X106773809Y-136326190D01*
X106392857Y-136326190D01*
X107916666Y-136802380D02*
X107345238Y-136802380D01*
X107630952Y-136802380D02*
X107630952Y-135802380D01*
X107535714Y-135945238D01*
X107440476Y-136040476D01*
X107345238Y-136088095D01*
X107666666Y-127952380D02*
X107666666Y-128666666D01*
X107619047Y-128809523D01*
X107523809Y-128904761D01*
X107380952Y-128952380D01*
X107285714Y-128952380D01*
X108619047Y-127952380D02*
X108142857Y-127952380D01*
X108095238Y-128428571D01*
X108142857Y-128380952D01*
X108238095Y-128333333D01*
X108476190Y-128333333D01*
X108571428Y-128380952D01*
X108619047Y-128428571D01*
X108666666Y-128523809D01*
X108666666Y-128761904D01*
X108619047Y-128857142D01*
X108571428Y-128904761D01*
X108476190Y-128952380D01*
X108238095Y-128952380D01*
X108142857Y-128904761D01*
X108095238Y-128857142D01*
X145202380Y-136488095D02*
X144202380Y-136488095D01*
X144202380Y-136250000D01*
X144250000Y-136107142D01*
X144345238Y-136011904D01*
X144440476Y-135964285D01*
X144630952Y-135916666D01*
X144773809Y-135916666D01*
X144964285Y-135964285D01*
X145059523Y-136011904D01*
X145154761Y-136107142D01*
X145202380Y-136250000D01*
X145202380Y-136488095D01*
X144630952Y-135345238D02*
X144583333Y-135440476D01*
X144535714Y-135488095D01*
X144440476Y-135535714D01*
X144392857Y-135535714D01*
X144297619Y-135488095D01*
X144250000Y-135440476D01*
X144202380Y-135345238D01*
X144202380Y-135154761D01*
X144250000Y-135059523D01*
X144297619Y-135011904D01*
X144392857Y-134964285D01*
X144440476Y-134964285D01*
X144535714Y-135011904D01*
X144583333Y-135059523D01*
X144630952Y-135154761D01*
X144630952Y-135345238D01*
X144678571Y-135440476D01*
X144726190Y-135488095D01*
X144821428Y-135535714D01*
X145011904Y-135535714D01*
X145107142Y-135488095D01*
X145154761Y-135440476D01*
X145202380Y-135345238D01*
X145202380Y-135154761D01*
X145154761Y-135059523D01*
X145107142Y-135011904D01*
X145011904Y-134964285D01*
X144821428Y-134964285D01*
X144726190Y-135011904D01*
X144678571Y-135059523D01*
X144630952Y-135154761D01*
X119802380Y-142638095D02*
X118802380Y-142638095D01*
X118802380Y-142400000D01*
X118850000Y-142257142D01*
X118945238Y-142161904D01*
X119040476Y-142114285D01*
X119230952Y-142066666D01*
X119373809Y-142066666D01*
X119564285Y-142114285D01*
X119659523Y-142161904D01*
X119754761Y-142257142D01*
X119802380Y-142400000D01*
X119802380Y-142638095D01*
X118802380Y-141733333D02*
X118802380Y-141066666D01*
X119802380Y-141495238D01*
X123302380Y-142638095D02*
X122302380Y-142638095D01*
X122302380Y-142400000D01*
X122350000Y-142257142D01*
X122445238Y-142161904D01*
X122540476Y-142114285D01*
X122730952Y-142066666D01*
X122873809Y-142066666D01*
X123064285Y-142114285D01*
X123159523Y-142161904D01*
X123254761Y-142257142D01*
X123302380Y-142400000D01*
X123302380Y-142638095D01*
X122302380Y-141209523D02*
X122302380Y-141400000D01*
X122350000Y-141495238D01*
X122397619Y-141542857D01*
X122540476Y-141638095D01*
X122730952Y-141685714D01*
X123111904Y-141685714D01*
X123207142Y-141638095D01*
X123254761Y-141590476D01*
X123302380Y-141495238D01*
X123302380Y-141304761D01*
X123254761Y-141209523D01*
X123207142Y-141161904D01*
X123111904Y-141114285D01*
X122873809Y-141114285D01*
X122778571Y-141161904D01*
X122730952Y-141209523D01*
X122683333Y-141304761D01*
X122683333Y-141495238D01*
X122730952Y-141590476D01*
X122778571Y-141638095D01*
X122873809Y-141685714D01*
X126702380Y-142600095D02*
X125702380Y-142600095D01*
X125702380Y-142362000D01*
X125750000Y-142219142D01*
X125845238Y-142123904D01*
X125940476Y-142076285D01*
X126130952Y-142028666D01*
X126273809Y-142028666D01*
X126464285Y-142076285D01*
X126559523Y-142123904D01*
X126654761Y-142219142D01*
X126702380Y-142362000D01*
X126702380Y-142600095D01*
X125702380Y-141123904D02*
X125702380Y-141600095D01*
X126178571Y-141647714D01*
X126130952Y-141600095D01*
X126083333Y-141504857D01*
X126083333Y-141266761D01*
X126130952Y-141171523D01*
X126178571Y-141123904D01*
X126273809Y-141076285D01*
X126511904Y-141076285D01*
X126607142Y-141123904D01*
X126654761Y-141171523D01*
X126702380Y-141266761D01*
X126702380Y-141504857D01*
X126654761Y-141600095D01*
X126607142Y-141647714D01*
X150761904Y-148202380D02*
X150761904Y-147202380D01*
X151000000Y-147202380D01*
X151142857Y-147250000D01*
X151238095Y-147345238D01*
X151285714Y-147440476D01*
X151333333Y-147630952D01*
X151333333Y-147773809D01*
X151285714Y-147964285D01*
X151238095Y-148059523D01*
X151142857Y-148154761D01*
X151000000Y-148202380D01*
X150761904Y-148202380D01*
X152190476Y-147535714D02*
X152190476Y-148202380D01*
X151952380Y-147154761D02*
X151714285Y-147869047D01*
X152333333Y-147869047D01*
X146757142Y-142642857D02*
X146804761Y-142690476D01*
X146852380Y-142833333D01*
X146852380Y-142928571D01*
X146804761Y-143071428D01*
X146709523Y-143166666D01*
X146614285Y-143214285D01*
X146423809Y-143261904D01*
X146280952Y-143261904D01*
X146090476Y-143214285D01*
X145995238Y-143166666D01*
X145900000Y-143071428D01*
X145852380Y-142928571D01*
X145852380Y-142833333D01*
X145900000Y-142690476D01*
X145947619Y-142642857D01*
X145947619Y-142261904D02*
X145900000Y-142214285D01*
X145852380Y-142119047D01*
X145852380Y-141880952D01*
X145900000Y-141785714D01*
X145947619Y-141738095D01*
X146042857Y-141690476D01*
X146138095Y-141690476D01*
X146280952Y-141738095D01*
X146852380Y-142309523D01*
X146852380Y-141690476D01*
X145947619Y-141309523D02*
X145900000Y-141261904D01*
X145852380Y-141166666D01*
X145852380Y-140928571D01*
X145900000Y-140833333D01*
X145947619Y-140785714D01*
X146042857Y-140738095D01*
X146138095Y-140738095D01*
X146280952Y-140785714D01*
X146852380Y-141357142D01*
X146852380Y-140738095D01*
X125857142Y-112107142D02*
X125809523Y-112154761D01*
X125666666Y-112202380D01*
X125571428Y-112202380D01*
X125428571Y-112154761D01*
X125333333Y-112059523D01*
X125285714Y-111964285D01*
X125238095Y-111773809D01*
X125238095Y-111630952D01*
X125285714Y-111440476D01*
X125333333Y-111345238D01*
X125428571Y-111250000D01*
X125571428Y-111202380D01*
X125666666Y-111202380D01*
X125809523Y-111250000D01*
X125857142Y-111297619D01*
X126238095Y-111297619D02*
X126285714Y-111250000D01*
X126380952Y-111202380D01*
X126619047Y-111202380D01*
X126714285Y-111250000D01*
X126761904Y-111297619D01*
X126809523Y-111392857D01*
X126809523Y-111488095D01*
X126761904Y-111630952D01*
X126190476Y-112202380D01*
X126809523Y-112202380D01*
X127761904Y-112202380D02*
X127190476Y-112202380D01*
X127476190Y-112202380D02*
X127476190Y-111202380D01*
X127380952Y-111345238D01*
X127285714Y-111440476D01*
X127190476Y-111488095D01*
D18*
X128678571Y-114178571D02*
X128654761Y-114202380D01*
X128583333Y-114226190D01*
X128535714Y-114226190D01*
X128464285Y-114202380D01*
X128416666Y-114154761D01*
X128392857Y-114107142D01*
X128369047Y-114011904D01*
X128369047Y-113940476D01*
X128392857Y-113845238D01*
X128416666Y-113797619D01*
X128464285Y-113750000D01*
X128535714Y-113726190D01*
X128583333Y-113726190D01*
X128654761Y-113750000D01*
X128678571Y-113773809D01*
X128869047Y-113773809D02*
X128892857Y-113750000D01*
X128940476Y-113726190D01*
X129059523Y-113726190D01*
X129107142Y-113750000D01*
X129130952Y-113773809D01*
X129154761Y-113821428D01*
X129154761Y-113869047D01*
X129130952Y-113940476D01*
X128845238Y-114226190D01*
X129154761Y-114226190D01*
X129464285Y-113726190D02*
X129511904Y-113726190D01*
X129559523Y-113750000D01*
X129583333Y-113773809D01*
X129607142Y-113821428D01*
X129630952Y-113916666D01*
X129630952Y-114035714D01*
X129607142Y-114130952D01*
X129583333Y-114178571D01*
X129559523Y-114202380D01*
X129511904Y-114226190D01*
X129464285Y-114226190D01*
X129416666Y-114202380D01*
X129392857Y-114178571D01*
X129369047Y-114130952D01*
X129345238Y-114035714D01*
X129345238Y-113916666D01*
X129369047Y-113821428D01*
X129392857Y-113773809D01*
X129416666Y-113750000D01*
X129464285Y-113726190D01*
X119928571Y-113928571D02*
X119904761Y-113952380D01*
X119833333Y-113976190D01*
X119785714Y-113976190D01*
X119714285Y-113952380D01*
X119666666Y-113904761D01*
X119642857Y-113857142D01*
X119619047Y-113761904D01*
X119619047Y-113690476D01*
X119642857Y-113595238D01*
X119666666Y-113547619D01*
X119714285Y-113500000D01*
X119785714Y-113476190D01*
X119833333Y-113476190D01*
X119904761Y-113500000D01*
X119928571Y-113523809D01*
X120404761Y-113976190D02*
X120119047Y-113976190D01*
X120261904Y-113976190D02*
X120261904Y-113476190D01*
X120214285Y-113547619D01*
X120166666Y-113595238D01*
X120119047Y-113619047D01*
X120642857Y-113976190D02*
X120738095Y-113976190D01*
X120785714Y-113952380D01*
X120809523Y-113928571D01*
X120857142Y-113857142D01*
X120880952Y-113761904D01*
X120880952Y-113571428D01*
X120857142Y-113523809D01*
X120833333Y-113500000D01*
X120785714Y-113476190D01*
X120690476Y-113476190D01*
X120642857Y-113500000D01*
X120619047Y-113523809D01*
X120595238Y-113571428D01*
X120595238Y-113690476D01*
X120619047Y-113738095D01*
X120642857Y-113761904D01*
X120690476Y-113785714D01*
X120785714Y-113785714D01*
X120833333Y-113761904D01*
X120857142Y-113738095D01*
X120880952Y-113690476D01*
X117428571Y-125571428D02*
X117452380Y-125595238D01*
X117476190Y-125666666D01*
X117476190Y-125714285D01*
X117452380Y-125785714D01*
X117404761Y-125833333D01*
X117357142Y-125857142D01*
X117261904Y-125880952D01*
X117190476Y-125880952D01*
X117095238Y-125857142D01*
X117047619Y-125833333D01*
X117000000Y-125785714D01*
X116976190Y-125714285D01*
X116976190Y-125666666D01*
X117000000Y-125595238D01*
X117023809Y-125571428D01*
X117476190Y-125095238D02*
X117476190Y-125380952D01*
X117476190Y-125238095D02*
X116976190Y-125238095D01*
X117047619Y-125285714D01*
X117095238Y-125333333D01*
X117119047Y-125380952D01*
X117190476Y-124809523D02*
X117166666Y-124857142D01*
X117142857Y-124880952D01*
X117095238Y-124904761D01*
X117071428Y-124904761D01*
X117023809Y-124880952D01*
X117000000Y-124857142D01*
X116976190Y-124809523D01*
X116976190Y-124714285D01*
X117000000Y-124666666D01*
X117023809Y-124642857D01*
X117071428Y-124619047D01*
X117095238Y-124619047D01*
X117142857Y-124642857D01*
X117166666Y-124666666D01*
X117190476Y-124714285D01*
X117190476Y-124809523D01*
X117214285Y-124857142D01*
X117238095Y-124880952D01*
X117285714Y-124904761D01*
X117380952Y-124904761D01*
X117428571Y-124880952D01*
X117452380Y-124857142D01*
X117476190Y-124809523D01*
X117476190Y-124714285D01*
X117452380Y-124666666D01*
X117428571Y-124642857D01*
X117380952Y-124619047D01*
X117285714Y-124619047D01*
X117238095Y-124642857D01*
X117214285Y-124666666D01*
X117190476Y-124714285D01*
D14*
X117807142Y-107392857D02*
X117854761Y-107440476D01*
X117902380Y-107583333D01*
X117902380Y-107678571D01*
X117854761Y-107821428D01*
X117759523Y-107916666D01*
X117664285Y-107964285D01*
X117473809Y-108011904D01*
X117330952Y-108011904D01*
X117140476Y-107964285D01*
X117045238Y-107916666D01*
X116950000Y-107821428D01*
X116902380Y-107678571D01*
X116902380Y-107583333D01*
X116950000Y-107440476D01*
X116997619Y-107392857D01*
X117902380Y-106440476D02*
X117902380Y-107011904D01*
X117902380Y-106726190D02*
X116902380Y-106726190D01*
X117045238Y-106821428D01*
X117140476Y-106916666D01*
X117188095Y-107011904D01*
X116902380Y-106107142D02*
X116902380Y-105440476D01*
X117902380Y-105869047D01*
X117807142Y-103642857D02*
X117854761Y-103690476D01*
X117902380Y-103833333D01*
X117902380Y-103928571D01*
X117854761Y-104071428D01*
X117759523Y-104166666D01*
X117664285Y-104214285D01*
X117473809Y-104261904D01*
X117330952Y-104261904D01*
X117140476Y-104214285D01*
X117045238Y-104166666D01*
X116950000Y-104071428D01*
X116902380Y-103928571D01*
X116902380Y-103833333D01*
X116950000Y-103690476D01*
X116997619Y-103642857D01*
X117902380Y-102690476D02*
X117902380Y-103261904D01*
X117902380Y-102976190D02*
X116902380Y-102976190D01*
X117045238Y-103071428D01*
X117140476Y-103166666D01*
X117188095Y-103261904D01*
X116902380Y-101833333D02*
X116902380Y-102023809D01*
X116950000Y-102119047D01*
X116997619Y-102166666D01*
X117140476Y-102261904D01*
X117330952Y-102309523D01*
X117711904Y-102309523D01*
X117807142Y-102261904D01*
X117854761Y-102214285D01*
X117902380Y-102119047D01*
X117902380Y-101928571D01*
X117854761Y-101833333D01*
X117807142Y-101785714D01*
X117711904Y-101738095D01*
X117473809Y-101738095D01*
X117378571Y-101785714D01*
X117330952Y-101833333D01*
X117283333Y-101928571D01*
X117283333Y-102119047D01*
X117330952Y-102214285D01*
X117378571Y-102261904D01*
X117473809Y-102309523D01*
X121457142Y-103692857D02*
X121504761Y-103740476D01*
X121552380Y-103883333D01*
X121552380Y-103978571D01*
X121504761Y-104121428D01*
X121409523Y-104216666D01*
X121314285Y-104264285D01*
X121123809Y-104311904D01*
X120980952Y-104311904D01*
X120790476Y-104264285D01*
X120695238Y-104216666D01*
X120600000Y-104121428D01*
X120552380Y-103978571D01*
X120552380Y-103883333D01*
X120600000Y-103740476D01*
X120647619Y-103692857D01*
X121552380Y-102740476D02*
X121552380Y-103311904D01*
X121552380Y-103026190D02*
X120552380Y-103026190D01*
X120695238Y-103121428D01*
X120790476Y-103216666D01*
X120838095Y-103311904D01*
X120552380Y-101835714D02*
X120552380Y-102311904D01*
X121028571Y-102359523D01*
X120980952Y-102311904D01*
X120933333Y-102216666D01*
X120933333Y-101978571D01*
X120980952Y-101883333D01*
X121028571Y-101835714D01*
X121123809Y-101788095D01*
X121361904Y-101788095D01*
X121457142Y-101835714D01*
X121504761Y-101883333D01*
X121552380Y-101978571D01*
X121552380Y-102216666D01*
X121504761Y-102311904D01*
X121457142Y-102359523D01*
X137107142Y-108107142D02*
X137059523Y-108154761D01*
X136916666Y-108202380D01*
X136821428Y-108202380D01*
X136678571Y-108154761D01*
X136583333Y-108059523D01*
X136535714Y-107964285D01*
X136488095Y-107773809D01*
X136488095Y-107630952D01*
X136535714Y-107440476D01*
X136583333Y-107345238D01*
X136678571Y-107250000D01*
X136821428Y-107202380D01*
X136916666Y-107202380D01*
X137059523Y-107250000D01*
X137107142Y-107297619D01*
X138059523Y-108202380D02*
X137488095Y-108202380D01*
X137773809Y-108202380D02*
X137773809Y-107202380D01*
X137678571Y-107345238D01*
X137583333Y-107440476D01*
X137488095Y-107488095D01*
X138916666Y-107535714D02*
X138916666Y-108202380D01*
X138678571Y-107154761D02*
X138440476Y-107869047D01*
X139059523Y-107869047D01*
X139357142Y-104142857D02*
X139404761Y-104190476D01*
X139452380Y-104333333D01*
X139452380Y-104428571D01*
X139404761Y-104571428D01*
X139309523Y-104666666D01*
X139214285Y-104714285D01*
X139023809Y-104761904D01*
X138880952Y-104761904D01*
X138690476Y-104714285D01*
X138595238Y-104666666D01*
X138500000Y-104571428D01*
X138452380Y-104428571D01*
X138452380Y-104333333D01*
X138500000Y-104190476D01*
X138547619Y-104142857D01*
X139452380Y-103190476D02*
X139452380Y-103761904D01*
X139452380Y-103476190D02*
X138452380Y-103476190D01*
X138595238Y-103571428D01*
X138690476Y-103666666D01*
X138738095Y-103761904D01*
X138452380Y-102857142D02*
X138452380Y-102238095D01*
X138833333Y-102571428D01*
X138833333Y-102428571D01*
X138880952Y-102333333D01*
X138928571Y-102285714D01*
X139023809Y-102238095D01*
X139261904Y-102238095D01*
X139357142Y-102285714D01*
X139404761Y-102333333D01*
X139452380Y-102428571D01*
X139452380Y-102714285D01*
X139404761Y-102809523D01*
X139357142Y-102857142D01*
X131217142Y-117842857D02*
X131264761Y-117890476D01*
X131312380Y-118033333D01*
X131312380Y-118128571D01*
X131264761Y-118271428D01*
X131169523Y-118366666D01*
X131074285Y-118414285D01*
X130883809Y-118461904D01*
X130740952Y-118461904D01*
X130550476Y-118414285D01*
X130455238Y-118366666D01*
X130360000Y-118271428D01*
X130312380Y-118128571D01*
X130312380Y-118033333D01*
X130360000Y-117890476D01*
X130407619Y-117842857D01*
X131312380Y-116890476D02*
X131312380Y-117461904D01*
X131312380Y-117176190D02*
X130312380Y-117176190D01*
X130455238Y-117271428D01*
X130550476Y-117366666D01*
X130598095Y-117461904D01*
X130407619Y-116509523D02*
X130360000Y-116461904D01*
X130312380Y-116366666D01*
X130312380Y-116128571D01*
X130360000Y-116033333D01*
X130407619Y-115985714D01*
X130502857Y-115938095D01*
X130598095Y-115938095D01*
X130740952Y-115985714D01*
X131312380Y-116557142D01*
X131312380Y-115938095D01*
X131107142Y-134357142D02*
X131059523Y-134404761D01*
X130916666Y-134452380D01*
X130821428Y-134452380D01*
X130678571Y-134404761D01*
X130583333Y-134309523D01*
X130535714Y-134214285D01*
X130488095Y-134023809D01*
X130488095Y-133880952D01*
X130535714Y-133690476D01*
X130583333Y-133595238D01*
X130678571Y-133500000D01*
X130821428Y-133452380D01*
X130916666Y-133452380D01*
X131059523Y-133500000D01*
X131107142Y-133547619D01*
X132059523Y-134452380D02*
X131488095Y-134452380D01*
X131773809Y-134452380D02*
X131773809Y-133452380D01*
X131678571Y-133595238D01*
X131583333Y-133690476D01*
X131488095Y-133738095D01*
X133011904Y-134452380D02*
X132440476Y-134452380D01*
X132726190Y-134452380D02*
X132726190Y-133452380D01*
X132630952Y-133595238D01*
X132535714Y-133690476D01*
X132440476Y-133738095D01*
X120307142Y-134357142D02*
X120259523Y-134404761D01*
X120116666Y-134452380D01*
X120021428Y-134452380D01*
X119878571Y-134404761D01*
X119783333Y-134309523D01*
X119735714Y-134214285D01*
X119688095Y-134023809D01*
X119688095Y-133880952D01*
X119735714Y-133690476D01*
X119783333Y-133595238D01*
X119878571Y-133500000D01*
X120021428Y-133452380D01*
X120116666Y-133452380D01*
X120259523Y-133500000D01*
X120307142Y-133547619D01*
X121259523Y-134452380D02*
X120688095Y-134452380D01*
X120973809Y-134452380D02*
X120973809Y-133452380D01*
X120878571Y-133595238D01*
X120783333Y-133690476D01*
X120688095Y-133738095D01*
X121878571Y-133452380D02*
X121973809Y-133452380D01*
X122069047Y-133500000D01*
X122116666Y-133547619D01*
X122164285Y-133642857D01*
X122211904Y-133833333D01*
X122211904Y-134071428D01*
X122164285Y-134261904D01*
X122116666Y-134357142D01*
X122069047Y-134404761D01*
X121973809Y-134452380D01*
X121878571Y-134452380D01*
X121783333Y-134404761D01*
X121735714Y-134357142D01*
X121688095Y-134261904D01*
X121640476Y-134071428D01*
X121640476Y-133833333D01*
X121688095Y-133642857D01*
X121735714Y-133547619D01*
X121783333Y-133500000D01*
X121878571Y-133452380D01*
X143333333Y-107857142D02*
X143285714Y-107904761D01*
X143142857Y-107952380D01*
X143047619Y-107952380D01*
X142904761Y-107904761D01*
X142809523Y-107809523D01*
X142761904Y-107714285D01*
X142714285Y-107523809D01*
X142714285Y-107380952D01*
X142761904Y-107190476D01*
X142809523Y-107095238D01*
X142904761Y-107000000D01*
X143047619Y-106952380D01*
X143142857Y-106952380D01*
X143285714Y-107000000D01*
X143333333Y-107047619D01*
X144238095Y-106952380D02*
X143761904Y-106952380D01*
X143714285Y-107428571D01*
X143761904Y-107380952D01*
X143857142Y-107333333D01*
X144095238Y-107333333D01*
X144190476Y-107380952D01*
X144238095Y-107428571D01*
X144285714Y-107523809D01*
X144285714Y-107761904D01*
X144238095Y-107857142D01*
X144190476Y-107904761D01*
X144095238Y-107952380D01*
X143857142Y-107952380D01*
X143761904Y-107904761D01*
X143714285Y-107857142D01*
X143333333Y-112107142D02*
X143285714Y-112154761D01*
X143142857Y-112202380D01*
X143047619Y-112202380D01*
X142904761Y-112154761D01*
X142809523Y-112059523D01*
X142761904Y-111964285D01*
X142714285Y-111773809D01*
X142714285Y-111630952D01*
X142761904Y-111440476D01*
X142809523Y-111345238D01*
X142904761Y-111250000D01*
X143047619Y-111202380D01*
X143142857Y-111202380D01*
X143285714Y-111250000D01*
X143333333Y-111297619D01*
X144190476Y-111535714D02*
X144190476Y-112202380D01*
X143952380Y-111154761D02*
X143714285Y-111869047D01*
X144333333Y-111869047D01*
X135357142Y-134257142D02*
X135309523Y-134304761D01*
X135166666Y-134352380D01*
X135071428Y-134352380D01*
X134928571Y-134304761D01*
X134833333Y-134209523D01*
X134785714Y-134114285D01*
X134738095Y-133923809D01*
X134738095Y-133780952D01*
X134785714Y-133590476D01*
X134833333Y-133495238D01*
X134928571Y-133400000D01*
X135071428Y-133352380D01*
X135166666Y-133352380D01*
X135309523Y-133400000D01*
X135357142Y-133447619D01*
X135738095Y-133447619D02*
X135785714Y-133400000D01*
X135880952Y-133352380D01*
X136119047Y-133352380D01*
X136214285Y-133400000D01*
X136261904Y-133447619D01*
X136309523Y-133542857D01*
X136309523Y-133638095D01*
X136261904Y-133780952D01*
X135690476Y-134352380D01*
X136309523Y-134352380D01*
X136642857Y-133352380D02*
X137261904Y-133352380D01*
X136928571Y-133733333D01*
X137071428Y-133733333D01*
X137166666Y-133780952D01*
X137214285Y-133828571D01*
X137261904Y-133923809D01*
X137261904Y-134161904D01*
X137214285Y-134257142D01*
X137166666Y-134304761D01*
X137071428Y-134352380D01*
X136785714Y-134352380D01*
X136690476Y-134304761D01*
X136642857Y-134257142D01*
M02*
