M48
INCH,TZ
T1C0.0118
T2C0.0157
T3C0.0315
T4C0.0354
T5C0.0394
T6C0.0400
%
G90
G05
T1
X41339Y-42323
X41339Y-54134
X41339Y-55118
X41339Y-56102
X41339Y-57087
X41339Y-58071
X42323Y-42323
X42323Y-54134
X42323Y-55118
X42323Y-56102
X42323Y-57087
X42323Y-58071
X43307Y-40354
X43307Y-41339
X43307Y-42323
X43307Y-57087
X43307Y-58071
X43307Y-59055
X43307Y-60039
X44291Y-40354
X44291Y-57087
X44291Y-58071
X44291Y-59055
X44291Y-60039
X45079Y-54606
X45276Y-40354
X45276Y-59055
X45276Y-60039
X46260Y-40354
X46260Y-59055
X46260Y-60039
X46662Y-51029
X46772Y-47402
X47244Y-59055
X47244Y-60039
X47638Y-53701
X47978Y-49762
X48228Y-59055
X48228Y-60039
X48358Y-50004
X48725Y-48574
X48987Y-48156
X49016Y-53701
X49213Y-59055
X49213Y-60039
X49745Y-47152
X49764Y-49843
X50000Y-53701
X50126Y-49833
X50197Y-59055
X50197Y-60039
X50709Y-52992
X50833Y-49516
X51286Y-48483
X51442Y-47399
X51769Y-49857
X52074Y-48081
X52441Y-52992
X53701Y-45354
X53934Y-51044
X54007Y-49500
X54681Y-53377
X56102Y-40354
X56102Y-41339
X57087Y-40354
X57087Y-41339
X58071Y-40354
X58071Y-41339
X58071Y-59055
X58071Y-60039
X59055Y-40354
X59055Y-41339
X59055Y-42323
X59055Y-43307
X59055Y-59055
X59055Y-60039
X60039Y-40354
X60039Y-41339
X60039Y-42323
X60039Y-43307
X60039Y-44291
X60039Y-45276
X60039Y-46260
X60039Y-47244
X60039Y-48228
X60039Y-49213
X60039Y-50197
X60039Y-51181
X60039Y-52165
X60039Y-59055
X60039Y-60039
X61024Y-42323
X61024Y-45276
X61024Y-49213
X61024Y-50197
X61024Y-52165
X61024Y-55118
X61024Y-56102
X61024Y-57087
X61024Y-58071
X62008Y-42323
X62008Y-45276
X62008Y-49213
X62008Y-50197
X62008Y-52165
X62008Y-53150
X62008Y-54134
X62008Y-55118
X62008Y-56102
X62008Y-57087
X62008Y-58071
T2
X48278Y-45236
T3
X58602Y-55512
X58602Y-56299
T4
X57917Y-44425
X57917Y-45425
X58917Y-44925
X58917Y-45925
X57917Y-48953
X57917Y-49953
X58917Y-49453
X58917Y-50453
T5
X51161Y-43524
X54921Y-51969
X54921Y-50472
X54094Y-43535
X52638Y-43524
X41969Y-51850
X41969Y-52850
X54921Y-48976
T6
X42110Y-44130
X42110Y-45130
X42110Y-46130
X42110Y-47130
X42110Y-48130
X43110Y-44130
X43110Y-45130
X43110Y-46130
X43110Y-47130
X43110Y-48130
T0
M30
