M48
INCH,TZ
T1C0.0118
T2C0.0157
T3C0.0315
T4C0.0354
T5C0.0394
T6C0.0400
%
G90
G05
T1
X41339Y-42520
X41339Y-54134
X41339Y-55118
X41339Y-56102
X41339Y-57087
X41339Y-58071
X42323Y-42520
X42323Y-54134
X42323Y-55118
X42323Y-56102
X42323Y-57087
X42323Y-58071
X43307Y-42323
X43307Y-57087
X43307Y-58071
X43307Y-59055
X43307Y-60039
X43701Y-40354
X43799Y-41339
X44291Y-40354
X44291Y-57087
X44291Y-58071
X44291Y-59055
X44291Y-60039
X44783Y-45768
X44783Y-46457
X45079Y-54409
X45276Y-40354
X45276Y-41339
X45276Y-42421
X45276Y-43209
X45276Y-43996
X45276Y-59055
X45276Y-60039
X46260Y-40354
X46260Y-41339
X46260Y-42421
X46260Y-43209
X46260Y-43996
X46260Y-59055
X46260Y-60039
X46662Y-51029
X46752Y-48720
X46772Y-47402
X47146Y-43209
X47146Y-43996
X47244Y-59055
X47244Y-60039
X47343Y-51476
X47638Y-53307
X47978Y-49762
X48228Y-59055
X48228Y-60039
X48327Y-46555
X48327Y-47146
X48327Y-47736
X48327Y-48327
X48358Y-50004
X48425Y-51476
X48622Y-52657
X48725Y-48574
X48987Y-48156
X49016Y-53307
X49213Y-40157
X49213Y-42421
X49213Y-50689
X49213Y-59055
X49213Y-60039
X49409Y-43898
X49508Y-52657
X49745Y-47152
X49764Y-49843
X49803Y-40157
X49803Y-42421
X50000Y-53307
X50126Y-49833
X50197Y-59055
X50197Y-60039
X50394Y-40157
X50394Y-42421
X50709Y-52992
X50787Y-44587
X50833Y-49516
X50984Y-40157
X50984Y-42421
X51083Y-51476
X51286Y-48483
X51378Y-53445
X51442Y-47399
X51476Y-46752
X51769Y-49857
X51870Y-53445
X52067Y-44685
X52074Y-48081
X52165Y-51476
X52165Y-59055
X52165Y-60039
X52441Y-52992
X52559Y-48327
X52559Y-49606
X52756Y-53445
X52756Y-54724
X52953Y-44685
X53150Y-59055
X53150Y-60039
X53445Y-48327
X53701Y-45354
X53839Y-44685
X53934Y-51044
X54007Y-49500
X54134Y-59055
X54134Y-60039
X54681Y-53377
X54724Y-44685
X55020Y-45669
X55118Y-59055
X55118Y-60039
X55610Y-44685
X55610Y-46654
X55610Y-47736
X56102Y-40354
X56102Y-41339
X56102Y-59055
X56102Y-60039
X56496Y-48425
X57087Y-40354
X57087Y-41339
X58071Y-40354
X58071Y-41339
X58071Y-59055
X58071Y-60039
X59055Y-40354
X59055Y-41339
X59055Y-42323
X59055Y-43307
X59055Y-59055
X59055Y-60039
X60039Y-40354
X60039Y-41339
X60039Y-42323
X60039Y-43307
X60039Y-44291
X60039Y-45276
X60039Y-46260
X60039Y-47244
X60039Y-48228
X60039Y-49213
X60039Y-50197
X60039Y-51181
X60039Y-52165
X60039Y-59055
X60039Y-60039
X61024Y-42323
X61024Y-45276
X61024Y-49213
X61024Y-50197
X61024Y-52165
X61024Y-55118
X61024Y-56102
X61024Y-57087
X61024Y-58071
X62008Y-42323
X62008Y-45276
X62008Y-49213
X62008Y-50197
X62008Y-52165
X62008Y-53150
X62008Y-54134
X62008Y-55118
X62008Y-56102
X62008Y-57087
X62008Y-58071
T2
X48278Y-45236
T3
X58602Y-55512
X58602Y-56299
T4
X57917Y-48953
X57917Y-49953
X58917Y-49453
X58917Y-50453
X57917Y-44425
X57917Y-45425
X58917Y-44925
X58917Y-45925
T5
X54094Y-43535
X48622Y-57874
X54921Y-50472
X54921Y-48976
X52638Y-43524
X45472Y-57874
X51161Y-43524
X41969Y-51850
X41969Y-52850
X50197Y-57874
X47047Y-57874
X54921Y-51969
T6
X42110Y-44130
X42110Y-45130
X42110Y-46130
X42110Y-47130
X42110Y-48130
X43110Y-44130
X43110Y-45130
X43110Y-46130
X43110Y-47130
X43110Y-48130
T0
M30
