G04 #@! TF.GenerationSoftware,KiCad,Pcbnew,(5.0.2)-1*
G04 #@! TF.CreationDate,2019-05-12T17:51:48+02:00*
G04 #@! TF.ProjectId,MotorDriver,4d6f746f-7244-4726-9976-65722e6b6963,rev?*
G04 #@! TF.SameCoordinates,Original*
G04 #@! TF.FileFunction,Soldermask,Bot*
G04 #@! TF.FilePolarity,Negative*
%FSLAX46Y46*%
G04 Gerber Fmt 4.6, Leading zero omitted, Abs format (unit mm)*
G04 Created by KiCad (PCBNEW (5.0.2)-1) date 12.05.2019 17:51:48*
%MOMM*%
%LPD*%
G01*
G04 APERTURE LIST*
%ADD10C,0.100000*%
G04 APERTURE END LIST*
D10*
G36*
X160120856Y-137442272D02*
X160321045Y-137525193D01*
X160501207Y-137645573D01*
X160654427Y-137798793D01*
X160774807Y-137978955D01*
X160857728Y-138179144D01*
X160900000Y-138391657D01*
X160900000Y-138608343D01*
X160857728Y-138820856D01*
X160774807Y-139021045D01*
X160654427Y-139201207D01*
X160501207Y-139354427D01*
X160321045Y-139474807D01*
X160120856Y-139557728D01*
X159908343Y-139600000D01*
X159691657Y-139600000D01*
X159479144Y-139557728D01*
X159278955Y-139474807D01*
X159098793Y-139354427D01*
X158945573Y-139201207D01*
X158825193Y-139021045D01*
X158742272Y-138820856D01*
X158700000Y-138608343D01*
X158700000Y-138391657D01*
X158742272Y-138179144D01*
X158825193Y-137978955D01*
X158945573Y-137798793D01*
X159098793Y-137645573D01*
X159278955Y-137525193D01*
X159479144Y-137442272D01*
X159691657Y-137400000D01*
X159908343Y-137400000D01*
X160120856Y-137442272D01*
X160120856Y-137442272D01*
G37*
G36*
X152648452Y-136086359D02*
X152688899Y-136090343D01*
X152773449Y-136115991D01*
X152870537Y-136145442D01*
X153037939Y-136234920D01*
X153184665Y-136355335D01*
X153305080Y-136502061D01*
X153394558Y-136669463D01*
X153424009Y-136766551D01*
X153449657Y-136851101D01*
X153449657Y-136851103D01*
X153468263Y-137040000D01*
X153458938Y-137134669D01*
X153449657Y-137228899D01*
X153424009Y-137313449D01*
X153394558Y-137410537D01*
X153305080Y-137577939D01*
X153184665Y-137724665D01*
X153037939Y-137845080D01*
X152870537Y-137934558D01*
X152773449Y-137964009D01*
X152688899Y-137989657D01*
X152648452Y-137993641D01*
X152547339Y-138003600D01*
X152452661Y-138003600D01*
X152351548Y-137993641D01*
X152311101Y-137989657D01*
X152226551Y-137964009D01*
X152129463Y-137934558D01*
X151962061Y-137845080D01*
X151815335Y-137724665D01*
X151694920Y-137577939D01*
X151605442Y-137410537D01*
X151575991Y-137313449D01*
X151550343Y-137228899D01*
X151541062Y-137134669D01*
X151531737Y-137040000D01*
X151550343Y-136851103D01*
X151550343Y-136851101D01*
X151575991Y-136766551D01*
X151605442Y-136669463D01*
X151694920Y-136502061D01*
X151815335Y-136355335D01*
X151962061Y-136234920D01*
X152129463Y-136145442D01*
X152226551Y-136115991D01*
X152311101Y-136090343D01*
X152351548Y-136086359D01*
X152452661Y-136076400D01*
X152547339Y-136076400D01*
X152648452Y-136086359D01*
X152648452Y-136086359D01*
G37*
G36*
X147568452Y-136086359D02*
X147608899Y-136090343D01*
X147693449Y-136115991D01*
X147790537Y-136145442D01*
X147957939Y-136234920D01*
X148104665Y-136355335D01*
X148225080Y-136502061D01*
X148314558Y-136669463D01*
X148344009Y-136766551D01*
X148369657Y-136851101D01*
X148369657Y-136851103D01*
X148388263Y-137040000D01*
X148378938Y-137134669D01*
X148369657Y-137228899D01*
X148344009Y-137313449D01*
X148314558Y-137410537D01*
X148225080Y-137577939D01*
X148104665Y-137724665D01*
X147957939Y-137845080D01*
X147790537Y-137934558D01*
X147693449Y-137964009D01*
X147608899Y-137989657D01*
X147568452Y-137993641D01*
X147467339Y-138003600D01*
X147372661Y-138003600D01*
X147271548Y-137993641D01*
X147231101Y-137989657D01*
X147146551Y-137964009D01*
X147049463Y-137934558D01*
X146882061Y-137845080D01*
X146735335Y-137724665D01*
X146614920Y-137577939D01*
X146525442Y-137410537D01*
X146495991Y-137313449D01*
X146470343Y-137228899D01*
X146461062Y-137134669D01*
X146451737Y-137040000D01*
X146470343Y-136851103D01*
X146470343Y-136851101D01*
X146495991Y-136766551D01*
X146525442Y-136669463D01*
X146614920Y-136502061D01*
X146735335Y-136355335D01*
X146882061Y-136234920D01*
X147049463Y-136145442D01*
X147146551Y-136115991D01*
X147231101Y-136090343D01*
X147271548Y-136086359D01*
X147372661Y-136076400D01*
X147467339Y-136076400D01*
X147568452Y-136086359D01*
X147568452Y-136086359D01*
G37*
G36*
X150108452Y-136086359D02*
X150148899Y-136090343D01*
X150233449Y-136115991D01*
X150330537Y-136145442D01*
X150497939Y-136234920D01*
X150644665Y-136355335D01*
X150765080Y-136502061D01*
X150854558Y-136669463D01*
X150884009Y-136766551D01*
X150909657Y-136851101D01*
X150909657Y-136851103D01*
X150928263Y-137040000D01*
X150918938Y-137134669D01*
X150909657Y-137228899D01*
X150884009Y-137313449D01*
X150854558Y-137410537D01*
X150765080Y-137577939D01*
X150644665Y-137724665D01*
X150497939Y-137845080D01*
X150330537Y-137934558D01*
X150233449Y-137964009D01*
X150148899Y-137989657D01*
X150108452Y-137993641D01*
X150007339Y-138003600D01*
X149912661Y-138003600D01*
X149811548Y-137993641D01*
X149771101Y-137989657D01*
X149686551Y-137964009D01*
X149589463Y-137934558D01*
X149422061Y-137845080D01*
X149275335Y-137724665D01*
X149154920Y-137577939D01*
X149065442Y-137410537D01*
X149035991Y-137313449D01*
X149010343Y-137228899D01*
X149001062Y-137134669D01*
X148991737Y-137040000D01*
X149010343Y-136851103D01*
X149010343Y-136851101D01*
X149035991Y-136766551D01*
X149065442Y-136669463D01*
X149154920Y-136502061D01*
X149275335Y-136355335D01*
X149422061Y-136234920D01*
X149589463Y-136145442D01*
X149686551Y-136115991D01*
X149771101Y-136090343D01*
X149811548Y-136086359D01*
X149912661Y-136076400D01*
X150007339Y-136076400D01*
X150108452Y-136086359D01*
X150108452Y-136086359D01*
G37*
G36*
X165495872Y-133865330D02*
X165495874Y-133865331D01*
X165495875Y-133865331D01*
X165555177Y-133889895D01*
X165805252Y-133993479D01*
X166083687Y-134179523D01*
X166320477Y-134416313D01*
X166506521Y-134694748D01*
X166579335Y-134870537D01*
X166629505Y-134991657D01*
X166634670Y-135004128D01*
X166700000Y-135332565D01*
X166700000Y-135667435D01*
X166634670Y-135995872D01*
X166506521Y-136305252D01*
X166320477Y-136583687D01*
X166083687Y-136820477D01*
X165805252Y-137006521D01*
X165556284Y-137109647D01*
X165495875Y-137134669D01*
X165495874Y-137134669D01*
X165495872Y-137134670D01*
X165167435Y-137200000D01*
X164832565Y-137200000D01*
X164504128Y-137134670D01*
X164504126Y-137134669D01*
X164504125Y-137134669D01*
X164443716Y-137109647D01*
X164194748Y-137006521D01*
X163916313Y-136820477D01*
X163679523Y-136583687D01*
X163493479Y-136305252D01*
X163365330Y-135995872D01*
X163300000Y-135667435D01*
X163300000Y-135332565D01*
X163365330Y-135004128D01*
X163370496Y-134991657D01*
X163420665Y-134870537D01*
X163493479Y-134694748D01*
X163679523Y-134416313D01*
X163916313Y-134179523D01*
X164194748Y-133993479D01*
X164444823Y-133889895D01*
X164504125Y-133865331D01*
X164504126Y-133865331D01*
X164504128Y-133865330D01*
X164832565Y-133800000D01*
X165167435Y-133800000D01*
X165495872Y-133865330D01*
X165495872Y-133865330D01*
G37*
G36*
X105495872Y-133865330D02*
X105495874Y-133865331D01*
X105495875Y-133865331D01*
X105555177Y-133889895D01*
X105805252Y-133993479D01*
X106083687Y-134179523D01*
X106320477Y-134416313D01*
X106506521Y-134694748D01*
X106579335Y-134870537D01*
X106629505Y-134991657D01*
X106634670Y-135004128D01*
X106700000Y-135332565D01*
X106700000Y-135667435D01*
X106634670Y-135995872D01*
X106506521Y-136305252D01*
X106320477Y-136583687D01*
X106083687Y-136820477D01*
X105805252Y-137006521D01*
X105556284Y-137109647D01*
X105495875Y-137134669D01*
X105495874Y-137134669D01*
X105495872Y-137134670D01*
X105167435Y-137200000D01*
X104832565Y-137200000D01*
X104504128Y-137134670D01*
X104504126Y-137134669D01*
X104504125Y-137134669D01*
X104443716Y-137109647D01*
X104194748Y-137006521D01*
X103916313Y-136820477D01*
X103679523Y-136583687D01*
X103493479Y-136305252D01*
X103365330Y-135995872D01*
X103300000Y-135667435D01*
X103300000Y-135332565D01*
X103365330Y-135004128D01*
X103370496Y-134991657D01*
X103420665Y-134870537D01*
X103493479Y-134694748D01*
X103679523Y-134416313D01*
X103916313Y-134179523D01*
X104194748Y-133993479D01*
X104444823Y-133889895D01*
X104504125Y-133865331D01*
X104504126Y-133865331D01*
X104504128Y-133865330D01*
X104832565Y-133800000D01*
X105167435Y-133800000D01*
X105495872Y-133865330D01*
X105495872Y-133865330D01*
G37*
G36*
X160120856Y-134042272D02*
X160321045Y-134125193D01*
X160501207Y-134245573D01*
X160654427Y-134398793D01*
X160774807Y-134578955D01*
X160857728Y-134779144D01*
X160900000Y-134991657D01*
X160900000Y-135208343D01*
X160857728Y-135420856D01*
X160774807Y-135621045D01*
X160654427Y-135801207D01*
X160501207Y-135954427D01*
X160321045Y-136074807D01*
X160120856Y-136157728D01*
X159908343Y-136200000D01*
X159691657Y-136200000D01*
X159479144Y-136157728D01*
X159278955Y-136074807D01*
X159098793Y-135954427D01*
X158945573Y-135801207D01*
X158825193Y-135621045D01*
X158742272Y-135420856D01*
X158700000Y-135208343D01*
X158700000Y-134991657D01*
X158742272Y-134779144D01*
X158825193Y-134578955D01*
X158945573Y-134398793D01*
X159098793Y-134245573D01*
X159278955Y-134125193D01*
X159479144Y-134042272D01*
X159691657Y-134000000D01*
X159908343Y-134000000D01*
X160120856Y-134042272D01*
X160120856Y-134042272D01*
G37*
G36*
X114380856Y-133842272D02*
X114581045Y-133925193D01*
X114761207Y-134045573D01*
X114914427Y-134198793D01*
X115034807Y-134378955D01*
X115117728Y-134579144D01*
X115160000Y-134791657D01*
X115160000Y-135008343D01*
X115117728Y-135220856D01*
X115034807Y-135421045D01*
X114914427Y-135601207D01*
X114761207Y-135754427D01*
X114581045Y-135874807D01*
X114380856Y-135957728D01*
X114168343Y-136000000D01*
X113951657Y-136000000D01*
X113739144Y-135957728D01*
X113538955Y-135874807D01*
X113358793Y-135754427D01*
X113205573Y-135601207D01*
X113085193Y-135421045D01*
X113002272Y-135220856D01*
X112960000Y-135008343D01*
X112960000Y-134791657D01*
X113002272Y-134579144D01*
X113085193Y-134378955D01*
X113205573Y-134198793D01*
X113358793Y-134045573D01*
X113538955Y-133925193D01*
X113739144Y-133842272D01*
X113951657Y-133800000D01*
X114168343Y-133800000D01*
X114380856Y-133842272D01*
X114380856Y-133842272D01*
G37*
G36*
X147568452Y-133546359D02*
X147608899Y-133550343D01*
X147693449Y-133575991D01*
X147790537Y-133605442D01*
X147957939Y-133694920D01*
X148104665Y-133815335D01*
X148225080Y-133962061D01*
X148314558Y-134129463D01*
X148338596Y-134208708D01*
X148369657Y-134311101D01*
X148369657Y-134311103D01*
X148388263Y-134500000D01*
X148380467Y-134579144D01*
X148369657Y-134688899D01*
X148344009Y-134773449D01*
X148314558Y-134870537D01*
X148225080Y-135037939D01*
X148104665Y-135184665D01*
X147957939Y-135305080D01*
X147790537Y-135394558D01*
X147693449Y-135424009D01*
X147608899Y-135449657D01*
X147568452Y-135453641D01*
X147467339Y-135463600D01*
X147372661Y-135463600D01*
X147271548Y-135453641D01*
X147231101Y-135449657D01*
X147146551Y-135424009D01*
X147049463Y-135394558D01*
X146882061Y-135305080D01*
X146735335Y-135184665D01*
X146614920Y-135037939D01*
X146525442Y-134870537D01*
X146495991Y-134773449D01*
X146470343Y-134688899D01*
X146459533Y-134579144D01*
X146451737Y-134500000D01*
X146470343Y-134311103D01*
X146470343Y-134311101D01*
X146501404Y-134208708D01*
X146525442Y-134129463D01*
X146614920Y-133962061D01*
X146735335Y-133815335D01*
X146882061Y-133694920D01*
X147049463Y-133605442D01*
X147146551Y-133575991D01*
X147231101Y-133550343D01*
X147271548Y-133546359D01*
X147372661Y-133536400D01*
X147467339Y-133536400D01*
X147568452Y-133546359D01*
X147568452Y-133546359D01*
G37*
G36*
X150108452Y-133546359D02*
X150148899Y-133550343D01*
X150233449Y-133575991D01*
X150330537Y-133605442D01*
X150497939Y-133694920D01*
X150644665Y-133815335D01*
X150765080Y-133962061D01*
X150854558Y-134129463D01*
X150878596Y-134208708D01*
X150909657Y-134311101D01*
X150909657Y-134311103D01*
X150928263Y-134500000D01*
X150920467Y-134579144D01*
X150909657Y-134688899D01*
X150884009Y-134773449D01*
X150854558Y-134870537D01*
X150765080Y-135037939D01*
X150644665Y-135184665D01*
X150497939Y-135305080D01*
X150330537Y-135394558D01*
X150233449Y-135424009D01*
X150148899Y-135449657D01*
X150108452Y-135453641D01*
X150007339Y-135463600D01*
X149912661Y-135463600D01*
X149811548Y-135453641D01*
X149771101Y-135449657D01*
X149686551Y-135424009D01*
X149589463Y-135394558D01*
X149422061Y-135305080D01*
X149275335Y-135184665D01*
X149154920Y-135037939D01*
X149065442Y-134870537D01*
X149035991Y-134773449D01*
X149010343Y-134688899D01*
X148999533Y-134579144D01*
X148991737Y-134500000D01*
X149010343Y-134311103D01*
X149010343Y-134311101D01*
X149041404Y-134208708D01*
X149065442Y-134129463D01*
X149154920Y-133962061D01*
X149275335Y-133815335D01*
X149422061Y-133694920D01*
X149589463Y-133605442D01*
X149686551Y-133575991D01*
X149771101Y-133550343D01*
X149811548Y-133546359D01*
X149912661Y-133536400D01*
X150007339Y-133536400D01*
X150108452Y-133546359D01*
X150108452Y-133546359D01*
G37*
G36*
X153463600Y-135463600D02*
X151536400Y-135463600D01*
X151536400Y-133536400D01*
X153463600Y-133536400D01*
X153463600Y-135463600D01*
X153463600Y-135463600D01*
G37*
G36*
X140173164Y-130891290D02*
X140487094Y-131021324D01*
X140769624Y-131210105D01*
X141009895Y-131450376D01*
X141198676Y-131732906D01*
X141328710Y-132046836D01*
X141395000Y-132380102D01*
X141395000Y-132719898D01*
X141328710Y-133053164D01*
X141198676Y-133367094D01*
X141009895Y-133649624D01*
X140769624Y-133889895D01*
X140487094Y-134078676D01*
X140173164Y-134208710D01*
X139839898Y-134275000D01*
X139500102Y-134275000D01*
X139166836Y-134208710D01*
X138852906Y-134078676D01*
X138570376Y-133889895D01*
X138330105Y-133649624D01*
X138141324Y-133367094D01*
X138011290Y-133053164D01*
X137945000Y-132719898D01*
X137945000Y-132380102D01*
X138011290Y-132046836D01*
X138141324Y-131732906D01*
X138330105Y-131450376D01*
X138570376Y-131210105D01*
X138852906Y-131021324D01*
X139166836Y-130891290D01*
X139500102Y-130825000D01*
X139839898Y-130825000D01*
X140173164Y-130891290D01*
X140173164Y-130891290D01*
G37*
G36*
X132553164Y-130891290D02*
X132867094Y-131021324D01*
X133149624Y-131210105D01*
X133389895Y-131450376D01*
X133578676Y-131732906D01*
X133708710Y-132046836D01*
X133775000Y-132380102D01*
X133775000Y-132719898D01*
X133708710Y-133053164D01*
X133578676Y-133367094D01*
X133389895Y-133649624D01*
X133149624Y-133889895D01*
X132867094Y-134078676D01*
X132553164Y-134208710D01*
X132219898Y-134275000D01*
X131880102Y-134275000D01*
X131546836Y-134208710D01*
X131232906Y-134078676D01*
X130950376Y-133889895D01*
X130710105Y-133649624D01*
X130521324Y-133367094D01*
X130391290Y-133053164D01*
X130325000Y-132719898D01*
X130325000Y-132380102D01*
X130391290Y-132046836D01*
X130521324Y-131732906D01*
X130710105Y-131450376D01*
X130950376Y-131210105D01*
X131232906Y-131021324D01*
X131546836Y-130891290D01*
X131880102Y-130825000D01*
X132219898Y-130825000D01*
X132553164Y-130891290D01*
X132553164Y-130891290D01*
G37*
G36*
X128673164Y-130891290D02*
X128987094Y-131021324D01*
X129269624Y-131210105D01*
X129509895Y-131450376D01*
X129698676Y-131732906D01*
X129828710Y-132046836D01*
X129895000Y-132380102D01*
X129895000Y-132719898D01*
X129828710Y-133053164D01*
X129698676Y-133367094D01*
X129509895Y-133649624D01*
X129269624Y-133889895D01*
X128987094Y-134078676D01*
X128673164Y-134208710D01*
X128339898Y-134275000D01*
X128000102Y-134275000D01*
X127666836Y-134208710D01*
X127352906Y-134078676D01*
X127070376Y-133889895D01*
X126830105Y-133649624D01*
X126641324Y-133367094D01*
X126511290Y-133053164D01*
X126445000Y-132719898D01*
X126445000Y-132380102D01*
X126511290Y-132046836D01*
X126641324Y-131732906D01*
X126830105Y-131450376D01*
X127070376Y-131210105D01*
X127352906Y-131021324D01*
X127666836Y-130891290D01*
X128000102Y-130825000D01*
X128339898Y-130825000D01*
X128673164Y-130891290D01*
X128673164Y-130891290D01*
G37*
G36*
X121053164Y-130891290D02*
X121367094Y-131021324D01*
X121649624Y-131210105D01*
X121889895Y-131450376D01*
X122078676Y-131732906D01*
X122208710Y-132046836D01*
X122275000Y-132380102D01*
X122275000Y-132719898D01*
X122208710Y-133053164D01*
X122078676Y-133367094D01*
X121889895Y-133649624D01*
X121649624Y-133889895D01*
X121367094Y-134078676D01*
X121053164Y-134208710D01*
X120719898Y-134275000D01*
X120380102Y-134275000D01*
X120046836Y-134208710D01*
X119732906Y-134078676D01*
X119450376Y-133889895D01*
X119210105Y-133649624D01*
X119021324Y-133367094D01*
X118891290Y-133053164D01*
X118825000Y-132719898D01*
X118825000Y-132380102D01*
X118891290Y-132046836D01*
X119021324Y-131732906D01*
X119210105Y-131450376D01*
X119450376Y-131210105D01*
X119732906Y-131021324D01*
X120046836Y-130891290D01*
X120380102Y-130825000D01*
X120719898Y-130825000D01*
X121053164Y-130891290D01*
X121053164Y-130891290D01*
G37*
G36*
X160120856Y-130642272D02*
X160321045Y-130725193D01*
X160501207Y-130845573D01*
X160654427Y-130998793D01*
X160774807Y-131178955D01*
X160857728Y-131379144D01*
X160900000Y-131591657D01*
X160900000Y-131808343D01*
X160857728Y-132020856D01*
X160774807Y-132221045D01*
X160654427Y-132401207D01*
X160501207Y-132554427D01*
X160321045Y-132674807D01*
X160120856Y-132757728D01*
X159908343Y-132800000D01*
X159691657Y-132800000D01*
X159479144Y-132757728D01*
X159278955Y-132674807D01*
X159098793Y-132554427D01*
X158945573Y-132401207D01*
X158825193Y-132221045D01*
X158742272Y-132020856D01*
X158700000Y-131808343D01*
X158700000Y-131591657D01*
X158742272Y-131379144D01*
X158825193Y-131178955D01*
X158945573Y-130998793D01*
X159098793Y-130845573D01*
X159278955Y-130725193D01*
X159479144Y-130642272D01*
X159691657Y-130600000D01*
X159908343Y-130600000D01*
X160120856Y-130642272D01*
X160120856Y-130642272D01*
G37*
G36*
X163722971Y-127861455D02*
X163746232Y-127863746D01*
X163925308Y-127918068D01*
X164090345Y-128006282D01*
X164235001Y-128124999D01*
X164353718Y-128269655D01*
X164441932Y-128434692D01*
X164441932Y-128434693D01*
X164496254Y-128613769D01*
X164514597Y-128800000D01*
X164497899Y-128969534D01*
X164496254Y-128986232D01*
X164441932Y-129165308D01*
X164353718Y-129330345D01*
X164235001Y-129475001D01*
X164090345Y-129593718D01*
X163925308Y-129681932D01*
X163746232Y-129736254D01*
X163722971Y-129738545D01*
X163606670Y-129750000D01*
X163513330Y-129750000D01*
X163397029Y-129738545D01*
X163373768Y-129736254D01*
X163194692Y-129681932D01*
X163029655Y-129593718D01*
X162884999Y-129475001D01*
X162766282Y-129330345D01*
X162678068Y-129165308D01*
X162623746Y-128986232D01*
X162622101Y-128969534D01*
X162605403Y-128800000D01*
X162623746Y-128613769D01*
X162678068Y-128434693D01*
X162678068Y-128434692D01*
X162766282Y-128269655D01*
X162884999Y-128124999D01*
X163029655Y-128006282D01*
X163194692Y-127918068D01*
X163373768Y-127863746D01*
X163397029Y-127861455D01*
X163513330Y-127850000D01*
X163606670Y-127850000D01*
X163722971Y-127861455D01*
X163722971Y-127861455D01*
G37*
G36*
X167050000Y-129750000D02*
X165150000Y-129750000D01*
X165150000Y-127850000D01*
X167050000Y-127850000D01*
X167050000Y-129750000D01*
X167050000Y-129750000D01*
G37*
G36*
X104820856Y-125292272D02*
X105021045Y-125375193D01*
X105201207Y-125495573D01*
X105354427Y-125648793D01*
X105474807Y-125828955D01*
X105557728Y-126029144D01*
X105600000Y-126241657D01*
X105600000Y-126458343D01*
X105557728Y-126670856D01*
X105474807Y-126871045D01*
X105354427Y-127051207D01*
X105201207Y-127204427D01*
X105021045Y-127324807D01*
X104820856Y-127407728D01*
X104608343Y-127450000D01*
X104391657Y-127450000D01*
X104179144Y-127407728D01*
X103978955Y-127324807D01*
X103798793Y-127204427D01*
X103645573Y-127051207D01*
X103525193Y-126871045D01*
X103442272Y-126670856D01*
X103400000Y-126458343D01*
X103400000Y-126241657D01*
X103442272Y-126029144D01*
X103525193Y-125828955D01*
X103645573Y-125648793D01*
X103798793Y-125495573D01*
X103978955Y-125375193D01*
X104179144Y-125292272D01*
X104391657Y-125250000D01*
X104608343Y-125250000D01*
X104820856Y-125292272D01*
X104820856Y-125292272D01*
G37*
G36*
X122674410Y-125223057D02*
X122751689Y-125238429D01*
X122933678Y-125313811D01*
X123097463Y-125423249D01*
X123236751Y-125562537D01*
X123346189Y-125726322D01*
X123421571Y-125908311D01*
X123421571Y-125908313D01*
X123460000Y-126101506D01*
X123460000Y-126298494D01*
X123436943Y-126414410D01*
X123421571Y-126491689D01*
X123346189Y-126673678D01*
X123236751Y-126837463D01*
X123097463Y-126976751D01*
X122933678Y-127086189D01*
X122751689Y-127161571D01*
X122674410Y-127176943D01*
X122558494Y-127200000D01*
X122361506Y-127200000D01*
X122245590Y-127176943D01*
X122168311Y-127161571D01*
X121986322Y-127086189D01*
X121822537Y-126976751D01*
X121683249Y-126837463D01*
X121573811Y-126673678D01*
X121498429Y-126491689D01*
X121483057Y-126414410D01*
X121460000Y-126298494D01*
X121460000Y-126101506D01*
X121498429Y-125908313D01*
X121498429Y-125908311D01*
X121573811Y-125726322D01*
X121683249Y-125562537D01*
X121822537Y-125423249D01*
X121986322Y-125313811D01*
X122168311Y-125238429D01*
X122245590Y-125223057D01*
X122361506Y-125200000D01*
X122558494Y-125200000D01*
X122674410Y-125223057D01*
X122674410Y-125223057D01*
G37*
G36*
X136714410Y-125223057D02*
X136791689Y-125238429D01*
X136973678Y-125313811D01*
X137137463Y-125423249D01*
X137276751Y-125562537D01*
X137386189Y-125726322D01*
X137461571Y-125908311D01*
X137461571Y-125908313D01*
X137500000Y-126101506D01*
X137500000Y-126298494D01*
X137476943Y-126414410D01*
X137461571Y-126491689D01*
X137386189Y-126673678D01*
X137276751Y-126837463D01*
X137137463Y-126976751D01*
X136973678Y-127086189D01*
X136791689Y-127161571D01*
X136714410Y-127176943D01*
X136598494Y-127200000D01*
X136401506Y-127200000D01*
X136285590Y-127176943D01*
X136208311Y-127161571D01*
X136026322Y-127086189D01*
X135862537Y-126976751D01*
X135723249Y-126837463D01*
X135613811Y-126673678D01*
X135538429Y-126491689D01*
X135523057Y-126414410D01*
X135500000Y-126298494D01*
X135500000Y-126101506D01*
X135538429Y-125908313D01*
X135538429Y-125908311D01*
X135613811Y-125726322D01*
X135723249Y-125562537D01*
X135862537Y-125423249D01*
X136026322Y-125313811D01*
X136208311Y-125238429D01*
X136285590Y-125223057D01*
X136401506Y-125200000D01*
X136598494Y-125200000D01*
X136714410Y-125223057D01*
X136714410Y-125223057D01*
G37*
G36*
X134174410Y-125223057D02*
X134251689Y-125238429D01*
X134433678Y-125313811D01*
X134597463Y-125423249D01*
X134736751Y-125562537D01*
X134846189Y-125726322D01*
X134921571Y-125908311D01*
X134921571Y-125908313D01*
X134960000Y-126101506D01*
X134960000Y-126298494D01*
X134936943Y-126414410D01*
X134921571Y-126491689D01*
X134846189Y-126673678D01*
X134736751Y-126837463D01*
X134597463Y-126976751D01*
X134433678Y-127086189D01*
X134251689Y-127161571D01*
X134174410Y-127176943D01*
X134058494Y-127200000D01*
X133861506Y-127200000D01*
X133745590Y-127176943D01*
X133668311Y-127161571D01*
X133486322Y-127086189D01*
X133322537Y-126976751D01*
X133183249Y-126837463D01*
X133073811Y-126673678D01*
X132998429Y-126491689D01*
X132983057Y-126414410D01*
X132960000Y-126298494D01*
X132960000Y-126101506D01*
X132998429Y-125908313D01*
X132998429Y-125908311D01*
X133073811Y-125726322D01*
X133183249Y-125562537D01*
X133322537Y-125423249D01*
X133486322Y-125313811D01*
X133668311Y-125238429D01*
X133745590Y-125223057D01*
X133861506Y-125200000D01*
X134058494Y-125200000D01*
X134174410Y-125223057D01*
X134174410Y-125223057D01*
G37*
G36*
X125214410Y-125223057D02*
X125291689Y-125238429D01*
X125473678Y-125313811D01*
X125637463Y-125423249D01*
X125776751Y-125562537D01*
X125886189Y-125726322D01*
X125961571Y-125908311D01*
X125961571Y-125908313D01*
X126000000Y-126101506D01*
X126000000Y-126298494D01*
X125976943Y-126414410D01*
X125961571Y-126491689D01*
X125886189Y-126673678D01*
X125776751Y-126837463D01*
X125637463Y-126976751D01*
X125473678Y-127086189D01*
X125291689Y-127161571D01*
X125214410Y-127176943D01*
X125098494Y-127200000D01*
X124901506Y-127200000D01*
X124785590Y-127176943D01*
X124708311Y-127161571D01*
X124526322Y-127086189D01*
X124362537Y-126976751D01*
X124223249Y-126837463D01*
X124113811Y-126673678D01*
X124038429Y-126491689D01*
X124023057Y-126414410D01*
X124000000Y-126298494D01*
X124000000Y-126101506D01*
X124038429Y-125908313D01*
X124038429Y-125908311D01*
X124113811Y-125726322D01*
X124223249Y-125562537D01*
X124362537Y-125423249D01*
X124526322Y-125313811D01*
X124708311Y-125238429D01*
X124785590Y-125223057D01*
X124901506Y-125200000D01*
X125098494Y-125200000D01*
X125214410Y-125223057D01*
X125214410Y-125223057D01*
G37*
G36*
X123944410Y-122683057D02*
X124021689Y-122698429D01*
X124203678Y-122773811D01*
X124367463Y-122883249D01*
X124506751Y-123022537D01*
X124616189Y-123186322D01*
X124691571Y-123368311D01*
X124706943Y-123445590D01*
X124730000Y-123561506D01*
X124730000Y-123758494D01*
X124706943Y-123874410D01*
X124691571Y-123951689D01*
X124616189Y-124133678D01*
X124506751Y-124297463D01*
X124367463Y-124436751D01*
X124203678Y-124546189D01*
X124021689Y-124621571D01*
X123944410Y-124636943D01*
X123828494Y-124660000D01*
X123631506Y-124660000D01*
X123515590Y-124636943D01*
X123438311Y-124621571D01*
X123256322Y-124546189D01*
X123092537Y-124436751D01*
X122953249Y-124297463D01*
X122843811Y-124133678D01*
X122768429Y-123951689D01*
X122753057Y-123874410D01*
X122730000Y-123758494D01*
X122730000Y-123561506D01*
X122753057Y-123445590D01*
X122768429Y-123368311D01*
X122843811Y-123186322D01*
X122953249Y-123022537D01*
X123092537Y-122883249D01*
X123256322Y-122773811D01*
X123438311Y-122698429D01*
X123515590Y-122683057D01*
X123631506Y-122660000D01*
X123828494Y-122660000D01*
X123944410Y-122683057D01*
X123944410Y-122683057D01*
G37*
G36*
X126484410Y-122683057D02*
X126561689Y-122698429D01*
X126743678Y-122773811D01*
X126907463Y-122883249D01*
X127046751Y-123022537D01*
X127156189Y-123186322D01*
X127231571Y-123368311D01*
X127246943Y-123445590D01*
X127270000Y-123561506D01*
X127270000Y-123758494D01*
X127246943Y-123874410D01*
X127231571Y-123951689D01*
X127156189Y-124133678D01*
X127046751Y-124297463D01*
X126907463Y-124436751D01*
X126743678Y-124546189D01*
X126561689Y-124621571D01*
X126484410Y-124636943D01*
X126368494Y-124660000D01*
X126171506Y-124660000D01*
X126055590Y-124636943D01*
X125978311Y-124621571D01*
X125796322Y-124546189D01*
X125632537Y-124436751D01*
X125493249Y-124297463D01*
X125383811Y-124133678D01*
X125308429Y-123951689D01*
X125293057Y-123874410D01*
X125270000Y-123758494D01*
X125270000Y-123561506D01*
X125293057Y-123445590D01*
X125308429Y-123368311D01*
X125383811Y-123186322D01*
X125493249Y-123022537D01*
X125632537Y-122883249D01*
X125796322Y-122773811D01*
X125978311Y-122698429D01*
X126055590Y-122683057D01*
X126171506Y-122660000D01*
X126368494Y-122660000D01*
X126484410Y-122683057D01*
X126484410Y-122683057D01*
G37*
G36*
X135444410Y-122683057D02*
X135521689Y-122698429D01*
X135703678Y-122773811D01*
X135867463Y-122883249D01*
X136006751Y-123022537D01*
X136116189Y-123186322D01*
X136191571Y-123368311D01*
X136206943Y-123445590D01*
X136230000Y-123561506D01*
X136230000Y-123758494D01*
X136206943Y-123874410D01*
X136191571Y-123951689D01*
X136116189Y-124133678D01*
X136006751Y-124297463D01*
X135867463Y-124436751D01*
X135703678Y-124546189D01*
X135521689Y-124621571D01*
X135444410Y-124636943D01*
X135328494Y-124660000D01*
X135131506Y-124660000D01*
X135015590Y-124636943D01*
X134938311Y-124621571D01*
X134756322Y-124546189D01*
X134592537Y-124436751D01*
X134453249Y-124297463D01*
X134343811Y-124133678D01*
X134268429Y-123951689D01*
X134253057Y-123874410D01*
X134230000Y-123758494D01*
X134230000Y-123561506D01*
X134253057Y-123445590D01*
X134268429Y-123368311D01*
X134343811Y-123186322D01*
X134453249Y-123022537D01*
X134592537Y-122883249D01*
X134756322Y-122773811D01*
X134938311Y-122698429D01*
X135015590Y-122683057D01*
X135131506Y-122660000D01*
X135328494Y-122660000D01*
X135444410Y-122683057D01*
X135444410Y-122683057D01*
G37*
G36*
X137984410Y-122683057D02*
X138061689Y-122698429D01*
X138243678Y-122773811D01*
X138407463Y-122883249D01*
X138546751Y-123022537D01*
X138656189Y-123186322D01*
X138731571Y-123368311D01*
X138746943Y-123445590D01*
X138770000Y-123561506D01*
X138770000Y-123758494D01*
X138746943Y-123874410D01*
X138731571Y-123951689D01*
X138656189Y-124133678D01*
X138546751Y-124297463D01*
X138407463Y-124436751D01*
X138243678Y-124546189D01*
X138061689Y-124621571D01*
X137984410Y-124636943D01*
X137868494Y-124660000D01*
X137671506Y-124660000D01*
X137555590Y-124636943D01*
X137478311Y-124621571D01*
X137296322Y-124546189D01*
X137132537Y-124436751D01*
X136993249Y-124297463D01*
X136883811Y-124133678D01*
X136808429Y-123951689D01*
X136793057Y-123874410D01*
X136770000Y-123758494D01*
X136770000Y-123561506D01*
X136793057Y-123445590D01*
X136808429Y-123368311D01*
X136883811Y-123186322D01*
X136993249Y-123022537D01*
X137132537Y-122883249D01*
X137296322Y-122773811D01*
X137478311Y-122698429D01*
X137555590Y-122683057D01*
X137671506Y-122660000D01*
X137868494Y-122660000D01*
X137984410Y-122683057D01*
X137984410Y-122683057D01*
G37*
G36*
X102762520Y-121834586D02*
X102762522Y-121834587D01*
X102762523Y-121834587D01*
X102926310Y-121902430D01*
X103073717Y-122000924D01*
X103199076Y-122126283D01*
X103199077Y-122126285D01*
X103297570Y-122273690D01*
X103365413Y-122437477D01*
X103401921Y-122621018D01*
X103407612Y-122639777D01*
X103416853Y-122657066D01*
X103429289Y-122672220D01*
X103444443Y-122684656D01*
X103461731Y-122693897D01*
X103480491Y-122699587D01*
X103484679Y-122700000D01*
X103480491Y-122700412D01*
X103461732Y-122706103D01*
X103444443Y-122715344D01*
X103429289Y-122727780D01*
X103416853Y-122742934D01*
X103407612Y-122760222D01*
X103401921Y-122778982D01*
X103400000Y-122788640D01*
X103400000Y-122788642D01*
X103365414Y-122962520D01*
X103297570Y-123126310D01*
X103199076Y-123273717D01*
X103073717Y-123399076D01*
X102926310Y-123497570D01*
X102762523Y-123565413D01*
X102762522Y-123565413D01*
X102762520Y-123565414D01*
X102588642Y-123600000D01*
X102411358Y-123600000D01*
X102237480Y-123565414D01*
X102237478Y-123565413D01*
X102237477Y-123565413D01*
X102073690Y-123497570D01*
X101926283Y-123399076D01*
X101800924Y-123273717D01*
X101702430Y-123126310D01*
X101634586Y-122962520D01*
X101600000Y-122788642D01*
X101600000Y-122611358D01*
X101634586Y-122437480D01*
X101646111Y-122409657D01*
X101702430Y-122273690D01*
X101800923Y-122126285D01*
X101800924Y-122126283D01*
X101926283Y-122000924D01*
X102073690Y-121902430D01*
X102237477Y-121834587D01*
X102237478Y-121834587D01*
X102237480Y-121834586D01*
X102411358Y-121800000D01*
X102588642Y-121800000D01*
X102762520Y-121834586D01*
X102762520Y-121834586D01*
G37*
G36*
X104762520Y-121834586D02*
X104762522Y-121834587D01*
X104762523Y-121834587D01*
X104926310Y-121902430D01*
X105073717Y-122000924D01*
X105199076Y-122126283D01*
X105199077Y-122126285D01*
X105297570Y-122273690D01*
X105353890Y-122409657D01*
X105365414Y-122437480D01*
X105400000Y-122611358D01*
X105400000Y-122788642D01*
X105365414Y-122962520D01*
X105297570Y-123126310D01*
X105199076Y-123273717D01*
X105073717Y-123399076D01*
X104926310Y-123497570D01*
X104762523Y-123565413D01*
X104762522Y-123565413D01*
X104762520Y-123565414D01*
X104588642Y-123600000D01*
X104411358Y-123600000D01*
X104237480Y-123565414D01*
X104237478Y-123565413D01*
X104237477Y-123565413D01*
X104073690Y-123497570D01*
X103926283Y-123399076D01*
X103800924Y-123273717D01*
X103702430Y-123126310D01*
X103634586Y-122962520D01*
X103600000Y-122788642D01*
X103600000Y-122788640D01*
X103598079Y-122778982D01*
X103592388Y-122760223D01*
X103583147Y-122742934D01*
X103570711Y-122727780D01*
X103555557Y-122715344D01*
X103538269Y-122706103D01*
X103519509Y-122700413D01*
X103515321Y-122700000D01*
X103519509Y-122699588D01*
X103538268Y-122693897D01*
X103555557Y-122684656D01*
X103570711Y-122672220D01*
X103583147Y-122657066D01*
X103592388Y-122639778D01*
X103598079Y-122621018D01*
X103634587Y-122437477D01*
X103702430Y-122273690D01*
X103800923Y-122126285D01*
X103800924Y-122126283D01*
X103926283Y-122000924D01*
X104073690Y-121902430D01*
X104237477Y-121834587D01*
X104237478Y-121834587D01*
X104237480Y-121834586D01*
X104411358Y-121800000D01*
X104588642Y-121800000D01*
X104762520Y-121834586D01*
X104762520Y-121834586D01*
G37*
G36*
X166688452Y-120506359D02*
X166728899Y-120510343D01*
X166813449Y-120535991D01*
X166910537Y-120565442D01*
X167077939Y-120654920D01*
X167224665Y-120775335D01*
X167345080Y-120922061D01*
X167434558Y-121089463D01*
X167439097Y-121104427D01*
X167489657Y-121271101D01*
X167489657Y-121271103D01*
X167508263Y-121460000D01*
X167492719Y-121617811D01*
X167489657Y-121648899D01*
X167464009Y-121733449D01*
X167434558Y-121830537D01*
X167345080Y-121997939D01*
X167224665Y-122144665D01*
X167077939Y-122265080D01*
X166910537Y-122354558D01*
X166813449Y-122384009D01*
X166728899Y-122409657D01*
X166688452Y-122413641D01*
X166587339Y-122423600D01*
X166492661Y-122423600D01*
X166391548Y-122413641D01*
X166351101Y-122409657D01*
X166266551Y-122384009D01*
X166169463Y-122354558D01*
X166002061Y-122265080D01*
X165855335Y-122144665D01*
X165734920Y-121997939D01*
X165645442Y-121830537D01*
X165615991Y-121733449D01*
X165590343Y-121648899D01*
X165587281Y-121617811D01*
X165571737Y-121460000D01*
X165590343Y-121271103D01*
X165590343Y-121271101D01*
X165640903Y-121104427D01*
X165645442Y-121089463D01*
X165734920Y-120922061D01*
X165855335Y-120775335D01*
X166002061Y-120654920D01*
X166169463Y-120565442D01*
X166266551Y-120535991D01*
X166351101Y-120510343D01*
X166391548Y-120506359D01*
X166492661Y-120496400D01*
X166587339Y-120496400D01*
X166688452Y-120506359D01*
X166688452Y-120506359D01*
G37*
G36*
X164148452Y-120506359D02*
X164188899Y-120510343D01*
X164273449Y-120535991D01*
X164370537Y-120565442D01*
X164537939Y-120654920D01*
X164684665Y-120775335D01*
X164805080Y-120922061D01*
X164894558Y-121089463D01*
X164899097Y-121104427D01*
X164949657Y-121271101D01*
X164949657Y-121271103D01*
X164968263Y-121460000D01*
X164952719Y-121617811D01*
X164949657Y-121648899D01*
X164924009Y-121733449D01*
X164894558Y-121830537D01*
X164805080Y-121997939D01*
X164684665Y-122144665D01*
X164537939Y-122265080D01*
X164370537Y-122354558D01*
X164273449Y-122384009D01*
X164188899Y-122409657D01*
X164148452Y-122413641D01*
X164047339Y-122423600D01*
X163952661Y-122423600D01*
X163851548Y-122413641D01*
X163811101Y-122409657D01*
X163726551Y-122384009D01*
X163629463Y-122354558D01*
X163462061Y-122265080D01*
X163315335Y-122144665D01*
X163194920Y-121997939D01*
X163105442Y-121830537D01*
X163075991Y-121733449D01*
X163050343Y-121648899D01*
X163047281Y-121617811D01*
X163031737Y-121460000D01*
X163050343Y-121271103D01*
X163050343Y-121271101D01*
X163100903Y-121104427D01*
X163105442Y-121089463D01*
X163194920Y-120922061D01*
X163315335Y-120775335D01*
X163462061Y-120654920D01*
X163629463Y-120565442D01*
X163726551Y-120535991D01*
X163811101Y-120510343D01*
X163851548Y-120506359D01*
X163952661Y-120496400D01*
X164047339Y-120496400D01*
X164148452Y-120506359D01*
X164148452Y-120506359D01*
G37*
G36*
X140320856Y-119192272D02*
X140521045Y-119275193D01*
X140701207Y-119395573D01*
X140854427Y-119548793D01*
X140974807Y-119728955D01*
X141057728Y-119929144D01*
X141100000Y-120141657D01*
X141100000Y-120358343D01*
X141057728Y-120570856D01*
X140974807Y-120771045D01*
X140854427Y-120951207D01*
X140701207Y-121104427D01*
X140521045Y-121224807D01*
X140320856Y-121307728D01*
X140108343Y-121350000D01*
X139891657Y-121350000D01*
X139679144Y-121307728D01*
X139478955Y-121224807D01*
X139298793Y-121104427D01*
X139145573Y-120951207D01*
X139025193Y-120771045D01*
X138942272Y-120570856D01*
X138900000Y-120358343D01*
X138900000Y-120141657D01*
X138942272Y-119929144D01*
X139025193Y-119728955D01*
X139145573Y-119548793D01*
X139298793Y-119395573D01*
X139478955Y-119275193D01*
X139679144Y-119192272D01*
X139891657Y-119150000D01*
X140108343Y-119150000D01*
X140320856Y-119192272D01*
X140320856Y-119192272D01*
G37*
G36*
X164148452Y-117966359D02*
X164188899Y-117970343D01*
X164270478Y-117995090D01*
X164370537Y-118025442D01*
X164537939Y-118114920D01*
X164684665Y-118235335D01*
X164805080Y-118382061D01*
X164894558Y-118549463D01*
X164924009Y-118646551D01*
X164949657Y-118731101D01*
X164949657Y-118731103D01*
X164968263Y-118920000D01*
X164952719Y-119077811D01*
X164949657Y-119108899D01*
X164937189Y-119150000D01*
X164894558Y-119290537D01*
X164805080Y-119457939D01*
X164684665Y-119604665D01*
X164537939Y-119725080D01*
X164370537Y-119814558D01*
X164273449Y-119844009D01*
X164188899Y-119869657D01*
X164148452Y-119873641D01*
X164047339Y-119883600D01*
X163952661Y-119883600D01*
X163851548Y-119873641D01*
X163811101Y-119869657D01*
X163726551Y-119844009D01*
X163629463Y-119814558D01*
X163462061Y-119725080D01*
X163315335Y-119604665D01*
X163194920Y-119457939D01*
X163105442Y-119290537D01*
X163062811Y-119150000D01*
X163050343Y-119108899D01*
X163047281Y-119077811D01*
X163031737Y-118920000D01*
X163050343Y-118731103D01*
X163050343Y-118731101D01*
X163075991Y-118646551D01*
X163105442Y-118549463D01*
X163194920Y-118382061D01*
X163315335Y-118235335D01*
X163462061Y-118114920D01*
X163629463Y-118025442D01*
X163729522Y-117995090D01*
X163811101Y-117970343D01*
X163851548Y-117966359D01*
X163952661Y-117956400D01*
X164047339Y-117956400D01*
X164148452Y-117966359D01*
X164148452Y-117966359D01*
G37*
G36*
X166688452Y-117966359D02*
X166728899Y-117970343D01*
X166810478Y-117995090D01*
X166910537Y-118025442D01*
X167077939Y-118114920D01*
X167224665Y-118235335D01*
X167345080Y-118382061D01*
X167434558Y-118549463D01*
X167464009Y-118646551D01*
X167489657Y-118731101D01*
X167489657Y-118731103D01*
X167508263Y-118920000D01*
X167492719Y-119077811D01*
X167489657Y-119108899D01*
X167477189Y-119150000D01*
X167434558Y-119290537D01*
X167345080Y-119457939D01*
X167224665Y-119604665D01*
X167077939Y-119725080D01*
X166910537Y-119814558D01*
X166813449Y-119844009D01*
X166728899Y-119869657D01*
X166688452Y-119873641D01*
X166587339Y-119883600D01*
X166492661Y-119883600D01*
X166391548Y-119873641D01*
X166351101Y-119869657D01*
X166266551Y-119844009D01*
X166169463Y-119814558D01*
X166002061Y-119725080D01*
X165855335Y-119604665D01*
X165734920Y-119457939D01*
X165645442Y-119290537D01*
X165602811Y-119150000D01*
X165590343Y-119108899D01*
X165587281Y-119077811D01*
X165571737Y-118920000D01*
X165590343Y-118731103D01*
X165590343Y-118731101D01*
X165615991Y-118646551D01*
X165645442Y-118549463D01*
X165734920Y-118382061D01*
X165855335Y-118235335D01*
X166002061Y-118114920D01*
X166169463Y-118025442D01*
X166269522Y-117995090D01*
X166351101Y-117970343D01*
X166391548Y-117966359D01*
X166492661Y-117956400D01*
X166587339Y-117956400D01*
X166688452Y-117966359D01*
X166688452Y-117966359D01*
G37*
G36*
X157850000Y-116825134D02*
X157851921Y-116844643D01*
X157857612Y-116863402D01*
X157866853Y-116880691D01*
X157879289Y-116895845D01*
X157894532Y-116908340D01*
X157901922Y-116913267D01*
X157920975Y-116928869D01*
X157920979Y-116928873D01*
X157933491Y-116944087D01*
X157942795Y-116961449D01*
X157948533Y-116980293D01*
X157950484Y-117000000D01*
X157950484Y-117000050D01*
X157950968Y-117004937D01*
X157950968Y-117995090D01*
X157950484Y-118000000D01*
X157948553Y-118019603D01*
X157942835Y-118038454D01*
X157935277Y-118052593D01*
X157933547Y-118055830D01*
X157921053Y-118071053D01*
X157905830Y-118083547D01*
X157905826Y-118083549D01*
X157888454Y-118092835D01*
X157869603Y-118098553D01*
X157864081Y-118099097D01*
X157845090Y-118100968D01*
X156354910Y-118100968D01*
X156335919Y-118099097D01*
X156330397Y-118098553D01*
X156311546Y-118092835D01*
X156294174Y-118083549D01*
X156294170Y-118083547D01*
X156278947Y-118071053D01*
X156266453Y-118055830D01*
X156264723Y-118052593D01*
X156257165Y-118038454D01*
X156251447Y-118019603D01*
X156249516Y-118000000D01*
X156249032Y-117995090D01*
X156249032Y-117004910D01*
X156251447Y-116980398D01*
X156257164Y-116961549D01*
X156257165Y-116961546D01*
X156266451Y-116944174D01*
X156266453Y-116944170D01*
X156278928Y-116928969D01*
X156278931Y-116928967D01*
X156278947Y-116928947D01*
X156294262Y-116916392D01*
X156294305Y-116916363D01*
X156298104Y-116913249D01*
X156305468Y-116908340D01*
X156320635Y-116895920D01*
X156333088Y-116880780D01*
X156342347Y-116863501D01*
X156348058Y-116844748D01*
X156350000Y-116825134D01*
X156350000Y-115950000D01*
X157850000Y-115950000D01*
X157850000Y-116825134D01*
X157850000Y-116825134D01*
G37*
G36*
X155350000Y-116825134D02*
X155351921Y-116844643D01*
X155357612Y-116863402D01*
X155366853Y-116880691D01*
X155379289Y-116895845D01*
X155394532Y-116908340D01*
X155401922Y-116913267D01*
X155420975Y-116928869D01*
X155420979Y-116928873D01*
X155433491Y-116944087D01*
X155442795Y-116961449D01*
X155448533Y-116980293D01*
X155450484Y-117000000D01*
X155450484Y-117000050D01*
X155450968Y-117004937D01*
X155450968Y-117995090D01*
X155450484Y-118000000D01*
X155448553Y-118019603D01*
X155442835Y-118038454D01*
X155435277Y-118052593D01*
X155433547Y-118055830D01*
X155421053Y-118071053D01*
X155405830Y-118083547D01*
X155405826Y-118083549D01*
X155388454Y-118092835D01*
X155369603Y-118098553D01*
X155364081Y-118099097D01*
X155345090Y-118100968D01*
X153854910Y-118100968D01*
X153835919Y-118099097D01*
X153830397Y-118098553D01*
X153811546Y-118092835D01*
X153794174Y-118083549D01*
X153794170Y-118083547D01*
X153778947Y-118071053D01*
X153766453Y-118055830D01*
X153764723Y-118052593D01*
X153757165Y-118038454D01*
X153751447Y-118019603D01*
X153749516Y-118000000D01*
X153749032Y-117995090D01*
X153749032Y-117004910D01*
X153751447Y-116980398D01*
X153757164Y-116961549D01*
X153757165Y-116961546D01*
X153766451Y-116944174D01*
X153766453Y-116944170D01*
X153778928Y-116928969D01*
X153778931Y-116928967D01*
X153778947Y-116928947D01*
X153794262Y-116916392D01*
X153794305Y-116916363D01*
X153798104Y-116913249D01*
X153805468Y-116908340D01*
X153820635Y-116895920D01*
X153833088Y-116880780D01*
X153842347Y-116863501D01*
X153848058Y-116844748D01*
X153850000Y-116825134D01*
X153850000Y-115950000D01*
X155350000Y-115950000D01*
X155350000Y-116825134D01*
X155350000Y-116825134D01*
G37*
G36*
X160700000Y-116825134D02*
X160701921Y-116844643D01*
X160707612Y-116863402D01*
X160716853Y-116880691D01*
X160729289Y-116895845D01*
X160744532Y-116908340D01*
X160751922Y-116913267D01*
X160770975Y-116928869D01*
X160770979Y-116928873D01*
X160783491Y-116944087D01*
X160792795Y-116961449D01*
X160798533Y-116980293D01*
X160800484Y-117000000D01*
X160800484Y-117000050D01*
X160800968Y-117004937D01*
X160800968Y-117995090D01*
X160800484Y-118000000D01*
X160798553Y-118019603D01*
X160792835Y-118038454D01*
X160785277Y-118052593D01*
X160783547Y-118055830D01*
X160771053Y-118071053D01*
X160755830Y-118083547D01*
X160755826Y-118083549D01*
X160738454Y-118092835D01*
X160719603Y-118098553D01*
X160714081Y-118099097D01*
X160695090Y-118100968D01*
X159204910Y-118100968D01*
X159185919Y-118099097D01*
X159180397Y-118098553D01*
X159161546Y-118092835D01*
X159144174Y-118083549D01*
X159144170Y-118083547D01*
X159128947Y-118071053D01*
X159116453Y-118055830D01*
X159114723Y-118052593D01*
X159107165Y-118038454D01*
X159101447Y-118019603D01*
X159099516Y-118000000D01*
X159099032Y-117995090D01*
X159099032Y-117004910D01*
X159101447Y-116980398D01*
X159107164Y-116961549D01*
X159107165Y-116961546D01*
X159116451Y-116944174D01*
X159116453Y-116944170D01*
X159128928Y-116928969D01*
X159128931Y-116928967D01*
X159128947Y-116928947D01*
X159144262Y-116916392D01*
X159144305Y-116916363D01*
X159148104Y-116913249D01*
X159155468Y-116908340D01*
X159170635Y-116895920D01*
X159183088Y-116880780D01*
X159192347Y-116863501D01*
X159198058Y-116844748D01*
X159200000Y-116825134D01*
X159200000Y-115950000D01*
X160700000Y-115950000D01*
X160700000Y-116825134D01*
X160700000Y-116825134D01*
G37*
G36*
X140320856Y-115642272D02*
X140521045Y-115725193D01*
X140701207Y-115845573D01*
X140854427Y-115998793D01*
X140974807Y-116178955D01*
X141057728Y-116379144D01*
X141100000Y-116591657D01*
X141100000Y-116808343D01*
X141057728Y-117020856D01*
X140974807Y-117221045D01*
X140854427Y-117401207D01*
X140701207Y-117554427D01*
X140521045Y-117674807D01*
X140320856Y-117757728D01*
X140108343Y-117800000D01*
X139891657Y-117800000D01*
X139679144Y-117757728D01*
X139478955Y-117674807D01*
X139298793Y-117554427D01*
X139145573Y-117401207D01*
X139025193Y-117221045D01*
X138942272Y-117020856D01*
X138900000Y-116808343D01*
X138900000Y-116591657D01*
X138942272Y-116379144D01*
X139025193Y-116178955D01*
X139145573Y-115998793D01*
X139298793Y-115845573D01*
X139478955Y-115725193D01*
X139679144Y-115642272D01*
X139891657Y-115600000D01*
X140108343Y-115600000D01*
X140320856Y-115642272D01*
X140320856Y-115642272D01*
G37*
G36*
X164148452Y-115426359D02*
X164188899Y-115430343D01*
X164273449Y-115455991D01*
X164370537Y-115485442D01*
X164537939Y-115574920D01*
X164684665Y-115695335D01*
X164805080Y-115842061D01*
X164894558Y-116009463D01*
X164922388Y-116101207D01*
X164949657Y-116191101D01*
X164949657Y-116191103D01*
X164968263Y-116380000D01*
X164956443Y-116500000D01*
X164949657Y-116568899D01*
X164924009Y-116653449D01*
X164894558Y-116750537D01*
X164805080Y-116917939D01*
X164684665Y-117064665D01*
X164537939Y-117185080D01*
X164370537Y-117274558D01*
X164273449Y-117304009D01*
X164188899Y-117329657D01*
X164148452Y-117333641D01*
X164047339Y-117343600D01*
X163952661Y-117343600D01*
X163851548Y-117333641D01*
X163811101Y-117329657D01*
X163726551Y-117304009D01*
X163629463Y-117274558D01*
X163462061Y-117185080D01*
X163315335Y-117064665D01*
X163194920Y-116917939D01*
X163105442Y-116750537D01*
X163075991Y-116653449D01*
X163050343Y-116568899D01*
X163043557Y-116500000D01*
X163031737Y-116380000D01*
X163050343Y-116191103D01*
X163050343Y-116191101D01*
X163077612Y-116101207D01*
X163105442Y-116009463D01*
X163194920Y-115842061D01*
X163315335Y-115695335D01*
X163462061Y-115574920D01*
X163629463Y-115485442D01*
X163726551Y-115455991D01*
X163811101Y-115430343D01*
X163851548Y-115426359D01*
X163952661Y-115416400D01*
X164047339Y-115416400D01*
X164148452Y-115426359D01*
X164148452Y-115426359D01*
G37*
G36*
X166688452Y-115426359D02*
X166728899Y-115430343D01*
X166813449Y-115455991D01*
X166910537Y-115485442D01*
X167077939Y-115574920D01*
X167224665Y-115695335D01*
X167345080Y-115842061D01*
X167434558Y-116009463D01*
X167462388Y-116101207D01*
X167489657Y-116191101D01*
X167489657Y-116191103D01*
X167508263Y-116380000D01*
X167496443Y-116500000D01*
X167489657Y-116568899D01*
X167464009Y-116653449D01*
X167434558Y-116750537D01*
X167345080Y-116917939D01*
X167224665Y-117064665D01*
X167077939Y-117185080D01*
X166910537Y-117274558D01*
X166813449Y-117304009D01*
X166728899Y-117329657D01*
X166688452Y-117333641D01*
X166587339Y-117343600D01*
X166492661Y-117343600D01*
X166391548Y-117333641D01*
X166351101Y-117329657D01*
X166266551Y-117304009D01*
X166169463Y-117274558D01*
X166002061Y-117185080D01*
X165855335Y-117064665D01*
X165734920Y-116917939D01*
X165645442Y-116750537D01*
X165615991Y-116653449D01*
X165590343Y-116568899D01*
X165583557Y-116500000D01*
X165571737Y-116380000D01*
X165590343Y-116191103D01*
X165590343Y-116191101D01*
X165617612Y-116101207D01*
X165645442Y-116009463D01*
X165734920Y-115842061D01*
X165855335Y-115695335D01*
X166002061Y-115574920D01*
X166169463Y-115485442D01*
X166266551Y-115455991D01*
X166351101Y-115430343D01*
X166391548Y-115426359D01*
X166492661Y-115416400D01*
X166587339Y-115416400D01*
X166688452Y-115426359D01*
X166688452Y-115426359D01*
G37*
G36*
X121620856Y-114342272D02*
X121821045Y-114425193D01*
X122001207Y-114545573D01*
X122154427Y-114698793D01*
X122274807Y-114878955D01*
X122357728Y-115079144D01*
X122400000Y-115291657D01*
X122400000Y-115508343D01*
X122357728Y-115720856D01*
X122274807Y-115921045D01*
X122154427Y-116101207D01*
X122001207Y-116254427D01*
X121821045Y-116374807D01*
X121620856Y-116457728D01*
X121408343Y-116500000D01*
X121191657Y-116500000D01*
X120979144Y-116457728D01*
X120778955Y-116374807D01*
X120598793Y-116254427D01*
X120445573Y-116101207D01*
X120325193Y-115921045D01*
X120242272Y-115720856D01*
X120200000Y-115508343D01*
X120200000Y-115291657D01*
X120242272Y-115079144D01*
X120325193Y-114878955D01*
X120445573Y-114698793D01*
X120598793Y-114545573D01*
X120778955Y-114425193D01*
X120979144Y-114342272D01*
X121191657Y-114300000D01*
X121408343Y-114300000D01*
X121620856Y-114342272D01*
X121620856Y-114342272D01*
G37*
G36*
X155364081Y-112900903D02*
X155369603Y-112901447D01*
X155388454Y-112907165D01*
X155402593Y-112914723D01*
X155405830Y-112916453D01*
X155421053Y-112928947D01*
X155433547Y-112944170D01*
X155433549Y-112944174D01*
X155442835Y-112961546D01*
X155442836Y-112961549D01*
X155448553Y-112980398D01*
X155450968Y-113004910D01*
X155450968Y-113995090D01*
X155450484Y-114000000D01*
X155448553Y-114019603D01*
X155442835Y-114038454D01*
X155442783Y-114038551D01*
X155433547Y-114055830D01*
X155421072Y-114071031D01*
X155421069Y-114071033D01*
X155421053Y-114071053D01*
X155405738Y-114083608D01*
X155405695Y-114083637D01*
X155401896Y-114086751D01*
X155394532Y-114091660D01*
X155379365Y-114104080D01*
X155366912Y-114119220D01*
X155357653Y-114136499D01*
X155351942Y-114155252D01*
X155350000Y-114174866D01*
X155350000Y-115050000D01*
X153850000Y-115050000D01*
X153850000Y-114174866D01*
X153848079Y-114155357D01*
X153842388Y-114136598D01*
X153833147Y-114119309D01*
X153820711Y-114104155D01*
X153805468Y-114091660D01*
X153798078Y-114086733D01*
X153779025Y-114071131D01*
X153779021Y-114071127D01*
X153766509Y-114055913D01*
X153757205Y-114038551D01*
X153751467Y-114019707D01*
X153749516Y-114000000D01*
X153749516Y-113999950D01*
X153749032Y-113995063D01*
X153749032Y-113004910D01*
X153751447Y-112980398D01*
X153757164Y-112961549D01*
X153757165Y-112961546D01*
X153766451Y-112944174D01*
X153766453Y-112944170D01*
X153778947Y-112928947D01*
X153794170Y-112916453D01*
X153797407Y-112914723D01*
X153811546Y-112907165D01*
X153830397Y-112901447D01*
X153835919Y-112900903D01*
X153854910Y-112899032D01*
X155345090Y-112899032D01*
X155364081Y-112900903D01*
X155364081Y-112900903D01*
G37*
G36*
X160714081Y-112900903D02*
X160719603Y-112901447D01*
X160738454Y-112907165D01*
X160752593Y-112914723D01*
X160755830Y-112916453D01*
X160771053Y-112928947D01*
X160783547Y-112944170D01*
X160783549Y-112944174D01*
X160792835Y-112961546D01*
X160792836Y-112961549D01*
X160798553Y-112980398D01*
X160800968Y-113004910D01*
X160800968Y-113995090D01*
X160800484Y-114000000D01*
X160798553Y-114019603D01*
X160792835Y-114038454D01*
X160792783Y-114038551D01*
X160783547Y-114055830D01*
X160771072Y-114071031D01*
X160771069Y-114071033D01*
X160771053Y-114071053D01*
X160755738Y-114083608D01*
X160755695Y-114083637D01*
X160751896Y-114086751D01*
X160744532Y-114091660D01*
X160729365Y-114104080D01*
X160716912Y-114119220D01*
X160707653Y-114136499D01*
X160701942Y-114155252D01*
X160700000Y-114174866D01*
X160700000Y-115050000D01*
X159200000Y-115050000D01*
X159200000Y-114174866D01*
X159198079Y-114155357D01*
X159192388Y-114136598D01*
X159183147Y-114119309D01*
X159170711Y-114104155D01*
X159155468Y-114091660D01*
X159148078Y-114086733D01*
X159129025Y-114071131D01*
X159129021Y-114071127D01*
X159116509Y-114055913D01*
X159107205Y-114038551D01*
X159101467Y-114019707D01*
X159099516Y-114000000D01*
X159099516Y-113999950D01*
X159099032Y-113995063D01*
X159099032Y-113004910D01*
X159101447Y-112980398D01*
X159107164Y-112961549D01*
X159107165Y-112961546D01*
X159116451Y-112944174D01*
X159116453Y-112944170D01*
X159128947Y-112928947D01*
X159144170Y-112916453D01*
X159147407Y-112914723D01*
X159161546Y-112907165D01*
X159180397Y-112901447D01*
X159185919Y-112900903D01*
X159204910Y-112899032D01*
X160695090Y-112899032D01*
X160714081Y-112900903D01*
X160714081Y-112900903D01*
G37*
G36*
X157864081Y-112900903D02*
X157869603Y-112901447D01*
X157888454Y-112907165D01*
X157902593Y-112914723D01*
X157905830Y-112916453D01*
X157921053Y-112928947D01*
X157933547Y-112944170D01*
X157933549Y-112944174D01*
X157942835Y-112961546D01*
X157942836Y-112961549D01*
X157948553Y-112980398D01*
X157950968Y-113004910D01*
X157950968Y-113995090D01*
X157950484Y-114000000D01*
X157948553Y-114019603D01*
X157942835Y-114038454D01*
X157942783Y-114038551D01*
X157933547Y-114055830D01*
X157921072Y-114071031D01*
X157921069Y-114071033D01*
X157921053Y-114071053D01*
X157905738Y-114083608D01*
X157905695Y-114083637D01*
X157901896Y-114086751D01*
X157894532Y-114091660D01*
X157879365Y-114104080D01*
X157866912Y-114119220D01*
X157857653Y-114136499D01*
X157851942Y-114155252D01*
X157850000Y-114174866D01*
X157850000Y-115050000D01*
X156350000Y-115050000D01*
X156350000Y-114174866D01*
X156348079Y-114155357D01*
X156342388Y-114136598D01*
X156333147Y-114119309D01*
X156320711Y-114104155D01*
X156305468Y-114091660D01*
X156298078Y-114086733D01*
X156279025Y-114071131D01*
X156279021Y-114071127D01*
X156266509Y-114055913D01*
X156257205Y-114038551D01*
X156251467Y-114019707D01*
X156249516Y-114000000D01*
X156249516Y-113999950D01*
X156249032Y-113995063D01*
X156249032Y-113004910D01*
X156251447Y-112980398D01*
X156257164Y-112961549D01*
X156257165Y-112961546D01*
X156266451Y-112944174D01*
X156266453Y-112944170D01*
X156278947Y-112928947D01*
X156294170Y-112916453D01*
X156297407Y-112914723D01*
X156311546Y-112907165D01*
X156330397Y-112901447D01*
X156335919Y-112900903D01*
X156354910Y-112899032D01*
X157845090Y-112899032D01*
X157864081Y-112900903D01*
X157864081Y-112900903D01*
G37*
G36*
X166688452Y-112886359D02*
X166728899Y-112890343D01*
X166784353Y-112907165D01*
X166910537Y-112945442D01*
X167077939Y-113034920D01*
X167224665Y-113155335D01*
X167345080Y-113302061D01*
X167434558Y-113469463D01*
X167458988Y-113550000D01*
X167489657Y-113651101D01*
X167489657Y-113651103D01*
X167508263Y-113840000D01*
X167492990Y-113995063D01*
X167489657Y-114028899D01*
X167466851Y-114104080D01*
X167434558Y-114210537D01*
X167345080Y-114377939D01*
X167224665Y-114524665D01*
X167077939Y-114645080D01*
X166910537Y-114734558D01*
X166813449Y-114764009D01*
X166728899Y-114789657D01*
X166688452Y-114793641D01*
X166587339Y-114803600D01*
X166492661Y-114803600D01*
X166391548Y-114793641D01*
X166351101Y-114789657D01*
X166266551Y-114764009D01*
X166169463Y-114734558D01*
X166002061Y-114645080D01*
X165855335Y-114524665D01*
X165734920Y-114377939D01*
X165645442Y-114210537D01*
X165613149Y-114104080D01*
X165590343Y-114028899D01*
X165587010Y-113995063D01*
X165571737Y-113840000D01*
X165590343Y-113651103D01*
X165590343Y-113651101D01*
X165621012Y-113550000D01*
X165645442Y-113469463D01*
X165734920Y-113302061D01*
X165855335Y-113155335D01*
X166002061Y-113034920D01*
X166169463Y-112945442D01*
X166295647Y-112907165D01*
X166351101Y-112890343D01*
X166391548Y-112886359D01*
X166492661Y-112876400D01*
X166587339Y-112876400D01*
X166688452Y-112886359D01*
X166688452Y-112886359D01*
G37*
G36*
X164148452Y-112886359D02*
X164188899Y-112890343D01*
X164244353Y-112907165D01*
X164370537Y-112945442D01*
X164537939Y-113034920D01*
X164684665Y-113155335D01*
X164805080Y-113302061D01*
X164894558Y-113469463D01*
X164918988Y-113550000D01*
X164949657Y-113651101D01*
X164949657Y-113651103D01*
X164968263Y-113840000D01*
X164952990Y-113995063D01*
X164949657Y-114028899D01*
X164926851Y-114104080D01*
X164894558Y-114210537D01*
X164805080Y-114377939D01*
X164684665Y-114524665D01*
X164537939Y-114645080D01*
X164370537Y-114734558D01*
X164273449Y-114764009D01*
X164188899Y-114789657D01*
X164148452Y-114793641D01*
X164047339Y-114803600D01*
X163952661Y-114803600D01*
X163851548Y-114793641D01*
X163811101Y-114789657D01*
X163726551Y-114764009D01*
X163629463Y-114734558D01*
X163462061Y-114645080D01*
X163315335Y-114524665D01*
X163194920Y-114377939D01*
X163105442Y-114210537D01*
X163073149Y-114104080D01*
X163050343Y-114028899D01*
X163047010Y-113995063D01*
X163031737Y-113840000D01*
X163050343Y-113651103D01*
X163050343Y-113651101D01*
X163081012Y-113550000D01*
X163105442Y-113469463D01*
X163194920Y-113302061D01*
X163315335Y-113155335D01*
X163462061Y-113034920D01*
X163629463Y-112945442D01*
X163755647Y-112907165D01*
X163811101Y-112890343D01*
X163851548Y-112886359D01*
X163952661Y-112876400D01*
X164047339Y-112876400D01*
X164148452Y-112886359D01*
X164148452Y-112886359D01*
G37*
G36*
X141620856Y-110442272D02*
X141821045Y-110525193D01*
X142001207Y-110645573D01*
X142154427Y-110798793D01*
X142274807Y-110978955D01*
X142357728Y-111179144D01*
X142400000Y-111391657D01*
X142400000Y-111608343D01*
X142357728Y-111820856D01*
X142274807Y-112021045D01*
X142154427Y-112201207D01*
X142001207Y-112354427D01*
X141821045Y-112474807D01*
X141620856Y-112557728D01*
X141408343Y-112600000D01*
X141191657Y-112600000D01*
X140979144Y-112557728D01*
X140778955Y-112474807D01*
X140598793Y-112354427D01*
X140445573Y-112201207D01*
X140325193Y-112021045D01*
X140242272Y-111820856D01*
X140200000Y-111608343D01*
X140200000Y-111391657D01*
X140242272Y-111179144D01*
X140325193Y-110978955D01*
X140445573Y-110798793D01*
X140598793Y-110645573D01*
X140778955Y-110525193D01*
X140979144Y-110442272D01*
X141191657Y-110400000D01*
X141408343Y-110400000D01*
X141620856Y-110442272D01*
X141620856Y-110442272D01*
G37*
G36*
X108220856Y-110242272D02*
X108421045Y-110325193D01*
X108601207Y-110445573D01*
X108754427Y-110598793D01*
X108874807Y-110778955D01*
X108957728Y-110979144D01*
X109000000Y-111191657D01*
X109000000Y-111408343D01*
X108957728Y-111620856D01*
X108874807Y-111821045D01*
X108754427Y-112001207D01*
X108601207Y-112154427D01*
X108421045Y-112274807D01*
X108220856Y-112357728D01*
X108008343Y-112400000D01*
X107791657Y-112400000D01*
X107579144Y-112357728D01*
X107378955Y-112274807D01*
X107198793Y-112154427D01*
X107045573Y-112001207D01*
X106925193Y-111821045D01*
X106842272Y-111620856D01*
X106800000Y-111408343D01*
X106800000Y-111191657D01*
X106842272Y-110979144D01*
X106925193Y-110778955D01*
X107045573Y-110598793D01*
X107198793Y-110445573D01*
X107378955Y-110325193D01*
X107579144Y-110242272D01*
X107791657Y-110200000D01*
X108008343Y-110200000D01*
X108220856Y-110242272D01*
X108220856Y-110242272D01*
G37*
G36*
X166688452Y-110346359D02*
X166728899Y-110350343D01*
X166813449Y-110375991D01*
X166910537Y-110405442D01*
X167077939Y-110494920D01*
X167224665Y-110615335D01*
X167345080Y-110762061D01*
X167434558Y-110929463D01*
X167449628Y-110979144D01*
X167489657Y-111111101D01*
X167489657Y-111111103D01*
X167508263Y-111300000D01*
X167497591Y-111408343D01*
X167489657Y-111488899D01*
X167464009Y-111573449D01*
X167434558Y-111670537D01*
X167345080Y-111837939D01*
X167224665Y-111984665D01*
X167077939Y-112105080D01*
X166910537Y-112194558D01*
X166813449Y-112224009D01*
X166728899Y-112249657D01*
X166688452Y-112253641D01*
X166587339Y-112263600D01*
X166492661Y-112263600D01*
X166391548Y-112253641D01*
X166351101Y-112249657D01*
X166266551Y-112224009D01*
X166169463Y-112194558D01*
X166002061Y-112105080D01*
X165855335Y-111984665D01*
X165734920Y-111837939D01*
X165645442Y-111670537D01*
X165615991Y-111573449D01*
X165590343Y-111488899D01*
X165582409Y-111408343D01*
X165571737Y-111300000D01*
X165590343Y-111111103D01*
X165590343Y-111111101D01*
X165630372Y-110979144D01*
X165645442Y-110929463D01*
X165734920Y-110762061D01*
X165855335Y-110615335D01*
X166002061Y-110494920D01*
X166169463Y-110405442D01*
X166266551Y-110375991D01*
X166351101Y-110350343D01*
X166391548Y-110346359D01*
X166492661Y-110336400D01*
X166587339Y-110336400D01*
X166688452Y-110346359D01*
X166688452Y-110346359D01*
G37*
G36*
X164963600Y-112263600D02*
X163036400Y-112263600D01*
X163036400Y-110336400D01*
X164963600Y-110336400D01*
X164963600Y-112263600D01*
X164963600Y-112263600D01*
G37*
G36*
X142820856Y-108242272D02*
X143021045Y-108325193D01*
X143201207Y-108445573D01*
X143354427Y-108598793D01*
X143474807Y-108778955D01*
X143557728Y-108979144D01*
X143600000Y-109191657D01*
X143600000Y-109408343D01*
X143557728Y-109620856D01*
X143474807Y-109821045D01*
X143354427Y-110001207D01*
X143201207Y-110154427D01*
X143021045Y-110274807D01*
X142820856Y-110357728D01*
X142608343Y-110400000D01*
X142391657Y-110400000D01*
X142179144Y-110357728D01*
X141978955Y-110274807D01*
X141798793Y-110154427D01*
X141645573Y-110001207D01*
X141525193Y-109821045D01*
X141442272Y-109620856D01*
X141400000Y-109408343D01*
X141400000Y-109191657D01*
X141442272Y-108979144D01*
X141525193Y-108778955D01*
X141645573Y-108598793D01*
X141798793Y-108445573D01*
X141978955Y-108325193D01*
X142179144Y-108242272D01*
X142391657Y-108200000D01*
X142608343Y-108200000D01*
X142820856Y-108242272D01*
X142820856Y-108242272D01*
G37*
G36*
X129162520Y-104934586D02*
X129162522Y-104934587D01*
X129162523Y-104934587D01*
X129326310Y-105002430D01*
X129473717Y-105100924D01*
X129599076Y-105226283D01*
X129697570Y-105373690D01*
X129765414Y-105537480D01*
X129800000Y-105711358D01*
X129800000Y-105888642D01*
X129765414Y-106062520D01*
X129697570Y-106226310D01*
X129599076Y-106373717D01*
X129473717Y-106499076D01*
X129326310Y-106597570D01*
X129162523Y-106665413D01*
X129162522Y-106665413D01*
X129162520Y-106665414D01*
X128988642Y-106700000D01*
X128811358Y-106700000D01*
X128637480Y-106665414D01*
X128637478Y-106665413D01*
X128637477Y-106665413D01*
X128473690Y-106597570D01*
X128326283Y-106499076D01*
X128200924Y-106373717D01*
X128102430Y-106226310D01*
X128034586Y-106062520D01*
X128000000Y-105888642D01*
X128000000Y-105711358D01*
X128034586Y-105537480D01*
X128102430Y-105373690D01*
X128200924Y-105226283D01*
X128326283Y-105100924D01*
X128473690Y-105002430D01*
X128637477Y-104934587D01*
X128637478Y-104934587D01*
X128637480Y-104934586D01*
X128811358Y-104900000D01*
X128988642Y-104900000D01*
X129162520Y-104934586D01*
X129162520Y-104934586D01*
G37*
G36*
X129162520Y-99934586D02*
X129162522Y-99934587D01*
X129162523Y-99934587D01*
X129326310Y-100002430D01*
X129473717Y-100100924D01*
X129599076Y-100226283D01*
X129697570Y-100373690D01*
X129765414Y-100537480D01*
X129800000Y-100711358D01*
X129800000Y-100888642D01*
X129765414Y-101062520D01*
X129697570Y-101226310D01*
X129599076Y-101373717D01*
X129473717Y-101499076D01*
X129326310Y-101597570D01*
X129162523Y-101665413D01*
X129162522Y-101665413D01*
X129162520Y-101665414D01*
X128988642Y-101700000D01*
X128811358Y-101700000D01*
X128637480Y-101665414D01*
X128637478Y-101665413D01*
X128637477Y-101665413D01*
X128473690Y-101597570D01*
X128326283Y-101499076D01*
X128200924Y-101373717D01*
X128102430Y-101226310D01*
X128034586Y-101062520D01*
X128000000Y-100888642D01*
X128000000Y-100711358D01*
X128034586Y-100537480D01*
X128102430Y-100373690D01*
X128200924Y-100226283D01*
X128326283Y-100100924D01*
X128473690Y-100002430D01*
X128637477Y-99934587D01*
X128637478Y-99934587D01*
X128637480Y-99934586D01*
X128811358Y-99900000D01*
X128988642Y-99900000D01*
X129162520Y-99934586D01*
X129162520Y-99934586D01*
G37*
G36*
X129145856Y-95817272D02*
X129346045Y-95900193D01*
X129526207Y-96020573D01*
X129679427Y-96173793D01*
X129799807Y-96353955D01*
X129882728Y-96554144D01*
X129925000Y-96766657D01*
X129925000Y-96983343D01*
X129882728Y-97195856D01*
X129799807Y-97396045D01*
X129679427Y-97576207D01*
X129526207Y-97729427D01*
X129346045Y-97849807D01*
X129145856Y-97932728D01*
X128933343Y-97975000D01*
X128716657Y-97975000D01*
X128504144Y-97932728D01*
X128303955Y-97849807D01*
X128123793Y-97729427D01*
X127970573Y-97576207D01*
X127850193Y-97396045D01*
X127767272Y-97195856D01*
X127725000Y-96983343D01*
X127725000Y-96766657D01*
X127767272Y-96554144D01*
X127850193Y-96353955D01*
X127970573Y-96173793D01*
X128123793Y-96020573D01*
X128303955Y-95900193D01*
X128504144Y-95817272D01*
X128716657Y-95775000D01*
X128933343Y-95775000D01*
X129145856Y-95817272D01*
X129145856Y-95817272D01*
G37*
G36*
X168014646Y-93669533D02*
X168269122Y-93746728D01*
X168503649Y-93872085D01*
X168709213Y-94040787D01*
X168877915Y-94246351D01*
X169003272Y-94480878D01*
X169080467Y-94735354D01*
X169106532Y-95000000D01*
X169080467Y-95264646D01*
X169003272Y-95519122D01*
X168877915Y-95753649D01*
X168709213Y-95959213D01*
X168503649Y-96127915D01*
X168269122Y-96253272D01*
X168014646Y-96330467D01*
X167816321Y-96350000D01*
X166183679Y-96350000D01*
X165985354Y-96330467D01*
X165730878Y-96253272D01*
X165496351Y-96127915D01*
X165290787Y-95959213D01*
X165122085Y-95753649D01*
X164996728Y-95519122D01*
X164919533Y-95264646D01*
X164893468Y-95000000D01*
X164919533Y-94735354D01*
X164996728Y-94480878D01*
X165122085Y-94246351D01*
X165290787Y-94040787D01*
X165496351Y-93872085D01*
X165730878Y-93746728D01*
X165985354Y-93669533D01*
X166183679Y-93650000D01*
X167816321Y-93650000D01*
X168014646Y-93669533D01*
X168014646Y-93669533D01*
G37*
G36*
X104014646Y-93669533D02*
X104269122Y-93746728D01*
X104503649Y-93872085D01*
X104709213Y-94040787D01*
X104877915Y-94246351D01*
X105003272Y-94480878D01*
X105080467Y-94735354D01*
X105106532Y-95000000D01*
X105080467Y-95264646D01*
X105003272Y-95519122D01*
X104877915Y-95753649D01*
X104709213Y-95959213D01*
X104503649Y-96127915D01*
X104269122Y-96253272D01*
X104014646Y-96330467D01*
X103816321Y-96350000D01*
X102183679Y-96350000D01*
X101985354Y-96330467D01*
X101730878Y-96253272D01*
X101496351Y-96127915D01*
X101290787Y-95959213D01*
X101122085Y-95753649D01*
X100996728Y-95519122D01*
X100919533Y-95264646D01*
X100893468Y-95000000D01*
X100919533Y-94735354D01*
X100996728Y-94480878D01*
X101122085Y-94246351D01*
X101290787Y-94040787D01*
X101496351Y-93872085D01*
X101730878Y-93746728D01*
X101985354Y-93669533D01*
X102183679Y-93650000D01*
X103816321Y-93650000D01*
X104014646Y-93669533D01*
X104014646Y-93669533D01*
G37*
G36*
X163000279Y-93713436D02*
X163054845Y-93718810D01*
X163299896Y-93793145D01*
X163382267Y-93837173D01*
X163525734Y-93913858D01*
X163525736Y-93913860D01*
X163723687Y-94076313D01*
X163859406Y-94241689D01*
X163886142Y-94274266D01*
X163962827Y-94417733D01*
X164006855Y-94500104D01*
X164081190Y-94745155D01*
X164081190Y-94745157D01*
X164106291Y-95000000D01*
X164085321Y-95212905D01*
X164081190Y-95254845D01*
X164006855Y-95499896D01*
X163962827Y-95582267D01*
X163886142Y-95725734D01*
X163886140Y-95725736D01*
X163723687Y-95923687D01*
X163558311Y-96059406D01*
X163525734Y-96086142D01*
X163382267Y-96162827D01*
X163299896Y-96206855D01*
X163054845Y-96281190D01*
X163000279Y-96286564D01*
X162863869Y-96300000D01*
X161136131Y-96300000D01*
X160999721Y-96286564D01*
X160945155Y-96281190D01*
X160700104Y-96206855D01*
X160617733Y-96162827D01*
X160474266Y-96086142D01*
X160441689Y-96059406D01*
X160276313Y-95923687D01*
X160113860Y-95725736D01*
X160113858Y-95725734D01*
X160037173Y-95582267D01*
X159993145Y-95499896D01*
X159918810Y-95254845D01*
X159914679Y-95212905D01*
X159893709Y-95000000D01*
X159918810Y-94745157D01*
X159918810Y-94745155D01*
X159993145Y-94500104D01*
X160037173Y-94417733D01*
X160113858Y-94274266D01*
X160140594Y-94241689D01*
X160276313Y-94076313D01*
X160474264Y-93913860D01*
X160474266Y-93913858D01*
X160617733Y-93837173D01*
X160700104Y-93793145D01*
X160945155Y-93718810D01*
X160999721Y-93713436D01*
X161136131Y-93700000D01*
X162863869Y-93700000D01*
X163000279Y-93713436D01*
X163000279Y-93713436D01*
G37*
G36*
X109000279Y-93713436D02*
X109054845Y-93718810D01*
X109299896Y-93793145D01*
X109382267Y-93837173D01*
X109525734Y-93913858D01*
X109525736Y-93913860D01*
X109723687Y-94076313D01*
X109859406Y-94241689D01*
X109886142Y-94274266D01*
X109962827Y-94417733D01*
X110006855Y-94500104D01*
X110081190Y-94745155D01*
X110081190Y-94745157D01*
X110106291Y-95000000D01*
X110085321Y-95212905D01*
X110081190Y-95254845D01*
X110006855Y-95499896D01*
X109962827Y-95582267D01*
X109886142Y-95725734D01*
X109886140Y-95725736D01*
X109723687Y-95923687D01*
X109558311Y-96059406D01*
X109525734Y-96086142D01*
X109382267Y-96162827D01*
X109299896Y-96206855D01*
X109054845Y-96281190D01*
X109000279Y-96286564D01*
X108863869Y-96300000D01*
X107136131Y-96300000D01*
X106999721Y-96286564D01*
X106945155Y-96281190D01*
X106700104Y-96206855D01*
X106617733Y-96162827D01*
X106474266Y-96086142D01*
X106441689Y-96059406D01*
X106276313Y-95923687D01*
X106113860Y-95725736D01*
X106113858Y-95725734D01*
X106037173Y-95582267D01*
X105993145Y-95499896D01*
X105918810Y-95254845D01*
X105914679Y-95212905D01*
X105893709Y-95000000D01*
X105918810Y-94745157D01*
X105918810Y-94745155D01*
X105993145Y-94500104D01*
X106037173Y-94417733D01*
X106113858Y-94274266D01*
X106140594Y-94241689D01*
X106276313Y-94076313D01*
X106474264Y-93913860D01*
X106474266Y-93913858D01*
X106617733Y-93837173D01*
X106700104Y-93793145D01*
X106945155Y-93718810D01*
X106999721Y-93713436D01*
X107136131Y-93700000D01*
X108863869Y-93700000D01*
X109000279Y-93713436D01*
X109000279Y-93713436D01*
G37*
G36*
X131620856Y-85942272D02*
X131821045Y-86025193D01*
X132001207Y-86145573D01*
X132154427Y-86298793D01*
X132274807Y-86478955D01*
X132357728Y-86679144D01*
X132400000Y-86891657D01*
X132400000Y-87108343D01*
X132357728Y-87320856D01*
X132274807Y-87521045D01*
X132154427Y-87701207D01*
X132001207Y-87854427D01*
X131821045Y-87974807D01*
X131620856Y-88057728D01*
X131408343Y-88100000D01*
X131191657Y-88100000D01*
X130979144Y-88057728D01*
X130778955Y-87974807D01*
X130598793Y-87854427D01*
X130445573Y-87701207D01*
X130325193Y-87521045D01*
X130242272Y-87320856D01*
X130200000Y-87108343D01*
X130200000Y-86891657D01*
X130242272Y-86679144D01*
X130325193Y-86478955D01*
X130445573Y-86298793D01*
X130598793Y-86145573D01*
X130778955Y-86025193D01*
X130979144Y-85942272D01*
X131191657Y-85900000D01*
X131408343Y-85900000D01*
X131620856Y-85942272D01*
X131620856Y-85942272D01*
G37*
G36*
X104014646Y-83669533D02*
X104269122Y-83746728D01*
X104503649Y-83872085D01*
X104709213Y-84040787D01*
X104877915Y-84246351D01*
X105003272Y-84480878D01*
X105080467Y-84735354D01*
X105106532Y-85000000D01*
X105080467Y-85264646D01*
X105003272Y-85519122D01*
X104877915Y-85753649D01*
X104709213Y-85959213D01*
X104503649Y-86127915D01*
X104269122Y-86253272D01*
X104014646Y-86330467D01*
X103816321Y-86350000D01*
X102183679Y-86350000D01*
X101985354Y-86330467D01*
X101730878Y-86253272D01*
X101496351Y-86127915D01*
X101290787Y-85959213D01*
X101122085Y-85753649D01*
X100996728Y-85519122D01*
X100919533Y-85264646D01*
X100893468Y-85000000D01*
X100919533Y-84735354D01*
X100996728Y-84480878D01*
X101122085Y-84246351D01*
X101290787Y-84040787D01*
X101496351Y-83872085D01*
X101730878Y-83746728D01*
X101985354Y-83669533D01*
X102183679Y-83650000D01*
X103816321Y-83650000D01*
X104014646Y-83669533D01*
X104014646Y-83669533D01*
G37*
G36*
X168014646Y-83669533D02*
X168269122Y-83746728D01*
X168503649Y-83872085D01*
X168709213Y-84040787D01*
X168877915Y-84246351D01*
X169003272Y-84480878D01*
X169080467Y-84735354D01*
X169106532Y-85000000D01*
X169080467Y-85264646D01*
X169003272Y-85519122D01*
X168877915Y-85753649D01*
X168709213Y-85959213D01*
X168503649Y-86127915D01*
X168269122Y-86253272D01*
X168014646Y-86330467D01*
X167816321Y-86350000D01*
X166183679Y-86350000D01*
X165985354Y-86330467D01*
X165730878Y-86253272D01*
X165496351Y-86127915D01*
X165290787Y-85959213D01*
X165122085Y-85753649D01*
X164996728Y-85519122D01*
X164919533Y-85264646D01*
X164893468Y-85000000D01*
X164919533Y-84735354D01*
X164996728Y-84480878D01*
X165122085Y-84246351D01*
X165290787Y-84040787D01*
X165496351Y-83872085D01*
X165730878Y-83746728D01*
X165985354Y-83669533D01*
X166183679Y-83650000D01*
X167816321Y-83650000D01*
X168014646Y-83669533D01*
X168014646Y-83669533D01*
G37*
G36*
X163000279Y-83713436D02*
X163054845Y-83718810D01*
X163299896Y-83793145D01*
X163382267Y-83837173D01*
X163525734Y-83913858D01*
X163525736Y-83913860D01*
X163723687Y-84076313D01*
X163859406Y-84241689D01*
X163886142Y-84274266D01*
X163962827Y-84417733D01*
X164006855Y-84500104D01*
X164081190Y-84745155D01*
X164081190Y-84745157D01*
X164106291Y-85000000D01*
X164085321Y-85212905D01*
X164081190Y-85254845D01*
X164006855Y-85499896D01*
X163962827Y-85582267D01*
X163886142Y-85725734D01*
X163886140Y-85725736D01*
X163723687Y-85923687D01*
X163558311Y-86059406D01*
X163525734Y-86086142D01*
X163414546Y-86145573D01*
X163299896Y-86206855D01*
X163054845Y-86281190D01*
X163000279Y-86286564D01*
X162863869Y-86300000D01*
X161136131Y-86300000D01*
X160999721Y-86286564D01*
X160945155Y-86281190D01*
X160700104Y-86206855D01*
X160585454Y-86145573D01*
X160474266Y-86086142D01*
X160441689Y-86059406D01*
X160276313Y-85923687D01*
X160113860Y-85725736D01*
X160113858Y-85725734D01*
X160037173Y-85582267D01*
X159993145Y-85499896D01*
X159918810Y-85254845D01*
X159914679Y-85212905D01*
X159893709Y-85000000D01*
X159918810Y-84745157D01*
X159918810Y-84745155D01*
X159993145Y-84500104D01*
X160037173Y-84417733D01*
X160113858Y-84274266D01*
X160140594Y-84241689D01*
X160276313Y-84076313D01*
X160474264Y-83913860D01*
X160474266Y-83913858D01*
X160617733Y-83837173D01*
X160700104Y-83793145D01*
X160945155Y-83718810D01*
X160999721Y-83713436D01*
X161136131Y-83700000D01*
X162863869Y-83700000D01*
X163000279Y-83713436D01*
X163000279Y-83713436D01*
G37*
G36*
X109000279Y-83713436D02*
X109054845Y-83718810D01*
X109299896Y-83793145D01*
X109382267Y-83837173D01*
X109525734Y-83913858D01*
X109525736Y-83913860D01*
X109723687Y-84076313D01*
X109859406Y-84241689D01*
X109886142Y-84274266D01*
X109962827Y-84417733D01*
X110006855Y-84500104D01*
X110081190Y-84745155D01*
X110081190Y-84745157D01*
X110106291Y-85000000D01*
X110085321Y-85212905D01*
X110081190Y-85254845D01*
X110006855Y-85499896D01*
X109962827Y-85582267D01*
X109886142Y-85725734D01*
X109886140Y-85725736D01*
X109723687Y-85923687D01*
X109558311Y-86059406D01*
X109525734Y-86086142D01*
X109414546Y-86145573D01*
X109299896Y-86206855D01*
X109054845Y-86281190D01*
X109000279Y-86286564D01*
X108863869Y-86300000D01*
X107136131Y-86300000D01*
X106999721Y-86286564D01*
X106945155Y-86281190D01*
X106700104Y-86206855D01*
X106585454Y-86145573D01*
X106474266Y-86086142D01*
X106441689Y-86059406D01*
X106276313Y-85923687D01*
X106113860Y-85725736D01*
X106113858Y-85725734D01*
X106037173Y-85582267D01*
X105993145Y-85499896D01*
X105918810Y-85254845D01*
X105914679Y-85212905D01*
X105893709Y-85000000D01*
X105918810Y-84745157D01*
X105918810Y-84745155D01*
X105993145Y-84500104D01*
X106037173Y-84417733D01*
X106113858Y-84274266D01*
X106140594Y-84241689D01*
X106276313Y-84076313D01*
X106474264Y-83913860D01*
X106474266Y-83913858D01*
X106617733Y-83837173D01*
X106700104Y-83793145D01*
X106945155Y-83718810D01*
X106999721Y-83713436D01*
X107136131Y-83700000D01*
X108863869Y-83700000D01*
X109000279Y-83713436D01*
X109000279Y-83713436D01*
G37*
G36*
X129162520Y-79234586D02*
X129162522Y-79234587D01*
X129162523Y-79234587D01*
X129326310Y-79302430D01*
X129473717Y-79400924D01*
X129599076Y-79526283D01*
X129697570Y-79673690D01*
X129765414Y-79837480D01*
X129800000Y-80011358D01*
X129800000Y-80188642D01*
X129765414Y-80362520D01*
X129697570Y-80526310D01*
X129599076Y-80673717D01*
X129473717Y-80799076D01*
X129326310Y-80897570D01*
X129162523Y-80965413D01*
X129162522Y-80965413D01*
X129162520Y-80965414D01*
X128988642Y-81000000D01*
X128811358Y-81000000D01*
X128637480Y-80965414D01*
X128637478Y-80965413D01*
X128637477Y-80965413D01*
X128473690Y-80897570D01*
X128326283Y-80799076D01*
X128200924Y-80673717D01*
X128102430Y-80526310D01*
X128034586Y-80362520D01*
X128000000Y-80188642D01*
X128000000Y-80011358D01*
X128034586Y-79837480D01*
X128102430Y-79673690D01*
X128200924Y-79526283D01*
X128326283Y-79400924D01*
X128473690Y-79302430D01*
X128637477Y-79234587D01*
X128637478Y-79234587D01*
X128637480Y-79234586D01*
X128811358Y-79200000D01*
X128988642Y-79200000D01*
X129162520Y-79234586D01*
X129162520Y-79234586D01*
G37*
G36*
X105495872Y-73865330D02*
X105495874Y-73865331D01*
X105495875Y-73865331D01*
X105556284Y-73890353D01*
X105805252Y-73993479D01*
X106083687Y-74179523D01*
X106320477Y-74416313D01*
X106506521Y-74694748D01*
X106634670Y-75004128D01*
X106700000Y-75332565D01*
X106700000Y-75667435D01*
X106634670Y-75995872D01*
X106506521Y-76305252D01*
X106320477Y-76583687D01*
X106083687Y-76820477D01*
X105805252Y-77006521D01*
X105556284Y-77109647D01*
X105495875Y-77134669D01*
X105495874Y-77134669D01*
X105495872Y-77134670D01*
X105167435Y-77200000D01*
X104832565Y-77200000D01*
X104504128Y-77134670D01*
X104504126Y-77134669D01*
X104504125Y-77134669D01*
X104443716Y-77109647D01*
X104194748Y-77006521D01*
X103916313Y-76820477D01*
X103679523Y-76583687D01*
X103493479Y-76305252D01*
X103365330Y-75995872D01*
X103300000Y-75667435D01*
X103300000Y-75332565D01*
X103365330Y-75004128D01*
X103493479Y-74694748D01*
X103679523Y-74416313D01*
X103916313Y-74179523D01*
X104194748Y-73993479D01*
X104443716Y-73890353D01*
X104504125Y-73865331D01*
X104504126Y-73865331D01*
X104504128Y-73865330D01*
X104832565Y-73800000D01*
X105167435Y-73800000D01*
X105495872Y-73865330D01*
X105495872Y-73865330D01*
G37*
G36*
X165495872Y-73865330D02*
X165495874Y-73865331D01*
X165495875Y-73865331D01*
X165556284Y-73890353D01*
X165805252Y-73993479D01*
X166083687Y-74179523D01*
X166320477Y-74416313D01*
X166506521Y-74694748D01*
X166634670Y-75004128D01*
X166700000Y-75332565D01*
X166700000Y-75667435D01*
X166634670Y-75995872D01*
X166506521Y-76305252D01*
X166320477Y-76583687D01*
X166083687Y-76820477D01*
X165805252Y-77006521D01*
X165556284Y-77109647D01*
X165495875Y-77134669D01*
X165495874Y-77134669D01*
X165495872Y-77134670D01*
X165167435Y-77200000D01*
X164832565Y-77200000D01*
X164504128Y-77134670D01*
X164504126Y-77134669D01*
X164504125Y-77134669D01*
X164443716Y-77109647D01*
X164194748Y-77006521D01*
X163916313Y-76820477D01*
X163679523Y-76583687D01*
X163493479Y-76305252D01*
X163365330Y-75995872D01*
X163300000Y-75667435D01*
X163300000Y-75332565D01*
X163365330Y-75004128D01*
X163493479Y-74694748D01*
X163679523Y-74416313D01*
X163916313Y-74179523D01*
X164194748Y-73993479D01*
X164443716Y-73890353D01*
X164504125Y-73865331D01*
X164504126Y-73865331D01*
X164504128Y-73865330D01*
X164832565Y-73800000D01*
X165167435Y-73800000D01*
X165495872Y-73865330D01*
X165495872Y-73865330D01*
G37*
G36*
X129162520Y-74234586D02*
X129162522Y-74234587D01*
X129162523Y-74234587D01*
X129326310Y-74302430D01*
X129473717Y-74400924D01*
X129599076Y-74526283D01*
X129697570Y-74673690D01*
X129765414Y-74837480D01*
X129800000Y-75011358D01*
X129800000Y-75188642D01*
X129765414Y-75362520D01*
X129697570Y-75526310D01*
X129599076Y-75673717D01*
X129473717Y-75799076D01*
X129326310Y-75897570D01*
X129162523Y-75965413D01*
X129162522Y-75965413D01*
X129162520Y-75965414D01*
X128988642Y-76000000D01*
X128811358Y-76000000D01*
X128637480Y-75965414D01*
X128637478Y-75965413D01*
X128637477Y-75965413D01*
X128473690Y-75897570D01*
X128326283Y-75799076D01*
X128200924Y-75673717D01*
X128102430Y-75526310D01*
X128034586Y-75362520D01*
X128000000Y-75188642D01*
X128000000Y-75011358D01*
X128034586Y-74837480D01*
X128102430Y-74673690D01*
X128200924Y-74526283D01*
X128326283Y-74400924D01*
X128473690Y-74302430D01*
X128637477Y-74234587D01*
X128637478Y-74234587D01*
X128637480Y-74234586D01*
X128811358Y-74200000D01*
X128988642Y-74200000D01*
X129162520Y-74234586D01*
X129162520Y-74234586D01*
G37*
M02*
