G04 #@! TF.GenerationSoftware,KiCad,Pcbnew,(5.0.2)-1*
G04 #@! TF.CreationDate,2019-05-09T17:57:12+02:00*
G04 #@! TF.ProjectId,SafetySupply,53616665-7479-4537-9570-706c792e6b69,rev?*
G04 #@! TF.SameCoordinates,Original*
G04 #@! TF.FileFunction,Copper,L2,Bot*
G04 #@! TF.FilePolarity,Positive*
%FSLAX46Y46*%
G04 Gerber Fmt 4.6, Leading zero omitted, Abs format (unit mm)*
G04 Created by KiCad (PCBNEW (5.0.2)-1) date 09.05.2019 17:57:12*
%MOMM*%
%LPD*%
G01*
G04 APERTURE LIST*
G04 #@! TA.AperFunction,ComponentPad*
%ADD10C,1.600000*%
G04 #@! TD*
G04 #@! TA.AperFunction,ComponentPad*
%ADD11O,2.000000X4.700000*%
G04 #@! TD*
G04 #@! TA.AperFunction,ComponentPad*
%ADD12O,2.000000X4.750000*%
G04 #@! TD*
G04 #@! TA.AperFunction,ComponentPad*
%ADD13C,2.000000*%
G04 #@! TD*
G04 #@! TA.AperFunction,ComponentPad*
%ADD14C,2.400000*%
G04 #@! TD*
G04 #@! TA.AperFunction,ComponentPad*
%ADD15R,2.600000X2.600000*%
G04 #@! TD*
G04 #@! TA.AperFunction,ComponentPad*
%ADD16C,2.600000*%
G04 #@! TD*
G04 #@! TA.AperFunction,ComponentPad*
%ADD17O,4.000000X2.500000*%
G04 #@! TD*
G04 #@! TA.AperFunction,ComponentPad*
%ADD18C,3.700000*%
G04 #@! TD*
G04 #@! TA.AperFunction,ViaPad*
%ADD19C,0.600000*%
G04 #@! TD*
G04 #@! TA.AperFunction,Conductor*
%ADD20C,4.000000*%
G04 #@! TD*
G04 #@! TA.AperFunction,Conductor*
%ADD21C,0.300000*%
G04 #@! TD*
G04 #@! TA.AperFunction,Conductor*
%ADD22C,0.500000*%
G04 #@! TD*
G04 #@! TA.AperFunction,Conductor*
%ADD23C,3.000000*%
G04 #@! TD*
G04 #@! TA.AperFunction,Conductor*
%ADD24C,0.250000*%
G04 #@! TD*
G04 APERTURE END LIST*
D10*
G04 #@! TO.P,C1,2*
G04 #@! TO.N,GND*
X143300000Y-94500000D03*
G04 #@! TO.P,C1,1*
G04 #@! TO.N,+12V*
X148300000Y-94500000D03*
G04 #@! TD*
D11*
G04 #@! TO.P,F1,2*
G04 #@! TO.N,Net-(F1-Pad2)*
X163080000Y-64428000D03*
D12*
X152920000Y-64428000D03*
D11*
G04 #@! TO.P,F1,1*
G04 #@! TO.N,Net-(F1-Pad1)*
X163080000Y-73572000D03*
D12*
X152920000Y-73572000D03*
G04 #@! TD*
D13*
G04 #@! TO.P,K1,4*
G04 #@! TO.N,Net-(D5-Pad2)*
X137500000Y-113110000D03*
G04 #@! TO.P,K1,3*
G04 #@! TO.N,+12V*
X137500000Y-110570000D03*
D14*
G04 #@! TO.P,K1,2*
G04 #@! TO.N,Net-(C3-Pad1)*
X137500000Y-100410000D03*
G04 #@! TO.P,K1,1*
G04 #@! TO.N,+12V*
X137500000Y-95330000D03*
G04 #@! TD*
D15*
G04 #@! TO.P,J5,1*
G04 #@! TO.N,+12V*
X160300000Y-97150000D03*
D16*
G04 #@! TO.P,J5,2*
G04 #@! TO.N,GND*
X155300000Y-100650000D03*
G04 #@! TD*
D15*
G04 #@! TO.P,J1,1*
G04 #@! TO.N,Net-(C3-Pad1)*
X160300000Y-114250000D03*
D16*
G04 #@! TO.P,J1,2*
G04 #@! TO.N,GND*
X155300000Y-117750000D03*
G04 #@! TD*
D15*
G04 #@! TO.P,J3,1*
G04 #@! TO.N,Net-(D5-Pad2)*
X160300000Y-105682000D03*
D16*
G04 #@! TO.P,J3,2*
G04 #@! TO.N,GND*
X155300000Y-109182000D03*
G04 #@! TD*
D17*
G04 #@! TO.P,SW1,0*
G04 #@! TO.N,GND*
X162530000Y-78435000D03*
X162530000Y-90565000D03*
D18*
G04 #@! TO.P,SW1,3*
G04 #@! TO.N,+12V*
X153000000Y-89200000D03*
G04 #@! TO.P,SW1,2*
G04 #@! TO.N,Net-(F1-Pad1)*
X153000000Y-84500000D03*
G04 #@! TO.P,SW1,1*
X153000000Y-79800000D03*
G04 #@! TD*
D16*
G04 #@! TO.P,J2,1*
G04 #@! TO.N,Net-(D1-Pad1)*
X138500000Y-63600000D03*
G04 #@! TD*
G04 #@! TO.P,J4,1*
G04 #@! TO.N,Net-(C4-Pad2)*
X138600000Y-70300000D03*
G04 #@! TD*
G04 #@! TO.P,J6,1*
G04 #@! TO.N,Net-(D7-Pad1)*
X138600000Y-73700000D03*
G04 #@! TD*
G04 #@! TO.P,J7,1*
G04 #@! TO.N,Net-(C5-Pad2)*
X138600000Y-80900000D03*
G04 #@! TD*
G04 #@! TO.P,J8,1*
G04 #@! TO.N,Net-(D8-Pad1)*
X138600000Y-84200000D03*
G04 #@! TD*
G04 #@! TO.P,J9,1*
G04 #@! TO.N,Net-(C6-Pad2)*
X138600000Y-91400000D03*
G04 #@! TD*
D19*
G04 #@! TO.N,GND*
X162000000Y-118000000D03*
X162000000Y-110000000D03*
X162000000Y-102000000D03*
X162000000Y-86000000D03*
X162000000Y-81000000D03*
X157000000Y-69000000D03*
X137000000Y-68000000D03*
X137000000Y-79000000D03*
X137000000Y-89000000D03*
X144000000Y-104000000D03*
X142000000Y-119000000D03*
X137300000Y-107800000D03*
G04 #@! TO.N,Net-(Q3-Pad1)*
X137500000Y-87300000D03*
X143500000Y-85700000D03*
G04 #@! TO.N,Net-(Q1-Pad1)*
X144000000Y-64500000D03*
X137500000Y-66200000D03*
G04 #@! TO.N,Net-(Q2-Pad1)*
X143600000Y-74900000D03*
X137500000Y-76800000D03*
G04 #@! TO.N,Net-(U1-Pad3)*
X147350000Y-71800040D03*
X147318646Y-65329720D03*
G04 #@! TO.N,Net-(U3-Pad3)*
X147400000Y-82600000D03*
X147300000Y-75800000D03*
G04 #@! TO.N,Net-(U5-Pad3)*
X147400000Y-86300000D03*
X146100000Y-92400000D03*
G04 #@! TD*
D20*
G04 #@! TO.N,GND*
X155300000Y-117650000D02*
X155300000Y-110900000D01*
X155300000Y-110900000D02*
X155300000Y-109182000D01*
D21*
G04 #@! TO.N,Net-(Q3-Pad1)*
X141900000Y-87300000D02*
X143500000Y-85700000D01*
X137500000Y-87300000D02*
X141900000Y-87300000D01*
G04 #@! TO.N,Net-(Q1-Pad1)*
X143600001Y-64899999D02*
X144000000Y-64500000D01*
X137500000Y-66200000D02*
X142300000Y-66200000D01*
X142300000Y-66200000D02*
X143600001Y-64899999D01*
D20*
G04 #@! TO.N,+12V*
X140270000Y-98100000D02*
X137500000Y-95330000D01*
D22*
X140270000Y-107800000D02*
X140270000Y-98100000D01*
X137500000Y-110570000D02*
X140270000Y-107800000D01*
D20*
X150800000Y-98100000D02*
X140270000Y-98100000D01*
X153000000Y-89200000D02*
X153000000Y-95900000D01*
X153000000Y-95900000D02*
X150800000Y-98100000D01*
D21*
G04 #@! TO.N,Net-(Q2-Pad1)*
X141700000Y-76800000D02*
X143600000Y-74900000D01*
X137500000Y-76800000D02*
X141700000Y-76800000D01*
G04 #@! TO.N,Net-(U1-Pad3)*
X147350000Y-65361074D02*
X147318646Y-65329720D01*
X147350000Y-71800040D02*
X147350000Y-65361074D01*
G04 #@! TO.N,Net-(U3-Pad3)*
X147300000Y-82500000D02*
X147400000Y-82600000D01*
X147300000Y-75800000D02*
X147300000Y-82500000D01*
G04 #@! TO.N,Net-(U5-Pad3)*
X146100000Y-87600000D02*
X146100000Y-92400000D01*
X147400000Y-86300000D02*
X146100000Y-87600000D01*
D22*
G04 #@! TO.N,Net-(D5-Pad2)*
X142390000Y-113110000D02*
X137500000Y-113110000D01*
X160300000Y-105682000D02*
X149818000Y-105682000D01*
X149818000Y-105682000D02*
X142390000Y-113110000D01*
D23*
G04 #@! TO.N,Net-(F1-Pad1)*
X152920000Y-83920000D02*
X153000000Y-84000000D01*
D20*
X152920000Y-84420000D02*
X153000000Y-84500000D01*
X152920000Y-73572000D02*
X152920000Y-84420000D01*
G04 #@! TD*
D24*
G04 #@! TO.N,GND*
G36*
X164550001Y-77357427D02*
X164517437Y-77303629D01*
X163990286Y-76916203D01*
X163355000Y-76760000D01*
X162605000Y-76760000D01*
X162605000Y-78360000D01*
X162625000Y-78360000D01*
X162625000Y-78510000D01*
X162605000Y-78510000D01*
X162605000Y-80110000D01*
X163355000Y-80110000D01*
X163990286Y-79953797D01*
X164517437Y-79566371D01*
X164550001Y-79512573D01*
X164550001Y-89487427D01*
X164517437Y-89433629D01*
X163990286Y-89046203D01*
X163355000Y-88890000D01*
X162605000Y-88890000D01*
X162605000Y-90490000D01*
X162625000Y-90490000D01*
X162625000Y-90640000D01*
X162605000Y-90640000D01*
X162605000Y-92240000D01*
X163355000Y-92240000D01*
X163990286Y-92083797D01*
X164517437Y-91696371D01*
X164550000Y-91642573D01*
X164550000Y-120550000D01*
X135450000Y-120550000D01*
X135450000Y-118970355D01*
X154185711Y-118970355D01*
X154327823Y-119215684D01*
X154962719Y-119476151D01*
X155648961Y-119473827D01*
X156272177Y-119215684D01*
X156414289Y-118970355D01*
X155300000Y-117856066D01*
X154185711Y-118970355D01*
X135450000Y-118970355D01*
X135450000Y-116706604D01*
X137525000Y-116706604D01*
X137525000Y-117293396D01*
X137749555Y-117835520D01*
X138164480Y-118250445D01*
X138706604Y-118475000D01*
X139293396Y-118475000D01*
X139835520Y-118250445D01*
X140250445Y-117835520D01*
X140425574Y-117412719D01*
X153573849Y-117412719D01*
X153576173Y-118098961D01*
X153834316Y-118722177D01*
X154079645Y-118864289D01*
X155193934Y-117750000D01*
X155406066Y-117750000D01*
X156520355Y-118864289D01*
X156765684Y-118722177D01*
X157026151Y-118087281D01*
X157023827Y-117401039D01*
X156765684Y-116777823D01*
X156520355Y-116635711D01*
X155406066Y-117750000D01*
X155193934Y-117750000D01*
X154079645Y-116635711D01*
X153834316Y-116777823D01*
X153573849Y-117412719D01*
X140425574Y-117412719D01*
X140475000Y-117293396D01*
X140475000Y-116706604D01*
X140401702Y-116529645D01*
X154185711Y-116529645D01*
X155300000Y-117643934D01*
X156414289Y-116529645D01*
X156272177Y-116284316D01*
X155637281Y-116023849D01*
X154951039Y-116026173D01*
X154327823Y-116284316D01*
X154185711Y-116529645D01*
X140401702Y-116529645D01*
X140250445Y-116164480D01*
X139835520Y-115749555D01*
X139293396Y-115525000D01*
X138706604Y-115525000D01*
X138164480Y-115749555D01*
X137749555Y-116164480D01*
X137525000Y-116706604D01*
X135450000Y-116706604D01*
X135450000Y-96536844D01*
X135655218Y-96843974D01*
X137646243Y-98835000D01*
X137186713Y-98835000D01*
X136607834Y-99074780D01*
X136164780Y-99517834D01*
X135925000Y-100096713D01*
X135925000Y-100723287D01*
X136164780Y-101302166D01*
X136607834Y-101745220D01*
X137186713Y-101985000D01*
X137813287Y-101985000D01*
X138392166Y-101745220D01*
X138835220Y-101302166D01*
X139075000Y-100723287D01*
X139075000Y-100157915D01*
X139343321Y-100337201D01*
X139645001Y-100397209D01*
X139645000Y-107541116D01*
X137927380Y-109258737D01*
X137773505Y-109195000D01*
X137226495Y-109195000D01*
X136721125Y-109404331D01*
X136334331Y-109791125D01*
X136125000Y-110296495D01*
X136125000Y-110843505D01*
X136334331Y-111348875D01*
X136721125Y-111735669D01*
X136973002Y-111840000D01*
X136721125Y-111944331D01*
X136334331Y-112331125D01*
X136125000Y-112836495D01*
X136125000Y-113383505D01*
X136334331Y-113888875D01*
X136721125Y-114275669D01*
X137226495Y-114485000D01*
X137773505Y-114485000D01*
X138278875Y-114275669D01*
X138665669Y-113888875D01*
X138729406Y-113735000D01*
X142328445Y-113735000D01*
X142390000Y-113747244D01*
X142451555Y-113735000D01*
X142633863Y-113698737D01*
X142840600Y-113560600D01*
X142875472Y-113508410D01*
X143433882Y-112950000D01*
X158617654Y-112950000D01*
X158617654Y-115550000D01*
X158646758Y-115696317D01*
X158729641Y-115820359D01*
X158853683Y-115903242D01*
X159000000Y-115932346D01*
X161600000Y-115932346D01*
X161746317Y-115903242D01*
X161870359Y-115820359D01*
X161953242Y-115696317D01*
X161982346Y-115550000D01*
X161982346Y-112950000D01*
X161953242Y-112803683D01*
X161870359Y-112679641D01*
X161746317Y-112596758D01*
X161600000Y-112567654D01*
X159000000Y-112567654D01*
X158853683Y-112596758D01*
X158729641Y-112679641D01*
X158646758Y-112803683D01*
X158617654Y-112950000D01*
X143433882Y-112950000D01*
X145981527Y-110402355D01*
X154185711Y-110402355D01*
X154327823Y-110647684D01*
X154962719Y-110908151D01*
X155648961Y-110905827D01*
X156272177Y-110647684D01*
X156414289Y-110402355D01*
X155300000Y-109288066D01*
X154185711Y-110402355D01*
X145981527Y-110402355D01*
X147539164Y-108844719D01*
X153573849Y-108844719D01*
X153576173Y-109530961D01*
X153834316Y-110154177D01*
X154079645Y-110296289D01*
X155193934Y-109182000D01*
X155406066Y-109182000D01*
X156520355Y-110296289D01*
X156765684Y-110154177D01*
X157026151Y-109519281D01*
X157023827Y-108833039D01*
X156765684Y-108209823D01*
X156520355Y-108067711D01*
X155406066Y-109182000D01*
X155193934Y-109182000D01*
X154079645Y-108067711D01*
X153834316Y-108209823D01*
X153573849Y-108844719D01*
X147539164Y-108844719D01*
X148422238Y-107961645D01*
X154185711Y-107961645D01*
X155300000Y-109075934D01*
X156414289Y-107961645D01*
X156272177Y-107716316D01*
X155637281Y-107455849D01*
X154951039Y-107458173D01*
X154327823Y-107716316D01*
X154185711Y-107961645D01*
X148422238Y-107961645D01*
X150076884Y-106307000D01*
X158617654Y-106307000D01*
X158617654Y-106982000D01*
X158646758Y-107128317D01*
X158729641Y-107252359D01*
X158853683Y-107335242D01*
X159000000Y-107364346D01*
X161600000Y-107364346D01*
X161746317Y-107335242D01*
X161870359Y-107252359D01*
X161953242Y-107128317D01*
X161982346Y-106982000D01*
X161982346Y-104382000D01*
X161953242Y-104235683D01*
X161870359Y-104111641D01*
X161746317Y-104028758D01*
X161600000Y-103999654D01*
X159000000Y-103999654D01*
X158853683Y-104028758D01*
X158729641Y-104111641D01*
X158646758Y-104235683D01*
X158617654Y-104382000D01*
X158617654Y-105057000D01*
X149879553Y-105057000D01*
X149817999Y-105044756D01*
X149756445Y-105057000D01*
X149574137Y-105093263D01*
X149367400Y-105231400D01*
X149332531Y-105283585D01*
X142131118Y-112485000D01*
X138729406Y-112485000D01*
X138665669Y-112331125D01*
X138278875Y-111944331D01*
X138026998Y-111840000D01*
X138278875Y-111735669D01*
X138665669Y-111348875D01*
X138875000Y-110843505D01*
X138875000Y-110296495D01*
X138811263Y-110142620D01*
X140668416Y-108285468D01*
X140720600Y-108250600D01*
X140858737Y-108043863D01*
X140895000Y-107861555D01*
X140895000Y-107861554D01*
X140907244Y-107800000D01*
X140895000Y-107738445D01*
X140895000Y-101870355D01*
X154185711Y-101870355D01*
X154327823Y-102115684D01*
X154962719Y-102376151D01*
X155648961Y-102373827D01*
X156272177Y-102115684D01*
X156414289Y-101870355D01*
X155300000Y-100756066D01*
X154185711Y-101870355D01*
X140895000Y-101870355D01*
X140895000Y-100475000D01*
X150566083Y-100475000D01*
X150800000Y-100521529D01*
X151033917Y-100475000D01*
X151726679Y-100337201D01*
X151763318Y-100312719D01*
X153573849Y-100312719D01*
X153576173Y-100998961D01*
X153834316Y-101622177D01*
X154079645Y-101764289D01*
X155193934Y-100650000D01*
X155406066Y-100650000D01*
X156520355Y-101764289D01*
X156765684Y-101622177D01*
X157026151Y-100987281D01*
X157023827Y-100301039D01*
X156765684Y-99677823D01*
X156520355Y-99535711D01*
X155406066Y-100650000D01*
X155193934Y-100650000D01*
X154079645Y-99535711D01*
X153834316Y-99677823D01*
X153573849Y-100312719D01*
X151763318Y-100312719D01*
X152512280Y-99812280D01*
X152644786Y-99613970D01*
X152829111Y-99429645D01*
X154185711Y-99429645D01*
X155300000Y-100543934D01*
X156414289Y-99429645D01*
X156272177Y-99184316D01*
X155637281Y-98923849D01*
X154951039Y-98926173D01*
X154327823Y-99184316D01*
X154185711Y-99429645D01*
X152829111Y-99429645D01*
X154513974Y-97744783D01*
X154712280Y-97612280D01*
X155237201Y-96826679D01*
X155375000Y-96133917D01*
X155421529Y-95900000D01*
X155411584Y-95850000D01*
X158617654Y-95850000D01*
X158617654Y-98450000D01*
X158646758Y-98596317D01*
X158729641Y-98720359D01*
X158853683Y-98803242D01*
X159000000Y-98832346D01*
X161600000Y-98832346D01*
X161746317Y-98803242D01*
X161870359Y-98720359D01*
X161953242Y-98596317D01*
X161982346Y-98450000D01*
X161982346Y-95850000D01*
X161953242Y-95703683D01*
X161870359Y-95579641D01*
X161746317Y-95496758D01*
X161600000Y-95467654D01*
X159000000Y-95467654D01*
X158853683Y-95496758D01*
X158729641Y-95579641D01*
X158646758Y-95703683D01*
X158617654Y-95850000D01*
X155411584Y-95850000D01*
X155375000Y-95666083D01*
X155375000Y-90900842D01*
X160139014Y-90900842D01*
X160203800Y-91136704D01*
X160542563Y-91696371D01*
X161069714Y-92083797D01*
X161705000Y-92240000D01*
X162455000Y-92240000D01*
X162455000Y-90640000D01*
X160213044Y-90640000D01*
X160139014Y-90900842D01*
X155375000Y-90900842D01*
X155375000Y-90229158D01*
X160139014Y-90229158D01*
X160213044Y-90490000D01*
X162455000Y-90490000D01*
X162455000Y-88890000D01*
X161705000Y-88890000D01*
X161069714Y-89046203D01*
X160542563Y-89433629D01*
X160203800Y-89993296D01*
X160139014Y-90229158D01*
X155375000Y-90229158D01*
X155375000Y-88966083D01*
X155237201Y-88273321D01*
X154712280Y-87487720D01*
X153926678Y-86962799D01*
X153359599Y-86850000D01*
X153926678Y-86737200D01*
X154712279Y-86212279D01*
X155237200Y-85426678D01*
X155421529Y-84499999D01*
X155295000Y-83863899D01*
X155295000Y-78770842D01*
X160139014Y-78770842D01*
X160203800Y-79006704D01*
X160542563Y-79566371D01*
X161069714Y-79953797D01*
X161705000Y-80110000D01*
X162455000Y-80110000D01*
X162455000Y-78510000D01*
X160213044Y-78510000D01*
X160139014Y-78770842D01*
X155295000Y-78770842D01*
X155295000Y-78099158D01*
X160139014Y-78099158D01*
X160213044Y-78360000D01*
X162455000Y-78360000D01*
X162455000Y-76760000D01*
X161705000Y-76760000D01*
X161069714Y-76916203D01*
X160542563Y-77303629D01*
X160203800Y-77863296D01*
X160139014Y-78099158D01*
X155295000Y-78099158D01*
X155295000Y-73338083D01*
X155157201Y-72645321D01*
X154783863Y-72086579D01*
X161705000Y-72086579D01*
X161705001Y-75057422D01*
X161784780Y-75458498D01*
X162088682Y-75913319D01*
X162543503Y-76217221D01*
X163080000Y-76323937D01*
X163616498Y-76217221D01*
X164071319Y-75913319D01*
X164375221Y-75458498D01*
X164455000Y-75057422D01*
X164455000Y-72086578D01*
X164375221Y-71685502D01*
X164071318Y-71230681D01*
X163616497Y-70926779D01*
X163080000Y-70820063D01*
X162543502Y-70926779D01*
X162088681Y-71230682D01*
X161784779Y-71685503D01*
X161705000Y-72086579D01*
X154783863Y-72086579D01*
X154632280Y-71859720D01*
X154119314Y-71516968D01*
X153911318Y-71205681D01*
X153456497Y-70901779D01*
X152920000Y-70795063D01*
X152383502Y-70901779D01*
X151928681Y-71205682D01*
X151720687Y-71516967D01*
X151207720Y-71859720D01*
X150682799Y-72645322D01*
X150545000Y-73338084D01*
X150545001Y-84186078D01*
X150498471Y-84420000D01*
X150682799Y-85346678D01*
X150756116Y-85456405D01*
X151207721Y-86132280D01*
X151406029Y-86264785D01*
X151486026Y-86344782D01*
X152073321Y-86737200D01*
X152640400Y-86850000D01*
X152073321Y-86962799D01*
X151287720Y-87487720D01*
X150762799Y-88273322D01*
X150625000Y-88966084D01*
X150625001Y-94916242D01*
X149816243Y-95725000D01*
X143312720Y-95725000D01*
X143569111Y-95719662D01*
X143972142Y-95552722D01*
X144053270Y-95359336D01*
X143300000Y-94606066D01*
X142546730Y-95359336D01*
X142627858Y-95552722D01*
X143069560Y-95725000D01*
X141253757Y-95725000D01*
X139810639Y-94281882D01*
X142070194Y-94281882D01*
X142080338Y-94769111D01*
X142247278Y-95172142D01*
X142440664Y-95253270D01*
X143193934Y-94500000D01*
X143406066Y-94500000D01*
X144159336Y-95253270D01*
X144352722Y-95172142D01*
X144529806Y-94718118D01*
X144520399Y-94266278D01*
X147125000Y-94266278D01*
X147125000Y-94733722D01*
X147303883Y-95165584D01*
X147634416Y-95496117D01*
X148066278Y-95675000D01*
X148533722Y-95675000D01*
X148965584Y-95496117D01*
X149296117Y-95165584D01*
X149475000Y-94733722D01*
X149475000Y-94266278D01*
X149296117Y-93834416D01*
X148965584Y-93503883D01*
X148533722Y-93325000D01*
X148066278Y-93325000D01*
X147634416Y-93503883D01*
X147303883Y-93834416D01*
X147125000Y-94266278D01*
X144520399Y-94266278D01*
X144519662Y-94230889D01*
X144352722Y-93827858D01*
X144159336Y-93746730D01*
X143406066Y-94500000D01*
X143193934Y-94500000D01*
X142440664Y-93746730D01*
X142247278Y-93827858D01*
X142070194Y-94281882D01*
X139810639Y-94281882D01*
X139169421Y-93640664D01*
X142546730Y-93640664D01*
X143300000Y-94393934D01*
X144053270Y-93640664D01*
X143972142Y-93447278D01*
X143518118Y-93270194D01*
X143030889Y-93280338D01*
X142627858Y-93447278D01*
X142546730Y-93640664D01*
X139169421Y-93640664D01*
X139013974Y-93485218D01*
X138426678Y-93092799D01*
X138337197Y-93075000D01*
X138933178Y-93075000D01*
X139548811Y-92819996D01*
X140019996Y-92348811D01*
X140054407Y-92265734D01*
X145425000Y-92265734D01*
X145425000Y-92534266D01*
X145527763Y-92782357D01*
X145717643Y-92972237D01*
X145965734Y-93075000D01*
X146234266Y-93075000D01*
X146482357Y-92972237D01*
X146672237Y-92782357D01*
X146775000Y-92534266D01*
X146775000Y-92265734D01*
X146672237Y-92017643D01*
X146625000Y-91970406D01*
X146625000Y-87817461D01*
X147467462Y-86975000D01*
X147534266Y-86975000D01*
X147782357Y-86872237D01*
X147972237Y-86682357D01*
X148075000Y-86434266D01*
X148075000Y-86165734D01*
X147972237Y-85917643D01*
X147782357Y-85727763D01*
X147534266Y-85625000D01*
X147265734Y-85625000D01*
X147017643Y-85727763D01*
X146827763Y-85917643D01*
X146725000Y-86165734D01*
X146725000Y-86232538D01*
X145765336Y-87192203D01*
X145721496Y-87221496D01*
X145605462Y-87395155D01*
X145605461Y-87395156D01*
X145564715Y-87600000D01*
X145575000Y-87651706D01*
X145575001Y-91970405D01*
X145527763Y-92017643D01*
X145425000Y-92265734D01*
X140054407Y-92265734D01*
X140275000Y-91733178D01*
X140275000Y-91066822D01*
X140019996Y-90451189D01*
X139548811Y-89980004D01*
X138933178Y-89725000D01*
X138266822Y-89725000D01*
X137651189Y-89980004D01*
X137180004Y-90451189D01*
X136925000Y-91066822D01*
X136925000Y-91733178D01*
X137180004Y-92348811D01*
X137651189Y-92819996D01*
X138201804Y-93048069D01*
X137500000Y-92908471D01*
X136573322Y-93092799D01*
X135787721Y-93617721D01*
X135450000Y-94123156D01*
X135450000Y-87165734D01*
X136825000Y-87165734D01*
X136825000Y-87434266D01*
X136927763Y-87682357D01*
X137117643Y-87872237D01*
X137365734Y-87975000D01*
X137634266Y-87975000D01*
X137882357Y-87872237D01*
X137929594Y-87825000D01*
X141848294Y-87825000D01*
X141900000Y-87835285D01*
X141951706Y-87825000D01*
X142104845Y-87794539D01*
X142278504Y-87678504D01*
X142307797Y-87634664D01*
X143567462Y-86375000D01*
X143634266Y-86375000D01*
X143882357Y-86272237D01*
X144072237Y-86082357D01*
X144175000Y-85834266D01*
X144175000Y-85565734D01*
X144072237Y-85317643D01*
X143882357Y-85127763D01*
X143634266Y-85025000D01*
X143365734Y-85025000D01*
X143117643Y-85127763D01*
X142927763Y-85317643D01*
X142825000Y-85565734D01*
X142825000Y-85632538D01*
X141682539Y-86775000D01*
X137929594Y-86775000D01*
X137882357Y-86727763D01*
X137634266Y-86625000D01*
X137365734Y-86625000D01*
X137117643Y-86727763D01*
X136927763Y-86917643D01*
X136825000Y-87165734D01*
X135450000Y-87165734D01*
X135450000Y-80566822D01*
X136925000Y-80566822D01*
X136925000Y-81233178D01*
X137180004Y-81848811D01*
X137651189Y-82319996D01*
X138206467Y-82550000D01*
X137651189Y-82780004D01*
X137180004Y-83251189D01*
X136925000Y-83866822D01*
X136925000Y-84533178D01*
X137180004Y-85148811D01*
X137651189Y-85619996D01*
X138266822Y-85875000D01*
X138933178Y-85875000D01*
X139548811Y-85619996D01*
X140019996Y-85148811D01*
X140275000Y-84533178D01*
X140275000Y-83866822D01*
X140019996Y-83251189D01*
X139548811Y-82780004D01*
X138993533Y-82550000D01*
X139548811Y-82319996D01*
X140019996Y-81848811D01*
X140275000Y-81233178D01*
X140275000Y-80566822D01*
X140019996Y-79951189D01*
X139548811Y-79480004D01*
X138933178Y-79225000D01*
X138266822Y-79225000D01*
X137651189Y-79480004D01*
X137180004Y-79951189D01*
X136925000Y-80566822D01*
X135450000Y-80566822D01*
X135450000Y-76665734D01*
X136825000Y-76665734D01*
X136825000Y-76934266D01*
X136927763Y-77182357D01*
X137117643Y-77372237D01*
X137365734Y-77475000D01*
X137634266Y-77475000D01*
X137882357Y-77372237D01*
X137929594Y-77325000D01*
X141648294Y-77325000D01*
X141700000Y-77335285D01*
X141751706Y-77325000D01*
X141904845Y-77294539D01*
X142078504Y-77178504D01*
X142107797Y-77134664D01*
X143576727Y-75665734D01*
X146625000Y-75665734D01*
X146625000Y-75934266D01*
X146727763Y-76182357D01*
X146775000Y-76229594D01*
X146775001Y-82345021D01*
X146725000Y-82465734D01*
X146725000Y-82734266D01*
X146827763Y-82982357D01*
X147017643Y-83172237D01*
X147265734Y-83275000D01*
X147534266Y-83275000D01*
X147782357Y-83172237D01*
X147972237Y-82982357D01*
X148075000Y-82734266D01*
X148075000Y-82465734D01*
X147972237Y-82217643D01*
X147825000Y-82070406D01*
X147825000Y-76229594D01*
X147872237Y-76182357D01*
X147975000Y-75934266D01*
X147975000Y-75665734D01*
X147872237Y-75417643D01*
X147682357Y-75227763D01*
X147434266Y-75125000D01*
X147165734Y-75125000D01*
X146917643Y-75227763D01*
X146727763Y-75417643D01*
X146625000Y-75665734D01*
X143576727Y-75665734D01*
X143667462Y-75575000D01*
X143734266Y-75575000D01*
X143982357Y-75472237D01*
X144172237Y-75282357D01*
X144275000Y-75034266D01*
X144275000Y-74765734D01*
X144172237Y-74517643D01*
X143982357Y-74327763D01*
X143734266Y-74225000D01*
X143465734Y-74225000D01*
X143217643Y-74327763D01*
X143027763Y-74517643D01*
X142925000Y-74765734D01*
X142925000Y-74832538D01*
X141482539Y-76275000D01*
X137929594Y-76275000D01*
X137882357Y-76227763D01*
X137634266Y-76125000D01*
X137365734Y-76125000D01*
X137117643Y-76227763D01*
X136927763Y-76417643D01*
X136825000Y-76665734D01*
X135450000Y-76665734D01*
X135450000Y-73366822D01*
X136925000Y-73366822D01*
X136925000Y-74033178D01*
X137180004Y-74648811D01*
X137651189Y-75119996D01*
X138266822Y-75375000D01*
X138933178Y-75375000D01*
X139548811Y-75119996D01*
X140019996Y-74648811D01*
X140275000Y-74033178D01*
X140275000Y-73366822D01*
X140019996Y-72751189D01*
X139548811Y-72280004D01*
X138933178Y-72025000D01*
X138266822Y-72025000D01*
X137651189Y-72280004D01*
X137180004Y-72751189D01*
X136925000Y-73366822D01*
X135450000Y-73366822D01*
X135450000Y-69966822D01*
X136925000Y-69966822D01*
X136925000Y-70633178D01*
X137180004Y-71248811D01*
X137651189Y-71719996D01*
X138266822Y-71975000D01*
X138933178Y-71975000D01*
X139548811Y-71719996D01*
X140019996Y-71248811D01*
X140275000Y-70633178D01*
X140275000Y-69966822D01*
X140019996Y-69351189D01*
X139548811Y-68880004D01*
X138933178Y-68625000D01*
X138266822Y-68625000D01*
X137651189Y-68880004D01*
X137180004Y-69351189D01*
X136925000Y-69966822D01*
X135450000Y-69966822D01*
X135450000Y-66065734D01*
X136825000Y-66065734D01*
X136825000Y-66334266D01*
X136927763Y-66582357D01*
X137117643Y-66772237D01*
X137365734Y-66875000D01*
X137634266Y-66875000D01*
X137882357Y-66772237D01*
X137929594Y-66725000D01*
X142248294Y-66725000D01*
X142300000Y-66735285D01*
X142351706Y-66725000D01*
X142504845Y-66694539D01*
X142678504Y-66578504D01*
X142707797Y-66534664D01*
X144007793Y-65234669D01*
X144007795Y-65234666D01*
X144047007Y-65195454D01*
X146643646Y-65195454D01*
X146643646Y-65463986D01*
X146746409Y-65712077D01*
X146825001Y-65790669D01*
X146825000Y-71370446D01*
X146777763Y-71417683D01*
X146675000Y-71665774D01*
X146675000Y-71934306D01*
X146777763Y-72182397D01*
X146967643Y-72372277D01*
X147215734Y-72475040D01*
X147484266Y-72475040D01*
X147732357Y-72372277D01*
X147922237Y-72182397D01*
X148025000Y-71934306D01*
X148025000Y-71665774D01*
X147922237Y-71417683D01*
X147875000Y-71370446D01*
X147875000Y-68706604D01*
X149525000Y-68706604D01*
X149525000Y-69293396D01*
X149749555Y-69835520D01*
X150164480Y-70250445D01*
X150706604Y-70475000D01*
X151293396Y-70475000D01*
X151835520Y-70250445D01*
X152250445Y-69835520D01*
X152475000Y-69293396D01*
X152475000Y-68706604D01*
X152250445Y-68164480D01*
X151835520Y-67749555D01*
X151293396Y-67525000D01*
X150706604Y-67525000D01*
X150164480Y-67749555D01*
X149749555Y-68164480D01*
X149525000Y-68706604D01*
X147875000Y-68706604D01*
X147875000Y-65727960D01*
X147890883Y-65712077D01*
X147993646Y-65463986D01*
X147993646Y-65195454D01*
X147890883Y-64947363D01*
X147701003Y-64757483D01*
X147452912Y-64654720D01*
X147184380Y-64654720D01*
X146936289Y-64757483D01*
X146746409Y-64947363D01*
X146643646Y-65195454D01*
X144047007Y-65195454D01*
X144067461Y-65175000D01*
X144134266Y-65175000D01*
X144382357Y-65072237D01*
X144572237Y-64882357D01*
X144675000Y-64634266D01*
X144675000Y-64365734D01*
X144572237Y-64117643D01*
X144382357Y-63927763D01*
X144134266Y-63825000D01*
X143865734Y-63825000D01*
X143617643Y-63927763D01*
X143427763Y-64117643D01*
X143325000Y-64365734D01*
X143325000Y-64432539D01*
X143265334Y-64492205D01*
X143265331Y-64492207D01*
X142082539Y-65675000D01*
X137929594Y-65675000D01*
X137882357Y-65627763D01*
X137634266Y-65525000D01*
X137365734Y-65525000D01*
X137117643Y-65627763D01*
X136927763Y-65817643D01*
X136825000Y-66065734D01*
X135450000Y-66065734D01*
X135450000Y-63266822D01*
X136825000Y-63266822D01*
X136825000Y-63933178D01*
X137080004Y-64548811D01*
X137551189Y-65019996D01*
X138166822Y-65275000D01*
X138833178Y-65275000D01*
X139448811Y-65019996D01*
X139919996Y-64548811D01*
X140175000Y-63933178D01*
X140175000Y-63266822D01*
X140030339Y-62917579D01*
X151545000Y-62917579D01*
X151545001Y-65938422D01*
X151624780Y-66339498D01*
X151928682Y-66794319D01*
X152383503Y-67098221D01*
X152920000Y-67204937D01*
X153456498Y-67098221D01*
X153911319Y-66794319D01*
X154215221Y-66339498D01*
X154295000Y-65938422D01*
X154295000Y-62942579D01*
X161705000Y-62942579D01*
X161705001Y-65913422D01*
X161784780Y-66314498D01*
X162088682Y-66769319D01*
X162543503Y-67073221D01*
X163080000Y-67179937D01*
X163616498Y-67073221D01*
X164071319Y-66769319D01*
X164375221Y-66314498D01*
X164455000Y-65913422D01*
X164455000Y-62942578D01*
X164375221Y-62541502D01*
X164071318Y-62086681D01*
X163616497Y-61782779D01*
X163080000Y-61676063D01*
X162543502Y-61782779D01*
X162088681Y-62086682D01*
X161784779Y-62541503D01*
X161705000Y-62942579D01*
X154295000Y-62942579D01*
X154295000Y-62917578D01*
X154215221Y-62516502D01*
X153911318Y-62061681D01*
X153456497Y-61757779D01*
X152920000Y-61651063D01*
X152383502Y-61757779D01*
X151928681Y-62061682D01*
X151624779Y-62516503D01*
X151545000Y-62917579D01*
X140030339Y-62917579D01*
X139919996Y-62651189D01*
X139448811Y-62180004D01*
X138833178Y-61925000D01*
X138166822Y-61925000D01*
X137551189Y-62180004D01*
X137080004Y-62651189D01*
X136825000Y-63266822D01*
X135450000Y-63266822D01*
X135450000Y-61450000D01*
X164550001Y-61450000D01*
X164550001Y-77357427D01*
X164550001Y-77357427D01*
G37*
X164550001Y-77357427D02*
X164517437Y-77303629D01*
X163990286Y-76916203D01*
X163355000Y-76760000D01*
X162605000Y-76760000D01*
X162605000Y-78360000D01*
X162625000Y-78360000D01*
X162625000Y-78510000D01*
X162605000Y-78510000D01*
X162605000Y-80110000D01*
X163355000Y-80110000D01*
X163990286Y-79953797D01*
X164517437Y-79566371D01*
X164550001Y-79512573D01*
X164550001Y-89487427D01*
X164517437Y-89433629D01*
X163990286Y-89046203D01*
X163355000Y-88890000D01*
X162605000Y-88890000D01*
X162605000Y-90490000D01*
X162625000Y-90490000D01*
X162625000Y-90640000D01*
X162605000Y-90640000D01*
X162605000Y-92240000D01*
X163355000Y-92240000D01*
X163990286Y-92083797D01*
X164517437Y-91696371D01*
X164550000Y-91642573D01*
X164550000Y-120550000D01*
X135450000Y-120550000D01*
X135450000Y-118970355D01*
X154185711Y-118970355D01*
X154327823Y-119215684D01*
X154962719Y-119476151D01*
X155648961Y-119473827D01*
X156272177Y-119215684D01*
X156414289Y-118970355D01*
X155300000Y-117856066D01*
X154185711Y-118970355D01*
X135450000Y-118970355D01*
X135450000Y-116706604D01*
X137525000Y-116706604D01*
X137525000Y-117293396D01*
X137749555Y-117835520D01*
X138164480Y-118250445D01*
X138706604Y-118475000D01*
X139293396Y-118475000D01*
X139835520Y-118250445D01*
X140250445Y-117835520D01*
X140425574Y-117412719D01*
X153573849Y-117412719D01*
X153576173Y-118098961D01*
X153834316Y-118722177D01*
X154079645Y-118864289D01*
X155193934Y-117750000D01*
X155406066Y-117750000D01*
X156520355Y-118864289D01*
X156765684Y-118722177D01*
X157026151Y-118087281D01*
X157023827Y-117401039D01*
X156765684Y-116777823D01*
X156520355Y-116635711D01*
X155406066Y-117750000D01*
X155193934Y-117750000D01*
X154079645Y-116635711D01*
X153834316Y-116777823D01*
X153573849Y-117412719D01*
X140425574Y-117412719D01*
X140475000Y-117293396D01*
X140475000Y-116706604D01*
X140401702Y-116529645D01*
X154185711Y-116529645D01*
X155300000Y-117643934D01*
X156414289Y-116529645D01*
X156272177Y-116284316D01*
X155637281Y-116023849D01*
X154951039Y-116026173D01*
X154327823Y-116284316D01*
X154185711Y-116529645D01*
X140401702Y-116529645D01*
X140250445Y-116164480D01*
X139835520Y-115749555D01*
X139293396Y-115525000D01*
X138706604Y-115525000D01*
X138164480Y-115749555D01*
X137749555Y-116164480D01*
X137525000Y-116706604D01*
X135450000Y-116706604D01*
X135450000Y-96536844D01*
X135655218Y-96843974D01*
X137646243Y-98835000D01*
X137186713Y-98835000D01*
X136607834Y-99074780D01*
X136164780Y-99517834D01*
X135925000Y-100096713D01*
X135925000Y-100723287D01*
X136164780Y-101302166D01*
X136607834Y-101745220D01*
X137186713Y-101985000D01*
X137813287Y-101985000D01*
X138392166Y-101745220D01*
X138835220Y-101302166D01*
X139075000Y-100723287D01*
X139075000Y-100157915D01*
X139343321Y-100337201D01*
X139645001Y-100397209D01*
X139645000Y-107541116D01*
X137927380Y-109258737D01*
X137773505Y-109195000D01*
X137226495Y-109195000D01*
X136721125Y-109404331D01*
X136334331Y-109791125D01*
X136125000Y-110296495D01*
X136125000Y-110843505D01*
X136334331Y-111348875D01*
X136721125Y-111735669D01*
X136973002Y-111840000D01*
X136721125Y-111944331D01*
X136334331Y-112331125D01*
X136125000Y-112836495D01*
X136125000Y-113383505D01*
X136334331Y-113888875D01*
X136721125Y-114275669D01*
X137226495Y-114485000D01*
X137773505Y-114485000D01*
X138278875Y-114275669D01*
X138665669Y-113888875D01*
X138729406Y-113735000D01*
X142328445Y-113735000D01*
X142390000Y-113747244D01*
X142451555Y-113735000D01*
X142633863Y-113698737D01*
X142840600Y-113560600D01*
X142875472Y-113508410D01*
X143433882Y-112950000D01*
X158617654Y-112950000D01*
X158617654Y-115550000D01*
X158646758Y-115696317D01*
X158729641Y-115820359D01*
X158853683Y-115903242D01*
X159000000Y-115932346D01*
X161600000Y-115932346D01*
X161746317Y-115903242D01*
X161870359Y-115820359D01*
X161953242Y-115696317D01*
X161982346Y-115550000D01*
X161982346Y-112950000D01*
X161953242Y-112803683D01*
X161870359Y-112679641D01*
X161746317Y-112596758D01*
X161600000Y-112567654D01*
X159000000Y-112567654D01*
X158853683Y-112596758D01*
X158729641Y-112679641D01*
X158646758Y-112803683D01*
X158617654Y-112950000D01*
X143433882Y-112950000D01*
X145981527Y-110402355D01*
X154185711Y-110402355D01*
X154327823Y-110647684D01*
X154962719Y-110908151D01*
X155648961Y-110905827D01*
X156272177Y-110647684D01*
X156414289Y-110402355D01*
X155300000Y-109288066D01*
X154185711Y-110402355D01*
X145981527Y-110402355D01*
X147539164Y-108844719D01*
X153573849Y-108844719D01*
X153576173Y-109530961D01*
X153834316Y-110154177D01*
X154079645Y-110296289D01*
X155193934Y-109182000D01*
X155406066Y-109182000D01*
X156520355Y-110296289D01*
X156765684Y-110154177D01*
X157026151Y-109519281D01*
X157023827Y-108833039D01*
X156765684Y-108209823D01*
X156520355Y-108067711D01*
X155406066Y-109182000D01*
X155193934Y-109182000D01*
X154079645Y-108067711D01*
X153834316Y-108209823D01*
X153573849Y-108844719D01*
X147539164Y-108844719D01*
X148422238Y-107961645D01*
X154185711Y-107961645D01*
X155300000Y-109075934D01*
X156414289Y-107961645D01*
X156272177Y-107716316D01*
X155637281Y-107455849D01*
X154951039Y-107458173D01*
X154327823Y-107716316D01*
X154185711Y-107961645D01*
X148422238Y-107961645D01*
X150076884Y-106307000D01*
X158617654Y-106307000D01*
X158617654Y-106982000D01*
X158646758Y-107128317D01*
X158729641Y-107252359D01*
X158853683Y-107335242D01*
X159000000Y-107364346D01*
X161600000Y-107364346D01*
X161746317Y-107335242D01*
X161870359Y-107252359D01*
X161953242Y-107128317D01*
X161982346Y-106982000D01*
X161982346Y-104382000D01*
X161953242Y-104235683D01*
X161870359Y-104111641D01*
X161746317Y-104028758D01*
X161600000Y-103999654D01*
X159000000Y-103999654D01*
X158853683Y-104028758D01*
X158729641Y-104111641D01*
X158646758Y-104235683D01*
X158617654Y-104382000D01*
X158617654Y-105057000D01*
X149879553Y-105057000D01*
X149817999Y-105044756D01*
X149756445Y-105057000D01*
X149574137Y-105093263D01*
X149367400Y-105231400D01*
X149332531Y-105283585D01*
X142131118Y-112485000D01*
X138729406Y-112485000D01*
X138665669Y-112331125D01*
X138278875Y-111944331D01*
X138026998Y-111840000D01*
X138278875Y-111735669D01*
X138665669Y-111348875D01*
X138875000Y-110843505D01*
X138875000Y-110296495D01*
X138811263Y-110142620D01*
X140668416Y-108285468D01*
X140720600Y-108250600D01*
X140858737Y-108043863D01*
X140895000Y-107861555D01*
X140895000Y-107861554D01*
X140907244Y-107800000D01*
X140895000Y-107738445D01*
X140895000Y-101870355D01*
X154185711Y-101870355D01*
X154327823Y-102115684D01*
X154962719Y-102376151D01*
X155648961Y-102373827D01*
X156272177Y-102115684D01*
X156414289Y-101870355D01*
X155300000Y-100756066D01*
X154185711Y-101870355D01*
X140895000Y-101870355D01*
X140895000Y-100475000D01*
X150566083Y-100475000D01*
X150800000Y-100521529D01*
X151033917Y-100475000D01*
X151726679Y-100337201D01*
X151763318Y-100312719D01*
X153573849Y-100312719D01*
X153576173Y-100998961D01*
X153834316Y-101622177D01*
X154079645Y-101764289D01*
X155193934Y-100650000D01*
X155406066Y-100650000D01*
X156520355Y-101764289D01*
X156765684Y-101622177D01*
X157026151Y-100987281D01*
X157023827Y-100301039D01*
X156765684Y-99677823D01*
X156520355Y-99535711D01*
X155406066Y-100650000D01*
X155193934Y-100650000D01*
X154079645Y-99535711D01*
X153834316Y-99677823D01*
X153573849Y-100312719D01*
X151763318Y-100312719D01*
X152512280Y-99812280D01*
X152644786Y-99613970D01*
X152829111Y-99429645D01*
X154185711Y-99429645D01*
X155300000Y-100543934D01*
X156414289Y-99429645D01*
X156272177Y-99184316D01*
X155637281Y-98923849D01*
X154951039Y-98926173D01*
X154327823Y-99184316D01*
X154185711Y-99429645D01*
X152829111Y-99429645D01*
X154513974Y-97744783D01*
X154712280Y-97612280D01*
X155237201Y-96826679D01*
X155375000Y-96133917D01*
X155421529Y-95900000D01*
X155411584Y-95850000D01*
X158617654Y-95850000D01*
X158617654Y-98450000D01*
X158646758Y-98596317D01*
X158729641Y-98720359D01*
X158853683Y-98803242D01*
X159000000Y-98832346D01*
X161600000Y-98832346D01*
X161746317Y-98803242D01*
X161870359Y-98720359D01*
X161953242Y-98596317D01*
X161982346Y-98450000D01*
X161982346Y-95850000D01*
X161953242Y-95703683D01*
X161870359Y-95579641D01*
X161746317Y-95496758D01*
X161600000Y-95467654D01*
X159000000Y-95467654D01*
X158853683Y-95496758D01*
X158729641Y-95579641D01*
X158646758Y-95703683D01*
X158617654Y-95850000D01*
X155411584Y-95850000D01*
X155375000Y-95666083D01*
X155375000Y-90900842D01*
X160139014Y-90900842D01*
X160203800Y-91136704D01*
X160542563Y-91696371D01*
X161069714Y-92083797D01*
X161705000Y-92240000D01*
X162455000Y-92240000D01*
X162455000Y-90640000D01*
X160213044Y-90640000D01*
X160139014Y-90900842D01*
X155375000Y-90900842D01*
X155375000Y-90229158D01*
X160139014Y-90229158D01*
X160213044Y-90490000D01*
X162455000Y-90490000D01*
X162455000Y-88890000D01*
X161705000Y-88890000D01*
X161069714Y-89046203D01*
X160542563Y-89433629D01*
X160203800Y-89993296D01*
X160139014Y-90229158D01*
X155375000Y-90229158D01*
X155375000Y-88966083D01*
X155237201Y-88273321D01*
X154712280Y-87487720D01*
X153926678Y-86962799D01*
X153359599Y-86850000D01*
X153926678Y-86737200D01*
X154712279Y-86212279D01*
X155237200Y-85426678D01*
X155421529Y-84499999D01*
X155295000Y-83863899D01*
X155295000Y-78770842D01*
X160139014Y-78770842D01*
X160203800Y-79006704D01*
X160542563Y-79566371D01*
X161069714Y-79953797D01*
X161705000Y-80110000D01*
X162455000Y-80110000D01*
X162455000Y-78510000D01*
X160213044Y-78510000D01*
X160139014Y-78770842D01*
X155295000Y-78770842D01*
X155295000Y-78099158D01*
X160139014Y-78099158D01*
X160213044Y-78360000D01*
X162455000Y-78360000D01*
X162455000Y-76760000D01*
X161705000Y-76760000D01*
X161069714Y-76916203D01*
X160542563Y-77303629D01*
X160203800Y-77863296D01*
X160139014Y-78099158D01*
X155295000Y-78099158D01*
X155295000Y-73338083D01*
X155157201Y-72645321D01*
X154783863Y-72086579D01*
X161705000Y-72086579D01*
X161705001Y-75057422D01*
X161784780Y-75458498D01*
X162088682Y-75913319D01*
X162543503Y-76217221D01*
X163080000Y-76323937D01*
X163616498Y-76217221D01*
X164071319Y-75913319D01*
X164375221Y-75458498D01*
X164455000Y-75057422D01*
X164455000Y-72086578D01*
X164375221Y-71685502D01*
X164071318Y-71230681D01*
X163616497Y-70926779D01*
X163080000Y-70820063D01*
X162543502Y-70926779D01*
X162088681Y-71230682D01*
X161784779Y-71685503D01*
X161705000Y-72086579D01*
X154783863Y-72086579D01*
X154632280Y-71859720D01*
X154119314Y-71516968D01*
X153911318Y-71205681D01*
X153456497Y-70901779D01*
X152920000Y-70795063D01*
X152383502Y-70901779D01*
X151928681Y-71205682D01*
X151720687Y-71516967D01*
X151207720Y-71859720D01*
X150682799Y-72645322D01*
X150545000Y-73338084D01*
X150545001Y-84186078D01*
X150498471Y-84420000D01*
X150682799Y-85346678D01*
X150756116Y-85456405D01*
X151207721Y-86132280D01*
X151406029Y-86264785D01*
X151486026Y-86344782D01*
X152073321Y-86737200D01*
X152640400Y-86850000D01*
X152073321Y-86962799D01*
X151287720Y-87487720D01*
X150762799Y-88273322D01*
X150625000Y-88966084D01*
X150625001Y-94916242D01*
X149816243Y-95725000D01*
X143312720Y-95725000D01*
X143569111Y-95719662D01*
X143972142Y-95552722D01*
X144053270Y-95359336D01*
X143300000Y-94606066D01*
X142546730Y-95359336D01*
X142627858Y-95552722D01*
X143069560Y-95725000D01*
X141253757Y-95725000D01*
X139810639Y-94281882D01*
X142070194Y-94281882D01*
X142080338Y-94769111D01*
X142247278Y-95172142D01*
X142440664Y-95253270D01*
X143193934Y-94500000D01*
X143406066Y-94500000D01*
X144159336Y-95253270D01*
X144352722Y-95172142D01*
X144529806Y-94718118D01*
X144520399Y-94266278D01*
X147125000Y-94266278D01*
X147125000Y-94733722D01*
X147303883Y-95165584D01*
X147634416Y-95496117D01*
X148066278Y-95675000D01*
X148533722Y-95675000D01*
X148965584Y-95496117D01*
X149296117Y-95165584D01*
X149475000Y-94733722D01*
X149475000Y-94266278D01*
X149296117Y-93834416D01*
X148965584Y-93503883D01*
X148533722Y-93325000D01*
X148066278Y-93325000D01*
X147634416Y-93503883D01*
X147303883Y-93834416D01*
X147125000Y-94266278D01*
X144520399Y-94266278D01*
X144519662Y-94230889D01*
X144352722Y-93827858D01*
X144159336Y-93746730D01*
X143406066Y-94500000D01*
X143193934Y-94500000D01*
X142440664Y-93746730D01*
X142247278Y-93827858D01*
X142070194Y-94281882D01*
X139810639Y-94281882D01*
X139169421Y-93640664D01*
X142546730Y-93640664D01*
X143300000Y-94393934D01*
X144053270Y-93640664D01*
X143972142Y-93447278D01*
X143518118Y-93270194D01*
X143030889Y-93280338D01*
X142627858Y-93447278D01*
X142546730Y-93640664D01*
X139169421Y-93640664D01*
X139013974Y-93485218D01*
X138426678Y-93092799D01*
X138337197Y-93075000D01*
X138933178Y-93075000D01*
X139548811Y-92819996D01*
X140019996Y-92348811D01*
X140054407Y-92265734D01*
X145425000Y-92265734D01*
X145425000Y-92534266D01*
X145527763Y-92782357D01*
X145717643Y-92972237D01*
X145965734Y-93075000D01*
X146234266Y-93075000D01*
X146482357Y-92972237D01*
X146672237Y-92782357D01*
X146775000Y-92534266D01*
X146775000Y-92265734D01*
X146672237Y-92017643D01*
X146625000Y-91970406D01*
X146625000Y-87817461D01*
X147467462Y-86975000D01*
X147534266Y-86975000D01*
X147782357Y-86872237D01*
X147972237Y-86682357D01*
X148075000Y-86434266D01*
X148075000Y-86165734D01*
X147972237Y-85917643D01*
X147782357Y-85727763D01*
X147534266Y-85625000D01*
X147265734Y-85625000D01*
X147017643Y-85727763D01*
X146827763Y-85917643D01*
X146725000Y-86165734D01*
X146725000Y-86232538D01*
X145765336Y-87192203D01*
X145721496Y-87221496D01*
X145605462Y-87395155D01*
X145605461Y-87395156D01*
X145564715Y-87600000D01*
X145575000Y-87651706D01*
X145575001Y-91970405D01*
X145527763Y-92017643D01*
X145425000Y-92265734D01*
X140054407Y-92265734D01*
X140275000Y-91733178D01*
X140275000Y-91066822D01*
X140019996Y-90451189D01*
X139548811Y-89980004D01*
X138933178Y-89725000D01*
X138266822Y-89725000D01*
X137651189Y-89980004D01*
X137180004Y-90451189D01*
X136925000Y-91066822D01*
X136925000Y-91733178D01*
X137180004Y-92348811D01*
X137651189Y-92819996D01*
X138201804Y-93048069D01*
X137500000Y-92908471D01*
X136573322Y-93092799D01*
X135787721Y-93617721D01*
X135450000Y-94123156D01*
X135450000Y-87165734D01*
X136825000Y-87165734D01*
X136825000Y-87434266D01*
X136927763Y-87682357D01*
X137117643Y-87872237D01*
X137365734Y-87975000D01*
X137634266Y-87975000D01*
X137882357Y-87872237D01*
X137929594Y-87825000D01*
X141848294Y-87825000D01*
X141900000Y-87835285D01*
X141951706Y-87825000D01*
X142104845Y-87794539D01*
X142278504Y-87678504D01*
X142307797Y-87634664D01*
X143567462Y-86375000D01*
X143634266Y-86375000D01*
X143882357Y-86272237D01*
X144072237Y-86082357D01*
X144175000Y-85834266D01*
X144175000Y-85565734D01*
X144072237Y-85317643D01*
X143882357Y-85127763D01*
X143634266Y-85025000D01*
X143365734Y-85025000D01*
X143117643Y-85127763D01*
X142927763Y-85317643D01*
X142825000Y-85565734D01*
X142825000Y-85632538D01*
X141682539Y-86775000D01*
X137929594Y-86775000D01*
X137882357Y-86727763D01*
X137634266Y-86625000D01*
X137365734Y-86625000D01*
X137117643Y-86727763D01*
X136927763Y-86917643D01*
X136825000Y-87165734D01*
X135450000Y-87165734D01*
X135450000Y-80566822D01*
X136925000Y-80566822D01*
X136925000Y-81233178D01*
X137180004Y-81848811D01*
X137651189Y-82319996D01*
X138206467Y-82550000D01*
X137651189Y-82780004D01*
X137180004Y-83251189D01*
X136925000Y-83866822D01*
X136925000Y-84533178D01*
X137180004Y-85148811D01*
X137651189Y-85619996D01*
X138266822Y-85875000D01*
X138933178Y-85875000D01*
X139548811Y-85619996D01*
X140019996Y-85148811D01*
X140275000Y-84533178D01*
X140275000Y-83866822D01*
X140019996Y-83251189D01*
X139548811Y-82780004D01*
X138993533Y-82550000D01*
X139548811Y-82319996D01*
X140019996Y-81848811D01*
X140275000Y-81233178D01*
X140275000Y-80566822D01*
X140019996Y-79951189D01*
X139548811Y-79480004D01*
X138933178Y-79225000D01*
X138266822Y-79225000D01*
X137651189Y-79480004D01*
X137180004Y-79951189D01*
X136925000Y-80566822D01*
X135450000Y-80566822D01*
X135450000Y-76665734D01*
X136825000Y-76665734D01*
X136825000Y-76934266D01*
X136927763Y-77182357D01*
X137117643Y-77372237D01*
X137365734Y-77475000D01*
X137634266Y-77475000D01*
X137882357Y-77372237D01*
X137929594Y-77325000D01*
X141648294Y-77325000D01*
X141700000Y-77335285D01*
X141751706Y-77325000D01*
X141904845Y-77294539D01*
X142078504Y-77178504D01*
X142107797Y-77134664D01*
X143576727Y-75665734D01*
X146625000Y-75665734D01*
X146625000Y-75934266D01*
X146727763Y-76182357D01*
X146775000Y-76229594D01*
X146775001Y-82345021D01*
X146725000Y-82465734D01*
X146725000Y-82734266D01*
X146827763Y-82982357D01*
X147017643Y-83172237D01*
X147265734Y-83275000D01*
X147534266Y-83275000D01*
X147782357Y-83172237D01*
X147972237Y-82982357D01*
X148075000Y-82734266D01*
X148075000Y-82465734D01*
X147972237Y-82217643D01*
X147825000Y-82070406D01*
X147825000Y-76229594D01*
X147872237Y-76182357D01*
X147975000Y-75934266D01*
X147975000Y-75665734D01*
X147872237Y-75417643D01*
X147682357Y-75227763D01*
X147434266Y-75125000D01*
X147165734Y-75125000D01*
X146917643Y-75227763D01*
X146727763Y-75417643D01*
X146625000Y-75665734D01*
X143576727Y-75665734D01*
X143667462Y-75575000D01*
X143734266Y-75575000D01*
X143982357Y-75472237D01*
X144172237Y-75282357D01*
X144275000Y-75034266D01*
X144275000Y-74765734D01*
X144172237Y-74517643D01*
X143982357Y-74327763D01*
X143734266Y-74225000D01*
X143465734Y-74225000D01*
X143217643Y-74327763D01*
X143027763Y-74517643D01*
X142925000Y-74765734D01*
X142925000Y-74832538D01*
X141482539Y-76275000D01*
X137929594Y-76275000D01*
X137882357Y-76227763D01*
X137634266Y-76125000D01*
X137365734Y-76125000D01*
X137117643Y-76227763D01*
X136927763Y-76417643D01*
X136825000Y-76665734D01*
X135450000Y-76665734D01*
X135450000Y-73366822D01*
X136925000Y-73366822D01*
X136925000Y-74033178D01*
X137180004Y-74648811D01*
X137651189Y-75119996D01*
X138266822Y-75375000D01*
X138933178Y-75375000D01*
X139548811Y-75119996D01*
X140019996Y-74648811D01*
X140275000Y-74033178D01*
X140275000Y-73366822D01*
X140019996Y-72751189D01*
X139548811Y-72280004D01*
X138933178Y-72025000D01*
X138266822Y-72025000D01*
X137651189Y-72280004D01*
X137180004Y-72751189D01*
X136925000Y-73366822D01*
X135450000Y-73366822D01*
X135450000Y-69966822D01*
X136925000Y-69966822D01*
X136925000Y-70633178D01*
X137180004Y-71248811D01*
X137651189Y-71719996D01*
X138266822Y-71975000D01*
X138933178Y-71975000D01*
X139548811Y-71719996D01*
X140019996Y-71248811D01*
X140275000Y-70633178D01*
X140275000Y-69966822D01*
X140019996Y-69351189D01*
X139548811Y-68880004D01*
X138933178Y-68625000D01*
X138266822Y-68625000D01*
X137651189Y-68880004D01*
X137180004Y-69351189D01*
X136925000Y-69966822D01*
X135450000Y-69966822D01*
X135450000Y-66065734D01*
X136825000Y-66065734D01*
X136825000Y-66334266D01*
X136927763Y-66582357D01*
X137117643Y-66772237D01*
X137365734Y-66875000D01*
X137634266Y-66875000D01*
X137882357Y-66772237D01*
X137929594Y-66725000D01*
X142248294Y-66725000D01*
X142300000Y-66735285D01*
X142351706Y-66725000D01*
X142504845Y-66694539D01*
X142678504Y-66578504D01*
X142707797Y-66534664D01*
X144007793Y-65234669D01*
X144007795Y-65234666D01*
X144047007Y-65195454D01*
X146643646Y-65195454D01*
X146643646Y-65463986D01*
X146746409Y-65712077D01*
X146825001Y-65790669D01*
X146825000Y-71370446D01*
X146777763Y-71417683D01*
X146675000Y-71665774D01*
X146675000Y-71934306D01*
X146777763Y-72182397D01*
X146967643Y-72372277D01*
X147215734Y-72475040D01*
X147484266Y-72475040D01*
X147732357Y-72372277D01*
X147922237Y-72182397D01*
X148025000Y-71934306D01*
X148025000Y-71665774D01*
X147922237Y-71417683D01*
X147875000Y-71370446D01*
X147875000Y-68706604D01*
X149525000Y-68706604D01*
X149525000Y-69293396D01*
X149749555Y-69835520D01*
X150164480Y-70250445D01*
X150706604Y-70475000D01*
X151293396Y-70475000D01*
X151835520Y-70250445D01*
X152250445Y-69835520D01*
X152475000Y-69293396D01*
X152475000Y-68706604D01*
X152250445Y-68164480D01*
X151835520Y-67749555D01*
X151293396Y-67525000D01*
X150706604Y-67525000D01*
X150164480Y-67749555D01*
X149749555Y-68164480D01*
X149525000Y-68706604D01*
X147875000Y-68706604D01*
X147875000Y-65727960D01*
X147890883Y-65712077D01*
X147993646Y-65463986D01*
X147993646Y-65195454D01*
X147890883Y-64947363D01*
X147701003Y-64757483D01*
X147452912Y-64654720D01*
X147184380Y-64654720D01*
X146936289Y-64757483D01*
X146746409Y-64947363D01*
X146643646Y-65195454D01*
X144047007Y-65195454D01*
X144067461Y-65175000D01*
X144134266Y-65175000D01*
X144382357Y-65072237D01*
X144572237Y-64882357D01*
X144675000Y-64634266D01*
X144675000Y-64365734D01*
X144572237Y-64117643D01*
X144382357Y-63927763D01*
X144134266Y-63825000D01*
X143865734Y-63825000D01*
X143617643Y-63927763D01*
X143427763Y-64117643D01*
X143325000Y-64365734D01*
X143325000Y-64432539D01*
X143265334Y-64492205D01*
X143265331Y-64492207D01*
X142082539Y-65675000D01*
X137929594Y-65675000D01*
X137882357Y-65627763D01*
X137634266Y-65525000D01*
X137365734Y-65525000D01*
X137117643Y-65627763D01*
X136927763Y-65817643D01*
X136825000Y-66065734D01*
X135450000Y-66065734D01*
X135450000Y-63266822D01*
X136825000Y-63266822D01*
X136825000Y-63933178D01*
X137080004Y-64548811D01*
X137551189Y-65019996D01*
X138166822Y-65275000D01*
X138833178Y-65275000D01*
X139448811Y-65019996D01*
X139919996Y-64548811D01*
X140175000Y-63933178D01*
X140175000Y-63266822D01*
X140030339Y-62917579D01*
X151545000Y-62917579D01*
X151545001Y-65938422D01*
X151624780Y-66339498D01*
X151928682Y-66794319D01*
X152383503Y-67098221D01*
X152920000Y-67204937D01*
X153456498Y-67098221D01*
X153911319Y-66794319D01*
X154215221Y-66339498D01*
X154295000Y-65938422D01*
X154295000Y-62942579D01*
X161705000Y-62942579D01*
X161705001Y-65913422D01*
X161784780Y-66314498D01*
X162088682Y-66769319D01*
X162543503Y-67073221D01*
X163080000Y-67179937D01*
X163616498Y-67073221D01*
X164071319Y-66769319D01*
X164375221Y-66314498D01*
X164455000Y-65913422D01*
X164455000Y-62942578D01*
X164375221Y-62541502D01*
X164071318Y-62086681D01*
X163616497Y-61782779D01*
X163080000Y-61676063D01*
X162543502Y-61782779D01*
X162088681Y-62086682D01*
X161784779Y-62541503D01*
X161705000Y-62942579D01*
X154295000Y-62942579D01*
X154295000Y-62917578D01*
X154215221Y-62516502D01*
X153911318Y-62061681D01*
X153456497Y-61757779D01*
X152920000Y-61651063D01*
X152383502Y-61757779D01*
X151928681Y-62061682D01*
X151624779Y-62516503D01*
X151545000Y-62917579D01*
X140030339Y-62917579D01*
X139919996Y-62651189D01*
X139448811Y-62180004D01*
X138833178Y-61925000D01*
X138166822Y-61925000D01*
X137551189Y-62180004D01*
X137080004Y-62651189D01*
X136825000Y-63266822D01*
X135450000Y-63266822D01*
X135450000Y-61450000D01*
X164550001Y-61450000D01*
X164550001Y-77357427D01*
G04 #@! TD*
M02*
