G04 #@! TF.GenerationSoftware,KiCad,Pcbnew,(5.0.2)-1*
G04 #@! TF.CreationDate,2019-05-09T17:57:12+02:00*
G04 #@! TF.ProjectId,SafetySupply,53616665-7479-4537-9570-706c792e6b69,rev?*
G04 #@! TF.SameCoordinates,Original*
G04 #@! TF.FileFunction,Copper,L1,Top*
G04 #@! TF.FilePolarity,Positive*
%FSLAX46Y46*%
G04 Gerber Fmt 4.6, Leading zero omitted, Abs format (unit mm)*
G04 Created by KiCad (PCBNEW (5.0.2)-1) date 09.05.2019 17:57:12*
%MOMM*%
%LPD*%
G01*
G04 APERTURE LIST*
G04 #@! TA.AperFunction,ComponentPad*
%ADD10C,1.600000*%
G04 #@! TD*
G04 #@! TA.AperFunction,ComponentPad*
%ADD11O,2.000000X4.700000*%
G04 #@! TD*
G04 #@! TA.AperFunction,ComponentPad*
%ADD12O,2.000000X4.750000*%
G04 #@! TD*
G04 #@! TA.AperFunction,ComponentPad*
%ADD13C,2.000000*%
G04 #@! TD*
G04 #@! TA.AperFunction,ComponentPad*
%ADD14C,2.400000*%
G04 #@! TD*
G04 #@! TA.AperFunction,ComponentPad*
%ADD15R,2.600000X2.600000*%
G04 #@! TD*
G04 #@! TA.AperFunction,ComponentPad*
%ADD16C,2.600000*%
G04 #@! TD*
G04 #@! TA.AperFunction,ComponentPad*
%ADD17O,4.000000X2.500000*%
G04 #@! TD*
G04 #@! TA.AperFunction,ComponentPad*
%ADD18C,3.700000*%
G04 #@! TD*
G04 #@! TA.AperFunction,SMDPad,CuDef*
%ADD19R,1.450000X0.450000*%
G04 #@! TD*
G04 #@! TA.AperFunction,Conductor*
%ADD20C,0.100000*%
G04 #@! TD*
G04 #@! TA.AperFunction,SMDPad,CuDef*
%ADD21C,0.875000*%
G04 #@! TD*
G04 #@! TA.AperFunction,SMDPad,CuDef*
%ADD22C,0.975000*%
G04 #@! TD*
G04 #@! TA.AperFunction,SMDPad,CuDef*
%ADD23R,1.700000X1.300000*%
G04 #@! TD*
G04 #@! TA.AperFunction,SMDPad,CuDef*
%ADD24R,3.300000X2.500000*%
G04 #@! TD*
G04 #@! TA.AperFunction,SMDPad,CuDef*
%ADD25R,0.900000X0.800000*%
G04 #@! TD*
G04 #@! TA.AperFunction,SMDPad,CuDef*
%ADD26R,1.060000X0.650000*%
G04 #@! TD*
G04 #@! TA.AperFunction,ViaPad*
%ADD27C,0.600000*%
G04 #@! TD*
G04 #@! TA.AperFunction,Conductor*
%ADD28C,0.300000*%
G04 #@! TD*
G04 #@! TA.AperFunction,Conductor*
%ADD29C,1.000000*%
G04 #@! TD*
G04 #@! TA.AperFunction,Conductor*
%ADD30C,2.000000*%
G04 #@! TD*
G04 #@! TA.AperFunction,Conductor*
%ADD31C,3.000000*%
G04 #@! TD*
G04 #@! TA.AperFunction,Conductor*
%ADD32C,4.000000*%
G04 #@! TD*
G04 #@! TA.AperFunction,Conductor*
%ADD33C,0.500000*%
G04 #@! TD*
G04 #@! TA.AperFunction,Conductor*
%ADD34C,0.250000*%
G04 #@! TD*
G04 APERTURE END LIST*
D10*
G04 #@! TO.P,C1,2*
G04 #@! TO.N,GND*
X143300000Y-94500000D03*
G04 #@! TO.P,C1,1*
G04 #@! TO.N,+12V*
X148300000Y-94500000D03*
G04 #@! TD*
D11*
G04 #@! TO.P,F1,2*
G04 #@! TO.N,Net-(F1-Pad2)*
X163080000Y-64428000D03*
D12*
X152920000Y-64428000D03*
D11*
G04 #@! TO.P,F1,1*
G04 #@! TO.N,Net-(F1-Pad1)*
X163080000Y-73572000D03*
D12*
X152920000Y-73572000D03*
G04 #@! TD*
D13*
G04 #@! TO.P,K1,4*
G04 #@! TO.N,Net-(D5-Pad2)*
X137500000Y-113110000D03*
G04 #@! TO.P,K1,3*
G04 #@! TO.N,+12V*
X137500000Y-110570000D03*
D14*
G04 #@! TO.P,K1,2*
G04 #@! TO.N,Net-(C3-Pad1)*
X137500000Y-100410000D03*
G04 #@! TO.P,K1,1*
G04 #@! TO.N,+12V*
X137500000Y-95330000D03*
G04 #@! TD*
D15*
G04 #@! TO.P,J5,1*
G04 #@! TO.N,+12V*
X160300000Y-97150000D03*
D16*
G04 #@! TO.P,J5,2*
G04 #@! TO.N,GND*
X155300000Y-100650000D03*
G04 #@! TD*
D15*
G04 #@! TO.P,J1,1*
G04 #@! TO.N,Net-(C3-Pad1)*
X160300000Y-114250000D03*
D16*
G04 #@! TO.P,J1,2*
G04 #@! TO.N,GND*
X155300000Y-117750000D03*
G04 #@! TD*
D15*
G04 #@! TO.P,J3,1*
G04 #@! TO.N,Net-(D5-Pad2)*
X160300000Y-105682000D03*
D16*
G04 #@! TO.P,J3,2*
G04 #@! TO.N,GND*
X155300000Y-109182000D03*
G04 #@! TD*
D17*
G04 #@! TO.P,SW1,0*
G04 #@! TO.N,GND*
X162530000Y-78435000D03*
X162530000Y-90565000D03*
D18*
G04 #@! TO.P,SW1,3*
G04 #@! TO.N,+12V*
X153000000Y-89200000D03*
G04 #@! TO.P,SW1,2*
G04 #@! TO.N,Net-(F1-Pad1)*
X153000000Y-84500000D03*
G04 #@! TO.P,SW1,1*
X153000000Y-79800000D03*
G04 #@! TD*
D19*
G04 #@! TO.P,U4,8*
G04 #@! TO.N,Net-(U4-Pad8)*
X147350000Y-79925000D03*
G04 #@! TO.P,U4,7*
G04 #@! TO.N,Net-(Q3-Pad2)*
X147350000Y-80575000D03*
G04 #@! TO.P,U4,6*
X147350000Y-81225000D03*
G04 #@! TO.P,U4,5*
G04 #@! TO.N,Net-(U3-Pad3)*
X147350000Y-81875000D03*
G04 #@! TO.P,U4,4*
G04 #@! TO.N,Net-(U3-Pad1)*
X141450000Y-81875000D03*
G04 #@! TO.P,U4,3*
G04 #@! TO.N,Net-(C5-Pad2)*
X141450000Y-81225000D03*
G04 #@! TO.P,U4,2*
X141450000Y-80575000D03*
G04 #@! TO.P,U4,1*
G04 #@! TO.N,Net-(U4-Pad1)*
X141450000Y-79925000D03*
G04 #@! TD*
D20*
G04 #@! TO.N,Net-(Q3-Pad2)*
G04 #@! TO.C,R9*
G36*
X147177691Y-77951053D02*
X147198926Y-77954203D01*
X147219750Y-77959419D01*
X147239962Y-77966651D01*
X147259368Y-77975830D01*
X147277781Y-77986866D01*
X147295024Y-77999654D01*
X147310930Y-78014070D01*
X147325346Y-78029976D01*
X147338134Y-78047219D01*
X147349170Y-78065632D01*
X147358349Y-78085038D01*
X147365581Y-78105250D01*
X147370797Y-78126074D01*
X147373947Y-78147309D01*
X147375000Y-78168750D01*
X147375000Y-78606250D01*
X147373947Y-78627691D01*
X147370797Y-78648926D01*
X147365581Y-78669750D01*
X147358349Y-78689962D01*
X147349170Y-78709368D01*
X147338134Y-78727781D01*
X147325346Y-78745024D01*
X147310930Y-78760930D01*
X147295024Y-78775346D01*
X147277781Y-78788134D01*
X147259368Y-78799170D01*
X147239962Y-78808349D01*
X147219750Y-78815581D01*
X147198926Y-78820797D01*
X147177691Y-78823947D01*
X147156250Y-78825000D01*
X146643750Y-78825000D01*
X146622309Y-78823947D01*
X146601074Y-78820797D01*
X146580250Y-78815581D01*
X146560038Y-78808349D01*
X146540632Y-78799170D01*
X146522219Y-78788134D01*
X146504976Y-78775346D01*
X146489070Y-78760930D01*
X146474654Y-78745024D01*
X146461866Y-78727781D01*
X146450830Y-78709368D01*
X146441651Y-78689962D01*
X146434419Y-78669750D01*
X146429203Y-78648926D01*
X146426053Y-78627691D01*
X146425000Y-78606250D01*
X146425000Y-78168750D01*
X146426053Y-78147309D01*
X146429203Y-78126074D01*
X146434419Y-78105250D01*
X146441651Y-78085038D01*
X146450830Y-78065632D01*
X146461866Y-78047219D01*
X146474654Y-78029976D01*
X146489070Y-78014070D01*
X146504976Y-77999654D01*
X146522219Y-77986866D01*
X146540632Y-77975830D01*
X146560038Y-77966651D01*
X146580250Y-77959419D01*
X146601074Y-77954203D01*
X146622309Y-77951053D01*
X146643750Y-77950000D01*
X147156250Y-77950000D01*
X147177691Y-77951053D01*
X147177691Y-77951053D01*
G37*
D21*
G04 #@! TD*
G04 #@! TO.P,R9,2*
G04 #@! TO.N,Net-(Q3-Pad2)*
X146900000Y-78387500D03*
D20*
G04 #@! TO.N,Net-(R9-Pad1)*
G04 #@! TO.C,R9*
G36*
X147177691Y-76376053D02*
X147198926Y-76379203D01*
X147219750Y-76384419D01*
X147239962Y-76391651D01*
X147259368Y-76400830D01*
X147277781Y-76411866D01*
X147295024Y-76424654D01*
X147310930Y-76439070D01*
X147325346Y-76454976D01*
X147338134Y-76472219D01*
X147349170Y-76490632D01*
X147358349Y-76510038D01*
X147365581Y-76530250D01*
X147370797Y-76551074D01*
X147373947Y-76572309D01*
X147375000Y-76593750D01*
X147375000Y-77031250D01*
X147373947Y-77052691D01*
X147370797Y-77073926D01*
X147365581Y-77094750D01*
X147358349Y-77114962D01*
X147349170Y-77134368D01*
X147338134Y-77152781D01*
X147325346Y-77170024D01*
X147310930Y-77185930D01*
X147295024Y-77200346D01*
X147277781Y-77213134D01*
X147259368Y-77224170D01*
X147239962Y-77233349D01*
X147219750Y-77240581D01*
X147198926Y-77245797D01*
X147177691Y-77248947D01*
X147156250Y-77250000D01*
X146643750Y-77250000D01*
X146622309Y-77248947D01*
X146601074Y-77245797D01*
X146580250Y-77240581D01*
X146560038Y-77233349D01*
X146540632Y-77224170D01*
X146522219Y-77213134D01*
X146504976Y-77200346D01*
X146489070Y-77185930D01*
X146474654Y-77170024D01*
X146461866Y-77152781D01*
X146450830Y-77134368D01*
X146441651Y-77114962D01*
X146434419Y-77094750D01*
X146429203Y-77073926D01*
X146426053Y-77052691D01*
X146425000Y-77031250D01*
X146425000Y-76593750D01*
X146426053Y-76572309D01*
X146429203Y-76551074D01*
X146434419Y-76530250D01*
X146441651Y-76510038D01*
X146450830Y-76490632D01*
X146461866Y-76472219D01*
X146474654Y-76454976D01*
X146489070Y-76439070D01*
X146504976Y-76424654D01*
X146522219Y-76411866D01*
X146540632Y-76400830D01*
X146560038Y-76391651D01*
X146580250Y-76384419D01*
X146601074Y-76379203D01*
X146622309Y-76376053D01*
X146643750Y-76375000D01*
X147156250Y-76375000D01*
X147177691Y-76376053D01*
X147177691Y-76376053D01*
G37*
D21*
G04 #@! TD*
G04 #@! TO.P,R9,1*
G04 #@! TO.N,Net-(R9-Pad1)*
X146900000Y-76812500D03*
D20*
G04 #@! TO.N,Net-(C4-Pad2)*
G04 #@! TO.C,C4*
G36*
X141877691Y-67351053D02*
X141898926Y-67354203D01*
X141919750Y-67359419D01*
X141939962Y-67366651D01*
X141959368Y-67375830D01*
X141977781Y-67386866D01*
X141995024Y-67399654D01*
X142010930Y-67414070D01*
X142025346Y-67429976D01*
X142038134Y-67447219D01*
X142049170Y-67465632D01*
X142058349Y-67485038D01*
X142065581Y-67505250D01*
X142070797Y-67526074D01*
X142073947Y-67547309D01*
X142075000Y-67568750D01*
X142075000Y-68006250D01*
X142073947Y-68027691D01*
X142070797Y-68048926D01*
X142065581Y-68069750D01*
X142058349Y-68089962D01*
X142049170Y-68109368D01*
X142038134Y-68127781D01*
X142025346Y-68145024D01*
X142010930Y-68160930D01*
X141995024Y-68175346D01*
X141977781Y-68188134D01*
X141959368Y-68199170D01*
X141939962Y-68208349D01*
X141919750Y-68215581D01*
X141898926Y-68220797D01*
X141877691Y-68223947D01*
X141856250Y-68225000D01*
X141343750Y-68225000D01*
X141322309Y-68223947D01*
X141301074Y-68220797D01*
X141280250Y-68215581D01*
X141260038Y-68208349D01*
X141240632Y-68199170D01*
X141222219Y-68188134D01*
X141204976Y-68175346D01*
X141189070Y-68160930D01*
X141174654Y-68145024D01*
X141161866Y-68127781D01*
X141150830Y-68109368D01*
X141141651Y-68089962D01*
X141134419Y-68069750D01*
X141129203Y-68048926D01*
X141126053Y-68027691D01*
X141125000Y-68006250D01*
X141125000Y-67568750D01*
X141126053Y-67547309D01*
X141129203Y-67526074D01*
X141134419Y-67505250D01*
X141141651Y-67485038D01*
X141150830Y-67465632D01*
X141161866Y-67447219D01*
X141174654Y-67429976D01*
X141189070Y-67414070D01*
X141204976Y-67399654D01*
X141222219Y-67386866D01*
X141240632Y-67375830D01*
X141260038Y-67366651D01*
X141280250Y-67359419D01*
X141301074Y-67354203D01*
X141322309Y-67351053D01*
X141343750Y-67350000D01*
X141856250Y-67350000D01*
X141877691Y-67351053D01*
X141877691Y-67351053D01*
G37*
D21*
G04 #@! TD*
G04 #@! TO.P,C4,2*
G04 #@! TO.N,Net-(C4-Pad2)*
X141600000Y-67787500D03*
D20*
G04 #@! TO.N,Net-(C4-Pad1)*
G04 #@! TO.C,C4*
G36*
X141877691Y-65776053D02*
X141898926Y-65779203D01*
X141919750Y-65784419D01*
X141939962Y-65791651D01*
X141959368Y-65800830D01*
X141977781Y-65811866D01*
X141995024Y-65824654D01*
X142010930Y-65839070D01*
X142025346Y-65854976D01*
X142038134Y-65872219D01*
X142049170Y-65890632D01*
X142058349Y-65910038D01*
X142065581Y-65930250D01*
X142070797Y-65951074D01*
X142073947Y-65972309D01*
X142075000Y-65993750D01*
X142075000Y-66431250D01*
X142073947Y-66452691D01*
X142070797Y-66473926D01*
X142065581Y-66494750D01*
X142058349Y-66514962D01*
X142049170Y-66534368D01*
X142038134Y-66552781D01*
X142025346Y-66570024D01*
X142010930Y-66585930D01*
X141995024Y-66600346D01*
X141977781Y-66613134D01*
X141959368Y-66624170D01*
X141939962Y-66633349D01*
X141919750Y-66640581D01*
X141898926Y-66645797D01*
X141877691Y-66648947D01*
X141856250Y-66650000D01*
X141343750Y-66650000D01*
X141322309Y-66648947D01*
X141301074Y-66645797D01*
X141280250Y-66640581D01*
X141260038Y-66633349D01*
X141240632Y-66624170D01*
X141222219Y-66613134D01*
X141204976Y-66600346D01*
X141189070Y-66585930D01*
X141174654Y-66570024D01*
X141161866Y-66552781D01*
X141150830Y-66534368D01*
X141141651Y-66514962D01*
X141134419Y-66494750D01*
X141129203Y-66473926D01*
X141126053Y-66452691D01*
X141125000Y-66431250D01*
X141125000Y-65993750D01*
X141126053Y-65972309D01*
X141129203Y-65951074D01*
X141134419Y-65930250D01*
X141141651Y-65910038D01*
X141150830Y-65890632D01*
X141161866Y-65872219D01*
X141174654Y-65854976D01*
X141189070Y-65839070D01*
X141204976Y-65824654D01*
X141222219Y-65811866D01*
X141240632Y-65800830D01*
X141260038Y-65791651D01*
X141280250Y-65784419D01*
X141301074Y-65779203D01*
X141322309Y-65776053D01*
X141343750Y-65775000D01*
X141856250Y-65775000D01*
X141877691Y-65776053D01*
X141877691Y-65776053D01*
G37*
D21*
G04 #@! TD*
G04 #@! TO.P,C4,1*
G04 #@! TO.N,Net-(C4-Pad1)*
X141600000Y-66212500D03*
D20*
G04 #@! TO.N,Net-(C5-Pad2)*
G04 #@! TO.C,C5*
G36*
X141977691Y-77951053D02*
X141998926Y-77954203D01*
X142019750Y-77959419D01*
X142039962Y-77966651D01*
X142059368Y-77975830D01*
X142077781Y-77986866D01*
X142095024Y-77999654D01*
X142110930Y-78014070D01*
X142125346Y-78029976D01*
X142138134Y-78047219D01*
X142149170Y-78065632D01*
X142158349Y-78085038D01*
X142165581Y-78105250D01*
X142170797Y-78126074D01*
X142173947Y-78147309D01*
X142175000Y-78168750D01*
X142175000Y-78606250D01*
X142173947Y-78627691D01*
X142170797Y-78648926D01*
X142165581Y-78669750D01*
X142158349Y-78689962D01*
X142149170Y-78709368D01*
X142138134Y-78727781D01*
X142125346Y-78745024D01*
X142110930Y-78760930D01*
X142095024Y-78775346D01*
X142077781Y-78788134D01*
X142059368Y-78799170D01*
X142039962Y-78808349D01*
X142019750Y-78815581D01*
X141998926Y-78820797D01*
X141977691Y-78823947D01*
X141956250Y-78825000D01*
X141443750Y-78825000D01*
X141422309Y-78823947D01*
X141401074Y-78820797D01*
X141380250Y-78815581D01*
X141360038Y-78808349D01*
X141340632Y-78799170D01*
X141322219Y-78788134D01*
X141304976Y-78775346D01*
X141289070Y-78760930D01*
X141274654Y-78745024D01*
X141261866Y-78727781D01*
X141250830Y-78709368D01*
X141241651Y-78689962D01*
X141234419Y-78669750D01*
X141229203Y-78648926D01*
X141226053Y-78627691D01*
X141225000Y-78606250D01*
X141225000Y-78168750D01*
X141226053Y-78147309D01*
X141229203Y-78126074D01*
X141234419Y-78105250D01*
X141241651Y-78085038D01*
X141250830Y-78065632D01*
X141261866Y-78047219D01*
X141274654Y-78029976D01*
X141289070Y-78014070D01*
X141304976Y-77999654D01*
X141322219Y-77986866D01*
X141340632Y-77975830D01*
X141360038Y-77966651D01*
X141380250Y-77959419D01*
X141401074Y-77954203D01*
X141422309Y-77951053D01*
X141443750Y-77950000D01*
X141956250Y-77950000D01*
X141977691Y-77951053D01*
X141977691Y-77951053D01*
G37*
D21*
G04 #@! TD*
G04 #@! TO.P,C5,2*
G04 #@! TO.N,Net-(C5-Pad2)*
X141700000Y-78387500D03*
D20*
G04 #@! TO.N,Net-(C5-Pad1)*
G04 #@! TO.C,C5*
G36*
X141977691Y-76376053D02*
X141998926Y-76379203D01*
X142019750Y-76384419D01*
X142039962Y-76391651D01*
X142059368Y-76400830D01*
X142077781Y-76411866D01*
X142095024Y-76424654D01*
X142110930Y-76439070D01*
X142125346Y-76454976D01*
X142138134Y-76472219D01*
X142149170Y-76490632D01*
X142158349Y-76510038D01*
X142165581Y-76530250D01*
X142170797Y-76551074D01*
X142173947Y-76572309D01*
X142175000Y-76593750D01*
X142175000Y-77031250D01*
X142173947Y-77052691D01*
X142170797Y-77073926D01*
X142165581Y-77094750D01*
X142158349Y-77114962D01*
X142149170Y-77134368D01*
X142138134Y-77152781D01*
X142125346Y-77170024D01*
X142110930Y-77185930D01*
X142095024Y-77200346D01*
X142077781Y-77213134D01*
X142059368Y-77224170D01*
X142039962Y-77233349D01*
X142019750Y-77240581D01*
X141998926Y-77245797D01*
X141977691Y-77248947D01*
X141956250Y-77250000D01*
X141443750Y-77250000D01*
X141422309Y-77248947D01*
X141401074Y-77245797D01*
X141380250Y-77240581D01*
X141360038Y-77233349D01*
X141340632Y-77224170D01*
X141322219Y-77213134D01*
X141304976Y-77200346D01*
X141289070Y-77185930D01*
X141274654Y-77170024D01*
X141261866Y-77152781D01*
X141250830Y-77134368D01*
X141241651Y-77114962D01*
X141234419Y-77094750D01*
X141229203Y-77073926D01*
X141226053Y-77052691D01*
X141225000Y-77031250D01*
X141225000Y-76593750D01*
X141226053Y-76572309D01*
X141229203Y-76551074D01*
X141234419Y-76530250D01*
X141241651Y-76510038D01*
X141250830Y-76490632D01*
X141261866Y-76472219D01*
X141274654Y-76454976D01*
X141289070Y-76439070D01*
X141304976Y-76424654D01*
X141322219Y-76411866D01*
X141340632Y-76400830D01*
X141360038Y-76391651D01*
X141380250Y-76384419D01*
X141401074Y-76379203D01*
X141422309Y-76376053D01*
X141443750Y-76375000D01*
X141956250Y-76375000D01*
X141977691Y-76376053D01*
X141977691Y-76376053D01*
G37*
D21*
G04 #@! TD*
G04 #@! TO.P,C5,1*
G04 #@! TO.N,Net-(C5-Pad1)*
X141700000Y-76812500D03*
D20*
G04 #@! TO.N,Net-(C6-Pad2)*
G04 #@! TO.C,C6*
G36*
X141977691Y-88451053D02*
X141998926Y-88454203D01*
X142019750Y-88459419D01*
X142039962Y-88466651D01*
X142059368Y-88475830D01*
X142077781Y-88486866D01*
X142095024Y-88499654D01*
X142110930Y-88514070D01*
X142125346Y-88529976D01*
X142138134Y-88547219D01*
X142149170Y-88565632D01*
X142158349Y-88585038D01*
X142165581Y-88605250D01*
X142170797Y-88626074D01*
X142173947Y-88647309D01*
X142175000Y-88668750D01*
X142175000Y-89106250D01*
X142173947Y-89127691D01*
X142170797Y-89148926D01*
X142165581Y-89169750D01*
X142158349Y-89189962D01*
X142149170Y-89209368D01*
X142138134Y-89227781D01*
X142125346Y-89245024D01*
X142110930Y-89260930D01*
X142095024Y-89275346D01*
X142077781Y-89288134D01*
X142059368Y-89299170D01*
X142039962Y-89308349D01*
X142019750Y-89315581D01*
X141998926Y-89320797D01*
X141977691Y-89323947D01*
X141956250Y-89325000D01*
X141443750Y-89325000D01*
X141422309Y-89323947D01*
X141401074Y-89320797D01*
X141380250Y-89315581D01*
X141360038Y-89308349D01*
X141340632Y-89299170D01*
X141322219Y-89288134D01*
X141304976Y-89275346D01*
X141289070Y-89260930D01*
X141274654Y-89245024D01*
X141261866Y-89227781D01*
X141250830Y-89209368D01*
X141241651Y-89189962D01*
X141234419Y-89169750D01*
X141229203Y-89148926D01*
X141226053Y-89127691D01*
X141225000Y-89106250D01*
X141225000Y-88668750D01*
X141226053Y-88647309D01*
X141229203Y-88626074D01*
X141234419Y-88605250D01*
X141241651Y-88585038D01*
X141250830Y-88565632D01*
X141261866Y-88547219D01*
X141274654Y-88529976D01*
X141289070Y-88514070D01*
X141304976Y-88499654D01*
X141322219Y-88486866D01*
X141340632Y-88475830D01*
X141360038Y-88466651D01*
X141380250Y-88459419D01*
X141401074Y-88454203D01*
X141422309Y-88451053D01*
X141443750Y-88450000D01*
X141956250Y-88450000D01*
X141977691Y-88451053D01*
X141977691Y-88451053D01*
G37*
D21*
G04 #@! TD*
G04 #@! TO.P,C6,2*
G04 #@! TO.N,Net-(C6-Pad2)*
X141700000Y-88887500D03*
D20*
G04 #@! TO.N,Net-(C6-Pad1)*
G04 #@! TO.C,C6*
G36*
X141977691Y-86876053D02*
X141998926Y-86879203D01*
X142019750Y-86884419D01*
X142039962Y-86891651D01*
X142059368Y-86900830D01*
X142077781Y-86911866D01*
X142095024Y-86924654D01*
X142110930Y-86939070D01*
X142125346Y-86954976D01*
X142138134Y-86972219D01*
X142149170Y-86990632D01*
X142158349Y-87010038D01*
X142165581Y-87030250D01*
X142170797Y-87051074D01*
X142173947Y-87072309D01*
X142175000Y-87093750D01*
X142175000Y-87531250D01*
X142173947Y-87552691D01*
X142170797Y-87573926D01*
X142165581Y-87594750D01*
X142158349Y-87614962D01*
X142149170Y-87634368D01*
X142138134Y-87652781D01*
X142125346Y-87670024D01*
X142110930Y-87685930D01*
X142095024Y-87700346D01*
X142077781Y-87713134D01*
X142059368Y-87724170D01*
X142039962Y-87733349D01*
X142019750Y-87740581D01*
X141998926Y-87745797D01*
X141977691Y-87748947D01*
X141956250Y-87750000D01*
X141443750Y-87750000D01*
X141422309Y-87748947D01*
X141401074Y-87745797D01*
X141380250Y-87740581D01*
X141360038Y-87733349D01*
X141340632Y-87724170D01*
X141322219Y-87713134D01*
X141304976Y-87700346D01*
X141289070Y-87685930D01*
X141274654Y-87670024D01*
X141261866Y-87652781D01*
X141250830Y-87634368D01*
X141241651Y-87614962D01*
X141234419Y-87594750D01*
X141229203Y-87573926D01*
X141226053Y-87552691D01*
X141225000Y-87531250D01*
X141225000Y-87093750D01*
X141226053Y-87072309D01*
X141229203Y-87051074D01*
X141234419Y-87030250D01*
X141241651Y-87010038D01*
X141250830Y-86990632D01*
X141261866Y-86972219D01*
X141274654Y-86954976D01*
X141289070Y-86939070D01*
X141304976Y-86924654D01*
X141322219Y-86911866D01*
X141340632Y-86900830D01*
X141360038Y-86891651D01*
X141380250Y-86884419D01*
X141401074Y-86879203D01*
X141422309Y-86876053D01*
X141443750Y-86875000D01*
X141956250Y-86875000D01*
X141977691Y-86876053D01*
X141977691Y-86876053D01*
G37*
D21*
G04 #@! TD*
G04 #@! TO.P,C6,1*
G04 #@! TO.N,Net-(C6-Pad1)*
X141700000Y-87312500D03*
D20*
G04 #@! TO.N,GND*
G04 #@! TO.C,C2*
G36*
X145130142Y-93801174D02*
X145153803Y-93804684D01*
X145177007Y-93810496D01*
X145199529Y-93818554D01*
X145221153Y-93828782D01*
X145241670Y-93841079D01*
X145260883Y-93855329D01*
X145278607Y-93871393D01*
X145294671Y-93889117D01*
X145308921Y-93908330D01*
X145321218Y-93928847D01*
X145331446Y-93950471D01*
X145339504Y-93972993D01*
X145345316Y-93996197D01*
X145348826Y-94019858D01*
X145350000Y-94043750D01*
X145350000Y-94956250D01*
X145348826Y-94980142D01*
X145345316Y-95003803D01*
X145339504Y-95027007D01*
X145331446Y-95049529D01*
X145321218Y-95071153D01*
X145308921Y-95091670D01*
X145294671Y-95110883D01*
X145278607Y-95128607D01*
X145260883Y-95144671D01*
X145241670Y-95158921D01*
X145221153Y-95171218D01*
X145199529Y-95181446D01*
X145177007Y-95189504D01*
X145153803Y-95195316D01*
X145130142Y-95198826D01*
X145106250Y-95200000D01*
X144618750Y-95200000D01*
X144594858Y-95198826D01*
X144571197Y-95195316D01*
X144547993Y-95189504D01*
X144525471Y-95181446D01*
X144503847Y-95171218D01*
X144483330Y-95158921D01*
X144464117Y-95144671D01*
X144446393Y-95128607D01*
X144430329Y-95110883D01*
X144416079Y-95091670D01*
X144403782Y-95071153D01*
X144393554Y-95049529D01*
X144385496Y-95027007D01*
X144379684Y-95003803D01*
X144376174Y-94980142D01*
X144375000Y-94956250D01*
X144375000Y-94043750D01*
X144376174Y-94019858D01*
X144379684Y-93996197D01*
X144385496Y-93972993D01*
X144393554Y-93950471D01*
X144403782Y-93928847D01*
X144416079Y-93908330D01*
X144430329Y-93889117D01*
X144446393Y-93871393D01*
X144464117Y-93855329D01*
X144483330Y-93841079D01*
X144503847Y-93828782D01*
X144525471Y-93818554D01*
X144547993Y-93810496D01*
X144571197Y-93804684D01*
X144594858Y-93801174D01*
X144618750Y-93800000D01*
X145106250Y-93800000D01*
X145130142Y-93801174D01*
X145130142Y-93801174D01*
G37*
D22*
G04 #@! TD*
G04 #@! TO.P,C2,2*
G04 #@! TO.N,GND*
X144862500Y-94500000D03*
D20*
G04 #@! TO.N,+12V*
G04 #@! TO.C,C2*
G36*
X147005142Y-93801174D02*
X147028803Y-93804684D01*
X147052007Y-93810496D01*
X147074529Y-93818554D01*
X147096153Y-93828782D01*
X147116670Y-93841079D01*
X147135883Y-93855329D01*
X147153607Y-93871393D01*
X147169671Y-93889117D01*
X147183921Y-93908330D01*
X147196218Y-93928847D01*
X147206446Y-93950471D01*
X147214504Y-93972993D01*
X147220316Y-93996197D01*
X147223826Y-94019858D01*
X147225000Y-94043750D01*
X147225000Y-94956250D01*
X147223826Y-94980142D01*
X147220316Y-95003803D01*
X147214504Y-95027007D01*
X147206446Y-95049529D01*
X147196218Y-95071153D01*
X147183921Y-95091670D01*
X147169671Y-95110883D01*
X147153607Y-95128607D01*
X147135883Y-95144671D01*
X147116670Y-95158921D01*
X147096153Y-95171218D01*
X147074529Y-95181446D01*
X147052007Y-95189504D01*
X147028803Y-95195316D01*
X147005142Y-95198826D01*
X146981250Y-95200000D01*
X146493750Y-95200000D01*
X146469858Y-95198826D01*
X146446197Y-95195316D01*
X146422993Y-95189504D01*
X146400471Y-95181446D01*
X146378847Y-95171218D01*
X146358330Y-95158921D01*
X146339117Y-95144671D01*
X146321393Y-95128607D01*
X146305329Y-95110883D01*
X146291079Y-95091670D01*
X146278782Y-95071153D01*
X146268554Y-95049529D01*
X146260496Y-95027007D01*
X146254684Y-95003803D01*
X146251174Y-94980142D01*
X146250000Y-94956250D01*
X146250000Y-94043750D01*
X146251174Y-94019858D01*
X146254684Y-93996197D01*
X146260496Y-93972993D01*
X146268554Y-93950471D01*
X146278782Y-93928847D01*
X146291079Y-93908330D01*
X146305329Y-93889117D01*
X146321393Y-93871393D01*
X146339117Y-93855329D01*
X146358330Y-93841079D01*
X146378847Y-93828782D01*
X146400471Y-93818554D01*
X146422993Y-93810496D01*
X146446197Y-93804684D01*
X146469858Y-93801174D01*
X146493750Y-93800000D01*
X146981250Y-93800000D01*
X147005142Y-93801174D01*
X147005142Y-93801174D01*
G37*
D22*
G04 #@! TD*
G04 #@! TO.P,C2,1*
G04 #@! TO.N,+12V*
X146737500Y-94500000D03*
D20*
G04 #@! TO.N,GND*
G04 #@! TO.C,C3*
G36*
X148580142Y-118351174D02*
X148603803Y-118354684D01*
X148627007Y-118360496D01*
X148649529Y-118368554D01*
X148671153Y-118378782D01*
X148691670Y-118391079D01*
X148710883Y-118405329D01*
X148728607Y-118421393D01*
X148744671Y-118439117D01*
X148758921Y-118458330D01*
X148771218Y-118478847D01*
X148781446Y-118500471D01*
X148789504Y-118522993D01*
X148795316Y-118546197D01*
X148798826Y-118569858D01*
X148800000Y-118593750D01*
X148800000Y-119081250D01*
X148798826Y-119105142D01*
X148795316Y-119128803D01*
X148789504Y-119152007D01*
X148781446Y-119174529D01*
X148771218Y-119196153D01*
X148758921Y-119216670D01*
X148744671Y-119235883D01*
X148728607Y-119253607D01*
X148710883Y-119269671D01*
X148691670Y-119283921D01*
X148671153Y-119296218D01*
X148649529Y-119306446D01*
X148627007Y-119314504D01*
X148603803Y-119320316D01*
X148580142Y-119323826D01*
X148556250Y-119325000D01*
X147643750Y-119325000D01*
X147619858Y-119323826D01*
X147596197Y-119320316D01*
X147572993Y-119314504D01*
X147550471Y-119306446D01*
X147528847Y-119296218D01*
X147508330Y-119283921D01*
X147489117Y-119269671D01*
X147471393Y-119253607D01*
X147455329Y-119235883D01*
X147441079Y-119216670D01*
X147428782Y-119196153D01*
X147418554Y-119174529D01*
X147410496Y-119152007D01*
X147404684Y-119128803D01*
X147401174Y-119105142D01*
X147400000Y-119081250D01*
X147400000Y-118593750D01*
X147401174Y-118569858D01*
X147404684Y-118546197D01*
X147410496Y-118522993D01*
X147418554Y-118500471D01*
X147428782Y-118478847D01*
X147441079Y-118458330D01*
X147455329Y-118439117D01*
X147471393Y-118421393D01*
X147489117Y-118405329D01*
X147508330Y-118391079D01*
X147528847Y-118378782D01*
X147550471Y-118368554D01*
X147572993Y-118360496D01*
X147596197Y-118354684D01*
X147619858Y-118351174D01*
X147643750Y-118350000D01*
X148556250Y-118350000D01*
X148580142Y-118351174D01*
X148580142Y-118351174D01*
G37*
D22*
G04 #@! TD*
G04 #@! TO.P,C3,2*
G04 #@! TO.N,GND*
X148100000Y-118837500D03*
D20*
G04 #@! TO.N,Net-(C3-Pad1)*
G04 #@! TO.C,C3*
G36*
X148580142Y-116476174D02*
X148603803Y-116479684D01*
X148627007Y-116485496D01*
X148649529Y-116493554D01*
X148671153Y-116503782D01*
X148691670Y-116516079D01*
X148710883Y-116530329D01*
X148728607Y-116546393D01*
X148744671Y-116564117D01*
X148758921Y-116583330D01*
X148771218Y-116603847D01*
X148781446Y-116625471D01*
X148789504Y-116647993D01*
X148795316Y-116671197D01*
X148798826Y-116694858D01*
X148800000Y-116718750D01*
X148800000Y-117206250D01*
X148798826Y-117230142D01*
X148795316Y-117253803D01*
X148789504Y-117277007D01*
X148781446Y-117299529D01*
X148771218Y-117321153D01*
X148758921Y-117341670D01*
X148744671Y-117360883D01*
X148728607Y-117378607D01*
X148710883Y-117394671D01*
X148691670Y-117408921D01*
X148671153Y-117421218D01*
X148649529Y-117431446D01*
X148627007Y-117439504D01*
X148603803Y-117445316D01*
X148580142Y-117448826D01*
X148556250Y-117450000D01*
X147643750Y-117450000D01*
X147619858Y-117448826D01*
X147596197Y-117445316D01*
X147572993Y-117439504D01*
X147550471Y-117431446D01*
X147528847Y-117421218D01*
X147508330Y-117408921D01*
X147489117Y-117394671D01*
X147471393Y-117378607D01*
X147455329Y-117360883D01*
X147441079Y-117341670D01*
X147428782Y-117321153D01*
X147418554Y-117299529D01*
X147410496Y-117277007D01*
X147404684Y-117253803D01*
X147401174Y-117230142D01*
X147400000Y-117206250D01*
X147400000Y-116718750D01*
X147401174Y-116694858D01*
X147404684Y-116671197D01*
X147410496Y-116647993D01*
X147418554Y-116625471D01*
X147428782Y-116603847D01*
X147441079Y-116583330D01*
X147455329Y-116564117D01*
X147471393Y-116546393D01*
X147489117Y-116530329D01*
X147508330Y-116516079D01*
X147528847Y-116503782D01*
X147550471Y-116493554D01*
X147572993Y-116485496D01*
X147596197Y-116479684D01*
X147619858Y-116476174D01*
X147643750Y-116475000D01*
X148556250Y-116475000D01*
X148580142Y-116476174D01*
X148580142Y-116476174D01*
G37*
D22*
G04 #@! TD*
G04 #@! TO.P,C3,1*
G04 #@! TO.N,Net-(C3-Pad1)*
X148100000Y-116962500D03*
D16*
G04 #@! TO.P,J2,1*
G04 #@! TO.N,Net-(D1-Pad1)*
X138500000Y-63600000D03*
G04 #@! TD*
G04 #@! TO.P,J4,1*
G04 #@! TO.N,Net-(C4-Pad2)*
X138600000Y-70300000D03*
G04 #@! TD*
G04 #@! TO.P,J6,1*
G04 #@! TO.N,Net-(D7-Pad1)*
X138600000Y-73700000D03*
G04 #@! TD*
G04 #@! TO.P,J7,1*
G04 #@! TO.N,Net-(C5-Pad2)*
X138600000Y-80900000D03*
G04 #@! TD*
G04 #@! TO.P,J8,1*
G04 #@! TO.N,Net-(D8-Pad1)*
X138600000Y-84200000D03*
G04 #@! TD*
G04 #@! TO.P,J9,1*
G04 #@! TO.N,Net-(C6-Pad2)*
X138600000Y-91400000D03*
G04 #@! TD*
D23*
G04 #@! TO.P,D5,2*
G04 #@! TO.N,Net-(D5-Pad2)*
X145600000Y-119650000D03*
G04 #@! TO.P,D5,1*
G04 #@! TO.N,+12V*
X145600000Y-116150000D03*
G04 #@! TD*
G04 #@! TO.P,D4,2*
G04 #@! TO.N,GND*
X150200000Y-119650000D03*
G04 #@! TO.P,D4,1*
G04 #@! TO.N,Net-(C3-Pad1)*
X150200000Y-116150000D03*
G04 #@! TD*
D24*
G04 #@! TO.P,D3,2*
G04 #@! TO.N,GND*
X148000000Y-106900000D03*
G04 #@! TO.P,D3,1*
G04 #@! TO.N,Net-(C3-Pad1)*
X148000000Y-113700000D03*
G04 #@! TD*
G04 #@! TO.P,D2,2*
G04 #@! TO.N,GND*
X148000000Y-103800000D03*
G04 #@! TO.P,D2,1*
G04 #@! TO.N,+12V*
X148000000Y-97000000D03*
G04 #@! TD*
D20*
G04 #@! TO.N,Net-(D7-Pad2)*
G04 #@! TO.C,D7*
G36*
X141880142Y-74851174D02*
X141903803Y-74854684D01*
X141927007Y-74860496D01*
X141949529Y-74868554D01*
X141971153Y-74878782D01*
X141991670Y-74891079D01*
X142010883Y-74905329D01*
X142028607Y-74921393D01*
X142044671Y-74939117D01*
X142058921Y-74958330D01*
X142071218Y-74978847D01*
X142081446Y-75000471D01*
X142089504Y-75022993D01*
X142095316Y-75046197D01*
X142098826Y-75069858D01*
X142100000Y-75093750D01*
X142100000Y-75581250D01*
X142098826Y-75605142D01*
X142095316Y-75628803D01*
X142089504Y-75652007D01*
X142081446Y-75674529D01*
X142071218Y-75696153D01*
X142058921Y-75716670D01*
X142044671Y-75735883D01*
X142028607Y-75753607D01*
X142010883Y-75769671D01*
X141991670Y-75783921D01*
X141971153Y-75796218D01*
X141949529Y-75806446D01*
X141927007Y-75814504D01*
X141903803Y-75820316D01*
X141880142Y-75823826D01*
X141856250Y-75825000D01*
X140943750Y-75825000D01*
X140919858Y-75823826D01*
X140896197Y-75820316D01*
X140872993Y-75814504D01*
X140850471Y-75806446D01*
X140828847Y-75796218D01*
X140808330Y-75783921D01*
X140789117Y-75769671D01*
X140771393Y-75753607D01*
X140755329Y-75735883D01*
X140741079Y-75716670D01*
X140728782Y-75696153D01*
X140718554Y-75674529D01*
X140710496Y-75652007D01*
X140704684Y-75628803D01*
X140701174Y-75605142D01*
X140700000Y-75581250D01*
X140700000Y-75093750D01*
X140701174Y-75069858D01*
X140704684Y-75046197D01*
X140710496Y-75022993D01*
X140718554Y-75000471D01*
X140728782Y-74978847D01*
X140741079Y-74958330D01*
X140755329Y-74939117D01*
X140771393Y-74921393D01*
X140789117Y-74905329D01*
X140808330Y-74891079D01*
X140828847Y-74878782D01*
X140850471Y-74868554D01*
X140872993Y-74860496D01*
X140896197Y-74854684D01*
X140919858Y-74851174D01*
X140943750Y-74850000D01*
X141856250Y-74850000D01*
X141880142Y-74851174D01*
X141880142Y-74851174D01*
G37*
D22*
G04 #@! TD*
G04 #@! TO.P,D7,2*
G04 #@! TO.N,Net-(D7-Pad2)*
X141400000Y-75337500D03*
D20*
G04 #@! TO.N,Net-(D7-Pad1)*
G04 #@! TO.C,D7*
G36*
X141880142Y-72976174D02*
X141903803Y-72979684D01*
X141927007Y-72985496D01*
X141949529Y-72993554D01*
X141971153Y-73003782D01*
X141991670Y-73016079D01*
X142010883Y-73030329D01*
X142028607Y-73046393D01*
X142044671Y-73064117D01*
X142058921Y-73083330D01*
X142071218Y-73103847D01*
X142081446Y-73125471D01*
X142089504Y-73147993D01*
X142095316Y-73171197D01*
X142098826Y-73194858D01*
X142100000Y-73218750D01*
X142100000Y-73706250D01*
X142098826Y-73730142D01*
X142095316Y-73753803D01*
X142089504Y-73777007D01*
X142081446Y-73799529D01*
X142071218Y-73821153D01*
X142058921Y-73841670D01*
X142044671Y-73860883D01*
X142028607Y-73878607D01*
X142010883Y-73894671D01*
X141991670Y-73908921D01*
X141971153Y-73921218D01*
X141949529Y-73931446D01*
X141927007Y-73939504D01*
X141903803Y-73945316D01*
X141880142Y-73948826D01*
X141856250Y-73950000D01*
X140943750Y-73950000D01*
X140919858Y-73948826D01*
X140896197Y-73945316D01*
X140872993Y-73939504D01*
X140850471Y-73931446D01*
X140828847Y-73921218D01*
X140808330Y-73908921D01*
X140789117Y-73894671D01*
X140771393Y-73878607D01*
X140755329Y-73860883D01*
X140741079Y-73841670D01*
X140728782Y-73821153D01*
X140718554Y-73799529D01*
X140710496Y-73777007D01*
X140704684Y-73753803D01*
X140701174Y-73730142D01*
X140700000Y-73706250D01*
X140700000Y-73218750D01*
X140701174Y-73194858D01*
X140704684Y-73171197D01*
X140710496Y-73147993D01*
X140718554Y-73125471D01*
X140728782Y-73103847D01*
X140741079Y-73083330D01*
X140755329Y-73064117D01*
X140771393Y-73046393D01*
X140789117Y-73030329D01*
X140808330Y-73016079D01*
X140828847Y-73003782D01*
X140850471Y-72993554D01*
X140872993Y-72985496D01*
X140896197Y-72979684D01*
X140919858Y-72976174D01*
X140943750Y-72975000D01*
X141856250Y-72975000D01*
X141880142Y-72976174D01*
X141880142Y-72976174D01*
G37*
D22*
G04 #@! TD*
G04 #@! TO.P,D7,1*
G04 #@! TO.N,Net-(D7-Pad1)*
X141400000Y-73462500D03*
D20*
G04 #@! TO.N,Net-(D8-Pad2)*
G04 #@! TO.C,D8*
G36*
X141980142Y-85351174D02*
X142003803Y-85354684D01*
X142027007Y-85360496D01*
X142049529Y-85368554D01*
X142071153Y-85378782D01*
X142091670Y-85391079D01*
X142110883Y-85405329D01*
X142128607Y-85421393D01*
X142144671Y-85439117D01*
X142158921Y-85458330D01*
X142171218Y-85478847D01*
X142181446Y-85500471D01*
X142189504Y-85522993D01*
X142195316Y-85546197D01*
X142198826Y-85569858D01*
X142200000Y-85593750D01*
X142200000Y-86081250D01*
X142198826Y-86105142D01*
X142195316Y-86128803D01*
X142189504Y-86152007D01*
X142181446Y-86174529D01*
X142171218Y-86196153D01*
X142158921Y-86216670D01*
X142144671Y-86235883D01*
X142128607Y-86253607D01*
X142110883Y-86269671D01*
X142091670Y-86283921D01*
X142071153Y-86296218D01*
X142049529Y-86306446D01*
X142027007Y-86314504D01*
X142003803Y-86320316D01*
X141980142Y-86323826D01*
X141956250Y-86325000D01*
X141043750Y-86325000D01*
X141019858Y-86323826D01*
X140996197Y-86320316D01*
X140972993Y-86314504D01*
X140950471Y-86306446D01*
X140928847Y-86296218D01*
X140908330Y-86283921D01*
X140889117Y-86269671D01*
X140871393Y-86253607D01*
X140855329Y-86235883D01*
X140841079Y-86216670D01*
X140828782Y-86196153D01*
X140818554Y-86174529D01*
X140810496Y-86152007D01*
X140804684Y-86128803D01*
X140801174Y-86105142D01*
X140800000Y-86081250D01*
X140800000Y-85593750D01*
X140801174Y-85569858D01*
X140804684Y-85546197D01*
X140810496Y-85522993D01*
X140818554Y-85500471D01*
X140828782Y-85478847D01*
X140841079Y-85458330D01*
X140855329Y-85439117D01*
X140871393Y-85421393D01*
X140889117Y-85405329D01*
X140908330Y-85391079D01*
X140928847Y-85378782D01*
X140950471Y-85368554D01*
X140972993Y-85360496D01*
X140996197Y-85354684D01*
X141019858Y-85351174D01*
X141043750Y-85350000D01*
X141956250Y-85350000D01*
X141980142Y-85351174D01*
X141980142Y-85351174D01*
G37*
D22*
G04 #@! TD*
G04 #@! TO.P,D8,2*
G04 #@! TO.N,Net-(D8-Pad2)*
X141500000Y-85837500D03*
D20*
G04 #@! TO.N,Net-(D8-Pad1)*
G04 #@! TO.C,D8*
G36*
X141980142Y-83476174D02*
X142003803Y-83479684D01*
X142027007Y-83485496D01*
X142049529Y-83493554D01*
X142071153Y-83503782D01*
X142091670Y-83516079D01*
X142110883Y-83530329D01*
X142128607Y-83546393D01*
X142144671Y-83564117D01*
X142158921Y-83583330D01*
X142171218Y-83603847D01*
X142181446Y-83625471D01*
X142189504Y-83647993D01*
X142195316Y-83671197D01*
X142198826Y-83694858D01*
X142200000Y-83718750D01*
X142200000Y-84206250D01*
X142198826Y-84230142D01*
X142195316Y-84253803D01*
X142189504Y-84277007D01*
X142181446Y-84299529D01*
X142171218Y-84321153D01*
X142158921Y-84341670D01*
X142144671Y-84360883D01*
X142128607Y-84378607D01*
X142110883Y-84394671D01*
X142091670Y-84408921D01*
X142071153Y-84421218D01*
X142049529Y-84431446D01*
X142027007Y-84439504D01*
X142003803Y-84445316D01*
X141980142Y-84448826D01*
X141956250Y-84450000D01*
X141043750Y-84450000D01*
X141019858Y-84448826D01*
X140996197Y-84445316D01*
X140972993Y-84439504D01*
X140950471Y-84431446D01*
X140928847Y-84421218D01*
X140908330Y-84408921D01*
X140889117Y-84394671D01*
X140871393Y-84378607D01*
X140855329Y-84360883D01*
X140841079Y-84341670D01*
X140828782Y-84321153D01*
X140818554Y-84299529D01*
X140810496Y-84277007D01*
X140804684Y-84253803D01*
X140801174Y-84230142D01*
X140800000Y-84206250D01*
X140800000Y-83718750D01*
X140801174Y-83694858D01*
X140804684Y-83671197D01*
X140810496Y-83647993D01*
X140818554Y-83625471D01*
X140828782Y-83603847D01*
X140841079Y-83583330D01*
X140855329Y-83564117D01*
X140871393Y-83546393D01*
X140889117Y-83530329D01*
X140908330Y-83516079D01*
X140928847Y-83503782D01*
X140950471Y-83493554D01*
X140972993Y-83485496D01*
X140996197Y-83479684D01*
X141019858Y-83476174D01*
X141043750Y-83475000D01*
X141956250Y-83475000D01*
X141980142Y-83476174D01*
X141980142Y-83476174D01*
G37*
D22*
G04 #@! TD*
G04 #@! TO.P,D8,1*
G04 #@! TO.N,Net-(D8-Pad1)*
X141500000Y-83962500D03*
D20*
G04 #@! TO.N,Net-(D1-Pad2)*
G04 #@! TO.C,D1*
G36*
X141780142Y-64251174D02*
X141803803Y-64254684D01*
X141827007Y-64260496D01*
X141849529Y-64268554D01*
X141871153Y-64278782D01*
X141891670Y-64291079D01*
X141910883Y-64305329D01*
X141928607Y-64321393D01*
X141944671Y-64339117D01*
X141958921Y-64358330D01*
X141971218Y-64378847D01*
X141981446Y-64400471D01*
X141989504Y-64422993D01*
X141995316Y-64446197D01*
X141998826Y-64469858D01*
X142000000Y-64493750D01*
X142000000Y-64981250D01*
X141998826Y-65005142D01*
X141995316Y-65028803D01*
X141989504Y-65052007D01*
X141981446Y-65074529D01*
X141971218Y-65096153D01*
X141958921Y-65116670D01*
X141944671Y-65135883D01*
X141928607Y-65153607D01*
X141910883Y-65169671D01*
X141891670Y-65183921D01*
X141871153Y-65196218D01*
X141849529Y-65206446D01*
X141827007Y-65214504D01*
X141803803Y-65220316D01*
X141780142Y-65223826D01*
X141756250Y-65225000D01*
X140843750Y-65225000D01*
X140819858Y-65223826D01*
X140796197Y-65220316D01*
X140772993Y-65214504D01*
X140750471Y-65206446D01*
X140728847Y-65196218D01*
X140708330Y-65183921D01*
X140689117Y-65169671D01*
X140671393Y-65153607D01*
X140655329Y-65135883D01*
X140641079Y-65116670D01*
X140628782Y-65096153D01*
X140618554Y-65074529D01*
X140610496Y-65052007D01*
X140604684Y-65028803D01*
X140601174Y-65005142D01*
X140600000Y-64981250D01*
X140600000Y-64493750D01*
X140601174Y-64469858D01*
X140604684Y-64446197D01*
X140610496Y-64422993D01*
X140618554Y-64400471D01*
X140628782Y-64378847D01*
X140641079Y-64358330D01*
X140655329Y-64339117D01*
X140671393Y-64321393D01*
X140689117Y-64305329D01*
X140708330Y-64291079D01*
X140728847Y-64278782D01*
X140750471Y-64268554D01*
X140772993Y-64260496D01*
X140796197Y-64254684D01*
X140819858Y-64251174D01*
X140843750Y-64250000D01*
X141756250Y-64250000D01*
X141780142Y-64251174D01*
X141780142Y-64251174D01*
G37*
D22*
G04 #@! TD*
G04 #@! TO.P,D1,2*
G04 #@! TO.N,Net-(D1-Pad2)*
X141300000Y-64737500D03*
D20*
G04 #@! TO.N,Net-(D1-Pad1)*
G04 #@! TO.C,D1*
G36*
X141780142Y-62376174D02*
X141803803Y-62379684D01*
X141827007Y-62385496D01*
X141849529Y-62393554D01*
X141871153Y-62403782D01*
X141891670Y-62416079D01*
X141910883Y-62430329D01*
X141928607Y-62446393D01*
X141944671Y-62464117D01*
X141958921Y-62483330D01*
X141971218Y-62503847D01*
X141981446Y-62525471D01*
X141989504Y-62547993D01*
X141995316Y-62571197D01*
X141998826Y-62594858D01*
X142000000Y-62618750D01*
X142000000Y-63106250D01*
X141998826Y-63130142D01*
X141995316Y-63153803D01*
X141989504Y-63177007D01*
X141981446Y-63199529D01*
X141971218Y-63221153D01*
X141958921Y-63241670D01*
X141944671Y-63260883D01*
X141928607Y-63278607D01*
X141910883Y-63294671D01*
X141891670Y-63308921D01*
X141871153Y-63321218D01*
X141849529Y-63331446D01*
X141827007Y-63339504D01*
X141803803Y-63345316D01*
X141780142Y-63348826D01*
X141756250Y-63350000D01*
X140843750Y-63350000D01*
X140819858Y-63348826D01*
X140796197Y-63345316D01*
X140772993Y-63339504D01*
X140750471Y-63331446D01*
X140728847Y-63321218D01*
X140708330Y-63308921D01*
X140689117Y-63294671D01*
X140671393Y-63278607D01*
X140655329Y-63260883D01*
X140641079Y-63241670D01*
X140628782Y-63221153D01*
X140618554Y-63199529D01*
X140610496Y-63177007D01*
X140604684Y-63153803D01*
X140601174Y-63130142D01*
X140600000Y-63106250D01*
X140600000Y-62618750D01*
X140601174Y-62594858D01*
X140604684Y-62571197D01*
X140610496Y-62547993D01*
X140618554Y-62525471D01*
X140628782Y-62503847D01*
X140641079Y-62483330D01*
X140655329Y-62464117D01*
X140671393Y-62446393D01*
X140689117Y-62430329D01*
X140708330Y-62416079D01*
X140728847Y-62403782D01*
X140750471Y-62393554D01*
X140772993Y-62385496D01*
X140796197Y-62379684D01*
X140819858Y-62376174D01*
X140843750Y-62375000D01*
X141756250Y-62375000D01*
X141780142Y-62376174D01*
X141780142Y-62376174D01*
G37*
D22*
G04 #@! TD*
G04 #@! TO.P,D1,1*
G04 #@! TO.N,Net-(D1-Pad1)*
X141300000Y-62862500D03*
D20*
G04 #@! TO.N,Net-(D6-Pad2)*
G04 #@! TO.C,D6*
G36*
X162292642Y-92701174D02*
X162316303Y-92704684D01*
X162339507Y-92710496D01*
X162362029Y-92718554D01*
X162383653Y-92728782D01*
X162404170Y-92741079D01*
X162423383Y-92755329D01*
X162441107Y-92771393D01*
X162457171Y-92789117D01*
X162471421Y-92808330D01*
X162483718Y-92828847D01*
X162493946Y-92850471D01*
X162502004Y-92872993D01*
X162507816Y-92896197D01*
X162511326Y-92919858D01*
X162512500Y-92943750D01*
X162512500Y-93856250D01*
X162511326Y-93880142D01*
X162507816Y-93903803D01*
X162502004Y-93927007D01*
X162493946Y-93949529D01*
X162483718Y-93971153D01*
X162471421Y-93991670D01*
X162457171Y-94010883D01*
X162441107Y-94028607D01*
X162423383Y-94044671D01*
X162404170Y-94058921D01*
X162383653Y-94071218D01*
X162362029Y-94081446D01*
X162339507Y-94089504D01*
X162316303Y-94095316D01*
X162292642Y-94098826D01*
X162268750Y-94100000D01*
X161781250Y-94100000D01*
X161757358Y-94098826D01*
X161733697Y-94095316D01*
X161710493Y-94089504D01*
X161687971Y-94081446D01*
X161666347Y-94071218D01*
X161645830Y-94058921D01*
X161626617Y-94044671D01*
X161608893Y-94028607D01*
X161592829Y-94010883D01*
X161578579Y-93991670D01*
X161566282Y-93971153D01*
X161556054Y-93949529D01*
X161547996Y-93927007D01*
X161542184Y-93903803D01*
X161538674Y-93880142D01*
X161537500Y-93856250D01*
X161537500Y-92943750D01*
X161538674Y-92919858D01*
X161542184Y-92896197D01*
X161547996Y-92872993D01*
X161556054Y-92850471D01*
X161566282Y-92828847D01*
X161578579Y-92808330D01*
X161592829Y-92789117D01*
X161608893Y-92771393D01*
X161626617Y-92755329D01*
X161645830Y-92741079D01*
X161666347Y-92728782D01*
X161687971Y-92718554D01*
X161710493Y-92710496D01*
X161733697Y-92704684D01*
X161757358Y-92701174D01*
X161781250Y-92700000D01*
X162268750Y-92700000D01*
X162292642Y-92701174D01*
X162292642Y-92701174D01*
G37*
D22*
G04 #@! TD*
G04 #@! TO.P,D6,2*
G04 #@! TO.N,Net-(D6-Pad2)*
X162025000Y-93400000D03*
D20*
G04 #@! TO.N,GND*
G04 #@! TO.C,D6*
G36*
X164167642Y-92701174D02*
X164191303Y-92704684D01*
X164214507Y-92710496D01*
X164237029Y-92718554D01*
X164258653Y-92728782D01*
X164279170Y-92741079D01*
X164298383Y-92755329D01*
X164316107Y-92771393D01*
X164332171Y-92789117D01*
X164346421Y-92808330D01*
X164358718Y-92828847D01*
X164368946Y-92850471D01*
X164377004Y-92872993D01*
X164382816Y-92896197D01*
X164386326Y-92919858D01*
X164387500Y-92943750D01*
X164387500Y-93856250D01*
X164386326Y-93880142D01*
X164382816Y-93903803D01*
X164377004Y-93927007D01*
X164368946Y-93949529D01*
X164358718Y-93971153D01*
X164346421Y-93991670D01*
X164332171Y-94010883D01*
X164316107Y-94028607D01*
X164298383Y-94044671D01*
X164279170Y-94058921D01*
X164258653Y-94071218D01*
X164237029Y-94081446D01*
X164214507Y-94089504D01*
X164191303Y-94095316D01*
X164167642Y-94098826D01*
X164143750Y-94100000D01*
X163656250Y-94100000D01*
X163632358Y-94098826D01*
X163608697Y-94095316D01*
X163585493Y-94089504D01*
X163562971Y-94081446D01*
X163541347Y-94071218D01*
X163520830Y-94058921D01*
X163501617Y-94044671D01*
X163483893Y-94028607D01*
X163467829Y-94010883D01*
X163453579Y-93991670D01*
X163441282Y-93971153D01*
X163431054Y-93949529D01*
X163422996Y-93927007D01*
X163417184Y-93903803D01*
X163413674Y-93880142D01*
X163412500Y-93856250D01*
X163412500Y-92943750D01*
X163413674Y-92919858D01*
X163417184Y-92896197D01*
X163422996Y-92872993D01*
X163431054Y-92850471D01*
X163441282Y-92828847D01*
X163453579Y-92808330D01*
X163467829Y-92789117D01*
X163483893Y-92771393D01*
X163501617Y-92755329D01*
X163520830Y-92741079D01*
X163541347Y-92728782D01*
X163562971Y-92718554D01*
X163585493Y-92710496D01*
X163608697Y-92704684D01*
X163632358Y-92701174D01*
X163656250Y-92700000D01*
X164143750Y-92700000D01*
X164167642Y-92701174D01*
X164167642Y-92701174D01*
G37*
D22*
G04 #@! TD*
G04 #@! TO.P,D6,1*
G04 #@! TO.N,GND*
X163900000Y-93400000D03*
D19*
G04 #@! TO.P,U2,8*
G04 #@! TO.N,Net-(U2-Pad8)*
X147350000Y-69325000D03*
G04 #@! TO.P,U2,7*
G04 #@! TO.N,Net-(Q2-Pad2)*
X147350000Y-69975000D03*
G04 #@! TO.P,U2,6*
X147350000Y-70625000D03*
G04 #@! TO.P,U2,5*
G04 #@! TO.N,Net-(U1-Pad3)*
X147350000Y-71275000D03*
G04 #@! TO.P,U2,4*
G04 #@! TO.N,Net-(U1-Pad1)*
X141450000Y-71275000D03*
G04 #@! TO.P,U2,3*
G04 #@! TO.N,Net-(C4-Pad2)*
X141450000Y-70625000D03*
G04 #@! TO.P,U2,2*
X141450000Y-69975000D03*
G04 #@! TO.P,U2,1*
G04 #@! TO.N,Net-(U2-Pad1)*
X141450000Y-69325000D03*
G04 #@! TD*
G04 #@! TO.P,U6,8*
G04 #@! TO.N,Net-(U6-Pad8)*
X147350000Y-90425000D03*
G04 #@! TO.P,U6,7*
G04 #@! TO.N,GND*
X147350000Y-91075000D03*
G04 #@! TO.P,U6,6*
X147350000Y-91725000D03*
G04 #@! TO.P,U6,5*
G04 #@! TO.N,Net-(U5-Pad3)*
X147350000Y-92375000D03*
G04 #@! TO.P,U6,4*
G04 #@! TO.N,Net-(U5-Pad1)*
X141450000Y-92375000D03*
G04 #@! TO.P,U6,3*
G04 #@! TO.N,Net-(C6-Pad2)*
X141450000Y-91725000D03*
G04 #@! TO.P,U6,2*
X141450000Y-91075000D03*
G04 #@! TO.P,U6,1*
G04 #@! TO.N,Net-(U6-Pad1)*
X141450000Y-90425000D03*
G04 #@! TD*
D25*
G04 #@! TO.P,Q3,3*
G04 #@! TO.N,Net-(D8-Pad1)*
X143200000Y-84200000D03*
G04 #@! TO.P,Q3,2*
G04 #@! TO.N,Net-(Q3-Pad2)*
X145200000Y-83250000D03*
G04 #@! TO.P,Q3,1*
G04 #@! TO.N,Net-(Q3-Pad1)*
X145200000Y-85150000D03*
G04 #@! TD*
G04 #@! TO.P,Q2,3*
G04 #@! TO.N,Net-(D7-Pad1)*
X143100000Y-73700000D03*
G04 #@! TO.P,Q2,2*
G04 #@! TO.N,Net-(Q2-Pad2)*
X145100000Y-72750000D03*
G04 #@! TO.P,Q2,1*
G04 #@! TO.N,Net-(Q2-Pad1)*
X145100000Y-74650000D03*
G04 #@! TD*
G04 #@! TO.P,Q1,3*
G04 #@! TO.N,Net-(D1-Pad1)*
X143200000Y-63100000D03*
G04 #@! TO.P,Q1,2*
G04 #@! TO.N,Net-(F1-Pad2)*
X145200000Y-62150000D03*
G04 #@! TO.P,Q1,1*
G04 #@! TO.N,Net-(Q1-Pad1)*
X145200000Y-64050000D03*
G04 #@! TD*
D26*
G04 #@! TO.P,U5,5*
G04 #@! TO.N,Net-(C6-Pad1)*
X143300000Y-87800000D03*
G04 #@! TO.P,U5,6*
G04 #@! TO.N,Net-(C6-Pad2)*
X143300000Y-88750000D03*
G04 #@! TO.P,U5,4*
G04 #@! TO.N,Net-(U5-Pad4)*
X143300000Y-86850000D03*
G04 #@! TO.P,U5,3*
G04 #@! TO.N,Net-(U5-Pad3)*
X145500000Y-86850000D03*
G04 #@! TO.P,U5,2*
G04 #@! TO.N,Net-(R13-Pad1)*
X145500000Y-87800000D03*
G04 #@! TO.P,U5,1*
G04 #@! TO.N,Net-(U5-Pad1)*
X145500000Y-88750000D03*
G04 #@! TD*
G04 #@! TO.P,U3,5*
G04 #@! TO.N,Net-(C5-Pad1)*
X143200000Y-77300000D03*
G04 #@! TO.P,U3,6*
G04 #@! TO.N,Net-(C5-Pad2)*
X143200000Y-78250000D03*
G04 #@! TO.P,U3,4*
G04 #@! TO.N,Net-(U3-Pad4)*
X143200000Y-76350000D03*
G04 #@! TO.P,U3,3*
G04 #@! TO.N,Net-(U3-Pad3)*
X145400000Y-76350000D03*
G04 #@! TO.P,U3,2*
G04 #@! TO.N,Net-(R9-Pad1)*
X145400000Y-77300000D03*
G04 #@! TO.P,U3,1*
G04 #@! TO.N,Net-(U3-Pad1)*
X145400000Y-78250000D03*
G04 #@! TD*
G04 #@! TO.P,U1,5*
G04 #@! TO.N,Net-(C4-Pad1)*
X143100000Y-66700000D03*
G04 #@! TO.P,U1,6*
G04 #@! TO.N,Net-(C4-Pad2)*
X143100000Y-67650000D03*
G04 #@! TO.P,U1,4*
G04 #@! TO.N,Net-(U1-Pad4)*
X143100000Y-65750000D03*
G04 #@! TO.P,U1,3*
G04 #@! TO.N,Net-(U1-Pad3)*
X145300000Y-65750000D03*
G04 #@! TO.P,U1,2*
G04 #@! TO.N,Net-(R4-Pad1)*
X145300000Y-66700000D03*
G04 #@! TO.P,U1,1*
G04 #@! TO.N,Net-(U1-Pad1)*
X145300000Y-67650000D03*
G04 #@! TD*
D20*
G04 #@! TO.N,Net-(Q3-Pad2)*
G04 #@! TO.C,R10*
G36*
X146877691Y-83076053D02*
X146898926Y-83079203D01*
X146919750Y-83084419D01*
X146939962Y-83091651D01*
X146959368Y-83100830D01*
X146977781Y-83111866D01*
X146995024Y-83124654D01*
X147010930Y-83139070D01*
X147025346Y-83154976D01*
X147038134Y-83172219D01*
X147049170Y-83190632D01*
X147058349Y-83210038D01*
X147065581Y-83230250D01*
X147070797Y-83251074D01*
X147073947Y-83272309D01*
X147075000Y-83293750D01*
X147075000Y-83731250D01*
X147073947Y-83752691D01*
X147070797Y-83773926D01*
X147065581Y-83794750D01*
X147058349Y-83814962D01*
X147049170Y-83834368D01*
X147038134Y-83852781D01*
X147025346Y-83870024D01*
X147010930Y-83885930D01*
X146995024Y-83900346D01*
X146977781Y-83913134D01*
X146959368Y-83924170D01*
X146939962Y-83933349D01*
X146919750Y-83940581D01*
X146898926Y-83945797D01*
X146877691Y-83948947D01*
X146856250Y-83950000D01*
X146343750Y-83950000D01*
X146322309Y-83948947D01*
X146301074Y-83945797D01*
X146280250Y-83940581D01*
X146260038Y-83933349D01*
X146240632Y-83924170D01*
X146222219Y-83913134D01*
X146204976Y-83900346D01*
X146189070Y-83885930D01*
X146174654Y-83870024D01*
X146161866Y-83852781D01*
X146150830Y-83834368D01*
X146141651Y-83814962D01*
X146134419Y-83794750D01*
X146129203Y-83773926D01*
X146126053Y-83752691D01*
X146125000Y-83731250D01*
X146125000Y-83293750D01*
X146126053Y-83272309D01*
X146129203Y-83251074D01*
X146134419Y-83230250D01*
X146141651Y-83210038D01*
X146150830Y-83190632D01*
X146161866Y-83172219D01*
X146174654Y-83154976D01*
X146189070Y-83139070D01*
X146204976Y-83124654D01*
X146222219Y-83111866D01*
X146240632Y-83100830D01*
X146260038Y-83091651D01*
X146280250Y-83084419D01*
X146301074Y-83079203D01*
X146322309Y-83076053D01*
X146343750Y-83075000D01*
X146856250Y-83075000D01*
X146877691Y-83076053D01*
X146877691Y-83076053D01*
G37*
D21*
G04 #@! TD*
G04 #@! TO.P,R10,2*
G04 #@! TO.N,Net-(Q3-Pad2)*
X146600000Y-83512500D03*
D20*
G04 #@! TO.N,Net-(C6-Pad1)*
G04 #@! TO.C,R10*
G36*
X146877691Y-84651053D02*
X146898926Y-84654203D01*
X146919750Y-84659419D01*
X146939962Y-84666651D01*
X146959368Y-84675830D01*
X146977781Y-84686866D01*
X146995024Y-84699654D01*
X147010930Y-84714070D01*
X147025346Y-84729976D01*
X147038134Y-84747219D01*
X147049170Y-84765632D01*
X147058349Y-84785038D01*
X147065581Y-84805250D01*
X147070797Y-84826074D01*
X147073947Y-84847309D01*
X147075000Y-84868750D01*
X147075000Y-85306250D01*
X147073947Y-85327691D01*
X147070797Y-85348926D01*
X147065581Y-85369750D01*
X147058349Y-85389962D01*
X147049170Y-85409368D01*
X147038134Y-85427781D01*
X147025346Y-85445024D01*
X147010930Y-85460930D01*
X146995024Y-85475346D01*
X146977781Y-85488134D01*
X146959368Y-85499170D01*
X146939962Y-85508349D01*
X146919750Y-85515581D01*
X146898926Y-85520797D01*
X146877691Y-85523947D01*
X146856250Y-85525000D01*
X146343750Y-85525000D01*
X146322309Y-85523947D01*
X146301074Y-85520797D01*
X146280250Y-85515581D01*
X146260038Y-85508349D01*
X146240632Y-85499170D01*
X146222219Y-85488134D01*
X146204976Y-85475346D01*
X146189070Y-85460930D01*
X146174654Y-85445024D01*
X146161866Y-85427781D01*
X146150830Y-85409368D01*
X146141651Y-85389962D01*
X146134419Y-85369750D01*
X146129203Y-85348926D01*
X146126053Y-85327691D01*
X146125000Y-85306250D01*
X146125000Y-84868750D01*
X146126053Y-84847309D01*
X146129203Y-84826074D01*
X146134419Y-84805250D01*
X146141651Y-84785038D01*
X146150830Y-84765632D01*
X146161866Y-84747219D01*
X146174654Y-84729976D01*
X146189070Y-84714070D01*
X146204976Y-84699654D01*
X146222219Y-84686866D01*
X146240632Y-84675830D01*
X146260038Y-84666651D01*
X146280250Y-84659419D01*
X146301074Y-84654203D01*
X146322309Y-84651053D01*
X146343750Y-84650000D01*
X146856250Y-84650000D01*
X146877691Y-84651053D01*
X146877691Y-84651053D01*
G37*
D21*
G04 #@! TD*
G04 #@! TO.P,R10,1*
G04 #@! TO.N,Net-(C6-Pad1)*
X146600000Y-85087500D03*
D20*
G04 #@! TO.N,Net-(Q2-Pad2)*
G04 #@! TO.C,R6*
G36*
X146877691Y-72576053D02*
X146898926Y-72579203D01*
X146919750Y-72584419D01*
X146939962Y-72591651D01*
X146959368Y-72600830D01*
X146977781Y-72611866D01*
X146995024Y-72624654D01*
X147010930Y-72639070D01*
X147025346Y-72654976D01*
X147038134Y-72672219D01*
X147049170Y-72690632D01*
X147058349Y-72710038D01*
X147065581Y-72730250D01*
X147070797Y-72751074D01*
X147073947Y-72772309D01*
X147075000Y-72793750D01*
X147075000Y-73231250D01*
X147073947Y-73252691D01*
X147070797Y-73273926D01*
X147065581Y-73294750D01*
X147058349Y-73314962D01*
X147049170Y-73334368D01*
X147038134Y-73352781D01*
X147025346Y-73370024D01*
X147010930Y-73385930D01*
X146995024Y-73400346D01*
X146977781Y-73413134D01*
X146959368Y-73424170D01*
X146939962Y-73433349D01*
X146919750Y-73440581D01*
X146898926Y-73445797D01*
X146877691Y-73448947D01*
X146856250Y-73450000D01*
X146343750Y-73450000D01*
X146322309Y-73448947D01*
X146301074Y-73445797D01*
X146280250Y-73440581D01*
X146260038Y-73433349D01*
X146240632Y-73424170D01*
X146222219Y-73413134D01*
X146204976Y-73400346D01*
X146189070Y-73385930D01*
X146174654Y-73370024D01*
X146161866Y-73352781D01*
X146150830Y-73334368D01*
X146141651Y-73314962D01*
X146134419Y-73294750D01*
X146129203Y-73273926D01*
X146126053Y-73252691D01*
X146125000Y-73231250D01*
X146125000Y-72793750D01*
X146126053Y-72772309D01*
X146129203Y-72751074D01*
X146134419Y-72730250D01*
X146141651Y-72710038D01*
X146150830Y-72690632D01*
X146161866Y-72672219D01*
X146174654Y-72654976D01*
X146189070Y-72639070D01*
X146204976Y-72624654D01*
X146222219Y-72611866D01*
X146240632Y-72600830D01*
X146260038Y-72591651D01*
X146280250Y-72584419D01*
X146301074Y-72579203D01*
X146322309Y-72576053D01*
X146343750Y-72575000D01*
X146856250Y-72575000D01*
X146877691Y-72576053D01*
X146877691Y-72576053D01*
G37*
D21*
G04 #@! TD*
G04 #@! TO.P,R6,2*
G04 #@! TO.N,Net-(Q2-Pad2)*
X146600000Y-73012500D03*
D20*
G04 #@! TO.N,Net-(C5-Pad1)*
G04 #@! TO.C,R6*
G36*
X146877691Y-74151053D02*
X146898926Y-74154203D01*
X146919750Y-74159419D01*
X146939962Y-74166651D01*
X146959368Y-74175830D01*
X146977781Y-74186866D01*
X146995024Y-74199654D01*
X147010930Y-74214070D01*
X147025346Y-74229976D01*
X147038134Y-74247219D01*
X147049170Y-74265632D01*
X147058349Y-74285038D01*
X147065581Y-74305250D01*
X147070797Y-74326074D01*
X147073947Y-74347309D01*
X147075000Y-74368750D01*
X147075000Y-74806250D01*
X147073947Y-74827691D01*
X147070797Y-74848926D01*
X147065581Y-74869750D01*
X147058349Y-74889962D01*
X147049170Y-74909368D01*
X147038134Y-74927781D01*
X147025346Y-74945024D01*
X147010930Y-74960930D01*
X146995024Y-74975346D01*
X146977781Y-74988134D01*
X146959368Y-74999170D01*
X146939962Y-75008349D01*
X146919750Y-75015581D01*
X146898926Y-75020797D01*
X146877691Y-75023947D01*
X146856250Y-75025000D01*
X146343750Y-75025000D01*
X146322309Y-75023947D01*
X146301074Y-75020797D01*
X146280250Y-75015581D01*
X146260038Y-75008349D01*
X146240632Y-74999170D01*
X146222219Y-74988134D01*
X146204976Y-74975346D01*
X146189070Y-74960930D01*
X146174654Y-74945024D01*
X146161866Y-74927781D01*
X146150830Y-74909368D01*
X146141651Y-74889962D01*
X146134419Y-74869750D01*
X146129203Y-74848926D01*
X146126053Y-74827691D01*
X146125000Y-74806250D01*
X146125000Y-74368750D01*
X146126053Y-74347309D01*
X146129203Y-74326074D01*
X146134419Y-74305250D01*
X146141651Y-74285038D01*
X146150830Y-74265632D01*
X146161866Y-74247219D01*
X146174654Y-74229976D01*
X146189070Y-74214070D01*
X146204976Y-74199654D01*
X146222219Y-74186866D01*
X146240632Y-74175830D01*
X146260038Y-74166651D01*
X146280250Y-74159419D01*
X146301074Y-74154203D01*
X146322309Y-74151053D01*
X146343750Y-74150000D01*
X146856250Y-74150000D01*
X146877691Y-74151053D01*
X146877691Y-74151053D01*
G37*
D21*
G04 #@! TD*
G04 #@! TO.P,R6,1*
G04 #@! TO.N,Net-(C5-Pad1)*
X146600000Y-74587500D03*
D20*
G04 #@! TO.N,Net-(C5-Pad2)*
G04 #@! TO.C,R8*
G36*
X138977691Y-77951053D02*
X138998926Y-77954203D01*
X139019750Y-77959419D01*
X139039962Y-77966651D01*
X139059368Y-77975830D01*
X139077781Y-77986866D01*
X139095024Y-77999654D01*
X139110930Y-78014070D01*
X139125346Y-78029976D01*
X139138134Y-78047219D01*
X139149170Y-78065632D01*
X139158349Y-78085038D01*
X139165581Y-78105250D01*
X139170797Y-78126074D01*
X139173947Y-78147309D01*
X139175000Y-78168750D01*
X139175000Y-78606250D01*
X139173947Y-78627691D01*
X139170797Y-78648926D01*
X139165581Y-78669750D01*
X139158349Y-78689962D01*
X139149170Y-78709368D01*
X139138134Y-78727781D01*
X139125346Y-78745024D01*
X139110930Y-78760930D01*
X139095024Y-78775346D01*
X139077781Y-78788134D01*
X139059368Y-78799170D01*
X139039962Y-78808349D01*
X139019750Y-78815581D01*
X138998926Y-78820797D01*
X138977691Y-78823947D01*
X138956250Y-78825000D01*
X138443750Y-78825000D01*
X138422309Y-78823947D01*
X138401074Y-78820797D01*
X138380250Y-78815581D01*
X138360038Y-78808349D01*
X138340632Y-78799170D01*
X138322219Y-78788134D01*
X138304976Y-78775346D01*
X138289070Y-78760930D01*
X138274654Y-78745024D01*
X138261866Y-78727781D01*
X138250830Y-78709368D01*
X138241651Y-78689962D01*
X138234419Y-78669750D01*
X138229203Y-78648926D01*
X138226053Y-78627691D01*
X138225000Y-78606250D01*
X138225000Y-78168750D01*
X138226053Y-78147309D01*
X138229203Y-78126074D01*
X138234419Y-78105250D01*
X138241651Y-78085038D01*
X138250830Y-78065632D01*
X138261866Y-78047219D01*
X138274654Y-78029976D01*
X138289070Y-78014070D01*
X138304976Y-77999654D01*
X138322219Y-77986866D01*
X138340632Y-77975830D01*
X138360038Y-77966651D01*
X138380250Y-77959419D01*
X138401074Y-77954203D01*
X138422309Y-77951053D01*
X138443750Y-77950000D01*
X138956250Y-77950000D01*
X138977691Y-77951053D01*
X138977691Y-77951053D01*
G37*
D21*
G04 #@! TD*
G04 #@! TO.P,R8,2*
G04 #@! TO.N,Net-(C5-Pad2)*
X138700000Y-78387500D03*
D20*
G04 #@! TO.N,Net-(Q2-Pad1)*
G04 #@! TO.C,R8*
G36*
X138977691Y-76376053D02*
X138998926Y-76379203D01*
X139019750Y-76384419D01*
X139039962Y-76391651D01*
X139059368Y-76400830D01*
X139077781Y-76411866D01*
X139095024Y-76424654D01*
X139110930Y-76439070D01*
X139125346Y-76454976D01*
X139138134Y-76472219D01*
X139149170Y-76490632D01*
X139158349Y-76510038D01*
X139165581Y-76530250D01*
X139170797Y-76551074D01*
X139173947Y-76572309D01*
X139175000Y-76593750D01*
X139175000Y-77031250D01*
X139173947Y-77052691D01*
X139170797Y-77073926D01*
X139165581Y-77094750D01*
X139158349Y-77114962D01*
X139149170Y-77134368D01*
X139138134Y-77152781D01*
X139125346Y-77170024D01*
X139110930Y-77185930D01*
X139095024Y-77200346D01*
X139077781Y-77213134D01*
X139059368Y-77224170D01*
X139039962Y-77233349D01*
X139019750Y-77240581D01*
X138998926Y-77245797D01*
X138977691Y-77248947D01*
X138956250Y-77250000D01*
X138443750Y-77250000D01*
X138422309Y-77248947D01*
X138401074Y-77245797D01*
X138380250Y-77240581D01*
X138360038Y-77233349D01*
X138340632Y-77224170D01*
X138322219Y-77213134D01*
X138304976Y-77200346D01*
X138289070Y-77185930D01*
X138274654Y-77170024D01*
X138261866Y-77152781D01*
X138250830Y-77134368D01*
X138241651Y-77114962D01*
X138234419Y-77094750D01*
X138229203Y-77073926D01*
X138226053Y-77052691D01*
X138225000Y-77031250D01*
X138225000Y-76593750D01*
X138226053Y-76572309D01*
X138229203Y-76551074D01*
X138234419Y-76530250D01*
X138241651Y-76510038D01*
X138250830Y-76490632D01*
X138261866Y-76472219D01*
X138274654Y-76454976D01*
X138289070Y-76439070D01*
X138304976Y-76424654D01*
X138322219Y-76411866D01*
X138340632Y-76400830D01*
X138360038Y-76391651D01*
X138380250Y-76384419D01*
X138401074Y-76379203D01*
X138422309Y-76376053D01*
X138443750Y-76375000D01*
X138956250Y-76375000D01*
X138977691Y-76376053D01*
X138977691Y-76376053D01*
G37*
D21*
G04 #@! TD*
G04 #@! TO.P,R8,1*
G04 #@! TO.N,Net-(Q2-Pad1)*
X138700000Y-76812500D03*
D20*
G04 #@! TO.N,Net-(C5-Pad2)*
G04 #@! TO.C,R7*
G36*
X140477691Y-77951053D02*
X140498926Y-77954203D01*
X140519750Y-77959419D01*
X140539962Y-77966651D01*
X140559368Y-77975830D01*
X140577781Y-77986866D01*
X140595024Y-77999654D01*
X140610930Y-78014070D01*
X140625346Y-78029976D01*
X140638134Y-78047219D01*
X140649170Y-78065632D01*
X140658349Y-78085038D01*
X140665581Y-78105250D01*
X140670797Y-78126074D01*
X140673947Y-78147309D01*
X140675000Y-78168750D01*
X140675000Y-78606250D01*
X140673947Y-78627691D01*
X140670797Y-78648926D01*
X140665581Y-78669750D01*
X140658349Y-78689962D01*
X140649170Y-78709368D01*
X140638134Y-78727781D01*
X140625346Y-78745024D01*
X140610930Y-78760930D01*
X140595024Y-78775346D01*
X140577781Y-78788134D01*
X140559368Y-78799170D01*
X140539962Y-78808349D01*
X140519750Y-78815581D01*
X140498926Y-78820797D01*
X140477691Y-78823947D01*
X140456250Y-78825000D01*
X139943750Y-78825000D01*
X139922309Y-78823947D01*
X139901074Y-78820797D01*
X139880250Y-78815581D01*
X139860038Y-78808349D01*
X139840632Y-78799170D01*
X139822219Y-78788134D01*
X139804976Y-78775346D01*
X139789070Y-78760930D01*
X139774654Y-78745024D01*
X139761866Y-78727781D01*
X139750830Y-78709368D01*
X139741651Y-78689962D01*
X139734419Y-78669750D01*
X139729203Y-78648926D01*
X139726053Y-78627691D01*
X139725000Y-78606250D01*
X139725000Y-78168750D01*
X139726053Y-78147309D01*
X139729203Y-78126074D01*
X139734419Y-78105250D01*
X139741651Y-78085038D01*
X139750830Y-78065632D01*
X139761866Y-78047219D01*
X139774654Y-78029976D01*
X139789070Y-78014070D01*
X139804976Y-77999654D01*
X139822219Y-77986866D01*
X139840632Y-77975830D01*
X139860038Y-77966651D01*
X139880250Y-77959419D01*
X139901074Y-77954203D01*
X139922309Y-77951053D01*
X139943750Y-77950000D01*
X140456250Y-77950000D01*
X140477691Y-77951053D01*
X140477691Y-77951053D01*
G37*
D21*
G04 #@! TD*
G04 #@! TO.P,R7,2*
G04 #@! TO.N,Net-(C5-Pad2)*
X140200000Y-78387500D03*
D20*
G04 #@! TO.N,Net-(D7-Pad2)*
G04 #@! TO.C,R7*
G36*
X140477691Y-76376053D02*
X140498926Y-76379203D01*
X140519750Y-76384419D01*
X140539962Y-76391651D01*
X140559368Y-76400830D01*
X140577781Y-76411866D01*
X140595024Y-76424654D01*
X140610930Y-76439070D01*
X140625346Y-76454976D01*
X140638134Y-76472219D01*
X140649170Y-76490632D01*
X140658349Y-76510038D01*
X140665581Y-76530250D01*
X140670797Y-76551074D01*
X140673947Y-76572309D01*
X140675000Y-76593750D01*
X140675000Y-77031250D01*
X140673947Y-77052691D01*
X140670797Y-77073926D01*
X140665581Y-77094750D01*
X140658349Y-77114962D01*
X140649170Y-77134368D01*
X140638134Y-77152781D01*
X140625346Y-77170024D01*
X140610930Y-77185930D01*
X140595024Y-77200346D01*
X140577781Y-77213134D01*
X140559368Y-77224170D01*
X140539962Y-77233349D01*
X140519750Y-77240581D01*
X140498926Y-77245797D01*
X140477691Y-77248947D01*
X140456250Y-77250000D01*
X139943750Y-77250000D01*
X139922309Y-77248947D01*
X139901074Y-77245797D01*
X139880250Y-77240581D01*
X139860038Y-77233349D01*
X139840632Y-77224170D01*
X139822219Y-77213134D01*
X139804976Y-77200346D01*
X139789070Y-77185930D01*
X139774654Y-77170024D01*
X139761866Y-77152781D01*
X139750830Y-77134368D01*
X139741651Y-77114962D01*
X139734419Y-77094750D01*
X139729203Y-77073926D01*
X139726053Y-77052691D01*
X139725000Y-77031250D01*
X139725000Y-76593750D01*
X139726053Y-76572309D01*
X139729203Y-76551074D01*
X139734419Y-76530250D01*
X139741651Y-76510038D01*
X139750830Y-76490632D01*
X139761866Y-76472219D01*
X139774654Y-76454976D01*
X139789070Y-76439070D01*
X139804976Y-76424654D01*
X139822219Y-76411866D01*
X139840632Y-76400830D01*
X139860038Y-76391651D01*
X139880250Y-76384419D01*
X139901074Y-76379203D01*
X139922309Y-76376053D01*
X139943750Y-76375000D01*
X140456250Y-76375000D01*
X140477691Y-76376053D01*
X140477691Y-76376053D01*
G37*
D21*
G04 #@! TD*
G04 #@! TO.P,R7,1*
G04 #@! TO.N,Net-(D7-Pad2)*
X140200000Y-76812500D03*
D20*
G04 #@! TO.N,Net-(D6-Pad2)*
G04 #@! TO.C,R5*
G36*
X160827691Y-92926053D02*
X160848926Y-92929203D01*
X160869750Y-92934419D01*
X160889962Y-92941651D01*
X160909368Y-92950830D01*
X160927781Y-92961866D01*
X160945024Y-92974654D01*
X160960930Y-92989070D01*
X160975346Y-93004976D01*
X160988134Y-93022219D01*
X160999170Y-93040632D01*
X161008349Y-93060038D01*
X161015581Y-93080250D01*
X161020797Y-93101074D01*
X161023947Y-93122309D01*
X161025000Y-93143750D01*
X161025000Y-93656250D01*
X161023947Y-93677691D01*
X161020797Y-93698926D01*
X161015581Y-93719750D01*
X161008349Y-93739962D01*
X160999170Y-93759368D01*
X160988134Y-93777781D01*
X160975346Y-93795024D01*
X160960930Y-93810930D01*
X160945024Y-93825346D01*
X160927781Y-93838134D01*
X160909368Y-93849170D01*
X160889962Y-93858349D01*
X160869750Y-93865581D01*
X160848926Y-93870797D01*
X160827691Y-93873947D01*
X160806250Y-93875000D01*
X160368750Y-93875000D01*
X160347309Y-93873947D01*
X160326074Y-93870797D01*
X160305250Y-93865581D01*
X160285038Y-93858349D01*
X160265632Y-93849170D01*
X160247219Y-93838134D01*
X160229976Y-93825346D01*
X160214070Y-93810930D01*
X160199654Y-93795024D01*
X160186866Y-93777781D01*
X160175830Y-93759368D01*
X160166651Y-93739962D01*
X160159419Y-93719750D01*
X160154203Y-93698926D01*
X160151053Y-93677691D01*
X160150000Y-93656250D01*
X160150000Y-93143750D01*
X160151053Y-93122309D01*
X160154203Y-93101074D01*
X160159419Y-93080250D01*
X160166651Y-93060038D01*
X160175830Y-93040632D01*
X160186866Y-93022219D01*
X160199654Y-93004976D01*
X160214070Y-92989070D01*
X160229976Y-92974654D01*
X160247219Y-92961866D01*
X160265632Y-92950830D01*
X160285038Y-92941651D01*
X160305250Y-92934419D01*
X160326074Y-92929203D01*
X160347309Y-92926053D01*
X160368750Y-92925000D01*
X160806250Y-92925000D01*
X160827691Y-92926053D01*
X160827691Y-92926053D01*
G37*
D21*
G04 #@! TD*
G04 #@! TO.P,R5,2*
G04 #@! TO.N,Net-(D6-Pad2)*
X160587500Y-93400000D03*
D20*
G04 #@! TO.N,+12V*
G04 #@! TO.C,R5*
G36*
X159252691Y-92926053D02*
X159273926Y-92929203D01*
X159294750Y-92934419D01*
X159314962Y-92941651D01*
X159334368Y-92950830D01*
X159352781Y-92961866D01*
X159370024Y-92974654D01*
X159385930Y-92989070D01*
X159400346Y-93004976D01*
X159413134Y-93022219D01*
X159424170Y-93040632D01*
X159433349Y-93060038D01*
X159440581Y-93080250D01*
X159445797Y-93101074D01*
X159448947Y-93122309D01*
X159450000Y-93143750D01*
X159450000Y-93656250D01*
X159448947Y-93677691D01*
X159445797Y-93698926D01*
X159440581Y-93719750D01*
X159433349Y-93739962D01*
X159424170Y-93759368D01*
X159413134Y-93777781D01*
X159400346Y-93795024D01*
X159385930Y-93810930D01*
X159370024Y-93825346D01*
X159352781Y-93838134D01*
X159334368Y-93849170D01*
X159314962Y-93858349D01*
X159294750Y-93865581D01*
X159273926Y-93870797D01*
X159252691Y-93873947D01*
X159231250Y-93875000D01*
X158793750Y-93875000D01*
X158772309Y-93873947D01*
X158751074Y-93870797D01*
X158730250Y-93865581D01*
X158710038Y-93858349D01*
X158690632Y-93849170D01*
X158672219Y-93838134D01*
X158654976Y-93825346D01*
X158639070Y-93810930D01*
X158624654Y-93795024D01*
X158611866Y-93777781D01*
X158600830Y-93759368D01*
X158591651Y-93739962D01*
X158584419Y-93719750D01*
X158579203Y-93698926D01*
X158576053Y-93677691D01*
X158575000Y-93656250D01*
X158575000Y-93143750D01*
X158576053Y-93122309D01*
X158579203Y-93101074D01*
X158584419Y-93080250D01*
X158591651Y-93060038D01*
X158600830Y-93040632D01*
X158611866Y-93022219D01*
X158624654Y-93004976D01*
X158639070Y-92989070D01*
X158654976Y-92974654D01*
X158672219Y-92961866D01*
X158690632Y-92950830D01*
X158710038Y-92941651D01*
X158730250Y-92934419D01*
X158751074Y-92929203D01*
X158772309Y-92926053D01*
X158793750Y-92925000D01*
X159231250Y-92925000D01*
X159252691Y-92926053D01*
X159252691Y-92926053D01*
G37*
D21*
G04 #@! TD*
G04 #@! TO.P,R5,1*
G04 #@! TO.N,+12V*
X159012500Y-93400000D03*
D20*
G04 #@! TO.N,Net-(Q2-Pad2)*
G04 #@! TO.C,R4*
G36*
X147077691Y-67363553D02*
X147098926Y-67366703D01*
X147119750Y-67371919D01*
X147139962Y-67379151D01*
X147159368Y-67388330D01*
X147177781Y-67399366D01*
X147195024Y-67412154D01*
X147210930Y-67426570D01*
X147225346Y-67442476D01*
X147238134Y-67459719D01*
X147249170Y-67478132D01*
X147258349Y-67497538D01*
X147265581Y-67517750D01*
X147270797Y-67538574D01*
X147273947Y-67559809D01*
X147275000Y-67581250D01*
X147275000Y-68018750D01*
X147273947Y-68040191D01*
X147270797Y-68061426D01*
X147265581Y-68082250D01*
X147258349Y-68102462D01*
X147249170Y-68121868D01*
X147238134Y-68140281D01*
X147225346Y-68157524D01*
X147210930Y-68173430D01*
X147195024Y-68187846D01*
X147177781Y-68200634D01*
X147159368Y-68211670D01*
X147139962Y-68220849D01*
X147119750Y-68228081D01*
X147098926Y-68233297D01*
X147077691Y-68236447D01*
X147056250Y-68237500D01*
X146543750Y-68237500D01*
X146522309Y-68236447D01*
X146501074Y-68233297D01*
X146480250Y-68228081D01*
X146460038Y-68220849D01*
X146440632Y-68211670D01*
X146422219Y-68200634D01*
X146404976Y-68187846D01*
X146389070Y-68173430D01*
X146374654Y-68157524D01*
X146361866Y-68140281D01*
X146350830Y-68121868D01*
X146341651Y-68102462D01*
X146334419Y-68082250D01*
X146329203Y-68061426D01*
X146326053Y-68040191D01*
X146325000Y-68018750D01*
X146325000Y-67581250D01*
X146326053Y-67559809D01*
X146329203Y-67538574D01*
X146334419Y-67517750D01*
X146341651Y-67497538D01*
X146350830Y-67478132D01*
X146361866Y-67459719D01*
X146374654Y-67442476D01*
X146389070Y-67426570D01*
X146404976Y-67412154D01*
X146422219Y-67399366D01*
X146440632Y-67388330D01*
X146460038Y-67379151D01*
X146480250Y-67371919D01*
X146501074Y-67366703D01*
X146522309Y-67363553D01*
X146543750Y-67362500D01*
X147056250Y-67362500D01*
X147077691Y-67363553D01*
X147077691Y-67363553D01*
G37*
D21*
G04 #@! TD*
G04 #@! TO.P,R4,2*
G04 #@! TO.N,Net-(Q2-Pad2)*
X146800000Y-67800000D03*
D20*
G04 #@! TO.N,Net-(R4-Pad1)*
G04 #@! TO.C,R4*
G36*
X147077691Y-65788553D02*
X147098926Y-65791703D01*
X147119750Y-65796919D01*
X147139962Y-65804151D01*
X147159368Y-65813330D01*
X147177781Y-65824366D01*
X147195024Y-65837154D01*
X147210930Y-65851570D01*
X147225346Y-65867476D01*
X147238134Y-65884719D01*
X147249170Y-65903132D01*
X147258349Y-65922538D01*
X147265581Y-65942750D01*
X147270797Y-65963574D01*
X147273947Y-65984809D01*
X147275000Y-66006250D01*
X147275000Y-66443750D01*
X147273947Y-66465191D01*
X147270797Y-66486426D01*
X147265581Y-66507250D01*
X147258349Y-66527462D01*
X147249170Y-66546868D01*
X147238134Y-66565281D01*
X147225346Y-66582524D01*
X147210930Y-66598430D01*
X147195024Y-66612846D01*
X147177781Y-66625634D01*
X147159368Y-66636670D01*
X147139962Y-66645849D01*
X147119750Y-66653081D01*
X147098926Y-66658297D01*
X147077691Y-66661447D01*
X147056250Y-66662500D01*
X146543750Y-66662500D01*
X146522309Y-66661447D01*
X146501074Y-66658297D01*
X146480250Y-66653081D01*
X146460038Y-66645849D01*
X146440632Y-66636670D01*
X146422219Y-66625634D01*
X146404976Y-66612846D01*
X146389070Y-66598430D01*
X146374654Y-66582524D01*
X146361866Y-66565281D01*
X146350830Y-66546868D01*
X146341651Y-66527462D01*
X146334419Y-66507250D01*
X146329203Y-66486426D01*
X146326053Y-66465191D01*
X146325000Y-66443750D01*
X146325000Y-66006250D01*
X146326053Y-65984809D01*
X146329203Y-65963574D01*
X146334419Y-65942750D01*
X146341651Y-65922538D01*
X146350830Y-65903132D01*
X146361866Y-65884719D01*
X146374654Y-65867476D01*
X146389070Y-65851570D01*
X146404976Y-65837154D01*
X146422219Y-65824366D01*
X146440632Y-65813330D01*
X146460038Y-65804151D01*
X146480250Y-65796919D01*
X146501074Y-65791703D01*
X146522309Y-65788553D01*
X146543750Y-65787500D01*
X147056250Y-65787500D01*
X147077691Y-65788553D01*
X147077691Y-65788553D01*
G37*
D21*
G04 #@! TD*
G04 #@! TO.P,R4,1*
G04 #@! TO.N,Net-(R4-Pad1)*
X146800000Y-66225000D03*
D20*
G04 #@! TO.N,Net-(C4-Pad2)*
G04 #@! TO.C,R3*
G36*
X138877691Y-67351053D02*
X138898926Y-67354203D01*
X138919750Y-67359419D01*
X138939962Y-67366651D01*
X138959368Y-67375830D01*
X138977781Y-67386866D01*
X138995024Y-67399654D01*
X139010930Y-67414070D01*
X139025346Y-67429976D01*
X139038134Y-67447219D01*
X139049170Y-67465632D01*
X139058349Y-67485038D01*
X139065581Y-67505250D01*
X139070797Y-67526074D01*
X139073947Y-67547309D01*
X139075000Y-67568750D01*
X139075000Y-68006250D01*
X139073947Y-68027691D01*
X139070797Y-68048926D01*
X139065581Y-68069750D01*
X139058349Y-68089962D01*
X139049170Y-68109368D01*
X139038134Y-68127781D01*
X139025346Y-68145024D01*
X139010930Y-68160930D01*
X138995024Y-68175346D01*
X138977781Y-68188134D01*
X138959368Y-68199170D01*
X138939962Y-68208349D01*
X138919750Y-68215581D01*
X138898926Y-68220797D01*
X138877691Y-68223947D01*
X138856250Y-68225000D01*
X138343750Y-68225000D01*
X138322309Y-68223947D01*
X138301074Y-68220797D01*
X138280250Y-68215581D01*
X138260038Y-68208349D01*
X138240632Y-68199170D01*
X138222219Y-68188134D01*
X138204976Y-68175346D01*
X138189070Y-68160930D01*
X138174654Y-68145024D01*
X138161866Y-68127781D01*
X138150830Y-68109368D01*
X138141651Y-68089962D01*
X138134419Y-68069750D01*
X138129203Y-68048926D01*
X138126053Y-68027691D01*
X138125000Y-68006250D01*
X138125000Y-67568750D01*
X138126053Y-67547309D01*
X138129203Y-67526074D01*
X138134419Y-67505250D01*
X138141651Y-67485038D01*
X138150830Y-67465632D01*
X138161866Y-67447219D01*
X138174654Y-67429976D01*
X138189070Y-67414070D01*
X138204976Y-67399654D01*
X138222219Y-67386866D01*
X138240632Y-67375830D01*
X138260038Y-67366651D01*
X138280250Y-67359419D01*
X138301074Y-67354203D01*
X138322309Y-67351053D01*
X138343750Y-67350000D01*
X138856250Y-67350000D01*
X138877691Y-67351053D01*
X138877691Y-67351053D01*
G37*
D21*
G04 #@! TD*
G04 #@! TO.P,R3,2*
G04 #@! TO.N,Net-(C4-Pad2)*
X138600000Y-67787500D03*
D20*
G04 #@! TO.N,Net-(Q1-Pad1)*
G04 #@! TO.C,R3*
G36*
X138877691Y-65776053D02*
X138898926Y-65779203D01*
X138919750Y-65784419D01*
X138939962Y-65791651D01*
X138959368Y-65800830D01*
X138977781Y-65811866D01*
X138995024Y-65824654D01*
X139010930Y-65839070D01*
X139025346Y-65854976D01*
X139038134Y-65872219D01*
X139049170Y-65890632D01*
X139058349Y-65910038D01*
X139065581Y-65930250D01*
X139070797Y-65951074D01*
X139073947Y-65972309D01*
X139075000Y-65993750D01*
X139075000Y-66431250D01*
X139073947Y-66452691D01*
X139070797Y-66473926D01*
X139065581Y-66494750D01*
X139058349Y-66514962D01*
X139049170Y-66534368D01*
X139038134Y-66552781D01*
X139025346Y-66570024D01*
X139010930Y-66585930D01*
X138995024Y-66600346D01*
X138977781Y-66613134D01*
X138959368Y-66624170D01*
X138939962Y-66633349D01*
X138919750Y-66640581D01*
X138898926Y-66645797D01*
X138877691Y-66648947D01*
X138856250Y-66650000D01*
X138343750Y-66650000D01*
X138322309Y-66648947D01*
X138301074Y-66645797D01*
X138280250Y-66640581D01*
X138260038Y-66633349D01*
X138240632Y-66624170D01*
X138222219Y-66613134D01*
X138204976Y-66600346D01*
X138189070Y-66585930D01*
X138174654Y-66570024D01*
X138161866Y-66552781D01*
X138150830Y-66534368D01*
X138141651Y-66514962D01*
X138134419Y-66494750D01*
X138129203Y-66473926D01*
X138126053Y-66452691D01*
X138125000Y-66431250D01*
X138125000Y-65993750D01*
X138126053Y-65972309D01*
X138129203Y-65951074D01*
X138134419Y-65930250D01*
X138141651Y-65910038D01*
X138150830Y-65890632D01*
X138161866Y-65872219D01*
X138174654Y-65854976D01*
X138189070Y-65839070D01*
X138204976Y-65824654D01*
X138222219Y-65811866D01*
X138240632Y-65800830D01*
X138260038Y-65791651D01*
X138280250Y-65784419D01*
X138301074Y-65779203D01*
X138322309Y-65776053D01*
X138343750Y-65775000D01*
X138856250Y-65775000D01*
X138877691Y-65776053D01*
X138877691Y-65776053D01*
G37*
D21*
G04 #@! TD*
G04 #@! TO.P,R3,1*
G04 #@! TO.N,Net-(Q1-Pad1)*
X138600000Y-66212500D03*
D20*
G04 #@! TO.N,Net-(C6-Pad2)*
G04 #@! TO.C,R12*
G36*
X138977691Y-88451053D02*
X138998926Y-88454203D01*
X139019750Y-88459419D01*
X139039962Y-88466651D01*
X139059368Y-88475830D01*
X139077781Y-88486866D01*
X139095024Y-88499654D01*
X139110930Y-88514070D01*
X139125346Y-88529976D01*
X139138134Y-88547219D01*
X139149170Y-88565632D01*
X139158349Y-88585038D01*
X139165581Y-88605250D01*
X139170797Y-88626074D01*
X139173947Y-88647309D01*
X139175000Y-88668750D01*
X139175000Y-89106250D01*
X139173947Y-89127691D01*
X139170797Y-89148926D01*
X139165581Y-89169750D01*
X139158349Y-89189962D01*
X139149170Y-89209368D01*
X139138134Y-89227781D01*
X139125346Y-89245024D01*
X139110930Y-89260930D01*
X139095024Y-89275346D01*
X139077781Y-89288134D01*
X139059368Y-89299170D01*
X139039962Y-89308349D01*
X139019750Y-89315581D01*
X138998926Y-89320797D01*
X138977691Y-89323947D01*
X138956250Y-89325000D01*
X138443750Y-89325000D01*
X138422309Y-89323947D01*
X138401074Y-89320797D01*
X138380250Y-89315581D01*
X138360038Y-89308349D01*
X138340632Y-89299170D01*
X138322219Y-89288134D01*
X138304976Y-89275346D01*
X138289070Y-89260930D01*
X138274654Y-89245024D01*
X138261866Y-89227781D01*
X138250830Y-89209368D01*
X138241651Y-89189962D01*
X138234419Y-89169750D01*
X138229203Y-89148926D01*
X138226053Y-89127691D01*
X138225000Y-89106250D01*
X138225000Y-88668750D01*
X138226053Y-88647309D01*
X138229203Y-88626074D01*
X138234419Y-88605250D01*
X138241651Y-88585038D01*
X138250830Y-88565632D01*
X138261866Y-88547219D01*
X138274654Y-88529976D01*
X138289070Y-88514070D01*
X138304976Y-88499654D01*
X138322219Y-88486866D01*
X138340632Y-88475830D01*
X138360038Y-88466651D01*
X138380250Y-88459419D01*
X138401074Y-88454203D01*
X138422309Y-88451053D01*
X138443750Y-88450000D01*
X138956250Y-88450000D01*
X138977691Y-88451053D01*
X138977691Y-88451053D01*
G37*
D21*
G04 #@! TD*
G04 #@! TO.P,R12,2*
G04 #@! TO.N,Net-(C6-Pad2)*
X138700000Y-88887500D03*
D20*
G04 #@! TO.N,Net-(Q3-Pad1)*
G04 #@! TO.C,R12*
G36*
X138977691Y-86876053D02*
X138998926Y-86879203D01*
X139019750Y-86884419D01*
X139039962Y-86891651D01*
X139059368Y-86900830D01*
X139077781Y-86911866D01*
X139095024Y-86924654D01*
X139110930Y-86939070D01*
X139125346Y-86954976D01*
X139138134Y-86972219D01*
X139149170Y-86990632D01*
X139158349Y-87010038D01*
X139165581Y-87030250D01*
X139170797Y-87051074D01*
X139173947Y-87072309D01*
X139175000Y-87093750D01*
X139175000Y-87531250D01*
X139173947Y-87552691D01*
X139170797Y-87573926D01*
X139165581Y-87594750D01*
X139158349Y-87614962D01*
X139149170Y-87634368D01*
X139138134Y-87652781D01*
X139125346Y-87670024D01*
X139110930Y-87685930D01*
X139095024Y-87700346D01*
X139077781Y-87713134D01*
X139059368Y-87724170D01*
X139039962Y-87733349D01*
X139019750Y-87740581D01*
X138998926Y-87745797D01*
X138977691Y-87748947D01*
X138956250Y-87750000D01*
X138443750Y-87750000D01*
X138422309Y-87748947D01*
X138401074Y-87745797D01*
X138380250Y-87740581D01*
X138360038Y-87733349D01*
X138340632Y-87724170D01*
X138322219Y-87713134D01*
X138304976Y-87700346D01*
X138289070Y-87685930D01*
X138274654Y-87670024D01*
X138261866Y-87652781D01*
X138250830Y-87634368D01*
X138241651Y-87614962D01*
X138234419Y-87594750D01*
X138229203Y-87573926D01*
X138226053Y-87552691D01*
X138225000Y-87531250D01*
X138225000Y-87093750D01*
X138226053Y-87072309D01*
X138229203Y-87051074D01*
X138234419Y-87030250D01*
X138241651Y-87010038D01*
X138250830Y-86990632D01*
X138261866Y-86972219D01*
X138274654Y-86954976D01*
X138289070Y-86939070D01*
X138304976Y-86924654D01*
X138322219Y-86911866D01*
X138340632Y-86900830D01*
X138360038Y-86891651D01*
X138380250Y-86884419D01*
X138401074Y-86879203D01*
X138422309Y-86876053D01*
X138443750Y-86875000D01*
X138956250Y-86875000D01*
X138977691Y-86876053D01*
X138977691Y-86876053D01*
G37*
D21*
G04 #@! TD*
G04 #@! TO.P,R12,1*
G04 #@! TO.N,Net-(Q3-Pad1)*
X138700000Y-87312500D03*
D20*
G04 #@! TO.N,GND*
G04 #@! TO.C,R13*
G36*
X147377691Y-88451053D02*
X147398926Y-88454203D01*
X147419750Y-88459419D01*
X147439962Y-88466651D01*
X147459368Y-88475830D01*
X147477781Y-88486866D01*
X147495024Y-88499654D01*
X147510930Y-88514070D01*
X147525346Y-88529976D01*
X147538134Y-88547219D01*
X147549170Y-88565632D01*
X147558349Y-88585038D01*
X147565581Y-88605250D01*
X147570797Y-88626074D01*
X147573947Y-88647309D01*
X147575000Y-88668750D01*
X147575000Y-89106250D01*
X147573947Y-89127691D01*
X147570797Y-89148926D01*
X147565581Y-89169750D01*
X147558349Y-89189962D01*
X147549170Y-89209368D01*
X147538134Y-89227781D01*
X147525346Y-89245024D01*
X147510930Y-89260930D01*
X147495024Y-89275346D01*
X147477781Y-89288134D01*
X147459368Y-89299170D01*
X147439962Y-89308349D01*
X147419750Y-89315581D01*
X147398926Y-89320797D01*
X147377691Y-89323947D01*
X147356250Y-89325000D01*
X146843750Y-89325000D01*
X146822309Y-89323947D01*
X146801074Y-89320797D01*
X146780250Y-89315581D01*
X146760038Y-89308349D01*
X146740632Y-89299170D01*
X146722219Y-89288134D01*
X146704976Y-89275346D01*
X146689070Y-89260930D01*
X146674654Y-89245024D01*
X146661866Y-89227781D01*
X146650830Y-89209368D01*
X146641651Y-89189962D01*
X146634419Y-89169750D01*
X146629203Y-89148926D01*
X146626053Y-89127691D01*
X146625000Y-89106250D01*
X146625000Y-88668750D01*
X146626053Y-88647309D01*
X146629203Y-88626074D01*
X146634419Y-88605250D01*
X146641651Y-88585038D01*
X146650830Y-88565632D01*
X146661866Y-88547219D01*
X146674654Y-88529976D01*
X146689070Y-88514070D01*
X146704976Y-88499654D01*
X146722219Y-88486866D01*
X146740632Y-88475830D01*
X146760038Y-88466651D01*
X146780250Y-88459419D01*
X146801074Y-88454203D01*
X146822309Y-88451053D01*
X146843750Y-88450000D01*
X147356250Y-88450000D01*
X147377691Y-88451053D01*
X147377691Y-88451053D01*
G37*
D21*
G04 #@! TD*
G04 #@! TO.P,R13,2*
G04 #@! TO.N,GND*
X147100000Y-88887500D03*
D20*
G04 #@! TO.N,Net-(R13-Pad1)*
G04 #@! TO.C,R13*
G36*
X147377691Y-86876053D02*
X147398926Y-86879203D01*
X147419750Y-86884419D01*
X147439962Y-86891651D01*
X147459368Y-86900830D01*
X147477781Y-86911866D01*
X147495024Y-86924654D01*
X147510930Y-86939070D01*
X147525346Y-86954976D01*
X147538134Y-86972219D01*
X147549170Y-86990632D01*
X147558349Y-87010038D01*
X147565581Y-87030250D01*
X147570797Y-87051074D01*
X147573947Y-87072309D01*
X147575000Y-87093750D01*
X147575000Y-87531250D01*
X147573947Y-87552691D01*
X147570797Y-87573926D01*
X147565581Y-87594750D01*
X147558349Y-87614962D01*
X147549170Y-87634368D01*
X147538134Y-87652781D01*
X147525346Y-87670024D01*
X147510930Y-87685930D01*
X147495024Y-87700346D01*
X147477781Y-87713134D01*
X147459368Y-87724170D01*
X147439962Y-87733349D01*
X147419750Y-87740581D01*
X147398926Y-87745797D01*
X147377691Y-87748947D01*
X147356250Y-87750000D01*
X146843750Y-87750000D01*
X146822309Y-87748947D01*
X146801074Y-87745797D01*
X146780250Y-87740581D01*
X146760038Y-87733349D01*
X146740632Y-87724170D01*
X146722219Y-87713134D01*
X146704976Y-87700346D01*
X146689070Y-87685930D01*
X146674654Y-87670024D01*
X146661866Y-87652781D01*
X146650830Y-87634368D01*
X146641651Y-87614962D01*
X146634419Y-87594750D01*
X146629203Y-87573926D01*
X146626053Y-87552691D01*
X146625000Y-87531250D01*
X146625000Y-87093750D01*
X146626053Y-87072309D01*
X146629203Y-87051074D01*
X146634419Y-87030250D01*
X146641651Y-87010038D01*
X146650830Y-86990632D01*
X146661866Y-86972219D01*
X146674654Y-86954976D01*
X146689070Y-86939070D01*
X146704976Y-86924654D01*
X146722219Y-86911866D01*
X146740632Y-86900830D01*
X146760038Y-86891651D01*
X146780250Y-86884419D01*
X146801074Y-86879203D01*
X146822309Y-86876053D01*
X146843750Y-86875000D01*
X147356250Y-86875000D01*
X147377691Y-86876053D01*
X147377691Y-86876053D01*
G37*
D21*
G04 #@! TD*
G04 #@! TO.P,R13,1*
G04 #@! TO.N,Net-(R13-Pad1)*
X147100000Y-87312500D03*
D20*
G04 #@! TO.N,Net-(F1-Pad2)*
G04 #@! TO.C,R1*
G36*
X146977691Y-62176053D02*
X146998926Y-62179203D01*
X147019750Y-62184419D01*
X147039962Y-62191651D01*
X147059368Y-62200830D01*
X147077781Y-62211866D01*
X147095024Y-62224654D01*
X147110930Y-62239070D01*
X147125346Y-62254976D01*
X147138134Y-62272219D01*
X147149170Y-62290632D01*
X147158349Y-62310038D01*
X147165581Y-62330250D01*
X147170797Y-62351074D01*
X147173947Y-62372309D01*
X147175000Y-62393750D01*
X147175000Y-62831250D01*
X147173947Y-62852691D01*
X147170797Y-62873926D01*
X147165581Y-62894750D01*
X147158349Y-62914962D01*
X147149170Y-62934368D01*
X147138134Y-62952781D01*
X147125346Y-62970024D01*
X147110930Y-62985930D01*
X147095024Y-63000346D01*
X147077781Y-63013134D01*
X147059368Y-63024170D01*
X147039962Y-63033349D01*
X147019750Y-63040581D01*
X146998926Y-63045797D01*
X146977691Y-63048947D01*
X146956250Y-63050000D01*
X146443750Y-63050000D01*
X146422309Y-63048947D01*
X146401074Y-63045797D01*
X146380250Y-63040581D01*
X146360038Y-63033349D01*
X146340632Y-63024170D01*
X146322219Y-63013134D01*
X146304976Y-63000346D01*
X146289070Y-62985930D01*
X146274654Y-62970024D01*
X146261866Y-62952781D01*
X146250830Y-62934368D01*
X146241651Y-62914962D01*
X146234419Y-62894750D01*
X146229203Y-62873926D01*
X146226053Y-62852691D01*
X146225000Y-62831250D01*
X146225000Y-62393750D01*
X146226053Y-62372309D01*
X146229203Y-62351074D01*
X146234419Y-62330250D01*
X146241651Y-62310038D01*
X146250830Y-62290632D01*
X146261866Y-62272219D01*
X146274654Y-62254976D01*
X146289070Y-62239070D01*
X146304976Y-62224654D01*
X146322219Y-62211866D01*
X146340632Y-62200830D01*
X146360038Y-62191651D01*
X146380250Y-62184419D01*
X146401074Y-62179203D01*
X146422309Y-62176053D01*
X146443750Y-62175000D01*
X146956250Y-62175000D01*
X146977691Y-62176053D01*
X146977691Y-62176053D01*
G37*
D21*
G04 #@! TD*
G04 #@! TO.P,R1,2*
G04 #@! TO.N,Net-(F1-Pad2)*
X146700000Y-62612500D03*
D20*
G04 #@! TO.N,Net-(C4-Pad1)*
G04 #@! TO.C,R1*
G36*
X146977691Y-63751053D02*
X146998926Y-63754203D01*
X147019750Y-63759419D01*
X147039962Y-63766651D01*
X147059368Y-63775830D01*
X147077781Y-63786866D01*
X147095024Y-63799654D01*
X147110930Y-63814070D01*
X147125346Y-63829976D01*
X147138134Y-63847219D01*
X147149170Y-63865632D01*
X147158349Y-63885038D01*
X147165581Y-63905250D01*
X147170797Y-63926074D01*
X147173947Y-63947309D01*
X147175000Y-63968750D01*
X147175000Y-64406250D01*
X147173947Y-64427691D01*
X147170797Y-64448926D01*
X147165581Y-64469750D01*
X147158349Y-64489962D01*
X147149170Y-64509368D01*
X147138134Y-64527781D01*
X147125346Y-64545024D01*
X147110930Y-64560930D01*
X147095024Y-64575346D01*
X147077781Y-64588134D01*
X147059368Y-64599170D01*
X147039962Y-64608349D01*
X147019750Y-64615581D01*
X146998926Y-64620797D01*
X146977691Y-64623947D01*
X146956250Y-64625000D01*
X146443750Y-64625000D01*
X146422309Y-64623947D01*
X146401074Y-64620797D01*
X146380250Y-64615581D01*
X146360038Y-64608349D01*
X146340632Y-64599170D01*
X146322219Y-64588134D01*
X146304976Y-64575346D01*
X146289070Y-64560930D01*
X146274654Y-64545024D01*
X146261866Y-64527781D01*
X146250830Y-64509368D01*
X146241651Y-64489962D01*
X146234419Y-64469750D01*
X146229203Y-64448926D01*
X146226053Y-64427691D01*
X146225000Y-64406250D01*
X146225000Y-63968750D01*
X146226053Y-63947309D01*
X146229203Y-63926074D01*
X146234419Y-63905250D01*
X146241651Y-63885038D01*
X146250830Y-63865632D01*
X146261866Y-63847219D01*
X146274654Y-63829976D01*
X146289070Y-63814070D01*
X146304976Y-63799654D01*
X146322219Y-63786866D01*
X146340632Y-63775830D01*
X146360038Y-63766651D01*
X146380250Y-63759419D01*
X146401074Y-63754203D01*
X146422309Y-63751053D01*
X146443750Y-63750000D01*
X146956250Y-63750000D01*
X146977691Y-63751053D01*
X146977691Y-63751053D01*
G37*
D21*
G04 #@! TD*
G04 #@! TO.P,R1,1*
G04 #@! TO.N,Net-(C4-Pad1)*
X146700000Y-64187500D03*
D20*
G04 #@! TO.N,Net-(C6-Pad2)*
G04 #@! TO.C,R11*
G36*
X140477691Y-88451053D02*
X140498926Y-88454203D01*
X140519750Y-88459419D01*
X140539962Y-88466651D01*
X140559368Y-88475830D01*
X140577781Y-88486866D01*
X140595024Y-88499654D01*
X140610930Y-88514070D01*
X140625346Y-88529976D01*
X140638134Y-88547219D01*
X140649170Y-88565632D01*
X140658349Y-88585038D01*
X140665581Y-88605250D01*
X140670797Y-88626074D01*
X140673947Y-88647309D01*
X140675000Y-88668750D01*
X140675000Y-89106250D01*
X140673947Y-89127691D01*
X140670797Y-89148926D01*
X140665581Y-89169750D01*
X140658349Y-89189962D01*
X140649170Y-89209368D01*
X140638134Y-89227781D01*
X140625346Y-89245024D01*
X140610930Y-89260930D01*
X140595024Y-89275346D01*
X140577781Y-89288134D01*
X140559368Y-89299170D01*
X140539962Y-89308349D01*
X140519750Y-89315581D01*
X140498926Y-89320797D01*
X140477691Y-89323947D01*
X140456250Y-89325000D01*
X139943750Y-89325000D01*
X139922309Y-89323947D01*
X139901074Y-89320797D01*
X139880250Y-89315581D01*
X139860038Y-89308349D01*
X139840632Y-89299170D01*
X139822219Y-89288134D01*
X139804976Y-89275346D01*
X139789070Y-89260930D01*
X139774654Y-89245024D01*
X139761866Y-89227781D01*
X139750830Y-89209368D01*
X139741651Y-89189962D01*
X139734419Y-89169750D01*
X139729203Y-89148926D01*
X139726053Y-89127691D01*
X139725000Y-89106250D01*
X139725000Y-88668750D01*
X139726053Y-88647309D01*
X139729203Y-88626074D01*
X139734419Y-88605250D01*
X139741651Y-88585038D01*
X139750830Y-88565632D01*
X139761866Y-88547219D01*
X139774654Y-88529976D01*
X139789070Y-88514070D01*
X139804976Y-88499654D01*
X139822219Y-88486866D01*
X139840632Y-88475830D01*
X139860038Y-88466651D01*
X139880250Y-88459419D01*
X139901074Y-88454203D01*
X139922309Y-88451053D01*
X139943750Y-88450000D01*
X140456250Y-88450000D01*
X140477691Y-88451053D01*
X140477691Y-88451053D01*
G37*
D21*
G04 #@! TD*
G04 #@! TO.P,R11,2*
G04 #@! TO.N,Net-(C6-Pad2)*
X140200000Y-88887500D03*
D20*
G04 #@! TO.N,Net-(D8-Pad2)*
G04 #@! TO.C,R11*
G36*
X140477691Y-86876053D02*
X140498926Y-86879203D01*
X140519750Y-86884419D01*
X140539962Y-86891651D01*
X140559368Y-86900830D01*
X140577781Y-86911866D01*
X140595024Y-86924654D01*
X140610930Y-86939070D01*
X140625346Y-86954976D01*
X140638134Y-86972219D01*
X140649170Y-86990632D01*
X140658349Y-87010038D01*
X140665581Y-87030250D01*
X140670797Y-87051074D01*
X140673947Y-87072309D01*
X140675000Y-87093750D01*
X140675000Y-87531250D01*
X140673947Y-87552691D01*
X140670797Y-87573926D01*
X140665581Y-87594750D01*
X140658349Y-87614962D01*
X140649170Y-87634368D01*
X140638134Y-87652781D01*
X140625346Y-87670024D01*
X140610930Y-87685930D01*
X140595024Y-87700346D01*
X140577781Y-87713134D01*
X140559368Y-87724170D01*
X140539962Y-87733349D01*
X140519750Y-87740581D01*
X140498926Y-87745797D01*
X140477691Y-87748947D01*
X140456250Y-87750000D01*
X139943750Y-87750000D01*
X139922309Y-87748947D01*
X139901074Y-87745797D01*
X139880250Y-87740581D01*
X139860038Y-87733349D01*
X139840632Y-87724170D01*
X139822219Y-87713134D01*
X139804976Y-87700346D01*
X139789070Y-87685930D01*
X139774654Y-87670024D01*
X139761866Y-87652781D01*
X139750830Y-87634368D01*
X139741651Y-87614962D01*
X139734419Y-87594750D01*
X139729203Y-87573926D01*
X139726053Y-87552691D01*
X139725000Y-87531250D01*
X139725000Y-87093750D01*
X139726053Y-87072309D01*
X139729203Y-87051074D01*
X139734419Y-87030250D01*
X139741651Y-87010038D01*
X139750830Y-86990632D01*
X139761866Y-86972219D01*
X139774654Y-86954976D01*
X139789070Y-86939070D01*
X139804976Y-86924654D01*
X139822219Y-86911866D01*
X139840632Y-86900830D01*
X139860038Y-86891651D01*
X139880250Y-86884419D01*
X139901074Y-86879203D01*
X139922309Y-86876053D01*
X139943750Y-86875000D01*
X140456250Y-86875000D01*
X140477691Y-86876053D01*
X140477691Y-86876053D01*
G37*
D21*
G04 #@! TD*
G04 #@! TO.P,R11,1*
G04 #@! TO.N,Net-(D8-Pad2)*
X140200000Y-87312500D03*
D20*
G04 #@! TO.N,Net-(C4-Pad2)*
G04 #@! TO.C,R2*
G36*
X140377691Y-67351053D02*
X140398926Y-67354203D01*
X140419750Y-67359419D01*
X140439962Y-67366651D01*
X140459368Y-67375830D01*
X140477781Y-67386866D01*
X140495024Y-67399654D01*
X140510930Y-67414070D01*
X140525346Y-67429976D01*
X140538134Y-67447219D01*
X140549170Y-67465632D01*
X140558349Y-67485038D01*
X140565581Y-67505250D01*
X140570797Y-67526074D01*
X140573947Y-67547309D01*
X140575000Y-67568750D01*
X140575000Y-68006250D01*
X140573947Y-68027691D01*
X140570797Y-68048926D01*
X140565581Y-68069750D01*
X140558349Y-68089962D01*
X140549170Y-68109368D01*
X140538134Y-68127781D01*
X140525346Y-68145024D01*
X140510930Y-68160930D01*
X140495024Y-68175346D01*
X140477781Y-68188134D01*
X140459368Y-68199170D01*
X140439962Y-68208349D01*
X140419750Y-68215581D01*
X140398926Y-68220797D01*
X140377691Y-68223947D01*
X140356250Y-68225000D01*
X139843750Y-68225000D01*
X139822309Y-68223947D01*
X139801074Y-68220797D01*
X139780250Y-68215581D01*
X139760038Y-68208349D01*
X139740632Y-68199170D01*
X139722219Y-68188134D01*
X139704976Y-68175346D01*
X139689070Y-68160930D01*
X139674654Y-68145024D01*
X139661866Y-68127781D01*
X139650830Y-68109368D01*
X139641651Y-68089962D01*
X139634419Y-68069750D01*
X139629203Y-68048926D01*
X139626053Y-68027691D01*
X139625000Y-68006250D01*
X139625000Y-67568750D01*
X139626053Y-67547309D01*
X139629203Y-67526074D01*
X139634419Y-67505250D01*
X139641651Y-67485038D01*
X139650830Y-67465632D01*
X139661866Y-67447219D01*
X139674654Y-67429976D01*
X139689070Y-67414070D01*
X139704976Y-67399654D01*
X139722219Y-67386866D01*
X139740632Y-67375830D01*
X139760038Y-67366651D01*
X139780250Y-67359419D01*
X139801074Y-67354203D01*
X139822309Y-67351053D01*
X139843750Y-67350000D01*
X140356250Y-67350000D01*
X140377691Y-67351053D01*
X140377691Y-67351053D01*
G37*
D21*
G04 #@! TD*
G04 #@! TO.P,R2,2*
G04 #@! TO.N,Net-(C4-Pad2)*
X140100000Y-67787500D03*
D20*
G04 #@! TO.N,Net-(D1-Pad2)*
G04 #@! TO.C,R2*
G36*
X140377691Y-65776053D02*
X140398926Y-65779203D01*
X140419750Y-65784419D01*
X140439962Y-65791651D01*
X140459368Y-65800830D01*
X140477781Y-65811866D01*
X140495024Y-65824654D01*
X140510930Y-65839070D01*
X140525346Y-65854976D01*
X140538134Y-65872219D01*
X140549170Y-65890632D01*
X140558349Y-65910038D01*
X140565581Y-65930250D01*
X140570797Y-65951074D01*
X140573947Y-65972309D01*
X140575000Y-65993750D01*
X140575000Y-66431250D01*
X140573947Y-66452691D01*
X140570797Y-66473926D01*
X140565581Y-66494750D01*
X140558349Y-66514962D01*
X140549170Y-66534368D01*
X140538134Y-66552781D01*
X140525346Y-66570024D01*
X140510930Y-66585930D01*
X140495024Y-66600346D01*
X140477781Y-66613134D01*
X140459368Y-66624170D01*
X140439962Y-66633349D01*
X140419750Y-66640581D01*
X140398926Y-66645797D01*
X140377691Y-66648947D01*
X140356250Y-66650000D01*
X139843750Y-66650000D01*
X139822309Y-66648947D01*
X139801074Y-66645797D01*
X139780250Y-66640581D01*
X139760038Y-66633349D01*
X139740632Y-66624170D01*
X139722219Y-66613134D01*
X139704976Y-66600346D01*
X139689070Y-66585930D01*
X139674654Y-66570024D01*
X139661866Y-66552781D01*
X139650830Y-66534368D01*
X139641651Y-66514962D01*
X139634419Y-66494750D01*
X139629203Y-66473926D01*
X139626053Y-66452691D01*
X139625000Y-66431250D01*
X139625000Y-65993750D01*
X139626053Y-65972309D01*
X139629203Y-65951074D01*
X139634419Y-65930250D01*
X139641651Y-65910038D01*
X139650830Y-65890632D01*
X139661866Y-65872219D01*
X139674654Y-65854976D01*
X139689070Y-65839070D01*
X139704976Y-65824654D01*
X139722219Y-65811866D01*
X139740632Y-65800830D01*
X139760038Y-65791651D01*
X139780250Y-65784419D01*
X139801074Y-65779203D01*
X139822309Y-65776053D01*
X139843750Y-65775000D01*
X140356250Y-65775000D01*
X140377691Y-65776053D01*
X140377691Y-65776053D01*
G37*
D21*
G04 #@! TD*
G04 #@! TO.P,R2,1*
G04 #@! TO.N,Net-(D1-Pad2)*
X140100000Y-66212500D03*
D27*
G04 #@! TO.N,GND*
X162000000Y-118000000D03*
X162000000Y-110000000D03*
X162000000Y-102000000D03*
X162000000Y-86000000D03*
X162000000Y-81000000D03*
X157000000Y-69000000D03*
X137000000Y-68000000D03*
X137000000Y-79000000D03*
X137000000Y-89000000D03*
X144000000Y-104000000D03*
X142000000Y-119000000D03*
X137300000Y-107800000D03*
G04 #@! TO.N,Net-(Q3-Pad1)*
X137500000Y-87300000D03*
X143500000Y-85700000D03*
G04 #@! TO.N,Net-(Q1-Pad1)*
X144000000Y-64500000D03*
X137500000Y-66200000D03*
G04 #@! TO.N,Net-(Q2-Pad1)*
X143600000Y-74900000D03*
X137500000Y-76800000D03*
G04 #@! TO.N,Net-(U1-Pad3)*
X147350000Y-71800040D03*
X147318646Y-65329720D03*
G04 #@! TO.N,Net-(U3-Pad3)*
X147400000Y-82600000D03*
X147300000Y-75800000D03*
G04 #@! TO.N,Net-(U5-Pad3)*
X147400000Y-86300000D03*
X146100000Y-92400000D03*
G04 #@! TD*
D28*
G04 #@! TO.N,Net-(D1-Pad2)*
X141300000Y-64737500D02*
X141300000Y-65112500D01*
X140100000Y-65700000D02*
X140100000Y-66212500D01*
X141300000Y-64737500D02*
X141062500Y-64737500D01*
X141062500Y-64737500D02*
X140100000Y-65700000D01*
G04 #@! TO.N,Net-(C4-Pad2)*
X138600000Y-67787500D02*
X142962500Y-67787500D01*
D29*
X138600000Y-70300000D02*
X141500000Y-70300000D01*
D28*
X141450000Y-69975000D02*
X142475000Y-69975000D01*
X143100000Y-69350000D02*
X143100000Y-67650000D01*
X142475000Y-69975000D02*
X143100000Y-69350000D01*
D29*
G04 #@! TO.N,Net-(C6-Pad2)*
X138600000Y-91400000D02*
X141700000Y-91400000D01*
D28*
X143162500Y-88887500D02*
X143300000Y-88750000D01*
X138700000Y-88887500D02*
X143162500Y-88887500D01*
X143300000Y-89375000D02*
X143300000Y-88750000D01*
X143300000Y-90155002D02*
X143300000Y-89375000D01*
X142055002Y-91400000D02*
X143300000Y-90155002D01*
X141700000Y-91400000D02*
X142055002Y-91400000D01*
G04 #@! TO.N,Net-(D8-Pad2)*
X140200000Y-87137500D02*
X141500000Y-85837500D01*
X140200000Y-87312500D02*
X140200000Y-87137500D01*
G04 #@! TO.N,Net-(C4-Pad1)*
X141600000Y-66212500D02*
X142087500Y-66700000D01*
X142087500Y-66700000D02*
X143100000Y-66700000D01*
X146238388Y-64649112D02*
X146700000Y-64187500D01*
X143930000Y-66700000D02*
X144200000Y-66430000D01*
X143100000Y-66700000D02*
X143930000Y-66700000D01*
X144200000Y-66430000D02*
X144200000Y-65400000D01*
X144200000Y-65400000D02*
X144770291Y-64829709D01*
X144770291Y-64829709D02*
X146057791Y-64829709D01*
X146057791Y-64829709D02*
X146238388Y-64649112D01*
D30*
G04 #@! TO.N,Net-(F1-Pad2)*
X147767010Y-62275010D02*
X145200000Y-62275010D01*
X149920000Y-64428000D02*
X147767010Y-62275010D01*
X152920000Y-64428000D02*
X149920000Y-64428000D01*
X152920000Y-64428000D02*
X163080000Y-64428000D01*
D28*
G04 #@! TO.N,GND*
X147100000Y-88887500D02*
X146100000Y-89887500D01*
X146100000Y-89887500D02*
X146100000Y-91400000D01*
D29*
X143300000Y-94500000D02*
X144862500Y-94500000D01*
D31*
X148000000Y-103800000D02*
X148000000Y-106900000D01*
D30*
X151300000Y-100600000D02*
X155250000Y-100600000D01*
X155250000Y-100600000D02*
X155300000Y-100650000D01*
X148000000Y-103800000D02*
X148100000Y-103800000D01*
X148100000Y-103800000D02*
X151300000Y-100600000D01*
D32*
X143300000Y-98800000D02*
X147420000Y-102920000D01*
X143300000Y-95494444D02*
X143300000Y-98800000D01*
D33*
X153300000Y-119650000D02*
X155300000Y-117650000D01*
X149387500Y-118837500D02*
X150200000Y-119650000D01*
X148100000Y-118837500D02*
X149387500Y-118837500D01*
X153300000Y-119650000D02*
X150200000Y-119650000D01*
D32*
X147600000Y-106900000D02*
X145800000Y-105100000D01*
X155300000Y-109182000D02*
X153018000Y-106900000D01*
X153018000Y-106900000D02*
X147600000Y-106900000D01*
D31*
X150200000Y-103800000D02*
X148000000Y-103800000D01*
X150300000Y-103900000D02*
X150200000Y-103800000D01*
D29*
X145100000Y-91400000D02*
X147600000Y-91400000D01*
X144862500Y-94500000D02*
X144862500Y-91637500D01*
X144862500Y-91637500D02*
X145100000Y-91400000D01*
D28*
G04 #@! TO.N,Net-(R13-Pad1)*
X146612500Y-87800000D02*
X145500000Y-87800000D01*
X147100000Y-87312500D02*
X146612500Y-87800000D01*
G04 #@! TO.N,Net-(Q3-Pad1)*
X145007878Y-85150000D02*
X144457878Y-85700000D01*
X145200000Y-85150000D02*
X145007878Y-85150000D01*
X144457878Y-85700000D02*
X143500000Y-85700000D01*
X138125000Y-87312500D02*
X138112500Y-87300000D01*
X138700000Y-87312500D02*
X138125000Y-87312500D01*
X138112500Y-87300000D02*
X137500000Y-87300000D01*
X137500000Y-87300000D02*
X137500000Y-87300000D01*
X143500000Y-85700000D02*
X143500000Y-85700000D01*
G04 #@! TO.N,Net-(Q1-Pad1)*
X144450000Y-64050000D02*
X144000000Y-64500000D01*
X145200000Y-64050000D02*
X144450000Y-64050000D01*
X144000000Y-64500000D02*
X144000000Y-64500000D01*
X138025000Y-66212500D02*
X137500000Y-66200000D01*
X138600000Y-66212500D02*
X138025000Y-66212500D01*
X138012500Y-66200000D02*
X137500000Y-66200000D01*
X137500000Y-66200000D02*
X138012500Y-66200000D01*
G04 #@! TO.N,Net-(R4-Pad1)*
X146325000Y-66700000D02*
X146800000Y-66225000D01*
X145300000Y-66700000D02*
X146325000Y-66700000D01*
D29*
G04 #@! TO.N,Net-(Q2-Pad2)*
X145100000Y-71350000D02*
X146150000Y-70300000D01*
X145100000Y-72750000D02*
X145100000Y-71350000D01*
D28*
X146150000Y-68450000D02*
X146150000Y-70300000D01*
X146800000Y-67800000D02*
X146150000Y-68450000D01*
D29*
X146150000Y-70300000D02*
X147500000Y-70300000D01*
D28*
X146337500Y-72750000D02*
X146600000Y-73012500D01*
X145100000Y-72750000D02*
X146337500Y-72750000D01*
G04 #@! TO.N,Net-(D6-Pad2)*
X162025000Y-93400000D02*
X160587500Y-93400000D01*
G04 #@! TO.N,+12V*
X159012500Y-95862500D02*
X160300000Y-97150000D01*
X159012500Y-93400000D02*
X159012500Y-95862500D01*
D29*
X146737500Y-94500000D02*
X148300000Y-94500000D01*
D33*
X147900000Y-97700000D02*
X148000000Y-97600000D01*
D30*
X160150000Y-97000000D02*
X160300000Y-97150000D01*
X148600000Y-97000000D02*
X160150000Y-97000000D01*
D33*
X145080000Y-116670000D02*
X145600000Y-116150000D01*
X139870000Y-110570000D02*
X137500000Y-110570000D01*
X145600000Y-116150000D02*
X145450000Y-116150000D01*
X145450000Y-116150000D02*
X139870000Y-110570000D01*
D32*
X149900000Y-94800000D02*
X149900000Y-95416295D01*
X153000000Y-89200000D02*
X153000000Y-91700000D01*
X149900000Y-95416295D02*
X149900000Y-95900000D01*
X153000000Y-91700000D02*
X149900000Y-94800000D01*
D28*
G04 #@! TO.N,Net-(D7-Pad2)*
X140200000Y-76537500D02*
X141400000Y-75337500D01*
X140200000Y-76812500D02*
X140200000Y-76537500D01*
D29*
G04 #@! TO.N,Net-(C5-Pad2)*
X138600000Y-80900000D02*
X140438477Y-80900000D01*
X140438477Y-80900000D02*
X141800000Y-80900000D01*
D28*
X143200000Y-78875000D02*
X143200000Y-78250000D01*
X143200000Y-79755002D02*
X143200000Y-78875000D01*
X142055002Y-80900000D02*
X143200000Y-79755002D01*
X141800000Y-80900000D02*
X142055002Y-80900000D01*
X143062500Y-78387500D02*
X143200000Y-78250000D01*
X138700000Y-78387500D02*
X143062500Y-78387500D01*
G04 #@! TO.N,Net-(Q2-Pad1)*
X138125000Y-76812500D02*
X138112500Y-76800000D01*
X138700000Y-76812500D02*
X138125000Y-76812500D01*
X138112500Y-76800000D02*
X137500000Y-76800000D01*
X144850000Y-74900000D02*
X143600000Y-74900000D01*
X145100000Y-74650000D02*
X144850000Y-74900000D01*
X143600000Y-74900000D02*
X143600000Y-74900000D01*
X137500000Y-76800000D02*
X137500000Y-76800000D01*
G04 #@! TO.N,Net-(C5-Pad1)*
X142187500Y-77300000D02*
X143200000Y-77300000D01*
X141700000Y-76812500D02*
X142187500Y-77300000D01*
X145687500Y-75500000D02*
X146600000Y-74587500D01*
X144300000Y-75964998D02*
X144764998Y-75500000D01*
X144300000Y-76800000D02*
X144300000Y-75964998D01*
X143200000Y-77300000D02*
X143800000Y-77300000D01*
X144764998Y-75500000D02*
X145687500Y-75500000D01*
X143800000Y-77300000D02*
X144300000Y-76800000D01*
D29*
G04 #@! TO.N,Net-(Q3-Pad2)*
X145200000Y-81850000D02*
X146150000Y-80900000D01*
X145200000Y-83250000D02*
X145200000Y-81850000D01*
D28*
X146650000Y-80900000D02*
X146700000Y-80900000D01*
D29*
X146150000Y-80900000D02*
X146700000Y-80900000D01*
D28*
X146150000Y-79137500D02*
X146150000Y-80900000D01*
X146900000Y-78387500D02*
X146150000Y-79137500D01*
D29*
X146650000Y-80900000D02*
X147600000Y-80900000D01*
D28*
X146337500Y-83250000D02*
X146600000Y-83512500D01*
X145200000Y-83250000D02*
X146337500Y-83250000D01*
G04 #@! TO.N,Net-(R9-Pad1)*
X146412500Y-77300000D02*
X145400000Y-77300000D01*
X146900000Y-76812500D02*
X146412500Y-77300000D01*
G04 #@! TO.N,Net-(C6-Pad1)*
X142187500Y-87800000D02*
X143300000Y-87800000D01*
X141700000Y-87312500D02*
X142187500Y-87800000D01*
X146412500Y-85287500D02*
X146700000Y-85287500D01*
X143900000Y-87800000D02*
X144400000Y-87300000D01*
X144864998Y-86000000D02*
X145700000Y-86000000D01*
X143300000Y-87800000D02*
X143900000Y-87800000D01*
X144400000Y-87300000D02*
X144400000Y-86464998D01*
X144400000Y-86464998D02*
X144864998Y-86000000D01*
X145700000Y-86000000D02*
X146412500Y-85287500D01*
G04 #@! TO.N,Net-(U1-Pad1)*
X142445000Y-71275000D02*
X141450000Y-71275000D01*
X145300000Y-68420000D02*
X142445000Y-71275000D01*
X145300000Y-67650000D02*
X145300000Y-68420000D01*
G04 #@! TO.N,Net-(U1-Pad3)*
X147350000Y-71800000D02*
X147350000Y-71800000D01*
X147350000Y-71275000D02*
X147350000Y-71800000D01*
X147350000Y-71800000D02*
X147350000Y-71800040D01*
X145550000Y-65750000D02*
X145970280Y-65329720D01*
X145300000Y-65750000D02*
X145550000Y-65750000D01*
X145970280Y-65329720D02*
X146894382Y-65329720D01*
X146894382Y-65329720D02*
X147318646Y-65329720D01*
G04 #@! TO.N,Net-(U3-Pad3)*
X147350000Y-82250000D02*
X147350000Y-82250000D01*
X147350000Y-81875000D02*
X147350000Y-82550000D01*
X147350000Y-82550000D02*
X147400000Y-82600000D01*
X145605000Y-76350000D02*
X146155000Y-75800000D01*
X145400000Y-76350000D02*
X145605000Y-76350000D01*
X146155000Y-75800000D02*
X147300000Y-75800000D01*
X147300000Y-75800000D02*
X147300000Y-75800000D01*
G04 #@! TO.N,Net-(U3-Pad1)*
X145400000Y-78875000D02*
X145400000Y-78250000D01*
X145400000Y-78950000D02*
X145400000Y-78875000D01*
X142475000Y-81875000D02*
X145400000Y-78950000D01*
X141450000Y-81875000D02*
X142475000Y-81875000D01*
G04 #@! TO.N,Net-(U5-Pad1)*
X144670000Y-90085002D02*
X144670000Y-89375000D01*
X144670000Y-89375000D02*
X145295000Y-88750000D01*
X142455001Y-92300001D02*
X144670000Y-90085002D01*
X141524999Y-92300001D02*
X142455001Y-92300001D01*
X141450000Y-92375000D02*
X141524999Y-92300001D01*
X145295000Y-88750000D02*
X145500000Y-88750000D01*
G04 #@! TO.N,Net-(U5-Pad3)*
X145705000Y-86850000D02*
X146255000Y-86300000D01*
X145500000Y-86850000D02*
X145705000Y-86850000D01*
X146255000Y-86300000D02*
X147400000Y-86300000D01*
X147400000Y-86300000D02*
X147400000Y-86300000D01*
X146125000Y-92375000D02*
X146100000Y-92400000D01*
X147350000Y-92375000D02*
X146125000Y-92375000D01*
D29*
G04 #@! TO.N,Net-(D1-Pad1)*
X138500000Y-63600000D02*
X139000000Y-63100000D01*
D30*
X139237500Y-62862500D02*
X141300000Y-62862500D01*
X138500000Y-63600000D02*
X139237500Y-62862500D01*
X141300000Y-62862500D02*
X142862500Y-62862500D01*
D29*
G04 #@! TO.N,Net-(D7-Pad1)*
X138700000Y-73700000D02*
X143100000Y-73700000D01*
X138600000Y-73600000D02*
X138700000Y-73700000D01*
G04 #@! TO.N,Net-(D8-Pad1)*
X138600000Y-84200000D02*
X143200000Y-84200000D01*
D33*
G04 #@! TO.N,Net-(D5-Pad2)*
X145160000Y-119210000D02*
X145600000Y-119650000D01*
X138860000Y-113110000D02*
X137500000Y-113110000D01*
X145600000Y-119650000D02*
X145400000Y-119650000D01*
X145400000Y-119650000D02*
X138860000Y-113110000D01*
G04 #@! TO.N,Net-(C3-Pad1)*
X149975000Y-115925000D02*
X150200000Y-116150000D01*
X149500000Y-115450000D02*
X150200000Y-116150000D01*
X149500000Y-113700000D02*
X149500000Y-115450000D01*
D32*
X148000000Y-113700000D02*
X159850000Y-113700000D01*
D33*
X149387500Y-116962500D02*
X150200000Y-116150000D01*
X148100000Y-116962500D02*
X149387500Y-116962500D01*
D32*
X137500000Y-103200000D02*
X148000000Y-113700000D01*
X137500000Y-100410000D02*
X137500000Y-103200000D01*
D30*
G04 #@! TO.N,Net-(F1-Pad1)*
X153000000Y-73652000D02*
X152920000Y-73572000D01*
X152920000Y-73572000D02*
X163080000Y-73572000D01*
G04 #@! TD*
D34*
G04 #@! TO.N,GND*
G36*
X143904779Y-61738512D02*
X143872753Y-61899518D01*
X143853819Y-61871181D01*
X143398998Y-61567279D01*
X142997922Y-61487500D01*
X139372922Y-61487500D01*
X139237500Y-61460563D01*
X139102078Y-61487500D01*
X138701002Y-61567279D01*
X138246181Y-61871181D01*
X138210220Y-61925000D01*
X138166822Y-61925000D01*
X137551189Y-62180004D01*
X137080004Y-62651189D01*
X136825000Y-63266822D01*
X136825000Y-63933178D01*
X137080004Y-64548811D01*
X137551189Y-65019996D01*
X138166822Y-65275000D01*
X138833178Y-65275000D01*
X139448811Y-65019996D01*
X139919996Y-64548811D01*
X140048945Y-64237500D01*
X140276440Y-64237500D01*
X140265313Y-64254153D01*
X140217654Y-64493750D01*
X140217654Y-64839884D01*
X139765335Y-65292204D01*
X139721496Y-65321496D01*
X139647923Y-65431607D01*
X139613721Y-65438410D01*
X139418711Y-65568711D01*
X139350000Y-65671545D01*
X139281289Y-65568711D01*
X139086279Y-65438410D01*
X138856250Y-65392654D01*
X138343750Y-65392654D01*
X138113721Y-65438410D01*
X137918711Y-65568711D01*
X137879927Y-65626756D01*
X137634266Y-65525000D01*
X137365734Y-65525000D01*
X137117643Y-65627763D01*
X136927763Y-65817643D01*
X136825000Y-66065734D01*
X136825000Y-66334266D01*
X136927763Y-66582357D01*
X137117643Y-66772237D01*
X137365734Y-66875000D01*
X137634266Y-66875000D01*
X137866843Y-66778663D01*
X137918711Y-66856289D01*
X138113721Y-66986590D01*
X138181137Y-67000000D01*
X138113721Y-67013410D01*
X137918711Y-67143711D01*
X137788410Y-67338721D01*
X137742654Y-67568750D01*
X137742654Y-68006250D01*
X137788410Y-68236279D01*
X137918711Y-68431289D01*
X138113721Y-68561590D01*
X138343750Y-68607346D01*
X138856250Y-68607346D01*
X139086279Y-68561590D01*
X139281289Y-68431289D01*
X139350000Y-68328455D01*
X139418711Y-68431289D01*
X139613721Y-68561590D01*
X139843750Y-68607346D01*
X140356250Y-68607346D01*
X140586279Y-68561590D01*
X140781289Y-68431289D01*
X140850000Y-68328455D01*
X140918711Y-68431289D01*
X141113721Y-68561590D01*
X141343750Y-68607346D01*
X141856250Y-68607346D01*
X142086279Y-68561590D01*
X142281289Y-68431289D01*
X142360661Y-68312500D01*
X142400124Y-68312500D01*
X142423683Y-68328242D01*
X142570000Y-68357346D01*
X142575001Y-68357346D01*
X142575000Y-69132538D01*
X142557346Y-69150192D01*
X142557346Y-69100000D01*
X142528242Y-68953683D01*
X142445359Y-68829641D01*
X142321317Y-68746758D01*
X142175000Y-68717654D01*
X140725000Y-68717654D01*
X140578683Y-68746758D01*
X140454641Y-68829641D01*
X140371758Y-68953683D01*
X140342654Y-69100000D01*
X140342654Y-69425000D01*
X140050570Y-69425000D01*
X140019996Y-69351189D01*
X139548811Y-68880004D01*
X138933178Y-68625000D01*
X138266822Y-68625000D01*
X137651189Y-68880004D01*
X137180004Y-69351189D01*
X136925000Y-69966822D01*
X136925000Y-70633178D01*
X137180004Y-71248811D01*
X137651189Y-71719996D01*
X138266822Y-71975000D01*
X138933178Y-71975000D01*
X139548811Y-71719996D01*
X140019996Y-71248811D01*
X140050570Y-71175000D01*
X140342654Y-71175000D01*
X140342654Y-71500000D01*
X140371758Y-71646317D01*
X140454641Y-71770359D01*
X140578683Y-71853242D01*
X140725000Y-71882346D01*
X142175000Y-71882346D01*
X142321317Y-71853242D01*
X142399231Y-71801181D01*
X142445000Y-71810285D01*
X142496706Y-71800000D01*
X142649845Y-71769539D01*
X142823504Y-71653504D01*
X142852797Y-71609664D01*
X145625000Y-68837462D01*
X145625001Y-69598440D01*
X145519160Y-69669160D01*
X145470343Y-69742220D01*
X144542221Y-70670343D01*
X144469161Y-70719160D01*
X144420344Y-70792220D01*
X144275769Y-71008592D01*
X144207858Y-71350000D01*
X144225001Y-71436182D01*
X144225000Y-72836178D01*
X144267654Y-73050615D01*
X144267654Y-73150000D01*
X144296758Y-73296317D01*
X144379641Y-73420359D01*
X144503683Y-73503242D01*
X144650000Y-73532346D01*
X144695905Y-73532346D01*
X144758592Y-73574232D01*
X145100000Y-73642142D01*
X145441407Y-73574232D01*
X145504094Y-73532346D01*
X145550000Y-73532346D01*
X145696317Y-73503242D01*
X145784974Y-73444003D01*
X145788410Y-73461279D01*
X145918711Y-73656289D01*
X146113721Y-73786590D01*
X146181137Y-73800000D01*
X146113721Y-73813410D01*
X145918711Y-73943711D01*
X145857531Y-74035273D01*
X145820359Y-73979641D01*
X145696317Y-73896758D01*
X145550000Y-73867654D01*
X144650000Y-73867654D01*
X144503683Y-73896758D01*
X144379641Y-73979641D01*
X144296758Y-74103683D01*
X144267654Y-74250000D01*
X144267654Y-74375000D01*
X144029594Y-74375000D01*
X143982357Y-74327763D01*
X143877768Y-74284441D01*
X143903242Y-74246317D01*
X143932346Y-74100000D01*
X143932346Y-74000616D01*
X143992142Y-73700000D01*
X143932346Y-73399384D01*
X143932346Y-73300000D01*
X143903242Y-73153683D01*
X143820359Y-73029641D01*
X143696317Y-72946758D01*
X143550000Y-72917654D01*
X143504095Y-72917654D01*
X143441408Y-72875768D01*
X143186179Y-72825000D01*
X142331686Y-72825000D01*
X142298967Y-72776033D01*
X142095847Y-72640313D01*
X141856250Y-72592654D01*
X140943750Y-72592654D01*
X140704153Y-72640313D01*
X140501033Y-72776033D01*
X140468314Y-72825000D01*
X140050570Y-72825000D01*
X140019996Y-72751189D01*
X139548811Y-72280004D01*
X138933178Y-72025000D01*
X138266822Y-72025000D01*
X137651189Y-72280004D01*
X137180004Y-72751189D01*
X136925000Y-73366822D01*
X136925000Y-74033178D01*
X137180004Y-74648811D01*
X137651189Y-75119996D01*
X138266822Y-75375000D01*
X138933178Y-75375000D01*
X139548811Y-75119996D01*
X140019996Y-74648811D01*
X140050570Y-74575000D01*
X140614825Y-74575000D01*
X140501033Y-74651033D01*
X140365313Y-74854153D01*
X140317654Y-75093750D01*
X140317654Y-75581250D01*
X140333604Y-75661435D01*
X140002385Y-75992654D01*
X139943750Y-75992654D01*
X139713721Y-76038410D01*
X139518711Y-76168711D01*
X139450000Y-76271545D01*
X139381289Y-76168711D01*
X139186279Y-76038410D01*
X138956250Y-75992654D01*
X138443750Y-75992654D01*
X138213721Y-76038410D01*
X138018711Y-76168711D01*
X137947691Y-76275000D01*
X137929594Y-76275000D01*
X137882357Y-76227763D01*
X137634266Y-76125000D01*
X137365734Y-76125000D01*
X137117643Y-76227763D01*
X136927763Y-76417643D01*
X136825000Y-76665734D01*
X136825000Y-76934266D01*
X136927763Y-77182357D01*
X137117643Y-77372237D01*
X137365734Y-77475000D01*
X137634266Y-77475000D01*
X137882357Y-77372237D01*
X137929594Y-77325000D01*
X137930987Y-77325000D01*
X138018711Y-77456289D01*
X138213721Y-77586590D01*
X138281137Y-77600000D01*
X138213721Y-77613410D01*
X138018711Y-77743711D01*
X137888410Y-77938721D01*
X137842654Y-78168750D01*
X137842654Y-78606250D01*
X137888410Y-78836279D01*
X138018711Y-79031289D01*
X138213721Y-79161590D01*
X138443750Y-79207346D01*
X138956250Y-79207346D01*
X139186279Y-79161590D01*
X139381289Y-79031289D01*
X139450000Y-78928455D01*
X139518711Y-79031289D01*
X139713721Y-79161590D01*
X139943750Y-79207346D01*
X140456250Y-79207346D01*
X140686279Y-79161590D01*
X140881289Y-79031289D01*
X140950000Y-78928455D01*
X141018711Y-79031289D01*
X141213721Y-79161590D01*
X141443750Y-79207346D01*
X141956250Y-79207346D01*
X142186279Y-79161590D01*
X142381289Y-79031289D01*
X142460661Y-78912500D01*
X142500124Y-78912500D01*
X142523683Y-78928242D01*
X142670000Y-78957346D01*
X142675000Y-78957346D01*
X142675000Y-79537540D01*
X142549912Y-79662628D01*
X142528242Y-79553683D01*
X142445359Y-79429641D01*
X142321317Y-79346758D01*
X142175000Y-79317654D01*
X140725000Y-79317654D01*
X140578683Y-79346758D01*
X140454641Y-79429641D01*
X140371758Y-79553683D01*
X140342654Y-79700000D01*
X140342654Y-80025000D01*
X140050570Y-80025000D01*
X140019996Y-79951189D01*
X139548811Y-79480004D01*
X138933178Y-79225000D01*
X138266822Y-79225000D01*
X137651189Y-79480004D01*
X137180004Y-79951189D01*
X136925000Y-80566822D01*
X136925000Y-81233178D01*
X137180004Y-81848811D01*
X137651189Y-82319996D01*
X138206467Y-82550000D01*
X137651189Y-82780004D01*
X137180004Y-83251189D01*
X136925000Y-83866822D01*
X136925000Y-84533178D01*
X137180004Y-85148811D01*
X137651189Y-85619996D01*
X138266822Y-85875000D01*
X138933178Y-85875000D01*
X139548811Y-85619996D01*
X140019996Y-85148811D01*
X140050570Y-85075000D01*
X140714825Y-85075000D01*
X140601033Y-85151033D01*
X140465313Y-85354153D01*
X140417654Y-85593750D01*
X140417654Y-86081250D01*
X140433604Y-86161435D01*
X140102385Y-86492654D01*
X139943750Y-86492654D01*
X139713721Y-86538410D01*
X139518711Y-86668711D01*
X139450000Y-86771545D01*
X139381289Y-86668711D01*
X139186279Y-86538410D01*
X138956250Y-86492654D01*
X138443750Y-86492654D01*
X138213721Y-86538410D01*
X138018711Y-86668711D01*
X137947691Y-86775000D01*
X137929594Y-86775000D01*
X137882357Y-86727763D01*
X137634266Y-86625000D01*
X137365734Y-86625000D01*
X137117643Y-86727763D01*
X136927763Y-86917643D01*
X136825000Y-87165734D01*
X136825000Y-87434266D01*
X136927763Y-87682357D01*
X137117643Y-87872237D01*
X137365734Y-87975000D01*
X137634266Y-87975000D01*
X137882357Y-87872237D01*
X137929594Y-87825000D01*
X137930987Y-87825000D01*
X138018711Y-87956289D01*
X138213721Y-88086590D01*
X138281137Y-88100000D01*
X138213721Y-88113410D01*
X138018711Y-88243711D01*
X137888410Y-88438721D01*
X137842654Y-88668750D01*
X137842654Y-89106250D01*
X137888410Y-89336279D01*
X138018711Y-89531289D01*
X138213721Y-89661590D01*
X138443750Y-89707346D01*
X138956250Y-89707346D01*
X139186279Y-89661590D01*
X139381289Y-89531289D01*
X139450000Y-89428455D01*
X139518711Y-89531289D01*
X139713721Y-89661590D01*
X139943750Y-89707346D01*
X140456250Y-89707346D01*
X140686279Y-89661590D01*
X140881289Y-89531289D01*
X140950000Y-89428455D01*
X141018711Y-89531289D01*
X141213721Y-89661590D01*
X141443750Y-89707346D01*
X141956250Y-89707346D01*
X142186279Y-89661590D01*
X142381289Y-89531289D01*
X142460661Y-89412500D01*
X142600124Y-89412500D01*
X142623683Y-89428242D01*
X142770000Y-89457346D01*
X142775000Y-89457346D01*
X142775000Y-89937540D01*
X142549912Y-90162628D01*
X142528242Y-90053683D01*
X142445359Y-89929641D01*
X142321317Y-89846758D01*
X142175000Y-89817654D01*
X140725000Y-89817654D01*
X140578683Y-89846758D01*
X140454641Y-89929641D01*
X140371758Y-90053683D01*
X140342654Y-90200000D01*
X140342654Y-90525000D01*
X140050570Y-90525000D01*
X140019996Y-90451189D01*
X139548811Y-89980004D01*
X138933178Y-89725000D01*
X138266822Y-89725000D01*
X137651189Y-89980004D01*
X137180004Y-90451189D01*
X136925000Y-91066822D01*
X136925000Y-91733178D01*
X137180004Y-92348811D01*
X137651189Y-92819996D01*
X138266822Y-93075000D01*
X138933178Y-93075000D01*
X139548811Y-92819996D01*
X140019996Y-92348811D01*
X140050570Y-92275000D01*
X140342654Y-92275000D01*
X140342654Y-92600000D01*
X140371758Y-92746317D01*
X140454641Y-92870359D01*
X140578683Y-92953242D01*
X140725000Y-92982346D01*
X142175000Y-92982346D01*
X142321317Y-92953242D01*
X142445359Y-92870359D01*
X142470909Y-92832122D01*
X142506707Y-92825001D01*
X142659846Y-92794540D01*
X142833505Y-92678505D01*
X142862798Y-92634665D01*
X143231729Y-92265734D01*
X145425000Y-92265734D01*
X145425000Y-92534266D01*
X145527763Y-92782357D01*
X145717643Y-92972237D01*
X145965734Y-93075000D01*
X146234266Y-93075000D01*
X146482357Y-92972237D01*
X146497591Y-92957003D01*
X146625000Y-92982346D01*
X148075000Y-92982346D01*
X148221317Y-92953242D01*
X148345359Y-92870359D01*
X148428242Y-92746317D01*
X148457346Y-92600000D01*
X148457346Y-92150000D01*
X148455668Y-92141565D01*
X148500000Y-92034538D01*
X148500000Y-91906250D01*
X148393750Y-91800000D01*
X148226169Y-91800000D01*
X148221317Y-91796758D01*
X148075000Y-91767654D01*
X147255000Y-91767654D01*
X147255000Y-91650000D01*
X147275000Y-91650000D01*
X147275000Y-91150000D01*
X147425000Y-91150000D01*
X147425000Y-91650000D01*
X147456250Y-91650000D01*
X147531250Y-91725000D01*
X148159538Y-91725000D01*
X148315743Y-91660298D01*
X148326041Y-91650000D01*
X148393750Y-91650000D01*
X148500000Y-91543750D01*
X148500000Y-91415462D01*
X148493595Y-91400000D01*
X148500000Y-91384538D01*
X148500000Y-91256250D01*
X148393750Y-91150000D01*
X148326041Y-91150000D01*
X148315743Y-91139702D01*
X148159538Y-91075000D01*
X147531250Y-91075000D01*
X147456250Y-91150000D01*
X147425000Y-91150000D01*
X147275000Y-91150000D01*
X147243750Y-91150000D01*
X147168750Y-91075000D01*
X146540462Y-91075000D01*
X146384257Y-91139702D01*
X146373959Y-91150000D01*
X146306250Y-91150000D01*
X146200000Y-91256250D01*
X146200000Y-91384538D01*
X146206405Y-91400000D01*
X146200000Y-91415462D01*
X146200000Y-91543750D01*
X146306248Y-91649998D01*
X146200000Y-91649998D01*
X146200000Y-91725000D01*
X145965734Y-91725000D01*
X145717643Y-91827763D01*
X145527763Y-92017643D01*
X145425000Y-92265734D01*
X143231729Y-92265734D01*
X144732001Y-90765462D01*
X146200000Y-90765462D01*
X146200000Y-90893750D01*
X146306250Y-91000000D01*
X146473831Y-91000000D01*
X146478683Y-91003242D01*
X146625000Y-91032346D01*
X148075000Y-91032346D01*
X148221317Y-91003242D01*
X148226169Y-91000000D01*
X148393750Y-91000000D01*
X148500000Y-90893750D01*
X148500000Y-90765462D01*
X148455668Y-90658435D01*
X148457346Y-90650000D01*
X148457346Y-90200000D01*
X148428242Y-90053683D01*
X148345359Y-89929641D01*
X148221317Y-89846758D01*
X148075000Y-89817654D01*
X146625000Y-89817654D01*
X146478683Y-89846758D01*
X146354641Y-89929641D01*
X146271758Y-90053683D01*
X146242654Y-90200000D01*
X146242654Y-90650000D01*
X146244332Y-90658435D01*
X146200000Y-90765462D01*
X144732001Y-90765462D01*
X145004668Y-90492796D01*
X145048504Y-90463506D01*
X145164539Y-90289847D01*
X145195000Y-90136708D01*
X145195000Y-90136707D01*
X145205285Y-90085002D01*
X145195000Y-90033296D01*
X145195000Y-89592461D01*
X145330115Y-89457346D01*
X146030000Y-89457346D01*
X146176317Y-89428242D01*
X146200934Y-89411793D01*
X146264702Y-89565743D01*
X146384257Y-89685298D01*
X146540462Y-89750000D01*
X146918750Y-89750000D01*
X147025000Y-89643750D01*
X147025000Y-88962500D01*
X147175000Y-88962500D01*
X147175000Y-89643750D01*
X147281250Y-89750000D01*
X147659538Y-89750000D01*
X147815743Y-89685298D01*
X147935298Y-89565743D01*
X148000000Y-89409538D01*
X148000000Y-89068750D01*
X147893750Y-88962500D01*
X147175000Y-88962500D01*
X147025000Y-88962500D01*
X147005000Y-88962500D01*
X147005000Y-88812500D01*
X147025000Y-88812500D01*
X147025000Y-88792500D01*
X147175000Y-88792500D01*
X147175000Y-88812500D01*
X147893750Y-88812500D01*
X148000000Y-88706250D01*
X148000000Y-88365462D01*
X147935298Y-88209257D01*
X147815743Y-88089702D01*
X147671216Y-88029837D01*
X147781289Y-87956289D01*
X147911590Y-87761279D01*
X147957346Y-87531250D01*
X147957346Y-87093750D01*
X147911590Y-86863721D01*
X147863238Y-86791356D01*
X147972237Y-86682357D01*
X148075000Y-86434266D01*
X148075000Y-86165734D01*
X147972237Y-85917643D01*
X147782357Y-85727763D01*
X147534266Y-85625000D01*
X147352309Y-85625000D01*
X147411590Y-85536279D01*
X147457346Y-85306250D01*
X147457346Y-84868750D01*
X147411590Y-84638721D01*
X147281289Y-84443711D01*
X147086279Y-84313410D01*
X147018863Y-84300000D01*
X147086279Y-84286590D01*
X147281289Y-84156289D01*
X147347350Y-84057420D01*
X150775000Y-84057420D01*
X150775000Y-84942580D01*
X151113736Y-85760361D01*
X151739639Y-86386264D01*
X152557420Y-86725000D01*
X153442580Y-86725000D01*
X154260361Y-86386264D01*
X154886264Y-85760361D01*
X155225000Y-84942580D01*
X155225000Y-84057420D01*
X154886264Y-83239639D01*
X154260361Y-82613736D01*
X153442580Y-82275000D01*
X152557420Y-82275000D01*
X151739639Y-82613736D01*
X151113736Y-83239639D01*
X150775000Y-84057420D01*
X147347350Y-84057420D01*
X147411590Y-83961279D01*
X147457346Y-83731250D01*
X147457346Y-83293750D01*
X147453616Y-83275000D01*
X147534266Y-83275000D01*
X147782357Y-83172237D01*
X147972237Y-82982357D01*
X148075000Y-82734266D01*
X148075000Y-82482346D01*
X148221317Y-82453242D01*
X148345359Y-82370359D01*
X148428242Y-82246317D01*
X148457346Y-82100000D01*
X148457346Y-81650000D01*
X148437455Y-81550000D01*
X148457346Y-81450000D01*
X148457346Y-81074932D01*
X148492142Y-80900000D01*
X148457346Y-80725068D01*
X148457346Y-80350000D01*
X148437455Y-80250000D01*
X148457346Y-80150000D01*
X148457346Y-79700000D01*
X148428242Y-79553683D01*
X148345359Y-79429641D01*
X148237274Y-79357420D01*
X150775000Y-79357420D01*
X150775000Y-80242580D01*
X151113736Y-81060361D01*
X151739639Y-81686264D01*
X152557420Y-82025000D01*
X153442580Y-82025000D01*
X154260361Y-81686264D01*
X154886264Y-81060361D01*
X155225000Y-80242580D01*
X155225000Y-79357420D01*
X154982032Y-78770842D01*
X160139014Y-78770842D01*
X160203800Y-79006704D01*
X160542563Y-79566371D01*
X161069714Y-79953797D01*
X161705000Y-80110000D01*
X162455000Y-80110000D01*
X162455000Y-78510000D01*
X160213044Y-78510000D01*
X160139014Y-78770842D01*
X154982032Y-78770842D01*
X154886264Y-78539639D01*
X154445783Y-78099158D01*
X160139014Y-78099158D01*
X160213044Y-78360000D01*
X162455000Y-78360000D01*
X162455000Y-76760000D01*
X161705000Y-76760000D01*
X161069714Y-76916203D01*
X160542563Y-77303629D01*
X160203800Y-77863296D01*
X160139014Y-78099158D01*
X154445783Y-78099158D01*
X154260361Y-77913736D01*
X153442580Y-77575000D01*
X152557420Y-77575000D01*
X151739639Y-77913736D01*
X151113736Y-78539639D01*
X150775000Y-79357420D01*
X148237274Y-79357420D01*
X148221317Y-79346758D01*
X148075000Y-79317654D01*
X146712307Y-79317654D01*
X146822615Y-79207346D01*
X147156250Y-79207346D01*
X147386279Y-79161590D01*
X147581289Y-79031289D01*
X147711590Y-78836279D01*
X147757346Y-78606250D01*
X147757346Y-78168750D01*
X147711590Y-77938721D01*
X147581289Y-77743711D01*
X147386279Y-77613410D01*
X147318863Y-77600000D01*
X147386279Y-77586590D01*
X147581289Y-77456289D01*
X147711590Y-77261279D01*
X147757346Y-77031250D01*
X147757346Y-76593750D01*
X147711590Y-76363721D01*
X147703292Y-76351302D01*
X147872237Y-76182357D01*
X147975000Y-75934266D01*
X147975000Y-75665734D01*
X147872237Y-75417643D01*
X147682357Y-75227763D01*
X147434266Y-75125000D01*
X147352309Y-75125000D01*
X147411590Y-75036279D01*
X147457346Y-74806250D01*
X147457346Y-74368750D01*
X147411590Y-74138721D01*
X147281289Y-73943711D01*
X147086279Y-73813410D01*
X147018863Y-73800000D01*
X147086279Y-73786590D01*
X147281289Y-73656289D01*
X147337608Y-73572000D01*
X151518063Y-73572000D01*
X151545001Y-73707424D01*
X151545001Y-75082422D01*
X151624780Y-75483498D01*
X151928682Y-75938319D01*
X152383503Y-76242221D01*
X152920000Y-76348937D01*
X153456498Y-76242221D01*
X153911319Y-75938319D01*
X154215221Y-75483498D01*
X154295000Y-75082422D01*
X154295000Y-74947000D01*
X161705001Y-74947000D01*
X161705001Y-75057422D01*
X161784780Y-75458498D01*
X162088682Y-75913319D01*
X162543503Y-76217221D01*
X163080000Y-76323937D01*
X163616498Y-76217221D01*
X164071319Y-75913319D01*
X164375221Y-75458498D01*
X164455000Y-75057422D01*
X164455000Y-73707422D01*
X164481937Y-73572000D01*
X164455000Y-73436578D01*
X164455000Y-72086578D01*
X164375221Y-71685502D01*
X164071318Y-71230681D01*
X163616497Y-70926779D01*
X163080000Y-70820063D01*
X162543502Y-70926779D01*
X162088681Y-71230682D01*
X161784779Y-71685503D01*
X161705000Y-72086579D01*
X161705000Y-72197000D01*
X154295000Y-72197000D01*
X154295000Y-72061578D01*
X154215221Y-71660502D01*
X153911318Y-71205681D01*
X153456497Y-70901779D01*
X152920000Y-70795063D01*
X152383502Y-70901779D01*
X151928681Y-71205682D01*
X151624779Y-71660503D01*
X151545000Y-72061579D01*
X151545000Y-73436576D01*
X151518063Y-73572000D01*
X147337608Y-73572000D01*
X147411590Y-73461279D01*
X147457346Y-73231250D01*
X147457346Y-72793750D01*
X147411590Y-72563721D01*
X147352335Y-72475040D01*
X147484266Y-72475040D01*
X147732357Y-72372277D01*
X147922237Y-72182397D01*
X148025000Y-71934306D01*
X148025000Y-71882346D01*
X148075000Y-71882346D01*
X148221317Y-71853242D01*
X148345359Y-71770359D01*
X148428242Y-71646317D01*
X148457346Y-71500000D01*
X148457346Y-71050000D01*
X148437455Y-70950000D01*
X148457346Y-70850000D01*
X148457346Y-70400000D01*
X148437455Y-70300000D01*
X148457346Y-70200000D01*
X148457346Y-69750000D01*
X148437455Y-69650000D01*
X148457346Y-69550000D01*
X148457346Y-69100000D01*
X148428242Y-68953683D01*
X148345359Y-68829641D01*
X148221317Y-68746758D01*
X148075000Y-68717654D01*
X146675000Y-68717654D01*
X146675000Y-68706604D01*
X149525000Y-68706604D01*
X149525000Y-69293396D01*
X149749555Y-69835520D01*
X150164480Y-70250445D01*
X150706604Y-70475000D01*
X151293396Y-70475000D01*
X151835520Y-70250445D01*
X152250445Y-69835520D01*
X152475000Y-69293396D01*
X152475000Y-68706604D01*
X152250445Y-68164480D01*
X151835520Y-67749555D01*
X151293396Y-67525000D01*
X150706604Y-67525000D01*
X150164480Y-67749555D01*
X149749555Y-68164480D01*
X149525000Y-68706604D01*
X146675000Y-68706604D01*
X146675000Y-68667461D01*
X146722615Y-68619846D01*
X147056250Y-68619846D01*
X147286279Y-68574090D01*
X147481289Y-68443789D01*
X147611590Y-68248779D01*
X147657346Y-68018750D01*
X147657346Y-67581250D01*
X147611590Y-67351221D01*
X147481289Y-67156211D01*
X147286279Y-67025910D01*
X147218863Y-67012500D01*
X147286279Y-66999090D01*
X147481289Y-66868789D01*
X147611590Y-66673779D01*
X147657346Y-66443750D01*
X147657346Y-66006250D01*
X147641503Y-65926603D01*
X147701003Y-65901957D01*
X147890883Y-65712077D01*
X147993646Y-65463986D01*
X147993646Y-65195454D01*
X147890883Y-64947363D01*
X147701003Y-64757483D01*
X147489219Y-64669759D01*
X147511590Y-64636279D01*
X147557346Y-64406250D01*
X147557346Y-64009889D01*
X148851970Y-65304513D01*
X148928681Y-65419319D01*
X149383502Y-65723221D01*
X149661424Y-65778503D01*
X149920000Y-65829937D01*
X150055422Y-65803000D01*
X151545001Y-65803000D01*
X151545001Y-65938422D01*
X151624780Y-66339498D01*
X151928682Y-66794319D01*
X152383503Y-67098221D01*
X152920000Y-67204937D01*
X153456498Y-67098221D01*
X153911319Y-66794319D01*
X154215221Y-66339498D01*
X154295000Y-65938422D01*
X154295000Y-65803000D01*
X161705001Y-65803000D01*
X161705001Y-65913422D01*
X161784780Y-66314498D01*
X162088682Y-66769319D01*
X162543503Y-67073221D01*
X163080000Y-67179937D01*
X163616498Y-67073221D01*
X164071319Y-66769319D01*
X164375221Y-66314498D01*
X164455000Y-65913422D01*
X164455000Y-64563422D01*
X164481937Y-64428000D01*
X164455000Y-64292578D01*
X164455000Y-62942578D01*
X164375221Y-62541502D01*
X164071318Y-62086681D01*
X163616497Y-61782779D01*
X163080000Y-61676063D01*
X162543502Y-61782779D01*
X162088681Y-62086682D01*
X161784779Y-62541503D01*
X161705000Y-62942579D01*
X161705000Y-63053000D01*
X154295000Y-63053000D01*
X154295000Y-62917578D01*
X154215221Y-62516502D01*
X153911318Y-62061681D01*
X153456497Y-61757779D01*
X152920000Y-61651063D01*
X152383502Y-61757779D01*
X151928681Y-62061682D01*
X151624779Y-62516503D01*
X151545000Y-62917579D01*
X151545000Y-63053000D01*
X150489543Y-63053000D01*
X148886543Y-61450000D01*
X164550001Y-61450000D01*
X164550001Y-77357427D01*
X164517437Y-77303629D01*
X163990286Y-76916203D01*
X163355000Y-76760000D01*
X162605000Y-76760000D01*
X162605000Y-78360000D01*
X162625000Y-78360000D01*
X162625000Y-78510000D01*
X162605000Y-78510000D01*
X162605000Y-80110000D01*
X163355000Y-80110000D01*
X163990286Y-79953797D01*
X164517437Y-79566371D01*
X164550001Y-79512573D01*
X164550001Y-89487427D01*
X164517437Y-89433629D01*
X163990286Y-89046203D01*
X163355000Y-88890000D01*
X162605000Y-88890000D01*
X162605000Y-90490000D01*
X162625000Y-90490000D01*
X162625000Y-90640000D01*
X162605000Y-90640000D01*
X162605000Y-92240000D01*
X163355000Y-92240000D01*
X163990286Y-92083797D01*
X164517437Y-91696371D01*
X164550000Y-91642573D01*
X164550000Y-92307293D01*
X164472038Y-92275000D01*
X164081250Y-92275000D01*
X163975000Y-92381250D01*
X163975000Y-93325000D01*
X163995000Y-93325000D01*
X163995000Y-93475000D01*
X163975000Y-93475000D01*
X163975000Y-94418750D01*
X164081250Y-94525000D01*
X164472038Y-94525000D01*
X164550000Y-94492707D01*
X164550000Y-120550000D01*
X151401041Y-120550000D01*
X151410298Y-120540743D01*
X151475000Y-120384538D01*
X151475000Y-119831250D01*
X151368750Y-119725000D01*
X150275000Y-119725000D01*
X150275000Y-119745000D01*
X150125000Y-119745000D01*
X150125000Y-119725000D01*
X150105000Y-119725000D01*
X150105000Y-119575000D01*
X150125000Y-119575000D01*
X150125000Y-118681250D01*
X150275000Y-118681250D01*
X150275000Y-119575000D01*
X151368750Y-119575000D01*
X151475000Y-119468750D01*
X151475000Y-118970355D01*
X154185711Y-118970355D01*
X154327823Y-119215684D01*
X154962719Y-119476151D01*
X155648961Y-119473827D01*
X156272177Y-119215684D01*
X156414289Y-118970355D01*
X155300000Y-117856066D01*
X154185711Y-118970355D01*
X151475000Y-118970355D01*
X151475000Y-118915462D01*
X151410298Y-118759257D01*
X151290743Y-118639702D01*
X151134538Y-118575000D01*
X150381250Y-118575000D01*
X150275000Y-118681250D01*
X150125000Y-118681250D01*
X150018750Y-118575000D01*
X149265462Y-118575000D01*
X149225000Y-118591760D01*
X149225000Y-118265462D01*
X149160298Y-118109257D01*
X149040743Y-117989702D01*
X148884538Y-117925000D01*
X148281250Y-117925000D01*
X148175000Y-118031250D01*
X148175000Y-118762500D01*
X148195000Y-118762500D01*
X148195000Y-118912500D01*
X148175000Y-118912500D01*
X148175000Y-119643750D01*
X148281250Y-119750000D01*
X148884538Y-119750000D01*
X148944889Y-119725002D01*
X149031248Y-119725002D01*
X148925000Y-119831250D01*
X148925000Y-120384538D01*
X148989702Y-120540743D01*
X148998959Y-120550000D01*
X146733963Y-120550000D01*
X146803242Y-120446317D01*
X146832346Y-120300000D01*
X146832346Y-119018750D01*
X146975000Y-119018750D01*
X146975000Y-119409538D01*
X147039702Y-119565743D01*
X147159257Y-119685298D01*
X147315462Y-119750000D01*
X147918750Y-119750000D01*
X148025000Y-119643750D01*
X148025000Y-118912500D01*
X147081250Y-118912500D01*
X146975000Y-119018750D01*
X146832346Y-119018750D01*
X146832346Y-119000000D01*
X146803242Y-118853683D01*
X146720359Y-118729641D01*
X146596317Y-118646758D01*
X146450000Y-118617654D01*
X145385718Y-118617654D01*
X145218219Y-118584337D01*
X144899344Y-118265462D01*
X146975000Y-118265462D01*
X146975000Y-118656250D01*
X147081250Y-118762500D01*
X148025000Y-118762500D01*
X148025000Y-118031250D01*
X147918750Y-117925000D01*
X147315462Y-117925000D01*
X147159257Y-117989702D01*
X147039702Y-118109257D01*
X146975000Y-118265462D01*
X144899344Y-118265462D01*
X139345473Y-112711591D01*
X139310600Y-112659400D01*
X139103863Y-112521263D01*
X138921555Y-112485000D01*
X138860000Y-112472756D01*
X138798445Y-112485000D01*
X138729406Y-112485000D01*
X138665669Y-112331125D01*
X138278875Y-111944331D01*
X138026998Y-111840000D01*
X138278875Y-111735669D01*
X138665669Y-111348875D01*
X138729406Y-111195000D01*
X139611118Y-111195000D01*
X144367654Y-115951537D01*
X144367654Y-116800000D01*
X144396758Y-116946317D01*
X144479641Y-117070359D01*
X144603683Y-117153242D01*
X144709863Y-117174362D01*
X144836138Y-117258737D01*
X145080000Y-117307244D01*
X145323862Y-117258737D01*
X145438188Y-117182346D01*
X146450000Y-117182346D01*
X146596317Y-117153242D01*
X146720359Y-117070359D01*
X146803242Y-116946317D01*
X146832346Y-116800000D01*
X146832346Y-115776187D01*
X147073321Y-115937201D01*
X147766083Y-116075000D01*
X147854835Y-116092654D01*
X147643750Y-116092654D01*
X147404153Y-116140313D01*
X147201033Y-116276033D01*
X147065313Y-116479153D01*
X147017654Y-116718750D01*
X147017654Y-117206250D01*
X147065313Y-117445847D01*
X147201033Y-117648967D01*
X147404153Y-117784687D01*
X147643750Y-117832346D01*
X148556250Y-117832346D01*
X148795847Y-117784687D01*
X148998967Y-117648967D01*
X149040038Y-117587500D01*
X149325945Y-117587500D01*
X149387500Y-117599744D01*
X149449055Y-117587500D01*
X149631363Y-117551237D01*
X149838100Y-117413100D01*
X149838354Y-117412719D01*
X153573849Y-117412719D01*
X153576173Y-118098961D01*
X153834316Y-118722177D01*
X154079645Y-118864289D01*
X155193934Y-117750000D01*
X155406066Y-117750000D01*
X156520355Y-118864289D01*
X156765684Y-118722177D01*
X157026151Y-118087281D01*
X157023827Y-117401039D01*
X156765684Y-116777823D01*
X156520355Y-116635711D01*
X155406066Y-117750000D01*
X155193934Y-117750000D01*
X154079645Y-116635711D01*
X153834316Y-116777823D01*
X153573849Y-117412719D01*
X149838354Y-117412719D01*
X149872972Y-117360910D01*
X150051537Y-117182346D01*
X151050000Y-117182346D01*
X151196317Y-117153242D01*
X151320359Y-117070359D01*
X151403242Y-116946317D01*
X151432346Y-116800000D01*
X151432346Y-116075000D01*
X154833160Y-116075000D01*
X154327823Y-116284316D01*
X154185711Y-116529645D01*
X155300000Y-117643934D01*
X156414289Y-116529645D01*
X156272177Y-116284316D01*
X155761963Y-116075000D01*
X160083917Y-116075000D01*
X160776679Y-115937201D01*
X160783945Y-115932346D01*
X161600000Y-115932346D01*
X161746317Y-115903242D01*
X161870359Y-115820359D01*
X161953242Y-115696317D01*
X161982346Y-115550000D01*
X161982346Y-114783606D01*
X162087201Y-114626679D01*
X162271529Y-113700000D01*
X162087201Y-112773321D01*
X161562280Y-111987720D01*
X160776679Y-111462799D01*
X160083917Y-111325000D01*
X148983757Y-111325000D01*
X148061112Y-110402355D01*
X154185711Y-110402355D01*
X154327823Y-110647684D01*
X154962719Y-110908151D01*
X155648961Y-110905827D01*
X156272177Y-110647684D01*
X156414289Y-110402355D01*
X155300000Y-109288066D01*
X154185711Y-110402355D01*
X148061112Y-110402355D01*
X146503476Y-108844719D01*
X153573849Y-108844719D01*
X153576173Y-109530961D01*
X153834316Y-110154177D01*
X154079645Y-110296289D01*
X155193934Y-109182000D01*
X155406066Y-109182000D01*
X156520355Y-110296289D01*
X156765684Y-110154177D01*
X157026151Y-109519281D01*
X157023827Y-108833039D01*
X156765684Y-108209823D01*
X156520355Y-108067711D01*
X155406066Y-109182000D01*
X155193934Y-109182000D01*
X154079645Y-108067711D01*
X153834316Y-108209823D01*
X153573849Y-108844719D01*
X146503476Y-108844719D01*
X146211338Y-108552581D01*
X146265462Y-108575000D01*
X147818750Y-108575000D01*
X147925000Y-108468750D01*
X147925000Y-106975000D01*
X148075000Y-106975000D01*
X148075000Y-108468750D01*
X148181250Y-108575000D01*
X149734538Y-108575000D01*
X149890743Y-108510298D01*
X150010298Y-108390743D01*
X150075000Y-108234538D01*
X150075000Y-107961645D01*
X154185711Y-107961645D01*
X155300000Y-109075934D01*
X156414289Y-107961645D01*
X156272177Y-107716316D01*
X155637281Y-107455849D01*
X154951039Y-107458173D01*
X154327823Y-107716316D01*
X154185711Y-107961645D01*
X150075000Y-107961645D01*
X150075000Y-107081250D01*
X149968750Y-106975000D01*
X148075000Y-106975000D01*
X147925000Y-106975000D01*
X146031250Y-106975000D01*
X145925000Y-107081250D01*
X145925000Y-108234538D01*
X145947419Y-108288662D01*
X141640007Y-103981250D01*
X145925000Y-103981250D01*
X145925000Y-105134538D01*
X145989702Y-105290743D01*
X146048959Y-105350000D01*
X145989702Y-105409257D01*
X145925000Y-105565462D01*
X145925000Y-106718750D01*
X146031250Y-106825000D01*
X147925000Y-106825000D01*
X147925000Y-103875000D01*
X148075000Y-103875000D01*
X148075000Y-106825000D01*
X149968750Y-106825000D01*
X150075000Y-106718750D01*
X150075000Y-105565462D01*
X150010298Y-105409257D01*
X149951041Y-105350000D01*
X150010298Y-105290743D01*
X150075000Y-105134538D01*
X150075000Y-104382000D01*
X158617654Y-104382000D01*
X158617654Y-106982000D01*
X158646758Y-107128317D01*
X158729641Y-107252359D01*
X158853683Y-107335242D01*
X159000000Y-107364346D01*
X161600000Y-107364346D01*
X161746317Y-107335242D01*
X161870359Y-107252359D01*
X161953242Y-107128317D01*
X161982346Y-106982000D01*
X161982346Y-104382000D01*
X161953242Y-104235683D01*
X161870359Y-104111641D01*
X161746317Y-104028758D01*
X161600000Y-103999654D01*
X159000000Y-103999654D01*
X158853683Y-104028758D01*
X158729641Y-104111641D01*
X158646758Y-104235683D01*
X158617654Y-104382000D01*
X150075000Y-104382000D01*
X150075000Y-103981250D01*
X149968750Y-103875000D01*
X148075000Y-103875000D01*
X147925000Y-103875000D01*
X146031250Y-103875000D01*
X145925000Y-103981250D01*
X141640007Y-103981250D01*
X140124219Y-102465462D01*
X145925000Y-102465462D01*
X145925000Y-103618750D01*
X146031250Y-103725000D01*
X147925000Y-103725000D01*
X147925000Y-102231250D01*
X148075000Y-102231250D01*
X148075000Y-103725000D01*
X149968750Y-103725000D01*
X150075000Y-103618750D01*
X150075000Y-102465462D01*
X150010298Y-102309257D01*
X149890743Y-102189702D01*
X149734538Y-102125000D01*
X148181250Y-102125000D01*
X148075000Y-102231250D01*
X147925000Y-102231250D01*
X147818750Y-102125000D01*
X146265462Y-102125000D01*
X146109257Y-102189702D01*
X145989702Y-102309257D01*
X145925000Y-102465462D01*
X140124219Y-102465462D01*
X139875000Y-102216244D01*
X139875000Y-101870355D01*
X154185711Y-101870355D01*
X154327823Y-102115684D01*
X154962719Y-102376151D01*
X155648961Y-102373827D01*
X156272177Y-102115684D01*
X156414289Y-101870355D01*
X155300000Y-100756066D01*
X154185711Y-101870355D01*
X139875000Y-101870355D01*
X139875000Y-100312719D01*
X153573849Y-100312719D01*
X153576173Y-100998961D01*
X153834316Y-101622177D01*
X154079645Y-101764289D01*
X155193934Y-100650000D01*
X155406066Y-100650000D01*
X156520355Y-101764289D01*
X156765684Y-101622177D01*
X157026151Y-100987281D01*
X157023827Y-100301039D01*
X156765684Y-99677823D01*
X156520355Y-99535711D01*
X155406066Y-100650000D01*
X155193934Y-100650000D01*
X154079645Y-99535711D01*
X153834316Y-99677823D01*
X153573849Y-100312719D01*
X139875000Y-100312719D01*
X139875000Y-100176083D01*
X139737201Y-99483321D01*
X139701336Y-99429645D01*
X154185711Y-99429645D01*
X155300000Y-100543934D01*
X156414289Y-99429645D01*
X156272177Y-99184316D01*
X155637281Y-98923849D01*
X154951039Y-98926173D01*
X154327823Y-99184316D01*
X154185711Y-99429645D01*
X139701336Y-99429645D01*
X139212280Y-98697720D01*
X138426678Y-98172799D01*
X137500000Y-97988471D01*
X136573321Y-98172799D01*
X135787720Y-98697720D01*
X135450000Y-99203155D01*
X135450000Y-95016713D01*
X135925000Y-95016713D01*
X135925000Y-95643287D01*
X136164780Y-96222166D01*
X136607834Y-96665220D01*
X137186713Y-96905000D01*
X137813287Y-96905000D01*
X138392166Y-96665220D01*
X138835220Y-96222166D01*
X139075000Y-95643287D01*
X139075000Y-95016713D01*
X138835220Y-94437834D01*
X138679268Y-94281882D01*
X142070194Y-94281882D01*
X142080338Y-94769111D01*
X142247278Y-95172142D01*
X142440664Y-95253270D01*
X143193934Y-94500000D01*
X142440664Y-93746730D01*
X142247278Y-93827858D01*
X142070194Y-94281882D01*
X138679268Y-94281882D01*
X138392166Y-93994780D01*
X137813287Y-93755000D01*
X137186713Y-93755000D01*
X136607834Y-93994780D01*
X136164780Y-94437834D01*
X135925000Y-95016713D01*
X135450000Y-95016713D01*
X135450000Y-93640664D01*
X142546730Y-93640664D01*
X143300000Y-94393934D01*
X143314143Y-94379792D01*
X143420209Y-94485858D01*
X143406066Y-94500000D01*
X143420209Y-94514143D01*
X143314143Y-94620209D01*
X143300000Y-94606066D01*
X142546730Y-95359336D01*
X142627858Y-95552722D01*
X143081882Y-95729806D01*
X143569111Y-95719662D01*
X143972142Y-95552722D01*
X144017813Y-95443854D01*
X144134257Y-95560298D01*
X144290462Y-95625000D01*
X144681250Y-95625000D01*
X144787500Y-95518750D01*
X144787500Y-94575000D01*
X144937500Y-94575000D01*
X144937500Y-95518750D01*
X145043750Y-95625000D01*
X145434538Y-95625000D01*
X145590743Y-95560298D01*
X145710298Y-95440743D01*
X145775000Y-95284538D01*
X145775000Y-94681250D01*
X145668750Y-94575000D01*
X144937500Y-94575000D01*
X144787500Y-94575000D01*
X144767500Y-94575000D01*
X144767500Y-94500000D01*
X145845358Y-94500000D01*
X145867654Y-94612090D01*
X145867654Y-94956250D01*
X145915313Y-95195847D01*
X146051033Y-95398967D01*
X146125705Y-95448861D01*
X146079641Y-95479641D01*
X145996758Y-95603683D01*
X145967654Y-95750000D01*
X145967654Y-98250000D01*
X145996758Y-98396317D01*
X146079641Y-98520359D01*
X146203683Y-98603242D01*
X146350000Y-98632346D01*
X149650000Y-98632346D01*
X149796317Y-98603242D01*
X149920359Y-98520359D01*
X150003242Y-98396317D01*
X150007482Y-98375000D01*
X158617654Y-98375000D01*
X158617654Y-98450000D01*
X158646758Y-98596317D01*
X158729641Y-98720359D01*
X158853683Y-98803242D01*
X159000000Y-98832346D01*
X161600000Y-98832346D01*
X161746317Y-98803242D01*
X161870359Y-98720359D01*
X161953242Y-98596317D01*
X161982346Y-98450000D01*
X161982346Y-95850000D01*
X161953242Y-95703683D01*
X161870359Y-95579641D01*
X161746317Y-95496758D01*
X161600000Y-95467654D01*
X159537500Y-95467654D01*
X159537500Y-94160661D01*
X159656289Y-94081289D01*
X159786590Y-93886279D01*
X159800000Y-93818863D01*
X159813410Y-93886279D01*
X159943711Y-94081289D01*
X160138721Y-94211590D01*
X160368750Y-94257346D01*
X160806250Y-94257346D01*
X161036279Y-94211590D01*
X161204877Y-94098937D01*
X161338533Y-94298967D01*
X161541653Y-94434687D01*
X161781250Y-94482346D01*
X162268750Y-94482346D01*
X162508347Y-94434687D01*
X162711467Y-94298967D01*
X162847187Y-94095847D01*
X162894846Y-93856250D01*
X162894846Y-93581250D01*
X162987500Y-93581250D01*
X162987500Y-94184538D01*
X163052202Y-94340743D01*
X163171757Y-94460298D01*
X163327962Y-94525000D01*
X163718750Y-94525000D01*
X163825000Y-94418750D01*
X163825000Y-93475000D01*
X163093750Y-93475000D01*
X162987500Y-93581250D01*
X162894846Y-93581250D01*
X162894846Y-92943750D01*
X162847187Y-92704153D01*
X162787926Y-92615462D01*
X162987500Y-92615462D01*
X162987500Y-93218750D01*
X163093750Y-93325000D01*
X163825000Y-93325000D01*
X163825000Y-92381250D01*
X163718750Y-92275000D01*
X163327962Y-92275000D01*
X163171757Y-92339702D01*
X163052202Y-92459257D01*
X162987500Y-92615462D01*
X162787926Y-92615462D01*
X162711467Y-92501033D01*
X162508347Y-92365313D01*
X162268750Y-92317654D01*
X161781250Y-92317654D01*
X161541653Y-92365313D01*
X161338533Y-92501033D01*
X161204877Y-92701063D01*
X161036279Y-92588410D01*
X160806250Y-92542654D01*
X160368750Y-92542654D01*
X160138721Y-92588410D01*
X159943711Y-92718711D01*
X159813410Y-92913721D01*
X159800000Y-92981137D01*
X159786590Y-92913721D01*
X159656289Y-92718711D01*
X159461279Y-92588410D01*
X159231250Y-92542654D01*
X158793750Y-92542654D01*
X158563721Y-92588410D01*
X158368711Y-92718711D01*
X158238410Y-92913721D01*
X158192654Y-93143750D01*
X158192654Y-93656250D01*
X158238410Y-93886279D01*
X158368711Y-94081289D01*
X158487500Y-94160661D01*
X158487501Y-95625000D01*
X152433756Y-95625000D01*
X154513972Y-93544785D01*
X154712280Y-93412280D01*
X155237201Y-92626679D01*
X155375000Y-91933917D01*
X155421529Y-91700001D01*
X155375000Y-91466085D01*
X155375000Y-90900842D01*
X160139014Y-90900842D01*
X160203800Y-91136704D01*
X160542563Y-91696371D01*
X161069714Y-92083797D01*
X161705000Y-92240000D01*
X162455000Y-92240000D01*
X162455000Y-90640000D01*
X160213044Y-90640000D01*
X160139014Y-90900842D01*
X155375000Y-90900842D01*
X155375000Y-90229158D01*
X160139014Y-90229158D01*
X160213044Y-90490000D01*
X162455000Y-90490000D01*
X162455000Y-88890000D01*
X161705000Y-88890000D01*
X161069714Y-89046203D01*
X160542563Y-89433629D01*
X160203800Y-89993296D01*
X160139014Y-90229158D01*
X155375000Y-90229158D01*
X155375000Y-88966083D01*
X155237201Y-88273321D01*
X154712280Y-87487720D01*
X153926678Y-86962799D01*
X153000000Y-86778471D01*
X152073321Y-86962799D01*
X151287720Y-87487720D01*
X150762799Y-88273322D01*
X150625000Y-88966084D01*
X150625000Y-90716243D01*
X148386031Y-92955213D01*
X148187720Y-93087720D01*
X148014976Y-93346250D01*
X147634416Y-93503883D01*
X147513299Y-93625000D01*
X147439981Y-93625000D01*
X147423967Y-93601033D01*
X147220847Y-93465313D01*
X146981250Y-93417654D01*
X146493750Y-93417654D01*
X146254153Y-93465313D01*
X146051033Y-93601033D01*
X145915313Y-93804153D01*
X145867654Y-94043750D01*
X145867654Y-94387910D01*
X145845358Y-94500000D01*
X144767500Y-94500000D01*
X144767500Y-94425000D01*
X144787500Y-94425000D01*
X144787500Y-93481250D01*
X144937500Y-93481250D01*
X144937500Y-94425000D01*
X145668750Y-94425000D01*
X145775000Y-94318750D01*
X145775000Y-93715462D01*
X145710298Y-93559257D01*
X145590743Y-93439702D01*
X145434538Y-93375000D01*
X145043750Y-93375000D01*
X144937500Y-93481250D01*
X144787500Y-93481250D01*
X144681250Y-93375000D01*
X144290462Y-93375000D01*
X144134257Y-93439702D01*
X144017813Y-93556146D01*
X143972142Y-93447278D01*
X143518118Y-93270194D01*
X143030889Y-93280338D01*
X142627858Y-93447278D01*
X142546730Y-93640664D01*
X135450000Y-93640664D01*
X135450000Y-61450000D01*
X144097557Y-61450000D01*
X143904779Y-61738512D01*
X143904779Y-61738512D01*
G37*
X143904779Y-61738512D02*
X143872753Y-61899518D01*
X143853819Y-61871181D01*
X143398998Y-61567279D01*
X142997922Y-61487500D01*
X139372922Y-61487500D01*
X139237500Y-61460563D01*
X139102078Y-61487500D01*
X138701002Y-61567279D01*
X138246181Y-61871181D01*
X138210220Y-61925000D01*
X138166822Y-61925000D01*
X137551189Y-62180004D01*
X137080004Y-62651189D01*
X136825000Y-63266822D01*
X136825000Y-63933178D01*
X137080004Y-64548811D01*
X137551189Y-65019996D01*
X138166822Y-65275000D01*
X138833178Y-65275000D01*
X139448811Y-65019996D01*
X139919996Y-64548811D01*
X140048945Y-64237500D01*
X140276440Y-64237500D01*
X140265313Y-64254153D01*
X140217654Y-64493750D01*
X140217654Y-64839884D01*
X139765335Y-65292204D01*
X139721496Y-65321496D01*
X139647923Y-65431607D01*
X139613721Y-65438410D01*
X139418711Y-65568711D01*
X139350000Y-65671545D01*
X139281289Y-65568711D01*
X139086279Y-65438410D01*
X138856250Y-65392654D01*
X138343750Y-65392654D01*
X138113721Y-65438410D01*
X137918711Y-65568711D01*
X137879927Y-65626756D01*
X137634266Y-65525000D01*
X137365734Y-65525000D01*
X137117643Y-65627763D01*
X136927763Y-65817643D01*
X136825000Y-66065734D01*
X136825000Y-66334266D01*
X136927763Y-66582357D01*
X137117643Y-66772237D01*
X137365734Y-66875000D01*
X137634266Y-66875000D01*
X137866843Y-66778663D01*
X137918711Y-66856289D01*
X138113721Y-66986590D01*
X138181137Y-67000000D01*
X138113721Y-67013410D01*
X137918711Y-67143711D01*
X137788410Y-67338721D01*
X137742654Y-67568750D01*
X137742654Y-68006250D01*
X137788410Y-68236279D01*
X137918711Y-68431289D01*
X138113721Y-68561590D01*
X138343750Y-68607346D01*
X138856250Y-68607346D01*
X139086279Y-68561590D01*
X139281289Y-68431289D01*
X139350000Y-68328455D01*
X139418711Y-68431289D01*
X139613721Y-68561590D01*
X139843750Y-68607346D01*
X140356250Y-68607346D01*
X140586279Y-68561590D01*
X140781289Y-68431289D01*
X140850000Y-68328455D01*
X140918711Y-68431289D01*
X141113721Y-68561590D01*
X141343750Y-68607346D01*
X141856250Y-68607346D01*
X142086279Y-68561590D01*
X142281289Y-68431289D01*
X142360661Y-68312500D01*
X142400124Y-68312500D01*
X142423683Y-68328242D01*
X142570000Y-68357346D01*
X142575001Y-68357346D01*
X142575000Y-69132538D01*
X142557346Y-69150192D01*
X142557346Y-69100000D01*
X142528242Y-68953683D01*
X142445359Y-68829641D01*
X142321317Y-68746758D01*
X142175000Y-68717654D01*
X140725000Y-68717654D01*
X140578683Y-68746758D01*
X140454641Y-68829641D01*
X140371758Y-68953683D01*
X140342654Y-69100000D01*
X140342654Y-69425000D01*
X140050570Y-69425000D01*
X140019996Y-69351189D01*
X139548811Y-68880004D01*
X138933178Y-68625000D01*
X138266822Y-68625000D01*
X137651189Y-68880004D01*
X137180004Y-69351189D01*
X136925000Y-69966822D01*
X136925000Y-70633178D01*
X137180004Y-71248811D01*
X137651189Y-71719996D01*
X138266822Y-71975000D01*
X138933178Y-71975000D01*
X139548811Y-71719996D01*
X140019996Y-71248811D01*
X140050570Y-71175000D01*
X140342654Y-71175000D01*
X140342654Y-71500000D01*
X140371758Y-71646317D01*
X140454641Y-71770359D01*
X140578683Y-71853242D01*
X140725000Y-71882346D01*
X142175000Y-71882346D01*
X142321317Y-71853242D01*
X142399231Y-71801181D01*
X142445000Y-71810285D01*
X142496706Y-71800000D01*
X142649845Y-71769539D01*
X142823504Y-71653504D01*
X142852797Y-71609664D01*
X145625000Y-68837462D01*
X145625001Y-69598440D01*
X145519160Y-69669160D01*
X145470343Y-69742220D01*
X144542221Y-70670343D01*
X144469161Y-70719160D01*
X144420344Y-70792220D01*
X144275769Y-71008592D01*
X144207858Y-71350000D01*
X144225001Y-71436182D01*
X144225000Y-72836178D01*
X144267654Y-73050615D01*
X144267654Y-73150000D01*
X144296758Y-73296317D01*
X144379641Y-73420359D01*
X144503683Y-73503242D01*
X144650000Y-73532346D01*
X144695905Y-73532346D01*
X144758592Y-73574232D01*
X145100000Y-73642142D01*
X145441407Y-73574232D01*
X145504094Y-73532346D01*
X145550000Y-73532346D01*
X145696317Y-73503242D01*
X145784974Y-73444003D01*
X145788410Y-73461279D01*
X145918711Y-73656289D01*
X146113721Y-73786590D01*
X146181137Y-73800000D01*
X146113721Y-73813410D01*
X145918711Y-73943711D01*
X145857531Y-74035273D01*
X145820359Y-73979641D01*
X145696317Y-73896758D01*
X145550000Y-73867654D01*
X144650000Y-73867654D01*
X144503683Y-73896758D01*
X144379641Y-73979641D01*
X144296758Y-74103683D01*
X144267654Y-74250000D01*
X144267654Y-74375000D01*
X144029594Y-74375000D01*
X143982357Y-74327763D01*
X143877768Y-74284441D01*
X143903242Y-74246317D01*
X143932346Y-74100000D01*
X143932346Y-74000616D01*
X143992142Y-73700000D01*
X143932346Y-73399384D01*
X143932346Y-73300000D01*
X143903242Y-73153683D01*
X143820359Y-73029641D01*
X143696317Y-72946758D01*
X143550000Y-72917654D01*
X143504095Y-72917654D01*
X143441408Y-72875768D01*
X143186179Y-72825000D01*
X142331686Y-72825000D01*
X142298967Y-72776033D01*
X142095847Y-72640313D01*
X141856250Y-72592654D01*
X140943750Y-72592654D01*
X140704153Y-72640313D01*
X140501033Y-72776033D01*
X140468314Y-72825000D01*
X140050570Y-72825000D01*
X140019996Y-72751189D01*
X139548811Y-72280004D01*
X138933178Y-72025000D01*
X138266822Y-72025000D01*
X137651189Y-72280004D01*
X137180004Y-72751189D01*
X136925000Y-73366822D01*
X136925000Y-74033178D01*
X137180004Y-74648811D01*
X137651189Y-75119996D01*
X138266822Y-75375000D01*
X138933178Y-75375000D01*
X139548811Y-75119996D01*
X140019996Y-74648811D01*
X140050570Y-74575000D01*
X140614825Y-74575000D01*
X140501033Y-74651033D01*
X140365313Y-74854153D01*
X140317654Y-75093750D01*
X140317654Y-75581250D01*
X140333604Y-75661435D01*
X140002385Y-75992654D01*
X139943750Y-75992654D01*
X139713721Y-76038410D01*
X139518711Y-76168711D01*
X139450000Y-76271545D01*
X139381289Y-76168711D01*
X139186279Y-76038410D01*
X138956250Y-75992654D01*
X138443750Y-75992654D01*
X138213721Y-76038410D01*
X138018711Y-76168711D01*
X137947691Y-76275000D01*
X137929594Y-76275000D01*
X137882357Y-76227763D01*
X137634266Y-76125000D01*
X137365734Y-76125000D01*
X137117643Y-76227763D01*
X136927763Y-76417643D01*
X136825000Y-76665734D01*
X136825000Y-76934266D01*
X136927763Y-77182357D01*
X137117643Y-77372237D01*
X137365734Y-77475000D01*
X137634266Y-77475000D01*
X137882357Y-77372237D01*
X137929594Y-77325000D01*
X137930987Y-77325000D01*
X138018711Y-77456289D01*
X138213721Y-77586590D01*
X138281137Y-77600000D01*
X138213721Y-77613410D01*
X138018711Y-77743711D01*
X137888410Y-77938721D01*
X137842654Y-78168750D01*
X137842654Y-78606250D01*
X137888410Y-78836279D01*
X138018711Y-79031289D01*
X138213721Y-79161590D01*
X138443750Y-79207346D01*
X138956250Y-79207346D01*
X139186279Y-79161590D01*
X139381289Y-79031289D01*
X139450000Y-78928455D01*
X139518711Y-79031289D01*
X139713721Y-79161590D01*
X139943750Y-79207346D01*
X140456250Y-79207346D01*
X140686279Y-79161590D01*
X140881289Y-79031289D01*
X140950000Y-78928455D01*
X141018711Y-79031289D01*
X141213721Y-79161590D01*
X141443750Y-79207346D01*
X141956250Y-79207346D01*
X142186279Y-79161590D01*
X142381289Y-79031289D01*
X142460661Y-78912500D01*
X142500124Y-78912500D01*
X142523683Y-78928242D01*
X142670000Y-78957346D01*
X142675000Y-78957346D01*
X142675000Y-79537540D01*
X142549912Y-79662628D01*
X142528242Y-79553683D01*
X142445359Y-79429641D01*
X142321317Y-79346758D01*
X142175000Y-79317654D01*
X140725000Y-79317654D01*
X140578683Y-79346758D01*
X140454641Y-79429641D01*
X140371758Y-79553683D01*
X140342654Y-79700000D01*
X140342654Y-80025000D01*
X140050570Y-80025000D01*
X140019996Y-79951189D01*
X139548811Y-79480004D01*
X138933178Y-79225000D01*
X138266822Y-79225000D01*
X137651189Y-79480004D01*
X137180004Y-79951189D01*
X136925000Y-80566822D01*
X136925000Y-81233178D01*
X137180004Y-81848811D01*
X137651189Y-82319996D01*
X138206467Y-82550000D01*
X137651189Y-82780004D01*
X137180004Y-83251189D01*
X136925000Y-83866822D01*
X136925000Y-84533178D01*
X137180004Y-85148811D01*
X137651189Y-85619996D01*
X138266822Y-85875000D01*
X138933178Y-85875000D01*
X139548811Y-85619996D01*
X140019996Y-85148811D01*
X140050570Y-85075000D01*
X140714825Y-85075000D01*
X140601033Y-85151033D01*
X140465313Y-85354153D01*
X140417654Y-85593750D01*
X140417654Y-86081250D01*
X140433604Y-86161435D01*
X140102385Y-86492654D01*
X139943750Y-86492654D01*
X139713721Y-86538410D01*
X139518711Y-86668711D01*
X139450000Y-86771545D01*
X139381289Y-86668711D01*
X139186279Y-86538410D01*
X138956250Y-86492654D01*
X138443750Y-86492654D01*
X138213721Y-86538410D01*
X138018711Y-86668711D01*
X137947691Y-86775000D01*
X137929594Y-86775000D01*
X137882357Y-86727763D01*
X137634266Y-86625000D01*
X137365734Y-86625000D01*
X137117643Y-86727763D01*
X136927763Y-86917643D01*
X136825000Y-87165734D01*
X136825000Y-87434266D01*
X136927763Y-87682357D01*
X137117643Y-87872237D01*
X137365734Y-87975000D01*
X137634266Y-87975000D01*
X137882357Y-87872237D01*
X137929594Y-87825000D01*
X137930987Y-87825000D01*
X138018711Y-87956289D01*
X138213721Y-88086590D01*
X138281137Y-88100000D01*
X138213721Y-88113410D01*
X138018711Y-88243711D01*
X137888410Y-88438721D01*
X137842654Y-88668750D01*
X137842654Y-89106250D01*
X137888410Y-89336279D01*
X138018711Y-89531289D01*
X138213721Y-89661590D01*
X138443750Y-89707346D01*
X138956250Y-89707346D01*
X139186279Y-89661590D01*
X139381289Y-89531289D01*
X139450000Y-89428455D01*
X139518711Y-89531289D01*
X139713721Y-89661590D01*
X139943750Y-89707346D01*
X140456250Y-89707346D01*
X140686279Y-89661590D01*
X140881289Y-89531289D01*
X140950000Y-89428455D01*
X141018711Y-89531289D01*
X141213721Y-89661590D01*
X141443750Y-89707346D01*
X141956250Y-89707346D01*
X142186279Y-89661590D01*
X142381289Y-89531289D01*
X142460661Y-89412500D01*
X142600124Y-89412500D01*
X142623683Y-89428242D01*
X142770000Y-89457346D01*
X142775000Y-89457346D01*
X142775000Y-89937540D01*
X142549912Y-90162628D01*
X142528242Y-90053683D01*
X142445359Y-89929641D01*
X142321317Y-89846758D01*
X142175000Y-89817654D01*
X140725000Y-89817654D01*
X140578683Y-89846758D01*
X140454641Y-89929641D01*
X140371758Y-90053683D01*
X140342654Y-90200000D01*
X140342654Y-90525000D01*
X140050570Y-90525000D01*
X140019996Y-90451189D01*
X139548811Y-89980004D01*
X138933178Y-89725000D01*
X138266822Y-89725000D01*
X137651189Y-89980004D01*
X137180004Y-90451189D01*
X136925000Y-91066822D01*
X136925000Y-91733178D01*
X137180004Y-92348811D01*
X137651189Y-92819996D01*
X138266822Y-93075000D01*
X138933178Y-93075000D01*
X139548811Y-92819996D01*
X140019996Y-92348811D01*
X140050570Y-92275000D01*
X140342654Y-92275000D01*
X140342654Y-92600000D01*
X140371758Y-92746317D01*
X140454641Y-92870359D01*
X140578683Y-92953242D01*
X140725000Y-92982346D01*
X142175000Y-92982346D01*
X142321317Y-92953242D01*
X142445359Y-92870359D01*
X142470909Y-92832122D01*
X142506707Y-92825001D01*
X142659846Y-92794540D01*
X142833505Y-92678505D01*
X142862798Y-92634665D01*
X143231729Y-92265734D01*
X145425000Y-92265734D01*
X145425000Y-92534266D01*
X145527763Y-92782357D01*
X145717643Y-92972237D01*
X145965734Y-93075000D01*
X146234266Y-93075000D01*
X146482357Y-92972237D01*
X146497591Y-92957003D01*
X146625000Y-92982346D01*
X148075000Y-92982346D01*
X148221317Y-92953242D01*
X148345359Y-92870359D01*
X148428242Y-92746317D01*
X148457346Y-92600000D01*
X148457346Y-92150000D01*
X148455668Y-92141565D01*
X148500000Y-92034538D01*
X148500000Y-91906250D01*
X148393750Y-91800000D01*
X148226169Y-91800000D01*
X148221317Y-91796758D01*
X148075000Y-91767654D01*
X147255000Y-91767654D01*
X147255000Y-91650000D01*
X147275000Y-91650000D01*
X147275000Y-91150000D01*
X147425000Y-91150000D01*
X147425000Y-91650000D01*
X147456250Y-91650000D01*
X147531250Y-91725000D01*
X148159538Y-91725000D01*
X148315743Y-91660298D01*
X148326041Y-91650000D01*
X148393750Y-91650000D01*
X148500000Y-91543750D01*
X148500000Y-91415462D01*
X148493595Y-91400000D01*
X148500000Y-91384538D01*
X148500000Y-91256250D01*
X148393750Y-91150000D01*
X148326041Y-91150000D01*
X148315743Y-91139702D01*
X148159538Y-91075000D01*
X147531250Y-91075000D01*
X147456250Y-91150000D01*
X147425000Y-91150000D01*
X147275000Y-91150000D01*
X147243750Y-91150000D01*
X147168750Y-91075000D01*
X146540462Y-91075000D01*
X146384257Y-91139702D01*
X146373959Y-91150000D01*
X146306250Y-91150000D01*
X146200000Y-91256250D01*
X146200000Y-91384538D01*
X146206405Y-91400000D01*
X146200000Y-91415462D01*
X146200000Y-91543750D01*
X146306248Y-91649998D01*
X146200000Y-91649998D01*
X146200000Y-91725000D01*
X145965734Y-91725000D01*
X145717643Y-91827763D01*
X145527763Y-92017643D01*
X145425000Y-92265734D01*
X143231729Y-92265734D01*
X144732001Y-90765462D01*
X146200000Y-90765462D01*
X146200000Y-90893750D01*
X146306250Y-91000000D01*
X146473831Y-91000000D01*
X146478683Y-91003242D01*
X146625000Y-91032346D01*
X148075000Y-91032346D01*
X148221317Y-91003242D01*
X148226169Y-91000000D01*
X148393750Y-91000000D01*
X148500000Y-90893750D01*
X148500000Y-90765462D01*
X148455668Y-90658435D01*
X148457346Y-90650000D01*
X148457346Y-90200000D01*
X148428242Y-90053683D01*
X148345359Y-89929641D01*
X148221317Y-89846758D01*
X148075000Y-89817654D01*
X146625000Y-89817654D01*
X146478683Y-89846758D01*
X146354641Y-89929641D01*
X146271758Y-90053683D01*
X146242654Y-90200000D01*
X146242654Y-90650000D01*
X146244332Y-90658435D01*
X146200000Y-90765462D01*
X144732001Y-90765462D01*
X145004668Y-90492796D01*
X145048504Y-90463506D01*
X145164539Y-90289847D01*
X145195000Y-90136708D01*
X145195000Y-90136707D01*
X145205285Y-90085002D01*
X145195000Y-90033296D01*
X145195000Y-89592461D01*
X145330115Y-89457346D01*
X146030000Y-89457346D01*
X146176317Y-89428242D01*
X146200934Y-89411793D01*
X146264702Y-89565743D01*
X146384257Y-89685298D01*
X146540462Y-89750000D01*
X146918750Y-89750000D01*
X147025000Y-89643750D01*
X147025000Y-88962500D01*
X147175000Y-88962500D01*
X147175000Y-89643750D01*
X147281250Y-89750000D01*
X147659538Y-89750000D01*
X147815743Y-89685298D01*
X147935298Y-89565743D01*
X148000000Y-89409538D01*
X148000000Y-89068750D01*
X147893750Y-88962500D01*
X147175000Y-88962500D01*
X147025000Y-88962500D01*
X147005000Y-88962500D01*
X147005000Y-88812500D01*
X147025000Y-88812500D01*
X147025000Y-88792500D01*
X147175000Y-88792500D01*
X147175000Y-88812500D01*
X147893750Y-88812500D01*
X148000000Y-88706250D01*
X148000000Y-88365462D01*
X147935298Y-88209257D01*
X147815743Y-88089702D01*
X147671216Y-88029837D01*
X147781289Y-87956289D01*
X147911590Y-87761279D01*
X147957346Y-87531250D01*
X147957346Y-87093750D01*
X147911590Y-86863721D01*
X147863238Y-86791356D01*
X147972237Y-86682357D01*
X148075000Y-86434266D01*
X148075000Y-86165734D01*
X147972237Y-85917643D01*
X147782357Y-85727763D01*
X147534266Y-85625000D01*
X147352309Y-85625000D01*
X147411590Y-85536279D01*
X147457346Y-85306250D01*
X147457346Y-84868750D01*
X147411590Y-84638721D01*
X147281289Y-84443711D01*
X147086279Y-84313410D01*
X147018863Y-84300000D01*
X147086279Y-84286590D01*
X147281289Y-84156289D01*
X147347350Y-84057420D01*
X150775000Y-84057420D01*
X150775000Y-84942580D01*
X151113736Y-85760361D01*
X151739639Y-86386264D01*
X152557420Y-86725000D01*
X153442580Y-86725000D01*
X154260361Y-86386264D01*
X154886264Y-85760361D01*
X155225000Y-84942580D01*
X155225000Y-84057420D01*
X154886264Y-83239639D01*
X154260361Y-82613736D01*
X153442580Y-82275000D01*
X152557420Y-82275000D01*
X151739639Y-82613736D01*
X151113736Y-83239639D01*
X150775000Y-84057420D01*
X147347350Y-84057420D01*
X147411590Y-83961279D01*
X147457346Y-83731250D01*
X147457346Y-83293750D01*
X147453616Y-83275000D01*
X147534266Y-83275000D01*
X147782357Y-83172237D01*
X147972237Y-82982357D01*
X148075000Y-82734266D01*
X148075000Y-82482346D01*
X148221317Y-82453242D01*
X148345359Y-82370359D01*
X148428242Y-82246317D01*
X148457346Y-82100000D01*
X148457346Y-81650000D01*
X148437455Y-81550000D01*
X148457346Y-81450000D01*
X148457346Y-81074932D01*
X148492142Y-80900000D01*
X148457346Y-80725068D01*
X148457346Y-80350000D01*
X148437455Y-80250000D01*
X148457346Y-80150000D01*
X148457346Y-79700000D01*
X148428242Y-79553683D01*
X148345359Y-79429641D01*
X148237274Y-79357420D01*
X150775000Y-79357420D01*
X150775000Y-80242580D01*
X151113736Y-81060361D01*
X151739639Y-81686264D01*
X152557420Y-82025000D01*
X153442580Y-82025000D01*
X154260361Y-81686264D01*
X154886264Y-81060361D01*
X155225000Y-80242580D01*
X155225000Y-79357420D01*
X154982032Y-78770842D01*
X160139014Y-78770842D01*
X160203800Y-79006704D01*
X160542563Y-79566371D01*
X161069714Y-79953797D01*
X161705000Y-80110000D01*
X162455000Y-80110000D01*
X162455000Y-78510000D01*
X160213044Y-78510000D01*
X160139014Y-78770842D01*
X154982032Y-78770842D01*
X154886264Y-78539639D01*
X154445783Y-78099158D01*
X160139014Y-78099158D01*
X160213044Y-78360000D01*
X162455000Y-78360000D01*
X162455000Y-76760000D01*
X161705000Y-76760000D01*
X161069714Y-76916203D01*
X160542563Y-77303629D01*
X160203800Y-77863296D01*
X160139014Y-78099158D01*
X154445783Y-78099158D01*
X154260361Y-77913736D01*
X153442580Y-77575000D01*
X152557420Y-77575000D01*
X151739639Y-77913736D01*
X151113736Y-78539639D01*
X150775000Y-79357420D01*
X148237274Y-79357420D01*
X148221317Y-79346758D01*
X148075000Y-79317654D01*
X146712307Y-79317654D01*
X146822615Y-79207346D01*
X147156250Y-79207346D01*
X147386279Y-79161590D01*
X147581289Y-79031289D01*
X147711590Y-78836279D01*
X147757346Y-78606250D01*
X147757346Y-78168750D01*
X147711590Y-77938721D01*
X147581289Y-77743711D01*
X147386279Y-77613410D01*
X147318863Y-77600000D01*
X147386279Y-77586590D01*
X147581289Y-77456289D01*
X147711590Y-77261279D01*
X147757346Y-77031250D01*
X147757346Y-76593750D01*
X147711590Y-76363721D01*
X147703292Y-76351302D01*
X147872237Y-76182357D01*
X147975000Y-75934266D01*
X147975000Y-75665734D01*
X147872237Y-75417643D01*
X147682357Y-75227763D01*
X147434266Y-75125000D01*
X147352309Y-75125000D01*
X147411590Y-75036279D01*
X147457346Y-74806250D01*
X147457346Y-74368750D01*
X147411590Y-74138721D01*
X147281289Y-73943711D01*
X147086279Y-73813410D01*
X147018863Y-73800000D01*
X147086279Y-73786590D01*
X147281289Y-73656289D01*
X147337608Y-73572000D01*
X151518063Y-73572000D01*
X151545001Y-73707424D01*
X151545001Y-75082422D01*
X151624780Y-75483498D01*
X151928682Y-75938319D01*
X152383503Y-76242221D01*
X152920000Y-76348937D01*
X153456498Y-76242221D01*
X153911319Y-75938319D01*
X154215221Y-75483498D01*
X154295000Y-75082422D01*
X154295000Y-74947000D01*
X161705001Y-74947000D01*
X161705001Y-75057422D01*
X161784780Y-75458498D01*
X162088682Y-75913319D01*
X162543503Y-76217221D01*
X163080000Y-76323937D01*
X163616498Y-76217221D01*
X164071319Y-75913319D01*
X164375221Y-75458498D01*
X164455000Y-75057422D01*
X164455000Y-73707422D01*
X164481937Y-73572000D01*
X164455000Y-73436578D01*
X164455000Y-72086578D01*
X164375221Y-71685502D01*
X164071318Y-71230681D01*
X163616497Y-70926779D01*
X163080000Y-70820063D01*
X162543502Y-70926779D01*
X162088681Y-71230682D01*
X161784779Y-71685503D01*
X161705000Y-72086579D01*
X161705000Y-72197000D01*
X154295000Y-72197000D01*
X154295000Y-72061578D01*
X154215221Y-71660502D01*
X153911318Y-71205681D01*
X153456497Y-70901779D01*
X152920000Y-70795063D01*
X152383502Y-70901779D01*
X151928681Y-71205682D01*
X151624779Y-71660503D01*
X151545000Y-72061579D01*
X151545000Y-73436576D01*
X151518063Y-73572000D01*
X147337608Y-73572000D01*
X147411590Y-73461279D01*
X147457346Y-73231250D01*
X147457346Y-72793750D01*
X147411590Y-72563721D01*
X147352335Y-72475040D01*
X147484266Y-72475040D01*
X147732357Y-72372277D01*
X147922237Y-72182397D01*
X148025000Y-71934306D01*
X148025000Y-71882346D01*
X148075000Y-71882346D01*
X148221317Y-71853242D01*
X148345359Y-71770359D01*
X148428242Y-71646317D01*
X148457346Y-71500000D01*
X148457346Y-71050000D01*
X148437455Y-70950000D01*
X148457346Y-70850000D01*
X148457346Y-70400000D01*
X148437455Y-70300000D01*
X148457346Y-70200000D01*
X148457346Y-69750000D01*
X148437455Y-69650000D01*
X148457346Y-69550000D01*
X148457346Y-69100000D01*
X148428242Y-68953683D01*
X148345359Y-68829641D01*
X148221317Y-68746758D01*
X148075000Y-68717654D01*
X146675000Y-68717654D01*
X146675000Y-68706604D01*
X149525000Y-68706604D01*
X149525000Y-69293396D01*
X149749555Y-69835520D01*
X150164480Y-70250445D01*
X150706604Y-70475000D01*
X151293396Y-70475000D01*
X151835520Y-70250445D01*
X152250445Y-69835520D01*
X152475000Y-69293396D01*
X152475000Y-68706604D01*
X152250445Y-68164480D01*
X151835520Y-67749555D01*
X151293396Y-67525000D01*
X150706604Y-67525000D01*
X150164480Y-67749555D01*
X149749555Y-68164480D01*
X149525000Y-68706604D01*
X146675000Y-68706604D01*
X146675000Y-68667461D01*
X146722615Y-68619846D01*
X147056250Y-68619846D01*
X147286279Y-68574090D01*
X147481289Y-68443789D01*
X147611590Y-68248779D01*
X147657346Y-68018750D01*
X147657346Y-67581250D01*
X147611590Y-67351221D01*
X147481289Y-67156211D01*
X147286279Y-67025910D01*
X147218863Y-67012500D01*
X147286279Y-66999090D01*
X147481289Y-66868789D01*
X147611590Y-66673779D01*
X147657346Y-66443750D01*
X147657346Y-66006250D01*
X147641503Y-65926603D01*
X147701003Y-65901957D01*
X147890883Y-65712077D01*
X147993646Y-65463986D01*
X147993646Y-65195454D01*
X147890883Y-64947363D01*
X147701003Y-64757483D01*
X147489219Y-64669759D01*
X147511590Y-64636279D01*
X147557346Y-64406250D01*
X147557346Y-64009889D01*
X148851970Y-65304513D01*
X148928681Y-65419319D01*
X149383502Y-65723221D01*
X149661424Y-65778503D01*
X149920000Y-65829937D01*
X150055422Y-65803000D01*
X151545001Y-65803000D01*
X151545001Y-65938422D01*
X151624780Y-66339498D01*
X151928682Y-66794319D01*
X152383503Y-67098221D01*
X152920000Y-67204937D01*
X153456498Y-67098221D01*
X153911319Y-66794319D01*
X154215221Y-66339498D01*
X154295000Y-65938422D01*
X154295000Y-65803000D01*
X161705001Y-65803000D01*
X161705001Y-65913422D01*
X161784780Y-66314498D01*
X162088682Y-66769319D01*
X162543503Y-67073221D01*
X163080000Y-67179937D01*
X163616498Y-67073221D01*
X164071319Y-66769319D01*
X164375221Y-66314498D01*
X164455000Y-65913422D01*
X164455000Y-64563422D01*
X164481937Y-64428000D01*
X164455000Y-64292578D01*
X164455000Y-62942578D01*
X164375221Y-62541502D01*
X164071318Y-62086681D01*
X163616497Y-61782779D01*
X163080000Y-61676063D01*
X162543502Y-61782779D01*
X162088681Y-62086682D01*
X161784779Y-62541503D01*
X161705000Y-62942579D01*
X161705000Y-63053000D01*
X154295000Y-63053000D01*
X154295000Y-62917578D01*
X154215221Y-62516502D01*
X153911318Y-62061681D01*
X153456497Y-61757779D01*
X152920000Y-61651063D01*
X152383502Y-61757779D01*
X151928681Y-62061682D01*
X151624779Y-62516503D01*
X151545000Y-62917579D01*
X151545000Y-63053000D01*
X150489543Y-63053000D01*
X148886543Y-61450000D01*
X164550001Y-61450000D01*
X164550001Y-77357427D01*
X164517437Y-77303629D01*
X163990286Y-76916203D01*
X163355000Y-76760000D01*
X162605000Y-76760000D01*
X162605000Y-78360000D01*
X162625000Y-78360000D01*
X162625000Y-78510000D01*
X162605000Y-78510000D01*
X162605000Y-80110000D01*
X163355000Y-80110000D01*
X163990286Y-79953797D01*
X164517437Y-79566371D01*
X164550001Y-79512573D01*
X164550001Y-89487427D01*
X164517437Y-89433629D01*
X163990286Y-89046203D01*
X163355000Y-88890000D01*
X162605000Y-88890000D01*
X162605000Y-90490000D01*
X162625000Y-90490000D01*
X162625000Y-90640000D01*
X162605000Y-90640000D01*
X162605000Y-92240000D01*
X163355000Y-92240000D01*
X163990286Y-92083797D01*
X164517437Y-91696371D01*
X164550000Y-91642573D01*
X164550000Y-92307293D01*
X164472038Y-92275000D01*
X164081250Y-92275000D01*
X163975000Y-92381250D01*
X163975000Y-93325000D01*
X163995000Y-93325000D01*
X163995000Y-93475000D01*
X163975000Y-93475000D01*
X163975000Y-94418750D01*
X164081250Y-94525000D01*
X164472038Y-94525000D01*
X164550000Y-94492707D01*
X164550000Y-120550000D01*
X151401041Y-120550000D01*
X151410298Y-120540743D01*
X151475000Y-120384538D01*
X151475000Y-119831250D01*
X151368750Y-119725000D01*
X150275000Y-119725000D01*
X150275000Y-119745000D01*
X150125000Y-119745000D01*
X150125000Y-119725000D01*
X150105000Y-119725000D01*
X150105000Y-119575000D01*
X150125000Y-119575000D01*
X150125000Y-118681250D01*
X150275000Y-118681250D01*
X150275000Y-119575000D01*
X151368750Y-119575000D01*
X151475000Y-119468750D01*
X151475000Y-118970355D01*
X154185711Y-118970355D01*
X154327823Y-119215684D01*
X154962719Y-119476151D01*
X155648961Y-119473827D01*
X156272177Y-119215684D01*
X156414289Y-118970355D01*
X155300000Y-117856066D01*
X154185711Y-118970355D01*
X151475000Y-118970355D01*
X151475000Y-118915462D01*
X151410298Y-118759257D01*
X151290743Y-118639702D01*
X151134538Y-118575000D01*
X150381250Y-118575000D01*
X150275000Y-118681250D01*
X150125000Y-118681250D01*
X150018750Y-118575000D01*
X149265462Y-118575000D01*
X149225000Y-118591760D01*
X149225000Y-118265462D01*
X149160298Y-118109257D01*
X149040743Y-117989702D01*
X148884538Y-117925000D01*
X148281250Y-117925000D01*
X148175000Y-118031250D01*
X148175000Y-118762500D01*
X148195000Y-118762500D01*
X148195000Y-118912500D01*
X148175000Y-118912500D01*
X148175000Y-119643750D01*
X148281250Y-119750000D01*
X148884538Y-119750000D01*
X148944889Y-119725002D01*
X149031248Y-119725002D01*
X148925000Y-119831250D01*
X148925000Y-120384538D01*
X148989702Y-120540743D01*
X148998959Y-120550000D01*
X146733963Y-120550000D01*
X146803242Y-120446317D01*
X146832346Y-120300000D01*
X146832346Y-119018750D01*
X146975000Y-119018750D01*
X146975000Y-119409538D01*
X147039702Y-119565743D01*
X147159257Y-119685298D01*
X147315462Y-119750000D01*
X147918750Y-119750000D01*
X148025000Y-119643750D01*
X148025000Y-118912500D01*
X147081250Y-118912500D01*
X146975000Y-119018750D01*
X146832346Y-119018750D01*
X146832346Y-119000000D01*
X146803242Y-118853683D01*
X146720359Y-118729641D01*
X146596317Y-118646758D01*
X146450000Y-118617654D01*
X145385718Y-118617654D01*
X145218219Y-118584337D01*
X144899344Y-118265462D01*
X146975000Y-118265462D01*
X146975000Y-118656250D01*
X147081250Y-118762500D01*
X148025000Y-118762500D01*
X148025000Y-118031250D01*
X147918750Y-117925000D01*
X147315462Y-117925000D01*
X147159257Y-117989702D01*
X147039702Y-118109257D01*
X146975000Y-118265462D01*
X144899344Y-118265462D01*
X139345473Y-112711591D01*
X139310600Y-112659400D01*
X139103863Y-112521263D01*
X138921555Y-112485000D01*
X138860000Y-112472756D01*
X138798445Y-112485000D01*
X138729406Y-112485000D01*
X138665669Y-112331125D01*
X138278875Y-111944331D01*
X138026998Y-111840000D01*
X138278875Y-111735669D01*
X138665669Y-111348875D01*
X138729406Y-111195000D01*
X139611118Y-111195000D01*
X144367654Y-115951537D01*
X144367654Y-116800000D01*
X144396758Y-116946317D01*
X144479641Y-117070359D01*
X144603683Y-117153242D01*
X144709863Y-117174362D01*
X144836138Y-117258737D01*
X145080000Y-117307244D01*
X145323862Y-117258737D01*
X145438188Y-117182346D01*
X146450000Y-117182346D01*
X146596317Y-117153242D01*
X146720359Y-117070359D01*
X146803242Y-116946317D01*
X146832346Y-116800000D01*
X146832346Y-115776187D01*
X147073321Y-115937201D01*
X147766083Y-116075000D01*
X147854835Y-116092654D01*
X147643750Y-116092654D01*
X147404153Y-116140313D01*
X147201033Y-116276033D01*
X147065313Y-116479153D01*
X147017654Y-116718750D01*
X147017654Y-117206250D01*
X147065313Y-117445847D01*
X147201033Y-117648967D01*
X147404153Y-117784687D01*
X147643750Y-117832346D01*
X148556250Y-117832346D01*
X148795847Y-117784687D01*
X148998967Y-117648967D01*
X149040038Y-117587500D01*
X149325945Y-117587500D01*
X149387500Y-117599744D01*
X149449055Y-117587500D01*
X149631363Y-117551237D01*
X149838100Y-117413100D01*
X149838354Y-117412719D01*
X153573849Y-117412719D01*
X153576173Y-118098961D01*
X153834316Y-118722177D01*
X154079645Y-118864289D01*
X155193934Y-117750000D01*
X155406066Y-117750000D01*
X156520355Y-118864289D01*
X156765684Y-118722177D01*
X157026151Y-118087281D01*
X157023827Y-117401039D01*
X156765684Y-116777823D01*
X156520355Y-116635711D01*
X155406066Y-117750000D01*
X155193934Y-117750000D01*
X154079645Y-116635711D01*
X153834316Y-116777823D01*
X153573849Y-117412719D01*
X149838354Y-117412719D01*
X149872972Y-117360910D01*
X150051537Y-117182346D01*
X151050000Y-117182346D01*
X151196317Y-117153242D01*
X151320359Y-117070359D01*
X151403242Y-116946317D01*
X151432346Y-116800000D01*
X151432346Y-116075000D01*
X154833160Y-116075000D01*
X154327823Y-116284316D01*
X154185711Y-116529645D01*
X155300000Y-117643934D01*
X156414289Y-116529645D01*
X156272177Y-116284316D01*
X155761963Y-116075000D01*
X160083917Y-116075000D01*
X160776679Y-115937201D01*
X160783945Y-115932346D01*
X161600000Y-115932346D01*
X161746317Y-115903242D01*
X161870359Y-115820359D01*
X161953242Y-115696317D01*
X161982346Y-115550000D01*
X161982346Y-114783606D01*
X162087201Y-114626679D01*
X162271529Y-113700000D01*
X162087201Y-112773321D01*
X161562280Y-111987720D01*
X160776679Y-111462799D01*
X160083917Y-111325000D01*
X148983757Y-111325000D01*
X148061112Y-110402355D01*
X154185711Y-110402355D01*
X154327823Y-110647684D01*
X154962719Y-110908151D01*
X155648961Y-110905827D01*
X156272177Y-110647684D01*
X156414289Y-110402355D01*
X155300000Y-109288066D01*
X154185711Y-110402355D01*
X148061112Y-110402355D01*
X146503476Y-108844719D01*
X153573849Y-108844719D01*
X153576173Y-109530961D01*
X153834316Y-110154177D01*
X154079645Y-110296289D01*
X155193934Y-109182000D01*
X155406066Y-109182000D01*
X156520355Y-110296289D01*
X156765684Y-110154177D01*
X157026151Y-109519281D01*
X157023827Y-108833039D01*
X156765684Y-108209823D01*
X156520355Y-108067711D01*
X155406066Y-109182000D01*
X155193934Y-109182000D01*
X154079645Y-108067711D01*
X153834316Y-108209823D01*
X153573849Y-108844719D01*
X146503476Y-108844719D01*
X146211338Y-108552581D01*
X146265462Y-108575000D01*
X147818750Y-108575000D01*
X147925000Y-108468750D01*
X147925000Y-106975000D01*
X148075000Y-106975000D01*
X148075000Y-108468750D01*
X148181250Y-108575000D01*
X149734538Y-108575000D01*
X149890743Y-108510298D01*
X150010298Y-108390743D01*
X150075000Y-108234538D01*
X150075000Y-107961645D01*
X154185711Y-107961645D01*
X155300000Y-109075934D01*
X156414289Y-107961645D01*
X156272177Y-107716316D01*
X155637281Y-107455849D01*
X154951039Y-107458173D01*
X154327823Y-107716316D01*
X154185711Y-107961645D01*
X150075000Y-107961645D01*
X150075000Y-107081250D01*
X149968750Y-106975000D01*
X148075000Y-106975000D01*
X147925000Y-106975000D01*
X146031250Y-106975000D01*
X145925000Y-107081250D01*
X145925000Y-108234538D01*
X145947419Y-108288662D01*
X141640007Y-103981250D01*
X145925000Y-103981250D01*
X145925000Y-105134538D01*
X145989702Y-105290743D01*
X146048959Y-105350000D01*
X145989702Y-105409257D01*
X145925000Y-105565462D01*
X145925000Y-106718750D01*
X146031250Y-106825000D01*
X147925000Y-106825000D01*
X147925000Y-103875000D01*
X148075000Y-103875000D01*
X148075000Y-106825000D01*
X149968750Y-106825000D01*
X150075000Y-106718750D01*
X150075000Y-105565462D01*
X150010298Y-105409257D01*
X149951041Y-105350000D01*
X150010298Y-105290743D01*
X150075000Y-105134538D01*
X150075000Y-104382000D01*
X158617654Y-104382000D01*
X158617654Y-106982000D01*
X158646758Y-107128317D01*
X158729641Y-107252359D01*
X158853683Y-107335242D01*
X159000000Y-107364346D01*
X161600000Y-107364346D01*
X161746317Y-107335242D01*
X161870359Y-107252359D01*
X161953242Y-107128317D01*
X161982346Y-106982000D01*
X161982346Y-104382000D01*
X161953242Y-104235683D01*
X161870359Y-104111641D01*
X161746317Y-104028758D01*
X161600000Y-103999654D01*
X159000000Y-103999654D01*
X158853683Y-104028758D01*
X158729641Y-104111641D01*
X158646758Y-104235683D01*
X158617654Y-104382000D01*
X150075000Y-104382000D01*
X150075000Y-103981250D01*
X149968750Y-103875000D01*
X148075000Y-103875000D01*
X147925000Y-103875000D01*
X146031250Y-103875000D01*
X145925000Y-103981250D01*
X141640007Y-103981250D01*
X140124219Y-102465462D01*
X145925000Y-102465462D01*
X145925000Y-103618750D01*
X146031250Y-103725000D01*
X147925000Y-103725000D01*
X147925000Y-102231250D01*
X148075000Y-102231250D01*
X148075000Y-103725000D01*
X149968750Y-103725000D01*
X150075000Y-103618750D01*
X150075000Y-102465462D01*
X150010298Y-102309257D01*
X149890743Y-102189702D01*
X149734538Y-102125000D01*
X148181250Y-102125000D01*
X148075000Y-102231250D01*
X147925000Y-102231250D01*
X147818750Y-102125000D01*
X146265462Y-102125000D01*
X146109257Y-102189702D01*
X145989702Y-102309257D01*
X145925000Y-102465462D01*
X140124219Y-102465462D01*
X139875000Y-102216244D01*
X139875000Y-101870355D01*
X154185711Y-101870355D01*
X154327823Y-102115684D01*
X154962719Y-102376151D01*
X155648961Y-102373827D01*
X156272177Y-102115684D01*
X156414289Y-101870355D01*
X155300000Y-100756066D01*
X154185711Y-101870355D01*
X139875000Y-101870355D01*
X139875000Y-100312719D01*
X153573849Y-100312719D01*
X153576173Y-100998961D01*
X153834316Y-101622177D01*
X154079645Y-101764289D01*
X155193934Y-100650000D01*
X155406066Y-100650000D01*
X156520355Y-101764289D01*
X156765684Y-101622177D01*
X157026151Y-100987281D01*
X157023827Y-100301039D01*
X156765684Y-99677823D01*
X156520355Y-99535711D01*
X155406066Y-100650000D01*
X155193934Y-100650000D01*
X154079645Y-99535711D01*
X153834316Y-99677823D01*
X153573849Y-100312719D01*
X139875000Y-100312719D01*
X139875000Y-100176083D01*
X139737201Y-99483321D01*
X139701336Y-99429645D01*
X154185711Y-99429645D01*
X155300000Y-100543934D01*
X156414289Y-99429645D01*
X156272177Y-99184316D01*
X155637281Y-98923849D01*
X154951039Y-98926173D01*
X154327823Y-99184316D01*
X154185711Y-99429645D01*
X139701336Y-99429645D01*
X139212280Y-98697720D01*
X138426678Y-98172799D01*
X137500000Y-97988471D01*
X136573321Y-98172799D01*
X135787720Y-98697720D01*
X135450000Y-99203155D01*
X135450000Y-95016713D01*
X135925000Y-95016713D01*
X135925000Y-95643287D01*
X136164780Y-96222166D01*
X136607834Y-96665220D01*
X137186713Y-96905000D01*
X137813287Y-96905000D01*
X138392166Y-96665220D01*
X138835220Y-96222166D01*
X139075000Y-95643287D01*
X139075000Y-95016713D01*
X138835220Y-94437834D01*
X138679268Y-94281882D01*
X142070194Y-94281882D01*
X142080338Y-94769111D01*
X142247278Y-95172142D01*
X142440664Y-95253270D01*
X143193934Y-94500000D01*
X142440664Y-93746730D01*
X142247278Y-93827858D01*
X142070194Y-94281882D01*
X138679268Y-94281882D01*
X138392166Y-93994780D01*
X137813287Y-93755000D01*
X137186713Y-93755000D01*
X136607834Y-93994780D01*
X136164780Y-94437834D01*
X135925000Y-95016713D01*
X135450000Y-95016713D01*
X135450000Y-93640664D01*
X142546730Y-93640664D01*
X143300000Y-94393934D01*
X143314143Y-94379792D01*
X143420209Y-94485858D01*
X143406066Y-94500000D01*
X143420209Y-94514143D01*
X143314143Y-94620209D01*
X143300000Y-94606066D01*
X142546730Y-95359336D01*
X142627858Y-95552722D01*
X143081882Y-95729806D01*
X143569111Y-95719662D01*
X143972142Y-95552722D01*
X144017813Y-95443854D01*
X144134257Y-95560298D01*
X144290462Y-95625000D01*
X144681250Y-95625000D01*
X144787500Y-95518750D01*
X144787500Y-94575000D01*
X144937500Y-94575000D01*
X144937500Y-95518750D01*
X145043750Y-95625000D01*
X145434538Y-95625000D01*
X145590743Y-95560298D01*
X145710298Y-95440743D01*
X145775000Y-95284538D01*
X145775000Y-94681250D01*
X145668750Y-94575000D01*
X144937500Y-94575000D01*
X144787500Y-94575000D01*
X144767500Y-94575000D01*
X144767500Y-94500000D01*
X145845358Y-94500000D01*
X145867654Y-94612090D01*
X145867654Y-94956250D01*
X145915313Y-95195847D01*
X146051033Y-95398967D01*
X146125705Y-95448861D01*
X146079641Y-95479641D01*
X145996758Y-95603683D01*
X145967654Y-95750000D01*
X145967654Y-98250000D01*
X145996758Y-98396317D01*
X146079641Y-98520359D01*
X146203683Y-98603242D01*
X146350000Y-98632346D01*
X149650000Y-98632346D01*
X149796317Y-98603242D01*
X149920359Y-98520359D01*
X150003242Y-98396317D01*
X150007482Y-98375000D01*
X158617654Y-98375000D01*
X158617654Y-98450000D01*
X158646758Y-98596317D01*
X158729641Y-98720359D01*
X158853683Y-98803242D01*
X159000000Y-98832346D01*
X161600000Y-98832346D01*
X161746317Y-98803242D01*
X161870359Y-98720359D01*
X161953242Y-98596317D01*
X161982346Y-98450000D01*
X161982346Y-95850000D01*
X161953242Y-95703683D01*
X161870359Y-95579641D01*
X161746317Y-95496758D01*
X161600000Y-95467654D01*
X159537500Y-95467654D01*
X159537500Y-94160661D01*
X159656289Y-94081289D01*
X159786590Y-93886279D01*
X159800000Y-93818863D01*
X159813410Y-93886279D01*
X159943711Y-94081289D01*
X160138721Y-94211590D01*
X160368750Y-94257346D01*
X160806250Y-94257346D01*
X161036279Y-94211590D01*
X161204877Y-94098937D01*
X161338533Y-94298967D01*
X161541653Y-94434687D01*
X161781250Y-94482346D01*
X162268750Y-94482346D01*
X162508347Y-94434687D01*
X162711467Y-94298967D01*
X162847187Y-94095847D01*
X162894846Y-93856250D01*
X162894846Y-93581250D01*
X162987500Y-93581250D01*
X162987500Y-94184538D01*
X163052202Y-94340743D01*
X163171757Y-94460298D01*
X163327962Y-94525000D01*
X163718750Y-94525000D01*
X163825000Y-94418750D01*
X163825000Y-93475000D01*
X163093750Y-93475000D01*
X162987500Y-93581250D01*
X162894846Y-93581250D01*
X162894846Y-92943750D01*
X162847187Y-92704153D01*
X162787926Y-92615462D01*
X162987500Y-92615462D01*
X162987500Y-93218750D01*
X163093750Y-93325000D01*
X163825000Y-93325000D01*
X163825000Y-92381250D01*
X163718750Y-92275000D01*
X163327962Y-92275000D01*
X163171757Y-92339702D01*
X163052202Y-92459257D01*
X162987500Y-92615462D01*
X162787926Y-92615462D01*
X162711467Y-92501033D01*
X162508347Y-92365313D01*
X162268750Y-92317654D01*
X161781250Y-92317654D01*
X161541653Y-92365313D01*
X161338533Y-92501033D01*
X161204877Y-92701063D01*
X161036279Y-92588410D01*
X160806250Y-92542654D01*
X160368750Y-92542654D01*
X160138721Y-92588410D01*
X159943711Y-92718711D01*
X159813410Y-92913721D01*
X159800000Y-92981137D01*
X159786590Y-92913721D01*
X159656289Y-92718711D01*
X159461279Y-92588410D01*
X159231250Y-92542654D01*
X158793750Y-92542654D01*
X158563721Y-92588410D01*
X158368711Y-92718711D01*
X158238410Y-92913721D01*
X158192654Y-93143750D01*
X158192654Y-93656250D01*
X158238410Y-93886279D01*
X158368711Y-94081289D01*
X158487500Y-94160661D01*
X158487501Y-95625000D01*
X152433756Y-95625000D01*
X154513972Y-93544785D01*
X154712280Y-93412280D01*
X155237201Y-92626679D01*
X155375000Y-91933917D01*
X155421529Y-91700001D01*
X155375000Y-91466085D01*
X155375000Y-90900842D01*
X160139014Y-90900842D01*
X160203800Y-91136704D01*
X160542563Y-91696371D01*
X161069714Y-92083797D01*
X161705000Y-92240000D01*
X162455000Y-92240000D01*
X162455000Y-90640000D01*
X160213044Y-90640000D01*
X160139014Y-90900842D01*
X155375000Y-90900842D01*
X155375000Y-90229158D01*
X160139014Y-90229158D01*
X160213044Y-90490000D01*
X162455000Y-90490000D01*
X162455000Y-88890000D01*
X161705000Y-88890000D01*
X161069714Y-89046203D01*
X160542563Y-89433629D01*
X160203800Y-89993296D01*
X160139014Y-90229158D01*
X155375000Y-90229158D01*
X155375000Y-88966083D01*
X155237201Y-88273321D01*
X154712280Y-87487720D01*
X153926678Y-86962799D01*
X153000000Y-86778471D01*
X152073321Y-86962799D01*
X151287720Y-87487720D01*
X150762799Y-88273322D01*
X150625000Y-88966084D01*
X150625000Y-90716243D01*
X148386031Y-92955213D01*
X148187720Y-93087720D01*
X148014976Y-93346250D01*
X147634416Y-93503883D01*
X147513299Y-93625000D01*
X147439981Y-93625000D01*
X147423967Y-93601033D01*
X147220847Y-93465313D01*
X146981250Y-93417654D01*
X146493750Y-93417654D01*
X146254153Y-93465313D01*
X146051033Y-93601033D01*
X145915313Y-93804153D01*
X145867654Y-94043750D01*
X145867654Y-94387910D01*
X145845358Y-94500000D01*
X144767500Y-94500000D01*
X144767500Y-94425000D01*
X144787500Y-94425000D01*
X144787500Y-93481250D01*
X144937500Y-93481250D01*
X144937500Y-94425000D01*
X145668750Y-94425000D01*
X145775000Y-94318750D01*
X145775000Y-93715462D01*
X145710298Y-93559257D01*
X145590743Y-93439702D01*
X145434538Y-93375000D01*
X145043750Y-93375000D01*
X144937500Y-93481250D01*
X144787500Y-93481250D01*
X144681250Y-93375000D01*
X144290462Y-93375000D01*
X144134257Y-93439702D01*
X144017813Y-93556146D01*
X143972142Y-93447278D01*
X143518118Y-93270194D01*
X143030889Y-93280338D01*
X142627858Y-93447278D01*
X142546730Y-93640664D01*
X135450000Y-93640664D01*
X135450000Y-61450000D01*
X144097557Y-61450000D01*
X143904779Y-61738512D01*
G36*
X135787721Y-104912280D02*
X135986029Y-105044785D01*
X145986627Y-115045384D01*
X145996758Y-115096317D01*
X146011015Y-115117654D01*
X145301537Y-115117654D01*
X140355473Y-110171590D01*
X140320600Y-110119400D01*
X140113863Y-109981263D01*
X139931555Y-109945000D01*
X139870000Y-109932756D01*
X139808445Y-109945000D01*
X138729406Y-109945000D01*
X138665669Y-109791125D01*
X138278875Y-109404331D01*
X137773505Y-109195000D01*
X137226495Y-109195000D01*
X136721125Y-109404331D01*
X136334331Y-109791125D01*
X136125000Y-110296495D01*
X136125000Y-110843505D01*
X136334331Y-111348875D01*
X136721125Y-111735669D01*
X136973002Y-111840000D01*
X136721125Y-111944331D01*
X136334331Y-112331125D01*
X136125000Y-112836495D01*
X136125000Y-113383505D01*
X136334331Y-113888875D01*
X136721125Y-114275669D01*
X137226495Y-114485000D01*
X137773505Y-114485000D01*
X138278875Y-114275669D01*
X138665669Y-113888875D01*
X138691831Y-113825713D01*
X144367654Y-119501537D01*
X144367654Y-120300000D01*
X144396758Y-120446317D01*
X144466037Y-120550000D01*
X135450000Y-120550000D01*
X135450000Y-116706604D01*
X137525000Y-116706604D01*
X137525000Y-117293396D01*
X137749555Y-117835520D01*
X138164480Y-118250445D01*
X138706604Y-118475000D01*
X139293396Y-118475000D01*
X139835520Y-118250445D01*
X140250445Y-117835520D01*
X140475000Y-117293396D01*
X140475000Y-116706604D01*
X140250445Y-116164480D01*
X139835520Y-115749555D01*
X139293396Y-115525000D01*
X138706604Y-115525000D01*
X138164480Y-115749555D01*
X137749555Y-116164480D01*
X137525000Y-116706604D01*
X135450000Y-116706604D01*
X135450000Y-104406845D01*
X135787721Y-104912280D01*
X135787721Y-104912280D01*
G37*
X135787721Y-104912280D02*
X135986029Y-105044785D01*
X145986627Y-115045384D01*
X145996758Y-115096317D01*
X146011015Y-115117654D01*
X145301537Y-115117654D01*
X140355473Y-110171590D01*
X140320600Y-110119400D01*
X140113863Y-109981263D01*
X139931555Y-109945000D01*
X139870000Y-109932756D01*
X139808445Y-109945000D01*
X138729406Y-109945000D01*
X138665669Y-109791125D01*
X138278875Y-109404331D01*
X137773505Y-109195000D01*
X137226495Y-109195000D01*
X136721125Y-109404331D01*
X136334331Y-109791125D01*
X136125000Y-110296495D01*
X136125000Y-110843505D01*
X136334331Y-111348875D01*
X136721125Y-111735669D01*
X136973002Y-111840000D01*
X136721125Y-111944331D01*
X136334331Y-112331125D01*
X136125000Y-112836495D01*
X136125000Y-113383505D01*
X136334331Y-113888875D01*
X136721125Y-114275669D01*
X137226495Y-114485000D01*
X137773505Y-114485000D01*
X138278875Y-114275669D01*
X138665669Y-113888875D01*
X138691831Y-113825713D01*
X144367654Y-119501537D01*
X144367654Y-120300000D01*
X144396758Y-120446317D01*
X144466037Y-120550000D01*
X135450000Y-120550000D01*
X135450000Y-116706604D01*
X137525000Y-116706604D01*
X137525000Y-117293396D01*
X137749555Y-117835520D01*
X138164480Y-118250445D01*
X138706604Y-118475000D01*
X139293396Y-118475000D01*
X139835520Y-118250445D01*
X140250445Y-117835520D01*
X140475000Y-117293396D01*
X140475000Y-116706604D01*
X140250445Y-116164480D01*
X139835520Y-115749555D01*
X139293396Y-115525000D01*
X138706604Y-115525000D01*
X138164480Y-115749555D01*
X137749555Y-116164480D01*
X137525000Y-116706604D01*
X135450000Y-116706604D01*
X135450000Y-104406845D01*
X135787721Y-104912280D01*
G04 #@! TD*
M02*
