G04 #@! TF.GenerationSoftware,KiCad,Pcbnew,(5.0.2)-1*
G04 #@! TF.CreationDate,2019-05-12T18:04:46+02:00*
G04 #@! TF.ProjectId,SafetySupply,53616665-7479-4537-9570-706c792e6b69,rev?*
G04 #@! TF.SameCoordinates,Original*
G04 #@! TF.FileFunction,Soldermask,Bot*
G04 #@! TF.FilePolarity,Negative*
%FSLAX46Y46*%
G04 Gerber Fmt 4.6, Leading zero omitted, Abs format (unit mm)*
G04 Created by KiCad (PCBNEW (5.0.2)-1) date 12.05.2019 18:04:46*
%MOMM*%
%LPD*%
G01*
G04 APERTURE LIST*
%ADD10C,0.100000*%
G04 APERTURE END LIST*
D10*
G36*
X155708365Y-116403801D02*
X155708367Y-116403802D01*
X155708368Y-116403802D01*
X155963149Y-116509336D01*
X156192448Y-116662549D01*
X156387451Y-116857552D01*
X156540664Y-117086851D01*
X156646199Y-117341635D01*
X156700000Y-117612112D01*
X156700000Y-117887888D01*
X156646199Y-118158365D01*
X156540664Y-118413149D01*
X156387451Y-118642448D01*
X156192448Y-118837451D01*
X155963149Y-118990664D01*
X155708368Y-119096198D01*
X155708367Y-119096198D01*
X155708365Y-119096199D01*
X155437888Y-119150000D01*
X155162112Y-119150000D01*
X154891635Y-119096199D01*
X154891633Y-119096198D01*
X154891632Y-119096198D01*
X154636851Y-118990664D01*
X154407552Y-118837451D01*
X154212549Y-118642448D01*
X154059336Y-118413149D01*
X153953801Y-118158365D01*
X153900000Y-117887888D01*
X153900000Y-117612112D01*
X153953801Y-117341635D01*
X154059336Y-117086851D01*
X154212549Y-116857552D01*
X154407552Y-116662549D01*
X154636851Y-116509336D01*
X154891632Y-116403802D01*
X154891633Y-116403802D01*
X154891635Y-116403801D01*
X155162112Y-116350000D01*
X155437888Y-116350000D01*
X155708365Y-116403801D01*
X155708365Y-116403801D01*
G37*
G36*
X139210925Y-115818446D02*
X139350030Y-115846116D01*
X139568413Y-115936574D01*
X139764954Y-116067898D01*
X139932102Y-116235046D01*
X140063426Y-116431587D01*
X140153884Y-116649970D01*
X140156386Y-116662549D01*
X140195175Y-116857552D01*
X140200000Y-116881812D01*
X140200000Y-117118188D01*
X140153884Y-117350030D01*
X140063426Y-117568413D01*
X139932102Y-117764954D01*
X139764954Y-117932102D01*
X139568413Y-118063426D01*
X139350030Y-118153884D01*
X139210925Y-118181554D01*
X139118190Y-118200000D01*
X138881810Y-118200000D01*
X138789075Y-118181554D01*
X138649970Y-118153884D01*
X138431587Y-118063426D01*
X138235046Y-117932102D01*
X138067898Y-117764954D01*
X137936574Y-117568413D01*
X137846116Y-117350030D01*
X137800000Y-117118188D01*
X137800000Y-116881812D01*
X137804826Y-116857552D01*
X137843614Y-116662549D01*
X137846116Y-116649970D01*
X137936574Y-116431587D01*
X138067898Y-116235046D01*
X138235046Y-116067898D01*
X138431587Y-115936574D01*
X138649970Y-115846116D01*
X138789075Y-115818446D01*
X138881810Y-115800000D01*
X139118190Y-115800000D01*
X139210925Y-115818446D01*
X139210925Y-115818446D01*
G37*
G36*
X161700000Y-115650000D02*
X158900000Y-115650000D01*
X158900000Y-112850000D01*
X161700000Y-112850000D01*
X161700000Y-115650000D01*
X161700000Y-115650000D01*
G37*
G36*
X137820856Y-112052272D02*
X138021045Y-112135193D01*
X138201207Y-112255573D01*
X138354427Y-112408793D01*
X138474807Y-112588955D01*
X138557728Y-112789144D01*
X138600000Y-113001657D01*
X138600000Y-113218343D01*
X138557728Y-113430856D01*
X138474807Y-113631045D01*
X138354427Y-113811207D01*
X138201207Y-113964427D01*
X138021045Y-114084807D01*
X137820856Y-114167728D01*
X137608343Y-114210000D01*
X137391657Y-114210000D01*
X137179144Y-114167728D01*
X136978955Y-114084807D01*
X136798793Y-113964427D01*
X136645573Y-113811207D01*
X136525193Y-113631045D01*
X136442272Y-113430856D01*
X136400000Y-113218343D01*
X136400000Y-113001657D01*
X136442272Y-112789144D01*
X136525193Y-112588955D01*
X136645573Y-112408793D01*
X136798793Y-112255573D01*
X136978955Y-112135193D01*
X137179144Y-112052272D01*
X137391657Y-112010000D01*
X137608343Y-112010000D01*
X137820856Y-112052272D01*
X137820856Y-112052272D01*
G37*
G36*
X137820856Y-109512272D02*
X138021045Y-109595193D01*
X138201207Y-109715573D01*
X138354427Y-109868793D01*
X138474807Y-110048955D01*
X138557728Y-110249144D01*
X138600000Y-110461657D01*
X138600000Y-110678343D01*
X138557728Y-110890856D01*
X138474807Y-111091045D01*
X138354427Y-111271207D01*
X138201207Y-111424427D01*
X138021045Y-111544807D01*
X137820856Y-111627728D01*
X137608343Y-111670000D01*
X137391657Y-111670000D01*
X137179144Y-111627728D01*
X136978955Y-111544807D01*
X136798793Y-111424427D01*
X136645573Y-111271207D01*
X136525193Y-111091045D01*
X136442272Y-110890856D01*
X136400000Y-110678343D01*
X136400000Y-110461657D01*
X136442272Y-110249144D01*
X136525193Y-110048955D01*
X136645573Y-109868793D01*
X136798793Y-109715573D01*
X136978955Y-109595193D01*
X137179144Y-109512272D01*
X137391657Y-109470000D01*
X137608343Y-109470000D01*
X137820856Y-109512272D01*
X137820856Y-109512272D01*
G37*
G36*
X155708365Y-107835801D02*
X155708367Y-107835802D01*
X155708368Y-107835802D01*
X155963149Y-107941336D01*
X156192448Y-108094549D01*
X156387451Y-108289552D01*
X156540664Y-108518851D01*
X156646199Y-108773635D01*
X156700000Y-109044112D01*
X156700000Y-109319888D01*
X156646199Y-109590365D01*
X156540664Y-109845149D01*
X156387451Y-110074448D01*
X156192448Y-110269451D01*
X155963149Y-110422664D01*
X155708368Y-110528198D01*
X155708367Y-110528198D01*
X155708365Y-110528199D01*
X155437888Y-110582000D01*
X155162112Y-110582000D01*
X154891635Y-110528199D01*
X154891633Y-110528198D01*
X154891632Y-110528198D01*
X154636851Y-110422664D01*
X154407552Y-110269451D01*
X154212549Y-110074448D01*
X154059336Y-109845149D01*
X153953801Y-109590365D01*
X153900000Y-109319888D01*
X153900000Y-109044112D01*
X153953801Y-108773635D01*
X154059336Y-108518851D01*
X154212549Y-108289552D01*
X154407552Y-108094549D01*
X154636851Y-107941336D01*
X154891632Y-107835802D01*
X154891633Y-107835802D01*
X154891635Y-107835801D01*
X155162112Y-107782000D01*
X155437888Y-107782000D01*
X155708365Y-107835801D01*
X155708365Y-107835801D01*
G37*
G36*
X161700000Y-107082000D02*
X158900000Y-107082000D01*
X158900000Y-104282000D01*
X161700000Y-104282000D01*
X161700000Y-107082000D01*
X161700000Y-107082000D01*
G37*
G36*
X155708365Y-99303801D02*
X155708367Y-99303802D01*
X155708368Y-99303802D01*
X155941148Y-99400223D01*
X155963149Y-99409336D01*
X156192448Y-99562549D01*
X156387451Y-99757552D01*
X156540664Y-99986851D01*
X156646199Y-100241635D01*
X156700000Y-100512112D01*
X156700000Y-100787888D01*
X156646199Y-101058365D01*
X156540664Y-101313149D01*
X156387451Y-101542448D01*
X156192448Y-101737451D01*
X155963149Y-101890664D01*
X155708368Y-101996198D01*
X155708367Y-101996198D01*
X155708365Y-101996199D01*
X155437888Y-102050000D01*
X155162112Y-102050000D01*
X154891635Y-101996199D01*
X154891633Y-101996198D01*
X154891632Y-101996198D01*
X154636851Y-101890664D01*
X154407552Y-101737451D01*
X154212549Y-101542448D01*
X154059336Y-101313149D01*
X153953801Y-101058365D01*
X153900000Y-100787888D01*
X153900000Y-100512112D01*
X153953801Y-100241635D01*
X154059336Y-99986851D01*
X154212549Y-99757552D01*
X154407552Y-99562549D01*
X154636851Y-99409336D01*
X154658852Y-99400223D01*
X154891632Y-99303802D01*
X154891633Y-99303802D01*
X154891635Y-99303801D01*
X155162112Y-99250000D01*
X155437888Y-99250000D01*
X155708365Y-99303801D01*
X155708365Y-99303801D01*
G37*
G36*
X137879196Y-99159958D02*
X137879198Y-99159959D01*
X137879199Y-99159959D01*
X138096576Y-99250000D01*
X138115781Y-99257955D01*
X138328702Y-99400224D01*
X138509776Y-99581298D01*
X138652045Y-99794219D01*
X138750042Y-100030804D01*
X138800000Y-100281961D01*
X138800000Y-100538039D01*
X138750042Y-100789196D01*
X138652045Y-101025781D01*
X138509776Y-101238702D01*
X138328702Y-101419776D01*
X138145113Y-101542446D01*
X138115781Y-101562045D01*
X137879199Y-101660041D01*
X137879198Y-101660041D01*
X137879196Y-101660042D01*
X137628039Y-101710000D01*
X137371961Y-101710000D01*
X137120804Y-101660042D01*
X137120802Y-101660041D01*
X137120801Y-101660041D01*
X136884219Y-101562045D01*
X136854887Y-101542446D01*
X136671298Y-101419776D01*
X136490224Y-101238702D01*
X136347955Y-101025781D01*
X136249958Y-100789196D01*
X136200000Y-100538039D01*
X136200000Y-100281961D01*
X136249958Y-100030804D01*
X136347955Y-99794219D01*
X136490224Y-99581298D01*
X136671298Y-99400224D01*
X136884219Y-99257955D01*
X136903424Y-99250000D01*
X137120801Y-99159959D01*
X137120802Y-99159959D01*
X137120804Y-99159958D01*
X137371961Y-99110000D01*
X137628039Y-99110000D01*
X137879196Y-99159958D01*
X137879196Y-99159958D01*
G37*
G36*
X161700000Y-98550000D02*
X158900000Y-98550000D01*
X158900000Y-95750000D01*
X161700000Y-95750000D01*
X161700000Y-98550000D01*
X161700000Y-98550000D01*
G37*
G36*
X137879196Y-94079958D02*
X137879198Y-94079959D01*
X137879199Y-94079959D01*
X138115781Y-94177955D01*
X138328702Y-94320224D01*
X138509776Y-94501298D01*
X138652045Y-94714219D01*
X138750042Y-94950804D01*
X138799426Y-95199076D01*
X138800000Y-95201963D01*
X138800000Y-95458037D01*
X138750041Y-95709199D01*
X138652045Y-95945781D01*
X138509776Y-96158702D01*
X138328702Y-96339776D01*
X138115781Y-96482045D01*
X137879199Y-96580041D01*
X137879198Y-96580041D01*
X137879196Y-96580042D01*
X137628039Y-96630000D01*
X137371961Y-96630000D01*
X137120804Y-96580042D01*
X137120802Y-96580041D01*
X137120801Y-96580041D01*
X136884219Y-96482045D01*
X136671298Y-96339776D01*
X136490224Y-96158702D01*
X136347955Y-95945781D01*
X136249959Y-95709199D01*
X136200000Y-95458037D01*
X136200000Y-95201963D01*
X136200574Y-95199076D01*
X136249958Y-94950804D01*
X136347955Y-94714219D01*
X136490224Y-94501298D01*
X136671298Y-94320224D01*
X136884219Y-94177955D01*
X137120801Y-94079959D01*
X137120802Y-94079959D01*
X137120804Y-94079958D01*
X137371961Y-94030000D01*
X137628039Y-94030000D01*
X137879196Y-94079958D01*
X137879196Y-94079958D01*
G37*
G36*
X148562520Y-93634586D02*
X148562522Y-93634587D01*
X148562523Y-93634587D01*
X148726310Y-93702430D01*
X148873717Y-93800924D01*
X148999076Y-93926283D01*
X149097570Y-94073690D01*
X149165414Y-94237480D01*
X149200000Y-94411358D01*
X149200000Y-94588642D01*
X149165414Y-94762520D01*
X149097570Y-94926310D01*
X148999076Y-95073717D01*
X148873717Y-95199076D01*
X148869399Y-95201961D01*
X148726310Y-95297570D01*
X148562523Y-95365413D01*
X148562522Y-95365413D01*
X148562520Y-95365414D01*
X148388642Y-95400000D01*
X148211358Y-95400000D01*
X148037480Y-95365414D01*
X148037478Y-95365413D01*
X148037477Y-95365413D01*
X147873690Y-95297570D01*
X147730601Y-95201961D01*
X147726283Y-95199076D01*
X147600924Y-95073717D01*
X147502430Y-94926310D01*
X147434586Y-94762520D01*
X147400000Y-94588642D01*
X147400000Y-94411358D01*
X147434586Y-94237480D01*
X147502430Y-94073690D01*
X147600924Y-93926283D01*
X147726283Y-93800924D01*
X147873690Y-93702430D01*
X148037477Y-93634587D01*
X148037478Y-93634587D01*
X148037480Y-93634586D01*
X148211358Y-93600000D01*
X148388642Y-93600000D01*
X148562520Y-93634586D01*
X148562520Y-93634586D01*
G37*
G36*
X143562520Y-93634586D02*
X143562522Y-93634587D01*
X143562523Y-93634587D01*
X143726310Y-93702430D01*
X143873717Y-93800924D01*
X143999076Y-93926283D01*
X144097570Y-94073690D01*
X144165414Y-94237480D01*
X144200000Y-94411358D01*
X144200000Y-94588642D01*
X144165414Y-94762520D01*
X144097570Y-94926310D01*
X143999076Y-95073717D01*
X143873717Y-95199076D01*
X143869399Y-95201961D01*
X143726310Y-95297570D01*
X143562523Y-95365413D01*
X143562522Y-95365413D01*
X143562520Y-95365414D01*
X143388642Y-95400000D01*
X143211358Y-95400000D01*
X143037480Y-95365414D01*
X143037478Y-95365413D01*
X143037477Y-95365413D01*
X142873690Y-95297570D01*
X142730601Y-95201961D01*
X142726283Y-95199076D01*
X142600924Y-95073717D01*
X142502430Y-94926310D01*
X142434586Y-94762520D01*
X142400000Y-94588642D01*
X142400000Y-94411358D01*
X142434586Y-94237480D01*
X142502430Y-94073690D01*
X142600924Y-93926283D01*
X142726283Y-93800924D01*
X142873690Y-93702430D01*
X143037477Y-93634587D01*
X143037478Y-93634587D01*
X143037480Y-93634586D01*
X143211358Y-93600000D01*
X143388642Y-93600000D01*
X143562520Y-93634586D01*
X143562520Y-93634586D01*
G37*
G36*
X139008365Y-90053801D02*
X139008367Y-90053802D01*
X139008368Y-90053802D01*
X139263149Y-90159336D01*
X139492448Y-90312549D01*
X139687451Y-90507552D01*
X139840664Y-90736851D01*
X139946199Y-90991635D01*
X140000000Y-91262112D01*
X140000000Y-91537888D01*
X139969164Y-91692914D01*
X139946198Y-91808368D01*
X139910120Y-91895467D01*
X139840664Y-92063149D01*
X139687451Y-92292448D01*
X139492448Y-92487451D01*
X139263149Y-92640664D01*
X139008368Y-92746198D01*
X139008367Y-92746198D01*
X139008365Y-92746199D01*
X138737888Y-92800000D01*
X138462112Y-92800000D01*
X138191635Y-92746199D01*
X138191633Y-92746198D01*
X138191632Y-92746198D01*
X137936851Y-92640664D01*
X137707552Y-92487451D01*
X137512549Y-92292448D01*
X137359336Y-92063149D01*
X137289880Y-91895467D01*
X137253802Y-91808368D01*
X137230837Y-91692914D01*
X137200000Y-91537888D01*
X137200000Y-91262112D01*
X137253801Y-90991635D01*
X137359336Y-90736851D01*
X137512549Y-90507552D01*
X137707552Y-90312549D01*
X137936851Y-90159336D01*
X138191632Y-90053802D01*
X138191633Y-90053802D01*
X138191635Y-90053801D01*
X138462112Y-90000000D01*
X138737888Y-90000000D01*
X139008365Y-90053801D01*
X139008365Y-90053801D01*
G37*
G36*
X163544646Y-89234533D02*
X163799122Y-89311728D01*
X164033649Y-89437085D01*
X164239213Y-89605787D01*
X164407915Y-89811351D01*
X164533272Y-90045878D01*
X164610467Y-90300354D01*
X164636532Y-90565000D01*
X164610467Y-90829646D01*
X164533272Y-91084122D01*
X164407915Y-91318649D01*
X164239213Y-91524213D01*
X164033649Y-91692915D01*
X163799122Y-91818272D01*
X163544646Y-91895467D01*
X163346321Y-91915000D01*
X161713679Y-91915000D01*
X161515354Y-91895467D01*
X161260878Y-91818272D01*
X161026351Y-91692915D01*
X160820787Y-91524213D01*
X160652085Y-91318649D01*
X160526728Y-91084122D01*
X160449533Y-90829646D01*
X160423468Y-90565000D01*
X160449533Y-90300354D01*
X160526728Y-90045878D01*
X160652085Y-89811351D01*
X160820787Y-89605787D01*
X161026351Y-89437085D01*
X161260878Y-89311728D01*
X161515354Y-89234533D01*
X161713679Y-89215000D01*
X163346321Y-89215000D01*
X163544646Y-89234533D01*
X163544646Y-89234533D01*
G37*
G36*
X153443215Y-87299959D02*
X153568795Y-87324938D01*
X153715790Y-87385826D01*
X153923671Y-87471933D01*
X154243052Y-87685336D01*
X154514664Y-87956948D01*
X154728067Y-88276329D01*
X154875062Y-88631206D01*
X154950000Y-89007942D01*
X154950000Y-89392058D01*
X154941043Y-89437086D01*
X154875062Y-89768795D01*
X154814174Y-89915790D01*
X154728067Y-90123671D01*
X154514664Y-90443052D01*
X154243052Y-90714664D01*
X153923671Y-90928067D01*
X153770204Y-90991635D01*
X153568795Y-91075062D01*
X153523247Y-91084122D01*
X153192058Y-91150000D01*
X152807942Y-91150000D01*
X152476753Y-91084122D01*
X152431205Y-91075062D01*
X152229796Y-90991635D01*
X152076329Y-90928067D01*
X151756948Y-90714664D01*
X151485336Y-90443052D01*
X151271933Y-90123671D01*
X151185826Y-89915790D01*
X151124938Y-89768795D01*
X151058957Y-89437086D01*
X151050000Y-89392058D01*
X151050000Y-89007942D01*
X151124938Y-88631206D01*
X151271933Y-88276329D01*
X151485336Y-87956948D01*
X151756948Y-87685336D01*
X152076329Y-87471933D01*
X152284210Y-87385826D01*
X152431205Y-87324938D01*
X152556785Y-87299959D01*
X152807942Y-87250000D01*
X153192058Y-87250000D01*
X153443215Y-87299959D01*
X153443215Y-87299959D01*
G37*
G36*
X153443215Y-82599959D02*
X153568795Y-82624938D01*
X153715790Y-82685826D01*
X153923671Y-82771933D01*
X153923672Y-82771934D01*
X154243051Y-82985335D01*
X154514665Y-83256949D01*
X154548478Y-83307554D01*
X154728067Y-83576329D01*
X154814174Y-83784210D01*
X154875062Y-83931205D01*
X154950000Y-84307944D01*
X154950000Y-84692056D01*
X154875062Y-85068795D01*
X154814174Y-85215790D01*
X154728067Y-85423671D01*
X154514664Y-85743052D01*
X154243052Y-86014664D01*
X153923671Y-86228067D01*
X153715790Y-86314174D01*
X153568795Y-86375062D01*
X153443215Y-86400041D01*
X153192058Y-86450000D01*
X152807942Y-86450000D01*
X152556785Y-86400041D01*
X152431205Y-86375062D01*
X152284210Y-86314174D01*
X152076329Y-86228067D01*
X151756948Y-86014664D01*
X151485336Y-85743052D01*
X151271933Y-85423671D01*
X151185826Y-85215790D01*
X151124938Y-85068795D01*
X151050000Y-84692056D01*
X151050000Y-84307944D01*
X151124938Y-83931205D01*
X151185826Y-83784210D01*
X151271933Y-83576329D01*
X151451522Y-83307554D01*
X151485335Y-83256949D01*
X151756949Y-82985335D01*
X152076328Y-82771934D01*
X152076329Y-82771933D01*
X152284210Y-82685826D01*
X152431205Y-82624938D01*
X152556785Y-82599959D01*
X152807942Y-82550000D01*
X153192058Y-82550000D01*
X153443215Y-82599959D01*
X153443215Y-82599959D01*
G37*
G36*
X139008365Y-82853801D02*
X139008367Y-82853802D01*
X139008368Y-82853802D01*
X139263149Y-82959336D01*
X139492448Y-83112549D01*
X139687451Y-83307552D01*
X139840664Y-83536851D01*
X139946199Y-83791635D01*
X140000000Y-84062112D01*
X140000000Y-84337888D01*
X139946199Y-84608365D01*
X139840664Y-84863149D01*
X139687451Y-85092448D01*
X139492448Y-85287451D01*
X139288581Y-85423671D01*
X139263149Y-85440664D01*
X139008368Y-85546198D01*
X139008367Y-85546198D01*
X139008365Y-85546199D01*
X138737888Y-85600000D01*
X138462112Y-85600000D01*
X138191635Y-85546199D01*
X138191633Y-85546198D01*
X138191632Y-85546198D01*
X137936851Y-85440664D01*
X137911419Y-85423671D01*
X137707552Y-85287451D01*
X137512549Y-85092448D01*
X137359336Y-84863149D01*
X137253801Y-84608365D01*
X137200000Y-84337888D01*
X137200000Y-84062112D01*
X137253801Y-83791635D01*
X137359336Y-83536851D01*
X137512549Y-83307552D01*
X137707552Y-83112549D01*
X137936851Y-82959336D01*
X138191632Y-82853802D01*
X138191633Y-82853802D01*
X138191635Y-82853801D01*
X138462112Y-82800000D01*
X138737888Y-82800000D01*
X139008365Y-82853801D01*
X139008365Y-82853801D01*
G37*
G36*
X139008365Y-79553801D02*
X139008367Y-79553802D01*
X139008368Y-79553802D01*
X139139073Y-79607942D01*
X139263149Y-79659336D01*
X139492448Y-79812549D01*
X139687451Y-80007552D01*
X139840664Y-80236851D01*
X139946199Y-80491635D01*
X140000000Y-80762112D01*
X140000000Y-81037888D01*
X139998973Y-81043052D01*
X139946198Y-81308368D01*
X139855196Y-81528066D01*
X139840664Y-81563149D01*
X139687451Y-81792448D01*
X139492448Y-81987451D01*
X139263149Y-82140664D01*
X139008368Y-82246198D01*
X139008367Y-82246198D01*
X139008365Y-82246199D01*
X138737888Y-82300000D01*
X138462112Y-82300000D01*
X138191635Y-82246199D01*
X138191633Y-82246198D01*
X138191632Y-82246198D01*
X137936851Y-82140664D01*
X137707552Y-81987451D01*
X137512549Y-81792448D01*
X137359336Y-81563149D01*
X137344804Y-81528066D01*
X137253802Y-81308368D01*
X137201028Y-81043052D01*
X137200000Y-81037888D01*
X137200000Y-80762112D01*
X137253801Y-80491635D01*
X137359336Y-80236851D01*
X137512549Y-80007552D01*
X137707552Y-79812549D01*
X137936851Y-79659336D01*
X138060927Y-79607942D01*
X138191632Y-79553802D01*
X138191633Y-79553802D01*
X138191635Y-79553801D01*
X138462112Y-79500000D01*
X138737888Y-79500000D01*
X139008365Y-79553801D01*
X139008365Y-79553801D01*
G37*
G36*
X153443215Y-77899959D02*
X153568795Y-77924938D01*
X153715790Y-77985826D01*
X153923671Y-78071933D01*
X154243052Y-78285336D01*
X154514664Y-78556948D01*
X154728067Y-78876329D01*
X154760290Y-78954122D01*
X154857435Y-79188649D01*
X154875062Y-79231206D01*
X154950000Y-79607942D01*
X154950000Y-79992058D01*
X154875062Y-80368794D01*
X154728067Y-80723671D01*
X154702380Y-80762114D01*
X154518115Y-81037888D01*
X154514664Y-81043052D01*
X154243052Y-81314664D01*
X153923671Y-81528067D01*
X153715790Y-81614174D01*
X153568795Y-81675062D01*
X153443215Y-81700041D01*
X153192058Y-81750000D01*
X152807942Y-81750000D01*
X152556785Y-81700041D01*
X152431205Y-81675062D01*
X152284210Y-81614174D01*
X152076329Y-81528067D01*
X151756948Y-81314664D01*
X151485336Y-81043052D01*
X151481886Y-81037888D01*
X151297620Y-80762114D01*
X151271933Y-80723671D01*
X151124938Y-80368794D01*
X151050000Y-79992058D01*
X151050000Y-79607942D01*
X151124938Y-79231206D01*
X151142566Y-79188649D01*
X151239710Y-78954122D01*
X151271933Y-78876329D01*
X151485336Y-78556948D01*
X151756948Y-78285336D01*
X152076329Y-78071933D01*
X152284210Y-77985826D01*
X152431205Y-77924938D01*
X152556785Y-77899959D01*
X152807942Y-77850000D01*
X153192058Y-77850000D01*
X153443215Y-77899959D01*
X153443215Y-77899959D01*
G37*
G36*
X163544646Y-77104533D02*
X163799122Y-77181728D01*
X164033649Y-77307085D01*
X164239213Y-77475787D01*
X164407915Y-77681351D01*
X164533272Y-77915878D01*
X164610467Y-78170354D01*
X164636532Y-78435000D01*
X164610467Y-78699646D01*
X164533272Y-78954122D01*
X164407915Y-79188649D01*
X164239213Y-79394213D01*
X164033649Y-79562915D01*
X163799122Y-79688272D01*
X163544646Y-79765467D01*
X163346321Y-79785000D01*
X161713679Y-79785000D01*
X161515354Y-79765467D01*
X161260878Y-79688272D01*
X161026351Y-79562915D01*
X160820787Y-79394213D01*
X160652085Y-79188649D01*
X160526728Y-78954122D01*
X160449533Y-78699646D01*
X160423468Y-78435000D01*
X160449533Y-78170354D01*
X160526728Y-77915878D01*
X160652085Y-77681351D01*
X160820787Y-77475787D01*
X161026351Y-77307085D01*
X161260878Y-77181728D01*
X161515354Y-77104533D01*
X161713679Y-77085000D01*
X163346321Y-77085000D01*
X163544646Y-77104533D01*
X163544646Y-77104533D01*
G37*
G36*
X153135634Y-71112915D02*
X153342988Y-71175816D01*
X153445130Y-71230412D01*
X153534084Y-71277958D01*
X153564548Y-71302959D01*
X153701581Y-71415419D01*
X153839041Y-71582914D01*
X153941184Y-71774011D01*
X154004085Y-71981365D01*
X154020000Y-72142958D01*
X154020000Y-75001042D01*
X154004085Y-75162635D01*
X153941184Y-75369989D01*
X153839041Y-75561086D01*
X153701581Y-75728581D01*
X153534086Y-75866041D01*
X153342989Y-75968184D01*
X153135635Y-76031085D01*
X152920000Y-76052323D01*
X152704366Y-76031085D01*
X152497012Y-75968184D01*
X152305915Y-75866041D01*
X152138420Y-75728581D01*
X152000960Y-75561086D01*
X151898817Y-75369989D01*
X151835916Y-75162635D01*
X151820001Y-75001042D01*
X151820000Y-72142959D01*
X151835915Y-71981366D01*
X151898816Y-71774012D01*
X151967134Y-71646198D01*
X152000958Y-71582916D01*
X152138419Y-71415419D01*
X152275453Y-71302958D01*
X152305914Y-71277959D01*
X152497011Y-71175816D01*
X152704365Y-71112915D01*
X152920000Y-71091677D01*
X153135634Y-71112915D01*
X153135634Y-71112915D01*
G37*
G36*
X163295634Y-71137915D02*
X163502988Y-71200816D01*
X163605130Y-71255412D01*
X163694084Y-71302958D01*
X163694086Y-71302959D01*
X163694085Y-71302959D01*
X163861581Y-71440419D01*
X163999041Y-71607914D01*
X164101184Y-71799011D01*
X164164085Y-72006365D01*
X164180000Y-72167958D01*
X164180000Y-74976042D01*
X164164085Y-75137635D01*
X164101184Y-75344989D01*
X163999041Y-75536086D01*
X163861581Y-75703581D01*
X163694086Y-75841041D01*
X163502989Y-75943184D01*
X163295635Y-76006085D01*
X163080000Y-76027323D01*
X162864366Y-76006085D01*
X162657012Y-75943184D01*
X162465915Y-75841041D01*
X162298420Y-75703581D01*
X162160960Y-75536086D01*
X162058817Y-75344989D01*
X161995916Y-75137635D01*
X161980001Y-74976042D01*
X161980000Y-72167959D01*
X161995915Y-72006366D01*
X162058816Y-71799012D01*
X162160959Y-71607915D01*
X162298419Y-71440419D01*
X162465914Y-71302959D01*
X162657011Y-71200816D01*
X162864365Y-71137915D01*
X163080000Y-71116677D01*
X163295634Y-71137915D01*
X163295634Y-71137915D01*
G37*
G36*
X139008365Y-72353801D02*
X139008367Y-72353802D01*
X139008368Y-72353802D01*
X139263149Y-72459336D01*
X139492448Y-72612549D01*
X139687451Y-72807552D01*
X139840664Y-73036851D01*
X139946199Y-73291635D01*
X140000000Y-73562112D01*
X140000000Y-73837888D01*
X139946199Y-74108365D01*
X139840664Y-74363149D01*
X139687451Y-74592448D01*
X139492448Y-74787451D01*
X139263149Y-74940664D01*
X139008368Y-75046198D01*
X139008367Y-75046198D01*
X139008365Y-75046199D01*
X138737888Y-75100000D01*
X138462112Y-75100000D01*
X138191635Y-75046199D01*
X138191633Y-75046198D01*
X138191632Y-75046198D01*
X137936851Y-74940664D01*
X137707552Y-74787451D01*
X137512549Y-74592448D01*
X137359336Y-74363149D01*
X137253801Y-74108365D01*
X137200000Y-73837888D01*
X137200000Y-73562112D01*
X137253801Y-73291635D01*
X137359336Y-73036851D01*
X137512549Y-72807552D01*
X137707552Y-72612549D01*
X137936851Y-72459336D01*
X138191632Y-72353802D01*
X138191633Y-72353802D01*
X138191635Y-72353801D01*
X138462112Y-72300000D01*
X138737888Y-72300000D01*
X139008365Y-72353801D01*
X139008365Y-72353801D01*
G37*
G36*
X139008365Y-68953801D02*
X139008367Y-68953802D01*
X139008368Y-68953802D01*
X139263149Y-69059336D01*
X139492448Y-69212549D01*
X139687451Y-69407552D01*
X139687452Y-69407554D01*
X139840664Y-69636851D01*
X139893727Y-69764955D01*
X139946199Y-69891635D01*
X140000000Y-70162112D01*
X140000000Y-70437888D01*
X139946199Y-70708365D01*
X139840664Y-70963149D01*
X139687451Y-71192448D01*
X139492448Y-71387451D01*
X139450591Y-71415419D01*
X139263149Y-71540664D01*
X139008368Y-71646198D01*
X139008367Y-71646198D01*
X139008365Y-71646199D01*
X138737888Y-71700000D01*
X138462112Y-71700000D01*
X138191635Y-71646199D01*
X138191633Y-71646198D01*
X138191632Y-71646198D01*
X137936851Y-71540664D01*
X137749409Y-71415419D01*
X137707552Y-71387451D01*
X137512549Y-71192448D01*
X137359336Y-70963149D01*
X137253801Y-70708365D01*
X137200000Y-70437888D01*
X137200000Y-70162112D01*
X137253801Y-69891635D01*
X137306274Y-69764955D01*
X137359336Y-69636851D01*
X137512548Y-69407554D01*
X137512549Y-69407552D01*
X137707552Y-69212549D01*
X137936851Y-69059336D01*
X138191632Y-68953802D01*
X138191633Y-68953802D01*
X138191635Y-68953801D01*
X138462112Y-68900000D01*
X138737888Y-68900000D01*
X139008365Y-68953801D01*
X139008365Y-68953801D01*
G37*
G36*
X151210925Y-67818446D02*
X151350030Y-67846116D01*
X151568413Y-67936574D01*
X151764954Y-68067898D01*
X151932102Y-68235046D01*
X152063426Y-68431587D01*
X152153884Y-68649970D01*
X152200000Y-68881812D01*
X152200000Y-69118188D01*
X152153884Y-69350030D01*
X152063426Y-69568413D01*
X151932102Y-69764954D01*
X151764954Y-69932102D01*
X151568413Y-70063426D01*
X151350030Y-70153884D01*
X151210925Y-70181554D01*
X151118190Y-70200000D01*
X150881810Y-70200000D01*
X150789075Y-70181554D01*
X150649970Y-70153884D01*
X150431587Y-70063426D01*
X150235046Y-69932102D01*
X150067898Y-69764954D01*
X149936574Y-69568413D01*
X149846116Y-69350030D01*
X149800000Y-69118188D01*
X149800000Y-68881812D01*
X149846116Y-68649970D01*
X149936574Y-68431587D01*
X150067898Y-68235046D01*
X150235046Y-68067898D01*
X150431587Y-67936574D01*
X150649970Y-67846116D01*
X150789075Y-67818446D01*
X150881810Y-67800000D01*
X151118190Y-67800000D01*
X151210925Y-67818446D01*
X151210925Y-67818446D01*
G37*
G36*
X153135634Y-61968915D02*
X153342988Y-62031816D01*
X153445130Y-62086412D01*
X153534084Y-62133958D01*
X153680113Y-62253801D01*
X153701581Y-62271419D01*
X153839041Y-62438914D01*
X153941184Y-62630011D01*
X154004085Y-62837365D01*
X154020000Y-62998958D01*
X154020000Y-65857042D01*
X154004085Y-66018635D01*
X153941184Y-66225989D01*
X153839041Y-66417086D01*
X153701581Y-66584581D01*
X153534086Y-66722041D01*
X153342989Y-66824184D01*
X153135635Y-66887085D01*
X152920000Y-66908323D01*
X152704366Y-66887085D01*
X152497012Y-66824184D01*
X152305915Y-66722041D01*
X152138420Y-66584581D01*
X152000960Y-66417086D01*
X151898817Y-66225989D01*
X151835916Y-66018635D01*
X151820001Y-65857042D01*
X151820000Y-62998959D01*
X151835915Y-62837366D01*
X151898816Y-62630012D01*
X151961601Y-62512549D01*
X152000958Y-62438916D01*
X152138419Y-62271419D01*
X152275453Y-62158958D01*
X152305914Y-62133959D01*
X152497011Y-62031816D01*
X152704365Y-61968915D01*
X152920000Y-61947677D01*
X153135634Y-61968915D01*
X153135634Y-61968915D01*
G37*
G36*
X163295634Y-61993915D02*
X163502988Y-62056816D01*
X163605130Y-62111412D01*
X163694084Y-62158958D01*
X163694086Y-62158959D01*
X163694085Y-62158959D01*
X163861581Y-62296419D01*
X163999041Y-62463914D01*
X164101184Y-62655011D01*
X164164085Y-62862365D01*
X164180000Y-63023958D01*
X164180000Y-65832042D01*
X164164085Y-65993635D01*
X164101184Y-66200989D01*
X163999041Y-66392086D01*
X163861581Y-66559581D01*
X163694086Y-66697041D01*
X163502989Y-66799184D01*
X163295635Y-66862085D01*
X163080000Y-66883323D01*
X162864366Y-66862085D01*
X162657012Y-66799184D01*
X162465915Y-66697041D01*
X162298420Y-66559581D01*
X162160960Y-66392086D01*
X162058817Y-66200989D01*
X161995916Y-65993635D01*
X161980001Y-65832042D01*
X161980000Y-63023959D01*
X161995915Y-62862366D01*
X162058816Y-62655012D01*
X162113412Y-62552870D01*
X162160958Y-62463916D01*
X162298419Y-62296419D01*
X162465914Y-62158959D01*
X162657011Y-62056816D01*
X162864365Y-61993915D01*
X163080000Y-61972677D01*
X163295634Y-61993915D01*
X163295634Y-61993915D01*
G37*
G36*
X138908365Y-62253801D02*
X138908367Y-62253802D01*
X138908368Y-62253802D01*
X138950899Y-62271419D01*
X139163149Y-62359336D01*
X139392448Y-62512549D01*
X139587451Y-62707552D01*
X139587452Y-62707554D01*
X139740664Y-62936851D01*
X139766393Y-62998965D01*
X139846199Y-63191635D01*
X139900000Y-63462112D01*
X139900000Y-63737888D01*
X139846199Y-64008365D01*
X139740664Y-64263149D01*
X139587451Y-64492448D01*
X139392448Y-64687451D01*
X139163149Y-64840664D01*
X138908368Y-64946198D01*
X138908367Y-64946198D01*
X138908365Y-64946199D01*
X138637888Y-65000000D01*
X138362112Y-65000000D01*
X138091635Y-64946199D01*
X138091633Y-64946198D01*
X138091632Y-64946198D01*
X137836851Y-64840664D01*
X137607552Y-64687451D01*
X137412549Y-64492448D01*
X137259336Y-64263149D01*
X137153801Y-64008365D01*
X137100000Y-63737888D01*
X137100000Y-63462112D01*
X137153801Y-63191635D01*
X137233608Y-62998965D01*
X137259336Y-62936851D01*
X137412548Y-62707554D01*
X137412549Y-62707552D01*
X137607552Y-62512549D01*
X137836851Y-62359336D01*
X138049101Y-62271419D01*
X138091632Y-62253802D01*
X138091633Y-62253802D01*
X138091635Y-62253801D01*
X138362112Y-62200000D01*
X138637888Y-62200000D01*
X138908365Y-62253801D01*
X138908365Y-62253801D01*
G37*
M02*
