M48
INCH,TZ
T1C0.0118
T2C0.0236
T3C0.0276
T4C0.0315
T5C0.0394
T6C0.0472
T7C0.0512
T8C0.0728
%
G90
G05
T1
X53937Y-26772
X53937Y-31102
X53937Y-35039
X54055Y-42441
X54134Y-26063
X54134Y-30236
X54134Y-34370
X55906Y-46850
X56299Y-40157
X56496Y-33740
X56535Y-29488
X56693Y-25394
X56693Y-36614
X56693Y-40945
X57126Y-35984
X57520Y-36417
X57992Y-25669
X57992Y-29843
X58012Y-28268
X58031Y-32520
X58031Y-33976
X58039Y-40520
X58661Y-35039
X58661Y-35433
X58661Y-35827
X59055Y-35039
X59055Y-35433
X59134Y-40866
X61417Y-40945
X61811Y-27165
X62598Y-46457
X63780Y-31890
X63780Y-33858
X63780Y-40157
X63780Y-43307
X63780Y-46457
T4
X56417Y-37205
X58386Y-37205
T5
X54134Y-43531
X54134Y-44531
T6
X54134Y-37531
X54134Y-39531
T7
X54528Y-25039
X54567Y-33150
X61142Y-42985
X63110Y-41607
X54567Y-35984
X54567Y-31850
X61142Y-46358
X63110Y-44980
X54567Y-29016
X54567Y-27677
X61142Y-39626
X63110Y-38248
T8
X60236Y-31417
X60236Y-33268
X60236Y-35118
T2
X60205Y-25767G85X60205Y-24964
G05
X60205Y-29367G85X60205Y-28564
G05
X64205Y-25582G85X64205Y-25149
G05
X64205Y-29182G85X64205Y-28749
G05
T3
X63762Y-30880G85X64215Y-30880
G05
X63762Y-35656G85X64215Y-35656
G05
T0
M30
