G04 #@! TF.GenerationSoftware,KiCad,Pcbnew,(5.0.2)-1*
G04 #@! TF.CreationDate,2019-05-12T17:51:48+02:00*
G04 #@! TF.ProjectId,MotorDriver,4d6f746f-7244-4726-9976-65722e6b6963,rev?*
G04 #@! TF.SameCoordinates,Original*
G04 #@! TF.FileFunction,Legend,Bot*
G04 #@! TF.FilePolarity,Positive*
%FSLAX46Y46*%
G04 Gerber Fmt 4.6, Leading zero omitted, Abs format (unit mm)*
G04 Created by KiCad (PCBNEW (5.0.2)-1) date 12.05.2019 17:51:48*
%MOMM*%
%LPD*%
G01*
G04 APERTURE LIST*
%ADD10C,0.120000*%
G04 APERTURE END LIST*
D10*
G04 #@! TO.C,JP4*
X156100000Y-114400000D02*
X155800000Y-114100000D01*
X156100000Y-113800000D02*
X156100000Y-114400000D01*
X155800000Y-114100000D02*
X156100000Y-113800000D01*
X155550000Y-112750000D02*
X153600000Y-112750000D01*
X155550000Y-118250000D02*
X155550000Y-112750000D01*
X153600000Y-118250000D02*
X155550000Y-118250000D01*
X153600000Y-112750000D02*
X153600000Y-118250000D01*
G04 #@! TO.C,JP5*
X158950000Y-112750000D02*
X158950000Y-118250000D01*
X158950000Y-118250000D02*
X160900000Y-118250000D01*
X160900000Y-118250000D02*
X160900000Y-112750000D01*
X160900000Y-112750000D02*
X158950000Y-112750000D01*
X161150000Y-114100000D02*
X161450000Y-113800000D01*
X161450000Y-113800000D02*
X161450000Y-114400000D01*
X161450000Y-114400000D02*
X161150000Y-114100000D01*
G04 #@! TO.C,JP6*
X158600000Y-114400000D02*
X158300000Y-114100000D01*
X158600000Y-113800000D02*
X158600000Y-114400000D01*
X158300000Y-114100000D02*
X158600000Y-113800000D01*
X158050000Y-112750000D02*
X156100000Y-112750000D01*
X158050000Y-118250000D02*
X158050000Y-112750000D01*
X156100000Y-118250000D02*
X158050000Y-118250000D01*
X156100000Y-112750000D02*
X156100000Y-118250000D01*
G04 #@! TD*
M02*
