G04 #@! TF.GenerationSoftware,KiCad,Pcbnew,5.1.5-52549c5~84~ubuntu18.04.1*
G04 #@! TF.CreationDate,2020-03-12T11:48:39+01:00*
G04 #@! TF.ProjectId,MotorDriver,4d6f746f-7244-4726-9976-65722e6b6963,rev?*
G04 #@! TF.SameCoordinates,Original*
G04 #@! TF.FileFunction,Legend,Bot*
G04 #@! TF.FilePolarity,Positive*
%FSLAX46Y46*%
G04 Gerber Fmt 4.6, Leading zero omitted, Abs format (unit mm)*
G04 Created by KiCad (PCBNEW 5.1.5-52549c5~84~ubuntu18.04.1) date 2020-03-12 11:48:39*
%MOMM*%
%LPD*%
G04 APERTURE LIST*
%ADD10C,0.120000*%
G04 APERTURE END LIST*
D10*
X156100000Y-114400000D02*
X155800000Y-114100000D01*
X156100000Y-113800000D02*
X156100000Y-114400000D01*
X155800000Y-114100000D02*
X156100000Y-113800000D01*
X155550000Y-112750000D02*
X153600000Y-112750000D01*
X155550000Y-118250000D02*
X155550000Y-112750000D01*
X153600000Y-118250000D02*
X155550000Y-118250000D01*
X153600000Y-112750000D02*
X153600000Y-118250000D01*
X158950000Y-112750000D02*
X158950000Y-118250000D01*
X158950000Y-118250000D02*
X160900000Y-118250000D01*
X160900000Y-118250000D02*
X160900000Y-112750000D01*
X160900000Y-112750000D02*
X158950000Y-112750000D01*
X161150000Y-114100000D02*
X161450000Y-113800000D01*
X161450000Y-113800000D02*
X161450000Y-114400000D01*
X161450000Y-114400000D02*
X161150000Y-114100000D01*
X158600000Y-114400000D02*
X158300000Y-114100000D01*
X158600000Y-113800000D02*
X158600000Y-114400000D01*
X158300000Y-114100000D02*
X158600000Y-113800000D01*
X158050000Y-112750000D02*
X156100000Y-112750000D01*
X158050000Y-118250000D02*
X158050000Y-112750000D01*
X156100000Y-118250000D02*
X158050000Y-118250000D01*
X156100000Y-112750000D02*
X156100000Y-118250000D01*
M02*
