G04 #@! TF.GenerationSoftware,KiCad,Pcbnew,5.1.5-52549c5~84~ubuntu18.04.1*
G04 #@! TF.CreationDate,2020-03-12T11:48:39+01:00*
G04 #@! TF.ProjectId,MotorDriver,4d6f746f-7244-4726-9976-65722e6b6963,rev?*
G04 #@! TF.SameCoordinates,Original*
G04 #@! TF.FileFunction,Soldermask,Top*
G04 #@! TF.FilePolarity,Negative*
%FSLAX46Y46*%
G04 Gerber Fmt 4.6, Leading zero omitted, Abs format (unit mm)*
G04 Created by KiCad (PCBNEW 5.1.5-52549c5~84~ubuntu18.04.1) date 2020-03-12 11:48:39*
%MOMM*%
%LPD*%
G04 APERTURE LIST*
%ADD10C,0.100000*%
G04 APERTURE END LIST*
D10*
G36*
X160120856Y-137442272D02*
G01*
X160321048Y-137525194D01*
X160501208Y-137645573D01*
X160654427Y-137798792D01*
X160774806Y-137978952D01*
X160857728Y-138179144D01*
X160900000Y-138391657D01*
X160900000Y-138608343D01*
X160857728Y-138820856D01*
X160774806Y-139021048D01*
X160654427Y-139201208D01*
X160501208Y-139354427D01*
X160321048Y-139474806D01*
X160120856Y-139557728D01*
X159908343Y-139600000D01*
X159691657Y-139600000D01*
X159479144Y-139557728D01*
X159278952Y-139474806D01*
X159098792Y-139354427D01*
X158945573Y-139201208D01*
X158825194Y-139021048D01*
X158742272Y-138820856D01*
X158700000Y-138608343D01*
X158700000Y-138391657D01*
X158742272Y-138179144D01*
X158825194Y-137978952D01*
X158945573Y-137798792D01*
X159098792Y-137645573D01*
X159278952Y-137525194D01*
X159479144Y-137442272D01*
X159691657Y-137400000D01*
X159908343Y-137400000D01*
X160120856Y-137442272D01*
G37*
G36*
X152781072Y-136113431D02*
G01*
X152956436Y-136186069D01*
X153114259Y-136291523D01*
X153248477Y-136425741D01*
X153353931Y-136583564D01*
X153426569Y-136758928D01*
X153463600Y-136945094D01*
X153463600Y-137134906D01*
X153426569Y-137321072D01*
X153353931Y-137496436D01*
X153301204Y-137575348D01*
X153254280Y-137645575D01*
X153248477Y-137654259D01*
X153114259Y-137788477D01*
X152956436Y-137893931D01*
X152781072Y-137966569D01*
X152594906Y-138003600D01*
X152405094Y-138003600D01*
X152218928Y-137966569D01*
X152043564Y-137893931D01*
X151885741Y-137788477D01*
X151751523Y-137654259D01*
X151745721Y-137645575D01*
X151698796Y-137575347D01*
X151646069Y-137496436D01*
X151573431Y-137321072D01*
X151536400Y-137134906D01*
X151536400Y-136945094D01*
X151573431Y-136758928D01*
X151646069Y-136583564D01*
X151751523Y-136425741D01*
X151885741Y-136291523D01*
X152043564Y-136186069D01*
X152218928Y-136113431D01*
X152405094Y-136076400D01*
X152594906Y-136076400D01*
X152781072Y-136113431D01*
G37*
G36*
X147701072Y-136113431D02*
G01*
X147876436Y-136186069D01*
X148034259Y-136291523D01*
X148168477Y-136425741D01*
X148273931Y-136583564D01*
X148346569Y-136758928D01*
X148383600Y-136945094D01*
X148383600Y-137134906D01*
X148346569Y-137321072D01*
X148273931Y-137496436D01*
X148221204Y-137575348D01*
X148174280Y-137645575D01*
X148168477Y-137654259D01*
X148034259Y-137788477D01*
X147876436Y-137893931D01*
X147701072Y-137966569D01*
X147514906Y-138003600D01*
X147325094Y-138003600D01*
X147138928Y-137966569D01*
X146963564Y-137893931D01*
X146805741Y-137788477D01*
X146671523Y-137654259D01*
X146665721Y-137645575D01*
X146618796Y-137575347D01*
X146566069Y-137496436D01*
X146493431Y-137321072D01*
X146456400Y-137134906D01*
X146456400Y-136945094D01*
X146493431Y-136758928D01*
X146566069Y-136583564D01*
X146671523Y-136425741D01*
X146805741Y-136291523D01*
X146963564Y-136186069D01*
X147138928Y-136113431D01*
X147325094Y-136076400D01*
X147514906Y-136076400D01*
X147701072Y-136113431D01*
G37*
G36*
X150241072Y-136113431D02*
G01*
X150416436Y-136186069D01*
X150574259Y-136291523D01*
X150708477Y-136425741D01*
X150813931Y-136583564D01*
X150886569Y-136758928D01*
X150923600Y-136945094D01*
X150923600Y-137134906D01*
X150886569Y-137321072D01*
X150813931Y-137496436D01*
X150761204Y-137575348D01*
X150714280Y-137645575D01*
X150708477Y-137654259D01*
X150574259Y-137788477D01*
X150416436Y-137893931D01*
X150241072Y-137966569D01*
X150054906Y-138003600D01*
X149865094Y-138003600D01*
X149678928Y-137966569D01*
X149503564Y-137893931D01*
X149345741Y-137788477D01*
X149211523Y-137654259D01*
X149205721Y-137645575D01*
X149158796Y-137575347D01*
X149106069Y-137496436D01*
X149033431Y-137321072D01*
X148996400Y-137134906D01*
X148996400Y-136945094D01*
X149033431Y-136758928D01*
X149106069Y-136583564D01*
X149211523Y-136425741D01*
X149345741Y-136291523D01*
X149503564Y-136186069D01*
X149678928Y-136113431D01*
X149865094Y-136076400D01*
X150054906Y-136076400D01*
X150241072Y-136113431D01*
G37*
G36*
X165495872Y-133865330D02*
G01*
X165805252Y-133993479D01*
X166083687Y-134179523D01*
X166320477Y-134416313D01*
X166506521Y-134694748D01*
X166634670Y-135004128D01*
X166700000Y-135332565D01*
X166700000Y-135667435D01*
X166634670Y-135995872D01*
X166506521Y-136305252D01*
X166320477Y-136583687D01*
X166083687Y-136820477D01*
X165805252Y-137006521D01*
X165495872Y-137134670D01*
X165167435Y-137200000D01*
X164832565Y-137200000D01*
X164504128Y-137134670D01*
X164194748Y-137006521D01*
X163916313Y-136820477D01*
X163679523Y-136583687D01*
X163493479Y-136305252D01*
X163365330Y-135995872D01*
X163300000Y-135667435D01*
X163300000Y-135332565D01*
X163365330Y-135004128D01*
X163493479Y-134694748D01*
X163679523Y-134416313D01*
X163916313Y-134179523D01*
X164194748Y-133993479D01*
X164504128Y-133865330D01*
X164832565Y-133800000D01*
X165167435Y-133800000D01*
X165495872Y-133865330D01*
G37*
G36*
X105495872Y-133865330D02*
G01*
X105805252Y-133993479D01*
X106083687Y-134179523D01*
X106320477Y-134416313D01*
X106506521Y-134694748D01*
X106634670Y-135004128D01*
X106700000Y-135332565D01*
X106700000Y-135667435D01*
X106634670Y-135995872D01*
X106506521Y-136305252D01*
X106320477Y-136583687D01*
X106083687Y-136820477D01*
X105805252Y-137006521D01*
X105495872Y-137134670D01*
X105167435Y-137200000D01*
X104832565Y-137200000D01*
X104504128Y-137134670D01*
X104194748Y-137006521D01*
X103916313Y-136820477D01*
X103679523Y-136583687D01*
X103493479Y-136305252D01*
X103365330Y-135995872D01*
X103300000Y-135667435D01*
X103300000Y-135332565D01*
X103365330Y-135004128D01*
X103493479Y-134694748D01*
X103679523Y-134416313D01*
X103916313Y-134179523D01*
X104194748Y-133993479D01*
X104504128Y-133865330D01*
X104832565Y-133800000D01*
X105167435Y-133800000D01*
X105495872Y-133865330D01*
G37*
G36*
X160120856Y-134042272D02*
G01*
X160321048Y-134125194D01*
X160501208Y-134245573D01*
X160654427Y-134398792D01*
X160774806Y-134578952D01*
X160857728Y-134779144D01*
X160900000Y-134991657D01*
X160900000Y-135208343D01*
X160857728Y-135420856D01*
X160774806Y-135621048D01*
X160654427Y-135801208D01*
X160501208Y-135954427D01*
X160321048Y-136074806D01*
X160120856Y-136157728D01*
X159908343Y-136200000D01*
X159691657Y-136200000D01*
X159479144Y-136157728D01*
X159278952Y-136074806D01*
X159098792Y-135954427D01*
X158945573Y-135801208D01*
X158825194Y-135621048D01*
X158742272Y-135420856D01*
X158700000Y-135208343D01*
X158700000Y-134991657D01*
X158742272Y-134779144D01*
X158825194Y-134578952D01*
X158945573Y-134398792D01*
X159098792Y-134245573D01*
X159278952Y-134125194D01*
X159479144Y-134042272D01*
X159691657Y-134000000D01*
X159908343Y-134000000D01*
X160120856Y-134042272D01*
G37*
G36*
X114380856Y-133842272D02*
G01*
X114581048Y-133925194D01*
X114761208Y-134045573D01*
X114914427Y-134198792D01*
X115034806Y-134378952D01*
X115117728Y-134579144D01*
X115160000Y-134791657D01*
X115160000Y-135008343D01*
X115117728Y-135220856D01*
X115034806Y-135421048D01*
X114914427Y-135601208D01*
X114761208Y-135754427D01*
X114581048Y-135874806D01*
X114380856Y-135957728D01*
X114168343Y-136000000D01*
X113951657Y-136000000D01*
X113739144Y-135957728D01*
X113538952Y-135874806D01*
X113358792Y-135754427D01*
X113205573Y-135601208D01*
X113085194Y-135421048D01*
X113002272Y-135220856D01*
X112960000Y-135008343D01*
X112960000Y-134791657D01*
X113002272Y-134579144D01*
X113085194Y-134378952D01*
X113205573Y-134198792D01*
X113358792Y-134045573D01*
X113538952Y-133925194D01*
X113739144Y-133842272D01*
X113951657Y-133800000D01*
X114168343Y-133800000D01*
X114380856Y-133842272D01*
G37*
G36*
X153463600Y-135463600D02*
G01*
X151536400Y-135463600D01*
X151536400Y-133536400D01*
X153463600Y-133536400D01*
X153463600Y-135463600D01*
G37*
G36*
X147701072Y-133573431D02*
G01*
X147876436Y-133646069D01*
X147876437Y-133646070D01*
X148034258Y-133751522D01*
X148168478Y-133885742D01*
X148194838Y-133925193D01*
X148273931Y-134043564D01*
X148346569Y-134218928D01*
X148383600Y-134405094D01*
X148383600Y-134594906D01*
X148346569Y-134781072D01*
X148273931Y-134956436D01*
X148168477Y-135114259D01*
X148034259Y-135248477D01*
X147876436Y-135353931D01*
X147701072Y-135426569D01*
X147514906Y-135463600D01*
X147325094Y-135463600D01*
X147138928Y-135426569D01*
X146963564Y-135353931D01*
X146805741Y-135248477D01*
X146671523Y-135114259D01*
X146566069Y-134956436D01*
X146493431Y-134781072D01*
X146456400Y-134594906D01*
X146456400Y-134405094D01*
X146493431Y-134218928D01*
X146566069Y-134043564D01*
X146645162Y-133925193D01*
X146671522Y-133885742D01*
X146805742Y-133751522D01*
X146963563Y-133646070D01*
X146963564Y-133646069D01*
X147138928Y-133573431D01*
X147325094Y-133536400D01*
X147514906Y-133536400D01*
X147701072Y-133573431D01*
G37*
G36*
X150241072Y-133573431D02*
G01*
X150416436Y-133646069D01*
X150416437Y-133646070D01*
X150574258Y-133751522D01*
X150708478Y-133885742D01*
X150734838Y-133925193D01*
X150813931Y-134043564D01*
X150886569Y-134218928D01*
X150923600Y-134405094D01*
X150923600Y-134594906D01*
X150886569Y-134781072D01*
X150813931Y-134956436D01*
X150708477Y-135114259D01*
X150574259Y-135248477D01*
X150416436Y-135353931D01*
X150241072Y-135426569D01*
X150054906Y-135463600D01*
X149865094Y-135463600D01*
X149678928Y-135426569D01*
X149503564Y-135353931D01*
X149345741Y-135248477D01*
X149211523Y-135114259D01*
X149106069Y-134956436D01*
X149033431Y-134781072D01*
X148996400Y-134594906D01*
X148996400Y-134405094D01*
X149033431Y-134218928D01*
X149106069Y-134043564D01*
X149185162Y-133925193D01*
X149211522Y-133885742D01*
X149345742Y-133751522D01*
X149503563Y-133646070D01*
X149503564Y-133646069D01*
X149678928Y-133573431D01*
X149865094Y-133536400D01*
X150054906Y-133536400D01*
X150241072Y-133573431D01*
G37*
G36*
X121053164Y-130891290D02*
G01*
X121367094Y-131021324D01*
X121649624Y-131210105D01*
X121889895Y-131450376D01*
X122078676Y-131732906D01*
X122208710Y-132046836D01*
X122275000Y-132380102D01*
X122275000Y-132719898D01*
X122208710Y-133053164D01*
X122078676Y-133367094D01*
X121889895Y-133649624D01*
X121649624Y-133889895D01*
X121367094Y-134078676D01*
X121053164Y-134208710D01*
X120719898Y-134275000D01*
X120380102Y-134275000D01*
X120046836Y-134208710D01*
X119732906Y-134078676D01*
X119450376Y-133889895D01*
X119210105Y-133649624D01*
X119021324Y-133367094D01*
X118891290Y-133053164D01*
X118825000Y-132719898D01*
X118825000Y-132380102D01*
X118891290Y-132046836D01*
X119021324Y-131732906D01*
X119210105Y-131450376D01*
X119450376Y-131210105D01*
X119732906Y-131021324D01*
X120046836Y-130891290D01*
X120380102Y-130825000D01*
X120719898Y-130825000D01*
X121053164Y-130891290D01*
G37*
G36*
X128673164Y-130891290D02*
G01*
X128987094Y-131021324D01*
X129269624Y-131210105D01*
X129509895Y-131450376D01*
X129698676Y-131732906D01*
X129828710Y-132046836D01*
X129895000Y-132380102D01*
X129895000Y-132719898D01*
X129828710Y-133053164D01*
X129698676Y-133367094D01*
X129509895Y-133649624D01*
X129269624Y-133889895D01*
X128987094Y-134078676D01*
X128673164Y-134208710D01*
X128339898Y-134275000D01*
X128000102Y-134275000D01*
X127666836Y-134208710D01*
X127352906Y-134078676D01*
X127070376Y-133889895D01*
X126830105Y-133649624D01*
X126641324Y-133367094D01*
X126511290Y-133053164D01*
X126445000Y-132719898D01*
X126445000Y-132380102D01*
X126511290Y-132046836D01*
X126641324Y-131732906D01*
X126830105Y-131450376D01*
X127070376Y-131210105D01*
X127352906Y-131021324D01*
X127666836Y-130891290D01*
X128000102Y-130825000D01*
X128339898Y-130825000D01*
X128673164Y-130891290D01*
G37*
G36*
X132553164Y-130891290D02*
G01*
X132867094Y-131021324D01*
X133149624Y-131210105D01*
X133389895Y-131450376D01*
X133578676Y-131732906D01*
X133708710Y-132046836D01*
X133775000Y-132380102D01*
X133775000Y-132719898D01*
X133708710Y-133053164D01*
X133578676Y-133367094D01*
X133389895Y-133649624D01*
X133149624Y-133889895D01*
X132867094Y-134078676D01*
X132553164Y-134208710D01*
X132219898Y-134275000D01*
X131880102Y-134275000D01*
X131546836Y-134208710D01*
X131232906Y-134078676D01*
X130950376Y-133889895D01*
X130710105Y-133649624D01*
X130521324Y-133367094D01*
X130391290Y-133053164D01*
X130325000Y-132719898D01*
X130325000Y-132380102D01*
X130391290Y-132046836D01*
X130521324Y-131732906D01*
X130710105Y-131450376D01*
X130950376Y-131210105D01*
X131232906Y-131021324D01*
X131546836Y-130891290D01*
X131880102Y-130825000D01*
X132219898Y-130825000D01*
X132553164Y-130891290D01*
G37*
G36*
X140173164Y-130891290D02*
G01*
X140487094Y-131021324D01*
X140769624Y-131210105D01*
X141009895Y-131450376D01*
X141198676Y-131732906D01*
X141328710Y-132046836D01*
X141395000Y-132380102D01*
X141395000Y-132719898D01*
X141328710Y-133053164D01*
X141198676Y-133367094D01*
X141009895Y-133649624D01*
X140769624Y-133889895D01*
X140487094Y-134078676D01*
X140173164Y-134208710D01*
X139839898Y-134275000D01*
X139500102Y-134275000D01*
X139166836Y-134208710D01*
X138852906Y-134078676D01*
X138570376Y-133889895D01*
X138330105Y-133649624D01*
X138141324Y-133367094D01*
X138011290Y-133053164D01*
X137945000Y-132719898D01*
X137945000Y-132380102D01*
X138011290Y-132046836D01*
X138141324Y-131732906D01*
X138330105Y-131450376D01*
X138570376Y-131210105D01*
X138852906Y-131021324D01*
X139166836Y-130891290D01*
X139500102Y-130825000D01*
X139839898Y-130825000D01*
X140173164Y-130891290D01*
G37*
G36*
X160120856Y-130642272D02*
G01*
X160321048Y-130725194D01*
X160501208Y-130845573D01*
X160654427Y-130998792D01*
X160774806Y-131178952D01*
X160857728Y-131379144D01*
X160900000Y-131591657D01*
X160900000Y-131808343D01*
X160857728Y-132020856D01*
X160774806Y-132221048D01*
X160654427Y-132401208D01*
X160501208Y-132554427D01*
X160321048Y-132674806D01*
X160120856Y-132757728D01*
X159908343Y-132800000D01*
X159691657Y-132800000D01*
X159479144Y-132757728D01*
X159278952Y-132674806D01*
X159098792Y-132554427D01*
X158945573Y-132401208D01*
X158825194Y-132221048D01*
X158742272Y-132020856D01*
X158700000Y-131808343D01*
X158700000Y-131591657D01*
X158742272Y-131379144D01*
X158825194Y-131178952D01*
X158945573Y-130998792D01*
X159098792Y-130845573D01*
X159278952Y-130725194D01*
X159479144Y-130642272D01*
X159691657Y-130600000D01*
X159908343Y-130600000D01*
X160120856Y-130642272D01*
G37*
G36*
X115810000Y-132100000D02*
G01*
X112310000Y-132100000D01*
X112310000Y-129400000D01*
X115810000Y-129400000D01*
X115810000Y-132100000D01*
G37*
G36*
X155500000Y-129900000D02*
G01*
X154300000Y-129900000D01*
X154300000Y-128000000D01*
X155500000Y-128000000D01*
X155500000Y-129900000D01*
G37*
G36*
X149500000Y-129900000D02*
G01*
X148300000Y-129900000D01*
X148300000Y-128000000D01*
X149500000Y-128000000D01*
X149500000Y-129900000D01*
G37*
G36*
X153300000Y-129900000D02*
G01*
X152100000Y-129900000D01*
X152100000Y-128000000D01*
X153300000Y-128000000D01*
X153300000Y-129900000D01*
G37*
G36*
X159300000Y-129900000D02*
G01*
X158100000Y-129900000D01*
X158100000Y-128000000D01*
X159300000Y-128000000D01*
X159300000Y-129900000D01*
G37*
G36*
X167050000Y-129750000D02*
G01*
X165150000Y-129750000D01*
X165150000Y-127850000D01*
X167050000Y-127850000D01*
X167050000Y-129750000D01*
G37*
G36*
X163837105Y-127886508D02*
G01*
X164009994Y-127958121D01*
X164165590Y-128062087D01*
X164297913Y-128194410D01*
X164401879Y-128350006D01*
X164473492Y-128522895D01*
X164510000Y-128706433D01*
X164510000Y-128893567D01*
X164473492Y-129077105D01*
X164401879Y-129249994D01*
X164297913Y-129405590D01*
X164165590Y-129537913D01*
X164009994Y-129641879D01*
X163837105Y-129713492D01*
X163653567Y-129750000D01*
X163466433Y-129750000D01*
X163282895Y-129713492D01*
X163110006Y-129641879D01*
X162954410Y-129537913D01*
X162822087Y-129405590D01*
X162718121Y-129249994D01*
X162646508Y-129077105D01*
X162610000Y-128893567D01*
X162610000Y-128706433D01*
X162646508Y-128522895D01*
X162718121Y-128350006D01*
X162822087Y-128194410D01*
X162954410Y-128062087D01*
X163110006Y-127958121D01*
X163282895Y-127886508D01*
X163466433Y-127850000D01*
X163653567Y-127850000D01*
X163837105Y-127886508D01*
G37*
G36*
X109763708Y-128305158D02*
G01*
X109809345Y-128319001D01*
X109851400Y-128341480D01*
X109888265Y-128371735D01*
X109918520Y-128408600D01*
X109940999Y-128450655D01*
X109954842Y-128496292D01*
X109960000Y-128548658D01*
X109960000Y-129226342D01*
X109954842Y-129278708D01*
X109940999Y-129324345D01*
X109918520Y-129366400D01*
X109888265Y-129403265D01*
X109851400Y-129433520D01*
X109809345Y-129455999D01*
X109763708Y-129469842D01*
X109711342Y-129475000D01*
X108608658Y-129475000D01*
X108556292Y-129469842D01*
X108510655Y-129455999D01*
X108468600Y-129433520D01*
X108431735Y-129403265D01*
X108401480Y-129366400D01*
X108379001Y-129324345D01*
X108365158Y-129278708D01*
X108360000Y-129226342D01*
X108360000Y-128548658D01*
X108365158Y-128496292D01*
X108379001Y-128450655D01*
X108401480Y-128408600D01*
X108431735Y-128371735D01*
X108468600Y-128341480D01*
X108510655Y-128319001D01*
X108556292Y-128305158D01*
X108608658Y-128300000D01*
X109711342Y-128300000D01*
X109763708Y-128305158D01*
G37*
G36*
X147450000Y-128950000D02*
G01*
X146350000Y-128950000D01*
X146350000Y-127950000D01*
X147450000Y-127950000D01*
X147450000Y-128950000D01*
G37*
G36*
X145450000Y-128000000D02*
G01*
X144350000Y-128000000D01*
X144350000Y-127000000D01*
X145450000Y-127000000D01*
X145450000Y-128000000D01*
G37*
G36*
X109763708Y-126430158D02*
G01*
X109809345Y-126444001D01*
X109851400Y-126466480D01*
X109888265Y-126496735D01*
X109918520Y-126533600D01*
X109940999Y-126575655D01*
X109954842Y-126621292D01*
X109960000Y-126673658D01*
X109960000Y-127351342D01*
X109954842Y-127403708D01*
X109940999Y-127449345D01*
X109918520Y-127491400D01*
X109888265Y-127528265D01*
X109851400Y-127558520D01*
X109809345Y-127580999D01*
X109763708Y-127594842D01*
X109711342Y-127600000D01*
X108608658Y-127600000D01*
X108556292Y-127594842D01*
X108510655Y-127580999D01*
X108468600Y-127558520D01*
X108431735Y-127528265D01*
X108401480Y-127491400D01*
X108379001Y-127449345D01*
X108365158Y-127403708D01*
X108360000Y-127351342D01*
X108360000Y-126673658D01*
X108365158Y-126621292D01*
X108379001Y-126575655D01*
X108401480Y-126533600D01*
X108431735Y-126496735D01*
X108468600Y-126466480D01*
X108510655Y-126444001D01*
X108556292Y-126430158D01*
X108608658Y-126425000D01*
X109711342Y-126425000D01*
X109763708Y-126430158D01*
G37*
G36*
X104820856Y-125292272D02*
G01*
X105021048Y-125375194D01*
X105201208Y-125495573D01*
X105354427Y-125648792D01*
X105474806Y-125828952D01*
X105557728Y-126029144D01*
X105600000Y-126241657D01*
X105600000Y-126458343D01*
X105557728Y-126670856D01*
X105474806Y-126871048D01*
X105354427Y-127051208D01*
X105201208Y-127204427D01*
X105021048Y-127324806D01*
X104820856Y-127407728D01*
X104608343Y-127450000D01*
X104391657Y-127450000D01*
X104179144Y-127407728D01*
X103978952Y-127324806D01*
X103798792Y-127204427D01*
X103645573Y-127051208D01*
X103525194Y-126871048D01*
X103442272Y-126670856D01*
X103400000Y-126458343D01*
X103400000Y-126241657D01*
X103442272Y-126029144D01*
X103525194Y-125828952D01*
X103645573Y-125648792D01*
X103798792Y-125495573D01*
X103978952Y-125375194D01*
X104179144Y-125292272D01*
X104391657Y-125250000D01*
X104608343Y-125250000D01*
X104820856Y-125292272D01*
G37*
G36*
X122640533Y-125216319D02*
G01*
X122751689Y-125238429D01*
X122933678Y-125313811D01*
X123097463Y-125423249D01*
X123236751Y-125562537D01*
X123346189Y-125726322D01*
X123421571Y-125908311D01*
X123421571Y-125908313D01*
X123451327Y-126057903D01*
X123460000Y-126101509D01*
X123460000Y-126298491D01*
X123421571Y-126491689D01*
X123346189Y-126673678D01*
X123236751Y-126837463D01*
X123097463Y-126976751D01*
X122933678Y-127086189D01*
X122751689Y-127161571D01*
X122655090Y-127180785D01*
X122558493Y-127200000D01*
X122361507Y-127200000D01*
X122264910Y-127180785D01*
X122168311Y-127161571D01*
X121986322Y-127086189D01*
X121822537Y-126976751D01*
X121683249Y-126837463D01*
X121573811Y-126673678D01*
X121498429Y-126491689D01*
X121460000Y-126298491D01*
X121460000Y-126101509D01*
X121468674Y-126057903D01*
X121498429Y-125908313D01*
X121498429Y-125908311D01*
X121573811Y-125726322D01*
X121683249Y-125562537D01*
X121822537Y-125423249D01*
X121986322Y-125313811D01*
X122168311Y-125238429D01*
X122279467Y-125216319D01*
X122361507Y-125200000D01*
X122558493Y-125200000D01*
X122640533Y-125216319D01*
G37*
G36*
X136680533Y-125216319D02*
G01*
X136791689Y-125238429D01*
X136973678Y-125313811D01*
X137137463Y-125423249D01*
X137276751Y-125562537D01*
X137386189Y-125726322D01*
X137461571Y-125908311D01*
X137461571Y-125908313D01*
X137491327Y-126057903D01*
X137500000Y-126101509D01*
X137500000Y-126298491D01*
X137461571Y-126491689D01*
X137386189Y-126673678D01*
X137276751Y-126837463D01*
X137137463Y-126976751D01*
X136973678Y-127086189D01*
X136791689Y-127161571D01*
X136695090Y-127180785D01*
X136598493Y-127200000D01*
X136401507Y-127200000D01*
X136304910Y-127180785D01*
X136208311Y-127161571D01*
X136026322Y-127086189D01*
X135862537Y-126976751D01*
X135723249Y-126837463D01*
X135613811Y-126673678D01*
X135538429Y-126491689D01*
X135500000Y-126298491D01*
X135500000Y-126101509D01*
X135508674Y-126057903D01*
X135538429Y-125908313D01*
X135538429Y-125908311D01*
X135613811Y-125726322D01*
X135723249Y-125562537D01*
X135862537Y-125423249D01*
X136026322Y-125313811D01*
X136208311Y-125238429D01*
X136319467Y-125216319D01*
X136401507Y-125200000D01*
X136598493Y-125200000D01*
X136680533Y-125216319D01*
G37*
G36*
X125180533Y-125216319D02*
G01*
X125291689Y-125238429D01*
X125473678Y-125313811D01*
X125637463Y-125423249D01*
X125776751Y-125562537D01*
X125886189Y-125726322D01*
X125961571Y-125908311D01*
X125961571Y-125908313D01*
X125991327Y-126057903D01*
X126000000Y-126101509D01*
X126000000Y-126298491D01*
X125961571Y-126491689D01*
X125886189Y-126673678D01*
X125776751Y-126837463D01*
X125637463Y-126976751D01*
X125473678Y-127086189D01*
X125291689Y-127161571D01*
X125195090Y-127180785D01*
X125098493Y-127200000D01*
X124901507Y-127200000D01*
X124804910Y-127180785D01*
X124708311Y-127161571D01*
X124526322Y-127086189D01*
X124362537Y-126976751D01*
X124223249Y-126837463D01*
X124113811Y-126673678D01*
X124038429Y-126491689D01*
X124000000Y-126298491D01*
X124000000Y-126101509D01*
X124008674Y-126057903D01*
X124038429Y-125908313D01*
X124038429Y-125908311D01*
X124113811Y-125726322D01*
X124223249Y-125562537D01*
X124362537Y-125423249D01*
X124526322Y-125313811D01*
X124708311Y-125238429D01*
X124819467Y-125216319D01*
X124901507Y-125200000D01*
X125098493Y-125200000D01*
X125180533Y-125216319D01*
G37*
G36*
X134140533Y-125216319D02*
G01*
X134251689Y-125238429D01*
X134433678Y-125313811D01*
X134597463Y-125423249D01*
X134736751Y-125562537D01*
X134846189Y-125726322D01*
X134921571Y-125908311D01*
X134921571Y-125908313D01*
X134951327Y-126057903D01*
X134960000Y-126101509D01*
X134960000Y-126298491D01*
X134921571Y-126491689D01*
X134846189Y-126673678D01*
X134736751Y-126837463D01*
X134597463Y-126976751D01*
X134433678Y-127086189D01*
X134251689Y-127161571D01*
X134155090Y-127180785D01*
X134058493Y-127200000D01*
X133861507Y-127200000D01*
X133764910Y-127180785D01*
X133668311Y-127161571D01*
X133486322Y-127086189D01*
X133322537Y-126976751D01*
X133183249Y-126837463D01*
X133073811Y-126673678D01*
X132998429Y-126491689D01*
X132960000Y-126298491D01*
X132960000Y-126101509D01*
X132968674Y-126057903D01*
X132998429Y-125908313D01*
X132998429Y-125908311D01*
X133073811Y-125726322D01*
X133183249Y-125562537D01*
X133322537Y-125423249D01*
X133486322Y-125313811D01*
X133668311Y-125238429D01*
X133779467Y-125216319D01*
X133861507Y-125200000D01*
X134058493Y-125200000D01*
X134140533Y-125216319D01*
G37*
G36*
X147450000Y-127050000D02*
G01*
X146350000Y-127050000D01*
X146350000Y-126050000D01*
X147450000Y-126050000D01*
X147450000Y-127050000D01*
G37*
G36*
X109558832Y-125004678D02*
G01*
X109599774Y-125017097D01*
X109637512Y-125037269D01*
X109670588Y-125064412D01*
X109697731Y-125097488D01*
X109717903Y-125135226D01*
X109730322Y-125176168D01*
X109735000Y-125223658D01*
X109735000Y-125851342D01*
X109730322Y-125898832D01*
X109717903Y-125939774D01*
X109697731Y-125977512D01*
X109670588Y-126010588D01*
X109637512Y-126037731D01*
X109599774Y-126057903D01*
X109558832Y-126070322D01*
X109511342Y-126075000D01*
X108808658Y-126075000D01*
X108761168Y-126070322D01*
X108720226Y-126057903D01*
X108682488Y-126037731D01*
X108649412Y-126010588D01*
X108622269Y-125977512D01*
X108602097Y-125939774D01*
X108589678Y-125898832D01*
X108585000Y-125851342D01*
X108585000Y-125223658D01*
X108589678Y-125176168D01*
X108602097Y-125135226D01*
X108622269Y-125097488D01*
X108649412Y-125064412D01*
X108682488Y-125037269D01*
X108720226Y-125017097D01*
X108761168Y-125004678D01*
X108808658Y-125000000D01*
X109511342Y-125000000D01*
X109558832Y-125004678D01*
G37*
G36*
X147450000Y-125450000D02*
G01*
X146350000Y-125450000D01*
X146350000Y-124450000D01*
X147450000Y-124450000D01*
X147450000Y-125450000D01*
G37*
G36*
X115810000Y-125300000D02*
G01*
X112310000Y-125300000D01*
X112310000Y-122600000D01*
X115810000Y-122600000D01*
X115810000Y-125300000D01*
G37*
G36*
X137965090Y-122679214D02*
G01*
X138061689Y-122698429D01*
X138243678Y-122773811D01*
X138407463Y-122883249D01*
X138546751Y-123022537D01*
X138656189Y-123186322D01*
X138731571Y-123368311D01*
X138743874Y-123430164D01*
X138762239Y-123522488D01*
X138770000Y-123561509D01*
X138770000Y-123758491D01*
X138731571Y-123951689D01*
X138656189Y-124133678D01*
X138546751Y-124297463D01*
X138407463Y-124436751D01*
X138243678Y-124546189D01*
X138061689Y-124621571D01*
X137965090Y-124640785D01*
X137868493Y-124660000D01*
X137671507Y-124660000D01*
X137574910Y-124640785D01*
X137478311Y-124621571D01*
X137296322Y-124546189D01*
X137132537Y-124436751D01*
X136993249Y-124297463D01*
X136883811Y-124133678D01*
X136808429Y-123951689D01*
X136770000Y-123758491D01*
X136770000Y-123561509D01*
X136777762Y-123522488D01*
X136796126Y-123430164D01*
X136808429Y-123368311D01*
X136883811Y-123186322D01*
X136993249Y-123022537D01*
X137132537Y-122883249D01*
X137296322Y-122773811D01*
X137478311Y-122698429D01*
X137574910Y-122679214D01*
X137671507Y-122660000D01*
X137868493Y-122660000D01*
X137965090Y-122679214D01*
G37*
G36*
X135425090Y-122679214D02*
G01*
X135521689Y-122698429D01*
X135703678Y-122773811D01*
X135867463Y-122883249D01*
X136006751Y-123022537D01*
X136116189Y-123186322D01*
X136191571Y-123368311D01*
X136203874Y-123430164D01*
X136222239Y-123522488D01*
X136230000Y-123561509D01*
X136230000Y-123758491D01*
X136191571Y-123951689D01*
X136116189Y-124133678D01*
X136006751Y-124297463D01*
X135867463Y-124436751D01*
X135703678Y-124546189D01*
X135521689Y-124621571D01*
X135425090Y-124640785D01*
X135328493Y-124660000D01*
X135131507Y-124660000D01*
X135034910Y-124640785D01*
X134938311Y-124621571D01*
X134756322Y-124546189D01*
X134592537Y-124436751D01*
X134453249Y-124297463D01*
X134343811Y-124133678D01*
X134268429Y-123951689D01*
X134230000Y-123758491D01*
X134230000Y-123561509D01*
X134237762Y-123522488D01*
X134256126Y-123430164D01*
X134268429Y-123368311D01*
X134343811Y-123186322D01*
X134453249Y-123022537D01*
X134592537Y-122883249D01*
X134756322Y-122773811D01*
X134938311Y-122698429D01*
X135034910Y-122679214D01*
X135131507Y-122660000D01*
X135328493Y-122660000D01*
X135425090Y-122679214D01*
G37*
G36*
X126465090Y-122679214D02*
G01*
X126561689Y-122698429D01*
X126743678Y-122773811D01*
X126907463Y-122883249D01*
X127046751Y-123022537D01*
X127156189Y-123186322D01*
X127231571Y-123368311D01*
X127243874Y-123430164D01*
X127262239Y-123522488D01*
X127270000Y-123561509D01*
X127270000Y-123758491D01*
X127231571Y-123951689D01*
X127156189Y-124133678D01*
X127046751Y-124297463D01*
X126907463Y-124436751D01*
X126743678Y-124546189D01*
X126561689Y-124621571D01*
X126465090Y-124640785D01*
X126368493Y-124660000D01*
X126171507Y-124660000D01*
X126074910Y-124640785D01*
X125978311Y-124621571D01*
X125796322Y-124546189D01*
X125632537Y-124436751D01*
X125493249Y-124297463D01*
X125383811Y-124133678D01*
X125308429Y-123951689D01*
X125270000Y-123758491D01*
X125270000Y-123561509D01*
X125277762Y-123522488D01*
X125296126Y-123430164D01*
X125308429Y-123368311D01*
X125383811Y-123186322D01*
X125493249Y-123022537D01*
X125632537Y-122883249D01*
X125796322Y-122773811D01*
X125978311Y-122698429D01*
X126074910Y-122679214D01*
X126171507Y-122660000D01*
X126368493Y-122660000D01*
X126465090Y-122679214D01*
G37*
G36*
X123925090Y-122679214D02*
G01*
X124021689Y-122698429D01*
X124203678Y-122773811D01*
X124367463Y-122883249D01*
X124506751Y-123022537D01*
X124616189Y-123186322D01*
X124691571Y-123368311D01*
X124703874Y-123430164D01*
X124722239Y-123522488D01*
X124730000Y-123561509D01*
X124730000Y-123758491D01*
X124691571Y-123951689D01*
X124616189Y-124133678D01*
X124506751Y-124297463D01*
X124367463Y-124436751D01*
X124203678Y-124546189D01*
X124021689Y-124621571D01*
X123925090Y-124640785D01*
X123828493Y-124660000D01*
X123631507Y-124660000D01*
X123534910Y-124640785D01*
X123438311Y-124621571D01*
X123256322Y-124546189D01*
X123092537Y-124436751D01*
X122953249Y-124297463D01*
X122843811Y-124133678D01*
X122768429Y-123951689D01*
X122730000Y-123758491D01*
X122730000Y-123561509D01*
X122737762Y-123522488D01*
X122756126Y-123430164D01*
X122768429Y-123368311D01*
X122843811Y-123186322D01*
X122953249Y-123022537D01*
X123092537Y-122883249D01*
X123256322Y-122773811D01*
X123438311Y-122698429D01*
X123534910Y-122679214D01*
X123631507Y-122660000D01*
X123828493Y-122660000D01*
X123925090Y-122679214D01*
G37*
G36*
X145450000Y-124500000D02*
G01*
X144350000Y-124500000D01*
X144350000Y-123500000D01*
X145450000Y-123500000D01*
X145450000Y-124500000D01*
G37*
G36*
X109558832Y-123429678D02*
G01*
X109599774Y-123442097D01*
X109637512Y-123462269D01*
X109670588Y-123489412D01*
X109697731Y-123522488D01*
X109717903Y-123560226D01*
X109730322Y-123601168D01*
X109735000Y-123648658D01*
X109735000Y-124276342D01*
X109730322Y-124323832D01*
X109717903Y-124364774D01*
X109697731Y-124402512D01*
X109670588Y-124435588D01*
X109637512Y-124462731D01*
X109599774Y-124482903D01*
X109558832Y-124495322D01*
X109511342Y-124500000D01*
X108808658Y-124500000D01*
X108761168Y-124495322D01*
X108720226Y-124482903D01*
X108682488Y-124462731D01*
X108649412Y-124435588D01*
X108622269Y-124402512D01*
X108602097Y-124364774D01*
X108589678Y-124323832D01*
X108585000Y-124276342D01*
X108585000Y-123648658D01*
X108589678Y-123601168D01*
X108602097Y-123560226D01*
X108622269Y-123522488D01*
X108649412Y-123489412D01*
X108682488Y-123462269D01*
X108720226Y-123442097D01*
X108761168Y-123429678D01*
X108808658Y-123425000D01*
X109511342Y-123425000D01*
X109558832Y-123429678D01*
G37*
G36*
X104762520Y-121834586D02*
G01*
X104762522Y-121834587D01*
X104762523Y-121834587D01*
X104823025Y-121859648D01*
X104926310Y-121902430D01*
X105073717Y-122000924D01*
X105199076Y-122126283D01*
X105297570Y-122273690D01*
X105365414Y-122437480D01*
X105400000Y-122611358D01*
X105400000Y-122788642D01*
X105365414Y-122962520D01*
X105297570Y-123126310D01*
X105199076Y-123273717D01*
X105073717Y-123399076D01*
X104926310Y-123497570D01*
X104823025Y-123540352D01*
X104762523Y-123565413D01*
X104762522Y-123565413D01*
X104762520Y-123565414D01*
X104588642Y-123600000D01*
X104411358Y-123600000D01*
X104237480Y-123565414D01*
X104237478Y-123565413D01*
X104237477Y-123565413D01*
X104176975Y-123540352D01*
X104073690Y-123497570D01*
X103926283Y-123399076D01*
X103800924Y-123273717D01*
X103702430Y-123126310D01*
X103634586Y-122962520D01*
X103600000Y-122788642D01*
X103600000Y-122611358D01*
X103634586Y-122437480D01*
X103702430Y-122273690D01*
X103800924Y-122126283D01*
X103926283Y-122000924D01*
X104073690Y-121902430D01*
X104176975Y-121859648D01*
X104237477Y-121834587D01*
X104237478Y-121834587D01*
X104237480Y-121834586D01*
X104411358Y-121800000D01*
X104588642Y-121800000D01*
X104762520Y-121834586D01*
G37*
G36*
X102762520Y-121834586D02*
G01*
X102762522Y-121834587D01*
X102762523Y-121834587D01*
X102823025Y-121859648D01*
X102926310Y-121902430D01*
X103073717Y-122000924D01*
X103199076Y-122126283D01*
X103297570Y-122273690D01*
X103365414Y-122437480D01*
X103400000Y-122611358D01*
X103400000Y-122788642D01*
X103365414Y-122962520D01*
X103297570Y-123126310D01*
X103199076Y-123273717D01*
X103073717Y-123399076D01*
X102926310Y-123497570D01*
X102823025Y-123540352D01*
X102762523Y-123565413D01*
X102762522Y-123565413D01*
X102762520Y-123565414D01*
X102588642Y-123600000D01*
X102411358Y-123600000D01*
X102237480Y-123565414D01*
X102237478Y-123565413D01*
X102237477Y-123565413D01*
X102176975Y-123540352D01*
X102073690Y-123497570D01*
X101926283Y-123399076D01*
X101800924Y-123273717D01*
X101702430Y-123126310D01*
X101634586Y-122962520D01*
X101600000Y-122788642D01*
X101600000Y-122611358D01*
X101634586Y-122437480D01*
X101702430Y-122273690D01*
X101800924Y-122126283D01*
X101926283Y-122000924D01*
X102073690Y-121902430D01*
X102176975Y-121859648D01*
X102237477Y-121834587D01*
X102237478Y-121834587D01*
X102237480Y-121834586D01*
X102411358Y-121800000D01*
X102588642Y-121800000D01*
X102762520Y-121834586D01*
G37*
G36*
X153300000Y-123600000D02*
G01*
X152100000Y-123600000D01*
X152100000Y-121700000D01*
X153300000Y-121700000D01*
X153300000Y-123600000D01*
G37*
G36*
X149500000Y-123600000D02*
G01*
X148300000Y-123600000D01*
X148300000Y-121700000D01*
X149500000Y-121700000D01*
X149500000Y-123600000D01*
G37*
G36*
X159300000Y-123600000D02*
G01*
X158100000Y-123600000D01*
X158100000Y-121700000D01*
X159300000Y-121700000D01*
X159300000Y-123600000D01*
G37*
G36*
X155500000Y-123600000D02*
G01*
X154300000Y-123600000D01*
X154300000Y-121700000D01*
X155500000Y-121700000D01*
X155500000Y-123600000D01*
G37*
G36*
X147450000Y-123550000D02*
G01*
X146350000Y-123550000D01*
X146350000Y-122550000D01*
X147450000Y-122550000D01*
X147450000Y-123550000D01*
G37*
G36*
X164281072Y-120533431D02*
G01*
X164456436Y-120606069D01*
X164456437Y-120606070D01*
X164614258Y-120711522D01*
X164748478Y-120845742D01*
X164790444Y-120908549D01*
X164853931Y-121003564D01*
X164926569Y-121178928D01*
X164963600Y-121365094D01*
X164963600Y-121554906D01*
X164926569Y-121741072D01*
X164853931Y-121916436D01*
X164748477Y-122074259D01*
X164614259Y-122208477D01*
X164456436Y-122313931D01*
X164281072Y-122386569D01*
X164094906Y-122423600D01*
X163905094Y-122423600D01*
X163718928Y-122386569D01*
X163543564Y-122313931D01*
X163385741Y-122208477D01*
X163251523Y-122074259D01*
X163146069Y-121916436D01*
X163073431Y-121741072D01*
X163036400Y-121554906D01*
X163036400Y-121365094D01*
X163073431Y-121178928D01*
X163146069Y-121003564D01*
X163209556Y-120908549D01*
X163251522Y-120845742D01*
X163385742Y-120711522D01*
X163543563Y-120606070D01*
X163543564Y-120606069D01*
X163718928Y-120533431D01*
X163905094Y-120496400D01*
X164094906Y-120496400D01*
X164281072Y-120533431D01*
G37*
G36*
X166821072Y-120533431D02*
G01*
X166996436Y-120606069D01*
X166996437Y-120606070D01*
X167154258Y-120711522D01*
X167288478Y-120845742D01*
X167330444Y-120908549D01*
X167393931Y-121003564D01*
X167466569Y-121178928D01*
X167503600Y-121365094D01*
X167503600Y-121554906D01*
X167466569Y-121741072D01*
X167393931Y-121916436D01*
X167288477Y-122074259D01*
X167154259Y-122208477D01*
X166996436Y-122313931D01*
X166821072Y-122386569D01*
X166634906Y-122423600D01*
X166445094Y-122423600D01*
X166258928Y-122386569D01*
X166083564Y-122313931D01*
X165925741Y-122208477D01*
X165791523Y-122074259D01*
X165686069Y-121916436D01*
X165613431Y-121741072D01*
X165576400Y-121554906D01*
X165576400Y-121365094D01*
X165613431Y-121178928D01*
X165686069Y-121003564D01*
X165749556Y-120908549D01*
X165791522Y-120845742D01*
X165925742Y-120711522D01*
X166083563Y-120606070D01*
X166083564Y-120606069D01*
X166258928Y-120533431D01*
X166445094Y-120496400D01*
X166634906Y-120496400D01*
X166821072Y-120533431D01*
G37*
G36*
X118530108Y-120483558D02*
G01*
X118575745Y-120497401D01*
X118617800Y-120519880D01*
X118654665Y-120550135D01*
X118684920Y-120587000D01*
X118707399Y-120629055D01*
X118721242Y-120674692D01*
X118726400Y-120727058D01*
X118726400Y-121404742D01*
X118721242Y-121457108D01*
X118707399Y-121502745D01*
X118684920Y-121544800D01*
X118654665Y-121581665D01*
X118617800Y-121611920D01*
X118575745Y-121634399D01*
X118530108Y-121648242D01*
X118477742Y-121653400D01*
X117375058Y-121653400D01*
X117322692Y-121648242D01*
X117277055Y-121634399D01*
X117235000Y-121611920D01*
X117198135Y-121581665D01*
X117167880Y-121544800D01*
X117145401Y-121502745D01*
X117131558Y-121457108D01*
X117126400Y-121404742D01*
X117126400Y-120727058D01*
X117131558Y-120674692D01*
X117145401Y-120629055D01*
X117167880Y-120587000D01*
X117198135Y-120550135D01*
X117235000Y-120519880D01*
X117277055Y-120497401D01*
X117322692Y-120483558D01*
X117375058Y-120478400D01*
X118477742Y-120478400D01*
X118530108Y-120483558D01*
G37*
G36*
X112992908Y-120432758D02*
G01*
X113038545Y-120446601D01*
X113080600Y-120469080D01*
X113117465Y-120499335D01*
X113147720Y-120536200D01*
X113170199Y-120578255D01*
X113184042Y-120623892D01*
X113189200Y-120676258D01*
X113189200Y-121353942D01*
X113184042Y-121406308D01*
X113170199Y-121451945D01*
X113147720Y-121494000D01*
X113117465Y-121530865D01*
X113080600Y-121561120D01*
X113038545Y-121583599D01*
X112992908Y-121597442D01*
X112940542Y-121602600D01*
X111837858Y-121602600D01*
X111785492Y-121597442D01*
X111739855Y-121583599D01*
X111697800Y-121561120D01*
X111660935Y-121530865D01*
X111630680Y-121494000D01*
X111608201Y-121451945D01*
X111594358Y-121406308D01*
X111589200Y-121353942D01*
X111589200Y-120676258D01*
X111594358Y-120623892D01*
X111608201Y-120578255D01*
X111630680Y-120536200D01*
X111660935Y-120499335D01*
X111697800Y-120469080D01*
X111739855Y-120446601D01*
X111785492Y-120432758D01*
X111837858Y-120427600D01*
X112940542Y-120427600D01*
X112992908Y-120432758D01*
G37*
G36*
X116687500Y-121550000D02*
G01*
X115587500Y-121550000D01*
X115587500Y-120550000D01*
X116687500Y-120550000D01*
X116687500Y-121550000D01*
G37*
G36*
X140320856Y-119375472D02*
G01*
X140521048Y-119458394D01*
X140701208Y-119578773D01*
X140854427Y-119731992D01*
X140974806Y-119912152D01*
X141057728Y-120112344D01*
X141100000Y-120324857D01*
X141100000Y-120541543D01*
X141057728Y-120754056D01*
X140974806Y-120954248D01*
X140854427Y-121134408D01*
X140701208Y-121287627D01*
X140521048Y-121408006D01*
X140320856Y-121490928D01*
X140108343Y-121533200D01*
X139891657Y-121533200D01*
X139679144Y-121490928D01*
X139478952Y-121408006D01*
X139298792Y-121287627D01*
X139145573Y-121134408D01*
X139025194Y-120954248D01*
X138942272Y-120754056D01*
X138900000Y-120541543D01*
X138900000Y-120324857D01*
X138942272Y-120112344D01*
X139025194Y-119912152D01*
X139145573Y-119731992D01*
X139298792Y-119578773D01*
X139478952Y-119458394D01*
X139679144Y-119375472D01*
X139891657Y-119333200D01*
X140108343Y-119333200D01*
X140320856Y-119375472D01*
G37*
G36*
X125948832Y-119829678D02*
G01*
X125989774Y-119842097D01*
X126027512Y-119862269D01*
X126060588Y-119889412D01*
X126087731Y-119922488D01*
X126107903Y-119960226D01*
X126120322Y-120001168D01*
X126125000Y-120048658D01*
X126125000Y-120751342D01*
X126120322Y-120798832D01*
X126107903Y-120839774D01*
X126087731Y-120877512D01*
X126060588Y-120910588D01*
X126027512Y-120937731D01*
X125989774Y-120957903D01*
X125948832Y-120970322D01*
X125901342Y-120975000D01*
X125273658Y-120975000D01*
X125226168Y-120970322D01*
X125185226Y-120957903D01*
X125147488Y-120937731D01*
X125114412Y-120910588D01*
X125087269Y-120877512D01*
X125067097Y-120839774D01*
X125054678Y-120798832D01*
X125050000Y-120751342D01*
X125050000Y-120048658D01*
X125054678Y-120001168D01*
X125067097Y-119960226D01*
X125087269Y-119922488D01*
X125114412Y-119889412D01*
X125147488Y-119862269D01*
X125185226Y-119842097D01*
X125226168Y-119829678D01*
X125273658Y-119825000D01*
X125901342Y-119825000D01*
X125948832Y-119829678D01*
G37*
G36*
X124373832Y-119829678D02*
G01*
X124414774Y-119842097D01*
X124452512Y-119862269D01*
X124485588Y-119889412D01*
X124512731Y-119922488D01*
X124532903Y-119960226D01*
X124545322Y-120001168D01*
X124550000Y-120048658D01*
X124550000Y-120751342D01*
X124545322Y-120798832D01*
X124532903Y-120839774D01*
X124512731Y-120877512D01*
X124485588Y-120910588D01*
X124452512Y-120937731D01*
X124414774Y-120957903D01*
X124373832Y-120970322D01*
X124326342Y-120975000D01*
X123698658Y-120975000D01*
X123651168Y-120970322D01*
X123610226Y-120957903D01*
X123572488Y-120937731D01*
X123539412Y-120910588D01*
X123512269Y-120877512D01*
X123492097Y-120839774D01*
X123479678Y-120798832D01*
X123475000Y-120751342D01*
X123475000Y-120048658D01*
X123479678Y-120001168D01*
X123492097Y-119960226D01*
X123512269Y-119922488D01*
X123539412Y-119889412D01*
X123572488Y-119862269D01*
X123610226Y-119842097D01*
X123651168Y-119829678D01*
X123698658Y-119825000D01*
X124326342Y-119825000D01*
X124373832Y-119829678D01*
G37*
G36*
X122364081Y-118275903D02*
G01*
X122369603Y-118276447D01*
X122379028Y-118279306D01*
X122388455Y-118282165D01*
X122405825Y-118291449D01*
X122421053Y-118303947D01*
X122433551Y-118319175D01*
X122442835Y-118336545D01*
X122448553Y-118355398D01*
X122450968Y-118379910D01*
X122450968Y-119520090D01*
X122450484Y-119525000D01*
X122448814Y-119541958D01*
X122448553Y-119544602D01*
X122442835Y-119563455D01*
X122433551Y-119580825D01*
X122421053Y-119596053D01*
X122419052Y-119597695D01*
X122405191Y-119611556D01*
X122394300Y-119627856D01*
X122386798Y-119645967D01*
X122382974Y-119665193D01*
X122382974Y-119684797D01*
X122386798Y-119704023D01*
X122394300Y-119722134D01*
X122405191Y-119738434D01*
X122419134Y-119752362D01*
X122420979Y-119753873D01*
X122433491Y-119769087D01*
X122433494Y-119769091D01*
X122436087Y-119773931D01*
X122442795Y-119786449D01*
X122448533Y-119805293D01*
X122450484Y-119825000D01*
X122450484Y-119825050D01*
X122450968Y-119829937D01*
X122450968Y-120820090D01*
X122450484Y-120825000D01*
X122448553Y-120844603D01*
X122445694Y-120854028D01*
X122442835Y-120863455D01*
X122433551Y-120880825D01*
X122421053Y-120896053D01*
X122405825Y-120908551D01*
X122388455Y-120917835D01*
X122379028Y-120920694D01*
X122369603Y-120923553D01*
X122364081Y-120924097D01*
X122345090Y-120925968D01*
X120854910Y-120925968D01*
X120835919Y-120924097D01*
X120830397Y-120923553D01*
X120820972Y-120920694D01*
X120811545Y-120917835D01*
X120794175Y-120908551D01*
X120778947Y-120896053D01*
X120766449Y-120880825D01*
X120757165Y-120863455D01*
X120754306Y-120854028D01*
X120751447Y-120844603D01*
X120749516Y-120825000D01*
X120749032Y-120820090D01*
X120749032Y-119829910D01*
X120751447Y-119805398D01*
X120757165Y-119786545D01*
X120766449Y-119769175D01*
X120778929Y-119753969D01*
X120778947Y-119753947D01*
X120780967Y-119752291D01*
X120794795Y-119738476D01*
X120805694Y-119722182D01*
X120813205Y-119704074D01*
X120817039Y-119684850D01*
X120817048Y-119665247D01*
X120813233Y-119646018D01*
X120805741Y-119627903D01*
X120794858Y-119611598D01*
X120781046Y-119597766D01*
X120778873Y-119595979D01*
X120766392Y-119580738D01*
X120758811Y-119566519D01*
X120757124Y-119563355D01*
X120751419Y-119544477D01*
X120749032Y-119520109D01*
X120749032Y-118379910D01*
X120751447Y-118355398D01*
X120757165Y-118336545D01*
X120766449Y-118319175D01*
X120778947Y-118303947D01*
X120794175Y-118291449D01*
X120811545Y-118282165D01*
X120820972Y-118279306D01*
X120830397Y-118276447D01*
X120835919Y-118275903D01*
X120854910Y-118274032D01*
X122345090Y-118274032D01*
X122364081Y-118275903D01*
G37*
G36*
X134075000Y-120705000D02*
G01*
X132325000Y-120705000D01*
X132325000Y-119905000D01*
X134075000Y-119905000D01*
X134075000Y-120705000D01*
G37*
G36*
X128675000Y-120705000D02*
G01*
X126925000Y-120705000D01*
X126925000Y-119905000D01*
X128675000Y-119905000D01*
X128675000Y-120705000D01*
G37*
G36*
X114687500Y-120600000D02*
G01*
X113587500Y-120600000D01*
X113587500Y-119600000D01*
X114687500Y-119600000D01*
X114687500Y-120600000D01*
G37*
G36*
X136956832Y-119354878D02*
G01*
X136997774Y-119367297D01*
X137035512Y-119387469D01*
X137068588Y-119414612D01*
X137095731Y-119447688D01*
X137115903Y-119485426D01*
X137128322Y-119526368D01*
X137133000Y-119573858D01*
X137133000Y-120276542D01*
X137128322Y-120324032D01*
X137115903Y-120364974D01*
X137095731Y-120402712D01*
X137068588Y-120435788D01*
X137035512Y-120462931D01*
X136997774Y-120483103D01*
X136956832Y-120495522D01*
X136909342Y-120500200D01*
X136281658Y-120500200D01*
X136234168Y-120495522D01*
X136193226Y-120483103D01*
X136155488Y-120462931D01*
X136122412Y-120435788D01*
X136095269Y-120402712D01*
X136075097Y-120364974D01*
X136062678Y-120324032D01*
X136058000Y-120276542D01*
X136058000Y-119573858D01*
X136062678Y-119526368D01*
X136075097Y-119485426D01*
X136095269Y-119447688D01*
X136122412Y-119414612D01*
X136155488Y-119387469D01*
X136193226Y-119367297D01*
X136234168Y-119354878D01*
X136281658Y-119350200D01*
X136909342Y-119350200D01*
X136956832Y-119354878D01*
G37*
G36*
X135381832Y-119354878D02*
G01*
X135422774Y-119367297D01*
X135460512Y-119387469D01*
X135493588Y-119414612D01*
X135520731Y-119447688D01*
X135540903Y-119485426D01*
X135553322Y-119526368D01*
X135558000Y-119573858D01*
X135558000Y-120276542D01*
X135553322Y-120324032D01*
X135540903Y-120364974D01*
X135520731Y-120402712D01*
X135493588Y-120435788D01*
X135460512Y-120462931D01*
X135422774Y-120483103D01*
X135381832Y-120495522D01*
X135334342Y-120500200D01*
X134706658Y-120500200D01*
X134659168Y-120495522D01*
X134618226Y-120483103D01*
X134580488Y-120462931D01*
X134547412Y-120435788D01*
X134520269Y-120402712D01*
X134500097Y-120364974D01*
X134487678Y-120324032D01*
X134483000Y-120276542D01*
X134483000Y-119573858D01*
X134487678Y-119526368D01*
X134500097Y-119485426D01*
X134520269Y-119447688D01*
X134547412Y-119414612D01*
X134580488Y-119387469D01*
X134618226Y-119367297D01*
X134659168Y-119354878D01*
X134706658Y-119350200D01*
X135334342Y-119350200D01*
X135381832Y-119354878D01*
G37*
G36*
X109048908Y-118469958D02*
G01*
X109094545Y-118483801D01*
X109136600Y-118506280D01*
X109173465Y-118536535D01*
X109203720Y-118573400D01*
X109226199Y-118615455D01*
X109240042Y-118661092D01*
X109245200Y-118713458D01*
X109245200Y-119816142D01*
X109240042Y-119868508D01*
X109226199Y-119914145D01*
X109203720Y-119956200D01*
X109173465Y-119993065D01*
X109136600Y-120023320D01*
X109094545Y-120045799D01*
X109048908Y-120059642D01*
X108996542Y-120064800D01*
X108318858Y-120064800D01*
X108266492Y-120059642D01*
X108220855Y-120045799D01*
X108178800Y-120023320D01*
X108141935Y-119993065D01*
X108111680Y-119956200D01*
X108089201Y-119914145D01*
X108075358Y-119868508D01*
X108070200Y-119816142D01*
X108070200Y-118713458D01*
X108075358Y-118661092D01*
X108089201Y-118615455D01*
X108111680Y-118573400D01*
X108141935Y-118536535D01*
X108178800Y-118506280D01*
X108220855Y-118483801D01*
X108266492Y-118469958D01*
X108318858Y-118464800D01*
X108996542Y-118464800D01*
X109048908Y-118469958D01*
G37*
G36*
X110923908Y-118469958D02*
G01*
X110969545Y-118483801D01*
X111011600Y-118506280D01*
X111048465Y-118536535D01*
X111078720Y-118573400D01*
X111101199Y-118615455D01*
X111115042Y-118661092D01*
X111120200Y-118713458D01*
X111120200Y-119816142D01*
X111115042Y-119868508D01*
X111101199Y-119914145D01*
X111078720Y-119956200D01*
X111048465Y-119993065D01*
X111011600Y-120023320D01*
X110969545Y-120045799D01*
X110923908Y-120059642D01*
X110871542Y-120064800D01*
X110193858Y-120064800D01*
X110141492Y-120059642D01*
X110095855Y-120045799D01*
X110053800Y-120023320D01*
X110016935Y-119993065D01*
X109986680Y-119956200D01*
X109964201Y-119914145D01*
X109950358Y-119868508D01*
X109945200Y-119816142D01*
X109945200Y-118713458D01*
X109950358Y-118661092D01*
X109964201Y-118615455D01*
X109986680Y-118573400D01*
X110016935Y-118536535D01*
X110053800Y-118506280D01*
X110095855Y-118483801D01*
X110141492Y-118469958D01*
X110193858Y-118464800D01*
X110871542Y-118464800D01*
X110923908Y-118469958D01*
G37*
G36*
X166821072Y-117993431D02*
G01*
X166996436Y-118066069D01*
X166996437Y-118066070D01*
X167154258Y-118171522D01*
X167288478Y-118305742D01*
X167309060Y-118336545D01*
X167393931Y-118463564D01*
X167466569Y-118638928D01*
X167503600Y-118825094D01*
X167503600Y-119014906D01*
X167466569Y-119201072D01*
X167393931Y-119376436D01*
X167367789Y-119415560D01*
X167288478Y-119534258D01*
X167154258Y-119668478D01*
X167099239Y-119705240D01*
X166996436Y-119773931D01*
X166821072Y-119846569D01*
X166634906Y-119883600D01*
X166445094Y-119883600D01*
X166258928Y-119846569D01*
X166083564Y-119773931D01*
X165980761Y-119705240D01*
X165925742Y-119668478D01*
X165791522Y-119534258D01*
X165712211Y-119415560D01*
X165686069Y-119376436D01*
X165613431Y-119201072D01*
X165576400Y-119014906D01*
X165576400Y-118825094D01*
X165613431Y-118638928D01*
X165686069Y-118463564D01*
X165770940Y-118336545D01*
X165791522Y-118305742D01*
X165925742Y-118171522D01*
X166083563Y-118066070D01*
X166083564Y-118066069D01*
X166258928Y-117993431D01*
X166445094Y-117956400D01*
X166634906Y-117956400D01*
X166821072Y-117993431D01*
G37*
G36*
X164281072Y-117993431D02*
G01*
X164456436Y-118066069D01*
X164456437Y-118066070D01*
X164614258Y-118171522D01*
X164748478Y-118305742D01*
X164769060Y-118336545D01*
X164853931Y-118463564D01*
X164926569Y-118638928D01*
X164963600Y-118825094D01*
X164963600Y-119014906D01*
X164926569Y-119201072D01*
X164853931Y-119376436D01*
X164827789Y-119415560D01*
X164748478Y-119534258D01*
X164614258Y-119668478D01*
X164559239Y-119705240D01*
X164456436Y-119773931D01*
X164281072Y-119846569D01*
X164094906Y-119883600D01*
X163905094Y-119883600D01*
X163718928Y-119846569D01*
X163543564Y-119773931D01*
X163440761Y-119705240D01*
X163385742Y-119668478D01*
X163251522Y-119534258D01*
X163172211Y-119415560D01*
X163146069Y-119376436D01*
X163073431Y-119201072D01*
X163036400Y-119014906D01*
X163036400Y-118825094D01*
X163073431Y-118638928D01*
X163146069Y-118463564D01*
X163230940Y-118336545D01*
X163251522Y-118305742D01*
X163385742Y-118171522D01*
X163543563Y-118066070D01*
X163543564Y-118066069D01*
X163718928Y-117993431D01*
X163905094Y-117956400D01*
X164094906Y-117956400D01*
X164281072Y-117993431D01*
G37*
G36*
X118530108Y-118608558D02*
G01*
X118575745Y-118622401D01*
X118617800Y-118644880D01*
X118654665Y-118675135D01*
X118684920Y-118712000D01*
X118707399Y-118754055D01*
X118721242Y-118799692D01*
X118726400Y-118852058D01*
X118726400Y-119529742D01*
X118721242Y-119582108D01*
X118707399Y-119627745D01*
X118684920Y-119669800D01*
X118654665Y-119706665D01*
X118617800Y-119736920D01*
X118575745Y-119759399D01*
X118530108Y-119773242D01*
X118477742Y-119778400D01*
X117375058Y-119778400D01*
X117322692Y-119773242D01*
X117277055Y-119759399D01*
X117235000Y-119736920D01*
X117198135Y-119706665D01*
X117167880Y-119669800D01*
X117145401Y-119627745D01*
X117131558Y-119582108D01*
X117126400Y-119529742D01*
X117126400Y-118852058D01*
X117131558Y-118799692D01*
X117145401Y-118754055D01*
X117167880Y-118712000D01*
X117198135Y-118675135D01*
X117235000Y-118644880D01*
X117277055Y-118622401D01*
X117322692Y-118608558D01*
X117375058Y-118603400D01*
X118477742Y-118603400D01*
X118530108Y-118608558D01*
G37*
G36*
X112992908Y-118557758D02*
G01*
X113038545Y-118571601D01*
X113080600Y-118594080D01*
X113117465Y-118624335D01*
X113147720Y-118661200D01*
X113170199Y-118703255D01*
X113184042Y-118748892D01*
X113189200Y-118801258D01*
X113189200Y-119478942D01*
X113184042Y-119531308D01*
X113170199Y-119576945D01*
X113147720Y-119619000D01*
X113117465Y-119655865D01*
X113080600Y-119686120D01*
X113038545Y-119708599D01*
X112992908Y-119722442D01*
X112940542Y-119727600D01*
X111837858Y-119727600D01*
X111785492Y-119722442D01*
X111739855Y-119708599D01*
X111697800Y-119686120D01*
X111660935Y-119655865D01*
X111630680Y-119619000D01*
X111608201Y-119576945D01*
X111594358Y-119531308D01*
X111589200Y-119478942D01*
X111589200Y-118801258D01*
X111594358Y-118748892D01*
X111608201Y-118703255D01*
X111630680Y-118661200D01*
X111660935Y-118624335D01*
X111697800Y-118594080D01*
X111739855Y-118571601D01*
X111785492Y-118557758D01*
X111837858Y-118552600D01*
X112940542Y-118552600D01*
X112992908Y-118557758D01*
G37*
G36*
X116687500Y-119650000D02*
G01*
X115587500Y-119650000D01*
X115587500Y-118650000D01*
X116687500Y-118650000D01*
X116687500Y-119650000D01*
G37*
G36*
X157149832Y-118389678D02*
G01*
X157190774Y-118402097D01*
X157228512Y-118422269D01*
X157261588Y-118449412D01*
X157288731Y-118482488D01*
X157308903Y-118520226D01*
X157321322Y-118561168D01*
X157326000Y-118608658D01*
X157326000Y-119311342D01*
X157321322Y-119358832D01*
X157308903Y-119399774D01*
X157288731Y-119437512D01*
X157261588Y-119470588D01*
X157228512Y-119497731D01*
X157190774Y-119517903D01*
X157149832Y-119530322D01*
X157102342Y-119535000D01*
X156474658Y-119535000D01*
X156427168Y-119530322D01*
X156386226Y-119517903D01*
X156348488Y-119497731D01*
X156315412Y-119470588D01*
X156288269Y-119437512D01*
X156268097Y-119399774D01*
X156255678Y-119358832D01*
X156251000Y-119311342D01*
X156251000Y-118608658D01*
X156255678Y-118561168D01*
X156268097Y-118520226D01*
X156288269Y-118482488D01*
X156315412Y-118449412D01*
X156348488Y-118422269D01*
X156386226Y-118402097D01*
X156427168Y-118389678D01*
X156474658Y-118385000D01*
X157102342Y-118385000D01*
X157149832Y-118389678D01*
G37*
G36*
X155574832Y-118389678D02*
G01*
X155615774Y-118402097D01*
X155653512Y-118422269D01*
X155686588Y-118449412D01*
X155713731Y-118482488D01*
X155733903Y-118520226D01*
X155746322Y-118561168D01*
X155751000Y-118608658D01*
X155751000Y-119311342D01*
X155746322Y-119358832D01*
X155733903Y-119399774D01*
X155713731Y-119437512D01*
X155686588Y-119470588D01*
X155653512Y-119497731D01*
X155615774Y-119517903D01*
X155574832Y-119530322D01*
X155527342Y-119535000D01*
X154899658Y-119535000D01*
X154852168Y-119530322D01*
X154811226Y-119517903D01*
X154773488Y-119497731D01*
X154740412Y-119470588D01*
X154713269Y-119437512D01*
X154693097Y-119399774D01*
X154680678Y-119358832D01*
X154676000Y-119311342D01*
X154676000Y-118608658D01*
X154680678Y-118561168D01*
X154693097Y-118520226D01*
X154713269Y-118482488D01*
X154740412Y-118449412D01*
X154773488Y-118422269D01*
X154811226Y-118402097D01*
X154852168Y-118389678D01*
X154899658Y-118385000D01*
X155527342Y-118385000D01*
X155574832Y-118389678D01*
G37*
G36*
X150248832Y-118389678D02*
G01*
X150289774Y-118402097D01*
X150327512Y-118422269D01*
X150360588Y-118449412D01*
X150387731Y-118482488D01*
X150407903Y-118520226D01*
X150420322Y-118561168D01*
X150425000Y-118608658D01*
X150425000Y-119311342D01*
X150420322Y-119358832D01*
X150407903Y-119399774D01*
X150387731Y-119437512D01*
X150360588Y-119470588D01*
X150327512Y-119497731D01*
X150289774Y-119517903D01*
X150248832Y-119530322D01*
X150201342Y-119535000D01*
X149573658Y-119535000D01*
X149526168Y-119530322D01*
X149485226Y-119517903D01*
X149447488Y-119497731D01*
X149414412Y-119470588D01*
X149387269Y-119437512D01*
X149367097Y-119399774D01*
X149354678Y-119358832D01*
X149350000Y-119311342D01*
X149350000Y-118608658D01*
X149354678Y-118561168D01*
X149367097Y-118520226D01*
X149387269Y-118482488D01*
X149414412Y-118449412D01*
X149447488Y-118422269D01*
X149485226Y-118402097D01*
X149526168Y-118389678D01*
X149573658Y-118385000D01*
X150201342Y-118385000D01*
X150248832Y-118389678D01*
G37*
G36*
X148673832Y-118389678D02*
G01*
X148714774Y-118402097D01*
X148752512Y-118422269D01*
X148785588Y-118449412D01*
X148812731Y-118482488D01*
X148832903Y-118520226D01*
X148845322Y-118561168D01*
X148850000Y-118608658D01*
X148850000Y-119311342D01*
X148845322Y-119358832D01*
X148832903Y-119399774D01*
X148812731Y-119437512D01*
X148785588Y-119470588D01*
X148752512Y-119497731D01*
X148714774Y-119517903D01*
X148673832Y-119530322D01*
X148626342Y-119535000D01*
X147998658Y-119535000D01*
X147951168Y-119530322D01*
X147910226Y-119517903D01*
X147872488Y-119497731D01*
X147839412Y-119470588D01*
X147812269Y-119437512D01*
X147792097Y-119399774D01*
X147779678Y-119358832D01*
X147775000Y-119311342D01*
X147775000Y-118608658D01*
X147779678Y-118561168D01*
X147792097Y-118520226D01*
X147812269Y-118482488D01*
X147839412Y-118449412D01*
X147872488Y-118422269D01*
X147910226Y-118402097D01*
X147951168Y-118389678D01*
X147998658Y-118385000D01*
X148626342Y-118385000D01*
X148673832Y-118389678D01*
G37*
G36*
X124150000Y-119450000D02*
G01*
X123150000Y-119450000D01*
X123150000Y-118350000D01*
X124150000Y-118350000D01*
X124150000Y-119450000D01*
G37*
G36*
X126050000Y-119450000D02*
G01*
X125050000Y-119450000D01*
X125050000Y-118350000D01*
X126050000Y-118350000D01*
X126050000Y-119450000D01*
G37*
G36*
X128675000Y-119435000D02*
G01*
X126925000Y-119435000D01*
X126925000Y-118635000D01*
X128675000Y-118635000D01*
X128675000Y-119435000D01*
G37*
G36*
X134075000Y-119435000D02*
G01*
X132325000Y-119435000D01*
X132325000Y-118635000D01*
X134075000Y-118635000D01*
X134075000Y-119435000D01*
G37*
G36*
X136500000Y-118950000D02*
G01*
X135500000Y-118950000D01*
X135500000Y-117850000D01*
X136500000Y-117850000D01*
X136500000Y-118950000D01*
G37*
G36*
X134075000Y-118165000D02*
G01*
X132325000Y-118165000D01*
X132325000Y-117365000D01*
X134075000Y-117365000D01*
X134075000Y-118165000D01*
G37*
G36*
X128675000Y-118165000D02*
G01*
X126925000Y-118165000D01*
X126925000Y-117365000D01*
X128675000Y-117365000D01*
X128675000Y-118165000D01*
G37*
G36*
X140320856Y-115642272D02*
G01*
X140521048Y-115725194D01*
X140701208Y-115845573D01*
X140854427Y-115998792D01*
X140974806Y-116178952D01*
X141057728Y-116379144D01*
X141100000Y-116591657D01*
X141100000Y-116808343D01*
X141057728Y-117020856D01*
X140974806Y-117221048D01*
X140854427Y-117401208D01*
X140701208Y-117554427D01*
X140521048Y-117674806D01*
X140320856Y-117757728D01*
X140108343Y-117800000D01*
X139891657Y-117800000D01*
X139679144Y-117757728D01*
X139478952Y-117674806D01*
X139298792Y-117554427D01*
X139145573Y-117401208D01*
X139025194Y-117221048D01*
X138942272Y-117020856D01*
X138900000Y-116808343D01*
X138900000Y-116591657D01*
X138942272Y-116379144D01*
X139025194Y-116178952D01*
X139145573Y-115998792D01*
X139298792Y-115845573D01*
X139478952Y-115725194D01*
X139679144Y-115642272D01*
X139891657Y-115600000D01*
X140108343Y-115600000D01*
X140320856Y-115642272D01*
G37*
G36*
X112287500Y-117750000D02*
G01*
X110087500Y-117750000D01*
X110087500Y-116050000D01*
X112287500Y-116050000D01*
X112287500Y-117750000D01*
G37*
G36*
X125100000Y-117450000D02*
G01*
X124100000Y-117450000D01*
X124100000Y-116350000D01*
X125100000Y-116350000D01*
X125100000Y-117450000D01*
G37*
G36*
X166821072Y-115453431D02*
G01*
X166996436Y-115526069D01*
X167154259Y-115631523D01*
X167288477Y-115765741D01*
X167393931Y-115923564D01*
X167466569Y-116098928D01*
X167503600Y-116285094D01*
X167503600Y-116474906D01*
X167466569Y-116661072D01*
X167393931Y-116836436D01*
X167288477Y-116994259D01*
X167154259Y-117128477D01*
X166996436Y-117233931D01*
X166821072Y-117306569D01*
X166634906Y-117343600D01*
X166445094Y-117343600D01*
X166258928Y-117306569D01*
X166083564Y-117233931D01*
X165925741Y-117128477D01*
X165791523Y-116994259D01*
X165686069Y-116836436D01*
X165613431Y-116661072D01*
X165576400Y-116474906D01*
X165576400Y-116285094D01*
X165613431Y-116098928D01*
X165686069Y-115923564D01*
X165791523Y-115765741D01*
X165925741Y-115631523D01*
X166083564Y-115526069D01*
X166258928Y-115453431D01*
X166445094Y-115416400D01*
X166634906Y-115416400D01*
X166821072Y-115453431D01*
G37*
G36*
X164281072Y-115453431D02*
G01*
X164456436Y-115526069D01*
X164614259Y-115631523D01*
X164748477Y-115765741D01*
X164853931Y-115923564D01*
X164926569Y-116098928D01*
X164963600Y-116285094D01*
X164963600Y-116474906D01*
X164926569Y-116661072D01*
X164853931Y-116836436D01*
X164748477Y-116994259D01*
X164614259Y-117128477D01*
X164456436Y-117233931D01*
X164281072Y-117306569D01*
X164094906Y-117343600D01*
X163905094Y-117343600D01*
X163718928Y-117306569D01*
X163543564Y-117233931D01*
X163385741Y-117128477D01*
X163251523Y-116994259D01*
X163146069Y-116836436D01*
X163073431Y-116661072D01*
X163036400Y-116474906D01*
X163036400Y-116285094D01*
X163073431Y-116098928D01*
X163146069Y-115923564D01*
X163251523Y-115765741D01*
X163385741Y-115631523D01*
X163543564Y-115526069D01*
X163718928Y-115453431D01*
X163905094Y-115416400D01*
X164094906Y-115416400D01*
X164281072Y-115453431D01*
G37*
G36*
X135550000Y-116950000D02*
G01*
X134550000Y-116950000D01*
X134550000Y-115850000D01*
X135550000Y-115850000D01*
X135550000Y-116950000D01*
G37*
G36*
X137450000Y-116950000D02*
G01*
X136450000Y-116950000D01*
X136450000Y-115850000D01*
X137450000Y-115850000D01*
X137450000Y-116950000D01*
G37*
G36*
X134075000Y-116895000D02*
G01*
X132325000Y-116895000D01*
X132325000Y-116095000D01*
X134075000Y-116095000D01*
X134075000Y-116895000D01*
G37*
G36*
X128675000Y-116895000D02*
G01*
X126925000Y-116895000D01*
X126925000Y-116095000D01*
X128675000Y-116095000D01*
X128675000Y-116895000D01*
G37*
G36*
X150600000Y-116700000D02*
G01*
X145900000Y-116700000D01*
X145900000Y-114500000D01*
X150600000Y-114500000D01*
X150600000Y-116700000D01*
G37*
G36*
X159100000Y-116700000D02*
G01*
X154400000Y-116700000D01*
X154400000Y-114500000D01*
X159100000Y-114500000D01*
X159100000Y-116700000D01*
G37*
G36*
X118587500Y-116600000D02*
G01*
X116387500Y-116600000D01*
X116387500Y-112600000D01*
X118587500Y-112600000D01*
X118587500Y-116600000D01*
G37*
G36*
X121498456Y-114193872D02*
G01*
X121698648Y-114276794D01*
X121878808Y-114397173D01*
X122032027Y-114550392D01*
X122152406Y-114730552D01*
X122235328Y-114930744D01*
X122277600Y-115143257D01*
X122277600Y-115359943D01*
X122235328Y-115572456D01*
X122152406Y-115772648D01*
X122032027Y-115952808D01*
X121878808Y-116106027D01*
X121698648Y-116226406D01*
X121498456Y-116309328D01*
X121285943Y-116351600D01*
X121069257Y-116351600D01*
X120856744Y-116309328D01*
X120656552Y-116226406D01*
X120476392Y-116106027D01*
X120323173Y-115952808D01*
X120202794Y-115772648D01*
X120119872Y-115572456D01*
X120077600Y-115359943D01*
X120077600Y-115143257D01*
X120119872Y-114930744D01*
X120202794Y-114730552D01*
X120323173Y-114550392D01*
X120476392Y-114397173D01*
X120656552Y-114276794D01*
X120856744Y-114193872D01*
X121069257Y-114151600D01*
X121285943Y-114151600D01*
X121498456Y-114193872D01*
G37*
G36*
X107941208Y-115055158D02*
G01*
X107986845Y-115069001D01*
X108028900Y-115091480D01*
X108065765Y-115121735D01*
X108096020Y-115158600D01*
X108118499Y-115200655D01*
X108132342Y-115246292D01*
X108137500Y-115298658D01*
X108137500Y-115976342D01*
X108132342Y-116028708D01*
X108118499Y-116074345D01*
X108096020Y-116116400D01*
X108065765Y-116153265D01*
X108028900Y-116183520D01*
X107986845Y-116205999D01*
X107941208Y-116219842D01*
X107888842Y-116225000D01*
X106786158Y-116225000D01*
X106733792Y-116219842D01*
X106688155Y-116205999D01*
X106646100Y-116183520D01*
X106609235Y-116153265D01*
X106578980Y-116116400D01*
X106556501Y-116074345D01*
X106542658Y-116028708D01*
X106537500Y-115976342D01*
X106537500Y-115298658D01*
X106542658Y-115246292D01*
X106556501Y-115200655D01*
X106578980Y-115158600D01*
X106609235Y-115121735D01*
X106646100Y-115091480D01*
X106688155Y-115069001D01*
X106733792Y-115055158D01*
X106786158Y-115050000D01*
X107888842Y-115050000D01*
X107941208Y-115055158D01*
G37*
G36*
X109436332Y-114967178D02*
G01*
X109477274Y-114979597D01*
X109515012Y-114999769D01*
X109548088Y-115026912D01*
X109575231Y-115059988D01*
X109595403Y-115097726D01*
X109607822Y-115138668D01*
X109612500Y-115186158D01*
X109612500Y-115813842D01*
X109607822Y-115861332D01*
X109595403Y-115902274D01*
X109575231Y-115940012D01*
X109548088Y-115973088D01*
X109515012Y-116000231D01*
X109477274Y-116020403D01*
X109436332Y-116032822D01*
X109388842Y-116037500D01*
X108686158Y-116037500D01*
X108638668Y-116032822D01*
X108597726Y-116020403D01*
X108559988Y-116000231D01*
X108526912Y-115973088D01*
X108499769Y-115940012D01*
X108479597Y-115902274D01*
X108467178Y-115861332D01*
X108462500Y-115813842D01*
X108462500Y-115186158D01*
X108467178Y-115138668D01*
X108479597Y-115097726D01*
X108499769Y-115059988D01*
X108526912Y-115026912D01*
X108559988Y-114999769D01*
X108597726Y-114979597D01*
X108638668Y-114967178D01*
X108686158Y-114962500D01*
X109388842Y-114962500D01*
X109436332Y-114967178D01*
G37*
G36*
X137148832Y-114329678D02*
G01*
X137189774Y-114342097D01*
X137227512Y-114362269D01*
X137260588Y-114389412D01*
X137287731Y-114422488D01*
X137307903Y-114460226D01*
X137320322Y-114501168D01*
X137325000Y-114548658D01*
X137325000Y-115251342D01*
X137320322Y-115298832D01*
X137307903Y-115339774D01*
X137287731Y-115377512D01*
X137260588Y-115410588D01*
X137227512Y-115437731D01*
X137189774Y-115457903D01*
X137148832Y-115470322D01*
X137101342Y-115475000D01*
X136473658Y-115475000D01*
X136426168Y-115470322D01*
X136385226Y-115457903D01*
X136347488Y-115437731D01*
X136314412Y-115410588D01*
X136287269Y-115377512D01*
X136267097Y-115339774D01*
X136254678Y-115298832D01*
X136250000Y-115251342D01*
X136250000Y-114548658D01*
X136254678Y-114501168D01*
X136267097Y-114460226D01*
X136287269Y-114422488D01*
X136314412Y-114389412D01*
X136347488Y-114362269D01*
X136385226Y-114342097D01*
X136426168Y-114329678D01*
X136473658Y-114325000D01*
X137101342Y-114325000D01*
X137148832Y-114329678D01*
G37*
G36*
X131648832Y-114329678D02*
G01*
X131689774Y-114342097D01*
X131727512Y-114362269D01*
X131760588Y-114389412D01*
X131787731Y-114422488D01*
X131807903Y-114460226D01*
X131820322Y-114501168D01*
X131825000Y-114548658D01*
X131825000Y-115251342D01*
X131820322Y-115298832D01*
X131807903Y-115339774D01*
X131787731Y-115377512D01*
X131760588Y-115410588D01*
X131727512Y-115437731D01*
X131689774Y-115457903D01*
X131648832Y-115470322D01*
X131601342Y-115475000D01*
X130973658Y-115475000D01*
X130926168Y-115470322D01*
X130885226Y-115457903D01*
X130847488Y-115437731D01*
X130814412Y-115410588D01*
X130787269Y-115377512D01*
X130767097Y-115339774D01*
X130754678Y-115298832D01*
X130750000Y-115251342D01*
X130750000Y-114548658D01*
X130754678Y-114501168D01*
X130767097Y-114460226D01*
X130787269Y-114422488D01*
X130814412Y-114389412D01*
X130847488Y-114362269D01*
X130885226Y-114342097D01*
X130926168Y-114329678D01*
X130973658Y-114325000D01*
X131601342Y-114325000D01*
X131648832Y-114329678D01*
G37*
G36*
X130073832Y-114329678D02*
G01*
X130114774Y-114342097D01*
X130152512Y-114362269D01*
X130185588Y-114389412D01*
X130212731Y-114422488D01*
X130232903Y-114460226D01*
X130245322Y-114501168D01*
X130250000Y-114548658D01*
X130250000Y-115251342D01*
X130245322Y-115298832D01*
X130232903Y-115339774D01*
X130212731Y-115377512D01*
X130185588Y-115410588D01*
X130152512Y-115437731D01*
X130114774Y-115457903D01*
X130073832Y-115470322D01*
X130026342Y-115475000D01*
X129398658Y-115475000D01*
X129351168Y-115470322D01*
X129310226Y-115457903D01*
X129272488Y-115437731D01*
X129239412Y-115410588D01*
X129212269Y-115377512D01*
X129192097Y-115339774D01*
X129179678Y-115298832D01*
X129175000Y-115251342D01*
X129175000Y-114548658D01*
X129179678Y-114501168D01*
X129192097Y-114460226D01*
X129212269Y-114422488D01*
X129239412Y-114389412D01*
X129272488Y-114362269D01*
X129310226Y-114342097D01*
X129351168Y-114329678D01*
X129398658Y-114325000D01*
X130026342Y-114325000D01*
X130073832Y-114329678D01*
G37*
G36*
X135573832Y-114329678D02*
G01*
X135614774Y-114342097D01*
X135652512Y-114362269D01*
X135685588Y-114389412D01*
X135712731Y-114422488D01*
X135732903Y-114460226D01*
X135745322Y-114501168D01*
X135750000Y-114548658D01*
X135750000Y-115251342D01*
X135745322Y-115298832D01*
X135732903Y-115339774D01*
X135712731Y-115377512D01*
X135685588Y-115410588D01*
X135652512Y-115437731D01*
X135614774Y-115457903D01*
X135573832Y-115470322D01*
X135526342Y-115475000D01*
X134898658Y-115475000D01*
X134851168Y-115470322D01*
X134810226Y-115457903D01*
X134772488Y-115437731D01*
X134739412Y-115410588D01*
X134712269Y-115377512D01*
X134692097Y-115339774D01*
X134679678Y-115298832D01*
X134675000Y-115251342D01*
X134675000Y-114548658D01*
X134679678Y-114501168D01*
X134692097Y-114460226D01*
X134712269Y-114422488D01*
X134739412Y-114389412D01*
X134772488Y-114362269D01*
X134810226Y-114342097D01*
X134851168Y-114329678D01*
X134898658Y-114325000D01*
X135526342Y-114325000D01*
X135573832Y-114329678D01*
G37*
G36*
X112287500Y-115450000D02*
G01*
X110087500Y-115450000D01*
X110087500Y-113750000D01*
X112287500Y-113750000D01*
X112287500Y-115450000D01*
G37*
G36*
X166821072Y-112913431D02*
G01*
X166996436Y-112986069D01*
X167154259Y-113091523D01*
X167288477Y-113225741D01*
X167393931Y-113383564D01*
X167466569Y-113558928D01*
X167503600Y-113745094D01*
X167503600Y-113934906D01*
X167466569Y-114121072D01*
X167393931Y-114296436D01*
X167370837Y-114330999D01*
X167288478Y-114454258D01*
X167154258Y-114588478D01*
X167075348Y-114641204D01*
X166996436Y-114693931D01*
X166821072Y-114766569D01*
X166634906Y-114803600D01*
X166445094Y-114803600D01*
X166258928Y-114766569D01*
X166083564Y-114693931D01*
X166004652Y-114641204D01*
X165925742Y-114588478D01*
X165791522Y-114454258D01*
X165709163Y-114330999D01*
X165686069Y-114296436D01*
X165613431Y-114121072D01*
X165576400Y-113934906D01*
X165576400Y-113745094D01*
X165613431Y-113558928D01*
X165686069Y-113383564D01*
X165791523Y-113225741D01*
X165925741Y-113091523D01*
X166083564Y-112986069D01*
X166258928Y-112913431D01*
X166445094Y-112876400D01*
X166634906Y-112876400D01*
X166821072Y-112913431D01*
G37*
G36*
X164281072Y-112913431D02*
G01*
X164456436Y-112986069D01*
X164614259Y-113091523D01*
X164748477Y-113225741D01*
X164853931Y-113383564D01*
X164926569Y-113558928D01*
X164963600Y-113745094D01*
X164963600Y-113934906D01*
X164926569Y-114121072D01*
X164853931Y-114296436D01*
X164830837Y-114330999D01*
X164748478Y-114454258D01*
X164614258Y-114588478D01*
X164535348Y-114641204D01*
X164456436Y-114693931D01*
X164281072Y-114766569D01*
X164094906Y-114803600D01*
X163905094Y-114803600D01*
X163718928Y-114766569D01*
X163543564Y-114693931D01*
X163464652Y-114641204D01*
X163385742Y-114588478D01*
X163251522Y-114454258D01*
X163169163Y-114330999D01*
X163146069Y-114296436D01*
X163073431Y-114121072D01*
X163036400Y-113934906D01*
X163036400Y-113745094D01*
X163073431Y-113558928D01*
X163146069Y-113383564D01*
X163251523Y-113225741D01*
X163385741Y-113091523D01*
X163543564Y-112986069D01*
X163718928Y-112913431D01*
X163905094Y-112876400D01*
X164094906Y-112876400D01*
X164281072Y-112913431D01*
G37*
G36*
X109436332Y-113392178D02*
G01*
X109477274Y-113404597D01*
X109515012Y-113424769D01*
X109548088Y-113451912D01*
X109575231Y-113484988D01*
X109595403Y-113522726D01*
X109607822Y-113563668D01*
X109612500Y-113611158D01*
X109612500Y-114238842D01*
X109607822Y-114286332D01*
X109595403Y-114327274D01*
X109575231Y-114365012D01*
X109548088Y-114398088D01*
X109515012Y-114425231D01*
X109477274Y-114445403D01*
X109436332Y-114457822D01*
X109388842Y-114462500D01*
X108686158Y-114462500D01*
X108638668Y-114457822D01*
X108597726Y-114445403D01*
X108559988Y-114425231D01*
X108526912Y-114398088D01*
X108499769Y-114365012D01*
X108479597Y-114327274D01*
X108467178Y-114286332D01*
X108462500Y-114238842D01*
X108462500Y-113611158D01*
X108467178Y-113563668D01*
X108479597Y-113522726D01*
X108499769Y-113484988D01*
X108526912Y-113451912D01*
X108559988Y-113424769D01*
X108597726Y-113404597D01*
X108638668Y-113392178D01*
X108686158Y-113387500D01*
X109388842Y-113387500D01*
X109436332Y-113392178D01*
G37*
G36*
X107941208Y-113180158D02*
G01*
X107986845Y-113194001D01*
X108028900Y-113216480D01*
X108065765Y-113246735D01*
X108096020Y-113283600D01*
X108118499Y-113325655D01*
X108132342Y-113371292D01*
X108137500Y-113423658D01*
X108137500Y-114101342D01*
X108132342Y-114153708D01*
X108118499Y-114199345D01*
X108096020Y-114241400D01*
X108065765Y-114278265D01*
X108028900Y-114308520D01*
X107986845Y-114330999D01*
X107941208Y-114344842D01*
X107888842Y-114350000D01*
X106786158Y-114350000D01*
X106733792Y-114344842D01*
X106688155Y-114330999D01*
X106646100Y-114308520D01*
X106609235Y-114278265D01*
X106578980Y-114241400D01*
X106556501Y-114199345D01*
X106542658Y-114153708D01*
X106537500Y-114101342D01*
X106537500Y-113423658D01*
X106542658Y-113371292D01*
X106556501Y-113325655D01*
X106578980Y-113283600D01*
X106609235Y-113246735D01*
X106646100Y-113216480D01*
X106688155Y-113194001D01*
X106733792Y-113180158D01*
X106786158Y-113175000D01*
X107888842Y-113175000D01*
X107941208Y-113180158D01*
G37*
G36*
X112287500Y-113150000D02*
G01*
X110087500Y-113150000D01*
X110087500Y-111450000D01*
X112287500Y-111450000D01*
X112287500Y-113150000D01*
G37*
G36*
X159234708Y-111205158D02*
G01*
X159280345Y-111219001D01*
X159322400Y-111241480D01*
X159359265Y-111271735D01*
X159389520Y-111308600D01*
X159411999Y-111350655D01*
X159425842Y-111396292D01*
X159431000Y-111448658D01*
X159431000Y-112551342D01*
X159425842Y-112603708D01*
X159411999Y-112649345D01*
X159389520Y-112691400D01*
X159359265Y-112728265D01*
X159322400Y-112758520D01*
X159280345Y-112780999D01*
X159234708Y-112794842D01*
X159182342Y-112800000D01*
X158504658Y-112800000D01*
X158452292Y-112794842D01*
X158406655Y-112780999D01*
X158364600Y-112758520D01*
X158327735Y-112728265D01*
X158297480Y-112691400D01*
X158275001Y-112649345D01*
X158261158Y-112603708D01*
X158256000Y-112551342D01*
X158256000Y-111448658D01*
X158261158Y-111396292D01*
X158275001Y-111350655D01*
X158297480Y-111308600D01*
X158327735Y-111271735D01*
X158364600Y-111241480D01*
X158406655Y-111219001D01*
X158452292Y-111205158D01*
X158504658Y-111200000D01*
X159182342Y-111200000D01*
X159234708Y-111205158D01*
G37*
G36*
X157359708Y-111205158D02*
G01*
X157405345Y-111219001D01*
X157447400Y-111241480D01*
X157484265Y-111271735D01*
X157514520Y-111308600D01*
X157536999Y-111350655D01*
X157550842Y-111396292D01*
X157556000Y-111448658D01*
X157556000Y-112551342D01*
X157550842Y-112603708D01*
X157536999Y-112649345D01*
X157514520Y-112691400D01*
X157484265Y-112728265D01*
X157447400Y-112758520D01*
X157405345Y-112780999D01*
X157359708Y-112794842D01*
X157307342Y-112800000D01*
X156629658Y-112800000D01*
X156577292Y-112794842D01*
X156531655Y-112780999D01*
X156489600Y-112758520D01*
X156452735Y-112728265D01*
X156422480Y-112691400D01*
X156400001Y-112649345D01*
X156386158Y-112603708D01*
X156381000Y-112551342D01*
X156381000Y-111448658D01*
X156386158Y-111396292D01*
X156400001Y-111350655D01*
X156422480Y-111308600D01*
X156452735Y-111271735D01*
X156489600Y-111241480D01*
X156531655Y-111219001D01*
X156577292Y-111205158D01*
X156629658Y-111200000D01*
X157307342Y-111200000D01*
X157359708Y-111205158D01*
G37*
G36*
X153973832Y-111529678D02*
G01*
X154014774Y-111542097D01*
X154052512Y-111562269D01*
X154085588Y-111589412D01*
X154112731Y-111622488D01*
X154132903Y-111660226D01*
X154145322Y-111701168D01*
X154150000Y-111748658D01*
X154150000Y-112451342D01*
X154145322Y-112498832D01*
X154132903Y-112539774D01*
X154112731Y-112577512D01*
X154085588Y-112610588D01*
X154052512Y-112637731D01*
X154014774Y-112657903D01*
X153973832Y-112670322D01*
X153926342Y-112675000D01*
X153298658Y-112675000D01*
X153251168Y-112670322D01*
X153210226Y-112657903D01*
X153172488Y-112637731D01*
X153139412Y-112610588D01*
X153112269Y-112577512D01*
X153092097Y-112539774D01*
X153079678Y-112498832D01*
X153075000Y-112451342D01*
X153075000Y-111748658D01*
X153079678Y-111701168D01*
X153092097Y-111660226D01*
X153112269Y-111622488D01*
X153139412Y-111589412D01*
X153172488Y-111562269D01*
X153210226Y-111542097D01*
X153251168Y-111529678D01*
X153298658Y-111525000D01*
X153926342Y-111525000D01*
X153973832Y-111529678D01*
G37*
G36*
X155548832Y-111529678D02*
G01*
X155589774Y-111542097D01*
X155627512Y-111562269D01*
X155660588Y-111589412D01*
X155687731Y-111622488D01*
X155707903Y-111660226D01*
X155720322Y-111701168D01*
X155725000Y-111748658D01*
X155725000Y-112451342D01*
X155720322Y-112498832D01*
X155707903Y-112539774D01*
X155687731Y-112577512D01*
X155660588Y-112610588D01*
X155627512Y-112637731D01*
X155589774Y-112657903D01*
X155548832Y-112670322D01*
X155501342Y-112675000D01*
X154873658Y-112675000D01*
X154826168Y-112670322D01*
X154785226Y-112657903D01*
X154747488Y-112637731D01*
X154714412Y-112610588D01*
X154687269Y-112577512D01*
X154667097Y-112539774D01*
X154654678Y-112498832D01*
X154650000Y-112451342D01*
X154650000Y-111748658D01*
X154654678Y-111701168D01*
X154667097Y-111660226D01*
X154687269Y-111622488D01*
X154714412Y-111589412D01*
X154747488Y-111562269D01*
X154785226Y-111542097D01*
X154826168Y-111529678D01*
X154873658Y-111525000D01*
X155501342Y-111525000D01*
X155548832Y-111529678D01*
G37*
G36*
X141056456Y-110129872D02*
G01*
X141256648Y-110212794D01*
X141436808Y-110333173D01*
X141590027Y-110486392D01*
X141710406Y-110666552D01*
X141793328Y-110866744D01*
X141835600Y-111079257D01*
X141835600Y-111295943D01*
X141793328Y-111508456D01*
X141710406Y-111708648D01*
X141590027Y-111888808D01*
X141436808Y-112042027D01*
X141256648Y-112162406D01*
X141056456Y-112245328D01*
X140843943Y-112287600D01*
X140627257Y-112287600D01*
X140414744Y-112245328D01*
X140214552Y-112162406D01*
X140034392Y-112042027D01*
X139881173Y-111888808D01*
X139760794Y-111708648D01*
X139677872Y-111508456D01*
X139635600Y-111295943D01*
X139635600Y-111079257D01*
X139677872Y-110866744D01*
X139760794Y-110666552D01*
X139881173Y-110486392D01*
X140034392Y-110333173D01*
X140214552Y-110212794D01*
X140414744Y-110129872D01*
X140627257Y-110087600D01*
X140843943Y-110087600D01*
X141056456Y-110129872D01*
G37*
G36*
X166821072Y-110373431D02*
G01*
X166996436Y-110446069D01*
X167154259Y-110551523D01*
X167288477Y-110685741D01*
X167393931Y-110843564D01*
X167466569Y-111018928D01*
X167503600Y-111205094D01*
X167503600Y-111394906D01*
X167466569Y-111581072D01*
X167393931Y-111756436D01*
X167363264Y-111802332D01*
X167288592Y-111914088D01*
X167288477Y-111914259D01*
X167154259Y-112048477D01*
X166996436Y-112153931D01*
X166821072Y-112226569D01*
X166634906Y-112263600D01*
X166445094Y-112263600D01*
X166258928Y-112226569D01*
X166083564Y-112153931D01*
X165925741Y-112048477D01*
X165791523Y-111914259D01*
X165791409Y-111914088D01*
X165716736Y-111802332D01*
X165686069Y-111756436D01*
X165613431Y-111581072D01*
X165576400Y-111394906D01*
X165576400Y-111205094D01*
X165613431Y-111018928D01*
X165686069Y-110843564D01*
X165791523Y-110685741D01*
X165925741Y-110551523D01*
X166083564Y-110446069D01*
X166258928Y-110373431D01*
X166445094Y-110336400D01*
X166634906Y-110336400D01*
X166821072Y-110373431D01*
G37*
G36*
X164963600Y-112263600D02*
G01*
X163036400Y-112263600D01*
X163036400Y-110336400D01*
X164963600Y-110336400D01*
X164963600Y-112263600D01*
G37*
G36*
X148958332Y-110833178D02*
G01*
X148999274Y-110845597D01*
X149037012Y-110865769D01*
X149070088Y-110892912D01*
X149097231Y-110925988D01*
X149117403Y-110963726D01*
X149129822Y-111004668D01*
X149134500Y-111052158D01*
X149134500Y-111754842D01*
X149129822Y-111802332D01*
X149117403Y-111843274D01*
X149097231Y-111881012D01*
X149070088Y-111914088D01*
X149037012Y-111941231D01*
X148999274Y-111961403D01*
X148958332Y-111973822D01*
X148910842Y-111978500D01*
X148283158Y-111978500D01*
X148235668Y-111973822D01*
X148194726Y-111961403D01*
X148156988Y-111941231D01*
X148123912Y-111914088D01*
X148096769Y-111881012D01*
X148076597Y-111843274D01*
X148064178Y-111802332D01*
X148059500Y-111754842D01*
X148059500Y-111052158D01*
X148064178Y-111004668D01*
X148076597Y-110963726D01*
X148096769Y-110925988D01*
X148123912Y-110892912D01*
X148156988Y-110865769D01*
X148194726Y-110845597D01*
X148235668Y-110833178D01*
X148283158Y-110828500D01*
X148910842Y-110828500D01*
X148958332Y-110833178D01*
G37*
G36*
X147383332Y-110833178D02*
G01*
X147424274Y-110845597D01*
X147462012Y-110865769D01*
X147495088Y-110892912D01*
X147522231Y-110925988D01*
X147542403Y-110963726D01*
X147554822Y-111004668D01*
X147559500Y-111052158D01*
X147559500Y-111754842D01*
X147554822Y-111802332D01*
X147542403Y-111843274D01*
X147522231Y-111881012D01*
X147495088Y-111914088D01*
X147462012Y-111941231D01*
X147424274Y-111961403D01*
X147383332Y-111973822D01*
X147335842Y-111978500D01*
X146708158Y-111978500D01*
X146660668Y-111973822D01*
X146619726Y-111961403D01*
X146581988Y-111941231D01*
X146548912Y-111914088D01*
X146521769Y-111881012D01*
X146501597Y-111843274D01*
X146489178Y-111802332D01*
X146484500Y-111754842D01*
X146484500Y-111052158D01*
X146489178Y-111004668D01*
X146501597Y-110963726D01*
X146521769Y-110925988D01*
X146548912Y-110892912D01*
X146581988Y-110865769D01*
X146619726Y-110845597D01*
X146660668Y-110833178D01*
X146708158Y-110828500D01*
X147335842Y-110828500D01*
X147383332Y-110833178D01*
G37*
G36*
X155975000Y-111200000D02*
G01*
X150025000Y-111200000D01*
X150025000Y-109700000D01*
X155975000Y-109700000D01*
X155975000Y-111200000D01*
G37*
G36*
X108220856Y-109012272D02*
G01*
X108421048Y-109095194D01*
X108601208Y-109215573D01*
X108754427Y-109368792D01*
X108874806Y-109548952D01*
X108957728Y-109749144D01*
X109000000Y-109961657D01*
X109000000Y-110178343D01*
X108957728Y-110390856D01*
X108874806Y-110591048D01*
X108754427Y-110771208D01*
X108601208Y-110924427D01*
X108421048Y-111044806D01*
X108220856Y-111127728D01*
X108008343Y-111170000D01*
X107791657Y-111170000D01*
X107579144Y-111127728D01*
X107378952Y-111044806D01*
X107198792Y-110924427D01*
X107045573Y-110771208D01*
X106925194Y-110591048D01*
X106842272Y-110390856D01*
X106800000Y-110178343D01*
X106800000Y-109961657D01*
X106842272Y-109749144D01*
X106925194Y-109548952D01*
X107045573Y-109368792D01*
X107198792Y-109215573D01*
X107378952Y-109095194D01*
X107579144Y-109012272D01*
X107791657Y-108970000D01*
X108008343Y-108970000D01*
X108220856Y-109012272D01*
G37*
G36*
X147398832Y-109354678D02*
G01*
X147439774Y-109367097D01*
X147477512Y-109387269D01*
X147510588Y-109414412D01*
X147537731Y-109447488D01*
X147557903Y-109485226D01*
X147570322Y-109526168D01*
X147575000Y-109573658D01*
X147575000Y-110201342D01*
X147570322Y-110248832D01*
X147557903Y-110289774D01*
X147537731Y-110327512D01*
X147510588Y-110360588D01*
X147477512Y-110387731D01*
X147439774Y-110407903D01*
X147398832Y-110420322D01*
X147351342Y-110425000D01*
X146648658Y-110425000D01*
X146601168Y-110420322D01*
X146560226Y-110407903D01*
X146522488Y-110387731D01*
X146489412Y-110360588D01*
X146462269Y-110327512D01*
X146442097Y-110289774D01*
X146429678Y-110248832D01*
X146425000Y-110201342D01*
X146425000Y-109573658D01*
X146429678Y-109526168D01*
X146442097Y-109485226D01*
X146462269Y-109447488D01*
X146489412Y-109414412D01*
X146522488Y-109387269D01*
X146560226Y-109367097D01*
X146601168Y-109354678D01*
X146648658Y-109350000D01*
X147351342Y-109350000D01*
X147398832Y-109354678D01*
G37*
G36*
X149400000Y-109075000D02*
G01*
X147900000Y-109075000D01*
X147900000Y-103125000D01*
X149400000Y-103125000D01*
X149400000Y-109075000D01*
G37*
G36*
X158100000Y-109075000D02*
G01*
X156600000Y-109075000D01*
X156600000Y-103125000D01*
X158100000Y-103125000D01*
X158100000Y-109075000D01*
G37*
G36*
X147398832Y-107779678D02*
G01*
X147439774Y-107792097D01*
X147477512Y-107812269D01*
X147510588Y-107839412D01*
X147537731Y-107872488D01*
X147557903Y-107910226D01*
X147570322Y-107951168D01*
X147575000Y-107998658D01*
X147575000Y-108626342D01*
X147570322Y-108673832D01*
X147557903Y-108714774D01*
X147537731Y-108752512D01*
X147510588Y-108785588D01*
X147477512Y-108812731D01*
X147439774Y-108832903D01*
X147398832Y-108845322D01*
X147351342Y-108850000D01*
X146648658Y-108850000D01*
X146601168Y-108845322D01*
X146560226Y-108832903D01*
X146522488Y-108812731D01*
X146489412Y-108785588D01*
X146462269Y-108752512D01*
X146442097Y-108714774D01*
X146429678Y-108673832D01*
X146425000Y-108626342D01*
X146425000Y-107998658D01*
X146429678Y-107951168D01*
X146442097Y-107910226D01*
X146462269Y-107872488D01*
X146489412Y-107839412D01*
X146522488Y-107812269D01*
X146560226Y-107792097D01*
X146601168Y-107779678D01*
X146648658Y-107775000D01*
X147351342Y-107775000D01*
X147398832Y-107779678D01*
G37*
G36*
X142377256Y-106573872D02*
G01*
X142577448Y-106656794D01*
X142757608Y-106777173D01*
X142910827Y-106930392D01*
X143031206Y-107110552D01*
X143114128Y-107310744D01*
X143156400Y-107523257D01*
X143156400Y-107739943D01*
X143114128Y-107952456D01*
X143031206Y-108152648D01*
X142910827Y-108332808D01*
X142757608Y-108486027D01*
X142577448Y-108606406D01*
X142377256Y-108689328D01*
X142164743Y-108731600D01*
X141948057Y-108731600D01*
X141735544Y-108689328D01*
X141535352Y-108606406D01*
X141355192Y-108486027D01*
X141201973Y-108332808D01*
X141081594Y-108152648D01*
X140998672Y-107952456D01*
X140956400Y-107739943D01*
X140956400Y-107523257D01*
X140998672Y-107310744D01*
X141081594Y-107110552D01*
X141201973Y-106930392D01*
X141355192Y-106777173D01*
X141535352Y-106656794D01*
X141735544Y-106573872D01*
X141948057Y-106531600D01*
X142164743Y-106531600D01*
X142377256Y-106573872D01*
G37*
G36*
X159498832Y-106454678D02*
G01*
X159539774Y-106467097D01*
X159577512Y-106487269D01*
X159610588Y-106514412D01*
X159637731Y-106547488D01*
X159657903Y-106585226D01*
X159670322Y-106626168D01*
X159675000Y-106673658D01*
X159675000Y-107301342D01*
X159670322Y-107348832D01*
X159657903Y-107389774D01*
X159637731Y-107427512D01*
X159610588Y-107460588D01*
X159577512Y-107487731D01*
X159539774Y-107507903D01*
X159498832Y-107520322D01*
X159451342Y-107525000D01*
X158748658Y-107525000D01*
X158701168Y-107520322D01*
X158660226Y-107507903D01*
X158622488Y-107487731D01*
X158589412Y-107460588D01*
X158562269Y-107427512D01*
X158542097Y-107389774D01*
X158529678Y-107348832D01*
X158525000Y-107301342D01*
X158525000Y-106673658D01*
X158529678Y-106626168D01*
X158542097Y-106585226D01*
X158562269Y-106547488D01*
X158589412Y-106514412D01*
X158622488Y-106487269D01*
X158660226Y-106467097D01*
X158701168Y-106454678D01*
X158748658Y-106450000D01*
X159451342Y-106450000D01*
X159498832Y-106454678D01*
G37*
G36*
X147398832Y-106354678D02*
G01*
X147439774Y-106367097D01*
X147477512Y-106387269D01*
X147510588Y-106414412D01*
X147537731Y-106447488D01*
X147557903Y-106485226D01*
X147570322Y-106526168D01*
X147575000Y-106573658D01*
X147575000Y-107201342D01*
X147570322Y-107248832D01*
X147557903Y-107289774D01*
X147537731Y-107327512D01*
X147510588Y-107360588D01*
X147477512Y-107387731D01*
X147439774Y-107407903D01*
X147398832Y-107420322D01*
X147351342Y-107425000D01*
X146648658Y-107425000D01*
X146601168Y-107420322D01*
X146560226Y-107407903D01*
X146522488Y-107387731D01*
X146489412Y-107360588D01*
X146462269Y-107327512D01*
X146442097Y-107289774D01*
X146429678Y-107248832D01*
X146425000Y-107201342D01*
X146425000Y-106573658D01*
X146429678Y-106526168D01*
X146442097Y-106485226D01*
X146462269Y-106447488D01*
X146489412Y-106414412D01*
X146522488Y-106387269D01*
X146560226Y-106367097D01*
X146601168Y-106354678D01*
X146648658Y-106350000D01*
X147351342Y-106350000D01*
X147398832Y-106354678D01*
G37*
G36*
X129162520Y-104934586D02*
G01*
X129162522Y-104934587D01*
X129162523Y-104934587D01*
X129174171Y-104939412D01*
X129326310Y-105002430D01*
X129473717Y-105100924D01*
X129599076Y-105226283D01*
X129697570Y-105373690D01*
X129729383Y-105450494D01*
X129747552Y-105494356D01*
X129765414Y-105537480D01*
X129800000Y-105711358D01*
X129800000Y-105888642D01*
X129765414Y-106062520D01*
X129697570Y-106226310D01*
X129599076Y-106373717D01*
X129473717Y-106499076D01*
X129326310Y-106597570D01*
X129260088Y-106625000D01*
X129162523Y-106665413D01*
X129162522Y-106665413D01*
X129162520Y-106665414D01*
X128988642Y-106700000D01*
X128811358Y-106700000D01*
X128637480Y-106665414D01*
X128637478Y-106665413D01*
X128637477Y-106665413D01*
X128539912Y-106625000D01*
X128473690Y-106597570D01*
X128326283Y-106499076D01*
X128200924Y-106373717D01*
X128102430Y-106226310D01*
X128034586Y-106062520D01*
X128000000Y-105888642D01*
X128000000Y-105711358D01*
X128034586Y-105537480D01*
X128052449Y-105494356D01*
X128070617Y-105450494D01*
X128102430Y-105373690D01*
X128200924Y-105226283D01*
X128326283Y-105100924D01*
X128473690Y-105002430D01*
X128625829Y-104939412D01*
X128637477Y-104934587D01*
X128637478Y-104934587D01*
X128637480Y-104934586D01*
X128811358Y-104900000D01*
X128988642Y-104900000D01*
X129162520Y-104934586D01*
G37*
G36*
X159498832Y-104879678D02*
G01*
X159539774Y-104892097D01*
X159577512Y-104912269D01*
X159610588Y-104939412D01*
X159637731Y-104972488D01*
X159657903Y-105010226D01*
X159670322Y-105051168D01*
X159675000Y-105098658D01*
X159675000Y-105726342D01*
X159670322Y-105773832D01*
X159657903Y-105814774D01*
X159637731Y-105852512D01*
X159610588Y-105885588D01*
X159577512Y-105912731D01*
X159539774Y-105932903D01*
X159498832Y-105945322D01*
X159451342Y-105950000D01*
X158748658Y-105950000D01*
X158701168Y-105945322D01*
X158660226Y-105932903D01*
X158622488Y-105912731D01*
X158589412Y-105885588D01*
X158562269Y-105852512D01*
X158542097Y-105814774D01*
X158529678Y-105773832D01*
X158525000Y-105726342D01*
X158525000Y-105098658D01*
X158529678Y-105051168D01*
X158542097Y-105010226D01*
X158562269Y-104972488D01*
X158589412Y-104939412D01*
X158622488Y-104912269D01*
X158660226Y-104892097D01*
X158701168Y-104879678D01*
X158748658Y-104875000D01*
X159451342Y-104875000D01*
X159498832Y-104879678D01*
G37*
G36*
X147398832Y-104779678D02*
G01*
X147439774Y-104792097D01*
X147477512Y-104812269D01*
X147510588Y-104839412D01*
X147537731Y-104872488D01*
X147557903Y-104910226D01*
X147570322Y-104951168D01*
X147575000Y-104998658D01*
X147575000Y-105626342D01*
X147570322Y-105673832D01*
X147557903Y-105714774D01*
X147537731Y-105752512D01*
X147510588Y-105785588D01*
X147477512Y-105812731D01*
X147439774Y-105832903D01*
X147398832Y-105845322D01*
X147351342Y-105850000D01*
X146648658Y-105850000D01*
X146601168Y-105845322D01*
X146560226Y-105832903D01*
X146522488Y-105812731D01*
X146489412Y-105785588D01*
X146462269Y-105752512D01*
X146442097Y-105714774D01*
X146429678Y-105673832D01*
X146425000Y-105626342D01*
X146425000Y-104998658D01*
X146429678Y-104951168D01*
X146442097Y-104910226D01*
X146462269Y-104872488D01*
X146489412Y-104839412D01*
X146522488Y-104812269D01*
X146560226Y-104792097D01*
X146601168Y-104779678D01*
X146648658Y-104775000D01*
X147351342Y-104775000D01*
X147398832Y-104779678D01*
G37*
G36*
X168628708Y-103905158D02*
G01*
X168674345Y-103919001D01*
X168716400Y-103941480D01*
X168753265Y-103971735D01*
X168783520Y-104008600D01*
X168805999Y-104050655D01*
X168819842Y-104096292D01*
X168825000Y-104148658D01*
X168825000Y-105251342D01*
X168819842Y-105303708D01*
X168805999Y-105349345D01*
X168783520Y-105391400D01*
X168753265Y-105428265D01*
X168716400Y-105458520D01*
X168674345Y-105480999D01*
X168628708Y-105494842D01*
X168576342Y-105500000D01*
X167898658Y-105500000D01*
X167846292Y-105494842D01*
X167800655Y-105480999D01*
X167758600Y-105458520D01*
X167721735Y-105428265D01*
X167691480Y-105391400D01*
X167669001Y-105349345D01*
X167655158Y-105303708D01*
X167650000Y-105251342D01*
X167650000Y-104148658D01*
X167655158Y-104096292D01*
X167669001Y-104050655D01*
X167691480Y-104008600D01*
X167721735Y-103971735D01*
X167758600Y-103941480D01*
X167800655Y-103919001D01*
X167846292Y-103905158D01*
X167898658Y-103900000D01*
X168576342Y-103900000D01*
X168628708Y-103905158D01*
G37*
G36*
X166753708Y-103905158D02*
G01*
X166799345Y-103919001D01*
X166841400Y-103941480D01*
X166878265Y-103971735D01*
X166908520Y-104008600D01*
X166930999Y-104050655D01*
X166944842Y-104096292D01*
X166950000Y-104148658D01*
X166950000Y-105251342D01*
X166944842Y-105303708D01*
X166930999Y-105349345D01*
X166908520Y-105391400D01*
X166878265Y-105428265D01*
X166841400Y-105458520D01*
X166799345Y-105480999D01*
X166753708Y-105494842D01*
X166701342Y-105500000D01*
X166023658Y-105500000D01*
X165971292Y-105494842D01*
X165925655Y-105480999D01*
X165883600Y-105458520D01*
X165846735Y-105428265D01*
X165816480Y-105391400D01*
X165794001Y-105349345D01*
X165780158Y-105303708D01*
X165775000Y-105251342D01*
X165775000Y-104148658D01*
X165780158Y-104096292D01*
X165794001Y-104050655D01*
X165816480Y-104008600D01*
X165846735Y-103971735D01*
X165883600Y-103941480D01*
X165925655Y-103919001D01*
X165971292Y-103905158D01*
X166023658Y-103900000D01*
X166701342Y-103900000D01*
X166753708Y-103905158D01*
G37*
G36*
X163673832Y-104129678D02*
G01*
X163714774Y-104142097D01*
X163752512Y-104162269D01*
X163785588Y-104189412D01*
X163812731Y-104222488D01*
X163832903Y-104260226D01*
X163845322Y-104301168D01*
X163850000Y-104348658D01*
X163850000Y-105051342D01*
X163845322Y-105098832D01*
X163832903Y-105139774D01*
X163812731Y-105177512D01*
X163785588Y-105210588D01*
X163752512Y-105237731D01*
X163714774Y-105257903D01*
X163673832Y-105270322D01*
X163626342Y-105275000D01*
X162998658Y-105275000D01*
X162951168Y-105270322D01*
X162910226Y-105257903D01*
X162872488Y-105237731D01*
X162839412Y-105210588D01*
X162812269Y-105177512D01*
X162792097Y-105139774D01*
X162779678Y-105098832D01*
X162775000Y-105051342D01*
X162775000Y-104348658D01*
X162779678Y-104301168D01*
X162792097Y-104260226D01*
X162812269Y-104222488D01*
X162839412Y-104189412D01*
X162872488Y-104162269D01*
X162910226Y-104142097D01*
X162951168Y-104129678D01*
X162998658Y-104125000D01*
X163626342Y-104125000D01*
X163673832Y-104129678D01*
G37*
G36*
X165248832Y-104129678D02*
G01*
X165289774Y-104142097D01*
X165327512Y-104162269D01*
X165360588Y-104189412D01*
X165387731Y-104222488D01*
X165407903Y-104260226D01*
X165420322Y-104301168D01*
X165425000Y-104348658D01*
X165425000Y-105051342D01*
X165420322Y-105098832D01*
X165407903Y-105139774D01*
X165387731Y-105177512D01*
X165360588Y-105210588D01*
X165327512Y-105237731D01*
X165289774Y-105257903D01*
X165248832Y-105270322D01*
X165201342Y-105275000D01*
X164573658Y-105275000D01*
X164526168Y-105270322D01*
X164485226Y-105257903D01*
X164447488Y-105237731D01*
X164414412Y-105210588D01*
X164387269Y-105177512D01*
X164367097Y-105139774D01*
X164354678Y-105098832D01*
X164350000Y-105051342D01*
X164350000Y-104348658D01*
X164354678Y-104301168D01*
X164367097Y-104260226D01*
X164387269Y-104222488D01*
X164414412Y-104189412D01*
X164447488Y-104162269D01*
X164485226Y-104142097D01*
X164526168Y-104129678D01*
X164573658Y-104125000D01*
X165201342Y-104125000D01*
X165248832Y-104129678D01*
G37*
G36*
X135010000Y-105075000D02*
G01*
X133710000Y-105075000D01*
X133710000Y-100275000D01*
X135010000Y-100275000D01*
X135010000Y-105075000D01*
G37*
G36*
X140090000Y-105075000D02*
G01*
X138790000Y-105075000D01*
X138790000Y-100275000D01*
X140090000Y-100275000D01*
X140090000Y-105075000D01*
G37*
G36*
X159498832Y-103454678D02*
G01*
X159539774Y-103467097D01*
X159577512Y-103487269D01*
X159610588Y-103514412D01*
X159637731Y-103547488D01*
X159657903Y-103585226D01*
X159670322Y-103626168D01*
X159675000Y-103673658D01*
X159675000Y-104301342D01*
X159670322Y-104348832D01*
X159657903Y-104389774D01*
X159637731Y-104427512D01*
X159610588Y-104460588D01*
X159577512Y-104487731D01*
X159539774Y-104507903D01*
X159498832Y-104520322D01*
X159451342Y-104525000D01*
X158748658Y-104525000D01*
X158701168Y-104520322D01*
X158660226Y-104507903D01*
X158622488Y-104487731D01*
X158589412Y-104460588D01*
X158562269Y-104427512D01*
X158542097Y-104389774D01*
X158529678Y-104348832D01*
X158525000Y-104301342D01*
X158525000Y-103673658D01*
X158529678Y-103626168D01*
X158542097Y-103585226D01*
X158562269Y-103547488D01*
X158589412Y-103514412D01*
X158622488Y-103487269D01*
X158660226Y-103467097D01*
X158701168Y-103454678D01*
X158748658Y-103450000D01*
X159451342Y-103450000D01*
X159498832Y-103454678D01*
G37*
G36*
X163673832Y-102629678D02*
G01*
X163714774Y-102642097D01*
X163752512Y-102662269D01*
X163785588Y-102689412D01*
X163812731Y-102722488D01*
X163832903Y-102760226D01*
X163845322Y-102801168D01*
X163850000Y-102848658D01*
X163850000Y-103551342D01*
X163845322Y-103598832D01*
X163832903Y-103639774D01*
X163812731Y-103677512D01*
X163785588Y-103710588D01*
X163752512Y-103737731D01*
X163714774Y-103757903D01*
X163673832Y-103770322D01*
X163626342Y-103775000D01*
X162998658Y-103775000D01*
X162951168Y-103770322D01*
X162910226Y-103757903D01*
X162872488Y-103737731D01*
X162839412Y-103710588D01*
X162812269Y-103677512D01*
X162792097Y-103639774D01*
X162779678Y-103598832D01*
X162775000Y-103551342D01*
X162775000Y-102848658D01*
X162779678Y-102801168D01*
X162792097Y-102760226D01*
X162812269Y-102722488D01*
X162839412Y-102689412D01*
X162872488Y-102662269D01*
X162910226Y-102642097D01*
X162951168Y-102629678D01*
X162998658Y-102625000D01*
X163626342Y-102625000D01*
X163673832Y-102629678D01*
G37*
G36*
X165248832Y-102629678D02*
G01*
X165289774Y-102642097D01*
X165327512Y-102662269D01*
X165360588Y-102689412D01*
X165387731Y-102722488D01*
X165407903Y-102760226D01*
X165420322Y-102801168D01*
X165425000Y-102848658D01*
X165425000Y-103551342D01*
X165420322Y-103598832D01*
X165407903Y-103639774D01*
X165387731Y-103677512D01*
X165360588Y-103710588D01*
X165327512Y-103737731D01*
X165289774Y-103757903D01*
X165248832Y-103770322D01*
X165201342Y-103775000D01*
X164573658Y-103775000D01*
X164526168Y-103770322D01*
X164485226Y-103757903D01*
X164447488Y-103737731D01*
X164414412Y-103710588D01*
X164387269Y-103677512D01*
X164367097Y-103639774D01*
X164354678Y-103598832D01*
X164350000Y-103551342D01*
X164350000Y-102848658D01*
X164354678Y-102801168D01*
X164367097Y-102760226D01*
X164387269Y-102722488D01*
X164414412Y-102689412D01*
X164447488Y-102662269D01*
X164485226Y-102642097D01*
X164526168Y-102629678D01*
X164573658Y-102625000D01*
X165201342Y-102625000D01*
X165248832Y-102629678D01*
G37*
G36*
X166753708Y-102005158D02*
G01*
X166799345Y-102019001D01*
X166841400Y-102041480D01*
X166878265Y-102071735D01*
X166908520Y-102108600D01*
X166930999Y-102150655D01*
X166944842Y-102196292D01*
X166950000Y-102248658D01*
X166950000Y-103351342D01*
X166944842Y-103403708D01*
X166930999Y-103449345D01*
X166908520Y-103491400D01*
X166878265Y-103528265D01*
X166841400Y-103558520D01*
X166799345Y-103580999D01*
X166753708Y-103594842D01*
X166701342Y-103600000D01*
X166023658Y-103600000D01*
X165971292Y-103594842D01*
X165925655Y-103580999D01*
X165883600Y-103558520D01*
X165846735Y-103528265D01*
X165816480Y-103491400D01*
X165794001Y-103449345D01*
X165780158Y-103403708D01*
X165775000Y-103351342D01*
X165775000Y-102248658D01*
X165780158Y-102196292D01*
X165794001Y-102150655D01*
X165816480Y-102108600D01*
X165846735Y-102071735D01*
X165883600Y-102041480D01*
X165925655Y-102019001D01*
X165971292Y-102005158D01*
X166023658Y-102000000D01*
X166701342Y-102000000D01*
X166753708Y-102005158D01*
G37*
G36*
X168628708Y-102005158D02*
G01*
X168674345Y-102019001D01*
X168716400Y-102041480D01*
X168753265Y-102071735D01*
X168783520Y-102108600D01*
X168805999Y-102150655D01*
X168819842Y-102196292D01*
X168825000Y-102248658D01*
X168825000Y-103351342D01*
X168819842Y-103403708D01*
X168805999Y-103449345D01*
X168783520Y-103491400D01*
X168753265Y-103528265D01*
X168716400Y-103558520D01*
X168674345Y-103580999D01*
X168628708Y-103594842D01*
X168576342Y-103600000D01*
X167898658Y-103600000D01*
X167846292Y-103594842D01*
X167800655Y-103580999D01*
X167758600Y-103558520D01*
X167721735Y-103528265D01*
X167691480Y-103491400D01*
X167669001Y-103449345D01*
X167655158Y-103403708D01*
X167650000Y-103351342D01*
X167650000Y-102248658D01*
X167655158Y-102196292D01*
X167669001Y-102150655D01*
X167691480Y-102108600D01*
X167721735Y-102071735D01*
X167758600Y-102041480D01*
X167800655Y-102019001D01*
X167846292Y-102005158D01*
X167898658Y-102000000D01*
X168576342Y-102000000D01*
X168628708Y-102005158D01*
G37*
G36*
X159498832Y-101879678D02*
G01*
X159539774Y-101892097D01*
X159577512Y-101912269D01*
X159610588Y-101939412D01*
X159637731Y-101972488D01*
X159657903Y-102010226D01*
X159670322Y-102051168D01*
X159675000Y-102098658D01*
X159675000Y-102726342D01*
X159670322Y-102773832D01*
X159657903Y-102814774D01*
X159637731Y-102852512D01*
X159610588Y-102885588D01*
X159577512Y-102912731D01*
X159539774Y-102932903D01*
X159498832Y-102945322D01*
X159451342Y-102950000D01*
X158748658Y-102950000D01*
X158701168Y-102945322D01*
X158660226Y-102932903D01*
X158622488Y-102912731D01*
X158589412Y-102885588D01*
X158562269Y-102852512D01*
X158542097Y-102814774D01*
X158529678Y-102773832D01*
X158525000Y-102726342D01*
X158525000Y-102098658D01*
X158529678Y-102051168D01*
X158542097Y-102010226D01*
X158562269Y-101972488D01*
X158589412Y-101939412D01*
X158622488Y-101912269D01*
X158660226Y-101892097D01*
X158701168Y-101879678D01*
X158748658Y-101875000D01*
X159451342Y-101875000D01*
X159498832Y-101879678D01*
G37*
G36*
X155975000Y-102500000D02*
G01*
X150025000Y-102500000D01*
X150025000Y-101000000D01*
X155975000Y-101000000D01*
X155975000Y-102500000D01*
G37*
G36*
X163673832Y-101129678D02*
G01*
X163714774Y-101142097D01*
X163752512Y-101162269D01*
X163785588Y-101189412D01*
X163812731Y-101222488D01*
X163832903Y-101260226D01*
X163845322Y-101301168D01*
X163850000Y-101348658D01*
X163850000Y-102051342D01*
X163845322Y-102098832D01*
X163832903Y-102139774D01*
X163812731Y-102177512D01*
X163785588Y-102210588D01*
X163752512Y-102237731D01*
X163714774Y-102257903D01*
X163673832Y-102270322D01*
X163626342Y-102275000D01*
X162998658Y-102275000D01*
X162951168Y-102270322D01*
X162910226Y-102257903D01*
X162872488Y-102237731D01*
X162839412Y-102210588D01*
X162812269Y-102177512D01*
X162792097Y-102139774D01*
X162779678Y-102098832D01*
X162775000Y-102051342D01*
X162775000Y-101348658D01*
X162779678Y-101301168D01*
X162792097Y-101260226D01*
X162812269Y-101222488D01*
X162839412Y-101189412D01*
X162872488Y-101162269D01*
X162910226Y-101142097D01*
X162951168Y-101129678D01*
X162998658Y-101125000D01*
X163626342Y-101125000D01*
X163673832Y-101129678D01*
G37*
G36*
X165248832Y-101129678D02*
G01*
X165289774Y-101142097D01*
X165327512Y-101162269D01*
X165360588Y-101189412D01*
X165387731Y-101222488D01*
X165407903Y-101260226D01*
X165420322Y-101301168D01*
X165425000Y-101348658D01*
X165425000Y-102051342D01*
X165420322Y-102098832D01*
X165407903Y-102139774D01*
X165387731Y-102177512D01*
X165360588Y-102210588D01*
X165327512Y-102237731D01*
X165289774Y-102257903D01*
X165248832Y-102270322D01*
X165201342Y-102275000D01*
X164573658Y-102275000D01*
X164526168Y-102270322D01*
X164485226Y-102257903D01*
X164447488Y-102237731D01*
X164414412Y-102210588D01*
X164387269Y-102177512D01*
X164367097Y-102139774D01*
X164354678Y-102098832D01*
X164350000Y-102051342D01*
X164350000Y-101348658D01*
X164354678Y-101301168D01*
X164367097Y-101260226D01*
X164387269Y-101222488D01*
X164414412Y-101189412D01*
X164447488Y-101162269D01*
X164485226Y-101142097D01*
X164526168Y-101129678D01*
X164573658Y-101125000D01*
X165201342Y-101125000D01*
X165248832Y-101129678D01*
G37*
G36*
X168628708Y-100105158D02*
G01*
X168674345Y-100119001D01*
X168716400Y-100141480D01*
X168753265Y-100171735D01*
X168783520Y-100208600D01*
X168805999Y-100250655D01*
X168819842Y-100296292D01*
X168825000Y-100348658D01*
X168825000Y-101451342D01*
X168819842Y-101503708D01*
X168805999Y-101549345D01*
X168783520Y-101591400D01*
X168753265Y-101628265D01*
X168716400Y-101658520D01*
X168674345Y-101680999D01*
X168628708Y-101694842D01*
X168576342Y-101700000D01*
X167898658Y-101700000D01*
X167846292Y-101694842D01*
X167800655Y-101680999D01*
X167758600Y-101658520D01*
X167721735Y-101628265D01*
X167691480Y-101591400D01*
X167669001Y-101549345D01*
X167655158Y-101503708D01*
X167650000Y-101451342D01*
X167650000Y-100348658D01*
X167655158Y-100296292D01*
X167669001Y-100250655D01*
X167691480Y-100208600D01*
X167721735Y-100171735D01*
X167758600Y-100141480D01*
X167800655Y-100119001D01*
X167846292Y-100105158D01*
X167898658Y-100100000D01*
X168576342Y-100100000D01*
X168628708Y-100105158D01*
G37*
G36*
X166753708Y-100105158D02*
G01*
X166799345Y-100119001D01*
X166841400Y-100141480D01*
X166878265Y-100171735D01*
X166908520Y-100208600D01*
X166930999Y-100250655D01*
X166944842Y-100296292D01*
X166950000Y-100348658D01*
X166950000Y-101451342D01*
X166944842Y-101503708D01*
X166930999Y-101549345D01*
X166908520Y-101591400D01*
X166878265Y-101628265D01*
X166841400Y-101658520D01*
X166799345Y-101680999D01*
X166753708Y-101694842D01*
X166701342Y-101700000D01*
X166023658Y-101700000D01*
X165971292Y-101694842D01*
X165925655Y-101680999D01*
X165883600Y-101658520D01*
X165846735Y-101628265D01*
X165816480Y-101591400D01*
X165794001Y-101549345D01*
X165780158Y-101503708D01*
X165775000Y-101451342D01*
X165775000Y-100348658D01*
X165780158Y-100296292D01*
X165794001Y-100250655D01*
X165816480Y-100208600D01*
X165846735Y-100171735D01*
X165883600Y-100141480D01*
X165925655Y-100119001D01*
X165971292Y-100105158D01*
X166023658Y-100100000D01*
X166701342Y-100100000D01*
X166753708Y-100105158D01*
G37*
G36*
X129162520Y-99934586D02*
G01*
X129162522Y-99934587D01*
X129162523Y-99934587D01*
X129209952Y-99954233D01*
X129326310Y-100002430D01*
X129473717Y-100100924D01*
X129599076Y-100226283D01*
X129697570Y-100373690D01*
X129740269Y-100476774D01*
X129763677Y-100533285D01*
X129765414Y-100537480D01*
X129800000Y-100711358D01*
X129800000Y-100888642D01*
X129765414Y-101062520D01*
X129697570Y-101226310D01*
X129599076Y-101373717D01*
X129473717Y-101499076D01*
X129326310Y-101597570D01*
X129223025Y-101640352D01*
X129162523Y-101665413D01*
X129162522Y-101665413D01*
X129162520Y-101665414D01*
X128988642Y-101700000D01*
X128811358Y-101700000D01*
X128637480Y-101665414D01*
X128637478Y-101665413D01*
X128637477Y-101665413D01*
X128576975Y-101640352D01*
X128473690Y-101597570D01*
X128326283Y-101499076D01*
X128200924Y-101373717D01*
X128102430Y-101226310D01*
X128034586Y-101062520D01*
X128000000Y-100888642D01*
X128000000Y-100711358D01*
X128034586Y-100537480D01*
X128036324Y-100533285D01*
X128059731Y-100476774D01*
X128102430Y-100373690D01*
X128200924Y-100226283D01*
X128326283Y-100100924D01*
X128473690Y-100002430D01*
X128590048Y-99954233D01*
X128637477Y-99934587D01*
X128637478Y-99934587D01*
X128637480Y-99934586D01*
X128811358Y-99900000D01*
X128988642Y-99900000D01*
X129162520Y-99934586D01*
G37*
G36*
X108764081Y-98175903D02*
G01*
X108769603Y-98176447D01*
X108779028Y-98179306D01*
X108788455Y-98182165D01*
X108805825Y-98191449D01*
X108821053Y-98203947D01*
X108833551Y-98219175D01*
X108842835Y-98236545D01*
X108848553Y-98255398D01*
X108850968Y-98279910D01*
X108850968Y-99270090D01*
X108848553Y-99294602D01*
X108842835Y-99313455D01*
X108833551Y-99330825D01*
X108821620Y-99345362D01*
X108821053Y-99346053D01*
X108819033Y-99347709D01*
X108805205Y-99361524D01*
X108794306Y-99377818D01*
X108786795Y-99395926D01*
X108782961Y-99415150D01*
X108782952Y-99434753D01*
X108786767Y-99453982D01*
X108794259Y-99472097D01*
X108805142Y-99488402D01*
X108818954Y-99502234D01*
X108821127Y-99504021D01*
X108823806Y-99507293D01*
X108833608Y-99519262D01*
X108842876Y-99536645D01*
X108848581Y-99555523D01*
X108850968Y-99579891D01*
X108850968Y-100720090D01*
X108848553Y-100744602D01*
X108842835Y-100763455D01*
X108833551Y-100780825D01*
X108821053Y-100796053D01*
X108805825Y-100808551D01*
X108788455Y-100817835D01*
X108779028Y-100820694D01*
X108769603Y-100823553D01*
X108764081Y-100824097D01*
X108745090Y-100825968D01*
X107254910Y-100825968D01*
X107235919Y-100824097D01*
X107230397Y-100823553D01*
X107220972Y-100820694D01*
X107211545Y-100817835D01*
X107194175Y-100808551D01*
X107178947Y-100796053D01*
X107166449Y-100780825D01*
X107157165Y-100763455D01*
X107151447Y-100744602D01*
X107149032Y-100720090D01*
X107149032Y-99579910D01*
X107151447Y-99555398D01*
X107157165Y-99536545D01*
X107166449Y-99519175D01*
X107178947Y-99503947D01*
X107180948Y-99502305D01*
X107194809Y-99488444D01*
X107205700Y-99472144D01*
X107213202Y-99454033D01*
X107217026Y-99434807D01*
X107217026Y-99415203D01*
X107213202Y-99395977D01*
X107205700Y-99377866D01*
X107194809Y-99361566D01*
X107180866Y-99347638D01*
X107180503Y-99347341D01*
X107179021Y-99346127D01*
X107166509Y-99330913D01*
X107166508Y-99330912D01*
X107166506Y-99330909D01*
X107157206Y-99313553D01*
X107157176Y-99313455D01*
X107151467Y-99294707D01*
X107149516Y-99275000D01*
X107149516Y-99274950D01*
X107149032Y-99270063D01*
X107149032Y-98279910D01*
X107151447Y-98255398D01*
X107157165Y-98236545D01*
X107166449Y-98219175D01*
X107178947Y-98203947D01*
X107194175Y-98191449D01*
X107211545Y-98182165D01*
X107220972Y-98179306D01*
X107230397Y-98176447D01*
X107235919Y-98175903D01*
X107254910Y-98174032D01*
X108745090Y-98174032D01*
X108764081Y-98175903D01*
G37*
G36*
X148653332Y-99466678D02*
G01*
X148694274Y-99479097D01*
X148732012Y-99499269D01*
X148765088Y-99526412D01*
X148792231Y-99559488D01*
X148812403Y-99597226D01*
X148824822Y-99638168D01*
X148829500Y-99685658D01*
X148829500Y-100388342D01*
X148824822Y-100435832D01*
X148812403Y-100476774D01*
X148792231Y-100514512D01*
X148765088Y-100547588D01*
X148732012Y-100574731D01*
X148694274Y-100594903D01*
X148653332Y-100607322D01*
X148605842Y-100612000D01*
X147978158Y-100612000D01*
X147930668Y-100607322D01*
X147889726Y-100594903D01*
X147851988Y-100574731D01*
X147818912Y-100547588D01*
X147791769Y-100514512D01*
X147771597Y-100476774D01*
X147759178Y-100435832D01*
X147754500Y-100388342D01*
X147754500Y-99685658D01*
X147759178Y-99638168D01*
X147771597Y-99597226D01*
X147791769Y-99559488D01*
X147818912Y-99526412D01*
X147851988Y-99499269D01*
X147889726Y-99479097D01*
X147930668Y-99466678D01*
X147978158Y-99462000D01*
X148605842Y-99462000D01*
X148653332Y-99466678D01*
G37*
G36*
X150228332Y-99466678D02*
G01*
X150269274Y-99479097D01*
X150307012Y-99499269D01*
X150340088Y-99526412D01*
X150367231Y-99559488D01*
X150387403Y-99597226D01*
X150399822Y-99638168D01*
X150404500Y-99685658D01*
X150404500Y-100388342D01*
X150399822Y-100435832D01*
X150387403Y-100476774D01*
X150367231Y-100514512D01*
X150340088Y-100547588D01*
X150307012Y-100574731D01*
X150269274Y-100594903D01*
X150228332Y-100607322D01*
X150180842Y-100612000D01*
X149553158Y-100612000D01*
X149505668Y-100607322D01*
X149464726Y-100594903D01*
X149426988Y-100574731D01*
X149393912Y-100547588D01*
X149366769Y-100514512D01*
X149346597Y-100476774D01*
X149334178Y-100435832D01*
X149329500Y-100388342D01*
X149329500Y-99685658D01*
X149334178Y-99638168D01*
X149346597Y-99597226D01*
X149366769Y-99559488D01*
X149393912Y-99526412D01*
X149426988Y-99499269D01*
X149464726Y-99479097D01*
X149505668Y-99466678D01*
X149553158Y-99462000D01*
X150180842Y-99462000D01*
X150228332Y-99466678D01*
G37*
G36*
X154703708Y-97492658D02*
G01*
X154749345Y-97506501D01*
X154791400Y-97528980D01*
X154828265Y-97559235D01*
X154858520Y-97596100D01*
X154880999Y-97638155D01*
X154894842Y-97683792D01*
X154900000Y-97736158D01*
X154900000Y-98413842D01*
X154894842Y-98466208D01*
X154880999Y-98511845D01*
X154858520Y-98553900D01*
X154828265Y-98590765D01*
X154791400Y-98621020D01*
X154749345Y-98643499D01*
X154703708Y-98657342D01*
X154651342Y-98662500D01*
X153548658Y-98662500D01*
X153496292Y-98657342D01*
X153450655Y-98643499D01*
X153408600Y-98621020D01*
X153371735Y-98590765D01*
X153341480Y-98553900D01*
X153319001Y-98511845D01*
X153305158Y-98466208D01*
X153300000Y-98413842D01*
X153300000Y-97736158D01*
X153305158Y-97683792D01*
X153319001Y-97638155D01*
X153341480Y-97596100D01*
X153371735Y-97559235D01*
X153408600Y-97528980D01*
X153450655Y-97506501D01*
X153496292Y-97492658D01*
X153548658Y-97487500D01*
X154651342Y-97487500D01*
X154703708Y-97492658D01*
G37*
G36*
X142400000Y-98325000D02*
G01*
X131400000Y-98325000D01*
X131400000Y-88725000D01*
X142400000Y-88725000D01*
X142400000Y-98325000D01*
G37*
G36*
X129118456Y-95855072D02*
G01*
X129318648Y-95937994D01*
X129498808Y-96058373D01*
X129652027Y-96211592D01*
X129772406Y-96391752D01*
X129855328Y-96591944D01*
X129897600Y-96804457D01*
X129897600Y-97021143D01*
X129855328Y-97233656D01*
X129772406Y-97433848D01*
X129652027Y-97614008D01*
X129498808Y-97767227D01*
X129318648Y-97887606D01*
X129118456Y-97970528D01*
X128905943Y-98012800D01*
X128689257Y-98012800D01*
X128476744Y-97970528D01*
X128276552Y-97887606D01*
X128096392Y-97767227D01*
X127943173Y-97614008D01*
X127822794Y-97433848D01*
X127739872Y-97233656D01*
X127697600Y-97021143D01*
X127697600Y-96804457D01*
X127739872Y-96591944D01*
X127822794Y-96391752D01*
X127943173Y-96211592D01*
X128096392Y-96058373D01*
X128276552Y-95937994D01*
X128476744Y-95855072D01*
X128689257Y-95812800D01*
X128905943Y-95812800D01*
X129118456Y-95855072D01*
G37*
G36*
X154703708Y-95617658D02*
G01*
X154749345Y-95631501D01*
X154791400Y-95653980D01*
X154828265Y-95684235D01*
X154858520Y-95721100D01*
X154880999Y-95763155D01*
X154894842Y-95808792D01*
X154900000Y-95861158D01*
X154900000Y-96538842D01*
X154894842Y-96591208D01*
X154880999Y-96636845D01*
X154858520Y-96678900D01*
X154828265Y-96715765D01*
X154791400Y-96746020D01*
X154749345Y-96768499D01*
X154703708Y-96782342D01*
X154651342Y-96787500D01*
X153548658Y-96787500D01*
X153496292Y-96782342D01*
X153450655Y-96768499D01*
X153408600Y-96746020D01*
X153371735Y-96715765D01*
X153341480Y-96678900D01*
X153319001Y-96636845D01*
X153305158Y-96591208D01*
X153300000Y-96538842D01*
X153300000Y-95861158D01*
X153305158Y-95808792D01*
X153319001Y-95763155D01*
X153341480Y-95721100D01*
X153371735Y-95684235D01*
X153408600Y-95653980D01*
X153450655Y-95631501D01*
X153496292Y-95617658D01*
X153548658Y-95612500D01*
X154651342Y-95612500D01*
X154703708Y-95617658D01*
G37*
G36*
X121173832Y-95629678D02*
G01*
X121214774Y-95642097D01*
X121252512Y-95662269D01*
X121285588Y-95689412D01*
X121312731Y-95722488D01*
X121332903Y-95760226D01*
X121345322Y-95801168D01*
X121350000Y-95848658D01*
X121350000Y-96551342D01*
X121345322Y-96598832D01*
X121332903Y-96639774D01*
X121312731Y-96677512D01*
X121285588Y-96710588D01*
X121252512Y-96737731D01*
X121214774Y-96757903D01*
X121173832Y-96770322D01*
X121126342Y-96775000D01*
X120498658Y-96775000D01*
X120451168Y-96770322D01*
X120410226Y-96757903D01*
X120372488Y-96737731D01*
X120339412Y-96710588D01*
X120312269Y-96677512D01*
X120292097Y-96639774D01*
X120279678Y-96598832D01*
X120275000Y-96551342D01*
X120275000Y-95848658D01*
X120279678Y-95801168D01*
X120292097Y-95760226D01*
X120312269Y-95722488D01*
X120339412Y-95689412D01*
X120372488Y-95662269D01*
X120410226Y-95642097D01*
X120451168Y-95629678D01*
X120498658Y-95625000D01*
X121126342Y-95625000D01*
X121173832Y-95629678D01*
G37*
G36*
X122748832Y-95629678D02*
G01*
X122789774Y-95642097D01*
X122827512Y-95662269D01*
X122860588Y-95689412D01*
X122887731Y-95722488D01*
X122907903Y-95760226D01*
X122920322Y-95801168D01*
X122925000Y-95848658D01*
X122925000Y-96551342D01*
X122920322Y-96598832D01*
X122907903Y-96639774D01*
X122887731Y-96677512D01*
X122860588Y-96710588D01*
X122827512Y-96737731D01*
X122789774Y-96757903D01*
X122748832Y-96770322D01*
X122701342Y-96775000D01*
X122073658Y-96775000D01*
X122026168Y-96770322D01*
X121985226Y-96757903D01*
X121947488Y-96737731D01*
X121914412Y-96710588D01*
X121887269Y-96677512D01*
X121867097Y-96639774D01*
X121854678Y-96598832D01*
X121850000Y-96551342D01*
X121850000Y-95848658D01*
X121854678Y-95801168D01*
X121867097Y-95760226D01*
X121887269Y-95722488D01*
X121914412Y-95689412D01*
X121947488Y-95662269D01*
X121985226Y-95642097D01*
X122026168Y-95629678D01*
X122073658Y-95625000D01*
X122701342Y-95625000D01*
X122748832Y-95629678D01*
G37*
G36*
X124173832Y-95629678D02*
G01*
X124214774Y-95642097D01*
X124252512Y-95662269D01*
X124285588Y-95689412D01*
X124312731Y-95722488D01*
X124332903Y-95760226D01*
X124345322Y-95801168D01*
X124350000Y-95848658D01*
X124350000Y-96551342D01*
X124345322Y-96598832D01*
X124332903Y-96639774D01*
X124312731Y-96677512D01*
X124285588Y-96710588D01*
X124252512Y-96737731D01*
X124214774Y-96757903D01*
X124173832Y-96770322D01*
X124126342Y-96775000D01*
X123498658Y-96775000D01*
X123451168Y-96770322D01*
X123410226Y-96757903D01*
X123372488Y-96737731D01*
X123339412Y-96710588D01*
X123312269Y-96677512D01*
X123292097Y-96639774D01*
X123279678Y-96598832D01*
X123275000Y-96551342D01*
X123275000Y-95848658D01*
X123279678Y-95801168D01*
X123292097Y-95760226D01*
X123312269Y-95722488D01*
X123339412Y-95689412D01*
X123372488Y-95662269D01*
X123410226Y-95642097D01*
X123451168Y-95629678D01*
X123498658Y-95625000D01*
X124126342Y-95625000D01*
X124173832Y-95629678D01*
G37*
G36*
X125748832Y-95629678D02*
G01*
X125789774Y-95642097D01*
X125827512Y-95662269D01*
X125860588Y-95689412D01*
X125887731Y-95722488D01*
X125907903Y-95760226D01*
X125920322Y-95801168D01*
X125925000Y-95848658D01*
X125925000Y-96551342D01*
X125920322Y-96598832D01*
X125907903Y-96639774D01*
X125887731Y-96677512D01*
X125860588Y-96710588D01*
X125827512Y-96737731D01*
X125789774Y-96757903D01*
X125748832Y-96770322D01*
X125701342Y-96775000D01*
X125073658Y-96775000D01*
X125026168Y-96770322D01*
X124985226Y-96757903D01*
X124947488Y-96737731D01*
X124914412Y-96710588D01*
X124887269Y-96677512D01*
X124867097Y-96639774D01*
X124854678Y-96598832D01*
X124850000Y-96551342D01*
X124850000Y-95848658D01*
X124854678Y-95801168D01*
X124867097Y-95760226D01*
X124887269Y-95722488D01*
X124914412Y-95689412D01*
X124947488Y-95662269D01*
X124985226Y-95642097D01*
X125026168Y-95629678D01*
X125073658Y-95625000D01*
X125701342Y-95625000D01*
X125748832Y-95629678D01*
G37*
G36*
X104014646Y-93669533D02*
G01*
X104269122Y-93746728D01*
X104503649Y-93872085D01*
X104709213Y-94040787D01*
X104877915Y-94246351D01*
X105003272Y-94480878D01*
X105080467Y-94735354D01*
X105106532Y-95000000D01*
X105080467Y-95264646D01*
X105003272Y-95519122D01*
X104877915Y-95753649D01*
X104709213Y-95959213D01*
X104503649Y-96127915D01*
X104269122Y-96253272D01*
X104014646Y-96330467D01*
X103816321Y-96350000D01*
X102183679Y-96350000D01*
X101985354Y-96330467D01*
X101730878Y-96253272D01*
X101496351Y-96127915D01*
X101290787Y-95959213D01*
X101122085Y-95753649D01*
X100996728Y-95519122D01*
X100919533Y-95264646D01*
X100893468Y-95000000D01*
X100919533Y-94735354D01*
X100996728Y-94480878D01*
X101122085Y-94246351D01*
X101290787Y-94040787D01*
X101496351Y-93872085D01*
X101730878Y-93746728D01*
X101985354Y-93669533D01*
X102183679Y-93650000D01*
X103816321Y-93650000D01*
X104014646Y-93669533D01*
G37*
G36*
X168014646Y-93669533D02*
G01*
X168269122Y-93746728D01*
X168503649Y-93872085D01*
X168709213Y-94040787D01*
X168877915Y-94246351D01*
X169003272Y-94480878D01*
X169080467Y-94735354D01*
X169106532Y-95000000D01*
X169080467Y-95264646D01*
X169003272Y-95519122D01*
X168877915Y-95753649D01*
X168709213Y-95959213D01*
X168503649Y-96127915D01*
X168269122Y-96253272D01*
X168014646Y-96330467D01*
X167816321Y-96350000D01*
X166183679Y-96350000D01*
X165985354Y-96330467D01*
X165730878Y-96253272D01*
X165496351Y-96127915D01*
X165290787Y-95959213D01*
X165122085Y-95753649D01*
X164996728Y-95519122D01*
X164919533Y-95264646D01*
X164893468Y-95000000D01*
X164919533Y-94735354D01*
X164996728Y-94480878D01*
X165122085Y-94246351D01*
X165290787Y-94040787D01*
X165496351Y-93872085D01*
X165730878Y-93746728D01*
X165985354Y-93669533D01*
X166183679Y-93650000D01*
X167816321Y-93650000D01*
X168014646Y-93669533D01*
G37*
G36*
X109054845Y-93718810D02*
G01*
X109299896Y-93793145D01*
X109447579Y-93872084D01*
X109525735Y-93913859D01*
X109525737Y-93913860D01*
X109525736Y-93913860D01*
X109723687Y-94076313D01*
X109863234Y-94246353D01*
X109886141Y-94274265D01*
X109924483Y-94345999D01*
X110006855Y-94500104D01*
X110081190Y-94745155D01*
X110106290Y-95000000D01*
X110081190Y-95254845D01*
X110006855Y-95499896D01*
X109939985Y-95625000D01*
X109887877Y-95722488D01*
X109886140Y-95725736D01*
X109723687Y-95923687D01*
X109559570Y-96058373D01*
X109525735Y-96086141D01*
X109454001Y-96124483D01*
X109299896Y-96206855D01*
X109054845Y-96281190D01*
X108863864Y-96300000D01*
X107136136Y-96300000D01*
X106945155Y-96281190D01*
X106700104Y-96206855D01*
X106545999Y-96124483D01*
X106474265Y-96086141D01*
X106440430Y-96058373D01*
X106276313Y-95923687D01*
X106113860Y-95725736D01*
X106112124Y-95722488D01*
X106060015Y-95625000D01*
X105993145Y-95499896D01*
X105918810Y-95254845D01*
X105893710Y-95000000D01*
X105918810Y-94745155D01*
X105993145Y-94500104D01*
X106075517Y-94345999D01*
X106113859Y-94274265D01*
X106136766Y-94246353D01*
X106276313Y-94076313D01*
X106474264Y-93913860D01*
X106474263Y-93913860D01*
X106474265Y-93913859D01*
X106552421Y-93872084D01*
X106700104Y-93793145D01*
X106945155Y-93718810D01*
X107136136Y-93700000D01*
X108863864Y-93700000D01*
X109054845Y-93718810D01*
G37*
G36*
X163054845Y-93718810D02*
G01*
X163299896Y-93793145D01*
X163447579Y-93872084D01*
X163525735Y-93913859D01*
X163525737Y-93913860D01*
X163525736Y-93913860D01*
X163723687Y-94076313D01*
X163863234Y-94246353D01*
X163886141Y-94274265D01*
X163924483Y-94345999D01*
X164006855Y-94500104D01*
X164081190Y-94745155D01*
X164106290Y-95000000D01*
X164081190Y-95254845D01*
X164006855Y-95499896D01*
X163939985Y-95625000D01*
X163887877Y-95722488D01*
X163886140Y-95725736D01*
X163723687Y-95923687D01*
X163559570Y-96058373D01*
X163525735Y-96086141D01*
X163454001Y-96124483D01*
X163299896Y-96206855D01*
X163054845Y-96281190D01*
X162863864Y-96300000D01*
X161136136Y-96300000D01*
X160945155Y-96281190D01*
X160700104Y-96206855D01*
X160545999Y-96124483D01*
X160474265Y-96086141D01*
X160440430Y-96058373D01*
X160276313Y-95923687D01*
X160113860Y-95725736D01*
X160112124Y-95722488D01*
X160060015Y-95625000D01*
X159993145Y-95499896D01*
X159918810Y-95254845D01*
X159893710Y-95000000D01*
X159918810Y-94745155D01*
X159993145Y-94500104D01*
X160075517Y-94345999D01*
X160113859Y-94274265D01*
X160136766Y-94246353D01*
X160276313Y-94076313D01*
X160474264Y-93913860D01*
X160474263Y-93913860D01*
X160474265Y-93913859D01*
X160552421Y-93872084D01*
X160700104Y-93793145D01*
X160945155Y-93718810D01*
X161136136Y-93700000D01*
X162863864Y-93700000D01*
X163054845Y-93718810D01*
G37*
G36*
X147403708Y-94155158D02*
G01*
X147449345Y-94169001D01*
X147491400Y-94191480D01*
X147528265Y-94221735D01*
X147558520Y-94258600D01*
X147580999Y-94300655D01*
X147594842Y-94346292D01*
X147600000Y-94398658D01*
X147600000Y-95076342D01*
X147594842Y-95128708D01*
X147580999Y-95174345D01*
X147558520Y-95216400D01*
X147528265Y-95253265D01*
X147491400Y-95283520D01*
X147449345Y-95305999D01*
X147403708Y-95319842D01*
X147351342Y-95325000D01*
X146248658Y-95325000D01*
X146196292Y-95319842D01*
X146150655Y-95305999D01*
X146108600Y-95283520D01*
X146071735Y-95253265D01*
X146041480Y-95216400D01*
X146019001Y-95174345D01*
X146005158Y-95128708D01*
X146000000Y-95076342D01*
X146000000Y-94398658D01*
X146005158Y-94346292D01*
X146019001Y-94300655D01*
X146041480Y-94258600D01*
X146071735Y-94221735D01*
X146108600Y-94191480D01*
X146150655Y-94169001D01*
X146196292Y-94155158D01*
X146248658Y-94150000D01*
X147351342Y-94150000D01*
X147403708Y-94155158D01*
G37*
G36*
X148953708Y-93705158D02*
G01*
X148999345Y-93719001D01*
X149041400Y-93741480D01*
X149078265Y-93771735D01*
X149108520Y-93808600D01*
X149130999Y-93850655D01*
X149144842Y-93896292D01*
X149150000Y-93948658D01*
X149150000Y-95051342D01*
X149144842Y-95103708D01*
X149130999Y-95149345D01*
X149108520Y-95191400D01*
X149078265Y-95228265D01*
X149041400Y-95258520D01*
X148999345Y-95280999D01*
X148953708Y-95294842D01*
X148901342Y-95300000D01*
X148223658Y-95300000D01*
X148171292Y-95294842D01*
X148125655Y-95280999D01*
X148083600Y-95258520D01*
X148046735Y-95228265D01*
X148016480Y-95191400D01*
X147994001Y-95149345D01*
X147980158Y-95103708D01*
X147975000Y-95051342D01*
X147975000Y-93948658D01*
X147980158Y-93896292D01*
X147994001Y-93850655D01*
X148016480Y-93808600D01*
X148046735Y-93771735D01*
X148083600Y-93741480D01*
X148125655Y-93719001D01*
X148171292Y-93705158D01*
X148223658Y-93700000D01*
X148901342Y-93700000D01*
X148953708Y-93705158D01*
G37*
G36*
X152453708Y-93705158D02*
G01*
X152499345Y-93719001D01*
X152541400Y-93741480D01*
X152578265Y-93771735D01*
X152608520Y-93808600D01*
X152630999Y-93850655D01*
X152644842Y-93896292D01*
X152650000Y-93948658D01*
X152650000Y-95051342D01*
X152644842Y-95103708D01*
X152630999Y-95149345D01*
X152608520Y-95191400D01*
X152578265Y-95228265D01*
X152541400Y-95258520D01*
X152499345Y-95280999D01*
X152453708Y-95294842D01*
X152401342Y-95300000D01*
X151723658Y-95300000D01*
X151671292Y-95294842D01*
X151625655Y-95280999D01*
X151583600Y-95258520D01*
X151546735Y-95228265D01*
X151516480Y-95191400D01*
X151494001Y-95149345D01*
X151480158Y-95103708D01*
X151475000Y-95051342D01*
X151475000Y-93948658D01*
X151480158Y-93896292D01*
X151494001Y-93850655D01*
X151516480Y-93808600D01*
X151546735Y-93771735D01*
X151583600Y-93741480D01*
X151625655Y-93719001D01*
X151671292Y-93705158D01*
X151723658Y-93700000D01*
X152401342Y-93700000D01*
X152453708Y-93705158D01*
G37*
G36*
X154328708Y-93705158D02*
G01*
X154374345Y-93719001D01*
X154416400Y-93741480D01*
X154453265Y-93771735D01*
X154483520Y-93808600D01*
X154505999Y-93850655D01*
X154519842Y-93896292D01*
X154525000Y-93948658D01*
X154525000Y-95051342D01*
X154519842Y-95103708D01*
X154505999Y-95149345D01*
X154483520Y-95191400D01*
X154453265Y-95228265D01*
X154416400Y-95258520D01*
X154374345Y-95280999D01*
X154328708Y-95294842D01*
X154276342Y-95300000D01*
X153598658Y-95300000D01*
X153546292Y-95294842D01*
X153500655Y-95280999D01*
X153458600Y-95258520D01*
X153421735Y-95228265D01*
X153391480Y-95191400D01*
X153369001Y-95149345D01*
X153355158Y-95103708D01*
X153350000Y-95051342D01*
X153350000Y-93948658D01*
X153355158Y-93896292D01*
X153369001Y-93850655D01*
X153391480Y-93808600D01*
X153421735Y-93771735D01*
X153458600Y-93741480D01*
X153500655Y-93719001D01*
X153546292Y-93705158D01*
X153598658Y-93700000D01*
X154276342Y-93700000D01*
X154328708Y-93705158D01*
G37*
G36*
X150828708Y-93705158D02*
G01*
X150874345Y-93719001D01*
X150916400Y-93741480D01*
X150953265Y-93771735D01*
X150983520Y-93808600D01*
X151005999Y-93850655D01*
X151019842Y-93896292D01*
X151025000Y-93948658D01*
X151025000Y-95051342D01*
X151019842Y-95103708D01*
X151005999Y-95149345D01*
X150983520Y-95191400D01*
X150953265Y-95228265D01*
X150916400Y-95258520D01*
X150874345Y-95280999D01*
X150828708Y-95294842D01*
X150776342Y-95300000D01*
X150098658Y-95300000D01*
X150046292Y-95294842D01*
X150000655Y-95280999D01*
X149958600Y-95258520D01*
X149921735Y-95228265D01*
X149891480Y-95191400D01*
X149869001Y-95149345D01*
X149855158Y-95103708D01*
X149850000Y-95051342D01*
X149850000Y-93948658D01*
X149855158Y-93896292D01*
X149869001Y-93850655D01*
X149891480Y-93808600D01*
X149921735Y-93771735D01*
X149958600Y-93741480D01*
X150000655Y-93719001D01*
X150046292Y-93705158D01*
X150098658Y-93700000D01*
X150776342Y-93700000D01*
X150828708Y-93705158D01*
G37*
G36*
X125605000Y-95275000D02*
G01*
X124805000Y-95275000D01*
X124805000Y-93525000D01*
X125605000Y-93525000D01*
X125605000Y-95275000D01*
G37*
G36*
X124335000Y-95275000D02*
G01*
X123535000Y-95275000D01*
X123535000Y-93525000D01*
X124335000Y-93525000D01*
X124335000Y-95275000D01*
G37*
G36*
X123065000Y-95275000D02*
G01*
X122265000Y-95275000D01*
X122265000Y-93525000D01*
X123065000Y-93525000D01*
X123065000Y-95275000D01*
G37*
G36*
X121795000Y-95275000D02*
G01*
X120995000Y-95275000D01*
X120995000Y-93525000D01*
X121795000Y-93525000D01*
X121795000Y-95275000D01*
G37*
G36*
X127197208Y-93209658D02*
G01*
X127242845Y-93223501D01*
X127284900Y-93245980D01*
X127321765Y-93276235D01*
X127352020Y-93313100D01*
X127374499Y-93355155D01*
X127388342Y-93400792D01*
X127393500Y-93453158D01*
X127393500Y-94555842D01*
X127388342Y-94608208D01*
X127374499Y-94653845D01*
X127352020Y-94695900D01*
X127321765Y-94732765D01*
X127284900Y-94763020D01*
X127242845Y-94785499D01*
X127197208Y-94799342D01*
X127144842Y-94804500D01*
X126467158Y-94804500D01*
X126414792Y-94799342D01*
X126369155Y-94785499D01*
X126327100Y-94763020D01*
X126290235Y-94732765D01*
X126259980Y-94695900D01*
X126237501Y-94653845D01*
X126223658Y-94608208D01*
X126218500Y-94555842D01*
X126218500Y-93453158D01*
X126223658Y-93400792D01*
X126237501Y-93355155D01*
X126259980Y-93313100D01*
X126290235Y-93276235D01*
X126327100Y-93245980D01*
X126369155Y-93223501D01*
X126414792Y-93209658D01*
X126467158Y-93204500D01*
X127144842Y-93204500D01*
X127197208Y-93209658D01*
G37*
G36*
X129072208Y-93209658D02*
G01*
X129117845Y-93223501D01*
X129159900Y-93245980D01*
X129196765Y-93276235D01*
X129227020Y-93313100D01*
X129249499Y-93355155D01*
X129263342Y-93400792D01*
X129268500Y-93453158D01*
X129268500Y-94555842D01*
X129263342Y-94608208D01*
X129249499Y-94653845D01*
X129227020Y-94695900D01*
X129196765Y-94732765D01*
X129159900Y-94763020D01*
X129117845Y-94785499D01*
X129072208Y-94799342D01*
X129019842Y-94804500D01*
X128342158Y-94804500D01*
X128289792Y-94799342D01*
X128244155Y-94785499D01*
X128202100Y-94763020D01*
X128165235Y-94732765D01*
X128134980Y-94695900D01*
X128112501Y-94653845D01*
X128098658Y-94608208D01*
X128093500Y-94555842D01*
X128093500Y-93453158D01*
X128098658Y-93400792D01*
X128112501Y-93355155D01*
X128134980Y-93313100D01*
X128165235Y-93276235D01*
X128202100Y-93245980D01*
X128244155Y-93223501D01*
X128289792Y-93209658D01*
X128342158Y-93204500D01*
X129019842Y-93204500D01*
X129072208Y-93209658D01*
G37*
G36*
X147403708Y-92280158D02*
G01*
X147449345Y-92294001D01*
X147491400Y-92316480D01*
X147528265Y-92346735D01*
X147558520Y-92383600D01*
X147580999Y-92425655D01*
X147594842Y-92471292D01*
X147600000Y-92523658D01*
X147600000Y-93201342D01*
X147594842Y-93253708D01*
X147580999Y-93299345D01*
X147558520Y-93341400D01*
X147528265Y-93378265D01*
X147491400Y-93408520D01*
X147449345Y-93430999D01*
X147403708Y-93444842D01*
X147351342Y-93450000D01*
X146248658Y-93450000D01*
X146196292Y-93444842D01*
X146150655Y-93430999D01*
X146108600Y-93408520D01*
X146071735Y-93378265D01*
X146041480Y-93341400D01*
X146019001Y-93299345D01*
X146005158Y-93253708D01*
X146000000Y-93201342D01*
X146000000Y-92523658D01*
X146005158Y-92471292D01*
X146019001Y-92425655D01*
X146041480Y-92383600D01*
X146071735Y-92346735D01*
X146108600Y-92316480D01*
X146150655Y-92294001D01*
X146196292Y-92280158D01*
X146248658Y-92275000D01*
X147351342Y-92275000D01*
X147403708Y-92280158D01*
G37*
G36*
X152348832Y-92229678D02*
G01*
X152389774Y-92242097D01*
X152427512Y-92262269D01*
X152460588Y-92289412D01*
X152487731Y-92322488D01*
X152507903Y-92360226D01*
X152520322Y-92401168D01*
X152525000Y-92448658D01*
X152525000Y-93151342D01*
X152520322Y-93198832D01*
X152507903Y-93239774D01*
X152487731Y-93277512D01*
X152460588Y-93310588D01*
X152427512Y-93337731D01*
X152389774Y-93357903D01*
X152348832Y-93370322D01*
X152301342Y-93375000D01*
X151673658Y-93375000D01*
X151626168Y-93370322D01*
X151585226Y-93357903D01*
X151547488Y-93337731D01*
X151514412Y-93310588D01*
X151487269Y-93277512D01*
X151467097Y-93239774D01*
X151454678Y-93198832D01*
X151450000Y-93151342D01*
X151450000Y-92448658D01*
X151454678Y-92401168D01*
X151467097Y-92360226D01*
X151487269Y-92322488D01*
X151514412Y-92289412D01*
X151547488Y-92262269D01*
X151585226Y-92242097D01*
X151626168Y-92229678D01*
X151673658Y-92225000D01*
X152301342Y-92225000D01*
X152348832Y-92229678D01*
G37*
G36*
X150773832Y-92229678D02*
G01*
X150814774Y-92242097D01*
X150852512Y-92262269D01*
X150885588Y-92289412D01*
X150912731Y-92322488D01*
X150932903Y-92360226D01*
X150945322Y-92401168D01*
X150950000Y-92448658D01*
X150950000Y-93151342D01*
X150945322Y-93198832D01*
X150932903Y-93239774D01*
X150912731Y-93277512D01*
X150885588Y-93310588D01*
X150852512Y-93337731D01*
X150814774Y-93357903D01*
X150773832Y-93370322D01*
X150726342Y-93375000D01*
X150098658Y-93375000D01*
X150051168Y-93370322D01*
X150010226Y-93357903D01*
X149972488Y-93337731D01*
X149939412Y-93310588D01*
X149912269Y-93277512D01*
X149892097Y-93239774D01*
X149879678Y-93198832D01*
X149875000Y-93151342D01*
X149875000Y-92448658D01*
X149879678Y-92401168D01*
X149892097Y-92360226D01*
X149912269Y-92322488D01*
X149939412Y-92289412D01*
X149972488Y-92262269D01*
X150010226Y-92242097D01*
X150051168Y-92229678D01*
X150098658Y-92225000D01*
X150726342Y-92225000D01*
X150773832Y-92229678D01*
G37*
G36*
X149303708Y-92155158D02*
G01*
X149349345Y-92169001D01*
X149391400Y-92191480D01*
X149428265Y-92221735D01*
X149458520Y-92258600D01*
X149480999Y-92300655D01*
X149494842Y-92346292D01*
X149500000Y-92398658D01*
X149500000Y-93076342D01*
X149494842Y-93128708D01*
X149480999Y-93174345D01*
X149458520Y-93216400D01*
X149428265Y-93253265D01*
X149391400Y-93283520D01*
X149349345Y-93305999D01*
X149303708Y-93319842D01*
X149251342Y-93325000D01*
X148148658Y-93325000D01*
X148096292Y-93319842D01*
X148050655Y-93305999D01*
X148008600Y-93283520D01*
X147971735Y-93253265D01*
X147941480Y-93216400D01*
X147919001Y-93174345D01*
X147905158Y-93128708D01*
X147900000Y-93076342D01*
X147900000Y-92398658D01*
X147905158Y-92346292D01*
X147919001Y-92300655D01*
X147941480Y-92258600D01*
X147971735Y-92221735D01*
X148008600Y-92191480D01*
X148050655Y-92169001D01*
X148096292Y-92155158D01*
X148148658Y-92150000D01*
X149251342Y-92150000D01*
X149303708Y-92155158D01*
G37*
G36*
X120450000Y-93100000D02*
G01*
X118550000Y-93100000D01*
X118550000Y-91600000D01*
X120450000Y-91600000D01*
X120450000Y-93100000D01*
G37*
G36*
X127197208Y-91241158D02*
G01*
X127242845Y-91255001D01*
X127284900Y-91277480D01*
X127321765Y-91307735D01*
X127352020Y-91344600D01*
X127374499Y-91386655D01*
X127388342Y-91432292D01*
X127393500Y-91484658D01*
X127393500Y-92587342D01*
X127388342Y-92639708D01*
X127374499Y-92685345D01*
X127352020Y-92727400D01*
X127321765Y-92764265D01*
X127284900Y-92794520D01*
X127242845Y-92816999D01*
X127197208Y-92830842D01*
X127144842Y-92836000D01*
X126467158Y-92836000D01*
X126414792Y-92830842D01*
X126369155Y-92816999D01*
X126327100Y-92794520D01*
X126290235Y-92764265D01*
X126259980Y-92727400D01*
X126237501Y-92685345D01*
X126223658Y-92639708D01*
X126218500Y-92587342D01*
X126218500Y-91484658D01*
X126223658Y-91432292D01*
X126237501Y-91386655D01*
X126259980Y-91344600D01*
X126290235Y-91307735D01*
X126327100Y-91277480D01*
X126369155Y-91255001D01*
X126414792Y-91241158D01*
X126467158Y-91236000D01*
X127144842Y-91236000D01*
X127197208Y-91241158D01*
G37*
G36*
X129072208Y-91241158D02*
G01*
X129117845Y-91255001D01*
X129159900Y-91277480D01*
X129196765Y-91307735D01*
X129227020Y-91344600D01*
X129249499Y-91386655D01*
X129263342Y-91432292D01*
X129268500Y-91484658D01*
X129268500Y-92587342D01*
X129263342Y-92639708D01*
X129249499Y-92685345D01*
X129227020Y-92727400D01*
X129196765Y-92764265D01*
X129159900Y-92794520D01*
X129117845Y-92816999D01*
X129072208Y-92830842D01*
X129019842Y-92836000D01*
X128342158Y-92836000D01*
X128289792Y-92830842D01*
X128244155Y-92816999D01*
X128202100Y-92794520D01*
X128165235Y-92764265D01*
X128134980Y-92727400D01*
X128112501Y-92685345D01*
X128098658Y-92639708D01*
X128093500Y-92587342D01*
X128093500Y-91484658D01*
X128098658Y-91432292D01*
X128112501Y-91386655D01*
X128134980Y-91344600D01*
X128165235Y-91307735D01*
X128202100Y-91277480D01*
X128244155Y-91255001D01*
X128289792Y-91241158D01*
X128342158Y-91236000D01*
X129019842Y-91236000D01*
X129072208Y-91241158D01*
G37*
G36*
X154705000Y-91875000D02*
G01*
X153905000Y-91875000D01*
X153905000Y-90125000D01*
X154705000Y-90125000D01*
X154705000Y-91875000D01*
G37*
G36*
X153435000Y-91875000D02*
G01*
X152635000Y-91875000D01*
X152635000Y-90125000D01*
X153435000Y-90125000D01*
X153435000Y-91875000D01*
G37*
G36*
X152165000Y-91875000D02*
G01*
X151365000Y-91875000D01*
X151365000Y-90125000D01*
X152165000Y-90125000D01*
X152165000Y-91875000D01*
G37*
G36*
X150895000Y-91875000D02*
G01*
X150095000Y-91875000D01*
X150095000Y-90125000D01*
X150895000Y-90125000D01*
X150895000Y-91875000D01*
G37*
G36*
X149303708Y-90280158D02*
G01*
X149349345Y-90294001D01*
X149391400Y-90316480D01*
X149428265Y-90346735D01*
X149458520Y-90383600D01*
X149480999Y-90425655D01*
X149494842Y-90471292D01*
X149500000Y-90523658D01*
X149500000Y-91201342D01*
X149494842Y-91253708D01*
X149480999Y-91299345D01*
X149458520Y-91341400D01*
X149428265Y-91378265D01*
X149391400Y-91408520D01*
X149349345Y-91430999D01*
X149303708Y-91444842D01*
X149251342Y-91450000D01*
X148148658Y-91450000D01*
X148096292Y-91444842D01*
X148050655Y-91430999D01*
X148008600Y-91408520D01*
X147971735Y-91378265D01*
X147941480Y-91341400D01*
X147919001Y-91299345D01*
X147905158Y-91253708D01*
X147900000Y-91201342D01*
X147900000Y-90523658D01*
X147905158Y-90471292D01*
X147919001Y-90425655D01*
X147941480Y-90383600D01*
X147971735Y-90346735D01*
X148008600Y-90316480D01*
X148050655Y-90294001D01*
X148096292Y-90280158D01*
X148148658Y-90275000D01*
X149251342Y-90275000D01*
X149303708Y-90280158D01*
G37*
G36*
X129172708Y-89724158D02*
G01*
X129218345Y-89738001D01*
X129260400Y-89760480D01*
X129297265Y-89790735D01*
X129327520Y-89827600D01*
X129349999Y-89869655D01*
X129363842Y-89915292D01*
X129369000Y-89967658D01*
X129369000Y-90645342D01*
X129363842Y-90697708D01*
X129349999Y-90743345D01*
X129327520Y-90785400D01*
X129297265Y-90822265D01*
X129260400Y-90852520D01*
X129218345Y-90874999D01*
X129172708Y-90888842D01*
X129120342Y-90894000D01*
X128017658Y-90894000D01*
X127965292Y-90888842D01*
X127919655Y-90874999D01*
X127877600Y-90852520D01*
X127840735Y-90822265D01*
X127810480Y-90785400D01*
X127788001Y-90743345D01*
X127774158Y-90697708D01*
X127769000Y-90645342D01*
X127769000Y-89967658D01*
X127774158Y-89915292D01*
X127788001Y-89869655D01*
X127810480Y-89827600D01*
X127840735Y-89790735D01*
X127877600Y-89760480D01*
X127919655Y-89738001D01*
X127965292Y-89724158D01*
X128017658Y-89719000D01*
X129120342Y-89719000D01*
X129172708Y-89724158D01*
G37*
G36*
X127189832Y-89750678D02*
G01*
X127230774Y-89763097D01*
X127268512Y-89783269D01*
X127301588Y-89810412D01*
X127328731Y-89843488D01*
X127348903Y-89881226D01*
X127361322Y-89922168D01*
X127366000Y-89969658D01*
X127366000Y-90597342D01*
X127361322Y-90644832D01*
X127348903Y-90685774D01*
X127328731Y-90723512D01*
X127301588Y-90756588D01*
X127268512Y-90783731D01*
X127230774Y-90803903D01*
X127189832Y-90816322D01*
X127142342Y-90821000D01*
X126439658Y-90821000D01*
X126392168Y-90816322D01*
X126351226Y-90803903D01*
X126313488Y-90783731D01*
X126280412Y-90756588D01*
X126253269Y-90723512D01*
X126233097Y-90685774D01*
X126220678Y-90644832D01*
X126216000Y-90597342D01*
X126216000Y-89969658D01*
X126220678Y-89922168D01*
X126233097Y-89881226D01*
X126253269Y-89843488D01*
X126280412Y-89810412D01*
X126313488Y-89783269D01*
X126351226Y-89763097D01*
X126392168Y-89750678D01*
X126439658Y-89746000D01*
X127142342Y-89746000D01*
X127189832Y-89750678D01*
G37*
G36*
X125605000Y-89875000D02*
G01*
X124805000Y-89875000D01*
X124805000Y-88125000D01*
X125605000Y-88125000D01*
X125605000Y-89875000D01*
G37*
G36*
X124335000Y-89875000D02*
G01*
X123535000Y-89875000D01*
X123535000Y-88125000D01*
X124335000Y-88125000D01*
X124335000Y-89875000D01*
G37*
G36*
X123065000Y-89875000D02*
G01*
X122265000Y-89875000D01*
X122265000Y-88125000D01*
X123065000Y-88125000D01*
X123065000Y-89875000D01*
G37*
G36*
X121795000Y-89875000D02*
G01*
X120995000Y-89875000D01*
X120995000Y-88125000D01*
X121795000Y-88125000D01*
X121795000Y-89875000D01*
G37*
G36*
X120450000Y-89600000D02*
G01*
X118550000Y-89600000D01*
X118550000Y-88100000D01*
X120450000Y-88100000D01*
X120450000Y-89600000D01*
G37*
G36*
X127189832Y-88175678D02*
G01*
X127230774Y-88188097D01*
X127268512Y-88208269D01*
X127301588Y-88235412D01*
X127328731Y-88268488D01*
X127348903Y-88306226D01*
X127361322Y-88347168D01*
X127366000Y-88394658D01*
X127366000Y-89022342D01*
X127361322Y-89069832D01*
X127348903Y-89110774D01*
X127328731Y-89148512D01*
X127301588Y-89181588D01*
X127268512Y-89208731D01*
X127230774Y-89228903D01*
X127189832Y-89241322D01*
X127142342Y-89246000D01*
X126439658Y-89246000D01*
X126392168Y-89241322D01*
X126351226Y-89228903D01*
X126313488Y-89208731D01*
X126280412Y-89181588D01*
X126253269Y-89148512D01*
X126233097Y-89110774D01*
X126220678Y-89069832D01*
X126216000Y-89022342D01*
X126216000Y-88394658D01*
X126220678Y-88347168D01*
X126233097Y-88306226D01*
X126253269Y-88268488D01*
X126280412Y-88235412D01*
X126313488Y-88208269D01*
X126351226Y-88188097D01*
X126392168Y-88175678D01*
X126439658Y-88171000D01*
X127142342Y-88171000D01*
X127189832Y-88175678D01*
G37*
G36*
X129172708Y-87849158D02*
G01*
X129218345Y-87863001D01*
X129260400Y-87885480D01*
X129297265Y-87915735D01*
X129327520Y-87952600D01*
X129349999Y-87994655D01*
X129363842Y-88040292D01*
X129369000Y-88092658D01*
X129369000Y-88770342D01*
X129363842Y-88822708D01*
X129349999Y-88868345D01*
X129327520Y-88910400D01*
X129297265Y-88947265D01*
X129260400Y-88977520D01*
X129218345Y-88999999D01*
X129172708Y-89013842D01*
X129120342Y-89019000D01*
X128017658Y-89019000D01*
X127965292Y-89013842D01*
X127919655Y-88999999D01*
X127877600Y-88977520D01*
X127840735Y-88947265D01*
X127810480Y-88910400D01*
X127788001Y-88868345D01*
X127774158Y-88822708D01*
X127769000Y-88770342D01*
X127769000Y-88092658D01*
X127774158Y-88040292D01*
X127788001Y-87994655D01*
X127810480Y-87952600D01*
X127840735Y-87915735D01*
X127877600Y-87885480D01*
X127919655Y-87863001D01*
X127965292Y-87849158D01*
X128017658Y-87844000D01*
X129120342Y-87844000D01*
X129172708Y-87849158D01*
G37*
G36*
X135010000Y-87875000D02*
G01*
X133710000Y-87875000D01*
X133710000Y-83075000D01*
X135010000Y-83075000D01*
X135010000Y-87875000D01*
G37*
G36*
X140090000Y-87875000D02*
G01*
X138790000Y-87875000D01*
X138790000Y-83075000D01*
X140090000Y-83075000D01*
X140090000Y-87875000D01*
G37*
G36*
X123353708Y-86205158D02*
G01*
X123399345Y-86219001D01*
X123441400Y-86241480D01*
X123478265Y-86271735D01*
X123508520Y-86308600D01*
X123530999Y-86350655D01*
X123544842Y-86396292D01*
X123550000Y-86448658D01*
X123550000Y-87551342D01*
X123544842Y-87603708D01*
X123530999Y-87649345D01*
X123508520Y-87691400D01*
X123478265Y-87728265D01*
X123441400Y-87758520D01*
X123399345Y-87780999D01*
X123353708Y-87794842D01*
X123301342Y-87800000D01*
X122623658Y-87800000D01*
X122571292Y-87794842D01*
X122525655Y-87780999D01*
X122483600Y-87758520D01*
X122446735Y-87728265D01*
X122416480Y-87691400D01*
X122394001Y-87649345D01*
X122380158Y-87603708D01*
X122375000Y-87551342D01*
X122375000Y-86448658D01*
X122380158Y-86396292D01*
X122394001Y-86350655D01*
X122416480Y-86308600D01*
X122446735Y-86271735D01*
X122483600Y-86241480D01*
X122525655Y-86219001D01*
X122571292Y-86205158D01*
X122623658Y-86200000D01*
X123301342Y-86200000D01*
X123353708Y-86205158D01*
G37*
G36*
X125228708Y-86205158D02*
G01*
X125274345Y-86219001D01*
X125316400Y-86241480D01*
X125353265Y-86271735D01*
X125383520Y-86308600D01*
X125405999Y-86350655D01*
X125419842Y-86396292D01*
X125425000Y-86448658D01*
X125425000Y-87551342D01*
X125419842Y-87603708D01*
X125405999Y-87649345D01*
X125383520Y-87691400D01*
X125353265Y-87728265D01*
X125316400Y-87758520D01*
X125274345Y-87780999D01*
X125228708Y-87794842D01*
X125176342Y-87800000D01*
X124498658Y-87800000D01*
X124446292Y-87794842D01*
X124400655Y-87780999D01*
X124358600Y-87758520D01*
X124321735Y-87728265D01*
X124291480Y-87691400D01*
X124269001Y-87649345D01*
X124255158Y-87603708D01*
X124250000Y-87551342D01*
X124250000Y-86448658D01*
X124255158Y-86396292D01*
X124269001Y-86350655D01*
X124291480Y-86308600D01*
X124321735Y-86271735D01*
X124358600Y-86241480D01*
X124400655Y-86219001D01*
X124446292Y-86205158D01*
X124498658Y-86200000D01*
X125176342Y-86200000D01*
X125228708Y-86205158D01*
G37*
G36*
X131404456Y-85593472D02*
G01*
X131604648Y-85676394D01*
X131784808Y-85796773D01*
X131938027Y-85949992D01*
X132058406Y-86130152D01*
X132141328Y-86330344D01*
X132183600Y-86542857D01*
X132183600Y-86759543D01*
X132141328Y-86972056D01*
X132058406Y-87172248D01*
X131938027Y-87352408D01*
X131784808Y-87505627D01*
X131604648Y-87626006D01*
X131404456Y-87708928D01*
X131191943Y-87751200D01*
X130975257Y-87751200D01*
X130762744Y-87708928D01*
X130562552Y-87626006D01*
X130382392Y-87505627D01*
X130229173Y-87352408D01*
X130108794Y-87172248D01*
X130025872Y-86972056D01*
X129983600Y-86759543D01*
X129983600Y-86542857D01*
X130025872Y-86330344D01*
X130108794Y-86130152D01*
X130229173Y-85949992D01*
X130382392Y-85796773D01*
X130562552Y-85676394D01*
X130762744Y-85593472D01*
X130975257Y-85551200D01*
X131191943Y-85551200D01*
X131404456Y-85593472D01*
G37*
G36*
X121648832Y-86429678D02*
G01*
X121689774Y-86442097D01*
X121727512Y-86462269D01*
X121760588Y-86489412D01*
X121787731Y-86522488D01*
X121807903Y-86560226D01*
X121820322Y-86601168D01*
X121825000Y-86648658D01*
X121825000Y-87351342D01*
X121820322Y-87398832D01*
X121807903Y-87439774D01*
X121787731Y-87477512D01*
X121760588Y-87510588D01*
X121727512Y-87537731D01*
X121689774Y-87557903D01*
X121648832Y-87570322D01*
X121601342Y-87575000D01*
X120973658Y-87575000D01*
X120926168Y-87570322D01*
X120885226Y-87557903D01*
X120847488Y-87537731D01*
X120814412Y-87510588D01*
X120787269Y-87477512D01*
X120767097Y-87439774D01*
X120754678Y-87398832D01*
X120750000Y-87351342D01*
X120750000Y-86648658D01*
X120754678Y-86601168D01*
X120767097Y-86560226D01*
X120787269Y-86522488D01*
X120814412Y-86489412D01*
X120847488Y-86462269D01*
X120885226Y-86442097D01*
X120926168Y-86429678D01*
X120973658Y-86425000D01*
X121601342Y-86425000D01*
X121648832Y-86429678D01*
G37*
G36*
X120073832Y-86429678D02*
G01*
X120114774Y-86442097D01*
X120152512Y-86462269D01*
X120185588Y-86489412D01*
X120212731Y-86522488D01*
X120232903Y-86560226D01*
X120245322Y-86601168D01*
X120250000Y-86648658D01*
X120250000Y-87351342D01*
X120245322Y-87398832D01*
X120232903Y-87439774D01*
X120212731Y-87477512D01*
X120185588Y-87510588D01*
X120152512Y-87537731D01*
X120114774Y-87557903D01*
X120073832Y-87570322D01*
X120026342Y-87575000D01*
X119398658Y-87575000D01*
X119351168Y-87570322D01*
X119310226Y-87557903D01*
X119272488Y-87537731D01*
X119239412Y-87510588D01*
X119212269Y-87477512D01*
X119192097Y-87439774D01*
X119179678Y-87398832D01*
X119175000Y-87351342D01*
X119175000Y-86648658D01*
X119179678Y-86601168D01*
X119192097Y-86560226D01*
X119212269Y-86522488D01*
X119239412Y-86489412D01*
X119272488Y-86462269D01*
X119310226Y-86442097D01*
X119351168Y-86429678D01*
X119398658Y-86425000D01*
X120026342Y-86425000D01*
X120073832Y-86429678D01*
G37*
G36*
X153435000Y-86475000D02*
G01*
X152635000Y-86475000D01*
X152635000Y-84725000D01*
X153435000Y-84725000D01*
X153435000Y-86475000D01*
G37*
G36*
X154705000Y-86475000D02*
G01*
X153905000Y-86475000D01*
X153905000Y-84725000D01*
X154705000Y-84725000D01*
X154705000Y-86475000D01*
G37*
G36*
X152165000Y-86475000D02*
G01*
X151365000Y-86475000D01*
X151365000Y-84725000D01*
X152165000Y-84725000D01*
X152165000Y-86475000D01*
G37*
G36*
X150895000Y-86475000D02*
G01*
X150095000Y-86475000D01*
X150095000Y-84725000D01*
X150895000Y-84725000D01*
X150895000Y-86475000D01*
G37*
G36*
X168014646Y-83669533D02*
G01*
X168269122Y-83746728D01*
X168503649Y-83872085D01*
X168709213Y-84040787D01*
X168877915Y-84246351D01*
X169003272Y-84480878D01*
X169080467Y-84735354D01*
X169106532Y-85000000D01*
X169080467Y-85264646D01*
X169003272Y-85519122D01*
X168877915Y-85753649D01*
X168709213Y-85959213D01*
X168503649Y-86127915D01*
X168269122Y-86253272D01*
X168014646Y-86330467D01*
X167816321Y-86350000D01*
X166183679Y-86350000D01*
X165985354Y-86330467D01*
X165730878Y-86253272D01*
X165496351Y-86127915D01*
X165290787Y-85959213D01*
X165122085Y-85753649D01*
X164996728Y-85519122D01*
X164919533Y-85264646D01*
X164893468Y-85000000D01*
X164919533Y-84735354D01*
X164996728Y-84480878D01*
X165122085Y-84246351D01*
X165290787Y-84040787D01*
X165496351Y-83872085D01*
X165730878Y-83746728D01*
X165985354Y-83669533D01*
X166183679Y-83650000D01*
X167816321Y-83650000D01*
X168014646Y-83669533D01*
G37*
G36*
X104014646Y-83669533D02*
G01*
X104269122Y-83746728D01*
X104503649Y-83872085D01*
X104709213Y-84040787D01*
X104877915Y-84246351D01*
X105003272Y-84480878D01*
X105080467Y-84735354D01*
X105106532Y-85000000D01*
X105080467Y-85264646D01*
X105003272Y-85519122D01*
X104877915Y-85753649D01*
X104709213Y-85959213D01*
X104503649Y-86127915D01*
X104269122Y-86253272D01*
X104014646Y-86330467D01*
X103816321Y-86350000D01*
X102183679Y-86350000D01*
X101985354Y-86330467D01*
X101730878Y-86253272D01*
X101496351Y-86127915D01*
X101290787Y-85959213D01*
X101122085Y-85753649D01*
X100996728Y-85519122D01*
X100919533Y-85264646D01*
X100893468Y-85000000D01*
X100919533Y-84735354D01*
X100996728Y-84480878D01*
X101122085Y-84246351D01*
X101290787Y-84040787D01*
X101496351Y-83872085D01*
X101730878Y-83746728D01*
X101985354Y-83669533D01*
X102183679Y-83650000D01*
X103816321Y-83650000D01*
X104014646Y-83669533D01*
G37*
G36*
X109054845Y-83718810D02*
G01*
X109299896Y-83793145D01*
X109447579Y-83872084D01*
X109525735Y-83913859D01*
X109525737Y-83913860D01*
X109525736Y-83913860D01*
X109723687Y-84076313D01*
X109863234Y-84246353D01*
X109886141Y-84274265D01*
X109902913Y-84305644D01*
X110006855Y-84500104D01*
X110081190Y-84745155D01*
X110106290Y-85000000D01*
X110081190Y-85254845D01*
X110006855Y-85499896D01*
X109950007Y-85606250D01*
X109897915Y-85703708D01*
X109886140Y-85725736D01*
X109723687Y-85923687D01*
X109543484Y-86071575D01*
X109525735Y-86086141D01*
X109454001Y-86124483D01*
X109299896Y-86206855D01*
X109054845Y-86281190D01*
X108863864Y-86300000D01*
X107136136Y-86300000D01*
X106945155Y-86281190D01*
X106700104Y-86206855D01*
X106545999Y-86124483D01*
X106474265Y-86086141D01*
X106456516Y-86071575D01*
X106276313Y-85923687D01*
X106113860Y-85725736D01*
X106102086Y-85703708D01*
X106049993Y-85606250D01*
X105993145Y-85499896D01*
X105918810Y-85254845D01*
X105893710Y-85000000D01*
X105918810Y-84745155D01*
X105993145Y-84500104D01*
X106097087Y-84305644D01*
X106113859Y-84274265D01*
X106136766Y-84246353D01*
X106276313Y-84076313D01*
X106474264Y-83913860D01*
X106474263Y-83913860D01*
X106474265Y-83913859D01*
X106552421Y-83872084D01*
X106700104Y-83793145D01*
X106945155Y-83718810D01*
X107136136Y-83700000D01*
X108863864Y-83700000D01*
X109054845Y-83718810D01*
G37*
G36*
X163054845Y-83718810D02*
G01*
X163299896Y-83793145D01*
X163447579Y-83872084D01*
X163525735Y-83913859D01*
X163525737Y-83913860D01*
X163525736Y-83913860D01*
X163723687Y-84076313D01*
X163863234Y-84246353D01*
X163886141Y-84274265D01*
X163902913Y-84305644D01*
X164006855Y-84500104D01*
X164081190Y-84745155D01*
X164106290Y-85000000D01*
X164081190Y-85254845D01*
X164006855Y-85499896D01*
X163950007Y-85606250D01*
X163897915Y-85703708D01*
X163886140Y-85725736D01*
X163723687Y-85923687D01*
X163543484Y-86071575D01*
X163525735Y-86086141D01*
X163454001Y-86124483D01*
X163299896Y-86206855D01*
X163054845Y-86281190D01*
X162863864Y-86300000D01*
X161136136Y-86300000D01*
X160945155Y-86281190D01*
X160700104Y-86206855D01*
X160545999Y-86124483D01*
X160474265Y-86086141D01*
X160456516Y-86071575D01*
X160276313Y-85923687D01*
X160113860Y-85725736D01*
X160102086Y-85703708D01*
X160049993Y-85606250D01*
X159993145Y-85499896D01*
X159918810Y-85254845D01*
X159893710Y-85000000D01*
X159918810Y-84745155D01*
X159993145Y-84500104D01*
X160097087Y-84305644D01*
X160113859Y-84274265D01*
X160136766Y-84246353D01*
X160276313Y-84076313D01*
X160474264Y-83913860D01*
X160474263Y-83913860D01*
X160474265Y-83913859D01*
X160552421Y-83872084D01*
X160700104Y-83793145D01*
X160945155Y-83718810D01*
X161136136Y-83700000D01*
X162863864Y-83700000D01*
X163054845Y-83718810D01*
G37*
G36*
X121828708Y-84305158D02*
G01*
X121874345Y-84319001D01*
X121916400Y-84341480D01*
X121953265Y-84371735D01*
X121983520Y-84408600D01*
X122005999Y-84450655D01*
X122019842Y-84496292D01*
X122025000Y-84548658D01*
X122025000Y-85651342D01*
X122019842Y-85703708D01*
X122005999Y-85749345D01*
X121983520Y-85791400D01*
X121953265Y-85828265D01*
X121916400Y-85858520D01*
X121874345Y-85880999D01*
X121828708Y-85894842D01*
X121776342Y-85900000D01*
X121098658Y-85900000D01*
X121046292Y-85894842D01*
X121000655Y-85880999D01*
X120958600Y-85858520D01*
X120921735Y-85828265D01*
X120891480Y-85791400D01*
X120869001Y-85749345D01*
X120855158Y-85703708D01*
X120850000Y-85651342D01*
X120850000Y-84548658D01*
X120855158Y-84496292D01*
X120869001Y-84450655D01*
X120891480Y-84408600D01*
X120921735Y-84371735D01*
X120958600Y-84341480D01*
X121000655Y-84319001D01*
X121046292Y-84305158D01*
X121098658Y-84300000D01*
X121776342Y-84300000D01*
X121828708Y-84305158D01*
G37*
G36*
X119953708Y-84305158D02*
G01*
X119999345Y-84319001D01*
X120041400Y-84341480D01*
X120078265Y-84371735D01*
X120108520Y-84408600D01*
X120130999Y-84450655D01*
X120144842Y-84496292D01*
X120150000Y-84548658D01*
X120150000Y-85651342D01*
X120144842Y-85703708D01*
X120130999Y-85749345D01*
X120108520Y-85791400D01*
X120078265Y-85828265D01*
X120041400Y-85858520D01*
X119999345Y-85880999D01*
X119953708Y-85894842D01*
X119901342Y-85900000D01*
X119223658Y-85900000D01*
X119171292Y-85894842D01*
X119125655Y-85880999D01*
X119083600Y-85858520D01*
X119046735Y-85828265D01*
X119016480Y-85791400D01*
X118994001Y-85749345D01*
X118980158Y-85703708D01*
X118975000Y-85651342D01*
X118975000Y-84548658D01*
X118980158Y-84496292D01*
X118994001Y-84450655D01*
X119016480Y-84408600D01*
X119046735Y-84371735D01*
X119083600Y-84341480D01*
X119125655Y-84319001D01*
X119171292Y-84305158D01*
X119223658Y-84300000D01*
X119901342Y-84300000D01*
X119953708Y-84305158D01*
G37*
G36*
X125228708Y-84305158D02*
G01*
X125274345Y-84319001D01*
X125316400Y-84341480D01*
X125353265Y-84371735D01*
X125383520Y-84408600D01*
X125405999Y-84450655D01*
X125419842Y-84496292D01*
X125425000Y-84548658D01*
X125425000Y-85651342D01*
X125419842Y-85703708D01*
X125405999Y-85749345D01*
X125383520Y-85791400D01*
X125353265Y-85828265D01*
X125316400Y-85858520D01*
X125274345Y-85880999D01*
X125228708Y-85894842D01*
X125176342Y-85900000D01*
X124498658Y-85900000D01*
X124446292Y-85894842D01*
X124400655Y-85880999D01*
X124358600Y-85858520D01*
X124321735Y-85828265D01*
X124291480Y-85791400D01*
X124269001Y-85749345D01*
X124255158Y-85703708D01*
X124250000Y-85651342D01*
X124250000Y-84548658D01*
X124255158Y-84496292D01*
X124269001Y-84450655D01*
X124291480Y-84408600D01*
X124321735Y-84371735D01*
X124358600Y-84341480D01*
X124400655Y-84319001D01*
X124446292Y-84305158D01*
X124498658Y-84300000D01*
X125176342Y-84300000D01*
X125228708Y-84305158D01*
G37*
G36*
X123353708Y-84305158D02*
G01*
X123399345Y-84319001D01*
X123441400Y-84341480D01*
X123478265Y-84371735D01*
X123508520Y-84408600D01*
X123530999Y-84450655D01*
X123544842Y-84496292D01*
X123550000Y-84548658D01*
X123550000Y-85651342D01*
X123544842Y-85703708D01*
X123530999Y-85749345D01*
X123508520Y-85791400D01*
X123478265Y-85828265D01*
X123441400Y-85858520D01*
X123399345Y-85880999D01*
X123353708Y-85894842D01*
X123301342Y-85900000D01*
X122623658Y-85900000D01*
X122571292Y-85894842D01*
X122525655Y-85880999D01*
X122483600Y-85858520D01*
X122446735Y-85828265D01*
X122416480Y-85791400D01*
X122394001Y-85749345D01*
X122380158Y-85703708D01*
X122375000Y-85651342D01*
X122375000Y-84548658D01*
X122380158Y-84496292D01*
X122394001Y-84450655D01*
X122416480Y-84408600D01*
X122446735Y-84371735D01*
X122483600Y-84341480D01*
X122525655Y-84319001D01*
X122571292Y-84305158D01*
X122623658Y-84300000D01*
X123301342Y-84300000D01*
X123353708Y-84305158D01*
G37*
G36*
X142400000Y-81125000D02*
G01*
X131400000Y-81125000D01*
X131400000Y-71525000D01*
X142400000Y-71525000D01*
X142400000Y-81125000D01*
G37*
G36*
X129162520Y-79234586D02*
G01*
X129162522Y-79234587D01*
X129162523Y-79234587D01*
X129223025Y-79259648D01*
X129326310Y-79302430D01*
X129473717Y-79400924D01*
X129599076Y-79526283D01*
X129697570Y-79673690D01*
X129765414Y-79837480D01*
X129800000Y-80011358D01*
X129800000Y-80188642D01*
X129765414Y-80362520D01*
X129697570Y-80526310D01*
X129599076Y-80673717D01*
X129473717Y-80799076D01*
X129326310Y-80897570D01*
X129223025Y-80940352D01*
X129162523Y-80965413D01*
X129162522Y-80965413D01*
X129162520Y-80965414D01*
X128988642Y-81000000D01*
X128811358Y-81000000D01*
X128637480Y-80965414D01*
X128637478Y-80965413D01*
X128637477Y-80965413D01*
X128576975Y-80940352D01*
X128473690Y-80897570D01*
X128326283Y-80799076D01*
X128200924Y-80673717D01*
X128102430Y-80526310D01*
X128034586Y-80362520D01*
X128000000Y-80188642D01*
X128000000Y-80011358D01*
X128034586Y-79837480D01*
X128102430Y-79673690D01*
X128200924Y-79526283D01*
X128326283Y-79400924D01*
X128473690Y-79302430D01*
X128576975Y-79259648D01*
X128637477Y-79234587D01*
X128637478Y-79234587D01*
X128637480Y-79234586D01*
X128811358Y-79200000D01*
X128988642Y-79200000D01*
X129162520Y-79234586D01*
G37*
G36*
X165495872Y-73865330D02*
G01*
X165805252Y-73993479D01*
X166083687Y-74179523D01*
X166320477Y-74416313D01*
X166506521Y-74694748D01*
X166634670Y-75004128D01*
X166700000Y-75332565D01*
X166700000Y-75667435D01*
X166634670Y-75995872D01*
X166506521Y-76305252D01*
X166320477Y-76583687D01*
X166083687Y-76820477D01*
X165805252Y-77006521D01*
X165495872Y-77134670D01*
X165167435Y-77200000D01*
X164832565Y-77200000D01*
X164504128Y-77134670D01*
X164194748Y-77006521D01*
X163916313Y-76820477D01*
X163679523Y-76583687D01*
X163493479Y-76305252D01*
X163365330Y-75995872D01*
X163300000Y-75667435D01*
X163300000Y-75332565D01*
X163365330Y-75004128D01*
X163493479Y-74694748D01*
X163679523Y-74416313D01*
X163916313Y-74179523D01*
X164194748Y-73993479D01*
X164504128Y-73865330D01*
X164832565Y-73800000D01*
X165167435Y-73800000D01*
X165495872Y-73865330D01*
G37*
G36*
X105495872Y-73865330D02*
G01*
X105805252Y-73993479D01*
X106083687Y-74179523D01*
X106320477Y-74416313D01*
X106506521Y-74694748D01*
X106634670Y-75004128D01*
X106700000Y-75332565D01*
X106700000Y-75667435D01*
X106634670Y-75995872D01*
X106506521Y-76305252D01*
X106320477Y-76583687D01*
X106083687Y-76820477D01*
X105805252Y-77006521D01*
X105495872Y-77134670D01*
X105167435Y-77200000D01*
X104832565Y-77200000D01*
X104504128Y-77134670D01*
X104194748Y-77006521D01*
X103916313Y-76820477D01*
X103679523Y-76583687D01*
X103493479Y-76305252D01*
X103365330Y-75995872D01*
X103300000Y-75667435D01*
X103300000Y-75332565D01*
X103365330Y-75004128D01*
X103493479Y-74694748D01*
X103679523Y-74416313D01*
X103916313Y-74179523D01*
X104194748Y-73993479D01*
X104504128Y-73865330D01*
X104832565Y-73800000D01*
X105167435Y-73800000D01*
X105495872Y-73865330D01*
G37*
G36*
X129162520Y-74234586D02*
G01*
X129162522Y-74234587D01*
X129162523Y-74234587D01*
X129223025Y-74259648D01*
X129326310Y-74302430D01*
X129473717Y-74400924D01*
X129599076Y-74526283D01*
X129697570Y-74673690D01*
X129765414Y-74837480D01*
X129800000Y-75011358D01*
X129800000Y-75188642D01*
X129765414Y-75362520D01*
X129697570Y-75526310D01*
X129599076Y-75673717D01*
X129473717Y-75799076D01*
X129326310Y-75897570D01*
X129223025Y-75940352D01*
X129162523Y-75965413D01*
X129162522Y-75965413D01*
X129162520Y-75965414D01*
X128988642Y-76000000D01*
X128811358Y-76000000D01*
X128637480Y-75965414D01*
X128637478Y-75965413D01*
X128637477Y-75965413D01*
X128576975Y-75940352D01*
X128473690Y-75897570D01*
X128326283Y-75799076D01*
X128200924Y-75673717D01*
X128102430Y-75526310D01*
X128034586Y-75362520D01*
X128000000Y-75188642D01*
X128000000Y-75011358D01*
X128034586Y-74837480D01*
X128102430Y-74673690D01*
X128200924Y-74526283D01*
X128326283Y-74400924D01*
X128473690Y-74302430D01*
X128576975Y-74259648D01*
X128637477Y-74234587D01*
X128637478Y-74234587D01*
X128637480Y-74234586D01*
X128811358Y-74200000D01*
X128988642Y-74200000D01*
X129162520Y-74234586D01*
G37*
M02*
