M48
INCH,TZ
T1C0.0118
T2C0.0315
T3C0.0354
T4C0.0394
T5C0.0400
T6C0.0630
%
G90
G05
T1
X40157Y-39567
X40157Y-40354
X40157Y-40748
X40157Y-42717
X40157Y-44685
X40157Y-46654
X40157Y-50591
X40157Y-52559
X40157Y-54528
X41732Y-39567
X42126Y-54528
X42835Y-47835
X43307Y-39567
X44094Y-54528
X44409Y-51142
X44409Y-51811
X44488Y-39567
X45197Y-45866
X45276Y-40354
X45394Y-51142
X45394Y-51811
X45850Y-48681
X46063Y-54528
X46457Y-41535
X46929Y-43780
X47677Y-42677
X47677Y-49213
X48031Y-46260
X48031Y-47835
X48031Y-54528
X48346Y-43661
X48819Y-45472
X49528Y-43661
X49606Y-45945
X50000Y-54528
X50394Y-49409
X51220Y-43661
X51362Y-49390
X51890Y-46614
X51969Y-48622
X51969Y-54528
X52165Y-45236
X52441Y-45512
X52835Y-43661
X53189Y-29695
X53189Y-30049
X53189Y-30404
X53189Y-30758
X53543Y-29695
X53543Y-30049
X53543Y-30404
X53543Y-30758
X53898Y-29695
X53898Y-30049
X53898Y-30404
X53898Y-30758
X53908Y-47795
X53937Y-54528
X54252Y-29695
X54252Y-30049
X54252Y-30404
X54252Y-30748
X54331Y-43465
X54370Y-39685
X54370Y-40039
X54370Y-40394
X54370Y-40748
X54370Y-41102
X54606Y-29695
X54606Y-30049
X54606Y-30404
X54606Y-30758
X54685Y-44567
X54724Y-39685
X54724Y-40039
X54724Y-40394
X54724Y-40748
X54724Y-41102
X55079Y-39685
X55079Y-40039
X55079Y-40394
X55079Y-40748
X55079Y-41102
X55118Y-49409
X55157Y-42520
X55433Y-39685
X55433Y-40039
X55433Y-40394
X55433Y-40748
X55433Y-41102
X55848Y-46835
X55906Y-47835
X55906Y-54528
X56142Y-41535
X56417Y-45551
X56811Y-47953
X56988Y-49488
X57008Y-40748
X57283Y-42008
X57402Y-48425
X57402Y-49843
X57441Y-49173
X57459Y-43246
X57598Y-44291
X57598Y-46299
X57795Y-35787
X57795Y-37874
X57913Y-39882
X58622Y-40108
X58976Y-44291
X59449Y-39488
X59449Y-48228
X59449Y-49409
X59540Y-38388
X59616Y-44094
X59744Y-42638
X59802Y-42288
X60039Y-46811
X60054Y-40529
X60096Y-42679
X60630Y-49409
X60630Y-51772
X60669Y-39094
X60827Y-42421
X61004Y-40846
X61007Y-41752
X61024Y-47264
X61314Y-41552
X61772Y-40118
X61790Y-36310
X61811Y-48228
X61843Y-38160
X62231Y-43552
X62356Y-46746
X62520Y-43346
X62854Y-43996
X63189Y-47028
X63465Y-39488
X63740Y-45472
X64173Y-54528
X64961Y-39488
X64961Y-42323
X64961Y-49409
X66142Y-42323
X66142Y-50591
X66142Y-52559
X66142Y-54528
T2
X40354Y-48307
X41142Y-48307
X50748Y-39685
X50748Y-41654
X50748Y-29567
X50748Y-31535
T3
X48213Y-49685
X48713Y-48685
X49213Y-49685
X49713Y-48685
X52740Y-49685
X53240Y-48685
X53740Y-49685
X54240Y-48685
T4
X55118Y-45945
X62913Y-53189
X62913Y-51850
X55408Y-43775
X50708Y-38155
X62913Y-54528
X55928Y-42375
X41142Y-49744
X47708Y-45375
X64394Y-50709
X65394Y-50709
X42480Y-43335
X44906Y-53110
X51608Y-34115
X55118Y-47415
T5
X58039Y-52953
X58039Y-53953
X59039Y-52953
X59039Y-53953
X60039Y-52953
X60039Y-53953
X64567Y-43819
X64567Y-44819
X64567Y-45819
X64567Y-46819
X64567Y-47819
X65567Y-43819
X65567Y-44819
X65567Y-45819
X65567Y-46819
X65567Y-47819
T6
X40551Y-37402
X42520Y-37402
X63780Y-37402
X65748Y-37402
X40551Y-33465
X42520Y-33465
X63780Y-33465
X65748Y-33465
T0
M30
