G04 #@! TF.GenerationSoftware,KiCad,Pcbnew,5.1.5-52549c5~84~ubuntu18.04.1*
G04 #@! TF.CreationDate,2020-03-12T11:48:39+01:00*
G04 #@! TF.ProjectId,MotorDriver,4d6f746f-7244-4726-9976-65722e6b6963,rev?*
G04 #@! TF.SameCoordinates,Original*
G04 #@! TF.FileFunction,Copper,L2,Bot*
G04 #@! TF.FilePolarity,Positive*
%FSLAX46Y46*%
G04 Gerber Fmt 4.6, Leading zero omitted, Abs format (unit mm)*
G04 Created by KiCad (PCBNEW 5.1.5-52549c5~84~ubuntu18.04.1) date 2020-03-12 11:48:39*
%MOMM*%
%LPD*%
G04 APERTURE LIST*
%ADD10C,1.600000*%
%ADD11O,4.000000X2.400000*%
%ADD12O,4.000000X2.500000*%
%ADD13C,1.800000*%
%ADD14O,1.727200X1.727200*%
%ADD15R,1.727200X1.727200*%
%ADD16C,2.000000*%
%ADD17C,0.100000*%
%ADD18O,1.700000X1.700000*%
%ADD19R,1.700000X1.700000*%
%ADD20C,0.700000*%
%ADD21C,5.000000*%
%ADD22C,0.500000*%
%ADD23C,0.200000*%
%ADD24C,2.000000*%
%ADD25C,0.300000*%
%ADD26C,0.250000*%
G04 APERTURE END LIST*
D10*
X102500000Y-122700000D03*
X104500000Y-122700000D03*
X128900000Y-105800000D03*
X128900000Y-100800000D03*
X128900000Y-80100000D03*
X128900000Y-75100000D03*
D11*
X162000000Y-85000000D03*
D12*
X167000000Y-85000000D03*
D11*
X162000000Y-95000000D03*
D12*
X167000000Y-95000000D03*
D11*
X108000000Y-85000000D03*
D12*
X103000000Y-85000000D03*
D11*
X108000000Y-95000000D03*
D12*
X103000000Y-95000000D03*
D13*
X122460000Y-126200000D03*
X123730000Y-123660000D03*
X126270000Y-123660000D03*
X125000000Y-126200000D03*
X133960000Y-126200000D03*
X135230000Y-123660000D03*
X137770000Y-123660000D03*
X136500000Y-126200000D03*
D14*
X147420000Y-137040000D03*
X147420000Y-134500000D03*
X149960000Y-137040000D03*
X149960000Y-134500000D03*
X152500000Y-137040000D03*
D15*
X152500000Y-134500000D03*
D16*
X114060000Y-134900000D03*
X159800000Y-131700000D03*
X142056400Y-107631600D03*
X128797600Y-96912800D03*
X159800000Y-138500000D03*
X159800000Y-135100000D03*
X104500000Y-126350000D03*
X140000000Y-116700000D03*
X107900000Y-110070000D03*
X121177600Y-115251600D03*
X140000000Y-120433200D03*
X131083600Y-86651200D03*
X140735600Y-111187600D03*
D15*
X164000000Y-111300000D03*
D14*
X166540000Y-111300000D03*
X164000000Y-113840000D03*
X166540000Y-113840000D03*
X164000000Y-116380000D03*
X166540000Y-116380000D03*
X164000000Y-118920000D03*
X166540000Y-118920000D03*
X164000000Y-121460000D03*
X166540000Y-121460000D03*
G04 #@! TA.AperFunction,SMDPad,CuDef*
D17*
G36*
X154600000Y-114500000D02*
G01*
X153850000Y-114000000D01*
X153850000Y-113000000D01*
X155350000Y-113000000D01*
X155350000Y-114000000D01*
X154600000Y-114500000D01*
G37*
G04 #@! TD.AperFunction*
G04 #@! TA.AperFunction,Conductor*
G36*
X154600000Y-116200000D02*
G01*
X153850000Y-116700000D01*
X153850000Y-114300000D01*
X154600000Y-114800000D01*
X155350000Y-114300000D01*
X155350000Y-116700000D01*
X154600000Y-116200000D01*
G37*
G04 #@! TD.AperFunction*
G04 #@! TA.AperFunction,SMDPad,CuDef*
G36*
X154600000Y-116500000D02*
G01*
X155350000Y-117000000D01*
X155350000Y-118000000D01*
X153850000Y-118000000D01*
X153850000Y-117000000D01*
X154600000Y-116500000D01*
G37*
G04 #@! TD.AperFunction*
G04 #@! TA.AperFunction,SMDPad,CuDef*
G36*
X159950000Y-116500000D02*
G01*
X160700000Y-117000000D01*
X160700000Y-118000000D01*
X159200000Y-118000000D01*
X159200000Y-117000000D01*
X159950000Y-116500000D01*
G37*
G04 #@! TD.AperFunction*
G04 #@! TA.AperFunction,Conductor*
G36*
X159950000Y-116200000D02*
G01*
X159200000Y-116700000D01*
X159200000Y-114300000D01*
X159950000Y-114800000D01*
X160700000Y-114300000D01*
X160700000Y-116700000D01*
X159950000Y-116200000D01*
G37*
G04 #@! TD.AperFunction*
G04 #@! TA.AperFunction,SMDPad,CuDef*
G36*
X159950000Y-114500000D02*
G01*
X159200000Y-114000000D01*
X159200000Y-113000000D01*
X160700000Y-113000000D01*
X160700000Y-114000000D01*
X159950000Y-114500000D01*
G37*
G04 #@! TD.AperFunction*
G04 #@! TA.AperFunction,SMDPad,CuDef*
G36*
X157100000Y-114500000D02*
G01*
X156350000Y-114000000D01*
X156350000Y-113000000D01*
X157850000Y-113000000D01*
X157850000Y-114000000D01*
X157100000Y-114500000D01*
G37*
G04 #@! TD.AperFunction*
G04 #@! TA.AperFunction,Conductor*
G36*
X157100000Y-116200000D02*
G01*
X156350000Y-116700000D01*
X156350000Y-114300000D01*
X157100000Y-114800000D01*
X157850000Y-114300000D01*
X157850000Y-116700000D01*
X157100000Y-116200000D01*
G37*
G04 #@! TD.AperFunction*
G04 #@! TA.AperFunction,SMDPad,CuDef*
G36*
X157100000Y-116500000D02*
G01*
X157850000Y-117000000D01*
X157850000Y-118000000D01*
X156350000Y-118000000D01*
X156350000Y-117000000D01*
X157100000Y-116500000D01*
G37*
G04 #@! TD.AperFunction*
D18*
X163560000Y-128800000D03*
D19*
X166100000Y-128800000D03*
D20*
X156945500Y-92226500D03*
X138700000Y-75425000D03*
X138700000Y-76325000D03*
X138700000Y-77225000D03*
X138700000Y-78125000D03*
X135100000Y-78125000D03*
X135100000Y-77225000D03*
X135100000Y-75425000D03*
X135100000Y-76325000D03*
X136000000Y-78125000D03*
X136900000Y-78125000D03*
X137800000Y-78100000D03*
X137800000Y-77225000D03*
X136900000Y-77225000D03*
X136000000Y-77225000D03*
X136000000Y-75425000D03*
X136900000Y-75425000D03*
X137800000Y-75425000D03*
X137800000Y-76325000D03*
X136000000Y-76325000D03*
X136900000Y-76325000D03*
X146800000Y-90900000D03*
X112800000Y-131600000D03*
X115300000Y-131600000D03*
X115300000Y-129900000D03*
X112800000Y-129900000D03*
X154500000Y-107750000D03*
X152500000Y-118900000D03*
X102000000Y-138500000D03*
X168000000Y-138500000D03*
X154000000Y-125500000D03*
X161900000Y-115500000D03*
X102000000Y-102500000D03*
X114800000Y-116500000D03*
X108800000Y-121500000D03*
X130460000Y-125450000D03*
X168000000Y-107500000D03*
X121100000Y-108400000D03*
X144750010Y-125700000D03*
X138000000Y-110400000D03*
X146300000Y-112500000D03*
X126000000Y-116700000D03*
X149800000Y-112500000D03*
X147100000Y-101300000D03*
X107000000Y-138500000D03*
X112000000Y-138500000D03*
X117000000Y-138500000D03*
X122000000Y-138500000D03*
X127000000Y-138500000D03*
X132000000Y-138500000D03*
X137000000Y-138500000D03*
X142000000Y-138500000D03*
X163000000Y-138500000D03*
X154000000Y-131500000D03*
X151000000Y-125500000D03*
X151000000Y-122500000D03*
X157000000Y-122500000D03*
X168000000Y-133500000D03*
X168000000Y-128500000D03*
X165000000Y-107500000D03*
X165000000Y-100300000D03*
X161200000Y-100300000D03*
X102000000Y-133500000D03*
X102000000Y-128500000D03*
X102000000Y-118500000D03*
X102000000Y-113500000D03*
X102000000Y-108500000D03*
X102000000Y-103500000D03*
X102000000Y-100500000D03*
X106000000Y-100500000D03*
X110000000Y-100500000D03*
X113000000Y-100500000D03*
X115000000Y-102500000D03*
X118000000Y-105500000D03*
X128000000Y-125500000D03*
X132000000Y-123500000D03*
X122000000Y-121500000D03*
X124000000Y-115500000D03*
X122000000Y-117500000D03*
X130100000Y-110900000D03*
X125800000Y-110900000D03*
X134200000Y-110900000D03*
X144800000Y-103500000D03*
X142600000Y-105500000D03*
X140100000Y-108000000D03*
X136925600Y-121398400D03*
X141853200Y-118960000D03*
X143300000Y-115700000D03*
X144300000Y-121800000D03*
X121100000Y-125000000D03*
X165000000Y-125500000D03*
X140000000Y-125500000D03*
X142000000Y-121500000D03*
X122800000Y-110900000D03*
X151000000Y-100300000D03*
X145500000Y-106700000D03*
X146300000Y-117600000D03*
X160500000Y-119450000D03*
X133200005Y-115599995D03*
X155736463Y-105542289D03*
X116460000Y-123650000D03*
X119200000Y-111200000D03*
X132500000Y-114900000D03*
X151425010Y-112000000D03*
X148900000Y-101874926D03*
X145944978Y-109844986D03*
X156900000Y-101900000D03*
X159650000Y-111750000D03*
X154100000Y-99300000D03*
X138900010Y-113200000D03*
X145800000Y-126600001D03*
X152643847Y-108405158D03*
X145900000Y-124900000D03*
X151750000Y-108299994D03*
X145800000Y-123000000D03*
X151897216Y-107412109D03*
X131800000Y-118399992D03*
X154958774Y-106050010D03*
X155000000Y-120050000D03*
X152537716Y-102943042D03*
X158800000Y-110100000D03*
X158385196Y-118735196D03*
X154950000Y-103750000D03*
X158067636Y-110623129D03*
X157080500Y-96925500D03*
X151230500Y-97506000D03*
X138100000Y-100800000D03*
X138100000Y-104400000D03*
X138100000Y-101700000D03*
X138100000Y-103500000D03*
X138100000Y-102600000D03*
X139000000Y-100800000D03*
X139000000Y-104400000D03*
X139000000Y-101700000D03*
X139000000Y-103500000D03*
X139000000Y-102600000D03*
X139900000Y-100800000D03*
X139900000Y-102600000D03*
X140800000Y-101700000D03*
X140800000Y-104400000D03*
X140800000Y-103500000D03*
X140800000Y-102600000D03*
X139900000Y-101700000D03*
X139900000Y-103500000D03*
X139900000Y-104400000D03*
X146800000Y-96200000D03*
X140800000Y-100800000D03*
D21*
X103000000Y-85500000D02*
X108000000Y-85500000D01*
X136800000Y-89600000D02*
X136800000Y-76500000D01*
D22*
X146800000Y-90900000D02*
X138100000Y-90900000D01*
D21*
X136800000Y-94700000D02*
X136800000Y-89600000D01*
X130900000Y-100600000D02*
X136800000Y-94700000D01*
X128724500Y-101243500D02*
X129924500Y-101243500D01*
D23*
X159950000Y-115500000D02*
X161900000Y-115500000D01*
X161900000Y-115500000D02*
X161900000Y-115500000D01*
X155594174Y-105400000D02*
X155736463Y-105542289D01*
X142049991Y-114675011D02*
X151325002Y-105400000D01*
X151325002Y-105400000D02*
X155594174Y-105400000D01*
X133200005Y-115599995D02*
X134124989Y-114675011D01*
X134124989Y-114675011D02*
X142049991Y-114675011D01*
D22*
X137770000Y-118930000D02*
X140000000Y-116700000D01*
X137770000Y-123660000D02*
X137770000Y-118930000D01*
X123730000Y-123560000D02*
X123720000Y-123550000D01*
X116970000Y-123660000D02*
X116970000Y-123660000D01*
X123730000Y-123660000D02*
X116470000Y-123660000D01*
X116470000Y-123660000D02*
X116460000Y-123650000D01*
X104500000Y-124935787D02*
X104500000Y-122700000D01*
X104500000Y-126350000D02*
X104500000Y-124935787D01*
X116000000Y-111200000D02*
X118775736Y-111200000D01*
X104500000Y-122700000D02*
X116000000Y-111200000D01*
X118775736Y-111200000D02*
X119200000Y-111200000D01*
X123730000Y-123660000D02*
X123730000Y-123020000D01*
D24*
X132720000Y-121150000D02*
X135230000Y-123660000D01*
X123730000Y-123020000D02*
X125600000Y-121150000D01*
X125600000Y-121150000D02*
X132720000Y-121150000D01*
D25*
X132500000Y-114900000D02*
X132500000Y-114900000D01*
X133200000Y-114200000D02*
X141589964Y-114200000D01*
X145594979Y-110194985D02*
X145944978Y-109844986D01*
X141589964Y-114200000D02*
X145594979Y-110194985D01*
X132500000Y-114900000D02*
X133200000Y-114200000D01*
X146294977Y-109494987D02*
X145944978Y-109844986D01*
X148800000Y-106989964D02*
X146294977Y-109494987D01*
X148900000Y-101874926D02*
X148800000Y-101974926D01*
X148800000Y-101974926D02*
X148800000Y-106989964D01*
X156874926Y-101874926D02*
X156900000Y-101900000D01*
X148900000Y-101874926D02*
X156874926Y-101874926D01*
X156900000Y-101900000D02*
X159650000Y-104650000D01*
X159400000Y-112000000D02*
X159650000Y-111750000D01*
X159650000Y-111255026D02*
X159650000Y-111750000D01*
X159650000Y-104650000D02*
X159650000Y-111255026D01*
X151425010Y-112000000D02*
X159400000Y-112000000D01*
D22*
X136500000Y-126200000D02*
X137300000Y-126200000D01*
X140000000Y-123500000D02*
X140000000Y-120250000D01*
X137300000Y-126200000D02*
X140000000Y-123500000D01*
D25*
X152500000Y-136900000D02*
X152500000Y-137040000D01*
X153900000Y-133600000D02*
X153900000Y-135500000D01*
X166540000Y-121460000D02*
X166040000Y-121460000D01*
X153900000Y-135500000D02*
X152500000Y-136900000D01*
X166040000Y-121460000D02*
X153900000Y-133600000D01*
X154100000Y-100349828D02*
X154100000Y-99794974D01*
X141600000Y-113200000D02*
X148200000Y-106600000D01*
X138900010Y-113200000D02*
X141600000Y-113200000D01*
X153349828Y-101100000D02*
X154100000Y-100349828D01*
X154100000Y-99794974D02*
X154100000Y-99300000D01*
X148600000Y-101100000D02*
X153349828Y-101100000D01*
X148200000Y-106600000D02*
X148200000Y-101500000D01*
X148200000Y-101500000D02*
X148600000Y-101100000D01*
D23*
X158285787Y-138500000D02*
X159700000Y-138500000D01*
X150800000Y-138500000D02*
X157000000Y-138500000D01*
X149960000Y-137040000D02*
X149960000Y-137660000D01*
X149960000Y-137660000D02*
X150800000Y-138500000D01*
X157000000Y-138500000D02*
X158285787Y-138500000D01*
X148300022Y-112748983D02*
X152293848Y-108755157D01*
X148300022Y-124099978D02*
X148300022Y-112748983D01*
X152293848Y-108755157D02*
X152643847Y-108405158D01*
X145800000Y-126600001D02*
X148300022Y-124099978D01*
X147900000Y-122900000D02*
X147900000Y-112149994D01*
X147900000Y-112149994D02*
X151400001Y-108649993D01*
X151400001Y-108649993D02*
X151750000Y-108299994D01*
X145900000Y-124900000D02*
X147900000Y-122900000D01*
X151687891Y-107412109D02*
X151897216Y-107412109D01*
X145800000Y-123000000D02*
X147499989Y-121300011D01*
X147499989Y-111600011D02*
X151687891Y-107412109D01*
X147499989Y-121300011D02*
X147499989Y-111600011D01*
X151500000Y-105800000D02*
X154708764Y-105800000D01*
X154708764Y-105800000D02*
X154958774Y-106050010D01*
X142174978Y-115125022D02*
X151500000Y-105800000D01*
X131800000Y-118399992D02*
X135074970Y-115125022D01*
X135074970Y-115125022D02*
X142174978Y-115125022D01*
X155000000Y-120050000D02*
X155050000Y-120100000D01*
X153450000Y-118500000D02*
X155000000Y-120050000D01*
X153450000Y-116650000D02*
X153450000Y-118500000D01*
X154600000Y-115500000D02*
X153450000Y-116650000D01*
X158550000Y-109850000D02*
X158800000Y-110100000D01*
X158550000Y-105950000D02*
X158550000Y-109850000D01*
X152537716Y-102943042D02*
X155543042Y-102943042D01*
X155543042Y-102943042D02*
X158550000Y-105950000D01*
X157100000Y-115500000D02*
X158385196Y-116785196D01*
X158385196Y-116785196D02*
X158385196Y-118240222D01*
X158385196Y-118240222D02*
X158385196Y-118735196D01*
X158150000Y-110540765D02*
X158067636Y-110623129D01*
X158150000Y-106150000D02*
X158150000Y-110540765D01*
X155000000Y-103799988D02*
X155799988Y-103799988D01*
X155799988Y-103799988D02*
X158150000Y-106150000D01*
X165600000Y-109700000D02*
X164000000Y-111300000D01*
X167500000Y-109700000D02*
X165600000Y-109700000D01*
X168300010Y-110500010D02*
X167500000Y-109700000D01*
X166100000Y-128800000D02*
X168300010Y-126599990D01*
X168300010Y-126599990D02*
X168300010Y-110500010D01*
X163660000Y-113500000D02*
X164000000Y-113840000D01*
X159950000Y-113500000D02*
X163660000Y-113500000D01*
X160800000Y-117500000D02*
X159950000Y-117500000D01*
X161658686Y-117500000D02*
X160800000Y-117500000D01*
X164000000Y-116380000D02*
X162778686Y-116380000D01*
X162778686Y-116380000D02*
X161658686Y-117500000D01*
D21*
X113000000Y-95500000D02*
X114700000Y-95500000D01*
X125100000Y-106800000D02*
X135800000Y-106800000D01*
X113800000Y-95500000D02*
X125100000Y-106800000D01*
X139400000Y-103200000D02*
X139400000Y-101100000D01*
X113000000Y-95500000D02*
X113800000Y-95500000D01*
X135800000Y-106800000D02*
X139400000Y-103200000D01*
X145000000Y-95500000D02*
X167000000Y-95500000D01*
X139400000Y-101400000D02*
X139400000Y-101100000D01*
X139400000Y-101100000D02*
X145000000Y-95500000D01*
X103000000Y-95500000D02*
X113000000Y-95500000D01*
X114700000Y-95500000D02*
X128900000Y-81300000D01*
D23*
X157950000Y-113500000D02*
X158874990Y-114424990D01*
X158874990Y-114424990D02*
X158874990Y-118134626D01*
X157100000Y-113500000D02*
X157950000Y-113500000D01*
X165676401Y-117243599D02*
X166540000Y-116380000D01*
X165270000Y-117650000D02*
X165676401Y-117243599D01*
X162750000Y-117650000D02*
X165270000Y-117650000D01*
X161850012Y-118549988D02*
X162750000Y-117650000D01*
X159290352Y-118549988D02*
X161850012Y-118549988D01*
X158874990Y-118134626D02*
X159290352Y-118549988D01*
X155850000Y-114300000D02*
X155050000Y-113500000D01*
X155850000Y-117100000D02*
X155850000Y-114300000D01*
X157100000Y-117500000D02*
X156250000Y-117500000D01*
X155050000Y-113500000D02*
X154600000Y-113500000D01*
X156250000Y-117500000D02*
X155850000Y-117100000D01*
X165676401Y-112163599D02*
X166540000Y-111300000D01*
X165240000Y-112600000D02*
X165676401Y-112163599D01*
X155700000Y-112600000D02*
X165240000Y-112600000D01*
X154600000Y-113500000D02*
X154800000Y-113500000D01*
X154800000Y-113500000D02*
X155700000Y-112600000D01*
X167403599Y-114703599D02*
X166540000Y-113840000D01*
X154800000Y-117500000D02*
X157500000Y-120200000D01*
X157500000Y-120200000D02*
X167100000Y-120200000D01*
X167100000Y-120200000D02*
X167850000Y-119450000D01*
X154600000Y-117500000D02*
X154800000Y-117500000D01*
X167850000Y-119450000D02*
X167850000Y-115150000D01*
X167850000Y-115150000D02*
X167403599Y-114703599D01*
D26*
G36*
X123911612Y-110588388D02*
G01*
X123930554Y-110603934D01*
X123952165Y-110615485D01*
X123975614Y-110622598D01*
X124000000Y-110625000D01*
X137000000Y-110625000D01*
X137024386Y-110622598D01*
X137047835Y-110615485D01*
X137069446Y-110603934D01*
X137088388Y-110588388D01*
X140180602Y-107496174D01*
X140681400Y-107496174D01*
X140681400Y-107767026D01*
X140734241Y-108032673D01*
X140837891Y-108282907D01*
X140988368Y-108508111D01*
X141179889Y-108699632D01*
X141405093Y-108850109D01*
X141655327Y-108953759D01*
X141920974Y-109006600D01*
X142191826Y-109006600D01*
X142457473Y-108953759D01*
X142707707Y-108850109D01*
X142932911Y-108699632D01*
X143124432Y-108508111D01*
X143274909Y-108282907D01*
X143378559Y-108032673D01*
X143431400Y-107767026D01*
X143431400Y-107496174D01*
X143378559Y-107230527D01*
X143274909Y-106980293D01*
X143124432Y-106755089D01*
X142932911Y-106563568D01*
X142707707Y-106413091D01*
X142457473Y-106309441D01*
X142191826Y-106256600D01*
X141920974Y-106256600D01*
X141655327Y-106309441D01*
X141405093Y-106413091D01*
X141179889Y-106563568D01*
X140988368Y-106755089D01*
X140837891Y-106980293D01*
X140734241Y-107230527D01*
X140681400Y-107496174D01*
X140180602Y-107496174D01*
X148051776Y-99625000D01*
X153449885Y-99625000D01*
X153457513Y-99643416D01*
X153536856Y-99762161D01*
X153575000Y-99800305D01*
X153575000Y-100132366D01*
X153132367Y-100575000D01*
X148625779Y-100575000D01*
X148599999Y-100572461D01*
X148574219Y-100575000D01*
X148574212Y-100575000D01*
X148497082Y-100582597D01*
X148398119Y-100612617D01*
X148306914Y-100661367D01*
X148226973Y-100726973D01*
X148210534Y-100747004D01*
X147847005Y-101110534D01*
X147826974Y-101126973D01*
X147810535Y-101147004D01*
X147761367Y-101206915D01*
X147712617Y-101298120D01*
X147682597Y-101397083D01*
X147672461Y-101500000D01*
X147675001Y-101525790D01*
X147675000Y-106382538D01*
X141382539Y-112675000D01*
X139400315Y-112675000D01*
X139362171Y-112636856D01*
X139243426Y-112557513D01*
X139111485Y-112502861D01*
X138971416Y-112475000D01*
X138828604Y-112475000D01*
X138688535Y-112502861D01*
X138556594Y-112557513D01*
X138437849Y-112636856D01*
X138336866Y-112737839D01*
X138257523Y-112856584D01*
X138202871Y-112988525D01*
X138175010Y-113128594D01*
X138175010Y-113271406D01*
X138202871Y-113411475D01*
X138257523Y-113543416D01*
X138336866Y-113662161D01*
X138349705Y-113675000D01*
X133225779Y-113675000D01*
X133199999Y-113672461D01*
X133174219Y-113675000D01*
X133174212Y-113675000D01*
X133097082Y-113682597D01*
X132998119Y-113712617D01*
X132906914Y-113761367D01*
X132826973Y-113826973D01*
X132810534Y-113847004D01*
X132482538Y-114175000D01*
X132428594Y-114175000D01*
X132288525Y-114202861D01*
X132156584Y-114257513D01*
X132037839Y-114336856D01*
X131936856Y-114437839D01*
X131857513Y-114556584D01*
X131802861Y-114688525D01*
X131775000Y-114828594D01*
X131775000Y-114971406D01*
X131802861Y-115111475D01*
X131857513Y-115243416D01*
X131936856Y-115362161D01*
X132037839Y-115463144D01*
X132156584Y-115542487D01*
X132288525Y-115597139D01*
X132428594Y-115625000D01*
X132475005Y-115625000D01*
X132475005Y-115671401D01*
X132502866Y-115811470D01*
X132557518Y-115943411D01*
X132636861Y-116062156D01*
X132737844Y-116163139D01*
X132856589Y-116242482D01*
X132988530Y-116297134D01*
X133128599Y-116324995D01*
X133203246Y-116324995D01*
X131853250Y-117674992D01*
X131728594Y-117674992D01*
X131588525Y-117702853D01*
X131456584Y-117757505D01*
X131337839Y-117836848D01*
X131236856Y-117937831D01*
X131157513Y-118056576D01*
X131102861Y-118188517D01*
X131075000Y-118328586D01*
X131075000Y-118471398D01*
X131102861Y-118611467D01*
X131157513Y-118743408D01*
X131236856Y-118862153D01*
X131337839Y-118963136D01*
X131456584Y-119042479D01*
X131588525Y-119097131D01*
X131728594Y-119124992D01*
X131871406Y-119124992D01*
X132011475Y-119097131D01*
X132143416Y-119042479D01*
X132262161Y-118963136D01*
X132363144Y-118862153D01*
X132442487Y-118743408D01*
X132497139Y-118611467D01*
X132525000Y-118471398D01*
X132525000Y-118346742D01*
X135271721Y-115600022D01*
X139171299Y-115600022D01*
X139123489Y-115631968D01*
X138931968Y-115823489D01*
X138781491Y-116048693D01*
X138677841Y-116298927D01*
X138625000Y-116564574D01*
X138625000Y-116835426D01*
X138677841Y-117101073D01*
X138688738Y-117127380D01*
X137349772Y-118466346D01*
X137325921Y-118485920D01*
X137306348Y-118509770D01*
X137247818Y-118581089D01*
X137189782Y-118689666D01*
X137154044Y-118807479D01*
X137141977Y-118930000D01*
X137145001Y-118960704D01*
X137145000Y-122544182D01*
X136957235Y-122669643D01*
X136779643Y-122847235D01*
X136640110Y-123056061D01*
X136549803Y-123274080D01*
X136506481Y-123131264D01*
X136378802Y-122892394D01*
X136250036Y-122735492D01*
X133740036Y-120225493D01*
X133696976Y-120173024D01*
X133487605Y-120001198D01*
X133248736Y-119873519D01*
X132989547Y-119794895D01*
X132787549Y-119775000D01*
X132787539Y-119775000D01*
X132720000Y-119768348D01*
X132652461Y-119775000D01*
X125667538Y-119775000D01*
X125599999Y-119768348D01*
X125532460Y-119775000D01*
X125532451Y-119775000D01*
X125330453Y-119794895D01*
X125071264Y-119873519D01*
X124956566Y-119934827D01*
X124832394Y-120001198D01*
X124772929Y-120050000D01*
X124623024Y-120173024D01*
X124579963Y-120225494D01*
X122709964Y-122095493D01*
X122581198Y-122252395D01*
X122453519Y-122491265D01*
X122374896Y-122750454D01*
X122348348Y-123020000D01*
X122349825Y-123035000D01*
X116844553Y-123035000D01*
X116803416Y-123007513D01*
X116671475Y-122952861D01*
X116531406Y-122925000D01*
X116388594Y-122925000D01*
X116248525Y-122952861D01*
X116116584Y-123007513D01*
X115997839Y-123086856D01*
X115896856Y-123187839D01*
X115817513Y-123306584D01*
X115762861Y-123438525D01*
X115735000Y-123578594D01*
X115735000Y-123721406D01*
X115762861Y-123861475D01*
X115817513Y-123993416D01*
X115896856Y-124112161D01*
X115997839Y-124213144D01*
X116116584Y-124292487D01*
X116248525Y-124347139D01*
X116388594Y-124375000D01*
X116531406Y-124375000D01*
X116671475Y-124347139D01*
X116803416Y-124292487D01*
X116814621Y-124285000D01*
X122614183Y-124285000D01*
X122739643Y-124472765D01*
X122917235Y-124650357D01*
X123126061Y-124789890D01*
X123358096Y-124886002D01*
X123604423Y-124935000D01*
X123855577Y-124935000D01*
X124101904Y-124886002D01*
X124333939Y-124789890D01*
X124542765Y-124650357D01*
X124720357Y-124472765D01*
X124859890Y-124263939D01*
X124956002Y-124031904D01*
X125000000Y-123810713D01*
X125043998Y-124031904D01*
X125140110Y-124263939D01*
X125279643Y-124472765D01*
X125457235Y-124650357D01*
X125666061Y-124789890D01*
X125898096Y-124886002D01*
X126144423Y-124935000D01*
X126395577Y-124935000D01*
X126641904Y-124886002D01*
X126873939Y-124789890D01*
X127082765Y-124650357D01*
X127260357Y-124472765D01*
X127399890Y-124263939D01*
X127496002Y-124031904D01*
X127545000Y-123785577D01*
X127545000Y-123534423D01*
X127496002Y-123288096D01*
X127399890Y-123056061D01*
X127260357Y-122847235D01*
X127082765Y-122669643D01*
X126873939Y-122530110D01*
X126861602Y-122525000D01*
X132150457Y-122525000D01*
X134305492Y-124680036D01*
X134462394Y-124808802D01*
X134701264Y-124936481D01*
X134960452Y-125015104D01*
X135229999Y-125041652D01*
X135499546Y-125015104D01*
X135758735Y-124936481D01*
X135997605Y-124808802D01*
X136206976Y-124636976D01*
X136378802Y-124427605D01*
X136506481Y-124188735D01*
X136549803Y-124045919D01*
X136640110Y-124263939D01*
X136779643Y-124472765D01*
X136957235Y-124650357D01*
X137166061Y-124789890D01*
X137398096Y-124886002D01*
X137644423Y-124935000D01*
X137681117Y-124935000D01*
X137359620Y-125256498D01*
X137312765Y-125209643D01*
X137103939Y-125070110D01*
X136871904Y-124973998D01*
X136625577Y-124925000D01*
X136374423Y-124925000D01*
X136128096Y-124973998D01*
X135896061Y-125070110D01*
X135687235Y-125209643D01*
X135509643Y-125387235D01*
X135370110Y-125596061D01*
X135273998Y-125828096D01*
X135258059Y-125908228D01*
X135181177Y-125669545D01*
X135079508Y-125479334D01*
X134877728Y-125388338D01*
X134066066Y-126200000D01*
X134877728Y-127011662D01*
X135079508Y-126920666D01*
X135198592Y-126688414D01*
X135256633Y-126484603D01*
X135273998Y-126571904D01*
X135370110Y-126803939D01*
X135509643Y-127012765D01*
X135687235Y-127190357D01*
X135896061Y-127329890D01*
X136128096Y-127426002D01*
X136374423Y-127475000D01*
X136625577Y-127475000D01*
X136871904Y-127426002D01*
X137103939Y-127329890D01*
X137312765Y-127190357D01*
X137490357Y-127012765D01*
X137629890Y-126803939D01*
X137671399Y-126703728D01*
X137744080Y-126644080D01*
X137763658Y-126620224D01*
X140420236Y-123963648D01*
X140444080Y-123944080D01*
X140463649Y-123920235D01*
X140463653Y-123920231D01*
X140522183Y-123848912D01*
X140557670Y-123782520D01*
X140580219Y-123740334D01*
X140615957Y-123622521D01*
X140625000Y-123530704D01*
X140625000Y-123530702D01*
X140628024Y-123500000D01*
X140625000Y-123469298D01*
X140625000Y-122928594D01*
X145075000Y-122928594D01*
X145075000Y-123071406D01*
X145102861Y-123211475D01*
X145157513Y-123343416D01*
X145236856Y-123462161D01*
X145337839Y-123563144D01*
X145456584Y-123642487D01*
X145588525Y-123697139D01*
X145728594Y-123725000D01*
X145871406Y-123725000D01*
X146011475Y-123697139D01*
X146143416Y-123642487D01*
X146262161Y-123563144D01*
X146363144Y-123462161D01*
X146442487Y-123343416D01*
X146497139Y-123211475D01*
X146525000Y-123071406D01*
X146525000Y-122946750D01*
X147425000Y-122046751D01*
X147425000Y-122703249D01*
X145953250Y-124175000D01*
X145828594Y-124175000D01*
X145688525Y-124202861D01*
X145556584Y-124257513D01*
X145437839Y-124336856D01*
X145336856Y-124437839D01*
X145257513Y-124556584D01*
X145202861Y-124688525D01*
X145175000Y-124828594D01*
X145175000Y-124971406D01*
X145202861Y-125111475D01*
X145257513Y-125243416D01*
X145336856Y-125362161D01*
X145437839Y-125463144D01*
X145556584Y-125542487D01*
X145688525Y-125597139D01*
X145828594Y-125625000D01*
X145971406Y-125625000D01*
X146111475Y-125597139D01*
X146144995Y-125583255D01*
X145853249Y-125875001D01*
X145728594Y-125875001D01*
X145588525Y-125902862D01*
X145456584Y-125957514D01*
X145337839Y-126036857D01*
X145236856Y-126137840D01*
X145157513Y-126256585D01*
X145102861Y-126388526D01*
X145075000Y-126528595D01*
X145075000Y-126671407D01*
X145102861Y-126811476D01*
X145157513Y-126943417D01*
X145236856Y-127062162D01*
X145337839Y-127163145D01*
X145456584Y-127242488D01*
X145588525Y-127297140D01*
X145728594Y-127325001D01*
X145871406Y-127325001D01*
X146011475Y-127297140D01*
X146143416Y-127242488D01*
X146262161Y-127163145D01*
X146363144Y-127062162D01*
X146442487Y-126943417D01*
X146497139Y-126811476D01*
X146525000Y-126671407D01*
X146525000Y-126546751D01*
X148619399Y-124452353D01*
X148637523Y-124437479D01*
X148696881Y-124365151D01*
X148740988Y-124282632D01*
X148768149Y-124193094D01*
X148775022Y-124123310D01*
X148775022Y-124123309D01*
X148777320Y-124099978D01*
X148775022Y-124076646D01*
X148775022Y-112945733D01*
X152590599Y-109130158D01*
X152715253Y-109130158D01*
X152855322Y-109102297D01*
X152987263Y-109047645D01*
X153106008Y-108968302D01*
X153206991Y-108867319D01*
X153286334Y-108748574D01*
X153340986Y-108616633D01*
X153368847Y-108476564D01*
X153368847Y-108333752D01*
X153340986Y-108193683D01*
X153286334Y-108061742D01*
X153206991Y-107942997D01*
X153106008Y-107842014D01*
X152987263Y-107762671D01*
X152855322Y-107708019D01*
X152715253Y-107680158D01*
X152572441Y-107680158D01*
X152570785Y-107680487D01*
X152594355Y-107623584D01*
X152622216Y-107483515D01*
X152622216Y-107340703D01*
X152594355Y-107200634D01*
X152539703Y-107068693D01*
X152460360Y-106949948D01*
X152359377Y-106848965D01*
X152240632Y-106769622D01*
X152108691Y-106714970D01*
X151968622Y-106687109D01*
X151825810Y-106687109D01*
X151685741Y-106714970D01*
X151553800Y-106769622D01*
X151435055Y-106848965D01*
X151334072Y-106949948D01*
X151254729Y-107068693D01*
X151200077Y-107200634D01*
X151193240Y-107235008D01*
X147180618Y-111247632D01*
X147162489Y-111262510D01*
X147103131Y-111334838D01*
X147064782Y-111406584D01*
X147059024Y-111417357D01*
X147031862Y-111506895D01*
X147022691Y-111600011D01*
X147024990Y-111623353D01*
X147024989Y-121103260D01*
X145853250Y-122275000D01*
X145728594Y-122275000D01*
X145588525Y-122302861D01*
X145456584Y-122357513D01*
X145337839Y-122436856D01*
X145236856Y-122537839D01*
X145157513Y-122656584D01*
X145102861Y-122788525D01*
X145075000Y-122928594D01*
X140625000Y-122928594D01*
X140625000Y-121662606D01*
X140651307Y-121651709D01*
X140876511Y-121501232D01*
X141068032Y-121309711D01*
X141218509Y-121084507D01*
X141322159Y-120834273D01*
X141375000Y-120568626D01*
X141375000Y-120297774D01*
X141322159Y-120032127D01*
X141218509Y-119781893D01*
X141068032Y-119556689D01*
X140876511Y-119365168D01*
X140651307Y-119214691D01*
X140401073Y-119111041D01*
X140135426Y-119058200D01*
X139864574Y-119058200D01*
X139598927Y-119111041D01*
X139348693Y-119214691D01*
X139123489Y-119365168D01*
X138931968Y-119556689D01*
X138781491Y-119781893D01*
X138677841Y-120032127D01*
X138625000Y-120297774D01*
X138625000Y-120568626D01*
X138677841Y-120834273D01*
X138781491Y-121084507D01*
X138931968Y-121309711D01*
X139123489Y-121501232D01*
X139348693Y-121651709D01*
X139375001Y-121662606D01*
X139375000Y-123241116D01*
X139045000Y-123571116D01*
X139045000Y-123534423D01*
X138996002Y-123288096D01*
X138899890Y-123056061D01*
X138760357Y-122847235D01*
X138582765Y-122669643D01*
X138395000Y-122544183D01*
X138395000Y-119188882D01*
X139572620Y-118011262D01*
X139598927Y-118022159D01*
X139864574Y-118075000D01*
X140135426Y-118075000D01*
X140401073Y-118022159D01*
X140651307Y-117918509D01*
X140876511Y-117768032D01*
X141068032Y-117576511D01*
X141218509Y-117351307D01*
X141322159Y-117101073D01*
X141375000Y-116835426D01*
X141375000Y-116564574D01*
X141322159Y-116298927D01*
X141218509Y-116048693D01*
X141068032Y-115823489D01*
X140876511Y-115631968D01*
X140828701Y-115600022D01*
X142151646Y-115600022D01*
X142174978Y-115602320D01*
X142198310Y-115600022D01*
X142268094Y-115593149D01*
X142357632Y-115565988D01*
X142440151Y-115521881D01*
X142512479Y-115462523D01*
X142527362Y-115444388D01*
X151696752Y-106275000D01*
X154267233Y-106275000D01*
X154316287Y-106393426D01*
X154395630Y-106512171D01*
X154496613Y-106613154D01*
X154615358Y-106692497D01*
X154747299Y-106747149D01*
X154887368Y-106775010D01*
X155030180Y-106775010D01*
X155170249Y-106747149D01*
X155302190Y-106692497D01*
X155420935Y-106613154D01*
X155521918Y-106512171D01*
X155601261Y-106393426D01*
X155654388Y-106265167D01*
X155665057Y-106267289D01*
X155807869Y-106267289D01*
X155947938Y-106239428D01*
X156079879Y-106184776D01*
X156198624Y-106105433D01*
X156299607Y-106004450D01*
X156378950Y-105885705D01*
X156433602Y-105753764D01*
X156461463Y-105613695D01*
X156461463Y-105470883D01*
X156433602Y-105330814D01*
X156378950Y-105198873D01*
X156299607Y-105080128D01*
X156198624Y-104979145D01*
X156079879Y-104899802D01*
X155947938Y-104845150D01*
X155807869Y-104817289D01*
X155665057Y-104817289D01*
X155524988Y-104845150D01*
X155393047Y-104899802D01*
X155355336Y-104925000D01*
X151348333Y-104925000D01*
X151325001Y-104922702D01*
X151231885Y-104931873D01*
X151204724Y-104940112D01*
X151142348Y-104959034D01*
X151059829Y-105003141D01*
X150987501Y-105062499D01*
X150972623Y-105080628D01*
X149325000Y-106728251D01*
X149325000Y-102462900D01*
X149362161Y-102438070D01*
X149400305Y-102399926D01*
X152055527Y-102399926D01*
X151974572Y-102480881D01*
X151895229Y-102599626D01*
X151840577Y-102731567D01*
X151812716Y-102871636D01*
X151812716Y-103014448D01*
X151840577Y-103154517D01*
X151895229Y-103286458D01*
X151974572Y-103405203D01*
X152075555Y-103506186D01*
X152194300Y-103585529D01*
X152326241Y-103640181D01*
X152466310Y-103668042D01*
X152609122Y-103668042D01*
X152749191Y-103640181D01*
X152881132Y-103585529D01*
X152999877Y-103506186D01*
X153088021Y-103418042D01*
X154302767Y-103418042D01*
X154252861Y-103538525D01*
X154225000Y-103678594D01*
X154225000Y-103821406D01*
X154252861Y-103961475D01*
X154307513Y-104093416D01*
X154386856Y-104212161D01*
X154487839Y-104313144D01*
X154606584Y-104392487D01*
X154738525Y-104447139D01*
X154878594Y-104475000D01*
X155021406Y-104475000D01*
X155161475Y-104447139D01*
X155293416Y-104392487D01*
X155412161Y-104313144D01*
X155450317Y-104274988D01*
X155603238Y-104274988D01*
X157675000Y-106346752D01*
X157675001Y-110013529D01*
X157605475Y-110059985D01*
X157504492Y-110160968D01*
X157425149Y-110279713D01*
X157370497Y-110411654D01*
X157342636Y-110551723D01*
X157342636Y-110694535D01*
X157370497Y-110834604D01*
X157425149Y-110966545D01*
X157504492Y-111085290D01*
X157605475Y-111186273D01*
X157724220Y-111265616D01*
X157856161Y-111320268D01*
X157996230Y-111348129D01*
X158139042Y-111348129D01*
X158279111Y-111320268D01*
X158411052Y-111265616D01*
X158529797Y-111186273D01*
X158630780Y-111085290D01*
X158710123Y-110966545D01*
X158764775Y-110834604D01*
X158766685Y-110825000D01*
X158871406Y-110825000D01*
X159011475Y-110797139D01*
X159125001Y-110750115D01*
X159125001Y-111229229D01*
X159125000Y-111229239D01*
X159125000Y-111249695D01*
X159086856Y-111287839D01*
X159007513Y-111406584D01*
X158979174Y-111475000D01*
X151925315Y-111475000D01*
X151887171Y-111436856D01*
X151768426Y-111357513D01*
X151636485Y-111302861D01*
X151496416Y-111275000D01*
X151353604Y-111275000D01*
X151213535Y-111302861D01*
X151081594Y-111357513D01*
X150962849Y-111436856D01*
X150861866Y-111537839D01*
X150782523Y-111656584D01*
X150727871Y-111788525D01*
X150700010Y-111928594D01*
X150700010Y-112071406D01*
X150727871Y-112211475D01*
X150782523Y-112343416D01*
X150861866Y-112462161D01*
X150962849Y-112563144D01*
X151081594Y-112642487D01*
X151213535Y-112697139D01*
X151353604Y-112725000D01*
X151496416Y-112725000D01*
X151636485Y-112697139D01*
X151768426Y-112642487D01*
X151887171Y-112563144D01*
X151925315Y-112525000D01*
X155103249Y-112525000D01*
X155005063Y-112623186D01*
X153850000Y-112623186D01*
X153776487Y-112630426D01*
X153705800Y-112651869D01*
X153640653Y-112686691D01*
X153583552Y-112733552D01*
X153536691Y-112790653D01*
X153501869Y-112855800D01*
X153480426Y-112926487D01*
X153473186Y-113000000D01*
X153473186Y-114000000D01*
X153480503Y-114073899D01*
X153502020Y-114144565D01*
X153504951Y-114150034D01*
X153501869Y-114155800D01*
X153480426Y-114226487D01*
X153473186Y-114300000D01*
X153473186Y-115955063D01*
X153130634Y-116297616D01*
X153112499Y-116312499D01*
X153053141Y-116384827D01*
X153009034Y-116467347D01*
X153007284Y-116473117D01*
X152981873Y-116556884D01*
X152972702Y-116650000D01*
X152975000Y-116673333D01*
X152975001Y-118476658D01*
X152972702Y-118500000D01*
X152981873Y-118593116D01*
X153003729Y-118665164D01*
X153009035Y-118682654D01*
X153053142Y-118765173D01*
X153112500Y-118837501D01*
X153130629Y-118852379D01*
X154275000Y-119996751D01*
X154275000Y-120121406D01*
X154302861Y-120261475D01*
X154357513Y-120393416D01*
X154436856Y-120512161D01*
X154537839Y-120613144D01*
X154656584Y-120692487D01*
X154788525Y-120747139D01*
X154928594Y-120775000D01*
X155071406Y-120775000D01*
X155211475Y-120747139D01*
X155343416Y-120692487D01*
X155462161Y-120613144D01*
X155563144Y-120512161D01*
X155642487Y-120393416D01*
X155697139Y-120261475D01*
X155725000Y-120121406D01*
X155725000Y-119978594D01*
X155697139Y-119838525D01*
X155642487Y-119706584D01*
X155563144Y-119587839D01*
X155462161Y-119486856D01*
X155343416Y-119407513D01*
X155211475Y-119352861D01*
X155071406Y-119325000D01*
X154946751Y-119325000D01*
X153998564Y-118376814D01*
X155005064Y-118376814D01*
X157147625Y-120519377D01*
X157162499Y-120537501D01*
X157180621Y-120552373D01*
X157180622Y-120552374D01*
X157234827Y-120596859D01*
X157317346Y-120640966D01*
X157406884Y-120668127D01*
X157500000Y-120677298D01*
X157523332Y-120675000D01*
X163034869Y-120675000D01*
X162902367Y-120873303D01*
X162808999Y-121098714D01*
X162761400Y-121338009D01*
X162761400Y-121581991D01*
X162808999Y-121821286D01*
X162902367Y-122046697D01*
X163037917Y-122249561D01*
X163210439Y-122422083D01*
X163413303Y-122557633D01*
X163638714Y-122651001D01*
X163878009Y-122698600D01*
X164058938Y-122698600D01*
X153547010Y-133210529D01*
X153526973Y-133226973D01*
X153482874Y-133280708D01*
X153437113Y-133266826D01*
X153363600Y-133259586D01*
X151636400Y-133259586D01*
X151562887Y-133266826D01*
X151492200Y-133288269D01*
X151427053Y-133323091D01*
X151369952Y-133369952D01*
X151323091Y-133427053D01*
X151288269Y-133492200D01*
X151266826Y-133562887D01*
X151259586Y-133636400D01*
X151259586Y-135363600D01*
X151266826Y-135437113D01*
X151288269Y-135507800D01*
X151323091Y-135572947D01*
X151369952Y-135630048D01*
X151427053Y-135676909D01*
X151492200Y-135711731D01*
X151562887Y-135733174D01*
X151636400Y-135740414D01*
X152917124Y-135740414D01*
X152817291Y-135840248D01*
X152621991Y-135801400D01*
X152378009Y-135801400D01*
X152138714Y-135848999D01*
X151913303Y-135942367D01*
X151710439Y-136077917D01*
X151537917Y-136250439D01*
X151402367Y-136453303D01*
X151308999Y-136678714D01*
X151261400Y-136918009D01*
X151261400Y-137161991D01*
X151308999Y-137401286D01*
X151402367Y-137626697D01*
X151537917Y-137829561D01*
X151710439Y-138002083D01*
X151744737Y-138025000D01*
X150996751Y-138025000D01*
X150861697Y-137889947D01*
X150922083Y-137829561D01*
X151057633Y-137626697D01*
X151151001Y-137401286D01*
X151198600Y-137161991D01*
X151198600Y-136918009D01*
X151151001Y-136678714D01*
X151057633Y-136453303D01*
X150922083Y-136250439D01*
X150749561Y-136077917D01*
X150546697Y-135942367D01*
X150321286Y-135848999D01*
X150081991Y-135801400D01*
X149838009Y-135801400D01*
X149598714Y-135848999D01*
X149373303Y-135942367D01*
X149170439Y-136077917D01*
X148997917Y-136250439D01*
X148862367Y-136453303D01*
X148768999Y-136678714D01*
X148721400Y-136918009D01*
X148721400Y-137161991D01*
X148768999Y-137401286D01*
X148862367Y-137626697D01*
X148997917Y-137829561D01*
X149170439Y-138002083D01*
X149373303Y-138137633D01*
X149598714Y-138231001D01*
X149838009Y-138278600D01*
X149906850Y-138278600D01*
X150447620Y-138819371D01*
X150462499Y-138837501D01*
X150534827Y-138896859D01*
X150617346Y-138940966D01*
X150679722Y-138959888D01*
X150706883Y-138968127D01*
X150799999Y-138977298D01*
X150823331Y-138975000D01*
X158508462Y-138975000D01*
X158581491Y-139151307D01*
X158731968Y-139376511D01*
X158923489Y-139568032D01*
X159148693Y-139718509D01*
X159398927Y-139822159D01*
X159664574Y-139875000D01*
X159935426Y-139875000D01*
X160201073Y-139822159D01*
X160451307Y-139718509D01*
X160676511Y-139568032D01*
X160868032Y-139376511D01*
X161018509Y-139151307D01*
X161122159Y-138901073D01*
X161175000Y-138635426D01*
X161175000Y-138364574D01*
X161122159Y-138098927D01*
X161018509Y-137848693D01*
X160868032Y-137623489D01*
X160676511Y-137431968D01*
X160451307Y-137281491D01*
X160201073Y-137177841D01*
X159935426Y-137125000D01*
X159664574Y-137125000D01*
X159398927Y-137177841D01*
X159148693Y-137281491D01*
X158923489Y-137431968D01*
X158731968Y-137623489D01*
X158581491Y-137848693D01*
X158508462Y-138025000D01*
X153255263Y-138025000D01*
X153289561Y-138002083D01*
X153462083Y-137829561D01*
X153597633Y-137626697D01*
X153691001Y-137401286D01*
X153738600Y-137161991D01*
X153738600Y-136918009D01*
X153691001Y-136678714D01*
X153624440Y-136518021D01*
X154252996Y-135889466D01*
X154273027Y-135873027D01*
X154338633Y-135793086D01*
X154387383Y-135701881D01*
X154417403Y-135602918D01*
X154425000Y-135525788D01*
X154425000Y-135525780D01*
X154427539Y-135500000D01*
X154425000Y-135474220D01*
X154425000Y-134964574D01*
X158425000Y-134964574D01*
X158425000Y-135235426D01*
X158477841Y-135501073D01*
X158581491Y-135751307D01*
X158731968Y-135976511D01*
X158923489Y-136168032D01*
X159148693Y-136318509D01*
X159398927Y-136422159D01*
X159664574Y-136475000D01*
X159935426Y-136475000D01*
X160201073Y-136422159D01*
X160451307Y-136318509D01*
X160676511Y-136168032D01*
X160868032Y-135976511D01*
X161018509Y-135751307D01*
X161122159Y-135501073D01*
X161161065Y-135305479D01*
X163025000Y-135305479D01*
X163025000Y-135694521D01*
X163100898Y-136076086D01*
X163249778Y-136435513D01*
X163465917Y-136758989D01*
X163741011Y-137034083D01*
X164064487Y-137250222D01*
X164423914Y-137399102D01*
X164805479Y-137475000D01*
X165194521Y-137475000D01*
X165576086Y-137399102D01*
X165935513Y-137250222D01*
X166258989Y-137034083D01*
X166534083Y-136758989D01*
X166750222Y-136435513D01*
X166899102Y-136076086D01*
X166975000Y-135694521D01*
X166975000Y-135305479D01*
X166899102Y-134923914D01*
X166750222Y-134564487D01*
X166534083Y-134241011D01*
X166258989Y-133965917D01*
X165935513Y-133749778D01*
X165576086Y-133600898D01*
X165194521Y-133525000D01*
X164805479Y-133525000D01*
X164423914Y-133600898D01*
X164064487Y-133749778D01*
X163741011Y-133965917D01*
X163465917Y-134241011D01*
X163249778Y-134564487D01*
X163100898Y-134923914D01*
X163025000Y-135305479D01*
X161161065Y-135305479D01*
X161175000Y-135235426D01*
X161175000Y-134964574D01*
X161122159Y-134698927D01*
X161018509Y-134448693D01*
X160868032Y-134223489D01*
X160676511Y-134031968D01*
X160451307Y-133881491D01*
X160201073Y-133777841D01*
X159935426Y-133725000D01*
X159664574Y-133725000D01*
X159398927Y-133777841D01*
X159148693Y-133881491D01*
X158923489Y-134031968D01*
X158731968Y-134223489D01*
X158581491Y-134448693D01*
X158477841Y-134698927D01*
X158425000Y-134964574D01*
X154425000Y-134964574D01*
X154425000Y-133817461D01*
X156677887Y-131564574D01*
X158425000Y-131564574D01*
X158425000Y-131835426D01*
X158477841Y-132101073D01*
X158581491Y-132351307D01*
X158731968Y-132576511D01*
X158923489Y-132768032D01*
X159148693Y-132918509D01*
X159398927Y-133022159D01*
X159664574Y-133075000D01*
X159935426Y-133075000D01*
X160201073Y-133022159D01*
X160451307Y-132918509D01*
X160676511Y-132768032D01*
X160868032Y-132576511D01*
X161018509Y-132351307D01*
X161122159Y-132101073D01*
X161175000Y-131835426D01*
X161175000Y-131564574D01*
X161122159Y-131298927D01*
X161018509Y-131048693D01*
X160868032Y-130823489D01*
X160676511Y-130631968D01*
X160451307Y-130481491D01*
X160201073Y-130377841D01*
X159935426Y-130325000D01*
X159664574Y-130325000D01*
X159398927Y-130377841D01*
X159148693Y-130481491D01*
X158923489Y-130631968D01*
X158731968Y-130823489D01*
X158581491Y-131048693D01*
X158477841Y-131298927D01*
X158425000Y-131564574D01*
X156677887Y-131564574D01*
X159563113Y-128679348D01*
X162335000Y-128679348D01*
X162335000Y-128920652D01*
X162382076Y-129157319D01*
X162474419Y-129380255D01*
X162608481Y-129580892D01*
X162779108Y-129751519D01*
X162979745Y-129885581D01*
X163202681Y-129977924D01*
X163439348Y-130025000D01*
X163680652Y-130025000D01*
X163917319Y-129977924D01*
X164140255Y-129885581D01*
X164340892Y-129751519D01*
X164511519Y-129580892D01*
X164645581Y-129380255D01*
X164737924Y-129157319D01*
X164785000Y-128920652D01*
X164785000Y-128679348D01*
X164737924Y-128442681D01*
X164645581Y-128219745D01*
X164511519Y-128019108D01*
X164340892Y-127848481D01*
X164140255Y-127714419D01*
X163917319Y-127622076D01*
X163680652Y-127575000D01*
X163439348Y-127575000D01*
X163202681Y-127622076D01*
X162979745Y-127714419D01*
X162779108Y-127848481D01*
X162608481Y-128019108D01*
X162474419Y-128219745D01*
X162382076Y-128442681D01*
X162335000Y-128679348D01*
X159563113Y-128679348D01*
X165792365Y-122450097D01*
X165953303Y-122557633D01*
X166178714Y-122651001D01*
X166418009Y-122698600D01*
X166661991Y-122698600D01*
X166901286Y-122651001D01*
X167126697Y-122557633D01*
X167329561Y-122422083D01*
X167502083Y-122249561D01*
X167637633Y-122046697D01*
X167731001Y-121821286D01*
X167778600Y-121581991D01*
X167778600Y-121338009D01*
X167731001Y-121098714D01*
X167637633Y-120873303D01*
X167502083Y-120670439D01*
X167399957Y-120568313D01*
X167437501Y-120537501D01*
X167452384Y-120519366D01*
X167825010Y-120146740D01*
X167825010Y-126403239D01*
X166655064Y-127573186D01*
X165250000Y-127573186D01*
X165176487Y-127580426D01*
X165105800Y-127601869D01*
X165040653Y-127636691D01*
X164983552Y-127683552D01*
X164936691Y-127740653D01*
X164901869Y-127805800D01*
X164880426Y-127876487D01*
X164873186Y-127950000D01*
X164873186Y-129650000D01*
X164880426Y-129723513D01*
X164901869Y-129794200D01*
X164936691Y-129859347D01*
X164983552Y-129916448D01*
X165040653Y-129963309D01*
X165105800Y-129998131D01*
X165176487Y-130019574D01*
X165250000Y-130026814D01*
X166950000Y-130026814D01*
X167023513Y-130019574D01*
X167094200Y-129998131D01*
X167159347Y-129963309D01*
X167216448Y-129916448D01*
X167263309Y-129859347D01*
X167298131Y-129794200D01*
X167319574Y-129723513D01*
X167326814Y-129650000D01*
X167326814Y-128244936D01*
X168619382Y-126952369D01*
X168637511Y-126937491D01*
X168696869Y-126865163D01*
X168740976Y-126782644D01*
X168766376Y-126698911D01*
X168768137Y-126693107D01*
X168777308Y-126599990D01*
X168775010Y-126576658D01*
X168775010Y-110523342D01*
X168777308Y-110500010D01*
X168768137Y-110406893D01*
X168755481Y-110365172D01*
X168740976Y-110317356D01*
X168696869Y-110234837D01*
X168637511Y-110162509D01*
X168619381Y-110147630D01*
X167852384Y-109380634D01*
X167837501Y-109362499D01*
X167765173Y-109303141D01*
X167682654Y-109259034D01*
X167593116Y-109231873D01*
X167523332Y-109225000D01*
X167500000Y-109222702D01*
X167476668Y-109225000D01*
X165623332Y-109225000D01*
X165600000Y-109222702D01*
X165576668Y-109225000D01*
X165506884Y-109231873D01*
X165417346Y-109259034D01*
X165334827Y-109303141D01*
X165262499Y-109362499D01*
X165247625Y-109380623D01*
X164568663Y-110059586D01*
X163136400Y-110059586D01*
X163062887Y-110066826D01*
X162992200Y-110088269D01*
X162927053Y-110123091D01*
X162869952Y-110169952D01*
X162823091Y-110227053D01*
X162788269Y-110292200D01*
X162766826Y-110362887D01*
X162759586Y-110436400D01*
X162759586Y-112125000D01*
X160271383Y-112125000D01*
X160292487Y-112093416D01*
X160347139Y-111961475D01*
X160375000Y-111821406D01*
X160375000Y-111678594D01*
X160347139Y-111538525D01*
X160292487Y-111406584D01*
X160213144Y-111287839D01*
X160175000Y-111249695D01*
X160175000Y-104675779D01*
X160177539Y-104649999D01*
X160175000Y-104624219D01*
X160175000Y-104624212D01*
X160167403Y-104547082D01*
X160137383Y-104448119D01*
X160088633Y-104356914D01*
X160023027Y-104276973D01*
X160002996Y-104260534D01*
X157625000Y-101882539D01*
X157625000Y-101828594D01*
X157597139Y-101688525D01*
X157542487Y-101556584D01*
X157463144Y-101437839D01*
X157362161Y-101336856D01*
X157243416Y-101257513D01*
X157111475Y-101202861D01*
X156971406Y-101175000D01*
X156828594Y-101175000D01*
X156688525Y-101202861D01*
X156556584Y-101257513D01*
X156437839Y-101336856D01*
X156424769Y-101349926D01*
X153842363Y-101349926D01*
X154452995Y-100739294D01*
X154473027Y-100722855D01*
X154538633Y-100642914D01*
X154587383Y-100551709D01*
X154617403Y-100452746D01*
X154625000Y-100375616D01*
X154625000Y-100375609D01*
X154627539Y-100349829D01*
X154625000Y-100324049D01*
X154625000Y-99800305D01*
X154663144Y-99762161D01*
X154742487Y-99643416D01*
X154750115Y-99625000D01*
X169550001Y-99625000D01*
X169550000Y-140050000D01*
X100450000Y-140050000D01*
X100450000Y-135305479D01*
X103025000Y-135305479D01*
X103025000Y-135694521D01*
X103100898Y-136076086D01*
X103249778Y-136435513D01*
X103465917Y-136758989D01*
X103741011Y-137034083D01*
X104064487Y-137250222D01*
X104423914Y-137399102D01*
X104805479Y-137475000D01*
X105194521Y-137475000D01*
X105576086Y-137399102D01*
X105935513Y-137250222D01*
X106258989Y-137034083D01*
X106375063Y-136918009D01*
X146181400Y-136918009D01*
X146181400Y-137161991D01*
X146228999Y-137401286D01*
X146322367Y-137626697D01*
X146457917Y-137829561D01*
X146630439Y-138002083D01*
X146833303Y-138137633D01*
X147058714Y-138231001D01*
X147298009Y-138278600D01*
X147541991Y-138278600D01*
X147781286Y-138231001D01*
X148006697Y-138137633D01*
X148209561Y-138002083D01*
X148382083Y-137829561D01*
X148517633Y-137626697D01*
X148611001Y-137401286D01*
X148658600Y-137161991D01*
X148658600Y-136918009D01*
X148611001Y-136678714D01*
X148517633Y-136453303D01*
X148382083Y-136250439D01*
X148209561Y-136077917D01*
X148006697Y-135942367D01*
X147781286Y-135848999D01*
X147541991Y-135801400D01*
X147298009Y-135801400D01*
X147058714Y-135848999D01*
X146833303Y-135942367D01*
X146630439Y-136077917D01*
X146457917Y-136250439D01*
X146322367Y-136453303D01*
X146228999Y-136678714D01*
X146181400Y-136918009D01*
X106375063Y-136918009D01*
X106534083Y-136758989D01*
X106750222Y-136435513D01*
X106899102Y-136076086D01*
X106936334Y-135888904D01*
X113177162Y-135888904D01*
X113280185Y-136100921D01*
X113529456Y-136229980D01*
X113799117Y-136307929D01*
X114078803Y-136331771D01*
X114357767Y-136300592D01*
X114625287Y-136215588D01*
X114839815Y-136100921D01*
X114942838Y-135888904D01*
X114060000Y-135006066D01*
X113177162Y-135888904D01*
X106936334Y-135888904D01*
X106975000Y-135694521D01*
X106975000Y-135305479D01*
X106899102Y-134923914D01*
X106896985Y-134918803D01*
X112628229Y-134918803D01*
X112659408Y-135197767D01*
X112744412Y-135465287D01*
X112859079Y-135679815D01*
X113071096Y-135782838D01*
X113953934Y-134900000D01*
X114166066Y-134900000D01*
X115048904Y-135782838D01*
X115260921Y-135679815D01*
X115389980Y-135430544D01*
X115467929Y-135160883D01*
X115491771Y-134881197D01*
X115479938Y-134775317D01*
X146161152Y-134775317D01*
X146239052Y-135015616D01*
X146362335Y-135236100D01*
X146526264Y-135428296D01*
X146724538Y-135584818D01*
X146949539Y-135699651D01*
X147144684Y-135758845D01*
X147345000Y-135679969D01*
X147345000Y-134575000D01*
X147495000Y-134575000D01*
X147495000Y-135679969D01*
X147695316Y-135758845D01*
X147890461Y-135699651D01*
X148115462Y-135584818D01*
X148313736Y-135428296D01*
X148477665Y-135236100D01*
X148600948Y-135015616D01*
X148678848Y-134775317D01*
X148600169Y-134575000D01*
X147495000Y-134575000D01*
X147345000Y-134575000D01*
X146239831Y-134575000D01*
X146161152Y-134775317D01*
X115479938Y-134775317D01*
X115460592Y-134602233D01*
X115375588Y-134334713D01*
X115260921Y-134120185D01*
X115048904Y-134017162D01*
X114166066Y-134900000D01*
X113953934Y-134900000D01*
X113071096Y-134017162D01*
X112859079Y-134120185D01*
X112730020Y-134369456D01*
X112652071Y-134639117D01*
X112628229Y-134918803D01*
X106896985Y-134918803D01*
X106750222Y-134564487D01*
X106534083Y-134241011D01*
X106258989Y-133965917D01*
X106176944Y-133911096D01*
X113177162Y-133911096D01*
X114060000Y-134793934D01*
X114942838Y-133911096D01*
X114839815Y-133699079D01*
X114590544Y-133570020D01*
X114320883Y-133492071D01*
X114041197Y-133468229D01*
X113762233Y-133499408D01*
X113494713Y-133584412D01*
X113280185Y-133699079D01*
X113177162Y-133911096D01*
X106176944Y-133911096D01*
X105935513Y-133749778D01*
X105576086Y-133600898D01*
X105194521Y-133525000D01*
X104805479Y-133525000D01*
X104423914Y-133600898D01*
X104064487Y-133749778D01*
X103741011Y-133965917D01*
X103465917Y-134241011D01*
X103249778Y-134564487D01*
X103100898Y-134923914D01*
X103025000Y-135305479D01*
X100450000Y-135305479D01*
X100450000Y-132353017D01*
X118550000Y-132353017D01*
X118550000Y-132746983D01*
X118626859Y-133133378D01*
X118777623Y-133497355D01*
X118996499Y-133824926D01*
X119275074Y-134103501D01*
X119602645Y-134322377D01*
X119966622Y-134473141D01*
X120353017Y-134550000D01*
X120746983Y-134550000D01*
X121133378Y-134473141D01*
X121497355Y-134322377D01*
X121824926Y-134103501D01*
X122103501Y-133824926D01*
X122322377Y-133497355D01*
X122473141Y-133133378D01*
X122550000Y-132746983D01*
X122550000Y-132353017D01*
X126170000Y-132353017D01*
X126170000Y-132746983D01*
X126246859Y-133133378D01*
X126397623Y-133497355D01*
X126616499Y-133824926D01*
X126895074Y-134103501D01*
X127222645Y-134322377D01*
X127586622Y-134473141D01*
X127973017Y-134550000D01*
X128366983Y-134550000D01*
X128753378Y-134473141D01*
X129117355Y-134322377D01*
X129444926Y-134103501D01*
X129723501Y-133824926D01*
X129942377Y-133497355D01*
X130093141Y-133133378D01*
X130110000Y-133048622D01*
X130126859Y-133133378D01*
X130277623Y-133497355D01*
X130496499Y-133824926D01*
X130775074Y-134103501D01*
X131102645Y-134322377D01*
X131466622Y-134473141D01*
X131853017Y-134550000D01*
X132246983Y-134550000D01*
X132633378Y-134473141D01*
X132997355Y-134322377D01*
X133324926Y-134103501D01*
X133603501Y-133824926D01*
X133822377Y-133497355D01*
X133973141Y-133133378D01*
X134050000Y-132746983D01*
X134050000Y-132353017D01*
X137670000Y-132353017D01*
X137670000Y-132746983D01*
X137746859Y-133133378D01*
X137897623Y-133497355D01*
X138116499Y-133824926D01*
X138395074Y-134103501D01*
X138722645Y-134322377D01*
X139086622Y-134473141D01*
X139473017Y-134550000D01*
X139866983Y-134550000D01*
X140253378Y-134473141D01*
X140617355Y-134322377D01*
X140763564Y-134224683D01*
X146161152Y-134224683D01*
X146239831Y-134425000D01*
X147345000Y-134425000D01*
X147345000Y-133320031D01*
X147495000Y-133320031D01*
X147495000Y-134425000D01*
X148600169Y-134425000D01*
X148618625Y-134378009D01*
X148721400Y-134378009D01*
X148721400Y-134621991D01*
X148768999Y-134861286D01*
X148862367Y-135086697D01*
X148997917Y-135289561D01*
X149170439Y-135462083D01*
X149373303Y-135597633D01*
X149598714Y-135691001D01*
X149838009Y-135738600D01*
X150081991Y-135738600D01*
X150321286Y-135691001D01*
X150546697Y-135597633D01*
X150749561Y-135462083D01*
X150922083Y-135289561D01*
X151057633Y-135086697D01*
X151151001Y-134861286D01*
X151198600Y-134621991D01*
X151198600Y-134378009D01*
X151151001Y-134138714D01*
X151057633Y-133913303D01*
X150922083Y-133710439D01*
X150749561Y-133537917D01*
X150546697Y-133402367D01*
X150321286Y-133308999D01*
X150081991Y-133261400D01*
X149838009Y-133261400D01*
X149598714Y-133308999D01*
X149373303Y-133402367D01*
X149170439Y-133537917D01*
X148997917Y-133710439D01*
X148862367Y-133913303D01*
X148768999Y-134138714D01*
X148721400Y-134378009D01*
X148618625Y-134378009D01*
X148678848Y-134224683D01*
X148600948Y-133984384D01*
X148477665Y-133763900D01*
X148313736Y-133571704D01*
X148115462Y-133415182D01*
X147890461Y-133300349D01*
X147695316Y-133241155D01*
X147495000Y-133320031D01*
X147345000Y-133320031D01*
X147144684Y-133241155D01*
X146949539Y-133300349D01*
X146724538Y-133415182D01*
X146526264Y-133571704D01*
X146362335Y-133763900D01*
X146239052Y-133984384D01*
X146161152Y-134224683D01*
X140763564Y-134224683D01*
X140944926Y-134103501D01*
X141223501Y-133824926D01*
X141442377Y-133497355D01*
X141593141Y-133133378D01*
X141670000Y-132746983D01*
X141670000Y-132353017D01*
X141593141Y-131966622D01*
X141442377Y-131602645D01*
X141223501Y-131275074D01*
X140944926Y-130996499D01*
X140617355Y-130777623D01*
X140253378Y-130626859D01*
X139866983Y-130550000D01*
X139473017Y-130550000D01*
X139086622Y-130626859D01*
X138722645Y-130777623D01*
X138395074Y-130996499D01*
X138116499Y-131275074D01*
X137897623Y-131602645D01*
X137746859Y-131966622D01*
X137670000Y-132353017D01*
X134050000Y-132353017D01*
X133973141Y-131966622D01*
X133822377Y-131602645D01*
X133603501Y-131275074D01*
X133324926Y-130996499D01*
X132997355Y-130777623D01*
X132633378Y-130626859D01*
X132246983Y-130550000D01*
X131853017Y-130550000D01*
X131466622Y-130626859D01*
X131102645Y-130777623D01*
X130775074Y-130996499D01*
X130496499Y-131275074D01*
X130277623Y-131602645D01*
X130126859Y-131966622D01*
X130110000Y-132051378D01*
X130093141Y-131966622D01*
X129942377Y-131602645D01*
X129723501Y-131275074D01*
X129444926Y-130996499D01*
X129117355Y-130777623D01*
X128753378Y-130626859D01*
X128366983Y-130550000D01*
X127973017Y-130550000D01*
X127586622Y-130626859D01*
X127222645Y-130777623D01*
X126895074Y-130996499D01*
X126616499Y-131275074D01*
X126397623Y-131602645D01*
X126246859Y-131966622D01*
X126170000Y-132353017D01*
X122550000Y-132353017D01*
X122473141Y-131966622D01*
X122322377Y-131602645D01*
X122103501Y-131275074D01*
X121824926Y-130996499D01*
X121497355Y-130777623D01*
X121133378Y-130626859D01*
X120746983Y-130550000D01*
X120353017Y-130550000D01*
X119966622Y-130626859D01*
X119602645Y-130777623D01*
X119275074Y-130996499D01*
X118996499Y-131275074D01*
X118777623Y-131602645D01*
X118626859Y-131966622D01*
X118550000Y-132353017D01*
X100450000Y-132353017D01*
X100450000Y-123546529D01*
X101759537Y-123546529D01*
X101838499Y-123738074D01*
X102053728Y-123847180D01*
X102286107Y-123912201D01*
X102526705Y-123930637D01*
X102766277Y-123901781D01*
X102995617Y-123826741D01*
X103161501Y-123738074D01*
X103240463Y-123546529D01*
X102500000Y-122806066D01*
X101759537Y-123546529D01*
X100450000Y-123546529D01*
X100450000Y-122726705D01*
X101269363Y-122726705D01*
X101298219Y-122966277D01*
X101373259Y-123195617D01*
X101461926Y-123361501D01*
X101653471Y-123440463D01*
X102393934Y-122700000D01*
X102606066Y-122700000D01*
X103346529Y-123440463D01*
X103530835Y-123364485D01*
X103587318Y-123449019D01*
X103750981Y-123612682D01*
X103875001Y-123695549D01*
X103875000Y-124966490D01*
X103875001Y-124966500D01*
X103875001Y-125120594D01*
X103848693Y-125131491D01*
X103623489Y-125281968D01*
X103431968Y-125473489D01*
X103281491Y-125698693D01*
X103177841Y-125948927D01*
X103125000Y-126214574D01*
X103125000Y-126485426D01*
X103177841Y-126751073D01*
X103281491Y-127001307D01*
X103431968Y-127226511D01*
X103623489Y-127418032D01*
X103848693Y-127568509D01*
X104098927Y-127672159D01*
X104364574Y-127725000D01*
X104635426Y-127725000D01*
X104901073Y-127672159D01*
X105151307Y-127568509D01*
X105376511Y-127418032D01*
X105568032Y-127226511D01*
X105640718Y-127117728D01*
X121648338Y-127117728D01*
X121739334Y-127319508D01*
X121971586Y-127438592D01*
X122222608Y-127510077D01*
X122482753Y-127531217D01*
X122742023Y-127501199D01*
X122990455Y-127421177D01*
X123180666Y-127319508D01*
X123271662Y-127117728D01*
X122460000Y-126306066D01*
X121648338Y-127117728D01*
X105640718Y-127117728D01*
X105718509Y-127001307D01*
X105822159Y-126751073D01*
X105875000Y-126485426D01*
X105875000Y-126222753D01*
X121128783Y-126222753D01*
X121158801Y-126482023D01*
X121238823Y-126730455D01*
X121340492Y-126920666D01*
X121542272Y-127011662D01*
X122353934Y-126200000D01*
X122566066Y-126200000D01*
X123377728Y-127011662D01*
X123579508Y-126920666D01*
X123698592Y-126688414D01*
X123756633Y-126484603D01*
X123773998Y-126571904D01*
X123870110Y-126803939D01*
X124009643Y-127012765D01*
X124187235Y-127190357D01*
X124396061Y-127329890D01*
X124628096Y-127426002D01*
X124874423Y-127475000D01*
X125125577Y-127475000D01*
X125371904Y-127426002D01*
X125603939Y-127329890D01*
X125812765Y-127190357D01*
X125885394Y-127117728D01*
X133148338Y-127117728D01*
X133239334Y-127319508D01*
X133471586Y-127438592D01*
X133722608Y-127510077D01*
X133982753Y-127531217D01*
X134242023Y-127501199D01*
X134490455Y-127421177D01*
X134680666Y-127319508D01*
X134771662Y-127117728D01*
X133960000Y-126306066D01*
X133148338Y-127117728D01*
X125885394Y-127117728D01*
X125990357Y-127012765D01*
X126129890Y-126803939D01*
X126226002Y-126571904D01*
X126275000Y-126325577D01*
X126275000Y-126222753D01*
X132628783Y-126222753D01*
X132658801Y-126482023D01*
X132738823Y-126730455D01*
X132840492Y-126920666D01*
X133042272Y-127011662D01*
X133853934Y-126200000D01*
X133042272Y-125388338D01*
X132840492Y-125479334D01*
X132721408Y-125711586D01*
X132649923Y-125962608D01*
X132628783Y-126222753D01*
X126275000Y-126222753D01*
X126275000Y-126074423D01*
X126226002Y-125828096D01*
X126129890Y-125596061D01*
X125990357Y-125387235D01*
X125885394Y-125282272D01*
X133148338Y-125282272D01*
X133960000Y-126093934D01*
X134771662Y-125282272D01*
X134680666Y-125080492D01*
X134448414Y-124961408D01*
X134197392Y-124889923D01*
X133937247Y-124868783D01*
X133677977Y-124898801D01*
X133429545Y-124978823D01*
X133239334Y-125080492D01*
X133148338Y-125282272D01*
X125885394Y-125282272D01*
X125812765Y-125209643D01*
X125603939Y-125070110D01*
X125371904Y-124973998D01*
X125125577Y-124925000D01*
X124874423Y-124925000D01*
X124628096Y-124973998D01*
X124396061Y-125070110D01*
X124187235Y-125209643D01*
X124009643Y-125387235D01*
X123870110Y-125596061D01*
X123773998Y-125828096D01*
X123758059Y-125908228D01*
X123681177Y-125669545D01*
X123579508Y-125479334D01*
X123377728Y-125388338D01*
X122566066Y-126200000D01*
X122353934Y-126200000D01*
X121542272Y-125388338D01*
X121340492Y-125479334D01*
X121221408Y-125711586D01*
X121149923Y-125962608D01*
X121128783Y-126222753D01*
X105875000Y-126222753D01*
X105875000Y-126214574D01*
X105822159Y-125948927D01*
X105718509Y-125698693D01*
X105568032Y-125473489D01*
X105376815Y-125282272D01*
X121648338Y-125282272D01*
X122460000Y-126093934D01*
X123271662Y-125282272D01*
X123180666Y-125080492D01*
X122948414Y-124961408D01*
X122697392Y-124889923D01*
X122437247Y-124868783D01*
X122177977Y-124898801D01*
X121929545Y-124978823D01*
X121739334Y-125080492D01*
X121648338Y-125282272D01*
X105376815Y-125282272D01*
X105376511Y-125281968D01*
X105151307Y-125131491D01*
X105125000Y-125120594D01*
X105125000Y-123695548D01*
X105249019Y-123612682D01*
X105412682Y-123449019D01*
X105541271Y-123256571D01*
X105629845Y-123042735D01*
X105675000Y-122815727D01*
X105675000Y-122584273D01*
X105645901Y-122437981D01*
X112967708Y-115116174D01*
X119802600Y-115116174D01*
X119802600Y-115387026D01*
X119855441Y-115652673D01*
X119959091Y-115902907D01*
X120109568Y-116128111D01*
X120301089Y-116319632D01*
X120526293Y-116470109D01*
X120776527Y-116573759D01*
X121042174Y-116626600D01*
X121313026Y-116626600D01*
X121578673Y-116573759D01*
X121828907Y-116470109D01*
X122054111Y-116319632D01*
X122245632Y-116128111D01*
X122396109Y-115902907D01*
X122499759Y-115652673D01*
X122552600Y-115387026D01*
X122552600Y-115116174D01*
X122499759Y-114850527D01*
X122396109Y-114600293D01*
X122245632Y-114375089D01*
X122054111Y-114183568D01*
X121828907Y-114033091D01*
X121578673Y-113929441D01*
X121313026Y-113876600D01*
X121042174Y-113876600D01*
X120776527Y-113929441D01*
X120526293Y-114033091D01*
X120301089Y-114183568D01*
X120109568Y-114375089D01*
X119959091Y-114600293D01*
X119855441Y-114850527D01*
X119802600Y-115116174D01*
X112967708Y-115116174D01*
X116258883Y-111825000D01*
X118830413Y-111825000D01*
X118856584Y-111842487D01*
X118988525Y-111897139D01*
X119128594Y-111925000D01*
X119271406Y-111925000D01*
X119411475Y-111897139D01*
X119543416Y-111842487D01*
X119662161Y-111763144D01*
X119763144Y-111662161D01*
X119842487Y-111543416D01*
X119897139Y-111411475D01*
X119925000Y-111271406D01*
X119925000Y-111128594D01*
X119909800Y-111052174D01*
X139360600Y-111052174D01*
X139360600Y-111323026D01*
X139413441Y-111588673D01*
X139517091Y-111838907D01*
X139667568Y-112064111D01*
X139859089Y-112255632D01*
X140084293Y-112406109D01*
X140334527Y-112509759D01*
X140600174Y-112562600D01*
X140871026Y-112562600D01*
X141136673Y-112509759D01*
X141386907Y-112406109D01*
X141612111Y-112255632D01*
X141803632Y-112064111D01*
X141954109Y-111838907D01*
X142057759Y-111588673D01*
X142110600Y-111323026D01*
X142110600Y-111052174D01*
X142057759Y-110786527D01*
X141954109Y-110536293D01*
X141803632Y-110311089D01*
X141612111Y-110119568D01*
X141386907Y-109969091D01*
X141136673Y-109865441D01*
X140871026Y-109812600D01*
X140600174Y-109812600D01*
X140334527Y-109865441D01*
X140084293Y-109969091D01*
X139859089Y-110119568D01*
X139667568Y-110311089D01*
X139517091Y-110536293D01*
X139413441Y-110786527D01*
X139360600Y-111052174D01*
X119909800Y-111052174D01*
X119897139Y-110988525D01*
X119842487Y-110856584D01*
X119763144Y-110737839D01*
X119662161Y-110636856D01*
X119543416Y-110557513D01*
X119411475Y-110502861D01*
X119271406Y-110475000D01*
X119128594Y-110475000D01*
X118988525Y-110502861D01*
X118856584Y-110557513D01*
X118830413Y-110575000D01*
X116030694Y-110575000D01*
X116000000Y-110571977D01*
X115969306Y-110575000D01*
X115969296Y-110575000D01*
X115877479Y-110584043D01*
X115759666Y-110619781D01*
X115651089Y-110677817D01*
X115555920Y-110755920D01*
X115536346Y-110779771D01*
X104762019Y-121554099D01*
X104615727Y-121525000D01*
X104384273Y-121525000D01*
X104157265Y-121570155D01*
X103943429Y-121658729D01*
X103750981Y-121787318D01*
X103587318Y-121950981D01*
X103530835Y-122035515D01*
X103346529Y-121959537D01*
X102606066Y-122700000D01*
X102393934Y-122700000D01*
X101653471Y-121959537D01*
X101461926Y-122038499D01*
X101352820Y-122253728D01*
X101287799Y-122486107D01*
X101269363Y-122726705D01*
X100450000Y-122726705D01*
X100450000Y-121853471D01*
X101759537Y-121853471D01*
X102500000Y-122593934D01*
X103240463Y-121853471D01*
X103161501Y-121661926D01*
X102946272Y-121552820D01*
X102713893Y-121487799D01*
X102473295Y-121469363D01*
X102233723Y-121498219D01*
X102004383Y-121573259D01*
X101838499Y-121661926D01*
X101759537Y-121853471D01*
X100450000Y-121853471D01*
X100450000Y-109934574D01*
X106525000Y-109934574D01*
X106525000Y-110205426D01*
X106577841Y-110471073D01*
X106681491Y-110721307D01*
X106831968Y-110946511D01*
X107023489Y-111138032D01*
X107248693Y-111288509D01*
X107498927Y-111392159D01*
X107764574Y-111445000D01*
X108035426Y-111445000D01*
X108301073Y-111392159D01*
X108551307Y-111288509D01*
X108776511Y-111138032D01*
X108968032Y-110946511D01*
X109118509Y-110721307D01*
X109222159Y-110471073D01*
X109275000Y-110205426D01*
X109275000Y-109934574D01*
X109222159Y-109668927D01*
X109118509Y-109418693D01*
X108968032Y-109193489D01*
X108776511Y-109001968D01*
X108551307Y-108851491D01*
X108301073Y-108747841D01*
X108035426Y-108695000D01*
X107764574Y-108695000D01*
X107498927Y-108747841D01*
X107248693Y-108851491D01*
X107023489Y-109001968D01*
X106831968Y-109193489D01*
X106681491Y-109418693D01*
X106577841Y-109668927D01*
X106525000Y-109934574D01*
X100450000Y-109934574D01*
X100450000Y-99625000D01*
X112948224Y-99625000D01*
X123911612Y-110588388D01*
G37*
X123911612Y-110588388D02*
X123930554Y-110603934D01*
X123952165Y-110615485D01*
X123975614Y-110622598D01*
X124000000Y-110625000D01*
X137000000Y-110625000D01*
X137024386Y-110622598D01*
X137047835Y-110615485D01*
X137069446Y-110603934D01*
X137088388Y-110588388D01*
X140180602Y-107496174D01*
X140681400Y-107496174D01*
X140681400Y-107767026D01*
X140734241Y-108032673D01*
X140837891Y-108282907D01*
X140988368Y-108508111D01*
X141179889Y-108699632D01*
X141405093Y-108850109D01*
X141655327Y-108953759D01*
X141920974Y-109006600D01*
X142191826Y-109006600D01*
X142457473Y-108953759D01*
X142707707Y-108850109D01*
X142932911Y-108699632D01*
X143124432Y-108508111D01*
X143274909Y-108282907D01*
X143378559Y-108032673D01*
X143431400Y-107767026D01*
X143431400Y-107496174D01*
X143378559Y-107230527D01*
X143274909Y-106980293D01*
X143124432Y-106755089D01*
X142932911Y-106563568D01*
X142707707Y-106413091D01*
X142457473Y-106309441D01*
X142191826Y-106256600D01*
X141920974Y-106256600D01*
X141655327Y-106309441D01*
X141405093Y-106413091D01*
X141179889Y-106563568D01*
X140988368Y-106755089D01*
X140837891Y-106980293D01*
X140734241Y-107230527D01*
X140681400Y-107496174D01*
X140180602Y-107496174D01*
X148051776Y-99625000D01*
X153449885Y-99625000D01*
X153457513Y-99643416D01*
X153536856Y-99762161D01*
X153575000Y-99800305D01*
X153575000Y-100132366D01*
X153132367Y-100575000D01*
X148625779Y-100575000D01*
X148599999Y-100572461D01*
X148574219Y-100575000D01*
X148574212Y-100575000D01*
X148497082Y-100582597D01*
X148398119Y-100612617D01*
X148306914Y-100661367D01*
X148226973Y-100726973D01*
X148210534Y-100747004D01*
X147847005Y-101110534D01*
X147826974Y-101126973D01*
X147810535Y-101147004D01*
X147761367Y-101206915D01*
X147712617Y-101298120D01*
X147682597Y-101397083D01*
X147672461Y-101500000D01*
X147675001Y-101525790D01*
X147675000Y-106382538D01*
X141382539Y-112675000D01*
X139400315Y-112675000D01*
X139362171Y-112636856D01*
X139243426Y-112557513D01*
X139111485Y-112502861D01*
X138971416Y-112475000D01*
X138828604Y-112475000D01*
X138688535Y-112502861D01*
X138556594Y-112557513D01*
X138437849Y-112636856D01*
X138336866Y-112737839D01*
X138257523Y-112856584D01*
X138202871Y-112988525D01*
X138175010Y-113128594D01*
X138175010Y-113271406D01*
X138202871Y-113411475D01*
X138257523Y-113543416D01*
X138336866Y-113662161D01*
X138349705Y-113675000D01*
X133225779Y-113675000D01*
X133199999Y-113672461D01*
X133174219Y-113675000D01*
X133174212Y-113675000D01*
X133097082Y-113682597D01*
X132998119Y-113712617D01*
X132906914Y-113761367D01*
X132826973Y-113826973D01*
X132810534Y-113847004D01*
X132482538Y-114175000D01*
X132428594Y-114175000D01*
X132288525Y-114202861D01*
X132156584Y-114257513D01*
X132037839Y-114336856D01*
X131936856Y-114437839D01*
X131857513Y-114556584D01*
X131802861Y-114688525D01*
X131775000Y-114828594D01*
X131775000Y-114971406D01*
X131802861Y-115111475D01*
X131857513Y-115243416D01*
X131936856Y-115362161D01*
X132037839Y-115463144D01*
X132156584Y-115542487D01*
X132288525Y-115597139D01*
X132428594Y-115625000D01*
X132475005Y-115625000D01*
X132475005Y-115671401D01*
X132502866Y-115811470D01*
X132557518Y-115943411D01*
X132636861Y-116062156D01*
X132737844Y-116163139D01*
X132856589Y-116242482D01*
X132988530Y-116297134D01*
X133128599Y-116324995D01*
X133203246Y-116324995D01*
X131853250Y-117674992D01*
X131728594Y-117674992D01*
X131588525Y-117702853D01*
X131456584Y-117757505D01*
X131337839Y-117836848D01*
X131236856Y-117937831D01*
X131157513Y-118056576D01*
X131102861Y-118188517D01*
X131075000Y-118328586D01*
X131075000Y-118471398D01*
X131102861Y-118611467D01*
X131157513Y-118743408D01*
X131236856Y-118862153D01*
X131337839Y-118963136D01*
X131456584Y-119042479D01*
X131588525Y-119097131D01*
X131728594Y-119124992D01*
X131871406Y-119124992D01*
X132011475Y-119097131D01*
X132143416Y-119042479D01*
X132262161Y-118963136D01*
X132363144Y-118862153D01*
X132442487Y-118743408D01*
X132497139Y-118611467D01*
X132525000Y-118471398D01*
X132525000Y-118346742D01*
X135271721Y-115600022D01*
X139171299Y-115600022D01*
X139123489Y-115631968D01*
X138931968Y-115823489D01*
X138781491Y-116048693D01*
X138677841Y-116298927D01*
X138625000Y-116564574D01*
X138625000Y-116835426D01*
X138677841Y-117101073D01*
X138688738Y-117127380D01*
X137349772Y-118466346D01*
X137325921Y-118485920D01*
X137306348Y-118509770D01*
X137247818Y-118581089D01*
X137189782Y-118689666D01*
X137154044Y-118807479D01*
X137141977Y-118930000D01*
X137145001Y-118960704D01*
X137145000Y-122544182D01*
X136957235Y-122669643D01*
X136779643Y-122847235D01*
X136640110Y-123056061D01*
X136549803Y-123274080D01*
X136506481Y-123131264D01*
X136378802Y-122892394D01*
X136250036Y-122735492D01*
X133740036Y-120225493D01*
X133696976Y-120173024D01*
X133487605Y-120001198D01*
X133248736Y-119873519D01*
X132989547Y-119794895D01*
X132787549Y-119775000D01*
X132787539Y-119775000D01*
X132720000Y-119768348D01*
X132652461Y-119775000D01*
X125667538Y-119775000D01*
X125599999Y-119768348D01*
X125532460Y-119775000D01*
X125532451Y-119775000D01*
X125330453Y-119794895D01*
X125071264Y-119873519D01*
X124956566Y-119934827D01*
X124832394Y-120001198D01*
X124772929Y-120050000D01*
X124623024Y-120173024D01*
X124579963Y-120225494D01*
X122709964Y-122095493D01*
X122581198Y-122252395D01*
X122453519Y-122491265D01*
X122374896Y-122750454D01*
X122348348Y-123020000D01*
X122349825Y-123035000D01*
X116844553Y-123035000D01*
X116803416Y-123007513D01*
X116671475Y-122952861D01*
X116531406Y-122925000D01*
X116388594Y-122925000D01*
X116248525Y-122952861D01*
X116116584Y-123007513D01*
X115997839Y-123086856D01*
X115896856Y-123187839D01*
X115817513Y-123306584D01*
X115762861Y-123438525D01*
X115735000Y-123578594D01*
X115735000Y-123721406D01*
X115762861Y-123861475D01*
X115817513Y-123993416D01*
X115896856Y-124112161D01*
X115997839Y-124213144D01*
X116116584Y-124292487D01*
X116248525Y-124347139D01*
X116388594Y-124375000D01*
X116531406Y-124375000D01*
X116671475Y-124347139D01*
X116803416Y-124292487D01*
X116814621Y-124285000D01*
X122614183Y-124285000D01*
X122739643Y-124472765D01*
X122917235Y-124650357D01*
X123126061Y-124789890D01*
X123358096Y-124886002D01*
X123604423Y-124935000D01*
X123855577Y-124935000D01*
X124101904Y-124886002D01*
X124333939Y-124789890D01*
X124542765Y-124650357D01*
X124720357Y-124472765D01*
X124859890Y-124263939D01*
X124956002Y-124031904D01*
X125000000Y-123810713D01*
X125043998Y-124031904D01*
X125140110Y-124263939D01*
X125279643Y-124472765D01*
X125457235Y-124650357D01*
X125666061Y-124789890D01*
X125898096Y-124886002D01*
X126144423Y-124935000D01*
X126395577Y-124935000D01*
X126641904Y-124886002D01*
X126873939Y-124789890D01*
X127082765Y-124650357D01*
X127260357Y-124472765D01*
X127399890Y-124263939D01*
X127496002Y-124031904D01*
X127545000Y-123785577D01*
X127545000Y-123534423D01*
X127496002Y-123288096D01*
X127399890Y-123056061D01*
X127260357Y-122847235D01*
X127082765Y-122669643D01*
X126873939Y-122530110D01*
X126861602Y-122525000D01*
X132150457Y-122525000D01*
X134305492Y-124680036D01*
X134462394Y-124808802D01*
X134701264Y-124936481D01*
X134960452Y-125015104D01*
X135229999Y-125041652D01*
X135499546Y-125015104D01*
X135758735Y-124936481D01*
X135997605Y-124808802D01*
X136206976Y-124636976D01*
X136378802Y-124427605D01*
X136506481Y-124188735D01*
X136549803Y-124045919D01*
X136640110Y-124263939D01*
X136779643Y-124472765D01*
X136957235Y-124650357D01*
X137166061Y-124789890D01*
X137398096Y-124886002D01*
X137644423Y-124935000D01*
X137681117Y-124935000D01*
X137359620Y-125256498D01*
X137312765Y-125209643D01*
X137103939Y-125070110D01*
X136871904Y-124973998D01*
X136625577Y-124925000D01*
X136374423Y-124925000D01*
X136128096Y-124973998D01*
X135896061Y-125070110D01*
X135687235Y-125209643D01*
X135509643Y-125387235D01*
X135370110Y-125596061D01*
X135273998Y-125828096D01*
X135258059Y-125908228D01*
X135181177Y-125669545D01*
X135079508Y-125479334D01*
X134877728Y-125388338D01*
X134066066Y-126200000D01*
X134877728Y-127011662D01*
X135079508Y-126920666D01*
X135198592Y-126688414D01*
X135256633Y-126484603D01*
X135273998Y-126571904D01*
X135370110Y-126803939D01*
X135509643Y-127012765D01*
X135687235Y-127190357D01*
X135896061Y-127329890D01*
X136128096Y-127426002D01*
X136374423Y-127475000D01*
X136625577Y-127475000D01*
X136871904Y-127426002D01*
X137103939Y-127329890D01*
X137312765Y-127190357D01*
X137490357Y-127012765D01*
X137629890Y-126803939D01*
X137671399Y-126703728D01*
X137744080Y-126644080D01*
X137763658Y-126620224D01*
X140420236Y-123963648D01*
X140444080Y-123944080D01*
X140463649Y-123920235D01*
X140463653Y-123920231D01*
X140522183Y-123848912D01*
X140557670Y-123782520D01*
X140580219Y-123740334D01*
X140615957Y-123622521D01*
X140625000Y-123530704D01*
X140625000Y-123530702D01*
X140628024Y-123500000D01*
X140625000Y-123469298D01*
X140625000Y-122928594D01*
X145075000Y-122928594D01*
X145075000Y-123071406D01*
X145102861Y-123211475D01*
X145157513Y-123343416D01*
X145236856Y-123462161D01*
X145337839Y-123563144D01*
X145456584Y-123642487D01*
X145588525Y-123697139D01*
X145728594Y-123725000D01*
X145871406Y-123725000D01*
X146011475Y-123697139D01*
X146143416Y-123642487D01*
X146262161Y-123563144D01*
X146363144Y-123462161D01*
X146442487Y-123343416D01*
X146497139Y-123211475D01*
X146525000Y-123071406D01*
X146525000Y-122946750D01*
X147425000Y-122046751D01*
X147425000Y-122703249D01*
X145953250Y-124175000D01*
X145828594Y-124175000D01*
X145688525Y-124202861D01*
X145556584Y-124257513D01*
X145437839Y-124336856D01*
X145336856Y-124437839D01*
X145257513Y-124556584D01*
X145202861Y-124688525D01*
X145175000Y-124828594D01*
X145175000Y-124971406D01*
X145202861Y-125111475D01*
X145257513Y-125243416D01*
X145336856Y-125362161D01*
X145437839Y-125463144D01*
X145556584Y-125542487D01*
X145688525Y-125597139D01*
X145828594Y-125625000D01*
X145971406Y-125625000D01*
X146111475Y-125597139D01*
X146144995Y-125583255D01*
X145853249Y-125875001D01*
X145728594Y-125875001D01*
X145588525Y-125902862D01*
X145456584Y-125957514D01*
X145337839Y-126036857D01*
X145236856Y-126137840D01*
X145157513Y-126256585D01*
X145102861Y-126388526D01*
X145075000Y-126528595D01*
X145075000Y-126671407D01*
X145102861Y-126811476D01*
X145157513Y-126943417D01*
X145236856Y-127062162D01*
X145337839Y-127163145D01*
X145456584Y-127242488D01*
X145588525Y-127297140D01*
X145728594Y-127325001D01*
X145871406Y-127325001D01*
X146011475Y-127297140D01*
X146143416Y-127242488D01*
X146262161Y-127163145D01*
X146363144Y-127062162D01*
X146442487Y-126943417D01*
X146497139Y-126811476D01*
X146525000Y-126671407D01*
X146525000Y-126546751D01*
X148619399Y-124452353D01*
X148637523Y-124437479D01*
X148696881Y-124365151D01*
X148740988Y-124282632D01*
X148768149Y-124193094D01*
X148775022Y-124123310D01*
X148775022Y-124123309D01*
X148777320Y-124099978D01*
X148775022Y-124076646D01*
X148775022Y-112945733D01*
X152590599Y-109130158D01*
X152715253Y-109130158D01*
X152855322Y-109102297D01*
X152987263Y-109047645D01*
X153106008Y-108968302D01*
X153206991Y-108867319D01*
X153286334Y-108748574D01*
X153340986Y-108616633D01*
X153368847Y-108476564D01*
X153368847Y-108333752D01*
X153340986Y-108193683D01*
X153286334Y-108061742D01*
X153206991Y-107942997D01*
X153106008Y-107842014D01*
X152987263Y-107762671D01*
X152855322Y-107708019D01*
X152715253Y-107680158D01*
X152572441Y-107680158D01*
X152570785Y-107680487D01*
X152594355Y-107623584D01*
X152622216Y-107483515D01*
X152622216Y-107340703D01*
X152594355Y-107200634D01*
X152539703Y-107068693D01*
X152460360Y-106949948D01*
X152359377Y-106848965D01*
X152240632Y-106769622D01*
X152108691Y-106714970D01*
X151968622Y-106687109D01*
X151825810Y-106687109D01*
X151685741Y-106714970D01*
X151553800Y-106769622D01*
X151435055Y-106848965D01*
X151334072Y-106949948D01*
X151254729Y-107068693D01*
X151200077Y-107200634D01*
X151193240Y-107235008D01*
X147180618Y-111247632D01*
X147162489Y-111262510D01*
X147103131Y-111334838D01*
X147064782Y-111406584D01*
X147059024Y-111417357D01*
X147031862Y-111506895D01*
X147022691Y-111600011D01*
X147024990Y-111623353D01*
X147024989Y-121103260D01*
X145853250Y-122275000D01*
X145728594Y-122275000D01*
X145588525Y-122302861D01*
X145456584Y-122357513D01*
X145337839Y-122436856D01*
X145236856Y-122537839D01*
X145157513Y-122656584D01*
X145102861Y-122788525D01*
X145075000Y-122928594D01*
X140625000Y-122928594D01*
X140625000Y-121662606D01*
X140651307Y-121651709D01*
X140876511Y-121501232D01*
X141068032Y-121309711D01*
X141218509Y-121084507D01*
X141322159Y-120834273D01*
X141375000Y-120568626D01*
X141375000Y-120297774D01*
X141322159Y-120032127D01*
X141218509Y-119781893D01*
X141068032Y-119556689D01*
X140876511Y-119365168D01*
X140651307Y-119214691D01*
X140401073Y-119111041D01*
X140135426Y-119058200D01*
X139864574Y-119058200D01*
X139598927Y-119111041D01*
X139348693Y-119214691D01*
X139123489Y-119365168D01*
X138931968Y-119556689D01*
X138781491Y-119781893D01*
X138677841Y-120032127D01*
X138625000Y-120297774D01*
X138625000Y-120568626D01*
X138677841Y-120834273D01*
X138781491Y-121084507D01*
X138931968Y-121309711D01*
X139123489Y-121501232D01*
X139348693Y-121651709D01*
X139375001Y-121662606D01*
X139375000Y-123241116D01*
X139045000Y-123571116D01*
X139045000Y-123534423D01*
X138996002Y-123288096D01*
X138899890Y-123056061D01*
X138760357Y-122847235D01*
X138582765Y-122669643D01*
X138395000Y-122544183D01*
X138395000Y-119188882D01*
X139572620Y-118011262D01*
X139598927Y-118022159D01*
X139864574Y-118075000D01*
X140135426Y-118075000D01*
X140401073Y-118022159D01*
X140651307Y-117918509D01*
X140876511Y-117768032D01*
X141068032Y-117576511D01*
X141218509Y-117351307D01*
X141322159Y-117101073D01*
X141375000Y-116835426D01*
X141375000Y-116564574D01*
X141322159Y-116298927D01*
X141218509Y-116048693D01*
X141068032Y-115823489D01*
X140876511Y-115631968D01*
X140828701Y-115600022D01*
X142151646Y-115600022D01*
X142174978Y-115602320D01*
X142198310Y-115600022D01*
X142268094Y-115593149D01*
X142357632Y-115565988D01*
X142440151Y-115521881D01*
X142512479Y-115462523D01*
X142527362Y-115444388D01*
X151696752Y-106275000D01*
X154267233Y-106275000D01*
X154316287Y-106393426D01*
X154395630Y-106512171D01*
X154496613Y-106613154D01*
X154615358Y-106692497D01*
X154747299Y-106747149D01*
X154887368Y-106775010D01*
X155030180Y-106775010D01*
X155170249Y-106747149D01*
X155302190Y-106692497D01*
X155420935Y-106613154D01*
X155521918Y-106512171D01*
X155601261Y-106393426D01*
X155654388Y-106265167D01*
X155665057Y-106267289D01*
X155807869Y-106267289D01*
X155947938Y-106239428D01*
X156079879Y-106184776D01*
X156198624Y-106105433D01*
X156299607Y-106004450D01*
X156378950Y-105885705D01*
X156433602Y-105753764D01*
X156461463Y-105613695D01*
X156461463Y-105470883D01*
X156433602Y-105330814D01*
X156378950Y-105198873D01*
X156299607Y-105080128D01*
X156198624Y-104979145D01*
X156079879Y-104899802D01*
X155947938Y-104845150D01*
X155807869Y-104817289D01*
X155665057Y-104817289D01*
X155524988Y-104845150D01*
X155393047Y-104899802D01*
X155355336Y-104925000D01*
X151348333Y-104925000D01*
X151325001Y-104922702D01*
X151231885Y-104931873D01*
X151204724Y-104940112D01*
X151142348Y-104959034D01*
X151059829Y-105003141D01*
X150987501Y-105062499D01*
X150972623Y-105080628D01*
X149325000Y-106728251D01*
X149325000Y-102462900D01*
X149362161Y-102438070D01*
X149400305Y-102399926D01*
X152055527Y-102399926D01*
X151974572Y-102480881D01*
X151895229Y-102599626D01*
X151840577Y-102731567D01*
X151812716Y-102871636D01*
X151812716Y-103014448D01*
X151840577Y-103154517D01*
X151895229Y-103286458D01*
X151974572Y-103405203D01*
X152075555Y-103506186D01*
X152194300Y-103585529D01*
X152326241Y-103640181D01*
X152466310Y-103668042D01*
X152609122Y-103668042D01*
X152749191Y-103640181D01*
X152881132Y-103585529D01*
X152999877Y-103506186D01*
X153088021Y-103418042D01*
X154302767Y-103418042D01*
X154252861Y-103538525D01*
X154225000Y-103678594D01*
X154225000Y-103821406D01*
X154252861Y-103961475D01*
X154307513Y-104093416D01*
X154386856Y-104212161D01*
X154487839Y-104313144D01*
X154606584Y-104392487D01*
X154738525Y-104447139D01*
X154878594Y-104475000D01*
X155021406Y-104475000D01*
X155161475Y-104447139D01*
X155293416Y-104392487D01*
X155412161Y-104313144D01*
X155450317Y-104274988D01*
X155603238Y-104274988D01*
X157675000Y-106346752D01*
X157675001Y-110013529D01*
X157605475Y-110059985D01*
X157504492Y-110160968D01*
X157425149Y-110279713D01*
X157370497Y-110411654D01*
X157342636Y-110551723D01*
X157342636Y-110694535D01*
X157370497Y-110834604D01*
X157425149Y-110966545D01*
X157504492Y-111085290D01*
X157605475Y-111186273D01*
X157724220Y-111265616D01*
X157856161Y-111320268D01*
X157996230Y-111348129D01*
X158139042Y-111348129D01*
X158279111Y-111320268D01*
X158411052Y-111265616D01*
X158529797Y-111186273D01*
X158630780Y-111085290D01*
X158710123Y-110966545D01*
X158764775Y-110834604D01*
X158766685Y-110825000D01*
X158871406Y-110825000D01*
X159011475Y-110797139D01*
X159125001Y-110750115D01*
X159125001Y-111229229D01*
X159125000Y-111229239D01*
X159125000Y-111249695D01*
X159086856Y-111287839D01*
X159007513Y-111406584D01*
X158979174Y-111475000D01*
X151925315Y-111475000D01*
X151887171Y-111436856D01*
X151768426Y-111357513D01*
X151636485Y-111302861D01*
X151496416Y-111275000D01*
X151353604Y-111275000D01*
X151213535Y-111302861D01*
X151081594Y-111357513D01*
X150962849Y-111436856D01*
X150861866Y-111537839D01*
X150782523Y-111656584D01*
X150727871Y-111788525D01*
X150700010Y-111928594D01*
X150700010Y-112071406D01*
X150727871Y-112211475D01*
X150782523Y-112343416D01*
X150861866Y-112462161D01*
X150962849Y-112563144D01*
X151081594Y-112642487D01*
X151213535Y-112697139D01*
X151353604Y-112725000D01*
X151496416Y-112725000D01*
X151636485Y-112697139D01*
X151768426Y-112642487D01*
X151887171Y-112563144D01*
X151925315Y-112525000D01*
X155103249Y-112525000D01*
X155005063Y-112623186D01*
X153850000Y-112623186D01*
X153776487Y-112630426D01*
X153705800Y-112651869D01*
X153640653Y-112686691D01*
X153583552Y-112733552D01*
X153536691Y-112790653D01*
X153501869Y-112855800D01*
X153480426Y-112926487D01*
X153473186Y-113000000D01*
X153473186Y-114000000D01*
X153480503Y-114073899D01*
X153502020Y-114144565D01*
X153504951Y-114150034D01*
X153501869Y-114155800D01*
X153480426Y-114226487D01*
X153473186Y-114300000D01*
X153473186Y-115955063D01*
X153130634Y-116297616D01*
X153112499Y-116312499D01*
X153053141Y-116384827D01*
X153009034Y-116467347D01*
X153007284Y-116473117D01*
X152981873Y-116556884D01*
X152972702Y-116650000D01*
X152975000Y-116673333D01*
X152975001Y-118476658D01*
X152972702Y-118500000D01*
X152981873Y-118593116D01*
X153003729Y-118665164D01*
X153009035Y-118682654D01*
X153053142Y-118765173D01*
X153112500Y-118837501D01*
X153130629Y-118852379D01*
X154275000Y-119996751D01*
X154275000Y-120121406D01*
X154302861Y-120261475D01*
X154357513Y-120393416D01*
X154436856Y-120512161D01*
X154537839Y-120613144D01*
X154656584Y-120692487D01*
X154788525Y-120747139D01*
X154928594Y-120775000D01*
X155071406Y-120775000D01*
X155211475Y-120747139D01*
X155343416Y-120692487D01*
X155462161Y-120613144D01*
X155563144Y-120512161D01*
X155642487Y-120393416D01*
X155697139Y-120261475D01*
X155725000Y-120121406D01*
X155725000Y-119978594D01*
X155697139Y-119838525D01*
X155642487Y-119706584D01*
X155563144Y-119587839D01*
X155462161Y-119486856D01*
X155343416Y-119407513D01*
X155211475Y-119352861D01*
X155071406Y-119325000D01*
X154946751Y-119325000D01*
X153998564Y-118376814D01*
X155005064Y-118376814D01*
X157147625Y-120519377D01*
X157162499Y-120537501D01*
X157180621Y-120552373D01*
X157180622Y-120552374D01*
X157234827Y-120596859D01*
X157317346Y-120640966D01*
X157406884Y-120668127D01*
X157500000Y-120677298D01*
X157523332Y-120675000D01*
X163034869Y-120675000D01*
X162902367Y-120873303D01*
X162808999Y-121098714D01*
X162761400Y-121338009D01*
X162761400Y-121581991D01*
X162808999Y-121821286D01*
X162902367Y-122046697D01*
X163037917Y-122249561D01*
X163210439Y-122422083D01*
X163413303Y-122557633D01*
X163638714Y-122651001D01*
X163878009Y-122698600D01*
X164058938Y-122698600D01*
X153547010Y-133210529D01*
X153526973Y-133226973D01*
X153482874Y-133280708D01*
X153437113Y-133266826D01*
X153363600Y-133259586D01*
X151636400Y-133259586D01*
X151562887Y-133266826D01*
X151492200Y-133288269D01*
X151427053Y-133323091D01*
X151369952Y-133369952D01*
X151323091Y-133427053D01*
X151288269Y-133492200D01*
X151266826Y-133562887D01*
X151259586Y-133636400D01*
X151259586Y-135363600D01*
X151266826Y-135437113D01*
X151288269Y-135507800D01*
X151323091Y-135572947D01*
X151369952Y-135630048D01*
X151427053Y-135676909D01*
X151492200Y-135711731D01*
X151562887Y-135733174D01*
X151636400Y-135740414D01*
X152917124Y-135740414D01*
X152817291Y-135840248D01*
X152621991Y-135801400D01*
X152378009Y-135801400D01*
X152138714Y-135848999D01*
X151913303Y-135942367D01*
X151710439Y-136077917D01*
X151537917Y-136250439D01*
X151402367Y-136453303D01*
X151308999Y-136678714D01*
X151261400Y-136918009D01*
X151261400Y-137161991D01*
X151308999Y-137401286D01*
X151402367Y-137626697D01*
X151537917Y-137829561D01*
X151710439Y-138002083D01*
X151744737Y-138025000D01*
X150996751Y-138025000D01*
X150861697Y-137889947D01*
X150922083Y-137829561D01*
X151057633Y-137626697D01*
X151151001Y-137401286D01*
X151198600Y-137161991D01*
X151198600Y-136918009D01*
X151151001Y-136678714D01*
X151057633Y-136453303D01*
X150922083Y-136250439D01*
X150749561Y-136077917D01*
X150546697Y-135942367D01*
X150321286Y-135848999D01*
X150081991Y-135801400D01*
X149838009Y-135801400D01*
X149598714Y-135848999D01*
X149373303Y-135942367D01*
X149170439Y-136077917D01*
X148997917Y-136250439D01*
X148862367Y-136453303D01*
X148768999Y-136678714D01*
X148721400Y-136918009D01*
X148721400Y-137161991D01*
X148768999Y-137401286D01*
X148862367Y-137626697D01*
X148997917Y-137829561D01*
X149170439Y-138002083D01*
X149373303Y-138137633D01*
X149598714Y-138231001D01*
X149838009Y-138278600D01*
X149906850Y-138278600D01*
X150447620Y-138819371D01*
X150462499Y-138837501D01*
X150534827Y-138896859D01*
X150617346Y-138940966D01*
X150679722Y-138959888D01*
X150706883Y-138968127D01*
X150799999Y-138977298D01*
X150823331Y-138975000D01*
X158508462Y-138975000D01*
X158581491Y-139151307D01*
X158731968Y-139376511D01*
X158923489Y-139568032D01*
X159148693Y-139718509D01*
X159398927Y-139822159D01*
X159664574Y-139875000D01*
X159935426Y-139875000D01*
X160201073Y-139822159D01*
X160451307Y-139718509D01*
X160676511Y-139568032D01*
X160868032Y-139376511D01*
X161018509Y-139151307D01*
X161122159Y-138901073D01*
X161175000Y-138635426D01*
X161175000Y-138364574D01*
X161122159Y-138098927D01*
X161018509Y-137848693D01*
X160868032Y-137623489D01*
X160676511Y-137431968D01*
X160451307Y-137281491D01*
X160201073Y-137177841D01*
X159935426Y-137125000D01*
X159664574Y-137125000D01*
X159398927Y-137177841D01*
X159148693Y-137281491D01*
X158923489Y-137431968D01*
X158731968Y-137623489D01*
X158581491Y-137848693D01*
X158508462Y-138025000D01*
X153255263Y-138025000D01*
X153289561Y-138002083D01*
X153462083Y-137829561D01*
X153597633Y-137626697D01*
X153691001Y-137401286D01*
X153738600Y-137161991D01*
X153738600Y-136918009D01*
X153691001Y-136678714D01*
X153624440Y-136518021D01*
X154252996Y-135889466D01*
X154273027Y-135873027D01*
X154338633Y-135793086D01*
X154387383Y-135701881D01*
X154417403Y-135602918D01*
X154425000Y-135525788D01*
X154425000Y-135525780D01*
X154427539Y-135500000D01*
X154425000Y-135474220D01*
X154425000Y-134964574D01*
X158425000Y-134964574D01*
X158425000Y-135235426D01*
X158477841Y-135501073D01*
X158581491Y-135751307D01*
X158731968Y-135976511D01*
X158923489Y-136168032D01*
X159148693Y-136318509D01*
X159398927Y-136422159D01*
X159664574Y-136475000D01*
X159935426Y-136475000D01*
X160201073Y-136422159D01*
X160451307Y-136318509D01*
X160676511Y-136168032D01*
X160868032Y-135976511D01*
X161018509Y-135751307D01*
X161122159Y-135501073D01*
X161161065Y-135305479D01*
X163025000Y-135305479D01*
X163025000Y-135694521D01*
X163100898Y-136076086D01*
X163249778Y-136435513D01*
X163465917Y-136758989D01*
X163741011Y-137034083D01*
X164064487Y-137250222D01*
X164423914Y-137399102D01*
X164805479Y-137475000D01*
X165194521Y-137475000D01*
X165576086Y-137399102D01*
X165935513Y-137250222D01*
X166258989Y-137034083D01*
X166534083Y-136758989D01*
X166750222Y-136435513D01*
X166899102Y-136076086D01*
X166975000Y-135694521D01*
X166975000Y-135305479D01*
X166899102Y-134923914D01*
X166750222Y-134564487D01*
X166534083Y-134241011D01*
X166258989Y-133965917D01*
X165935513Y-133749778D01*
X165576086Y-133600898D01*
X165194521Y-133525000D01*
X164805479Y-133525000D01*
X164423914Y-133600898D01*
X164064487Y-133749778D01*
X163741011Y-133965917D01*
X163465917Y-134241011D01*
X163249778Y-134564487D01*
X163100898Y-134923914D01*
X163025000Y-135305479D01*
X161161065Y-135305479D01*
X161175000Y-135235426D01*
X161175000Y-134964574D01*
X161122159Y-134698927D01*
X161018509Y-134448693D01*
X160868032Y-134223489D01*
X160676511Y-134031968D01*
X160451307Y-133881491D01*
X160201073Y-133777841D01*
X159935426Y-133725000D01*
X159664574Y-133725000D01*
X159398927Y-133777841D01*
X159148693Y-133881491D01*
X158923489Y-134031968D01*
X158731968Y-134223489D01*
X158581491Y-134448693D01*
X158477841Y-134698927D01*
X158425000Y-134964574D01*
X154425000Y-134964574D01*
X154425000Y-133817461D01*
X156677887Y-131564574D01*
X158425000Y-131564574D01*
X158425000Y-131835426D01*
X158477841Y-132101073D01*
X158581491Y-132351307D01*
X158731968Y-132576511D01*
X158923489Y-132768032D01*
X159148693Y-132918509D01*
X159398927Y-133022159D01*
X159664574Y-133075000D01*
X159935426Y-133075000D01*
X160201073Y-133022159D01*
X160451307Y-132918509D01*
X160676511Y-132768032D01*
X160868032Y-132576511D01*
X161018509Y-132351307D01*
X161122159Y-132101073D01*
X161175000Y-131835426D01*
X161175000Y-131564574D01*
X161122159Y-131298927D01*
X161018509Y-131048693D01*
X160868032Y-130823489D01*
X160676511Y-130631968D01*
X160451307Y-130481491D01*
X160201073Y-130377841D01*
X159935426Y-130325000D01*
X159664574Y-130325000D01*
X159398927Y-130377841D01*
X159148693Y-130481491D01*
X158923489Y-130631968D01*
X158731968Y-130823489D01*
X158581491Y-131048693D01*
X158477841Y-131298927D01*
X158425000Y-131564574D01*
X156677887Y-131564574D01*
X159563113Y-128679348D01*
X162335000Y-128679348D01*
X162335000Y-128920652D01*
X162382076Y-129157319D01*
X162474419Y-129380255D01*
X162608481Y-129580892D01*
X162779108Y-129751519D01*
X162979745Y-129885581D01*
X163202681Y-129977924D01*
X163439348Y-130025000D01*
X163680652Y-130025000D01*
X163917319Y-129977924D01*
X164140255Y-129885581D01*
X164340892Y-129751519D01*
X164511519Y-129580892D01*
X164645581Y-129380255D01*
X164737924Y-129157319D01*
X164785000Y-128920652D01*
X164785000Y-128679348D01*
X164737924Y-128442681D01*
X164645581Y-128219745D01*
X164511519Y-128019108D01*
X164340892Y-127848481D01*
X164140255Y-127714419D01*
X163917319Y-127622076D01*
X163680652Y-127575000D01*
X163439348Y-127575000D01*
X163202681Y-127622076D01*
X162979745Y-127714419D01*
X162779108Y-127848481D01*
X162608481Y-128019108D01*
X162474419Y-128219745D01*
X162382076Y-128442681D01*
X162335000Y-128679348D01*
X159563113Y-128679348D01*
X165792365Y-122450097D01*
X165953303Y-122557633D01*
X166178714Y-122651001D01*
X166418009Y-122698600D01*
X166661991Y-122698600D01*
X166901286Y-122651001D01*
X167126697Y-122557633D01*
X167329561Y-122422083D01*
X167502083Y-122249561D01*
X167637633Y-122046697D01*
X167731001Y-121821286D01*
X167778600Y-121581991D01*
X167778600Y-121338009D01*
X167731001Y-121098714D01*
X167637633Y-120873303D01*
X167502083Y-120670439D01*
X167399957Y-120568313D01*
X167437501Y-120537501D01*
X167452384Y-120519366D01*
X167825010Y-120146740D01*
X167825010Y-126403239D01*
X166655064Y-127573186D01*
X165250000Y-127573186D01*
X165176487Y-127580426D01*
X165105800Y-127601869D01*
X165040653Y-127636691D01*
X164983552Y-127683552D01*
X164936691Y-127740653D01*
X164901869Y-127805800D01*
X164880426Y-127876487D01*
X164873186Y-127950000D01*
X164873186Y-129650000D01*
X164880426Y-129723513D01*
X164901869Y-129794200D01*
X164936691Y-129859347D01*
X164983552Y-129916448D01*
X165040653Y-129963309D01*
X165105800Y-129998131D01*
X165176487Y-130019574D01*
X165250000Y-130026814D01*
X166950000Y-130026814D01*
X167023513Y-130019574D01*
X167094200Y-129998131D01*
X167159347Y-129963309D01*
X167216448Y-129916448D01*
X167263309Y-129859347D01*
X167298131Y-129794200D01*
X167319574Y-129723513D01*
X167326814Y-129650000D01*
X167326814Y-128244936D01*
X168619382Y-126952369D01*
X168637511Y-126937491D01*
X168696869Y-126865163D01*
X168740976Y-126782644D01*
X168766376Y-126698911D01*
X168768137Y-126693107D01*
X168777308Y-126599990D01*
X168775010Y-126576658D01*
X168775010Y-110523342D01*
X168777308Y-110500010D01*
X168768137Y-110406893D01*
X168755481Y-110365172D01*
X168740976Y-110317356D01*
X168696869Y-110234837D01*
X168637511Y-110162509D01*
X168619381Y-110147630D01*
X167852384Y-109380634D01*
X167837501Y-109362499D01*
X167765173Y-109303141D01*
X167682654Y-109259034D01*
X167593116Y-109231873D01*
X167523332Y-109225000D01*
X167500000Y-109222702D01*
X167476668Y-109225000D01*
X165623332Y-109225000D01*
X165600000Y-109222702D01*
X165576668Y-109225000D01*
X165506884Y-109231873D01*
X165417346Y-109259034D01*
X165334827Y-109303141D01*
X165262499Y-109362499D01*
X165247625Y-109380623D01*
X164568663Y-110059586D01*
X163136400Y-110059586D01*
X163062887Y-110066826D01*
X162992200Y-110088269D01*
X162927053Y-110123091D01*
X162869952Y-110169952D01*
X162823091Y-110227053D01*
X162788269Y-110292200D01*
X162766826Y-110362887D01*
X162759586Y-110436400D01*
X162759586Y-112125000D01*
X160271383Y-112125000D01*
X160292487Y-112093416D01*
X160347139Y-111961475D01*
X160375000Y-111821406D01*
X160375000Y-111678594D01*
X160347139Y-111538525D01*
X160292487Y-111406584D01*
X160213144Y-111287839D01*
X160175000Y-111249695D01*
X160175000Y-104675779D01*
X160177539Y-104649999D01*
X160175000Y-104624219D01*
X160175000Y-104624212D01*
X160167403Y-104547082D01*
X160137383Y-104448119D01*
X160088633Y-104356914D01*
X160023027Y-104276973D01*
X160002996Y-104260534D01*
X157625000Y-101882539D01*
X157625000Y-101828594D01*
X157597139Y-101688525D01*
X157542487Y-101556584D01*
X157463144Y-101437839D01*
X157362161Y-101336856D01*
X157243416Y-101257513D01*
X157111475Y-101202861D01*
X156971406Y-101175000D01*
X156828594Y-101175000D01*
X156688525Y-101202861D01*
X156556584Y-101257513D01*
X156437839Y-101336856D01*
X156424769Y-101349926D01*
X153842363Y-101349926D01*
X154452995Y-100739294D01*
X154473027Y-100722855D01*
X154538633Y-100642914D01*
X154587383Y-100551709D01*
X154617403Y-100452746D01*
X154625000Y-100375616D01*
X154625000Y-100375609D01*
X154627539Y-100349829D01*
X154625000Y-100324049D01*
X154625000Y-99800305D01*
X154663144Y-99762161D01*
X154742487Y-99643416D01*
X154750115Y-99625000D01*
X169550001Y-99625000D01*
X169550000Y-140050000D01*
X100450000Y-140050000D01*
X100450000Y-135305479D01*
X103025000Y-135305479D01*
X103025000Y-135694521D01*
X103100898Y-136076086D01*
X103249778Y-136435513D01*
X103465917Y-136758989D01*
X103741011Y-137034083D01*
X104064487Y-137250222D01*
X104423914Y-137399102D01*
X104805479Y-137475000D01*
X105194521Y-137475000D01*
X105576086Y-137399102D01*
X105935513Y-137250222D01*
X106258989Y-137034083D01*
X106375063Y-136918009D01*
X146181400Y-136918009D01*
X146181400Y-137161991D01*
X146228999Y-137401286D01*
X146322367Y-137626697D01*
X146457917Y-137829561D01*
X146630439Y-138002083D01*
X146833303Y-138137633D01*
X147058714Y-138231001D01*
X147298009Y-138278600D01*
X147541991Y-138278600D01*
X147781286Y-138231001D01*
X148006697Y-138137633D01*
X148209561Y-138002083D01*
X148382083Y-137829561D01*
X148517633Y-137626697D01*
X148611001Y-137401286D01*
X148658600Y-137161991D01*
X148658600Y-136918009D01*
X148611001Y-136678714D01*
X148517633Y-136453303D01*
X148382083Y-136250439D01*
X148209561Y-136077917D01*
X148006697Y-135942367D01*
X147781286Y-135848999D01*
X147541991Y-135801400D01*
X147298009Y-135801400D01*
X147058714Y-135848999D01*
X146833303Y-135942367D01*
X146630439Y-136077917D01*
X146457917Y-136250439D01*
X146322367Y-136453303D01*
X146228999Y-136678714D01*
X146181400Y-136918009D01*
X106375063Y-136918009D01*
X106534083Y-136758989D01*
X106750222Y-136435513D01*
X106899102Y-136076086D01*
X106936334Y-135888904D01*
X113177162Y-135888904D01*
X113280185Y-136100921D01*
X113529456Y-136229980D01*
X113799117Y-136307929D01*
X114078803Y-136331771D01*
X114357767Y-136300592D01*
X114625287Y-136215588D01*
X114839815Y-136100921D01*
X114942838Y-135888904D01*
X114060000Y-135006066D01*
X113177162Y-135888904D01*
X106936334Y-135888904D01*
X106975000Y-135694521D01*
X106975000Y-135305479D01*
X106899102Y-134923914D01*
X106896985Y-134918803D01*
X112628229Y-134918803D01*
X112659408Y-135197767D01*
X112744412Y-135465287D01*
X112859079Y-135679815D01*
X113071096Y-135782838D01*
X113953934Y-134900000D01*
X114166066Y-134900000D01*
X115048904Y-135782838D01*
X115260921Y-135679815D01*
X115389980Y-135430544D01*
X115467929Y-135160883D01*
X115491771Y-134881197D01*
X115479938Y-134775317D01*
X146161152Y-134775317D01*
X146239052Y-135015616D01*
X146362335Y-135236100D01*
X146526264Y-135428296D01*
X146724538Y-135584818D01*
X146949539Y-135699651D01*
X147144684Y-135758845D01*
X147345000Y-135679969D01*
X147345000Y-134575000D01*
X147495000Y-134575000D01*
X147495000Y-135679969D01*
X147695316Y-135758845D01*
X147890461Y-135699651D01*
X148115462Y-135584818D01*
X148313736Y-135428296D01*
X148477665Y-135236100D01*
X148600948Y-135015616D01*
X148678848Y-134775317D01*
X148600169Y-134575000D01*
X147495000Y-134575000D01*
X147345000Y-134575000D01*
X146239831Y-134575000D01*
X146161152Y-134775317D01*
X115479938Y-134775317D01*
X115460592Y-134602233D01*
X115375588Y-134334713D01*
X115260921Y-134120185D01*
X115048904Y-134017162D01*
X114166066Y-134900000D01*
X113953934Y-134900000D01*
X113071096Y-134017162D01*
X112859079Y-134120185D01*
X112730020Y-134369456D01*
X112652071Y-134639117D01*
X112628229Y-134918803D01*
X106896985Y-134918803D01*
X106750222Y-134564487D01*
X106534083Y-134241011D01*
X106258989Y-133965917D01*
X106176944Y-133911096D01*
X113177162Y-133911096D01*
X114060000Y-134793934D01*
X114942838Y-133911096D01*
X114839815Y-133699079D01*
X114590544Y-133570020D01*
X114320883Y-133492071D01*
X114041197Y-133468229D01*
X113762233Y-133499408D01*
X113494713Y-133584412D01*
X113280185Y-133699079D01*
X113177162Y-133911096D01*
X106176944Y-133911096D01*
X105935513Y-133749778D01*
X105576086Y-133600898D01*
X105194521Y-133525000D01*
X104805479Y-133525000D01*
X104423914Y-133600898D01*
X104064487Y-133749778D01*
X103741011Y-133965917D01*
X103465917Y-134241011D01*
X103249778Y-134564487D01*
X103100898Y-134923914D01*
X103025000Y-135305479D01*
X100450000Y-135305479D01*
X100450000Y-132353017D01*
X118550000Y-132353017D01*
X118550000Y-132746983D01*
X118626859Y-133133378D01*
X118777623Y-133497355D01*
X118996499Y-133824926D01*
X119275074Y-134103501D01*
X119602645Y-134322377D01*
X119966622Y-134473141D01*
X120353017Y-134550000D01*
X120746983Y-134550000D01*
X121133378Y-134473141D01*
X121497355Y-134322377D01*
X121824926Y-134103501D01*
X122103501Y-133824926D01*
X122322377Y-133497355D01*
X122473141Y-133133378D01*
X122550000Y-132746983D01*
X122550000Y-132353017D01*
X126170000Y-132353017D01*
X126170000Y-132746983D01*
X126246859Y-133133378D01*
X126397623Y-133497355D01*
X126616499Y-133824926D01*
X126895074Y-134103501D01*
X127222645Y-134322377D01*
X127586622Y-134473141D01*
X127973017Y-134550000D01*
X128366983Y-134550000D01*
X128753378Y-134473141D01*
X129117355Y-134322377D01*
X129444926Y-134103501D01*
X129723501Y-133824926D01*
X129942377Y-133497355D01*
X130093141Y-133133378D01*
X130110000Y-133048622D01*
X130126859Y-133133378D01*
X130277623Y-133497355D01*
X130496499Y-133824926D01*
X130775074Y-134103501D01*
X131102645Y-134322377D01*
X131466622Y-134473141D01*
X131853017Y-134550000D01*
X132246983Y-134550000D01*
X132633378Y-134473141D01*
X132997355Y-134322377D01*
X133324926Y-134103501D01*
X133603501Y-133824926D01*
X133822377Y-133497355D01*
X133973141Y-133133378D01*
X134050000Y-132746983D01*
X134050000Y-132353017D01*
X137670000Y-132353017D01*
X137670000Y-132746983D01*
X137746859Y-133133378D01*
X137897623Y-133497355D01*
X138116499Y-133824926D01*
X138395074Y-134103501D01*
X138722645Y-134322377D01*
X139086622Y-134473141D01*
X139473017Y-134550000D01*
X139866983Y-134550000D01*
X140253378Y-134473141D01*
X140617355Y-134322377D01*
X140763564Y-134224683D01*
X146161152Y-134224683D01*
X146239831Y-134425000D01*
X147345000Y-134425000D01*
X147345000Y-133320031D01*
X147495000Y-133320031D01*
X147495000Y-134425000D01*
X148600169Y-134425000D01*
X148618625Y-134378009D01*
X148721400Y-134378009D01*
X148721400Y-134621991D01*
X148768999Y-134861286D01*
X148862367Y-135086697D01*
X148997917Y-135289561D01*
X149170439Y-135462083D01*
X149373303Y-135597633D01*
X149598714Y-135691001D01*
X149838009Y-135738600D01*
X150081991Y-135738600D01*
X150321286Y-135691001D01*
X150546697Y-135597633D01*
X150749561Y-135462083D01*
X150922083Y-135289561D01*
X151057633Y-135086697D01*
X151151001Y-134861286D01*
X151198600Y-134621991D01*
X151198600Y-134378009D01*
X151151001Y-134138714D01*
X151057633Y-133913303D01*
X150922083Y-133710439D01*
X150749561Y-133537917D01*
X150546697Y-133402367D01*
X150321286Y-133308999D01*
X150081991Y-133261400D01*
X149838009Y-133261400D01*
X149598714Y-133308999D01*
X149373303Y-133402367D01*
X149170439Y-133537917D01*
X148997917Y-133710439D01*
X148862367Y-133913303D01*
X148768999Y-134138714D01*
X148721400Y-134378009D01*
X148618625Y-134378009D01*
X148678848Y-134224683D01*
X148600948Y-133984384D01*
X148477665Y-133763900D01*
X148313736Y-133571704D01*
X148115462Y-133415182D01*
X147890461Y-133300349D01*
X147695316Y-133241155D01*
X147495000Y-133320031D01*
X147345000Y-133320031D01*
X147144684Y-133241155D01*
X146949539Y-133300349D01*
X146724538Y-133415182D01*
X146526264Y-133571704D01*
X146362335Y-133763900D01*
X146239052Y-133984384D01*
X146161152Y-134224683D01*
X140763564Y-134224683D01*
X140944926Y-134103501D01*
X141223501Y-133824926D01*
X141442377Y-133497355D01*
X141593141Y-133133378D01*
X141670000Y-132746983D01*
X141670000Y-132353017D01*
X141593141Y-131966622D01*
X141442377Y-131602645D01*
X141223501Y-131275074D01*
X140944926Y-130996499D01*
X140617355Y-130777623D01*
X140253378Y-130626859D01*
X139866983Y-130550000D01*
X139473017Y-130550000D01*
X139086622Y-130626859D01*
X138722645Y-130777623D01*
X138395074Y-130996499D01*
X138116499Y-131275074D01*
X137897623Y-131602645D01*
X137746859Y-131966622D01*
X137670000Y-132353017D01*
X134050000Y-132353017D01*
X133973141Y-131966622D01*
X133822377Y-131602645D01*
X133603501Y-131275074D01*
X133324926Y-130996499D01*
X132997355Y-130777623D01*
X132633378Y-130626859D01*
X132246983Y-130550000D01*
X131853017Y-130550000D01*
X131466622Y-130626859D01*
X131102645Y-130777623D01*
X130775074Y-130996499D01*
X130496499Y-131275074D01*
X130277623Y-131602645D01*
X130126859Y-131966622D01*
X130110000Y-132051378D01*
X130093141Y-131966622D01*
X129942377Y-131602645D01*
X129723501Y-131275074D01*
X129444926Y-130996499D01*
X129117355Y-130777623D01*
X128753378Y-130626859D01*
X128366983Y-130550000D01*
X127973017Y-130550000D01*
X127586622Y-130626859D01*
X127222645Y-130777623D01*
X126895074Y-130996499D01*
X126616499Y-131275074D01*
X126397623Y-131602645D01*
X126246859Y-131966622D01*
X126170000Y-132353017D01*
X122550000Y-132353017D01*
X122473141Y-131966622D01*
X122322377Y-131602645D01*
X122103501Y-131275074D01*
X121824926Y-130996499D01*
X121497355Y-130777623D01*
X121133378Y-130626859D01*
X120746983Y-130550000D01*
X120353017Y-130550000D01*
X119966622Y-130626859D01*
X119602645Y-130777623D01*
X119275074Y-130996499D01*
X118996499Y-131275074D01*
X118777623Y-131602645D01*
X118626859Y-131966622D01*
X118550000Y-132353017D01*
X100450000Y-132353017D01*
X100450000Y-123546529D01*
X101759537Y-123546529D01*
X101838499Y-123738074D01*
X102053728Y-123847180D01*
X102286107Y-123912201D01*
X102526705Y-123930637D01*
X102766277Y-123901781D01*
X102995617Y-123826741D01*
X103161501Y-123738074D01*
X103240463Y-123546529D01*
X102500000Y-122806066D01*
X101759537Y-123546529D01*
X100450000Y-123546529D01*
X100450000Y-122726705D01*
X101269363Y-122726705D01*
X101298219Y-122966277D01*
X101373259Y-123195617D01*
X101461926Y-123361501D01*
X101653471Y-123440463D01*
X102393934Y-122700000D01*
X102606066Y-122700000D01*
X103346529Y-123440463D01*
X103530835Y-123364485D01*
X103587318Y-123449019D01*
X103750981Y-123612682D01*
X103875001Y-123695549D01*
X103875000Y-124966490D01*
X103875001Y-124966500D01*
X103875001Y-125120594D01*
X103848693Y-125131491D01*
X103623489Y-125281968D01*
X103431968Y-125473489D01*
X103281491Y-125698693D01*
X103177841Y-125948927D01*
X103125000Y-126214574D01*
X103125000Y-126485426D01*
X103177841Y-126751073D01*
X103281491Y-127001307D01*
X103431968Y-127226511D01*
X103623489Y-127418032D01*
X103848693Y-127568509D01*
X104098927Y-127672159D01*
X104364574Y-127725000D01*
X104635426Y-127725000D01*
X104901073Y-127672159D01*
X105151307Y-127568509D01*
X105376511Y-127418032D01*
X105568032Y-127226511D01*
X105640718Y-127117728D01*
X121648338Y-127117728D01*
X121739334Y-127319508D01*
X121971586Y-127438592D01*
X122222608Y-127510077D01*
X122482753Y-127531217D01*
X122742023Y-127501199D01*
X122990455Y-127421177D01*
X123180666Y-127319508D01*
X123271662Y-127117728D01*
X122460000Y-126306066D01*
X121648338Y-127117728D01*
X105640718Y-127117728D01*
X105718509Y-127001307D01*
X105822159Y-126751073D01*
X105875000Y-126485426D01*
X105875000Y-126222753D01*
X121128783Y-126222753D01*
X121158801Y-126482023D01*
X121238823Y-126730455D01*
X121340492Y-126920666D01*
X121542272Y-127011662D01*
X122353934Y-126200000D01*
X122566066Y-126200000D01*
X123377728Y-127011662D01*
X123579508Y-126920666D01*
X123698592Y-126688414D01*
X123756633Y-126484603D01*
X123773998Y-126571904D01*
X123870110Y-126803939D01*
X124009643Y-127012765D01*
X124187235Y-127190357D01*
X124396061Y-127329890D01*
X124628096Y-127426002D01*
X124874423Y-127475000D01*
X125125577Y-127475000D01*
X125371904Y-127426002D01*
X125603939Y-127329890D01*
X125812765Y-127190357D01*
X125885394Y-127117728D01*
X133148338Y-127117728D01*
X133239334Y-127319508D01*
X133471586Y-127438592D01*
X133722608Y-127510077D01*
X133982753Y-127531217D01*
X134242023Y-127501199D01*
X134490455Y-127421177D01*
X134680666Y-127319508D01*
X134771662Y-127117728D01*
X133960000Y-126306066D01*
X133148338Y-127117728D01*
X125885394Y-127117728D01*
X125990357Y-127012765D01*
X126129890Y-126803939D01*
X126226002Y-126571904D01*
X126275000Y-126325577D01*
X126275000Y-126222753D01*
X132628783Y-126222753D01*
X132658801Y-126482023D01*
X132738823Y-126730455D01*
X132840492Y-126920666D01*
X133042272Y-127011662D01*
X133853934Y-126200000D01*
X133042272Y-125388338D01*
X132840492Y-125479334D01*
X132721408Y-125711586D01*
X132649923Y-125962608D01*
X132628783Y-126222753D01*
X126275000Y-126222753D01*
X126275000Y-126074423D01*
X126226002Y-125828096D01*
X126129890Y-125596061D01*
X125990357Y-125387235D01*
X125885394Y-125282272D01*
X133148338Y-125282272D01*
X133960000Y-126093934D01*
X134771662Y-125282272D01*
X134680666Y-125080492D01*
X134448414Y-124961408D01*
X134197392Y-124889923D01*
X133937247Y-124868783D01*
X133677977Y-124898801D01*
X133429545Y-124978823D01*
X133239334Y-125080492D01*
X133148338Y-125282272D01*
X125885394Y-125282272D01*
X125812765Y-125209643D01*
X125603939Y-125070110D01*
X125371904Y-124973998D01*
X125125577Y-124925000D01*
X124874423Y-124925000D01*
X124628096Y-124973998D01*
X124396061Y-125070110D01*
X124187235Y-125209643D01*
X124009643Y-125387235D01*
X123870110Y-125596061D01*
X123773998Y-125828096D01*
X123758059Y-125908228D01*
X123681177Y-125669545D01*
X123579508Y-125479334D01*
X123377728Y-125388338D01*
X122566066Y-126200000D01*
X122353934Y-126200000D01*
X121542272Y-125388338D01*
X121340492Y-125479334D01*
X121221408Y-125711586D01*
X121149923Y-125962608D01*
X121128783Y-126222753D01*
X105875000Y-126222753D01*
X105875000Y-126214574D01*
X105822159Y-125948927D01*
X105718509Y-125698693D01*
X105568032Y-125473489D01*
X105376815Y-125282272D01*
X121648338Y-125282272D01*
X122460000Y-126093934D01*
X123271662Y-125282272D01*
X123180666Y-125080492D01*
X122948414Y-124961408D01*
X122697392Y-124889923D01*
X122437247Y-124868783D01*
X122177977Y-124898801D01*
X121929545Y-124978823D01*
X121739334Y-125080492D01*
X121648338Y-125282272D01*
X105376815Y-125282272D01*
X105376511Y-125281968D01*
X105151307Y-125131491D01*
X105125000Y-125120594D01*
X105125000Y-123695548D01*
X105249019Y-123612682D01*
X105412682Y-123449019D01*
X105541271Y-123256571D01*
X105629845Y-123042735D01*
X105675000Y-122815727D01*
X105675000Y-122584273D01*
X105645901Y-122437981D01*
X112967708Y-115116174D01*
X119802600Y-115116174D01*
X119802600Y-115387026D01*
X119855441Y-115652673D01*
X119959091Y-115902907D01*
X120109568Y-116128111D01*
X120301089Y-116319632D01*
X120526293Y-116470109D01*
X120776527Y-116573759D01*
X121042174Y-116626600D01*
X121313026Y-116626600D01*
X121578673Y-116573759D01*
X121828907Y-116470109D01*
X122054111Y-116319632D01*
X122245632Y-116128111D01*
X122396109Y-115902907D01*
X122499759Y-115652673D01*
X122552600Y-115387026D01*
X122552600Y-115116174D01*
X122499759Y-114850527D01*
X122396109Y-114600293D01*
X122245632Y-114375089D01*
X122054111Y-114183568D01*
X121828907Y-114033091D01*
X121578673Y-113929441D01*
X121313026Y-113876600D01*
X121042174Y-113876600D01*
X120776527Y-113929441D01*
X120526293Y-114033091D01*
X120301089Y-114183568D01*
X120109568Y-114375089D01*
X119959091Y-114600293D01*
X119855441Y-114850527D01*
X119802600Y-115116174D01*
X112967708Y-115116174D01*
X116258883Y-111825000D01*
X118830413Y-111825000D01*
X118856584Y-111842487D01*
X118988525Y-111897139D01*
X119128594Y-111925000D01*
X119271406Y-111925000D01*
X119411475Y-111897139D01*
X119543416Y-111842487D01*
X119662161Y-111763144D01*
X119763144Y-111662161D01*
X119842487Y-111543416D01*
X119897139Y-111411475D01*
X119925000Y-111271406D01*
X119925000Y-111128594D01*
X119909800Y-111052174D01*
X139360600Y-111052174D01*
X139360600Y-111323026D01*
X139413441Y-111588673D01*
X139517091Y-111838907D01*
X139667568Y-112064111D01*
X139859089Y-112255632D01*
X140084293Y-112406109D01*
X140334527Y-112509759D01*
X140600174Y-112562600D01*
X140871026Y-112562600D01*
X141136673Y-112509759D01*
X141386907Y-112406109D01*
X141612111Y-112255632D01*
X141803632Y-112064111D01*
X141954109Y-111838907D01*
X142057759Y-111588673D01*
X142110600Y-111323026D01*
X142110600Y-111052174D01*
X142057759Y-110786527D01*
X141954109Y-110536293D01*
X141803632Y-110311089D01*
X141612111Y-110119568D01*
X141386907Y-109969091D01*
X141136673Y-109865441D01*
X140871026Y-109812600D01*
X140600174Y-109812600D01*
X140334527Y-109865441D01*
X140084293Y-109969091D01*
X139859089Y-110119568D01*
X139667568Y-110311089D01*
X139517091Y-110536293D01*
X139413441Y-110786527D01*
X139360600Y-111052174D01*
X119909800Y-111052174D01*
X119897139Y-110988525D01*
X119842487Y-110856584D01*
X119763144Y-110737839D01*
X119662161Y-110636856D01*
X119543416Y-110557513D01*
X119411475Y-110502861D01*
X119271406Y-110475000D01*
X119128594Y-110475000D01*
X118988525Y-110502861D01*
X118856584Y-110557513D01*
X118830413Y-110575000D01*
X116030694Y-110575000D01*
X116000000Y-110571977D01*
X115969306Y-110575000D01*
X115969296Y-110575000D01*
X115877479Y-110584043D01*
X115759666Y-110619781D01*
X115651089Y-110677817D01*
X115555920Y-110755920D01*
X115536346Y-110779771D01*
X104762019Y-121554099D01*
X104615727Y-121525000D01*
X104384273Y-121525000D01*
X104157265Y-121570155D01*
X103943429Y-121658729D01*
X103750981Y-121787318D01*
X103587318Y-121950981D01*
X103530835Y-122035515D01*
X103346529Y-121959537D01*
X102606066Y-122700000D01*
X102393934Y-122700000D01*
X101653471Y-121959537D01*
X101461926Y-122038499D01*
X101352820Y-122253728D01*
X101287799Y-122486107D01*
X101269363Y-122726705D01*
X100450000Y-122726705D01*
X100450000Y-121853471D01*
X101759537Y-121853471D01*
X102500000Y-122593934D01*
X103240463Y-121853471D01*
X103161501Y-121661926D01*
X102946272Y-121552820D01*
X102713893Y-121487799D01*
X102473295Y-121469363D01*
X102233723Y-121498219D01*
X102004383Y-121573259D01*
X101838499Y-121661926D01*
X101759537Y-121853471D01*
X100450000Y-121853471D01*
X100450000Y-109934574D01*
X106525000Y-109934574D01*
X106525000Y-110205426D01*
X106577841Y-110471073D01*
X106681491Y-110721307D01*
X106831968Y-110946511D01*
X107023489Y-111138032D01*
X107248693Y-111288509D01*
X107498927Y-111392159D01*
X107764574Y-111445000D01*
X108035426Y-111445000D01*
X108301073Y-111392159D01*
X108551307Y-111288509D01*
X108776511Y-111138032D01*
X108968032Y-110946511D01*
X109118509Y-110721307D01*
X109222159Y-110471073D01*
X109275000Y-110205426D01*
X109275000Y-109934574D01*
X109222159Y-109668927D01*
X109118509Y-109418693D01*
X108968032Y-109193489D01*
X108776511Y-109001968D01*
X108551307Y-108851491D01*
X108301073Y-108747841D01*
X108035426Y-108695000D01*
X107764574Y-108695000D01*
X107498927Y-108747841D01*
X107248693Y-108851491D01*
X107023489Y-109001968D01*
X106831968Y-109193489D01*
X106681491Y-109418693D01*
X106577841Y-109668927D01*
X106525000Y-109934574D01*
X100450000Y-109934574D01*
X100450000Y-99625000D01*
X112948224Y-99625000D01*
X123911612Y-110588388D01*
G36*
X163037917Y-118130439D02*
G01*
X162902367Y-118333303D01*
X162808999Y-118558714D01*
X162761400Y-118798009D01*
X162761400Y-119041991D01*
X162808999Y-119281286D01*
X162902367Y-119506697D01*
X163037917Y-119709561D01*
X163053356Y-119725000D01*
X157696752Y-119725000D01*
X156348408Y-118376657D01*
X156350000Y-118376814D01*
X157752709Y-118376814D01*
X157742709Y-118391780D01*
X157688057Y-118523721D01*
X157660196Y-118663790D01*
X157660196Y-118806602D01*
X157688057Y-118946671D01*
X157742709Y-119078612D01*
X157822052Y-119197357D01*
X157923035Y-119298340D01*
X158041780Y-119377683D01*
X158173721Y-119432335D01*
X158313790Y-119460196D01*
X158456602Y-119460196D01*
X158596671Y-119432335D01*
X158728612Y-119377683D01*
X158847357Y-119298340D01*
X158948340Y-119197357D01*
X159027683Y-119078612D01*
X159071915Y-118971828D01*
X159107698Y-118990954D01*
X159197236Y-119018115D01*
X159290352Y-119027286D01*
X159313684Y-119024988D01*
X161826680Y-119024988D01*
X161850012Y-119027286D01*
X161873344Y-119024988D01*
X161943128Y-119018115D01*
X162032666Y-118990954D01*
X162115185Y-118946847D01*
X162187513Y-118887489D01*
X162202396Y-118869354D01*
X162946751Y-118125000D01*
X163043356Y-118125000D01*
X163037917Y-118130439D01*
G37*
X163037917Y-118130439D02*
X162902367Y-118333303D01*
X162808999Y-118558714D01*
X162761400Y-118798009D01*
X162761400Y-119041991D01*
X162808999Y-119281286D01*
X162902367Y-119506697D01*
X163037917Y-119709561D01*
X163053356Y-119725000D01*
X157696752Y-119725000D01*
X156348408Y-118376657D01*
X156350000Y-118376814D01*
X157752709Y-118376814D01*
X157742709Y-118391780D01*
X157688057Y-118523721D01*
X157660196Y-118663790D01*
X157660196Y-118806602D01*
X157688057Y-118946671D01*
X157742709Y-119078612D01*
X157822052Y-119197357D01*
X157923035Y-119298340D01*
X158041780Y-119377683D01*
X158173721Y-119432335D01*
X158313790Y-119460196D01*
X158456602Y-119460196D01*
X158596671Y-119432335D01*
X158728612Y-119377683D01*
X158847357Y-119298340D01*
X158948340Y-119197357D01*
X159027683Y-119078612D01*
X159071915Y-118971828D01*
X159107698Y-118990954D01*
X159197236Y-119018115D01*
X159290352Y-119027286D01*
X159313684Y-119024988D01*
X161826680Y-119024988D01*
X161850012Y-119027286D01*
X161873344Y-119024988D01*
X161943128Y-119018115D01*
X162032666Y-118990954D01*
X162115185Y-118946847D01*
X162187513Y-118887489D01*
X162202396Y-118869354D01*
X162946751Y-118125000D01*
X163043356Y-118125000D01*
X163037917Y-118130439D01*
G36*
X167825011Y-110696762D02*
G01*
X167825011Y-114453261D01*
X167755976Y-114384226D01*
X167755972Y-114384221D01*
X167684734Y-114312984D01*
X167731001Y-114201286D01*
X167778600Y-113961991D01*
X167778600Y-113718009D01*
X167731001Y-113478714D01*
X167637633Y-113253303D01*
X167502083Y-113050439D01*
X167329561Y-112877917D01*
X167126697Y-112742367D01*
X166901286Y-112648999D01*
X166661991Y-112601400D01*
X166418009Y-112601400D01*
X166178714Y-112648999D01*
X165953303Y-112742367D01*
X165750439Y-112877917D01*
X165577917Y-113050439D01*
X165442367Y-113253303D01*
X165348999Y-113478714D01*
X165301400Y-113718009D01*
X165301400Y-113961991D01*
X165348999Y-114201286D01*
X165442367Y-114426697D01*
X165577917Y-114629561D01*
X165750439Y-114802083D01*
X165953303Y-114937633D01*
X166178714Y-115031001D01*
X166418009Y-115078600D01*
X166661991Y-115078600D01*
X166901286Y-115031001D01*
X167012984Y-114984734D01*
X167084221Y-115055972D01*
X167084226Y-115055976D01*
X167375001Y-115346752D01*
X167375001Y-115463357D01*
X167329561Y-115417917D01*
X167126697Y-115282367D01*
X166901286Y-115188999D01*
X166661991Y-115141400D01*
X166418009Y-115141400D01*
X166178714Y-115188999D01*
X165953303Y-115282367D01*
X165750439Y-115417917D01*
X165577917Y-115590439D01*
X165442367Y-115793303D01*
X165348999Y-116018714D01*
X165301400Y-116258009D01*
X165301400Y-116501991D01*
X165348999Y-116741286D01*
X165395266Y-116852984D01*
X165357034Y-116891216D01*
X165357023Y-116891225D01*
X165073249Y-117175000D01*
X164956644Y-117175000D01*
X164962083Y-117169561D01*
X165097633Y-116966697D01*
X165191001Y-116741286D01*
X165238600Y-116501991D01*
X165238600Y-116258009D01*
X165191001Y-116018714D01*
X165097633Y-115793303D01*
X164962083Y-115590439D01*
X164789561Y-115417917D01*
X164586697Y-115282367D01*
X164361286Y-115188999D01*
X164121991Y-115141400D01*
X163878009Y-115141400D01*
X163638714Y-115188999D01*
X163413303Y-115282367D01*
X163210439Y-115417917D01*
X163037917Y-115590439D01*
X162902367Y-115793303D01*
X162856101Y-115905000D01*
X162802017Y-115905000D01*
X162778685Y-115902702D01*
X162685569Y-115911873D01*
X162658408Y-115920112D01*
X162596032Y-115939034D01*
X162513513Y-115983141D01*
X162441185Y-116042499D01*
X162426306Y-116060629D01*
X161461936Y-117025000D01*
X161076814Y-117025000D01*
X161076814Y-117000000D01*
X161069497Y-116926101D01*
X161047980Y-116855435D01*
X161045049Y-116849966D01*
X161048131Y-116844200D01*
X161069574Y-116773513D01*
X161076814Y-116700000D01*
X161076814Y-114300000D01*
X161069650Y-114226874D01*
X161048281Y-114156164D01*
X161045013Y-114150034D01*
X161048131Y-114144200D01*
X161069574Y-114073513D01*
X161076814Y-114000000D01*
X161076814Y-113975000D01*
X162763988Y-113975000D01*
X162808999Y-114201286D01*
X162902367Y-114426697D01*
X163037917Y-114629561D01*
X163210439Y-114802083D01*
X163413303Y-114937633D01*
X163638714Y-115031001D01*
X163878009Y-115078600D01*
X164121991Y-115078600D01*
X164361286Y-115031001D01*
X164586697Y-114937633D01*
X164789561Y-114802083D01*
X164962083Y-114629561D01*
X165097633Y-114426697D01*
X165191001Y-114201286D01*
X165238600Y-113961991D01*
X165238600Y-113718009D01*
X165191001Y-113478714D01*
X165097633Y-113253303D01*
X164978494Y-113075000D01*
X165216668Y-113075000D01*
X165240000Y-113077298D01*
X165263332Y-113075000D01*
X165333116Y-113068127D01*
X165422654Y-113040966D01*
X165505173Y-112996859D01*
X165577501Y-112937501D01*
X165592384Y-112919366D01*
X166028774Y-112482977D01*
X166028778Y-112482972D01*
X166067016Y-112444734D01*
X166178714Y-112491001D01*
X166418009Y-112538600D01*
X166661991Y-112538600D01*
X166901286Y-112491001D01*
X167126697Y-112397633D01*
X167329561Y-112262083D01*
X167502083Y-112089561D01*
X167637633Y-111886697D01*
X167731001Y-111661286D01*
X167778600Y-111421991D01*
X167778600Y-111178009D01*
X167731001Y-110938714D01*
X167637633Y-110713303D01*
X167502083Y-110510439D01*
X167329561Y-110337917D01*
X167126697Y-110202367D01*
X167060627Y-110175000D01*
X167303250Y-110175000D01*
X167825011Y-110696762D01*
G37*
X167825011Y-110696762D02*
X167825011Y-114453261D01*
X167755976Y-114384226D01*
X167755972Y-114384221D01*
X167684734Y-114312984D01*
X167731001Y-114201286D01*
X167778600Y-113961991D01*
X167778600Y-113718009D01*
X167731001Y-113478714D01*
X167637633Y-113253303D01*
X167502083Y-113050439D01*
X167329561Y-112877917D01*
X167126697Y-112742367D01*
X166901286Y-112648999D01*
X166661991Y-112601400D01*
X166418009Y-112601400D01*
X166178714Y-112648999D01*
X165953303Y-112742367D01*
X165750439Y-112877917D01*
X165577917Y-113050439D01*
X165442367Y-113253303D01*
X165348999Y-113478714D01*
X165301400Y-113718009D01*
X165301400Y-113961991D01*
X165348999Y-114201286D01*
X165442367Y-114426697D01*
X165577917Y-114629561D01*
X165750439Y-114802083D01*
X165953303Y-114937633D01*
X166178714Y-115031001D01*
X166418009Y-115078600D01*
X166661991Y-115078600D01*
X166901286Y-115031001D01*
X167012984Y-114984734D01*
X167084221Y-115055972D01*
X167084226Y-115055976D01*
X167375001Y-115346752D01*
X167375001Y-115463357D01*
X167329561Y-115417917D01*
X167126697Y-115282367D01*
X166901286Y-115188999D01*
X166661991Y-115141400D01*
X166418009Y-115141400D01*
X166178714Y-115188999D01*
X165953303Y-115282367D01*
X165750439Y-115417917D01*
X165577917Y-115590439D01*
X165442367Y-115793303D01*
X165348999Y-116018714D01*
X165301400Y-116258009D01*
X165301400Y-116501991D01*
X165348999Y-116741286D01*
X165395266Y-116852984D01*
X165357034Y-116891216D01*
X165357023Y-116891225D01*
X165073249Y-117175000D01*
X164956644Y-117175000D01*
X164962083Y-117169561D01*
X165097633Y-116966697D01*
X165191001Y-116741286D01*
X165238600Y-116501991D01*
X165238600Y-116258009D01*
X165191001Y-116018714D01*
X165097633Y-115793303D01*
X164962083Y-115590439D01*
X164789561Y-115417917D01*
X164586697Y-115282367D01*
X164361286Y-115188999D01*
X164121991Y-115141400D01*
X163878009Y-115141400D01*
X163638714Y-115188999D01*
X163413303Y-115282367D01*
X163210439Y-115417917D01*
X163037917Y-115590439D01*
X162902367Y-115793303D01*
X162856101Y-115905000D01*
X162802017Y-115905000D01*
X162778685Y-115902702D01*
X162685569Y-115911873D01*
X162658408Y-115920112D01*
X162596032Y-115939034D01*
X162513513Y-115983141D01*
X162441185Y-116042499D01*
X162426306Y-116060629D01*
X161461936Y-117025000D01*
X161076814Y-117025000D01*
X161076814Y-117000000D01*
X161069497Y-116926101D01*
X161047980Y-116855435D01*
X161045049Y-116849966D01*
X161048131Y-116844200D01*
X161069574Y-116773513D01*
X161076814Y-116700000D01*
X161076814Y-114300000D01*
X161069650Y-114226874D01*
X161048281Y-114156164D01*
X161045013Y-114150034D01*
X161048131Y-114144200D01*
X161069574Y-114073513D01*
X161076814Y-114000000D01*
X161076814Y-113975000D01*
X162763988Y-113975000D01*
X162808999Y-114201286D01*
X162902367Y-114426697D01*
X163037917Y-114629561D01*
X163210439Y-114802083D01*
X163413303Y-114937633D01*
X163638714Y-115031001D01*
X163878009Y-115078600D01*
X164121991Y-115078600D01*
X164361286Y-115031001D01*
X164586697Y-114937633D01*
X164789561Y-114802083D01*
X164962083Y-114629561D01*
X165097633Y-114426697D01*
X165191001Y-114201286D01*
X165238600Y-113961991D01*
X165238600Y-113718009D01*
X165191001Y-113478714D01*
X165097633Y-113253303D01*
X164978494Y-113075000D01*
X165216668Y-113075000D01*
X165240000Y-113077298D01*
X165263332Y-113075000D01*
X165333116Y-113068127D01*
X165422654Y-113040966D01*
X165505173Y-112996859D01*
X165577501Y-112937501D01*
X165592384Y-112919366D01*
X166028774Y-112482977D01*
X166028778Y-112482972D01*
X166067016Y-112444734D01*
X166178714Y-112491001D01*
X166418009Y-112538600D01*
X166661991Y-112538600D01*
X166901286Y-112491001D01*
X167126697Y-112397633D01*
X167329561Y-112262083D01*
X167502083Y-112089561D01*
X167637633Y-111886697D01*
X167731001Y-111661286D01*
X167778600Y-111421991D01*
X167778600Y-111178009D01*
X167731001Y-110938714D01*
X167637633Y-110713303D01*
X167502083Y-110510439D01*
X167329561Y-110337917D01*
X167126697Y-110202367D01*
X167060627Y-110175000D01*
X167303250Y-110175000D01*
X167825011Y-110696762D01*
M02*
