G04 #@! TF.GenerationSoftware,KiCad,Pcbnew,(5.0.2)-1*
G04 #@! TF.CreationDate,2019-05-12T17:51:48+02:00*
G04 #@! TF.ProjectId,MotorDriver,4d6f746f-7244-4726-9976-65722e6b6963,rev?*
G04 #@! TF.SameCoordinates,Original*
G04 #@! TF.FileFunction,Copper,L2,Bot*
G04 #@! TF.FilePolarity,Positive*
%FSLAX46Y46*%
G04 Gerber Fmt 4.6, Leading zero omitted, Abs format (unit mm)*
G04 Created by KiCad (PCBNEW (5.0.2)-1) date 12.05.2019 17:51:48*
%MOMM*%
%LPD*%
G01*
G04 APERTURE LIST*
G04 #@! TA.AperFunction,ComponentPad*
%ADD10C,1.600000*%
G04 #@! TD*
G04 #@! TA.AperFunction,ComponentPad*
%ADD11O,4.000000X2.400000*%
G04 #@! TD*
G04 #@! TA.AperFunction,ComponentPad*
%ADD12O,4.000000X2.500000*%
G04 #@! TD*
G04 #@! TA.AperFunction,ComponentPad*
%ADD13C,1.800000*%
G04 #@! TD*
G04 #@! TA.AperFunction,ComponentPad*
%ADD14O,1.727200X1.727200*%
G04 #@! TD*
G04 #@! TA.AperFunction,ComponentPad*
%ADD15R,1.727200X1.727200*%
G04 #@! TD*
G04 #@! TA.AperFunction,ComponentPad*
%ADD16C,2.000000*%
G04 #@! TD*
G04 #@! TA.AperFunction,SMDPad,CuDef*
%ADD17C,0.300000*%
G04 #@! TD*
G04 #@! TA.AperFunction,Conductor*
%ADD18C,0.100000*%
G04 #@! TD*
G04 #@! TA.AperFunction,Conductor*
%ADD19C,0.300000*%
G04 #@! TD*
G04 #@! TA.AperFunction,ComponentPad*
%ADD20O,1.700000X1.700000*%
G04 #@! TD*
G04 #@! TA.AperFunction,ComponentPad*
%ADD21R,1.700000X1.700000*%
G04 #@! TD*
G04 #@! TA.AperFunction,ViaPad*
%ADD22C,0.700000*%
G04 #@! TD*
G04 #@! TA.AperFunction,Conductor*
%ADD23C,5.000000*%
G04 #@! TD*
G04 #@! TA.AperFunction,Conductor*
%ADD24C,0.500000*%
G04 #@! TD*
G04 #@! TA.AperFunction,Conductor*
%ADD25C,0.200000*%
G04 #@! TD*
G04 #@! TA.AperFunction,Conductor*
%ADD26C,2.000000*%
G04 #@! TD*
G04 #@! TA.AperFunction,Conductor*
%ADD27C,0.300000*%
G04 #@! TD*
G04 #@! TA.AperFunction,Conductor*
%ADD28C,0.250000*%
G04 #@! TD*
G04 APERTURE END LIST*
D10*
G04 #@! TO.P,C22,2*
G04 #@! TO.N,GND*
X102500000Y-122700000D03*
G04 #@! TO.P,C22,1*
G04 #@! TO.N,+12V*
X104500000Y-122700000D03*
G04 #@! TD*
G04 #@! TO.P,C7,2*
G04 #@! TO.N,Net-(C6-Pad2)*
X128900000Y-105800000D03*
G04 #@! TO.P,C7,1*
G04 #@! TO.N,Net-(C6-Pad1)*
X128900000Y-100800000D03*
G04 #@! TD*
G04 #@! TO.P,C6,2*
G04 #@! TO.N,Net-(C6-Pad2)*
X128900000Y-80100000D03*
G04 #@! TO.P,C6,1*
G04 #@! TO.N,Net-(C6-Pad1)*
X128900000Y-75100000D03*
G04 #@! TD*
D11*
G04 #@! TO.P,J2,1*
G04 #@! TO.N,/OUT*
X162000000Y-85000000D03*
D12*
X167000000Y-85000000D03*
G04 #@! TD*
D11*
G04 #@! TO.P,J3,1*
G04 #@! TO.N,Net-(C6-Pad2)*
X162000000Y-95000000D03*
D12*
X167000000Y-95000000D03*
G04 #@! TD*
D11*
G04 #@! TO.P,J1,1*
G04 #@! TO.N,Net-(C6-Pad1)*
X108000000Y-85000000D03*
D12*
X103000000Y-85000000D03*
G04 #@! TD*
D11*
G04 #@! TO.P,J4,1*
G04 #@! TO.N,Net-(C6-Pad2)*
X108000000Y-95000000D03*
D12*
X103000000Y-95000000D03*
G04 #@! TD*
D13*
G04 #@! TO.P,J7,1*
G04 #@! TO.N,GND*
X122460000Y-126200000D03*
G04 #@! TO.P,J7,2*
G04 #@! TO.N,+12V*
X123730000Y-123660000D03*
G04 #@! TO.P,J7,4*
G04 #@! TO.N,/B*
X126270000Y-123660000D03*
G04 #@! TO.P,J7,3*
G04 #@! TO.N,/A*
X125000000Y-126200000D03*
G04 #@! TD*
G04 #@! TO.P,J8,1*
G04 #@! TO.N,GND*
X133960000Y-126200000D03*
G04 #@! TO.P,J8,2*
G04 #@! TO.N,+12V*
X135230000Y-123660000D03*
G04 #@! TO.P,J8,4*
G04 #@! TO.N,/B*
X137770000Y-123660000D03*
G04 #@! TO.P,J8,3*
G04 #@! TO.N,/A*
X136500000Y-126200000D03*
G04 #@! TD*
D14*
G04 #@! TO.P,J6,6*
G04 #@! TO.N,Net-(J6-Pad6)*
X147420000Y-137040000D03*
G04 #@! TO.P,J6,5*
G04 #@! TO.N,GND*
X147420000Y-134500000D03*
G04 #@! TO.P,J6,4*
G04 #@! TO.N,/ENCI*
X149960000Y-137040000D03*
G04 #@! TO.P,J6,3*
G04 #@! TO.N,/ENCA*
X149960000Y-134500000D03*
G04 #@! TO.P,J6,2*
G04 #@! TO.N,+5V*
X152500000Y-137040000D03*
D15*
G04 #@! TO.P,J6,1*
G04 #@! TO.N,/ENCB*
X152500000Y-134500000D03*
G04 #@! TD*
D16*
G04 #@! TO.P,TP15,1*
G04 #@! TO.N,GND*
X114060000Y-134900000D03*
G04 #@! TD*
G04 #@! TO.P,TP8,1*
G04 #@! TO.N,/ENCB*
X159800000Y-131700000D03*
G04 #@! TD*
G04 #@! TO.P,TP1,1*
G04 #@! TO.N,/HIN*
X142500000Y-109300000D03*
G04 #@! TD*
G04 #@! TO.P,TP4,1*
G04 #@! TO.N,/LG*
X128825000Y-96875000D03*
G04 #@! TD*
G04 #@! TO.P,TP7,1*
G04 #@! TO.N,/ENCI*
X159800000Y-138500000D03*
G04 #@! TD*
G04 #@! TO.P,TP9,1*
G04 #@! TO.N,/ENCA*
X159800000Y-135100000D03*
G04 #@! TD*
G04 #@! TO.P,TP10,1*
G04 #@! TO.N,+12V*
X104500000Y-126350000D03*
G04 #@! TD*
G04 #@! TO.P,TP11,1*
G04 #@! TO.N,/B*
X140000000Y-116700000D03*
G04 #@! TD*
G04 #@! TO.P,TP13,1*
G04 #@! TO.N,+5V*
X107900000Y-111300000D03*
G04 #@! TD*
G04 #@! TO.P,TP14,1*
G04 #@! TO.N,+3V3*
X121300000Y-115400000D03*
G04 #@! TD*
G04 #@! TO.P,TP12,1*
G04 #@! TO.N,/A*
X140000000Y-120250000D03*
G04 #@! TD*
G04 #@! TO.P,TP5,1*
G04 #@! TO.N,/HG*
X131300000Y-87000000D03*
G04 #@! TD*
G04 #@! TO.P,TP2,1*
G04 #@! TO.N,/LIN*
X141300000Y-111500000D03*
G04 #@! TD*
D15*
G04 #@! TO.P,J5,1*
G04 #@! TO.N,Net-(J5-Pad1)*
X164000000Y-111300000D03*
D14*
G04 #@! TO.P,J5,2*
G04 #@! TO.N,/2*
X166540000Y-111300000D03*
G04 #@! TO.P,J5,3*
G04 #@! TO.N,Net-(J5-Pad3)*
X164000000Y-113840000D03*
G04 #@! TO.P,J5,4*
G04 #@! TO.N,/4*
X166540000Y-113840000D03*
G04 #@! TO.P,J5,5*
G04 #@! TO.N,Net-(J5-Pad5)*
X164000000Y-116380000D03*
G04 #@! TO.P,J5,6*
G04 #@! TO.N,/6*
X166540000Y-116380000D03*
G04 #@! TO.P,J5,7*
G04 #@! TO.N,Net-(J5-Pad7)*
X164000000Y-118920000D03*
G04 #@! TO.P,J5,8*
G04 #@! TO.N,Net-(J5-Pad8)*
X166540000Y-118920000D03*
G04 #@! TO.P,J5,9*
G04 #@! TO.N,Net-(J5-Pad9)*
X164000000Y-121460000D03*
G04 #@! TO.P,J5,10*
G04 #@! TO.N,+5V*
X166540000Y-121460000D03*
G04 #@! TD*
D17*
G04 #@! TO.P,JP4,1*
G04 #@! TO.N,/2*
X154600000Y-113500000D03*
D18*
G04 #@! TD*
G04 #@! TO.N,/2*
G04 #@! TO.C,JP4*
G36*
X154600000Y-114500000D02*
X153850000Y-114000000D01*
X153850000Y-113000000D01*
X155350000Y-113000000D01*
X155350000Y-114000000D01*
X154600000Y-114500000D01*
X154600000Y-114500000D01*
G37*
D19*
G04 #@! TO.N,/SWDIO*
G04 #@! TO.C,JP4*
X154600000Y-115500000D03*
D18*
G36*
X154600000Y-116200000D02*
X153850000Y-116700000D01*
X153850000Y-114300000D01*
X154600000Y-114800000D01*
X155350000Y-114300000D01*
X155350000Y-116700000D01*
X154600000Y-116200000D01*
X154600000Y-116200000D01*
G37*
D17*
G04 #@! TD*
G04 #@! TO.P,JP4,3*
G04 #@! TO.N,/4*
X154600000Y-117500000D03*
D18*
G04 #@! TO.N,/4*
G04 #@! TO.C,JP4*
G36*
X154600000Y-116500000D02*
X155350000Y-117000000D01*
X155350000Y-118000000D01*
X153850000Y-118000000D01*
X153850000Y-117000000D01*
X154600000Y-116500000D01*
X154600000Y-116500000D01*
G37*
G04 #@! TD*
D17*
G04 #@! TO.P,JP5,3*
G04 #@! TO.N,Net-(J5-Pad5)*
X159950000Y-117500000D03*
D18*
G04 #@! TD*
G04 #@! TO.N,Net-(J5-Pad5)*
G04 #@! TO.C,JP5*
G36*
X159950000Y-116500000D02*
X160700000Y-117000000D01*
X160700000Y-118000000D01*
X159200000Y-118000000D01*
X159200000Y-117000000D01*
X159950000Y-116500000D01*
X159950000Y-116500000D01*
G37*
D19*
G04 #@! TO.N,GND*
G04 #@! TO.C,JP5*
X159950000Y-115500000D03*
D18*
G36*
X159950000Y-116200000D02*
X159200000Y-116700000D01*
X159200000Y-114300000D01*
X159950000Y-114800000D01*
X160700000Y-114300000D01*
X160700000Y-116700000D01*
X159950000Y-116200000D01*
X159950000Y-116200000D01*
G37*
D17*
G04 #@! TD*
G04 #@! TO.P,JP5,1*
G04 #@! TO.N,Net-(J5-Pad3)*
X159950000Y-113500000D03*
D18*
G04 #@! TO.N,Net-(J5-Pad3)*
G04 #@! TO.C,JP5*
G36*
X159950000Y-114500000D02*
X159200000Y-114000000D01*
X159200000Y-113000000D01*
X160700000Y-113000000D01*
X160700000Y-114000000D01*
X159950000Y-114500000D01*
X159950000Y-114500000D01*
G37*
G04 #@! TD*
D17*
G04 #@! TO.P,JP6,1*
G04 #@! TO.N,/6*
X157100000Y-113500000D03*
D18*
G04 #@! TD*
G04 #@! TO.N,/6*
G04 #@! TO.C,JP6*
G36*
X157100000Y-114500000D02*
X156350000Y-114000000D01*
X156350000Y-113000000D01*
X157850000Y-113000000D01*
X157850000Y-114000000D01*
X157100000Y-114500000D01*
X157100000Y-114500000D01*
G37*
D19*
G04 #@! TO.N,/SWCLK*
G04 #@! TO.C,JP6*
X157100000Y-115500000D03*
D18*
G36*
X157100000Y-116200000D02*
X156350000Y-116700000D01*
X156350000Y-114300000D01*
X157100000Y-114800000D01*
X157850000Y-114300000D01*
X157850000Y-116700000D01*
X157100000Y-116200000D01*
X157100000Y-116200000D01*
G37*
D17*
G04 #@! TD*
G04 #@! TO.P,JP6,3*
G04 #@! TO.N,/2*
X157100000Y-117500000D03*
D18*
G04 #@! TO.N,/2*
G04 #@! TO.C,JP6*
G36*
X157100000Y-116500000D02*
X157850000Y-117000000D01*
X157850000Y-118000000D01*
X156350000Y-118000000D01*
X156350000Y-117000000D01*
X157100000Y-116500000D01*
X157100000Y-116500000D01*
G37*
G04 #@! TD*
D20*
G04 #@! TO.P,JP1,2*
G04 #@! TO.N,/RST*
X163560000Y-128800000D03*
D21*
G04 #@! TO.P,JP1,1*
G04 #@! TO.N,Net-(J5-Pad1)*
X166100000Y-128800000D03*
G04 #@! TD*
D22*
G04 #@! TO.N,Net-(C6-Pad1)*
X138700000Y-75425000D03*
X138700000Y-76325000D03*
X138700000Y-77225000D03*
X138700000Y-78125000D03*
X135100000Y-78125000D03*
X135100000Y-77225000D03*
X135100000Y-75425000D03*
X135100000Y-76325000D03*
X136000000Y-78125000D03*
X136900000Y-78125000D03*
X137800000Y-78100000D03*
X137800000Y-77225000D03*
X136900000Y-77225000D03*
X136000000Y-77225000D03*
X136000000Y-75425000D03*
X136900000Y-75425000D03*
X137800000Y-75425000D03*
X137800000Y-76325000D03*
X136000000Y-76325000D03*
X136900000Y-76325000D03*
X146800000Y-90900000D03*
G04 #@! TO.N,GND*
X112800000Y-131600000D03*
X115300000Y-131600000D03*
X115300000Y-129900000D03*
X112800000Y-129900000D03*
X154500000Y-107750000D03*
X152500000Y-118900000D03*
X102000000Y-138500000D03*
X168000000Y-138500000D03*
X154000000Y-125500000D03*
X161900000Y-115500000D03*
X157400000Y-100300000D03*
X102000000Y-102500000D03*
X114800000Y-116500000D03*
X108800000Y-121500000D03*
X130460000Y-125450000D03*
X168000000Y-107500000D03*
X160500000Y-104500000D03*
X121100000Y-108400000D03*
X144750010Y-125700000D03*
X138000000Y-110400000D03*
X146300000Y-112500000D03*
X126000000Y-116700000D03*
X149800000Y-112500000D03*
X147100000Y-101300000D03*
X107000000Y-138500000D03*
X112000000Y-138500000D03*
X117000000Y-138500000D03*
X122000000Y-138500000D03*
X127000000Y-138500000D03*
X132000000Y-138500000D03*
X137000000Y-138500000D03*
X142000000Y-138500000D03*
X163000000Y-138500000D03*
X154000000Y-131500000D03*
X151000000Y-125500000D03*
X151000000Y-122500000D03*
X157000000Y-122500000D03*
X168000000Y-133500000D03*
X168000000Y-128500000D03*
X165000000Y-107500000D03*
X165000000Y-100300000D03*
X161200000Y-100300000D03*
X102000000Y-133500000D03*
X102000000Y-128500000D03*
X102000000Y-118500000D03*
X102000000Y-113500000D03*
X102000000Y-108500000D03*
X102000000Y-103500000D03*
X102000000Y-100500000D03*
X106000000Y-100500000D03*
X110000000Y-100500000D03*
X113000000Y-100500000D03*
X115000000Y-102500000D03*
X118000000Y-105500000D03*
X128000000Y-125500000D03*
X132000000Y-123500000D03*
X122000000Y-121500000D03*
X124000000Y-115500000D03*
X122000000Y-117500000D03*
X130100000Y-110900000D03*
X125800000Y-110900000D03*
X134200000Y-110900000D03*
X144800000Y-103500000D03*
X142600000Y-105500000D03*
X140100000Y-108000000D03*
X138900000Y-122100000D03*
X141800000Y-117800000D03*
X143300000Y-115700000D03*
X144300000Y-121800000D03*
X121100000Y-125000000D03*
X165000000Y-125500000D03*
X140000000Y-125500000D03*
X142000000Y-121500000D03*
X122800000Y-110900000D03*
X153000000Y-100300000D03*
X151000000Y-100300000D03*
X145500000Y-106700000D03*
X146300000Y-117600000D03*
X160500000Y-119450000D03*
G04 #@! TO.N,/TX*
X133200005Y-115599995D03*
X155736463Y-105542289D03*
G04 #@! TO.N,+12V*
X116460000Y-123650000D03*
X119200000Y-111200000D03*
G04 #@! TO.N,+3V3*
X132500000Y-114900000D03*
X151425010Y-112000000D03*
X148900000Y-101874926D03*
X145944978Y-109844986D03*
X156900000Y-101900000D03*
X159650000Y-111750000D03*
G04 #@! TO.N,+5V*
X154100000Y-99300000D03*
X138900010Y-113200000D03*
G04 #@! TO.N,/ENCI*
X145800000Y-126600001D03*
X152643847Y-108405158D03*
G04 #@! TO.N,/ENCA*
X145900000Y-124900000D03*
X151750000Y-108299994D03*
G04 #@! TO.N,/ENCB*
X145800000Y-123000000D03*
X151897216Y-107412109D03*
G04 #@! TO.N,/RX*
X131800000Y-118399992D03*
X154958774Y-106050010D03*
G04 #@! TO.N,/SWDIO*
X155000000Y-120050000D03*
X152537716Y-102943042D03*
X158800000Y-110100000D03*
G04 #@! TO.N,/SWCLK*
X158385196Y-118735196D03*
X154950000Y-103750000D03*
X158067636Y-110623129D03*
G04 #@! TO.N,Net-(C6-Pad2)*
X138100000Y-100800000D03*
X138100000Y-104400000D03*
X138100000Y-101700000D03*
X138100000Y-103500000D03*
X138100000Y-102600000D03*
X139000000Y-100800000D03*
X139000000Y-104400000D03*
X139000000Y-101700000D03*
X139000000Y-103500000D03*
X139000000Y-102600000D03*
X139900000Y-100800000D03*
X139900000Y-102600000D03*
X140800000Y-101700000D03*
X140800000Y-104400000D03*
X140800000Y-103500000D03*
X140800000Y-102600000D03*
X139900000Y-101700000D03*
X139900000Y-103500000D03*
X139900000Y-104400000D03*
X146800000Y-96200000D03*
X140800000Y-100800000D03*
G04 #@! TD*
D23*
G04 #@! TO.N,Net-(C6-Pad1)*
X103000000Y-85500000D02*
X108000000Y-85500000D01*
X136800000Y-89600000D02*
X136800000Y-76500000D01*
D24*
X146800000Y-90900000D02*
X138100000Y-90900000D01*
D23*
X129700000Y-100600000D02*
X130900000Y-100600000D01*
X136800000Y-94700000D02*
X136800000Y-89600000D01*
X130900000Y-100600000D02*
X136800000Y-94700000D01*
D25*
G04 #@! TO.N,GND*
X159950000Y-115500000D02*
X161900000Y-115500000D01*
X161900000Y-115500000D02*
X161900000Y-115500000D01*
G04 #@! TO.N,/TX*
X155594174Y-105400000D02*
X155736463Y-105542289D01*
X142049991Y-114675011D02*
X151325002Y-105400000D01*
X151325002Y-105400000D02*
X155594174Y-105400000D01*
X133200005Y-115599995D02*
X134124989Y-114675011D01*
X134124989Y-114675011D02*
X142049991Y-114675011D01*
D24*
G04 #@! TO.N,/B*
X137770000Y-118930000D02*
X140000000Y-116700000D01*
X137770000Y-123660000D02*
X137770000Y-118930000D01*
G04 #@! TO.N,+12V*
X123730000Y-123560000D02*
X123720000Y-123550000D01*
X116970000Y-123660000D02*
X116970000Y-123660000D01*
X123730000Y-123660000D02*
X116470000Y-123660000D01*
X116470000Y-123660000D02*
X116460000Y-123650000D01*
X104500000Y-124935787D02*
X104500000Y-122700000D01*
X104500000Y-126350000D02*
X104500000Y-124935787D01*
X116000000Y-111200000D02*
X118775736Y-111200000D01*
X104500000Y-122700000D02*
X116000000Y-111200000D01*
X118775736Y-111200000D02*
X119200000Y-111200000D01*
X123730000Y-123660000D02*
X123730000Y-123020000D01*
D26*
X132720000Y-121150000D02*
X135230000Y-123660000D01*
X123730000Y-123020000D02*
X125600000Y-121150000D01*
X125600000Y-121150000D02*
X132720000Y-121150000D01*
D27*
G04 #@! TO.N,+3V3*
X132500000Y-114900000D02*
X132500000Y-114900000D01*
X133200000Y-114200000D02*
X141589964Y-114200000D01*
X145594979Y-110194985D02*
X145944978Y-109844986D01*
X141589964Y-114200000D02*
X145594979Y-110194985D01*
X132500000Y-114900000D02*
X133200000Y-114200000D01*
X146294977Y-109494987D02*
X145944978Y-109844986D01*
X148800000Y-106989964D02*
X146294977Y-109494987D01*
X148900000Y-101874926D02*
X148800000Y-101974926D01*
X148800000Y-101974926D02*
X148800000Y-106989964D01*
X156874926Y-101874926D02*
X156900000Y-101900000D01*
X148900000Y-101874926D02*
X156874926Y-101874926D01*
X156900000Y-101900000D02*
X159650000Y-104650000D01*
X159400000Y-112000000D02*
X159650000Y-111750000D01*
X159650000Y-111255026D02*
X159650000Y-111750000D01*
X159650000Y-104650000D02*
X159650000Y-111255026D01*
X151425010Y-112000000D02*
X159400000Y-112000000D01*
D24*
G04 #@! TO.N,/A*
X136500000Y-126200000D02*
X137300000Y-126200000D01*
X140000000Y-123500000D02*
X140000000Y-120250000D01*
X137300000Y-126200000D02*
X140000000Y-123500000D01*
D27*
G04 #@! TO.N,+5V*
X152500000Y-136900000D02*
X152500000Y-137040000D01*
X153900000Y-133600000D02*
X153900000Y-135500000D01*
X166540000Y-121460000D02*
X166040000Y-121460000D01*
X153900000Y-135500000D02*
X152500000Y-136900000D01*
X166040000Y-121460000D02*
X153900000Y-133600000D01*
X154100000Y-100349828D02*
X154100000Y-99794974D01*
X141600000Y-113200000D02*
X148200000Y-106600000D01*
X138900010Y-113200000D02*
X141600000Y-113200000D01*
X153349828Y-101100000D02*
X154100000Y-100349828D01*
X154100000Y-99794974D02*
X154100000Y-99300000D01*
X148600000Y-101100000D02*
X153349828Y-101100000D01*
X148200000Y-106600000D02*
X148200000Y-101500000D01*
X148200000Y-101500000D02*
X148600000Y-101100000D01*
D25*
G04 #@! TO.N,/ENCI*
X158285787Y-138500000D02*
X159700000Y-138500000D01*
X150800000Y-138500000D02*
X157000000Y-138500000D01*
X149960000Y-137040000D02*
X149960000Y-137660000D01*
X149960000Y-137660000D02*
X150800000Y-138500000D01*
X157000000Y-138500000D02*
X158285787Y-138500000D01*
X148300022Y-112748983D02*
X152293848Y-108755157D01*
X148300022Y-124099978D02*
X148300022Y-112748983D01*
X152293848Y-108755157D02*
X152643847Y-108405158D01*
X145800000Y-126600001D02*
X148300022Y-124099978D01*
G04 #@! TO.N,/ENCA*
X147900000Y-122900000D02*
X147900000Y-112149994D01*
X147900000Y-112149994D02*
X151400001Y-108649993D01*
X151400001Y-108649993D02*
X151750000Y-108299994D01*
X145900000Y-124900000D02*
X147900000Y-122900000D01*
G04 #@! TO.N,/ENCB*
X151687891Y-107412109D02*
X151897216Y-107412109D01*
X145800000Y-123000000D02*
X147499989Y-121300011D01*
X147499989Y-111600011D02*
X151687891Y-107412109D01*
X147499989Y-121300011D02*
X147499989Y-111600011D01*
G04 #@! TO.N,/RX*
X151500000Y-105800000D02*
X154708764Y-105800000D01*
X154708764Y-105800000D02*
X154958774Y-106050010D01*
X142174978Y-115125022D02*
X151500000Y-105800000D01*
X131800000Y-118399992D02*
X135074970Y-115125022D01*
X135074970Y-115125022D02*
X142174978Y-115125022D01*
G04 #@! TO.N,/SWDIO*
X155000000Y-120050000D02*
X155050000Y-120100000D01*
X153450000Y-118500000D02*
X155000000Y-120050000D01*
X153450000Y-116650000D02*
X153450000Y-118500000D01*
X154600000Y-115500000D02*
X153450000Y-116650000D01*
X158550000Y-109850000D02*
X158800000Y-110100000D01*
X158550000Y-105950000D02*
X158550000Y-109850000D01*
X152537716Y-102943042D02*
X155543042Y-102943042D01*
X155543042Y-102943042D02*
X158550000Y-105950000D01*
G04 #@! TO.N,/SWCLK*
X157100000Y-115500000D02*
X158385196Y-116785196D01*
X158385196Y-116785196D02*
X158385196Y-118240222D01*
X158385196Y-118240222D02*
X158385196Y-118735196D01*
X158150000Y-110540765D02*
X158067636Y-110623129D01*
X158150000Y-106150000D02*
X158150000Y-110540765D01*
X155000000Y-103799988D02*
X155799988Y-103799988D01*
X155799988Y-103799988D02*
X158150000Y-106150000D01*
G04 #@! TO.N,Net-(J5-Pad1)*
X165600000Y-109700000D02*
X164000000Y-111300000D01*
X167500000Y-109700000D02*
X165600000Y-109700000D01*
X168300010Y-110500010D02*
X167500000Y-109700000D01*
X166100000Y-128800000D02*
X168300010Y-126599990D01*
X168300010Y-126599990D02*
X168300010Y-110500010D01*
G04 #@! TO.N,Net-(J5-Pad3)*
X163660000Y-113500000D02*
X164000000Y-113840000D01*
X159950000Y-113500000D02*
X163660000Y-113500000D01*
G04 #@! TO.N,Net-(J5-Pad5)*
X160800000Y-117500000D02*
X159950000Y-117500000D01*
X161658686Y-117500000D02*
X160800000Y-117500000D01*
X164000000Y-116380000D02*
X162778686Y-116380000D01*
X162778686Y-116380000D02*
X161658686Y-117500000D01*
D23*
G04 #@! TO.N,Net-(C6-Pad2)*
X113000000Y-95500000D02*
X114700000Y-95500000D01*
X125100000Y-106800000D02*
X135800000Y-106800000D01*
X113800000Y-95500000D02*
X125100000Y-106800000D01*
X139400000Y-103200000D02*
X139400000Y-101100000D01*
X113000000Y-95500000D02*
X113800000Y-95500000D01*
X135800000Y-106800000D02*
X139400000Y-103200000D01*
X145000000Y-95500000D02*
X167000000Y-95500000D01*
X139400000Y-101400000D02*
X139400000Y-101100000D01*
X139400000Y-101100000D02*
X145000000Y-95500000D01*
X103000000Y-95500000D02*
X113000000Y-95500000D01*
X114700000Y-95500000D02*
X128900000Y-81300000D01*
D25*
G04 #@! TO.N,/6*
X157950000Y-113500000D02*
X158874990Y-114424990D01*
X158874990Y-114424990D02*
X158874990Y-118134626D01*
X157100000Y-113500000D02*
X157950000Y-113500000D01*
X165676401Y-117243599D02*
X166540000Y-116380000D01*
X165270000Y-117650000D02*
X165676401Y-117243599D01*
X162750000Y-117650000D02*
X165270000Y-117650000D01*
X161850012Y-118549988D02*
X162750000Y-117650000D01*
X159290352Y-118549988D02*
X161850012Y-118549988D01*
X158874990Y-118134626D02*
X159290352Y-118549988D01*
G04 #@! TO.N,/2*
X155850000Y-114300000D02*
X155050000Y-113500000D01*
X155850000Y-117100000D02*
X155850000Y-114300000D01*
X157100000Y-117500000D02*
X156250000Y-117500000D01*
X155050000Y-113500000D02*
X154600000Y-113500000D01*
X156250000Y-117500000D02*
X155850000Y-117100000D01*
X165676401Y-112163599D02*
X166540000Y-111300000D01*
X165240000Y-112600000D02*
X165676401Y-112163599D01*
X155700000Y-112600000D02*
X165240000Y-112600000D01*
X154600000Y-113500000D02*
X154800000Y-113500000D01*
X154800000Y-113500000D02*
X155700000Y-112600000D01*
G04 #@! TO.N,/4*
X167403599Y-114703599D02*
X166540000Y-113840000D01*
X154800000Y-117500000D02*
X157500000Y-120200000D01*
X157500000Y-120200000D02*
X167100000Y-120200000D01*
X167100000Y-120200000D02*
X167850000Y-119450000D01*
X154600000Y-117500000D02*
X154800000Y-117500000D01*
X167850000Y-119450000D02*
X167850000Y-115150000D01*
X167850000Y-115150000D02*
X167403599Y-114703599D01*
G04 #@! TD*
D28*
G04 #@! TO.N,GND*
G36*
X123911612Y-110588388D02*
X123952165Y-110615485D01*
X124000000Y-110625000D01*
X137000000Y-110625000D01*
X137047835Y-110615485D01*
X137088388Y-110588388D01*
X148051776Y-99625000D01*
X153449884Y-99625000D01*
X153485374Y-99710680D01*
X153575000Y-99800306D01*
X153575000Y-100132366D01*
X153132367Y-100575000D01*
X148651704Y-100575000D01*
X148599999Y-100564715D01*
X148548294Y-100575000D01*
X148395155Y-100605461D01*
X148221496Y-100721496D01*
X148192205Y-100765333D01*
X147865333Y-101092206D01*
X147821497Y-101121496D01*
X147738048Y-101246387D01*
X147705461Y-101295156D01*
X147664715Y-101500000D01*
X147675001Y-101551711D01*
X147675000Y-106382537D01*
X142675000Y-111382539D01*
X142675000Y-111226495D01*
X142465669Y-110721125D01*
X142419544Y-110675000D01*
X142773505Y-110675000D01*
X143278875Y-110465669D01*
X143665669Y-110078875D01*
X143875000Y-109573505D01*
X143875000Y-109026495D01*
X143665669Y-108521125D01*
X143278875Y-108134331D01*
X142773505Y-107925000D01*
X142226495Y-107925000D01*
X141721125Y-108134331D01*
X141334331Y-108521125D01*
X141125000Y-109026495D01*
X141125000Y-109573505D01*
X141334331Y-110078875D01*
X141380456Y-110125000D01*
X141026495Y-110125000D01*
X140521125Y-110334331D01*
X140134331Y-110721125D01*
X139925000Y-111226495D01*
X139925000Y-111773505D01*
X140134331Y-112278875D01*
X140521125Y-112665669D01*
X140543652Y-112675000D01*
X139400316Y-112675000D01*
X139310690Y-112585374D01*
X139044222Y-112475000D01*
X138755798Y-112475000D01*
X138489330Y-112585374D01*
X138285384Y-112789320D01*
X138175010Y-113055788D01*
X138175010Y-113344212D01*
X138285384Y-113610680D01*
X138349704Y-113675000D01*
X133251704Y-113675000D01*
X133199999Y-113664715D01*
X133148294Y-113675000D01*
X132995155Y-113705461D01*
X132821496Y-113821496D01*
X132792205Y-113865333D01*
X132482538Y-114175000D01*
X132355788Y-114175000D01*
X132089320Y-114285374D01*
X131885374Y-114489320D01*
X131775000Y-114755788D01*
X131775000Y-115044212D01*
X131885374Y-115310680D01*
X132089320Y-115514626D01*
X132355788Y-115625000D01*
X132475005Y-115625000D01*
X132475005Y-115744207D01*
X132585379Y-116010675D01*
X132789325Y-116214621D01*
X133055793Y-116324995D01*
X133203246Y-116324995D01*
X131853250Y-117674992D01*
X131655788Y-117674992D01*
X131389320Y-117785366D01*
X131185374Y-117989312D01*
X131075000Y-118255780D01*
X131075000Y-118544204D01*
X131185374Y-118810672D01*
X131389320Y-119014618D01*
X131655788Y-119124992D01*
X131944212Y-119124992D01*
X132210680Y-119014618D01*
X132414626Y-118810672D01*
X132525000Y-118544204D01*
X132525000Y-118346742D01*
X135271721Y-115600022D01*
X139155434Y-115600022D01*
X138834331Y-115921125D01*
X138625000Y-116426495D01*
X138625000Y-116973505D01*
X138688737Y-117127380D01*
X137371588Y-118444530D01*
X137319401Y-118479400D01*
X137272236Y-118549988D01*
X137181263Y-118686138D01*
X137132756Y-118930000D01*
X137145001Y-118991560D01*
X137145000Y-122538833D01*
X137047770Y-122579107D01*
X136689107Y-122937770D01*
X136553430Y-123265324D01*
X136525220Y-123123501D01*
X136298029Y-122783485D01*
X133788030Y-120273487D01*
X133711319Y-120158681D01*
X133256498Y-119854779D01*
X132855422Y-119775000D01*
X132855417Y-119775000D01*
X132720000Y-119748064D01*
X132584583Y-119775000D01*
X125735416Y-119775000D01*
X125599999Y-119748064D01*
X125464582Y-119775000D01*
X125464578Y-119775000D01*
X125063502Y-119854779D01*
X124944483Y-119934305D01*
X124723485Y-120081971D01*
X124723484Y-120081972D01*
X124608681Y-120158681D01*
X124531972Y-120273484D01*
X122661971Y-122143486D01*
X122434780Y-122483502D01*
X122328064Y-123020000D01*
X122331048Y-123035000D01*
X116869777Y-123035000D01*
X116604212Y-122925000D01*
X116315788Y-122925000D01*
X116049320Y-123035374D01*
X115845374Y-123239320D01*
X115735000Y-123505788D01*
X115735000Y-123794212D01*
X115845374Y-124060680D01*
X116049320Y-124264626D01*
X116315788Y-124375000D01*
X116604212Y-124375000D01*
X116821493Y-124285000D01*
X122608833Y-124285000D01*
X122649107Y-124382230D01*
X123007770Y-124740893D01*
X123476387Y-124935000D01*
X123983613Y-124935000D01*
X124452230Y-124740893D01*
X124810893Y-124382230D01*
X125000000Y-123925684D01*
X125189107Y-124382230D01*
X125547770Y-124740893D01*
X126016387Y-124935000D01*
X126523613Y-124935000D01*
X126992230Y-124740893D01*
X127350893Y-124382230D01*
X127545000Y-123913613D01*
X127545000Y-123406387D01*
X127350893Y-122937770D01*
X126992230Y-122579107D01*
X126861604Y-122525000D01*
X132150457Y-122525000D01*
X134353485Y-124728029D01*
X134693501Y-124955220D01*
X135229999Y-125061936D01*
X135766498Y-124955220D01*
X136221319Y-124651319D01*
X136525220Y-124196498D01*
X136553430Y-124054676D01*
X136689107Y-124382230D01*
X137047770Y-124740893D01*
X137516387Y-124935000D01*
X137681118Y-124935000D01*
X137359620Y-125256497D01*
X137222230Y-125119107D01*
X136753613Y-124925000D01*
X136246387Y-124925000D01*
X135777770Y-125119107D01*
X135419107Y-125477770D01*
X135259286Y-125863612D01*
X135095347Y-125467827D01*
X134891575Y-125374491D01*
X134066066Y-126200000D01*
X134891575Y-127025509D01*
X135095347Y-126932173D01*
X135255450Y-126527127D01*
X135419107Y-126922230D01*
X135777770Y-127280893D01*
X136246387Y-127475000D01*
X136753613Y-127475000D01*
X137222230Y-127280893D01*
X137580893Y-126922230D01*
X137671518Y-126703441D01*
X137750600Y-126650600D01*
X137785472Y-126598410D01*
X140398413Y-123985470D01*
X140450600Y-123950600D01*
X140588737Y-123743863D01*
X140593174Y-123721555D01*
X140637244Y-123500000D01*
X140625000Y-123438445D01*
X140625000Y-122855788D01*
X145075000Y-122855788D01*
X145075000Y-123144212D01*
X145185374Y-123410680D01*
X145389320Y-123614626D01*
X145655788Y-123725000D01*
X145944212Y-123725000D01*
X146210680Y-123614626D01*
X146414626Y-123410680D01*
X146525000Y-123144212D01*
X146525000Y-122946750D01*
X147425000Y-122046751D01*
X147425000Y-122703248D01*
X145953250Y-124175000D01*
X145755788Y-124175000D01*
X145489320Y-124285374D01*
X145285374Y-124489320D01*
X145175000Y-124755788D01*
X145175000Y-125044212D01*
X145285374Y-125310680D01*
X145489320Y-125514626D01*
X145755788Y-125625000D01*
X146044212Y-125625000D01*
X146144997Y-125583254D01*
X145853250Y-125875001D01*
X145655788Y-125875001D01*
X145389320Y-125985375D01*
X145185374Y-126189321D01*
X145075000Y-126455789D01*
X145075000Y-126744213D01*
X145185374Y-127010681D01*
X145389320Y-127214627D01*
X145655788Y-127325001D01*
X145944212Y-127325001D01*
X146210680Y-127214627D01*
X146414626Y-127010681D01*
X146525000Y-126744213D01*
X146525000Y-126546752D01*
X148602821Y-124468930D01*
X148642477Y-124442433D01*
X148727478Y-124315220D01*
X148747461Y-124285314D01*
X148753151Y-124256706D01*
X148775022Y-124146757D01*
X148775022Y-124146753D01*
X148784326Y-124099978D01*
X148775022Y-124053204D01*
X148775022Y-112945733D01*
X152590598Y-109130158D01*
X152788059Y-109130158D01*
X153054527Y-109019784D01*
X153258473Y-108815838D01*
X153368847Y-108549370D01*
X153368847Y-108260946D01*
X153258473Y-107994478D01*
X153054527Y-107790532D01*
X152788059Y-107680158D01*
X152570921Y-107680158D01*
X152622216Y-107556321D01*
X152622216Y-107267897D01*
X152511842Y-107001429D01*
X152307896Y-106797483D01*
X152041428Y-106687109D01*
X151753004Y-106687109D01*
X151486536Y-106797483D01*
X151282590Y-107001429D01*
X151180605Y-107247644D01*
X147197192Y-111231058D01*
X147157535Y-111257556D01*
X147131037Y-111297213D01*
X147131036Y-111297214D01*
X147102902Y-111339320D01*
X147052551Y-111414676D01*
X147026597Y-111545156D01*
X147015685Y-111600011D01*
X147024990Y-111646790D01*
X147024989Y-121103259D01*
X145853250Y-122275000D01*
X145655788Y-122275000D01*
X145389320Y-122385374D01*
X145185374Y-122589320D01*
X145075000Y-122855788D01*
X140625000Y-122855788D01*
X140625000Y-121479406D01*
X140778875Y-121415669D01*
X141165669Y-121028875D01*
X141375000Y-120523505D01*
X141375000Y-119976495D01*
X141165669Y-119471125D01*
X140778875Y-119084331D01*
X140273505Y-118875000D01*
X139726495Y-118875000D01*
X139221125Y-119084331D01*
X138834331Y-119471125D01*
X138625000Y-119976495D01*
X138625000Y-120523505D01*
X138834331Y-121028875D01*
X139221125Y-121415669D01*
X139375001Y-121479406D01*
X139375000Y-123241117D01*
X139045000Y-123571117D01*
X139045000Y-123406387D01*
X138850893Y-122937770D01*
X138492230Y-122579107D01*
X138395000Y-122538833D01*
X138395000Y-119188882D01*
X139572620Y-118011263D01*
X139726495Y-118075000D01*
X140273505Y-118075000D01*
X140778875Y-117865669D01*
X141165669Y-117478875D01*
X141375000Y-116973505D01*
X141375000Y-116426495D01*
X141165669Y-115921125D01*
X140844566Y-115600022D01*
X142128204Y-115600022D01*
X142174978Y-115609326D01*
X142221752Y-115600022D01*
X142221757Y-115600022D01*
X142360313Y-115572461D01*
X142517433Y-115467477D01*
X142543933Y-115427817D01*
X151696751Y-106275000D01*
X154267233Y-106275000D01*
X154344148Y-106460690D01*
X154548094Y-106664636D01*
X154814562Y-106775010D01*
X155102986Y-106775010D01*
X155369454Y-106664636D01*
X155573400Y-106460690D01*
X155653509Y-106267289D01*
X155880675Y-106267289D01*
X156147143Y-106156915D01*
X156351089Y-105952969D01*
X156461463Y-105686501D01*
X156461463Y-105398077D01*
X156351089Y-105131609D01*
X156147143Y-104927663D01*
X155880675Y-104817289D01*
X155592251Y-104817289D01*
X155332212Y-104925000D01*
X151371775Y-104925000D01*
X151325001Y-104915696D01*
X151278227Y-104925000D01*
X151278223Y-104925000D01*
X151139667Y-104952561D01*
X151117619Y-104967293D01*
X151022203Y-105031047D01*
X151022201Y-105031049D01*
X150982547Y-105057545D01*
X150956051Y-105097199D01*
X149325000Y-106728250D01*
X149325000Y-102475232D01*
X149400306Y-102399926D01*
X152055526Y-102399926D01*
X151923090Y-102532362D01*
X151812716Y-102798830D01*
X151812716Y-103087254D01*
X151923090Y-103353722D01*
X152127036Y-103557668D01*
X152393504Y-103668042D01*
X152681928Y-103668042D01*
X152948396Y-103557668D01*
X153088022Y-103418042D01*
X154302766Y-103418042D01*
X154225000Y-103605788D01*
X154225000Y-103894212D01*
X154335374Y-104160680D01*
X154539320Y-104364626D01*
X154805788Y-104475000D01*
X155094212Y-104475000D01*
X155360680Y-104364626D01*
X155450318Y-104274988D01*
X155603238Y-104274988D01*
X157675000Y-106346751D01*
X157675001Y-110001029D01*
X157656956Y-110008503D01*
X157453010Y-110212449D01*
X157342636Y-110478917D01*
X157342636Y-110767341D01*
X157453010Y-111033809D01*
X157656956Y-111237755D01*
X157923424Y-111348129D01*
X158211848Y-111348129D01*
X158478316Y-111237755D01*
X158682262Y-111033809D01*
X158768753Y-110825000D01*
X158944212Y-110825000D01*
X159125001Y-110750115D01*
X159125001Y-111203316D01*
X159125000Y-111203321D01*
X159125000Y-111249694D01*
X159035374Y-111339320D01*
X158979174Y-111475000D01*
X151925316Y-111475000D01*
X151835690Y-111385374D01*
X151569222Y-111275000D01*
X151280798Y-111275000D01*
X151014330Y-111385374D01*
X150810384Y-111589320D01*
X150700010Y-111855788D01*
X150700010Y-112144212D01*
X150810384Y-112410680D01*
X151014330Y-112614626D01*
X151280798Y-112725000D01*
X151569222Y-112725000D01*
X151835690Y-112614626D01*
X151925316Y-112525000D01*
X155103249Y-112525000D01*
X155010596Y-112617653D01*
X153850000Y-112617653D01*
X153703682Y-112646757D01*
X153579640Y-112729640D01*
X153496757Y-112853682D01*
X153467653Y-113000000D01*
X153467653Y-114000000D01*
X153475078Y-114074984D01*
X153503549Y-114143517D01*
X153496757Y-114153682D01*
X153467653Y-114300000D01*
X153467653Y-115960597D01*
X153147205Y-116281045D01*
X153107545Y-116307545D01*
X153002561Y-116464666D01*
X152975000Y-116603222D01*
X152975000Y-116603226D01*
X152965696Y-116650000D01*
X152975000Y-116696774D01*
X152975001Y-118453222D01*
X152965696Y-118500000D01*
X153002562Y-118685335D01*
X153067135Y-118781975D01*
X153107546Y-118842455D01*
X153147203Y-118868953D01*
X154275000Y-119996751D01*
X154275000Y-120194212D01*
X154385374Y-120460680D01*
X154589320Y-120664626D01*
X154855788Y-120775000D01*
X155144212Y-120775000D01*
X155410680Y-120664626D01*
X155614626Y-120460680D01*
X155725000Y-120194212D01*
X155725000Y-119905788D01*
X155614626Y-119639320D01*
X155410680Y-119435374D01*
X155144212Y-119325000D01*
X154946751Y-119325000D01*
X154004097Y-118382347D01*
X155010597Y-118382347D01*
X157131047Y-120502798D01*
X157157545Y-120542455D01*
X157197202Y-120568953D01*
X157314664Y-120647439D01*
X157343272Y-120653129D01*
X157453221Y-120675000D01*
X157453225Y-120675000D01*
X157500000Y-120684304D01*
X157546775Y-120675000D01*
X163034870Y-120675000D01*
X162833265Y-120976722D01*
X162737135Y-121460000D01*
X162833265Y-121943278D01*
X163107020Y-122352980D01*
X163516722Y-122626735D01*
X163878012Y-122698600D01*
X164058938Y-122698600D01*
X153565336Y-133192203D01*
X153521496Y-133221496D01*
X153483770Y-133277957D01*
X153363600Y-133254054D01*
X151636400Y-133254054D01*
X151490083Y-133283158D01*
X151366041Y-133366041D01*
X151283158Y-133490083D01*
X151254054Y-133636400D01*
X151254054Y-135363600D01*
X151283158Y-135509917D01*
X151366041Y-135633959D01*
X151490083Y-135716842D01*
X151636400Y-135745946D01*
X152911592Y-135745946D01*
X152817290Y-135840248D01*
X152621988Y-135801400D01*
X152378012Y-135801400D01*
X152016722Y-135873265D01*
X151607020Y-136147020D01*
X151333265Y-136556722D01*
X151237135Y-137040000D01*
X151333265Y-137523278D01*
X151607020Y-137932980D01*
X151744737Y-138025000D01*
X150996752Y-138025000D01*
X150873709Y-137901957D01*
X151126735Y-137523278D01*
X151222865Y-137040000D01*
X151126735Y-136556722D01*
X150852980Y-136147020D01*
X150443278Y-135873265D01*
X150081988Y-135801400D01*
X149838012Y-135801400D01*
X149476722Y-135873265D01*
X149067020Y-136147020D01*
X148793265Y-136556722D01*
X148697135Y-137040000D01*
X148793265Y-137523278D01*
X149067020Y-137932980D01*
X149476722Y-138206735D01*
X149838012Y-138278600D01*
X149906849Y-138278600D01*
X150431049Y-138802801D01*
X150457545Y-138842455D01*
X150497199Y-138868951D01*
X150497201Y-138868953D01*
X150579140Y-138923702D01*
X150614665Y-138947439D01*
X150753221Y-138975000D01*
X150753225Y-138975000D01*
X150799999Y-138984304D01*
X150846773Y-138975000D01*
X158508462Y-138975000D01*
X158634331Y-139278875D01*
X159021125Y-139665669D01*
X159526495Y-139875000D01*
X160073505Y-139875000D01*
X160578875Y-139665669D01*
X160965669Y-139278875D01*
X161175000Y-138773505D01*
X161175000Y-138226495D01*
X160965669Y-137721125D01*
X160578875Y-137334331D01*
X160073505Y-137125000D01*
X159526495Y-137125000D01*
X159021125Y-137334331D01*
X158634331Y-137721125D01*
X158508462Y-138025000D01*
X153255263Y-138025000D01*
X153392980Y-137932980D01*
X153666735Y-137523278D01*
X153762865Y-137040000D01*
X153666735Y-136556722D01*
X153634293Y-136508169D01*
X154234667Y-135907795D01*
X154278504Y-135878504D01*
X154394539Y-135704845D01*
X154399487Y-135679969D01*
X154435285Y-135500000D01*
X154425000Y-135448294D01*
X154425000Y-134826495D01*
X158425000Y-134826495D01*
X158425000Y-135373505D01*
X158634331Y-135878875D01*
X159021125Y-136265669D01*
X159526495Y-136475000D01*
X160073505Y-136475000D01*
X160578875Y-136265669D01*
X160965669Y-135878875D01*
X161175000Y-135373505D01*
X161175000Y-135107148D01*
X163025000Y-135107148D01*
X163025000Y-135892852D01*
X163325675Y-136618748D01*
X163881252Y-137174325D01*
X164607148Y-137475000D01*
X165392852Y-137475000D01*
X166118748Y-137174325D01*
X166674325Y-136618748D01*
X166975000Y-135892852D01*
X166975000Y-135107148D01*
X166674325Y-134381252D01*
X166118748Y-133825675D01*
X165392852Y-133525000D01*
X164607148Y-133525000D01*
X163881252Y-133825675D01*
X163325675Y-134381252D01*
X163025000Y-135107148D01*
X161175000Y-135107148D01*
X161175000Y-134826495D01*
X160965669Y-134321125D01*
X160578875Y-133934331D01*
X160073505Y-133725000D01*
X159526495Y-133725000D01*
X159021125Y-133934331D01*
X158634331Y-134321125D01*
X158425000Y-134826495D01*
X154425000Y-134826495D01*
X154425000Y-133817461D01*
X156815966Y-131426495D01*
X158425000Y-131426495D01*
X158425000Y-131973505D01*
X158634331Y-132478875D01*
X159021125Y-132865669D01*
X159526495Y-133075000D01*
X160073505Y-133075000D01*
X160578875Y-132865669D01*
X160965669Y-132478875D01*
X161175000Y-131973505D01*
X161175000Y-131426495D01*
X160965669Y-130921125D01*
X160578875Y-130534331D01*
X160073505Y-130325000D01*
X159526495Y-130325000D01*
X159021125Y-130534331D01*
X158634331Y-130921125D01*
X158425000Y-131426495D01*
X156815966Y-131426495D01*
X159442461Y-128800000D01*
X162311001Y-128800000D01*
X162406075Y-129277971D01*
X162676824Y-129683176D01*
X163082029Y-129953925D01*
X163439348Y-130025000D01*
X163680652Y-130025000D01*
X164037971Y-129953925D01*
X164443176Y-129683176D01*
X164713925Y-129277971D01*
X164808999Y-128800000D01*
X164713925Y-128322029D01*
X164443176Y-127916824D01*
X164037971Y-127646075D01*
X163680652Y-127575000D01*
X163439348Y-127575000D01*
X163082029Y-127646075D01*
X162676824Y-127916824D01*
X162406075Y-128322029D01*
X162311001Y-128800000D01*
X159442461Y-128800000D01*
X165792365Y-122450097D01*
X166056722Y-122626735D01*
X166418012Y-122698600D01*
X166661988Y-122698600D01*
X167023278Y-122626735D01*
X167432980Y-122352980D01*
X167706735Y-121943278D01*
X167802865Y-121460000D01*
X167706735Y-120976722D01*
X167432980Y-120567020D01*
X167419335Y-120557903D01*
X167442455Y-120542455D01*
X167468954Y-120502796D01*
X167825010Y-120146741D01*
X167825010Y-126403239D01*
X166660596Y-127567654D01*
X165250000Y-127567654D01*
X165103683Y-127596758D01*
X164979641Y-127679641D01*
X164896758Y-127803683D01*
X164867654Y-127950000D01*
X164867654Y-129650000D01*
X164896758Y-129796317D01*
X164979641Y-129920359D01*
X165103683Y-130003242D01*
X165250000Y-130032346D01*
X166950000Y-130032346D01*
X167096317Y-130003242D01*
X167220359Y-129920359D01*
X167303242Y-129796317D01*
X167332346Y-129650000D01*
X167332346Y-128239404D01*
X168602809Y-126968942D01*
X168642465Y-126942445D01*
X168747449Y-126785325D01*
X168775010Y-126646769D01*
X168775010Y-126646764D01*
X168784314Y-126599990D01*
X168775010Y-126553216D01*
X168775010Y-110546784D01*
X168784314Y-110500010D01*
X168775010Y-110453236D01*
X168775010Y-110453231D01*
X168747449Y-110314675D01*
X168642465Y-110157555D01*
X168602808Y-110131057D01*
X167868955Y-109397204D01*
X167842455Y-109357545D01*
X167685335Y-109252561D01*
X167546779Y-109225000D01*
X167546774Y-109225000D01*
X167500000Y-109215696D01*
X167453226Y-109225000D01*
X165646774Y-109225000D01*
X165600000Y-109215696D01*
X165553226Y-109225000D01*
X165553221Y-109225000D01*
X165414665Y-109252561D01*
X165257545Y-109357545D01*
X165231047Y-109397202D01*
X164574195Y-110054054D01*
X163136400Y-110054054D01*
X162990083Y-110083158D01*
X162866041Y-110166041D01*
X162783158Y-110290083D01*
X162754054Y-110436400D01*
X162754054Y-112125000D01*
X160279405Y-112125000D01*
X160375000Y-111894212D01*
X160375000Y-111605788D01*
X160264626Y-111339320D01*
X160175000Y-111249694D01*
X160175000Y-104701704D01*
X160185285Y-104649999D01*
X160175000Y-104598294D01*
X160144539Y-104445155D01*
X160028504Y-104271496D01*
X159984668Y-104242206D01*
X157625000Y-101882539D01*
X157625000Y-101755788D01*
X157514626Y-101489320D01*
X157310680Y-101285374D01*
X157044212Y-101175000D01*
X156755788Y-101175000D01*
X156489320Y-101285374D01*
X156424768Y-101349926D01*
X153842363Y-101349926D01*
X154434668Y-100757622D01*
X154478504Y-100728332D01*
X154594539Y-100554673D01*
X154625000Y-100401534D01*
X154625000Y-100401533D01*
X154635285Y-100349829D01*
X154625000Y-100298124D01*
X154625000Y-99800306D01*
X154714626Y-99710680D01*
X154750116Y-99625000D01*
X169550001Y-99625000D01*
X169550000Y-140050000D01*
X100450000Y-140050000D01*
X100450000Y-135107148D01*
X103025000Y-135107148D01*
X103025000Y-135892852D01*
X103325675Y-136618748D01*
X103881252Y-137174325D01*
X104607148Y-137475000D01*
X105392852Y-137475000D01*
X106118748Y-137174325D01*
X106253073Y-137040000D01*
X146157135Y-137040000D01*
X146253265Y-137523278D01*
X146527020Y-137932980D01*
X146936722Y-138206735D01*
X147298012Y-138278600D01*
X147541988Y-138278600D01*
X147903278Y-138206735D01*
X148312980Y-137932980D01*
X148586735Y-137523278D01*
X148682865Y-137040000D01*
X148586735Y-136556722D01*
X148312980Y-136147020D01*
X147903278Y-135873265D01*
X147541988Y-135801400D01*
X147298012Y-135801400D01*
X146936722Y-135873265D01*
X146527020Y-136147020D01*
X146253265Y-136556722D01*
X146157135Y-137040000D01*
X106253073Y-137040000D01*
X106674325Y-136618748D01*
X106970468Y-135903793D01*
X113162273Y-135903793D01*
X113267812Y-136117951D01*
X113794204Y-136328397D01*
X114361060Y-136321383D01*
X114852188Y-136117951D01*
X114957727Y-135903793D01*
X114060000Y-135006066D01*
X113162273Y-135903793D01*
X106970468Y-135903793D01*
X106975000Y-135892852D01*
X106975000Y-135107148D01*
X106779101Y-134634204D01*
X112631603Y-134634204D01*
X112638617Y-135201060D01*
X112842049Y-135692188D01*
X113056207Y-135797727D01*
X113953934Y-134900000D01*
X114166066Y-134900000D01*
X115063793Y-135797727D01*
X115277951Y-135692188D01*
X115488397Y-135165796D01*
X115483566Y-134775317D01*
X146161149Y-134775317D01*
X146362333Y-135236101D01*
X146724537Y-135584820D01*
X147144684Y-135758845D01*
X147345000Y-135679969D01*
X147345000Y-134575000D01*
X146239828Y-134575000D01*
X146161149Y-134775317D01*
X115483566Y-134775317D01*
X115481383Y-134598940D01*
X115277951Y-134107812D01*
X115063793Y-134002273D01*
X114166066Y-134900000D01*
X113953934Y-134900000D01*
X113056207Y-134002273D01*
X112842049Y-134107812D01*
X112631603Y-134634204D01*
X106779101Y-134634204D01*
X106674325Y-134381252D01*
X106189280Y-133896207D01*
X113162273Y-133896207D01*
X114060000Y-134793934D01*
X114957727Y-133896207D01*
X114852188Y-133682049D01*
X114325796Y-133471603D01*
X113758940Y-133478617D01*
X113267812Y-133682049D01*
X113162273Y-133896207D01*
X106189280Y-133896207D01*
X106118748Y-133825675D01*
X105392852Y-133525000D01*
X104607148Y-133525000D01*
X103881252Y-133825675D01*
X103325675Y-134381252D01*
X103025000Y-135107148D01*
X100450000Y-135107148D01*
X100450000Y-132152175D01*
X118550000Y-132152175D01*
X118550000Y-132947825D01*
X118854482Y-133682909D01*
X119417091Y-134245518D01*
X120152175Y-134550000D01*
X120947825Y-134550000D01*
X121682909Y-134245518D01*
X122245518Y-133682909D01*
X122550000Y-132947825D01*
X122550000Y-132152175D01*
X126170000Y-132152175D01*
X126170000Y-132947825D01*
X126474482Y-133682909D01*
X127037091Y-134245518D01*
X127772175Y-134550000D01*
X128567825Y-134550000D01*
X129302909Y-134245518D01*
X129865518Y-133682909D01*
X130110000Y-133092678D01*
X130354482Y-133682909D01*
X130917091Y-134245518D01*
X131652175Y-134550000D01*
X132447825Y-134550000D01*
X133182909Y-134245518D01*
X133745518Y-133682909D01*
X134050000Y-132947825D01*
X134050000Y-132152175D01*
X137670000Y-132152175D01*
X137670000Y-132947825D01*
X137974482Y-133682909D01*
X138537091Y-134245518D01*
X139272175Y-134550000D01*
X140067825Y-134550000D01*
X140802909Y-134245518D01*
X140823744Y-134224683D01*
X146161149Y-134224683D01*
X146239828Y-134425000D01*
X147345000Y-134425000D01*
X147345000Y-133320031D01*
X147495000Y-133320031D01*
X147495000Y-134425000D01*
X147515000Y-134425000D01*
X147515000Y-134575000D01*
X147495000Y-134575000D01*
X147495000Y-135679969D01*
X147695316Y-135758845D01*
X148115463Y-135584820D01*
X148477667Y-135236101D01*
X148678851Y-134775317D01*
X148600173Y-134575002D01*
X148708600Y-134575002D01*
X148708600Y-134557638D01*
X148793265Y-134983278D01*
X149067020Y-135392980D01*
X149476722Y-135666735D01*
X149838012Y-135738600D01*
X150081988Y-135738600D01*
X150443278Y-135666735D01*
X150852980Y-135392980D01*
X151126735Y-134983278D01*
X151222865Y-134500000D01*
X151126735Y-134016722D01*
X150852980Y-133607020D01*
X150443278Y-133333265D01*
X150081988Y-133261400D01*
X149838012Y-133261400D01*
X149476722Y-133333265D01*
X149067020Y-133607020D01*
X148793265Y-134016722D01*
X148708600Y-134442362D01*
X148708600Y-134424998D01*
X148600173Y-134424998D01*
X148678851Y-134224683D01*
X148477667Y-133763899D01*
X148115463Y-133415180D01*
X147695316Y-133241155D01*
X147495000Y-133320031D01*
X147345000Y-133320031D01*
X147144684Y-133241155D01*
X146724537Y-133415180D01*
X146362333Y-133763899D01*
X146161149Y-134224683D01*
X140823744Y-134224683D01*
X141365518Y-133682909D01*
X141670000Y-132947825D01*
X141670000Y-132152175D01*
X141365518Y-131417091D01*
X140802909Y-130854482D01*
X140067825Y-130550000D01*
X139272175Y-130550000D01*
X138537091Y-130854482D01*
X137974482Y-131417091D01*
X137670000Y-132152175D01*
X134050000Y-132152175D01*
X133745518Y-131417091D01*
X133182909Y-130854482D01*
X132447825Y-130550000D01*
X131652175Y-130550000D01*
X130917091Y-130854482D01*
X130354482Y-131417091D01*
X130110000Y-132007322D01*
X129865518Y-131417091D01*
X129302909Y-130854482D01*
X128567825Y-130550000D01*
X127772175Y-130550000D01*
X127037091Y-130854482D01*
X126474482Y-131417091D01*
X126170000Y-132152175D01*
X122550000Y-132152175D01*
X122245518Y-131417091D01*
X121682909Y-130854482D01*
X120947825Y-130550000D01*
X120152175Y-130550000D01*
X119417091Y-130854482D01*
X118854482Y-131417091D01*
X118550000Y-132152175D01*
X100450000Y-132152175D01*
X100450000Y-123559336D01*
X101746730Y-123559336D01*
X101827858Y-123752722D01*
X102281882Y-123929806D01*
X102769111Y-123919662D01*
X103172142Y-123752722D01*
X103253270Y-123559336D01*
X102500000Y-122806066D01*
X101746730Y-123559336D01*
X100450000Y-123559336D01*
X100450000Y-122481882D01*
X101270194Y-122481882D01*
X101280338Y-122969111D01*
X101447278Y-123372142D01*
X101640664Y-123453270D01*
X102393934Y-122700000D01*
X102606066Y-122700000D01*
X103359336Y-123453270D01*
X103522936Y-123384637D01*
X103834416Y-123696117D01*
X103875001Y-123712928D01*
X103875000Y-124997341D01*
X103875001Y-124997346D01*
X103875001Y-125120594D01*
X103721125Y-125184331D01*
X103334331Y-125571125D01*
X103125000Y-126076495D01*
X103125000Y-126623505D01*
X103334331Y-127128875D01*
X103721125Y-127515669D01*
X104226495Y-127725000D01*
X104773505Y-127725000D01*
X105278875Y-127515669D01*
X105662969Y-127131575D01*
X121634491Y-127131575D01*
X121727827Y-127335347D01*
X122218039Y-127529114D01*
X122745087Y-127520536D01*
X123192173Y-127335347D01*
X123285509Y-127131575D01*
X122460000Y-126306066D01*
X121634491Y-127131575D01*
X105662969Y-127131575D01*
X105665669Y-127128875D01*
X105875000Y-126623505D01*
X105875000Y-126076495D01*
X105825934Y-125958039D01*
X121130886Y-125958039D01*
X121139464Y-126485087D01*
X121324653Y-126932173D01*
X121528425Y-127025509D01*
X122353934Y-126200000D01*
X122566066Y-126200000D01*
X123391575Y-127025509D01*
X123595347Y-126932173D01*
X123755450Y-126527127D01*
X123919107Y-126922230D01*
X124277770Y-127280893D01*
X124746387Y-127475000D01*
X125253613Y-127475000D01*
X125722230Y-127280893D01*
X125871548Y-127131575D01*
X133134491Y-127131575D01*
X133227827Y-127335347D01*
X133718039Y-127529114D01*
X134245087Y-127520536D01*
X134692173Y-127335347D01*
X134785509Y-127131575D01*
X133960000Y-126306066D01*
X133134491Y-127131575D01*
X125871548Y-127131575D01*
X126080893Y-126922230D01*
X126275000Y-126453613D01*
X126275000Y-125958039D01*
X132630886Y-125958039D01*
X132639464Y-126485087D01*
X132824653Y-126932173D01*
X133028425Y-127025509D01*
X133853934Y-126200000D01*
X133028425Y-125374491D01*
X132824653Y-125467827D01*
X132630886Y-125958039D01*
X126275000Y-125958039D01*
X126275000Y-125946387D01*
X126080893Y-125477770D01*
X125871548Y-125268425D01*
X133134491Y-125268425D01*
X133960000Y-126093934D01*
X134785509Y-125268425D01*
X134692173Y-125064653D01*
X134201961Y-124870886D01*
X133674913Y-124879464D01*
X133227827Y-125064653D01*
X133134491Y-125268425D01*
X125871548Y-125268425D01*
X125722230Y-125119107D01*
X125253613Y-124925000D01*
X124746387Y-124925000D01*
X124277770Y-125119107D01*
X123919107Y-125477770D01*
X123759286Y-125863612D01*
X123595347Y-125467827D01*
X123391575Y-125374491D01*
X122566066Y-126200000D01*
X122353934Y-126200000D01*
X121528425Y-125374491D01*
X121324653Y-125467827D01*
X121130886Y-125958039D01*
X105825934Y-125958039D01*
X105665669Y-125571125D01*
X105362969Y-125268425D01*
X121634491Y-125268425D01*
X122460000Y-126093934D01*
X123285509Y-125268425D01*
X123192173Y-125064653D01*
X122701961Y-124870886D01*
X122174913Y-124879464D01*
X121727827Y-125064653D01*
X121634491Y-125268425D01*
X105362969Y-125268425D01*
X105278875Y-125184331D01*
X105125000Y-125120594D01*
X105125000Y-123712927D01*
X105165584Y-123696117D01*
X105496117Y-123365584D01*
X105675000Y-122933722D01*
X105675000Y-122466278D01*
X105658189Y-122425693D01*
X112957387Y-115126495D01*
X119925000Y-115126495D01*
X119925000Y-115673505D01*
X120134331Y-116178875D01*
X120521125Y-116565669D01*
X121026495Y-116775000D01*
X121573505Y-116775000D01*
X122078875Y-116565669D01*
X122465669Y-116178875D01*
X122675000Y-115673505D01*
X122675000Y-115126495D01*
X122465669Y-114621125D01*
X122078875Y-114234331D01*
X121573505Y-114025000D01*
X121026495Y-114025000D01*
X120521125Y-114234331D01*
X120134331Y-114621125D01*
X119925000Y-115126495D01*
X112957387Y-115126495D01*
X116258883Y-111825000D01*
X118814365Y-111825000D01*
X119055788Y-111925000D01*
X119344212Y-111925000D01*
X119610680Y-111814626D01*
X119814626Y-111610680D01*
X119925000Y-111344212D01*
X119925000Y-111055788D01*
X119814626Y-110789320D01*
X119610680Y-110585374D01*
X119344212Y-110475000D01*
X119055788Y-110475000D01*
X118814365Y-110575000D01*
X116061555Y-110575000D01*
X116000000Y-110562756D01*
X115798799Y-110602777D01*
X115756137Y-110611263D01*
X115549400Y-110749400D01*
X115514529Y-110801588D01*
X104774307Y-121541811D01*
X104733722Y-121525000D01*
X104266278Y-121525000D01*
X103834416Y-121703883D01*
X103522936Y-122015363D01*
X103359336Y-121946730D01*
X102606066Y-122700000D01*
X102393934Y-122700000D01*
X101640664Y-121946730D01*
X101447278Y-122027858D01*
X101270194Y-122481882D01*
X100450000Y-122481882D01*
X100450000Y-121840664D01*
X101746730Y-121840664D01*
X102500000Y-122593934D01*
X103253270Y-121840664D01*
X103172142Y-121647278D01*
X102718118Y-121470194D01*
X102230889Y-121480338D01*
X101827858Y-121647278D01*
X101746730Y-121840664D01*
X100450000Y-121840664D01*
X100450000Y-111026495D01*
X106525000Y-111026495D01*
X106525000Y-111573505D01*
X106734331Y-112078875D01*
X107121125Y-112465669D01*
X107626495Y-112675000D01*
X108173505Y-112675000D01*
X108678875Y-112465669D01*
X109065669Y-112078875D01*
X109275000Y-111573505D01*
X109275000Y-111026495D01*
X109065669Y-110521125D01*
X108678875Y-110134331D01*
X108173505Y-109925000D01*
X107626495Y-109925000D01*
X107121125Y-110134331D01*
X106734331Y-110521125D01*
X106525000Y-111026495D01*
X100450000Y-111026495D01*
X100450000Y-99625000D01*
X112948224Y-99625000D01*
X123911612Y-110588388D01*
X123911612Y-110588388D01*
G37*
X123911612Y-110588388D02*
X123952165Y-110615485D01*
X124000000Y-110625000D01*
X137000000Y-110625000D01*
X137047835Y-110615485D01*
X137088388Y-110588388D01*
X148051776Y-99625000D01*
X153449884Y-99625000D01*
X153485374Y-99710680D01*
X153575000Y-99800306D01*
X153575000Y-100132366D01*
X153132367Y-100575000D01*
X148651704Y-100575000D01*
X148599999Y-100564715D01*
X148548294Y-100575000D01*
X148395155Y-100605461D01*
X148221496Y-100721496D01*
X148192205Y-100765333D01*
X147865333Y-101092206D01*
X147821497Y-101121496D01*
X147738048Y-101246387D01*
X147705461Y-101295156D01*
X147664715Y-101500000D01*
X147675001Y-101551711D01*
X147675000Y-106382537D01*
X142675000Y-111382539D01*
X142675000Y-111226495D01*
X142465669Y-110721125D01*
X142419544Y-110675000D01*
X142773505Y-110675000D01*
X143278875Y-110465669D01*
X143665669Y-110078875D01*
X143875000Y-109573505D01*
X143875000Y-109026495D01*
X143665669Y-108521125D01*
X143278875Y-108134331D01*
X142773505Y-107925000D01*
X142226495Y-107925000D01*
X141721125Y-108134331D01*
X141334331Y-108521125D01*
X141125000Y-109026495D01*
X141125000Y-109573505D01*
X141334331Y-110078875D01*
X141380456Y-110125000D01*
X141026495Y-110125000D01*
X140521125Y-110334331D01*
X140134331Y-110721125D01*
X139925000Y-111226495D01*
X139925000Y-111773505D01*
X140134331Y-112278875D01*
X140521125Y-112665669D01*
X140543652Y-112675000D01*
X139400316Y-112675000D01*
X139310690Y-112585374D01*
X139044222Y-112475000D01*
X138755798Y-112475000D01*
X138489330Y-112585374D01*
X138285384Y-112789320D01*
X138175010Y-113055788D01*
X138175010Y-113344212D01*
X138285384Y-113610680D01*
X138349704Y-113675000D01*
X133251704Y-113675000D01*
X133199999Y-113664715D01*
X133148294Y-113675000D01*
X132995155Y-113705461D01*
X132821496Y-113821496D01*
X132792205Y-113865333D01*
X132482538Y-114175000D01*
X132355788Y-114175000D01*
X132089320Y-114285374D01*
X131885374Y-114489320D01*
X131775000Y-114755788D01*
X131775000Y-115044212D01*
X131885374Y-115310680D01*
X132089320Y-115514626D01*
X132355788Y-115625000D01*
X132475005Y-115625000D01*
X132475005Y-115744207D01*
X132585379Y-116010675D01*
X132789325Y-116214621D01*
X133055793Y-116324995D01*
X133203246Y-116324995D01*
X131853250Y-117674992D01*
X131655788Y-117674992D01*
X131389320Y-117785366D01*
X131185374Y-117989312D01*
X131075000Y-118255780D01*
X131075000Y-118544204D01*
X131185374Y-118810672D01*
X131389320Y-119014618D01*
X131655788Y-119124992D01*
X131944212Y-119124992D01*
X132210680Y-119014618D01*
X132414626Y-118810672D01*
X132525000Y-118544204D01*
X132525000Y-118346742D01*
X135271721Y-115600022D01*
X139155434Y-115600022D01*
X138834331Y-115921125D01*
X138625000Y-116426495D01*
X138625000Y-116973505D01*
X138688737Y-117127380D01*
X137371588Y-118444530D01*
X137319401Y-118479400D01*
X137272236Y-118549988D01*
X137181263Y-118686138D01*
X137132756Y-118930000D01*
X137145001Y-118991560D01*
X137145000Y-122538833D01*
X137047770Y-122579107D01*
X136689107Y-122937770D01*
X136553430Y-123265324D01*
X136525220Y-123123501D01*
X136298029Y-122783485D01*
X133788030Y-120273487D01*
X133711319Y-120158681D01*
X133256498Y-119854779D01*
X132855422Y-119775000D01*
X132855417Y-119775000D01*
X132720000Y-119748064D01*
X132584583Y-119775000D01*
X125735416Y-119775000D01*
X125599999Y-119748064D01*
X125464582Y-119775000D01*
X125464578Y-119775000D01*
X125063502Y-119854779D01*
X124944483Y-119934305D01*
X124723485Y-120081971D01*
X124723484Y-120081972D01*
X124608681Y-120158681D01*
X124531972Y-120273484D01*
X122661971Y-122143486D01*
X122434780Y-122483502D01*
X122328064Y-123020000D01*
X122331048Y-123035000D01*
X116869777Y-123035000D01*
X116604212Y-122925000D01*
X116315788Y-122925000D01*
X116049320Y-123035374D01*
X115845374Y-123239320D01*
X115735000Y-123505788D01*
X115735000Y-123794212D01*
X115845374Y-124060680D01*
X116049320Y-124264626D01*
X116315788Y-124375000D01*
X116604212Y-124375000D01*
X116821493Y-124285000D01*
X122608833Y-124285000D01*
X122649107Y-124382230D01*
X123007770Y-124740893D01*
X123476387Y-124935000D01*
X123983613Y-124935000D01*
X124452230Y-124740893D01*
X124810893Y-124382230D01*
X125000000Y-123925684D01*
X125189107Y-124382230D01*
X125547770Y-124740893D01*
X126016387Y-124935000D01*
X126523613Y-124935000D01*
X126992230Y-124740893D01*
X127350893Y-124382230D01*
X127545000Y-123913613D01*
X127545000Y-123406387D01*
X127350893Y-122937770D01*
X126992230Y-122579107D01*
X126861604Y-122525000D01*
X132150457Y-122525000D01*
X134353485Y-124728029D01*
X134693501Y-124955220D01*
X135229999Y-125061936D01*
X135766498Y-124955220D01*
X136221319Y-124651319D01*
X136525220Y-124196498D01*
X136553430Y-124054676D01*
X136689107Y-124382230D01*
X137047770Y-124740893D01*
X137516387Y-124935000D01*
X137681118Y-124935000D01*
X137359620Y-125256497D01*
X137222230Y-125119107D01*
X136753613Y-124925000D01*
X136246387Y-124925000D01*
X135777770Y-125119107D01*
X135419107Y-125477770D01*
X135259286Y-125863612D01*
X135095347Y-125467827D01*
X134891575Y-125374491D01*
X134066066Y-126200000D01*
X134891575Y-127025509D01*
X135095347Y-126932173D01*
X135255450Y-126527127D01*
X135419107Y-126922230D01*
X135777770Y-127280893D01*
X136246387Y-127475000D01*
X136753613Y-127475000D01*
X137222230Y-127280893D01*
X137580893Y-126922230D01*
X137671518Y-126703441D01*
X137750600Y-126650600D01*
X137785472Y-126598410D01*
X140398413Y-123985470D01*
X140450600Y-123950600D01*
X140588737Y-123743863D01*
X140593174Y-123721555D01*
X140637244Y-123500000D01*
X140625000Y-123438445D01*
X140625000Y-122855788D01*
X145075000Y-122855788D01*
X145075000Y-123144212D01*
X145185374Y-123410680D01*
X145389320Y-123614626D01*
X145655788Y-123725000D01*
X145944212Y-123725000D01*
X146210680Y-123614626D01*
X146414626Y-123410680D01*
X146525000Y-123144212D01*
X146525000Y-122946750D01*
X147425000Y-122046751D01*
X147425000Y-122703248D01*
X145953250Y-124175000D01*
X145755788Y-124175000D01*
X145489320Y-124285374D01*
X145285374Y-124489320D01*
X145175000Y-124755788D01*
X145175000Y-125044212D01*
X145285374Y-125310680D01*
X145489320Y-125514626D01*
X145755788Y-125625000D01*
X146044212Y-125625000D01*
X146144997Y-125583254D01*
X145853250Y-125875001D01*
X145655788Y-125875001D01*
X145389320Y-125985375D01*
X145185374Y-126189321D01*
X145075000Y-126455789D01*
X145075000Y-126744213D01*
X145185374Y-127010681D01*
X145389320Y-127214627D01*
X145655788Y-127325001D01*
X145944212Y-127325001D01*
X146210680Y-127214627D01*
X146414626Y-127010681D01*
X146525000Y-126744213D01*
X146525000Y-126546752D01*
X148602821Y-124468930D01*
X148642477Y-124442433D01*
X148727478Y-124315220D01*
X148747461Y-124285314D01*
X148753151Y-124256706D01*
X148775022Y-124146757D01*
X148775022Y-124146753D01*
X148784326Y-124099978D01*
X148775022Y-124053204D01*
X148775022Y-112945733D01*
X152590598Y-109130158D01*
X152788059Y-109130158D01*
X153054527Y-109019784D01*
X153258473Y-108815838D01*
X153368847Y-108549370D01*
X153368847Y-108260946D01*
X153258473Y-107994478D01*
X153054527Y-107790532D01*
X152788059Y-107680158D01*
X152570921Y-107680158D01*
X152622216Y-107556321D01*
X152622216Y-107267897D01*
X152511842Y-107001429D01*
X152307896Y-106797483D01*
X152041428Y-106687109D01*
X151753004Y-106687109D01*
X151486536Y-106797483D01*
X151282590Y-107001429D01*
X151180605Y-107247644D01*
X147197192Y-111231058D01*
X147157535Y-111257556D01*
X147131037Y-111297213D01*
X147131036Y-111297214D01*
X147102902Y-111339320D01*
X147052551Y-111414676D01*
X147026597Y-111545156D01*
X147015685Y-111600011D01*
X147024990Y-111646790D01*
X147024989Y-121103259D01*
X145853250Y-122275000D01*
X145655788Y-122275000D01*
X145389320Y-122385374D01*
X145185374Y-122589320D01*
X145075000Y-122855788D01*
X140625000Y-122855788D01*
X140625000Y-121479406D01*
X140778875Y-121415669D01*
X141165669Y-121028875D01*
X141375000Y-120523505D01*
X141375000Y-119976495D01*
X141165669Y-119471125D01*
X140778875Y-119084331D01*
X140273505Y-118875000D01*
X139726495Y-118875000D01*
X139221125Y-119084331D01*
X138834331Y-119471125D01*
X138625000Y-119976495D01*
X138625000Y-120523505D01*
X138834331Y-121028875D01*
X139221125Y-121415669D01*
X139375001Y-121479406D01*
X139375000Y-123241117D01*
X139045000Y-123571117D01*
X139045000Y-123406387D01*
X138850893Y-122937770D01*
X138492230Y-122579107D01*
X138395000Y-122538833D01*
X138395000Y-119188882D01*
X139572620Y-118011263D01*
X139726495Y-118075000D01*
X140273505Y-118075000D01*
X140778875Y-117865669D01*
X141165669Y-117478875D01*
X141375000Y-116973505D01*
X141375000Y-116426495D01*
X141165669Y-115921125D01*
X140844566Y-115600022D01*
X142128204Y-115600022D01*
X142174978Y-115609326D01*
X142221752Y-115600022D01*
X142221757Y-115600022D01*
X142360313Y-115572461D01*
X142517433Y-115467477D01*
X142543933Y-115427817D01*
X151696751Y-106275000D01*
X154267233Y-106275000D01*
X154344148Y-106460690D01*
X154548094Y-106664636D01*
X154814562Y-106775010D01*
X155102986Y-106775010D01*
X155369454Y-106664636D01*
X155573400Y-106460690D01*
X155653509Y-106267289D01*
X155880675Y-106267289D01*
X156147143Y-106156915D01*
X156351089Y-105952969D01*
X156461463Y-105686501D01*
X156461463Y-105398077D01*
X156351089Y-105131609D01*
X156147143Y-104927663D01*
X155880675Y-104817289D01*
X155592251Y-104817289D01*
X155332212Y-104925000D01*
X151371775Y-104925000D01*
X151325001Y-104915696D01*
X151278227Y-104925000D01*
X151278223Y-104925000D01*
X151139667Y-104952561D01*
X151117619Y-104967293D01*
X151022203Y-105031047D01*
X151022201Y-105031049D01*
X150982547Y-105057545D01*
X150956051Y-105097199D01*
X149325000Y-106728250D01*
X149325000Y-102475232D01*
X149400306Y-102399926D01*
X152055526Y-102399926D01*
X151923090Y-102532362D01*
X151812716Y-102798830D01*
X151812716Y-103087254D01*
X151923090Y-103353722D01*
X152127036Y-103557668D01*
X152393504Y-103668042D01*
X152681928Y-103668042D01*
X152948396Y-103557668D01*
X153088022Y-103418042D01*
X154302766Y-103418042D01*
X154225000Y-103605788D01*
X154225000Y-103894212D01*
X154335374Y-104160680D01*
X154539320Y-104364626D01*
X154805788Y-104475000D01*
X155094212Y-104475000D01*
X155360680Y-104364626D01*
X155450318Y-104274988D01*
X155603238Y-104274988D01*
X157675000Y-106346751D01*
X157675001Y-110001029D01*
X157656956Y-110008503D01*
X157453010Y-110212449D01*
X157342636Y-110478917D01*
X157342636Y-110767341D01*
X157453010Y-111033809D01*
X157656956Y-111237755D01*
X157923424Y-111348129D01*
X158211848Y-111348129D01*
X158478316Y-111237755D01*
X158682262Y-111033809D01*
X158768753Y-110825000D01*
X158944212Y-110825000D01*
X159125001Y-110750115D01*
X159125001Y-111203316D01*
X159125000Y-111203321D01*
X159125000Y-111249694D01*
X159035374Y-111339320D01*
X158979174Y-111475000D01*
X151925316Y-111475000D01*
X151835690Y-111385374D01*
X151569222Y-111275000D01*
X151280798Y-111275000D01*
X151014330Y-111385374D01*
X150810384Y-111589320D01*
X150700010Y-111855788D01*
X150700010Y-112144212D01*
X150810384Y-112410680D01*
X151014330Y-112614626D01*
X151280798Y-112725000D01*
X151569222Y-112725000D01*
X151835690Y-112614626D01*
X151925316Y-112525000D01*
X155103249Y-112525000D01*
X155010596Y-112617653D01*
X153850000Y-112617653D01*
X153703682Y-112646757D01*
X153579640Y-112729640D01*
X153496757Y-112853682D01*
X153467653Y-113000000D01*
X153467653Y-114000000D01*
X153475078Y-114074984D01*
X153503549Y-114143517D01*
X153496757Y-114153682D01*
X153467653Y-114300000D01*
X153467653Y-115960597D01*
X153147205Y-116281045D01*
X153107545Y-116307545D01*
X153002561Y-116464666D01*
X152975000Y-116603222D01*
X152975000Y-116603226D01*
X152965696Y-116650000D01*
X152975000Y-116696774D01*
X152975001Y-118453222D01*
X152965696Y-118500000D01*
X153002562Y-118685335D01*
X153067135Y-118781975D01*
X153107546Y-118842455D01*
X153147203Y-118868953D01*
X154275000Y-119996751D01*
X154275000Y-120194212D01*
X154385374Y-120460680D01*
X154589320Y-120664626D01*
X154855788Y-120775000D01*
X155144212Y-120775000D01*
X155410680Y-120664626D01*
X155614626Y-120460680D01*
X155725000Y-120194212D01*
X155725000Y-119905788D01*
X155614626Y-119639320D01*
X155410680Y-119435374D01*
X155144212Y-119325000D01*
X154946751Y-119325000D01*
X154004097Y-118382347D01*
X155010597Y-118382347D01*
X157131047Y-120502798D01*
X157157545Y-120542455D01*
X157197202Y-120568953D01*
X157314664Y-120647439D01*
X157343272Y-120653129D01*
X157453221Y-120675000D01*
X157453225Y-120675000D01*
X157500000Y-120684304D01*
X157546775Y-120675000D01*
X163034870Y-120675000D01*
X162833265Y-120976722D01*
X162737135Y-121460000D01*
X162833265Y-121943278D01*
X163107020Y-122352980D01*
X163516722Y-122626735D01*
X163878012Y-122698600D01*
X164058938Y-122698600D01*
X153565336Y-133192203D01*
X153521496Y-133221496D01*
X153483770Y-133277957D01*
X153363600Y-133254054D01*
X151636400Y-133254054D01*
X151490083Y-133283158D01*
X151366041Y-133366041D01*
X151283158Y-133490083D01*
X151254054Y-133636400D01*
X151254054Y-135363600D01*
X151283158Y-135509917D01*
X151366041Y-135633959D01*
X151490083Y-135716842D01*
X151636400Y-135745946D01*
X152911592Y-135745946D01*
X152817290Y-135840248D01*
X152621988Y-135801400D01*
X152378012Y-135801400D01*
X152016722Y-135873265D01*
X151607020Y-136147020D01*
X151333265Y-136556722D01*
X151237135Y-137040000D01*
X151333265Y-137523278D01*
X151607020Y-137932980D01*
X151744737Y-138025000D01*
X150996752Y-138025000D01*
X150873709Y-137901957D01*
X151126735Y-137523278D01*
X151222865Y-137040000D01*
X151126735Y-136556722D01*
X150852980Y-136147020D01*
X150443278Y-135873265D01*
X150081988Y-135801400D01*
X149838012Y-135801400D01*
X149476722Y-135873265D01*
X149067020Y-136147020D01*
X148793265Y-136556722D01*
X148697135Y-137040000D01*
X148793265Y-137523278D01*
X149067020Y-137932980D01*
X149476722Y-138206735D01*
X149838012Y-138278600D01*
X149906849Y-138278600D01*
X150431049Y-138802801D01*
X150457545Y-138842455D01*
X150497199Y-138868951D01*
X150497201Y-138868953D01*
X150579140Y-138923702D01*
X150614665Y-138947439D01*
X150753221Y-138975000D01*
X150753225Y-138975000D01*
X150799999Y-138984304D01*
X150846773Y-138975000D01*
X158508462Y-138975000D01*
X158634331Y-139278875D01*
X159021125Y-139665669D01*
X159526495Y-139875000D01*
X160073505Y-139875000D01*
X160578875Y-139665669D01*
X160965669Y-139278875D01*
X161175000Y-138773505D01*
X161175000Y-138226495D01*
X160965669Y-137721125D01*
X160578875Y-137334331D01*
X160073505Y-137125000D01*
X159526495Y-137125000D01*
X159021125Y-137334331D01*
X158634331Y-137721125D01*
X158508462Y-138025000D01*
X153255263Y-138025000D01*
X153392980Y-137932980D01*
X153666735Y-137523278D01*
X153762865Y-137040000D01*
X153666735Y-136556722D01*
X153634293Y-136508169D01*
X154234667Y-135907795D01*
X154278504Y-135878504D01*
X154394539Y-135704845D01*
X154399487Y-135679969D01*
X154435285Y-135500000D01*
X154425000Y-135448294D01*
X154425000Y-134826495D01*
X158425000Y-134826495D01*
X158425000Y-135373505D01*
X158634331Y-135878875D01*
X159021125Y-136265669D01*
X159526495Y-136475000D01*
X160073505Y-136475000D01*
X160578875Y-136265669D01*
X160965669Y-135878875D01*
X161175000Y-135373505D01*
X161175000Y-135107148D01*
X163025000Y-135107148D01*
X163025000Y-135892852D01*
X163325675Y-136618748D01*
X163881252Y-137174325D01*
X164607148Y-137475000D01*
X165392852Y-137475000D01*
X166118748Y-137174325D01*
X166674325Y-136618748D01*
X166975000Y-135892852D01*
X166975000Y-135107148D01*
X166674325Y-134381252D01*
X166118748Y-133825675D01*
X165392852Y-133525000D01*
X164607148Y-133525000D01*
X163881252Y-133825675D01*
X163325675Y-134381252D01*
X163025000Y-135107148D01*
X161175000Y-135107148D01*
X161175000Y-134826495D01*
X160965669Y-134321125D01*
X160578875Y-133934331D01*
X160073505Y-133725000D01*
X159526495Y-133725000D01*
X159021125Y-133934331D01*
X158634331Y-134321125D01*
X158425000Y-134826495D01*
X154425000Y-134826495D01*
X154425000Y-133817461D01*
X156815966Y-131426495D01*
X158425000Y-131426495D01*
X158425000Y-131973505D01*
X158634331Y-132478875D01*
X159021125Y-132865669D01*
X159526495Y-133075000D01*
X160073505Y-133075000D01*
X160578875Y-132865669D01*
X160965669Y-132478875D01*
X161175000Y-131973505D01*
X161175000Y-131426495D01*
X160965669Y-130921125D01*
X160578875Y-130534331D01*
X160073505Y-130325000D01*
X159526495Y-130325000D01*
X159021125Y-130534331D01*
X158634331Y-130921125D01*
X158425000Y-131426495D01*
X156815966Y-131426495D01*
X159442461Y-128800000D01*
X162311001Y-128800000D01*
X162406075Y-129277971D01*
X162676824Y-129683176D01*
X163082029Y-129953925D01*
X163439348Y-130025000D01*
X163680652Y-130025000D01*
X164037971Y-129953925D01*
X164443176Y-129683176D01*
X164713925Y-129277971D01*
X164808999Y-128800000D01*
X164713925Y-128322029D01*
X164443176Y-127916824D01*
X164037971Y-127646075D01*
X163680652Y-127575000D01*
X163439348Y-127575000D01*
X163082029Y-127646075D01*
X162676824Y-127916824D01*
X162406075Y-128322029D01*
X162311001Y-128800000D01*
X159442461Y-128800000D01*
X165792365Y-122450097D01*
X166056722Y-122626735D01*
X166418012Y-122698600D01*
X166661988Y-122698600D01*
X167023278Y-122626735D01*
X167432980Y-122352980D01*
X167706735Y-121943278D01*
X167802865Y-121460000D01*
X167706735Y-120976722D01*
X167432980Y-120567020D01*
X167419335Y-120557903D01*
X167442455Y-120542455D01*
X167468954Y-120502796D01*
X167825010Y-120146741D01*
X167825010Y-126403239D01*
X166660596Y-127567654D01*
X165250000Y-127567654D01*
X165103683Y-127596758D01*
X164979641Y-127679641D01*
X164896758Y-127803683D01*
X164867654Y-127950000D01*
X164867654Y-129650000D01*
X164896758Y-129796317D01*
X164979641Y-129920359D01*
X165103683Y-130003242D01*
X165250000Y-130032346D01*
X166950000Y-130032346D01*
X167096317Y-130003242D01*
X167220359Y-129920359D01*
X167303242Y-129796317D01*
X167332346Y-129650000D01*
X167332346Y-128239404D01*
X168602809Y-126968942D01*
X168642465Y-126942445D01*
X168747449Y-126785325D01*
X168775010Y-126646769D01*
X168775010Y-126646764D01*
X168784314Y-126599990D01*
X168775010Y-126553216D01*
X168775010Y-110546784D01*
X168784314Y-110500010D01*
X168775010Y-110453236D01*
X168775010Y-110453231D01*
X168747449Y-110314675D01*
X168642465Y-110157555D01*
X168602808Y-110131057D01*
X167868955Y-109397204D01*
X167842455Y-109357545D01*
X167685335Y-109252561D01*
X167546779Y-109225000D01*
X167546774Y-109225000D01*
X167500000Y-109215696D01*
X167453226Y-109225000D01*
X165646774Y-109225000D01*
X165600000Y-109215696D01*
X165553226Y-109225000D01*
X165553221Y-109225000D01*
X165414665Y-109252561D01*
X165257545Y-109357545D01*
X165231047Y-109397202D01*
X164574195Y-110054054D01*
X163136400Y-110054054D01*
X162990083Y-110083158D01*
X162866041Y-110166041D01*
X162783158Y-110290083D01*
X162754054Y-110436400D01*
X162754054Y-112125000D01*
X160279405Y-112125000D01*
X160375000Y-111894212D01*
X160375000Y-111605788D01*
X160264626Y-111339320D01*
X160175000Y-111249694D01*
X160175000Y-104701704D01*
X160185285Y-104649999D01*
X160175000Y-104598294D01*
X160144539Y-104445155D01*
X160028504Y-104271496D01*
X159984668Y-104242206D01*
X157625000Y-101882539D01*
X157625000Y-101755788D01*
X157514626Y-101489320D01*
X157310680Y-101285374D01*
X157044212Y-101175000D01*
X156755788Y-101175000D01*
X156489320Y-101285374D01*
X156424768Y-101349926D01*
X153842363Y-101349926D01*
X154434668Y-100757622D01*
X154478504Y-100728332D01*
X154594539Y-100554673D01*
X154625000Y-100401534D01*
X154625000Y-100401533D01*
X154635285Y-100349829D01*
X154625000Y-100298124D01*
X154625000Y-99800306D01*
X154714626Y-99710680D01*
X154750116Y-99625000D01*
X169550001Y-99625000D01*
X169550000Y-140050000D01*
X100450000Y-140050000D01*
X100450000Y-135107148D01*
X103025000Y-135107148D01*
X103025000Y-135892852D01*
X103325675Y-136618748D01*
X103881252Y-137174325D01*
X104607148Y-137475000D01*
X105392852Y-137475000D01*
X106118748Y-137174325D01*
X106253073Y-137040000D01*
X146157135Y-137040000D01*
X146253265Y-137523278D01*
X146527020Y-137932980D01*
X146936722Y-138206735D01*
X147298012Y-138278600D01*
X147541988Y-138278600D01*
X147903278Y-138206735D01*
X148312980Y-137932980D01*
X148586735Y-137523278D01*
X148682865Y-137040000D01*
X148586735Y-136556722D01*
X148312980Y-136147020D01*
X147903278Y-135873265D01*
X147541988Y-135801400D01*
X147298012Y-135801400D01*
X146936722Y-135873265D01*
X146527020Y-136147020D01*
X146253265Y-136556722D01*
X146157135Y-137040000D01*
X106253073Y-137040000D01*
X106674325Y-136618748D01*
X106970468Y-135903793D01*
X113162273Y-135903793D01*
X113267812Y-136117951D01*
X113794204Y-136328397D01*
X114361060Y-136321383D01*
X114852188Y-136117951D01*
X114957727Y-135903793D01*
X114060000Y-135006066D01*
X113162273Y-135903793D01*
X106970468Y-135903793D01*
X106975000Y-135892852D01*
X106975000Y-135107148D01*
X106779101Y-134634204D01*
X112631603Y-134634204D01*
X112638617Y-135201060D01*
X112842049Y-135692188D01*
X113056207Y-135797727D01*
X113953934Y-134900000D01*
X114166066Y-134900000D01*
X115063793Y-135797727D01*
X115277951Y-135692188D01*
X115488397Y-135165796D01*
X115483566Y-134775317D01*
X146161149Y-134775317D01*
X146362333Y-135236101D01*
X146724537Y-135584820D01*
X147144684Y-135758845D01*
X147345000Y-135679969D01*
X147345000Y-134575000D01*
X146239828Y-134575000D01*
X146161149Y-134775317D01*
X115483566Y-134775317D01*
X115481383Y-134598940D01*
X115277951Y-134107812D01*
X115063793Y-134002273D01*
X114166066Y-134900000D01*
X113953934Y-134900000D01*
X113056207Y-134002273D01*
X112842049Y-134107812D01*
X112631603Y-134634204D01*
X106779101Y-134634204D01*
X106674325Y-134381252D01*
X106189280Y-133896207D01*
X113162273Y-133896207D01*
X114060000Y-134793934D01*
X114957727Y-133896207D01*
X114852188Y-133682049D01*
X114325796Y-133471603D01*
X113758940Y-133478617D01*
X113267812Y-133682049D01*
X113162273Y-133896207D01*
X106189280Y-133896207D01*
X106118748Y-133825675D01*
X105392852Y-133525000D01*
X104607148Y-133525000D01*
X103881252Y-133825675D01*
X103325675Y-134381252D01*
X103025000Y-135107148D01*
X100450000Y-135107148D01*
X100450000Y-132152175D01*
X118550000Y-132152175D01*
X118550000Y-132947825D01*
X118854482Y-133682909D01*
X119417091Y-134245518D01*
X120152175Y-134550000D01*
X120947825Y-134550000D01*
X121682909Y-134245518D01*
X122245518Y-133682909D01*
X122550000Y-132947825D01*
X122550000Y-132152175D01*
X126170000Y-132152175D01*
X126170000Y-132947825D01*
X126474482Y-133682909D01*
X127037091Y-134245518D01*
X127772175Y-134550000D01*
X128567825Y-134550000D01*
X129302909Y-134245518D01*
X129865518Y-133682909D01*
X130110000Y-133092678D01*
X130354482Y-133682909D01*
X130917091Y-134245518D01*
X131652175Y-134550000D01*
X132447825Y-134550000D01*
X133182909Y-134245518D01*
X133745518Y-133682909D01*
X134050000Y-132947825D01*
X134050000Y-132152175D01*
X137670000Y-132152175D01*
X137670000Y-132947825D01*
X137974482Y-133682909D01*
X138537091Y-134245518D01*
X139272175Y-134550000D01*
X140067825Y-134550000D01*
X140802909Y-134245518D01*
X140823744Y-134224683D01*
X146161149Y-134224683D01*
X146239828Y-134425000D01*
X147345000Y-134425000D01*
X147345000Y-133320031D01*
X147495000Y-133320031D01*
X147495000Y-134425000D01*
X147515000Y-134425000D01*
X147515000Y-134575000D01*
X147495000Y-134575000D01*
X147495000Y-135679969D01*
X147695316Y-135758845D01*
X148115463Y-135584820D01*
X148477667Y-135236101D01*
X148678851Y-134775317D01*
X148600173Y-134575002D01*
X148708600Y-134575002D01*
X148708600Y-134557638D01*
X148793265Y-134983278D01*
X149067020Y-135392980D01*
X149476722Y-135666735D01*
X149838012Y-135738600D01*
X150081988Y-135738600D01*
X150443278Y-135666735D01*
X150852980Y-135392980D01*
X151126735Y-134983278D01*
X151222865Y-134500000D01*
X151126735Y-134016722D01*
X150852980Y-133607020D01*
X150443278Y-133333265D01*
X150081988Y-133261400D01*
X149838012Y-133261400D01*
X149476722Y-133333265D01*
X149067020Y-133607020D01*
X148793265Y-134016722D01*
X148708600Y-134442362D01*
X148708600Y-134424998D01*
X148600173Y-134424998D01*
X148678851Y-134224683D01*
X148477667Y-133763899D01*
X148115463Y-133415180D01*
X147695316Y-133241155D01*
X147495000Y-133320031D01*
X147345000Y-133320031D01*
X147144684Y-133241155D01*
X146724537Y-133415180D01*
X146362333Y-133763899D01*
X146161149Y-134224683D01*
X140823744Y-134224683D01*
X141365518Y-133682909D01*
X141670000Y-132947825D01*
X141670000Y-132152175D01*
X141365518Y-131417091D01*
X140802909Y-130854482D01*
X140067825Y-130550000D01*
X139272175Y-130550000D01*
X138537091Y-130854482D01*
X137974482Y-131417091D01*
X137670000Y-132152175D01*
X134050000Y-132152175D01*
X133745518Y-131417091D01*
X133182909Y-130854482D01*
X132447825Y-130550000D01*
X131652175Y-130550000D01*
X130917091Y-130854482D01*
X130354482Y-131417091D01*
X130110000Y-132007322D01*
X129865518Y-131417091D01*
X129302909Y-130854482D01*
X128567825Y-130550000D01*
X127772175Y-130550000D01*
X127037091Y-130854482D01*
X126474482Y-131417091D01*
X126170000Y-132152175D01*
X122550000Y-132152175D01*
X122245518Y-131417091D01*
X121682909Y-130854482D01*
X120947825Y-130550000D01*
X120152175Y-130550000D01*
X119417091Y-130854482D01*
X118854482Y-131417091D01*
X118550000Y-132152175D01*
X100450000Y-132152175D01*
X100450000Y-123559336D01*
X101746730Y-123559336D01*
X101827858Y-123752722D01*
X102281882Y-123929806D01*
X102769111Y-123919662D01*
X103172142Y-123752722D01*
X103253270Y-123559336D01*
X102500000Y-122806066D01*
X101746730Y-123559336D01*
X100450000Y-123559336D01*
X100450000Y-122481882D01*
X101270194Y-122481882D01*
X101280338Y-122969111D01*
X101447278Y-123372142D01*
X101640664Y-123453270D01*
X102393934Y-122700000D01*
X102606066Y-122700000D01*
X103359336Y-123453270D01*
X103522936Y-123384637D01*
X103834416Y-123696117D01*
X103875001Y-123712928D01*
X103875000Y-124997341D01*
X103875001Y-124997346D01*
X103875001Y-125120594D01*
X103721125Y-125184331D01*
X103334331Y-125571125D01*
X103125000Y-126076495D01*
X103125000Y-126623505D01*
X103334331Y-127128875D01*
X103721125Y-127515669D01*
X104226495Y-127725000D01*
X104773505Y-127725000D01*
X105278875Y-127515669D01*
X105662969Y-127131575D01*
X121634491Y-127131575D01*
X121727827Y-127335347D01*
X122218039Y-127529114D01*
X122745087Y-127520536D01*
X123192173Y-127335347D01*
X123285509Y-127131575D01*
X122460000Y-126306066D01*
X121634491Y-127131575D01*
X105662969Y-127131575D01*
X105665669Y-127128875D01*
X105875000Y-126623505D01*
X105875000Y-126076495D01*
X105825934Y-125958039D01*
X121130886Y-125958039D01*
X121139464Y-126485087D01*
X121324653Y-126932173D01*
X121528425Y-127025509D01*
X122353934Y-126200000D01*
X122566066Y-126200000D01*
X123391575Y-127025509D01*
X123595347Y-126932173D01*
X123755450Y-126527127D01*
X123919107Y-126922230D01*
X124277770Y-127280893D01*
X124746387Y-127475000D01*
X125253613Y-127475000D01*
X125722230Y-127280893D01*
X125871548Y-127131575D01*
X133134491Y-127131575D01*
X133227827Y-127335347D01*
X133718039Y-127529114D01*
X134245087Y-127520536D01*
X134692173Y-127335347D01*
X134785509Y-127131575D01*
X133960000Y-126306066D01*
X133134491Y-127131575D01*
X125871548Y-127131575D01*
X126080893Y-126922230D01*
X126275000Y-126453613D01*
X126275000Y-125958039D01*
X132630886Y-125958039D01*
X132639464Y-126485087D01*
X132824653Y-126932173D01*
X133028425Y-127025509D01*
X133853934Y-126200000D01*
X133028425Y-125374491D01*
X132824653Y-125467827D01*
X132630886Y-125958039D01*
X126275000Y-125958039D01*
X126275000Y-125946387D01*
X126080893Y-125477770D01*
X125871548Y-125268425D01*
X133134491Y-125268425D01*
X133960000Y-126093934D01*
X134785509Y-125268425D01*
X134692173Y-125064653D01*
X134201961Y-124870886D01*
X133674913Y-124879464D01*
X133227827Y-125064653D01*
X133134491Y-125268425D01*
X125871548Y-125268425D01*
X125722230Y-125119107D01*
X125253613Y-124925000D01*
X124746387Y-124925000D01*
X124277770Y-125119107D01*
X123919107Y-125477770D01*
X123759286Y-125863612D01*
X123595347Y-125467827D01*
X123391575Y-125374491D01*
X122566066Y-126200000D01*
X122353934Y-126200000D01*
X121528425Y-125374491D01*
X121324653Y-125467827D01*
X121130886Y-125958039D01*
X105825934Y-125958039D01*
X105665669Y-125571125D01*
X105362969Y-125268425D01*
X121634491Y-125268425D01*
X122460000Y-126093934D01*
X123285509Y-125268425D01*
X123192173Y-125064653D01*
X122701961Y-124870886D01*
X122174913Y-124879464D01*
X121727827Y-125064653D01*
X121634491Y-125268425D01*
X105362969Y-125268425D01*
X105278875Y-125184331D01*
X105125000Y-125120594D01*
X105125000Y-123712927D01*
X105165584Y-123696117D01*
X105496117Y-123365584D01*
X105675000Y-122933722D01*
X105675000Y-122466278D01*
X105658189Y-122425693D01*
X112957387Y-115126495D01*
X119925000Y-115126495D01*
X119925000Y-115673505D01*
X120134331Y-116178875D01*
X120521125Y-116565669D01*
X121026495Y-116775000D01*
X121573505Y-116775000D01*
X122078875Y-116565669D01*
X122465669Y-116178875D01*
X122675000Y-115673505D01*
X122675000Y-115126495D01*
X122465669Y-114621125D01*
X122078875Y-114234331D01*
X121573505Y-114025000D01*
X121026495Y-114025000D01*
X120521125Y-114234331D01*
X120134331Y-114621125D01*
X119925000Y-115126495D01*
X112957387Y-115126495D01*
X116258883Y-111825000D01*
X118814365Y-111825000D01*
X119055788Y-111925000D01*
X119344212Y-111925000D01*
X119610680Y-111814626D01*
X119814626Y-111610680D01*
X119925000Y-111344212D01*
X119925000Y-111055788D01*
X119814626Y-110789320D01*
X119610680Y-110585374D01*
X119344212Y-110475000D01*
X119055788Y-110475000D01*
X118814365Y-110575000D01*
X116061555Y-110575000D01*
X116000000Y-110562756D01*
X115798799Y-110602777D01*
X115756137Y-110611263D01*
X115549400Y-110749400D01*
X115514529Y-110801588D01*
X104774307Y-121541811D01*
X104733722Y-121525000D01*
X104266278Y-121525000D01*
X103834416Y-121703883D01*
X103522936Y-122015363D01*
X103359336Y-121946730D01*
X102606066Y-122700000D01*
X102393934Y-122700000D01*
X101640664Y-121946730D01*
X101447278Y-122027858D01*
X101270194Y-122481882D01*
X100450000Y-122481882D01*
X100450000Y-121840664D01*
X101746730Y-121840664D01*
X102500000Y-122593934D01*
X103253270Y-121840664D01*
X103172142Y-121647278D01*
X102718118Y-121470194D01*
X102230889Y-121480338D01*
X101827858Y-121647278D01*
X101746730Y-121840664D01*
X100450000Y-121840664D01*
X100450000Y-111026495D01*
X106525000Y-111026495D01*
X106525000Y-111573505D01*
X106734331Y-112078875D01*
X107121125Y-112465669D01*
X107626495Y-112675000D01*
X108173505Y-112675000D01*
X108678875Y-112465669D01*
X109065669Y-112078875D01*
X109275000Y-111573505D01*
X109275000Y-111026495D01*
X109065669Y-110521125D01*
X108678875Y-110134331D01*
X108173505Y-109925000D01*
X107626495Y-109925000D01*
X107121125Y-110134331D01*
X106734331Y-110521125D01*
X106525000Y-111026495D01*
X100450000Y-111026495D01*
X100450000Y-99625000D01*
X112948224Y-99625000D01*
X123911612Y-110588388D01*
G36*
X162833265Y-118436722D02*
X162737135Y-118920000D01*
X162833265Y-119403278D01*
X163048233Y-119725000D01*
X157696751Y-119725000D01*
X156354097Y-118382347D01*
X157746616Y-118382347D01*
X157660196Y-118590984D01*
X157660196Y-118879408D01*
X157770570Y-119145876D01*
X157974516Y-119349822D01*
X158240984Y-119460196D01*
X158529408Y-119460196D01*
X158795876Y-119349822D01*
X158999822Y-119145876D01*
X159070785Y-118974555D01*
X159105016Y-118997427D01*
X159130832Y-119002562D01*
X159243573Y-119024988D01*
X159243577Y-119024988D01*
X159290352Y-119034292D01*
X159337127Y-119024988D01*
X161803238Y-119024988D01*
X161850012Y-119034292D01*
X161896786Y-119024988D01*
X161896791Y-119024988D01*
X162035347Y-118997427D01*
X162192467Y-118892443D01*
X162218966Y-118852784D01*
X162946752Y-118125000D01*
X163041552Y-118125000D01*
X162833265Y-118436722D01*
X162833265Y-118436722D01*
G37*
X162833265Y-118436722D02*
X162737135Y-118920000D01*
X162833265Y-119403278D01*
X163048233Y-119725000D01*
X157696751Y-119725000D01*
X156354097Y-118382347D01*
X157746616Y-118382347D01*
X157660196Y-118590984D01*
X157660196Y-118879408D01*
X157770570Y-119145876D01*
X157974516Y-119349822D01*
X158240984Y-119460196D01*
X158529408Y-119460196D01*
X158795876Y-119349822D01*
X158999822Y-119145876D01*
X159070785Y-118974555D01*
X159105016Y-118997427D01*
X159130832Y-119002562D01*
X159243573Y-119024988D01*
X159243577Y-119024988D01*
X159290352Y-119034292D01*
X159337127Y-119024988D01*
X161803238Y-119024988D01*
X161850012Y-119034292D01*
X161896786Y-119024988D01*
X161896791Y-119024988D01*
X162035347Y-118997427D01*
X162192467Y-118892443D01*
X162218966Y-118852784D01*
X162946752Y-118125000D01*
X163041552Y-118125000D01*
X162833265Y-118436722D01*
G36*
X167825011Y-110696762D02*
X167825011Y-114453260D01*
X167772556Y-114400805D01*
X167772552Y-114400800D01*
X167702047Y-114330295D01*
X167706735Y-114323278D01*
X167802865Y-113840000D01*
X167706735Y-113356722D01*
X167432980Y-112947020D01*
X167023278Y-112673265D01*
X166661988Y-112601400D01*
X166418012Y-112601400D01*
X166056722Y-112673265D01*
X165647020Y-112947020D01*
X165373265Y-113356722D01*
X165277135Y-113840000D01*
X165373265Y-114323278D01*
X165647020Y-114732980D01*
X166056722Y-115006735D01*
X166418012Y-115078600D01*
X166661988Y-115078600D01*
X167023278Y-115006735D01*
X167030295Y-115002047D01*
X167100800Y-115072552D01*
X167100805Y-115072556D01*
X167375001Y-115346752D01*
X167375001Y-115448279D01*
X167023278Y-115213265D01*
X166661988Y-115141400D01*
X166418012Y-115141400D01*
X166056722Y-115213265D01*
X165647020Y-115487020D01*
X165373265Y-115896722D01*
X165277135Y-116380000D01*
X165373265Y-116863278D01*
X165377954Y-116870296D01*
X165373606Y-116874644D01*
X165373603Y-116874646D01*
X165073250Y-117175000D01*
X164958448Y-117175000D01*
X165166735Y-116863278D01*
X165262865Y-116380000D01*
X165166735Y-115896722D01*
X164892980Y-115487020D01*
X164483278Y-115213265D01*
X164121988Y-115141400D01*
X163878012Y-115141400D01*
X163516722Y-115213265D01*
X163107020Y-115487020D01*
X162833265Y-115896722D01*
X162831618Y-115905000D01*
X162825459Y-115905000D01*
X162778685Y-115895696D01*
X162731911Y-115905000D01*
X162731907Y-115905000D01*
X162593351Y-115932561D01*
X162593349Y-115932562D01*
X162593350Y-115932562D01*
X162475887Y-116011047D01*
X162475885Y-116011049D01*
X162436231Y-116037545D01*
X162409735Y-116077199D01*
X161461936Y-117025000D01*
X161082347Y-117025000D01*
X161082347Y-117000000D01*
X161074922Y-116925016D01*
X161046451Y-116856483D01*
X161053243Y-116846318D01*
X161082347Y-116700000D01*
X161082347Y-114300000D01*
X161041250Y-114164266D01*
X161053243Y-114146318D01*
X161082347Y-114000000D01*
X161082347Y-113975000D01*
X162763988Y-113975000D01*
X162833265Y-114323278D01*
X163107020Y-114732980D01*
X163516722Y-115006735D01*
X163878012Y-115078600D01*
X164121988Y-115078600D01*
X164483278Y-115006735D01*
X164892980Y-114732980D01*
X165166735Y-114323278D01*
X165262865Y-113840000D01*
X165166735Y-113356722D01*
X164978494Y-113075000D01*
X165193226Y-113075000D01*
X165240000Y-113084304D01*
X165286774Y-113075000D01*
X165286779Y-113075000D01*
X165425335Y-113047439D01*
X165582455Y-112942455D01*
X165608954Y-112902796D01*
X166045354Y-112466398D01*
X166045358Y-112466392D01*
X166049704Y-112462046D01*
X166056722Y-112466735D01*
X166418012Y-112538600D01*
X166661988Y-112538600D01*
X167023278Y-112466735D01*
X167432980Y-112192980D01*
X167706735Y-111783278D01*
X167802865Y-111300000D01*
X167706735Y-110816722D01*
X167432980Y-110407020D01*
X167085739Y-110175000D01*
X167303250Y-110175000D01*
X167825011Y-110696762D01*
X167825011Y-110696762D01*
G37*
X167825011Y-110696762D02*
X167825011Y-114453260D01*
X167772556Y-114400805D01*
X167772552Y-114400800D01*
X167702047Y-114330295D01*
X167706735Y-114323278D01*
X167802865Y-113840000D01*
X167706735Y-113356722D01*
X167432980Y-112947020D01*
X167023278Y-112673265D01*
X166661988Y-112601400D01*
X166418012Y-112601400D01*
X166056722Y-112673265D01*
X165647020Y-112947020D01*
X165373265Y-113356722D01*
X165277135Y-113840000D01*
X165373265Y-114323278D01*
X165647020Y-114732980D01*
X166056722Y-115006735D01*
X166418012Y-115078600D01*
X166661988Y-115078600D01*
X167023278Y-115006735D01*
X167030295Y-115002047D01*
X167100800Y-115072552D01*
X167100805Y-115072556D01*
X167375001Y-115346752D01*
X167375001Y-115448279D01*
X167023278Y-115213265D01*
X166661988Y-115141400D01*
X166418012Y-115141400D01*
X166056722Y-115213265D01*
X165647020Y-115487020D01*
X165373265Y-115896722D01*
X165277135Y-116380000D01*
X165373265Y-116863278D01*
X165377954Y-116870296D01*
X165373606Y-116874644D01*
X165373603Y-116874646D01*
X165073250Y-117175000D01*
X164958448Y-117175000D01*
X165166735Y-116863278D01*
X165262865Y-116380000D01*
X165166735Y-115896722D01*
X164892980Y-115487020D01*
X164483278Y-115213265D01*
X164121988Y-115141400D01*
X163878012Y-115141400D01*
X163516722Y-115213265D01*
X163107020Y-115487020D01*
X162833265Y-115896722D01*
X162831618Y-115905000D01*
X162825459Y-115905000D01*
X162778685Y-115895696D01*
X162731911Y-115905000D01*
X162731907Y-115905000D01*
X162593351Y-115932561D01*
X162593349Y-115932562D01*
X162593350Y-115932562D01*
X162475887Y-116011047D01*
X162475885Y-116011049D01*
X162436231Y-116037545D01*
X162409735Y-116077199D01*
X161461936Y-117025000D01*
X161082347Y-117025000D01*
X161082347Y-117000000D01*
X161074922Y-116925016D01*
X161046451Y-116856483D01*
X161053243Y-116846318D01*
X161082347Y-116700000D01*
X161082347Y-114300000D01*
X161041250Y-114164266D01*
X161053243Y-114146318D01*
X161082347Y-114000000D01*
X161082347Y-113975000D01*
X162763988Y-113975000D01*
X162833265Y-114323278D01*
X163107020Y-114732980D01*
X163516722Y-115006735D01*
X163878012Y-115078600D01*
X164121988Y-115078600D01*
X164483278Y-115006735D01*
X164892980Y-114732980D01*
X165166735Y-114323278D01*
X165262865Y-113840000D01*
X165166735Y-113356722D01*
X164978494Y-113075000D01*
X165193226Y-113075000D01*
X165240000Y-113084304D01*
X165286774Y-113075000D01*
X165286779Y-113075000D01*
X165425335Y-113047439D01*
X165582455Y-112942455D01*
X165608954Y-112902796D01*
X166045354Y-112466398D01*
X166045358Y-112466392D01*
X166049704Y-112462046D01*
X166056722Y-112466735D01*
X166418012Y-112538600D01*
X166661988Y-112538600D01*
X167023278Y-112466735D01*
X167432980Y-112192980D01*
X167706735Y-111783278D01*
X167802865Y-111300000D01*
X167706735Y-110816722D01*
X167432980Y-110407020D01*
X167085739Y-110175000D01*
X167303250Y-110175000D01*
X167825011Y-110696762D01*
G04 #@! TD*
M02*
