G04 #@! TF.GenerationSoftware,KiCad,Pcbnew,5.1.5-52549c5~84~ubuntu18.04.1*
G04 #@! TF.CreationDate,2020-03-12T11:48:39+01:00*
G04 #@! TF.ProjectId,MotorDriver,4d6f746f-7244-4726-9976-65722e6b6963,rev?*
G04 #@! TF.SameCoordinates,Original*
G04 #@! TF.FileFunction,Soldermask,Bot*
G04 #@! TF.FilePolarity,Negative*
%FSLAX46Y46*%
G04 Gerber Fmt 4.6, Leading zero omitted, Abs format (unit mm)*
G04 Created by KiCad (PCBNEW 5.1.5-52549c5~84~ubuntu18.04.1) date 2020-03-12 11:48:39*
%MOMM*%
%LPD*%
G04 APERTURE LIST*
%ADD10C,0.100000*%
G04 APERTURE END LIST*
D10*
G36*
X160120856Y-137442272D02*
G01*
X160321048Y-137525194D01*
X160501208Y-137645573D01*
X160654427Y-137798792D01*
X160774806Y-137978952D01*
X160857728Y-138179144D01*
X160900000Y-138391657D01*
X160900000Y-138608343D01*
X160857728Y-138820856D01*
X160774806Y-139021048D01*
X160654427Y-139201208D01*
X160501208Y-139354427D01*
X160321048Y-139474806D01*
X160120856Y-139557728D01*
X159908343Y-139600000D01*
X159691657Y-139600000D01*
X159479144Y-139557728D01*
X159278952Y-139474806D01*
X159098792Y-139354427D01*
X158945573Y-139201208D01*
X158825194Y-139021048D01*
X158742272Y-138820856D01*
X158700000Y-138608343D01*
X158700000Y-138391657D01*
X158742272Y-138179144D01*
X158825194Y-137978952D01*
X158945573Y-137798792D01*
X159098792Y-137645573D01*
X159278952Y-137525194D01*
X159479144Y-137442272D01*
X159691657Y-137400000D01*
X159908343Y-137400000D01*
X160120856Y-137442272D01*
G37*
G36*
X152781072Y-136113431D02*
G01*
X152956436Y-136186069D01*
X153114259Y-136291523D01*
X153248477Y-136425741D01*
X153353931Y-136583564D01*
X153426569Y-136758928D01*
X153463600Y-136945094D01*
X153463600Y-137134906D01*
X153426569Y-137321072D01*
X153353931Y-137496436D01*
X153301204Y-137575348D01*
X153254280Y-137645575D01*
X153248477Y-137654259D01*
X153114259Y-137788477D01*
X152956436Y-137893931D01*
X152781072Y-137966569D01*
X152594906Y-138003600D01*
X152405094Y-138003600D01*
X152218928Y-137966569D01*
X152043564Y-137893931D01*
X151885741Y-137788477D01*
X151751523Y-137654259D01*
X151745721Y-137645575D01*
X151698796Y-137575347D01*
X151646069Y-137496436D01*
X151573431Y-137321072D01*
X151536400Y-137134906D01*
X151536400Y-136945094D01*
X151573431Y-136758928D01*
X151646069Y-136583564D01*
X151751523Y-136425741D01*
X151885741Y-136291523D01*
X152043564Y-136186069D01*
X152218928Y-136113431D01*
X152405094Y-136076400D01*
X152594906Y-136076400D01*
X152781072Y-136113431D01*
G37*
G36*
X147701072Y-136113431D02*
G01*
X147876436Y-136186069D01*
X148034259Y-136291523D01*
X148168477Y-136425741D01*
X148273931Y-136583564D01*
X148346569Y-136758928D01*
X148383600Y-136945094D01*
X148383600Y-137134906D01*
X148346569Y-137321072D01*
X148273931Y-137496436D01*
X148221204Y-137575348D01*
X148174280Y-137645575D01*
X148168477Y-137654259D01*
X148034259Y-137788477D01*
X147876436Y-137893931D01*
X147701072Y-137966569D01*
X147514906Y-138003600D01*
X147325094Y-138003600D01*
X147138928Y-137966569D01*
X146963564Y-137893931D01*
X146805741Y-137788477D01*
X146671523Y-137654259D01*
X146665721Y-137645575D01*
X146618796Y-137575347D01*
X146566069Y-137496436D01*
X146493431Y-137321072D01*
X146456400Y-137134906D01*
X146456400Y-136945094D01*
X146493431Y-136758928D01*
X146566069Y-136583564D01*
X146671523Y-136425741D01*
X146805741Y-136291523D01*
X146963564Y-136186069D01*
X147138928Y-136113431D01*
X147325094Y-136076400D01*
X147514906Y-136076400D01*
X147701072Y-136113431D01*
G37*
G36*
X150241072Y-136113431D02*
G01*
X150416436Y-136186069D01*
X150574259Y-136291523D01*
X150708477Y-136425741D01*
X150813931Y-136583564D01*
X150886569Y-136758928D01*
X150923600Y-136945094D01*
X150923600Y-137134906D01*
X150886569Y-137321072D01*
X150813931Y-137496436D01*
X150761204Y-137575348D01*
X150714280Y-137645575D01*
X150708477Y-137654259D01*
X150574259Y-137788477D01*
X150416436Y-137893931D01*
X150241072Y-137966569D01*
X150054906Y-138003600D01*
X149865094Y-138003600D01*
X149678928Y-137966569D01*
X149503564Y-137893931D01*
X149345741Y-137788477D01*
X149211523Y-137654259D01*
X149205721Y-137645575D01*
X149158796Y-137575347D01*
X149106069Y-137496436D01*
X149033431Y-137321072D01*
X148996400Y-137134906D01*
X148996400Y-136945094D01*
X149033431Y-136758928D01*
X149106069Y-136583564D01*
X149211523Y-136425741D01*
X149345741Y-136291523D01*
X149503564Y-136186069D01*
X149678928Y-136113431D01*
X149865094Y-136076400D01*
X150054906Y-136076400D01*
X150241072Y-136113431D01*
G37*
G36*
X165495872Y-133865330D02*
G01*
X165805252Y-133993479D01*
X166083687Y-134179523D01*
X166320477Y-134416313D01*
X166506521Y-134694748D01*
X166634670Y-135004128D01*
X166700000Y-135332565D01*
X166700000Y-135667435D01*
X166634670Y-135995872D01*
X166506521Y-136305252D01*
X166320477Y-136583687D01*
X166083687Y-136820477D01*
X165805252Y-137006521D01*
X165495872Y-137134670D01*
X165167435Y-137200000D01*
X164832565Y-137200000D01*
X164504128Y-137134670D01*
X164194748Y-137006521D01*
X163916313Y-136820477D01*
X163679523Y-136583687D01*
X163493479Y-136305252D01*
X163365330Y-135995872D01*
X163300000Y-135667435D01*
X163300000Y-135332565D01*
X163365330Y-135004128D01*
X163493479Y-134694748D01*
X163679523Y-134416313D01*
X163916313Y-134179523D01*
X164194748Y-133993479D01*
X164504128Y-133865330D01*
X164832565Y-133800000D01*
X165167435Y-133800000D01*
X165495872Y-133865330D01*
G37*
G36*
X105495872Y-133865330D02*
G01*
X105805252Y-133993479D01*
X106083687Y-134179523D01*
X106320477Y-134416313D01*
X106506521Y-134694748D01*
X106634670Y-135004128D01*
X106700000Y-135332565D01*
X106700000Y-135667435D01*
X106634670Y-135995872D01*
X106506521Y-136305252D01*
X106320477Y-136583687D01*
X106083687Y-136820477D01*
X105805252Y-137006521D01*
X105495872Y-137134670D01*
X105167435Y-137200000D01*
X104832565Y-137200000D01*
X104504128Y-137134670D01*
X104194748Y-137006521D01*
X103916313Y-136820477D01*
X103679523Y-136583687D01*
X103493479Y-136305252D01*
X103365330Y-135995872D01*
X103300000Y-135667435D01*
X103300000Y-135332565D01*
X103365330Y-135004128D01*
X103493479Y-134694748D01*
X103679523Y-134416313D01*
X103916313Y-134179523D01*
X104194748Y-133993479D01*
X104504128Y-133865330D01*
X104832565Y-133800000D01*
X105167435Y-133800000D01*
X105495872Y-133865330D01*
G37*
G36*
X160120856Y-134042272D02*
G01*
X160321048Y-134125194D01*
X160501208Y-134245573D01*
X160654427Y-134398792D01*
X160774806Y-134578952D01*
X160857728Y-134779144D01*
X160900000Y-134991657D01*
X160900000Y-135208343D01*
X160857728Y-135420856D01*
X160774806Y-135621048D01*
X160654427Y-135801208D01*
X160501208Y-135954427D01*
X160321048Y-136074806D01*
X160120856Y-136157728D01*
X159908343Y-136200000D01*
X159691657Y-136200000D01*
X159479144Y-136157728D01*
X159278952Y-136074806D01*
X159098792Y-135954427D01*
X158945573Y-135801208D01*
X158825194Y-135621048D01*
X158742272Y-135420856D01*
X158700000Y-135208343D01*
X158700000Y-134991657D01*
X158742272Y-134779144D01*
X158825194Y-134578952D01*
X158945573Y-134398792D01*
X159098792Y-134245573D01*
X159278952Y-134125194D01*
X159479144Y-134042272D01*
X159691657Y-134000000D01*
X159908343Y-134000000D01*
X160120856Y-134042272D01*
G37*
G36*
X114380856Y-133842272D02*
G01*
X114581048Y-133925194D01*
X114761208Y-134045573D01*
X114914427Y-134198792D01*
X115034806Y-134378952D01*
X115117728Y-134579144D01*
X115160000Y-134791657D01*
X115160000Y-135008343D01*
X115117728Y-135220856D01*
X115034806Y-135421048D01*
X114914427Y-135601208D01*
X114761208Y-135754427D01*
X114581048Y-135874806D01*
X114380856Y-135957728D01*
X114168343Y-136000000D01*
X113951657Y-136000000D01*
X113739144Y-135957728D01*
X113538952Y-135874806D01*
X113358792Y-135754427D01*
X113205573Y-135601208D01*
X113085194Y-135421048D01*
X113002272Y-135220856D01*
X112960000Y-135008343D01*
X112960000Y-134791657D01*
X113002272Y-134579144D01*
X113085194Y-134378952D01*
X113205573Y-134198792D01*
X113358792Y-134045573D01*
X113538952Y-133925194D01*
X113739144Y-133842272D01*
X113951657Y-133800000D01*
X114168343Y-133800000D01*
X114380856Y-133842272D01*
G37*
G36*
X147701072Y-133573431D02*
G01*
X147876436Y-133646069D01*
X147876437Y-133646070D01*
X148034258Y-133751522D01*
X148168478Y-133885742D01*
X148194838Y-133925193D01*
X148273931Y-134043564D01*
X148346569Y-134218928D01*
X148383600Y-134405094D01*
X148383600Y-134594906D01*
X148346569Y-134781072D01*
X148273931Y-134956436D01*
X148168477Y-135114259D01*
X148034259Y-135248477D01*
X147876436Y-135353931D01*
X147701072Y-135426569D01*
X147514906Y-135463600D01*
X147325094Y-135463600D01*
X147138928Y-135426569D01*
X146963564Y-135353931D01*
X146805741Y-135248477D01*
X146671523Y-135114259D01*
X146566069Y-134956436D01*
X146493431Y-134781072D01*
X146456400Y-134594906D01*
X146456400Y-134405094D01*
X146493431Y-134218928D01*
X146566069Y-134043564D01*
X146645162Y-133925193D01*
X146671522Y-133885742D01*
X146805742Y-133751522D01*
X146963563Y-133646070D01*
X146963564Y-133646069D01*
X147138928Y-133573431D01*
X147325094Y-133536400D01*
X147514906Y-133536400D01*
X147701072Y-133573431D01*
G37*
G36*
X150241072Y-133573431D02*
G01*
X150416436Y-133646069D01*
X150416437Y-133646070D01*
X150574258Y-133751522D01*
X150708478Y-133885742D01*
X150734838Y-133925193D01*
X150813931Y-134043564D01*
X150886569Y-134218928D01*
X150923600Y-134405094D01*
X150923600Y-134594906D01*
X150886569Y-134781072D01*
X150813931Y-134956436D01*
X150708477Y-135114259D01*
X150574259Y-135248477D01*
X150416436Y-135353931D01*
X150241072Y-135426569D01*
X150054906Y-135463600D01*
X149865094Y-135463600D01*
X149678928Y-135426569D01*
X149503564Y-135353931D01*
X149345741Y-135248477D01*
X149211523Y-135114259D01*
X149106069Y-134956436D01*
X149033431Y-134781072D01*
X148996400Y-134594906D01*
X148996400Y-134405094D01*
X149033431Y-134218928D01*
X149106069Y-134043564D01*
X149185162Y-133925193D01*
X149211522Y-133885742D01*
X149345742Y-133751522D01*
X149503563Y-133646070D01*
X149503564Y-133646069D01*
X149678928Y-133573431D01*
X149865094Y-133536400D01*
X150054906Y-133536400D01*
X150241072Y-133573431D01*
G37*
G36*
X153463600Y-135463600D02*
G01*
X151536400Y-135463600D01*
X151536400Y-133536400D01*
X153463600Y-133536400D01*
X153463600Y-135463600D01*
G37*
G36*
X140173164Y-130891290D02*
G01*
X140487094Y-131021324D01*
X140769624Y-131210105D01*
X141009895Y-131450376D01*
X141198676Y-131732906D01*
X141328710Y-132046836D01*
X141395000Y-132380102D01*
X141395000Y-132719898D01*
X141328710Y-133053164D01*
X141198676Y-133367094D01*
X141009895Y-133649624D01*
X140769624Y-133889895D01*
X140487094Y-134078676D01*
X140173164Y-134208710D01*
X139839898Y-134275000D01*
X139500102Y-134275000D01*
X139166836Y-134208710D01*
X138852906Y-134078676D01*
X138570376Y-133889895D01*
X138330105Y-133649624D01*
X138141324Y-133367094D01*
X138011290Y-133053164D01*
X137945000Y-132719898D01*
X137945000Y-132380102D01*
X138011290Y-132046836D01*
X138141324Y-131732906D01*
X138330105Y-131450376D01*
X138570376Y-131210105D01*
X138852906Y-131021324D01*
X139166836Y-130891290D01*
X139500102Y-130825000D01*
X139839898Y-130825000D01*
X140173164Y-130891290D01*
G37*
G36*
X132553164Y-130891290D02*
G01*
X132867094Y-131021324D01*
X133149624Y-131210105D01*
X133389895Y-131450376D01*
X133578676Y-131732906D01*
X133708710Y-132046836D01*
X133775000Y-132380102D01*
X133775000Y-132719898D01*
X133708710Y-133053164D01*
X133578676Y-133367094D01*
X133389895Y-133649624D01*
X133149624Y-133889895D01*
X132867094Y-134078676D01*
X132553164Y-134208710D01*
X132219898Y-134275000D01*
X131880102Y-134275000D01*
X131546836Y-134208710D01*
X131232906Y-134078676D01*
X130950376Y-133889895D01*
X130710105Y-133649624D01*
X130521324Y-133367094D01*
X130391290Y-133053164D01*
X130325000Y-132719898D01*
X130325000Y-132380102D01*
X130391290Y-132046836D01*
X130521324Y-131732906D01*
X130710105Y-131450376D01*
X130950376Y-131210105D01*
X131232906Y-131021324D01*
X131546836Y-130891290D01*
X131880102Y-130825000D01*
X132219898Y-130825000D01*
X132553164Y-130891290D01*
G37*
G36*
X128673164Y-130891290D02*
G01*
X128987094Y-131021324D01*
X129269624Y-131210105D01*
X129509895Y-131450376D01*
X129698676Y-131732906D01*
X129828710Y-132046836D01*
X129895000Y-132380102D01*
X129895000Y-132719898D01*
X129828710Y-133053164D01*
X129698676Y-133367094D01*
X129509895Y-133649624D01*
X129269624Y-133889895D01*
X128987094Y-134078676D01*
X128673164Y-134208710D01*
X128339898Y-134275000D01*
X128000102Y-134275000D01*
X127666836Y-134208710D01*
X127352906Y-134078676D01*
X127070376Y-133889895D01*
X126830105Y-133649624D01*
X126641324Y-133367094D01*
X126511290Y-133053164D01*
X126445000Y-132719898D01*
X126445000Y-132380102D01*
X126511290Y-132046836D01*
X126641324Y-131732906D01*
X126830105Y-131450376D01*
X127070376Y-131210105D01*
X127352906Y-131021324D01*
X127666836Y-130891290D01*
X128000102Y-130825000D01*
X128339898Y-130825000D01*
X128673164Y-130891290D01*
G37*
G36*
X121053164Y-130891290D02*
G01*
X121367094Y-131021324D01*
X121649624Y-131210105D01*
X121889895Y-131450376D01*
X122078676Y-131732906D01*
X122208710Y-132046836D01*
X122275000Y-132380102D01*
X122275000Y-132719898D01*
X122208710Y-133053164D01*
X122078676Y-133367094D01*
X121889895Y-133649624D01*
X121649624Y-133889895D01*
X121367094Y-134078676D01*
X121053164Y-134208710D01*
X120719898Y-134275000D01*
X120380102Y-134275000D01*
X120046836Y-134208710D01*
X119732906Y-134078676D01*
X119450376Y-133889895D01*
X119210105Y-133649624D01*
X119021324Y-133367094D01*
X118891290Y-133053164D01*
X118825000Y-132719898D01*
X118825000Y-132380102D01*
X118891290Y-132046836D01*
X119021324Y-131732906D01*
X119210105Y-131450376D01*
X119450376Y-131210105D01*
X119732906Y-131021324D01*
X120046836Y-130891290D01*
X120380102Y-130825000D01*
X120719898Y-130825000D01*
X121053164Y-130891290D01*
G37*
G36*
X160120856Y-130642272D02*
G01*
X160321048Y-130725194D01*
X160501208Y-130845573D01*
X160654427Y-130998792D01*
X160774806Y-131178952D01*
X160857728Y-131379144D01*
X160900000Y-131591657D01*
X160900000Y-131808343D01*
X160857728Y-132020856D01*
X160774806Y-132221048D01*
X160654427Y-132401208D01*
X160501208Y-132554427D01*
X160321048Y-132674806D01*
X160120856Y-132757728D01*
X159908343Y-132800000D01*
X159691657Y-132800000D01*
X159479144Y-132757728D01*
X159278952Y-132674806D01*
X159098792Y-132554427D01*
X158945573Y-132401208D01*
X158825194Y-132221048D01*
X158742272Y-132020856D01*
X158700000Y-131808343D01*
X158700000Y-131591657D01*
X158742272Y-131379144D01*
X158825194Y-131178952D01*
X158945573Y-130998792D01*
X159098792Y-130845573D01*
X159278952Y-130725194D01*
X159479144Y-130642272D01*
X159691657Y-130600000D01*
X159908343Y-130600000D01*
X160120856Y-130642272D01*
G37*
G36*
X163837105Y-127886508D02*
G01*
X164009994Y-127958121D01*
X164165590Y-128062087D01*
X164297913Y-128194410D01*
X164401879Y-128350006D01*
X164473492Y-128522895D01*
X164510000Y-128706433D01*
X164510000Y-128893567D01*
X164473492Y-129077105D01*
X164401879Y-129249994D01*
X164297913Y-129405590D01*
X164165590Y-129537913D01*
X164009994Y-129641879D01*
X163837105Y-129713492D01*
X163653567Y-129750000D01*
X163466433Y-129750000D01*
X163282895Y-129713492D01*
X163110006Y-129641879D01*
X162954410Y-129537913D01*
X162822087Y-129405590D01*
X162718121Y-129249994D01*
X162646508Y-129077105D01*
X162610000Y-128893567D01*
X162610000Y-128706433D01*
X162646508Y-128522895D01*
X162718121Y-128350006D01*
X162822087Y-128194410D01*
X162954410Y-128062087D01*
X163110006Y-127958121D01*
X163282895Y-127886508D01*
X163466433Y-127850000D01*
X163653567Y-127850000D01*
X163837105Y-127886508D01*
G37*
G36*
X167050000Y-129750000D02*
G01*
X165150000Y-129750000D01*
X165150000Y-127850000D01*
X167050000Y-127850000D01*
X167050000Y-129750000D01*
G37*
G36*
X104820856Y-125292272D02*
G01*
X105021048Y-125375194D01*
X105201208Y-125495573D01*
X105354427Y-125648792D01*
X105474806Y-125828952D01*
X105557728Y-126029144D01*
X105600000Y-126241657D01*
X105600000Y-126458343D01*
X105557728Y-126670856D01*
X105474806Y-126871048D01*
X105354427Y-127051208D01*
X105201208Y-127204427D01*
X105021048Y-127324806D01*
X104820856Y-127407728D01*
X104608343Y-127450000D01*
X104391657Y-127450000D01*
X104179144Y-127407728D01*
X103978952Y-127324806D01*
X103798792Y-127204427D01*
X103645573Y-127051208D01*
X103525194Y-126871048D01*
X103442272Y-126670856D01*
X103400000Y-126458343D01*
X103400000Y-126241657D01*
X103442272Y-126029144D01*
X103525194Y-125828952D01*
X103645573Y-125648792D01*
X103798792Y-125495573D01*
X103978952Y-125375194D01*
X104179144Y-125292272D01*
X104391657Y-125250000D01*
X104608343Y-125250000D01*
X104820856Y-125292272D01*
G37*
G36*
X122655090Y-125219214D02*
G01*
X122751689Y-125238429D01*
X122933678Y-125313811D01*
X123097463Y-125423249D01*
X123236751Y-125562537D01*
X123346189Y-125726322D01*
X123421571Y-125908311D01*
X123421571Y-125908313D01*
X123445606Y-126029142D01*
X123460000Y-126101509D01*
X123460000Y-126298491D01*
X123421571Y-126491689D01*
X123346189Y-126673678D01*
X123236751Y-126837463D01*
X123097463Y-126976751D01*
X122933678Y-127086189D01*
X122751689Y-127161571D01*
X122655090Y-127180785D01*
X122558493Y-127200000D01*
X122361507Y-127200000D01*
X122264910Y-127180785D01*
X122168311Y-127161571D01*
X121986322Y-127086189D01*
X121822537Y-126976751D01*
X121683249Y-126837463D01*
X121573811Y-126673678D01*
X121498429Y-126491689D01*
X121460000Y-126298491D01*
X121460000Y-126101509D01*
X121474395Y-126029142D01*
X121498429Y-125908313D01*
X121498429Y-125908311D01*
X121573811Y-125726322D01*
X121683249Y-125562537D01*
X121822537Y-125423249D01*
X121986322Y-125313811D01*
X122168311Y-125238429D01*
X122264910Y-125219214D01*
X122361507Y-125200000D01*
X122558493Y-125200000D01*
X122655090Y-125219214D01*
G37*
G36*
X136695090Y-125219214D02*
G01*
X136791689Y-125238429D01*
X136973678Y-125313811D01*
X137137463Y-125423249D01*
X137276751Y-125562537D01*
X137386189Y-125726322D01*
X137461571Y-125908311D01*
X137461571Y-125908313D01*
X137485606Y-126029142D01*
X137500000Y-126101509D01*
X137500000Y-126298491D01*
X137461571Y-126491689D01*
X137386189Y-126673678D01*
X137276751Y-126837463D01*
X137137463Y-126976751D01*
X136973678Y-127086189D01*
X136791689Y-127161571D01*
X136695090Y-127180785D01*
X136598493Y-127200000D01*
X136401507Y-127200000D01*
X136304910Y-127180785D01*
X136208311Y-127161571D01*
X136026322Y-127086189D01*
X135862537Y-126976751D01*
X135723249Y-126837463D01*
X135613811Y-126673678D01*
X135538429Y-126491689D01*
X135500000Y-126298491D01*
X135500000Y-126101509D01*
X135514395Y-126029142D01*
X135538429Y-125908313D01*
X135538429Y-125908311D01*
X135613811Y-125726322D01*
X135723249Y-125562537D01*
X135862537Y-125423249D01*
X136026322Y-125313811D01*
X136208311Y-125238429D01*
X136304910Y-125219214D01*
X136401507Y-125200000D01*
X136598493Y-125200000D01*
X136695090Y-125219214D01*
G37*
G36*
X134155090Y-125219214D02*
G01*
X134251689Y-125238429D01*
X134433678Y-125313811D01*
X134597463Y-125423249D01*
X134736751Y-125562537D01*
X134846189Y-125726322D01*
X134921571Y-125908311D01*
X134921571Y-125908313D01*
X134945606Y-126029142D01*
X134960000Y-126101509D01*
X134960000Y-126298491D01*
X134921571Y-126491689D01*
X134846189Y-126673678D01*
X134736751Y-126837463D01*
X134597463Y-126976751D01*
X134433678Y-127086189D01*
X134251689Y-127161571D01*
X134155090Y-127180785D01*
X134058493Y-127200000D01*
X133861507Y-127200000D01*
X133764910Y-127180785D01*
X133668311Y-127161571D01*
X133486322Y-127086189D01*
X133322537Y-126976751D01*
X133183249Y-126837463D01*
X133073811Y-126673678D01*
X132998429Y-126491689D01*
X132960000Y-126298491D01*
X132960000Y-126101509D01*
X132974395Y-126029142D01*
X132998429Y-125908313D01*
X132998429Y-125908311D01*
X133073811Y-125726322D01*
X133183249Y-125562537D01*
X133322537Y-125423249D01*
X133486322Y-125313811D01*
X133668311Y-125238429D01*
X133764910Y-125219214D01*
X133861507Y-125200000D01*
X134058493Y-125200000D01*
X134155090Y-125219214D01*
G37*
G36*
X125195090Y-125219214D02*
G01*
X125291689Y-125238429D01*
X125473678Y-125313811D01*
X125637463Y-125423249D01*
X125776751Y-125562537D01*
X125886189Y-125726322D01*
X125961571Y-125908311D01*
X125961571Y-125908313D01*
X125985606Y-126029142D01*
X126000000Y-126101509D01*
X126000000Y-126298491D01*
X125961571Y-126491689D01*
X125886189Y-126673678D01*
X125776751Y-126837463D01*
X125637463Y-126976751D01*
X125473678Y-127086189D01*
X125291689Y-127161571D01*
X125195090Y-127180785D01*
X125098493Y-127200000D01*
X124901507Y-127200000D01*
X124804910Y-127180785D01*
X124708311Y-127161571D01*
X124526322Y-127086189D01*
X124362537Y-126976751D01*
X124223249Y-126837463D01*
X124113811Y-126673678D01*
X124038429Y-126491689D01*
X124000000Y-126298491D01*
X124000000Y-126101509D01*
X124014395Y-126029142D01*
X124038429Y-125908313D01*
X124038429Y-125908311D01*
X124113811Y-125726322D01*
X124223249Y-125562537D01*
X124362537Y-125423249D01*
X124526322Y-125313811D01*
X124708311Y-125238429D01*
X124804910Y-125219214D01*
X124901507Y-125200000D01*
X125098493Y-125200000D01*
X125195090Y-125219214D01*
G37*
G36*
X123925090Y-122679214D02*
G01*
X124021689Y-122698429D01*
X124203678Y-122773811D01*
X124367463Y-122883249D01*
X124506751Y-123022537D01*
X124616189Y-123186322D01*
X124691571Y-123368311D01*
X124730000Y-123561509D01*
X124730000Y-123758491D01*
X124691571Y-123951689D01*
X124616189Y-124133678D01*
X124506751Y-124297463D01*
X124367463Y-124436751D01*
X124203678Y-124546189D01*
X124021689Y-124621571D01*
X123925090Y-124640785D01*
X123828493Y-124660000D01*
X123631507Y-124660000D01*
X123534910Y-124640785D01*
X123438311Y-124621571D01*
X123256322Y-124546189D01*
X123092537Y-124436751D01*
X122953249Y-124297463D01*
X122843811Y-124133678D01*
X122768429Y-123951689D01*
X122730000Y-123758491D01*
X122730000Y-123561509D01*
X122768429Y-123368311D01*
X122843811Y-123186322D01*
X122953249Y-123022537D01*
X123092537Y-122883249D01*
X123256322Y-122773811D01*
X123438311Y-122698429D01*
X123534910Y-122679214D01*
X123631507Y-122660000D01*
X123828493Y-122660000D01*
X123925090Y-122679214D01*
G37*
G36*
X126465090Y-122679214D02*
G01*
X126561689Y-122698429D01*
X126743678Y-122773811D01*
X126907463Y-122883249D01*
X127046751Y-123022537D01*
X127156189Y-123186322D01*
X127231571Y-123368311D01*
X127270000Y-123561509D01*
X127270000Y-123758491D01*
X127231571Y-123951689D01*
X127156189Y-124133678D01*
X127046751Y-124297463D01*
X126907463Y-124436751D01*
X126743678Y-124546189D01*
X126561689Y-124621571D01*
X126465090Y-124640785D01*
X126368493Y-124660000D01*
X126171507Y-124660000D01*
X126074910Y-124640785D01*
X125978311Y-124621571D01*
X125796322Y-124546189D01*
X125632537Y-124436751D01*
X125493249Y-124297463D01*
X125383811Y-124133678D01*
X125308429Y-123951689D01*
X125270000Y-123758491D01*
X125270000Y-123561509D01*
X125308429Y-123368311D01*
X125383811Y-123186322D01*
X125493249Y-123022537D01*
X125632537Y-122883249D01*
X125796322Y-122773811D01*
X125978311Y-122698429D01*
X126074910Y-122679214D01*
X126171507Y-122660000D01*
X126368493Y-122660000D01*
X126465090Y-122679214D01*
G37*
G36*
X135425090Y-122679214D02*
G01*
X135521689Y-122698429D01*
X135703678Y-122773811D01*
X135867463Y-122883249D01*
X136006751Y-123022537D01*
X136116189Y-123186322D01*
X136191571Y-123368311D01*
X136230000Y-123561509D01*
X136230000Y-123758491D01*
X136191571Y-123951689D01*
X136116189Y-124133678D01*
X136006751Y-124297463D01*
X135867463Y-124436751D01*
X135703678Y-124546189D01*
X135521689Y-124621571D01*
X135425090Y-124640785D01*
X135328493Y-124660000D01*
X135131507Y-124660000D01*
X135034910Y-124640785D01*
X134938311Y-124621571D01*
X134756322Y-124546189D01*
X134592537Y-124436751D01*
X134453249Y-124297463D01*
X134343811Y-124133678D01*
X134268429Y-123951689D01*
X134230000Y-123758491D01*
X134230000Y-123561509D01*
X134268429Y-123368311D01*
X134343811Y-123186322D01*
X134453249Y-123022537D01*
X134592537Y-122883249D01*
X134756322Y-122773811D01*
X134938311Y-122698429D01*
X135034910Y-122679214D01*
X135131507Y-122660000D01*
X135328493Y-122660000D01*
X135425090Y-122679214D01*
G37*
G36*
X137965090Y-122679214D02*
G01*
X138061689Y-122698429D01*
X138243678Y-122773811D01*
X138407463Y-122883249D01*
X138546751Y-123022537D01*
X138656189Y-123186322D01*
X138731571Y-123368311D01*
X138770000Y-123561509D01*
X138770000Y-123758491D01*
X138731571Y-123951689D01*
X138656189Y-124133678D01*
X138546751Y-124297463D01*
X138407463Y-124436751D01*
X138243678Y-124546189D01*
X138061689Y-124621571D01*
X137965090Y-124640785D01*
X137868493Y-124660000D01*
X137671507Y-124660000D01*
X137574910Y-124640785D01*
X137478311Y-124621571D01*
X137296322Y-124546189D01*
X137132537Y-124436751D01*
X136993249Y-124297463D01*
X136883811Y-124133678D01*
X136808429Y-123951689D01*
X136770000Y-123758491D01*
X136770000Y-123561509D01*
X136808429Y-123368311D01*
X136883811Y-123186322D01*
X136993249Y-123022537D01*
X137132537Y-122883249D01*
X137296322Y-122773811D01*
X137478311Y-122698429D01*
X137574910Y-122679214D01*
X137671507Y-122660000D01*
X137868493Y-122660000D01*
X137965090Y-122679214D01*
G37*
G36*
X102762520Y-121834586D02*
G01*
X102762522Y-121834587D01*
X102762523Y-121834587D01*
X102823025Y-121859648D01*
X102926310Y-121902430D01*
X103073717Y-122000924D01*
X103199076Y-122126283D01*
X103297570Y-122273690D01*
X103365414Y-122437480D01*
X103400000Y-122611358D01*
X103400000Y-122788642D01*
X103365414Y-122962520D01*
X103297570Y-123126310D01*
X103199076Y-123273717D01*
X103073717Y-123399076D01*
X102926310Y-123497570D01*
X102823025Y-123540352D01*
X102762523Y-123565413D01*
X102762522Y-123565413D01*
X102762520Y-123565414D01*
X102588642Y-123600000D01*
X102411358Y-123600000D01*
X102237480Y-123565414D01*
X102237478Y-123565413D01*
X102237477Y-123565413D01*
X102176975Y-123540352D01*
X102073690Y-123497570D01*
X101926283Y-123399076D01*
X101800924Y-123273717D01*
X101702430Y-123126310D01*
X101634586Y-122962520D01*
X101600000Y-122788642D01*
X101600000Y-122611358D01*
X101634586Y-122437480D01*
X101702430Y-122273690D01*
X101800924Y-122126283D01*
X101926283Y-122000924D01*
X102073690Y-121902430D01*
X102176975Y-121859648D01*
X102237477Y-121834587D01*
X102237478Y-121834587D01*
X102237480Y-121834586D01*
X102411358Y-121800000D01*
X102588642Y-121800000D01*
X102762520Y-121834586D01*
G37*
G36*
X104762520Y-121834586D02*
G01*
X104762522Y-121834587D01*
X104762523Y-121834587D01*
X104823025Y-121859648D01*
X104926310Y-121902430D01*
X105073717Y-122000924D01*
X105199076Y-122126283D01*
X105297570Y-122273690D01*
X105365414Y-122437480D01*
X105400000Y-122611358D01*
X105400000Y-122788642D01*
X105365414Y-122962520D01*
X105297570Y-123126310D01*
X105199076Y-123273717D01*
X105073717Y-123399076D01*
X104926310Y-123497570D01*
X104823025Y-123540352D01*
X104762523Y-123565413D01*
X104762522Y-123565413D01*
X104762520Y-123565414D01*
X104588642Y-123600000D01*
X104411358Y-123600000D01*
X104237480Y-123565414D01*
X104237478Y-123565413D01*
X104237477Y-123565413D01*
X104176975Y-123540352D01*
X104073690Y-123497570D01*
X103926283Y-123399076D01*
X103800924Y-123273717D01*
X103702430Y-123126310D01*
X103634586Y-122962520D01*
X103600000Y-122788642D01*
X103600000Y-122611358D01*
X103634586Y-122437480D01*
X103702430Y-122273690D01*
X103800924Y-122126283D01*
X103926283Y-122000924D01*
X104073690Y-121902430D01*
X104176975Y-121859648D01*
X104237477Y-121834587D01*
X104237478Y-121834587D01*
X104237480Y-121834586D01*
X104411358Y-121800000D01*
X104588642Y-121800000D01*
X104762520Y-121834586D01*
G37*
G36*
X166821072Y-120533431D02*
G01*
X166996436Y-120606069D01*
X167154259Y-120711523D01*
X167288477Y-120845741D01*
X167393931Y-121003564D01*
X167466569Y-121178928D01*
X167503600Y-121365094D01*
X167503600Y-121554906D01*
X167466569Y-121741072D01*
X167393931Y-121916436D01*
X167288477Y-122074259D01*
X167154259Y-122208477D01*
X166996436Y-122313931D01*
X166821072Y-122386569D01*
X166634906Y-122423600D01*
X166445094Y-122423600D01*
X166258928Y-122386569D01*
X166083564Y-122313931D01*
X165925741Y-122208477D01*
X165791523Y-122074259D01*
X165686069Y-121916436D01*
X165613431Y-121741072D01*
X165576400Y-121554906D01*
X165576400Y-121365094D01*
X165613431Y-121178928D01*
X165686069Y-121003564D01*
X165791523Y-120845741D01*
X165925741Y-120711523D01*
X166083564Y-120606069D01*
X166258928Y-120533431D01*
X166445094Y-120496400D01*
X166634906Y-120496400D01*
X166821072Y-120533431D01*
G37*
G36*
X164281072Y-120533431D02*
G01*
X164456436Y-120606069D01*
X164614259Y-120711523D01*
X164748477Y-120845741D01*
X164853931Y-121003564D01*
X164926569Y-121178928D01*
X164963600Y-121365094D01*
X164963600Y-121554906D01*
X164926569Y-121741072D01*
X164853931Y-121916436D01*
X164748477Y-122074259D01*
X164614259Y-122208477D01*
X164456436Y-122313931D01*
X164281072Y-122386569D01*
X164094906Y-122423600D01*
X163905094Y-122423600D01*
X163718928Y-122386569D01*
X163543564Y-122313931D01*
X163385741Y-122208477D01*
X163251523Y-122074259D01*
X163146069Y-121916436D01*
X163073431Y-121741072D01*
X163036400Y-121554906D01*
X163036400Y-121365094D01*
X163073431Y-121178928D01*
X163146069Y-121003564D01*
X163251523Y-120845741D01*
X163385741Y-120711523D01*
X163543564Y-120606069D01*
X163718928Y-120533431D01*
X163905094Y-120496400D01*
X164094906Y-120496400D01*
X164281072Y-120533431D01*
G37*
G36*
X140320856Y-119375472D02*
G01*
X140521048Y-119458394D01*
X140701208Y-119578773D01*
X140854427Y-119731992D01*
X140974806Y-119912152D01*
X141057728Y-120112344D01*
X141100000Y-120324857D01*
X141100000Y-120541543D01*
X141057728Y-120754056D01*
X140974806Y-120954248D01*
X140854427Y-121134408D01*
X140701208Y-121287627D01*
X140521048Y-121408006D01*
X140320856Y-121490928D01*
X140108343Y-121533200D01*
X139891657Y-121533200D01*
X139679144Y-121490928D01*
X139478952Y-121408006D01*
X139298792Y-121287627D01*
X139145573Y-121134408D01*
X139025194Y-120954248D01*
X138942272Y-120754056D01*
X138900000Y-120541543D01*
X138900000Y-120324857D01*
X138942272Y-120112344D01*
X139025194Y-119912152D01*
X139145573Y-119731992D01*
X139298792Y-119578773D01*
X139478952Y-119458394D01*
X139679144Y-119375472D01*
X139891657Y-119333200D01*
X140108343Y-119333200D01*
X140320856Y-119375472D01*
G37*
G36*
X164281072Y-117993431D02*
G01*
X164456436Y-118066069D01*
X164614259Y-118171523D01*
X164748477Y-118305741D01*
X164853931Y-118463564D01*
X164926569Y-118638928D01*
X164963600Y-118825094D01*
X164963600Y-119014906D01*
X164926569Y-119201072D01*
X164853931Y-119376436D01*
X164748477Y-119534259D01*
X164614259Y-119668477D01*
X164456436Y-119773931D01*
X164281072Y-119846569D01*
X164094906Y-119883600D01*
X163905094Y-119883600D01*
X163718928Y-119846569D01*
X163543564Y-119773931D01*
X163385741Y-119668477D01*
X163251523Y-119534259D01*
X163146069Y-119376436D01*
X163073431Y-119201072D01*
X163036400Y-119014906D01*
X163036400Y-118825094D01*
X163073431Y-118638928D01*
X163146069Y-118463564D01*
X163251523Y-118305741D01*
X163385741Y-118171523D01*
X163543564Y-118066069D01*
X163718928Y-117993431D01*
X163905094Y-117956400D01*
X164094906Y-117956400D01*
X164281072Y-117993431D01*
G37*
G36*
X166821072Y-117993431D02*
G01*
X166996436Y-118066069D01*
X167154259Y-118171523D01*
X167288477Y-118305741D01*
X167393931Y-118463564D01*
X167466569Y-118638928D01*
X167503600Y-118825094D01*
X167503600Y-119014906D01*
X167466569Y-119201072D01*
X167393931Y-119376436D01*
X167288477Y-119534259D01*
X167154259Y-119668477D01*
X166996436Y-119773931D01*
X166821072Y-119846569D01*
X166634906Y-119883600D01*
X166445094Y-119883600D01*
X166258928Y-119846569D01*
X166083564Y-119773931D01*
X165925741Y-119668477D01*
X165791523Y-119534259D01*
X165686069Y-119376436D01*
X165613431Y-119201072D01*
X165576400Y-119014906D01*
X165576400Y-118825094D01*
X165613431Y-118638928D01*
X165686069Y-118463564D01*
X165791523Y-118305741D01*
X165925741Y-118171523D01*
X166083564Y-118066069D01*
X166258928Y-117993431D01*
X166445094Y-117956400D01*
X166634906Y-117956400D01*
X166821072Y-117993431D01*
G37*
G36*
X157850000Y-116825134D02*
G01*
X157851921Y-116844643D01*
X157857612Y-116863402D01*
X157866853Y-116880690D01*
X157879289Y-116895844D01*
X157894531Y-116908339D01*
X157901915Y-116913261D01*
X157905739Y-116916392D01*
X157905738Y-116916392D01*
X157920979Y-116928873D01*
X157933491Y-116944087D01*
X157933494Y-116944091D01*
X157942794Y-116961447D01*
X157942795Y-116961449D01*
X157948533Y-116980293D01*
X157950484Y-117000000D01*
X157950484Y-117000050D01*
X157950968Y-117004937D01*
X157950968Y-117995090D01*
X157948553Y-118019602D01*
X157942835Y-118038455D01*
X157933551Y-118055825D01*
X157921053Y-118071053D01*
X157905825Y-118083551D01*
X157888455Y-118092835D01*
X157869603Y-118098553D01*
X157864081Y-118099097D01*
X157845090Y-118100968D01*
X156354910Y-118100968D01*
X156335919Y-118099097D01*
X156330397Y-118098553D01*
X156320972Y-118095694D01*
X156311545Y-118092835D01*
X156294175Y-118083551D01*
X156278947Y-118071053D01*
X156266449Y-118055825D01*
X156257165Y-118038455D01*
X156251447Y-118019602D01*
X156249032Y-117995090D01*
X156249032Y-117004910D01*
X156251447Y-116980398D01*
X156257165Y-116961545D01*
X156266449Y-116944175D01*
X156278930Y-116928968D01*
X156278947Y-116928947D01*
X156294262Y-116916392D01*
X156294301Y-116916366D01*
X156298104Y-116913248D01*
X156305469Y-116908339D01*
X156320636Y-116895919D01*
X156333088Y-116880779D01*
X156342347Y-116863500D01*
X156348058Y-116844747D01*
X156350000Y-116825134D01*
X156350000Y-115950000D01*
X157850000Y-115950000D01*
X157850000Y-116825134D01*
G37*
G36*
X155350000Y-116825134D02*
G01*
X155351921Y-116844643D01*
X155357612Y-116863402D01*
X155366853Y-116880690D01*
X155379289Y-116895844D01*
X155394531Y-116908339D01*
X155401915Y-116913261D01*
X155405739Y-116916392D01*
X155405738Y-116916392D01*
X155420979Y-116928873D01*
X155433491Y-116944087D01*
X155433494Y-116944091D01*
X155442794Y-116961447D01*
X155442795Y-116961449D01*
X155448533Y-116980293D01*
X155450484Y-117000000D01*
X155450484Y-117000050D01*
X155450968Y-117004937D01*
X155450968Y-117995090D01*
X155448553Y-118019602D01*
X155442835Y-118038455D01*
X155433551Y-118055825D01*
X155421053Y-118071053D01*
X155405825Y-118083551D01*
X155388455Y-118092835D01*
X155369603Y-118098553D01*
X155364081Y-118099097D01*
X155345090Y-118100968D01*
X153854910Y-118100968D01*
X153835919Y-118099097D01*
X153830397Y-118098553D01*
X153820972Y-118095694D01*
X153811545Y-118092835D01*
X153794175Y-118083551D01*
X153778947Y-118071053D01*
X153766449Y-118055825D01*
X153757165Y-118038455D01*
X153751447Y-118019602D01*
X153749032Y-117995090D01*
X153749032Y-117004910D01*
X153751447Y-116980398D01*
X153757165Y-116961545D01*
X153766449Y-116944175D01*
X153778930Y-116928968D01*
X153778947Y-116928947D01*
X153794262Y-116916392D01*
X153794301Y-116916366D01*
X153798104Y-116913248D01*
X153805469Y-116908339D01*
X153820636Y-116895919D01*
X153833088Y-116880779D01*
X153842347Y-116863500D01*
X153848058Y-116844747D01*
X153850000Y-116825134D01*
X153850000Y-115950000D01*
X155350000Y-115950000D01*
X155350000Y-116825134D01*
G37*
G36*
X160700000Y-116825134D02*
G01*
X160701921Y-116844643D01*
X160707612Y-116863402D01*
X160716853Y-116880690D01*
X160729289Y-116895844D01*
X160744531Y-116908339D01*
X160751915Y-116913261D01*
X160755739Y-116916392D01*
X160755738Y-116916392D01*
X160770979Y-116928873D01*
X160783491Y-116944087D01*
X160783494Y-116944091D01*
X160792794Y-116961447D01*
X160792795Y-116961449D01*
X160798533Y-116980293D01*
X160800484Y-117000000D01*
X160800484Y-117000050D01*
X160800968Y-117004937D01*
X160800968Y-117995090D01*
X160798553Y-118019602D01*
X160792835Y-118038455D01*
X160783551Y-118055825D01*
X160771053Y-118071053D01*
X160755825Y-118083551D01*
X160738455Y-118092835D01*
X160719603Y-118098553D01*
X160714081Y-118099097D01*
X160695090Y-118100968D01*
X159204910Y-118100968D01*
X159185919Y-118099097D01*
X159180397Y-118098553D01*
X159170972Y-118095694D01*
X159161545Y-118092835D01*
X159144175Y-118083551D01*
X159128947Y-118071053D01*
X159116449Y-118055825D01*
X159107165Y-118038455D01*
X159101447Y-118019602D01*
X159099032Y-117995090D01*
X159099032Y-117004910D01*
X159101447Y-116980398D01*
X159107165Y-116961545D01*
X159116449Y-116944175D01*
X159128930Y-116928968D01*
X159128947Y-116928947D01*
X159144262Y-116916392D01*
X159144301Y-116916366D01*
X159148104Y-116913248D01*
X159155469Y-116908339D01*
X159170636Y-116895919D01*
X159183088Y-116880779D01*
X159192347Y-116863500D01*
X159198058Y-116844747D01*
X159200000Y-116825134D01*
X159200000Y-115950000D01*
X160700000Y-115950000D01*
X160700000Y-116825134D01*
G37*
G36*
X140320856Y-115642272D02*
G01*
X140521048Y-115725194D01*
X140701208Y-115845573D01*
X140854427Y-115998792D01*
X140974806Y-116178952D01*
X141057728Y-116379144D01*
X141100000Y-116591657D01*
X141100000Y-116808343D01*
X141057728Y-117020856D01*
X140974806Y-117221048D01*
X140854427Y-117401208D01*
X140701208Y-117554427D01*
X140521048Y-117674806D01*
X140320856Y-117757728D01*
X140108343Y-117800000D01*
X139891657Y-117800000D01*
X139679144Y-117757728D01*
X139478952Y-117674806D01*
X139298792Y-117554427D01*
X139145573Y-117401208D01*
X139025194Y-117221048D01*
X138942272Y-117020856D01*
X138900000Y-116808343D01*
X138900000Y-116591657D01*
X138942272Y-116379144D01*
X139025194Y-116178952D01*
X139145573Y-115998792D01*
X139298792Y-115845573D01*
X139478952Y-115725194D01*
X139679144Y-115642272D01*
X139891657Y-115600000D01*
X140108343Y-115600000D01*
X140320856Y-115642272D01*
G37*
G36*
X164281072Y-115453431D02*
G01*
X164456436Y-115526069D01*
X164614259Y-115631523D01*
X164748477Y-115765741D01*
X164853931Y-115923564D01*
X164926569Y-116098928D01*
X164963600Y-116285094D01*
X164963600Y-116474906D01*
X164926569Y-116661072D01*
X164853931Y-116836436D01*
X164835913Y-116863402D01*
X164757740Y-116980397D01*
X164748477Y-116994259D01*
X164614259Y-117128477D01*
X164456436Y-117233931D01*
X164281072Y-117306569D01*
X164094906Y-117343600D01*
X163905094Y-117343600D01*
X163718928Y-117306569D01*
X163543564Y-117233931D01*
X163385741Y-117128477D01*
X163251523Y-116994259D01*
X163242261Y-116980397D01*
X163164087Y-116863402D01*
X163146069Y-116836436D01*
X163073431Y-116661072D01*
X163036400Y-116474906D01*
X163036400Y-116285094D01*
X163073431Y-116098928D01*
X163146069Y-115923564D01*
X163251523Y-115765741D01*
X163385741Y-115631523D01*
X163543564Y-115526069D01*
X163718928Y-115453431D01*
X163905094Y-115416400D01*
X164094906Y-115416400D01*
X164281072Y-115453431D01*
G37*
G36*
X166821072Y-115453431D02*
G01*
X166996436Y-115526069D01*
X167154259Y-115631523D01*
X167288477Y-115765741D01*
X167393931Y-115923564D01*
X167466569Y-116098928D01*
X167503600Y-116285094D01*
X167503600Y-116474906D01*
X167466569Y-116661072D01*
X167393931Y-116836436D01*
X167375913Y-116863402D01*
X167297740Y-116980397D01*
X167288477Y-116994259D01*
X167154259Y-117128477D01*
X166996436Y-117233931D01*
X166821072Y-117306569D01*
X166634906Y-117343600D01*
X166445094Y-117343600D01*
X166258928Y-117306569D01*
X166083564Y-117233931D01*
X165925741Y-117128477D01*
X165791523Y-116994259D01*
X165782261Y-116980397D01*
X165704087Y-116863402D01*
X165686069Y-116836436D01*
X165613431Y-116661072D01*
X165576400Y-116474906D01*
X165576400Y-116285094D01*
X165613431Y-116098928D01*
X165686069Y-115923564D01*
X165791523Y-115765741D01*
X165925741Y-115631523D01*
X166083564Y-115526069D01*
X166258928Y-115453431D01*
X166445094Y-115416400D01*
X166634906Y-115416400D01*
X166821072Y-115453431D01*
G37*
G36*
X121498456Y-114193872D02*
G01*
X121698648Y-114276794D01*
X121878808Y-114397173D01*
X122032027Y-114550392D01*
X122152406Y-114730552D01*
X122235328Y-114930744D01*
X122277600Y-115143257D01*
X122277600Y-115359943D01*
X122235328Y-115572456D01*
X122152406Y-115772648D01*
X122032027Y-115952808D01*
X121878808Y-116106027D01*
X121698648Y-116226406D01*
X121498456Y-116309328D01*
X121285943Y-116351600D01*
X121069257Y-116351600D01*
X120856744Y-116309328D01*
X120656552Y-116226406D01*
X120476392Y-116106027D01*
X120323173Y-115952808D01*
X120202794Y-115772648D01*
X120119872Y-115572456D01*
X120077600Y-115359943D01*
X120077600Y-115143257D01*
X120119872Y-114930744D01*
X120202794Y-114730552D01*
X120323173Y-114550392D01*
X120476392Y-114397173D01*
X120656552Y-114276794D01*
X120856744Y-114193872D01*
X121069257Y-114151600D01*
X121285943Y-114151600D01*
X121498456Y-114193872D01*
G37*
G36*
X155364081Y-112900903D02*
G01*
X155369603Y-112901447D01*
X155388455Y-112907165D01*
X155405825Y-112916449D01*
X155421053Y-112928947D01*
X155433551Y-112944175D01*
X155442835Y-112961545D01*
X155448553Y-112980398D01*
X155450968Y-113004910D01*
X155450968Y-113995090D01*
X155448553Y-114019602D01*
X155442835Y-114038455D01*
X155433551Y-114055825D01*
X155423133Y-114068518D01*
X155421053Y-114071053D01*
X155405738Y-114083608D01*
X155405699Y-114083634D01*
X155401896Y-114086752D01*
X155394531Y-114091661D01*
X155379364Y-114104081D01*
X155366912Y-114119221D01*
X155357653Y-114136500D01*
X155351942Y-114155253D01*
X155350000Y-114174866D01*
X155350000Y-115050000D01*
X153850000Y-115050000D01*
X153850000Y-114174866D01*
X153848079Y-114155357D01*
X153842388Y-114136598D01*
X153833147Y-114119310D01*
X153820711Y-114104156D01*
X153805469Y-114091661D01*
X153798085Y-114086739D01*
X153792864Y-114082463D01*
X153779021Y-114071127D01*
X153766509Y-114055913D01*
X153766508Y-114055912D01*
X153766506Y-114055909D01*
X153757206Y-114038553D01*
X153757176Y-114038455D01*
X153751467Y-114019707D01*
X153749516Y-114000000D01*
X153749516Y-113999950D01*
X153749032Y-113995063D01*
X153749032Y-113004910D01*
X153751447Y-112980398D01*
X153757165Y-112961545D01*
X153766449Y-112944175D01*
X153778947Y-112928947D01*
X153794175Y-112916449D01*
X153811545Y-112907165D01*
X153830397Y-112901447D01*
X153835919Y-112900903D01*
X153854910Y-112899032D01*
X155345090Y-112899032D01*
X155364081Y-112900903D01*
G37*
G36*
X160714081Y-112900903D02*
G01*
X160719603Y-112901447D01*
X160738455Y-112907165D01*
X160755825Y-112916449D01*
X160771053Y-112928947D01*
X160783551Y-112944175D01*
X160792835Y-112961545D01*
X160798553Y-112980398D01*
X160800968Y-113004910D01*
X160800968Y-113995090D01*
X160798553Y-114019602D01*
X160792835Y-114038455D01*
X160783551Y-114055825D01*
X160773133Y-114068518D01*
X160771053Y-114071053D01*
X160755738Y-114083608D01*
X160755699Y-114083634D01*
X160751896Y-114086752D01*
X160744531Y-114091661D01*
X160729364Y-114104081D01*
X160716912Y-114119221D01*
X160707653Y-114136500D01*
X160701942Y-114155253D01*
X160700000Y-114174866D01*
X160700000Y-115050000D01*
X159200000Y-115050000D01*
X159200000Y-114174866D01*
X159198079Y-114155357D01*
X159192388Y-114136598D01*
X159183147Y-114119310D01*
X159170711Y-114104156D01*
X159155469Y-114091661D01*
X159148085Y-114086739D01*
X159142864Y-114082463D01*
X159129021Y-114071127D01*
X159116509Y-114055913D01*
X159116508Y-114055912D01*
X159116506Y-114055909D01*
X159107206Y-114038553D01*
X159107176Y-114038455D01*
X159101467Y-114019707D01*
X159099516Y-114000000D01*
X159099516Y-113999950D01*
X159099032Y-113995063D01*
X159099032Y-113004910D01*
X159101447Y-112980398D01*
X159107165Y-112961545D01*
X159116449Y-112944175D01*
X159128947Y-112928947D01*
X159144175Y-112916449D01*
X159161545Y-112907165D01*
X159180397Y-112901447D01*
X159185919Y-112900903D01*
X159204910Y-112899032D01*
X160695090Y-112899032D01*
X160714081Y-112900903D01*
G37*
G36*
X157864081Y-112900903D02*
G01*
X157869603Y-112901447D01*
X157888455Y-112907165D01*
X157905825Y-112916449D01*
X157921053Y-112928947D01*
X157933551Y-112944175D01*
X157942835Y-112961545D01*
X157948553Y-112980398D01*
X157950968Y-113004910D01*
X157950968Y-113995090D01*
X157948553Y-114019602D01*
X157942835Y-114038455D01*
X157933551Y-114055825D01*
X157923133Y-114068518D01*
X157921053Y-114071053D01*
X157905738Y-114083608D01*
X157905699Y-114083634D01*
X157901896Y-114086752D01*
X157894531Y-114091661D01*
X157879364Y-114104081D01*
X157866912Y-114119221D01*
X157857653Y-114136500D01*
X157851942Y-114155253D01*
X157850000Y-114174866D01*
X157850000Y-115050000D01*
X156350000Y-115050000D01*
X156350000Y-114174866D01*
X156348079Y-114155357D01*
X156342388Y-114136598D01*
X156333147Y-114119310D01*
X156320711Y-114104156D01*
X156305469Y-114091661D01*
X156298085Y-114086739D01*
X156292864Y-114082463D01*
X156279021Y-114071127D01*
X156266509Y-114055913D01*
X156266508Y-114055912D01*
X156266506Y-114055909D01*
X156257206Y-114038553D01*
X156257176Y-114038455D01*
X156251467Y-114019707D01*
X156249516Y-114000000D01*
X156249516Y-113999950D01*
X156249032Y-113995063D01*
X156249032Y-113004910D01*
X156251447Y-112980398D01*
X156257165Y-112961545D01*
X156266449Y-112944175D01*
X156278947Y-112928947D01*
X156294175Y-112916449D01*
X156311545Y-112907165D01*
X156330397Y-112901447D01*
X156335919Y-112900903D01*
X156354910Y-112899032D01*
X157845090Y-112899032D01*
X157864081Y-112900903D01*
G37*
G36*
X166821072Y-112913431D02*
G01*
X166996436Y-112986069D01*
X167154259Y-113091523D01*
X167288477Y-113225741D01*
X167393931Y-113383564D01*
X167466569Y-113558928D01*
X167503600Y-113745094D01*
X167503600Y-113934906D01*
X167466569Y-114121072D01*
X167393931Y-114296436D01*
X167393930Y-114296437D01*
X167288478Y-114454258D01*
X167154258Y-114588478D01*
X167075348Y-114641204D01*
X166996436Y-114693931D01*
X166821072Y-114766569D01*
X166634906Y-114803600D01*
X166445094Y-114803600D01*
X166258928Y-114766569D01*
X166083564Y-114693931D01*
X166004652Y-114641204D01*
X165925742Y-114588478D01*
X165791522Y-114454258D01*
X165686070Y-114296437D01*
X165686069Y-114296436D01*
X165613431Y-114121072D01*
X165576400Y-113934906D01*
X165576400Y-113745094D01*
X165613431Y-113558928D01*
X165686069Y-113383564D01*
X165791523Y-113225741D01*
X165925741Y-113091523D01*
X166083564Y-112986069D01*
X166258928Y-112913431D01*
X166445094Y-112876400D01*
X166634906Y-112876400D01*
X166821072Y-112913431D01*
G37*
G36*
X164281072Y-112913431D02*
G01*
X164456436Y-112986069D01*
X164614259Y-113091523D01*
X164748477Y-113225741D01*
X164853931Y-113383564D01*
X164926569Y-113558928D01*
X164963600Y-113745094D01*
X164963600Y-113934906D01*
X164926569Y-114121072D01*
X164853931Y-114296436D01*
X164853930Y-114296437D01*
X164748478Y-114454258D01*
X164614258Y-114588478D01*
X164535348Y-114641204D01*
X164456436Y-114693931D01*
X164281072Y-114766569D01*
X164094906Y-114803600D01*
X163905094Y-114803600D01*
X163718928Y-114766569D01*
X163543564Y-114693931D01*
X163464652Y-114641204D01*
X163385742Y-114588478D01*
X163251522Y-114454258D01*
X163146070Y-114296437D01*
X163146069Y-114296436D01*
X163073431Y-114121072D01*
X163036400Y-113934906D01*
X163036400Y-113745094D01*
X163073431Y-113558928D01*
X163146069Y-113383564D01*
X163251523Y-113225741D01*
X163385741Y-113091523D01*
X163543564Y-112986069D01*
X163718928Y-112913431D01*
X163905094Y-112876400D01*
X164094906Y-112876400D01*
X164281072Y-112913431D01*
G37*
G36*
X141056456Y-110129872D02*
G01*
X141256648Y-110212794D01*
X141436808Y-110333173D01*
X141590027Y-110486392D01*
X141710406Y-110666552D01*
X141793328Y-110866744D01*
X141835600Y-111079257D01*
X141835600Y-111295943D01*
X141793328Y-111508456D01*
X141710406Y-111708648D01*
X141590027Y-111888808D01*
X141436808Y-112042027D01*
X141256648Y-112162406D01*
X141056456Y-112245328D01*
X140843943Y-112287600D01*
X140627257Y-112287600D01*
X140414744Y-112245328D01*
X140214552Y-112162406D01*
X140034392Y-112042027D01*
X139881173Y-111888808D01*
X139760794Y-111708648D01*
X139677872Y-111508456D01*
X139635600Y-111295943D01*
X139635600Y-111079257D01*
X139677872Y-110866744D01*
X139760794Y-110666552D01*
X139881173Y-110486392D01*
X140034392Y-110333173D01*
X140214552Y-110212794D01*
X140414744Y-110129872D01*
X140627257Y-110087600D01*
X140843943Y-110087600D01*
X141056456Y-110129872D01*
G37*
G36*
X164963600Y-112263600D02*
G01*
X163036400Y-112263600D01*
X163036400Y-110336400D01*
X164963600Y-110336400D01*
X164963600Y-112263600D01*
G37*
G36*
X166821072Y-110373431D02*
G01*
X166996436Y-110446069D01*
X167154259Y-110551523D01*
X167288477Y-110685741D01*
X167393931Y-110843564D01*
X167466569Y-111018928D01*
X167503600Y-111205094D01*
X167503600Y-111394906D01*
X167466569Y-111581072D01*
X167393931Y-111756436D01*
X167288477Y-111914259D01*
X167154259Y-112048477D01*
X166996436Y-112153931D01*
X166821072Y-112226569D01*
X166634906Y-112263600D01*
X166445094Y-112263600D01*
X166258928Y-112226569D01*
X166083564Y-112153931D01*
X165925741Y-112048477D01*
X165791523Y-111914259D01*
X165686069Y-111756436D01*
X165613431Y-111581072D01*
X165576400Y-111394906D01*
X165576400Y-111205094D01*
X165613431Y-111018928D01*
X165686069Y-110843564D01*
X165791523Y-110685741D01*
X165925741Y-110551523D01*
X166083564Y-110446069D01*
X166258928Y-110373431D01*
X166445094Y-110336400D01*
X166634906Y-110336400D01*
X166821072Y-110373431D01*
G37*
G36*
X108220856Y-109012272D02*
G01*
X108421048Y-109095194D01*
X108601208Y-109215573D01*
X108754427Y-109368792D01*
X108874806Y-109548952D01*
X108957728Y-109749144D01*
X109000000Y-109961657D01*
X109000000Y-110178343D01*
X108957728Y-110390856D01*
X108874806Y-110591048D01*
X108754427Y-110771208D01*
X108601208Y-110924427D01*
X108421048Y-111044806D01*
X108220856Y-111127728D01*
X108008343Y-111170000D01*
X107791657Y-111170000D01*
X107579144Y-111127728D01*
X107378952Y-111044806D01*
X107198792Y-110924427D01*
X107045573Y-110771208D01*
X106925194Y-110591048D01*
X106842272Y-110390856D01*
X106800000Y-110178343D01*
X106800000Y-109961657D01*
X106842272Y-109749144D01*
X106925194Y-109548952D01*
X107045573Y-109368792D01*
X107198792Y-109215573D01*
X107378952Y-109095194D01*
X107579144Y-109012272D01*
X107791657Y-108970000D01*
X108008343Y-108970000D01*
X108220856Y-109012272D01*
G37*
G36*
X142377256Y-106573872D02*
G01*
X142577448Y-106656794D01*
X142757608Y-106777173D01*
X142910827Y-106930392D01*
X143031206Y-107110552D01*
X143114128Y-107310744D01*
X143156400Y-107523257D01*
X143156400Y-107739943D01*
X143114128Y-107952456D01*
X143031206Y-108152648D01*
X142910827Y-108332808D01*
X142757608Y-108486027D01*
X142577448Y-108606406D01*
X142377256Y-108689328D01*
X142164743Y-108731600D01*
X141948057Y-108731600D01*
X141735544Y-108689328D01*
X141535352Y-108606406D01*
X141355192Y-108486027D01*
X141201973Y-108332808D01*
X141081594Y-108152648D01*
X140998672Y-107952456D01*
X140956400Y-107739943D01*
X140956400Y-107523257D01*
X140998672Y-107310744D01*
X141081594Y-107110552D01*
X141201973Y-106930392D01*
X141355192Y-106777173D01*
X141535352Y-106656794D01*
X141735544Y-106573872D01*
X141948057Y-106531600D01*
X142164743Y-106531600D01*
X142377256Y-106573872D01*
G37*
G36*
X129162520Y-104934586D02*
G01*
X129162522Y-104934587D01*
X129162523Y-104934587D01*
X129223025Y-104959648D01*
X129326310Y-105002430D01*
X129473717Y-105100924D01*
X129599076Y-105226283D01*
X129697570Y-105373690D01*
X129765414Y-105537480D01*
X129800000Y-105711358D01*
X129800000Y-105888642D01*
X129765414Y-106062520D01*
X129697570Y-106226310D01*
X129599076Y-106373717D01*
X129473717Y-106499076D01*
X129326310Y-106597570D01*
X129223025Y-106640352D01*
X129162523Y-106665413D01*
X129162522Y-106665413D01*
X129162520Y-106665414D01*
X128988642Y-106700000D01*
X128811358Y-106700000D01*
X128637480Y-106665414D01*
X128637478Y-106665413D01*
X128637477Y-106665413D01*
X128576975Y-106640352D01*
X128473690Y-106597570D01*
X128326283Y-106499076D01*
X128200924Y-106373717D01*
X128102430Y-106226310D01*
X128034586Y-106062520D01*
X128000000Y-105888642D01*
X128000000Y-105711358D01*
X128034586Y-105537480D01*
X128102430Y-105373690D01*
X128200924Y-105226283D01*
X128326283Y-105100924D01*
X128473690Y-105002430D01*
X128576975Y-104959648D01*
X128637477Y-104934587D01*
X128637478Y-104934587D01*
X128637480Y-104934586D01*
X128811358Y-104900000D01*
X128988642Y-104900000D01*
X129162520Y-104934586D01*
G37*
G36*
X129162520Y-99934586D02*
G01*
X129162522Y-99934587D01*
X129162523Y-99934587D01*
X129223025Y-99959648D01*
X129326310Y-100002430D01*
X129473717Y-100100924D01*
X129599076Y-100226283D01*
X129697570Y-100373690D01*
X129765414Y-100537480D01*
X129800000Y-100711358D01*
X129800000Y-100888642D01*
X129765414Y-101062520D01*
X129697570Y-101226310D01*
X129599076Y-101373717D01*
X129473717Y-101499076D01*
X129326310Y-101597570D01*
X129223025Y-101640352D01*
X129162523Y-101665413D01*
X129162522Y-101665413D01*
X129162520Y-101665414D01*
X128988642Y-101700000D01*
X128811358Y-101700000D01*
X128637480Y-101665414D01*
X128637478Y-101665413D01*
X128637477Y-101665413D01*
X128576975Y-101640352D01*
X128473690Y-101597570D01*
X128326283Y-101499076D01*
X128200924Y-101373717D01*
X128102430Y-101226310D01*
X128034586Y-101062520D01*
X128000000Y-100888642D01*
X128000000Y-100711358D01*
X128034586Y-100537480D01*
X128102430Y-100373690D01*
X128200924Y-100226283D01*
X128326283Y-100100924D01*
X128473690Y-100002430D01*
X128576975Y-99959648D01*
X128637477Y-99934587D01*
X128637478Y-99934587D01*
X128637480Y-99934586D01*
X128811358Y-99900000D01*
X128988642Y-99900000D01*
X129162520Y-99934586D01*
G37*
G36*
X129118456Y-95855072D02*
G01*
X129318648Y-95937994D01*
X129498808Y-96058373D01*
X129652027Y-96211592D01*
X129772406Y-96391752D01*
X129855328Y-96591944D01*
X129897600Y-96804457D01*
X129897600Y-97021143D01*
X129855328Y-97233656D01*
X129772406Y-97433848D01*
X129652027Y-97614008D01*
X129498808Y-97767227D01*
X129318648Y-97887606D01*
X129118456Y-97970528D01*
X128905943Y-98012800D01*
X128689257Y-98012800D01*
X128476744Y-97970528D01*
X128276552Y-97887606D01*
X128096392Y-97767227D01*
X127943173Y-97614008D01*
X127822794Y-97433848D01*
X127739872Y-97233656D01*
X127697600Y-97021143D01*
X127697600Y-96804457D01*
X127739872Y-96591944D01*
X127822794Y-96391752D01*
X127943173Y-96211592D01*
X128096392Y-96058373D01*
X128276552Y-95937994D01*
X128476744Y-95855072D01*
X128689257Y-95812800D01*
X128905943Y-95812800D01*
X129118456Y-95855072D01*
G37*
G36*
X168014646Y-93669533D02*
G01*
X168269122Y-93746728D01*
X168503649Y-93872085D01*
X168709213Y-94040787D01*
X168877915Y-94246351D01*
X169003272Y-94480878D01*
X169080467Y-94735354D01*
X169106532Y-95000000D01*
X169080467Y-95264646D01*
X169003272Y-95519122D01*
X168877915Y-95753649D01*
X168709213Y-95959213D01*
X168503649Y-96127915D01*
X168269122Y-96253272D01*
X168014646Y-96330467D01*
X167816321Y-96350000D01*
X166183679Y-96350000D01*
X165985354Y-96330467D01*
X165730878Y-96253272D01*
X165496351Y-96127915D01*
X165290787Y-95959213D01*
X165122085Y-95753649D01*
X164996728Y-95519122D01*
X164919533Y-95264646D01*
X164893468Y-95000000D01*
X164919533Y-94735354D01*
X164996728Y-94480878D01*
X165122085Y-94246351D01*
X165290787Y-94040787D01*
X165496351Y-93872085D01*
X165730878Y-93746728D01*
X165985354Y-93669533D01*
X166183679Y-93650000D01*
X167816321Y-93650000D01*
X168014646Y-93669533D01*
G37*
G36*
X104014646Y-93669533D02*
G01*
X104269122Y-93746728D01*
X104503649Y-93872085D01*
X104709213Y-94040787D01*
X104877915Y-94246351D01*
X105003272Y-94480878D01*
X105080467Y-94735354D01*
X105106532Y-95000000D01*
X105080467Y-95264646D01*
X105003272Y-95519122D01*
X104877915Y-95753649D01*
X104709213Y-95959213D01*
X104503649Y-96127915D01*
X104269122Y-96253272D01*
X104014646Y-96330467D01*
X103816321Y-96350000D01*
X102183679Y-96350000D01*
X101985354Y-96330467D01*
X101730878Y-96253272D01*
X101496351Y-96127915D01*
X101290787Y-95959213D01*
X101122085Y-95753649D01*
X100996728Y-95519122D01*
X100919533Y-95264646D01*
X100893468Y-95000000D01*
X100919533Y-94735354D01*
X100996728Y-94480878D01*
X101122085Y-94246351D01*
X101290787Y-94040787D01*
X101496351Y-93872085D01*
X101730878Y-93746728D01*
X101985354Y-93669533D01*
X102183679Y-93650000D01*
X103816321Y-93650000D01*
X104014646Y-93669533D01*
G37*
G36*
X163054845Y-93718810D02*
G01*
X163299896Y-93793145D01*
X163447579Y-93872084D01*
X163525735Y-93913859D01*
X163525737Y-93913860D01*
X163525736Y-93913860D01*
X163723687Y-94076313D01*
X163886140Y-94274264D01*
X164006855Y-94500104D01*
X164081190Y-94745155D01*
X164106290Y-95000000D01*
X164081190Y-95254845D01*
X164006855Y-95499896D01*
X163886140Y-95725736D01*
X163723687Y-95923687D01*
X163559570Y-96058373D01*
X163525735Y-96086141D01*
X163454001Y-96124483D01*
X163299896Y-96206855D01*
X163054845Y-96281190D01*
X162863864Y-96300000D01*
X161136136Y-96300000D01*
X160945155Y-96281190D01*
X160700104Y-96206855D01*
X160545999Y-96124483D01*
X160474265Y-96086141D01*
X160440430Y-96058373D01*
X160276313Y-95923687D01*
X160113860Y-95725736D01*
X159993145Y-95499896D01*
X159918810Y-95254845D01*
X159893710Y-95000000D01*
X159918810Y-94745155D01*
X159993145Y-94500104D01*
X160113860Y-94274264D01*
X160276313Y-94076313D01*
X160474264Y-93913860D01*
X160474263Y-93913860D01*
X160474265Y-93913859D01*
X160552421Y-93872084D01*
X160700104Y-93793145D01*
X160945155Y-93718810D01*
X161136136Y-93700000D01*
X162863864Y-93700000D01*
X163054845Y-93718810D01*
G37*
G36*
X109054845Y-93718810D02*
G01*
X109299896Y-93793145D01*
X109447579Y-93872084D01*
X109525735Y-93913859D01*
X109525737Y-93913860D01*
X109525736Y-93913860D01*
X109723687Y-94076313D01*
X109886140Y-94274264D01*
X110006855Y-94500104D01*
X110081190Y-94745155D01*
X110106290Y-95000000D01*
X110081190Y-95254845D01*
X110006855Y-95499896D01*
X109886140Y-95725736D01*
X109723687Y-95923687D01*
X109559570Y-96058373D01*
X109525735Y-96086141D01*
X109454001Y-96124483D01*
X109299896Y-96206855D01*
X109054845Y-96281190D01*
X108863864Y-96300000D01*
X107136136Y-96300000D01*
X106945155Y-96281190D01*
X106700104Y-96206855D01*
X106545999Y-96124483D01*
X106474265Y-96086141D01*
X106440430Y-96058373D01*
X106276313Y-95923687D01*
X106113860Y-95725736D01*
X105993145Y-95499896D01*
X105918810Y-95254845D01*
X105893710Y-95000000D01*
X105918810Y-94745155D01*
X105993145Y-94500104D01*
X106113860Y-94274264D01*
X106276313Y-94076313D01*
X106474264Y-93913860D01*
X106474263Y-93913860D01*
X106474265Y-93913859D01*
X106552421Y-93872084D01*
X106700104Y-93793145D01*
X106945155Y-93718810D01*
X107136136Y-93700000D01*
X108863864Y-93700000D01*
X109054845Y-93718810D01*
G37*
G36*
X131404456Y-85593472D02*
G01*
X131604648Y-85676394D01*
X131784808Y-85796773D01*
X131938027Y-85949992D01*
X132058406Y-86130152D01*
X132141328Y-86330344D01*
X132183600Y-86542857D01*
X132183600Y-86759543D01*
X132141328Y-86972056D01*
X132058406Y-87172248D01*
X131938027Y-87352408D01*
X131784808Y-87505627D01*
X131604648Y-87626006D01*
X131404456Y-87708928D01*
X131191943Y-87751200D01*
X130975257Y-87751200D01*
X130762744Y-87708928D01*
X130562552Y-87626006D01*
X130382392Y-87505627D01*
X130229173Y-87352408D01*
X130108794Y-87172248D01*
X130025872Y-86972056D01*
X129983600Y-86759543D01*
X129983600Y-86542857D01*
X130025872Y-86330344D01*
X130108794Y-86130152D01*
X130229173Y-85949992D01*
X130382392Y-85796773D01*
X130562552Y-85676394D01*
X130762744Y-85593472D01*
X130975257Y-85551200D01*
X131191943Y-85551200D01*
X131404456Y-85593472D01*
G37*
G36*
X104014646Y-83669533D02*
G01*
X104269122Y-83746728D01*
X104503649Y-83872085D01*
X104709213Y-84040787D01*
X104877915Y-84246351D01*
X105003272Y-84480878D01*
X105080467Y-84735354D01*
X105106532Y-85000000D01*
X105080467Y-85264646D01*
X105003272Y-85519122D01*
X104877915Y-85753649D01*
X104709213Y-85959213D01*
X104503649Y-86127915D01*
X104269122Y-86253272D01*
X104014646Y-86330467D01*
X103816321Y-86350000D01*
X102183679Y-86350000D01*
X101985354Y-86330467D01*
X101730878Y-86253272D01*
X101496351Y-86127915D01*
X101290787Y-85959213D01*
X101122085Y-85753649D01*
X100996728Y-85519122D01*
X100919533Y-85264646D01*
X100893468Y-85000000D01*
X100919533Y-84735354D01*
X100996728Y-84480878D01*
X101122085Y-84246351D01*
X101290787Y-84040787D01*
X101496351Y-83872085D01*
X101730878Y-83746728D01*
X101985354Y-83669533D01*
X102183679Y-83650000D01*
X103816321Y-83650000D01*
X104014646Y-83669533D01*
G37*
G36*
X168014646Y-83669533D02*
G01*
X168269122Y-83746728D01*
X168503649Y-83872085D01*
X168709213Y-84040787D01*
X168877915Y-84246351D01*
X169003272Y-84480878D01*
X169080467Y-84735354D01*
X169106532Y-85000000D01*
X169080467Y-85264646D01*
X169003272Y-85519122D01*
X168877915Y-85753649D01*
X168709213Y-85959213D01*
X168503649Y-86127915D01*
X168269122Y-86253272D01*
X168014646Y-86330467D01*
X167816321Y-86350000D01*
X166183679Y-86350000D01*
X165985354Y-86330467D01*
X165730878Y-86253272D01*
X165496351Y-86127915D01*
X165290787Y-85959213D01*
X165122085Y-85753649D01*
X164996728Y-85519122D01*
X164919533Y-85264646D01*
X164893468Y-85000000D01*
X164919533Y-84735354D01*
X164996728Y-84480878D01*
X165122085Y-84246351D01*
X165290787Y-84040787D01*
X165496351Y-83872085D01*
X165730878Y-83746728D01*
X165985354Y-83669533D01*
X166183679Y-83650000D01*
X167816321Y-83650000D01*
X168014646Y-83669533D01*
G37*
G36*
X163054845Y-83718810D02*
G01*
X163299896Y-83793145D01*
X163447579Y-83872084D01*
X163525735Y-83913859D01*
X163525737Y-83913860D01*
X163525736Y-83913860D01*
X163723687Y-84076313D01*
X163886140Y-84274264D01*
X164006855Y-84500104D01*
X164081190Y-84745155D01*
X164106290Y-85000000D01*
X164081190Y-85254845D01*
X164006855Y-85499896D01*
X163886140Y-85725736D01*
X163723687Y-85923687D01*
X163543484Y-86071575D01*
X163525735Y-86086141D01*
X163454001Y-86124483D01*
X163299896Y-86206855D01*
X163054845Y-86281190D01*
X162863864Y-86300000D01*
X161136136Y-86300000D01*
X160945155Y-86281190D01*
X160700104Y-86206855D01*
X160545999Y-86124483D01*
X160474265Y-86086141D01*
X160456516Y-86071575D01*
X160276313Y-85923687D01*
X160113860Y-85725736D01*
X159993145Y-85499896D01*
X159918810Y-85254845D01*
X159893710Y-85000000D01*
X159918810Y-84745155D01*
X159993145Y-84500104D01*
X160113860Y-84274264D01*
X160276313Y-84076313D01*
X160474264Y-83913860D01*
X160474263Y-83913860D01*
X160474265Y-83913859D01*
X160552421Y-83872084D01*
X160700104Y-83793145D01*
X160945155Y-83718810D01*
X161136136Y-83700000D01*
X162863864Y-83700000D01*
X163054845Y-83718810D01*
G37*
G36*
X109054845Y-83718810D02*
G01*
X109299896Y-83793145D01*
X109447579Y-83872084D01*
X109525735Y-83913859D01*
X109525737Y-83913860D01*
X109525736Y-83913860D01*
X109723687Y-84076313D01*
X109886140Y-84274264D01*
X110006855Y-84500104D01*
X110081190Y-84745155D01*
X110106290Y-85000000D01*
X110081190Y-85254845D01*
X110006855Y-85499896D01*
X109886140Y-85725736D01*
X109723687Y-85923687D01*
X109543484Y-86071575D01*
X109525735Y-86086141D01*
X109454001Y-86124483D01*
X109299896Y-86206855D01*
X109054845Y-86281190D01*
X108863864Y-86300000D01*
X107136136Y-86300000D01*
X106945155Y-86281190D01*
X106700104Y-86206855D01*
X106545999Y-86124483D01*
X106474265Y-86086141D01*
X106456516Y-86071575D01*
X106276313Y-85923687D01*
X106113860Y-85725736D01*
X105993145Y-85499896D01*
X105918810Y-85254845D01*
X105893710Y-85000000D01*
X105918810Y-84745155D01*
X105993145Y-84500104D01*
X106113860Y-84274264D01*
X106276313Y-84076313D01*
X106474264Y-83913860D01*
X106474263Y-83913860D01*
X106474265Y-83913859D01*
X106552421Y-83872084D01*
X106700104Y-83793145D01*
X106945155Y-83718810D01*
X107136136Y-83700000D01*
X108863864Y-83700000D01*
X109054845Y-83718810D01*
G37*
G36*
X129162520Y-79234586D02*
G01*
X129162522Y-79234587D01*
X129162523Y-79234587D01*
X129223025Y-79259648D01*
X129326310Y-79302430D01*
X129473717Y-79400924D01*
X129599076Y-79526283D01*
X129697570Y-79673690D01*
X129765414Y-79837480D01*
X129800000Y-80011358D01*
X129800000Y-80188642D01*
X129765414Y-80362520D01*
X129697570Y-80526310D01*
X129599076Y-80673717D01*
X129473717Y-80799076D01*
X129326310Y-80897570D01*
X129223025Y-80940352D01*
X129162523Y-80965413D01*
X129162522Y-80965413D01*
X129162520Y-80965414D01*
X128988642Y-81000000D01*
X128811358Y-81000000D01*
X128637480Y-80965414D01*
X128637478Y-80965413D01*
X128637477Y-80965413D01*
X128576975Y-80940352D01*
X128473690Y-80897570D01*
X128326283Y-80799076D01*
X128200924Y-80673717D01*
X128102430Y-80526310D01*
X128034586Y-80362520D01*
X128000000Y-80188642D01*
X128000000Y-80011358D01*
X128034586Y-79837480D01*
X128102430Y-79673690D01*
X128200924Y-79526283D01*
X128326283Y-79400924D01*
X128473690Y-79302430D01*
X128576975Y-79259648D01*
X128637477Y-79234587D01*
X128637478Y-79234587D01*
X128637480Y-79234586D01*
X128811358Y-79200000D01*
X128988642Y-79200000D01*
X129162520Y-79234586D01*
G37*
G36*
X105495872Y-73865330D02*
G01*
X105805252Y-73993479D01*
X106083687Y-74179523D01*
X106320477Y-74416313D01*
X106506521Y-74694748D01*
X106634670Y-75004128D01*
X106700000Y-75332565D01*
X106700000Y-75667435D01*
X106634670Y-75995872D01*
X106506521Y-76305252D01*
X106320477Y-76583687D01*
X106083687Y-76820477D01*
X105805252Y-77006521D01*
X105495872Y-77134670D01*
X105167435Y-77200000D01*
X104832565Y-77200000D01*
X104504128Y-77134670D01*
X104194748Y-77006521D01*
X103916313Y-76820477D01*
X103679523Y-76583687D01*
X103493479Y-76305252D01*
X103365330Y-75995872D01*
X103300000Y-75667435D01*
X103300000Y-75332565D01*
X103365330Y-75004128D01*
X103493479Y-74694748D01*
X103679523Y-74416313D01*
X103916313Y-74179523D01*
X104194748Y-73993479D01*
X104504128Y-73865330D01*
X104832565Y-73800000D01*
X105167435Y-73800000D01*
X105495872Y-73865330D01*
G37*
G36*
X165495872Y-73865330D02*
G01*
X165805252Y-73993479D01*
X166083687Y-74179523D01*
X166320477Y-74416313D01*
X166506521Y-74694748D01*
X166634670Y-75004128D01*
X166700000Y-75332565D01*
X166700000Y-75667435D01*
X166634670Y-75995872D01*
X166506521Y-76305252D01*
X166320477Y-76583687D01*
X166083687Y-76820477D01*
X165805252Y-77006521D01*
X165495872Y-77134670D01*
X165167435Y-77200000D01*
X164832565Y-77200000D01*
X164504128Y-77134670D01*
X164194748Y-77006521D01*
X163916313Y-76820477D01*
X163679523Y-76583687D01*
X163493479Y-76305252D01*
X163365330Y-75995872D01*
X163300000Y-75667435D01*
X163300000Y-75332565D01*
X163365330Y-75004128D01*
X163493479Y-74694748D01*
X163679523Y-74416313D01*
X163916313Y-74179523D01*
X164194748Y-73993479D01*
X164504128Y-73865330D01*
X164832565Y-73800000D01*
X165167435Y-73800000D01*
X165495872Y-73865330D01*
G37*
G36*
X129162520Y-74234586D02*
G01*
X129162522Y-74234587D01*
X129162523Y-74234587D01*
X129223025Y-74259648D01*
X129326310Y-74302430D01*
X129473717Y-74400924D01*
X129599076Y-74526283D01*
X129697570Y-74673690D01*
X129765414Y-74837480D01*
X129800000Y-75011358D01*
X129800000Y-75188642D01*
X129765414Y-75362520D01*
X129697570Y-75526310D01*
X129599076Y-75673717D01*
X129473717Y-75799076D01*
X129326310Y-75897570D01*
X129223025Y-75940352D01*
X129162523Y-75965413D01*
X129162522Y-75965413D01*
X129162520Y-75965414D01*
X128988642Y-76000000D01*
X128811358Y-76000000D01*
X128637480Y-75965414D01*
X128637478Y-75965413D01*
X128637477Y-75965413D01*
X128576975Y-75940352D01*
X128473690Y-75897570D01*
X128326283Y-75799076D01*
X128200924Y-75673717D01*
X128102430Y-75526310D01*
X128034586Y-75362520D01*
X128000000Y-75188642D01*
X128000000Y-75011358D01*
X128034586Y-74837480D01*
X128102430Y-74673690D01*
X128200924Y-74526283D01*
X128326283Y-74400924D01*
X128473690Y-74302430D01*
X128576975Y-74259648D01*
X128637477Y-74234587D01*
X128637478Y-74234587D01*
X128637480Y-74234586D01*
X128811358Y-74200000D01*
X128988642Y-74200000D01*
X129162520Y-74234586D01*
G37*
M02*
