G04 #@! TF.GenerationSoftware,KiCad,Pcbnew,(5.0.2)-1*
G04 #@! TF.CreationDate,2019-05-09T18:04:07+02:00*
G04 #@! TF.ProjectId,MotorDriver,4d6f746f-7244-4726-9976-65722e6b6963,rev?*
G04 #@! TF.SameCoordinates,Original*
G04 #@! TF.FileFunction,Soldermask,Top*
G04 #@! TF.FilePolarity,Negative*
%FSLAX46Y46*%
G04 Gerber Fmt 4.6, Leading zero omitted, Abs format (unit mm)*
G04 Created by KiCad (PCBNEW (5.0.2)-1) date 09.05.2019 18:04:07*
%MOMM*%
%LPD*%
G01*
G04 APERTURE LIST*
%ADD10C,0.100000*%
G04 APERTURE END LIST*
D10*
G36*
X160120856Y-136942272D02*
X160321045Y-137025193D01*
X160501207Y-137145573D01*
X160654427Y-137298793D01*
X160774807Y-137478955D01*
X160857728Y-137679144D01*
X160900000Y-137891657D01*
X160900000Y-138108343D01*
X160857728Y-138320856D01*
X160774807Y-138521045D01*
X160654427Y-138701207D01*
X160501207Y-138854427D01*
X160321045Y-138974807D01*
X160120856Y-139057728D01*
X159908343Y-139100000D01*
X159691657Y-139100000D01*
X159479144Y-139057728D01*
X159278955Y-138974807D01*
X159098793Y-138854427D01*
X158945573Y-138701207D01*
X158825193Y-138521045D01*
X158742272Y-138320856D01*
X158700000Y-138108343D01*
X158700000Y-137891657D01*
X158742272Y-137679144D01*
X158825193Y-137478955D01*
X158945573Y-137298793D01*
X159098793Y-137145573D01*
X159278955Y-137025193D01*
X159479144Y-136942272D01*
X159691657Y-136900000D01*
X159908343Y-136900000D01*
X160120856Y-136942272D01*
X160120856Y-136942272D01*
G37*
G36*
X152648452Y-135586359D02*
X152688899Y-135590343D01*
X152773449Y-135615991D01*
X152870537Y-135645442D01*
X153037939Y-135734920D01*
X153184665Y-135855335D01*
X153305080Y-136002061D01*
X153394558Y-136169463D01*
X153424009Y-136266551D01*
X153449657Y-136351101D01*
X153449657Y-136351103D01*
X153468263Y-136540000D01*
X153458938Y-136634669D01*
X153449657Y-136728899D01*
X153424009Y-136813449D01*
X153394558Y-136910537D01*
X153305080Y-137077939D01*
X153184665Y-137224665D01*
X153037939Y-137345080D01*
X152870537Y-137434558D01*
X152773449Y-137464009D01*
X152688899Y-137489657D01*
X152648452Y-137493641D01*
X152547339Y-137503600D01*
X152452661Y-137503600D01*
X152351548Y-137493641D01*
X152311101Y-137489657D01*
X152226551Y-137464009D01*
X152129463Y-137434558D01*
X151962061Y-137345080D01*
X151815335Y-137224665D01*
X151694920Y-137077939D01*
X151605442Y-136910537D01*
X151575991Y-136813449D01*
X151550343Y-136728899D01*
X151541062Y-136634669D01*
X151531737Y-136540000D01*
X151550343Y-136351103D01*
X151550343Y-136351101D01*
X151575991Y-136266551D01*
X151605442Y-136169463D01*
X151694920Y-136002061D01*
X151815335Y-135855335D01*
X151962061Y-135734920D01*
X152129463Y-135645442D01*
X152226551Y-135615991D01*
X152311101Y-135590343D01*
X152351548Y-135586359D01*
X152452661Y-135576400D01*
X152547339Y-135576400D01*
X152648452Y-135586359D01*
X152648452Y-135586359D01*
G37*
G36*
X147568452Y-135586359D02*
X147608899Y-135590343D01*
X147693449Y-135615991D01*
X147790537Y-135645442D01*
X147957939Y-135734920D01*
X148104665Y-135855335D01*
X148225080Y-136002061D01*
X148314558Y-136169463D01*
X148344009Y-136266551D01*
X148369657Y-136351101D01*
X148369657Y-136351103D01*
X148388263Y-136540000D01*
X148378938Y-136634669D01*
X148369657Y-136728899D01*
X148344009Y-136813449D01*
X148314558Y-136910537D01*
X148225080Y-137077939D01*
X148104665Y-137224665D01*
X147957939Y-137345080D01*
X147790537Y-137434558D01*
X147693449Y-137464009D01*
X147608899Y-137489657D01*
X147568452Y-137493641D01*
X147467339Y-137503600D01*
X147372661Y-137503600D01*
X147271548Y-137493641D01*
X147231101Y-137489657D01*
X147146551Y-137464009D01*
X147049463Y-137434558D01*
X146882061Y-137345080D01*
X146735335Y-137224665D01*
X146614920Y-137077939D01*
X146525442Y-136910537D01*
X146495991Y-136813449D01*
X146470343Y-136728899D01*
X146461062Y-136634669D01*
X146451737Y-136540000D01*
X146470343Y-136351103D01*
X146470343Y-136351101D01*
X146495991Y-136266551D01*
X146525442Y-136169463D01*
X146614920Y-136002061D01*
X146735335Y-135855335D01*
X146882061Y-135734920D01*
X147049463Y-135645442D01*
X147146551Y-135615991D01*
X147231101Y-135590343D01*
X147271548Y-135586359D01*
X147372661Y-135576400D01*
X147467339Y-135576400D01*
X147568452Y-135586359D01*
X147568452Y-135586359D01*
G37*
G36*
X150108452Y-135586359D02*
X150148899Y-135590343D01*
X150233449Y-135615991D01*
X150330537Y-135645442D01*
X150497939Y-135734920D01*
X150644665Y-135855335D01*
X150765080Y-136002061D01*
X150854558Y-136169463D01*
X150884009Y-136266551D01*
X150909657Y-136351101D01*
X150909657Y-136351103D01*
X150928263Y-136540000D01*
X150918938Y-136634669D01*
X150909657Y-136728899D01*
X150884009Y-136813449D01*
X150854558Y-136910537D01*
X150765080Y-137077939D01*
X150644665Y-137224665D01*
X150497939Y-137345080D01*
X150330537Y-137434558D01*
X150233449Y-137464009D01*
X150148899Y-137489657D01*
X150108452Y-137493641D01*
X150007339Y-137503600D01*
X149912661Y-137503600D01*
X149811548Y-137493641D01*
X149771101Y-137489657D01*
X149686551Y-137464009D01*
X149589463Y-137434558D01*
X149422061Y-137345080D01*
X149275335Y-137224665D01*
X149154920Y-137077939D01*
X149065442Y-136910537D01*
X149035991Y-136813449D01*
X149010343Y-136728899D01*
X149001062Y-136634669D01*
X148991737Y-136540000D01*
X149010343Y-136351103D01*
X149010343Y-136351101D01*
X149035991Y-136266551D01*
X149065442Y-136169463D01*
X149154920Y-136002061D01*
X149275335Y-135855335D01*
X149422061Y-135734920D01*
X149589463Y-135645442D01*
X149686551Y-135615991D01*
X149771101Y-135590343D01*
X149811548Y-135586359D01*
X149912661Y-135576400D01*
X150007339Y-135576400D01*
X150108452Y-135586359D01*
X150108452Y-135586359D01*
G37*
G36*
X105495872Y-133365330D02*
X105495874Y-133365331D01*
X105495875Y-133365331D01*
X105555177Y-133389895D01*
X105805252Y-133493479D01*
X106083687Y-133679523D01*
X106320477Y-133916313D01*
X106506521Y-134194748D01*
X106579335Y-134370537D01*
X106629505Y-134491657D01*
X106634670Y-134504128D01*
X106700000Y-134832565D01*
X106700000Y-135167435D01*
X106634670Y-135495872D01*
X106506521Y-135805252D01*
X106320477Y-136083687D01*
X106083687Y-136320477D01*
X105805252Y-136506521D01*
X105556284Y-136609647D01*
X105495875Y-136634669D01*
X105495874Y-136634669D01*
X105495872Y-136634670D01*
X105167435Y-136700000D01*
X104832565Y-136700000D01*
X104504128Y-136634670D01*
X104504126Y-136634669D01*
X104504125Y-136634669D01*
X104443716Y-136609647D01*
X104194748Y-136506521D01*
X103916313Y-136320477D01*
X103679523Y-136083687D01*
X103493479Y-135805252D01*
X103365330Y-135495872D01*
X103300000Y-135167435D01*
X103300000Y-134832565D01*
X103365330Y-134504128D01*
X103370496Y-134491657D01*
X103420665Y-134370537D01*
X103493479Y-134194748D01*
X103679523Y-133916313D01*
X103916313Y-133679523D01*
X104194748Y-133493479D01*
X104444823Y-133389895D01*
X104504125Y-133365331D01*
X104504126Y-133365331D01*
X104504128Y-133365330D01*
X104832565Y-133300000D01*
X105167435Y-133300000D01*
X105495872Y-133365330D01*
X105495872Y-133365330D01*
G37*
G36*
X165495872Y-133365330D02*
X165495874Y-133365331D01*
X165495875Y-133365331D01*
X165555177Y-133389895D01*
X165805252Y-133493479D01*
X166083687Y-133679523D01*
X166320477Y-133916313D01*
X166506521Y-134194748D01*
X166579335Y-134370537D01*
X166629505Y-134491657D01*
X166634670Y-134504128D01*
X166700000Y-134832565D01*
X166700000Y-135167435D01*
X166634670Y-135495872D01*
X166506521Y-135805252D01*
X166320477Y-136083687D01*
X166083687Y-136320477D01*
X165805252Y-136506521D01*
X165556284Y-136609647D01*
X165495875Y-136634669D01*
X165495874Y-136634669D01*
X165495872Y-136634670D01*
X165167435Y-136700000D01*
X164832565Y-136700000D01*
X164504128Y-136634670D01*
X164504126Y-136634669D01*
X164504125Y-136634669D01*
X164443716Y-136609647D01*
X164194748Y-136506521D01*
X163916313Y-136320477D01*
X163679523Y-136083687D01*
X163493479Y-135805252D01*
X163365330Y-135495872D01*
X163300000Y-135167435D01*
X163300000Y-134832565D01*
X163365330Y-134504128D01*
X163370496Y-134491657D01*
X163420665Y-134370537D01*
X163493479Y-134194748D01*
X163679523Y-133916313D01*
X163916313Y-133679523D01*
X164194748Y-133493479D01*
X164444823Y-133389895D01*
X164504125Y-133365331D01*
X164504126Y-133365331D01*
X164504128Y-133365330D01*
X164832565Y-133300000D01*
X165167435Y-133300000D01*
X165495872Y-133365330D01*
X165495872Y-133365330D01*
G37*
G36*
X160120856Y-133542272D02*
X160321045Y-133625193D01*
X160501207Y-133745573D01*
X160654427Y-133898793D01*
X160774807Y-134078955D01*
X160857728Y-134279144D01*
X160900000Y-134491657D01*
X160900000Y-134708343D01*
X160857728Y-134920856D01*
X160774807Y-135121045D01*
X160654427Y-135301207D01*
X160501207Y-135454427D01*
X160321045Y-135574807D01*
X160120856Y-135657728D01*
X159908343Y-135700000D01*
X159691657Y-135700000D01*
X159479144Y-135657728D01*
X159278955Y-135574807D01*
X159098793Y-135454427D01*
X158945573Y-135301207D01*
X158825193Y-135121045D01*
X158742272Y-134920856D01*
X158700000Y-134708343D01*
X158700000Y-134491657D01*
X158742272Y-134279144D01*
X158825193Y-134078955D01*
X158945573Y-133898793D01*
X159098793Y-133745573D01*
X159278955Y-133625193D01*
X159479144Y-133542272D01*
X159691657Y-133500000D01*
X159908343Y-133500000D01*
X160120856Y-133542272D01*
X160120856Y-133542272D01*
G37*
G36*
X114380856Y-133342272D02*
X114581045Y-133425193D01*
X114761207Y-133545573D01*
X114914427Y-133698793D01*
X115034807Y-133878955D01*
X115117728Y-134079144D01*
X115160000Y-134291657D01*
X115160000Y-134508343D01*
X115117728Y-134720856D01*
X115034807Y-134921045D01*
X114914427Y-135101207D01*
X114761207Y-135254427D01*
X114581045Y-135374807D01*
X114380856Y-135457728D01*
X114168343Y-135500000D01*
X113951657Y-135500000D01*
X113739144Y-135457728D01*
X113538955Y-135374807D01*
X113358793Y-135254427D01*
X113205573Y-135101207D01*
X113085193Y-134921045D01*
X113002272Y-134720856D01*
X112960000Y-134508343D01*
X112960000Y-134291657D01*
X113002272Y-134079144D01*
X113085193Y-133878955D01*
X113205573Y-133698793D01*
X113358793Y-133545573D01*
X113538955Y-133425193D01*
X113739144Y-133342272D01*
X113951657Y-133300000D01*
X114168343Y-133300000D01*
X114380856Y-133342272D01*
X114380856Y-133342272D01*
G37*
G36*
X147568452Y-133046359D02*
X147608899Y-133050343D01*
X147693449Y-133075991D01*
X147790537Y-133105442D01*
X147957939Y-133194920D01*
X148104665Y-133315335D01*
X148225080Y-133462061D01*
X148314558Y-133629463D01*
X148338596Y-133708708D01*
X148369657Y-133811101D01*
X148369657Y-133811103D01*
X148388263Y-134000000D01*
X148380467Y-134079144D01*
X148369657Y-134188899D01*
X148344009Y-134273449D01*
X148314558Y-134370537D01*
X148225080Y-134537939D01*
X148104665Y-134684665D01*
X147957939Y-134805080D01*
X147790537Y-134894558D01*
X147693449Y-134924009D01*
X147608899Y-134949657D01*
X147568452Y-134953641D01*
X147467339Y-134963600D01*
X147372661Y-134963600D01*
X147271548Y-134953641D01*
X147231101Y-134949657D01*
X147146551Y-134924009D01*
X147049463Y-134894558D01*
X146882061Y-134805080D01*
X146735335Y-134684665D01*
X146614920Y-134537939D01*
X146525442Y-134370537D01*
X146495991Y-134273449D01*
X146470343Y-134188899D01*
X146459533Y-134079144D01*
X146451737Y-134000000D01*
X146470343Y-133811103D01*
X146470343Y-133811101D01*
X146501404Y-133708708D01*
X146525442Y-133629463D01*
X146614920Y-133462061D01*
X146735335Y-133315335D01*
X146882061Y-133194920D01*
X147049463Y-133105442D01*
X147146551Y-133075991D01*
X147231101Y-133050343D01*
X147271548Y-133046359D01*
X147372661Y-133036400D01*
X147467339Y-133036400D01*
X147568452Y-133046359D01*
X147568452Y-133046359D01*
G37*
G36*
X150108452Y-133046359D02*
X150148899Y-133050343D01*
X150233449Y-133075991D01*
X150330537Y-133105442D01*
X150497939Y-133194920D01*
X150644665Y-133315335D01*
X150765080Y-133462061D01*
X150854558Y-133629463D01*
X150878596Y-133708708D01*
X150909657Y-133811101D01*
X150909657Y-133811103D01*
X150928263Y-134000000D01*
X150920467Y-134079144D01*
X150909657Y-134188899D01*
X150884009Y-134273449D01*
X150854558Y-134370537D01*
X150765080Y-134537939D01*
X150644665Y-134684665D01*
X150497939Y-134805080D01*
X150330537Y-134894558D01*
X150233449Y-134924009D01*
X150148899Y-134949657D01*
X150108452Y-134953641D01*
X150007339Y-134963600D01*
X149912661Y-134963600D01*
X149811548Y-134953641D01*
X149771101Y-134949657D01*
X149686551Y-134924009D01*
X149589463Y-134894558D01*
X149422061Y-134805080D01*
X149275335Y-134684665D01*
X149154920Y-134537939D01*
X149065442Y-134370537D01*
X149035991Y-134273449D01*
X149010343Y-134188899D01*
X148999533Y-134079144D01*
X148991737Y-134000000D01*
X149010343Y-133811103D01*
X149010343Y-133811101D01*
X149041404Y-133708708D01*
X149065442Y-133629463D01*
X149154920Y-133462061D01*
X149275335Y-133315335D01*
X149422061Y-133194920D01*
X149589463Y-133105442D01*
X149686551Y-133075991D01*
X149771101Y-133050343D01*
X149811548Y-133046359D01*
X149912661Y-133036400D01*
X150007339Y-133036400D01*
X150108452Y-133046359D01*
X150108452Y-133046359D01*
G37*
G36*
X153463600Y-134963600D02*
X151536400Y-134963600D01*
X151536400Y-133036400D01*
X153463600Y-133036400D01*
X153463600Y-134963600D01*
X153463600Y-134963600D01*
G37*
G36*
X128673164Y-130391290D02*
X128987094Y-130521324D01*
X129269624Y-130710105D01*
X129509895Y-130950376D01*
X129698676Y-131232906D01*
X129828710Y-131546836D01*
X129895000Y-131880102D01*
X129895000Y-132219898D01*
X129828710Y-132553164D01*
X129698676Y-132867094D01*
X129509895Y-133149624D01*
X129269624Y-133389895D01*
X128987094Y-133578676D01*
X128673164Y-133708710D01*
X128339898Y-133775000D01*
X128000102Y-133775000D01*
X127666836Y-133708710D01*
X127352906Y-133578676D01*
X127070376Y-133389895D01*
X126830105Y-133149624D01*
X126641324Y-132867094D01*
X126511290Y-132553164D01*
X126445000Y-132219898D01*
X126445000Y-131880102D01*
X126511290Y-131546836D01*
X126641324Y-131232906D01*
X126830105Y-130950376D01*
X127070376Y-130710105D01*
X127352906Y-130521324D01*
X127666836Y-130391290D01*
X128000102Y-130325000D01*
X128339898Y-130325000D01*
X128673164Y-130391290D01*
X128673164Y-130391290D01*
G37*
G36*
X132553164Y-130391290D02*
X132867094Y-130521324D01*
X133149624Y-130710105D01*
X133389895Y-130950376D01*
X133578676Y-131232906D01*
X133708710Y-131546836D01*
X133775000Y-131880102D01*
X133775000Y-132219898D01*
X133708710Y-132553164D01*
X133578676Y-132867094D01*
X133389895Y-133149624D01*
X133149624Y-133389895D01*
X132867094Y-133578676D01*
X132553164Y-133708710D01*
X132219898Y-133775000D01*
X131880102Y-133775000D01*
X131546836Y-133708710D01*
X131232906Y-133578676D01*
X130950376Y-133389895D01*
X130710105Y-133149624D01*
X130521324Y-132867094D01*
X130391290Y-132553164D01*
X130325000Y-132219898D01*
X130325000Y-131880102D01*
X130391290Y-131546836D01*
X130521324Y-131232906D01*
X130710105Y-130950376D01*
X130950376Y-130710105D01*
X131232906Y-130521324D01*
X131546836Y-130391290D01*
X131880102Y-130325000D01*
X132219898Y-130325000D01*
X132553164Y-130391290D01*
X132553164Y-130391290D01*
G37*
G36*
X140173164Y-130391290D02*
X140487094Y-130521324D01*
X140769624Y-130710105D01*
X141009895Y-130950376D01*
X141198676Y-131232906D01*
X141328710Y-131546836D01*
X141395000Y-131880102D01*
X141395000Y-132219898D01*
X141328710Y-132553164D01*
X141198676Y-132867094D01*
X141009895Y-133149624D01*
X140769624Y-133389895D01*
X140487094Y-133578676D01*
X140173164Y-133708710D01*
X139839898Y-133775000D01*
X139500102Y-133775000D01*
X139166836Y-133708710D01*
X138852906Y-133578676D01*
X138570376Y-133389895D01*
X138330105Y-133149624D01*
X138141324Y-132867094D01*
X138011290Y-132553164D01*
X137945000Y-132219898D01*
X137945000Y-131880102D01*
X138011290Y-131546836D01*
X138141324Y-131232906D01*
X138330105Y-130950376D01*
X138570376Y-130710105D01*
X138852906Y-130521324D01*
X139166836Y-130391290D01*
X139500102Y-130325000D01*
X139839898Y-130325000D01*
X140173164Y-130391290D01*
X140173164Y-130391290D01*
G37*
G36*
X121053164Y-130391290D02*
X121367094Y-130521324D01*
X121649624Y-130710105D01*
X121889895Y-130950376D01*
X122078676Y-131232906D01*
X122208710Y-131546836D01*
X122275000Y-131880102D01*
X122275000Y-132219898D01*
X122208710Y-132553164D01*
X122078676Y-132867094D01*
X121889895Y-133149624D01*
X121649624Y-133389895D01*
X121367094Y-133578676D01*
X121053164Y-133708710D01*
X120719898Y-133775000D01*
X120380102Y-133775000D01*
X120046836Y-133708710D01*
X119732906Y-133578676D01*
X119450376Y-133389895D01*
X119210105Y-133149624D01*
X119021324Y-132867094D01*
X118891290Y-132553164D01*
X118825000Y-132219898D01*
X118825000Y-131880102D01*
X118891290Y-131546836D01*
X119021324Y-131232906D01*
X119210105Y-130950376D01*
X119450376Y-130710105D01*
X119732906Y-130521324D01*
X120046836Y-130391290D01*
X120380102Y-130325000D01*
X120719898Y-130325000D01*
X121053164Y-130391290D01*
X121053164Y-130391290D01*
G37*
G36*
X160120856Y-130142272D02*
X160321045Y-130225193D01*
X160501207Y-130345573D01*
X160654427Y-130498793D01*
X160774807Y-130678955D01*
X160857728Y-130879144D01*
X160900000Y-131091657D01*
X160900000Y-131308343D01*
X160857728Y-131520856D01*
X160774807Y-131721045D01*
X160654427Y-131901207D01*
X160501207Y-132054427D01*
X160321045Y-132174807D01*
X160120856Y-132257728D01*
X159908343Y-132300000D01*
X159691657Y-132300000D01*
X159479144Y-132257728D01*
X159278955Y-132174807D01*
X159098793Y-132054427D01*
X158945573Y-131901207D01*
X158825193Y-131721045D01*
X158742272Y-131520856D01*
X158700000Y-131308343D01*
X158700000Y-131091657D01*
X158742272Y-130879144D01*
X158825193Y-130678955D01*
X158945573Y-130498793D01*
X159098793Y-130345573D01*
X159278955Y-130225193D01*
X159479144Y-130142272D01*
X159691657Y-130100000D01*
X159908343Y-130100000D01*
X160120856Y-130142272D01*
X160120856Y-130142272D01*
G37*
G36*
X115810000Y-131600000D02*
X112310000Y-131600000D01*
X112310000Y-128900000D01*
X115810000Y-128900000D01*
X115810000Y-131600000D01*
X115810000Y-131600000D01*
G37*
G36*
X159300000Y-129400000D02*
X158100000Y-129400000D01*
X158100000Y-127500000D01*
X159300000Y-127500000D01*
X159300000Y-129400000D01*
X159300000Y-129400000D01*
G37*
G36*
X153300000Y-129400000D02*
X152100000Y-129400000D01*
X152100000Y-127500000D01*
X153300000Y-127500000D01*
X153300000Y-129400000D01*
X153300000Y-129400000D01*
G37*
G36*
X149500000Y-129400000D02*
X148300000Y-129400000D01*
X148300000Y-127500000D01*
X149500000Y-127500000D01*
X149500000Y-129400000D01*
X149500000Y-129400000D01*
G37*
G36*
X155500000Y-129400000D02*
X154300000Y-129400000D01*
X154300000Y-127500000D01*
X155500000Y-127500000D01*
X155500000Y-129400000D01*
X155500000Y-129400000D01*
G37*
G36*
X163722971Y-127361455D02*
X163746232Y-127363746D01*
X163925308Y-127418068D01*
X164090345Y-127506282D01*
X164235001Y-127624999D01*
X164353718Y-127769655D01*
X164441932Y-127934692D01*
X164496254Y-128113768D01*
X164496254Y-128113769D01*
X164514597Y-128300000D01*
X164497899Y-128469534D01*
X164496254Y-128486232D01*
X164441932Y-128665308D01*
X164353718Y-128830345D01*
X164235001Y-128975001D01*
X164090345Y-129093718D01*
X163925308Y-129181932D01*
X163746232Y-129236254D01*
X163722971Y-129238545D01*
X163606670Y-129250000D01*
X163513330Y-129250000D01*
X163397029Y-129238545D01*
X163373768Y-129236254D01*
X163194692Y-129181932D01*
X163029655Y-129093718D01*
X162884999Y-128975001D01*
X162766282Y-128830345D01*
X162678068Y-128665308D01*
X162623746Y-128486232D01*
X162622101Y-128469534D01*
X162605403Y-128300000D01*
X162623746Y-128113769D01*
X162623746Y-128113768D01*
X162678068Y-127934692D01*
X162766282Y-127769655D01*
X162884999Y-127624999D01*
X163029655Y-127506282D01*
X163194692Y-127418068D01*
X163373768Y-127363746D01*
X163397029Y-127361455D01*
X163513330Y-127350000D01*
X163606670Y-127350000D01*
X163722971Y-127361455D01*
X163722971Y-127361455D01*
G37*
G36*
X167050000Y-129250000D02*
X165150000Y-129250000D01*
X165150000Y-127350000D01*
X167050000Y-127350000D01*
X167050000Y-129250000D01*
X167050000Y-129250000D01*
G37*
G36*
X109763708Y-127805158D02*
X109809343Y-127819001D01*
X109851402Y-127841482D01*
X109888265Y-127871735D01*
X109918518Y-127908598D01*
X109940999Y-127950657D01*
X109954842Y-127996292D01*
X109960000Y-128048658D01*
X109960000Y-128726342D01*
X109954842Y-128778708D01*
X109940999Y-128824343D01*
X109918518Y-128866402D01*
X109888265Y-128903265D01*
X109851402Y-128933518D01*
X109809343Y-128955999D01*
X109763708Y-128969842D01*
X109711342Y-128975000D01*
X108608658Y-128975000D01*
X108556292Y-128969842D01*
X108510657Y-128955999D01*
X108468598Y-128933518D01*
X108431735Y-128903265D01*
X108401482Y-128866402D01*
X108379001Y-128824343D01*
X108365158Y-128778708D01*
X108360000Y-128726342D01*
X108360000Y-128048658D01*
X108365158Y-127996292D01*
X108379001Y-127950657D01*
X108401482Y-127908598D01*
X108431735Y-127871735D01*
X108468598Y-127841482D01*
X108510657Y-127819001D01*
X108556292Y-127805158D01*
X108608658Y-127800000D01*
X109711342Y-127800000D01*
X109763708Y-127805158D01*
X109763708Y-127805158D01*
G37*
G36*
X147450000Y-128450000D02*
X146350000Y-128450000D01*
X146350000Y-127450000D01*
X147450000Y-127450000D01*
X147450000Y-128450000D01*
X147450000Y-128450000D01*
G37*
G36*
X145450000Y-127500000D02*
X144350000Y-127500000D01*
X144350000Y-126500000D01*
X145450000Y-126500000D01*
X145450000Y-127500000D01*
X145450000Y-127500000D01*
G37*
G36*
X109763708Y-125930158D02*
X109809343Y-125944001D01*
X109851402Y-125966482D01*
X109888265Y-125996735D01*
X109918518Y-126033598D01*
X109940999Y-126075657D01*
X109954842Y-126121292D01*
X109960000Y-126173658D01*
X109960000Y-126851342D01*
X109954842Y-126903708D01*
X109940999Y-126949343D01*
X109918518Y-126991402D01*
X109888265Y-127028265D01*
X109851402Y-127058518D01*
X109809343Y-127080999D01*
X109763708Y-127094842D01*
X109711342Y-127100000D01*
X108608658Y-127100000D01*
X108556292Y-127094842D01*
X108510657Y-127080999D01*
X108468598Y-127058518D01*
X108431735Y-127028265D01*
X108401482Y-126991402D01*
X108379001Y-126949343D01*
X108365158Y-126903708D01*
X108360000Y-126851342D01*
X108360000Y-126173658D01*
X108365158Y-126121292D01*
X108379001Y-126075657D01*
X108401482Y-126033598D01*
X108431735Y-125996735D01*
X108468598Y-125966482D01*
X108510657Y-125944001D01*
X108556292Y-125930158D01*
X108608658Y-125925000D01*
X109711342Y-125925000D01*
X109763708Y-125930158D01*
X109763708Y-125930158D01*
G37*
G36*
X104820856Y-124792272D02*
X105021045Y-124875193D01*
X105201207Y-124995573D01*
X105354427Y-125148793D01*
X105474807Y-125328955D01*
X105557728Y-125529144D01*
X105600000Y-125741657D01*
X105600000Y-125958343D01*
X105557728Y-126170856D01*
X105474807Y-126371045D01*
X105354427Y-126551207D01*
X105201207Y-126704427D01*
X105021045Y-126824807D01*
X104820856Y-126907728D01*
X104608343Y-126950000D01*
X104391657Y-126950000D01*
X104179144Y-126907728D01*
X103978955Y-126824807D01*
X103798793Y-126704427D01*
X103645573Y-126551207D01*
X103525193Y-126371045D01*
X103442272Y-126170856D01*
X103400000Y-125958343D01*
X103400000Y-125741657D01*
X103442272Y-125529144D01*
X103525193Y-125328955D01*
X103645573Y-125148793D01*
X103798793Y-124995573D01*
X103978955Y-124875193D01*
X104179144Y-124792272D01*
X104391657Y-124750000D01*
X104608343Y-124750000D01*
X104820856Y-124792272D01*
X104820856Y-124792272D01*
G37*
G36*
X125214410Y-124723057D02*
X125291689Y-124738429D01*
X125473678Y-124813811D01*
X125637463Y-124923249D01*
X125776751Y-125062537D01*
X125886189Y-125226322D01*
X125961571Y-125408311D01*
X125970969Y-125455560D01*
X126000000Y-125601506D01*
X126000000Y-125798494D01*
X125976943Y-125914410D01*
X125961571Y-125991689D01*
X125886189Y-126173678D01*
X125776751Y-126337463D01*
X125637463Y-126476751D01*
X125473678Y-126586189D01*
X125291689Y-126661571D01*
X125214410Y-126676943D01*
X125098494Y-126700000D01*
X124901506Y-126700000D01*
X124785590Y-126676943D01*
X124708311Y-126661571D01*
X124526322Y-126586189D01*
X124362537Y-126476751D01*
X124223249Y-126337463D01*
X124113811Y-126173678D01*
X124038429Y-125991689D01*
X124023057Y-125914410D01*
X124000000Y-125798494D01*
X124000000Y-125601506D01*
X124029031Y-125455560D01*
X124038429Y-125408311D01*
X124113811Y-125226322D01*
X124223249Y-125062537D01*
X124362537Y-124923249D01*
X124526322Y-124813811D01*
X124708311Y-124738429D01*
X124785590Y-124723057D01*
X124901506Y-124700000D01*
X125098494Y-124700000D01*
X125214410Y-124723057D01*
X125214410Y-124723057D01*
G37*
G36*
X134174410Y-124723057D02*
X134251689Y-124738429D01*
X134433678Y-124813811D01*
X134597463Y-124923249D01*
X134736751Y-125062537D01*
X134846189Y-125226322D01*
X134921571Y-125408311D01*
X134930969Y-125455560D01*
X134960000Y-125601506D01*
X134960000Y-125798494D01*
X134936943Y-125914410D01*
X134921571Y-125991689D01*
X134846189Y-126173678D01*
X134736751Y-126337463D01*
X134597463Y-126476751D01*
X134433678Y-126586189D01*
X134251689Y-126661571D01*
X134174410Y-126676943D01*
X134058494Y-126700000D01*
X133861506Y-126700000D01*
X133745590Y-126676943D01*
X133668311Y-126661571D01*
X133486322Y-126586189D01*
X133322537Y-126476751D01*
X133183249Y-126337463D01*
X133073811Y-126173678D01*
X132998429Y-125991689D01*
X132983057Y-125914410D01*
X132960000Y-125798494D01*
X132960000Y-125601506D01*
X132989031Y-125455560D01*
X132998429Y-125408311D01*
X133073811Y-125226322D01*
X133183249Y-125062537D01*
X133322537Y-124923249D01*
X133486322Y-124813811D01*
X133668311Y-124738429D01*
X133745590Y-124723057D01*
X133861506Y-124700000D01*
X134058494Y-124700000D01*
X134174410Y-124723057D01*
X134174410Y-124723057D01*
G37*
G36*
X136714410Y-124723057D02*
X136791689Y-124738429D01*
X136973678Y-124813811D01*
X137137463Y-124923249D01*
X137276751Y-125062537D01*
X137386189Y-125226322D01*
X137461571Y-125408311D01*
X137470969Y-125455560D01*
X137500000Y-125601506D01*
X137500000Y-125798494D01*
X137476943Y-125914410D01*
X137461571Y-125991689D01*
X137386189Y-126173678D01*
X137276751Y-126337463D01*
X137137463Y-126476751D01*
X136973678Y-126586189D01*
X136791689Y-126661571D01*
X136714410Y-126676943D01*
X136598494Y-126700000D01*
X136401506Y-126700000D01*
X136285590Y-126676943D01*
X136208311Y-126661571D01*
X136026322Y-126586189D01*
X135862537Y-126476751D01*
X135723249Y-126337463D01*
X135613811Y-126173678D01*
X135538429Y-125991689D01*
X135523057Y-125914410D01*
X135500000Y-125798494D01*
X135500000Y-125601506D01*
X135529031Y-125455560D01*
X135538429Y-125408311D01*
X135613811Y-125226322D01*
X135723249Y-125062537D01*
X135862537Y-124923249D01*
X136026322Y-124813811D01*
X136208311Y-124738429D01*
X136285590Y-124723057D01*
X136401506Y-124700000D01*
X136598494Y-124700000D01*
X136714410Y-124723057D01*
X136714410Y-124723057D01*
G37*
G36*
X122674410Y-124723057D02*
X122751689Y-124738429D01*
X122933678Y-124813811D01*
X123097463Y-124923249D01*
X123236751Y-125062537D01*
X123346189Y-125226322D01*
X123421571Y-125408311D01*
X123430969Y-125455560D01*
X123460000Y-125601506D01*
X123460000Y-125798494D01*
X123436943Y-125914410D01*
X123421571Y-125991689D01*
X123346189Y-126173678D01*
X123236751Y-126337463D01*
X123097463Y-126476751D01*
X122933678Y-126586189D01*
X122751689Y-126661571D01*
X122674410Y-126676943D01*
X122558494Y-126700000D01*
X122361506Y-126700000D01*
X122245590Y-126676943D01*
X122168311Y-126661571D01*
X121986322Y-126586189D01*
X121822537Y-126476751D01*
X121683249Y-126337463D01*
X121573811Y-126173678D01*
X121498429Y-125991689D01*
X121483057Y-125914410D01*
X121460000Y-125798494D01*
X121460000Y-125601506D01*
X121489031Y-125455560D01*
X121498429Y-125408311D01*
X121573811Y-125226322D01*
X121683249Y-125062537D01*
X121822537Y-124923249D01*
X121986322Y-124813811D01*
X122168311Y-124738429D01*
X122245590Y-124723057D01*
X122361506Y-124700000D01*
X122558494Y-124700000D01*
X122674410Y-124723057D01*
X122674410Y-124723057D01*
G37*
G36*
X147450000Y-126550000D02*
X146350000Y-126550000D01*
X146350000Y-125550000D01*
X147450000Y-125550000D01*
X147450000Y-126550000D01*
X147450000Y-126550000D01*
G37*
G36*
X109558830Y-124504677D02*
X109599776Y-124517098D01*
X109637510Y-124537267D01*
X109670587Y-124564413D01*
X109697733Y-124597490D01*
X109717902Y-124635224D01*
X109730323Y-124676170D01*
X109735000Y-124723658D01*
X109735000Y-125351342D01*
X109730323Y-125398830D01*
X109717902Y-125439776D01*
X109697733Y-125477510D01*
X109670587Y-125510587D01*
X109637510Y-125537733D01*
X109599776Y-125557902D01*
X109558830Y-125570323D01*
X109511342Y-125575000D01*
X108808658Y-125575000D01*
X108761170Y-125570323D01*
X108720224Y-125557902D01*
X108682490Y-125537733D01*
X108649413Y-125510587D01*
X108622267Y-125477510D01*
X108602098Y-125439776D01*
X108589677Y-125398830D01*
X108585000Y-125351342D01*
X108585000Y-124723658D01*
X108589677Y-124676170D01*
X108602098Y-124635224D01*
X108622267Y-124597490D01*
X108649413Y-124564413D01*
X108682490Y-124537267D01*
X108720224Y-124517098D01*
X108761170Y-124504677D01*
X108808658Y-124500000D01*
X109511342Y-124500000D01*
X109558830Y-124504677D01*
X109558830Y-124504677D01*
G37*
G36*
X147450000Y-124950000D02*
X146350000Y-124950000D01*
X146350000Y-123950000D01*
X147450000Y-123950000D01*
X147450000Y-124950000D01*
X147450000Y-124950000D01*
G37*
G36*
X115810000Y-124800000D02*
X112310000Y-124800000D01*
X112310000Y-122100000D01*
X115810000Y-122100000D01*
X115810000Y-124800000D01*
X115810000Y-124800000D01*
G37*
G36*
X126484410Y-122183057D02*
X126561689Y-122198429D01*
X126743678Y-122273811D01*
X126907463Y-122383249D01*
X127046751Y-122522537D01*
X127156189Y-122686322D01*
X127231571Y-122868311D01*
X127242847Y-122925000D01*
X127270000Y-123061506D01*
X127270000Y-123258494D01*
X127246943Y-123374410D01*
X127231571Y-123451689D01*
X127156189Y-123633678D01*
X127046751Y-123797463D01*
X126907463Y-123936751D01*
X126743678Y-124046189D01*
X126561689Y-124121571D01*
X126484410Y-124136943D01*
X126368494Y-124160000D01*
X126171506Y-124160000D01*
X126055590Y-124136943D01*
X125978311Y-124121571D01*
X125796322Y-124046189D01*
X125632537Y-123936751D01*
X125493249Y-123797463D01*
X125383811Y-123633678D01*
X125308429Y-123451689D01*
X125293057Y-123374410D01*
X125270000Y-123258494D01*
X125270000Y-123061506D01*
X125297153Y-122925000D01*
X125308429Y-122868311D01*
X125383811Y-122686322D01*
X125493249Y-122522537D01*
X125632537Y-122383249D01*
X125796322Y-122273811D01*
X125978311Y-122198429D01*
X126055590Y-122183057D01*
X126171506Y-122160000D01*
X126368494Y-122160000D01*
X126484410Y-122183057D01*
X126484410Y-122183057D01*
G37*
G36*
X123944410Y-122183057D02*
X124021689Y-122198429D01*
X124203678Y-122273811D01*
X124367463Y-122383249D01*
X124506751Y-122522537D01*
X124616189Y-122686322D01*
X124691571Y-122868311D01*
X124702847Y-122925000D01*
X124730000Y-123061506D01*
X124730000Y-123258494D01*
X124706943Y-123374410D01*
X124691571Y-123451689D01*
X124616189Y-123633678D01*
X124506751Y-123797463D01*
X124367463Y-123936751D01*
X124203678Y-124046189D01*
X124021689Y-124121571D01*
X123944410Y-124136943D01*
X123828494Y-124160000D01*
X123631506Y-124160000D01*
X123515590Y-124136943D01*
X123438311Y-124121571D01*
X123256322Y-124046189D01*
X123092537Y-123936751D01*
X122953249Y-123797463D01*
X122843811Y-123633678D01*
X122768429Y-123451689D01*
X122753057Y-123374410D01*
X122730000Y-123258494D01*
X122730000Y-123061506D01*
X122757153Y-122925000D01*
X122768429Y-122868311D01*
X122843811Y-122686322D01*
X122953249Y-122522537D01*
X123092537Y-122383249D01*
X123256322Y-122273811D01*
X123438311Y-122198429D01*
X123515590Y-122183057D01*
X123631506Y-122160000D01*
X123828494Y-122160000D01*
X123944410Y-122183057D01*
X123944410Y-122183057D01*
G37*
G36*
X135444410Y-122183057D02*
X135521689Y-122198429D01*
X135703678Y-122273811D01*
X135867463Y-122383249D01*
X136006751Y-122522537D01*
X136116189Y-122686322D01*
X136191571Y-122868311D01*
X136202847Y-122925000D01*
X136230000Y-123061506D01*
X136230000Y-123258494D01*
X136206943Y-123374410D01*
X136191571Y-123451689D01*
X136116189Y-123633678D01*
X136006751Y-123797463D01*
X135867463Y-123936751D01*
X135703678Y-124046189D01*
X135521689Y-124121571D01*
X135444410Y-124136943D01*
X135328494Y-124160000D01*
X135131506Y-124160000D01*
X135015590Y-124136943D01*
X134938311Y-124121571D01*
X134756322Y-124046189D01*
X134592537Y-123936751D01*
X134453249Y-123797463D01*
X134343811Y-123633678D01*
X134268429Y-123451689D01*
X134253057Y-123374410D01*
X134230000Y-123258494D01*
X134230000Y-123061506D01*
X134257153Y-122925000D01*
X134268429Y-122868311D01*
X134343811Y-122686322D01*
X134453249Y-122522537D01*
X134592537Y-122383249D01*
X134756322Y-122273811D01*
X134938311Y-122198429D01*
X135015590Y-122183057D01*
X135131506Y-122160000D01*
X135328494Y-122160000D01*
X135444410Y-122183057D01*
X135444410Y-122183057D01*
G37*
G36*
X137984410Y-122183057D02*
X138061689Y-122198429D01*
X138243678Y-122273811D01*
X138407463Y-122383249D01*
X138546751Y-122522537D01*
X138656189Y-122686322D01*
X138731571Y-122868311D01*
X138742847Y-122925000D01*
X138770000Y-123061506D01*
X138770000Y-123258494D01*
X138746943Y-123374410D01*
X138731571Y-123451689D01*
X138656189Y-123633678D01*
X138546751Y-123797463D01*
X138407463Y-123936751D01*
X138243678Y-124046189D01*
X138061689Y-124121571D01*
X137984410Y-124136943D01*
X137868494Y-124160000D01*
X137671506Y-124160000D01*
X137555590Y-124136943D01*
X137478311Y-124121571D01*
X137296322Y-124046189D01*
X137132537Y-123936751D01*
X136993249Y-123797463D01*
X136883811Y-123633678D01*
X136808429Y-123451689D01*
X136793057Y-123374410D01*
X136770000Y-123258494D01*
X136770000Y-123061506D01*
X136797153Y-122925000D01*
X136808429Y-122868311D01*
X136883811Y-122686322D01*
X136993249Y-122522537D01*
X137132537Y-122383249D01*
X137296322Y-122273811D01*
X137478311Y-122198429D01*
X137555590Y-122183057D01*
X137671506Y-122160000D01*
X137868494Y-122160000D01*
X137984410Y-122183057D01*
X137984410Y-122183057D01*
G37*
G36*
X109558830Y-122929677D02*
X109599776Y-122942098D01*
X109637510Y-122962267D01*
X109670587Y-122989413D01*
X109697733Y-123022490D01*
X109717902Y-123060224D01*
X109730323Y-123101170D01*
X109735000Y-123148658D01*
X109735000Y-123776342D01*
X109730323Y-123823830D01*
X109717902Y-123864776D01*
X109697733Y-123902510D01*
X109670587Y-123935587D01*
X109637510Y-123962733D01*
X109599776Y-123982902D01*
X109558830Y-123995323D01*
X109511342Y-124000000D01*
X108808658Y-124000000D01*
X108761170Y-123995323D01*
X108720224Y-123982902D01*
X108682490Y-123962733D01*
X108649413Y-123935587D01*
X108622267Y-123902510D01*
X108602098Y-123864776D01*
X108589677Y-123823830D01*
X108585000Y-123776342D01*
X108585000Y-123148658D01*
X108589677Y-123101170D01*
X108602098Y-123060224D01*
X108622267Y-123022490D01*
X108649413Y-122989413D01*
X108682490Y-122962267D01*
X108720224Y-122942098D01*
X108761170Y-122929677D01*
X108808658Y-122925000D01*
X109511342Y-122925000D01*
X109558830Y-122929677D01*
X109558830Y-122929677D01*
G37*
G36*
X145450000Y-124000000D02*
X144350000Y-124000000D01*
X144350000Y-123000000D01*
X145450000Y-123000000D01*
X145450000Y-124000000D01*
X145450000Y-124000000D01*
G37*
G36*
X159300000Y-123100000D02*
X158100000Y-123100000D01*
X158100000Y-121200000D01*
X159300000Y-121200000D01*
X159300000Y-123100000D01*
X159300000Y-123100000D01*
G37*
G36*
X102762520Y-121334586D02*
X102762522Y-121334587D01*
X102762523Y-121334587D01*
X102926310Y-121402430D01*
X103073717Y-121500924D01*
X103199076Y-121626283D01*
X103199077Y-121626285D01*
X103297570Y-121773690D01*
X103353890Y-121909657D01*
X103365414Y-121937480D01*
X103397741Y-122100000D01*
X103401921Y-122121018D01*
X103407612Y-122139777D01*
X103416853Y-122157066D01*
X103429289Y-122172220D01*
X103444443Y-122184656D01*
X103461731Y-122193897D01*
X103480491Y-122199587D01*
X103484679Y-122200000D01*
X103480491Y-122200412D01*
X103461732Y-122206103D01*
X103444443Y-122215344D01*
X103429289Y-122227780D01*
X103416853Y-122242934D01*
X103407612Y-122260222D01*
X103401921Y-122278982D01*
X103400000Y-122288640D01*
X103400000Y-122288642D01*
X103365414Y-122462520D01*
X103297570Y-122626310D01*
X103199076Y-122773717D01*
X103073717Y-122899076D01*
X103034919Y-122925000D01*
X102926310Y-122997570D01*
X102762523Y-123065413D01*
X102762522Y-123065413D01*
X102762520Y-123065414D01*
X102588642Y-123100000D01*
X102411358Y-123100000D01*
X102237480Y-123065414D01*
X102237478Y-123065413D01*
X102237477Y-123065413D01*
X102073690Y-122997570D01*
X101965081Y-122925000D01*
X101926283Y-122899076D01*
X101800924Y-122773717D01*
X101702430Y-122626310D01*
X101634586Y-122462520D01*
X101600000Y-122288642D01*
X101600000Y-122111358D01*
X101634586Y-121937480D01*
X101646111Y-121909657D01*
X101702430Y-121773690D01*
X101800923Y-121626285D01*
X101800924Y-121626283D01*
X101926283Y-121500924D01*
X102073690Y-121402430D01*
X102237477Y-121334587D01*
X102237478Y-121334587D01*
X102237480Y-121334586D01*
X102411358Y-121300000D01*
X102588642Y-121300000D01*
X102762520Y-121334586D01*
X102762520Y-121334586D01*
G37*
G36*
X104762520Y-121334586D02*
X104762522Y-121334587D01*
X104762523Y-121334587D01*
X104926310Y-121402430D01*
X105073717Y-121500924D01*
X105199076Y-121626283D01*
X105199077Y-121626285D01*
X105297570Y-121773690D01*
X105353890Y-121909657D01*
X105365414Y-121937480D01*
X105400000Y-122111358D01*
X105400000Y-122288642D01*
X105365414Y-122462520D01*
X105297570Y-122626310D01*
X105199076Y-122773717D01*
X105073717Y-122899076D01*
X105034919Y-122925000D01*
X104926310Y-122997570D01*
X104762523Y-123065413D01*
X104762522Y-123065413D01*
X104762520Y-123065414D01*
X104588642Y-123100000D01*
X104411358Y-123100000D01*
X104237480Y-123065414D01*
X104237478Y-123065413D01*
X104237477Y-123065413D01*
X104073690Y-122997570D01*
X103965081Y-122925000D01*
X103926283Y-122899076D01*
X103800924Y-122773717D01*
X103702430Y-122626310D01*
X103634586Y-122462520D01*
X103600000Y-122288642D01*
X103600000Y-122288640D01*
X103598079Y-122278982D01*
X103592388Y-122260223D01*
X103583147Y-122242934D01*
X103570711Y-122227780D01*
X103555557Y-122215344D01*
X103538269Y-122206103D01*
X103519509Y-122200413D01*
X103515321Y-122200000D01*
X103519509Y-122199588D01*
X103538268Y-122193897D01*
X103555557Y-122184656D01*
X103570711Y-122172220D01*
X103583147Y-122157066D01*
X103592388Y-122139778D01*
X103598079Y-122121018D01*
X103602260Y-122100000D01*
X103634586Y-121937480D01*
X103646111Y-121909657D01*
X103702430Y-121773690D01*
X103800923Y-121626285D01*
X103800924Y-121626283D01*
X103926283Y-121500924D01*
X104073690Y-121402430D01*
X104237477Y-121334587D01*
X104237478Y-121334587D01*
X104237480Y-121334586D01*
X104411358Y-121300000D01*
X104588642Y-121300000D01*
X104762520Y-121334586D01*
X104762520Y-121334586D01*
G37*
G36*
X149500000Y-123100000D02*
X148300000Y-123100000D01*
X148300000Y-121200000D01*
X149500000Y-121200000D01*
X149500000Y-123100000D01*
X149500000Y-123100000D01*
G37*
G36*
X153300000Y-123100000D02*
X152100000Y-123100000D01*
X152100000Y-121200000D01*
X153300000Y-121200000D01*
X153300000Y-123100000D01*
X153300000Y-123100000D01*
G37*
G36*
X155500000Y-123100000D02*
X154300000Y-123100000D01*
X154300000Y-121200000D01*
X155500000Y-121200000D01*
X155500000Y-123100000D01*
X155500000Y-123100000D01*
G37*
G36*
X147450000Y-123050000D02*
X146350000Y-123050000D01*
X146350000Y-122050000D01*
X147450000Y-122050000D01*
X147450000Y-123050000D01*
X147450000Y-123050000D01*
G37*
G36*
X164148452Y-120006359D02*
X164188899Y-120010343D01*
X164273449Y-120035991D01*
X164370537Y-120065442D01*
X164537939Y-120154920D01*
X164684665Y-120275335D01*
X164805080Y-120422061D01*
X164894558Y-120589463D01*
X164899097Y-120604427D01*
X164949657Y-120771101D01*
X164949657Y-120771103D01*
X164968263Y-120960000D01*
X164954213Y-121102640D01*
X164949657Y-121148899D01*
X164924009Y-121233449D01*
X164894558Y-121330537D01*
X164805080Y-121497939D01*
X164684665Y-121644665D01*
X164537939Y-121765080D01*
X164370537Y-121854558D01*
X164273449Y-121884009D01*
X164188899Y-121909657D01*
X164148452Y-121913641D01*
X164047339Y-121923600D01*
X163952661Y-121923600D01*
X163851548Y-121913641D01*
X163811101Y-121909657D01*
X163726551Y-121884009D01*
X163629463Y-121854558D01*
X163462061Y-121765080D01*
X163315335Y-121644665D01*
X163194920Y-121497939D01*
X163105442Y-121330537D01*
X163075991Y-121233449D01*
X163050343Y-121148899D01*
X163045787Y-121102640D01*
X163031737Y-120960000D01*
X163050343Y-120771103D01*
X163050343Y-120771101D01*
X163100903Y-120604427D01*
X163105442Y-120589463D01*
X163194920Y-120422061D01*
X163315335Y-120275335D01*
X163462061Y-120154920D01*
X163629463Y-120065442D01*
X163726551Y-120035991D01*
X163811101Y-120010343D01*
X163851548Y-120006359D01*
X163952661Y-119996400D01*
X164047339Y-119996400D01*
X164148452Y-120006359D01*
X164148452Y-120006359D01*
G37*
G36*
X166688452Y-120006359D02*
X166728899Y-120010343D01*
X166813449Y-120035991D01*
X166910537Y-120065442D01*
X167077939Y-120154920D01*
X167224665Y-120275335D01*
X167345080Y-120422061D01*
X167434558Y-120589463D01*
X167439097Y-120604427D01*
X167489657Y-120771101D01*
X167489657Y-120771103D01*
X167508263Y-120960000D01*
X167494213Y-121102640D01*
X167489657Y-121148899D01*
X167464009Y-121233449D01*
X167434558Y-121330537D01*
X167345080Y-121497939D01*
X167224665Y-121644665D01*
X167077939Y-121765080D01*
X166910537Y-121854558D01*
X166813449Y-121884009D01*
X166728899Y-121909657D01*
X166688452Y-121913641D01*
X166587339Y-121923600D01*
X166492661Y-121923600D01*
X166391548Y-121913641D01*
X166351101Y-121909657D01*
X166266551Y-121884009D01*
X166169463Y-121854558D01*
X166002061Y-121765080D01*
X165855335Y-121644665D01*
X165734920Y-121497939D01*
X165645442Y-121330537D01*
X165615991Y-121233449D01*
X165590343Y-121148899D01*
X165585787Y-121102640D01*
X165571737Y-120960000D01*
X165590343Y-120771103D01*
X165590343Y-120771101D01*
X165640903Y-120604427D01*
X165645442Y-120589463D01*
X165734920Y-120422061D01*
X165855335Y-120275335D01*
X166002061Y-120154920D01*
X166169463Y-120065442D01*
X166266551Y-120035991D01*
X166351101Y-120010343D01*
X166391548Y-120006359D01*
X166492661Y-119996400D01*
X166587339Y-119996400D01*
X166688452Y-120006359D01*
X166688452Y-120006359D01*
G37*
G36*
X113041208Y-119955158D02*
X113086843Y-119969001D01*
X113128902Y-119991482D01*
X113165765Y-120021735D01*
X113196018Y-120058598D01*
X113218499Y-120100657D01*
X113232342Y-120146292D01*
X113237500Y-120198658D01*
X113237500Y-120876342D01*
X113232342Y-120928708D01*
X113218499Y-120974343D01*
X113196018Y-121016402D01*
X113165765Y-121053265D01*
X113128902Y-121083518D01*
X113086843Y-121105999D01*
X113041208Y-121119842D01*
X112988842Y-121125000D01*
X111886158Y-121125000D01*
X111833792Y-121119842D01*
X111788157Y-121105999D01*
X111746098Y-121083518D01*
X111709235Y-121053265D01*
X111678982Y-121016402D01*
X111656501Y-120974343D01*
X111642658Y-120928708D01*
X111637500Y-120876342D01*
X111637500Y-120198658D01*
X111642658Y-120146292D01*
X111656501Y-120100657D01*
X111678982Y-120058598D01*
X111709235Y-120021735D01*
X111746098Y-119991482D01*
X111788157Y-119969001D01*
X111833792Y-119955158D01*
X111886158Y-119950000D01*
X112988842Y-119950000D01*
X113041208Y-119955158D01*
X113041208Y-119955158D01*
G37*
G36*
X118341208Y-119955158D02*
X118386843Y-119969001D01*
X118428902Y-119991482D01*
X118465765Y-120021735D01*
X118496018Y-120058598D01*
X118518499Y-120100657D01*
X118532342Y-120146292D01*
X118537500Y-120198658D01*
X118537500Y-120876342D01*
X118532342Y-120928708D01*
X118518499Y-120974343D01*
X118496018Y-121016402D01*
X118465765Y-121053265D01*
X118428902Y-121083518D01*
X118386843Y-121105999D01*
X118341208Y-121119842D01*
X118288842Y-121125000D01*
X117186158Y-121125000D01*
X117133792Y-121119842D01*
X117088157Y-121105999D01*
X117046098Y-121083518D01*
X117009235Y-121053265D01*
X116978982Y-121016402D01*
X116956501Y-120974343D01*
X116942658Y-120928708D01*
X116937500Y-120876342D01*
X116937500Y-120198658D01*
X116942658Y-120146292D01*
X116956501Y-120100657D01*
X116978982Y-120058598D01*
X117009235Y-120021735D01*
X117046098Y-119991482D01*
X117088157Y-119969001D01*
X117133792Y-119955158D01*
X117186158Y-119950000D01*
X118288842Y-119950000D01*
X118341208Y-119955158D01*
X118341208Y-119955158D01*
G37*
G36*
X116687500Y-121050000D02*
X115587500Y-121050000D01*
X115587500Y-120050000D01*
X116687500Y-120050000D01*
X116687500Y-121050000D01*
X116687500Y-121050000D01*
G37*
G36*
X140320856Y-118692272D02*
X140521045Y-118775193D01*
X140701207Y-118895573D01*
X140854427Y-119048793D01*
X140974807Y-119228955D01*
X141057728Y-119429144D01*
X141100000Y-119641657D01*
X141100000Y-119858343D01*
X141057728Y-120070856D01*
X140974807Y-120271045D01*
X140854427Y-120451207D01*
X140701207Y-120604427D01*
X140521045Y-120724807D01*
X140320856Y-120807728D01*
X140108343Y-120850000D01*
X139891657Y-120850000D01*
X139679144Y-120807728D01*
X139478955Y-120724807D01*
X139298793Y-120604427D01*
X139145573Y-120451207D01*
X139025193Y-120271045D01*
X138942272Y-120070856D01*
X138900000Y-119858343D01*
X138900000Y-119641657D01*
X138942272Y-119429144D01*
X139025193Y-119228955D01*
X139145573Y-119048793D01*
X139298793Y-118895573D01*
X139478955Y-118775193D01*
X139679144Y-118692272D01*
X139891657Y-118650000D01*
X140108343Y-118650000D01*
X140320856Y-118692272D01*
X140320856Y-118692272D01*
G37*
G36*
X124373830Y-119329677D02*
X124414776Y-119342098D01*
X124452510Y-119362267D01*
X124485587Y-119389413D01*
X124512733Y-119422490D01*
X124532902Y-119460224D01*
X124545323Y-119501170D01*
X124550000Y-119548658D01*
X124550000Y-120251342D01*
X124545323Y-120298830D01*
X124532902Y-120339776D01*
X124512733Y-120377510D01*
X124485587Y-120410587D01*
X124452510Y-120437733D01*
X124414776Y-120457902D01*
X124373830Y-120470323D01*
X124326342Y-120475000D01*
X123698658Y-120475000D01*
X123651170Y-120470323D01*
X123610224Y-120457902D01*
X123572490Y-120437733D01*
X123539413Y-120410587D01*
X123512267Y-120377510D01*
X123492098Y-120339776D01*
X123479677Y-120298830D01*
X123475000Y-120251342D01*
X123475000Y-119548658D01*
X123479677Y-119501170D01*
X123492098Y-119460224D01*
X123512267Y-119422490D01*
X123539413Y-119389413D01*
X123572490Y-119362267D01*
X123610224Y-119342098D01*
X123651170Y-119329677D01*
X123698658Y-119325000D01*
X124326342Y-119325000D01*
X124373830Y-119329677D01*
X124373830Y-119329677D01*
G37*
G36*
X125948830Y-119329677D02*
X125989776Y-119342098D01*
X126027510Y-119362267D01*
X126060587Y-119389413D01*
X126087733Y-119422490D01*
X126107902Y-119460224D01*
X126120323Y-119501170D01*
X126125000Y-119548658D01*
X126125000Y-120251342D01*
X126120323Y-120298830D01*
X126107902Y-120339776D01*
X126087733Y-120377510D01*
X126060587Y-120410587D01*
X126027510Y-120437733D01*
X125989776Y-120457902D01*
X125948830Y-120470323D01*
X125901342Y-120475000D01*
X125273658Y-120475000D01*
X125226170Y-120470323D01*
X125185224Y-120457902D01*
X125147490Y-120437733D01*
X125114413Y-120410587D01*
X125087267Y-120377510D01*
X125067098Y-120339776D01*
X125054677Y-120298830D01*
X125050000Y-120251342D01*
X125050000Y-119548658D01*
X125054677Y-119501170D01*
X125067098Y-119460224D01*
X125087267Y-119422490D01*
X125114413Y-119389413D01*
X125147490Y-119362267D01*
X125185224Y-119342098D01*
X125226170Y-119329677D01*
X125273658Y-119325000D01*
X125901342Y-119325000D01*
X125948830Y-119329677D01*
X125948830Y-119329677D01*
G37*
G36*
X122364081Y-117775903D02*
X122369603Y-117776447D01*
X122388454Y-117782165D01*
X122402593Y-117789723D01*
X122405830Y-117791453D01*
X122421053Y-117803947D01*
X122433547Y-117819170D01*
X122433549Y-117819174D01*
X122442835Y-117836546D01*
X122442836Y-117836549D01*
X122448553Y-117855398D01*
X122450968Y-117879910D01*
X122450968Y-119020090D01*
X122450484Y-119025000D01*
X122448553Y-119044603D01*
X122442835Y-119063454D01*
X122435277Y-119077593D01*
X122433547Y-119080830D01*
X122421054Y-119096052D01*
X122419055Y-119097693D01*
X122405193Y-119111555D01*
X122394301Y-119127854D01*
X122386799Y-119145965D01*
X122382975Y-119165192D01*
X122382974Y-119184796D01*
X122386799Y-119204022D01*
X122394300Y-119222134D01*
X122405191Y-119238433D01*
X122419129Y-119252358D01*
X122420979Y-119253873D01*
X122433491Y-119269087D01*
X122442795Y-119286449D01*
X122448533Y-119305293D01*
X122450484Y-119325000D01*
X122450484Y-119325050D01*
X122450968Y-119329937D01*
X122450968Y-120320090D01*
X122450484Y-120325000D01*
X122448553Y-120344603D01*
X122442835Y-120363454D01*
X122435322Y-120377510D01*
X122433547Y-120380830D01*
X122421053Y-120396053D01*
X122405830Y-120408547D01*
X122405826Y-120408549D01*
X122388454Y-120417835D01*
X122369603Y-120423553D01*
X122364081Y-120424097D01*
X122345090Y-120425968D01*
X120854910Y-120425968D01*
X120835919Y-120424097D01*
X120830397Y-120423553D01*
X120811546Y-120417835D01*
X120794174Y-120408549D01*
X120794170Y-120408547D01*
X120778947Y-120396053D01*
X120766453Y-120380830D01*
X120764678Y-120377510D01*
X120757165Y-120363454D01*
X120751447Y-120344603D01*
X120749516Y-120325000D01*
X120749032Y-120320090D01*
X120749032Y-119329910D01*
X120751447Y-119305398D01*
X120751960Y-119303708D01*
X120757165Y-119286546D01*
X120766451Y-119269174D01*
X120766453Y-119269170D01*
X120778930Y-119253966D01*
X120778934Y-119253962D01*
X120778947Y-119253947D01*
X120780956Y-119252300D01*
X120794793Y-119238477D01*
X120805692Y-119222183D01*
X120813203Y-119204076D01*
X120817038Y-119184851D01*
X120817047Y-119165248D01*
X120813233Y-119146019D01*
X120805740Y-119127904D01*
X120794857Y-119111599D01*
X120781045Y-119097765D01*
X120778871Y-119095977D01*
X120766392Y-119080738D01*
X120757126Y-119063360D01*
X120752724Y-119048793D01*
X120751426Y-119044500D01*
X120751426Y-119044495D01*
X120751420Y-119044477D01*
X120749032Y-119020108D01*
X120749032Y-117879910D01*
X120751447Y-117855398D01*
X120757164Y-117836549D01*
X120757165Y-117836546D01*
X120766451Y-117819174D01*
X120766453Y-117819170D01*
X120778947Y-117803947D01*
X120794170Y-117791453D01*
X120797407Y-117789723D01*
X120811546Y-117782165D01*
X120830397Y-117776447D01*
X120835919Y-117775903D01*
X120854910Y-117774032D01*
X122345090Y-117774032D01*
X122364081Y-117775903D01*
X122364081Y-117775903D01*
G37*
G36*
X134075000Y-120205000D02*
X132325000Y-120205000D01*
X132325000Y-119405000D01*
X134075000Y-119405000D01*
X134075000Y-120205000D01*
X134075000Y-120205000D01*
G37*
G36*
X128675000Y-120205000D02*
X126925000Y-120205000D01*
X126925000Y-119405000D01*
X128675000Y-119405000D01*
X128675000Y-120205000D01*
X128675000Y-120205000D01*
G37*
G36*
X114687500Y-120100000D02*
X113587500Y-120100000D01*
X113587500Y-119100000D01*
X114687500Y-119100000D01*
X114687500Y-120100000D01*
X114687500Y-120100000D01*
G37*
G36*
X136848830Y-118829677D02*
X136889776Y-118842098D01*
X136927510Y-118862267D01*
X136960587Y-118889413D01*
X136987733Y-118922490D01*
X137007902Y-118960224D01*
X137020323Y-119001170D01*
X137025000Y-119048658D01*
X137025000Y-119751342D01*
X137020323Y-119798830D01*
X137007902Y-119839776D01*
X136987733Y-119877510D01*
X136960587Y-119910587D01*
X136927510Y-119937733D01*
X136889776Y-119957902D01*
X136848830Y-119970323D01*
X136801342Y-119975000D01*
X136173658Y-119975000D01*
X136126170Y-119970323D01*
X136085224Y-119957902D01*
X136047490Y-119937733D01*
X136014413Y-119910587D01*
X135987267Y-119877510D01*
X135967098Y-119839776D01*
X135954677Y-119798830D01*
X135950000Y-119751342D01*
X135950000Y-119048658D01*
X135954677Y-119001170D01*
X135967098Y-118960224D01*
X135987267Y-118922490D01*
X136014413Y-118889413D01*
X136047490Y-118862267D01*
X136085224Y-118842098D01*
X136126170Y-118829677D01*
X136173658Y-118825000D01*
X136801342Y-118825000D01*
X136848830Y-118829677D01*
X136848830Y-118829677D01*
G37*
G36*
X135273830Y-118829677D02*
X135314776Y-118842098D01*
X135352510Y-118862267D01*
X135385587Y-118889413D01*
X135412733Y-118922490D01*
X135432902Y-118960224D01*
X135445323Y-119001170D01*
X135450000Y-119048658D01*
X135450000Y-119751342D01*
X135445323Y-119798830D01*
X135432902Y-119839776D01*
X135412733Y-119877510D01*
X135385587Y-119910587D01*
X135352510Y-119937733D01*
X135314776Y-119957902D01*
X135273830Y-119970323D01*
X135226342Y-119975000D01*
X134598658Y-119975000D01*
X134551170Y-119970323D01*
X134510224Y-119957902D01*
X134472490Y-119937733D01*
X134439413Y-119910587D01*
X134412267Y-119877510D01*
X134392098Y-119839776D01*
X134379677Y-119798830D01*
X134375000Y-119751342D01*
X134375000Y-119048658D01*
X134379677Y-119001170D01*
X134392098Y-118960224D01*
X134412267Y-118922490D01*
X134439413Y-118889413D01*
X134472490Y-118862267D01*
X134510224Y-118842098D01*
X134551170Y-118829677D01*
X134598658Y-118825000D01*
X135226342Y-118825000D01*
X135273830Y-118829677D01*
X135273830Y-118829677D01*
G37*
G36*
X109191208Y-117905158D02*
X109236843Y-117919001D01*
X109278902Y-117941482D01*
X109315765Y-117971735D01*
X109346018Y-118008598D01*
X109368499Y-118050657D01*
X109382342Y-118096292D01*
X109387500Y-118148658D01*
X109387500Y-119251342D01*
X109382342Y-119303708D01*
X109368499Y-119349343D01*
X109346018Y-119391402D01*
X109315765Y-119428265D01*
X109278902Y-119458518D01*
X109236843Y-119480999D01*
X109191208Y-119494842D01*
X109138842Y-119500000D01*
X108461158Y-119500000D01*
X108408792Y-119494842D01*
X108363157Y-119480999D01*
X108321098Y-119458518D01*
X108284235Y-119428265D01*
X108253982Y-119391402D01*
X108231501Y-119349343D01*
X108217658Y-119303708D01*
X108212500Y-119251342D01*
X108212500Y-118148658D01*
X108217658Y-118096292D01*
X108231501Y-118050657D01*
X108253982Y-118008598D01*
X108284235Y-117971735D01*
X108321098Y-117941482D01*
X108363157Y-117919001D01*
X108408792Y-117905158D01*
X108461158Y-117900000D01*
X109138842Y-117900000D01*
X109191208Y-117905158D01*
X109191208Y-117905158D01*
G37*
G36*
X111066208Y-117905158D02*
X111111843Y-117919001D01*
X111153902Y-117941482D01*
X111190765Y-117971735D01*
X111221018Y-118008598D01*
X111243499Y-118050657D01*
X111257342Y-118096292D01*
X111262500Y-118148658D01*
X111262500Y-119251342D01*
X111257342Y-119303708D01*
X111243499Y-119349343D01*
X111221018Y-119391402D01*
X111190765Y-119428265D01*
X111153902Y-119458518D01*
X111111843Y-119480999D01*
X111066208Y-119494842D01*
X111013842Y-119500000D01*
X110336158Y-119500000D01*
X110283792Y-119494842D01*
X110238157Y-119480999D01*
X110196098Y-119458518D01*
X110159235Y-119428265D01*
X110128982Y-119391402D01*
X110106501Y-119349343D01*
X110092658Y-119303708D01*
X110087500Y-119251342D01*
X110087500Y-118148658D01*
X110092658Y-118096292D01*
X110106501Y-118050657D01*
X110128982Y-118008598D01*
X110159235Y-117971735D01*
X110196098Y-117941482D01*
X110238157Y-117919001D01*
X110283792Y-117905158D01*
X110336158Y-117900000D01*
X111013842Y-117900000D01*
X111066208Y-117905158D01*
X111066208Y-117905158D01*
G37*
G36*
X164148452Y-117466359D02*
X164188899Y-117470343D01*
X164273449Y-117495991D01*
X164370537Y-117525442D01*
X164537939Y-117614920D01*
X164684665Y-117735335D01*
X164805080Y-117882061D01*
X164894558Y-118049463D01*
X164917322Y-118124506D01*
X164949657Y-118231101D01*
X164949657Y-118231103D01*
X164968263Y-118420000D01*
X164952719Y-118577811D01*
X164949657Y-118608899D01*
X164938473Y-118645767D01*
X164894558Y-118790537D01*
X164805080Y-118957939D01*
X164684665Y-119104665D01*
X164537939Y-119225080D01*
X164370537Y-119314558D01*
X164279748Y-119342098D01*
X164188899Y-119369657D01*
X164148452Y-119373641D01*
X164047339Y-119383600D01*
X163952661Y-119383600D01*
X163851548Y-119373641D01*
X163811101Y-119369657D01*
X163720252Y-119342098D01*
X163629463Y-119314558D01*
X163462061Y-119225080D01*
X163315335Y-119104665D01*
X163194920Y-118957939D01*
X163105442Y-118790537D01*
X163061527Y-118645767D01*
X163050343Y-118608899D01*
X163047281Y-118577811D01*
X163031737Y-118420000D01*
X163050343Y-118231103D01*
X163050343Y-118231101D01*
X163082678Y-118124506D01*
X163105442Y-118049463D01*
X163194920Y-117882061D01*
X163315335Y-117735335D01*
X163462061Y-117614920D01*
X163629463Y-117525442D01*
X163726551Y-117495991D01*
X163811101Y-117470343D01*
X163851548Y-117466359D01*
X163952661Y-117456400D01*
X164047339Y-117456400D01*
X164148452Y-117466359D01*
X164148452Y-117466359D01*
G37*
G36*
X166688452Y-117466359D02*
X166728899Y-117470343D01*
X166813449Y-117495991D01*
X166910537Y-117525442D01*
X167077939Y-117614920D01*
X167224665Y-117735335D01*
X167345080Y-117882061D01*
X167434558Y-118049463D01*
X167457322Y-118124506D01*
X167489657Y-118231101D01*
X167489657Y-118231103D01*
X167508263Y-118420000D01*
X167492719Y-118577811D01*
X167489657Y-118608899D01*
X167478473Y-118645767D01*
X167434558Y-118790537D01*
X167345080Y-118957939D01*
X167224665Y-119104665D01*
X167077939Y-119225080D01*
X166910537Y-119314558D01*
X166819748Y-119342098D01*
X166728899Y-119369657D01*
X166688452Y-119373641D01*
X166587339Y-119383600D01*
X166492661Y-119383600D01*
X166391548Y-119373641D01*
X166351101Y-119369657D01*
X166260252Y-119342098D01*
X166169463Y-119314558D01*
X166002061Y-119225080D01*
X165855335Y-119104665D01*
X165734920Y-118957939D01*
X165645442Y-118790537D01*
X165601527Y-118645767D01*
X165590343Y-118608899D01*
X165587281Y-118577811D01*
X165571737Y-118420000D01*
X165590343Y-118231103D01*
X165590343Y-118231101D01*
X165622678Y-118124506D01*
X165645442Y-118049463D01*
X165734920Y-117882061D01*
X165855335Y-117735335D01*
X166002061Y-117614920D01*
X166169463Y-117525442D01*
X166266551Y-117495991D01*
X166351101Y-117470343D01*
X166391548Y-117466359D01*
X166492661Y-117456400D01*
X166587339Y-117456400D01*
X166688452Y-117466359D01*
X166688452Y-117466359D01*
G37*
G36*
X113041208Y-118080158D02*
X113086843Y-118094001D01*
X113128902Y-118116482D01*
X113165765Y-118146735D01*
X113196018Y-118183598D01*
X113218499Y-118225657D01*
X113232342Y-118271292D01*
X113237500Y-118323658D01*
X113237500Y-119001342D01*
X113232342Y-119053708D01*
X113218499Y-119099343D01*
X113196018Y-119141402D01*
X113165765Y-119178265D01*
X113128902Y-119208518D01*
X113086843Y-119230999D01*
X113041208Y-119244842D01*
X112988842Y-119250000D01*
X111886158Y-119250000D01*
X111833792Y-119244842D01*
X111788157Y-119230999D01*
X111746098Y-119208518D01*
X111709235Y-119178265D01*
X111678982Y-119141402D01*
X111656501Y-119099343D01*
X111642658Y-119053708D01*
X111637500Y-119001342D01*
X111637500Y-118323658D01*
X111642658Y-118271292D01*
X111656501Y-118225657D01*
X111678982Y-118183598D01*
X111709235Y-118146735D01*
X111746098Y-118116482D01*
X111788157Y-118094001D01*
X111833792Y-118080158D01*
X111886158Y-118075000D01*
X112988842Y-118075000D01*
X113041208Y-118080158D01*
X113041208Y-118080158D01*
G37*
G36*
X118341208Y-118080158D02*
X118386843Y-118094001D01*
X118428902Y-118116482D01*
X118465765Y-118146735D01*
X118496018Y-118183598D01*
X118518499Y-118225657D01*
X118532342Y-118271292D01*
X118537500Y-118323658D01*
X118537500Y-119001342D01*
X118532342Y-119053708D01*
X118518499Y-119099343D01*
X118496018Y-119141402D01*
X118465765Y-119178265D01*
X118428902Y-119208518D01*
X118386843Y-119230999D01*
X118341208Y-119244842D01*
X118288842Y-119250000D01*
X117186158Y-119250000D01*
X117133792Y-119244842D01*
X117088157Y-119230999D01*
X117046098Y-119208518D01*
X117009235Y-119178265D01*
X116978982Y-119141402D01*
X116956501Y-119099343D01*
X116942658Y-119053708D01*
X116937500Y-119001342D01*
X116937500Y-118323658D01*
X116942658Y-118271292D01*
X116956501Y-118225657D01*
X116978982Y-118183598D01*
X117009235Y-118146735D01*
X117046098Y-118116482D01*
X117088157Y-118094001D01*
X117133792Y-118080158D01*
X117186158Y-118075000D01*
X118288842Y-118075000D01*
X118341208Y-118080158D01*
X118341208Y-118080158D01*
G37*
G36*
X116687500Y-119150000D02*
X115587500Y-119150000D01*
X115587500Y-118150000D01*
X116687500Y-118150000D01*
X116687500Y-119150000D01*
X116687500Y-119150000D01*
G37*
G36*
X148673830Y-117829677D02*
X148714776Y-117842098D01*
X148752510Y-117862267D01*
X148785587Y-117889413D01*
X148812733Y-117922490D01*
X148832902Y-117960224D01*
X148845323Y-118001170D01*
X148850000Y-118048658D01*
X148850000Y-118751342D01*
X148845323Y-118798830D01*
X148832902Y-118839776D01*
X148812733Y-118877510D01*
X148785587Y-118910587D01*
X148752510Y-118937733D01*
X148714776Y-118957902D01*
X148673830Y-118970323D01*
X148626342Y-118975000D01*
X147998658Y-118975000D01*
X147951170Y-118970323D01*
X147910224Y-118957902D01*
X147872490Y-118937733D01*
X147839413Y-118910587D01*
X147812267Y-118877510D01*
X147792098Y-118839776D01*
X147779677Y-118798830D01*
X147775000Y-118751342D01*
X147775000Y-118048658D01*
X147779677Y-118001170D01*
X147792098Y-117960224D01*
X147812267Y-117922490D01*
X147839413Y-117889413D01*
X147872490Y-117862267D01*
X147910224Y-117842098D01*
X147951170Y-117829677D01*
X147998658Y-117825000D01*
X148626342Y-117825000D01*
X148673830Y-117829677D01*
X148673830Y-117829677D01*
G37*
G36*
X155673830Y-117829677D02*
X155714776Y-117842098D01*
X155752510Y-117862267D01*
X155785587Y-117889413D01*
X155812733Y-117922490D01*
X155832902Y-117960224D01*
X155845323Y-118001170D01*
X155850000Y-118048658D01*
X155850000Y-118751342D01*
X155845323Y-118798830D01*
X155832902Y-118839776D01*
X155812733Y-118877510D01*
X155785587Y-118910587D01*
X155752510Y-118937733D01*
X155714776Y-118957902D01*
X155673830Y-118970323D01*
X155626342Y-118975000D01*
X154998658Y-118975000D01*
X154951170Y-118970323D01*
X154910224Y-118957902D01*
X154872490Y-118937733D01*
X154839413Y-118910587D01*
X154812267Y-118877510D01*
X154792098Y-118839776D01*
X154779677Y-118798830D01*
X154775000Y-118751342D01*
X154775000Y-118048658D01*
X154779677Y-118001170D01*
X154792098Y-117960224D01*
X154812267Y-117922490D01*
X154839413Y-117889413D01*
X154872490Y-117862267D01*
X154910224Y-117842098D01*
X154951170Y-117829677D01*
X154998658Y-117825000D01*
X155626342Y-117825000D01*
X155673830Y-117829677D01*
X155673830Y-117829677D01*
G37*
G36*
X157248830Y-117829677D02*
X157289776Y-117842098D01*
X157327510Y-117862267D01*
X157360587Y-117889413D01*
X157387733Y-117922490D01*
X157407902Y-117960224D01*
X157420323Y-118001170D01*
X157425000Y-118048658D01*
X157425000Y-118751342D01*
X157420323Y-118798830D01*
X157407902Y-118839776D01*
X157387733Y-118877510D01*
X157360587Y-118910587D01*
X157327510Y-118937733D01*
X157289776Y-118957902D01*
X157248830Y-118970323D01*
X157201342Y-118975000D01*
X156573658Y-118975000D01*
X156526170Y-118970323D01*
X156485224Y-118957902D01*
X156447490Y-118937733D01*
X156414413Y-118910587D01*
X156387267Y-118877510D01*
X156367098Y-118839776D01*
X156354677Y-118798830D01*
X156350000Y-118751342D01*
X156350000Y-118048658D01*
X156354677Y-118001170D01*
X156367098Y-117960224D01*
X156387267Y-117922490D01*
X156414413Y-117889413D01*
X156447490Y-117862267D01*
X156485224Y-117842098D01*
X156526170Y-117829677D01*
X156573658Y-117825000D01*
X157201342Y-117825000D01*
X157248830Y-117829677D01*
X157248830Y-117829677D01*
G37*
G36*
X150248830Y-117829677D02*
X150289776Y-117842098D01*
X150327510Y-117862267D01*
X150360587Y-117889413D01*
X150387733Y-117922490D01*
X150407902Y-117960224D01*
X150420323Y-118001170D01*
X150425000Y-118048658D01*
X150425000Y-118751342D01*
X150420323Y-118798830D01*
X150407902Y-118839776D01*
X150387733Y-118877510D01*
X150360587Y-118910587D01*
X150327510Y-118937733D01*
X150289776Y-118957902D01*
X150248830Y-118970323D01*
X150201342Y-118975000D01*
X149573658Y-118975000D01*
X149526170Y-118970323D01*
X149485224Y-118957902D01*
X149447490Y-118937733D01*
X149414413Y-118910587D01*
X149387267Y-118877510D01*
X149367098Y-118839776D01*
X149354677Y-118798830D01*
X149350000Y-118751342D01*
X149350000Y-118048658D01*
X149354677Y-118001170D01*
X149367098Y-117960224D01*
X149387267Y-117922490D01*
X149414413Y-117889413D01*
X149447490Y-117862267D01*
X149485224Y-117842098D01*
X149526170Y-117829677D01*
X149573658Y-117825000D01*
X150201342Y-117825000D01*
X150248830Y-117829677D01*
X150248830Y-117829677D01*
G37*
G36*
X124150000Y-118950000D02*
X123150000Y-118950000D01*
X123150000Y-117850000D01*
X124150000Y-117850000D01*
X124150000Y-118950000D01*
X124150000Y-118950000D01*
G37*
G36*
X126050000Y-118950000D02*
X125050000Y-118950000D01*
X125050000Y-117850000D01*
X126050000Y-117850000D01*
X126050000Y-118950000D01*
X126050000Y-118950000D01*
G37*
G36*
X134075000Y-118935000D02*
X132325000Y-118935000D01*
X132325000Y-118135000D01*
X134075000Y-118135000D01*
X134075000Y-118935000D01*
X134075000Y-118935000D01*
G37*
G36*
X128675000Y-118935000D02*
X126925000Y-118935000D01*
X126925000Y-118135000D01*
X128675000Y-118135000D01*
X128675000Y-118935000D01*
X128675000Y-118935000D01*
G37*
G36*
X136500000Y-118450000D02*
X135500000Y-118450000D01*
X135500000Y-117350000D01*
X136500000Y-117350000D01*
X136500000Y-118450000D01*
X136500000Y-118450000D01*
G37*
G36*
X128675000Y-117665000D02*
X126925000Y-117665000D01*
X126925000Y-116865000D01*
X128675000Y-116865000D01*
X128675000Y-117665000D01*
X128675000Y-117665000D01*
G37*
G36*
X134075000Y-117665000D02*
X132325000Y-117665000D01*
X132325000Y-116865000D01*
X134075000Y-116865000D01*
X134075000Y-117665000D01*
X134075000Y-117665000D01*
G37*
G36*
X140320856Y-115142272D02*
X140521045Y-115225193D01*
X140701207Y-115345573D01*
X140854427Y-115498793D01*
X140974807Y-115678955D01*
X141057728Y-115879144D01*
X141100000Y-116091657D01*
X141100000Y-116308343D01*
X141057728Y-116520856D01*
X140974807Y-116721045D01*
X140854427Y-116901207D01*
X140701207Y-117054427D01*
X140521045Y-117174807D01*
X140320856Y-117257728D01*
X140108343Y-117300000D01*
X139891657Y-117300000D01*
X139679144Y-117257728D01*
X139478955Y-117174807D01*
X139298793Y-117054427D01*
X139145573Y-116901207D01*
X139025193Y-116721045D01*
X138942272Y-116520856D01*
X138900000Y-116308343D01*
X138900000Y-116091657D01*
X138942272Y-115879144D01*
X139025193Y-115678955D01*
X139145573Y-115498793D01*
X139298793Y-115345573D01*
X139478955Y-115225193D01*
X139679144Y-115142272D01*
X139891657Y-115100000D01*
X140108343Y-115100000D01*
X140320856Y-115142272D01*
X140320856Y-115142272D01*
G37*
G36*
X112287500Y-117250000D02*
X110087500Y-117250000D01*
X110087500Y-115550000D01*
X112287500Y-115550000D01*
X112287500Y-117250000D01*
X112287500Y-117250000D01*
G37*
G36*
X125100000Y-116950000D02*
X124100000Y-116950000D01*
X124100000Y-115850000D01*
X125100000Y-115850000D01*
X125100000Y-116950000D01*
X125100000Y-116950000D01*
G37*
G36*
X164148452Y-114926359D02*
X164188899Y-114930343D01*
X164268675Y-114954543D01*
X164370537Y-114985442D01*
X164537939Y-115074920D01*
X164684665Y-115195335D01*
X164805080Y-115342061D01*
X164894558Y-115509463D01*
X164914239Y-115574343D01*
X164949657Y-115691101D01*
X164949657Y-115691103D01*
X164968263Y-115880000D01*
X164952719Y-116037811D01*
X164949657Y-116068899D01*
X164924009Y-116153449D01*
X164894558Y-116250537D01*
X164805080Y-116417939D01*
X164684665Y-116564665D01*
X164537939Y-116685080D01*
X164370537Y-116774558D01*
X164273449Y-116804009D01*
X164188899Y-116829657D01*
X164148452Y-116833641D01*
X164047339Y-116843600D01*
X163952661Y-116843600D01*
X163851548Y-116833641D01*
X163811101Y-116829657D01*
X163726551Y-116804009D01*
X163629463Y-116774558D01*
X163462061Y-116685080D01*
X163315335Y-116564665D01*
X163194920Y-116417939D01*
X163105442Y-116250537D01*
X163075991Y-116153449D01*
X163050343Y-116068899D01*
X163047281Y-116037811D01*
X163031737Y-115880000D01*
X163050343Y-115691103D01*
X163050343Y-115691101D01*
X163085761Y-115574343D01*
X163105442Y-115509463D01*
X163194920Y-115342061D01*
X163315335Y-115195335D01*
X163462061Y-115074920D01*
X163629463Y-114985442D01*
X163731325Y-114954543D01*
X163811101Y-114930343D01*
X163851548Y-114926359D01*
X163952661Y-114916400D01*
X164047339Y-114916400D01*
X164148452Y-114926359D01*
X164148452Y-114926359D01*
G37*
G36*
X166688452Y-114926359D02*
X166728899Y-114930343D01*
X166808675Y-114954543D01*
X166910537Y-114985442D01*
X167077939Y-115074920D01*
X167224665Y-115195335D01*
X167345080Y-115342061D01*
X167434558Y-115509463D01*
X167454239Y-115574343D01*
X167489657Y-115691101D01*
X167489657Y-115691103D01*
X167508263Y-115880000D01*
X167492719Y-116037811D01*
X167489657Y-116068899D01*
X167464009Y-116153449D01*
X167434558Y-116250537D01*
X167345080Y-116417939D01*
X167224665Y-116564665D01*
X167077939Y-116685080D01*
X166910537Y-116774558D01*
X166813449Y-116804009D01*
X166728899Y-116829657D01*
X166688452Y-116833641D01*
X166587339Y-116843600D01*
X166492661Y-116843600D01*
X166391548Y-116833641D01*
X166351101Y-116829657D01*
X166266551Y-116804009D01*
X166169463Y-116774558D01*
X166002061Y-116685080D01*
X165855335Y-116564665D01*
X165734920Y-116417939D01*
X165645442Y-116250537D01*
X165615991Y-116153449D01*
X165590343Y-116068899D01*
X165587281Y-116037811D01*
X165571737Y-115880000D01*
X165590343Y-115691103D01*
X165590343Y-115691101D01*
X165625761Y-115574343D01*
X165645442Y-115509463D01*
X165734920Y-115342061D01*
X165855335Y-115195335D01*
X166002061Y-115074920D01*
X166169463Y-114985442D01*
X166271325Y-114954543D01*
X166351101Y-114930343D01*
X166391548Y-114926359D01*
X166492661Y-114916400D01*
X166587339Y-114916400D01*
X166688452Y-114926359D01*
X166688452Y-114926359D01*
G37*
G36*
X135550000Y-116450000D02*
X134550000Y-116450000D01*
X134550000Y-115350000D01*
X135550000Y-115350000D01*
X135550000Y-116450000D01*
X135550000Y-116450000D01*
G37*
G36*
X137450000Y-116450000D02*
X136450000Y-116450000D01*
X136450000Y-115350000D01*
X137450000Y-115350000D01*
X137450000Y-116450000D01*
X137450000Y-116450000D01*
G37*
G36*
X128675000Y-116395000D02*
X126925000Y-116395000D01*
X126925000Y-115595000D01*
X128675000Y-115595000D01*
X128675000Y-116395000D01*
X128675000Y-116395000D01*
G37*
G36*
X134075000Y-116395000D02*
X132325000Y-116395000D01*
X132325000Y-115595000D01*
X134075000Y-115595000D01*
X134075000Y-116395000D01*
X134075000Y-116395000D01*
G37*
G36*
X159100000Y-116200000D02*
X154400000Y-116200000D01*
X154400000Y-114000000D01*
X159100000Y-114000000D01*
X159100000Y-116200000D01*
X159100000Y-116200000D01*
G37*
G36*
X150600000Y-116200000D02*
X145900000Y-116200000D01*
X145900000Y-114000000D01*
X150600000Y-114000000D01*
X150600000Y-116200000D01*
X150600000Y-116200000D01*
G37*
G36*
X118587500Y-116100000D02*
X116387500Y-116100000D01*
X116387500Y-112100000D01*
X118587500Y-112100000D01*
X118587500Y-116100000D01*
X118587500Y-116100000D01*
G37*
G36*
X121370856Y-113742272D02*
X121571045Y-113825193D01*
X121751207Y-113945573D01*
X121904427Y-114098793D01*
X122024807Y-114278955D01*
X122107728Y-114479144D01*
X122150000Y-114691657D01*
X122150000Y-114908343D01*
X122107728Y-115120856D01*
X122024807Y-115321045D01*
X121904427Y-115501207D01*
X121751207Y-115654427D01*
X121571045Y-115774807D01*
X121370856Y-115857728D01*
X121158343Y-115900000D01*
X120941657Y-115900000D01*
X120729144Y-115857728D01*
X120528955Y-115774807D01*
X120348793Y-115654427D01*
X120195573Y-115501207D01*
X120075193Y-115321045D01*
X119992272Y-115120856D01*
X119950000Y-114908343D01*
X119950000Y-114691657D01*
X119992272Y-114479144D01*
X120075193Y-114278955D01*
X120195573Y-114098793D01*
X120348793Y-113945573D01*
X120528955Y-113825193D01*
X120729144Y-113742272D01*
X120941657Y-113700000D01*
X121158343Y-113700000D01*
X121370856Y-113742272D01*
X121370856Y-113742272D01*
G37*
G36*
X107941208Y-114555158D02*
X107986843Y-114569001D01*
X108028902Y-114591482D01*
X108065765Y-114621735D01*
X108096018Y-114658598D01*
X108118499Y-114700657D01*
X108132342Y-114746292D01*
X108137500Y-114798658D01*
X108137500Y-115476342D01*
X108132342Y-115528708D01*
X108118499Y-115574343D01*
X108096018Y-115616402D01*
X108065765Y-115653265D01*
X108028902Y-115683518D01*
X107986843Y-115705999D01*
X107941208Y-115719842D01*
X107888842Y-115725000D01*
X106786158Y-115725000D01*
X106733792Y-115719842D01*
X106688157Y-115705999D01*
X106646098Y-115683518D01*
X106609235Y-115653265D01*
X106578982Y-115616402D01*
X106556501Y-115574343D01*
X106542658Y-115528708D01*
X106537500Y-115476342D01*
X106537500Y-114798658D01*
X106542658Y-114746292D01*
X106556501Y-114700657D01*
X106578982Y-114658598D01*
X106609235Y-114621735D01*
X106646098Y-114591482D01*
X106688157Y-114569001D01*
X106733792Y-114555158D01*
X106786158Y-114550000D01*
X107888842Y-114550000D01*
X107941208Y-114555158D01*
X107941208Y-114555158D01*
G37*
G36*
X109436330Y-114467177D02*
X109477276Y-114479598D01*
X109515010Y-114499767D01*
X109548087Y-114526913D01*
X109575233Y-114559990D01*
X109595402Y-114597724D01*
X109607823Y-114638670D01*
X109612500Y-114686158D01*
X109612500Y-115313842D01*
X109607823Y-115361330D01*
X109595402Y-115402276D01*
X109575233Y-115440010D01*
X109548087Y-115473087D01*
X109515010Y-115500233D01*
X109477276Y-115520402D01*
X109436330Y-115532823D01*
X109388842Y-115537500D01*
X108686158Y-115537500D01*
X108638670Y-115532823D01*
X108597724Y-115520402D01*
X108559990Y-115500233D01*
X108526913Y-115473087D01*
X108499767Y-115440010D01*
X108479598Y-115402276D01*
X108467177Y-115361330D01*
X108462500Y-115313842D01*
X108462500Y-114686158D01*
X108467177Y-114638670D01*
X108479598Y-114597724D01*
X108499767Y-114559990D01*
X108526913Y-114526913D01*
X108559990Y-114499767D01*
X108597724Y-114479598D01*
X108638670Y-114467177D01*
X108686158Y-114462500D01*
X109388842Y-114462500D01*
X109436330Y-114467177D01*
X109436330Y-114467177D01*
G37*
G36*
X135573830Y-113829677D02*
X135614776Y-113842098D01*
X135652510Y-113862267D01*
X135685587Y-113889413D01*
X135712733Y-113922490D01*
X135732902Y-113960224D01*
X135745323Y-114001170D01*
X135750000Y-114048658D01*
X135750000Y-114751342D01*
X135745323Y-114798830D01*
X135732902Y-114839776D01*
X135712733Y-114877510D01*
X135685587Y-114910587D01*
X135652510Y-114937733D01*
X135614776Y-114957902D01*
X135573830Y-114970323D01*
X135526342Y-114975000D01*
X134898658Y-114975000D01*
X134851170Y-114970323D01*
X134810224Y-114957902D01*
X134772490Y-114937733D01*
X134739413Y-114910587D01*
X134712267Y-114877510D01*
X134692098Y-114839776D01*
X134679677Y-114798830D01*
X134675000Y-114751342D01*
X134675000Y-114048658D01*
X134679677Y-114001170D01*
X134692098Y-113960224D01*
X134712267Y-113922490D01*
X134739413Y-113889413D01*
X134772490Y-113862267D01*
X134810224Y-113842098D01*
X134851170Y-113829677D01*
X134898658Y-113825000D01*
X135526342Y-113825000D01*
X135573830Y-113829677D01*
X135573830Y-113829677D01*
G37*
G36*
X130073830Y-113829677D02*
X130114776Y-113842098D01*
X130152510Y-113862267D01*
X130185587Y-113889413D01*
X130212733Y-113922490D01*
X130232902Y-113960224D01*
X130245323Y-114001170D01*
X130250000Y-114048658D01*
X130250000Y-114751342D01*
X130245323Y-114798830D01*
X130232902Y-114839776D01*
X130212733Y-114877510D01*
X130185587Y-114910587D01*
X130152510Y-114937733D01*
X130114776Y-114957902D01*
X130073830Y-114970323D01*
X130026342Y-114975000D01*
X129398658Y-114975000D01*
X129351170Y-114970323D01*
X129310224Y-114957902D01*
X129272490Y-114937733D01*
X129239413Y-114910587D01*
X129212267Y-114877510D01*
X129192098Y-114839776D01*
X129179677Y-114798830D01*
X129175000Y-114751342D01*
X129175000Y-114048658D01*
X129179677Y-114001170D01*
X129192098Y-113960224D01*
X129212267Y-113922490D01*
X129239413Y-113889413D01*
X129272490Y-113862267D01*
X129310224Y-113842098D01*
X129351170Y-113829677D01*
X129398658Y-113825000D01*
X130026342Y-113825000D01*
X130073830Y-113829677D01*
X130073830Y-113829677D01*
G37*
G36*
X131648830Y-113829677D02*
X131689776Y-113842098D01*
X131727510Y-113862267D01*
X131760587Y-113889413D01*
X131787733Y-113922490D01*
X131807902Y-113960224D01*
X131820323Y-114001170D01*
X131825000Y-114048658D01*
X131825000Y-114751342D01*
X131820323Y-114798830D01*
X131807902Y-114839776D01*
X131787733Y-114877510D01*
X131760587Y-114910587D01*
X131727510Y-114937733D01*
X131689776Y-114957902D01*
X131648830Y-114970323D01*
X131601342Y-114975000D01*
X130973658Y-114975000D01*
X130926170Y-114970323D01*
X130885224Y-114957902D01*
X130847490Y-114937733D01*
X130814413Y-114910587D01*
X130787267Y-114877510D01*
X130767098Y-114839776D01*
X130754677Y-114798830D01*
X130750000Y-114751342D01*
X130750000Y-114048658D01*
X130754677Y-114001170D01*
X130767098Y-113960224D01*
X130787267Y-113922490D01*
X130814413Y-113889413D01*
X130847490Y-113862267D01*
X130885224Y-113842098D01*
X130926170Y-113829677D01*
X130973658Y-113825000D01*
X131601342Y-113825000D01*
X131648830Y-113829677D01*
X131648830Y-113829677D01*
G37*
G36*
X137148830Y-113829677D02*
X137189776Y-113842098D01*
X137227510Y-113862267D01*
X137260587Y-113889413D01*
X137287733Y-113922490D01*
X137307902Y-113960224D01*
X137320323Y-114001170D01*
X137325000Y-114048658D01*
X137325000Y-114751342D01*
X137320323Y-114798830D01*
X137307902Y-114839776D01*
X137287733Y-114877510D01*
X137260587Y-114910587D01*
X137227510Y-114937733D01*
X137189776Y-114957902D01*
X137148830Y-114970323D01*
X137101342Y-114975000D01*
X136473658Y-114975000D01*
X136426170Y-114970323D01*
X136385224Y-114957902D01*
X136347490Y-114937733D01*
X136314413Y-114910587D01*
X136287267Y-114877510D01*
X136267098Y-114839776D01*
X136254677Y-114798830D01*
X136250000Y-114751342D01*
X136250000Y-114048658D01*
X136254677Y-114001170D01*
X136267098Y-113960224D01*
X136287267Y-113922490D01*
X136314413Y-113889413D01*
X136347490Y-113862267D01*
X136385224Y-113842098D01*
X136426170Y-113829677D01*
X136473658Y-113825000D01*
X137101342Y-113825000D01*
X137148830Y-113829677D01*
X137148830Y-113829677D01*
G37*
G36*
X112287500Y-114950000D02*
X110087500Y-114950000D01*
X110087500Y-113250000D01*
X112287500Y-113250000D01*
X112287500Y-114950000D01*
X112287500Y-114950000D01*
G37*
G36*
X166688452Y-112386359D02*
X166728899Y-112390343D01*
X166813449Y-112415991D01*
X166910537Y-112445442D01*
X167077939Y-112534920D01*
X167224665Y-112655335D01*
X167345080Y-112802061D01*
X167434558Y-112969463D01*
X167445926Y-113006940D01*
X167489657Y-113151101D01*
X167489657Y-113151103D01*
X167508263Y-113340000D01*
X167492719Y-113497811D01*
X167489657Y-113528899D01*
X167481360Y-113556250D01*
X167434558Y-113710537D01*
X167345080Y-113877939D01*
X167224665Y-114024665D01*
X167077939Y-114145080D01*
X166910537Y-114234558D01*
X166813449Y-114264009D01*
X166728899Y-114289657D01*
X166688452Y-114293641D01*
X166587339Y-114303600D01*
X166492661Y-114303600D01*
X166391548Y-114293641D01*
X166351101Y-114289657D01*
X166266551Y-114264009D01*
X166169463Y-114234558D01*
X166002061Y-114145080D01*
X165855335Y-114024665D01*
X165734920Y-113877939D01*
X165645442Y-113710537D01*
X165598640Y-113556250D01*
X165590343Y-113528899D01*
X165587281Y-113497811D01*
X165571737Y-113340000D01*
X165590343Y-113151103D01*
X165590343Y-113151101D01*
X165634074Y-113006940D01*
X165645442Y-112969463D01*
X165734920Y-112802061D01*
X165855335Y-112655335D01*
X166002061Y-112534920D01*
X166169463Y-112445442D01*
X166266551Y-112415991D01*
X166351101Y-112390343D01*
X166391548Y-112386359D01*
X166492661Y-112376400D01*
X166587339Y-112376400D01*
X166688452Y-112386359D01*
X166688452Y-112386359D01*
G37*
G36*
X164148452Y-112386359D02*
X164188899Y-112390343D01*
X164273449Y-112415991D01*
X164370537Y-112445442D01*
X164537939Y-112534920D01*
X164684665Y-112655335D01*
X164805080Y-112802061D01*
X164894558Y-112969463D01*
X164905926Y-113006940D01*
X164949657Y-113151101D01*
X164949657Y-113151103D01*
X164968263Y-113340000D01*
X164952719Y-113497811D01*
X164949657Y-113528899D01*
X164941360Y-113556250D01*
X164894558Y-113710537D01*
X164805080Y-113877939D01*
X164684665Y-114024665D01*
X164537939Y-114145080D01*
X164370537Y-114234558D01*
X164273449Y-114264009D01*
X164188899Y-114289657D01*
X164148452Y-114293641D01*
X164047339Y-114303600D01*
X163952661Y-114303600D01*
X163851548Y-114293641D01*
X163811101Y-114289657D01*
X163726551Y-114264009D01*
X163629463Y-114234558D01*
X163462061Y-114145080D01*
X163315335Y-114024665D01*
X163194920Y-113877939D01*
X163105442Y-113710537D01*
X163058640Y-113556250D01*
X163050343Y-113528899D01*
X163047281Y-113497811D01*
X163031737Y-113340000D01*
X163050343Y-113151103D01*
X163050343Y-113151101D01*
X163094074Y-113006940D01*
X163105442Y-112969463D01*
X163194920Y-112802061D01*
X163315335Y-112655335D01*
X163462061Y-112534920D01*
X163629463Y-112445442D01*
X163726551Y-112415991D01*
X163811101Y-112390343D01*
X163851548Y-112386359D01*
X163952661Y-112376400D01*
X164047339Y-112376400D01*
X164148452Y-112386359D01*
X164148452Y-112386359D01*
G37*
G36*
X109436330Y-112892177D02*
X109477276Y-112904598D01*
X109515010Y-112924767D01*
X109548087Y-112951913D01*
X109575233Y-112984990D01*
X109595402Y-113022724D01*
X109607823Y-113063670D01*
X109612500Y-113111158D01*
X109612500Y-113738842D01*
X109607823Y-113786330D01*
X109595402Y-113827276D01*
X109575233Y-113865010D01*
X109548087Y-113898087D01*
X109515010Y-113925233D01*
X109477276Y-113945402D01*
X109436330Y-113957823D01*
X109388842Y-113962500D01*
X108686158Y-113962500D01*
X108638670Y-113957823D01*
X108597724Y-113945402D01*
X108559990Y-113925233D01*
X108526913Y-113898087D01*
X108499767Y-113865010D01*
X108479598Y-113827276D01*
X108467177Y-113786330D01*
X108462500Y-113738842D01*
X108462500Y-113111158D01*
X108467177Y-113063670D01*
X108479598Y-113022724D01*
X108499767Y-112984990D01*
X108526913Y-112951913D01*
X108559990Y-112924767D01*
X108597724Y-112904598D01*
X108638670Y-112892177D01*
X108686158Y-112887500D01*
X109388842Y-112887500D01*
X109436330Y-112892177D01*
X109436330Y-112892177D01*
G37*
G36*
X107941208Y-112680158D02*
X107986843Y-112694001D01*
X108028902Y-112716482D01*
X108065765Y-112746735D01*
X108096018Y-112783598D01*
X108118499Y-112825657D01*
X108132342Y-112871292D01*
X108137500Y-112923658D01*
X108137500Y-113601342D01*
X108132342Y-113653708D01*
X108118499Y-113699343D01*
X108096018Y-113741402D01*
X108065765Y-113778265D01*
X108028902Y-113808518D01*
X107986843Y-113830999D01*
X107941208Y-113844842D01*
X107888842Y-113850000D01*
X106786158Y-113850000D01*
X106733792Y-113844842D01*
X106688157Y-113830999D01*
X106646098Y-113808518D01*
X106609235Y-113778265D01*
X106578982Y-113741402D01*
X106556501Y-113699343D01*
X106542658Y-113653708D01*
X106537500Y-113601342D01*
X106537500Y-112923658D01*
X106542658Y-112871292D01*
X106556501Y-112825657D01*
X106578982Y-112783598D01*
X106609235Y-112746735D01*
X106646098Y-112716482D01*
X106688157Y-112694001D01*
X106733792Y-112680158D01*
X106786158Y-112675000D01*
X107888842Y-112675000D01*
X107941208Y-112680158D01*
X107941208Y-112680158D01*
G37*
G36*
X141920856Y-110742272D02*
X142121045Y-110825193D01*
X142301207Y-110945573D01*
X142454427Y-111098793D01*
X142574807Y-111278955D01*
X142657728Y-111479144D01*
X142700000Y-111691657D01*
X142700000Y-111908343D01*
X142657728Y-112120856D01*
X142574807Y-112321045D01*
X142454427Y-112501207D01*
X142301207Y-112654427D01*
X142121045Y-112774807D01*
X141920856Y-112857728D01*
X141708343Y-112900000D01*
X141491657Y-112900000D01*
X141279144Y-112857728D01*
X141078955Y-112774807D01*
X140898793Y-112654427D01*
X140745573Y-112501207D01*
X140625193Y-112321045D01*
X140542272Y-112120856D01*
X140500000Y-111908343D01*
X140500000Y-111691657D01*
X140542272Y-111479144D01*
X140625193Y-111278955D01*
X140745573Y-111098793D01*
X140898793Y-110945573D01*
X141078955Y-110825193D01*
X141279144Y-110742272D01*
X141491657Y-110700000D01*
X141708343Y-110700000D01*
X141920856Y-110742272D01*
X141920856Y-110742272D01*
G37*
G36*
X112287500Y-112650000D02*
X110087500Y-112650000D01*
X110087500Y-110950000D01*
X112287500Y-110950000D01*
X112287500Y-112650000D01*
X112287500Y-112650000D01*
G37*
G36*
X157253708Y-110705158D02*
X157299343Y-110719001D01*
X157341402Y-110741482D01*
X157378265Y-110771735D01*
X157408518Y-110808598D01*
X157430999Y-110850657D01*
X157444842Y-110896292D01*
X157450000Y-110948658D01*
X157450000Y-112051342D01*
X157444842Y-112103708D01*
X157430999Y-112149343D01*
X157408518Y-112191402D01*
X157378265Y-112228265D01*
X157341402Y-112258518D01*
X157299343Y-112280999D01*
X157253708Y-112294842D01*
X157201342Y-112300000D01*
X156523658Y-112300000D01*
X156471292Y-112294842D01*
X156425657Y-112280999D01*
X156383598Y-112258518D01*
X156346735Y-112228265D01*
X156316482Y-112191402D01*
X156294001Y-112149343D01*
X156280158Y-112103708D01*
X156275000Y-112051342D01*
X156275000Y-110948658D01*
X156280158Y-110896292D01*
X156294001Y-110850657D01*
X156316482Y-110808598D01*
X156346735Y-110771735D01*
X156383598Y-110741482D01*
X156425657Y-110719001D01*
X156471292Y-110705158D01*
X156523658Y-110700000D01*
X157201342Y-110700000D01*
X157253708Y-110705158D01*
X157253708Y-110705158D01*
G37*
G36*
X159128708Y-110705158D02*
X159174343Y-110719001D01*
X159216402Y-110741482D01*
X159253265Y-110771735D01*
X159283518Y-110808598D01*
X159305999Y-110850657D01*
X159319842Y-110896292D01*
X159325000Y-110948658D01*
X159325000Y-112051342D01*
X159319842Y-112103708D01*
X159305999Y-112149343D01*
X159283518Y-112191402D01*
X159253265Y-112228265D01*
X159216402Y-112258518D01*
X159174343Y-112280999D01*
X159128708Y-112294842D01*
X159076342Y-112300000D01*
X158398658Y-112300000D01*
X158346292Y-112294842D01*
X158300657Y-112280999D01*
X158258598Y-112258518D01*
X158221735Y-112228265D01*
X158191482Y-112191402D01*
X158169001Y-112149343D01*
X158155158Y-112103708D01*
X158150000Y-112051342D01*
X158150000Y-110948658D01*
X158155158Y-110896292D01*
X158169001Y-110850657D01*
X158191482Y-110808598D01*
X158221735Y-110771735D01*
X158258598Y-110741482D01*
X158300657Y-110719001D01*
X158346292Y-110705158D01*
X158398658Y-110700000D01*
X159076342Y-110700000D01*
X159128708Y-110705158D01*
X159128708Y-110705158D01*
G37*
G36*
X153973830Y-111029677D02*
X154014776Y-111042098D01*
X154052510Y-111062267D01*
X154085587Y-111089413D01*
X154112733Y-111122490D01*
X154132902Y-111160224D01*
X154145323Y-111201170D01*
X154150000Y-111248658D01*
X154150000Y-111951342D01*
X154145323Y-111998830D01*
X154132902Y-112039776D01*
X154112733Y-112077510D01*
X154085587Y-112110587D01*
X154052510Y-112137733D01*
X154014776Y-112157902D01*
X153973830Y-112170323D01*
X153926342Y-112175000D01*
X153298658Y-112175000D01*
X153251170Y-112170323D01*
X153210224Y-112157902D01*
X153172490Y-112137733D01*
X153139413Y-112110587D01*
X153112267Y-112077510D01*
X153092098Y-112039776D01*
X153079677Y-111998830D01*
X153075000Y-111951342D01*
X153075000Y-111248658D01*
X153079677Y-111201170D01*
X153092098Y-111160224D01*
X153112267Y-111122490D01*
X153139413Y-111089413D01*
X153172490Y-111062267D01*
X153210224Y-111042098D01*
X153251170Y-111029677D01*
X153298658Y-111025000D01*
X153926342Y-111025000D01*
X153973830Y-111029677D01*
X153973830Y-111029677D01*
G37*
G36*
X155548830Y-111029677D02*
X155589776Y-111042098D01*
X155627510Y-111062267D01*
X155660587Y-111089413D01*
X155687733Y-111122490D01*
X155707902Y-111160224D01*
X155720323Y-111201170D01*
X155725000Y-111248658D01*
X155725000Y-111951342D01*
X155720323Y-111998830D01*
X155707902Y-112039776D01*
X155687733Y-112077510D01*
X155660587Y-112110587D01*
X155627510Y-112137733D01*
X155589776Y-112157902D01*
X155548830Y-112170323D01*
X155501342Y-112175000D01*
X154873658Y-112175000D01*
X154826170Y-112170323D01*
X154785224Y-112157902D01*
X154747490Y-112137733D01*
X154714413Y-112110587D01*
X154687267Y-112077510D01*
X154667098Y-112039776D01*
X154654677Y-111998830D01*
X154650000Y-111951342D01*
X154650000Y-111248658D01*
X154654677Y-111201170D01*
X154667098Y-111160224D01*
X154687267Y-111122490D01*
X154714413Y-111089413D01*
X154747490Y-111062267D01*
X154785224Y-111042098D01*
X154826170Y-111029677D01*
X154873658Y-111025000D01*
X155501342Y-111025000D01*
X155548830Y-111029677D01*
X155548830Y-111029677D01*
G37*
G36*
X108220856Y-109742272D02*
X108421045Y-109825193D01*
X108601207Y-109945573D01*
X108754427Y-110098793D01*
X108874807Y-110278955D01*
X108957728Y-110479144D01*
X109000000Y-110691657D01*
X109000000Y-110908343D01*
X108957728Y-111120856D01*
X108874807Y-111321045D01*
X108754427Y-111501207D01*
X108601207Y-111654427D01*
X108421045Y-111774807D01*
X108220856Y-111857728D01*
X108008343Y-111900000D01*
X107791657Y-111900000D01*
X107579144Y-111857728D01*
X107378955Y-111774807D01*
X107198793Y-111654427D01*
X107045573Y-111501207D01*
X106925193Y-111321045D01*
X106842272Y-111120856D01*
X106800000Y-110908343D01*
X106800000Y-110691657D01*
X106842272Y-110479144D01*
X106925193Y-110278955D01*
X107045573Y-110098793D01*
X107198793Y-109945573D01*
X107378955Y-109825193D01*
X107579144Y-109742272D01*
X107791657Y-109700000D01*
X108008343Y-109700000D01*
X108220856Y-109742272D01*
X108220856Y-109742272D01*
G37*
G36*
X166687698Y-109846285D02*
X166728899Y-109850343D01*
X166813449Y-109875991D01*
X166910537Y-109905442D01*
X167077939Y-109994920D01*
X167224665Y-110115335D01*
X167345080Y-110262061D01*
X167434558Y-110429463D01*
X167449628Y-110479144D01*
X167489657Y-110611101D01*
X167489657Y-110611103D01*
X167508263Y-110800000D01*
X167497591Y-110908343D01*
X167489657Y-110988899D01*
X167477287Y-111029677D01*
X167434558Y-111170537D01*
X167345080Y-111337939D01*
X167224665Y-111484665D01*
X167077939Y-111605080D01*
X166910537Y-111694558D01*
X166813449Y-111724009D01*
X166728899Y-111749657D01*
X166688452Y-111753641D01*
X166587339Y-111763600D01*
X166492661Y-111763600D01*
X166391548Y-111753641D01*
X166351101Y-111749657D01*
X166266551Y-111724009D01*
X166169463Y-111694558D01*
X166002061Y-111605080D01*
X165855335Y-111484665D01*
X165734920Y-111337939D01*
X165645442Y-111170537D01*
X165602713Y-111029677D01*
X165590343Y-110988899D01*
X165582409Y-110908343D01*
X165571737Y-110800000D01*
X165590343Y-110611103D01*
X165590343Y-110611101D01*
X165630372Y-110479144D01*
X165645442Y-110429463D01*
X165734920Y-110262061D01*
X165855335Y-110115335D01*
X166002061Y-109994920D01*
X166169463Y-109905442D01*
X166266551Y-109875991D01*
X166351101Y-109850343D01*
X166392302Y-109846285D01*
X166492661Y-109836400D01*
X166587339Y-109836400D01*
X166687698Y-109846285D01*
X166687698Y-109846285D01*
G37*
G36*
X164963600Y-111763600D02*
X163036400Y-111763600D01*
X163036400Y-109836400D01*
X164963600Y-109836400D01*
X164963600Y-111763600D01*
X164963600Y-111763600D01*
G37*
G36*
X147361330Y-110229677D02*
X147402276Y-110242098D01*
X147440010Y-110262267D01*
X147473087Y-110289413D01*
X147500233Y-110322490D01*
X147520402Y-110360224D01*
X147532823Y-110401170D01*
X147537500Y-110448658D01*
X147537500Y-111151342D01*
X147532823Y-111198830D01*
X147520402Y-111239776D01*
X147500233Y-111277510D01*
X147473087Y-111310587D01*
X147440010Y-111337733D01*
X147402276Y-111357902D01*
X147361330Y-111370323D01*
X147313842Y-111375000D01*
X146686158Y-111375000D01*
X146638670Y-111370323D01*
X146597724Y-111357902D01*
X146559990Y-111337733D01*
X146526913Y-111310587D01*
X146499767Y-111277510D01*
X146479598Y-111239776D01*
X146467177Y-111198830D01*
X146462500Y-111151342D01*
X146462500Y-110448658D01*
X146467177Y-110401170D01*
X146479598Y-110360224D01*
X146499767Y-110322490D01*
X146526913Y-110289413D01*
X146559990Y-110262267D01*
X146597724Y-110242098D01*
X146638670Y-110229677D01*
X146686158Y-110225000D01*
X147313842Y-110225000D01*
X147361330Y-110229677D01*
X147361330Y-110229677D01*
G37*
G36*
X148936330Y-110229677D02*
X148977276Y-110242098D01*
X149015010Y-110262267D01*
X149048087Y-110289413D01*
X149075233Y-110322490D01*
X149095402Y-110360224D01*
X149107823Y-110401170D01*
X149112500Y-110448658D01*
X149112500Y-111151342D01*
X149107823Y-111198830D01*
X149095402Y-111239776D01*
X149075233Y-111277510D01*
X149048087Y-111310587D01*
X149015010Y-111337733D01*
X148977276Y-111357902D01*
X148936330Y-111370323D01*
X148888842Y-111375000D01*
X148261158Y-111375000D01*
X148213670Y-111370323D01*
X148172724Y-111357902D01*
X148134990Y-111337733D01*
X148101913Y-111310587D01*
X148074767Y-111277510D01*
X148054598Y-111239776D01*
X148042177Y-111198830D01*
X148037500Y-111151342D01*
X148037500Y-110448658D01*
X148042177Y-110401170D01*
X148054598Y-110360224D01*
X148074767Y-110322490D01*
X148101913Y-110289413D01*
X148134990Y-110262267D01*
X148172724Y-110242098D01*
X148213670Y-110229677D01*
X148261158Y-110225000D01*
X148888842Y-110225000D01*
X148936330Y-110229677D01*
X148936330Y-110229677D01*
G37*
G36*
X155975000Y-110700000D02*
X150025000Y-110700000D01*
X150025000Y-109200000D01*
X155975000Y-109200000D01*
X155975000Y-110700000D01*
X155975000Y-110700000D01*
G37*
G36*
X147398830Y-108854677D02*
X147439776Y-108867098D01*
X147477510Y-108887267D01*
X147510587Y-108914413D01*
X147537733Y-108947490D01*
X147557902Y-108985224D01*
X147570323Y-109026170D01*
X147575000Y-109073658D01*
X147575000Y-109701342D01*
X147570323Y-109748830D01*
X147557902Y-109789776D01*
X147537733Y-109827510D01*
X147510587Y-109860587D01*
X147477510Y-109887733D01*
X147439776Y-109907902D01*
X147398830Y-109920323D01*
X147351342Y-109925000D01*
X146648658Y-109925000D01*
X146601170Y-109920323D01*
X146560224Y-109907902D01*
X146522490Y-109887733D01*
X146489413Y-109860587D01*
X146462267Y-109827510D01*
X146442098Y-109789776D01*
X146429677Y-109748830D01*
X146425000Y-109701342D01*
X146425000Y-109073658D01*
X146429677Y-109026170D01*
X146442098Y-108985224D01*
X146462267Y-108947490D01*
X146489413Y-108914413D01*
X146522490Y-108887267D01*
X146560224Y-108867098D01*
X146601170Y-108854677D01*
X146648658Y-108850000D01*
X147351342Y-108850000D01*
X147398830Y-108854677D01*
X147398830Y-108854677D01*
G37*
G36*
X142520856Y-107442272D02*
X142721045Y-107525193D01*
X142901207Y-107645573D01*
X143054427Y-107798793D01*
X143174807Y-107978955D01*
X143257728Y-108179144D01*
X143300000Y-108391657D01*
X143300000Y-108608343D01*
X143257728Y-108820856D01*
X143174807Y-109021045D01*
X143054427Y-109201207D01*
X142901207Y-109354427D01*
X142721045Y-109474807D01*
X142520856Y-109557728D01*
X142308343Y-109600000D01*
X142091657Y-109600000D01*
X141879144Y-109557728D01*
X141678955Y-109474807D01*
X141498793Y-109354427D01*
X141345573Y-109201207D01*
X141225193Y-109021045D01*
X141142272Y-108820856D01*
X141100000Y-108608343D01*
X141100000Y-108391657D01*
X141142272Y-108179144D01*
X141225193Y-107978955D01*
X141345573Y-107798793D01*
X141498793Y-107645573D01*
X141678955Y-107525193D01*
X141879144Y-107442272D01*
X142091657Y-107400000D01*
X142308343Y-107400000D01*
X142520856Y-107442272D01*
X142520856Y-107442272D01*
G37*
G36*
X158100000Y-108575000D02*
X156600000Y-108575000D01*
X156600000Y-102625000D01*
X158100000Y-102625000D01*
X158100000Y-108575000D01*
X158100000Y-108575000D01*
G37*
G36*
X149400000Y-108575000D02*
X147900000Y-108575000D01*
X147900000Y-102625000D01*
X149400000Y-102625000D01*
X149400000Y-108575000D01*
X149400000Y-108575000D01*
G37*
G36*
X147398830Y-107279677D02*
X147439776Y-107292098D01*
X147477510Y-107312267D01*
X147510587Y-107339413D01*
X147537733Y-107372490D01*
X147557902Y-107410224D01*
X147570323Y-107451170D01*
X147575000Y-107498658D01*
X147575000Y-108126342D01*
X147570323Y-108173830D01*
X147557902Y-108214776D01*
X147537733Y-108252510D01*
X147510587Y-108285587D01*
X147477510Y-108312733D01*
X147439776Y-108332902D01*
X147398830Y-108345323D01*
X147351342Y-108350000D01*
X146648658Y-108350000D01*
X146601170Y-108345323D01*
X146560224Y-108332902D01*
X146522490Y-108312733D01*
X146489413Y-108285587D01*
X146462267Y-108252510D01*
X146442098Y-108214776D01*
X146429677Y-108173830D01*
X146425000Y-108126342D01*
X146425000Y-107498658D01*
X146429677Y-107451170D01*
X146442098Y-107410224D01*
X146462267Y-107372490D01*
X146489413Y-107339413D01*
X146522490Y-107312267D01*
X146560224Y-107292098D01*
X146601170Y-107279677D01*
X146648658Y-107275000D01*
X147351342Y-107275000D01*
X147398830Y-107279677D01*
X147398830Y-107279677D01*
G37*
G36*
X159498830Y-105954677D02*
X159539776Y-105967098D01*
X159577510Y-105987267D01*
X159610587Y-106014413D01*
X159637733Y-106047490D01*
X159657902Y-106085224D01*
X159670323Y-106126170D01*
X159675000Y-106173658D01*
X159675000Y-106801342D01*
X159670323Y-106848830D01*
X159657902Y-106889776D01*
X159637733Y-106927510D01*
X159610587Y-106960587D01*
X159577510Y-106987733D01*
X159539776Y-107007902D01*
X159498830Y-107020323D01*
X159451342Y-107025000D01*
X158748658Y-107025000D01*
X158701170Y-107020323D01*
X158660224Y-107007902D01*
X158622490Y-106987733D01*
X158589413Y-106960587D01*
X158562267Y-106927510D01*
X158542098Y-106889776D01*
X158529677Y-106848830D01*
X158525000Y-106801342D01*
X158525000Y-106173658D01*
X158529677Y-106126170D01*
X158542098Y-106085224D01*
X158562267Y-106047490D01*
X158589413Y-106014413D01*
X158622490Y-105987267D01*
X158660224Y-105967098D01*
X158701170Y-105954677D01*
X158748658Y-105950000D01*
X159451342Y-105950000D01*
X159498830Y-105954677D01*
X159498830Y-105954677D01*
G37*
G36*
X147398830Y-105854677D02*
X147439776Y-105867098D01*
X147477510Y-105887267D01*
X147510587Y-105914413D01*
X147537733Y-105947490D01*
X147557902Y-105985224D01*
X147570323Y-106026170D01*
X147575000Y-106073658D01*
X147575000Y-106701342D01*
X147570323Y-106748830D01*
X147557902Y-106789776D01*
X147537733Y-106827510D01*
X147510587Y-106860587D01*
X147477510Y-106887733D01*
X147439776Y-106907902D01*
X147398830Y-106920323D01*
X147351342Y-106925000D01*
X146648658Y-106925000D01*
X146601170Y-106920323D01*
X146560224Y-106907902D01*
X146522490Y-106887733D01*
X146489413Y-106860587D01*
X146462267Y-106827510D01*
X146442098Y-106789776D01*
X146429677Y-106748830D01*
X146425000Y-106701342D01*
X146425000Y-106073658D01*
X146429677Y-106026170D01*
X146442098Y-105985224D01*
X146462267Y-105947490D01*
X146489413Y-105914413D01*
X146522490Y-105887267D01*
X146560224Y-105867098D01*
X146601170Y-105854677D01*
X146648658Y-105850000D01*
X147351342Y-105850000D01*
X147398830Y-105854677D01*
X147398830Y-105854677D01*
G37*
G36*
X129162520Y-104434586D02*
X129162522Y-104434587D01*
X129162523Y-104434587D01*
X129299486Y-104491319D01*
X129326310Y-104502430D01*
X129473717Y-104600924D01*
X129599076Y-104726283D01*
X129660802Y-104818663D01*
X129697570Y-104873690D01*
X129747552Y-104994356D01*
X129765414Y-105037480D01*
X129800000Y-105211358D01*
X129800000Y-105388642D01*
X129765414Y-105562520D01*
X129697570Y-105726310D01*
X129599076Y-105873717D01*
X129473717Y-105999076D01*
X129362097Y-106073658D01*
X129326310Y-106097570D01*
X129162523Y-106165413D01*
X129162522Y-106165413D01*
X129162520Y-106165414D01*
X128988642Y-106200000D01*
X128811358Y-106200000D01*
X128637480Y-106165414D01*
X128637478Y-106165413D01*
X128637477Y-106165413D01*
X128473690Y-106097570D01*
X128437903Y-106073658D01*
X128326283Y-105999076D01*
X128200924Y-105873717D01*
X128102430Y-105726310D01*
X128034586Y-105562520D01*
X128000000Y-105388642D01*
X128000000Y-105211358D01*
X128034586Y-105037480D01*
X128052449Y-104994356D01*
X128102430Y-104873690D01*
X128139198Y-104818663D01*
X128200924Y-104726283D01*
X128326283Y-104600924D01*
X128473690Y-104502430D01*
X128500514Y-104491319D01*
X128637477Y-104434587D01*
X128637478Y-104434587D01*
X128637480Y-104434586D01*
X128811358Y-104400000D01*
X128988642Y-104400000D01*
X129162520Y-104434586D01*
X129162520Y-104434586D01*
G37*
G36*
X159498830Y-104379677D02*
X159539776Y-104392098D01*
X159577510Y-104412267D01*
X159610587Y-104439413D01*
X159637733Y-104472490D01*
X159657902Y-104510224D01*
X159670323Y-104551170D01*
X159675000Y-104598658D01*
X159675000Y-105226342D01*
X159670323Y-105273830D01*
X159657902Y-105314776D01*
X159637733Y-105352510D01*
X159610587Y-105385587D01*
X159577510Y-105412733D01*
X159539776Y-105432902D01*
X159498830Y-105445323D01*
X159451342Y-105450000D01*
X158748658Y-105450000D01*
X158701170Y-105445323D01*
X158660224Y-105432902D01*
X158622490Y-105412733D01*
X158589413Y-105385587D01*
X158562267Y-105352510D01*
X158542098Y-105314776D01*
X158529677Y-105273830D01*
X158525000Y-105226342D01*
X158525000Y-104598658D01*
X158529677Y-104551170D01*
X158542098Y-104510224D01*
X158562267Y-104472490D01*
X158589413Y-104439413D01*
X158622490Y-104412267D01*
X158660224Y-104392098D01*
X158701170Y-104379677D01*
X158748658Y-104375000D01*
X159451342Y-104375000D01*
X159498830Y-104379677D01*
X159498830Y-104379677D01*
G37*
G36*
X147398830Y-104279677D02*
X147439776Y-104292098D01*
X147477510Y-104312267D01*
X147510587Y-104339413D01*
X147537733Y-104372490D01*
X147557902Y-104410224D01*
X147570323Y-104451170D01*
X147575000Y-104498658D01*
X147575000Y-105126342D01*
X147570323Y-105173830D01*
X147557902Y-105214776D01*
X147537733Y-105252510D01*
X147510587Y-105285587D01*
X147477510Y-105312733D01*
X147439776Y-105332902D01*
X147398830Y-105345323D01*
X147351342Y-105350000D01*
X146648658Y-105350000D01*
X146601170Y-105345323D01*
X146560224Y-105332902D01*
X146522490Y-105312733D01*
X146489413Y-105285587D01*
X146462267Y-105252510D01*
X146442098Y-105214776D01*
X146429677Y-105173830D01*
X146425000Y-105126342D01*
X146425000Y-104498658D01*
X146429677Y-104451170D01*
X146442098Y-104410224D01*
X146462267Y-104372490D01*
X146489413Y-104339413D01*
X146522490Y-104312267D01*
X146560224Y-104292098D01*
X146601170Y-104279677D01*
X146648658Y-104275000D01*
X147351342Y-104275000D01*
X147398830Y-104279677D01*
X147398830Y-104279677D01*
G37*
G36*
X166753708Y-103405158D02*
X166799343Y-103419001D01*
X166841402Y-103441482D01*
X166878265Y-103471735D01*
X166908518Y-103508598D01*
X166930999Y-103550657D01*
X166944842Y-103596292D01*
X166950000Y-103648658D01*
X166950000Y-104751342D01*
X166944842Y-104803708D01*
X166930999Y-104849343D01*
X166908518Y-104891402D01*
X166878265Y-104928265D01*
X166841402Y-104958518D01*
X166799343Y-104980999D01*
X166753708Y-104994842D01*
X166701342Y-105000000D01*
X166023658Y-105000000D01*
X165971292Y-104994842D01*
X165925657Y-104980999D01*
X165883598Y-104958518D01*
X165846735Y-104928265D01*
X165816482Y-104891402D01*
X165794001Y-104849343D01*
X165780158Y-104803708D01*
X165775000Y-104751342D01*
X165775000Y-103648658D01*
X165780158Y-103596292D01*
X165794001Y-103550657D01*
X165816482Y-103508598D01*
X165846735Y-103471735D01*
X165883598Y-103441482D01*
X165925657Y-103419001D01*
X165971292Y-103405158D01*
X166023658Y-103400000D01*
X166701342Y-103400000D01*
X166753708Y-103405158D01*
X166753708Y-103405158D01*
G37*
G36*
X168628708Y-103405158D02*
X168674343Y-103419001D01*
X168716402Y-103441482D01*
X168753265Y-103471735D01*
X168783518Y-103508598D01*
X168805999Y-103550657D01*
X168819842Y-103596292D01*
X168825000Y-103648658D01*
X168825000Y-104751342D01*
X168819842Y-104803708D01*
X168805999Y-104849343D01*
X168783518Y-104891402D01*
X168753265Y-104928265D01*
X168716402Y-104958518D01*
X168674343Y-104980999D01*
X168628708Y-104994842D01*
X168576342Y-105000000D01*
X167898658Y-105000000D01*
X167846292Y-104994842D01*
X167800657Y-104980999D01*
X167758598Y-104958518D01*
X167721735Y-104928265D01*
X167691482Y-104891402D01*
X167669001Y-104849343D01*
X167655158Y-104803708D01*
X167650000Y-104751342D01*
X167650000Y-103648658D01*
X167655158Y-103596292D01*
X167669001Y-103550657D01*
X167691482Y-103508598D01*
X167721735Y-103471735D01*
X167758598Y-103441482D01*
X167800657Y-103419001D01*
X167846292Y-103405158D01*
X167898658Y-103400000D01*
X168576342Y-103400000D01*
X168628708Y-103405158D01*
X168628708Y-103405158D01*
G37*
G36*
X165248830Y-103629677D02*
X165289776Y-103642098D01*
X165327510Y-103662267D01*
X165360587Y-103689413D01*
X165387733Y-103722490D01*
X165407902Y-103760224D01*
X165420323Y-103801170D01*
X165425000Y-103848658D01*
X165425000Y-104551342D01*
X165420323Y-104598830D01*
X165407902Y-104639776D01*
X165387733Y-104677510D01*
X165360587Y-104710587D01*
X165327510Y-104737733D01*
X165289776Y-104757902D01*
X165248830Y-104770323D01*
X165201342Y-104775000D01*
X164573658Y-104775000D01*
X164526170Y-104770323D01*
X164485224Y-104757902D01*
X164447490Y-104737733D01*
X164414413Y-104710587D01*
X164387267Y-104677510D01*
X164367098Y-104639776D01*
X164354677Y-104598830D01*
X164350000Y-104551342D01*
X164350000Y-103848658D01*
X164354677Y-103801170D01*
X164367098Y-103760224D01*
X164387267Y-103722490D01*
X164414413Y-103689413D01*
X164447490Y-103662267D01*
X164485224Y-103642098D01*
X164526170Y-103629677D01*
X164573658Y-103625000D01*
X165201342Y-103625000D01*
X165248830Y-103629677D01*
X165248830Y-103629677D01*
G37*
G36*
X163673830Y-103629677D02*
X163714776Y-103642098D01*
X163752510Y-103662267D01*
X163785587Y-103689413D01*
X163812733Y-103722490D01*
X163832902Y-103760224D01*
X163845323Y-103801170D01*
X163850000Y-103848658D01*
X163850000Y-104551342D01*
X163845323Y-104598830D01*
X163832902Y-104639776D01*
X163812733Y-104677510D01*
X163785587Y-104710587D01*
X163752510Y-104737733D01*
X163714776Y-104757902D01*
X163673830Y-104770323D01*
X163626342Y-104775000D01*
X162998658Y-104775000D01*
X162951170Y-104770323D01*
X162910224Y-104757902D01*
X162872490Y-104737733D01*
X162839413Y-104710587D01*
X162812267Y-104677510D01*
X162792098Y-104639776D01*
X162779677Y-104598830D01*
X162775000Y-104551342D01*
X162775000Y-103848658D01*
X162779677Y-103801170D01*
X162792098Y-103760224D01*
X162812267Y-103722490D01*
X162839413Y-103689413D01*
X162872490Y-103662267D01*
X162910224Y-103642098D01*
X162951170Y-103629677D01*
X162998658Y-103625000D01*
X163626342Y-103625000D01*
X163673830Y-103629677D01*
X163673830Y-103629677D01*
G37*
G36*
X135010000Y-104575000D02*
X133710000Y-104575000D01*
X133710000Y-99775000D01*
X135010000Y-99775000D01*
X135010000Y-104575000D01*
X135010000Y-104575000D01*
G37*
G36*
X140090000Y-104575000D02*
X138790000Y-104575000D01*
X138790000Y-99775000D01*
X140090000Y-99775000D01*
X140090000Y-104575000D01*
X140090000Y-104575000D01*
G37*
G36*
X159498830Y-102954677D02*
X159539776Y-102967098D01*
X159577510Y-102987267D01*
X159610587Y-103014413D01*
X159637733Y-103047490D01*
X159657902Y-103085224D01*
X159670323Y-103126170D01*
X159675000Y-103173658D01*
X159675000Y-103801342D01*
X159670323Y-103848830D01*
X159657902Y-103889776D01*
X159637733Y-103927510D01*
X159610587Y-103960587D01*
X159577510Y-103987733D01*
X159539776Y-104007902D01*
X159498830Y-104020323D01*
X159451342Y-104025000D01*
X158748658Y-104025000D01*
X158701170Y-104020323D01*
X158660224Y-104007902D01*
X158622490Y-103987733D01*
X158589413Y-103960587D01*
X158562267Y-103927510D01*
X158542098Y-103889776D01*
X158529677Y-103848830D01*
X158525000Y-103801342D01*
X158525000Y-103173658D01*
X158529677Y-103126170D01*
X158542098Y-103085224D01*
X158562267Y-103047490D01*
X158589413Y-103014413D01*
X158622490Y-102987267D01*
X158660224Y-102967098D01*
X158701170Y-102954677D01*
X158748658Y-102950000D01*
X159451342Y-102950000D01*
X159498830Y-102954677D01*
X159498830Y-102954677D01*
G37*
G36*
X165248830Y-102129677D02*
X165289776Y-102142098D01*
X165327510Y-102162267D01*
X165360587Y-102189413D01*
X165387733Y-102222490D01*
X165407902Y-102260224D01*
X165420323Y-102301170D01*
X165425000Y-102348658D01*
X165425000Y-103051342D01*
X165420323Y-103098830D01*
X165407902Y-103139776D01*
X165387733Y-103177510D01*
X165360587Y-103210587D01*
X165327510Y-103237733D01*
X165289776Y-103257902D01*
X165248830Y-103270323D01*
X165201342Y-103275000D01*
X164573658Y-103275000D01*
X164526170Y-103270323D01*
X164485224Y-103257902D01*
X164447490Y-103237733D01*
X164414413Y-103210587D01*
X164387267Y-103177510D01*
X164367098Y-103139776D01*
X164354677Y-103098830D01*
X164350000Y-103051342D01*
X164350000Y-102348658D01*
X164354677Y-102301170D01*
X164367098Y-102260224D01*
X164387267Y-102222490D01*
X164414413Y-102189413D01*
X164447490Y-102162267D01*
X164485224Y-102142098D01*
X164526170Y-102129677D01*
X164573658Y-102125000D01*
X165201342Y-102125000D01*
X165248830Y-102129677D01*
X165248830Y-102129677D01*
G37*
G36*
X163673830Y-102129677D02*
X163714776Y-102142098D01*
X163752510Y-102162267D01*
X163785587Y-102189413D01*
X163812733Y-102222490D01*
X163832902Y-102260224D01*
X163845323Y-102301170D01*
X163850000Y-102348658D01*
X163850000Y-103051342D01*
X163845323Y-103098830D01*
X163832902Y-103139776D01*
X163812733Y-103177510D01*
X163785587Y-103210587D01*
X163752510Y-103237733D01*
X163714776Y-103257902D01*
X163673830Y-103270323D01*
X163626342Y-103275000D01*
X162998658Y-103275000D01*
X162951170Y-103270323D01*
X162910224Y-103257902D01*
X162872490Y-103237733D01*
X162839413Y-103210587D01*
X162812267Y-103177510D01*
X162792098Y-103139776D01*
X162779677Y-103098830D01*
X162775000Y-103051342D01*
X162775000Y-102348658D01*
X162779677Y-102301170D01*
X162792098Y-102260224D01*
X162812267Y-102222490D01*
X162839413Y-102189413D01*
X162872490Y-102162267D01*
X162910224Y-102142098D01*
X162951170Y-102129677D01*
X162998658Y-102125000D01*
X163626342Y-102125000D01*
X163673830Y-102129677D01*
X163673830Y-102129677D01*
G37*
G36*
X168628708Y-101505158D02*
X168674343Y-101519001D01*
X168716402Y-101541482D01*
X168753265Y-101571735D01*
X168783518Y-101608598D01*
X168805999Y-101650657D01*
X168819842Y-101696292D01*
X168825000Y-101748658D01*
X168825000Y-102851342D01*
X168819842Y-102903708D01*
X168805999Y-102949343D01*
X168783518Y-102991402D01*
X168753265Y-103028265D01*
X168716402Y-103058518D01*
X168674343Y-103080999D01*
X168628708Y-103094842D01*
X168576342Y-103100000D01*
X167898658Y-103100000D01*
X167846292Y-103094842D01*
X167800657Y-103080999D01*
X167758598Y-103058518D01*
X167721735Y-103028265D01*
X167691482Y-102991402D01*
X167669001Y-102949343D01*
X167655158Y-102903708D01*
X167650000Y-102851342D01*
X167650000Y-101748658D01*
X167655158Y-101696292D01*
X167669001Y-101650657D01*
X167691482Y-101608598D01*
X167721735Y-101571735D01*
X167758598Y-101541482D01*
X167800657Y-101519001D01*
X167846292Y-101505158D01*
X167898658Y-101500000D01*
X168576342Y-101500000D01*
X168628708Y-101505158D01*
X168628708Y-101505158D01*
G37*
G36*
X166753708Y-101505158D02*
X166799343Y-101519001D01*
X166841402Y-101541482D01*
X166878265Y-101571735D01*
X166908518Y-101608598D01*
X166930999Y-101650657D01*
X166944842Y-101696292D01*
X166950000Y-101748658D01*
X166950000Y-102851342D01*
X166944842Y-102903708D01*
X166930999Y-102949343D01*
X166908518Y-102991402D01*
X166878265Y-103028265D01*
X166841402Y-103058518D01*
X166799343Y-103080999D01*
X166753708Y-103094842D01*
X166701342Y-103100000D01*
X166023658Y-103100000D01*
X165971292Y-103094842D01*
X165925657Y-103080999D01*
X165883598Y-103058518D01*
X165846735Y-103028265D01*
X165816482Y-102991402D01*
X165794001Y-102949343D01*
X165780158Y-102903708D01*
X165775000Y-102851342D01*
X165775000Y-101748658D01*
X165780158Y-101696292D01*
X165794001Y-101650657D01*
X165816482Y-101608598D01*
X165846735Y-101571735D01*
X165883598Y-101541482D01*
X165925657Y-101519001D01*
X165971292Y-101505158D01*
X166023658Y-101500000D01*
X166701342Y-101500000D01*
X166753708Y-101505158D01*
X166753708Y-101505158D01*
G37*
G36*
X159498830Y-101379677D02*
X159539776Y-101392098D01*
X159577510Y-101412267D01*
X159610587Y-101439413D01*
X159637733Y-101472490D01*
X159657902Y-101510224D01*
X159670323Y-101551170D01*
X159675000Y-101598658D01*
X159675000Y-102226342D01*
X159670323Y-102273830D01*
X159657902Y-102314776D01*
X159637733Y-102352510D01*
X159610587Y-102385587D01*
X159577510Y-102412733D01*
X159539776Y-102432902D01*
X159498830Y-102445323D01*
X159451342Y-102450000D01*
X158748658Y-102450000D01*
X158701170Y-102445323D01*
X158660224Y-102432902D01*
X158622490Y-102412733D01*
X158589413Y-102385587D01*
X158562267Y-102352510D01*
X158542098Y-102314776D01*
X158529677Y-102273830D01*
X158525000Y-102226342D01*
X158525000Y-101598658D01*
X158529677Y-101551170D01*
X158542098Y-101510224D01*
X158562267Y-101472490D01*
X158589413Y-101439413D01*
X158622490Y-101412267D01*
X158660224Y-101392098D01*
X158701170Y-101379677D01*
X158748658Y-101375000D01*
X159451342Y-101375000D01*
X159498830Y-101379677D01*
X159498830Y-101379677D01*
G37*
G36*
X155975000Y-102000000D02*
X150025000Y-102000000D01*
X150025000Y-100500000D01*
X155975000Y-100500000D01*
X155975000Y-102000000D01*
X155975000Y-102000000D01*
G37*
G36*
X163673830Y-100629677D02*
X163714776Y-100642098D01*
X163752510Y-100662267D01*
X163785587Y-100689413D01*
X163812733Y-100722490D01*
X163832902Y-100760224D01*
X163845323Y-100801170D01*
X163850000Y-100848658D01*
X163850000Y-101551342D01*
X163845323Y-101598830D01*
X163832902Y-101639776D01*
X163812733Y-101677510D01*
X163785587Y-101710587D01*
X163752510Y-101737733D01*
X163714776Y-101757902D01*
X163673830Y-101770323D01*
X163626342Y-101775000D01*
X162998658Y-101775000D01*
X162951170Y-101770323D01*
X162910224Y-101757902D01*
X162872490Y-101737733D01*
X162839413Y-101710587D01*
X162812267Y-101677510D01*
X162792098Y-101639776D01*
X162779677Y-101598830D01*
X162775000Y-101551342D01*
X162775000Y-100848658D01*
X162779677Y-100801170D01*
X162792098Y-100760224D01*
X162812267Y-100722490D01*
X162839413Y-100689413D01*
X162872490Y-100662267D01*
X162910224Y-100642098D01*
X162951170Y-100629677D01*
X162998658Y-100625000D01*
X163626342Y-100625000D01*
X163673830Y-100629677D01*
X163673830Y-100629677D01*
G37*
G36*
X165248830Y-100629677D02*
X165289776Y-100642098D01*
X165327510Y-100662267D01*
X165360587Y-100689413D01*
X165387733Y-100722490D01*
X165407902Y-100760224D01*
X165420323Y-100801170D01*
X165425000Y-100848658D01*
X165425000Y-101551342D01*
X165420323Y-101598830D01*
X165407902Y-101639776D01*
X165387733Y-101677510D01*
X165360587Y-101710587D01*
X165327510Y-101737733D01*
X165289776Y-101757902D01*
X165248830Y-101770323D01*
X165201342Y-101775000D01*
X164573658Y-101775000D01*
X164526170Y-101770323D01*
X164485224Y-101757902D01*
X164447490Y-101737733D01*
X164414413Y-101710587D01*
X164387267Y-101677510D01*
X164367098Y-101639776D01*
X164354677Y-101598830D01*
X164350000Y-101551342D01*
X164350000Y-100848658D01*
X164354677Y-100801170D01*
X164367098Y-100760224D01*
X164387267Y-100722490D01*
X164414413Y-100689413D01*
X164447490Y-100662267D01*
X164485224Y-100642098D01*
X164526170Y-100629677D01*
X164573658Y-100625000D01*
X165201342Y-100625000D01*
X165248830Y-100629677D01*
X165248830Y-100629677D01*
G37*
G36*
X129162520Y-99434586D02*
X129162522Y-99434587D01*
X129162523Y-99434587D01*
X129209952Y-99454233D01*
X129326310Y-99502430D01*
X129473717Y-99600924D01*
X129599076Y-99726283D01*
X129635862Y-99781337D01*
X129697570Y-99873690D01*
X129732775Y-99958681D01*
X129765414Y-100037480D01*
X129800000Y-100211358D01*
X129800000Y-100388642D01*
X129777850Y-100500000D01*
X129765413Y-100562523D01*
X129720773Y-100670293D01*
X129697570Y-100726310D01*
X129599076Y-100873717D01*
X129473717Y-100999076D01*
X129444403Y-101018663D01*
X129326310Y-101097570D01*
X129162523Y-101165413D01*
X129162522Y-101165413D01*
X129162520Y-101165414D01*
X128988642Y-101200000D01*
X128811358Y-101200000D01*
X128637480Y-101165414D01*
X128637478Y-101165413D01*
X128637477Y-101165413D01*
X128473690Y-101097570D01*
X128355597Y-101018663D01*
X128326283Y-100999076D01*
X128200924Y-100873717D01*
X128102430Y-100726310D01*
X128079227Y-100670293D01*
X128034587Y-100562523D01*
X128022151Y-100500000D01*
X128000000Y-100388642D01*
X128000000Y-100211358D01*
X128034586Y-100037480D01*
X128067226Y-99958681D01*
X128102430Y-99873690D01*
X128164138Y-99781337D01*
X128200924Y-99726283D01*
X128326283Y-99600924D01*
X128473690Y-99502430D01*
X128590048Y-99454233D01*
X128637477Y-99434587D01*
X128637478Y-99434587D01*
X128637480Y-99434586D01*
X128811358Y-99400000D01*
X128988642Y-99400000D01*
X129162520Y-99434586D01*
X129162520Y-99434586D01*
G37*
G36*
X166753708Y-99605158D02*
X166799343Y-99619001D01*
X166841402Y-99641482D01*
X166878265Y-99671735D01*
X166908518Y-99708598D01*
X166930999Y-99750657D01*
X166944842Y-99796292D01*
X166950000Y-99848658D01*
X166950000Y-100951342D01*
X166944842Y-101003708D01*
X166930999Y-101049343D01*
X166908518Y-101091402D01*
X166878265Y-101128265D01*
X166841402Y-101158518D01*
X166799343Y-101180999D01*
X166753708Y-101194842D01*
X166701342Y-101200000D01*
X166023658Y-101200000D01*
X165971292Y-101194842D01*
X165925657Y-101180999D01*
X165883598Y-101158518D01*
X165846735Y-101128265D01*
X165816482Y-101091402D01*
X165794001Y-101049343D01*
X165780158Y-101003708D01*
X165775000Y-100951342D01*
X165775000Y-99848658D01*
X165780158Y-99796292D01*
X165794001Y-99750657D01*
X165816482Y-99708598D01*
X165846735Y-99671735D01*
X165883598Y-99641482D01*
X165925657Y-99619001D01*
X165971292Y-99605158D01*
X166023658Y-99600000D01*
X166701342Y-99600000D01*
X166753708Y-99605158D01*
X166753708Y-99605158D01*
G37*
G36*
X168628708Y-99605158D02*
X168674343Y-99619001D01*
X168716402Y-99641482D01*
X168753265Y-99671735D01*
X168783518Y-99708598D01*
X168805999Y-99750657D01*
X168819842Y-99796292D01*
X168825000Y-99848658D01*
X168825000Y-100951342D01*
X168819842Y-101003708D01*
X168805999Y-101049343D01*
X168783518Y-101091402D01*
X168753265Y-101128265D01*
X168716402Y-101158518D01*
X168674343Y-101180999D01*
X168628708Y-101194842D01*
X168576342Y-101200000D01*
X167898658Y-101200000D01*
X167846292Y-101194842D01*
X167800657Y-101180999D01*
X167758598Y-101158518D01*
X167721735Y-101128265D01*
X167691482Y-101091402D01*
X167669001Y-101049343D01*
X167655158Y-101003708D01*
X167650000Y-100951342D01*
X167650000Y-99848658D01*
X167655158Y-99796292D01*
X167669001Y-99750657D01*
X167691482Y-99708598D01*
X167721735Y-99671735D01*
X167758598Y-99641482D01*
X167800657Y-99619001D01*
X167846292Y-99605158D01*
X167898658Y-99600000D01*
X168576342Y-99600000D01*
X168628708Y-99605158D01*
X168628708Y-99605158D01*
G37*
G36*
X108764081Y-97675903D02*
X108769603Y-97676447D01*
X108788454Y-97682165D01*
X108802593Y-97689723D01*
X108805830Y-97691453D01*
X108821053Y-97703947D01*
X108833547Y-97719170D01*
X108833549Y-97719174D01*
X108842835Y-97736546D01*
X108842836Y-97736549D01*
X108848553Y-97755398D01*
X108850968Y-97779910D01*
X108850968Y-98770090D01*
X108850484Y-98775000D01*
X108848553Y-98794603D01*
X108842835Y-98813454D01*
X108842783Y-98813551D01*
X108833547Y-98830830D01*
X108821070Y-98846034D01*
X108821066Y-98846038D01*
X108821053Y-98846053D01*
X108819044Y-98847700D01*
X108805207Y-98861523D01*
X108794308Y-98877817D01*
X108786797Y-98895924D01*
X108782962Y-98915149D01*
X108782953Y-98934752D01*
X108786767Y-98953981D01*
X108794260Y-98972096D01*
X108805143Y-98988401D01*
X108818955Y-99002235D01*
X108821129Y-99004023D01*
X108833608Y-99019262D01*
X108842874Y-99036640D01*
X108842875Y-99036644D01*
X108848574Y-99055500D01*
X108848574Y-99055505D01*
X108848580Y-99055523D01*
X108850968Y-99079892D01*
X108850968Y-100220090D01*
X108850484Y-100225000D01*
X108848553Y-100244603D01*
X108842835Y-100263454D01*
X108835277Y-100277593D01*
X108833547Y-100280830D01*
X108821053Y-100296053D01*
X108805830Y-100308547D01*
X108805826Y-100308549D01*
X108788454Y-100317835D01*
X108769603Y-100323553D01*
X108764081Y-100324097D01*
X108745090Y-100325968D01*
X107254910Y-100325968D01*
X107235919Y-100324097D01*
X107230397Y-100323553D01*
X107211546Y-100317835D01*
X107194174Y-100308549D01*
X107194170Y-100308547D01*
X107178947Y-100296053D01*
X107166453Y-100280830D01*
X107164723Y-100277593D01*
X107157165Y-100263454D01*
X107151447Y-100244603D01*
X107149516Y-100225000D01*
X107149032Y-100220090D01*
X107149032Y-99079910D01*
X107151447Y-99055398D01*
X107157164Y-99036549D01*
X107157165Y-99036546D01*
X107166451Y-99019174D01*
X107166453Y-99019170D01*
X107178946Y-99003948D01*
X107180945Y-99002307D01*
X107194807Y-98988445D01*
X107205699Y-98972146D01*
X107213201Y-98954035D01*
X107217025Y-98934808D01*
X107217026Y-98915204D01*
X107213201Y-98895978D01*
X107205700Y-98877866D01*
X107194809Y-98861567D01*
X107180869Y-98847640D01*
X107179021Y-98846127D01*
X107166509Y-98830913D01*
X107157205Y-98813551D01*
X107151467Y-98794707D01*
X107149516Y-98775000D01*
X107149516Y-98774950D01*
X107149032Y-98770063D01*
X107149032Y-97779910D01*
X107151447Y-97755398D01*
X107157164Y-97736549D01*
X107157165Y-97736546D01*
X107166451Y-97719174D01*
X107166453Y-97719170D01*
X107178947Y-97703947D01*
X107194170Y-97691453D01*
X107197407Y-97689723D01*
X107211546Y-97682165D01*
X107230397Y-97676447D01*
X107235919Y-97675903D01*
X107254910Y-97674032D01*
X108745090Y-97674032D01*
X108764081Y-97675903D01*
X108764081Y-97675903D01*
G37*
G36*
X149173830Y-99029677D02*
X149214776Y-99042098D01*
X149252510Y-99062267D01*
X149285587Y-99089413D01*
X149312733Y-99122490D01*
X149332902Y-99160224D01*
X149345323Y-99201170D01*
X149350000Y-99248658D01*
X149350000Y-99951342D01*
X149345323Y-99998830D01*
X149332902Y-100039776D01*
X149312733Y-100077510D01*
X149285587Y-100110587D01*
X149252510Y-100137733D01*
X149214776Y-100157902D01*
X149173830Y-100170323D01*
X149126342Y-100175000D01*
X148498658Y-100175000D01*
X148451170Y-100170323D01*
X148410224Y-100157902D01*
X148372490Y-100137733D01*
X148339413Y-100110587D01*
X148312267Y-100077510D01*
X148292098Y-100039776D01*
X148279677Y-99998830D01*
X148275000Y-99951342D01*
X148275000Y-99248658D01*
X148279677Y-99201170D01*
X148292098Y-99160224D01*
X148312267Y-99122490D01*
X148339413Y-99089413D01*
X148372490Y-99062267D01*
X148410224Y-99042098D01*
X148451170Y-99029677D01*
X148498658Y-99025000D01*
X149126342Y-99025000D01*
X149173830Y-99029677D01*
X149173830Y-99029677D01*
G37*
G36*
X150748830Y-99029677D02*
X150789776Y-99042098D01*
X150827510Y-99062267D01*
X150860587Y-99089413D01*
X150887733Y-99122490D01*
X150907902Y-99160224D01*
X150920323Y-99201170D01*
X150925000Y-99248658D01*
X150925000Y-99951342D01*
X150920323Y-99998830D01*
X150907902Y-100039776D01*
X150887733Y-100077510D01*
X150860587Y-100110587D01*
X150827510Y-100137733D01*
X150789776Y-100157902D01*
X150748830Y-100170323D01*
X150701342Y-100175000D01*
X150073658Y-100175000D01*
X150026170Y-100170323D01*
X149985224Y-100157902D01*
X149947490Y-100137733D01*
X149914413Y-100110587D01*
X149887267Y-100077510D01*
X149867098Y-100039776D01*
X149854677Y-99998830D01*
X149850000Y-99951342D01*
X149850000Y-99248658D01*
X149854677Y-99201170D01*
X149867098Y-99160224D01*
X149887267Y-99122490D01*
X149914413Y-99089413D01*
X149947490Y-99062267D01*
X149985224Y-99042098D01*
X150026170Y-99029677D01*
X150073658Y-99025000D01*
X150701342Y-99025000D01*
X150748830Y-99029677D01*
X150748830Y-99029677D01*
G37*
G36*
X154703708Y-96992658D02*
X154749343Y-97006501D01*
X154791402Y-97028982D01*
X154828265Y-97059235D01*
X154858518Y-97096098D01*
X154880999Y-97138157D01*
X154894842Y-97183792D01*
X154900000Y-97236158D01*
X154900000Y-97913842D01*
X154894842Y-97966208D01*
X154880999Y-98011843D01*
X154858518Y-98053902D01*
X154828265Y-98090765D01*
X154791402Y-98121018D01*
X154749343Y-98143499D01*
X154703708Y-98157342D01*
X154651342Y-98162500D01*
X153548658Y-98162500D01*
X153496292Y-98157342D01*
X153450657Y-98143499D01*
X153408598Y-98121018D01*
X153371735Y-98090765D01*
X153341482Y-98053902D01*
X153319001Y-98011843D01*
X153305158Y-97966208D01*
X153300000Y-97913842D01*
X153300000Y-97236158D01*
X153305158Y-97183792D01*
X153319001Y-97138157D01*
X153341482Y-97096098D01*
X153371735Y-97059235D01*
X153408598Y-97028982D01*
X153450657Y-97006501D01*
X153496292Y-96992658D01*
X153548658Y-96987500D01*
X154651342Y-96987500D01*
X154703708Y-96992658D01*
X154703708Y-96992658D01*
G37*
G36*
X142400000Y-97825000D02*
X131400000Y-97825000D01*
X131400000Y-88225000D01*
X142400000Y-88225000D01*
X142400000Y-97825000D01*
X142400000Y-97825000D01*
G37*
G36*
X129145856Y-95317272D02*
X129346045Y-95400193D01*
X129526207Y-95520573D01*
X129679427Y-95673793D01*
X129799807Y-95853955D01*
X129882728Y-96054144D01*
X129925000Y-96266657D01*
X129925000Y-96483343D01*
X129882728Y-96695856D01*
X129799807Y-96896045D01*
X129679427Y-97076207D01*
X129526207Y-97229427D01*
X129346045Y-97349807D01*
X129145856Y-97432728D01*
X128933343Y-97475000D01*
X128716657Y-97475000D01*
X128504144Y-97432728D01*
X128303955Y-97349807D01*
X128123793Y-97229427D01*
X127970573Y-97076207D01*
X127850193Y-96896045D01*
X127767272Y-96695856D01*
X127725000Y-96483343D01*
X127725000Y-96266657D01*
X127767272Y-96054144D01*
X127850193Y-95853955D01*
X127970573Y-95673793D01*
X128123793Y-95520573D01*
X128303955Y-95400193D01*
X128504144Y-95317272D01*
X128716657Y-95275000D01*
X128933343Y-95275000D01*
X129145856Y-95317272D01*
X129145856Y-95317272D01*
G37*
G36*
X104014646Y-93669533D02*
X104269122Y-93746728D01*
X104503649Y-93872085D01*
X104709213Y-94040787D01*
X104877915Y-94246351D01*
X105003272Y-94480878D01*
X105080467Y-94735354D01*
X105106532Y-95000000D01*
X105080467Y-95264646D01*
X105003272Y-95519122D01*
X104877915Y-95753649D01*
X104709213Y-95959213D01*
X104503649Y-96127915D01*
X104269122Y-96253272D01*
X104014646Y-96330467D01*
X103816321Y-96350000D01*
X102183679Y-96350000D01*
X101985354Y-96330467D01*
X101730878Y-96253272D01*
X101496351Y-96127915D01*
X101290787Y-95959213D01*
X101122085Y-95753649D01*
X100996728Y-95519122D01*
X100919533Y-95264646D01*
X100893468Y-95000000D01*
X100919533Y-94735354D01*
X100996728Y-94480878D01*
X101122085Y-94246351D01*
X101290787Y-94040787D01*
X101496351Y-93872085D01*
X101730878Y-93746728D01*
X101985354Y-93669533D01*
X102183679Y-93650000D01*
X103816321Y-93650000D01*
X104014646Y-93669533D01*
X104014646Y-93669533D01*
G37*
G36*
X168014646Y-93669533D02*
X168269122Y-93746728D01*
X168503649Y-93872085D01*
X168709213Y-94040787D01*
X168877915Y-94246351D01*
X169003272Y-94480878D01*
X169080467Y-94735354D01*
X169106532Y-95000000D01*
X169080467Y-95264646D01*
X169003272Y-95519122D01*
X168877915Y-95753649D01*
X168709213Y-95959213D01*
X168503649Y-96127915D01*
X168269122Y-96253272D01*
X168014646Y-96330467D01*
X167816321Y-96350000D01*
X166183679Y-96350000D01*
X165985354Y-96330467D01*
X165730878Y-96253272D01*
X165496351Y-96127915D01*
X165290787Y-95959213D01*
X165122085Y-95753649D01*
X164996728Y-95519122D01*
X164919533Y-95264646D01*
X164893468Y-95000000D01*
X164919533Y-94735354D01*
X164996728Y-94480878D01*
X165122085Y-94246351D01*
X165290787Y-94040787D01*
X165496351Y-93872085D01*
X165730878Y-93746728D01*
X165985354Y-93669533D01*
X166183679Y-93650000D01*
X167816321Y-93650000D01*
X168014646Y-93669533D01*
X168014646Y-93669533D01*
G37*
G36*
X163000279Y-93713436D02*
X163054845Y-93718810D01*
X163299896Y-93793145D01*
X163382267Y-93837173D01*
X163525734Y-93913858D01*
X163525736Y-93913860D01*
X163723687Y-94076313D01*
X163859406Y-94241689D01*
X163886142Y-94274266D01*
X163962827Y-94417733D01*
X164006855Y-94500104D01*
X164081190Y-94745155D01*
X164081190Y-94745157D01*
X164106291Y-95000000D01*
X164086736Y-95198537D01*
X164081190Y-95254845D01*
X164006855Y-95499896D01*
X163962827Y-95582267D01*
X163886142Y-95725734D01*
X163886140Y-95725736D01*
X163723687Y-95923687D01*
X163559195Y-96058681D01*
X163525734Y-96086142D01*
X163393263Y-96156949D01*
X163299896Y-96206855D01*
X163054845Y-96281190D01*
X163000279Y-96286564D01*
X162863869Y-96300000D01*
X161136131Y-96300000D01*
X160999721Y-96286564D01*
X160945155Y-96281190D01*
X160700104Y-96206855D01*
X160606737Y-96156949D01*
X160474266Y-96086142D01*
X160440805Y-96058681D01*
X160276313Y-95923687D01*
X160113860Y-95725736D01*
X160113858Y-95725734D01*
X160037173Y-95582267D01*
X159993145Y-95499896D01*
X159918810Y-95254845D01*
X159913264Y-95198537D01*
X159893709Y-95000000D01*
X159918810Y-94745157D01*
X159918810Y-94745155D01*
X159993145Y-94500104D01*
X160037173Y-94417733D01*
X160113858Y-94274266D01*
X160140594Y-94241689D01*
X160276313Y-94076313D01*
X160474264Y-93913860D01*
X160474266Y-93913858D01*
X160617733Y-93837173D01*
X160700104Y-93793145D01*
X160945155Y-93718810D01*
X160999721Y-93713436D01*
X161136131Y-93700000D01*
X162863869Y-93700000D01*
X163000279Y-93713436D01*
X163000279Y-93713436D01*
G37*
G36*
X109000279Y-93713436D02*
X109054845Y-93718810D01*
X109299896Y-93793145D01*
X109382267Y-93837173D01*
X109525734Y-93913858D01*
X109525736Y-93913860D01*
X109723687Y-94076313D01*
X109859406Y-94241689D01*
X109886142Y-94274266D01*
X109962827Y-94417733D01*
X110006855Y-94500104D01*
X110081190Y-94745155D01*
X110081190Y-94745157D01*
X110106291Y-95000000D01*
X110086736Y-95198537D01*
X110081190Y-95254845D01*
X110006855Y-95499896D01*
X109962827Y-95582267D01*
X109886142Y-95725734D01*
X109886140Y-95725736D01*
X109723687Y-95923687D01*
X109559195Y-96058681D01*
X109525734Y-96086142D01*
X109393263Y-96156949D01*
X109299896Y-96206855D01*
X109054845Y-96281190D01*
X109000279Y-96286564D01*
X108863869Y-96300000D01*
X107136131Y-96300000D01*
X106999721Y-96286564D01*
X106945155Y-96281190D01*
X106700104Y-96206855D01*
X106606737Y-96156949D01*
X106474266Y-96086142D01*
X106440805Y-96058681D01*
X106276313Y-95923687D01*
X106113860Y-95725736D01*
X106113858Y-95725734D01*
X106037173Y-95582267D01*
X105993145Y-95499896D01*
X105918810Y-95254845D01*
X105913264Y-95198537D01*
X105893709Y-95000000D01*
X105918810Y-94745157D01*
X105918810Y-94745155D01*
X105993145Y-94500104D01*
X106037173Y-94417733D01*
X106113858Y-94274266D01*
X106140594Y-94241689D01*
X106276313Y-94076313D01*
X106474264Y-93913860D01*
X106474266Y-93913858D01*
X106617733Y-93837173D01*
X106700104Y-93793145D01*
X106945155Y-93718810D01*
X106999721Y-93713436D01*
X107136131Y-93700000D01*
X108863869Y-93700000D01*
X109000279Y-93713436D01*
X109000279Y-93713436D01*
G37*
G36*
X154703708Y-95117658D02*
X154749343Y-95131501D01*
X154791402Y-95153982D01*
X154828265Y-95184235D01*
X154858518Y-95221098D01*
X154880999Y-95263157D01*
X154894842Y-95308792D01*
X154900000Y-95361158D01*
X154900000Y-96038842D01*
X154894842Y-96091208D01*
X154880999Y-96136843D01*
X154858518Y-96178902D01*
X154828265Y-96215765D01*
X154791402Y-96246018D01*
X154749343Y-96268499D01*
X154703708Y-96282342D01*
X154651342Y-96287500D01*
X153548658Y-96287500D01*
X153496292Y-96282342D01*
X153450657Y-96268499D01*
X153408598Y-96246018D01*
X153371735Y-96215765D01*
X153341482Y-96178902D01*
X153319001Y-96136843D01*
X153305158Y-96091208D01*
X153300000Y-96038842D01*
X153300000Y-95361158D01*
X153305158Y-95308792D01*
X153319001Y-95263157D01*
X153341482Y-95221098D01*
X153371735Y-95184235D01*
X153408598Y-95153982D01*
X153450657Y-95131501D01*
X153496292Y-95117658D01*
X153548658Y-95112500D01*
X154651342Y-95112500D01*
X154703708Y-95117658D01*
X154703708Y-95117658D01*
G37*
G36*
X122748830Y-95129677D02*
X122789776Y-95142098D01*
X122827510Y-95162267D01*
X122860587Y-95189413D01*
X122887733Y-95222490D01*
X122907902Y-95260224D01*
X122920323Y-95301170D01*
X122925000Y-95348658D01*
X122925000Y-96051342D01*
X122920323Y-96098830D01*
X122907902Y-96139776D01*
X122887733Y-96177510D01*
X122860587Y-96210587D01*
X122827510Y-96237733D01*
X122789776Y-96257902D01*
X122748830Y-96270323D01*
X122701342Y-96275000D01*
X122073658Y-96275000D01*
X122026170Y-96270323D01*
X121985224Y-96257902D01*
X121947490Y-96237733D01*
X121914413Y-96210587D01*
X121887267Y-96177510D01*
X121867098Y-96139776D01*
X121854677Y-96098830D01*
X121850000Y-96051342D01*
X121850000Y-95348658D01*
X121854677Y-95301170D01*
X121867098Y-95260224D01*
X121887267Y-95222490D01*
X121914413Y-95189413D01*
X121947490Y-95162267D01*
X121985224Y-95142098D01*
X122026170Y-95129677D01*
X122073658Y-95125000D01*
X122701342Y-95125000D01*
X122748830Y-95129677D01*
X122748830Y-95129677D01*
G37*
G36*
X125748830Y-95129677D02*
X125789776Y-95142098D01*
X125827510Y-95162267D01*
X125860587Y-95189413D01*
X125887733Y-95222490D01*
X125907902Y-95260224D01*
X125920323Y-95301170D01*
X125925000Y-95348658D01*
X125925000Y-96051342D01*
X125920323Y-96098830D01*
X125907902Y-96139776D01*
X125887733Y-96177510D01*
X125860587Y-96210587D01*
X125827510Y-96237733D01*
X125789776Y-96257902D01*
X125748830Y-96270323D01*
X125701342Y-96275000D01*
X125073658Y-96275000D01*
X125026170Y-96270323D01*
X124985224Y-96257902D01*
X124947490Y-96237733D01*
X124914413Y-96210587D01*
X124887267Y-96177510D01*
X124867098Y-96139776D01*
X124854677Y-96098830D01*
X124850000Y-96051342D01*
X124850000Y-95348658D01*
X124854677Y-95301170D01*
X124867098Y-95260224D01*
X124887267Y-95222490D01*
X124914413Y-95189413D01*
X124947490Y-95162267D01*
X124985224Y-95142098D01*
X125026170Y-95129677D01*
X125073658Y-95125000D01*
X125701342Y-95125000D01*
X125748830Y-95129677D01*
X125748830Y-95129677D01*
G37*
G36*
X124173830Y-95129677D02*
X124214776Y-95142098D01*
X124252510Y-95162267D01*
X124285587Y-95189413D01*
X124312733Y-95222490D01*
X124332902Y-95260224D01*
X124345323Y-95301170D01*
X124350000Y-95348658D01*
X124350000Y-96051342D01*
X124345323Y-96098830D01*
X124332902Y-96139776D01*
X124312733Y-96177510D01*
X124285587Y-96210587D01*
X124252510Y-96237733D01*
X124214776Y-96257902D01*
X124173830Y-96270323D01*
X124126342Y-96275000D01*
X123498658Y-96275000D01*
X123451170Y-96270323D01*
X123410224Y-96257902D01*
X123372490Y-96237733D01*
X123339413Y-96210587D01*
X123312267Y-96177510D01*
X123292098Y-96139776D01*
X123279677Y-96098830D01*
X123275000Y-96051342D01*
X123275000Y-95348658D01*
X123279677Y-95301170D01*
X123292098Y-95260224D01*
X123312267Y-95222490D01*
X123339413Y-95189413D01*
X123372490Y-95162267D01*
X123410224Y-95142098D01*
X123451170Y-95129677D01*
X123498658Y-95125000D01*
X124126342Y-95125000D01*
X124173830Y-95129677D01*
X124173830Y-95129677D01*
G37*
G36*
X121173830Y-95129677D02*
X121214776Y-95142098D01*
X121252510Y-95162267D01*
X121285587Y-95189413D01*
X121312733Y-95222490D01*
X121332902Y-95260224D01*
X121345323Y-95301170D01*
X121350000Y-95348658D01*
X121350000Y-96051342D01*
X121345323Y-96098830D01*
X121332902Y-96139776D01*
X121312733Y-96177510D01*
X121285587Y-96210587D01*
X121252510Y-96237733D01*
X121214776Y-96257902D01*
X121173830Y-96270323D01*
X121126342Y-96275000D01*
X120498658Y-96275000D01*
X120451170Y-96270323D01*
X120410224Y-96257902D01*
X120372490Y-96237733D01*
X120339413Y-96210587D01*
X120312267Y-96177510D01*
X120292098Y-96139776D01*
X120279677Y-96098830D01*
X120275000Y-96051342D01*
X120275000Y-95348658D01*
X120279677Y-95301170D01*
X120292098Y-95260224D01*
X120312267Y-95222490D01*
X120339413Y-95189413D01*
X120372490Y-95162267D01*
X120410224Y-95142098D01*
X120451170Y-95129677D01*
X120498658Y-95125000D01*
X121126342Y-95125000D01*
X121173830Y-95129677D01*
X121173830Y-95129677D01*
G37*
G36*
X147403708Y-93655158D02*
X147449343Y-93669001D01*
X147491402Y-93691482D01*
X147528265Y-93721735D01*
X147558518Y-93758598D01*
X147580999Y-93800657D01*
X147594842Y-93846292D01*
X147600000Y-93898658D01*
X147600000Y-94576342D01*
X147594842Y-94628708D01*
X147580999Y-94674343D01*
X147558518Y-94716402D01*
X147528265Y-94753265D01*
X147491402Y-94783518D01*
X147449343Y-94805999D01*
X147403708Y-94819842D01*
X147351342Y-94825000D01*
X146248658Y-94825000D01*
X146196292Y-94819842D01*
X146150657Y-94805999D01*
X146108598Y-94783518D01*
X146071735Y-94753265D01*
X146041482Y-94716402D01*
X146019001Y-94674343D01*
X146005158Y-94628708D01*
X146000000Y-94576342D01*
X146000000Y-93898658D01*
X146005158Y-93846292D01*
X146019001Y-93800657D01*
X146041482Y-93758598D01*
X146071735Y-93721735D01*
X146108598Y-93691482D01*
X146150657Y-93669001D01*
X146196292Y-93655158D01*
X146248658Y-93650000D01*
X147351342Y-93650000D01*
X147403708Y-93655158D01*
X147403708Y-93655158D01*
G37*
G36*
X127153708Y-93205158D02*
X127199343Y-93219001D01*
X127241402Y-93241482D01*
X127278265Y-93271735D01*
X127308518Y-93308598D01*
X127330999Y-93350657D01*
X127344842Y-93396292D01*
X127350000Y-93448658D01*
X127350000Y-94551342D01*
X127344842Y-94603708D01*
X127330999Y-94649343D01*
X127308518Y-94691402D01*
X127278265Y-94728265D01*
X127241402Y-94758518D01*
X127199343Y-94780999D01*
X127153708Y-94794842D01*
X127101342Y-94800000D01*
X126423658Y-94800000D01*
X126371292Y-94794842D01*
X126325657Y-94780999D01*
X126283598Y-94758518D01*
X126246735Y-94728265D01*
X126216482Y-94691402D01*
X126194001Y-94649343D01*
X126180158Y-94603708D01*
X126175000Y-94551342D01*
X126175000Y-93448658D01*
X126180158Y-93396292D01*
X126194001Y-93350657D01*
X126216482Y-93308598D01*
X126246735Y-93271735D01*
X126283598Y-93241482D01*
X126325657Y-93219001D01*
X126371292Y-93205158D01*
X126423658Y-93200000D01*
X127101342Y-93200000D01*
X127153708Y-93205158D01*
X127153708Y-93205158D01*
G37*
G36*
X152453708Y-93205158D02*
X152499343Y-93219001D01*
X152541402Y-93241482D01*
X152578265Y-93271735D01*
X152608518Y-93308598D01*
X152630999Y-93350657D01*
X152644842Y-93396292D01*
X152650000Y-93448658D01*
X152650000Y-94551342D01*
X152644842Y-94603708D01*
X152630999Y-94649343D01*
X152608518Y-94691402D01*
X152578265Y-94728265D01*
X152541402Y-94758518D01*
X152499343Y-94780999D01*
X152453708Y-94794842D01*
X152401342Y-94800000D01*
X151723658Y-94800000D01*
X151671292Y-94794842D01*
X151625657Y-94780999D01*
X151583598Y-94758518D01*
X151546735Y-94728265D01*
X151516482Y-94691402D01*
X151494001Y-94649343D01*
X151480158Y-94603708D01*
X151475000Y-94551342D01*
X151475000Y-93448658D01*
X151480158Y-93396292D01*
X151494001Y-93350657D01*
X151516482Y-93308598D01*
X151546735Y-93271735D01*
X151583598Y-93241482D01*
X151625657Y-93219001D01*
X151671292Y-93205158D01*
X151723658Y-93200000D01*
X152401342Y-93200000D01*
X152453708Y-93205158D01*
X152453708Y-93205158D01*
G37*
G36*
X129028708Y-93205158D02*
X129074343Y-93219001D01*
X129116402Y-93241482D01*
X129153265Y-93271735D01*
X129183518Y-93308598D01*
X129205999Y-93350657D01*
X129219842Y-93396292D01*
X129225000Y-93448658D01*
X129225000Y-94551342D01*
X129219842Y-94603708D01*
X129205999Y-94649343D01*
X129183518Y-94691402D01*
X129153265Y-94728265D01*
X129116402Y-94758518D01*
X129074343Y-94780999D01*
X129028708Y-94794842D01*
X128976342Y-94800000D01*
X128298658Y-94800000D01*
X128246292Y-94794842D01*
X128200657Y-94780999D01*
X128158598Y-94758518D01*
X128121735Y-94728265D01*
X128091482Y-94691402D01*
X128069001Y-94649343D01*
X128055158Y-94603708D01*
X128050000Y-94551342D01*
X128050000Y-93448658D01*
X128055158Y-93396292D01*
X128069001Y-93350657D01*
X128091482Y-93308598D01*
X128121735Y-93271735D01*
X128158598Y-93241482D01*
X128200657Y-93219001D01*
X128246292Y-93205158D01*
X128298658Y-93200000D01*
X128976342Y-93200000D01*
X129028708Y-93205158D01*
X129028708Y-93205158D01*
G37*
G36*
X150828708Y-93205158D02*
X150874343Y-93219001D01*
X150916402Y-93241482D01*
X150953265Y-93271735D01*
X150983518Y-93308598D01*
X151005999Y-93350657D01*
X151019842Y-93396292D01*
X151025000Y-93448658D01*
X151025000Y-94551342D01*
X151019842Y-94603708D01*
X151005999Y-94649343D01*
X150983518Y-94691402D01*
X150953265Y-94728265D01*
X150916402Y-94758518D01*
X150874343Y-94780999D01*
X150828708Y-94794842D01*
X150776342Y-94800000D01*
X150098658Y-94800000D01*
X150046292Y-94794842D01*
X150000657Y-94780999D01*
X149958598Y-94758518D01*
X149921735Y-94728265D01*
X149891482Y-94691402D01*
X149869001Y-94649343D01*
X149855158Y-94603708D01*
X149850000Y-94551342D01*
X149850000Y-93448658D01*
X149855158Y-93396292D01*
X149869001Y-93350657D01*
X149891482Y-93308598D01*
X149921735Y-93271735D01*
X149958598Y-93241482D01*
X150000657Y-93219001D01*
X150046292Y-93205158D01*
X150098658Y-93200000D01*
X150776342Y-93200000D01*
X150828708Y-93205158D01*
X150828708Y-93205158D01*
G37*
G36*
X148953708Y-93205158D02*
X148999343Y-93219001D01*
X149041402Y-93241482D01*
X149078265Y-93271735D01*
X149108518Y-93308598D01*
X149130999Y-93350657D01*
X149144842Y-93396292D01*
X149150000Y-93448658D01*
X149150000Y-94551342D01*
X149144842Y-94603708D01*
X149130999Y-94649343D01*
X149108518Y-94691402D01*
X149078265Y-94728265D01*
X149041402Y-94758518D01*
X148999343Y-94780999D01*
X148953708Y-94794842D01*
X148901342Y-94800000D01*
X148223658Y-94800000D01*
X148171292Y-94794842D01*
X148125657Y-94780999D01*
X148083598Y-94758518D01*
X148046735Y-94728265D01*
X148016482Y-94691402D01*
X147994001Y-94649343D01*
X147980158Y-94603708D01*
X147975000Y-94551342D01*
X147975000Y-93448658D01*
X147980158Y-93396292D01*
X147994001Y-93350657D01*
X148016482Y-93308598D01*
X148046735Y-93271735D01*
X148083598Y-93241482D01*
X148125657Y-93219001D01*
X148171292Y-93205158D01*
X148223658Y-93200000D01*
X148901342Y-93200000D01*
X148953708Y-93205158D01*
X148953708Y-93205158D01*
G37*
G36*
X154328708Y-93205158D02*
X154374343Y-93219001D01*
X154416402Y-93241482D01*
X154453265Y-93271735D01*
X154483518Y-93308598D01*
X154505999Y-93350657D01*
X154519842Y-93396292D01*
X154525000Y-93448658D01*
X154525000Y-94551342D01*
X154519842Y-94603708D01*
X154505999Y-94649343D01*
X154483518Y-94691402D01*
X154453265Y-94728265D01*
X154416402Y-94758518D01*
X154374343Y-94780999D01*
X154328708Y-94794842D01*
X154276342Y-94800000D01*
X153598658Y-94800000D01*
X153546292Y-94794842D01*
X153500657Y-94780999D01*
X153458598Y-94758518D01*
X153421735Y-94728265D01*
X153391482Y-94691402D01*
X153369001Y-94649343D01*
X153355158Y-94603708D01*
X153350000Y-94551342D01*
X153350000Y-93448658D01*
X153355158Y-93396292D01*
X153369001Y-93350657D01*
X153391482Y-93308598D01*
X153421735Y-93271735D01*
X153458598Y-93241482D01*
X153500657Y-93219001D01*
X153546292Y-93205158D01*
X153598658Y-93200000D01*
X154276342Y-93200000D01*
X154328708Y-93205158D01*
X154328708Y-93205158D01*
G37*
G36*
X124335000Y-94775000D02*
X123535000Y-94775000D01*
X123535000Y-93025000D01*
X124335000Y-93025000D01*
X124335000Y-94775000D01*
X124335000Y-94775000D01*
G37*
G36*
X123065000Y-94775000D02*
X122265000Y-94775000D01*
X122265000Y-93025000D01*
X123065000Y-93025000D01*
X123065000Y-94775000D01*
X123065000Y-94775000D01*
G37*
G36*
X121795000Y-94775000D02*
X120995000Y-94775000D01*
X120995000Y-93025000D01*
X121795000Y-93025000D01*
X121795000Y-94775000D01*
X121795000Y-94775000D01*
G37*
G36*
X125605000Y-94775000D02*
X124805000Y-94775000D01*
X124805000Y-93025000D01*
X125605000Y-93025000D01*
X125605000Y-94775000D01*
X125605000Y-94775000D01*
G37*
G36*
X147403708Y-91780158D02*
X147449343Y-91794001D01*
X147491402Y-91816482D01*
X147528265Y-91846735D01*
X147558518Y-91883598D01*
X147580999Y-91925657D01*
X147594842Y-91971292D01*
X147600000Y-92023658D01*
X147600000Y-92701342D01*
X147594842Y-92753708D01*
X147580999Y-92799343D01*
X147558518Y-92841402D01*
X147528265Y-92878265D01*
X147491402Y-92908518D01*
X147449343Y-92930999D01*
X147403708Y-92944842D01*
X147351342Y-92950000D01*
X146248658Y-92950000D01*
X146196292Y-92944842D01*
X146150657Y-92930999D01*
X146108598Y-92908518D01*
X146071735Y-92878265D01*
X146041482Y-92841402D01*
X146019001Y-92799343D01*
X146005158Y-92753708D01*
X146000000Y-92701342D01*
X146000000Y-92023658D01*
X146005158Y-91971292D01*
X146019001Y-91925657D01*
X146041482Y-91883598D01*
X146071735Y-91846735D01*
X146108598Y-91816482D01*
X146150657Y-91794001D01*
X146196292Y-91780158D01*
X146248658Y-91775000D01*
X147351342Y-91775000D01*
X147403708Y-91780158D01*
X147403708Y-91780158D01*
G37*
G36*
X127153708Y-91305158D02*
X127199343Y-91319001D01*
X127241402Y-91341482D01*
X127278265Y-91371735D01*
X127308518Y-91408598D01*
X127330999Y-91450657D01*
X127344842Y-91496292D01*
X127350000Y-91548658D01*
X127350000Y-92651342D01*
X127344842Y-92703708D01*
X127330999Y-92749343D01*
X127308518Y-92791402D01*
X127278265Y-92828265D01*
X127241402Y-92858518D01*
X127199343Y-92880999D01*
X127153708Y-92894842D01*
X127101342Y-92900000D01*
X126423658Y-92900000D01*
X126371292Y-92894842D01*
X126325657Y-92880999D01*
X126283598Y-92858518D01*
X126246735Y-92828265D01*
X126216482Y-92791402D01*
X126194001Y-92749343D01*
X126180158Y-92703708D01*
X126175000Y-92651342D01*
X126175000Y-91548658D01*
X126180158Y-91496292D01*
X126194001Y-91450657D01*
X126216482Y-91408598D01*
X126246735Y-91371735D01*
X126283598Y-91341482D01*
X126325657Y-91319001D01*
X126371292Y-91305158D01*
X126423658Y-91300000D01*
X127101342Y-91300000D01*
X127153708Y-91305158D01*
X127153708Y-91305158D01*
G37*
G36*
X129028708Y-91305158D02*
X129074343Y-91319001D01*
X129116402Y-91341482D01*
X129153265Y-91371735D01*
X129183518Y-91408598D01*
X129205999Y-91450657D01*
X129219842Y-91496292D01*
X129225000Y-91548658D01*
X129225000Y-92651342D01*
X129219842Y-92703708D01*
X129205999Y-92749343D01*
X129183518Y-92791402D01*
X129153265Y-92828265D01*
X129116402Y-92858518D01*
X129074343Y-92880999D01*
X129028708Y-92894842D01*
X128976342Y-92900000D01*
X128298658Y-92900000D01*
X128246292Y-92894842D01*
X128200657Y-92880999D01*
X128158598Y-92858518D01*
X128121735Y-92828265D01*
X128091482Y-92791402D01*
X128069001Y-92749343D01*
X128055158Y-92703708D01*
X128050000Y-92651342D01*
X128050000Y-91548658D01*
X128055158Y-91496292D01*
X128069001Y-91450657D01*
X128091482Y-91408598D01*
X128121735Y-91371735D01*
X128158598Y-91341482D01*
X128200657Y-91319001D01*
X128246292Y-91305158D01*
X128298658Y-91300000D01*
X128976342Y-91300000D01*
X129028708Y-91305158D01*
X129028708Y-91305158D01*
G37*
G36*
X152348830Y-91729677D02*
X152389776Y-91742098D01*
X152427510Y-91762267D01*
X152460587Y-91789413D01*
X152487733Y-91822490D01*
X152507902Y-91860224D01*
X152520323Y-91901170D01*
X152525000Y-91948658D01*
X152525000Y-92651342D01*
X152520323Y-92698830D01*
X152507902Y-92739776D01*
X152487733Y-92777510D01*
X152460587Y-92810587D01*
X152427510Y-92837733D01*
X152389776Y-92857902D01*
X152348830Y-92870323D01*
X152301342Y-92875000D01*
X151673658Y-92875000D01*
X151626170Y-92870323D01*
X151585224Y-92857902D01*
X151547490Y-92837733D01*
X151514413Y-92810587D01*
X151487267Y-92777510D01*
X151467098Y-92739776D01*
X151454677Y-92698830D01*
X151450000Y-92651342D01*
X151450000Y-91948658D01*
X151454677Y-91901170D01*
X151467098Y-91860224D01*
X151487267Y-91822490D01*
X151514413Y-91789413D01*
X151547490Y-91762267D01*
X151585224Y-91742098D01*
X151626170Y-91729677D01*
X151673658Y-91725000D01*
X152301342Y-91725000D01*
X152348830Y-91729677D01*
X152348830Y-91729677D01*
G37*
G36*
X150773830Y-91729677D02*
X150814776Y-91742098D01*
X150852510Y-91762267D01*
X150885587Y-91789413D01*
X150912733Y-91822490D01*
X150932902Y-91860224D01*
X150945323Y-91901170D01*
X150950000Y-91948658D01*
X150950000Y-92651342D01*
X150945323Y-92698830D01*
X150932902Y-92739776D01*
X150912733Y-92777510D01*
X150885587Y-92810587D01*
X150852510Y-92837733D01*
X150814776Y-92857902D01*
X150773830Y-92870323D01*
X150726342Y-92875000D01*
X150098658Y-92875000D01*
X150051170Y-92870323D01*
X150010224Y-92857902D01*
X149972490Y-92837733D01*
X149939413Y-92810587D01*
X149912267Y-92777510D01*
X149892098Y-92739776D01*
X149879677Y-92698830D01*
X149875000Y-92651342D01*
X149875000Y-91948658D01*
X149879677Y-91901170D01*
X149892098Y-91860224D01*
X149912267Y-91822490D01*
X149939413Y-91789413D01*
X149972490Y-91762267D01*
X150010224Y-91742098D01*
X150051170Y-91729677D01*
X150098658Y-91725000D01*
X150726342Y-91725000D01*
X150773830Y-91729677D01*
X150773830Y-91729677D01*
G37*
G36*
X149303708Y-91655158D02*
X149349343Y-91669001D01*
X149391402Y-91691482D01*
X149428265Y-91721735D01*
X149458518Y-91758598D01*
X149480999Y-91800657D01*
X149494842Y-91846292D01*
X149500000Y-91898658D01*
X149500000Y-92576342D01*
X149494842Y-92628708D01*
X149480999Y-92674343D01*
X149458518Y-92716402D01*
X149428265Y-92753265D01*
X149391402Y-92783518D01*
X149349343Y-92805999D01*
X149303708Y-92819842D01*
X149251342Y-92825000D01*
X148148658Y-92825000D01*
X148096292Y-92819842D01*
X148050657Y-92805999D01*
X148008598Y-92783518D01*
X147971735Y-92753265D01*
X147941482Y-92716402D01*
X147919001Y-92674343D01*
X147905158Y-92628708D01*
X147900000Y-92576342D01*
X147900000Y-91898658D01*
X147905158Y-91846292D01*
X147919001Y-91800657D01*
X147941482Y-91758598D01*
X147971735Y-91721735D01*
X148008598Y-91691482D01*
X148050657Y-91669001D01*
X148096292Y-91655158D01*
X148148658Y-91650000D01*
X149251342Y-91650000D01*
X149303708Y-91655158D01*
X149303708Y-91655158D01*
G37*
G36*
X120450000Y-92600000D02*
X118550000Y-92600000D01*
X118550000Y-91100000D01*
X120450000Y-91100000D01*
X120450000Y-92600000D01*
X120450000Y-92600000D01*
G37*
G36*
X154705000Y-91375000D02*
X153905000Y-91375000D01*
X153905000Y-89625000D01*
X154705000Y-89625000D01*
X154705000Y-91375000D01*
X154705000Y-91375000D01*
G37*
G36*
X150895000Y-91375000D02*
X150095000Y-91375000D01*
X150095000Y-89625000D01*
X150895000Y-89625000D01*
X150895000Y-91375000D01*
X150895000Y-91375000D01*
G37*
G36*
X152165000Y-91375000D02*
X151365000Y-91375000D01*
X151365000Y-89625000D01*
X152165000Y-89625000D01*
X152165000Y-91375000D01*
X152165000Y-91375000D01*
G37*
G36*
X153435000Y-91375000D02*
X152635000Y-91375000D01*
X152635000Y-89625000D01*
X153435000Y-89625000D01*
X153435000Y-91375000D01*
X153435000Y-91375000D01*
G37*
G36*
X149303708Y-89780158D02*
X149349343Y-89794001D01*
X149391402Y-89816482D01*
X149428265Y-89846735D01*
X149458518Y-89883598D01*
X149480999Y-89925657D01*
X149494842Y-89971292D01*
X149500000Y-90023658D01*
X149500000Y-90701342D01*
X149494842Y-90753708D01*
X149480999Y-90799343D01*
X149458518Y-90841402D01*
X149428265Y-90878265D01*
X149391402Y-90908518D01*
X149349343Y-90930999D01*
X149303708Y-90944842D01*
X149251342Y-90950000D01*
X148148658Y-90950000D01*
X148096292Y-90944842D01*
X148050657Y-90930999D01*
X148008598Y-90908518D01*
X147971735Y-90878265D01*
X147941482Y-90841402D01*
X147919001Y-90799343D01*
X147905158Y-90753708D01*
X147900000Y-90701342D01*
X147900000Y-90023658D01*
X147905158Y-89971292D01*
X147919001Y-89925657D01*
X147941482Y-89883598D01*
X147971735Y-89846735D01*
X148008598Y-89816482D01*
X148050657Y-89794001D01*
X148096292Y-89780158D01*
X148148658Y-89775000D01*
X149251342Y-89775000D01*
X149303708Y-89780158D01*
X149303708Y-89780158D01*
G37*
G36*
X129103708Y-89755158D02*
X129149343Y-89769001D01*
X129191402Y-89791482D01*
X129228265Y-89821735D01*
X129258518Y-89858598D01*
X129280999Y-89900657D01*
X129294842Y-89946292D01*
X129300000Y-89998658D01*
X129300000Y-90676342D01*
X129294842Y-90728708D01*
X129280999Y-90774343D01*
X129258518Y-90816402D01*
X129228265Y-90853265D01*
X129191402Y-90883518D01*
X129149343Y-90905999D01*
X129103708Y-90919842D01*
X129051342Y-90925000D01*
X127948658Y-90925000D01*
X127896292Y-90919842D01*
X127850657Y-90905999D01*
X127808598Y-90883518D01*
X127771735Y-90853265D01*
X127741482Y-90816402D01*
X127719001Y-90774343D01*
X127705158Y-90728708D01*
X127700000Y-90676342D01*
X127700000Y-89998658D01*
X127705158Y-89946292D01*
X127719001Y-89900657D01*
X127741482Y-89858598D01*
X127771735Y-89821735D01*
X127808598Y-89791482D01*
X127850657Y-89769001D01*
X127896292Y-89755158D01*
X127948658Y-89750000D01*
X129051342Y-89750000D01*
X129103708Y-89755158D01*
X129103708Y-89755158D01*
G37*
G36*
X127198830Y-89854677D02*
X127239776Y-89867098D01*
X127277510Y-89887267D01*
X127310587Y-89914413D01*
X127337733Y-89947490D01*
X127357902Y-89985224D01*
X127370323Y-90026170D01*
X127375000Y-90073658D01*
X127375000Y-90701342D01*
X127370323Y-90748830D01*
X127357902Y-90789776D01*
X127337733Y-90827510D01*
X127310587Y-90860587D01*
X127277510Y-90887733D01*
X127239776Y-90907902D01*
X127198830Y-90920323D01*
X127151342Y-90925000D01*
X126448658Y-90925000D01*
X126401170Y-90920323D01*
X126360224Y-90907902D01*
X126322490Y-90887733D01*
X126289413Y-90860587D01*
X126262267Y-90827510D01*
X126242098Y-90789776D01*
X126229677Y-90748830D01*
X126225000Y-90701342D01*
X126225000Y-90073658D01*
X126229677Y-90026170D01*
X126242098Y-89985224D01*
X126262267Y-89947490D01*
X126289413Y-89914413D01*
X126322490Y-89887267D01*
X126360224Y-89867098D01*
X126401170Y-89854677D01*
X126448658Y-89850000D01*
X127151342Y-89850000D01*
X127198830Y-89854677D01*
X127198830Y-89854677D01*
G37*
G36*
X123065000Y-89375000D02*
X122265000Y-89375000D01*
X122265000Y-87625000D01*
X123065000Y-87625000D01*
X123065000Y-89375000D01*
X123065000Y-89375000D01*
G37*
G36*
X124335000Y-89375000D02*
X123535000Y-89375000D01*
X123535000Y-87625000D01*
X124335000Y-87625000D01*
X124335000Y-89375000D01*
X124335000Y-89375000D01*
G37*
G36*
X125605000Y-89375000D02*
X124805000Y-89375000D01*
X124805000Y-87625000D01*
X125605000Y-87625000D01*
X125605000Y-89375000D01*
X125605000Y-89375000D01*
G37*
G36*
X121795000Y-89375000D02*
X120995000Y-89375000D01*
X120995000Y-87625000D01*
X121795000Y-87625000D01*
X121795000Y-89375000D01*
X121795000Y-89375000D01*
G37*
G36*
X127198830Y-88279677D02*
X127239776Y-88292098D01*
X127277510Y-88312267D01*
X127310587Y-88339413D01*
X127337733Y-88372490D01*
X127357902Y-88410224D01*
X127370323Y-88451170D01*
X127375000Y-88498658D01*
X127375000Y-89126342D01*
X127370323Y-89173830D01*
X127357902Y-89214776D01*
X127337733Y-89252510D01*
X127310587Y-89285587D01*
X127277510Y-89312733D01*
X127239776Y-89332902D01*
X127198830Y-89345323D01*
X127151342Y-89350000D01*
X126448658Y-89350000D01*
X126401170Y-89345323D01*
X126360224Y-89332902D01*
X126322490Y-89312733D01*
X126289413Y-89285587D01*
X126262267Y-89252510D01*
X126242098Y-89214776D01*
X126229677Y-89173830D01*
X126225000Y-89126342D01*
X126225000Y-88498658D01*
X126229677Y-88451170D01*
X126242098Y-88410224D01*
X126262267Y-88372490D01*
X126289413Y-88339413D01*
X126322490Y-88312267D01*
X126360224Y-88292098D01*
X126401170Y-88279677D01*
X126448658Y-88275000D01*
X127151342Y-88275000D01*
X127198830Y-88279677D01*
X127198830Y-88279677D01*
G37*
G36*
X120450000Y-89100000D02*
X118550000Y-89100000D01*
X118550000Y-87600000D01*
X120450000Y-87600000D01*
X120450000Y-89100000D01*
X120450000Y-89100000D01*
G37*
G36*
X129103708Y-87880158D02*
X129149343Y-87894001D01*
X129191402Y-87916482D01*
X129228265Y-87946735D01*
X129258518Y-87983598D01*
X129280999Y-88025657D01*
X129294842Y-88071292D01*
X129300000Y-88123658D01*
X129300000Y-88801342D01*
X129294842Y-88853708D01*
X129280999Y-88899343D01*
X129258518Y-88941402D01*
X129228265Y-88978265D01*
X129191402Y-89008518D01*
X129149343Y-89030999D01*
X129103708Y-89044842D01*
X129051342Y-89050000D01*
X127948658Y-89050000D01*
X127896292Y-89044842D01*
X127850657Y-89030999D01*
X127808598Y-89008518D01*
X127771735Y-88978265D01*
X127741482Y-88941402D01*
X127719001Y-88899343D01*
X127705158Y-88853708D01*
X127700000Y-88801342D01*
X127700000Y-88123658D01*
X127705158Y-88071292D01*
X127719001Y-88025657D01*
X127741482Y-87983598D01*
X127771735Y-87946735D01*
X127808598Y-87916482D01*
X127850657Y-87894001D01*
X127896292Y-87880158D01*
X127948658Y-87875000D01*
X129051342Y-87875000D01*
X129103708Y-87880158D01*
X129103708Y-87880158D01*
G37*
G36*
X131620856Y-85442272D02*
X131821045Y-85525193D01*
X132001207Y-85645573D01*
X132154427Y-85798793D01*
X132274807Y-85978955D01*
X132357728Y-86179144D01*
X132400000Y-86391657D01*
X132400000Y-86608343D01*
X132357728Y-86820856D01*
X132274807Y-87021045D01*
X132154427Y-87201207D01*
X132001207Y-87354427D01*
X131821045Y-87474807D01*
X131620856Y-87557728D01*
X131408343Y-87600000D01*
X131191657Y-87600000D01*
X130979144Y-87557728D01*
X130778955Y-87474807D01*
X130598793Y-87354427D01*
X130445573Y-87201207D01*
X130325193Y-87021045D01*
X130242272Y-86820856D01*
X130200000Y-86608343D01*
X130200000Y-86391657D01*
X130242272Y-86179144D01*
X130325193Y-85978955D01*
X130445573Y-85798793D01*
X130598793Y-85645573D01*
X130778955Y-85525193D01*
X130979144Y-85442272D01*
X131191657Y-85400000D01*
X131408343Y-85400000D01*
X131620856Y-85442272D01*
X131620856Y-85442272D01*
G37*
G36*
X140090000Y-87375000D02*
X138790000Y-87375000D01*
X138790000Y-82575000D01*
X140090000Y-82575000D01*
X140090000Y-87375000D01*
X140090000Y-87375000D01*
G37*
G36*
X135010000Y-87375000D02*
X133710000Y-87375000D01*
X133710000Y-82575000D01*
X135010000Y-82575000D01*
X135010000Y-87375000D01*
X135010000Y-87375000D01*
G37*
G36*
X125228708Y-85705158D02*
X125274343Y-85719001D01*
X125316402Y-85741482D01*
X125353265Y-85771735D01*
X125383518Y-85808598D01*
X125405999Y-85850657D01*
X125419842Y-85896292D01*
X125425000Y-85948658D01*
X125425000Y-87051342D01*
X125419842Y-87103708D01*
X125405999Y-87149343D01*
X125383518Y-87191402D01*
X125353265Y-87228265D01*
X125316402Y-87258518D01*
X125274343Y-87280999D01*
X125228708Y-87294842D01*
X125176342Y-87300000D01*
X124498658Y-87300000D01*
X124446292Y-87294842D01*
X124400657Y-87280999D01*
X124358598Y-87258518D01*
X124321735Y-87228265D01*
X124291482Y-87191402D01*
X124269001Y-87149343D01*
X124255158Y-87103708D01*
X124250000Y-87051342D01*
X124250000Y-85948658D01*
X124255158Y-85896292D01*
X124269001Y-85850657D01*
X124291482Y-85808598D01*
X124321735Y-85771735D01*
X124358598Y-85741482D01*
X124400657Y-85719001D01*
X124446292Y-85705158D01*
X124498658Y-85700000D01*
X125176342Y-85700000D01*
X125228708Y-85705158D01*
X125228708Y-85705158D01*
G37*
G36*
X123353708Y-85705158D02*
X123399343Y-85719001D01*
X123441402Y-85741482D01*
X123478265Y-85771735D01*
X123508518Y-85808598D01*
X123530999Y-85850657D01*
X123544842Y-85896292D01*
X123550000Y-85948658D01*
X123550000Y-87051342D01*
X123544842Y-87103708D01*
X123530999Y-87149343D01*
X123508518Y-87191402D01*
X123478265Y-87228265D01*
X123441402Y-87258518D01*
X123399343Y-87280999D01*
X123353708Y-87294842D01*
X123301342Y-87300000D01*
X122623658Y-87300000D01*
X122571292Y-87294842D01*
X122525657Y-87280999D01*
X122483598Y-87258518D01*
X122446735Y-87228265D01*
X122416482Y-87191402D01*
X122394001Y-87149343D01*
X122380158Y-87103708D01*
X122375000Y-87051342D01*
X122375000Y-85948658D01*
X122380158Y-85896292D01*
X122394001Y-85850657D01*
X122416482Y-85808598D01*
X122446735Y-85771735D01*
X122483598Y-85741482D01*
X122525657Y-85719001D01*
X122571292Y-85705158D01*
X122623658Y-85700000D01*
X123301342Y-85700000D01*
X123353708Y-85705158D01*
X123353708Y-85705158D01*
G37*
G36*
X120073830Y-85929677D02*
X120114776Y-85942098D01*
X120152510Y-85962267D01*
X120185587Y-85989413D01*
X120212733Y-86022490D01*
X120232902Y-86060224D01*
X120245323Y-86101170D01*
X120250000Y-86148658D01*
X120250000Y-86851342D01*
X120245323Y-86898830D01*
X120232902Y-86939776D01*
X120212733Y-86977510D01*
X120185587Y-87010587D01*
X120152510Y-87037733D01*
X120114776Y-87057902D01*
X120073830Y-87070323D01*
X120026342Y-87075000D01*
X119398658Y-87075000D01*
X119351170Y-87070323D01*
X119310224Y-87057902D01*
X119272490Y-87037733D01*
X119239413Y-87010587D01*
X119212267Y-86977510D01*
X119192098Y-86939776D01*
X119179677Y-86898830D01*
X119175000Y-86851342D01*
X119175000Y-86148658D01*
X119179677Y-86101170D01*
X119192098Y-86060224D01*
X119212267Y-86022490D01*
X119239413Y-85989413D01*
X119272490Y-85962267D01*
X119310224Y-85942098D01*
X119351170Y-85929677D01*
X119398658Y-85925000D01*
X120026342Y-85925000D01*
X120073830Y-85929677D01*
X120073830Y-85929677D01*
G37*
G36*
X121648830Y-85929677D02*
X121689776Y-85942098D01*
X121727510Y-85962267D01*
X121760587Y-85989413D01*
X121787733Y-86022490D01*
X121807902Y-86060224D01*
X121820323Y-86101170D01*
X121825000Y-86148658D01*
X121825000Y-86851342D01*
X121820323Y-86898830D01*
X121807902Y-86939776D01*
X121787733Y-86977510D01*
X121760587Y-87010587D01*
X121727510Y-87037733D01*
X121689776Y-87057902D01*
X121648830Y-87070323D01*
X121601342Y-87075000D01*
X120973658Y-87075000D01*
X120926170Y-87070323D01*
X120885224Y-87057902D01*
X120847490Y-87037733D01*
X120814413Y-87010587D01*
X120787267Y-86977510D01*
X120767098Y-86939776D01*
X120754677Y-86898830D01*
X120750000Y-86851342D01*
X120750000Y-86148658D01*
X120754677Y-86101170D01*
X120767098Y-86060224D01*
X120787267Y-86022490D01*
X120814413Y-85989413D01*
X120847490Y-85962267D01*
X120885224Y-85942098D01*
X120926170Y-85929677D01*
X120973658Y-85925000D01*
X121601342Y-85925000D01*
X121648830Y-85929677D01*
X121648830Y-85929677D01*
G37*
G36*
X104014646Y-83669533D02*
X104269122Y-83746728D01*
X104503649Y-83872085D01*
X104709213Y-84040787D01*
X104877915Y-84246351D01*
X105003272Y-84480878D01*
X105080467Y-84735354D01*
X105106532Y-85000000D01*
X105080467Y-85264646D01*
X105003272Y-85519122D01*
X104877915Y-85753649D01*
X104709213Y-85959213D01*
X104503649Y-86127915D01*
X104269122Y-86253272D01*
X104014646Y-86330467D01*
X103816321Y-86350000D01*
X102183679Y-86350000D01*
X101985354Y-86330467D01*
X101730878Y-86253272D01*
X101496351Y-86127915D01*
X101290787Y-85959213D01*
X101122085Y-85753649D01*
X100996728Y-85519122D01*
X100919533Y-85264646D01*
X100893468Y-85000000D01*
X100919533Y-84735354D01*
X100996728Y-84480878D01*
X101122085Y-84246351D01*
X101290787Y-84040787D01*
X101496351Y-83872085D01*
X101730878Y-83746728D01*
X101985354Y-83669533D01*
X102183679Y-83650000D01*
X103816321Y-83650000D01*
X104014646Y-83669533D01*
X104014646Y-83669533D01*
G37*
G36*
X168014646Y-83669533D02*
X168269122Y-83746728D01*
X168503649Y-83872085D01*
X168709213Y-84040787D01*
X168877915Y-84246351D01*
X169003272Y-84480878D01*
X169080467Y-84735354D01*
X169106532Y-85000000D01*
X169080467Y-85264646D01*
X169003272Y-85519122D01*
X168877915Y-85753649D01*
X168709213Y-85959213D01*
X168503649Y-86127915D01*
X168269122Y-86253272D01*
X168014646Y-86330467D01*
X167816321Y-86350000D01*
X166183679Y-86350000D01*
X165985354Y-86330467D01*
X165730878Y-86253272D01*
X165496351Y-86127915D01*
X165290787Y-85959213D01*
X165122085Y-85753649D01*
X164996728Y-85519122D01*
X164919533Y-85264646D01*
X164893468Y-85000000D01*
X164919533Y-84735354D01*
X164996728Y-84480878D01*
X165122085Y-84246351D01*
X165290787Y-84040787D01*
X165496351Y-83872085D01*
X165730878Y-83746728D01*
X165985354Y-83669533D01*
X166183679Y-83650000D01*
X167816321Y-83650000D01*
X168014646Y-83669533D01*
X168014646Y-83669533D01*
G37*
G36*
X109000279Y-83713436D02*
X109054845Y-83718810D01*
X109299896Y-83793145D01*
X109354553Y-83822360D01*
X109525734Y-83913858D01*
X109525736Y-83913860D01*
X109723687Y-84076313D01*
X109845710Y-84225000D01*
X109886142Y-84274266D01*
X109962827Y-84417733D01*
X110006855Y-84500104D01*
X110081190Y-84745155D01*
X110081190Y-84745157D01*
X110106291Y-85000000D01*
X110091384Y-85151342D01*
X110081190Y-85254845D01*
X110006855Y-85499896D01*
X109993333Y-85525193D01*
X109886142Y-85725734D01*
X109886140Y-85725736D01*
X109723687Y-85923687D01*
X109603294Y-86022490D01*
X109525734Y-86086142D01*
X109408774Y-86148658D01*
X109299896Y-86206855D01*
X109054845Y-86281190D01*
X109000279Y-86286564D01*
X108863869Y-86300000D01*
X107136131Y-86300000D01*
X106999721Y-86286564D01*
X106945155Y-86281190D01*
X106700104Y-86206855D01*
X106591226Y-86148658D01*
X106474266Y-86086142D01*
X106396706Y-86022490D01*
X106276313Y-85923687D01*
X106113860Y-85725736D01*
X106113858Y-85725734D01*
X106006667Y-85525193D01*
X105993145Y-85499896D01*
X105918810Y-85254845D01*
X105908616Y-85151342D01*
X105893709Y-85000000D01*
X105918810Y-84745157D01*
X105918810Y-84745155D01*
X105993145Y-84500104D01*
X106037173Y-84417733D01*
X106113858Y-84274266D01*
X106154290Y-84225000D01*
X106276313Y-84076313D01*
X106474264Y-83913860D01*
X106474266Y-83913858D01*
X106645447Y-83822360D01*
X106700104Y-83793145D01*
X106945155Y-83718810D01*
X106999721Y-83713436D01*
X107136131Y-83700000D01*
X108863869Y-83700000D01*
X109000279Y-83713436D01*
X109000279Y-83713436D01*
G37*
G36*
X163000279Y-83713436D02*
X163054845Y-83718810D01*
X163299896Y-83793145D01*
X163354553Y-83822360D01*
X163525734Y-83913858D01*
X163525736Y-83913860D01*
X163723687Y-84076313D01*
X163845710Y-84225000D01*
X163886142Y-84274266D01*
X163962827Y-84417733D01*
X164006855Y-84500104D01*
X164081190Y-84745155D01*
X164081190Y-84745157D01*
X164106291Y-85000000D01*
X164091384Y-85151342D01*
X164081190Y-85254845D01*
X164006855Y-85499896D01*
X163993333Y-85525193D01*
X163886142Y-85725734D01*
X163886140Y-85725736D01*
X163723687Y-85923687D01*
X163603294Y-86022490D01*
X163525734Y-86086142D01*
X163408774Y-86148658D01*
X163299896Y-86206855D01*
X163054845Y-86281190D01*
X163000279Y-86286564D01*
X162863869Y-86300000D01*
X161136131Y-86300000D01*
X160999721Y-86286564D01*
X160945155Y-86281190D01*
X160700104Y-86206855D01*
X160591226Y-86148658D01*
X160474266Y-86086142D01*
X160396706Y-86022490D01*
X160276313Y-85923687D01*
X160113860Y-85725736D01*
X160113858Y-85725734D01*
X160006667Y-85525193D01*
X159993145Y-85499896D01*
X159918810Y-85254845D01*
X159908616Y-85151342D01*
X159893709Y-85000000D01*
X159918810Y-84745157D01*
X159918810Y-84745155D01*
X159993145Y-84500104D01*
X160037173Y-84417733D01*
X160113858Y-84274266D01*
X160154290Y-84225000D01*
X160276313Y-84076313D01*
X160474264Y-83913860D01*
X160474266Y-83913858D01*
X160645447Y-83822360D01*
X160700104Y-83793145D01*
X160945155Y-83718810D01*
X160999721Y-83713436D01*
X161136131Y-83700000D01*
X162863869Y-83700000D01*
X163000279Y-83713436D01*
X163000279Y-83713436D01*
G37*
G36*
X152165000Y-85975000D02*
X151365000Y-85975000D01*
X151365000Y-84225000D01*
X152165000Y-84225000D01*
X152165000Y-85975000D01*
X152165000Y-85975000D01*
G37*
G36*
X154705000Y-85975000D02*
X153905000Y-85975000D01*
X153905000Y-84225000D01*
X154705000Y-84225000D01*
X154705000Y-85975000D01*
X154705000Y-85975000D01*
G37*
G36*
X153435000Y-85975000D02*
X152635000Y-85975000D01*
X152635000Y-84225000D01*
X153435000Y-84225000D01*
X153435000Y-85975000D01*
X153435000Y-85975000D01*
G37*
G36*
X150895000Y-85975000D02*
X150095000Y-85975000D01*
X150095000Y-84225000D01*
X150895000Y-84225000D01*
X150895000Y-85975000D01*
X150895000Y-85975000D01*
G37*
G36*
X123353708Y-83805158D02*
X123399343Y-83819001D01*
X123441402Y-83841482D01*
X123478265Y-83871735D01*
X123508518Y-83908598D01*
X123530999Y-83950657D01*
X123544842Y-83996292D01*
X123550000Y-84048658D01*
X123550000Y-85151342D01*
X123544842Y-85203708D01*
X123530999Y-85249343D01*
X123508518Y-85291402D01*
X123478265Y-85328265D01*
X123441402Y-85358518D01*
X123399343Y-85380999D01*
X123353708Y-85394842D01*
X123301342Y-85400000D01*
X122623658Y-85400000D01*
X122571292Y-85394842D01*
X122525657Y-85380999D01*
X122483598Y-85358518D01*
X122446735Y-85328265D01*
X122416482Y-85291402D01*
X122394001Y-85249343D01*
X122380158Y-85203708D01*
X122375000Y-85151342D01*
X122375000Y-84048658D01*
X122380158Y-83996292D01*
X122394001Y-83950657D01*
X122416482Y-83908598D01*
X122446735Y-83871735D01*
X122483598Y-83841482D01*
X122525657Y-83819001D01*
X122571292Y-83805158D01*
X122623658Y-83800000D01*
X123301342Y-83800000D01*
X123353708Y-83805158D01*
X123353708Y-83805158D01*
G37*
G36*
X125228708Y-83805158D02*
X125274343Y-83819001D01*
X125316402Y-83841482D01*
X125353265Y-83871735D01*
X125383518Y-83908598D01*
X125405999Y-83950657D01*
X125419842Y-83996292D01*
X125425000Y-84048658D01*
X125425000Y-85151342D01*
X125419842Y-85203708D01*
X125405999Y-85249343D01*
X125383518Y-85291402D01*
X125353265Y-85328265D01*
X125316402Y-85358518D01*
X125274343Y-85380999D01*
X125228708Y-85394842D01*
X125176342Y-85400000D01*
X124498658Y-85400000D01*
X124446292Y-85394842D01*
X124400657Y-85380999D01*
X124358598Y-85358518D01*
X124321735Y-85328265D01*
X124291482Y-85291402D01*
X124269001Y-85249343D01*
X124255158Y-85203708D01*
X124250000Y-85151342D01*
X124250000Y-84048658D01*
X124255158Y-83996292D01*
X124269001Y-83950657D01*
X124291482Y-83908598D01*
X124321735Y-83871735D01*
X124358598Y-83841482D01*
X124400657Y-83819001D01*
X124446292Y-83805158D01*
X124498658Y-83800000D01*
X125176342Y-83800000D01*
X125228708Y-83805158D01*
X125228708Y-83805158D01*
G37*
G36*
X121828708Y-83805158D02*
X121874343Y-83819001D01*
X121916402Y-83841482D01*
X121953265Y-83871735D01*
X121983518Y-83908598D01*
X122005999Y-83950657D01*
X122019842Y-83996292D01*
X122025000Y-84048658D01*
X122025000Y-85151342D01*
X122019842Y-85203708D01*
X122005999Y-85249343D01*
X121983518Y-85291402D01*
X121953265Y-85328265D01*
X121916402Y-85358518D01*
X121874343Y-85380999D01*
X121828708Y-85394842D01*
X121776342Y-85400000D01*
X121098658Y-85400000D01*
X121046292Y-85394842D01*
X121000657Y-85380999D01*
X120958598Y-85358518D01*
X120921735Y-85328265D01*
X120891482Y-85291402D01*
X120869001Y-85249343D01*
X120855158Y-85203708D01*
X120850000Y-85151342D01*
X120850000Y-84048658D01*
X120855158Y-83996292D01*
X120869001Y-83950657D01*
X120891482Y-83908598D01*
X120921735Y-83871735D01*
X120958598Y-83841482D01*
X121000657Y-83819001D01*
X121046292Y-83805158D01*
X121098658Y-83800000D01*
X121776342Y-83800000D01*
X121828708Y-83805158D01*
X121828708Y-83805158D01*
G37*
G36*
X119953708Y-83805158D02*
X119999343Y-83819001D01*
X120041402Y-83841482D01*
X120078265Y-83871735D01*
X120108518Y-83908598D01*
X120130999Y-83950657D01*
X120144842Y-83996292D01*
X120150000Y-84048658D01*
X120150000Y-85151342D01*
X120144842Y-85203708D01*
X120130999Y-85249343D01*
X120108518Y-85291402D01*
X120078265Y-85328265D01*
X120041402Y-85358518D01*
X119999343Y-85380999D01*
X119953708Y-85394842D01*
X119901342Y-85400000D01*
X119223658Y-85400000D01*
X119171292Y-85394842D01*
X119125657Y-85380999D01*
X119083598Y-85358518D01*
X119046735Y-85328265D01*
X119016482Y-85291402D01*
X118994001Y-85249343D01*
X118980158Y-85203708D01*
X118975000Y-85151342D01*
X118975000Y-84048658D01*
X118980158Y-83996292D01*
X118994001Y-83950657D01*
X119016482Y-83908598D01*
X119046735Y-83871735D01*
X119083598Y-83841482D01*
X119125657Y-83819001D01*
X119171292Y-83805158D01*
X119223658Y-83800000D01*
X119901342Y-83800000D01*
X119953708Y-83805158D01*
X119953708Y-83805158D01*
G37*
G36*
X142400000Y-80625000D02*
X131400000Y-80625000D01*
X131400000Y-71025000D01*
X142400000Y-71025000D01*
X142400000Y-80625000D01*
X142400000Y-80625000D01*
G37*
G36*
X129162520Y-78734586D02*
X129162522Y-78734587D01*
X129162523Y-78734587D01*
X129326310Y-78802430D01*
X129473717Y-78900924D01*
X129599076Y-79026283D01*
X129697570Y-79173690D01*
X129765414Y-79337480D01*
X129800000Y-79511358D01*
X129800000Y-79688642D01*
X129765414Y-79862520D01*
X129697570Y-80026310D01*
X129599076Y-80173717D01*
X129473717Y-80299076D01*
X129326310Y-80397570D01*
X129162523Y-80465413D01*
X129162522Y-80465413D01*
X129162520Y-80465414D01*
X128988642Y-80500000D01*
X128811358Y-80500000D01*
X128637480Y-80465414D01*
X128637478Y-80465413D01*
X128637477Y-80465413D01*
X128473690Y-80397570D01*
X128326283Y-80299076D01*
X128200924Y-80173717D01*
X128102430Y-80026310D01*
X128034586Y-79862520D01*
X128000000Y-79688642D01*
X128000000Y-79511358D01*
X128034586Y-79337480D01*
X128102430Y-79173690D01*
X128200924Y-79026283D01*
X128326283Y-78900924D01*
X128473690Y-78802430D01*
X128637477Y-78734587D01*
X128637478Y-78734587D01*
X128637480Y-78734586D01*
X128811358Y-78700000D01*
X128988642Y-78700000D01*
X129162520Y-78734586D01*
X129162520Y-78734586D01*
G37*
G36*
X105495872Y-73365330D02*
X105495874Y-73365331D01*
X105495875Y-73365331D01*
X105556284Y-73390353D01*
X105805252Y-73493479D01*
X106083687Y-73679523D01*
X106320477Y-73916313D01*
X106506521Y-74194748D01*
X106634670Y-74504128D01*
X106700000Y-74832565D01*
X106700000Y-75167435D01*
X106634670Y-75495872D01*
X106506521Y-75805252D01*
X106320477Y-76083687D01*
X106083687Y-76320477D01*
X105805252Y-76506521D01*
X105556284Y-76609647D01*
X105495875Y-76634669D01*
X105495874Y-76634669D01*
X105495872Y-76634670D01*
X105167435Y-76700000D01*
X104832565Y-76700000D01*
X104504128Y-76634670D01*
X104504126Y-76634669D01*
X104504125Y-76634669D01*
X104443716Y-76609647D01*
X104194748Y-76506521D01*
X103916313Y-76320477D01*
X103679523Y-76083687D01*
X103493479Y-75805252D01*
X103365330Y-75495872D01*
X103300000Y-75167435D01*
X103300000Y-74832565D01*
X103365330Y-74504128D01*
X103493479Y-74194748D01*
X103679523Y-73916313D01*
X103916313Y-73679523D01*
X104194748Y-73493479D01*
X104443716Y-73390353D01*
X104504125Y-73365331D01*
X104504126Y-73365331D01*
X104504128Y-73365330D01*
X104832565Y-73300000D01*
X105167435Y-73300000D01*
X105495872Y-73365330D01*
X105495872Y-73365330D01*
G37*
G36*
X165495872Y-73365330D02*
X165495874Y-73365331D01*
X165495875Y-73365331D01*
X165556284Y-73390353D01*
X165805252Y-73493479D01*
X166083687Y-73679523D01*
X166320477Y-73916313D01*
X166506521Y-74194748D01*
X166634670Y-74504128D01*
X166700000Y-74832565D01*
X166700000Y-75167435D01*
X166634670Y-75495872D01*
X166506521Y-75805252D01*
X166320477Y-76083687D01*
X166083687Y-76320477D01*
X165805252Y-76506521D01*
X165556284Y-76609647D01*
X165495875Y-76634669D01*
X165495874Y-76634669D01*
X165495872Y-76634670D01*
X165167435Y-76700000D01*
X164832565Y-76700000D01*
X164504128Y-76634670D01*
X164504126Y-76634669D01*
X164504125Y-76634669D01*
X164443716Y-76609647D01*
X164194748Y-76506521D01*
X163916313Y-76320477D01*
X163679523Y-76083687D01*
X163493479Y-75805252D01*
X163365330Y-75495872D01*
X163300000Y-75167435D01*
X163300000Y-74832565D01*
X163365330Y-74504128D01*
X163493479Y-74194748D01*
X163679523Y-73916313D01*
X163916313Y-73679523D01*
X164194748Y-73493479D01*
X164443716Y-73390353D01*
X164504125Y-73365331D01*
X164504126Y-73365331D01*
X164504128Y-73365330D01*
X164832565Y-73300000D01*
X165167435Y-73300000D01*
X165495872Y-73365330D01*
X165495872Y-73365330D01*
G37*
G36*
X129162520Y-73734586D02*
X129162522Y-73734587D01*
X129162523Y-73734587D01*
X129326310Y-73802430D01*
X129473717Y-73900924D01*
X129599076Y-74026283D01*
X129697570Y-74173690D01*
X129765414Y-74337480D01*
X129800000Y-74511358D01*
X129800000Y-74688642D01*
X129765414Y-74862520D01*
X129697570Y-75026310D01*
X129599076Y-75173717D01*
X129473717Y-75299076D01*
X129326310Y-75397570D01*
X129162523Y-75465413D01*
X129162522Y-75465413D01*
X129162520Y-75465414D01*
X128988642Y-75500000D01*
X128811358Y-75500000D01*
X128637480Y-75465414D01*
X128637478Y-75465413D01*
X128637477Y-75465413D01*
X128473690Y-75397570D01*
X128326283Y-75299076D01*
X128200924Y-75173717D01*
X128102430Y-75026310D01*
X128034586Y-74862520D01*
X128000000Y-74688642D01*
X128000000Y-74511358D01*
X128034586Y-74337480D01*
X128102430Y-74173690D01*
X128200924Y-74026283D01*
X128326283Y-73900924D01*
X128473690Y-73802430D01*
X128637477Y-73734587D01*
X128637478Y-73734587D01*
X128637480Y-73734586D01*
X128811358Y-73700000D01*
X128988642Y-73700000D01*
X129162520Y-73734586D01*
X129162520Y-73734586D01*
G37*
M02*
