M48
INCH,TZ
T1C0.0118
T2C0.0315
T3C0.0354
T4C0.0394
T5C0.0400
T6C0.0630
%
G90
G05
T1
X40157Y-40157
X40157Y-49606
X40157Y-54331
X42835Y-47638
X45063Y-54311
X45197Y-45669
X45850Y-48484
X45850Y-51280
X46929Y-43583
X47913Y-43386
X49606Y-45748
X51362Y-49193
X51362Y-54311
X51378Y-45945
X51890Y-46417
X51925Y-45943
X52165Y-45039
X53543Y-29498
X53543Y-29852
X53543Y-30207
X53543Y-30561
X53898Y-29498
X53898Y-29852
X53898Y-30207
X53898Y-30561
X54252Y-29498
X54252Y-29852
X54252Y-30207
X54252Y-30551
X54252Y-43465
X54449Y-39449
X54449Y-39803
X54449Y-40157
X54449Y-40512
X54449Y-40866
X54685Y-44252
X55354Y-39449
X55354Y-39803
X55354Y-40157
X55354Y-40512
X55354Y-40866
X56614Y-54331
X56988Y-49291
X57165Y-41969
X57432Y-48020
X57480Y-43031
X57598Y-44094
X57795Y-35591
X57795Y-37677
X57835Y-49350
X57992Y-39409
X58009Y-40935
X58110Y-48543
X58143Y-40443
X58583Y-39685
X58976Y-44094
X59010Y-42465
X59403Y-42323
X59488Y-39213
X59528Y-41102
X59616Y-43898
X59803Y-42480
X60039Y-46614
X60092Y-40315
X60131Y-41703
X60512Y-41791
X60630Y-42402
X60630Y-49213
X60669Y-38898
X61024Y-47067
X61811Y-39232
X61969Y-43150
X62047Y-40118
X62215Y-42904
X62362Y-46555
X62480Y-43484
X63189Y-40945
X63740Y-45276
X66142Y-42126
X66142Y-54331
T2
X50748Y-29370
X50748Y-31339
X40354Y-48110
X41142Y-48110
X50748Y-39488
X50748Y-41457
T3
X52740Y-49488
X53240Y-48488
X53740Y-49488
X54240Y-48488
X48213Y-49488
X48713Y-48488
X49213Y-49488
X49713Y-48488
T4
X55118Y-47146
X55118Y-45748
X51693Y-34055
X42480Y-43622
X41142Y-49547
X47657Y-45197
X64394Y-50512
X65394Y-50512
X62913Y-52992
X62913Y-51654
X50719Y-37943
X62913Y-54331
X55748Y-44016
X44906Y-52913
X55984Y-42717
T5
X58039Y-52756
X58039Y-53756
X59039Y-52756
X59039Y-53756
X60039Y-52756
X60039Y-53756
X64567Y-43622
X64567Y-44622
X64567Y-45622
X64567Y-46622
X64567Y-47622
X65567Y-43622
X65567Y-44622
X65567Y-45622
X65567Y-46622
X65567Y-47622
T6
X40551Y-33465
X42520Y-33465
X40551Y-37402
X42520Y-37402
X63780Y-33465
X65748Y-33465
X63780Y-37402
X65748Y-37402
T0
M30
