G04 #@! TF.GenerationSoftware,KiCad,Pcbnew,(5.0.2)-1*
G04 #@! TF.CreationDate,2019-05-09T18:04:06+02:00*
G04 #@! TF.ProjectId,MotorDriver,4d6f746f-7244-4726-9976-65722e6b6963,rev?*
G04 #@! TF.SameCoordinates,Original*
G04 #@! TF.FileFunction,Copper,L2,Bot*
G04 #@! TF.FilePolarity,Positive*
%FSLAX46Y46*%
G04 Gerber Fmt 4.6, Leading zero omitted, Abs format (unit mm)*
G04 Created by KiCad (PCBNEW (5.0.2)-1) date 09.05.2019 18:04:06*
%MOMM*%
%LPD*%
G01*
G04 APERTURE LIST*
G04 #@! TA.AperFunction,ComponentPad*
%ADD10C,1.600000*%
G04 #@! TD*
G04 #@! TA.AperFunction,ComponentPad*
%ADD11O,4.000000X2.400000*%
G04 #@! TD*
G04 #@! TA.AperFunction,ComponentPad*
%ADD12O,4.000000X2.500000*%
G04 #@! TD*
G04 #@! TA.AperFunction,ComponentPad*
%ADD13C,1.800000*%
G04 #@! TD*
G04 #@! TA.AperFunction,ComponentPad*
%ADD14O,1.727200X1.727200*%
G04 #@! TD*
G04 #@! TA.AperFunction,ComponentPad*
%ADD15R,1.727200X1.727200*%
G04 #@! TD*
G04 #@! TA.AperFunction,ComponentPad*
%ADD16C,2.000000*%
G04 #@! TD*
G04 #@! TA.AperFunction,SMDPad,CuDef*
%ADD17C,0.300000*%
G04 #@! TD*
G04 #@! TA.AperFunction,Conductor*
%ADD18C,0.100000*%
G04 #@! TD*
G04 #@! TA.AperFunction,Conductor*
%ADD19C,0.300000*%
G04 #@! TD*
G04 #@! TA.AperFunction,ComponentPad*
%ADD20O,1.700000X1.700000*%
G04 #@! TD*
G04 #@! TA.AperFunction,ComponentPad*
%ADD21R,1.700000X1.700000*%
G04 #@! TD*
G04 #@! TA.AperFunction,ViaPad*
%ADD22C,0.600000*%
G04 #@! TD*
G04 #@! TA.AperFunction,Conductor*
%ADD23C,5.000000*%
G04 #@! TD*
G04 #@! TA.AperFunction,Conductor*
%ADD24C,0.300000*%
G04 #@! TD*
G04 #@! TA.AperFunction,Conductor*
%ADD25C,0.250000*%
G04 #@! TD*
G04 #@! TA.AperFunction,Conductor*
%ADD26C,2.000000*%
G04 #@! TD*
G04 #@! TA.AperFunction,Conductor*
%ADD27C,0.500000*%
G04 #@! TD*
G04 #@! TA.AperFunction,Conductor*
%ADD28C,1.000000*%
G04 #@! TD*
G04 APERTURE END LIST*
D10*
G04 #@! TO.P,C22,2*
G04 #@! TO.N,GND*
X102500000Y-122200000D03*
G04 #@! TO.P,C22,1*
G04 #@! TO.N,+12V*
X104500000Y-122200000D03*
G04 #@! TD*
G04 #@! TO.P,C7,2*
G04 #@! TO.N,Net-(C6-Pad2)*
X128900000Y-105300000D03*
G04 #@! TO.P,C7,1*
G04 #@! TO.N,Net-(C6-Pad1)*
X128900000Y-100300000D03*
G04 #@! TD*
G04 #@! TO.P,C6,2*
G04 #@! TO.N,Net-(C6-Pad2)*
X128900000Y-79600000D03*
G04 #@! TO.P,C6,1*
G04 #@! TO.N,Net-(C6-Pad1)*
X128900000Y-74600000D03*
G04 #@! TD*
D11*
G04 #@! TO.P,J2,1*
G04 #@! TO.N,/OUT*
X162000000Y-85000000D03*
D12*
X167000000Y-85000000D03*
G04 #@! TD*
D11*
G04 #@! TO.P,J3,1*
G04 #@! TO.N,Net-(C6-Pad2)*
X162000000Y-95000000D03*
D12*
X167000000Y-95000000D03*
G04 #@! TD*
D11*
G04 #@! TO.P,J1,1*
G04 #@! TO.N,Net-(C6-Pad1)*
X108000000Y-85000000D03*
D12*
X103000000Y-85000000D03*
G04 #@! TD*
D11*
G04 #@! TO.P,J4,1*
G04 #@! TO.N,Net-(C6-Pad2)*
X108000000Y-95000000D03*
D12*
X103000000Y-95000000D03*
G04 #@! TD*
D13*
G04 #@! TO.P,J7,1*
G04 #@! TO.N,GND*
X122460000Y-125700000D03*
G04 #@! TO.P,J7,2*
G04 #@! TO.N,+12V*
X123730000Y-123160000D03*
G04 #@! TO.P,J7,4*
G04 #@! TO.N,/B*
X126270000Y-123160000D03*
G04 #@! TO.P,J7,3*
G04 #@! TO.N,/A*
X125000000Y-125700000D03*
G04 #@! TD*
G04 #@! TO.P,J8,1*
G04 #@! TO.N,GND*
X133960000Y-125700000D03*
G04 #@! TO.P,J8,2*
G04 #@! TO.N,+12V*
X135230000Y-123160000D03*
G04 #@! TO.P,J8,4*
G04 #@! TO.N,/B*
X137770000Y-123160000D03*
G04 #@! TO.P,J8,3*
G04 #@! TO.N,/A*
X136500000Y-125700000D03*
G04 #@! TD*
D14*
G04 #@! TO.P,J6,6*
G04 #@! TO.N,Net-(J6-Pad6)*
X147420000Y-136540000D03*
G04 #@! TO.P,J6,5*
G04 #@! TO.N,GND*
X147420000Y-134000000D03*
G04 #@! TO.P,J6,4*
G04 #@! TO.N,/ENCI*
X149960000Y-136540000D03*
G04 #@! TO.P,J6,3*
G04 #@! TO.N,/ENCA*
X149960000Y-134000000D03*
G04 #@! TO.P,J6,2*
G04 #@! TO.N,+5V*
X152500000Y-136540000D03*
D15*
G04 #@! TO.P,J6,1*
G04 #@! TO.N,/ENCB*
X152500000Y-134000000D03*
G04 #@! TD*
D16*
G04 #@! TO.P,TP15,1*
G04 #@! TO.N,GND*
X114060000Y-134400000D03*
G04 #@! TD*
G04 #@! TO.P,TP8,1*
G04 #@! TO.N,/ENCB*
X159800000Y-131200000D03*
G04 #@! TD*
G04 #@! TO.P,TP1,1*
G04 #@! TO.N,/HIN*
X142200000Y-108500000D03*
G04 #@! TD*
G04 #@! TO.P,TP4,1*
G04 #@! TO.N,/LG*
X128825000Y-96375000D03*
G04 #@! TD*
G04 #@! TO.P,TP7,1*
G04 #@! TO.N,/ENCI*
X159800000Y-138000000D03*
G04 #@! TD*
G04 #@! TO.P,TP9,1*
G04 #@! TO.N,/ENCA*
X159800000Y-134600000D03*
G04 #@! TD*
G04 #@! TO.P,TP10,1*
G04 #@! TO.N,+12V*
X104500000Y-125850000D03*
G04 #@! TD*
G04 #@! TO.P,TP11,1*
G04 #@! TO.N,/B*
X140000000Y-116200000D03*
G04 #@! TD*
G04 #@! TO.P,TP13,1*
G04 #@! TO.N,+5V*
X107900000Y-110800000D03*
G04 #@! TD*
G04 #@! TO.P,TP14,1*
G04 #@! TO.N,+3V3*
X121050000Y-114800000D03*
G04 #@! TD*
G04 #@! TO.P,TP12,1*
G04 #@! TO.N,/A*
X140000000Y-119750000D03*
G04 #@! TD*
G04 #@! TO.P,TP5,1*
G04 #@! TO.N,/HG*
X131300000Y-86500000D03*
G04 #@! TD*
G04 #@! TO.P,TP2,1*
G04 #@! TO.N,/LIN*
X141600000Y-111800000D03*
G04 #@! TD*
D15*
G04 #@! TO.P,J5,1*
G04 #@! TO.N,Net-(J5-Pad1)*
X164000000Y-110800000D03*
D14*
G04 #@! TO.P,J5,2*
G04 #@! TO.N,/2*
X166540000Y-110800000D03*
G04 #@! TO.P,J5,3*
G04 #@! TO.N,Net-(J5-Pad3)*
X164000000Y-113340000D03*
G04 #@! TO.P,J5,4*
G04 #@! TO.N,/4*
X166540000Y-113340000D03*
G04 #@! TO.P,J5,5*
G04 #@! TO.N,Net-(J5-Pad5)*
X164000000Y-115880000D03*
G04 #@! TO.P,J5,6*
G04 #@! TO.N,/6*
X166540000Y-115880000D03*
G04 #@! TO.P,J5,7*
G04 #@! TO.N,Net-(J5-Pad7)*
X164000000Y-118420000D03*
G04 #@! TO.P,J5,8*
G04 #@! TO.N,Net-(J5-Pad8)*
X166540000Y-118420000D03*
G04 #@! TO.P,J5,9*
G04 #@! TO.N,Net-(J5-Pad9)*
X164000000Y-120960000D03*
G04 #@! TO.P,J5,10*
G04 #@! TO.N,+5V*
X166540000Y-120960000D03*
G04 #@! TD*
D17*
G04 #@! TO.P,JP4,1*
G04 #@! TO.N,/2*
X154600000Y-113000000D03*
D18*
G04 #@! TD*
G04 #@! TO.N,/2*
G04 #@! TO.C,JP4*
G36*
X154600000Y-114000000D02*
X153850000Y-113500000D01*
X153850000Y-112500000D01*
X155350000Y-112500000D01*
X155350000Y-113500000D01*
X154600000Y-114000000D01*
X154600000Y-114000000D01*
G37*
D19*
G04 #@! TO.N,/SWDIO*
G04 #@! TO.C,JP4*
X154600000Y-115000000D03*
D18*
G36*
X154600000Y-115700000D02*
X153850000Y-116200000D01*
X153850000Y-113800000D01*
X154600000Y-114300000D01*
X155350000Y-113800000D01*
X155350000Y-116200000D01*
X154600000Y-115700000D01*
X154600000Y-115700000D01*
G37*
D17*
G04 #@! TD*
G04 #@! TO.P,JP4,3*
G04 #@! TO.N,/4*
X154600000Y-117000000D03*
D18*
G04 #@! TO.N,/4*
G04 #@! TO.C,JP4*
G36*
X154600000Y-116000000D02*
X155350000Y-116500000D01*
X155350000Y-117500000D01*
X153850000Y-117500000D01*
X153850000Y-116500000D01*
X154600000Y-116000000D01*
X154600000Y-116000000D01*
G37*
G04 #@! TD*
D17*
G04 #@! TO.P,JP5,3*
G04 #@! TO.N,Net-(J5-Pad5)*
X159950000Y-117000000D03*
D18*
G04 #@! TD*
G04 #@! TO.N,Net-(J5-Pad5)*
G04 #@! TO.C,JP5*
G36*
X159950000Y-116000000D02*
X160700000Y-116500000D01*
X160700000Y-117500000D01*
X159200000Y-117500000D01*
X159200000Y-116500000D01*
X159950000Y-116000000D01*
X159950000Y-116000000D01*
G37*
D19*
G04 #@! TO.N,GND*
G04 #@! TO.C,JP5*
X159950000Y-115000000D03*
D18*
G36*
X159950000Y-115700000D02*
X159200000Y-116200000D01*
X159200000Y-113800000D01*
X159950000Y-114300000D01*
X160700000Y-113800000D01*
X160700000Y-116200000D01*
X159950000Y-115700000D01*
X159950000Y-115700000D01*
G37*
D17*
G04 #@! TD*
G04 #@! TO.P,JP5,1*
G04 #@! TO.N,Net-(J5-Pad3)*
X159950000Y-113000000D03*
D18*
G04 #@! TO.N,Net-(J5-Pad3)*
G04 #@! TO.C,JP5*
G36*
X159950000Y-114000000D02*
X159200000Y-113500000D01*
X159200000Y-112500000D01*
X160700000Y-112500000D01*
X160700000Y-113500000D01*
X159950000Y-114000000D01*
X159950000Y-114000000D01*
G37*
G04 #@! TD*
D17*
G04 #@! TO.P,JP6,1*
G04 #@! TO.N,/6*
X157100000Y-113000000D03*
D18*
G04 #@! TD*
G04 #@! TO.N,/6*
G04 #@! TO.C,JP6*
G36*
X157100000Y-114000000D02*
X156350000Y-113500000D01*
X156350000Y-112500000D01*
X157850000Y-112500000D01*
X157850000Y-113500000D01*
X157100000Y-114000000D01*
X157100000Y-114000000D01*
G37*
D19*
G04 #@! TO.N,/SWCLK*
G04 #@! TO.C,JP6*
X157100000Y-115000000D03*
D18*
G36*
X157100000Y-115700000D02*
X156350000Y-116200000D01*
X156350000Y-113800000D01*
X157100000Y-114300000D01*
X157850000Y-113800000D01*
X157850000Y-116200000D01*
X157100000Y-115700000D01*
X157100000Y-115700000D01*
G37*
D17*
G04 #@! TD*
G04 #@! TO.P,JP6,3*
G04 #@! TO.N,/2*
X157100000Y-117000000D03*
D18*
G04 #@! TO.N,/2*
G04 #@! TO.C,JP6*
G36*
X157100000Y-116000000D02*
X157850000Y-116500000D01*
X157850000Y-117500000D01*
X156350000Y-117500000D01*
X156350000Y-116500000D01*
X157100000Y-116000000D01*
X157100000Y-116000000D01*
G37*
G04 #@! TD*
D20*
G04 #@! TO.P,JP1,2*
G04 #@! TO.N,/RST*
X163560000Y-128300000D03*
D21*
G04 #@! TO.P,JP1,1*
G04 #@! TO.N,Net-(J5-Pad1)*
X166100000Y-128300000D03*
G04 #@! TD*
D22*
G04 #@! TO.N,Net-(C6-Pad1)*
X136000000Y-77625000D03*
X136900000Y-77625000D03*
X137800000Y-77600000D03*
X137800000Y-76725000D03*
X136900000Y-76725000D03*
X136000000Y-76725000D03*
X136000000Y-74925000D03*
X136900000Y-74925000D03*
X137800000Y-74925000D03*
X137800000Y-75825000D03*
X136000000Y-75825000D03*
X136900000Y-75825000D03*
X146800000Y-90400000D03*
G04 #@! TO.N,GND*
X151100000Y-99600000D03*
X130500000Y-116700000D03*
X154000000Y-107700000D03*
X152500000Y-118400000D03*
X102000000Y-138000000D03*
X130460000Y-137950000D03*
X168000000Y-138000000D03*
X154000000Y-125000000D03*
X161900000Y-115000000D03*
X116460000Y-130250000D03*
X157000000Y-99650000D03*
X102000000Y-102000000D03*
X114800000Y-116000000D03*
X108800000Y-121000000D03*
X130460000Y-124950000D03*
X147300000Y-100100000D03*
X151200000Y-104400000D03*
X102000000Y-126000000D03*
X114460000Y-137950000D03*
X143800000Y-138000000D03*
X168000000Y-107000000D03*
X160500000Y-104000000D03*
X121700000Y-110200000D03*
X144750010Y-125200000D03*
X137800000Y-110400000D03*
X146300000Y-112000000D03*
X147341949Y-103975010D03*
X145200000Y-106600000D03*
X126000000Y-116200000D03*
X149800000Y-112000000D03*
G04 #@! TO.N,/TX*
X131889358Y-116694627D03*
X153700000Y-106150000D03*
G04 #@! TO.N,+12V*
X116460000Y-123150000D03*
X119200000Y-110700000D03*
G04 #@! TO.N,+3V3*
X132500000Y-114400000D03*
X157600000Y-101900000D03*
X151425010Y-111500000D03*
X158700000Y-110449998D03*
X148800000Y-100800000D03*
X146000000Y-109300000D03*
G04 #@! TO.N,+5V*
X154100000Y-98800000D03*
X138900000Y-112400007D03*
G04 #@! TO.N,/ENCI*
X151900020Y-107900000D03*
X146900000Y-125350018D03*
G04 #@! TO.N,/ENCA*
X145877619Y-121970016D03*
X149884760Y-107860552D03*
G04 #@! TO.N,/ENCB*
X150883572Y-107499771D03*
X147599998Y-123300000D03*
G04 #@! TO.N,/RX*
X131800000Y-117899992D03*
X152733052Y-105925010D03*
G04 #@! TO.N,/SWDIO*
X155000000Y-119550000D03*
X152633902Y-102400003D03*
X158025014Y-108975012D03*
G04 #@! TO.N,/SWCLK*
X158400000Y-118250000D03*
X147683666Y-102724990D03*
X157400004Y-109600000D03*
G04 #@! TO.N,Net-(C6-Pad2)*
X138300000Y-101100000D03*
X140600000Y-100200000D03*
X140600000Y-103800000D03*
X140600000Y-102900000D03*
X140600000Y-102000000D03*
X140600000Y-101100000D03*
X138300000Y-100200000D03*
X138300000Y-102000000D03*
X138300000Y-102900000D03*
X146800000Y-95700000D03*
X138300000Y-103800000D03*
G04 #@! TD*
D23*
G04 #@! TO.N,Net-(C6-Pad1)*
X103000000Y-85000000D02*
X108000000Y-85000000D01*
D24*
X136900000Y-89000000D02*
X136800000Y-89100000D01*
D23*
X136800000Y-89100000D02*
X136800000Y-76000000D01*
D25*
X138100000Y-90400000D02*
X136800000Y-89100000D01*
X146800000Y-90400000D02*
X138100000Y-90400000D01*
D23*
X129700000Y-100100000D02*
X130900000Y-100100000D01*
X136800000Y-94200000D02*
X136800000Y-89100000D01*
X130900000Y-100100000D02*
X136800000Y-94200000D01*
D26*
G04 #@! TO.N,GND*
X122460000Y-126850000D02*
X122460000Y-125700000D01*
X123960000Y-128350000D02*
X122460000Y-126850000D01*
X133960000Y-125700000D02*
X131310000Y-128350000D01*
X131310000Y-128350000D02*
X123960000Y-128350000D01*
D27*
X159950000Y-115000000D02*
X161900000Y-115000000D01*
X161900000Y-115000000D02*
X161900000Y-115000000D01*
X122460000Y-125700000D02*
X121010000Y-125700000D01*
X121010000Y-125700000D02*
X116460000Y-130250000D01*
X116460000Y-130250000D02*
X116460000Y-130250000D01*
D25*
G04 #@! TO.N,/TX*
X153700000Y-105725736D02*
X153700000Y-106150000D01*
X131889358Y-116694627D02*
X134408974Y-114175011D01*
X150925002Y-105300000D02*
X153274264Y-105300000D01*
X134408974Y-114175011D02*
X142049991Y-114175011D01*
X153274264Y-105300000D02*
X153700000Y-105725736D01*
X142049991Y-114175011D02*
X150925002Y-105300000D01*
G04 #@! TO.N,/B*
X137770000Y-118430000D02*
X140000000Y-116200000D01*
X137770000Y-123160000D02*
X137770000Y-118430000D01*
D28*
G04 #@! TO.N,+12V*
X123730000Y-123060000D02*
X123720000Y-123050000D01*
D27*
X116970000Y-123160000D02*
X116970000Y-123160000D01*
X123730000Y-123160000D02*
X116470000Y-123160000D01*
X116470000Y-123160000D02*
X116460000Y-123150000D01*
D25*
X104500000Y-124435787D02*
X104500000Y-122200000D01*
X104500000Y-125850000D02*
X104500000Y-124435787D01*
D27*
X116000000Y-110700000D02*
X118775736Y-110700000D01*
X104500000Y-122200000D02*
X116000000Y-110700000D01*
X118775736Y-110700000D02*
X119200000Y-110700000D01*
D26*
X134330001Y-122260001D02*
X135230000Y-123160000D01*
X132720000Y-120650000D02*
X134330001Y-122260001D01*
X125600000Y-120650000D02*
X132720000Y-120650000D01*
X123730000Y-123160000D02*
X123730000Y-122520000D01*
X123730000Y-122520000D02*
X125600000Y-120650000D01*
D25*
G04 #@! TO.N,+3V3*
X132500000Y-114400000D02*
X132500000Y-114400000D01*
D24*
X157649998Y-111500000D02*
X158400001Y-110749997D01*
X158400001Y-110749997D02*
X158700000Y-110449998D01*
X151425010Y-111500000D02*
X157649998Y-111500000D01*
X158700000Y-103000000D02*
X158700000Y-110449998D01*
X157600000Y-101900000D02*
X158700000Y-103000000D01*
X156500000Y-100800000D02*
X149224264Y-100800000D01*
X149224264Y-100800000D02*
X148800000Y-100800000D01*
X157600000Y-101900000D02*
X156500000Y-100800000D01*
X146000000Y-108875736D02*
X146000000Y-109300000D01*
X146000000Y-103400000D02*
X146000000Y-108875736D01*
X148800000Y-100800000D02*
X148600000Y-100800000D01*
X148600000Y-100800000D02*
X146000000Y-103400000D01*
X141800000Y-113700000D02*
X146000000Y-109500000D01*
X146000000Y-109500000D02*
X146000000Y-109300000D01*
X133200000Y-113700000D02*
X141800000Y-113700000D01*
X132500000Y-114400000D02*
X133200000Y-113700000D01*
D25*
G04 #@! TO.N,/A*
X136500000Y-125700000D02*
X137300000Y-125700000D01*
X140000000Y-123000000D02*
X140000000Y-119750000D01*
X137300000Y-125700000D02*
X140000000Y-123000000D01*
D24*
G04 #@! TO.N,+5V*
X153210000Y-136540000D02*
X152500000Y-136540000D01*
X157250000Y-129750000D02*
X157250000Y-132500000D01*
X157250000Y-132500000D02*
X153210000Y-136540000D01*
X166540000Y-120960000D02*
X166040000Y-120960000D01*
X166040000Y-120960000D02*
X157250000Y-129750000D01*
D27*
X154100000Y-98800000D02*
X149689996Y-98800000D01*
X138900000Y-111975743D02*
X138900000Y-112400007D01*
X138900000Y-109589996D02*
X138900000Y-111975743D01*
X149689996Y-98800000D02*
X138900000Y-109589996D01*
D25*
G04 #@! TO.N,/ENCI*
X158285787Y-138000000D02*
X159700000Y-138000000D01*
X150800000Y-138000000D02*
X158285787Y-138000000D01*
X149960000Y-136540000D02*
X149960000Y-137160000D01*
X149960000Y-137160000D02*
X150800000Y-138000000D01*
X148300000Y-123950018D02*
X147199999Y-125050019D01*
X148300000Y-111500020D02*
X148300000Y-123950018D01*
X147199999Y-125050019D02*
X146900000Y-125350018D01*
X151900020Y-107900000D02*
X148300000Y-111500020D01*
G04 #@! TO.N,/ENCA*
X147300000Y-110445312D02*
X149584761Y-108160551D01*
X149584761Y-108160551D02*
X149884760Y-107860552D01*
X147300000Y-120547635D02*
X147300000Y-110445312D01*
X145877619Y-121970016D02*
X147300000Y-120547635D01*
G04 #@! TO.N,/ENCB*
X147750011Y-123149987D02*
X147599998Y-123300000D01*
X147750011Y-111057596D02*
X147750011Y-123149987D01*
X150883572Y-107499771D02*
X150883572Y-107924035D01*
X150883572Y-107924035D02*
X147750011Y-111057596D01*
G04 #@! TO.N,/RX*
X142236390Y-114625022D02*
X150936402Y-105925010D01*
X135074970Y-114625022D02*
X142236390Y-114625022D01*
X131800000Y-117899992D02*
X135074970Y-114625022D01*
X150936402Y-105925010D02*
X152308788Y-105925010D01*
X152308788Y-105925010D02*
X152733052Y-105925010D01*
G04 #@! TO.N,/SWDIO*
X155000000Y-119550000D02*
X155050000Y-119600000D01*
X153450000Y-118000000D02*
X155000000Y-119550000D01*
X153450000Y-116150000D02*
X153450000Y-118000000D01*
X154600000Y-115000000D02*
X153450000Y-116150000D01*
X158025014Y-108975012D02*
X158025014Y-104125014D01*
X156300003Y-102400003D02*
X152633902Y-102400003D01*
X158025014Y-104125014D02*
X156300003Y-102400003D01*
G04 #@! TO.N,/SWCLK*
X158400000Y-117825736D02*
X158400000Y-118250000D01*
X158400000Y-116300000D02*
X158400000Y-117825736D01*
X157100000Y-115000000D02*
X158400000Y-116300000D01*
X148058676Y-103100000D02*
X147683666Y-102724990D01*
X157400004Y-104400004D02*
X156100000Y-103100000D01*
X156100000Y-103100000D02*
X148058676Y-103100000D01*
X157400004Y-109600000D02*
X157400004Y-104400004D01*
G04 #@! TO.N,Net-(J5-Pad1)*
X165600000Y-109200000D02*
X164000000Y-110800000D01*
X167500000Y-109200000D02*
X165600000Y-109200000D01*
X168300010Y-110000010D02*
X167500000Y-109200000D01*
X166100000Y-128300000D02*
X168300010Y-126099990D01*
X168300010Y-126099990D02*
X168300010Y-110000010D01*
D27*
G04 #@! TO.N,Net-(J5-Pad3)*
X163660000Y-113000000D02*
X164000000Y-113340000D01*
X159950000Y-113000000D02*
X163660000Y-113000000D01*
G04 #@! TO.N,Net-(J5-Pad5)*
X160800000Y-117000000D02*
X159950000Y-117000000D01*
X161658686Y-117000000D02*
X160800000Y-117000000D01*
X164000000Y-115880000D02*
X162778686Y-115880000D01*
X162778686Y-115880000D02*
X161658686Y-117000000D01*
D23*
G04 #@! TO.N,Net-(C6-Pad2)*
X113000000Y-95000000D02*
X114700000Y-95000000D01*
X125100000Y-106300000D02*
X135800000Y-106300000D01*
X113800000Y-95000000D02*
X125100000Y-106300000D01*
X139400000Y-102700000D02*
X139400000Y-100600000D01*
X113000000Y-95000000D02*
X113800000Y-95000000D01*
X135800000Y-106300000D02*
X139400000Y-102700000D01*
X145000000Y-95000000D02*
X167000000Y-95000000D01*
X139400000Y-100900000D02*
X139400000Y-100600000D01*
X139400000Y-100600000D02*
X145000000Y-95000000D01*
X103000000Y-95000000D02*
X113000000Y-95000000D01*
X114700000Y-95000000D02*
X128900000Y-80800000D01*
D25*
G04 #@! TO.N,/6*
X157950000Y-113000000D02*
X158874990Y-113924990D01*
X158874990Y-113924990D02*
X158874990Y-117634626D01*
X157100000Y-113000000D02*
X157950000Y-113000000D01*
X165676401Y-116743599D02*
X166540000Y-115880000D01*
X165270000Y-117150000D02*
X165676401Y-116743599D01*
X162750000Y-117150000D02*
X165270000Y-117150000D01*
X161850012Y-118049988D02*
X162750000Y-117150000D01*
X159290352Y-118049988D02*
X161850012Y-118049988D01*
X158874990Y-117634626D02*
X159290352Y-118049988D01*
G04 #@! TO.N,/2*
X155850000Y-113800000D02*
X155050000Y-113000000D01*
X155850000Y-116600000D02*
X155850000Y-113800000D01*
X157100000Y-117000000D02*
X156250000Y-117000000D01*
X155050000Y-113000000D02*
X154600000Y-113000000D01*
X156250000Y-117000000D02*
X155850000Y-116600000D01*
X165676401Y-111663599D02*
X166540000Y-110800000D01*
X165240000Y-112100000D02*
X165676401Y-111663599D01*
X155700000Y-112100000D02*
X165240000Y-112100000D01*
X154600000Y-113000000D02*
X154800000Y-113000000D01*
X154800000Y-113000000D02*
X155700000Y-112100000D01*
G04 #@! TO.N,/4*
X167403599Y-114203599D02*
X166540000Y-113340000D01*
X154800000Y-117000000D02*
X157500000Y-119700000D01*
X157500000Y-119700000D02*
X167100000Y-119700000D01*
X167100000Y-119700000D02*
X167850000Y-118950000D01*
X154600000Y-117000000D02*
X154800000Y-117000000D01*
X167850000Y-118950000D02*
X167850000Y-114650000D01*
X167850000Y-114650000D02*
X167403599Y-114203599D01*
G04 #@! TD*
G04 #@! TO.N,GND*
G36*
X123911612Y-110088388D02*
X123952165Y-110115485D01*
X124000000Y-110125000D01*
X137000000Y-110125000D01*
X137047835Y-110115485D01*
X137088388Y-110088388D01*
X148051776Y-99125000D01*
X148481113Y-99125000D01*
X138501591Y-109104523D01*
X138449400Y-109139396D01*
X138318374Y-109335492D01*
X138311263Y-109346134D01*
X138262756Y-109589996D01*
X138275000Y-109651551D01*
X138275001Y-111914184D01*
X138275000Y-111914189D01*
X138275000Y-112145031D01*
X138225000Y-112265741D01*
X138225000Y-112534273D01*
X138327763Y-112782364D01*
X138517643Y-112972244D01*
X138765734Y-113075007D01*
X139034266Y-113075007D01*
X139282357Y-112972244D01*
X139472237Y-112782364D01*
X139575000Y-112534273D01*
X139575000Y-112265741D01*
X139525000Y-112145031D01*
X139525000Y-109848878D01*
X140825000Y-108548878D01*
X140825000Y-108773505D01*
X141034331Y-109278875D01*
X141421125Y-109665669D01*
X141926495Y-109875000D01*
X142473505Y-109875000D01*
X142978875Y-109665669D01*
X143365669Y-109278875D01*
X143575000Y-108773505D01*
X143575000Y-108226495D01*
X143365669Y-107721125D01*
X142978875Y-107334331D01*
X142473505Y-107125000D01*
X142248878Y-107125000D01*
X145475000Y-103898878D01*
X145475001Y-108824026D01*
X145475000Y-108824031D01*
X145475000Y-108870406D01*
X145427763Y-108917643D01*
X145325000Y-109165734D01*
X145325000Y-109432538D01*
X142975000Y-111782539D01*
X142975000Y-111526495D01*
X142765669Y-111021125D01*
X142378875Y-110634331D01*
X141873505Y-110425000D01*
X141326495Y-110425000D01*
X140821125Y-110634331D01*
X140434331Y-111021125D01*
X140225000Y-111526495D01*
X140225000Y-112073505D01*
X140434331Y-112578875D01*
X140821125Y-112965669D01*
X141326495Y-113175000D01*
X133251704Y-113175000D01*
X133199999Y-113164715D01*
X133148294Y-113175000D01*
X132995155Y-113205461D01*
X132821496Y-113321496D01*
X132792205Y-113365333D01*
X132432539Y-113725000D01*
X132365734Y-113725000D01*
X132117643Y-113827763D01*
X131927763Y-114017643D01*
X131825000Y-114265734D01*
X131825000Y-114534266D01*
X131927763Y-114782357D01*
X132117643Y-114972237D01*
X132365734Y-115075000D01*
X132634266Y-115075000D01*
X132882357Y-114972237D01*
X133072237Y-114782357D01*
X133175000Y-114534266D01*
X133175000Y-114467461D01*
X133417462Y-114225000D01*
X133651878Y-114225000D01*
X131857252Y-116019627D01*
X131755092Y-116019627D01*
X131507001Y-116122390D01*
X131317121Y-116312270D01*
X131214358Y-116560361D01*
X131214358Y-116828893D01*
X131317121Y-117076984D01*
X131507001Y-117266864D01*
X131535824Y-117278803D01*
X131417643Y-117327755D01*
X131227763Y-117517635D01*
X131125000Y-117765726D01*
X131125000Y-118034258D01*
X131227763Y-118282349D01*
X131417643Y-118472229D01*
X131665734Y-118574992D01*
X131934266Y-118574992D01*
X132182357Y-118472229D01*
X132372237Y-118282349D01*
X132475000Y-118034258D01*
X132475000Y-117932098D01*
X135282077Y-115125022D01*
X139130434Y-115125022D01*
X138834331Y-115421125D01*
X138625000Y-115926495D01*
X138625000Y-116473505D01*
X138740514Y-116752380D01*
X137451268Y-118041626D01*
X137409521Y-118069520D01*
X137381627Y-118111267D01*
X137299012Y-118234910D01*
X137260205Y-118430000D01*
X137270001Y-118479246D01*
X137270000Y-121987056D01*
X137047770Y-122079107D01*
X136689107Y-122437770D01*
X136553431Y-122765322D01*
X136525221Y-122623501D01*
X136298029Y-122283486D01*
X135398032Y-121383489D01*
X135398030Y-121383486D01*
X133788030Y-119773487D01*
X133711319Y-119658681D01*
X133256498Y-119354779D01*
X132855422Y-119275000D01*
X132855417Y-119275000D01*
X132720000Y-119248064D01*
X132584583Y-119275000D01*
X125735416Y-119275000D01*
X125599999Y-119248064D01*
X125464582Y-119275000D01*
X125464578Y-119275000D01*
X125063502Y-119354779D01*
X124964412Y-119420989D01*
X124723485Y-119581971D01*
X124723484Y-119581972D01*
X124608681Y-119658681D01*
X124531972Y-119773484D01*
X122853485Y-121451972D01*
X122738682Y-121528681D01*
X122661972Y-121643485D01*
X122661971Y-121643486D01*
X122604825Y-121729011D01*
X122434779Y-121983502D01*
X122355000Y-122384578D01*
X122355000Y-122384583D01*
X122328064Y-122520000D01*
X122331048Y-122535000D01*
X116739118Y-122535000D01*
X116594266Y-122475000D01*
X116325734Y-122475000D01*
X116077643Y-122577763D01*
X115887763Y-122767643D01*
X115785000Y-123015734D01*
X115785000Y-123284266D01*
X115887763Y-123532357D01*
X116077643Y-123722237D01*
X116325734Y-123825000D01*
X116594266Y-123825000D01*
X116690834Y-123785000D01*
X122493915Y-123785000D01*
X122738681Y-124151318D01*
X123193502Y-124455221D01*
X123730000Y-124561937D01*
X124266497Y-124455221D01*
X124721318Y-124151319D01*
X125025221Y-123696498D01*
X125053431Y-123554678D01*
X125189107Y-123882230D01*
X125547770Y-124240893D01*
X126016387Y-124435000D01*
X126523613Y-124435000D01*
X126992230Y-124240893D01*
X127350893Y-123882230D01*
X127545000Y-123413613D01*
X127545000Y-122906387D01*
X127350893Y-122437770D01*
X126992230Y-122079107D01*
X126861604Y-122025000D01*
X132150457Y-122025000D01*
X133453486Y-123328030D01*
X133453489Y-123328032D01*
X134353486Y-124228029D01*
X134693501Y-124455221D01*
X135230000Y-124561936D01*
X135766498Y-124455221D01*
X136221319Y-124151319D01*
X136525221Y-123696498D01*
X136553431Y-123554678D01*
X136689107Y-123882230D01*
X137047770Y-124240893D01*
X137516387Y-124435000D01*
X137857894Y-124435000D01*
X137448008Y-124844885D01*
X137222230Y-124619107D01*
X136753613Y-124425000D01*
X136246387Y-124425000D01*
X135777770Y-124619107D01*
X135419107Y-124977770D01*
X135259286Y-125363612D01*
X135095347Y-124967827D01*
X134891575Y-124874491D01*
X134066066Y-125700000D01*
X134891575Y-126525509D01*
X135095347Y-126432173D01*
X135255450Y-126027127D01*
X135419107Y-126422230D01*
X135777770Y-126780893D01*
X136246387Y-126975000D01*
X136753613Y-126975000D01*
X137222230Y-126780893D01*
X137580893Y-126422230D01*
X137775000Y-125953613D01*
X137775000Y-125932106D01*
X140318733Y-123388374D01*
X140360480Y-123360480D01*
X140470989Y-123195090D01*
X140500000Y-123049243D01*
X140500000Y-123049242D01*
X140509795Y-123000000D01*
X140500000Y-122950757D01*
X140500000Y-121031183D01*
X140778875Y-120915669D01*
X141165669Y-120528875D01*
X141375000Y-120023505D01*
X141375000Y-119476495D01*
X141165669Y-118971125D01*
X140778875Y-118584331D01*
X140273505Y-118375000D01*
X139726495Y-118375000D01*
X139221125Y-118584331D01*
X138834331Y-118971125D01*
X138625000Y-119476495D01*
X138625000Y-120023505D01*
X138834331Y-120528875D01*
X139221125Y-120915669D01*
X139500001Y-121031183D01*
X139500000Y-122792893D01*
X139045000Y-123247893D01*
X139045000Y-122906387D01*
X138850893Y-122437770D01*
X138492230Y-122079107D01*
X138270000Y-121987057D01*
X138270000Y-118637106D01*
X139447620Y-117459486D01*
X139726495Y-117575000D01*
X140273505Y-117575000D01*
X140778875Y-117365669D01*
X141165669Y-116978875D01*
X141375000Y-116473505D01*
X141375000Y-115926495D01*
X141165669Y-115421125D01*
X140869566Y-115125022D01*
X142187149Y-115125022D01*
X142236390Y-115134817D01*
X142285631Y-115125022D01*
X142285633Y-115125022D01*
X142431480Y-115096011D01*
X142596870Y-114985502D01*
X142624767Y-114943751D01*
X146800001Y-110768518D01*
X146800000Y-120340529D01*
X145845513Y-121295016D01*
X145743353Y-121295016D01*
X145495262Y-121397779D01*
X145305382Y-121587659D01*
X145202619Y-121835750D01*
X145202619Y-122104282D01*
X145305382Y-122352373D01*
X145495262Y-122542253D01*
X145743353Y-122645016D01*
X146011885Y-122645016D01*
X146259976Y-122542253D01*
X146449856Y-122352373D01*
X146552619Y-122104282D01*
X146552619Y-122002122D01*
X147250012Y-121304729D01*
X147250012Y-122714354D01*
X147217641Y-122727763D01*
X147027761Y-122917643D01*
X146924998Y-123165734D01*
X146924998Y-123434266D01*
X147027761Y-123682357D01*
X147217641Y-123872237D01*
X147465732Y-123975000D01*
X147567911Y-123975000D01*
X146881266Y-124661646D01*
X146867894Y-124675018D01*
X146765734Y-124675018D01*
X146517643Y-124777781D01*
X146327763Y-124967661D01*
X146225000Y-125215752D01*
X146225000Y-125484284D01*
X146327763Y-125732375D01*
X146517643Y-125922255D01*
X146765734Y-126025018D01*
X147034266Y-126025018D01*
X147282357Y-125922255D01*
X147472237Y-125732375D01*
X147575000Y-125484284D01*
X147575000Y-125382124D01*
X147588372Y-125368752D01*
X148618732Y-124338393D01*
X148660480Y-124310498D01*
X148770989Y-124145108D01*
X148800000Y-123999261D01*
X148800000Y-123999260D01*
X148809795Y-123950019D01*
X148800000Y-123900778D01*
X148800000Y-111707126D01*
X151932127Y-108575000D01*
X152034286Y-108575000D01*
X152282377Y-108472237D01*
X152472257Y-108282357D01*
X152575020Y-108034266D01*
X152575020Y-107765734D01*
X152472257Y-107517643D01*
X152282377Y-107327763D01*
X152034286Y-107225000D01*
X151765754Y-107225000D01*
X151539237Y-107318827D01*
X151455809Y-107117414D01*
X151265929Y-106927534D01*
X151017838Y-106824771D01*
X150749306Y-106824771D01*
X150739818Y-106828701D01*
X151143509Y-106425010D01*
X152278458Y-106425010D01*
X152350695Y-106497247D01*
X152598786Y-106600010D01*
X152867318Y-106600010D01*
X153113540Y-106498021D01*
X153127763Y-106532357D01*
X153317643Y-106722237D01*
X153565734Y-106825000D01*
X153834266Y-106825000D01*
X154082357Y-106722237D01*
X154272237Y-106532357D01*
X154375000Y-106284266D01*
X154375000Y-106015734D01*
X154272237Y-105767643D01*
X154204696Y-105700102D01*
X154170989Y-105530646D01*
X154089167Y-105408190D01*
X154060480Y-105365256D01*
X154018733Y-105337362D01*
X153662640Y-104981270D01*
X153634744Y-104939520D01*
X153469354Y-104829011D01*
X153323507Y-104800000D01*
X153323505Y-104800000D01*
X153274264Y-104790205D01*
X153225023Y-104800000D01*
X150974245Y-104800000D01*
X150925002Y-104790205D01*
X150875759Y-104800000D01*
X150729912Y-104829011D01*
X150564522Y-104939520D01*
X150536627Y-104981268D01*
X146580443Y-108937453D01*
X146572237Y-108917643D01*
X146525000Y-108870406D01*
X146525000Y-103617461D01*
X147089077Y-103053384D01*
X147111429Y-103107347D01*
X147301309Y-103297227D01*
X147549400Y-103399990D01*
X147651559Y-103399990D01*
X147670301Y-103418732D01*
X147698196Y-103460480D01*
X147863586Y-103570989D01*
X148009433Y-103600000D01*
X148009434Y-103600000D01*
X148058675Y-103609795D01*
X148107916Y-103600000D01*
X155892894Y-103600000D01*
X156900005Y-104607112D01*
X156900004Y-109145406D01*
X156827767Y-109217643D01*
X156725004Y-109465734D01*
X156725004Y-109734266D01*
X156827767Y-109982357D01*
X157017647Y-110172237D01*
X157265738Y-110275000D01*
X157534270Y-110275000D01*
X157782361Y-110172237D01*
X157972241Y-109982357D01*
X158075004Y-109734266D01*
X158075004Y-109650012D01*
X158159280Y-109650012D01*
X158175001Y-109643500D01*
X158175001Y-110020403D01*
X158127763Y-110067641D01*
X158025000Y-110315732D01*
X158025000Y-110382536D01*
X157432537Y-110975000D01*
X151854604Y-110975000D01*
X151807367Y-110927763D01*
X151559276Y-110825000D01*
X151290744Y-110825000D01*
X151042653Y-110927763D01*
X150852773Y-111117643D01*
X150750010Y-111365734D01*
X150750010Y-111634266D01*
X150852773Y-111882357D01*
X151042653Y-112072237D01*
X151290744Y-112175000D01*
X151559276Y-112175000D01*
X151807367Y-112072237D01*
X151854604Y-112025000D01*
X155067893Y-112025000D01*
X154975240Y-112117653D01*
X153850000Y-112117653D01*
X153703682Y-112146757D01*
X153579640Y-112229640D01*
X153496757Y-112353682D01*
X153467653Y-112500000D01*
X153467653Y-113500000D01*
X153475078Y-113574984D01*
X153503549Y-113643517D01*
X153496757Y-113653682D01*
X153467653Y-113800000D01*
X153467653Y-115425241D01*
X153131270Y-115761624D01*
X153089520Y-115789520D01*
X152979011Y-115954911D01*
X152955106Y-116075091D01*
X152940205Y-116150000D01*
X152950000Y-116199242D01*
X152950001Y-117950754D01*
X152940205Y-118000000D01*
X152950149Y-118049988D01*
X152979012Y-118195090D01*
X153089521Y-118360480D01*
X153131268Y-118388374D01*
X154325000Y-119582107D01*
X154325000Y-119684266D01*
X154427763Y-119932357D01*
X154617643Y-120122237D01*
X154865734Y-120225000D01*
X155134266Y-120225000D01*
X155382357Y-120122237D01*
X155572237Y-119932357D01*
X155675000Y-119684266D01*
X155675000Y-119415734D01*
X155572237Y-119167643D01*
X155382357Y-118977763D01*
X155134266Y-118875000D01*
X155032107Y-118875000D01*
X154039453Y-117882347D01*
X154975241Y-117882347D01*
X157111625Y-120018732D01*
X157139520Y-120060480D01*
X157304910Y-120170989D01*
X157386187Y-120187156D01*
X157500000Y-120209795D01*
X157549243Y-120200000D01*
X163018165Y-120200000D01*
X162833265Y-120476722D01*
X162737135Y-120960000D01*
X162833265Y-121443278D01*
X163107020Y-121852980D01*
X163516722Y-122126735D01*
X163878012Y-122198600D01*
X164058938Y-122198600D01*
X156915336Y-129342203D01*
X156871496Y-129371496D01*
X156783467Y-129503242D01*
X156755461Y-129545156D01*
X156714715Y-129750000D01*
X156725000Y-129801706D01*
X156725001Y-132282537D01*
X153373521Y-135634018D01*
X152983278Y-135373265D01*
X152621988Y-135301400D01*
X152378012Y-135301400D01*
X152016722Y-135373265D01*
X151607020Y-135647020D01*
X151333265Y-136056722D01*
X151237135Y-136540000D01*
X151333265Y-137023278D01*
X151607020Y-137432980D01*
X151707322Y-137500000D01*
X151007107Y-137500000D01*
X150887870Y-137380763D01*
X151126735Y-137023278D01*
X151222865Y-136540000D01*
X151126735Y-136056722D01*
X150852980Y-135647020D01*
X150443278Y-135373265D01*
X150081988Y-135301400D01*
X149838012Y-135301400D01*
X149476722Y-135373265D01*
X149067020Y-135647020D01*
X148793265Y-136056722D01*
X148697135Y-136540000D01*
X148793265Y-137023278D01*
X149067020Y-137432980D01*
X149476722Y-137706735D01*
X149838012Y-137778600D01*
X149871494Y-137778600D01*
X150411625Y-138318732D01*
X150439520Y-138360480D01*
X150604910Y-138470989D01*
X150750757Y-138500000D01*
X150750758Y-138500000D01*
X150799999Y-138509795D01*
X150849240Y-138500000D01*
X158518817Y-138500000D01*
X158634331Y-138778875D01*
X159021125Y-139165669D01*
X159526495Y-139375000D01*
X160073505Y-139375000D01*
X160578875Y-139165669D01*
X160965669Y-138778875D01*
X161175000Y-138273505D01*
X161175000Y-137726495D01*
X160965669Y-137221125D01*
X160578875Y-136834331D01*
X160073505Y-136625000D01*
X159526495Y-136625000D01*
X159021125Y-136834331D01*
X158634331Y-137221125D01*
X158518817Y-137500000D01*
X153292678Y-137500000D01*
X153392980Y-137432980D01*
X153666735Y-137023278D01*
X153715788Y-136776673D01*
X156165966Y-134326495D01*
X158425000Y-134326495D01*
X158425000Y-134873505D01*
X158634331Y-135378875D01*
X159021125Y-135765669D01*
X159526495Y-135975000D01*
X160073505Y-135975000D01*
X160578875Y-135765669D01*
X160965669Y-135378875D01*
X161175000Y-134873505D01*
X161175000Y-134607148D01*
X163025000Y-134607148D01*
X163025000Y-135392852D01*
X163325675Y-136118748D01*
X163881252Y-136674325D01*
X164607148Y-136975000D01*
X165392852Y-136975000D01*
X166118748Y-136674325D01*
X166674325Y-136118748D01*
X166975000Y-135392852D01*
X166975000Y-134607148D01*
X166674325Y-133881252D01*
X166118748Y-133325675D01*
X165392852Y-133025000D01*
X164607148Y-133025000D01*
X163881252Y-133325675D01*
X163325675Y-133881252D01*
X163025000Y-134607148D01*
X161175000Y-134607148D01*
X161175000Y-134326495D01*
X160965669Y-133821125D01*
X160578875Y-133434331D01*
X160073505Y-133225000D01*
X159526495Y-133225000D01*
X159021125Y-133434331D01*
X158634331Y-133821125D01*
X158425000Y-134326495D01*
X156165966Y-134326495D01*
X157584667Y-132907795D01*
X157628504Y-132878504D01*
X157744539Y-132704845D01*
X157775000Y-132551706D01*
X157785285Y-132500000D01*
X157775000Y-132448294D01*
X157775000Y-130926495D01*
X158425000Y-130926495D01*
X158425000Y-131473505D01*
X158634331Y-131978875D01*
X159021125Y-132365669D01*
X159526495Y-132575000D01*
X160073505Y-132575000D01*
X160578875Y-132365669D01*
X160965669Y-131978875D01*
X161175000Y-131473505D01*
X161175000Y-130926495D01*
X160965669Y-130421125D01*
X160578875Y-130034331D01*
X160073505Y-129825000D01*
X159526495Y-129825000D01*
X159021125Y-130034331D01*
X158634331Y-130421125D01*
X158425000Y-130926495D01*
X157775000Y-130926495D01*
X157775000Y-129967461D01*
X159442461Y-128300000D01*
X162311001Y-128300000D01*
X162406075Y-128777971D01*
X162676824Y-129183176D01*
X163082029Y-129453925D01*
X163439348Y-129525000D01*
X163680652Y-129525000D01*
X164037971Y-129453925D01*
X164443176Y-129183176D01*
X164713925Y-128777971D01*
X164808999Y-128300000D01*
X164713925Y-127822029D01*
X164443176Y-127416824D01*
X164037971Y-127146075D01*
X163680652Y-127075000D01*
X163439348Y-127075000D01*
X163082029Y-127146075D01*
X162676824Y-127416824D01*
X162406075Y-127822029D01*
X162311001Y-128300000D01*
X159442461Y-128300000D01*
X165792365Y-121950097D01*
X166056722Y-122126735D01*
X166418012Y-122198600D01*
X166661988Y-122198600D01*
X167023278Y-122126735D01*
X167432980Y-121852980D01*
X167706735Y-121443278D01*
X167800010Y-120974351D01*
X167800010Y-125892883D01*
X166625240Y-127067654D01*
X165250000Y-127067654D01*
X165103683Y-127096758D01*
X164979641Y-127179641D01*
X164896758Y-127303683D01*
X164867654Y-127450000D01*
X164867654Y-129150000D01*
X164896758Y-129296317D01*
X164979641Y-129420359D01*
X165103683Y-129503242D01*
X165250000Y-129532346D01*
X166950000Y-129532346D01*
X167096317Y-129503242D01*
X167220359Y-129420359D01*
X167303242Y-129296317D01*
X167332346Y-129150000D01*
X167332346Y-127774760D01*
X168618743Y-126488364D01*
X168660490Y-126460470D01*
X168770999Y-126295080D01*
X168800010Y-126149233D01*
X168800010Y-126149232D01*
X168809805Y-126099990D01*
X168800010Y-126050749D01*
X168800010Y-110049251D01*
X168809805Y-110000010D01*
X168797152Y-109936400D01*
X168770999Y-109804920D01*
X168660490Y-109639530D01*
X168618742Y-109611635D01*
X167888376Y-108881270D01*
X167860480Y-108839520D01*
X167695090Y-108729011D01*
X167549243Y-108700000D01*
X167549241Y-108700000D01*
X167500000Y-108690205D01*
X167450759Y-108700000D01*
X165649243Y-108700000D01*
X165600000Y-108690205D01*
X165550757Y-108700000D01*
X165404910Y-108729011D01*
X165239520Y-108839520D01*
X165211625Y-108881268D01*
X164538839Y-109554054D01*
X163136400Y-109554054D01*
X162990083Y-109583158D01*
X162866041Y-109666041D01*
X162783158Y-109790083D01*
X162754054Y-109936400D01*
X162754054Y-111600000D01*
X158292459Y-111600000D01*
X158767462Y-111124998D01*
X158834266Y-111124998D01*
X159082357Y-111022235D01*
X159272237Y-110832355D01*
X159375000Y-110584264D01*
X159375000Y-110315732D01*
X159272237Y-110067641D01*
X159225000Y-110020404D01*
X159225000Y-103051706D01*
X159235285Y-103000000D01*
X159194539Y-102795155D01*
X159185259Y-102781266D01*
X159078504Y-102621496D01*
X159034668Y-102592206D01*
X158275000Y-101832539D01*
X158275000Y-101765734D01*
X158172237Y-101517643D01*
X157982357Y-101327763D01*
X157734266Y-101225000D01*
X157667462Y-101225000D01*
X156907797Y-100465335D01*
X156878504Y-100421496D01*
X156704845Y-100305461D01*
X156551706Y-100275000D01*
X156500000Y-100264715D01*
X156448294Y-100275000D01*
X149229594Y-100275000D01*
X149182357Y-100227763D01*
X149156731Y-100217148D01*
X149948879Y-99425000D01*
X153845024Y-99425000D01*
X153965734Y-99475000D01*
X154234266Y-99475000D01*
X154482357Y-99372237D01*
X154672237Y-99182357D01*
X154695995Y-99125000D01*
X169550001Y-99125000D01*
X169550000Y-139550000D01*
X100450000Y-139550000D01*
X100450000Y-134607148D01*
X103025000Y-134607148D01*
X103025000Y-135392852D01*
X103325675Y-136118748D01*
X103881252Y-136674325D01*
X104607148Y-136975000D01*
X105392852Y-136975000D01*
X106118748Y-136674325D01*
X106253073Y-136540000D01*
X146157135Y-136540000D01*
X146253265Y-137023278D01*
X146527020Y-137432980D01*
X146936722Y-137706735D01*
X147298012Y-137778600D01*
X147541988Y-137778600D01*
X147903278Y-137706735D01*
X148312980Y-137432980D01*
X148586735Y-137023278D01*
X148682865Y-136540000D01*
X148586735Y-136056722D01*
X148312980Y-135647020D01*
X147903278Y-135373265D01*
X147541988Y-135301400D01*
X147298012Y-135301400D01*
X146936722Y-135373265D01*
X146527020Y-135647020D01*
X146253265Y-136056722D01*
X146157135Y-136540000D01*
X106253073Y-136540000D01*
X106674325Y-136118748D01*
X106970468Y-135403793D01*
X113162273Y-135403793D01*
X113267812Y-135617951D01*
X113794204Y-135828397D01*
X114361060Y-135821383D01*
X114852188Y-135617951D01*
X114957727Y-135403793D01*
X114060000Y-134506066D01*
X113162273Y-135403793D01*
X106970468Y-135403793D01*
X106975000Y-135392852D01*
X106975000Y-134607148D01*
X106779101Y-134134204D01*
X112631603Y-134134204D01*
X112638617Y-134701060D01*
X112842049Y-135192188D01*
X113056207Y-135297727D01*
X113953934Y-134400000D01*
X114166066Y-134400000D01*
X115063793Y-135297727D01*
X115277951Y-135192188D01*
X115488397Y-134665796D01*
X115483566Y-134275317D01*
X146161149Y-134275317D01*
X146362333Y-134736101D01*
X146724537Y-135084820D01*
X147144684Y-135258845D01*
X147345000Y-135179969D01*
X147345000Y-134075000D01*
X146239828Y-134075000D01*
X146161149Y-134275317D01*
X115483566Y-134275317D01*
X115481383Y-134098940D01*
X115277951Y-133607812D01*
X115063793Y-133502273D01*
X114166066Y-134400000D01*
X113953934Y-134400000D01*
X113056207Y-133502273D01*
X112842049Y-133607812D01*
X112631603Y-134134204D01*
X106779101Y-134134204D01*
X106674325Y-133881252D01*
X106189280Y-133396207D01*
X113162273Y-133396207D01*
X114060000Y-134293934D01*
X114957727Y-133396207D01*
X114852188Y-133182049D01*
X114325796Y-132971603D01*
X113758940Y-132978617D01*
X113267812Y-133182049D01*
X113162273Y-133396207D01*
X106189280Y-133396207D01*
X106118748Y-133325675D01*
X105392852Y-133025000D01*
X104607148Y-133025000D01*
X103881252Y-133325675D01*
X103325675Y-133881252D01*
X103025000Y-134607148D01*
X100450000Y-134607148D01*
X100450000Y-131652175D01*
X118550000Y-131652175D01*
X118550000Y-132447825D01*
X118854482Y-133182909D01*
X119417091Y-133745518D01*
X120152175Y-134050000D01*
X120947825Y-134050000D01*
X121682909Y-133745518D01*
X122245518Y-133182909D01*
X122550000Y-132447825D01*
X122550000Y-131652175D01*
X126170000Y-131652175D01*
X126170000Y-132447825D01*
X126474482Y-133182909D01*
X127037091Y-133745518D01*
X127772175Y-134050000D01*
X128567825Y-134050000D01*
X129302909Y-133745518D01*
X129865518Y-133182909D01*
X130110000Y-132592678D01*
X130354482Y-133182909D01*
X130917091Y-133745518D01*
X131652175Y-134050000D01*
X132447825Y-134050000D01*
X133182909Y-133745518D01*
X133745518Y-133182909D01*
X134050000Y-132447825D01*
X134050000Y-131652175D01*
X137670000Y-131652175D01*
X137670000Y-132447825D01*
X137974482Y-133182909D01*
X138537091Y-133745518D01*
X139272175Y-134050000D01*
X140067825Y-134050000D01*
X140802909Y-133745518D01*
X140823744Y-133724683D01*
X146161149Y-133724683D01*
X146239828Y-133925000D01*
X147345000Y-133925000D01*
X147345000Y-132820031D01*
X147495000Y-132820031D01*
X147495000Y-133925000D01*
X147515000Y-133925000D01*
X147515000Y-134075000D01*
X147495000Y-134075000D01*
X147495000Y-135179969D01*
X147695316Y-135258845D01*
X148115463Y-135084820D01*
X148477667Y-134736101D01*
X148678851Y-134275317D01*
X148600173Y-134075002D01*
X148708600Y-134075002D01*
X148708600Y-134057638D01*
X148793265Y-134483278D01*
X149067020Y-134892980D01*
X149476722Y-135166735D01*
X149838012Y-135238600D01*
X150081988Y-135238600D01*
X150443278Y-135166735D01*
X150852980Y-134892980D01*
X151126735Y-134483278D01*
X151222865Y-134000000D01*
X151126735Y-133516722D01*
X150872612Y-133136400D01*
X151254054Y-133136400D01*
X151254054Y-134863600D01*
X151283158Y-135009917D01*
X151366041Y-135133959D01*
X151490083Y-135216842D01*
X151636400Y-135245946D01*
X153363600Y-135245946D01*
X153509917Y-135216842D01*
X153633959Y-135133959D01*
X153716842Y-135009917D01*
X153745946Y-134863600D01*
X153745946Y-133136400D01*
X153716842Y-132990083D01*
X153633959Y-132866041D01*
X153509917Y-132783158D01*
X153363600Y-132754054D01*
X151636400Y-132754054D01*
X151490083Y-132783158D01*
X151366041Y-132866041D01*
X151283158Y-132990083D01*
X151254054Y-133136400D01*
X150872612Y-133136400D01*
X150852980Y-133107020D01*
X150443278Y-132833265D01*
X150081988Y-132761400D01*
X149838012Y-132761400D01*
X149476722Y-132833265D01*
X149067020Y-133107020D01*
X148793265Y-133516722D01*
X148708600Y-133942362D01*
X148708600Y-133924998D01*
X148600173Y-133924998D01*
X148678851Y-133724683D01*
X148477667Y-133263899D01*
X148115463Y-132915180D01*
X147695316Y-132741155D01*
X147495000Y-132820031D01*
X147345000Y-132820031D01*
X147144684Y-132741155D01*
X146724537Y-132915180D01*
X146362333Y-133263899D01*
X146161149Y-133724683D01*
X140823744Y-133724683D01*
X141365518Y-133182909D01*
X141670000Y-132447825D01*
X141670000Y-131652175D01*
X141365518Y-130917091D01*
X140802909Y-130354482D01*
X140067825Y-130050000D01*
X139272175Y-130050000D01*
X138537091Y-130354482D01*
X137974482Y-130917091D01*
X137670000Y-131652175D01*
X134050000Y-131652175D01*
X133745518Y-130917091D01*
X133182909Y-130354482D01*
X132447825Y-130050000D01*
X131652175Y-130050000D01*
X130917091Y-130354482D01*
X130354482Y-130917091D01*
X130110000Y-131507322D01*
X129865518Y-130917091D01*
X129302909Y-130354482D01*
X128567825Y-130050000D01*
X127772175Y-130050000D01*
X127037091Y-130354482D01*
X126474482Y-130917091D01*
X126170000Y-131652175D01*
X122550000Y-131652175D01*
X122245518Y-130917091D01*
X121682909Y-130354482D01*
X120947825Y-130050000D01*
X120152175Y-130050000D01*
X119417091Y-130354482D01*
X118854482Y-130917091D01*
X118550000Y-131652175D01*
X100450000Y-131652175D01*
X100450000Y-123059336D01*
X101746730Y-123059336D01*
X101827858Y-123252722D01*
X102281882Y-123429806D01*
X102769111Y-123419662D01*
X103172142Y-123252722D01*
X103253270Y-123059336D01*
X102500000Y-122306066D01*
X101746730Y-123059336D01*
X100450000Y-123059336D01*
X100450000Y-121981882D01*
X101270194Y-121981882D01*
X101280338Y-122469111D01*
X101447278Y-122872142D01*
X101640664Y-122953270D01*
X102393934Y-122200000D01*
X102606066Y-122200000D01*
X103359336Y-122953270D01*
X103522936Y-122884637D01*
X103834416Y-123196117D01*
X104000001Y-123264704D01*
X104000000Y-124485029D01*
X104000001Y-124485034D01*
X104000001Y-124568817D01*
X103721125Y-124684331D01*
X103334331Y-125071125D01*
X103125000Y-125576495D01*
X103125000Y-126123505D01*
X103334331Y-126628875D01*
X103721125Y-127015669D01*
X104226495Y-127225000D01*
X104773505Y-127225000D01*
X105278875Y-127015669D01*
X105662969Y-126631575D01*
X121634491Y-126631575D01*
X121727827Y-126835347D01*
X122218039Y-127029114D01*
X122745087Y-127020536D01*
X123192173Y-126835347D01*
X123285509Y-126631575D01*
X122460000Y-125806066D01*
X121634491Y-126631575D01*
X105662969Y-126631575D01*
X105665669Y-126628875D01*
X105875000Y-126123505D01*
X105875000Y-125576495D01*
X105825934Y-125458039D01*
X121130886Y-125458039D01*
X121139464Y-125985087D01*
X121324653Y-126432173D01*
X121528425Y-126525509D01*
X122353934Y-125700000D01*
X122566066Y-125700000D01*
X123391575Y-126525509D01*
X123595347Y-126432173D01*
X123755450Y-126027127D01*
X123919107Y-126422230D01*
X124277770Y-126780893D01*
X124746387Y-126975000D01*
X125253613Y-126975000D01*
X125722230Y-126780893D01*
X125871548Y-126631575D01*
X133134491Y-126631575D01*
X133227827Y-126835347D01*
X133718039Y-127029114D01*
X134245087Y-127020536D01*
X134692173Y-126835347D01*
X134785509Y-126631575D01*
X133960000Y-125806066D01*
X133134491Y-126631575D01*
X125871548Y-126631575D01*
X126080893Y-126422230D01*
X126275000Y-125953613D01*
X126275000Y-125458039D01*
X132630886Y-125458039D01*
X132639464Y-125985087D01*
X132824653Y-126432173D01*
X133028425Y-126525509D01*
X133853934Y-125700000D01*
X133028425Y-124874491D01*
X132824653Y-124967827D01*
X132630886Y-125458039D01*
X126275000Y-125458039D01*
X126275000Y-125446387D01*
X126080893Y-124977770D01*
X125871548Y-124768425D01*
X133134491Y-124768425D01*
X133960000Y-125593934D01*
X134785509Y-124768425D01*
X134692173Y-124564653D01*
X134201961Y-124370886D01*
X133674913Y-124379464D01*
X133227827Y-124564653D01*
X133134491Y-124768425D01*
X125871548Y-124768425D01*
X125722230Y-124619107D01*
X125253613Y-124425000D01*
X124746387Y-124425000D01*
X124277770Y-124619107D01*
X123919107Y-124977770D01*
X123759286Y-125363612D01*
X123595347Y-124967827D01*
X123391575Y-124874491D01*
X122566066Y-125700000D01*
X122353934Y-125700000D01*
X121528425Y-124874491D01*
X121324653Y-124967827D01*
X121130886Y-125458039D01*
X105825934Y-125458039D01*
X105665669Y-125071125D01*
X105362969Y-124768425D01*
X121634491Y-124768425D01*
X122460000Y-125593934D01*
X123285509Y-124768425D01*
X123192173Y-124564653D01*
X122701961Y-124370886D01*
X122174913Y-124379464D01*
X121727827Y-124564653D01*
X121634491Y-124768425D01*
X105362969Y-124768425D01*
X105278875Y-124684331D01*
X105000000Y-124568817D01*
X105000000Y-123264704D01*
X105165584Y-123196117D01*
X105496117Y-122865584D01*
X105675000Y-122433722D01*
X105675000Y-121966278D01*
X105658189Y-121925693D01*
X113057387Y-114526495D01*
X119675000Y-114526495D01*
X119675000Y-115073505D01*
X119884331Y-115578875D01*
X120271125Y-115965669D01*
X120776495Y-116175000D01*
X121323505Y-116175000D01*
X121828875Y-115965669D01*
X122215669Y-115578875D01*
X122425000Y-115073505D01*
X122425000Y-114526495D01*
X122215669Y-114021125D01*
X121828875Y-113634331D01*
X121323505Y-113425000D01*
X120776495Y-113425000D01*
X120271125Y-113634331D01*
X119884331Y-114021125D01*
X119675000Y-114526495D01*
X113057387Y-114526495D01*
X116258883Y-111325000D01*
X118945024Y-111325000D01*
X119065734Y-111375000D01*
X119334266Y-111375000D01*
X119582357Y-111272237D01*
X119772237Y-111082357D01*
X119875000Y-110834266D01*
X119875000Y-110565734D01*
X119772237Y-110317643D01*
X119582357Y-110127763D01*
X119334266Y-110025000D01*
X119065734Y-110025000D01*
X118945024Y-110075000D01*
X116061555Y-110075000D01*
X116000000Y-110062756D01*
X115938445Y-110075000D01*
X115756137Y-110111263D01*
X115549400Y-110249400D01*
X115514529Y-110301588D01*
X104774307Y-121041811D01*
X104733722Y-121025000D01*
X104266278Y-121025000D01*
X103834416Y-121203883D01*
X103522936Y-121515363D01*
X103359336Y-121446730D01*
X102606066Y-122200000D01*
X102393934Y-122200000D01*
X101640664Y-121446730D01*
X101447278Y-121527858D01*
X101270194Y-121981882D01*
X100450000Y-121981882D01*
X100450000Y-121340664D01*
X101746730Y-121340664D01*
X102500000Y-122093934D01*
X103253270Y-121340664D01*
X103172142Y-121147278D01*
X102718118Y-120970194D01*
X102230889Y-120980338D01*
X101827858Y-121147278D01*
X101746730Y-121340664D01*
X100450000Y-121340664D01*
X100450000Y-110526495D01*
X106525000Y-110526495D01*
X106525000Y-111073505D01*
X106734331Y-111578875D01*
X107121125Y-111965669D01*
X107626495Y-112175000D01*
X108173505Y-112175000D01*
X108678875Y-111965669D01*
X109065669Y-111578875D01*
X109275000Y-111073505D01*
X109275000Y-110526495D01*
X109065669Y-110021125D01*
X108678875Y-109634331D01*
X108173505Y-109425000D01*
X107626495Y-109425000D01*
X107121125Y-109634331D01*
X106734331Y-110021125D01*
X106525000Y-110526495D01*
X100450000Y-110526495D01*
X100450000Y-99125000D01*
X112948224Y-99125000D01*
X123911612Y-110088388D01*
X123911612Y-110088388D01*
G37*
X123911612Y-110088388D02*
X123952165Y-110115485D01*
X124000000Y-110125000D01*
X137000000Y-110125000D01*
X137047835Y-110115485D01*
X137088388Y-110088388D01*
X148051776Y-99125000D01*
X148481113Y-99125000D01*
X138501591Y-109104523D01*
X138449400Y-109139396D01*
X138318374Y-109335492D01*
X138311263Y-109346134D01*
X138262756Y-109589996D01*
X138275000Y-109651551D01*
X138275001Y-111914184D01*
X138275000Y-111914189D01*
X138275000Y-112145031D01*
X138225000Y-112265741D01*
X138225000Y-112534273D01*
X138327763Y-112782364D01*
X138517643Y-112972244D01*
X138765734Y-113075007D01*
X139034266Y-113075007D01*
X139282357Y-112972244D01*
X139472237Y-112782364D01*
X139575000Y-112534273D01*
X139575000Y-112265741D01*
X139525000Y-112145031D01*
X139525000Y-109848878D01*
X140825000Y-108548878D01*
X140825000Y-108773505D01*
X141034331Y-109278875D01*
X141421125Y-109665669D01*
X141926495Y-109875000D01*
X142473505Y-109875000D01*
X142978875Y-109665669D01*
X143365669Y-109278875D01*
X143575000Y-108773505D01*
X143575000Y-108226495D01*
X143365669Y-107721125D01*
X142978875Y-107334331D01*
X142473505Y-107125000D01*
X142248878Y-107125000D01*
X145475000Y-103898878D01*
X145475001Y-108824026D01*
X145475000Y-108824031D01*
X145475000Y-108870406D01*
X145427763Y-108917643D01*
X145325000Y-109165734D01*
X145325000Y-109432538D01*
X142975000Y-111782539D01*
X142975000Y-111526495D01*
X142765669Y-111021125D01*
X142378875Y-110634331D01*
X141873505Y-110425000D01*
X141326495Y-110425000D01*
X140821125Y-110634331D01*
X140434331Y-111021125D01*
X140225000Y-111526495D01*
X140225000Y-112073505D01*
X140434331Y-112578875D01*
X140821125Y-112965669D01*
X141326495Y-113175000D01*
X133251704Y-113175000D01*
X133199999Y-113164715D01*
X133148294Y-113175000D01*
X132995155Y-113205461D01*
X132821496Y-113321496D01*
X132792205Y-113365333D01*
X132432539Y-113725000D01*
X132365734Y-113725000D01*
X132117643Y-113827763D01*
X131927763Y-114017643D01*
X131825000Y-114265734D01*
X131825000Y-114534266D01*
X131927763Y-114782357D01*
X132117643Y-114972237D01*
X132365734Y-115075000D01*
X132634266Y-115075000D01*
X132882357Y-114972237D01*
X133072237Y-114782357D01*
X133175000Y-114534266D01*
X133175000Y-114467461D01*
X133417462Y-114225000D01*
X133651878Y-114225000D01*
X131857252Y-116019627D01*
X131755092Y-116019627D01*
X131507001Y-116122390D01*
X131317121Y-116312270D01*
X131214358Y-116560361D01*
X131214358Y-116828893D01*
X131317121Y-117076984D01*
X131507001Y-117266864D01*
X131535824Y-117278803D01*
X131417643Y-117327755D01*
X131227763Y-117517635D01*
X131125000Y-117765726D01*
X131125000Y-118034258D01*
X131227763Y-118282349D01*
X131417643Y-118472229D01*
X131665734Y-118574992D01*
X131934266Y-118574992D01*
X132182357Y-118472229D01*
X132372237Y-118282349D01*
X132475000Y-118034258D01*
X132475000Y-117932098D01*
X135282077Y-115125022D01*
X139130434Y-115125022D01*
X138834331Y-115421125D01*
X138625000Y-115926495D01*
X138625000Y-116473505D01*
X138740514Y-116752380D01*
X137451268Y-118041626D01*
X137409521Y-118069520D01*
X137381627Y-118111267D01*
X137299012Y-118234910D01*
X137260205Y-118430000D01*
X137270001Y-118479246D01*
X137270000Y-121987056D01*
X137047770Y-122079107D01*
X136689107Y-122437770D01*
X136553431Y-122765322D01*
X136525221Y-122623501D01*
X136298029Y-122283486D01*
X135398032Y-121383489D01*
X135398030Y-121383486D01*
X133788030Y-119773487D01*
X133711319Y-119658681D01*
X133256498Y-119354779D01*
X132855422Y-119275000D01*
X132855417Y-119275000D01*
X132720000Y-119248064D01*
X132584583Y-119275000D01*
X125735416Y-119275000D01*
X125599999Y-119248064D01*
X125464582Y-119275000D01*
X125464578Y-119275000D01*
X125063502Y-119354779D01*
X124964412Y-119420989D01*
X124723485Y-119581971D01*
X124723484Y-119581972D01*
X124608681Y-119658681D01*
X124531972Y-119773484D01*
X122853485Y-121451972D01*
X122738682Y-121528681D01*
X122661972Y-121643485D01*
X122661971Y-121643486D01*
X122604825Y-121729011D01*
X122434779Y-121983502D01*
X122355000Y-122384578D01*
X122355000Y-122384583D01*
X122328064Y-122520000D01*
X122331048Y-122535000D01*
X116739118Y-122535000D01*
X116594266Y-122475000D01*
X116325734Y-122475000D01*
X116077643Y-122577763D01*
X115887763Y-122767643D01*
X115785000Y-123015734D01*
X115785000Y-123284266D01*
X115887763Y-123532357D01*
X116077643Y-123722237D01*
X116325734Y-123825000D01*
X116594266Y-123825000D01*
X116690834Y-123785000D01*
X122493915Y-123785000D01*
X122738681Y-124151318D01*
X123193502Y-124455221D01*
X123730000Y-124561937D01*
X124266497Y-124455221D01*
X124721318Y-124151319D01*
X125025221Y-123696498D01*
X125053431Y-123554678D01*
X125189107Y-123882230D01*
X125547770Y-124240893D01*
X126016387Y-124435000D01*
X126523613Y-124435000D01*
X126992230Y-124240893D01*
X127350893Y-123882230D01*
X127545000Y-123413613D01*
X127545000Y-122906387D01*
X127350893Y-122437770D01*
X126992230Y-122079107D01*
X126861604Y-122025000D01*
X132150457Y-122025000D01*
X133453486Y-123328030D01*
X133453489Y-123328032D01*
X134353486Y-124228029D01*
X134693501Y-124455221D01*
X135230000Y-124561936D01*
X135766498Y-124455221D01*
X136221319Y-124151319D01*
X136525221Y-123696498D01*
X136553431Y-123554678D01*
X136689107Y-123882230D01*
X137047770Y-124240893D01*
X137516387Y-124435000D01*
X137857894Y-124435000D01*
X137448008Y-124844885D01*
X137222230Y-124619107D01*
X136753613Y-124425000D01*
X136246387Y-124425000D01*
X135777770Y-124619107D01*
X135419107Y-124977770D01*
X135259286Y-125363612D01*
X135095347Y-124967827D01*
X134891575Y-124874491D01*
X134066066Y-125700000D01*
X134891575Y-126525509D01*
X135095347Y-126432173D01*
X135255450Y-126027127D01*
X135419107Y-126422230D01*
X135777770Y-126780893D01*
X136246387Y-126975000D01*
X136753613Y-126975000D01*
X137222230Y-126780893D01*
X137580893Y-126422230D01*
X137775000Y-125953613D01*
X137775000Y-125932106D01*
X140318733Y-123388374D01*
X140360480Y-123360480D01*
X140470989Y-123195090D01*
X140500000Y-123049243D01*
X140500000Y-123049242D01*
X140509795Y-123000000D01*
X140500000Y-122950757D01*
X140500000Y-121031183D01*
X140778875Y-120915669D01*
X141165669Y-120528875D01*
X141375000Y-120023505D01*
X141375000Y-119476495D01*
X141165669Y-118971125D01*
X140778875Y-118584331D01*
X140273505Y-118375000D01*
X139726495Y-118375000D01*
X139221125Y-118584331D01*
X138834331Y-118971125D01*
X138625000Y-119476495D01*
X138625000Y-120023505D01*
X138834331Y-120528875D01*
X139221125Y-120915669D01*
X139500001Y-121031183D01*
X139500000Y-122792893D01*
X139045000Y-123247893D01*
X139045000Y-122906387D01*
X138850893Y-122437770D01*
X138492230Y-122079107D01*
X138270000Y-121987057D01*
X138270000Y-118637106D01*
X139447620Y-117459486D01*
X139726495Y-117575000D01*
X140273505Y-117575000D01*
X140778875Y-117365669D01*
X141165669Y-116978875D01*
X141375000Y-116473505D01*
X141375000Y-115926495D01*
X141165669Y-115421125D01*
X140869566Y-115125022D01*
X142187149Y-115125022D01*
X142236390Y-115134817D01*
X142285631Y-115125022D01*
X142285633Y-115125022D01*
X142431480Y-115096011D01*
X142596870Y-114985502D01*
X142624767Y-114943751D01*
X146800001Y-110768518D01*
X146800000Y-120340529D01*
X145845513Y-121295016D01*
X145743353Y-121295016D01*
X145495262Y-121397779D01*
X145305382Y-121587659D01*
X145202619Y-121835750D01*
X145202619Y-122104282D01*
X145305382Y-122352373D01*
X145495262Y-122542253D01*
X145743353Y-122645016D01*
X146011885Y-122645016D01*
X146259976Y-122542253D01*
X146449856Y-122352373D01*
X146552619Y-122104282D01*
X146552619Y-122002122D01*
X147250012Y-121304729D01*
X147250012Y-122714354D01*
X147217641Y-122727763D01*
X147027761Y-122917643D01*
X146924998Y-123165734D01*
X146924998Y-123434266D01*
X147027761Y-123682357D01*
X147217641Y-123872237D01*
X147465732Y-123975000D01*
X147567911Y-123975000D01*
X146881266Y-124661646D01*
X146867894Y-124675018D01*
X146765734Y-124675018D01*
X146517643Y-124777781D01*
X146327763Y-124967661D01*
X146225000Y-125215752D01*
X146225000Y-125484284D01*
X146327763Y-125732375D01*
X146517643Y-125922255D01*
X146765734Y-126025018D01*
X147034266Y-126025018D01*
X147282357Y-125922255D01*
X147472237Y-125732375D01*
X147575000Y-125484284D01*
X147575000Y-125382124D01*
X147588372Y-125368752D01*
X148618732Y-124338393D01*
X148660480Y-124310498D01*
X148770989Y-124145108D01*
X148800000Y-123999261D01*
X148800000Y-123999260D01*
X148809795Y-123950019D01*
X148800000Y-123900778D01*
X148800000Y-111707126D01*
X151932127Y-108575000D01*
X152034286Y-108575000D01*
X152282377Y-108472237D01*
X152472257Y-108282357D01*
X152575020Y-108034266D01*
X152575020Y-107765734D01*
X152472257Y-107517643D01*
X152282377Y-107327763D01*
X152034286Y-107225000D01*
X151765754Y-107225000D01*
X151539237Y-107318827D01*
X151455809Y-107117414D01*
X151265929Y-106927534D01*
X151017838Y-106824771D01*
X150749306Y-106824771D01*
X150739818Y-106828701D01*
X151143509Y-106425010D01*
X152278458Y-106425010D01*
X152350695Y-106497247D01*
X152598786Y-106600010D01*
X152867318Y-106600010D01*
X153113540Y-106498021D01*
X153127763Y-106532357D01*
X153317643Y-106722237D01*
X153565734Y-106825000D01*
X153834266Y-106825000D01*
X154082357Y-106722237D01*
X154272237Y-106532357D01*
X154375000Y-106284266D01*
X154375000Y-106015734D01*
X154272237Y-105767643D01*
X154204696Y-105700102D01*
X154170989Y-105530646D01*
X154089167Y-105408190D01*
X154060480Y-105365256D01*
X154018733Y-105337362D01*
X153662640Y-104981270D01*
X153634744Y-104939520D01*
X153469354Y-104829011D01*
X153323507Y-104800000D01*
X153323505Y-104800000D01*
X153274264Y-104790205D01*
X153225023Y-104800000D01*
X150974245Y-104800000D01*
X150925002Y-104790205D01*
X150875759Y-104800000D01*
X150729912Y-104829011D01*
X150564522Y-104939520D01*
X150536627Y-104981268D01*
X146580443Y-108937453D01*
X146572237Y-108917643D01*
X146525000Y-108870406D01*
X146525000Y-103617461D01*
X147089077Y-103053384D01*
X147111429Y-103107347D01*
X147301309Y-103297227D01*
X147549400Y-103399990D01*
X147651559Y-103399990D01*
X147670301Y-103418732D01*
X147698196Y-103460480D01*
X147863586Y-103570989D01*
X148009433Y-103600000D01*
X148009434Y-103600000D01*
X148058675Y-103609795D01*
X148107916Y-103600000D01*
X155892894Y-103600000D01*
X156900005Y-104607112D01*
X156900004Y-109145406D01*
X156827767Y-109217643D01*
X156725004Y-109465734D01*
X156725004Y-109734266D01*
X156827767Y-109982357D01*
X157017647Y-110172237D01*
X157265738Y-110275000D01*
X157534270Y-110275000D01*
X157782361Y-110172237D01*
X157972241Y-109982357D01*
X158075004Y-109734266D01*
X158075004Y-109650012D01*
X158159280Y-109650012D01*
X158175001Y-109643500D01*
X158175001Y-110020403D01*
X158127763Y-110067641D01*
X158025000Y-110315732D01*
X158025000Y-110382536D01*
X157432537Y-110975000D01*
X151854604Y-110975000D01*
X151807367Y-110927763D01*
X151559276Y-110825000D01*
X151290744Y-110825000D01*
X151042653Y-110927763D01*
X150852773Y-111117643D01*
X150750010Y-111365734D01*
X150750010Y-111634266D01*
X150852773Y-111882357D01*
X151042653Y-112072237D01*
X151290744Y-112175000D01*
X151559276Y-112175000D01*
X151807367Y-112072237D01*
X151854604Y-112025000D01*
X155067893Y-112025000D01*
X154975240Y-112117653D01*
X153850000Y-112117653D01*
X153703682Y-112146757D01*
X153579640Y-112229640D01*
X153496757Y-112353682D01*
X153467653Y-112500000D01*
X153467653Y-113500000D01*
X153475078Y-113574984D01*
X153503549Y-113643517D01*
X153496757Y-113653682D01*
X153467653Y-113800000D01*
X153467653Y-115425241D01*
X153131270Y-115761624D01*
X153089520Y-115789520D01*
X152979011Y-115954911D01*
X152955106Y-116075091D01*
X152940205Y-116150000D01*
X152950000Y-116199242D01*
X152950001Y-117950754D01*
X152940205Y-118000000D01*
X152950149Y-118049988D01*
X152979012Y-118195090D01*
X153089521Y-118360480D01*
X153131268Y-118388374D01*
X154325000Y-119582107D01*
X154325000Y-119684266D01*
X154427763Y-119932357D01*
X154617643Y-120122237D01*
X154865734Y-120225000D01*
X155134266Y-120225000D01*
X155382357Y-120122237D01*
X155572237Y-119932357D01*
X155675000Y-119684266D01*
X155675000Y-119415734D01*
X155572237Y-119167643D01*
X155382357Y-118977763D01*
X155134266Y-118875000D01*
X155032107Y-118875000D01*
X154039453Y-117882347D01*
X154975241Y-117882347D01*
X157111625Y-120018732D01*
X157139520Y-120060480D01*
X157304910Y-120170989D01*
X157386187Y-120187156D01*
X157500000Y-120209795D01*
X157549243Y-120200000D01*
X163018165Y-120200000D01*
X162833265Y-120476722D01*
X162737135Y-120960000D01*
X162833265Y-121443278D01*
X163107020Y-121852980D01*
X163516722Y-122126735D01*
X163878012Y-122198600D01*
X164058938Y-122198600D01*
X156915336Y-129342203D01*
X156871496Y-129371496D01*
X156783467Y-129503242D01*
X156755461Y-129545156D01*
X156714715Y-129750000D01*
X156725000Y-129801706D01*
X156725001Y-132282537D01*
X153373521Y-135634018D01*
X152983278Y-135373265D01*
X152621988Y-135301400D01*
X152378012Y-135301400D01*
X152016722Y-135373265D01*
X151607020Y-135647020D01*
X151333265Y-136056722D01*
X151237135Y-136540000D01*
X151333265Y-137023278D01*
X151607020Y-137432980D01*
X151707322Y-137500000D01*
X151007107Y-137500000D01*
X150887870Y-137380763D01*
X151126735Y-137023278D01*
X151222865Y-136540000D01*
X151126735Y-136056722D01*
X150852980Y-135647020D01*
X150443278Y-135373265D01*
X150081988Y-135301400D01*
X149838012Y-135301400D01*
X149476722Y-135373265D01*
X149067020Y-135647020D01*
X148793265Y-136056722D01*
X148697135Y-136540000D01*
X148793265Y-137023278D01*
X149067020Y-137432980D01*
X149476722Y-137706735D01*
X149838012Y-137778600D01*
X149871494Y-137778600D01*
X150411625Y-138318732D01*
X150439520Y-138360480D01*
X150604910Y-138470989D01*
X150750757Y-138500000D01*
X150750758Y-138500000D01*
X150799999Y-138509795D01*
X150849240Y-138500000D01*
X158518817Y-138500000D01*
X158634331Y-138778875D01*
X159021125Y-139165669D01*
X159526495Y-139375000D01*
X160073505Y-139375000D01*
X160578875Y-139165669D01*
X160965669Y-138778875D01*
X161175000Y-138273505D01*
X161175000Y-137726495D01*
X160965669Y-137221125D01*
X160578875Y-136834331D01*
X160073505Y-136625000D01*
X159526495Y-136625000D01*
X159021125Y-136834331D01*
X158634331Y-137221125D01*
X158518817Y-137500000D01*
X153292678Y-137500000D01*
X153392980Y-137432980D01*
X153666735Y-137023278D01*
X153715788Y-136776673D01*
X156165966Y-134326495D01*
X158425000Y-134326495D01*
X158425000Y-134873505D01*
X158634331Y-135378875D01*
X159021125Y-135765669D01*
X159526495Y-135975000D01*
X160073505Y-135975000D01*
X160578875Y-135765669D01*
X160965669Y-135378875D01*
X161175000Y-134873505D01*
X161175000Y-134607148D01*
X163025000Y-134607148D01*
X163025000Y-135392852D01*
X163325675Y-136118748D01*
X163881252Y-136674325D01*
X164607148Y-136975000D01*
X165392852Y-136975000D01*
X166118748Y-136674325D01*
X166674325Y-136118748D01*
X166975000Y-135392852D01*
X166975000Y-134607148D01*
X166674325Y-133881252D01*
X166118748Y-133325675D01*
X165392852Y-133025000D01*
X164607148Y-133025000D01*
X163881252Y-133325675D01*
X163325675Y-133881252D01*
X163025000Y-134607148D01*
X161175000Y-134607148D01*
X161175000Y-134326495D01*
X160965669Y-133821125D01*
X160578875Y-133434331D01*
X160073505Y-133225000D01*
X159526495Y-133225000D01*
X159021125Y-133434331D01*
X158634331Y-133821125D01*
X158425000Y-134326495D01*
X156165966Y-134326495D01*
X157584667Y-132907795D01*
X157628504Y-132878504D01*
X157744539Y-132704845D01*
X157775000Y-132551706D01*
X157785285Y-132500000D01*
X157775000Y-132448294D01*
X157775000Y-130926495D01*
X158425000Y-130926495D01*
X158425000Y-131473505D01*
X158634331Y-131978875D01*
X159021125Y-132365669D01*
X159526495Y-132575000D01*
X160073505Y-132575000D01*
X160578875Y-132365669D01*
X160965669Y-131978875D01*
X161175000Y-131473505D01*
X161175000Y-130926495D01*
X160965669Y-130421125D01*
X160578875Y-130034331D01*
X160073505Y-129825000D01*
X159526495Y-129825000D01*
X159021125Y-130034331D01*
X158634331Y-130421125D01*
X158425000Y-130926495D01*
X157775000Y-130926495D01*
X157775000Y-129967461D01*
X159442461Y-128300000D01*
X162311001Y-128300000D01*
X162406075Y-128777971D01*
X162676824Y-129183176D01*
X163082029Y-129453925D01*
X163439348Y-129525000D01*
X163680652Y-129525000D01*
X164037971Y-129453925D01*
X164443176Y-129183176D01*
X164713925Y-128777971D01*
X164808999Y-128300000D01*
X164713925Y-127822029D01*
X164443176Y-127416824D01*
X164037971Y-127146075D01*
X163680652Y-127075000D01*
X163439348Y-127075000D01*
X163082029Y-127146075D01*
X162676824Y-127416824D01*
X162406075Y-127822029D01*
X162311001Y-128300000D01*
X159442461Y-128300000D01*
X165792365Y-121950097D01*
X166056722Y-122126735D01*
X166418012Y-122198600D01*
X166661988Y-122198600D01*
X167023278Y-122126735D01*
X167432980Y-121852980D01*
X167706735Y-121443278D01*
X167800010Y-120974351D01*
X167800010Y-125892883D01*
X166625240Y-127067654D01*
X165250000Y-127067654D01*
X165103683Y-127096758D01*
X164979641Y-127179641D01*
X164896758Y-127303683D01*
X164867654Y-127450000D01*
X164867654Y-129150000D01*
X164896758Y-129296317D01*
X164979641Y-129420359D01*
X165103683Y-129503242D01*
X165250000Y-129532346D01*
X166950000Y-129532346D01*
X167096317Y-129503242D01*
X167220359Y-129420359D01*
X167303242Y-129296317D01*
X167332346Y-129150000D01*
X167332346Y-127774760D01*
X168618743Y-126488364D01*
X168660490Y-126460470D01*
X168770999Y-126295080D01*
X168800010Y-126149233D01*
X168800010Y-126149232D01*
X168809805Y-126099990D01*
X168800010Y-126050749D01*
X168800010Y-110049251D01*
X168809805Y-110000010D01*
X168797152Y-109936400D01*
X168770999Y-109804920D01*
X168660490Y-109639530D01*
X168618742Y-109611635D01*
X167888376Y-108881270D01*
X167860480Y-108839520D01*
X167695090Y-108729011D01*
X167549243Y-108700000D01*
X167549241Y-108700000D01*
X167500000Y-108690205D01*
X167450759Y-108700000D01*
X165649243Y-108700000D01*
X165600000Y-108690205D01*
X165550757Y-108700000D01*
X165404910Y-108729011D01*
X165239520Y-108839520D01*
X165211625Y-108881268D01*
X164538839Y-109554054D01*
X163136400Y-109554054D01*
X162990083Y-109583158D01*
X162866041Y-109666041D01*
X162783158Y-109790083D01*
X162754054Y-109936400D01*
X162754054Y-111600000D01*
X158292459Y-111600000D01*
X158767462Y-111124998D01*
X158834266Y-111124998D01*
X159082357Y-111022235D01*
X159272237Y-110832355D01*
X159375000Y-110584264D01*
X159375000Y-110315732D01*
X159272237Y-110067641D01*
X159225000Y-110020404D01*
X159225000Y-103051706D01*
X159235285Y-103000000D01*
X159194539Y-102795155D01*
X159185259Y-102781266D01*
X159078504Y-102621496D01*
X159034668Y-102592206D01*
X158275000Y-101832539D01*
X158275000Y-101765734D01*
X158172237Y-101517643D01*
X157982357Y-101327763D01*
X157734266Y-101225000D01*
X157667462Y-101225000D01*
X156907797Y-100465335D01*
X156878504Y-100421496D01*
X156704845Y-100305461D01*
X156551706Y-100275000D01*
X156500000Y-100264715D01*
X156448294Y-100275000D01*
X149229594Y-100275000D01*
X149182357Y-100227763D01*
X149156731Y-100217148D01*
X149948879Y-99425000D01*
X153845024Y-99425000D01*
X153965734Y-99475000D01*
X154234266Y-99475000D01*
X154482357Y-99372237D01*
X154672237Y-99182357D01*
X154695995Y-99125000D01*
X169550001Y-99125000D01*
X169550000Y-139550000D01*
X100450000Y-139550000D01*
X100450000Y-134607148D01*
X103025000Y-134607148D01*
X103025000Y-135392852D01*
X103325675Y-136118748D01*
X103881252Y-136674325D01*
X104607148Y-136975000D01*
X105392852Y-136975000D01*
X106118748Y-136674325D01*
X106253073Y-136540000D01*
X146157135Y-136540000D01*
X146253265Y-137023278D01*
X146527020Y-137432980D01*
X146936722Y-137706735D01*
X147298012Y-137778600D01*
X147541988Y-137778600D01*
X147903278Y-137706735D01*
X148312980Y-137432980D01*
X148586735Y-137023278D01*
X148682865Y-136540000D01*
X148586735Y-136056722D01*
X148312980Y-135647020D01*
X147903278Y-135373265D01*
X147541988Y-135301400D01*
X147298012Y-135301400D01*
X146936722Y-135373265D01*
X146527020Y-135647020D01*
X146253265Y-136056722D01*
X146157135Y-136540000D01*
X106253073Y-136540000D01*
X106674325Y-136118748D01*
X106970468Y-135403793D01*
X113162273Y-135403793D01*
X113267812Y-135617951D01*
X113794204Y-135828397D01*
X114361060Y-135821383D01*
X114852188Y-135617951D01*
X114957727Y-135403793D01*
X114060000Y-134506066D01*
X113162273Y-135403793D01*
X106970468Y-135403793D01*
X106975000Y-135392852D01*
X106975000Y-134607148D01*
X106779101Y-134134204D01*
X112631603Y-134134204D01*
X112638617Y-134701060D01*
X112842049Y-135192188D01*
X113056207Y-135297727D01*
X113953934Y-134400000D01*
X114166066Y-134400000D01*
X115063793Y-135297727D01*
X115277951Y-135192188D01*
X115488397Y-134665796D01*
X115483566Y-134275317D01*
X146161149Y-134275317D01*
X146362333Y-134736101D01*
X146724537Y-135084820D01*
X147144684Y-135258845D01*
X147345000Y-135179969D01*
X147345000Y-134075000D01*
X146239828Y-134075000D01*
X146161149Y-134275317D01*
X115483566Y-134275317D01*
X115481383Y-134098940D01*
X115277951Y-133607812D01*
X115063793Y-133502273D01*
X114166066Y-134400000D01*
X113953934Y-134400000D01*
X113056207Y-133502273D01*
X112842049Y-133607812D01*
X112631603Y-134134204D01*
X106779101Y-134134204D01*
X106674325Y-133881252D01*
X106189280Y-133396207D01*
X113162273Y-133396207D01*
X114060000Y-134293934D01*
X114957727Y-133396207D01*
X114852188Y-133182049D01*
X114325796Y-132971603D01*
X113758940Y-132978617D01*
X113267812Y-133182049D01*
X113162273Y-133396207D01*
X106189280Y-133396207D01*
X106118748Y-133325675D01*
X105392852Y-133025000D01*
X104607148Y-133025000D01*
X103881252Y-133325675D01*
X103325675Y-133881252D01*
X103025000Y-134607148D01*
X100450000Y-134607148D01*
X100450000Y-131652175D01*
X118550000Y-131652175D01*
X118550000Y-132447825D01*
X118854482Y-133182909D01*
X119417091Y-133745518D01*
X120152175Y-134050000D01*
X120947825Y-134050000D01*
X121682909Y-133745518D01*
X122245518Y-133182909D01*
X122550000Y-132447825D01*
X122550000Y-131652175D01*
X126170000Y-131652175D01*
X126170000Y-132447825D01*
X126474482Y-133182909D01*
X127037091Y-133745518D01*
X127772175Y-134050000D01*
X128567825Y-134050000D01*
X129302909Y-133745518D01*
X129865518Y-133182909D01*
X130110000Y-132592678D01*
X130354482Y-133182909D01*
X130917091Y-133745518D01*
X131652175Y-134050000D01*
X132447825Y-134050000D01*
X133182909Y-133745518D01*
X133745518Y-133182909D01*
X134050000Y-132447825D01*
X134050000Y-131652175D01*
X137670000Y-131652175D01*
X137670000Y-132447825D01*
X137974482Y-133182909D01*
X138537091Y-133745518D01*
X139272175Y-134050000D01*
X140067825Y-134050000D01*
X140802909Y-133745518D01*
X140823744Y-133724683D01*
X146161149Y-133724683D01*
X146239828Y-133925000D01*
X147345000Y-133925000D01*
X147345000Y-132820031D01*
X147495000Y-132820031D01*
X147495000Y-133925000D01*
X147515000Y-133925000D01*
X147515000Y-134075000D01*
X147495000Y-134075000D01*
X147495000Y-135179969D01*
X147695316Y-135258845D01*
X148115463Y-135084820D01*
X148477667Y-134736101D01*
X148678851Y-134275317D01*
X148600173Y-134075002D01*
X148708600Y-134075002D01*
X148708600Y-134057638D01*
X148793265Y-134483278D01*
X149067020Y-134892980D01*
X149476722Y-135166735D01*
X149838012Y-135238600D01*
X150081988Y-135238600D01*
X150443278Y-135166735D01*
X150852980Y-134892980D01*
X151126735Y-134483278D01*
X151222865Y-134000000D01*
X151126735Y-133516722D01*
X150872612Y-133136400D01*
X151254054Y-133136400D01*
X151254054Y-134863600D01*
X151283158Y-135009917D01*
X151366041Y-135133959D01*
X151490083Y-135216842D01*
X151636400Y-135245946D01*
X153363600Y-135245946D01*
X153509917Y-135216842D01*
X153633959Y-135133959D01*
X153716842Y-135009917D01*
X153745946Y-134863600D01*
X153745946Y-133136400D01*
X153716842Y-132990083D01*
X153633959Y-132866041D01*
X153509917Y-132783158D01*
X153363600Y-132754054D01*
X151636400Y-132754054D01*
X151490083Y-132783158D01*
X151366041Y-132866041D01*
X151283158Y-132990083D01*
X151254054Y-133136400D01*
X150872612Y-133136400D01*
X150852980Y-133107020D01*
X150443278Y-132833265D01*
X150081988Y-132761400D01*
X149838012Y-132761400D01*
X149476722Y-132833265D01*
X149067020Y-133107020D01*
X148793265Y-133516722D01*
X148708600Y-133942362D01*
X148708600Y-133924998D01*
X148600173Y-133924998D01*
X148678851Y-133724683D01*
X148477667Y-133263899D01*
X148115463Y-132915180D01*
X147695316Y-132741155D01*
X147495000Y-132820031D01*
X147345000Y-132820031D01*
X147144684Y-132741155D01*
X146724537Y-132915180D01*
X146362333Y-133263899D01*
X146161149Y-133724683D01*
X140823744Y-133724683D01*
X141365518Y-133182909D01*
X141670000Y-132447825D01*
X141670000Y-131652175D01*
X141365518Y-130917091D01*
X140802909Y-130354482D01*
X140067825Y-130050000D01*
X139272175Y-130050000D01*
X138537091Y-130354482D01*
X137974482Y-130917091D01*
X137670000Y-131652175D01*
X134050000Y-131652175D01*
X133745518Y-130917091D01*
X133182909Y-130354482D01*
X132447825Y-130050000D01*
X131652175Y-130050000D01*
X130917091Y-130354482D01*
X130354482Y-130917091D01*
X130110000Y-131507322D01*
X129865518Y-130917091D01*
X129302909Y-130354482D01*
X128567825Y-130050000D01*
X127772175Y-130050000D01*
X127037091Y-130354482D01*
X126474482Y-130917091D01*
X126170000Y-131652175D01*
X122550000Y-131652175D01*
X122245518Y-130917091D01*
X121682909Y-130354482D01*
X120947825Y-130050000D01*
X120152175Y-130050000D01*
X119417091Y-130354482D01*
X118854482Y-130917091D01*
X118550000Y-131652175D01*
X100450000Y-131652175D01*
X100450000Y-123059336D01*
X101746730Y-123059336D01*
X101827858Y-123252722D01*
X102281882Y-123429806D01*
X102769111Y-123419662D01*
X103172142Y-123252722D01*
X103253270Y-123059336D01*
X102500000Y-122306066D01*
X101746730Y-123059336D01*
X100450000Y-123059336D01*
X100450000Y-121981882D01*
X101270194Y-121981882D01*
X101280338Y-122469111D01*
X101447278Y-122872142D01*
X101640664Y-122953270D01*
X102393934Y-122200000D01*
X102606066Y-122200000D01*
X103359336Y-122953270D01*
X103522936Y-122884637D01*
X103834416Y-123196117D01*
X104000001Y-123264704D01*
X104000000Y-124485029D01*
X104000001Y-124485034D01*
X104000001Y-124568817D01*
X103721125Y-124684331D01*
X103334331Y-125071125D01*
X103125000Y-125576495D01*
X103125000Y-126123505D01*
X103334331Y-126628875D01*
X103721125Y-127015669D01*
X104226495Y-127225000D01*
X104773505Y-127225000D01*
X105278875Y-127015669D01*
X105662969Y-126631575D01*
X121634491Y-126631575D01*
X121727827Y-126835347D01*
X122218039Y-127029114D01*
X122745087Y-127020536D01*
X123192173Y-126835347D01*
X123285509Y-126631575D01*
X122460000Y-125806066D01*
X121634491Y-126631575D01*
X105662969Y-126631575D01*
X105665669Y-126628875D01*
X105875000Y-126123505D01*
X105875000Y-125576495D01*
X105825934Y-125458039D01*
X121130886Y-125458039D01*
X121139464Y-125985087D01*
X121324653Y-126432173D01*
X121528425Y-126525509D01*
X122353934Y-125700000D01*
X122566066Y-125700000D01*
X123391575Y-126525509D01*
X123595347Y-126432173D01*
X123755450Y-126027127D01*
X123919107Y-126422230D01*
X124277770Y-126780893D01*
X124746387Y-126975000D01*
X125253613Y-126975000D01*
X125722230Y-126780893D01*
X125871548Y-126631575D01*
X133134491Y-126631575D01*
X133227827Y-126835347D01*
X133718039Y-127029114D01*
X134245087Y-127020536D01*
X134692173Y-126835347D01*
X134785509Y-126631575D01*
X133960000Y-125806066D01*
X133134491Y-126631575D01*
X125871548Y-126631575D01*
X126080893Y-126422230D01*
X126275000Y-125953613D01*
X126275000Y-125458039D01*
X132630886Y-125458039D01*
X132639464Y-125985087D01*
X132824653Y-126432173D01*
X133028425Y-126525509D01*
X133853934Y-125700000D01*
X133028425Y-124874491D01*
X132824653Y-124967827D01*
X132630886Y-125458039D01*
X126275000Y-125458039D01*
X126275000Y-125446387D01*
X126080893Y-124977770D01*
X125871548Y-124768425D01*
X133134491Y-124768425D01*
X133960000Y-125593934D01*
X134785509Y-124768425D01*
X134692173Y-124564653D01*
X134201961Y-124370886D01*
X133674913Y-124379464D01*
X133227827Y-124564653D01*
X133134491Y-124768425D01*
X125871548Y-124768425D01*
X125722230Y-124619107D01*
X125253613Y-124425000D01*
X124746387Y-124425000D01*
X124277770Y-124619107D01*
X123919107Y-124977770D01*
X123759286Y-125363612D01*
X123595347Y-124967827D01*
X123391575Y-124874491D01*
X122566066Y-125700000D01*
X122353934Y-125700000D01*
X121528425Y-124874491D01*
X121324653Y-124967827D01*
X121130886Y-125458039D01*
X105825934Y-125458039D01*
X105665669Y-125071125D01*
X105362969Y-124768425D01*
X121634491Y-124768425D01*
X122460000Y-125593934D01*
X123285509Y-124768425D01*
X123192173Y-124564653D01*
X122701961Y-124370886D01*
X122174913Y-124379464D01*
X121727827Y-124564653D01*
X121634491Y-124768425D01*
X105362969Y-124768425D01*
X105278875Y-124684331D01*
X105000000Y-124568817D01*
X105000000Y-123264704D01*
X105165584Y-123196117D01*
X105496117Y-122865584D01*
X105675000Y-122433722D01*
X105675000Y-121966278D01*
X105658189Y-121925693D01*
X113057387Y-114526495D01*
X119675000Y-114526495D01*
X119675000Y-115073505D01*
X119884331Y-115578875D01*
X120271125Y-115965669D01*
X120776495Y-116175000D01*
X121323505Y-116175000D01*
X121828875Y-115965669D01*
X122215669Y-115578875D01*
X122425000Y-115073505D01*
X122425000Y-114526495D01*
X122215669Y-114021125D01*
X121828875Y-113634331D01*
X121323505Y-113425000D01*
X120776495Y-113425000D01*
X120271125Y-113634331D01*
X119884331Y-114021125D01*
X119675000Y-114526495D01*
X113057387Y-114526495D01*
X116258883Y-111325000D01*
X118945024Y-111325000D01*
X119065734Y-111375000D01*
X119334266Y-111375000D01*
X119582357Y-111272237D01*
X119772237Y-111082357D01*
X119875000Y-110834266D01*
X119875000Y-110565734D01*
X119772237Y-110317643D01*
X119582357Y-110127763D01*
X119334266Y-110025000D01*
X119065734Y-110025000D01*
X118945024Y-110075000D01*
X116061555Y-110075000D01*
X116000000Y-110062756D01*
X115938445Y-110075000D01*
X115756137Y-110111263D01*
X115549400Y-110249400D01*
X115514529Y-110301588D01*
X104774307Y-121041811D01*
X104733722Y-121025000D01*
X104266278Y-121025000D01*
X103834416Y-121203883D01*
X103522936Y-121515363D01*
X103359336Y-121446730D01*
X102606066Y-122200000D01*
X102393934Y-122200000D01*
X101640664Y-121446730D01*
X101447278Y-121527858D01*
X101270194Y-121981882D01*
X100450000Y-121981882D01*
X100450000Y-121340664D01*
X101746730Y-121340664D01*
X102500000Y-122093934D01*
X103253270Y-121340664D01*
X103172142Y-121147278D01*
X102718118Y-120970194D01*
X102230889Y-120980338D01*
X101827858Y-121147278D01*
X101746730Y-121340664D01*
X100450000Y-121340664D01*
X100450000Y-110526495D01*
X106525000Y-110526495D01*
X106525000Y-111073505D01*
X106734331Y-111578875D01*
X107121125Y-111965669D01*
X107626495Y-112175000D01*
X108173505Y-112175000D01*
X108678875Y-111965669D01*
X109065669Y-111578875D01*
X109275000Y-111073505D01*
X109275000Y-110526495D01*
X109065669Y-110021125D01*
X108678875Y-109634331D01*
X108173505Y-109425000D01*
X107626495Y-109425000D01*
X107121125Y-109634331D01*
X106734331Y-110021125D01*
X106525000Y-110526495D01*
X100450000Y-110526495D01*
X100450000Y-99125000D01*
X112948224Y-99125000D01*
X123911612Y-110088388D01*
G36*
X167800011Y-113325651D02*
X167706735Y-112856722D01*
X167432980Y-112447020D01*
X167023278Y-112173265D01*
X166661988Y-112101400D01*
X166418012Y-112101400D01*
X166056722Y-112173265D01*
X165647020Y-112447020D01*
X165373265Y-112856722D01*
X165277135Y-113340000D01*
X165373265Y-113823278D01*
X165647020Y-114232980D01*
X166056722Y-114506735D01*
X166418012Y-114578600D01*
X166661988Y-114578600D01*
X167003552Y-114510659D01*
X167084865Y-114591972D01*
X167084868Y-114591974D01*
X167350001Y-114857108D01*
X167350001Y-114931575D01*
X167023278Y-114713265D01*
X166661988Y-114641400D01*
X166418012Y-114641400D01*
X166056722Y-114713265D01*
X165647020Y-114987020D01*
X165373265Y-115396722D01*
X165277135Y-115880000D01*
X165369341Y-116343553D01*
X165357670Y-116355224D01*
X165357667Y-116355226D01*
X165062894Y-116650000D01*
X164975153Y-116650000D01*
X165166735Y-116363278D01*
X165262865Y-115880000D01*
X165166735Y-115396722D01*
X164892980Y-114987020D01*
X164483278Y-114713265D01*
X164121988Y-114641400D01*
X163878012Y-114641400D01*
X163516722Y-114713265D01*
X163107020Y-114987020D01*
X162927961Y-115255000D01*
X162840239Y-115255000D01*
X162778685Y-115242756D01*
X162717131Y-115255000D01*
X162534823Y-115291263D01*
X162328086Y-115429400D01*
X162293215Y-115481588D01*
X161399804Y-116375000D01*
X161054144Y-116375000D01*
X161046451Y-116356483D01*
X161053243Y-116346318D01*
X161082347Y-116200000D01*
X161082347Y-113800000D01*
X161041250Y-113664266D01*
X161053243Y-113646318D01*
X161057483Y-113625000D01*
X162793825Y-113625000D01*
X162833265Y-113823278D01*
X163107020Y-114232980D01*
X163516722Y-114506735D01*
X163878012Y-114578600D01*
X164121988Y-114578600D01*
X164483278Y-114506735D01*
X164892980Y-114232980D01*
X165166735Y-113823278D01*
X165262865Y-113340000D01*
X165166735Y-112856722D01*
X164995198Y-112600000D01*
X165190759Y-112600000D01*
X165240000Y-112609795D01*
X165289241Y-112600000D01*
X165289243Y-112600000D01*
X165435090Y-112570989D01*
X165600480Y-112460480D01*
X165628376Y-112418730D01*
X166064774Y-111982333D01*
X166064776Y-111982330D01*
X166076447Y-111970659D01*
X166418012Y-112038600D01*
X166661988Y-112038600D01*
X167023278Y-111966735D01*
X167432980Y-111692980D01*
X167706735Y-111283278D01*
X167800011Y-110814348D01*
X167800011Y-113325651D01*
X167800011Y-113325651D01*
G37*
X167800011Y-113325651D02*
X167706735Y-112856722D01*
X167432980Y-112447020D01*
X167023278Y-112173265D01*
X166661988Y-112101400D01*
X166418012Y-112101400D01*
X166056722Y-112173265D01*
X165647020Y-112447020D01*
X165373265Y-112856722D01*
X165277135Y-113340000D01*
X165373265Y-113823278D01*
X165647020Y-114232980D01*
X166056722Y-114506735D01*
X166418012Y-114578600D01*
X166661988Y-114578600D01*
X167003552Y-114510659D01*
X167084865Y-114591972D01*
X167084868Y-114591974D01*
X167350001Y-114857108D01*
X167350001Y-114931575D01*
X167023278Y-114713265D01*
X166661988Y-114641400D01*
X166418012Y-114641400D01*
X166056722Y-114713265D01*
X165647020Y-114987020D01*
X165373265Y-115396722D01*
X165277135Y-115880000D01*
X165369341Y-116343553D01*
X165357670Y-116355224D01*
X165357667Y-116355226D01*
X165062894Y-116650000D01*
X164975153Y-116650000D01*
X165166735Y-116363278D01*
X165262865Y-115880000D01*
X165166735Y-115396722D01*
X164892980Y-114987020D01*
X164483278Y-114713265D01*
X164121988Y-114641400D01*
X163878012Y-114641400D01*
X163516722Y-114713265D01*
X163107020Y-114987020D01*
X162927961Y-115255000D01*
X162840239Y-115255000D01*
X162778685Y-115242756D01*
X162717131Y-115255000D01*
X162534823Y-115291263D01*
X162328086Y-115429400D01*
X162293215Y-115481588D01*
X161399804Y-116375000D01*
X161054144Y-116375000D01*
X161046451Y-116356483D01*
X161053243Y-116346318D01*
X161082347Y-116200000D01*
X161082347Y-113800000D01*
X161041250Y-113664266D01*
X161053243Y-113646318D01*
X161057483Y-113625000D01*
X162793825Y-113625000D01*
X162833265Y-113823278D01*
X163107020Y-114232980D01*
X163516722Y-114506735D01*
X163878012Y-114578600D01*
X164121988Y-114578600D01*
X164483278Y-114506735D01*
X164892980Y-114232980D01*
X165166735Y-113823278D01*
X165262865Y-113340000D01*
X165166735Y-112856722D01*
X164995198Y-112600000D01*
X165190759Y-112600000D01*
X165240000Y-112609795D01*
X165289241Y-112600000D01*
X165289243Y-112600000D01*
X165435090Y-112570989D01*
X165600480Y-112460480D01*
X165628376Y-112418730D01*
X166064774Y-111982333D01*
X166064776Y-111982330D01*
X166076447Y-111970659D01*
X166418012Y-112038600D01*
X166661988Y-112038600D01*
X167023278Y-111966735D01*
X167432980Y-111692980D01*
X167706735Y-111283278D01*
X167800011Y-110814348D01*
X167800011Y-113325651D01*
G04 #@! TD*
M02*
