G04 #@! TF.GenerationSoftware,KiCad,Pcbnew,(5.0.2)-1*
G04 #@! TF.CreationDate,2019-05-09T18:04:07+02:00*
G04 #@! TF.ProjectId,MotorDriver,4d6f746f-7244-4726-9976-65722e6b6963,rev?*
G04 #@! TF.SameCoordinates,Original*
G04 #@! TF.FileFunction,Soldermask,Bot*
G04 #@! TF.FilePolarity,Negative*
%FSLAX46Y46*%
G04 Gerber Fmt 4.6, Leading zero omitted, Abs format (unit mm)*
G04 Created by KiCad (PCBNEW (5.0.2)-1) date 09.05.2019 18:04:07*
%MOMM*%
%LPD*%
G01*
G04 APERTURE LIST*
%ADD10C,0.100000*%
G04 APERTURE END LIST*
D10*
G36*
X160120856Y-136942272D02*
X160321045Y-137025193D01*
X160501207Y-137145573D01*
X160654427Y-137298793D01*
X160774807Y-137478955D01*
X160857728Y-137679144D01*
X160900000Y-137891657D01*
X160900000Y-138108343D01*
X160857728Y-138320856D01*
X160774807Y-138521045D01*
X160654427Y-138701207D01*
X160501207Y-138854427D01*
X160321045Y-138974807D01*
X160120856Y-139057728D01*
X159908343Y-139100000D01*
X159691657Y-139100000D01*
X159479144Y-139057728D01*
X159278955Y-138974807D01*
X159098793Y-138854427D01*
X158945573Y-138701207D01*
X158825193Y-138521045D01*
X158742272Y-138320856D01*
X158700000Y-138108343D01*
X158700000Y-137891657D01*
X158742272Y-137679144D01*
X158825193Y-137478955D01*
X158945573Y-137298793D01*
X159098793Y-137145573D01*
X159278955Y-137025193D01*
X159479144Y-136942272D01*
X159691657Y-136900000D01*
X159908343Y-136900000D01*
X160120856Y-136942272D01*
X160120856Y-136942272D01*
G37*
G36*
X152648452Y-135586359D02*
X152688899Y-135590343D01*
X152773449Y-135615991D01*
X152870537Y-135645442D01*
X153037939Y-135734920D01*
X153184665Y-135855335D01*
X153305080Y-136002061D01*
X153394558Y-136169463D01*
X153424009Y-136266551D01*
X153449657Y-136351101D01*
X153449657Y-136351103D01*
X153468263Y-136540000D01*
X153458938Y-136634669D01*
X153449657Y-136728899D01*
X153424009Y-136813449D01*
X153394558Y-136910537D01*
X153305080Y-137077939D01*
X153184665Y-137224665D01*
X153037939Y-137345080D01*
X152870537Y-137434558D01*
X152773449Y-137464009D01*
X152688899Y-137489657D01*
X152648452Y-137493641D01*
X152547339Y-137503600D01*
X152452661Y-137503600D01*
X152351548Y-137493641D01*
X152311101Y-137489657D01*
X152226551Y-137464009D01*
X152129463Y-137434558D01*
X151962061Y-137345080D01*
X151815335Y-137224665D01*
X151694920Y-137077939D01*
X151605442Y-136910537D01*
X151575991Y-136813449D01*
X151550343Y-136728899D01*
X151541062Y-136634669D01*
X151531737Y-136540000D01*
X151550343Y-136351103D01*
X151550343Y-136351101D01*
X151575991Y-136266551D01*
X151605442Y-136169463D01*
X151694920Y-136002061D01*
X151815335Y-135855335D01*
X151962061Y-135734920D01*
X152129463Y-135645442D01*
X152226551Y-135615991D01*
X152311101Y-135590343D01*
X152351548Y-135586359D01*
X152452661Y-135576400D01*
X152547339Y-135576400D01*
X152648452Y-135586359D01*
X152648452Y-135586359D01*
G37*
G36*
X147568452Y-135586359D02*
X147608899Y-135590343D01*
X147693449Y-135615991D01*
X147790537Y-135645442D01*
X147957939Y-135734920D01*
X148104665Y-135855335D01*
X148225080Y-136002061D01*
X148314558Y-136169463D01*
X148344009Y-136266551D01*
X148369657Y-136351101D01*
X148369657Y-136351103D01*
X148388263Y-136540000D01*
X148378938Y-136634669D01*
X148369657Y-136728899D01*
X148344009Y-136813449D01*
X148314558Y-136910537D01*
X148225080Y-137077939D01*
X148104665Y-137224665D01*
X147957939Y-137345080D01*
X147790537Y-137434558D01*
X147693449Y-137464009D01*
X147608899Y-137489657D01*
X147568452Y-137493641D01*
X147467339Y-137503600D01*
X147372661Y-137503600D01*
X147271548Y-137493641D01*
X147231101Y-137489657D01*
X147146551Y-137464009D01*
X147049463Y-137434558D01*
X146882061Y-137345080D01*
X146735335Y-137224665D01*
X146614920Y-137077939D01*
X146525442Y-136910537D01*
X146495991Y-136813449D01*
X146470343Y-136728899D01*
X146461062Y-136634669D01*
X146451737Y-136540000D01*
X146470343Y-136351103D01*
X146470343Y-136351101D01*
X146495991Y-136266551D01*
X146525442Y-136169463D01*
X146614920Y-136002061D01*
X146735335Y-135855335D01*
X146882061Y-135734920D01*
X147049463Y-135645442D01*
X147146551Y-135615991D01*
X147231101Y-135590343D01*
X147271548Y-135586359D01*
X147372661Y-135576400D01*
X147467339Y-135576400D01*
X147568452Y-135586359D01*
X147568452Y-135586359D01*
G37*
G36*
X150108452Y-135586359D02*
X150148899Y-135590343D01*
X150233449Y-135615991D01*
X150330537Y-135645442D01*
X150497939Y-135734920D01*
X150644665Y-135855335D01*
X150765080Y-136002061D01*
X150854558Y-136169463D01*
X150884009Y-136266551D01*
X150909657Y-136351101D01*
X150909657Y-136351103D01*
X150928263Y-136540000D01*
X150918938Y-136634669D01*
X150909657Y-136728899D01*
X150884009Y-136813449D01*
X150854558Y-136910537D01*
X150765080Y-137077939D01*
X150644665Y-137224665D01*
X150497939Y-137345080D01*
X150330537Y-137434558D01*
X150233449Y-137464009D01*
X150148899Y-137489657D01*
X150108452Y-137493641D01*
X150007339Y-137503600D01*
X149912661Y-137503600D01*
X149811548Y-137493641D01*
X149771101Y-137489657D01*
X149686551Y-137464009D01*
X149589463Y-137434558D01*
X149422061Y-137345080D01*
X149275335Y-137224665D01*
X149154920Y-137077939D01*
X149065442Y-136910537D01*
X149035991Y-136813449D01*
X149010343Y-136728899D01*
X149001062Y-136634669D01*
X148991737Y-136540000D01*
X149010343Y-136351103D01*
X149010343Y-136351101D01*
X149035991Y-136266551D01*
X149065442Y-136169463D01*
X149154920Y-136002061D01*
X149275335Y-135855335D01*
X149422061Y-135734920D01*
X149589463Y-135645442D01*
X149686551Y-135615991D01*
X149771101Y-135590343D01*
X149811548Y-135586359D01*
X149912661Y-135576400D01*
X150007339Y-135576400D01*
X150108452Y-135586359D01*
X150108452Y-135586359D01*
G37*
G36*
X165495872Y-133365330D02*
X165495874Y-133365331D01*
X165495875Y-133365331D01*
X165555177Y-133389895D01*
X165805252Y-133493479D01*
X166083687Y-133679523D01*
X166320477Y-133916313D01*
X166506521Y-134194748D01*
X166579335Y-134370537D01*
X166629505Y-134491657D01*
X166634670Y-134504128D01*
X166700000Y-134832565D01*
X166700000Y-135167435D01*
X166634670Y-135495872D01*
X166506521Y-135805252D01*
X166320477Y-136083687D01*
X166083687Y-136320477D01*
X165805252Y-136506521D01*
X165556284Y-136609647D01*
X165495875Y-136634669D01*
X165495874Y-136634669D01*
X165495872Y-136634670D01*
X165167435Y-136700000D01*
X164832565Y-136700000D01*
X164504128Y-136634670D01*
X164504126Y-136634669D01*
X164504125Y-136634669D01*
X164443716Y-136609647D01*
X164194748Y-136506521D01*
X163916313Y-136320477D01*
X163679523Y-136083687D01*
X163493479Y-135805252D01*
X163365330Y-135495872D01*
X163300000Y-135167435D01*
X163300000Y-134832565D01*
X163365330Y-134504128D01*
X163370496Y-134491657D01*
X163420665Y-134370537D01*
X163493479Y-134194748D01*
X163679523Y-133916313D01*
X163916313Y-133679523D01*
X164194748Y-133493479D01*
X164444823Y-133389895D01*
X164504125Y-133365331D01*
X164504126Y-133365331D01*
X164504128Y-133365330D01*
X164832565Y-133300000D01*
X165167435Y-133300000D01*
X165495872Y-133365330D01*
X165495872Y-133365330D01*
G37*
G36*
X105495872Y-133365330D02*
X105495874Y-133365331D01*
X105495875Y-133365331D01*
X105555177Y-133389895D01*
X105805252Y-133493479D01*
X106083687Y-133679523D01*
X106320477Y-133916313D01*
X106506521Y-134194748D01*
X106579335Y-134370537D01*
X106629505Y-134491657D01*
X106634670Y-134504128D01*
X106700000Y-134832565D01*
X106700000Y-135167435D01*
X106634670Y-135495872D01*
X106506521Y-135805252D01*
X106320477Y-136083687D01*
X106083687Y-136320477D01*
X105805252Y-136506521D01*
X105556284Y-136609647D01*
X105495875Y-136634669D01*
X105495874Y-136634669D01*
X105495872Y-136634670D01*
X105167435Y-136700000D01*
X104832565Y-136700000D01*
X104504128Y-136634670D01*
X104504126Y-136634669D01*
X104504125Y-136634669D01*
X104443716Y-136609647D01*
X104194748Y-136506521D01*
X103916313Y-136320477D01*
X103679523Y-136083687D01*
X103493479Y-135805252D01*
X103365330Y-135495872D01*
X103300000Y-135167435D01*
X103300000Y-134832565D01*
X103365330Y-134504128D01*
X103370496Y-134491657D01*
X103420665Y-134370537D01*
X103493479Y-134194748D01*
X103679523Y-133916313D01*
X103916313Y-133679523D01*
X104194748Y-133493479D01*
X104444823Y-133389895D01*
X104504125Y-133365331D01*
X104504126Y-133365331D01*
X104504128Y-133365330D01*
X104832565Y-133300000D01*
X105167435Y-133300000D01*
X105495872Y-133365330D01*
X105495872Y-133365330D01*
G37*
G36*
X160120856Y-133542272D02*
X160321045Y-133625193D01*
X160501207Y-133745573D01*
X160654427Y-133898793D01*
X160774807Y-134078955D01*
X160857728Y-134279144D01*
X160900000Y-134491657D01*
X160900000Y-134708343D01*
X160857728Y-134920856D01*
X160774807Y-135121045D01*
X160654427Y-135301207D01*
X160501207Y-135454427D01*
X160321045Y-135574807D01*
X160120856Y-135657728D01*
X159908343Y-135700000D01*
X159691657Y-135700000D01*
X159479144Y-135657728D01*
X159278955Y-135574807D01*
X159098793Y-135454427D01*
X158945573Y-135301207D01*
X158825193Y-135121045D01*
X158742272Y-134920856D01*
X158700000Y-134708343D01*
X158700000Y-134491657D01*
X158742272Y-134279144D01*
X158825193Y-134078955D01*
X158945573Y-133898793D01*
X159098793Y-133745573D01*
X159278955Y-133625193D01*
X159479144Y-133542272D01*
X159691657Y-133500000D01*
X159908343Y-133500000D01*
X160120856Y-133542272D01*
X160120856Y-133542272D01*
G37*
G36*
X114380856Y-133342272D02*
X114581045Y-133425193D01*
X114761207Y-133545573D01*
X114914427Y-133698793D01*
X115034807Y-133878955D01*
X115117728Y-134079144D01*
X115160000Y-134291657D01*
X115160000Y-134508343D01*
X115117728Y-134720856D01*
X115034807Y-134921045D01*
X114914427Y-135101207D01*
X114761207Y-135254427D01*
X114581045Y-135374807D01*
X114380856Y-135457728D01*
X114168343Y-135500000D01*
X113951657Y-135500000D01*
X113739144Y-135457728D01*
X113538955Y-135374807D01*
X113358793Y-135254427D01*
X113205573Y-135101207D01*
X113085193Y-134921045D01*
X113002272Y-134720856D01*
X112960000Y-134508343D01*
X112960000Y-134291657D01*
X113002272Y-134079144D01*
X113085193Y-133878955D01*
X113205573Y-133698793D01*
X113358793Y-133545573D01*
X113538955Y-133425193D01*
X113739144Y-133342272D01*
X113951657Y-133300000D01*
X114168343Y-133300000D01*
X114380856Y-133342272D01*
X114380856Y-133342272D01*
G37*
G36*
X147568452Y-133046359D02*
X147608899Y-133050343D01*
X147693449Y-133075991D01*
X147790537Y-133105442D01*
X147957939Y-133194920D01*
X148104665Y-133315335D01*
X148225080Y-133462061D01*
X148314558Y-133629463D01*
X148338596Y-133708708D01*
X148369657Y-133811101D01*
X148369657Y-133811103D01*
X148388263Y-134000000D01*
X148380467Y-134079144D01*
X148369657Y-134188899D01*
X148344009Y-134273449D01*
X148314558Y-134370537D01*
X148225080Y-134537939D01*
X148104665Y-134684665D01*
X147957939Y-134805080D01*
X147790537Y-134894558D01*
X147693449Y-134924009D01*
X147608899Y-134949657D01*
X147568452Y-134953641D01*
X147467339Y-134963600D01*
X147372661Y-134963600D01*
X147271548Y-134953641D01*
X147231101Y-134949657D01*
X147146551Y-134924009D01*
X147049463Y-134894558D01*
X146882061Y-134805080D01*
X146735335Y-134684665D01*
X146614920Y-134537939D01*
X146525442Y-134370537D01*
X146495991Y-134273449D01*
X146470343Y-134188899D01*
X146459533Y-134079144D01*
X146451737Y-134000000D01*
X146470343Y-133811103D01*
X146470343Y-133811101D01*
X146501404Y-133708708D01*
X146525442Y-133629463D01*
X146614920Y-133462061D01*
X146735335Y-133315335D01*
X146882061Y-133194920D01*
X147049463Y-133105442D01*
X147146551Y-133075991D01*
X147231101Y-133050343D01*
X147271548Y-133046359D01*
X147372661Y-133036400D01*
X147467339Y-133036400D01*
X147568452Y-133046359D01*
X147568452Y-133046359D01*
G37*
G36*
X150108452Y-133046359D02*
X150148899Y-133050343D01*
X150233449Y-133075991D01*
X150330537Y-133105442D01*
X150497939Y-133194920D01*
X150644665Y-133315335D01*
X150765080Y-133462061D01*
X150854558Y-133629463D01*
X150878596Y-133708708D01*
X150909657Y-133811101D01*
X150909657Y-133811103D01*
X150928263Y-134000000D01*
X150920467Y-134079144D01*
X150909657Y-134188899D01*
X150884009Y-134273449D01*
X150854558Y-134370537D01*
X150765080Y-134537939D01*
X150644665Y-134684665D01*
X150497939Y-134805080D01*
X150330537Y-134894558D01*
X150233449Y-134924009D01*
X150148899Y-134949657D01*
X150108452Y-134953641D01*
X150007339Y-134963600D01*
X149912661Y-134963600D01*
X149811548Y-134953641D01*
X149771101Y-134949657D01*
X149686551Y-134924009D01*
X149589463Y-134894558D01*
X149422061Y-134805080D01*
X149275335Y-134684665D01*
X149154920Y-134537939D01*
X149065442Y-134370537D01*
X149035991Y-134273449D01*
X149010343Y-134188899D01*
X148999533Y-134079144D01*
X148991737Y-134000000D01*
X149010343Y-133811103D01*
X149010343Y-133811101D01*
X149041404Y-133708708D01*
X149065442Y-133629463D01*
X149154920Y-133462061D01*
X149275335Y-133315335D01*
X149422061Y-133194920D01*
X149589463Y-133105442D01*
X149686551Y-133075991D01*
X149771101Y-133050343D01*
X149811548Y-133046359D01*
X149912661Y-133036400D01*
X150007339Y-133036400D01*
X150108452Y-133046359D01*
X150108452Y-133046359D01*
G37*
G36*
X153463600Y-134963600D02*
X151536400Y-134963600D01*
X151536400Y-133036400D01*
X153463600Y-133036400D01*
X153463600Y-134963600D01*
X153463600Y-134963600D01*
G37*
G36*
X140173164Y-130391290D02*
X140487094Y-130521324D01*
X140769624Y-130710105D01*
X141009895Y-130950376D01*
X141198676Y-131232906D01*
X141328710Y-131546836D01*
X141395000Y-131880102D01*
X141395000Y-132219898D01*
X141328710Y-132553164D01*
X141198676Y-132867094D01*
X141009895Y-133149624D01*
X140769624Y-133389895D01*
X140487094Y-133578676D01*
X140173164Y-133708710D01*
X139839898Y-133775000D01*
X139500102Y-133775000D01*
X139166836Y-133708710D01*
X138852906Y-133578676D01*
X138570376Y-133389895D01*
X138330105Y-133149624D01*
X138141324Y-132867094D01*
X138011290Y-132553164D01*
X137945000Y-132219898D01*
X137945000Y-131880102D01*
X138011290Y-131546836D01*
X138141324Y-131232906D01*
X138330105Y-130950376D01*
X138570376Y-130710105D01*
X138852906Y-130521324D01*
X139166836Y-130391290D01*
X139500102Y-130325000D01*
X139839898Y-130325000D01*
X140173164Y-130391290D01*
X140173164Y-130391290D01*
G37*
G36*
X132553164Y-130391290D02*
X132867094Y-130521324D01*
X133149624Y-130710105D01*
X133389895Y-130950376D01*
X133578676Y-131232906D01*
X133708710Y-131546836D01*
X133775000Y-131880102D01*
X133775000Y-132219898D01*
X133708710Y-132553164D01*
X133578676Y-132867094D01*
X133389895Y-133149624D01*
X133149624Y-133389895D01*
X132867094Y-133578676D01*
X132553164Y-133708710D01*
X132219898Y-133775000D01*
X131880102Y-133775000D01*
X131546836Y-133708710D01*
X131232906Y-133578676D01*
X130950376Y-133389895D01*
X130710105Y-133149624D01*
X130521324Y-132867094D01*
X130391290Y-132553164D01*
X130325000Y-132219898D01*
X130325000Y-131880102D01*
X130391290Y-131546836D01*
X130521324Y-131232906D01*
X130710105Y-130950376D01*
X130950376Y-130710105D01*
X131232906Y-130521324D01*
X131546836Y-130391290D01*
X131880102Y-130325000D01*
X132219898Y-130325000D01*
X132553164Y-130391290D01*
X132553164Y-130391290D01*
G37*
G36*
X128673164Y-130391290D02*
X128987094Y-130521324D01*
X129269624Y-130710105D01*
X129509895Y-130950376D01*
X129698676Y-131232906D01*
X129828710Y-131546836D01*
X129895000Y-131880102D01*
X129895000Y-132219898D01*
X129828710Y-132553164D01*
X129698676Y-132867094D01*
X129509895Y-133149624D01*
X129269624Y-133389895D01*
X128987094Y-133578676D01*
X128673164Y-133708710D01*
X128339898Y-133775000D01*
X128000102Y-133775000D01*
X127666836Y-133708710D01*
X127352906Y-133578676D01*
X127070376Y-133389895D01*
X126830105Y-133149624D01*
X126641324Y-132867094D01*
X126511290Y-132553164D01*
X126445000Y-132219898D01*
X126445000Y-131880102D01*
X126511290Y-131546836D01*
X126641324Y-131232906D01*
X126830105Y-130950376D01*
X127070376Y-130710105D01*
X127352906Y-130521324D01*
X127666836Y-130391290D01*
X128000102Y-130325000D01*
X128339898Y-130325000D01*
X128673164Y-130391290D01*
X128673164Y-130391290D01*
G37*
G36*
X121053164Y-130391290D02*
X121367094Y-130521324D01*
X121649624Y-130710105D01*
X121889895Y-130950376D01*
X122078676Y-131232906D01*
X122208710Y-131546836D01*
X122275000Y-131880102D01*
X122275000Y-132219898D01*
X122208710Y-132553164D01*
X122078676Y-132867094D01*
X121889895Y-133149624D01*
X121649624Y-133389895D01*
X121367094Y-133578676D01*
X121053164Y-133708710D01*
X120719898Y-133775000D01*
X120380102Y-133775000D01*
X120046836Y-133708710D01*
X119732906Y-133578676D01*
X119450376Y-133389895D01*
X119210105Y-133149624D01*
X119021324Y-132867094D01*
X118891290Y-132553164D01*
X118825000Y-132219898D01*
X118825000Y-131880102D01*
X118891290Y-131546836D01*
X119021324Y-131232906D01*
X119210105Y-130950376D01*
X119450376Y-130710105D01*
X119732906Y-130521324D01*
X120046836Y-130391290D01*
X120380102Y-130325000D01*
X120719898Y-130325000D01*
X121053164Y-130391290D01*
X121053164Y-130391290D01*
G37*
G36*
X160120856Y-130142272D02*
X160321045Y-130225193D01*
X160501207Y-130345573D01*
X160654427Y-130498793D01*
X160774807Y-130678955D01*
X160857728Y-130879144D01*
X160900000Y-131091657D01*
X160900000Y-131308343D01*
X160857728Y-131520856D01*
X160774807Y-131721045D01*
X160654427Y-131901207D01*
X160501207Y-132054427D01*
X160321045Y-132174807D01*
X160120856Y-132257728D01*
X159908343Y-132300000D01*
X159691657Y-132300000D01*
X159479144Y-132257728D01*
X159278955Y-132174807D01*
X159098793Y-132054427D01*
X158945573Y-131901207D01*
X158825193Y-131721045D01*
X158742272Y-131520856D01*
X158700000Y-131308343D01*
X158700000Y-131091657D01*
X158742272Y-130879144D01*
X158825193Y-130678955D01*
X158945573Y-130498793D01*
X159098793Y-130345573D01*
X159278955Y-130225193D01*
X159479144Y-130142272D01*
X159691657Y-130100000D01*
X159908343Y-130100000D01*
X160120856Y-130142272D01*
X160120856Y-130142272D01*
G37*
G36*
X163722971Y-127361455D02*
X163746232Y-127363746D01*
X163925308Y-127418068D01*
X164090345Y-127506282D01*
X164235001Y-127624999D01*
X164353718Y-127769655D01*
X164441932Y-127934692D01*
X164441932Y-127934693D01*
X164496254Y-128113769D01*
X164514597Y-128300000D01*
X164497899Y-128469534D01*
X164496254Y-128486232D01*
X164441932Y-128665308D01*
X164353718Y-128830345D01*
X164235001Y-128975001D01*
X164090345Y-129093718D01*
X163925308Y-129181932D01*
X163746232Y-129236254D01*
X163722971Y-129238545D01*
X163606670Y-129250000D01*
X163513330Y-129250000D01*
X163397029Y-129238545D01*
X163373768Y-129236254D01*
X163194692Y-129181932D01*
X163029655Y-129093718D01*
X162884999Y-128975001D01*
X162766282Y-128830345D01*
X162678068Y-128665308D01*
X162623746Y-128486232D01*
X162622101Y-128469534D01*
X162605403Y-128300000D01*
X162623746Y-128113769D01*
X162678068Y-127934693D01*
X162678068Y-127934692D01*
X162766282Y-127769655D01*
X162884999Y-127624999D01*
X163029655Y-127506282D01*
X163194692Y-127418068D01*
X163373768Y-127363746D01*
X163397029Y-127361455D01*
X163513330Y-127350000D01*
X163606670Y-127350000D01*
X163722971Y-127361455D01*
X163722971Y-127361455D01*
G37*
G36*
X167050000Y-129250000D02*
X165150000Y-129250000D01*
X165150000Y-127350000D01*
X167050000Y-127350000D01*
X167050000Y-129250000D01*
X167050000Y-129250000D01*
G37*
G36*
X104820856Y-124792272D02*
X105021045Y-124875193D01*
X105201207Y-124995573D01*
X105354427Y-125148793D01*
X105474807Y-125328955D01*
X105557728Y-125529144D01*
X105600000Y-125741657D01*
X105600000Y-125958343D01*
X105557728Y-126170856D01*
X105474807Y-126371045D01*
X105354427Y-126551207D01*
X105201207Y-126704427D01*
X105021045Y-126824807D01*
X104820856Y-126907728D01*
X104608343Y-126950000D01*
X104391657Y-126950000D01*
X104179144Y-126907728D01*
X103978955Y-126824807D01*
X103798793Y-126704427D01*
X103645573Y-126551207D01*
X103525193Y-126371045D01*
X103442272Y-126170856D01*
X103400000Y-125958343D01*
X103400000Y-125741657D01*
X103442272Y-125529144D01*
X103525193Y-125328955D01*
X103645573Y-125148793D01*
X103798793Y-124995573D01*
X103978955Y-124875193D01*
X104179144Y-124792272D01*
X104391657Y-124750000D01*
X104608343Y-124750000D01*
X104820856Y-124792272D01*
X104820856Y-124792272D01*
G37*
G36*
X122674410Y-124723057D02*
X122751689Y-124738429D01*
X122933678Y-124813811D01*
X123097463Y-124923249D01*
X123236751Y-125062537D01*
X123346189Y-125226322D01*
X123421571Y-125408311D01*
X123421571Y-125408313D01*
X123460000Y-125601506D01*
X123460000Y-125798494D01*
X123436943Y-125914410D01*
X123421571Y-125991689D01*
X123346189Y-126173678D01*
X123236751Y-126337463D01*
X123097463Y-126476751D01*
X122933678Y-126586189D01*
X122751689Y-126661571D01*
X122674410Y-126676943D01*
X122558494Y-126700000D01*
X122361506Y-126700000D01*
X122245590Y-126676943D01*
X122168311Y-126661571D01*
X121986322Y-126586189D01*
X121822537Y-126476751D01*
X121683249Y-126337463D01*
X121573811Y-126173678D01*
X121498429Y-125991689D01*
X121483057Y-125914410D01*
X121460000Y-125798494D01*
X121460000Y-125601506D01*
X121498429Y-125408313D01*
X121498429Y-125408311D01*
X121573811Y-125226322D01*
X121683249Y-125062537D01*
X121822537Y-124923249D01*
X121986322Y-124813811D01*
X122168311Y-124738429D01*
X122245590Y-124723057D01*
X122361506Y-124700000D01*
X122558494Y-124700000D01*
X122674410Y-124723057D01*
X122674410Y-124723057D01*
G37*
G36*
X136714410Y-124723057D02*
X136791689Y-124738429D01*
X136973678Y-124813811D01*
X137137463Y-124923249D01*
X137276751Y-125062537D01*
X137386189Y-125226322D01*
X137461571Y-125408311D01*
X137461571Y-125408313D01*
X137500000Y-125601506D01*
X137500000Y-125798494D01*
X137476943Y-125914410D01*
X137461571Y-125991689D01*
X137386189Y-126173678D01*
X137276751Y-126337463D01*
X137137463Y-126476751D01*
X136973678Y-126586189D01*
X136791689Y-126661571D01*
X136714410Y-126676943D01*
X136598494Y-126700000D01*
X136401506Y-126700000D01*
X136285590Y-126676943D01*
X136208311Y-126661571D01*
X136026322Y-126586189D01*
X135862537Y-126476751D01*
X135723249Y-126337463D01*
X135613811Y-126173678D01*
X135538429Y-125991689D01*
X135523057Y-125914410D01*
X135500000Y-125798494D01*
X135500000Y-125601506D01*
X135538429Y-125408313D01*
X135538429Y-125408311D01*
X135613811Y-125226322D01*
X135723249Y-125062537D01*
X135862537Y-124923249D01*
X136026322Y-124813811D01*
X136208311Y-124738429D01*
X136285590Y-124723057D01*
X136401506Y-124700000D01*
X136598494Y-124700000D01*
X136714410Y-124723057D01*
X136714410Y-124723057D01*
G37*
G36*
X134174410Y-124723057D02*
X134251689Y-124738429D01*
X134433678Y-124813811D01*
X134597463Y-124923249D01*
X134736751Y-125062537D01*
X134846189Y-125226322D01*
X134921571Y-125408311D01*
X134921571Y-125408313D01*
X134960000Y-125601506D01*
X134960000Y-125798494D01*
X134936943Y-125914410D01*
X134921571Y-125991689D01*
X134846189Y-126173678D01*
X134736751Y-126337463D01*
X134597463Y-126476751D01*
X134433678Y-126586189D01*
X134251689Y-126661571D01*
X134174410Y-126676943D01*
X134058494Y-126700000D01*
X133861506Y-126700000D01*
X133745590Y-126676943D01*
X133668311Y-126661571D01*
X133486322Y-126586189D01*
X133322537Y-126476751D01*
X133183249Y-126337463D01*
X133073811Y-126173678D01*
X132998429Y-125991689D01*
X132983057Y-125914410D01*
X132960000Y-125798494D01*
X132960000Y-125601506D01*
X132998429Y-125408313D01*
X132998429Y-125408311D01*
X133073811Y-125226322D01*
X133183249Y-125062537D01*
X133322537Y-124923249D01*
X133486322Y-124813811D01*
X133668311Y-124738429D01*
X133745590Y-124723057D01*
X133861506Y-124700000D01*
X134058494Y-124700000D01*
X134174410Y-124723057D01*
X134174410Y-124723057D01*
G37*
G36*
X125214410Y-124723057D02*
X125291689Y-124738429D01*
X125473678Y-124813811D01*
X125637463Y-124923249D01*
X125776751Y-125062537D01*
X125886189Y-125226322D01*
X125961571Y-125408311D01*
X125961571Y-125408313D01*
X126000000Y-125601506D01*
X126000000Y-125798494D01*
X125976943Y-125914410D01*
X125961571Y-125991689D01*
X125886189Y-126173678D01*
X125776751Y-126337463D01*
X125637463Y-126476751D01*
X125473678Y-126586189D01*
X125291689Y-126661571D01*
X125214410Y-126676943D01*
X125098494Y-126700000D01*
X124901506Y-126700000D01*
X124785590Y-126676943D01*
X124708311Y-126661571D01*
X124526322Y-126586189D01*
X124362537Y-126476751D01*
X124223249Y-126337463D01*
X124113811Y-126173678D01*
X124038429Y-125991689D01*
X124023057Y-125914410D01*
X124000000Y-125798494D01*
X124000000Y-125601506D01*
X124038429Y-125408313D01*
X124038429Y-125408311D01*
X124113811Y-125226322D01*
X124223249Y-125062537D01*
X124362537Y-124923249D01*
X124526322Y-124813811D01*
X124708311Y-124738429D01*
X124785590Y-124723057D01*
X124901506Y-124700000D01*
X125098494Y-124700000D01*
X125214410Y-124723057D01*
X125214410Y-124723057D01*
G37*
G36*
X123944410Y-122183057D02*
X124021689Y-122198429D01*
X124203678Y-122273811D01*
X124367463Y-122383249D01*
X124506751Y-122522537D01*
X124616189Y-122686322D01*
X124691571Y-122868311D01*
X124706943Y-122945590D01*
X124730000Y-123061506D01*
X124730000Y-123258494D01*
X124706943Y-123374410D01*
X124691571Y-123451689D01*
X124616189Y-123633678D01*
X124506751Y-123797463D01*
X124367463Y-123936751D01*
X124203678Y-124046189D01*
X124021689Y-124121571D01*
X123944410Y-124136943D01*
X123828494Y-124160000D01*
X123631506Y-124160000D01*
X123515590Y-124136943D01*
X123438311Y-124121571D01*
X123256322Y-124046189D01*
X123092537Y-123936751D01*
X122953249Y-123797463D01*
X122843811Y-123633678D01*
X122768429Y-123451689D01*
X122753057Y-123374410D01*
X122730000Y-123258494D01*
X122730000Y-123061506D01*
X122753057Y-122945590D01*
X122768429Y-122868311D01*
X122843811Y-122686322D01*
X122953249Y-122522537D01*
X123092537Y-122383249D01*
X123256322Y-122273811D01*
X123438311Y-122198429D01*
X123515590Y-122183057D01*
X123631506Y-122160000D01*
X123828494Y-122160000D01*
X123944410Y-122183057D01*
X123944410Y-122183057D01*
G37*
G36*
X126484410Y-122183057D02*
X126561689Y-122198429D01*
X126743678Y-122273811D01*
X126907463Y-122383249D01*
X127046751Y-122522537D01*
X127156189Y-122686322D01*
X127231571Y-122868311D01*
X127246943Y-122945590D01*
X127270000Y-123061506D01*
X127270000Y-123258494D01*
X127246943Y-123374410D01*
X127231571Y-123451689D01*
X127156189Y-123633678D01*
X127046751Y-123797463D01*
X126907463Y-123936751D01*
X126743678Y-124046189D01*
X126561689Y-124121571D01*
X126484410Y-124136943D01*
X126368494Y-124160000D01*
X126171506Y-124160000D01*
X126055590Y-124136943D01*
X125978311Y-124121571D01*
X125796322Y-124046189D01*
X125632537Y-123936751D01*
X125493249Y-123797463D01*
X125383811Y-123633678D01*
X125308429Y-123451689D01*
X125293057Y-123374410D01*
X125270000Y-123258494D01*
X125270000Y-123061506D01*
X125293057Y-122945590D01*
X125308429Y-122868311D01*
X125383811Y-122686322D01*
X125493249Y-122522537D01*
X125632537Y-122383249D01*
X125796322Y-122273811D01*
X125978311Y-122198429D01*
X126055590Y-122183057D01*
X126171506Y-122160000D01*
X126368494Y-122160000D01*
X126484410Y-122183057D01*
X126484410Y-122183057D01*
G37*
G36*
X135444410Y-122183057D02*
X135521689Y-122198429D01*
X135703678Y-122273811D01*
X135867463Y-122383249D01*
X136006751Y-122522537D01*
X136116189Y-122686322D01*
X136191571Y-122868311D01*
X136206943Y-122945590D01*
X136230000Y-123061506D01*
X136230000Y-123258494D01*
X136206943Y-123374410D01*
X136191571Y-123451689D01*
X136116189Y-123633678D01*
X136006751Y-123797463D01*
X135867463Y-123936751D01*
X135703678Y-124046189D01*
X135521689Y-124121571D01*
X135444410Y-124136943D01*
X135328494Y-124160000D01*
X135131506Y-124160000D01*
X135015590Y-124136943D01*
X134938311Y-124121571D01*
X134756322Y-124046189D01*
X134592537Y-123936751D01*
X134453249Y-123797463D01*
X134343811Y-123633678D01*
X134268429Y-123451689D01*
X134253057Y-123374410D01*
X134230000Y-123258494D01*
X134230000Y-123061506D01*
X134253057Y-122945590D01*
X134268429Y-122868311D01*
X134343811Y-122686322D01*
X134453249Y-122522537D01*
X134592537Y-122383249D01*
X134756322Y-122273811D01*
X134938311Y-122198429D01*
X135015590Y-122183057D01*
X135131506Y-122160000D01*
X135328494Y-122160000D01*
X135444410Y-122183057D01*
X135444410Y-122183057D01*
G37*
G36*
X137984410Y-122183057D02*
X138061689Y-122198429D01*
X138243678Y-122273811D01*
X138407463Y-122383249D01*
X138546751Y-122522537D01*
X138656189Y-122686322D01*
X138731571Y-122868311D01*
X138746943Y-122945590D01*
X138770000Y-123061506D01*
X138770000Y-123258494D01*
X138746943Y-123374410D01*
X138731571Y-123451689D01*
X138656189Y-123633678D01*
X138546751Y-123797463D01*
X138407463Y-123936751D01*
X138243678Y-124046189D01*
X138061689Y-124121571D01*
X137984410Y-124136943D01*
X137868494Y-124160000D01*
X137671506Y-124160000D01*
X137555590Y-124136943D01*
X137478311Y-124121571D01*
X137296322Y-124046189D01*
X137132537Y-123936751D01*
X136993249Y-123797463D01*
X136883811Y-123633678D01*
X136808429Y-123451689D01*
X136793057Y-123374410D01*
X136770000Y-123258494D01*
X136770000Y-123061506D01*
X136793057Y-122945590D01*
X136808429Y-122868311D01*
X136883811Y-122686322D01*
X136993249Y-122522537D01*
X137132537Y-122383249D01*
X137296322Y-122273811D01*
X137478311Y-122198429D01*
X137555590Y-122183057D01*
X137671506Y-122160000D01*
X137868494Y-122160000D01*
X137984410Y-122183057D01*
X137984410Y-122183057D01*
G37*
G36*
X102762520Y-121334586D02*
X102762522Y-121334587D01*
X102762523Y-121334587D01*
X102926310Y-121402430D01*
X103073717Y-121500924D01*
X103199076Y-121626283D01*
X103199077Y-121626285D01*
X103297570Y-121773690D01*
X103365413Y-121937477D01*
X103401921Y-122121018D01*
X103407612Y-122139777D01*
X103416853Y-122157066D01*
X103429289Y-122172220D01*
X103444443Y-122184656D01*
X103461731Y-122193897D01*
X103480491Y-122199587D01*
X103484679Y-122200000D01*
X103480491Y-122200412D01*
X103461732Y-122206103D01*
X103444443Y-122215344D01*
X103429289Y-122227780D01*
X103416853Y-122242934D01*
X103407612Y-122260222D01*
X103401921Y-122278982D01*
X103400000Y-122288640D01*
X103400000Y-122288642D01*
X103365414Y-122462520D01*
X103297570Y-122626310D01*
X103199076Y-122773717D01*
X103073717Y-122899076D01*
X102926310Y-122997570D01*
X102762523Y-123065413D01*
X102762522Y-123065413D01*
X102762520Y-123065414D01*
X102588642Y-123100000D01*
X102411358Y-123100000D01*
X102237480Y-123065414D01*
X102237478Y-123065413D01*
X102237477Y-123065413D01*
X102073690Y-122997570D01*
X101926283Y-122899076D01*
X101800924Y-122773717D01*
X101702430Y-122626310D01*
X101634586Y-122462520D01*
X101600000Y-122288642D01*
X101600000Y-122111358D01*
X101634586Y-121937480D01*
X101646111Y-121909657D01*
X101702430Y-121773690D01*
X101800923Y-121626285D01*
X101800924Y-121626283D01*
X101926283Y-121500924D01*
X102073690Y-121402430D01*
X102237477Y-121334587D01*
X102237478Y-121334587D01*
X102237480Y-121334586D01*
X102411358Y-121300000D01*
X102588642Y-121300000D01*
X102762520Y-121334586D01*
X102762520Y-121334586D01*
G37*
G36*
X104762520Y-121334586D02*
X104762522Y-121334587D01*
X104762523Y-121334587D01*
X104926310Y-121402430D01*
X105073717Y-121500924D01*
X105199076Y-121626283D01*
X105199077Y-121626285D01*
X105297570Y-121773690D01*
X105353890Y-121909657D01*
X105365414Y-121937480D01*
X105400000Y-122111358D01*
X105400000Y-122288642D01*
X105365414Y-122462520D01*
X105297570Y-122626310D01*
X105199076Y-122773717D01*
X105073717Y-122899076D01*
X104926310Y-122997570D01*
X104762523Y-123065413D01*
X104762522Y-123065413D01*
X104762520Y-123065414D01*
X104588642Y-123100000D01*
X104411358Y-123100000D01*
X104237480Y-123065414D01*
X104237478Y-123065413D01*
X104237477Y-123065413D01*
X104073690Y-122997570D01*
X103926283Y-122899076D01*
X103800924Y-122773717D01*
X103702430Y-122626310D01*
X103634586Y-122462520D01*
X103600000Y-122288642D01*
X103600000Y-122288640D01*
X103598079Y-122278982D01*
X103592388Y-122260223D01*
X103583147Y-122242934D01*
X103570711Y-122227780D01*
X103555557Y-122215344D01*
X103538269Y-122206103D01*
X103519509Y-122200413D01*
X103515321Y-122200000D01*
X103519509Y-122199588D01*
X103538268Y-122193897D01*
X103555557Y-122184656D01*
X103570711Y-122172220D01*
X103583147Y-122157066D01*
X103592388Y-122139778D01*
X103598079Y-122121018D01*
X103634587Y-121937477D01*
X103702430Y-121773690D01*
X103800923Y-121626285D01*
X103800924Y-121626283D01*
X103926283Y-121500924D01*
X104073690Y-121402430D01*
X104237477Y-121334587D01*
X104237478Y-121334587D01*
X104237480Y-121334586D01*
X104411358Y-121300000D01*
X104588642Y-121300000D01*
X104762520Y-121334586D01*
X104762520Y-121334586D01*
G37*
G36*
X166688452Y-120006359D02*
X166728899Y-120010343D01*
X166813449Y-120035991D01*
X166910537Y-120065442D01*
X167077939Y-120154920D01*
X167224665Y-120275335D01*
X167345080Y-120422061D01*
X167434558Y-120589463D01*
X167439097Y-120604427D01*
X167489657Y-120771101D01*
X167489657Y-120771103D01*
X167508263Y-120960000D01*
X167492719Y-121117811D01*
X167489657Y-121148899D01*
X167464009Y-121233449D01*
X167434558Y-121330537D01*
X167345080Y-121497939D01*
X167224665Y-121644665D01*
X167077939Y-121765080D01*
X166910537Y-121854558D01*
X166813449Y-121884009D01*
X166728899Y-121909657D01*
X166688452Y-121913641D01*
X166587339Y-121923600D01*
X166492661Y-121923600D01*
X166391548Y-121913641D01*
X166351101Y-121909657D01*
X166266551Y-121884009D01*
X166169463Y-121854558D01*
X166002061Y-121765080D01*
X165855335Y-121644665D01*
X165734920Y-121497939D01*
X165645442Y-121330537D01*
X165615991Y-121233449D01*
X165590343Y-121148899D01*
X165587281Y-121117811D01*
X165571737Y-120960000D01*
X165590343Y-120771103D01*
X165590343Y-120771101D01*
X165640903Y-120604427D01*
X165645442Y-120589463D01*
X165734920Y-120422061D01*
X165855335Y-120275335D01*
X166002061Y-120154920D01*
X166169463Y-120065442D01*
X166266551Y-120035991D01*
X166351101Y-120010343D01*
X166391548Y-120006359D01*
X166492661Y-119996400D01*
X166587339Y-119996400D01*
X166688452Y-120006359D01*
X166688452Y-120006359D01*
G37*
G36*
X164148452Y-120006359D02*
X164188899Y-120010343D01*
X164273449Y-120035991D01*
X164370537Y-120065442D01*
X164537939Y-120154920D01*
X164684665Y-120275335D01*
X164805080Y-120422061D01*
X164894558Y-120589463D01*
X164899097Y-120604427D01*
X164949657Y-120771101D01*
X164949657Y-120771103D01*
X164968263Y-120960000D01*
X164952719Y-121117811D01*
X164949657Y-121148899D01*
X164924009Y-121233449D01*
X164894558Y-121330537D01*
X164805080Y-121497939D01*
X164684665Y-121644665D01*
X164537939Y-121765080D01*
X164370537Y-121854558D01*
X164273449Y-121884009D01*
X164188899Y-121909657D01*
X164148452Y-121913641D01*
X164047339Y-121923600D01*
X163952661Y-121923600D01*
X163851548Y-121913641D01*
X163811101Y-121909657D01*
X163726551Y-121884009D01*
X163629463Y-121854558D01*
X163462061Y-121765080D01*
X163315335Y-121644665D01*
X163194920Y-121497939D01*
X163105442Y-121330537D01*
X163075991Y-121233449D01*
X163050343Y-121148899D01*
X163047281Y-121117811D01*
X163031737Y-120960000D01*
X163050343Y-120771103D01*
X163050343Y-120771101D01*
X163100903Y-120604427D01*
X163105442Y-120589463D01*
X163194920Y-120422061D01*
X163315335Y-120275335D01*
X163462061Y-120154920D01*
X163629463Y-120065442D01*
X163726551Y-120035991D01*
X163811101Y-120010343D01*
X163851548Y-120006359D01*
X163952661Y-119996400D01*
X164047339Y-119996400D01*
X164148452Y-120006359D01*
X164148452Y-120006359D01*
G37*
G36*
X140320856Y-118692272D02*
X140521045Y-118775193D01*
X140701207Y-118895573D01*
X140854427Y-119048793D01*
X140974807Y-119228955D01*
X141057728Y-119429144D01*
X141100000Y-119641657D01*
X141100000Y-119858343D01*
X141057728Y-120070856D01*
X140974807Y-120271045D01*
X140854427Y-120451207D01*
X140701207Y-120604427D01*
X140521045Y-120724807D01*
X140320856Y-120807728D01*
X140108343Y-120850000D01*
X139891657Y-120850000D01*
X139679144Y-120807728D01*
X139478955Y-120724807D01*
X139298793Y-120604427D01*
X139145573Y-120451207D01*
X139025193Y-120271045D01*
X138942272Y-120070856D01*
X138900000Y-119858343D01*
X138900000Y-119641657D01*
X138942272Y-119429144D01*
X139025193Y-119228955D01*
X139145573Y-119048793D01*
X139298793Y-118895573D01*
X139478955Y-118775193D01*
X139679144Y-118692272D01*
X139891657Y-118650000D01*
X140108343Y-118650000D01*
X140320856Y-118692272D01*
X140320856Y-118692272D01*
G37*
G36*
X164148452Y-117466359D02*
X164188899Y-117470343D01*
X164270478Y-117495090D01*
X164370537Y-117525442D01*
X164537939Y-117614920D01*
X164684665Y-117735335D01*
X164805080Y-117882061D01*
X164894558Y-118049463D01*
X164924009Y-118146551D01*
X164949657Y-118231101D01*
X164949657Y-118231103D01*
X164968263Y-118420000D01*
X164952719Y-118577811D01*
X164949657Y-118608899D01*
X164937189Y-118650000D01*
X164894558Y-118790537D01*
X164805080Y-118957939D01*
X164684665Y-119104665D01*
X164537939Y-119225080D01*
X164370537Y-119314558D01*
X164273449Y-119344009D01*
X164188899Y-119369657D01*
X164148452Y-119373641D01*
X164047339Y-119383600D01*
X163952661Y-119383600D01*
X163851548Y-119373641D01*
X163811101Y-119369657D01*
X163726551Y-119344009D01*
X163629463Y-119314558D01*
X163462061Y-119225080D01*
X163315335Y-119104665D01*
X163194920Y-118957939D01*
X163105442Y-118790537D01*
X163062811Y-118650000D01*
X163050343Y-118608899D01*
X163047281Y-118577811D01*
X163031737Y-118420000D01*
X163050343Y-118231103D01*
X163050343Y-118231101D01*
X163075991Y-118146551D01*
X163105442Y-118049463D01*
X163194920Y-117882061D01*
X163315335Y-117735335D01*
X163462061Y-117614920D01*
X163629463Y-117525442D01*
X163729522Y-117495090D01*
X163811101Y-117470343D01*
X163851548Y-117466359D01*
X163952661Y-117456400D01*
X164047339Y-117456400D01*
X164148452Y-117466359D01*
X164148452Y-117466359D01*
G37*
G36*
X166688452Y-117466359D02*
X166728899Y-117470343D01*
X166810478Y-117495090D01*
X166910537Y-117525442D01*
X167077939Y-117614920D01*
X167224665Y-117735335D01*
X167345080Y-117882061D01*
X167434558Y-118049463D01*
X167464009Y-118146551D01*
X167489657Y-118231101D01*
X167489657Y-118231103D01*
X167508263Y-118420000D01*
X167492719Y-118577811D01*
X167489657Y-118608899D01*
X167477189Y-118650000D01*
X167434558Y-118790537D01*
X167345080Y-118957939D01*
X167224665Y-119104665D01*
X167077939Y-119225080D01*
X166910537Y-119314558D01*
X166813449Y-119344009D01*
X166728899Y-119369657D01*
X166688452Y-119373641D01*
X166587339Y-119383600D01*
X166492661Y-119383600D01*
X166391548Y-119373641D01*
X166351101Y-119369657D01*
X166266551Y-119344009D01*
X166169463Y-119314558D01*
X166002061Y-119225080D01*
X165855335Y-119104665D01*
X165734920Y-118957939D01*
X165645442Y-118790537D01*
X165602811Y-118650000D01*
X165590343Y-118608899D01*
X165587281Y-118577811D01*
X165571737Y-118420000D01*
X165590343Y-118231103D01*
X165590343Y-118231101D01*
X165615991Y-118146551D01*
X165645442Y-118049463D01*
X165734920Y-117882061D01*
X165855335Y-117735335D01*
X166002061Y-117614920D01*
X166169463Y-117525442D01*
X166269522Y-117495090D01*
X166351101Y-117470343D01*
X166391548Y-117466359D01*
X166492661Y-117456400D01*
X166587339Y-117456400D01*
X166688452Y-117466359D01*
X166688452Y-117466359D01*
G37*
G36*
X157850000Y-116325134D02*
X157851921Y-116344643D01*
X157857612Y-116363402D01*
X157866853Y-116380691D01*
X157879289Y-116395845D01*
X157894532Y-116408340D01*
X157901922Y-116413267D01*
X157920975Y-116428869D01*
X157920979Y-116428873D01*
X157933491Y-116444087D01*
X157942795Y-116461449D01*
X157948533Y-116480293D01*
X157950484Y-116500000D01*
X157950484Y-116500050D01*
X157950968Y-116504937D01*
X157950968Y-117495090D01*
X157950484Y-117500000D01*
X157948553Y-117519603D01*
X157942835Y-117538454D01*
X157935277Y-117552593D01*
X157933547Y-117555830D01*
X157921053Y-117571053D01*
X157905830Y-117583547D01*
X157905826Y-117583549D01*
X157888454Y-117592835D01*
X157869603Y-117598553D01*
X157864081Y-117599097D01*
X157845090Y-117600968D01*
X156354910Y-117600968D01*
X156335919Y-117599097D01*
X156330397Y-117598553D01*
X156311546Y-117592835D01*
X156294174Y-117583549D01*
X156294170Y-117583547D01*
X156278947Y-117571053D01*
X156266453Y-117555830D01*
X156264723Y-117552593D01*
X156257165Y-117538454D01*
X156251447Y-117519603D01*
X156249516Y-117500000D01*
X156249032Y-117495090D01*
X156249032Y-116504910D01*
X156251447Y-116480398D01*
X156257164Y-116461549D01*
X156257165Y-116461546D01*
X156266451Y-116444174D01*
X156266453Y-116444170D01*
X156278928Y-116428969D01*
X156278931Y-116428967D01*
X156278947Y-116428947D01*
X156294262Y-116416392D01*
X156294305Y-116416363D01*
X156298104Y-116413249D01*
X156305468Y-116408340D01*
X156320635Y-116395920D01*
X156333088Y-116380780D01*
X156342347Y-116363501D01*
X156348058Y-116344748D01*
X156350000Y-116325134D01*
X156350000Y-115450000D01*
X157850000Y-115450000D01*
X157850000Y-116325134D01*
X157850000Y-116325134D01*
G37*
G36*
X155350000Y-116325134D02*
X155351921Y-116344643D01*
X155357612Y-116363402D01*
X155366853Y-116380691D01*
X155379289Y-116395845D01*
X155394532Y-116408340D01*
X155401922Y-116413267D01*
X155420975Y-116428869D01*
X155420979Y-116428873D01*
X155433491Y-116444087D01*
X155442795Y-116461449D01*
X155448533Y-116480293D01*
X155450484Y-116500000D01*
X155450484Y-116500050D01*
X155450968Y-116504937D01*
X155450968Y-117495090D01*
X155450484Y-117500000D01*
X155448553Y-117519603D01*
X155442835Y-117538454D01*
X155435277Y-117552593D01*
X155433547Y-117555830D01*
X155421053Y-117571053D01*
X155405830Y-117583547D01*
X155405826Y-117583549D01*
X155388454Y-117592835D01*
X155369603Y-117598553D01*
X155364081Y-117599097D01*
X155345090Y-117600968D01*
X153854910Y-117600968D01*
X153835919Y-117599097D01*
X153830397Y-117598553D01*
X153811546Y-117592835D01*
X153794174Y-117583549D01*
X153794170Y-117583547D01*
X153778947Y-117571053D01*
X153766453Y-117555830D01*
X153764723Y-117552593D01*
X153757165Y-117538454D01*
X153751447Y-117519603D01*
X153749516Y-117500000D01*
X153749032Y-117495090D01*
X153749032Y-116504910D01*
X153751447Y-116480398D01*
X153757164Y-116461549D01*
X153757165Y-116461546D01*
X153766451Y-116444174D01*
X153766453Y-116444170D01*
X153778928Y-116428969D01*
X153778931Y-116428967D01*
X153778947Y-116428947D01*
X153794262Y-116416392D01*
X153794305Y-116416363D01*
X153798104Y-116413249D01*
X153805468Y-116408340D01*
X153820635Y-116395920D01*
X153833088Y-116380780D01*
X153842347Y-116363501D01*
X153848058Y-116344748D01*
X153850000Y-116325134D01*
X153850000Y-115450000D01*
X155350000Y-115450000D01*
X155350000Y-116325134D01*
X155350000Y-116325134D01*
G37*
G36*
X160700000Y-116325134D02*
X160701921Y-116344643D01*
X160707612Y-116363402D01*
X160716853Y-116380691D01*
X160729289Y-116395845D01*
X160744532Y-116408340D01*
X160751922Y-116413267D01*
X160770975Y-116428869D01*
X160770979Y-116428873D01*
X160783491Y-116444087D01*
X160792795Y-116461449D01*
X160798533Y-116480293D01*
X160800484Y-116500000D01*
X160800484Y-116500050D01*
X160800968Y-116504937D01*
X160800968Y-117495090D01*
X160800484Y-117500000D01*
X160798553Y-117519603D01*
X160792835Y-117538454D01*
X160785277Y-117552593D01*
X160783547Y-117555830D01*
X160771053Y-117571053D01*
X160755830Y-117583547D01*
X160755826Y-117583549D01*
X160738454Y-117592835D01*
X160719603Y-117598553D01*
X160714081Y-117599097D01*
X160695090Y-117600968D01*
X159204910Y-117600968D01*
X159185919Y-117599097D01*
X159180397Y-117598553D01*
X159161546Y-117592835D01*
X159144174Y-117583549D01*
X159144170Y-117583547D01*
X159128947Y-117571053D01*
X159116453Y-117555830D01*
X159114723Y-117552593D01*
X159107165Y-117538454D01*
X159101447Y-117519603D01*
X159099516Y-117500000D01*
X159099032Y-117495090D01*
X159099032Y-116504910D01*
X159101447Y-116480398D01*
X159107164Y-116461549D01*
X159107165Y-116461546D01*
X159116451Y-116444174D01*
X159116453Y-116444170D01*
X159128928Y-116428969D01*
X159128931Y-116428967D01*
X159128947Y-116428947D01*
X159144262Y-116416392D01*
X159144305Y-116416363D01*
X159148104Y-116413249D01*
X159155468Y-116408340D01*
X159170635Y-116395920D01*
X159183088Y-116380780D01*
X159192347Y-116363501D01*
X159198058Y-116344748D01*
X159200000Y-116325134D01*
X159200000Y-115450000D01*
X160700000Y-115450000D01*
X160700000Y-116325134D01*
X160700000Y-116325134D01*
G37*
G36*
X140320856Y-115142272D02*
X140521045Y-115225193D01*
X140701207Y-115345573D01*
X140854427Y-115498793D01*
X140974807Y-115678955D01*
X141057728Y-115879144D01*
X141100000Y-116091657D01*
X141100000Y-116308343D01*
X141057728Y-116520856D01*
X140974807Y-116721045D01*
X140854427Y-116901207D01*
X140701207Y-117054427D01*
X140521045Y-117174807D01*
X140320856Y-117257728D01*
X140108343Y-117300000D01*
X139891657Y-117300000D01*
X139679144Y-117257728D01*
X139478955Y-117174807D01*
X139298793Y-117054427D01*
X139145573Y-116901207D01*
X139025193Y-116721045D01*
X138942272Y-116520856D01*
X138900000Y-116308343D01*
X138900000Y-116091657D01*
X138942272Y-115879144D01*
X139025193Y-115678955D01*
X139145573Y-115498793D01*
X139298793Y-115345573D01*
X139478955Y-115225193D01*
X139679144Y-115142272D01*
X139891657Y-115100000D01*
X140108343Y-115100000D01*
X140320856Y-115142272D01*
X140320856Y-115142272D01*
G37*
G36*
X164148452Y-114926359D02*
X164188899Y-114930343D01*
X164273449Y-114955991D01*
X164370537Y-114985442D01*
X164537939Y-115074920D01*
X164684665Y-115195335D01*
X164805080Y-115342061D01*
X164894558Y-115509463D01*
X164924009Y-115606551D01*
X164949657Y-115691101D01*
X164949657Y-115691103D01*
X164968263Y-115880000D01*
X164965583Y-115907205D01*
X164949657Y-116068899D01*
X164924009Y-116153449D01*
X164894558Y-116250537D01*
X164805080Y-116417939D01*
X164684665Y-116564665D01*
X164537939Y-116685080D01*
X164370537Y-116774558D01*
X164273449Y-116804009D01*
X164188899Y-116829657D01*
X164148452Y-116833641D01*
X164047339Y-116843600D01*
X163952661Y-116843600D01*
X163851548Y-116833641D01*
X163811101Y-116829657D01*
X163726551Y-116804009D01*
X163629463Y-116774558D01*
X163462061Y-116685080D01*
X163315335Y-116564665D01*
X163194920Y-116417939D01*
X163105442Y-116250537D01*
X163075991Y-116153449D01*
X163050343Y-116068899D01*
X163034417Y-115907205D01*
X163031737Y-115880000D01*
X163050343Y-115691103D01*
X163050343Y-115691101D01*
X163075991Y-115606551D01*
X163105442Y-115509463D01*
X163194920Y-115342061D01*
X163315335Y-115195335D01*
X163462061Y-115074920D01*
X163629463Y-114985442D01*
X163726551Y-114955991D01*
X163811101Y-114930343D01*
X163851548Y-114926359D01*
X163952661Y-114916400D01*
X164047339Y-114916400D01*
X164148452Y-114926359D01*
X164148452Y-114926359D01*
G37*
G36*
X166688452Y-114926359D02*
X166728899Y-114930343D01*
X166813449Y-114955991D01*
X166910537Y-114985442D01*
X167077939Y-115074920D01*
X167224665Y-115195335D01*
X167345080Y-115342061D01*
X167434558Y-115509463D01*
X167464009Y-115606551D01*
X167489657Y-115691101D01*
X167489657Y-115691103D01*
X167508263Y-115880000D01*
X167505583Y-115907205D01*
X167489657Y-116068899D01*
X167464009Y-116153449D01*
X167434558Y-116250537D01*
X167345080Y-116417939D01*
X167224665Y-116564665D01*
X167077939Y-116685080D01*
X166910537Y-116774558D01*
X166813449Y-116804009D01*
X166728899Y-116829657D01*
X166688452Y-116833641D01*
X166587339Y-116843600D01*
X166492661Y-116843600D01*
X166391548Y-116833641D01*
X166351101Y-116829657D01*
X166266551Y-116804009D01*
X166169463Y-116774558D01*
X166002061Y-116685080D01*
X165855335Y-116564665D01*
X165734920Y-116417939D01*
X165645442Y-116250537D01*
X165615991Y-116153449D01*
X165590343Y-116068899D01*
X165574417Y-115907205D01*
X165571737Y-115880000D01*
X165590343Y-115691103D01*
X165590343Y-115691101D01*
X165615991Y-115606551D01*
X165645442Y-115509463D01*
X165734920Y-115342061D01*
X165855335Y-115195335D01*
X166002061Y-115074920D01*
X166169463Y-114985442D01*
X166266551Y-114955991D01*
X166351101Y-114930343D01*
X166391548Y-114926359D01*
X166492661Y-114916400D01*
X166587339Y-114916400D01*
X166688452Y-114926359D01*
X166688452Y-114926359D01*
G37*
G36*
X121370856Y-113742272D02*
X121571045Y-113825193D01*
X121751207Y-113945573D01*
X121904427Y-114098793D01*
X122024807Y-114278955D01*
X122107728Y-114479144D01*
X122150000Y-114691657D01*
X122150000Y-114908343D01*
X122107728Y-115120856D01*
X122024807Y-115321045D01*
X121904427Y-115501207D01*
X121751207Y-115654427D01*
X121571045Y-115774807D01*
X121370856Y-115857728D01*
X121158343Y-115900000D01*
X120941657Y-115900000D01*
X120729144Y-115857728D01*
X120528955Y-115774807D01*
X120348793Y-115654427D01*
X120195573Y-115501207D01*
X120075193Y-115321045D01*
X119992272Y-115120856D01*
X119950000Y-114908343D01*
X119950000Y-114691657D01*
X119992272Y-114479144D01*
X120075193Y-114278955D01*
X120195573Y-114098793D01*
X120348793Y-113945573D01*
X120528955Y-113825193D01*
X120729144Y-113742272D01*
X120941657Y-113700000D01*
X121158343Y-113700000D01*
X121370856Y-113742272D01*
X121370856Y-113742272D01*
G37*
G36*
X155364081Y-112400903D02*
X155369603Y-112401447D01*
X155388454Y-112407165D01*
X155402593Y-112414723D01*
X155405830Y-112416453D01*
X155421053Y-112428947D01*
X155433547Y-112444170D01*
X155433549Y-112444174D01*
X155442835Y-112461546D01*
X155442836Y-112461549D01*
X155448553Y-112480398D01*
X155450968Y-112504910D01*
X155450968Y-113495090D01*
X155450484Y-113500000D01*
X155448553Y-113519603D01*
X155442835Y-113538454D01*
X155442783Y-113538551D01*
X155433547Y-113555830D01*
X155421072Y-113571031D01*
X155421069Y-113571033D01*
X155421053Y-113571053D01*
X155405738Y-113583608D01*
X155405695Y-113583637D01*
X155401896Y-113586751D01*
X155394532Y-113591660D01*
X155379365Y-113604080D01*
X155366912Y-113619220D01*
X155357653Y-113636499D01*
X155351942Y-113655252D01*
X155350000Y-113674866D01*
X155350000Y-114550000D01*
X153850000Y-114550000D01*
X153850000Y-113674866D01*
X153848079Y-113655357D01*
X153842388Y-113636598D01*
X153833147Y-113619309D01*
X153820711Y-113604155D01*
X153805468Y-113591660D01*
X153798078Y-113586733D01*
X153779025Y-113571131D01*
X153779021Y-113571127D01*
X153766509Y-113555913D01*
X153757205Y-113538551D01*
X153751467Y-113519707D01*
X153749516Y-113500000D01*
X153749516Y-113499950D01*
X153749032Y-113495063D01*
X153749032Y-112504910D01*
X153751447Y-112480398D01*
X153757164Y-112461549D01*
X153757165Y-112461546D01*
X153766451Y-112444174D01*
X153766453Y-112444170D01*
X153778947Y-112428947D01*
X153794170Y-112416453D01*
X153797407Y-112414723D01*
X153811546Y-112407165D01*
X153830397Y-112401447D01*
X153835919Y-112400903D01*
X153854910Y-112399032D01*
X155345090Y-112399032D01*
X155364081Y-112400903D01*
X155364081Y-112400903D01*
G37*
G36*
X160714081Y-112400903D02*
X160719603Y-112401447D01*
X160738454Y-112407165D01*
X160752593Y-112414723D01*
X160755830Y-112416453D01*
X160771053Y-112428947D01*
X160783547Y-112444170D01*
X160783549Y-112444174D01*
X160792835Y-112461546D01*
X160792836Y-112461549D01*
X160798553Y-112480398D01*
X160800968Y-112504910D01*
X160800968Y-113495090D01*
X160800484Y-113500000D01*
X160798553Y-113519603D01*
X160792835Y-113538454D01*
X160792783Y-113538551D01*
X160783547Y-113555830D01*
X160771072Y-113571031D01*
X160771069Y-113571033D01*
X160771053Y-113571053D01*
X160755738Y-113583608D01*
X160755695Y-113583637D01*
X160751896Y-113586751D01*
X160744532Y-113591660D01*
X160729365Y-113604080D01*
X160716912Y-113619220D01*
X160707653Y-113636499D01*
X160701942Y-113655252D01*
X160700000Y-113674866D01*
X160700000Y-114550000D01*
X159200000Y-114550000D01*
X159200000Y-113674866D01*
X159198079Y-113655357D01*
X159192388Y-113636598D01*
X159183147Y-113619309D01*
X159170711Y-113604155D01*
X159155468Y-113591660D01*
X159148078Y-113586733D01*
X159129025Y-113571131D01*
X159129021Y-113571127D01*
X159116509Y-113555913D01*
X159107205Y-113538551D01*
X159101467Y-113519707D01*
X159099516Y-113500000D01*
X159099516Y-113499950D01*
X159099032Y-113495063D01*
X159099032Y-112504910D01*
X159101447Y-112480398D01*
X159107164Y-112461549D01*
X159107165Y-112461546D01*
X159116451Y-112444174D01*
X159116453Y-112444170D01*
X159128947Y-112428947D01*
X159144170Y-112416453D01*
X159147407Y-112414723D01*
X159161546Y-112407165D01*
X159180397Y-112401447D01*
X159185919Y-112400903D01*
X159204910Y-112399032D01*
X160695090Y-112399032D01*
X160714081Y-112400903D01*
X160714081Y-112400903D01*
G37*
G36*
X157864081Y-112400903D02*
X157869603Y-112401447D01*
X157888454Y-112407165D01*
X157902593Y-112414723D01*
X157905830Y-112416453D01*
X157921053Y-112428947D01*
X157933547Y-112444170D01*
X157933549Y-112444174D01*
X157942835Y-112461546D01*
X157942836Y-112461549D01*
X157948553Y-112480398D01*
X157950968Y-112504910D01*
X157950968Y-113495090D01*
X157950484Y-113500000D01*
X157948553Y-113519603D01*
X157942835Y-113538454D01*
X157942783Y-113538551D01*
X157933547Y-113555830D01*
X157921072Y-113571031D01*
X157921069Y-113571033D01*
X157921053Y-113571053D01*
X157905738Y-113583608D01*
X157905695Y-113583637D01*
X157901896Y-113586751D01*
X157894532Y-113591660D01*
X157879365Y-113604080D01*
X157866912Y-113619220D01*
X157857653Y-113636499D01*
X157851942Y-113655252D01*
X157850000Y-113674866D01*
X157850000Y-114550000D01*
X156350000Y-114550000D01*
X156350000Y-113674866D01*
X156348079Y-113655357D01*
X156342388Y-113636598D01*
X156333147Y-113619309D01*
X156320711Y-113604155D01*
X156305468Y-113591660D01*
X156298078Y-113586733D01*
X156279025Y-113571131D01*
X156279021Y-113571127D01*
X156266509Y-113555913D01*
X156257205Y-113538551D01*
X156251467Y-113519707D01*
X156249516Y-113500000D01*
X156249516Y-113499950D01*
X156249032Y-113495063D01*
X156249032Y-112504910D01*
X156251447Y-112480398D01*
X156257164Y-112461549D01*
X156257165Y-112461546D01*
X156266451Y-112444174D01*
X156266453Y-112444170D01*
X156278947Y-112428947D01*
X156294170Y-112416453D01*
X156297407Y-112414723D01*
X156311546Y-112407165D01*
X156330397Y-112401447D01*
X156335919Y-112400903D01*
X156354910Y-112399032D01*
X157845090Y-112399032D01*
X157864081Y-112400903D01*
X157864081Y-112400903D01*
G37*
G36*
X166688452Y-112386359D02*
X166728899Y-112390343D01*
X166784353Y-112407165D01*
X166910537Y-112445442D01*
X167077939Y-112534920D01*
X167224665Y-112655335D01*
X167345080Y-112802061D01*
X167434558Y-112969463D01*
X167458988Y-113050000D01*
X167489657Y-113151101D01*
X167489657Y-113151103D01*
X167508263Y-113340000D01*
X167492990Y-113495063D01*
X167489657Y-113528899D01*
X167466851Y-113604080D01*
X167434558Y-113710537D01*
X167345080Y-113877939D01*
X167224665Y-114024665D01*
X167077939Y-114145080D01*
X166910537Y-114234558D01*
X166813449Y-114264009D01*
X166728899Y-114289657D01*
X166688452Y-114293641D01*
X166587339Y-114303600D01*
X166492661Y-114303600D01*
X166391548Y-114293641D01*
X166351101Y-114289657D01*
X166266551Y-114264009D01*
X166169463Y-114234558D01*
X166002061Y-114145080D01*
X165855335Y-114024665D01*
X165734920Y-113877939D01*
X165645442Y-113710537D01*
X165613149Y-113604080D01*
X165590343Y-113528899D01*
X165587010Y-113495063D01*
X165571737Y-113340000D01*
X165590343Y-113151103D01*
X165590343Y-113151101D01*
X165621012Y-113050000D01*
X165645442Y-112969463D01*
X165734920Y-112802061D01*
X165855335Y-112655335D01*
X166002061Y-112534920D01*
X166169463Y-112445442D01*
X166295647Y-112407165D01*
X166351101Y-112390343D01*
X166391548Y-112386359D01*
X166492661Y-112376400D01*
X166587339Y-112376400D01*
X166688452Y-112386359D01*
X166688452Y-112386359D01*
G37*
G36*
X164148452Y-112386359D02*
X164188899Y-112390343D01*
X164244353Y-112407165D01*
X164370537Y-112445442D01*
X164537939Y-112534920D01*
X164684665Y-112655335D01*
X164805080Y-112802061D01*
X164894558Y-112969463D01*
X164918988Y-113050000D01*
X164949657Y-113151101D01*
X164949657Y-113151103D01*
X164968263Y-113340000D01*
X164952990Y-113495063D01*
X164949657Y-113528899D01*
X164926851Y-113604080D01*
X164894558Y-113710537D01*
X164805080Y-113877939D01*
X164684665Y-114024665D01*
X164537939Y-114145080D01*
X164370537Y-114234558D01*
X164273449Y-114264009D01*
X164188899Y-114289657D01*
X164148452Y-114293641D01*
X164047339Y-114303600D01*
X163952661Y-114303600D01*
X163851548Y-114293641D01*
X163811101Y-114289657D01*
X163726551Y-114264009D01*
X163629463Y-114234558D01*
X163462061Y-114145080D01*
X163315335Y-114024665D01*
X163194920Y-113877939D01*
X163105442Y-113710537D01*
X163073149Y-113604080D01*
X163050343Y-113528899D01*
X163047010Y-113495063D01*
X163031737Y-113340000D01*
X163050343Y-113151103D01*
X163050343Y-113151101D01*
X163081012Y-113050000D01*
X163105442Y-112969463D01*
X163194920Y-112802061D01*
X163315335Y-112655335D01*
X163462061Y-112534920D01*
X163629463Y-112445442D01*
X163755647Y-112407165D01*
X163811101Y-112390343D01*
X163851548Y-112386359D01*
X163952661Y-112376400D01*
X164047339Y-112376400D01*
X164148452Y-112386359D01*
X164148452Y-112386359D01*
G37*
G36*
X141920856Y-110742272D02*
X142121045Y-110825193D01*
X142301207Y-110945573D01*
X142454427Y-111098793D01*
X142574807Y-111278955D01*
X142657728Y-111479144D01*
X142700000Y-111691657D01*
X142700000Y-111908343D01*
X142657728Y-112120856D01*
X142574807Y-112321045D01*
X142454427Y-112501207D01*
X142301207Y-112654427D01*
X142121045Y-112774807D01*
X141920856Y-112857728D01*
X141708343Y-112900000D01*
X141491657Y-112900000D01*
X141279144Y-112857728D01*
X141078955Y-112774807D01*
X140898793Y-112654427D01*
X140745573Y-112501207D01*
X140625193Y-112321045D01*
X140542272Y-112120856D01*
X140500000Y-111908343D01*
X140500000Y-111691657D01*
X140542272Y-111479144D01*
X140625193Y-111278955D01*
X140745573Y-111098793D01*
X140898793Y-110945573D01*
X141078955Y-110825193D01*
X141279144Y-110742272D01*
X141491657Y-110700000D01*
X141708343Y-110700000D01*
X141920856Y-110742272D01*
X141920856Y-110742272D01*
G37*
G36*
X108220856Y-109742272D02*
X108421045Y-109825193D01*
X108601207Y-109945573D01*
X108754427Y-110098793D01*
X108874807Y-110278955D01*
X108957728Y-110479144D01*
X109000000Y-110691657D01*
X109000000Y-110908343D01*
X108957728Y-111120856D01*
X108874807Y-111321045D01*
X108754427Y-111501207D01*
X108601207Y-111654427D01*
X108421045Y-111774807D01*
X108220856Y-111857728D01*
X108008343Y-111900000D01*
X107791657Y-111900000D01*
X107579144Y-111857728D01*
X107378955Y-111774807D01*
X107198793Y-111654427D01*
X107045573Y-111501207D01*
X106925193Y-111321045D01*
X106842272Y-111120856D01*
X106800000Y-110908343D01*
X106800000Y-110691657D01*
X106842272Y-110479144D01*
X106925193Y-110278955D01*
X107045573Y-110098793D01*
X107198793Y-109945573D01*
X107378955Y-109825193D01*
X107579144Y-109742272D01*
X107791657Y-109700000D01*
X108008343Y-109700000D01*
X108220856Y-109742272D01*
X108220856Y-109742272D01*
G37*
G36*
X166688452Y-109846359D02*
X166728899Y-109850343D01*
X166813449Y-109875991D01*
X166910537Y-109905442D01*
X167077939Y-109994920D01*
X167224665Y-110115335D01*
X167345080Y-110262061D01*
X167434558Y-110429463D01*
X167449628Y-110479144D01*
X167489657Y-110611101D01*
X167489657Y-110611103D01*
X167508263Y-110800000D01*
X167497591Y-110908343D01*
X167489657Y-110988899D01*
X167464009Y-111073449D01*
X167434558Y-111170537D01*
X167345080Y-111337939D01*
X167224665Y-111484665D01*
X167077939Y-111605080D01*
X166910537Y-111694558D01*
X166813449Y-111724009D01*
X166728899Y-111749657D01*
X166688452Y-111753641D01*
X166587339Y-111763600D01*
X166492661Y-111763600D01*
X166391548Y-111753641D01*
X166351101Y-111749657D01*
X166266551Y-111724009D01*
X166169463Y-111694558D01*
X166002061Y-111605080D01*
X165855335Y-111484665D01*
X165734920Y-111337939D01*
X165645442Y-111170537D01*
X165615991Y-111073449D01*
X165590343Y-110988899D01*
X165582409Y-110908343D01*
X165571737Y-110800000D01*
X165590343Y-110611103D01*
X165590343Y-110611101D01*
X165630372Y-110479144D01*
X165645442Y-110429463D01*
X165734920Y-110262061D01*
X165855335Y-110115335D01*
X166002061Y-109994920D01*
X166169463Y-109905442D01*
X166266551Y-109875991D01*
X166351101Y-109850343D01*
X166391548Y-109846359D01*
X166492661Y-109836400D01*
X166587339Y-109836400D01*
X166688452Y-109846359D01*
X166688452Y-109846359D01*
G37*
G36*
X164963600Y-111763600D02*
X163036400Y-111763600D01*
X163036400Y-109836400D01*
X164963600Y-109836400D01*
X164963600Y-111763600D01*
X164963600Y-111763600D01*
G37*
G36*
X142520856Y-107442272D02*
X142721045Y-107525193D01*
X142901207Y-107645573D01*
X143054427Y-107798793D01*
X143174807Y-107978955D01*
X143257728Y-108179144D01*
X143300000Y-108391657D01*
X143300000Y-108608343D01*
X143257728Y-108820856D01*
X143174807Y-109021045D01*
X143054427Y-109201207D01*
X142901207Y-109354427D01*
X142721045Y-109474807D01*
X142520856Y-109557728D01*
X142308343Y-109600000D01*
X142091657Y-109600000D01*
X141879144Y-109557728D01*
X141678955Y-109474807D01*
X141498793Y-109354427D01*
X141345573Y-109201207D01*
X141225193Y-109021045D01*
X141142272Y-108820856D01*
X141100000Y-108608343D01*
X141100000Y-108391657D01*
X141142272Y-108179144D01*
X141225193Y-107978955D01*
X141345573Y-107798793D01*
X141498793Y-107645573D01*
X141678955Y-107525193D01*
X141879144Y-107442272D01*
X142091657Y-107400000D01*
X142308343Y-107400000D01*
X142520856Y-107442272D01*
X142520856Y-107442272D01*
G37*
G36*
X129162520Y-104434586D02*
X129162522Y-104434587D01*
X129162523Y-104434587D01*
X129326310Y-104502430D01*
X129473717Y-104600924D01*
X129599076Y-104726283D01*
X129697570Y-104873690D01*
X129765414Y-105037480D01*
X129800000Y-105211358D01*
X129800000Y-105388642D01*
X129765414Y-105562520D01*
X129697570Y-105726310D01*
X129599076Y-105873717D01*
X129473717Y-105999076D01*
X129326310Y-106097570D01*
X129162523Y-106165413D01*
X129162522Y-106165413D01*
X129162520Y-106165414D01*
X128988642Y-106200000D01*
X128811358Y-106200000D01*
X128637480Y-106165414D01*
X128637478Y-106165413D01*
X128637477Y-106165413D01*
X128473690Y-106097570D01*
X128326283Y-105999076D01*
X128200924Y-105873717D01*
X128102430Y-105726310D01*
X128034586Y-105562520D01*
X128000000Y-105388642D01*
X128000000Y-105211358D01*
X128034586Y-105037480D01*
X128102430Y-104873690D01*
X128200924Y-104726283D01*
X128326283Y-104600924D01*
X128473690Y-104502430D01*
X128637477Y-104434587D01*
X128637478Y-104434587D01*
X128637480Y-104434586D01*
X128811358Y-104400000D01*
X128988642Y-104400000D01*
X129162520Y-104434586D01*
X129162520Y-104434586D01*
G37*
G36*
X129162520Y-99434586D02*
X129162522Y-99434587D01*
X129162523Y-99434587D01*
X129326310Y-99502430D01*
X129473717Y-99600924D01*
X129599076Y-99726283D01*
X129697570Y-99873690D01*
X129765414Y-100037480D01*
X129800000Y-100211358D01*
X129800000Y-100388642D01*
X129765414Y-100562520D01*
X129697570Y-100726310D01*
X129599076Y-100873717D01*
X129473717Y-100999076D01*
X129326310Y-101097570D01*
X129162523Y-101165413D01*
X129162522Y-101165413D01*
X129162520Y-101165414D01*
X128988642Y-101200000D01*
X128811358Y-101200000D01*
X128637480Y-101165414D01*
X128637478Y-101165413D01*
X128637477Y-101165413D01*
X128473690Y-101097570D01*
X128326283Y-100999076D01*
X128200924Y-100873717D01*
X128102430Y-100726310D01*
X128034586Y-100562520D01*
X128000000Y-100388642D01*
X128000000Y-100211358D01*
X128034586Y-100037480D01*
X128102430Y-99873690D01*
X128200924Y-99726283D01*
X128326283Y-99600924D01*
X128473690Y-99502430D01*
X128637477Y-99434587D01*
X128637478Y-99434587D01*
X128637480Y-99434586D01*
X128811358Y-99400000D01*
X128988642Y-99400000D01*
X129162520Y-99434586D01*
X129162520Y-99434586D01*
G37*
G36*
X129145856Y-95317272D02*
X129346045Y-95400193D01*
X129526207Y-95520573D01*
X129679427Y-95673793D01*
X129799807Y-95853955D01*
X129882728Y-96054144D01*
X129925000Y-96266657D01*
X129925000Y-96483343D01*
X129882728Y-96695856D01*
X129799807Y-96896045D01*
X129679427Y-97076207D01*
X129526207Y-97229427D01*
X129346045Y-97349807D01*
X129145856Y-97432728D01*
X128933343Y-97475000D01*
X128716657Y-97475000D01*
X128504144Y-97432728D01*
X128303955Y-97349807D01*
X128123793Y-97229427D01*
X127970573Y-97076207D01*
X127850193Y-96896045D01*
X127767272Y-96695856D01*
X127725000Y-96483343D01*
X127725000Y-96266657D01*
X127767272Y-96054144D01*
X127850193Y-95853955D01*
X127970573Y-95673793D01*
X128123793Y-95520573D01*
X128303955Y-95400193D01*
X128504144Y-95317272D01*
X128716657Y-95275000D01*
X128933343Y-95275000D01*
X129145856Y-95317272D01*
X129145856Y-95317272D01*
G37*
G36*
X168014646Y-93669533D02*
X168269122Y-93746728D01*
X168503649Y-93872085D01*
X168709213Y-94040787D01*
X168877915Y-94246351D01*
X169003272Y-94480878D01*
X169080467Y-94735354D01*
X169106532Y-95000000D01*
X169080467Y-95264646D01*
X169003272Y-95519122D01*
X168877915Y-95753649D01*
X168709213Y-95959213D01*
X168503649Y-96127915D01*
X168269122Y-96253272D01*
X168014646Y-96330467D01*
X167816321Y-96350000D01*
X166183679Y-96350000D01*
X165985354Y-96330467D01*
X165730878Y-96253272D01*
X165496351Y-96127915D01*
X165290787Y-95959213D01*
X165122085Y-95753649D01*
X164996728Y-95519122D01*
X164919533Y-95264646D01*
X164893468Y-95000000D01*
X164919533Y-94735354D01*
X164996728Y-94480878D01*
X165122085Y-94246351D01*
X165290787Y-94040787D01*
X165496351Y-93872085D01*
X165730878Y-93746728D01*
X165985354Y-93669533D01*
X166183679Y-93650000D01*
X167816321Y-93650000D01*
X168014646Y-93669533D01*
X168014646Y-93669533D01*
G37*
G36*
X104014646Y-93669533D02*
X104269122Y-93746728D01*
X104503649Y-93872085D01*
X104709213Y-94040787D01*
X104877915Y-94246351D01*
X105003272Y-94480878D01*
X105080467Y-94735354D01*
X105106532Y-95000000D01*
X105080467Y-95264646D01*
X105003272Y-95519122D01*
X104877915Y-95753649D01*
X104709213Y-95959213D01*
X104503649Y-96127915D01*
X104269122Y-96253272D01*
X104014646Y-96330467D01*
X103816321Y-96350000D01*
X102183679Y-96350000D01*
X101985354Y-96330467D01*
X101730878Y-96253272D01*
X101496351Y-96127915D01*
X101290787Y-95959213D01*
X101122085Y-95753649D01*
X100996728Y-95519122D01*
X100919533Y-95264646D01*
X100893468Y-95000000D01*
X100919533Y-94735354D01*
X100996728Y-94480878D01*
X101122085Y-94246351D01*
X101290787Y-94040787D01*
X101496351Y-93872085D01*
X101730878Y-93746728D01*
X101985354Y-93669533D01*
X102183679Y-93650000D01*
X103816321Y-93650000D01*
X104014646Y-93669533D01*
X104014646Y-93669533D01*
G37*
G36*
X163000279Y-93713436D02*
X163054845Y-93718810D01*
X163299896Y-93793145D01*
X163382267Y-93837173D01*
X163525734Y-93913858D01*
X163525736Y-93913860D01*
X163723687Y-94076313D01*
X163859406Y-94241689D01*
X163886142Y-94274266D01*
X163962827Y-94417733D01*
X164006855Y-94500104D01*
X164081190Y-94745155D01*
X164081190Y-94745157D01*
X164106291Y-95000000D01*
X164085321Y-95212905D01*
X164081190Y-95254845D01*
X164006855Y-95499896D01*
X163962827Y-95582267D01*
X163886142Y-95725734D01*
X163886140Y-95725736D01*
X163723687Y-95923687D01*
X163558311Y-96059406D01*
X163525734Y-96086142D01*
X163382267Y-96162827D01*
X163299896Y-96206855D01*
X163054845Y-96281190D01*
X163000279Y-96286564D01*
X162863869Y-96300000D01*
X161136131Y-96300000D01*
X160999721Y-96286564D01*
X160945155Y-96281190D01*
X160700104Y-96206855D01*
X160617733Y-96162827D01*
X160474266Y-96086142D01*
X160441689Y-96059406D01*
X160276313Y-95923687D01*
X160113860Y-95725736D01*
X160113858Y-95725734D01*
X160037173Y-95582267D01*
X159993145Y-95499896D01*
X159918810Y-95254845D01*
X159914679Y-95212905D01*
X159893709Y-95000000D01*
X159918810Y-94745157D01*
X159918810Y-94745155D01*
X159993145Y-94500104D01*
X160037173Y-94417733D01*
X160113858Y-94274266D01*
X160140594Y-94241689D01*
X160276313Y-94076313D01*
X160474264Y-93913860D01*
X160474266Y-93913858D01*
X160617733Y-93837173D01*
X160700104Y-93793145D01*
X160945155Y-93718810D01*
X160999721Y-93713436D01*
X161136131Y-93700000D01*
X162863869Y-93700000D01*
X163000279Y-93713436D01*
X163000279Y-93713436D01*
G37*
G36*
X109000279Y-93713436D02*
X109054845Y-93718810D01*
X109299896Y-93793145D01*
X109382267Y-93837173D01*
X109525734Y-93913858D01*
X109525736Y-93913860D01*
X109723687Y-94076313D01*
X109859406Y-94241689D01*
X109886142Y-94274266D01*
X109962827Y-94417733D01*
X110006855Y-94500104D01*
X110081190Y-94745155D01*
X110081190Y-94745157D01*
X110106291Y-95000000D01*
X110085321Y-95212905D01*
X110081190Y-95254845D01*
X110006855Y-95499896D01*
X109962827Y-95582267D01*
X109886142Y-95725734D01*
X109886140Y-95725736D01*
X109723687Y-95923687D01*
X109558311Y-96059406D01*
X109525734Y-96086142D01*
X109382267Y-96162827D01*
X109299896Y-96206855D01*
X109054845Y-96281190D01*
X109000279Y-96286564D01*
X108863869Y-96300000D01*
X107136131Y-96300000D01*
X106999721Y-96286564D01*
X106945155Y-96281190D01*
X106700104Y-96206855D01*
X106617733Y-96162827D01*
X106474266Y-96086142D01*
X106441689Y-96059406D01*
X106276313Y-95923687D01*
X106113860Y-95725736D01*
X106113858Y-95725734D01*
X106037173Y-95582267D01*
X105993145Y-95499896D01*
X105918810Y-95254845D01*
X105914679Y-95212905D01*
X105893709Y-95000000D01*
X105918810Y-94745157D01*
X105918810Y-94745155D01*
X105993145Y-94500104D01*
X106037173Y-94417733D01*
X106113858Y-94274266D01*
X106140594Y-94241689D01*
X106276313Y-94076313D01*
X106474264Y-93913860D01*
X106474266Y-93913858D01*
X106617733Y-93837173D01*
X106700104Y-93793145D01*
X106945155Y-93718810D01*
X106999721Y-93713436D01*
X107136131Y-93700000D01*
X108863869Y-93700000D01*
X109000279Y-93713436D01*
X109000279Y-93713436D01*
G37*
G36*
X131620856Y-85442272D02*
X131821045Y-85525193D01*
X132001207Y-85645573D01*
X132154427Y-85798793D01*
X132274807Y-85978955D01*
X132357728Y-86179144D01*
X132400000Y-86391657D01*
X132400000Y-86608343D01*
X132357728Y-86820856D01*
X132274807Y-87021045D01*
X132154427Y-87201207D01*
X132001207Y-87354427D01*
X131821045Y-87474807D01*
X131620856Y-87557728D01*
X131408343Y-87600000D01*
X131191657Y-87600000D01*
X130979144Y-87557728D01*
X130778955Y-87474807D01*
X130598793Y-87354427D01*
X130445573Y-87201207D01*
X130325193Y-87021045D01*
X130242272Y-86820856D01*
X130200000Y-86608343D01*
X130200000Y-86391657D01*
X130242272Y-86179144D01*
X130325193Y-85978955D01*
X130445573Y-85798793D01*
X130598793Y-85645573D01*
X130778955Y-85525193D01*
X130979144Y-85442272D01*
X131191657Y-85400000D01*
X131408343Y-85400000D01*
X131620856Y-85442272D01*
X131620856Y-85442272D01*
G37*
G36*
X104014646Y-83669533D02*
X104269122Y-83746728D01*
X104503649Y-83872085D01*
X104709213Y-84040787D01*
X104877915Y-84246351D01*
X105003272Y-84480878D01*
X105080467Y-84735354D01*
X105106532Y-85000000D01*
X105080467Y-85264646D01*
X105003272Y-85519122D01*
X104877915Y-85753649D01*
X104709213Y-85959213D01*
X104503649Y-86127915D01*
X104269122Y-86253272D01*
X104014646Y-86330467D01*
X103816321Y-86350000D01*
X102183679Y-86350000D01*
X101985354Y-86330467D01*
X101730878Y-86253272D01*
X101496351Y-86127915D01*
X101290787Y-85959213D01*
X101122085Y-85753649D01*
X100996728Y-85519122D01*
X100919533Y-85264646D01*
X100893468Y-85000000D01*
X100919533Y-84735354D01*
X100996728Y-84480878D01*
X101122085Y-84246351D01*
X101290787Y-84040787D01*
X101496351Y-83872085D01*
X101730878Y-83746728D01*
X101985354Y-83669533D01*
X102183679Y-83650000D01*
X103816321Y-83650000D01*
X104014646Y-83669533D01*
X104014646Y-83669533D01*
G37*
G36*
X168014646Y-83669533D02*
X168269122Y-83746728D01*
X168503649Y-83872085D01*
X168709213Y-84040787D01*
X168877915Y-84246351D01*
X169003272Y-84480878D01*
X169080467Y-84735354D01*
X169106532Y-85000000D01*
X169080467Y-85264646D01*
X169003272Y-85519122D01*
X168877915Y-85753649D01*
X168709213Y-85959213D01*
X168503649Y-86127915D01*
X168269122Y-86253272D01*
X168014646Y-86330467D01*
X167816321Y-86350000D01*
X166183679Y-86350000D01*
X165985354Y-86330467D01*
X165730878Y-86253272D01*
X165496351Y-86127915D01*
X165290787Y-85959213D01*
X165122085Y-85753649D01*
X164996728Y-85519122D01*
X164919533Y-85264646D01*
X164893468Y-85000000D01*
X164919533Y-84735354D01*
X164996728Y-84480878D01*
X165122085Y-84246351D01*
X165290787Y-84040787D01*
X165496351Y-83872085D01*
X165730878Y-83746728D01*
X165985354Y-83669533D01*
X166183679Y-83650000D01*
X167816321Y-83650000D01*
X168014646Y-83669533D01*
X168014646Y-83669533D01*
G37*
G36*
X163000279Y-83713436D02*
X163054845Y-83718810D01*
X163299896Y-83793145D01*
X163382267Y-83837173D01*
X163525734Y-83913858D01*
X163525736Y-83913860D01*
X163723687Y-84076313D01*
X163859406Y-84241689D01*
X163886142Y-84274266D01*
X163962827Y-84417733D01*
X164006855Y-84500104D01*
X164081190Y-84745155D01*
X164081190Y-84745157D01*
X164106291Y-85000000D01*
X164085321Y-85212905D01*
X164081190Y-85254845D01*
X164006855Y-85499896D01*
X163993333Y-85525193D01*
X163886142Y-85725734D01*
X163886140Y-85725736D01*
X163723687Y-85923687D01*
X163558311Y-86059406D01*
X163525734Y-86086142D01*
X163382267Y-86162827D01*
X163299896Y-86206855D01*
X163054845Y-86281190D01*
X163000279Y-86286564D01*
X162863869Y-86300000D01*
X161136131Y-86300000D01*
X160999721Y-86286564D01*
X160945155Y-86281190D01*
X160700104Y-86206855D01*
X160617733Y-86162827D01*
X160474266Y-86086142D01*
X160441689Y-86059406D01*
X160276313Y-85923687D01*
X160113860Y-85725736D01*
X160113858Y-85725734D01*
X160006667Y-85525193D01*
X159993145Y-85499896D01*
X159918810Y-85254845D01*
X159914679Y-85212905D01*
X159893709Y-85000000D01*
X159918810Y-84745157D01*
X159918810Y-84745155D01*
X159993145Y-84500104D01*
X160037173Y-84417733D01*
X160113858Y-84274266D01*
X160140594Y-84241689D01*
X160276313Y-84076313D01*
X160474264Y-83913860D01*
X160474266Y-83913858D01*
X160617733Y-83837173D01*
X160700104Y-83793145D01*
X160945155Y-83718810D01*
X160999721Y-83713436D01*
X161136131Y-83700000D01*
X162863869Y-83700000D01*
X163000279Y-83713436D01*
X163000279Y-83713436D01*
G37*
G36*
X109000279Y-83713436D02*
X109054845Y-83718810D01*
X109299896Y-83793145D01*
X109382267Y-83837173D01*
X109525734Y-83913858D01*
X109525736Y-83913860D01*
X109723687Y-84076313D01*
X109859406Y-84241689D01*
X109886142Y-84274266D01*
X109962827Y-84417733D01*
X110006855Y-84500104D01*
X110081190Y-84745155D01*
X110081190Y-84745157D01*
X110106291Y-85000000D01*
X110085321Y-85212905D01*
X110081190Y-85254845D01*
X110006855Y-85499896D01*
X109993333Y-85525193D01*
X109886142Y-85725734D01*
X109886140Y-85725736D01*
X109723687Y-85923687D01*
X109558311Y-86059406D01*
X109525734Y-86086142D01*
X109382267Y-86162827D01*
X109299896Y-86206855D01*
X109054845Y-86281190D01*
X109000279Y-86286564D01*
X108863869Y-86300000D01*
X107136131Y-86300000D01*
X106999721Y-86286564D01*
X106945155Y-86281190D01*
X106700104Y-86206855D01*
X106617733Y-86162827D01*
X106474266Y-86086142D01*
X106441689Y-86059406D01*
X106276313Y-85923687D01*
X106113860Y-85725736D01*
X106113858Y-85725734D01*
X106006667Y-85525193D01*
X105993145Y-85499896D01*
X105918810Y-85254845D01*
X105914679Y-85212905D01*
X105893709Y-85000000D01*
X105918810Y-84745157D01*
X105918810Y-84745155D01*
X105993145Y-84500104D01*
X106037173Y-84417733D01*
X106113858Y-84274266D01*
X106140594Y-84241689D01*
X106276313Y-84076313D01*
X106474264Y-83913860D01*
X106474266Y-83913858D01*
X106617733Y-83837173D01*
X106700104Y-83793145D01*
X106945155Y-83718810D01*
X106999721Y-83713436D01*
X107136131Y-83700000D01*
X108863869Y-83700000D01*
X109000279Y-83713436D01*
X109000279Y-83713436D01*
G37*
G36*
X129162520Y-78734586D02*
X129162522Y-78734587D01*
X129162523Y-78734587D01*
X129326310Y-78802430D01*
X129473717Y-78900924D01*
X129599076Y-79026283D01*
X129697570Y-79173690D01*
X129765414Y-79337480D01*
X129800000Y-79511358D01*
X129800000Y-79688642D01*
X129765414Y-79862520D01*
X129697570Y-80026310D01*
X129599076Y-80173717D01*
X129473717Y-80299076D01*
X129326310Y-80397570D01*
X129162523Y-80465413D01*
X129162522Y-80465413D01*
X129162520Y-80465414D01*
X128988642Y-80500000D01*
X128811358Y-80500000D01*
X128637480Y-80465414D01*
X128637478Y-80465413D01*
X128637477Y-80465413D01*
X128473690Y-80397570D01*
X128326283Y-80299076D01*
X128200924Y-80173717D01*
X128102430Y-80026310D01*
X128034586Y-79862520D01*
X128000000Y-79688642D01*
X128000000Y-79511358D01*
X128034586Y-79337480D01*
X128102430Y-79173690D01*
X128200924Y-79026283D01*
X128326283Y-78900924D01*
X128473690Y-78802430D01*
X128637477Y-78734587D01*
X128637478Y-78734587D01*
X128637480Y-78734586D01*
X128811358Y-78700000D01*
X128988642Y-78700000D01*
X129162520Y-78734586D01*
X129162520Y-78734586D01*
G37*
G36*
X105495872Y-73365330D02*
X105495874Y-73365331D01*
X105495875Y-73365331D01*
X105556284Y-73390353D01*
X105805252Y-73493479D01*
X106083687Y-73679523D01*
X106320477Y-73916313D01*
X106506521Y-74194748D01*
X106634670Y-74504128D01*
X106700000Y-74832565D01*
X106700000Y-75167435D01*
X106634670Y-75495872D01*
X106506521Y-75805252D01*
X106320477Y-76083687D01*
X106083687Y-76320477D01*
X105805252Y-76506521D01*
X105556284Y-76609647D01*
X105495875Y-76634669D01*
X105495874Y-76634669D01*
X105495872Y-76634670D01*
X105167435Y-76700000D01*
X104832565Y-76700000D01*
X104504128Y-76634670D01*
X104504126Y-76634669D01*
X104504125Y-76634669D01*
X104443716Y-76609647D01*
X104194748Y-76506521D01*
X103916313Y-76320477D01*
X103679523Y-76083687D01*
X103493479Y-75805252D01*
X103365330Y-75495872D01*
X103300000Y-75167435D01*
X103300000Y-74832565D01*
X103365330Y-74504128D01*
X103493479Y-74194748D01*
X103679523Y-73916313D01*
X103916313Y-73679523D01*
X104194748Y-73493479D01*
X104443716Y-73390353D01*
X104504125Y-73365331D01*
X104504126Y-73365331D01*
X104504128Y-73365330D01*
X104832565Y-73300000D01*
X105167435Y-73300000D01*
X105495872Y-73365330D01*
X105495872Y-73365330D01*
G37*
G36*
X165495872Y-73365330D02*
X165495874Y-73365331D01*
X165495875Y-73365331D01*
X165556284Y-73390353D01*
X165805252Y-73493479D01*
X166083687Y-73679523D01*
X166320477Y-73916313D01*
X166506521Y-74194748D01*
X166634670Y-74504128D01*
X166700000Y-74832565D01*
X166700000Y-75167435D01*
X166634670Y-75495872D01*
X166506521Y-75805252D01*
X166320477Y-76083687D01*
X166083687Y-76320477D01*
X165805252Y-76506521D01*
X165556284Y-76609647D01*
X165495875Y-76634669D01*
X165495874Y-76634669D01*
X165495872Y-76634670D01*
X165167435Y-76700000D01*
X164832565Y-76700000D01*
X164504128Y-76634670D01*
X164504126Y-76634669D01*
X164504125Y-76634669D01*
X164443716Y-76609647D01*
X164194748Y-76506521D01*
X163916313Y-76320477D01*
X163679523Y-76083687D01*
X163493479Y-75805252D01*
X163365330Y-75495872D01*
X163300000Y-75167435D01*
X163300000Y-74832565D01*
X163365330Y-74504128D01*
X163493479Y-74194748D01*
X163679523Y-73916313D01*
X163916313Y-73679523D01*
X164194748Y-73493479D01*
X164443716Y-73390353D01*
X164504125Y-73365331D01*
X164504126Y-73365331D01*
X164504128Y-73365330D01*
X164832565Y-73300000D01*
X165167435Y-73300000D01*
X165495872Y-73365330D01*
X165495872Y-73365330D01*
G37*
G36*
X129162520Y-73734586D02*
X129162522Y-73734587D01*
X129162523Y-73734587D01*
X129326310Y-73802430D01*
X129473717Y-73900924D01*
X129599076Y-74026283D01*
X129697570Y-74173690D01*
X129765414Y-74337480D01*
X129800000Y-74511358D01*
X129800000Y-74688642D01*
X129765414Y-74862520D01*
X129697570Y-75026310D01*
X129599076Y-75173717D01*
X129473717Y-75299076D01*
X129326310Y-75397570D01*
X129162523Y-75465413D01*
X129162522Y-75465413D01*
X129162520Y-75465414D01*
X128988642Y-75500000D01*
X128811358Y-75500000D01*
X128637480Y-75465414D01*
X128637478Y-75465413D01*
X128637477Y-75465413D01*
X128473690Y-75397570D01*
X128326283Y-75299076D01*
X128200924Y-75173717D01*
X128102430Y-75026310D01*
X128034586Y-74862520D01*
X128000000Y-74688642D01*
X128000000Y-74511358D01*
X128034586Y-74337480D01*
X128102430Y-74173690D01*
X128200924Y-74026283D01*
X128326283Y-73900924D01*
X128473690Y-73802430D01*
X128637477Y-73734587D01*
X128637478Y-73734587D01*
X128637480Y-73734586D01*
X128811358Y-73700000D01*
X128988642Y-73700000D01*
X129162520Y-73734586D01*
X129162520Y-73734586D01*
G37*
M02*
