G04 #@! TF.GenerationSoftware,KiCad,Pcbnew,(5.0.2)-1*
G04 #@! TF.CreationDate,2019-05-12T17:51:48+02:00*
G04 #@! TF.ProjectId,MotorDriver,4d6f746f-7244-4726-9976-65722e6b6963,rev?*
G04 #@! TF.SameCoordinates,Original*
G04 #@! TF.FileFunction,Legend,Top*
G04 #@! TF.FilePolarity,Positive*
%FSLAX46Y46*%
G04 Gerber Fmt 4.6, Leading zero omitted, Abs format (unit mm)*
G04 Created by KiCad (PCBNEW (5.0.2)-1) date 12.05.2019 17:51:48*
%MOMM*%
%LPD*%
G01*
G04 APERTURE LIST*
%ADD10C,0.200000*%
%ADD11C,0.250000*%
%ADD12C,0.300000*%
%ADD13C,0.120000*%
%ADD14C,0.010000*%
%ADD15C,0.150000*%
%ADD16C,0.100000*%
G04 APERTURE END LIST*
D10*
X148000000Y-80102380D02*
X148000000Y-79102380D01*
X148333333Y-79816666D01*
X148666666Y-79102380D01*
X148666666Y-80102380D01*
X149285714Y-80102380D02*
X149190476Y-80054761D01*
X149142857Y-80007142D01*
X149095238Y-79911904D01*
X149095238Y-79626190D01*
X149142857Y-79530952D01*
X149190476Y-79483333D01*
X149285714Y-79435714D01*
X149428571Y-79435714D01*
X149523809Y-79483333D01*
X149571428Y-79530952D01*
X149619047Y-79626190D01*
X149619047Y-79911904D01*
X149571428Y-80007142D01*
X149523809Y-80054761D01*
X149428571Y-80102380D01*
X149285714Y-80102380D01*
X149904761Y-79435714D02*
X150285714Y-79435714D01*
X150047619Y-79102380D02*
X150047619Y-79959523D01*
X150095238Y-80054761D01*
X150190476Y-80102380D01*
X150285714Y-80102380D01*
X150761904Y-80102380D02*
X150666666Y-80054761D01*
X150619047Y-80007142D01*
X150571428Y-79911904D01*
X150571428Y-79626190D01*
X150619047Y-79530952D01*
X150666666Y-79483333D01*
X150761904Y-79435714D01*
X150904761Y-79435714D01*
X151000000Y-79483333D01*
X151047619Y-79530952D01*
X151095238Y-79626190D01*
X151095238Y-79911904D01*
X151047619Y-80007142D01*
X151000000Y-80054761D01*
X150904761Y-80102380D01*
X150761904Y-80102380D01*
X151523809Y-80102380D02*
X151523809Y-79435714D01*
X151523809Y-79626190D02*
X151571428Y-79530952D01*
X151619047Y-79483333D01*
X151714285Y-79435714D01*
X151809523Y-79435714D01*
X152142857Y-80102380D02*
X152142857Y-79102380D01*
X152380952Y-79102380D01*
X152523809Y-79150000D01*
X152619047Y-79245238D01*
X152666666Y-79340476D01*
X152714285Y-79530952D01*
X152714285Y-79673809D01*
X152666666Y-79864285D01*
X152619047Y-79959523D01*
X152523809Y-80054761D01*
X152380952Y-80102380D01*
X152142857Y-80102380D01*
X153142857Y-80102380D02*
X153142857Y-79435714D01*
X153142857Y-79626190D02*
X153190476Y-79530952D01*
X153238095Y-79483333D01*
X153333333Y-79435714D01*
X153428571Y-79435714D01*
X153761904Y-80102380D02*
X153761904Y-79435714D01*
X153761904Y-79102380D02*
X153714285Y-79150000D01*
X153761904Y-79197619D01*
X153809523Y-79150000D01*
X153761904Y-79102380D01*
X153761904Y-79197619D01*
X154142857Y-79435714D02*
X154380952Y-80102380D01*
X154619047Y-79435714D01*
X155380952Y-80054761D02*
X155285714Y-80102380D01*
X155095238Y-80102380D01*
X155000000Y-80054761D01*
X154952380Y-79959523D01*
X154952380Y-79578571D01*
X155000000Y-79483333D01*
X155095238Y-79435714D01*
X155285714Y-79435714D01*
X155380952Y-79483333D01*
X155428571Y-79578571D01*
X155428571Y-79673809D01*
X154952380Y-79769047D01*
X155857142Y-80102380D02*
X155857142Y-79435714D01*
X155857142Y-79626190D02*
X155904761Y-79530952D01*
X155952380Y-79483333D01*
X156047619Y-79435714D01*
X156142857Y-79435714D01*
X145904761Y-81135714D02*
X146142857Y-81802380D01*
X146380952Y-81135714D01*
X147285714Y-81802380D02*
X146714285Y-81802380D01*
X147000000Y-81802380D02*
X147000000Y-80802380D01*
X146904761Y-80945238D01*
X146809523Y-81040476D01*
X146714285Y-81088095D01*
X147714285Y-81707142D02*
X147761904Y-81754761D01*
X147714285Y-81802380D01*
X147666666Y-81754761D01*
X147714285Y-81707142D01*
X147714285Y-81802380D01*
X148380952Y-80802380D02*
X148476190Y-80802380D01*
X148571428Y-80850000D01*
X148619047Y-80897619D01*
X148666666Y-80992857D01*
X148714285Y-81183333D01*
X148714285Y-81421428D01*
X148666666Y-81611904D01*
X148619047Y-81707142D01*
X148571428Y-81754761D01*
X148476190Y-81802380D01*
X148380952Y-81802380D01*
X148285714Y-81754761D01*
X148238095Y-81707142D01*
X148190476Y-81611904D01*
X148142857Y-81421428D01*
X148142857Y-81183333D01*
X148190476Y-80992857D01*
X148238095Y-80897619D01*
X148285714Y-80850000D01*
X148380952Y-80802380D01*
X150428571Y-81802380D02*
X149857142Y-81802380D01*
X150142857Y-81802380D02*
X150142857Y-80802380D01*
X150047619Y-80945238D01*
X149952380Y-81040476D01*
X149857142Y-81088095D01*
X150809523Y-80897619D02*
X150857142Y-80850000D01*
X150952380Y-80802380D01*
X151190476Y-80802380D01*
X151285714Y-80850000D01*
X151333333Y-80897619D01*
X151380952Y-80992857D01*
X151380952Y-81088095D01*
X151333333Y-81230952D01*
X150761904Y-81802380D01*
X151380952Y-81802380D01*
X151809523Y-81707142D02*
X151857142Y-81754761D01*
X151809523Y-81802380D01*
X151761904Y-81754761D01*
X151809523Y-81707142D01*
X151809523Y-81802380D01*
X152476190Y-80802380D02*
X152571428Y-80802380D01*
X152666666Y-80850000D01*
X152714285Y-80897619D01*
X152761904Y-80992857D01*
X152809523Y-81183333D01*
X152809523Y-81421428D01*
X152761904Y-81611904D01*
X152714285Y-81707142D01*
X152666666Y-81754761D01*
X152571428Y-81802380D01*
X152476190Y-81802380D01*
X152380952Y-81754761D01*
X152333333Y-81707142D01*
X152285714Y-81611904D01*
X152238095Y-81421428D01*
X152238095Y-81183333D01*
X152285714Y-80992857D01*
X152333333Y-80897619D01*
X152380952Y-80850000D01*
X152476190Y-80802380D01*
X153714285Y-80802380D02*
X153238095Y-80802380D01*
X153190476Y-81278571D01*
X153238095Y-81230952D01*
X153333333Y-81183333D01*
X153571428Y-81183333D01*
X153666666Y-81230952D01*
X153714285Y-81278571D01*
X153761904Y-81373809D01*
X153761904Y-81611904D01*
X153714285Y-81707142D01*
X153666666Y-81754761D01*
X153571428Y-81802380D01*
X153333333Y-81802380D01*
X153238095Y-81754761D01*
X153190476Y-81707142D01*
X154190476Y-81707142D02*
X154238095Y-81754761D01*
X154190476Y-81802380D01*
X154142857Y-81754761D01*
X154190476Y-81707142D01*
X154190476Y-81802380D01*
X154619047Y-80897619D02*
X154666666Y-80850000D01*
X154761904Y-80802380D01*
X155000000Y-80802380D01*
X155095238Y-80850000D01*
X155142857Y-80897619D01*
X155190476Y-80992857D01*
X155190476Y-81088095D01*
X155142857Y-81230952D01*
X154571428Y-81802380D01*
X155190476Y-81802380D01*
X155809523Y-80802380D02*
X155904761Y-80802380D01*
X156000000Y-80850000D01*
X156047619Y-80897619D01*
X156095238Y-80992857D01*
X156142857Y-81183333D01*
X156142857Y-81421428D01*
X156095238Y-81611904D01*
X156047619Y-81707142D01*
X156000000Y-81754761D01*
X155904761Y-81802380D01*
X155809523Y-81802380D01*
X155714285Y-81754761D01*
X155666666Y-81707142D01*
X155619047Y-81611904D01*
X155571428Y-81421428D01*
X155571428Y-81183333D01*
X155619047Y-80992857D01*
X155666666Y-80897619D01*
X155714285Y-80850000D01*
X155809523Y-80802380D01*
X157095238Y-81802380D02*
X156523809Y-81802380D01*
X156809523Y-81802380D02*
X156809523Y-80802380D01*
X156714285Y-80945238D01*
X156619047Y-81040476D01*
X156523809Y-81088095D01*
X157571428Y-81802380D02*
X157761904Y-81802380D01*
X157857142Y-81754761D01*
X157904761Y-81707142D01*
X158000000Y-81564285D01*
X158047619Y-81373809D01*
X158047619Y-80992857D01*
X158000000Y-80897619D01*
X157952380Y-80850000D01*
X157857142Y-80802380D01*
X157666666Y-80802380D01*
X157571428Y-80850000D01*
X157523809Y-80897619D01*
X157476190Y-80992857D01*
X157476190Y-81230952D01*
X157523809Y-81326190D01*
X157571428Y-81373809D01*
X157666666Y-81421428D01*
X157857142Y-81421428D01*
X157952380Y-81373809D01*
X158000000Y-81326190D01*
X158047619Y-81230952D01*
D11*
X149154761Y-120452380D02*
X149726190Y-120452380D01*
X149440476Y-121452380D02*
X149440476Y-120452380D01*
X150059523Y-120928571D02*
X150392857Y-120928571D01*
X150535714Y-121452380D02*
X150059523Y-121452380D01*
X150059523Y-120452380D01*
X150535714Y-120452380D01*
X150916666Y-121404761D02*
X151059523Y-121452380D01*
X151297619Y-121452380D01*
X151392857Y-121404761D01*
X151440476Y-121357142D01*
X151488095Y-121261904D01*
X151488095Y-121166666D01*
X151440476Y-121071428D01*
X151392857Y-121023809D01*
X151297619Y-120976190D01*
X151107142Y-120928571D01*
X151011904Y-120880952D01*
X150964285Y-120833333D01*
X150916666Y-120738095D01*
X150916666Y-120642857D01*
X150964285Y-120547619D01*
X151011904Y-120500000D01*
X151107142Y-120452380D01*
X151345238Y-120452380D01*
X151488095Y-120500000D01*
X151773809Y-120452380D02*
X152345238Y-120452380D01*
X152059523Y-121452380D02*
X152059523Y-120452380D01*
X156202380Y-121452380D02*
X155869047Y-120976190D01*
X155630952Y-121452380D02*
X155630952Y-120452380D01*
X156011904Y-120452380D01*
X156107142Y-120500000D01*
X156154761Y-120547619D01*
X156202380Y-120642857D01*
X156202380Y-120785714D01*
X156154761Y-120880952D01*
X156107142Y-120928571D01*
X156011904Y-120976190D01*
X155630952Y-120976190D01*
X156583333Y-121404761D02*
X156726190Y-121452380D01*
X156964285Y-121452380D01*
X157059523Y-121404761D01*
X157107142Y-121357142D01*
X157154761Y-121261904D01*
X157154761Y-121166666D01*
X157107142Y-121071428D01*
X157059523Y-121023809D01*
X156964285Y-120976190D01*
X156773809Y-120928571D01*
X156678571Y-120880952D01*
X156630952Y-120833333D01*
X156583333Y-120738095D01*
X156583333Y-120642857D01*
X156630952Y-120547619D01*
X156678571Y-120500000D01*
X156773809Y-120452380D01*
X157011904Y-120452380D01*
X157154761Y-120500000D01*
X157440476Y-120452380D02*
X158011904Y-120452380D01*
X157726190Y-121452380D02*
X157726190Y-120452380D01*
X161352380Y-129047619D02*
X160876190Y-129380952D01*
X161352380Y-129619047D02*
X160352380Y-129619047D01*
X160352380Y-129238095D01*
X160400000Y-129142857D01*
X160447619Y-129095238D01*
X160542857Y-129047619D01*
X160685714Y-129047619D01*
X160780952Y-129095238D01*
X160828571Y-129142857D01*
X160876190Y-129238095D01*
X160876190Y-129619047D01*
X161304761Y-128666666D02*
X161352380Y-128523809D01*
X161352380Y-128285714D01*
X161304761Y-128190476D01*
X161257142Y-128142857D01*
X161161904Y-128095238D01*
X161066666Y-128095238D01*
X160971428Y-128142857D01*
X160923809Y-128190476D01*
X160876190Y-128285714D01*
X160828571Y-128476190D01*
X160780952Y-128571428D01*
X160733333Y-128619047D01*
X160638095Y-128666666D01*
X160542857Y-128666666D01*
X160447619Y-128619047D01*
X160400000Y-128571428D01*
X160352380Y-128476190D01*
X160352380Y-128238095D01*
X160400000Y-128095238D01*
X160352380Y-127809523D02*
X160352380Y-127238095D01*
X161352380Y-127523809D02*
X160352380Y-127523809D01*
D12*
X157928571Y-95607142D02*
X159071428Y-95607142D01*
X158607142Y-86071428D02*
X158607142Y-84928571D01*
X159178571Y-85500000D02*
X158035714Y-85500000D01*
X159140476Y-89404761D02*
X159521428Y-89404761D01*
X159711904Y-89500000D01*
X159902380Y-89690476D01*
X159997619Y-90071428D01*
X159997619Y-90738095D01*
X159902380Y-91119047D01*
X159711904Y-91309523D01*
X159521428Y-91404761D01*
X159140476Y-91404761D01*
X158950000Y-91309523D01*
X158759523Y-91119047D01*
X158664285Y-90738095D01*
X158664285Y-90071428D01*
X158759523Y-89690476D01*
X158950000Y-89500000D01*
X159140476Y-89404761D01*
X160854761Y-89404761D02*
X160854761Y-91023809D01*
X160950000Y-91214285D01*
X161045238Y-91309523D01*
X161235714Y-91404761D01*
X161616666Y-91404761D01*
X161807142Y-91309523D01*
X161902380Y-91214285D01*
X161997619Y-91023809D01*
X161997619Y-89404761D01*
X162664285Y-89404761D02*
X163807142Y-89404761D01*
X163235714Y-91404761D02*
X163235714Y-89404761D01*
X164473809Y-91404761D02*
X164473809Y-89404761D01*
X165235714Y-89404761D01*
X165426190Y-89500000D01*
X165521428Y-89595238D01*
X165616666Y-89785714D01*
X165616666Y-90071428D01*
X165521428Y-90261904D01*
X165426190Y-90357142D01*
X165235714Y-90452380D01*
X164473809Y-90452380D01*
X166473809Y-89404761D02*
X166473809Y-91023809D01*
X166569047Y-91214285D01*
X166664285Y-91309523D01*
X166854761Y-91404761D01*
X167235714Y-91404761D01*
X167426190Y-91309523D01*
X167521428Y-91214285D01*
X167616666Y-91023809D01*
X167616666Y-89404761D01*
X168283333Y-89404761D02*
X169426190Y-89404761D01*
X168854761Y-91404761D02*
X168854761Y-89404761D01*
X110928571Y-95607142D02*
X112071428Y-95607142D01*
X111607142Y-86071428D02*
X111607142Y-84928571D01*
X112178571Y-85500000D02*
X111035714Y-85500000D01*
X102142857Y-91404761D02*
X102142857Y-89404761D01*
X103095238Y-91404761D02*
X103095238Y-89404761D01*
X104238095Y-91404761D01*
X104238095Y-89404761D01*
X105190476Y-91404761D02*
X105190476Y-89404761D01*
X105952380Y-89404761D01*
X106142857Y-89500000D01*
X106238095Y-89595238D01*
X106333333Y-89785714D01*
X106333333Y-90071428D01*
X106238095Y-90261904D01*
X106142857Y-90357142D01*
X105952380Y-90452380D01*
X105190476Y-90452380D01*
X107190476Y-89404761D02*
X107190476Y-91023809D01*
X107285714Y-91214285D01*
X107380952Y-91309523D01*
X107571428Y-91404761D01*
X107952380Y-91404761D01*
X108142857Y-91309523D01*
X108238095Y-91214285D01*
X108333333Y-91023809D01*
X108333333Y-89404761D01*
X109000000Y-89404761D02*
X110142857Y-89404761D01*
X109571428Y-91404761D02*
X109571428Y-89404761D01*
X131380952Y-111309523D02*
X131666666Y-111404761D01*
X132142857Y-111404761D01*
X132333333Y-111309523D01*
X132428571Y-111214285D01*
X132523809Y-111023809D01*
X132523809Y-110833333D01*
X132428571Y-110642857D01*
X132333333Y-110547619D01*
X132142857Y-110452380D01*
X131761904Y-110357142D01*
X131571428Y-110261904D01*
X131476190Y-110166666D01*
X131380952Y-109976190D01*
X131380952Y-109785714D01*
X131476190Y-109595238D01*
X131571428Y-109500000D01*
X131761904Y-109404761D01*
X132238095Y-109404761D01*
X132523809Y-109500000D01*
X133380952Y-110357142D02*
X134047619Y-110357142D01*
X134333333Y-111404761D02*
X133380952Y-111404761D01*
X133380952Y-109404761D01*
X134333333Y-109404761D01*
X135190476Y-111404761D02*
X135190476Y-109404761D01*
X135857142Y-110833333D01*
X136523809Y-109404761D01*
X136523809Y-111404761D01*
D13*
G04 #@! TO.C,U4*
X156560000Y-109660000D02*
X156560000Y-109240000D01*
X149440000Y-109660000D02*
X149860000Y-109660000D01*
X149860000Y-109660000D02*
X149860000Y-111040000D01*
X149440000Y-102540000D02*
X149440000Y-102960000D01*
X156560000Y-102540000D02*
X156560000Y-102960000D01*
X149440000Y-109660000D02*
X149440000Y-109240000D01*
X156560000Y-109660000D02*
X156140000Y-109660000D01*
X156560000Y-102540000D02*
X156140000Y-102540000D01*
X149440000Y-102540000D02*
X149860000Y-102540000D01*
D14*
G04 #@! TO.C,*
G36*
X151726990Y-75328601D02*
X151843482Y-75339822D01*
X151945562Y-75359344D01*
X151949494Y-75360368D01*
X151995249Y-75373897D01*
X152053356Y-75393166D01*
X152117882Y-75415966D01*
X152182894Y-75440088D01*
X152242458Y-75463322D01*
X152290641Y-75483459D01*
X152321510Y-75498289D01*
X152324329Y-75499949D01*
X152331537Y-75511973D01*
X152335922Y-75539394D01*
X152337725Y-75585368D01*
X152337188Y-75653049D01*
X152336933Y-75664753D01*
X152333350Y-75819554D01*
X152244450Y-75754161D01*
X152133283Y-75682393D01*
X152011827Y-75621376D01*
X151890037Y-75575901D01*
X151851893Y-75565228D01*
X151761736Y-75548657D01*
X151661152Y-75540579D01*
X151559695Y-75541113D01*
X151466917Y-75550379D01*
X151420783Y-75559819D01*
X151301597Y-75603039D01*
X151195561Y-75667046D01*
X151103485Y-75750425D01*
X151026179Y-75851764D01*
X150964453Y-75969647D01*
X150919116Y-76102660D01*
X150890980Y-76249391D01*
X150880852Y-76408424D01*
X150883136Y-76498550D01*
X150901536Y-76661940D01*
X150937535Y-76808788D01*
X150990666Y-76938449D01*
X151060464Y-77050280D01*
X151146464Y-77143640D01*
X151248201Y-77217884D01*
X151365208Y-77272371D01*
X151463400Y-77300030D01*
X151552008Y-77311832D01*
X151653792Y-77314048D01*
X151758548Y-77307018D01*
X151856072Y-77291083D01*
X151876150Y-77286261D01*
X151961945Y-77257444D01*
X152056631Y-77214298D01*
X152151824Y-77161121D01*
X152239145Y-77102211D01*
X152247625Y-77095784D01*
X152339700Y-77025136D01*
X152339700Y-77339339D01*
X152253975Y-77378546D01*
X152158768Y-77420423D01*
X152076765Y-77452385D01*
X151999367Y-77477543D01*
X151927694Y-77496660D01*
X151857362Y-77509870D01*
X151771862Y-77519885D01*
X151679390Y-77526294D01*
X151588141Y-77528682D01*
X151506308Y-77526637D01*
X151448337Y-77520803D01*
X151309413Y-77492111D01*
X151189152Y-77452070D01*
X151082404Y-77398158D01*
X150984016Y-77327858D01*
X150904600Y-77254840D01*
X150821045Y-77162331D01*
X150761421Y-77077767D01*
X150749869Y-77057132D01*
X150693769Y-76927402D01*
X150652377Y-76781774D01*
X150625976Y-76625256D01*
X150614850Y-76462856D01*
X150619283Y-76299582D01*
X150639557Y-76140444D01*
X150675957Y-75990450D01*
X150687493Y-75955303D01*
X150749838Y-75812269D01*
X150831398Y-75685378D01*
X150930935Y-75575713D01*
X151047213Y-75484354D01*
X151178995Y-75412380D01*
X151325046Y-75360873D01*
X151383759Y-75346947D01*
X151487857Y-75331944D01*
X151605357Y-75325902D01*
X151726990Y-75328601D01*
X151726990Y-75328601D01*
G37*
X151726990Y-75328601D02*
X151843482Y-75339822D01*
X151945562Y-75359344D01*
X151949494Y-75360368D01*
X151995249Y-75373897D01*
X152053356Y-75393166D01*
X152117882Y-75415966D01*
X152182894Y-75440088D01*
X152242458Y-75463322D01*
X152290641Y-75483459D01*
X152321510Y-75498289D01*
X152324329Y-75499949D01*
X152331537Y-75511973D01*
X152335922Y-75539394D01*
X152337725Y-75585368D01*
X152337188Y-75653049D01*
X152336933Y-75664753D01*
X152333350Y-75819554D01*
X152244450Y-75754161D01*
X152133283Y-75682393D01*
X152011827Y-75621376D01*
X151890037Y-75575901D01*
X151851893Y-75565228D01*
X151761736Y-75548657D01*
X151661152Y-75540579D01*
X151559695Y-75541113D01*
X151466917Y-75550379D01*
X151420783Y-75559819D01*
X151301597Y-75603039D01*
X151195561Y-75667046D01*
X151103485Y-75750425D01*
X151026179Y-75851764D01*
X150964453Y-75969647D01*
X150919116Y-76102660D01*
X150890980Y-76249391D01*
X150880852Y-76408424D01*
X150883136Y-76498550D01*
X150901536Y-76661940D01*
X150937535Y-76808788D01*
X150990666Y-76938449D01*
X151060464Y-77050280D01*
X151146464Y-77143640D01*
X151248201Y-77217884D01*
X151365208Y-77272371D01*
X151463400Y-77300030D01*
X151552008Y-77311832D01*
X151653792Y-77314048D01*
X151758548Y-77307018D01*
X151856072Y-77291083D01*
X151876150Y-77286261D01*
X151961945Y-77257444D01*
X152056631Y-77214298D01*
X152151824Y-77161121D01*
X152239145Y-77102211D01*
X152247625Y-77095784D01*
X152339700Y-77025136D01*
X152339700Y-77339339D01*
X152253975Y-77378546D01*
X152158768Y-77420423D01*
X152076765Y-77452385D01*
X151999367Y-77477543D01*
X151927694Y-77496660D01*
X151857362Y-77509870D01*
X151771862Y-77519885D01*
X151679390Y-77526294D01*
X151588141Y-77528682D01*
X151506308Y-77526637D01*
X151448337Y-77520803D01*
X151309413Y-77492111D01*
X151189152Y-77452070D01*
X151082404Y-77398158D01*
X150984016Y-77327858D01*
X150904600Y-77254840D01*
X150821045Y-77162331D01*
X150761421Y-77077767D01*
X150749869Y-77057132D01*
X150693769Y-76927402D01*
X150652377Y-76781774D01*
X150625976Y-76625256D01*
X150614850Y-76462856D01*
X150619283Y-76299582D01*
X150639557Y-76140444D01*
X150675957Y-75990450D01*
X150687493Y-75955303D01*
X150749838Y-75812269D01*
X150831398Y-75685378D01*
X150930935Y-75575713D01*
X151047213Y-75484354D01*
X151178995Y-75412380D01*
X151325046Y-75360873D01*
X151383759Y-75346947D01*
X151487857Y-75331944D01*
X151605357Y-75325902D01*
X151726990Y-75328601D01*
G36*
X155144050Y-72803607D02*
X155365489Y-72824304D01*
X155582817Y-72864693D01*
X155791298Y-72924542D01*
X155793101Y-72925162D01*
X155881617Y-72959303D01*
X155982635Y-73004269D01*
X156089009Y-73056394D01*
X156193596Y-73112009D01*
X156289248Y-73167448D01*
X156368823Y-73219041D01*
X156377283Y-73225037D01*
X156528831Y-73344820D01*
X156675568Y-73482033D01*
X156811912Y-73630756D01*
X156932277Y-73785070D01*
X156997299Y-73882350D01*
X157113995Y-74092844D01*
X157207167Y-74310901D01*
X157276924Y-74534777D01*
X157323376Y-74762731D01*
X157346635Y-74993020D01*
X157346810Y-75223903D01*
X157324011Y-75453637D01*
X157278349Y-75680480D01*
X157209933Y-75902691D01*
X157118874Y-76118527D01*
X157005282Y-76326246D01*
X156869267Y-76524106D01*
X156826821Y-76577945D01*
X156753951Y-76662310D01*
X156672044Y-76748144D01*
X156587282Y-76829453D01*
X156505845Y-76900245D01*
X156450026Y-76943292D01*
X156414569Y-76969951D01*
X156389047Y-76991491D01*
X156378915Y-77003303D01*
X156378909Y-77003375D01*
X156390617Y-77006816D01*
X156423174Y-77009703D01*
X156472028Y-77011790D01*
X156532632Y-77012829D01*
X156553983Y-77012900D01*
X156625207Y-77013287D01*
X156674697Y-77014716D01*
X156706111Y-77017581D01*
X156723108Y-77022280D01*
X156729345Y-77029209D01*
X156729666Y-77031950D01*
X156724336Y-77042423D01*
X156705215Y-77048354D01*
X156667603Y-77050777D01*
X156643176Y-77051000D01*
X156556686Y-77051000D01*
X156553218Y-77276261D01*
X156551667Y-77358406D01*
X156549695Y-77418494D01*
X156546963Y-77459867D01*
X156543134Y-77485870D01*
X156537869Y-77499844D01*
X156530831Y-77505132D01*
X156530080Y-77505300D01*
X156507502Y-77503725D01*
X156501505Y-77500172D01*
X156498597Y-77485139D01*
X156496087Y-77449014D01*
X156494142Y-77396103D01*
X156492929Y-77330715D01*
X156492600Y-77271133D01*
X156492600Y-77051000D01*
X156285200Y-77051000D01*
X156293514Y-75323800D01*
X156301828Y-73596599D01*
X155965414Y-73596600D01*
X155629000Y-73596600D01*
X155626037Y-74107775D01*
X155625375Y-74223117D01*
X155624755Y-74333710D01*
X155624192Y-74436239D01*
X155623706Y-74527392D01*
X155623312Y-74603855D01*
X155623030Y-74662316D01*
X155622877Y-74699462D01*
X155622862Y-74704696D01*
X155622650Y-74790443D01*
X155035275Y-74790421D01*
X154447900Y-74790400D01*
X154447900Y-72875715D01*
X154502424Y-72861986D01*
X154707781Y-72822216D01*
X154923235Y-72802833D01*
X155144050Y-72803607D01*
X155144050Y-72803607D01*
G37*
X155144050Y-72803607D02*
X155365489Y-72824304D01*
X155582817Y-72864693D01*
X155791298Y-72924542D01*
X155793101Y-72925162D01*
X155881617Y-72959303D01*
X155982635Y-73004269D01*
X156089009Y-73056394D01*
X156193596Y-73112009D01*
X156289248Y-73167448D01*
X156368823Y-73219041D01*
X156377283Y-73225037D01*
X156528831Y-73344820D01*
X156675568Y-73482033D01*
X156811912Y-73630756D01*
X156932277Y-73785070D01*
X156997299Y-73882350D01*
X157113995Y-74092844D01*
X157207167Y-74310901D01*
X157276924Y-74534777D01*
X157323376Y-74762731D01*
X157346635Y-74993020D01*
X157346810Y-75223903D01*
X157324011Y-75453637D01*
X157278349Y-75680480D01*
X157209933Y-75902691D01*
X157118874Y-76118527D01*
X157005282Y-76326246D01*
X156869267Y-76524106D01*
X156826821Y-76577945D01*
X156753951Y-76662310D01*
X156672044Y-76748144D01*
X156587282Y-76829453D01*
X156505845Y-76900245D01*
X156450026Y-76943292D01*
X156414569Y-76969951D01*
X156389047Y-76991491D01*
X156378915Y-77003303D01*
X156378909Y-77003375D01*
X156390617Y-77006816D01*
X156423174Y-77009703D01*
X156472028Y-77011790D01*
X156532632Y-77012829D01*
X156553983Y-77012900D01*
X156625207Y-77013287D01*
X156674697Y-77014716D01*
X156706111Y-77017581D01*
X156723108Y-77022280D01*
X156729345Y-77029209D01*
X156729666Y-77031950D01*
X156724336Y-77042423D01*
X156705215Y-77048354D01*
X156667603Y-77050777D01*
X156643176Y-77051000D01*
X156556686Y-77051000D01*
X156553218Y-77276261D01*
X156551667Y-77358406D01*
X156549695Y-77418494D01*
X156546963Y-77459867D01*
X156543134Y-77485870D01*
X156537869Y-77499844D01*
X156530831Y-77505132D01*
X156530080Y-77505300D01*
X156507502Y-77503725D01*
X156501505Y-77500172D01*
X156498597Y-77485139D01*
X156496087Y-77449014D01*
X156494142Y-77396103D01*
X156492929Y-77330715D01*
X156492600Y-77271133D01*
X156492600Y-77051000D01*
X156285200Y-77051000D01*
X156293514Y-75323800D01*
X156301828Y-73596599D01*
X155965414Y-73596600D01*
X155629000Y-73596600D01*
X155626037Y-74107775D01*
X155625375Y-74223117D01*
X155624755Y-74333710D01*
X155624192Y-74436239D01*
X155623706Y-74527392D01*
X155623312Y-74603855D01*
X155623030Y-74662316D01*
X155622877Y-74699462D01*
X155622862Y-74704696D01*
X155622650Y-74790443D01*
X155035275Y-74790421D01*
X154447900Y-74790400D01*
X154447900Y-72875715D01*
X154502424Y-72861986D01*
X154707781Y-72822216D01*
X154923235Y-72802833D01*
X155144050Y-72803607D01*
G36*
X157036097Y-77013349D02*
X157081776Y-77015004D01*
X157109706Y-77018322D01*
X157123707Y-77023761D01*
X157127599Y-77031781D01*
X157127600Y-77031950D01*
X157123511Y-77040649D01*
X157108513Y-77046308D01*
X157078505Y-77049513D01*
X157029386Y-77050849D01*
X156994250Y-77051000D01*
X156860900Y-77051000D01*
X156860900Y-77216100D01*
X156987900Y-77216100D01*
X157047122Y-77216729D01*
X157085144Y-77219035D01*
X157106144Y-77223645D01*
X157114298Y-77231185D01*
X157114900Y-77235150D01*
X157110703Y-77244033D01*
X157095327Y-77249736D01*
X157064595Y-77252886D01*
X157014329Y-77254109D01*
X156987900Y-77254200D01*
X156860900Y-77254200D01*
X156860900Y-77457400D01*
X156995181Y-77457400D01*
X157055003Y-77457778D01*
X157093679Y-77459396D01*
X157115459Y-77462981D01*
X157124591Y-77469260D01*
X157125324Y-77478957D01*
X157125201Y-77479625D01*
X157120631Y-77489100D01*
X157108408Y-77495698D01*
X157084353Y-77500092D01*
X157044288Y-77502958D01*
X156984036Y-77504971D01*
X156965520Y-77505415D01*
X156810100Y-77508981D01*
X156810100Y-77012900D01*
X156968850Y-77012900D01*
X157036097Y-77013349D01*
X157036097Y-77013349D01*
G37*
X157036097Y-77013349D02*
X157081776Y-77015004D01*
X157109706Y-77018322D01*
X157123707Y-77023761D01*
X157127599Y-77031781D01*
X157127600Y-77031950D01*
X157123511Y-77040649D01*
X157108513Y-77046308D01*
X157078505Y-77049513D01*
X157029386Y-77050849D01*
X156994250Y-77051000D01*
X156860900Y-77051000D01*
X156860900Y-77216100D01*
X156987900Y-77216100D01*
X157047122Y-77216729D01*
X157085144Y-77219035D01*
X157106144Y-77223645D01*
X157114298Y-77231185D01*
X157114900Y-77235150D01*
X157110703Y-77244033D01*
X157095327Y-77249736D01*
X157064595Y-77252886D01*
X157014329Y-77254109D01*
X156987900Y-77254200D01*
X156860900Y-77254200D01*
X156860900Y-77457400D01*
X156995181Y-77457400D01*
X157055003Y-77457778D01*
X157093679Y-77459396D01*
X157115459Y-77462981D01*
X157124591Y-77469260D01*
X157125324Y-77478957D01*
X157125201Y-77479625D01*
X157120631Y-77489100D01*
X157108408Y-77495698D01*
X157084353Y-77500092D01*
X157044288Y-77502958D01*
X156984036Y-77504971D01*
X156965520Y-77505415D01*
X156810100Y-77508981D01*
X156810100Y-77012900D01*
X156968850Y-77012900D01*
X157036097Y-77013349D01*
G36*
X157515170Y-77249673D02*
X157542455Y-77322831D01*
X157566765Y-77387916D01*
X157586688Y-77441155D01*
X157600812Y-77478776D01*
X157607726Y-77497007D01*
X157608083Y-77497907D01*
X157600792Y-77505747D01*
X157582604Y-77508200D01*
X157564205Y-77504140D01*
X157549455Y-77488409D01*
X157534268Y-77455674D01*
X157526633Y-77435175D01*
X157500375Y-77362150D01*
X157276420Y-77362150D01*
X157250347Y-77435175D01*
X157231505Y-77480254D01*
X157214346Y-77503373D01*
X157201337Y-77508200D01*
X157182464Y-77500989D01*
X157179106Y-77492325D01*
X157183609Y-77475934D01*
X157195723Y-77439761D01*
X157214049Y-77387772D01*
X157237188Y-77323934D01*
X157243573Y-77306684D01*
X157296783Y-77306684D01*
X157304731Y-77313349D01*
X157327308Y-77316621D01*
X157369133Y-77317654D01*
X157387950Y-77317700D01*
X157437144Y-77317153D01*
X157465569Y-77314744D01*
X157477845Y-77309322D01*
X157478592Y-77299734D01*
X157477102Y-77295475D01*
X157468886Y-77273825D01*
X157454595Y-77235297D01*
X157436817Y-77186887D01*
X157429849Y-77167802D01*
X157412383Y-77121517D01*
X157398057Y-77086572D01*
X157389024Y-77068089D01*
X157387235Y-77066530D01*
X157381207Y-77079536D01*
X157368739Y-77110609D01*
X157352129Y-77153964D01*
X157345386Y-77171978D01*
X157326966Y-77221310D01*
X157311133Y-77263387D01*
X157300593Y-77291022D01*
X157298847Y-77295475D01*
X157296783Y-77306684D01*
X157243573Y-77306684D01*
X157263739Y-77252212D01*
X157265371Y-77247850D01*
X157295106Y-77168780D01*
X157317733Y-77110347D01*
X157334945Y-77069360D01*
X157348436Y-77042630D01*
X157359898Y-77026966D01*
X157371024Y-77019179D01*
X157383510Y-77016078D01*
X157388711Y-77015490D01*
X157426491Y-77011731D01*
X157515170Y-77249673D01*
X157515170Y-77249673D01*
G37*
X157515170Y-77249673D02*
X157542455Y-77322831D01*
X157566765Y-77387916D01*
X157586688Y-77441155D01*
X157600812Y-77478776D01*
X157607726Y-77497007D01*
X157608083Y-77497907D01*
X157600792Y-77505747D01*
X157582604Y-77508200D01*
X157564205Y-77504140D01*
X157549455Y-77488409D01*
X157534268Y-77455674D01*
X157526633Y-77435175D01*
X157500375Y-77362150D01*
X157276420Y-77362150D01*
X157250347Y-77435175D01*
X157231505Y-77480254D01*
X157214346Y-77503373D01*
X157201337Y-77508200D01*
X157182464Y-77500989D01*
X157179106Y-77492325D01*
X157183609Y-77475934D01*
X157195723Y-77439761D01*
X157214049Y-77387772D01*
X157237188Y-77323934D01*
X157243573Y-77306684D01*
X157296783Y-77306684D01*
X157304731Y-77313349D01*
X157327308Y-77316621D01*
X157369133Y-77317654D01*
X157387950Y-77317700D01*
X157437144Y-77317153D01*
X157465569Y-77314744D01*
X157477845Y-77309322D01*
X157478592Y-77299734D01*
X157477102Y-77295475D01*
X157468886Y-77273825D01*
X157454595Y-77235297D01*
X157436817Y-77186887D01*
X157429849Y-77167802D01*
X157412383Y-77121517D01*
X157398057Y-77086572D01*
X157389024Y-77068089D01*
X157387235Y-77066530D01*
X157381207Y-77079536D01*
X157368739Y-77110609D01*
X157352129Y-77153964D01*
X157345386Y-77171978D01*
X157326966Y-77221310D01*
X157311133Y-77263387D01*
X157300593Y-77291022D01*
X157298847Y-77295475D01*
X157296783Y-77306684D01*
X157243573Y-77306684D01*
X157263739Y-77252212D01*
X157265371Y-77247850D01*
X157295106Y-77168780D01*
X157317733Y-77110347D01*
X157334945Y-77069360D01*
X157348436Y-77042630D01*
X157359898Y-77026966D01*
X157371024Y-77019179D01*
X157383510Y-77016078D01*
X157388711Y-77015490D01*
X157426491Y-77011731D01*
X157515170Y-77249673D01*
G36*
X157737580Y-77014697D02*
X157751509Y-77022594D01*
X157766374Y-77040346D01*
X157784983Y-77071711D01*
X157810139Y-77120444D01*
X157826100Y-77152600D01*
X157853055Y-77206100D01*
X157876301Y-77250133D01*
X157893447Y-77280313D01*
X157902102Y-77292258D01*
X157902300Y-77292300D01*
X157910369Y-77281589D01*
X157927073Y-77252380D01*
X157950020Y-77209055D01*
X157976820Y-77155999D01*
X157978500Y-77152600D01*
X158007995Y-77093743D01*
X158029536Y-77054138D01*
X158045928Y-77030029D01*
X158059976Y-77017659D01*
X158074485Y-77013273D01*
X158082814Y-77012900D01*
X158118200Y-77012900D01*
X158118200Y-77260550D01*
X158118090Y-77345614D01*
X158117539Y-77408592D01*
X158116210Y-77452795D01*
X158113767Y-77481535D01*
X158109875Y-77498127D01*
X158104198Y-77505881D01*
X158096400Y-77508111D01*
X158093099Y-77508200D01*
X158083976Y-77506937D01*
X158077288Y-77500801D01*
X158072576Y-77486272D01*
X158069379Y-77459828D01*
X158067237Y-77417948D01*
X158065688Y-77357112D01*
X158064524Y-77289732D01*
X158061050Y-77071264D01*
X157988506Y-77219882D01*
X157960495Y-77275321D01*
X157935423Y-77321367D01*
X157915757Y-77353735D01*
X157903964Y-77368144D01*
X157902884Y-77368500D01*
X157892602Y-77357788D01*
X157873703Y-77328472D01*
X157848702Y-77284779D01*
X157820112Y-77230935D01*
X157814161Y-77219275D01*
X157738517Y-77070050D01*
X157737858Y-77289125D01*
X157737488Y-77368450D01*
X157736649Y-77425897D01*
X157734922Y-77464986D01*
X157731887Y-77489239D01*
X157727127Y-77502177D01*
X157720222Y-77507322D01*
X157711800Y-77508200D01*
X157703076Y-77507181D01*
X157696619Y-77501916D01*
X157692086Y-77489091D01*
X157689139Y-77465390D01*
X157687437Y-77427500D01*
X157686641Y-77372106D01*
X157686410Y-77295895D01*
X157686400Y-77260550D01*
X157686400Y-77012900D01*
X157721785Y-77012900D01*
X157737580Y-77014697D01*
X157737580Y-77014697D01*
G37*
X157737580Y-77014697D02*
X157751509Y-77022594D01*
X157766374Y-77040346D01*
X157784983Y-77071711D01*
X157810139Y-77120444D01*
X157826100Y-77152600D01*
X157853055Y-77206100D01*
X157876301Y-77250133D01*
X157893447Y-77280313D01*
X157902102Y-77292258D01*
X157902300Y-77292300D01*
X157910369Y-77281589D01*
X157927073Y-77252380D01*
X157950020Y-77209055D01*
X157976820Y-77155999D01*
X157978500Y-77152600D01*
X158007995Y-77093743D01*
X158029536Y-77054138D01*
X158045928Y-77030029D01*
X158059976Y-77017659D01*
X158074485Y-77013273D01*
X158082814Y-77012900D01*
X158118200Y-77012900D01*
X158118200Y-77260550D01*
X158118090Y-77345614D01*
X158117539Y-77408592D01*
X158116210Y-77452795D01*
X158113767Y-77481535D01*
X158109875Y-77498127D01*
X158104198Y-77505881D01*
X158096400Y-77508111D01*
X158093099Y-77508200D01*
X158083976Y-77506937D01*
X158077288Y-77500801D01*
X158072576Y-77486272D01*
X158069379Y-77459828D01*
X158067237Y-77417948D01*
X158065688Y-77357112D01*
X158064524Y-77289732D01*
X158061050Y-77071264D01*
X157988506Y-77219882D01*
X157960495Y-77275321D01*
X157935423Y-77321367D01*
X157915757Y-77353735D01*
X157903964Y-77368144D01*
X157902884Y-77368500D01*
X157892602Y-77357788D01*
X157873703Y-77328472D01*
X157848702Y-77284779D01*
X157820112Y-77230935D01*
X157814161Y-77219275D01*
X157738517Y-77070050D01*
X157737858Y-77289125D01*
X157737488Y-77368450D01*
X157736649Y-77425897D01*
X157734922Y-77464986D01*
X157731887Y-77489239D01*
X157727127Y-77502177D01*
X157720222Y-77507322D01*
X157711800Y-77508200D01*
X157703076Y-77507181D01*
X157696619Y-77501916D01*
X157692086Y-77489091D01*
X157689139Y-77465390D01*
X157687437Y-77427500D01*
X157686641Y-77372106D01*
X157686410Y-77295895D01*
X157686400Y-77260550D01*
X157686400Y-77012900D01*
X157721785Y-77012900D01*
X157737580Y-77014697D01*
G36*
X148644000Y-75577800D02*
X147882000Y-75577800D01*
X147882000Y-77495500D01*
X147615300Y-77495500D01*
X147615300Y-75577800D01*
X146859650Y-75577800D01*
X146859650Y-75361900D01*
X148644000Y-75361900D01*
X148644000Y-75577800D01*
X148644000Y-75577800D01*
G37*
X148644000Y-75577800D02*
X147882000Y-75577800D01*
X147882000Y-77495500D01*
X147615300Y-77495500D01*
X147615300Y-75577800D01*
X146859650Y-75577800D01*
X146859650Y-75361900D01*
X148644000Y-75361900D01*
X148644000Y-75577800D01*
G36*
X150333100Y-75577800D02*
X149202800Y-75577800D01*
X149202800Y-76212800D01*
X150307700Y-76212800D01*
X150307700Y-76441400D01*
X149202800Y-76441400D01*
X149202800Y-77266900D01*
X150333100Y-77266900D01*
X150333100Y-77495500D01*
X148948800Y-77495500D01*
X148948800Y-75361900D01*
X150333100Y-75361900D01*
X150333100Y-75577800D01*
X150333100Y-75577800D01*
G37*
X150333100Y-75577800D02*
X149202800Y-75577800D01*
X149202800Y-76212800D01*
X150307700Y-76212800D01*
X150307700Y-76441400D01*
X149202800Y-76441400D01*
X149202800Y-77266900D01*
X150333100Y-77266900D01*
X150333100Y-77495500D01*
X148948800Y-77495500D01*
X148948800Y-75361900D01*
X150333100Y-75361900D01*
X150333100Y-75577800D01*
G36*
X153771670Y-74902717D02*
X153774890Y-76631900D01*
X154447900Y-76631900D01*
X154447900Y-75463500D01*
X155616300Y-75463500D01*
X155616300Y-77353764D01*
X155530575Y-77372983D01*
X155399054Y-77397051D01*
X155254127Y-77414274D01*
X155105323Y-77424001D01*
X154962171Y-77425581D01*
X154847950Y-77419669D01*
X154602608Y-77385531D01*
X154367144Y-77328070D01*
X154142073Y-77247533D01*
X153927907Y-77144165D01*
X153725160Y-77018210D01*
X153534345Y-76869915D01*
X153368400Y-76712535D01*
X153237635Y-76566110D01*
X153125647Y-76416863D01*
X153026425Y-76256422D01*
X152982458Y-76174700D01*
X152882015Y-75953198D01*
X152805996Y-75726519D01*
X152754311Y-75496135D01*
X152726870Y-75263518D01*
X152723582Y-75030141D01*
X152744358Y-74797477D01*
X152789108Y-74566998D01*
X152857742Y-74340177D01*
X152950169Y-74118486D01*
X153066299Y-73903399D01*
X153127168Y-73807808D01*
X153197617Y-73711718D01*
X153284067Y-73608512D01*
X153380777Y-73504205D01*
X153482007Y-73404812D01*
X153582014Y-73316348D01*
X153640768Y-73269716D01*
X153768450Y-73173535D01*
X153771670Y-74902717D01*
X153771670Y-74902717D01*
G37*
X153771670Y-74902717D02*
X153774890Y-76631900D01*
X154447900Y-76631900D01*
X154447900Y-75463500D01*
X155616300Y-75463500D01*
X155616300Y-77353764D01*
X155530575Y-77372983D01*
X155399054Y-77397051D01*
X155254127Y-77414274D01*
X155105323Y-77424001D01*
X154962171Y-77425581D01*
X154847950Y-77419669D01*
X154602608Y-77385531D01*
X154367144Y-77328070D01*
X154142073Y-77247533D01*
X153927907Y-77144165D01*
X153725160Y-77018210D01*
X153534345Y-76869915D01*
X153368400Y-76712535D01*
X153237635Y-76566110D01*
X153125647Y-76416863D01*
X153026425Y-76256422D01*
X152982458Y-76174700D01*
X152882015Y-75953198D01*
X152805996Y-75726519D01*
X152754311Y-75496135D01*
X152726870Y-75263518D01*
X152723582Y-75030141D01*
X152744358Y-74797477D01*
X152789108Y-74566998D01*
X152857742Y-74340177D01*
X152950169Y-74118486D01*
X153066299Y-73903399D01*
X153127168Y-73807808D01*
X153197617Y-73711718D01*
X153284067Y-73608512D01*
X153380777Y-73504205D01*
X153482007Y-73404812D01*
X153582014Y-73316348D01*
X153640768Y-73269716D01*
X153768450Y-73173535D01*
X153771670Y-74902717D01*
G36*
X148263000Y-73025100D02*
X147693616Y-73025100D01*
X147575870Y-73025213D01*
X147466115Y-73025539D01*
X147366920Y-73026054D01*
X147280859Y-73026734D01*
X147210500Y-73027554D01*
X147158415Y-73028493D01*
X147127175Y-73029526D01*
X147118941Y-73030372D01*
X147117633Y-73043990D01*
X147116725Y-73079537D01*
X147116234Y-73133547D01*
X147116180Y-73202551D01*
X147116580Y-73283083D01*
X147117251Y-73354605D01*
X147120853Y-73673566D01*
X147679231Y-73670008D01*
X148237610Y-73666450D01*
X148237605Y-73777442D01*
X148237600Y-73888435D01*
X147678435Y-73891742D01*
X147119270Y-73895050D01*
X147119270Y-74733250D01*
X148263000Y-74739858D01*
X148263000Y-74968200D01*
X146853300Y-74968200D01*
X146853300Y-72796500D01*
X148263000Y-72796500D01*
X148263000Y-73025100D01*
X148263000Y-73025100D01*
G37*
X148263000Y-73025100D02*
X147693616Y-73025100D01*
X147575870Y-73025213D01*
X147466115Y-73025539D01*
X147366920Y-73026054D01*
X147280859Y-73026734D01*
X147210500Y-73027554D01*
X147158415Y-73028493D01*
X147127175Y-73029526D01*
X147118941Y-73030372D01*
X147117633Y-73043990D01*
X147116725Y-73079537D01*
X147116234Y-73133547D01*
X147116180Y-73202551D01*
X147116580Y-73283083D01*
X147117251Y-73354605D01*
X147120853Y-73673566D01*
X147679231Y-73670008D01*
X148237610Y-73666450D01*
X148237605Y-73777442D01*
X148237600Y-73888435D01*
X147678435Y-73891742D01*
X147119270Y-73895050D01*
X147119270Y-74733250D01*
X148263000Y-74739858D01*
X148263000Y-74968200D01*
X146853300Y-74968200D01*
X146853300Y-72796500D01*
X148263000Y-72796500D01*
X148263000Y-73025100D01*
G36*
X149704734Y-72801471D02*
X149827509Y-72817221D01*
X149948082Y-72845727D01*
X150074268Y-72888693D01*
X150164825Y-72925974D01*
X150282300Y-72977065D01*
X150282300Y-73128082D01*
X150281768Y-73186629D01*
X150280321Y-73234600D01*
X150278178Y-73267067D01*
X150275560Y-73279099D01*
X150275542Y-73279100D01*
X150262896Y-73272270D01*
X150234414Y-73253907D01*
X150194957Y-73227203D01*
X150168559Y-73208870D01*
X150034033Y-73125116D01*
X149901536Y-73064749D01*
X149767176Y-73026456D01*
X149627057Y-73008924D01*
X149571100Y-73007432D01*
X149431595Y-73017721D01*
X149306091Y-73049169D01*
X149194315Y-73101924D01*
X149095994Y-73176136D01*
X149010853Y-73271954D01*
X148968143Y-73336250D01*
X148915482Y-73444713D01*
X148875716Y-73570230D01*
X148849800Y-73707437D01*
X148838689Y-73850969D01*
X148843338Y-73995463D01*
X148846052Y-74022314D01*
X148872242Y-74178384D01*
X148913827Y-74314974D01*
X148971437Y-74433272D01*
X149045703Y-74534463D01*
X149137254Y-74619737D01*
X149179045Y-74649781D01*
X149255738Y-74694957D01*
X149332411Y-74726218D01*
X149415860Y-74745365D01*
X149512881Y-74754197D01*
X149577450Y-74755304D01*
X149718379Y-74747557D01*
X149844548Y-74723755D01*
X149962050Y-74681825D01*
X150076976Y-74619698D01*
X150172513Y-74553034D01*
X150218155Y-74518441D01*
X150249018Y-74498157D01*
X150267984Y-74494230D01*
X150277936Y-74508712D01*
X150281758Y-74543653D01*
X150282333Y-74601103D01*
X150282300Y-74631117D01*
X150282300Y-74779352D01*
X150188171Y-74822842D01*
X150097069Y-74861601D01*
X149999801Y-74897274D01*
X149904581Y-74927161D01*
X149819626Y-74948561D01*
X149787000Y-74954692D01*
X149719470Y-74962086D01*
X149636746Y-74965899D01*
X149547194Y-74966232D01*
X149459181Y-74963186D01*
X149381074Y-74956860D01*
X149329800Y-74949200D01*
X149179633Y-74907117D01*
X149044355Y-74844621D01*
X148924586Y-74762314D01*
X148820946Y-74660797D01*
X148734056Y-74540672D01*
X148664537Y-74402540D01*
X148615631Y-74257000D01*
X148605598Y-74216763D01*
X148598177Y-74178807D01*
X148592985Y-74138244D01*
X148589640Y-74090184D01*
X148587761Y-74029741D01*
X148586966Y-73952025D01*
X148586850Y-73888700D01*
X148588082Y-73771716D01*
X148592467Y-73674754D01*
X148601033Y-73592523D01*
X148614809Y-73519733D01*
X148634824Y-73451093D01*
X148662107Y-73381314D01*
X148697688Y-73305105D01*
X148702114Y-73296181D01*
X148780284Y-73165625D01*
X148874888Y-73054266D01*
X148985362Y-72962429D01*
X149111142Y-72890437D01*
X149251665Y-72838614D01*
X149406364Y-72807284D01*
X149571942Y-72796774D01*
X149704734Y-72801471D01*
X149704734Y-72801471D01*
G37*
X149704734Y-72801471D02*
X149827509Y-72817221D01*
X149948082Y-72845727D01*
X150074268Y-72888693D01*
X150164825Y-72925974D01*
X150282300Y-72977065D01*
X150282300Y-73128082D01*
X150281768Y-73186629D01*
X150280321Y-73234600D01*
X150278178Y-73267067D01*
X150275560Y-73279099D01*
X150275542Y-73279100D01*
X150262896Y-73272270D01*
X150234414Y-73253907D01*
X150194957Y-73227203D01*
X150168559Y-73208870D01*
X150034033Y-73125116D01*
X149901536Y-73064749D01*
X149767176Y-73026456D01*
X149627057Y-73008924D01*
X149571100Y-73007432D01*
X149431595Y-73017721D01*
X149306091Y-73049169D01*
X149194315Y-73101924D01*
X149095994Y-73176136D01*
X149010853Y-73271954D01*
X148968143Y-73336250D01*
X148915482Y-73444713D01*
X148875716Y-73570230D01*
X148849800Y-73707437D01*
X148838689Y-73850969D01*
X148843338Y-73995463D01*
X148846052Y-74022314D01*
X148872242Y-74178384D01*
X148913827Y-74314974D01*
X148971437Y-74433272D01*
X149045703Y-74534463D01*
X149137254Y-74619737D01*
X149179045Y-74649781D01*
X149255738Y-74694957D01*
X149332411Y-74726218D01*
X149415860Y-74745365D01*
X149512881Y-74754197D01*
X149577450Y-74755304D01*
X149718379Y-74747557D01*
X149844548Y-74723755D01*
X149962050Y-74681825D01*
X150076976Y-74619698D01*
X150172513Y-74553034D01*
X150218155Y-74518441D01*
X150249018Y-74498157D01*
X150267984Y-74494230D01*
X150277936Y-74508712D01*
X150281758Y-74543653D01*
X150282333Y-74601103D01*
X150282300Y-74631117D01*
X150282300Y-74779352D01*
X150188171Y-74822842D01*
X150097069Y-74861601D01*
X149999801Y-74897274D01*
X149904581Y-74927161D01*
X149819626Y-74948561D01*
X149787000Y-74954692D01*
X149719470Y-74962086D01*
X149636746Y-74965899D01*
X149547194Y-74966232D01*
X149459181Y-74963186D01*
X149381074Y-74956860D01*
X149329800Y-74949200D01*
X149179633Y-74907117D01*
X149044355Y-74844621D01*
X148924586Y-74762314D01*
X148820946Y-74660797D01*
X148734056Y-74540672D01*
X148664537Y-74402540D01*
X148615631Y-74257000D01*
X148605598Y-74216763D01*
X148598177Y-74178807D01*
X148592985Y-74138244D01*
X148589640Y-74090184D01*
X148587761Y-74029741D01*
X148586966Y-73952025D01*
X148586850Y-73888700D01*
X148588082Y-73771716D01*
X148592467Y-73674754D01*
X148601033Y-73592523D01*
X148614809Y-73519733D01*
X148634824Y-73451093D01*
X148662107Y-73381314D01*
X148697688Y-73305105D01*
X148702114Y-73296181D01*
X148780284Y-73165625D01*
X148874888Y-73054266D01*
X148985362Y-72962429D01*
X149111142Y-72890437D01*
X149251665Y-72838614D01*
X149406364Y-72807284D01*
X149571942Y-72796774D01*
X149704734Y-72801471D01*
G36*
X151609952Y-72807258D02*
X151645381Y-72808268D01*
X151695647Y-72808950D01*
X151755327Y-72809200D01*
X151907554Y-72809200D01*
X151949002Y-72944649D01*
X151990450Y-73080099D01*
X152060197Y-73110948D01*
X152129944Y-73141796D01*
X152266635Y-73074353D01*
X152403326Y-73006909D01*
X152486770Y-73089029D01*
X152527286Y-73129992D01*
X152563494Y-73168536D01*
X152589494Y-73198310D01*
X152595504Y-73206049D01*
X152620793Y-73240949D01*
X152554849Y-73367049D01*
X152488904Y-73493149D01*
X152518108Y-73563610D01*
X152547313Y-73634070D01*
X152684806Y-73679885D01*
X152822300Y-73725700D01*
X152822300Y-74048995D01*
X152548626Y-74131927D01*
X152520814Y-74208293D01*
X152493001Y-74284658D01*
X152557160Y-74412509D01*
X152621318Y-74540359D01*
X152396850Y-74764275D01*
X152268583Y-74698698D01*
X152140316Y-74633122D01*
X152065421Y-74665466D01*
X151990526Y-74697811D01*
X151944372Y-74829830D01*
X151898217Y-74961850D01*
X151582637Y-74968922D01*
X151538893Y-74833048D01*
X151495150Y-74697174D01*
X151420746Y-74665377D01*
X151346343Y-74633580D01*
X151216267Y-74698271D01*
X151086192Y-74762962D01*
X150975293Y-74651547D01*
X150864395Y-74540132D01*
X150994361Y-74281144D01*
X150965355Y-74205861D01*
X150936350Y-74130578D01*
X150669650Y-74046738D01*
X150666104Y-73886342D01*
X150666036Y-73883265D01*
X151302721Y-73883265D01*
X151310056Y-73975471D01*
X151334353Y-74058785D01*
X151337820Y-74066500D01*
X151382110Y-74145607D01*
X151434936Y-74207461D01*
X151488654Y-74250549D01*
X151582357Y-74300877D01*
X151681657Y-74327113D01*
X151783540Y-74329030D01*
X151884990Y-74306402D01*
X151937900Y-74284208D01*
X152025932Y-74228059D01*
X152096231Y-74154406D01*
X152147483Y-74068024D01*
X152165206Y-74025516D01*
X152175448Y-73985551D01*
X152180063Y-73938177D01*
X152180950Y-73888432D01*
X152179837Y-73831053D01*
X152175013Y-73788717D01*
X152164243Y-73751112D01*
X152145297Y-73707924D01*
X152139141Y-73695291D01*
X152085246Y-73609574D01*
X152015253Y-73541125D01*
X151925726Y-73486621D01*
X151920600Y-73484167D01*
X151878773Y-73466627D01*
X151839066Y-73456499D01*
X151791622Y-73451952D01*
X151742800Y-73451099D01*
X151682278Y-73452581D01*
X151636969Y-73458281D01*
X151596789Y-73470080D01*
X151562504Y-73484736D01*
X151480487Y-73535389D01*
X151407652Y-73604299D01*
X151351054Y-73684408D01*
X151338836Y-73708404D01*
X151312323Y-73791224D01*
X151302721Y-73883265D01*
X150666036Y-73883265D01*
X150662558Y-73725947D01*
X150801416Y-73679677D01*
X150940274Y-73633408D01*
X150997726Y-73491854D01*
X150933132Y-73361973D01*
X150868537Y-73232092D01*
X150981952Y-73119202D01*
X151095367Y-73006313D01*
X151225408Y-73074435D01*
X151355450Y-73142557D01*
X151424399Y-73111904D01*
X151493349Y-73081250D01*
X151539766Y-72942050D01*
X151558680Y-72887634D01*
X151575404Y-72843752D01*
X151588069Y-72815036D01*
X151594641Y-72806025D01*
X151609952Y-72807258D01*
X151609952Y-72807258D01*
G37*
X151609952Y-72807258D02*
X151645381Y-72808268D01*
X151695647Y-72808950D01*
X151755327Y-72809200D01*
X151907554Y-72809200D01*
X151949002Y-72944649D01*
X151990450Y-73080099D01*
X152060197Y-73110948D01*
X152129944Y-73141796D01*
X152266635Y-73074353D01*
X152403326Y-73006909D01*
X152486770Y-73089029D01*
X152527286Y-73129992D01*
X152563494Y-73168536D01*
X152589494Y-73198310D01*
X152595504Y-73206049D01*
X152620793Y-73240949D01*
X152554849Y-73367049D01*
X152488904Y-73493149D01*
X152518108Y-73563610D01*
X152547313Y-73634070D01*
X152684806Y-73679885D01*
X152822300Y-73725700D01*
X152822300Y-74048995D01*
X152548626Y-74131927D01*
X152520814Y-74208293D01*
X152493001Y-74284658D01*
X152557160Y-74412509D01*
X152621318Y-74540359D01*
X152396850Y-74764275D01*
X152268583Y-74698698D01*
X152140316Y-74633122D01*
X152065421Y-74665466D01*
X151990526Y-74697811D01*
X151944372Y-74829830D01*
X151898217Y-74961850D01*
X151582637Y-74968922D01*
X151538893Y-74833048D01*
X151495150Y-74697174D01*
X151420746Y-74665377D01*
X151346343Y-74633580D01*
X151216267Y-74698271D01*
X151086192Y-74762962D01*
X150975293Y-74651547D01*
X150864395Y-74540132D01*
X150994361Y-74281144D01*
X150965355Y-74205861D01*
X150936350Y-74130578D01*
X150669650Y-74046738D01*
X150666104Y-73886342D01*
X150666036Y-73883265D01*
X151302721Y-73883265D01*
X151310056Y-73975471D01*
X151334353Y-74058785D01*
X151337820Y-74066500D01*
X151382110Y-74145607D01*
X151434936Y-74207461D01*
X151488654Y-74250549D01*
X151582357Y-74300877D01*
X151681657Y-74327113D01*
X151783540Y-74329030D01*
X151884990Y-74306402D01*
X151937900Y-74284208D01*
X152025932Y-74228059D01*
X152096231Y-74154406D01*
X152147483Y-74068024D01*
X152165206Y-74025516D01*
X152175448Y-73985551D01*
X152180063Y-73938177D01*
X152180950Y-73888432D01*
X152179837Y-73831053D01*
X152175013Y-73788717D01*
X152164243Y-73751112D01*
X152145297Y-73707924D01*
X152139141Y-73695291D01*
X152085246Y-73609574D01*
X152015253Y-73541125D01*
X151925726Y-73486621D01*
X151920600Y-73484167D01*
X151878773Y-73466627D01*
X151839066Y-73456499D01*
X151791622Y-73451952D01*
X151742800Y-73451099D01*
X151682278Y-73452581D01*
X151636969Y-73458281D01*
X151596789Y-73470080D01*
X151562504Y-73484736D01*
X151480487Y-73535389D01*
X151407652Y-73604299D01*
X151351054Y-73684408D01*
X151338836Y-73708404D01*
X151312323Y-73791224D01*
X151302721Y-73883265D01*
X150666036Y-73883265D01*
X150662558Y-73725947D01*
X150801416Y-73679677D01*
X150940274Y-73633408D01*
X150997726Y-73491854D01*
X150933132Y-73361973D01*
X150868537Y-73232092D01*
X150981952Y-73119202D01*
X151095367Y-73006313D01*
X151225408Y-73074435D01*
X151355450Y-73142557D01*
X151424399Y-73111904D01*
X151493349Y-73081250D01*
X151539766Y-72942050D01*
X151558680Y-72887634D01*
X151575404Y-72843752D01*
X151588069Y-72815036D01*
X151594641Y-72806025D01*
X151609952Y-72807258D01*
D15*
G04 #@! TO.C,C22*
X106000000Y-122200000D02*
X106000000Y-123200000D01*
X106500000Y-122700000D02*
X105500000Y-122700000D01*
G04 #@! TO.C,C7*
X128400000Y-98800000D02*
X129400000Y-98800000D01*
X128900000Y-99300000D02*
X128900000Y-98300000D01*
G04 #@! TO.C,C6*
X128400000Y-73100000D02*
X129400000Y-73100000D01*
X128900000Y-73600000D02*
X128900000Y-72600000D01*
G04 #@! TO.C,J7*
X118760000Y-122350000D02*
X118760000Y-140350000D01*
X129960000Y-140350000D02*
X129960000Y-122350000D01*
X129960000Y-122350000D02*
X118760000Y-122350000D01*
X118760000Y-140450000D02*
X129985000Y-140450000D01*
G04 #@! TO.C,J8*
X130260000Y-122350000D02*
X130260000Y-140350000D01*
X141460000Y-140350000D02*
X141460000Y-122350000D01*
X141460000Y-122350000D02*
X130260000Y-122350000D01*
X130260000Y-140450000D02*
X141485000Y-140450000D01*
D13*
G04 #@! TO.C,Y1*
X158400000Y-113050000D02*
X145800000Y-113050000D01*
X145800000Y-113050000D02*
X145800000Y-118150000D01*
X145800000Y-118150000D02*
X158400000Y-118150000D01*
G04 #@! TO.C,J6*
X158100000Y-130845000D02*
X158100000Y-133385000D01*
X158100000Y-130845000D02*
X155560000Y-130845000D01*
X157850000Y-131095000D02*
X157850000Y-140445000D01*
X142070000Y-131095000D02*
X157850000Y-131095000D01*
X142070000Y-140445000D02*
X142070000Y-131095000D01*
X157850000Y-140445000D02*
X142070000Y-140445000D01*
G04 #@! TO.C,TP15*
X115560000Y-134900000D02*
G75*
G03X115560000Y-134900000I-1500000J0D01*
G01*
G04 #@! TO.C,TP8*
X161300000Y-131700000D02*
G75*
G03X161300000Y-131700000I-1500000J0D01*
G01*
G04 #@! TO.C,TP1*
X144000000Y-109300000D02*
G75*
G03X144000000Y-109300000I-1500000J0D01*
G01*
G04 #@! TO.C,TP4*
X130325000Y-96875000D02*
G75*
G03X130325000Y-96875000I-1500000J0D01*
G01*
G04 #@! TO.C,TP7*
X161300000Y-138500000D02*
G75*
G03X161300000Y-138500000I-1500000J0D01*
G01*
G04 #@! TO.C,TP9*
X161300000Y-135100000D02*
G75*
G03X161300000Y-135100000I-1500000J0D01*
G01*
G04 #@! TO.C,TP10*
X106000000Y-126350000D02*
G75*
G03X106000000Y-126350000I-1500000J0D01*
G01*
G04 #@! TO.C,TP11*
X141500000Y-116700000D02*
G75*
G03X141500000Y-116700000I-1500000J0D01*
G01*
G04 #@! TO.C,TP13*
X109400000Y-111300000D02*
G75*
G03X109400000Y-111300000I-1500000J0D01*
G01*
G04 #@! TO.C,TP14*
X122800000Y-115400000D02*
G75*
G03X122800000Y-115400000I-1500000J0D01*
G01*
G04 #@! TO.C,TP12*
X141500000Y-120250000D02*
G75*
G03X141500000Y-120250000I-1500000J0D01*
G01*
G04 #@! TO.C,TP5*
X132800000Y-87000000D02*
G75*
G03X132800000Y-87000000I-1500000J0D01*
G01*
G04 #@! TO.C,TP2*
X142800000Y-111500000D02*
G75*
G03X142800000Y-111500000I-1500000J0D01*
G01*
G04 #@! TO.C,J5*
X169945000Y-105950000D02*
X169945000Y-126810000D01*
X169945000Y-126810000D02*
X160595000Y-126810000D01*
X160595000Y-126810000D02*
X160595000Y-105950000D01*
X160595000Y-105950000D02*
X169945000Y-105950000D01*
X160345000Y-105700000D02*
X160345000Y-108240000D01*
X160345000Y-105700000D02*
X162885000Y-105700000D01*
G04 #@! TO.C,JP2*
X107000000Y-98100000D02*
X109000000Y-98100000D01*
X107000000Y-100900000D02*
X107000000Y-98100000D01*
X109000000Y-100900000D02*
X107000000Y-100900000D01*
X109000000Y-98100000D02*
X109000000Y-100900000D01*
G04 #@! TO.C,R5*
X121437221Y-96710000D02*
X121762779Y-96710000D01*
X121437221Y-95690000D02*
X121762779Y-95690000D01*
G04 #@! TO.C,C10*
X148937221Y-119410000D02*
X149262779Y-119410000D01*
X148937221Y-118390000D02*
X149262779Y-118390000D01*
G04 #@! TO.C,R13*
X164262779Y-104190000D02*
X163937221Y-104190000D01*
X164262779Y-105210000D02*
X163937221Y-105210000D01*
G04 #@! TO.C,C21*
X154562779Y-111590000D02*
X154237221Y-111590000D01*
X154562779Y-112610000D02*
X154237221Y-112610000D01*
G04 #@! TO.C,C1*
X153258578Y-93790000D02*
X152741422Y-93790000D01*
X153258578Y-95210000D02*
X152741422Y-95210000D01*
G04 #@! TO.C,R2*
X124158578Y-84390000D02*
X123641422Y-84390000D01*
X124158578Y-85810000D02*
X123641422Y-85810000D01*
G04 #@! TO.C,SW3*
X148050000Y-127050000D02*
X148050000Y-124550000D01*
X149800000Y-128550000D02*
X151800000Y-128550000D01*
X153550000Y-127050000D02*
X153550000Y-124550000D01*
X149800000Y-123050000D02*
X151800000Y-123050000D01*
X148500000Y-127500000D02*
X148050000Y-127050000D01*
X148500000Y-124100000D02*
X148050000Y-124550000D01*
X153100000Y-124100000D02*
X153550000Y-124550000D01*
X153100000Y-127500000D02*
X153550000Y-127050000D01*
G04 #@! TO.C,SW1*
X154050000Y-127050000D02*
X154050000Y-124550000D01*
X155800000Y-128550000D02*
X157800000Y-128550000D01*
X159550000Y-127050000D02*
X159550000Y-124550000D01*
X155800000Y-123050000D02*
X157800000Y-123050000D01*
X154500000Y-127500000D02*
X154050000Y-127050000D01*
X154500000Y-124100000D02*
X154050000Y-124550000D01*
X159100000Y-124100000D02*
X159550000Y-124550000D01*
X159100000Y-127500000D02*
X159550000Y-127050000D01*
G04 #@! TO.C,C5*
X126290000Y-89937221D02*
X126290000Y-90262779D01*
X127310000Y-89937221D02*
X127310000Y-90262779D01*
G04 #@! TO.C,C3*
X120337221Y-87510000D02*
X120662779Y-87510000D01*
X120337221Y-86490000D02*
X120662779Y-86490000D01*
G04 #@! TO.C,C9*
X151362779Y-92290000D02*
X151037221Y-92290000D01*
X151362779Y-93310000D02*
X151037221Y-93310000D01*
G04 #@! TO.C,C12*
X130662779Y-114390000D02*
X130337221Y-114390000D01*
X130662779Y-115410000D02*
X130337221Y-115410000D01*
G04 #@! TO.C,C14*
X108527500Y-114875279D02*
X108527500Y-114549721D01*
X109547500Y-114875279D02*
X109547500Y-114549721D01*
G04 #@! TO.C,C18*
X147510000Y-109262779D02*
X147510000Y-108937221D01*
X146490000Y-109262779D02*
X146490000Y-108937221D01*
G04 #@! TO.C,C19*
X149137221Y-100810000D02*
X149462779Y-100810000D01*
X149137221Y-99790000D02*
X149462779Y-99790000D01*
G04 #@! TO.C,C20*
X158590000Y-103037221D02*
X158590000Y-103362779D01*
X159610000Y-103037221D02*
X159610000Y-103362779D01*
G04 #@! TO.C,C11*
X156262779Y-118390000D02*
X155937221Y-118390000D01*
X156262779Y-119410000D02*
X155937221Y-119410000D01*
G04 #@! TO.C,C15*
X109996078Y-119910000D02*
X109478922Y-119910000D01*
X109996078Y-118490000D02*
X109478922Y-118490000D01*
G04 #@! TO.C,C8*
X146090000Y-93541422D02*
X146090000Y-94058578D01*
X147510000Y-93541422D02*
X147510000Y-94058578D01*
G04 #@! TO.C,C13*
X106627500Y-114958578D02*
X106627500Y-114441422D01*
X108047500Y-114958578D02*
X108047500Y-114441422D01*
G04 #@! TO.C,C16*
X113147500Y-119841422D02*
X113147500Y-120358578D01*
X111727500Y-119841422D02*
X111727500Y-120358578D01*
G04 #@! TO.C,C17*
X118447500Y-119841422D02*
X118447500Y-120358578D01*
X117027500Y-119841422D02*
X117027500Y-120358578D01*
G04 #@! TO.C,C4*
X127790000Y-89641422D02*
X127790000Y-90158578D01*
X129210000Y-89641422D02*
X129210000Y-90158578D01*
G04 #@! TO.C,C2*
X120241422Y-85810000D02*
X120758578Y-85810000D01*
X120241422Y-84390000D02*
X120758578Y-84390000D01*
G04 #@! TO.C,JP1*
X167430000Y-127470000D02*
X167430000Y-128800000D01*
X166100000Y-127470000D02*
X167430000Y-127470000D01*
X164830000Y-127470000D02*
X164830000Y-130130000D01*
X164830000Y-130130000D02*
X162230000Y-130130000D01*
X164830000Y-127470000D02*
X162230000Y-127470000D01*
X162230000Y-127470000D02*
X162230000Y-130130000D01*
G04 #@! TO.C,D1*
X118500000Y-88050000D02*
X118500000Y-92350000D01*
X120500000Y-88050000D02*
X118500000Y-88050000D01*
X120500000Y-92350000D02*
X120500000Y-88050000D01*
G04 #@! TO.C,D8*
X117310000Y-122550000D02*
X117310000Y-130950000D01*
X110810000Y-122550000D02*
X110810000Y-130950000D01*
X110810000Y-122550000D02*
X117310000Y-122550000D01*
G04 #@! TO.C,L2*
X158058578Y-111290000D02*
X157541422Y-111290000D01*
X158058578Y-112710000D02*
X157541422Y-112710000D01*
G04 #@! TO.C,L1*
X154810000Y-97396078D02*
X154810000Y-96878922D01*
X153390000Y-97396078D02*
X153390000Y-96878922D01*
G04 #@! TO.C,JP3*
X120600000Y-121000000D02*
X120600000Y-118200000D01*
X120600000Y-118200000D02*
X122600000Y-118200000D01*
X122600000Y-118200000D02*
X122600000Y-121000000D01*
X122600000Y-121000000D02*
X120600000Y-121000000D01*
G04 #@! TO.C,D5*
X168985000Y-99940000D02*
X166300000Y-99940000D01*
X168985000Y-101860000D02*
X168985000Y-99940000D01*
X166300000Y-101860000D02*
X168985000Y-101860000D01*
G04 #@! TO.C,D6*
X168985000Y-101840000D02*
X166300000Y-101840000D01*
X168985000Y-103760000D02*
X168985000Y-101840000D01*
X166300000Y-103760000D02*
X168985000Y-103760000D01*
G04 #@! TO.C,D7*
X168985000Y-103740000D02*
X166300000Y-103740000D01*
X168985000Y-105660000D02*
X168985000Y-103740000D01*
X166300000Y-105660000D02*
X168985000Y-105660000D01*
G04 #@! TO.C,D4*
X110120000Y-129635000D02*
X110120000Y-126950000D01*
X108200000Y-129635000D02*
X110120000Y-129635000D01*
X108200000Y-126950000D02*
X108200000Y-129635000D01*
D15*
G04 #@! TO.C,U1*
X120775000Y-93775000D02*
X120775000Y-95175000D01*
X125875000Y-93775000D02*
X125875000Y-89625000D01*
X120725000Y-93775000D02*
X120725000Y-89625000D01*
X125875000Y-93775000D02*
X125730000Y-93775000D01*
X125875000Y-89625000D02*
X125730000Y-89625000D01*
X120725000Y-89625000D02*
X120870000Y-89625000D01*
X120725000Y-93775000D02*
X120775000Y-93775000D01*
G04 #@! TO.C,U2*
X154925000Y-86225000D02*
X154925000Y-84825000D01*
X149825000Y-86225000D02*
X149825000Y-90375000D01*
X154975000Y-86225000D02*
X154975000Y-90375000D01*
X149825000Y-86225000D02*
X149970000Y-86225000D01*
X149825000Y-90375000D02*
X149970000Y-90375000D01*
X154975000Y-90375000D02*
X154830000Y-90375000D01*
X154975000Y-86225000D02*
X154925000Y-86225000D01*
G04 #@! TO.C,U3*
X132575000Y-120925000D02*
X133975000Y-120925000D01*
X132575000Y-115825000D02*
X128425000Y-115825000D01*
X132575000Y-120975000D02*
X128425000Y-120975000D01*
X132575000Y-115825000D02*
X132575000Y-115970000D01*
X128425000Y-115825000D02*
X128425000Y-115970000D01*
X128425000Y-120975000D02*
X128425000Y-120830000D01*
X132575000Y-120975000D02*
X132575000Y-120925000D01*
D13*
G04 #@! TO.C,U5*
X116247500Y-118010000D02*
X116247500Y-116750000D01*
X116247500Y-111190000D02*
X116247500Y-112450000D01*
X112487500Y-118010000D02*
X116247500Y-118010000D01*
X110237500Y-111190000D02*
X116247500Y-111190000D01*
G04 #@! TO.C,Q3*
X134420000Y-118160000D02*
X134420000Y-116700000D01*
X137580000Y-118160000D02*
X137580000Y-116000000D01*
X137580000Y-118160000D02*
X136650000Y-118160000D01*
X134420000Y-118160000D02*
X135350000Y-118160000D01*
G04 #@! TO.C,D3*
X145140000Y-122420000D02*
X146600000Y-122420000D01*
X145140000Y-125580000D02*
X147300000Y-125580000D01*
X145140000Y-125580000D02*
X145140000Y-124650000D01*
X145140000Y-122420000D02*
X145140000Y-123350000D01*
G04 #@! TO.C,U6*
X114377500Y-118520000D02*
X114377500Y-119450000D01*
X114377500Y-121680000D02*
X114377500Y-120750000D01*
X114377500Y-121680000D02*
X116537500Y-121680000D01*
X114377500Y-118520000D02*
X115837500Y-118520000D01*
G04 #@! TO.C,D2*
X145140000Y-125920000D02*
X146600000Y-125920000D01*
X145140000Y-129080000D02*
X147300000Y-129080000D01*
X145140000Y-129080000D02*
X145140000Y-128150000D01*
X145140000Y-125920000D02*
X145140000Y-126850000D01*
G04 #@! TO.C,D9*
X126180000Y-117140000D02*
X126180000Y-118600000D01*
X123020000Y-117140000D02*
X123020000Y-119300000D01*
X123020000Y-117140000D02*
X123950000Y-117140000D01*
X126180000Y-117140000D02*
X125250000Y-117140000D01*
G04 #@! TO.C,Q2*
X140290000Y-99850000D02*
X140290000Y-100950000D01*
X142100000Y-99850000D02*
X140290000Y-99850000D01*
X142100000Y-98350000D02*
X142100000Y-99850000D01*
X133510000Y-99850000D02*
X133510000Y-104975000D01*
X131700000Y-99850000D02*
X133510000Y-99850000D01*
X131700000Y-98350000D02*
X131700000Y-99850000D01*
G04 #@! TO.C,Q1*
X140290000Y-82650000D02*
X140290000Y-83750000D01*
X142100000Y-82650000D02*
X140290000Y-82650000D01*
X142100000Y-81150000D02*
X142100000Y-82650000D01*
X133510000Y-82650000D02*
X133510000Y-87775000D01*
X131700000Y-82650000D02*
X133510000Y-82650000D01*
X131700000Y-81150000D02*
X131700000Y-82650000D01*
G04 #@! TO.C,R15*
X135537221Y-120410000D02*
X135862779Y-120410000D01*
X135537221Y-119390000D02*
X135862779Y-119390000D01*
G04 #@! TO.C,R6*
X124437221Y-96710000D02*
X124762779Y-96710000D01*
X124437221Y-95690000D02*
X124762779Y-95690000D01*
G04 #@! TO.C,R9*
X147950279Y-110790000D02*
X147624721Y-110790000D01*
X147950279Y-111810000D02*
X147624721Y-111810000D01*
G04 #@! TO.C,R10*
X108650000Y-124587221D02*
X108650000Y-124912779D01*
X109670000Y-124587221D02*
X109670000Y-124912779D01*
G04 #@! TO.C,R12*
X164262779Y-102690000D02*
X163937221Y-102690000D01*
X164262779Y-103710000D02*
X163937221Y-103710000D01*
G04 #@! TO.C,R14*
X147510000Y-106262779D02*
X147510000Y-105937221D01*
X146490000Y-106262779D02*
X146490000Y-105937221D01*
G04 #@! TO.C,R16*
X124962779Y-119890000D02*
X124637221Y-119890000D01*
X124962779Y-120910000D02*
X124637221Y-120910000D01*
G04 #@! TO.C,R17*
X158590000Y-106037221D02*
X158590000Y-106362779D01*
X159610000Y-106037221D02*
X159610000Y-106362779D01*
G04 #@! TO.C,R18*
X136162779Y-114390000D02*
X135837221Y-114390000D01*
X136162779Y-115410000D02*
X135837221Y-115410000D01*
G04 #@! TO.C,R11*
X164262779Y-101190000D02*
X163937221Y-101190000D01*
X164262779Y-102210000D02*
X163937221Y-102210000D01*
G04 #@! TO.C,R7*
X127958578Y-91890000D02*
X127441422Y-91890000D01*
X127958578Y-93310000D02*
X127441422Y-93310000D01*
G04 #@! TO.C,R8*
X127958578Y-93790000D02*
X127441422Y-93790000D01*
X127958578Y-95210000D02*
X127441422Y-95210000D01*
G04 #@! TO.C,R4*
X149241422Y-95210000D02*
X149758578Y-95210000D01*
X149241422Y-93790000D02*
X149758578Y-93790000D01*
G04 #@! TO.C,R3*
X124158578Y-86290000D02*
X123641422Y-86290000D01*
X124158578Y-87710000D02*
X123641422Y-87710000D01*
G04 #@! TO.C,R1*
X147990000Y-91541422D02*
X147990000Y-92058578D01*
X149410000Y-91541422D02*
X149410000Y-92058578D01*
G04 #@! TO.C,U4*
D16*
X148819047Y-101526190D02*
X148819047Y-101930952D01*
X148842857Y-101978571D01*
X148866666Y-102002380D01*
X148914285Y-102026190D01*
X149009523Y-102026190D01*
X149057142Y-102002380D01*
X149080952Y-101978571D01*
X149104761Y-101930952D01*
X149104761Y-101526190D01*
X149557142Y-101692857D02*
X149557142Y-102026190D01*
X149438095Y-101502380D02*
X149319047Y-101859523D01*
X149628571Y-101859523D01*
G04 #@! TO.C,C22*
X106878571Y-121521428D02*
X106902380Y-121545238D01*
X106926190Y-121616666D01*
X106926190Y-121664285D01*
X106902380Y-121735714D01*
X106854761Y-121783333D01*
X106807142Y-121807142D01*
X106711904Y-121830952D01*
X106640476Y-121830952D01*
X106545238Y-121807142D01*
X106497619Y-121783333D01*
X106450000Y-121735714D01*
X106426190Y-121664285D01*
X106426190Y-121616666D01*
X106450000Y-121545238D01*
X106473809Y-121521428D01*
X106473809Y-121330952D02*
X106450000Y-121307142D01*
X106426190Y-121259523D01*
X106426190Y-121140476D01*
X106450000Y-121092857D01*
X106473809Y-121069047D01*
X106521428Y-121045238D01*
X106569047Y-121045238D01*
X106640476Y-121069047D01*
X106926190Y-121354761D01*
X106926190Y-121045238D01*
X106473809Y-120854761D02*
X106450000Y-120830952D01*
X106426190Y-120783333D01*
X106426190Y-120664285D01*
X106450000Y-120616666D01*
X106473809Y-120592857D01*
X106521428Y-120569047D01*
X106569047Y-120569047D01*
X106640476Y-120592857D01*
X106926190Y-120878571D01*
X106926190Y-120569047D01*
G04 #@! TO.C,C7*
X128816666Y-103278571D02*
X128792857Y-103302380D01*
X128721428Y-103326190D01*
X128673809Y-103326190D01*
X128602380Y-103302380D01*
X128554761Y-103254761D01*
X128530952Y-103207142D01*
X128507142Y-103111904D01*
X128507142Y-103040476D01*
X128530952Y-102945238D01*
X128554761Y-102897619D01*
X128602380Y-102850000D01*
X128673809Y-102826190D01*
X128721428Y-102826190D01*
X128792857Y-102850000D01*
X128816666Y-102873809D01*
X128983333Y-102826190D02*
X129316666Y-102826190D01*
X129102380Y-103326190D01*
G04 #@! TO.C,C6*
X128816666Y-77878571D02*
X128792857Y-77902380D01*
X128721428Y-77926190D01*
X128673809Y-77926190D01*
X128602380Y-77902380D01*
X128554761Y-77854761D01*
X128530952Y-77807142D01*
X128507142Y-77711904D01*
X128507142Y-77640476D01*
X128530952Y-77545238D01*
X128554761Y-77497619D01*
X128602380Y-77450000D01*
X128673809Y-77426190D01*
X128721428Y-77426190D01*
X128792857Y-77450000D01*
X128816666Y-77473809D01*
X129245238Y-77426190D02*
X129150000Y-77426190D01*
X129102380Y-77450000D01*
X129078571Y-77473809D01*
X129030952Y-77545238D01*
X129007142Y-77640476D01*
X129007142Y-77830952D01*
X129030952Y-77878571D01*
X129054761Y-77902380D01*
X129102380Y-77926190D01*
X129197619Y-77926190D01*
X129245238Y-77902380D01*
X129269047Y-77878571D01*
X129292857Y-77830952D01*
X129292857Y-77711904D01*
X129269047Y-77664285D01*
X129245238Y-77640476D01*
X129197619Y-77616666D01*
X129102380Y-77616666D01*
X129054761Y-77640476D01*
X129030952Y-77664285D01*
X129007142Y-77711904D01*
G04 #@! TO.C,J2*
X164333333Y-82526190D02*
X164333333Y-82883333D01*
X164309523Y-82954761D01*
X164261904Y-83002380D01*
X164190476Y-83026190D01*
X164142857Y-83026190D01*
X164547619Y-82573809D02*
X164571428Y-82550000D01*
X164619047Y-82526190D01*
X164738095Y-82526190D01*
X164785714Y-82550000D01*
X164809523Y-82573809D01*
X164833333Y-82621428D01*
X164833333Y-82669047D01*
X164809523Y-82740476D01*
X164523809Y-83026190D01*
X164833333Y-83026190D01*
G04 #@! TO.C,J3*
X164333333Y-92526190D02*
X164333333Y-92883333D01*
X164309523Y-92954761D01*
X164261904Y-93002380D01*
X164190476Y-93026190D01*
X164142857Y-93026190D01*
X164523809Y-92526190D02*
X164833333Y-92526190D01*
X164666666Y-92716666D01*
X164738095Y-92716666D01*
X164785714Y-92740476D01*
X164809523Y-92764285D01*
X164833333Y-92811904D01*
X164833333Y-92930952D01*
X164809523Y-92978571D01*
X164785714Y-93002380D01*
X164738095Y-93026190D01*
X164595238Y-93026190D01*
X164547619Y-93002380D01*
X164523809Y-92978571D01*
G04 #@! TO.C,J1*
X105533333Y-82526190D02*
X105533333Y-82883333D01*
X105509523Y-82954761D01*
X105461904Y-83002380D01*
X105390476Y-83026190D01*
X105342857Y-83026190D01*
X106033333Y-83026190D02*
X105747619Y-83026190D01*
X105890476Y-83026190D02*
X105890476Y-82526190D01*
X105842857Y-82597619D01*
X105795238Y-82645238D01*
X105747619Y-82669047D01*
G04 #@! TO.C,J4*
X105533333Y-92626190D02*
X105533333Y-92983333D01*
X105509523Y-93054761D01*
X105461904Y-93102380D01*
X105390476Y-93126190D01*
X105342857Y-93126190D01*
X105985714Y-92792857D02*
X105985714Y-93126190D01*
X105866666Y-92602380D02*
X105747619Y-92959523D01*
X106057142Y-92959523D01*
G04 #@! TO.C,J7*
X119093333Y-121576190D02*
X119093333Y-121933333D01*
X119069523Y-122004761D01*
X119021904Y-122052380D01*
X118950476Y-122076190D01*
X118902857Y-122076190D01*
X119283809Y-121576190D02*
X119617142Y-121576190D01*
X119402857Y-122076190D01*
G04 #@! TO.C,J8*
X130593333Y-121476190D02*
X130593333Y-121833333D01*
X130569523Y-121904761D01*
X130521904Y-121952380D01*
X130450476Y-121976190D01*
X130402857Y-121976190D01*
X130902857Y-121690476D02*
X130855238Y-121666666D01*
X130831428Y-121642857D01*
X130807619Y-121595238D01*
X130807619Y-121571428D01*
X130831428Y-121523809D01*
X130855238Y-121500000D01*
X130902857Y-121476190D01*
X130998095Y-121476190D01*
X131045714Y-121500000D01*
X131069523Y-121523809D01*
X131093333Y-121571428D01*
X131093333Y-121595238D01*
X131069523Y-121642857D01*
X131045714Y-121666666D01*
X130998095Y-121690476D01*
X130902857Y-121690476D01*
X130855238Y-121714285D01*
X130831428Y-121738095D01*
X130807619Y-121785714D01*
X130807619Y-121880952D01*
X130831428Y-121928571D01*
X130855238Y-121952380D01*
X130902857Y-121976190D01*
X130998095Y-121976190D01*
X131045714Y-121952380D01*
X131069523Y-121928571D01*
X131093333Y-121880952D01*
X131093333Y-121785714D01*
X131069523Y-121738095D01*
X131045714Y-121714285D01*
X130998095Y-121690476D01*
G04 #@! TO.C,Y1*
D15*
X152023809Y-112026190D02*
X152023809Y-112502380D01*
X151690476Y-111502380D02*
X152023809Y-112026190D01*
X152357142Y-111502380D01*
X153214285Y-112502380D02*
X152642857Y-112502380D01*
X152928571Y-112502380D02*
X152928571Y-111502380D01*
X152833333Y-111645238D01*
X152738095Y-111740476D01*
X152642857Y-111788095D01*
G04 #@! TO.C,J6*
D16*
X142433333Y-130326190D02*
X142433333Y-130683333D01*
X142409523Y-130754761D01*
X142361904Y-130802380D01*
X142290476Y-130826190D01*
X142242857Y-130826190D01*
X142885714Y-130326190D02*
X142790476Y-130326190D01*
X142742857Y-130350000D01*
X142719047Y-130373809D01*
X142671428Y-130445238D01*
X142647619Y-130540476D01*
X142647619Y-130730952D01*
X142671428Y-130778571D01*
X142695238Y-130802380D01*
X142742857Y-130826190D01*
X142838095Y-130826190D01*
X142885714Y-130802380D01*
X142909523Y-130778571D01*
X142933333Y-130730952D01*
X142933333Y-130611904D01*
X142909523Y-130564285D01*
X142885714Y-130540476D01*
X142838095Y-130516666D01*
X142742857Y-130516666D01*
X142695238Y-130540476D01*
X142671428Y-130564285D01*
X142647619Y-130611904D01*
G04 #@! TO.C,TP15*
X113180952Y-136976190D02*
X113466666Y-136976190D01*
X113323809Y-137476190D02*
X113323809Y-136976190D01*
X113633333Y-137476190D02*
X113633333Y-136976190D01*
X113823809Y-136976190D01*
X113871428Y-137000000D01*
X113895238Y-137023809D01*
X113919047Y-137071428D01*
X113919047Y-137142857D01*
X113895238Y-137190476D01*
X113871428Y-137214285D01*
X113823809Y-137238095D01*
X113633333Y-137238095D01*
X114395238Y-137476190D02*
X114109523Y-137476190D01*
X114252380Y-137476190D02*
X114252380Y-136976190D01*
X114204761Y-137047619D01*
X114157142Y-137095238D01*
X114109523Y-137119047D01*
X114847619Y-136976190D02*
X114609523Y-136976190D01*
X114585714Y-137214285D01*
X114609523Y-137190476D01*
X114657142Y-137166666D01*
X114776190Y-137166666D01*
X114823809Y-137190476D01*
X114847619Y-137214285D01*
X114871428Y-137261904D01*
X114871428Y-137380952D01*
X114847619Y-137428571D01*
X114823809Y-137452380D01*
X114776190Y-137476190D01*
X114657142Y-137476190D01*
X114609523Y-137452380D01*
X114585714Y-137428571D01*
G04 #@! TO.C,TP8*
X161769047Y-131426190D02*
X162054761Y-131426190D01*
X161911904Y-131926190D02*
X161911904Y-131426190D01*
X162221428Y-131926190D02*
X162221428Y-131426190D01*
X162411904Y-131426190D01*
X162459523Y-131450000D01*
X162483333Y-131473809D01*
X162507142Y-131521428D01*
X162507142Y-131592857D01*
X162483333Y-131640476D01*
X162459523Y-131664285D01*
X162411904Y-131688095D01*
X162221428Y-131688095D01*
X162792857Y-131640476D02*
X162745238Y-131616666D01*
X162721428Y-131592857D01*
X162697619Y-131545238D01*
X162697619Y-131521428D01*
X162721428Y-131473809D01*
X162745238Y-131450000D01*
X162792857Y-131426190D01*
X162888095Y-131426190D01*
X162935714Y-131450000D01*
X162959523Y-131473809D01*
X162983333Y-131521428D01*
X162983333Y-131545238D01*
X162959523Y-131592857D01*
X162935714Y-131616666D01*
X162888095Y-131640476D01*
X162792857Y-131640476D01*
X162745238Y-131664285D01*
X162721428Y-131688095D01*
X162697619Y-131735714D01*
X162697619Y-131830952D01*
X162721428Y-131878571D01*
X162745238Y-131902380D01*
X162792857Y-131926190D01*
X162888095Y-131926190D01*
X162935714Y-131902380D01*
X162959523Y-131878571D01*
X162983333Y-131830952D01*
X162983333Y-131735714D01*
X162959523Y-131688095D01*
X162935714Y-131664285D01*
X162888095Y-131640476D01*
G04 #@! TO.C,TP1*
X139269047Y-109026190D02*
X139554761Y-109026190D01*
X139411904Y-109526190D02*
X139411904Y-109026190D01*
X139721428Y-109526190D02*
X139721428Y-109026190D01*
X139911904Y-109026190D01*
X139959523Y-109050000D01*
X139983333Y-109073809D01*
X140007142Y-109121428D01*
X140007142Y-109192857D01*
X139983333Y-109240476D01*
X139959523Y-109264285D01*
X139911904Y-109288095D01*
X139721428Y-109288095D01*
X140483333Y-109526190D02*
X140197619Y-109526190D01*
X140340476Y-109526190D02*
X140340476Y-109026190D01*
X140292857Y-109097619D01*
X140245238Y-109145238D01*
X140197619Y-109169047D01*
G04 #@! TO.C,TP4*
X129869047Y-98426190D02*
X130154761Y-98426190D01*
X130011904Y-98926190D02*
X130011904Y-98426190D01*
X130321428Y-98926190D02*
X130321428Y-98426190D01*
X130511904Y-98426190D01*
X130559523Y-98450000D01*
X130583333Y-98473809D01*
X130607142Y-98521428D01*
X130607142Y-98592857D01*
X130583333Y-98640476D01*
X130559523Y-98664285D01*
X130511904Y-98688095D01*
X130321428Y-98688095D01*
X131035714Y-98592857D02*
X131035714Y-98926190D01*
X130916666Y-98402380D02*
X130797619Y-98759523D01*
X131107142Y-98759523D01*
G04 #@! TO.C,TP7*
X161869047Y-138226190D02*
X162154761Y-138226190D01*
X162011904Y-138726190D02*
X162011904Y-138226190D01*
X162321428Y-138726190D02*
X162321428Y-138226190D01*
X162511904Y-138226190D01*
X162559523Y-138250000D01*
X162583333Y-138273809D01*
X162607142Y-138321428D01*
X162607142Y-138392857D01*
X162583333Y-138440476D01*
X162559523Y-138464285D01*
X162511904Y-138488095D01*
X162321428Y-138488095D01*
X162773809Y-138226190D02*
X163107142Y-138226190D01*
X162892857Y-138726190D01*
G04 #@! TO.C,TP9*
X161069047Y-133226190D02*
X161354761Y-133226190D01*
X161211904Y-133726190D02*
X161211904Y-133226190D01*
X161521428Y-133726190D02*
X161521428Y-133226190D01*
X161711904Y-133226190D01*
X161759523Y-133250000D01*
X161783333Y-133273809D01*
X161807142Y-133321428D01*
X161807142Y-133392857D01*
X161783333Y-133440476D01*
X161759523Y-133464285D01*
X161711904Y-133488095D01*
X161521428Y-133488095D01*
X162045238Y-133726190D02*
X162140476Y-133726190D01*
X162188095Y-133702380D01*
X162211904Y-133678571D01*
X162259523Y-133607142D01*
X162283333Y-133511904D01*
X162283333Y-133321428D01*
X162259523Y-133273809D01*
X162235714Y-133250000D01*
X162188095Y-133226190D01*
X162092857Y-133226190D01*
X162045238Y-133250000D01*
X162021428Y-133273809D01*
X161997619Y-133321428D01*
X161997619Y-133440476D01*
X162021428Y-133488095D01*
X162045238Y-133511904D01*
X162092857Y-133535714D01*
X162188095Y-133535714D01*
X162235714Y-133511904D01*
X162259523Y-133488095D01*
X162283333Y-133440476D01*
G04 #@! TO.C,TP10*
X103630952Y-128476190D02*
X103916666Y-128476190D01*
X103773809Y-128976190D02*
X103773809Y-128476190D01*
X104083333Y-128976190D02*
X104083333Y-128476190D01*
X104273809Y-128476190D01*
X104321428Y-128500000D01*
X104345238Y-128523809D01*
X104369047Y-128571428D01*
X104369047Y-128642857D01*
X104345238Y-128690476D01*
X104321428Y-128714285D01*
X104273809Y-128738095D01*
X104083333Y-128738095D01*
X104845238Y-128976190D02*
X104559523Y-128976190D01*
X104702380Y-128976190D02*
X104702380Y-128476190D01*
X104654761Y-128547619D01*
X104607142Y-128595238D01*
X104559523Y-128619047D01*
X105154761Y-128476190D02*
X105202380Y-128476190D01*
X105250000Y-128500000D01*
X105273809Y-128523809D01*
X105297619Y-128571428D01*
X105321428Y-128666666D01*
X105321428Y-128785714D01*
X105297619Y-128880952D01*
X105273809Y-128928571D01*
X105250000Y-128952380D01*
X105202380Y-128976190D01*
X105154761Y-128976190D01*
X105107142Y-128952380D01*
X105083333Y-128928571D01*
X105059523Y-128880952D01*
X105035714Y-128785714D01*
X105035714Y-128666666D01*
X105059523Y-128571428D01*
X105083333Y-128523809D01*
X105107142Y-128500000D01*
X105154761Y-128476190D01*
G04 #@! TO.C,TP11*
X141930952Y-116526190D02*
X142216666Y-116526190D01*
X142073809Y-117026190D02*
X142073809Y-116526190D01*
X142383333Y-117026190D02*
X142383333Y-116526190D01*
X142573809Y-116526190D01*
X142621428Y-116550000D01*
X142645238Y-116573809D01*
X142669047Y-116621428D01*
X142669047Y-116692857D01*
X142645238Y-116740476D01*
X142621428Y-116764285D01*
X142573809Y-116788095D01*
X142383333Y-116788095D01*
X143145238Y-117026190D02*
X142859523Y-117026190D01*
X143002380Y-117026190D02*
X143002380Y-116526190D01*
X142954761Y-116597619D01*
X142907142Y-116645238D01*
X142859523Y-116669047D01*
X143621428Y-117026190D02*
X143335714Y-117026190D01*
X143478571Y-117026190D02*
X143478571Y-116526190D01*
X143430952Y-116597619D01*
X143383333Y-116645238D01*
X143335714Y-116669047D01*
G04 #@! TO.C,TP13*
X110030952Y-110226190D02*
X110316666Y-110226190D01*
X110173809Y-110726190D02*
X110173809Y-110226190D01*
X110483333Y-110726190D02*
X110483333Y-110226190D01*
X110673809Y-110226190D01*
X110721428Y-110250000D01*
X110745238Y-110273809D01*
X110769047Y-110321428D01*
X110769047Y-110392857D01*
X110745238Y-110440476D01*
X110721428Y-110464285D01*
X110673809Y-110488095D01*
X110483333Y-110488095D01*
X111245238Y-110726190D02*
X110959523Y-110726190D01*
X111102380Y-110726190D02*
X111102380Y-110226190D01*
X111054761Y-110297619D01*
X111007142Y-110345238D01*
X110959523Y-110369047D01*
X111411904Y-110226190D02*
X111721428Y-110226190D01*
X111554761Y-110416666D01*
X111626190Y-110416666D01*
X111673809Y-110440476D01*
X111697619Y-110464285D01*
X111721428Y-110511904D01*
X111721428Y-110630952D01*
X111697619Y-110678571D01*
X111673809Y-110702380D01*
X111626190Y-110726190D01*
X111483333Y-110726190D01*
X111435714Y-110702380D01*
X111411904Y-110678571D01*
G04 #@! TO.C,TP14*
X120480952Y-113026190D02*
X120766666Y-113026190D01*
X120623809Y-113526190D02*
X120623809Y-113026190D01*
X120933333Y-113526190D02*
X120933333Y-113026190D01*
X121123809Y-113026190D01*
X121171428Y-113050000D01*
X121195238Y-113073809D01*
X121219047Y-113121428D01*
X121219047Y-113192857D01*
X121195238Y-113240476D01*
X121171428Y-113264285D01*
X121123809Y-113288095D01*
X120933333Y-113288095D01*
X121695238Y-113526190D02*
X121409523Y-113526190D01*
X121552380Y-113526190D02*
X121552380Y-113026190D01*
X121504761Y-113097619D01*
X121457142Y-113145238D01*
X121409523Y-113169047D01*
X122123809Y-113192857D02*
X122123809Y-113526190D01*
X122004761Y-113002380D02*
X121885714Y-113359523D01*
X122195238Y-113359523D01*
G04 #@! TO.C,TP12*
X141830952Y-120126190D02*
X142116666Y-120126190D01*
X141973809Y-120626190D02*
X141973809Y-120126190D01*
X142283333Y-120626190D02*
X142283333Y-120126190D01*
X142473809Y-120126190D01*
X142521428Y-120150000D01*
X142545238Y-120173809D01*
X142569047Y-120221428D01*
X142569047Y-120292857D01*
X142545238Y-120340476D01*
X142521428Y-120364285D01*
X142473809Y-120388095D01*
X142283333Y-120388095D01*
X143045238Y-120626190D02*
X142759523Y-120626190D01*
X142902380Y-120626190D02*
X142902380Y-120126190D01*
X142854761Y-120197619D01*
X142807142Y-120245238D01*
X142759523Y-120269047D01*
X143235714Y-120173809D02*
X143259523Y-120150000D01*
X143307142Y-120126190D01*
X143426190Y-120126190D01*
X143473809Y-120150000D01*
X143497619Y-120173809D01*
X143521428Y-120221428D01*
X143521428Y-120269047D01*
X143497619Y-120340476D01*
X143211904Y-120626190D01*
X143521428Y-120626190D01*
G04 #@! TO.C,TP5*
X130669047Y-84226190D02*
X130954761Y-84226190D01*
X130811904Y-84726190D02*
X130811904Y-84226190D01*
X131121428Y-84726190D02*
X131121428Y-84226190D01*
X131311904Y-84226190D01*
X131359523Y-84250000D01*
X131383333Y-84273809D01*
X131407142Y-84321428D01*
X131407142Y-84392857D01*
X131383333Y-84440476D01*
X131359523Y-84464285D01*
X131311904Y-84488095D01*
X131121428Y-84488095D01*
X131859523Y-84226190D02*
X131621428Y-84226190D01*
X131597619Y-84464285D01*
X131621428Y-84440476D01*
X131669047Y-84416666D01*
X131788095Y-84416666D01*
X131835714Y-84440476D01*
X131859523Y-84464285D01*
X131883333Y-84511904D01*
X131883333Y-84630952D01*
X131859523Y-84678571D01*
X131835714Y-84702380D01*
X131788095Y-84726190D01*
X131669047Y-84726190D01*
X131621428Y-84702380D01*
X131597619Y-84678571D01*
G04 #@! TO.C,TP2*
X138169047Y-111126190D02*
X138454761Y-111126190D01*
X138311904Y-111626190D02*
X138311904Y-111126190D01*
X138621428Y-111626190D02*
X138621428Y-111126190D01*
X138811904Y-111126190D01*
X138859523Y-111150000D01*
X138883333Y-111173809D01*
X138907142Y-111221428D01*
X138907142Y-111292857D01*
X138883333Y-111340476D01*
X138859523Y-111364285D01*
X138811904Y-111388095D01*
X138621428Y-111388095D01*
X139097619Y-111173809D02*
X139121428Y-111150000D01*
X139169047Y-111126190D01*
X139288095Y-111126190D01*
X139335714Y-111150000D01*
X139359523Y-111173809D01*
X139383333Y-111221428D01*
X139383333Y-111269047D01*
X139359523Y-111340476D01*
X139073809Y-111626190D01*
X139383333Y-111626190D01*
G04 #@! TO.C,J5*
X159826190Y-120266666D02*
X160183333Y-120266666D01*
X160254761Y-120290476D01*
X160302380Y-120338095D01*
X160326190Y-120409523D01*
X160326190Y-120457142D01*
X159826190Y-119790476D02*
X159826190Y-120028571D01*
X160064285Y-120052380D01*
X160040476Y-120028571D01*
X160016666Y-119980952D01*
X160016666Y-119861904D01*
X160040476Y-119814285D01*
X160064285Y-119790476D01*
X160111904Y-119766666D01*
X160230952Y-119766666D01*
X160278571Y-119790476D01*
X160302380Y-119814285D01*
X160326190Y-119861904D01*
X160326190Y-119980952D01*
X160302380Y-120028571D01*
X160278571Y-120052380D01*
G04 #@! TO.C,JP2*
X109526190Y-99916666D02*
X109883333Y-99916666D01*
X109954761Y-99940476D01*
X110002380Y-99988095D01*
X110026190Y-100059523D01*
X110026190Y-100107142D01*
X110026190Y-99678571D02*
X109526190Y-99678571D01*
X109526190Y-99488095D01*
X109550000Y-99440476D01*
X109573809Y-99416666D01*
X109621428Y-99392857D01*
X109692857Y-99392857D01*
X109740476Y-99416666D01*
X109764285Y-99440476D01*
X109788095Y-99488095D01*
X109788095Y-99678571D01*
X109573809Y-99202380D02*
X109550000Y-99178571D01*
X109526190Y-99130952D01*
X109526190Y-99011904D01*
X109550000Y-98964285D01*
X109573809Y-98940476D01*
X109621428Y-98916666D01*
X109669047Y-98916666D01*
X109740476Y-98940476D01*
X110026190Y-99226190D01*
X110026190Y-98916666D01*
G04 #@! TO.C,R5*
X119516666Y-96426190D02*
X119350000Y-96188095D01*
X119230952Y-96426190D02*
X119230952Y-95926190D01*
X119421428Y-95926190D01*
X119469047Y-95950000D01*
X119492857Y-95973809D01*
X119516666Y-96021428D01*
X119516666Y-96092857D01*
X119492857Y-96140476D01*
X119469047Y-96164285D01*
X119421428Y-96188095D01*
X119230952Y-96188095D01*
X119969047Y-95926190D02*
X119730952Y-95926190D01*
X119707142Y-96164285D01*
X119730952Y-96140476D01*
X119778571Y-96116666D01*
X119897619Y-96116666D01*
X119945238Y-96140476D01*
X119969047Y-96164285D01*
X119992857Y-96211904D01*
X119992857Y-96330952D01*
X119969047Y-96378571D01*
X119945238Y-96402380D01*
X119897619Y-96426190D01*
X119778571Y-96426190D01*
X119730952Y-96402380D01*
X119707142Y-96378571D01*
G04 #@! TO.C,C10*
X151028571Y-119028571D02*
X151004761Y-119052380D01*
X150933333Y-119076190D01*
X150885714Y-119076190D01*
X150814285Y-119052380D01*
X150766666Y-119004761D01*
X150742857Y-118957142D01*
X150719047Y-118861904D01*
X150719047Y-118790476D01*
X150742857Y-118695238D01*
X150766666Y-118647619D01*
X150814285Y-118600000D01*
X150885714Y-118576190D01*
X150933333Y-118576190D01*
X151004761Y-118600000D01*
X151028571Y-118623809D01*
X151504761Y-119076190D02*
X151219047Y-119076190D01*
X151361904Y-119076190D02*
X151361904Y-118576190D01*
X151314285Y-118647619D01*
X151266666Y-118695238D01*
X151219047Y-118719047D01*
X151814285Y-118576190D02*
X151861904Y-118576190D01*
X151909523Y-118600000D01*
X151933333Y-118623809D01*
X151957142Y-118671428D01*
X151980952Y-118766666D01*
X151980952Y-118885714D01*
X151957142Y-118980952D01*
X151933333Y-119028571D01*
X151909523Y-119052380D01*
X151861904Y-119076190D01*
X151814285Y-119076190D01*
X151766666Y-119052380D01*
X151742857Y-119028571D01*
X151719047Y-118980952D01*
X151695238Y-118885714D01*
X151695238Y-118766666D01*
X151719047Y-118671428D01*
X151742857Y-118623809D01*
X151766666Y-118600000D01*
X151814285Y-118576190D01*
G04 #@! TO.C,R13*
X161278571Y-104926190D02*
X161111904Y-104688095D01*
X160992857Y-104926190D02*
X160992857Y-104426190D01*
X161183333Y-104426190D01*
X161230952Y-104450000D01*
X161254761Y-104473809D01*
X161278571Y-104521428D01*
X161278571Y-104592857D01*
X161254761Y-104640476D01*
X161230952Y-104664285D01*
X161183333Y-104688095D01*
X160992857Y-104688095D01*
X161754761Y-104926190D02*
X161469047Y-104926190D01*
X161611904Y-104926190D02*
X161611904Y-104426190D01*
X161564285Y-104497619D01*
X161516666Y-104545238D01*
X161469047Y-104569047D01*
X161921428Y-104426190D02*
X162230952Y-104426190D01*
X162064285Y-104616666D01*
X162135714Y-104616666D01*
X162183333Y-104640476D01*
X162207142Y-104664285D01*
X162230952Y-104711904D01*
X162230952Y-104830952D01*
X162207142Y-104878571D01*
X162183333Y-104902380D01*
X162135714Y-104926190D01*
X161992857Y-104926190D01*
X161945238Y-104902380D01*
X161921428Y-104878571D01*
G04 #@! TO.C,C21*
X151878571Y-112278571D02*
X151854761Y-112302380D01*
X151783333Y-112326190D01*
X151735714Y-112326190D01*
X151664285Y-112302380D01*
X151616666Y-112254761D01*
X151592857Y-112207142D01*
X151569047Y-112111904D01*
X151569047Y-112040476D01*
X151592857Y-111945238D01*
X151616666Y-111897619D01*
X151664285Y-111850000D01*
X151735714Y-111826190D01*
X151783333Y-111826190D01*
X151854761Y-111850000D01*
X151878571Y-111873809D01*
X152069047Y-111873809D02*
X152092857Y-111850000D01*
X152140476Y-111826190D01*
X152259523Y-111826190D01*
X152307142Y-111850000D01*
X152330952Y-111873809D01*
X152354761Y-111921428D01*
X152354761Y-111969047D01*
X152330952Y-112040476D01*
X152045238Y-112326190D01*
X152354761Y-112326190D01*
X152830952Y-112326190D02*
X152545238Y-112326190D01*
X152688095Y-112326190D02*
X152688095Y-111826190D01*
X152640476Y-111897619D01*
X152592857Y-111945238D01*
X152545238Y-111969047D01*
G04 #@! TO.C,C1*
X151816666Y-96078571D02*
X151792857Y-96102380D01*
X151721428Y-96126190D01*
X151673809Y-96126190D01*
X151602380Y-96102380D01*
X151554761Y-96054761D01*
X151530952Y-96007142D01*
X151507142Y-95911904D01*
X151507142Y-95840476D01*
X151530952Y-95745238D01*
X151554761Y-95697619D01*
X151602380Y-95650000D01*
X151673809Y-95626190D01*
X151721428Y-95626190D01*
X151792857Y-95650000D01*
X151816666Y-95673809D01*
X152292857Y-96126190D02*
X152007142Y-96126190D01*
X152150000Y-96126190D02*
X152150000Y-95626190D01*
X152102380Y-95697619D01*
X152054761Y-95745238D01*
X152007142Y-95769047D01*
G04 #@! TO.C,R2*
X125916666Y-85326190D02*
X125750000Y-85088095D01*
X125630952Y-85326190D02*
X125630952Y-84826190D01*
X125821428Y-84826190D01*
X125869047Y-84850000D01*
X125892857Y-84873809D01*
X125916666Y-84921428D01*
X125916666Y-84992857D01*
X125892857Y-85040476D01*
X125869047Y-85064285D01*
X125821428Y-85088095D01*
X125630952Y-85088095D01*
X126107142Y-84873809D02*
X126130952Y-84850000D01*
X126178571Y-84826190D01*
X126297619Y-84826190D01*
X126345238Y-84850000D01*
X126369047Y-84873809D01*
X126392857Y-84921428D01*
X126392857Y-84969047D01*
X126369047Y-85040476D01*
X126083333Y-85326190D01*
X126392857Y-85326190D01*
G04 #@! TO.C,SW3*
X150133333Y-129502380D02*
X150204761Y-129526190D01*
X150323809Y-129526190D01*
X150371428Y-129502380D01*
X150395238Y-129478571D01*
X150419047Y-129430952D01*
X150419047Y-129383333D01*
X150395238Y-129335714D01*
X150371428Y-129311904D01*
X150323809Y-129288095D01*
X150228571Y-129264285D01*
X150180952Y-129240476D01*
X150157142Y-129216666D01*
X150133333Y-129169047D01*
X150133333Y-129121428D01*
X150157142Y-129073809D01*
X150180952Y-129050000D01*
X150228571Y-129026190D01*
X150347619Y-129026190D01*
X150419047Y-129050000D01*
X150585714Y-129026190D02*
X150704761Y-129526190D01*
X150800000Y-129169047D01*
X150895238Y-129526190D01*
X151014285Y-129026190D01*
X151157142Y-129026190D02*
X151466666Y-129026190D01*
X151300000Y-129216666D01*
X151371428Y-129216666D01*
X151419047Y-129240476D01*
X151442857Y-129264285D01*
X151466666Y-129311904D01*
X151466666Y-129430952D01*
X151442857Y-129478571D01*
X151419047Y-129502380D01*
X151371428Y-129526190D01*
X151228571Y-129526190D01*
X151180952Y-129502380D01*
X151157142Y-129478571D01*
G04 #@! TO.C,SW1*
X156133333Y-129502380D02*
X156204761Y-129526190D01*
X156323809Y-129526190D01*
X156371428Y-129502380D01*
X156395238Y-129478571D01*
X156419047Y-129430952D01*
X156419047Y-129383333D01*
X156395238Y-129335714D01*
X156371428Y-129311904D01*
X156323809Y-129288095D01*
X156228571Y-129264285D01*
X156180952Y-129240476D01*
X156157142Y-129216666D01*
X156133333Y-129169047D01*
X156133333Y-129121428D01*
X156157142Y-129073809D01*
X156180952Y-129050000D01*
X156228571Y-129026190D01*
X156347619Y-129026190D01*
X156419047Y-129050000D01*
X156585714Y-129026190D02*
X156704761Y-129526190D01*
X156800000Y-129169047D01*
X156895238Y-129526190D01*
X157014285Y-129026190D01*
X157466666Y-129526190D02*
X157180952Y-129526190D01*
X157323809Y-129526190D02*
X157323809Y-129026190D01*
X157276190Y-129097619D01*
X157228571Y-129145238D01*
X157180952Y-129169047D01*
G04 #@! TO.C,C5*
X126716666Y-88378571D02*
X126692857Y-88402380D01*
X126621428Y-88426190D01*
X126573809Y-88426190D01*
X126502380Y-88402380D01*
X126454761Y-88354761D01*
X126430952Y-88307142D01*
X126407142Y-88211904D01*
X126407142Y-88140476D01*
X126430952Y-88045238D01*
X126454761Y-87997619D01*
X126502380Y-87950000D01*
X126573809Y-87926190D01*
X126621428Y-87926190D01*
X126692857Y-87950000D01*
X126716666Y-87973809D01*
X127169047Y-87926190D02*
X126930952Y-87926190D01*
X126907142Y-88164285D01*
X126930952Y-88140476D01*
X126978571Y-88116666D01*
X127097619Y-88116666D01*
X127145238Y-88140476D01*
X127169047Y-88164285D01*
X127192857Y-88211904D01*
X127192857Y-88330952D01*
X127169047Y-88378571D01*
X127145238Y-88402380D01*
X127097619Y-88426190D01*
X126978571Y-88426190D01*
X126930952Y-88402380D01*
X126907142Y-88378571D01*
G04 #@! TO.C,C3*
X118416666Y-87178571D02*
X118392857Y-87202380D01*
X118321428Y-87226190D01*
X118273809Y-87226190D01*
X118202380Y-87202380D01*
X118154761Y-87154761D01*
X118130952Y-87107142D01*
X118107142Y-87011904D01*
X118107142Y-86940476D01*
X118130952Y-86845238D01*
X118154761Y-86797619D01*
X118202380Y-86750000D01*
X118273809Y-86726190D01*
X118321428Y-86726190D01*
X118392857Y-86750000D01*
X118416666Y-86773809D01*
X118583333Y-86726190D02*
X118892857Y-86726190D01*
X118726190Y-86916666D01*
X118797619Y-86916666D01*
X118845238Y-86940476D01*
X118869047Y-86964285D01*
X118892857Y-87011904D01*
X118892857Y-87130952D01*
X118869047Y-87178571D01*
X118845238Y-87202380D01*
X118797619Y-87226190D01*
X118654761Y-87226190D01*
X118607142Y-87202380D01*
X118583333Y-87178571D01*
G04 #@! TO.C,C9*
X153378571Y-92883333D02*
X153402380Y-92907142D01*
X153426190Y-92978571D01*
X153426190Y-93026190D01*
X153402380Y-93097619D01*
X153354761Y-93145238D01*
X153307142Y-93169047D01*
X153211904Y-93192857D01*
X153140476Y-93192857D01*
X153045238Y-93169047D01*
X152997619Y-93145238D01*
X152950000Y-93097619D01*
X152926190Y-93026190D01*
X152926190Y-92978571D01*
X152950000Y-92907142D01*
X152973809Y-92883333D01*
X153426190Y-92645238D02*
X153426190Y-92550000D01*
X153402380Y-92502380D01*
X153378571Y-92478571D01*
X153307142Y-92430952D01*
X153211904Y-92407142D01*
X153021428Y-92407142D01*
X152973809Y-92430952D01*
X152950000Y-92454761D01*
X152926190Y-92502380D01*
X152926190Y-92597619D01*
X152950000Y-92645238D01*
X152973809Y-92669047D01*
X153021428Y-92692857D01*
X153140476Y-92692857D01*
X153188095Y-92669047D01*
X153211904Y-92645238D01*
X153235714Y-92597619D01*
X153235714Y-92502380D01*
X153211904Y-92454761D01*
X153188095Y-92430952D01*
X153140476Y-92407142D01*
G04 #@! TO.C,C12*
X130078571Y-113878571D02*
X130054761Y-113902380D01*
X129983333Y-113926190D01*
X129935714Y-113926190D01*
X129864285Y-113902380D01*
X129816666Y-113854761D01*
X129792857Y-113807142D01*
X129769047Y-113711904D01*
X129769047Y-113640476D01*
X129792857Y-113545238D01*
X129816666Y-113497619D01*
X129864285Y-113450000D01*
X129935714Y-113426190D01*
X129983333Y-113426190D01*
X130054761Y-113450000D01*
X130078571Y-113473809D01*
X130554761Y-113926190D02*
X130269047Y-113926190D01*
X130411904Y-113926190D02*
X130411904Y-113426190D01*
X130364285Y-113497619D01*
X130316666Y-113545238D01*
X130269047Y-113569047D01*
X130745238Y-113473809D02*
X130769047Y-113450000D01*
X130816666Y-113426190D01*
X130935714Y-113426190D01*
X130983333Y-113450000D01*
X131007142Y-113473809D01*
X131030952Y-113521428D01*
X131030952Y-113569047D01*
X131007142Y-113640476D01*
X130721428Y-113926190D01*
X131030952Y-113926190D01*
G04 #@! TO.C,C14*
X108828571Y-116853571D02*
X108804761Y-116877380D01*
X108733333Y-116901190D01*
X108685714Y-116901190D01*
X108614285Y-116877380D01*
X108566666Y-116829761D01*
X108542857Y-116782142D01*
X108519047Y-116686904D01*
X108519047Y-116615476D01*
X108542857Y-116520238D01*
X108566666Y-116472619D01*
X108614285Y-116425000D01*
X108685714Y-116401190D01*
X108733333Y-116401190D01*
X108804761Y-116425000D01*
X108828571Y-116448809D01*
X109304761Y-116901190D02*
X109019047Y-116901190D01*
X109161904Y-116901190D02*
X109161904Y-116401190D01*
X109114285Y-116472619D01*
X109066666Y-116520238D01*
X109019047Y-116544047D01*
X109733333Y-116567857D02*
X109733333Y-116901190D01*
X109614285Y-116377380D02*
X109495238Y-116734523D01*
X109804761Y-116734523D01*
G04 #@! TO.C,C18*
X146078571Y-109121428D02*
X146102380Y-109145238D01*
X146126190Y-109216666D01*
X146126190Y-109264285D01*
X146102380Y-109335714D01*
X146054761Y-109383333D01*
X146007142Y-109407142D01*
X145911904Y-109430952D01*
X145840476Y-109430952D01*
X145745238Y-109407142D01*
X145697619Y-109383333D01*
X145650000Y-109335714D01*
X145626190Y-109264285D01*
X145626190Y-109216666D01*
X145650000Y-109145238D01*
X145673809Y-109121428D01*
X146126190Y-108645238D02*
X146126190Y-108930952D01*
X146126190Y-108788095D02*
X145626190Y-108788095D01*
X145697619Y-108835714D01*
X145745238Y-108883333D01*
X145769047Y-108930952D01*
X145840476Y-108359523D02*
X145816666Y-108407142D01*
X145792857Y-108430952D01*
X145745238Y-108454761D01*
X145721428Y-108454761D01*
X145673809Y-108430952D01*
X145650000Y-108407142D01*
X145626190Y-108359523D01*
X145626190Y-108264285D01*
X145650000Y-108216666D01*
X145673809Y-108192857D01*
X145721428Y-108169047D01*
X145745238Y-108169047D01*
X145792857Y-108192857D01*
X145816666Y-108216666D01*
X145840476Y-108264285D01*
X145840476Y-108359523D01*
X145864285Y-108407142D01*
X145888095Y-108430952D01*
X145935714Y-108454761D01*
X146030952Y-108454761D01*
X146078571Y-108430952D01*
X146102380Y-108407142D01*
X146126190Y-108359523D01*
X146126190Y-108264285D01*
X146102380Y-108216666D01*
X146078571Y-108192857D01*
X146030952Y-108169047D01*
X145935714Y-108169047D01*
X145888095Y-108192857D01*
X145864285Y-108216666D01*
X145840476Y-108264285D01*
G04 #@! TO.C,C19*
X148978571Y-99048571D02*
X148954761Y-99072380D01*
X148883333Y-99096190D01*
X148835714Y-99096190D01*
X148764285Y-99072380D01*
X148716666Y-99024761D01*
X148692857Y-98977142D01*
X148669047Y-98881904D01*
X148669047Y-98810476D01*
X148692857Y-98715238D01*
X148716666Y-98667619D01*
X148764285Y-98620000D01*
X148835714Y-98596190D01*
X148883333Y-98596190D01*
X148954761Y-98620000D01*
X148978571Y-98643809D01*
X149454761Y-99096190D02*
X149169047Y-99096190D01*
X149311904Y-99096190D02*
X149311904Y-98596190D01*
X149264285Y-98667619D01*
X149216666Y-98715238D01*
X149169047Y-98739047D01*
X149692857Y-99096190D02*
X149788095Y-99096190D01*
X149835714Y-99072380D01*
X149859523Y-99048571D01*
X149907142Y-98977142D01*
X149930952Y-98881904D01*
X149930952Y-98691428D01*
X149907142Y-98643809D01*
X149883333Y-98620000D01*
X149835714Y-98596190D01*
X149740476Y-98596190D01*
X149692857Y-98620000D01*
X149669047Y-98643809D01*
X149645238Y-98691428D01*
X149645238Y-98810476D01*
X149669047Y-98858095D01*
X149692857Y-98881904D01*
X149740476Y-98905714D01*
X149835714Y-98905714D01*
X149883333Y-98881904D01*
X149907142Y-98858095D01*
X149930952Y-98810476D01*
G04 #@! TO.C,C20*
X158678571Y-101478571D02*
X158654761Y-101502380D01*
X158583333Y-101526190D01*
X158535714Y-101526190D01*
X158464285Y-101502380D01*
X158416666Y-101454761D01*
X158392857Y-101407142D01*
X158369047Y-101311904D01*
X158369047Y-101240476D01*
X158392857Y-101145238D01*
X158416666Y-101097619D01*
X158464285Y-101050000D01*
X158535714Y-101026190D01*
X158583333Y-101026190D01*
X158654761Y-101050000D01*
X158678571Y-101073809D01*
X158869047Y-101073809D02*
X158892857Y-101050000D01*
X158940476Y-101026190D01*
X159059523Y-101026190D01*
X159107142Y-101050000D01*
X159130952Y-101073809D01*
X159154761Y-101121428D01*
X159154761Y-101169047D01*
X159130952Y-101240476D01*
X158845238Y-101526190D01*
X159154761Y-101526190D01*
X159464285Y-101026190D02*
X159511904Y-101026190D01*
X159559523Y-101050000D01*
X159583333Y-101073809D01*
X159607142Y-101121428D01*
X159630952Y-101216666D01*
X159630952Y-101335714D01*
X159607142Y-101430952D01*
X159583333Y-101478571D01*
X159559523Y-101502380D01*
X159511904Y-101526190D01*
X159464285Y-101526190D01*
X159416666Y-101502380D01*
X159392857Y-101478571D01*
X159369047Y-101430952D01*
X159345238Y-101335714D01*
X159345238Y-101216666D01*
X159369047Y-101121428D01*
X159392857Y-101073809D01*
X159416666Y-101050000D01*
X159464285Y-101026190D01*
G04 #@! TO.C,C11*
X153528571Y-119028571D02*
X153504761Y-119052380D01*
X153433333Y-119076190D01*
X153385714Y-119076190D01*
X153314285Y-119052380D01*
X153266666Y-119004761D01*
X153242857Y-118957142D01*
X153219047Y-118861904D01*
X153219047Y-118790476D01*
X153242857Y-118695238D01*
X153266666Y-118647619D01*
X153314285Y-118600000D01*
X153385714Y-118576190D01*
X153433333Y-118576190D01*
X153504761Y-118600000D01*
X153528571Y-118623809D01*
X154004761Y-119076190D02*
X153719047Y-119076190D01*
X153861904Y-119076190D02*
X153861904Y-118576190D01*
X153814285Y-118647619D01*
X153766666Y-118695238D01*
X153719047Y-118719047D01*
X154480952Y-119076190D02*
X154195238Y-119076190D01*
X154338095Y-119076190D02*
X154338095Y-118576190D01*
X154290476Y-118647619D01*
X154242857Y-118695238D01*
X154195238Y-118719047D01*
G04 #@! TO.C,C15*
X107778571Y-119621428D02*
X107802380Y-119645238D01*
X107826190Y-119716666D01*
X107826190Y-119764285D01*
X107802380Y-119835714D01*
X107754761Y-119883333D01*
X107707142Y-119907142D01*
X107611904Y-119930952D01*
X107540476Y-119930952D01*
X107445238Y-119907142D01*
X107397619Y-119883333D01*
X107350000Y-119835714D01*
X107326190Y-119764285D01*
X107326190Y-119716666D01*
X107350000Y-119645238D01*
X107373809Y-119621428D01*
X107826190Y-119145238D02*
X107826190Y-119430952D01*
X107826190Y-119288095D02*
X107326190Y-119288095D01*
X107397619Y-119335714D01*
X107445238Y-119383333D01*
X107469047Y-119430952D01*
X107326190Y-118692857D02*
X107326190Y-118930952D01*
X107564285Y-118954761D01*
X107540476Y-118930952D01*
X107516666Y-118883333D01*
X107516666Y-118764285D01*
X107540476Y-118716666D01*
X107564285Y-118692857D01*
X107611904Y-118669047D01*
X107730952Y-118669047D01*
X107778571Y-118692857D01*
X107802380Y-118716666D01*
X107826190Y-118764285D01*
X107826190Y-118883333D01*
X107802380Y-118930952D01*
X107778571Y-118954761D01*
G04 #@! TO.C,C8*
X146716666Y-91878571D02*
X146692857Y-91902380D01*
X146621428Y-91926190D01*
X146573809Y-91926190D01*
X146502380Y-91902380D01*
X146454761Y-91854761D01*
X146430952Y-91807142D01*
X146407142Y-91711904D01*
X146407142Y-91640476D01*
X146430952Y-91545238D01*
X146454761Y-91497619D01*
X146502380Y-91450000D01*
X146573809Y-91426190D01*
X146621428Y-91426190D01*
X146692857Y-91450000D01*
X146716666Y-91473809D01*
X147002380Y-91640476D02*
X146954761Y-91616666D01*
X146930952Y-91592857D01*
X146907142Y-91545238D01*
X146907142Y-91521428D01*
X146930952Y-91473809D01*
X146954761Y-91450000D01*
X147002380Y-91426190D01*
X147097619Y-91426190D01*
X147145238Y-91450000D01*
X147169047Y-91473809D01*
X147192857Y-91521428D01*
X147192857Y-91545238D01*
X147169047Y-91592857D01*
X147145238Y-91616666D01*
X147097619Y-91640476D01*
X147002380Y-91640476D01*
X146954761Y-91664285D01*
X146930952Y-91688095D01*
X146907142Y-91735714D01*
X146907142Y-91830952D01*
X146930952Y-91878571D01*
X146954761Y-91902380D01*
X147002380Y-91926190D01*
X147097619Y-91926190D01*
X147145238Y-91902380D01*
X147169047Y-91878571D01*
X147192857Y-91830952D01*
X147192857Y-91735714D01*
X147169047Y-91688095D01*
X147145238Y-91664285D01*
X147097619Y-91640476D01*
G04 #@! TO.C,C13*
X107053571Y-117028571D02*
X107029761Y-117052380D01*
X106958333Y-117076190D01*
X106910714Y-117076190D01*
X106839285Y-117052380D01*
X106791666Y-117004761D01*
X106767857Y-116957142D01*
X106744047Y-116861904D01*
X106744047Y-116790476D01*
X106767857Y-116695238D01*
X106791666Y-116647619D01*
X106839285Y-116600000D01*
X106910714Y-116576190D01*
X106958333Y-116576190D01*
X107029761Y-116600000D01*
X107053571Y-116623809D01*
X107529761Y-117076190D02*
X107244047Y-117076190D01*
X107386904Y-117076190D02*
X107386904Y-116576190D01*
X107339285Y-116647619D01*
X107291666Y-116695238D01*
X107244047Y-116719047D01*
X107696428Y-116576190D02*
X108005952Y-116576190D01*
X107839285Y-116766666D01*
X107910714Y-116766666D01*
X107958333Y-116790476D01*
X107982142Y-116814285D01*
X108005952Y-116861904D01*
X108005952Y-116980952D01*
X107982142Y-117028571D01*
X107958333Y-117052380D01*
X107910714Y-117076190D01*
X107767857Y-117076190D01*
X107720238Y-117052380D01*
X107696428Y-117028571D01*
G04 #@! TO.C,C16*
X111378571Y-121321428D02*
X111402380Y-121345238D01*
X111426190Y-121416666D01*
X111426190Y-121464285D01*
X111402380Y-121535714D01*
X111354761Y-121583333D01*
X111307142Y-121607142D01*
X111211904Y-121630952D01*
X111140476Y-121630952D01*
X111045238Y-121607142D01*
X110997619Y-121583333D01*
X110950000Y-121535714D01*
X110926190Y-121464285D01*
X110926190Y-121416666D01*
X110950000Y-121345238D01*
X110973809Y-121321428D01*
X111426190Y-120845238D02*
X111426190Y-121130952D01*
X111426190Y-120988095D02*
X110926190Y-120988095D01*
X110997619Y-121035714D01*
X111045238Y-121083333D01*
X111069047Y-121130952D01*
X110926190Y-120416666D02*
X110926190Y-120511904D01*
X110950000Y-120559523D01*
X110973809Y-120583333D01*
X111045238Y-120630952D01*
X111140476Y-120654761D01*
X111330952Y-120654761D01*
X111378571Y-120630952D01*
X111402380Y-120607142D01*
X111426190Y-120559523D01*
X111426190Y-120464285D01*
X111402380Y-120416666D01*
X111378571Y-120392857D01*
X111330952Y-120369047D01*
X111211904Y-120369047D01*
X111164285Y-120392857D01*
X111140476Y-120416666D01*
X111116666Y-120464285D01*
X111116666Y-120559523D01*
X111140476Y-120607142D01*
X111164285Y-120630952D01*
X111211904Y-120654761D01*
G04 #@! TO.C,C17*
X119278571Y-120421428D02*
X119302380Y-120445238D01*
X119326190Y-120516666D01*
X119326190Y-120564285D01*
X119302380Y-120635714D01*
X119254761Y-120683333D01*
X119207142Y-120707142D01*
X119111904Y-120730952D01*
X119040476Y-120730952D01*
X118945238Y-120707142D01*
X118897619Y-120683333D01*
X118850000Y-120635714D01*
X118826190Y-120564285D01*
X118826190Y-120516666D01*
X118850000Y-120445238D01*
X118873809Y-120421428D01*
X119326190Y-119945238D02*
X119326190Y-120230952D01*
X119326190Y-120088095D02*
X118826190Y-120088095D01*
X118897619Y-120135714D01*
X118945238Y-120183333D01*
X118969047Y-120230952D01*
X118826190Y-119778571D02*
X118826190Y-119445238D01*
X119326190Y-119659523D01*
G04 #@! TO.C,C4*
X128416666Y-87978571D02*
X128392857Y-88002380D01*
X128321428Y-88026190D01*
X128273809Y-88026190D01*
X128202380Y-88002380D01*
X128154761Y-87954761D01*
X128130952Y-87907142D01*
X128107142Y-87811904D01*
X128107142Y-87740476D01*
X128130952Y-87645238D01*
X128154761Y-87597619D01*
X128202380Y-87550000D01*
X128273809Y-87526190D01*
X128321428Y-87526190D01*
X128392857Y-87550000D01*
X128416666Y-87573809D01*
X128845238Y-87692857D02*
X128845238Y-88026190D01*
X128726190Y-87502380D02*
X128607142Y-87859523D01*
X128916666Y-87859523D01*
G04 #@! TO.C,C2*
X118116666Y-85278571D02*
X118092857Y-85302380D01*
X118021428Y-85326190D01*
X117973809Y-85326190D01*
X117902380Y-85302380D01*
X117854761Y-85254761D01*
X117830952Y-85207142D01*
X117807142Y-85111904D01*
X117807142Y-85040476D01*
X117830952Y-84945238D01*
X117854761Y-84897619D01*
X117902380Y-84850000D01*
X117973809Y-84826190D01*
X118021428Y-84826190D01*
X118092857Y-84850000D01*
X118116666Y-84873809D01*
X118307142Y-84873809D02*
X118330952Y-84850000D01*
X118378571Y-84826190D01*
X118497619Y-84826190D01*
X118545238Y-84850000D01*
X118569047Y-84873809D01*
X118592857Y-84921428D01*
X118592857Y-84969047D01*
X118569047Y-85040476D01*
X118283333Y-85326190D01*
X118592857Y-85326190D01*
G04 #@! TO.C,JP1*
X164583333Y-130826190D02*
X164583333Y-131183333D01*
X164559523Y-131254761D01*
X164511904Y-131302380D01*
X164440476Y-131326190D01*
X164392857Y-131326190D01*
X164821428Y-131326190D02*
X164821428Y-130826190D01*
X165011904Y-130826190D01*
X165059523Y-130850000D01*
X165083333Y-130873809D01*
X165107142Y-130921428D01*
X165107142Y-130992857D01*
X165083333Y-131040476D01*
X165059523Y-131064285D01*
X165011904Y-131088095D01*
X164821428Y-131088095D01*
X165583333Y-131326190D02*
X165297619Y-131326190D01*
X165440476Y-131326190D02*
X165440476Y-130826190D01*
X165392857Y-130897619D01*
X165345238Y-130945238D01*
X165297619Y-130969047D01*
G04 #@! TO.C,D1*
X118026190Y-90969047D02*
X117526190Y-90969047D01*
X117526190Y-90850000D01*
X117550000Y-90778571D01*
X117597619Y-90730952D01*
X117645238Y-90707142D01*
X117740476Y-90683333D01*
X117811904Y-90683333D01*
X117907142Y-90707142D01*
X117954761Y-90730952D01*
X118002380Y-90778571D01*
X118026190Y-90850000D01*
X118026190Y-90969047D01*
X118026190Y-90207142D02*
X118026190Y-90492857D01*
X118026190Y-90350000D02*
X117526190Y-90350000D01*
X117597619Y-90397619D01*
X117645238Y-90445238D01*
X117669047Y-90492857D01*
G04 #@! TO.C,D8*
X116390952Y-131776190D02*
X116390952Y-131276190D01*
X116510000Y-131276190D01*
X116581428Y-131300000D01*
X116629047Y-131347619D01*
X116652857Y-131395238D01*
X116676666Y-131490476D01*
X116676666Y-131561904D01*
X116652857Y-131657142D01*
X116629047Y-131704761D01*
X116581428Y-131752380D01*
X116510000Y-131776190D01*
X116390952Y-131776190D01*
X116962380Y-131490476D02*
X116914761Y-131466666D01*
X116890952Y-131442857D01*
X116867142Y-131395238D01*
X116867142Y-131371428D01*
X116890952Y-131323809D01*
X116914761Y-131300000D01*
X116962380Y-131276190D01*
X117057619Y-131276190D01*
X117105238Y-131300000D01*
X117129047Y-131323809D01*
X117152857Y-131371428D01*
X117152857Y-131395238D01*
X117129047Y-131442857D01*
X117105238Y-131466666D01*
X117057619Y-131490476D01*
X116962380Y-131490476D01*
X116914761Y-131514285D01*
X116890952Y-131538095D01*
X116867142Y-131585714D01*
X116867142Y-131680952D01*
X116890952Y-131728571D01*
X116914761Y-131752380D01*
X116962380Y-131776190D01*
X117057619Y-131776190D01*
X117105238Y-131752380D01*
X117129047Y-131728571D01*
X117152857Y-131680952D01*
X117152857Y-131585714D01*
X117129047Y-131538095D01*
X117105238Y-131514285D01*
X117057619Y-131490476D01*
G04 #@! TO.C,L2*
X158616666Y-110826190D02*
X158378571Y-110826190D01*
X158378571Y-110326190D01*
X158759523Y-110373809D02*
X158783333Y-110350000D01*
X158830952Y-110326190D01*
X158950000Y-110326190D01*
X158997619Y-110350000D01*
X159021428Y-110373809D01*
X159045238Y-110421428D01*
X159045238Y-110469047D01*
X159021428Y-110540476D01*
X158735714Y-110826190D01*
X159045238Y-110826190D01*
G04 #@! TO.C,L1*
X152416666Y-97326190D02*
X152178571Y-97326190D01*
X152178571Y-96826190D01*
X152845238Y-97326190D02*
X152559523Y-97326190D01*
X152702380Y-97326190D02*
X152702380Y-96826190D01*
X152654761Y-96897619D01*
X152607142Y-96945238D01*
X152559523Y-96969047D01*
G04 #@! TO.C,JP3*
X121083333Y-117326190D02*
X121083333Y-117683333D01*
X121059523Y-117754761D01*
X121011904Y-117802380D01*
X120940476Y-117826190D01*
X120892857Y-117826190D01*
X121321428Y-117826190D02*
X121321428Y-117326190D01*
X121511904Y-117326190D01*
X121559523Y-117350000D01*
X121583333Y-117373809D01*
X121607142Y-117421428D01*
X121607142Y-117492857D01*
X121583333Y-117540476D01*
X121559523Y-117564285D01*
X121511904Y-117588095D01*
X121321428Y-117588095D01*
X121773809Y-117326190D02*
X122083333Y-117326190D01*
X121916666Y-117516666D01*
X121988095Y-117516666D01*
X122035714Y-117540476D01*
X122059523Y-117564285D01*
X122083333Y-117611904D01*
X122083333Y-117730952D01*
X122059523Y-117778571D01*
X122035714Y-117802380D01*
X121988095Y-117826190D01*
X121845238Y-117826190D01*
X121797619Y-117802380D01*
X121773809Y-117778571D01*
G04 #@! TO.C,D5*
X169726190Y-101369047D02*
X169226190Y-101369047D01*
X169226190Y-101250000D01*
X169250000Y-101178571D01*
X169297619Y-101130952D01*
X169345238Y-101107142D01*
X169440476Y-101083333D01*
X169511904Y-101083333D01*
X169607142Y-101107142D01*
X169654761Y-101130952D01*
X169702380Y-101178571D01*
X169726190Y-101250000D01*
X169726190Y-101369047D01*
X169226190Y-100630952D02*
X169226190Y-100869047D01*
X169464285Y-100892857D01*
X169440476Y-100869047D01*
X169416666Y-100821428D01*
X169416666Y-100702380D01*
X169440476Y-100654761D01*
X169464285Y-100630952D01*
X169511904Y-100607142D01*
X169630952Y-100607142D01*
X169678571Y-100630952D01*
X169702380Y-100654761D01*
X169726190Y-100702380D01*
X169726190Y-100821428D01*
X169702380Y-100869047D01*
X169678571Y-100892857D01*
G04 #@! TO.C,D6*
X169726190Y-103169047D02*
X169226190Y-103169047D01*
X169226190Y-103050000D01*
X169250000Y-102978571D01*
X169297619Y-102930952D01*
X169345238Y-102907142D01*
X169440476Y-102883333D01*
X169511904Y-102883333D01*
X169607142Y-102907142D01*
X169654761Y-102930952D01*
X169702380Y-102978571D01*
X169726190Y-103050000D01*
X169726190Y-103169047D01*
X169226190Y-102454761D02*
X169226190Y-102550000D01*
X169250000Y-102597619D01*
X169273809Y-102621428D01*
X169345238Y-102669047D01*
X169440476Y-102692857D01*
X169630952Y-102692857D01*
X169678571Y-102669047D01*
X169702380Y-102645238D01*
X169726190Y-102597619D01*
X169726190Y-102502380D01*
X169702380Y-102454761D01*
X169678571Y-102430952D01*
X169630952Y-102407142D01*
X169511904Y-102407142D01*
X169464285Y-102430952D01*
X169440476Y-102454761D01*
X169416666Y-102502380D01*
X169416666Y-102597619D01*
X169440476Y-102645238D01*
X169464285Y-102669047D01*
X169511904Y-102692857D01*
G04 #@! TO.C,D7*
X169726190Y-105069047D02*
X169226190Y-105069047D01*
X169226190Y-104950000D01*
X169250000Y-104878571D01*
X169297619Y-104830952D01*
X169345238Y-104807142D01*
X169440476Y-104783333D01*
X169511904Y-104783333D01*
X169607142Y-104807142D01*
X169654761Y-104830952D01*
X169702380Y-104878571D01*
X169726190Y-104950000D01*
X169726190Y-105069047D01*
X169226190Y-104616666D02*
X169226190Y-104283333D01*
X169726190Y-104497619D01*
G04 #@! TO.C,D4*
X108780952Y-130476190D02*
X108780952Y-129976190D01*
X108900000Y-129976190D01*
X108971428Y-130000000D01*
X109019047Y-130047619D01*
X109042857Y-130095238D01*
X109066666Y-130190476D01*
X109066666Y-130261904D01*
X109042857Y-130357142D01*
X109019047Y-130404761D01*
X108971428Y-130452380D01*
X108900000Y-130476190D01*
X108780952Y-130476190D01*
X109495238Y-130142857D02*
X109495238Y-130476190D01*
X109376190Y-129952380D02*
X109257142Y-130309523D01*
X109566666Y-130309523D01*
G04 #@! TO.C,U1*
X119419047Y-94226190D02*
X119419047Y-94630952D01*
X119442857Y-94678571D01*
X119466666Y-94702380D01*
X119514285Y-94726190D01*
X119609523Y-94726190D01*
X119657142Y-94702380D01*
X119680952Y-94678571D01*
X119704761Y-94630952D01*
X119704761Y-94226190D01*
X120204761Y-94726190D02*
X119919047Y-94726190D01*
X120061904Y-94726190D02*
X120061904Y-94226190D01*
X120014285Y-94297619D01*
X119966666Y-94345238D01*
X119919047Y-94369047D01*
G04 #@! TO.C,U2*
X148519047Y-86326190D02*
X148519047Y-86730952D01*
X148542857Y-86778571D01*
X148566666Y-86802380D01*
X148614285Y-86826190D01*
X148709523Y-86826190D01*
X148757142Y-86802380D01*
X148780952Y-86778571D01*
X148804761Y-86730952D01*
X148804761Y-86326190D01*
X149019047Y-86373809D02*
X149042857Y-86350000D01*
X149090476Y-86326190D01*
X149209523Y-86326190D01*
X149257142Y-86350000D01*
X149280952Y-86373809D01*
X149304761Y-86421428D01*
X149304761Y-86469047D01*
X149280952Y-86540476D01*
X148995238Y-86826190D01*
X149304761Y-86826190D01*
G04 #@! TO.C,U3*
X127819047Y-114926190D02*
X127819047Y-115330952D01*
X127842857Y-115378571D01*
X127866666Y-115402380D01*
X127914285Y-115426190D01*
X128009523Y-115426190D01*
X128057142Y-115402380D01*
X128080952Y-115378571D01*
X128104761Y-115330952D01*
X128104761Y-114926190D01*
X128295238Y-114926190D02*
X128604761Y-114926190D01*
X128438095Y-115116666D01*
X128509523Y-115116666D01*
X128557142Y-115140476D01*
X128580952Y-115164285D01*
X128604761Y-115211904D01*
X128604761Y-115330952D01*
X128580952Y-115378571D01*
X128557142Y-115402380D01*
X128509523Y-115426190D01*
X128366666Y-115426190D01*
X128319047Y-115402380D01*
X128295238Y-115378571D01*
G04 #@! TO.C,U5*
X113919047Y-110426190D02*
X113919047Y-110830952D01*
X113942857Y-110878571D01*
X113966666Y-110902380D01*
X114014285Y-110926190D01*
X114109523Y-110926190D01*
X114157142Y-110902380D01*
X114180952Y-110878571D01*
X114204761Y-110830952D01*
X114204761Y-110426190D01*
X114680952Y-110426190D02*
X114442857Y-110426190D01*
X114419047Y-110664285D01*
X114442857Y-110640476D01*
X114490476Y-110616666D01*
X114609523Y-110616666D01*
X114657142Y-110640476D01*
X114680952Y-110664285D01*
X114704761Y-110711904D01*
X114704761Y-110830952D01*
X114680952Y-110878571D01*
X114657142Y-110902380D01*
X114609523Y-110926190D01*
X114490476Y-110926190D01*
X114442857Y-110902380D01*
X114419047Y-110878571D01*
G04 #@! TO.C,Q3*
X137202380Y-118973809D02*
X137154761Y-118950000D01*
X137107142Y-118902380D01*
X137035714Y-118830952D01*
X136988095Y-118807142D01*
X136940476Y-118807142D01*
X136964285Y-118926190D02*
X136916666Y-118902380D01*
X136869047Y-118854761D01*
X136845238Y-118759523D01*
X136845238Y-118592857D01*
X136869047Y-118497619D01*
X136916666Y-118450000D01*
X136964285Y-118426190D01*
X137059523Y-118426190D01*
X137107142Y-118450000D01*
X137154761Y-118497619D01*
X137178571Y-118592857D01*
X137178571Y-118759523D01*
X137154761Y-118854761D01*
X137107142Y-118902380D01*
X137059523Y-118926190D01*
X136964285Y-118926190D01*
X137345238Y-118426190D02*
X137654761Y-118426190D01*
X137488095Y-118616666D01*
X137559523Y-118616666D01*
X137607142Y-118640476D01*
X137630952Y-118664285D01*
X137654761Y-118711904D01*
X137654761Y-118830952D01*
X137630952Y-118878571D01*
X137607142Y-118902380D01*
X137559523Y-118926190D01*
X137416666Y-118926190D01*
X137369047Y-118902380D01*
X137345238Y-118878571D01*
G04 #@! TO.C,D3*
X145630952Y-122026190D02*
X145630952Y-121526190D01*
X145750000Y-121526190D01*
X145821428Y-121550000D01*
X145869047Y-121597619D01*
X145892857Y-121645238D01*
X145916666Y-121740476D01*
X145916666Y-121811904D01*
X145892857Y-121907142D01*
X145869047Y-121954761D01*
X145821428Y-122002380D01*
X145750000Y-122026190D01*
X145630952Y-122026190D01*
X146083333Y-121526190D02*
X146392857Y-121526190D01*
X146226190Y-121716666D01*
X146297619Y-121716666D01*
X146345238Y-121740476D01*
X146369047Y-121764285D01*
X146392857Y-121811904D01*
X146392857Y-121930952D01*
X146369047Y-121978571D01*
X146345238Y-122002380D01*
X146297619Y-122026190D01*
X146154761Y-122026190D01*
X146107142Y-122002380D01*
X146083333Y-121978571D01*
G04 #@! TO.C,U6*
X114769047Y-121826190D02*
X114769047Y-122230952D01*
X114792857Y-122278571D01*
X114816666Y-122302380D01*
X114864285Y-122326190D01*
X114959523Y-122326190D01*
X115007142Y-122302380D01*
X115030952Y-122278571D01*
X115054761Y-122230952D01*
X115054761Y-121826190D01*
X115507142Y-121826190D02*
X115411904Y-121826190D01*
X115364285Y-121850000D01*
X115340476Y-121873809D01*
X115292857Y-121945238D01*
X115269047Y-122040476D01*
X115269047Y-122230952D01*
X115292857Y-122278571D01*
X115316666Y-122302380D01*
X115364285Y-122326190D01*
X115459523Y-122326190D01*
X115507142Y-122302380D01*
X115530952Y-122278571D01*
X115554761Y-122230952D01*
X115554761Y-122111904D01*
X115530952Y-122064285D01*
X115507142Y-122040476D01*
X115459523Y-122016666D01*
X115364285Y-122016666D01*
X115316666Y-122040476D01*
X115292857Y-122064285D01*
X115269047Y-122111904D01*
G04 #@! TO.C,D2*
X145530952Y-130026190D02*
X145530952Y-129526190D01*
X145650000Y-129526190D01*
X145721428Y-129550000D01*
X145769047Y-129597619D01*
X145792857Y-129645238D01*
X145816666Y-129740476D01*
X145816666Y-129811904D01*
X145792857Y-129907142D01*
X145769047Y-129954761D01*
X145721428Y-130002380D01*
X145650000Y-130026190D01*
X145530952Y-130026190D01*
X146007142Y-129573809D02*
X146030952Y-129550000D01*
X146078571Y-129526190D01*
X146197619Y-129526190D01*
X146245238Y-129550000D01*
X146269047Y-129573809D01*
X146292857Y-129621428D01*
X146292857Y-129669047D01*
X146269047Y-129740476D01*
X145983333Y-130026190D01*
X146292857Y-130026190D01*
G04 #@! TO.C,D9*
X123030952Y-116826190D02*
X123030952Y-116326190D01*
X123150000Y-116326190D01*
X123221428Y-116350000D01*
X123269047Y-116397619D01*
X123292857Y-116445238D01*
X123316666Y-116540476D01*
X123316666Y-116611904D01*
X123292857Y-116707142D01*
X123269047Y-116754761D01*
X123221428Y-116802380D01*
X123150000Y-116826190D01*
X123030952Y-116826190D01*
X123554761Y-116826190D02*
X123650000Y-116826190D01*
X123697619Y-116802380D01*
X123721428Y-116778571D01*
X123769047Y-116707142D01*
X123792857Y-116611904D01*
X123792857Y-116421428D01*
X123769047Y-116373809D01*
X123745238Y-116350000D01*
X123697619Y-116326190D01*
X123602380Y-116326190D01*
X123554761Y-116350000D01*
X123530952Y-116373809D01*
X123507142Y-116421428D01*
X123507142Y-116540476D01*
X123530952Y-116588095D01*
X123554761Y-116611904D01*
X123602380Y-116635714D01*
X123697619Y-116635714D01*
X123745238Y-116611904D01*
X123769047Y-116588095D01*
X123792857Y-116540476D01*
G04 #@! TO.C,Q2*
X143473809Y-89647619D02*
X143450000Y-89695238D01*
X143402380Y-89742857D01*
X143330952Y-89814285D01*
X143307142Y-89861904D01*
X143307142Y-89909523D01*
X143426190Y-89885714D02*
X143402380Y-89933333D01*
X143354761Y-89980952D01*
X143259523Y-90004761D01*
X143092857Y-90004761D01*
X142997619Y-89980952D01*
X142950000Y-89933333D01*
X142926190Y-89885714D01*
X142926190Y-89790476D01*
X142950000Y-89742857D01*
X142997619Y-89695238D01*
X143092857Y-89671428D01*
X143259523Y-89671428D01*
X143354761Y-89695238D01*
X143402380Y-89742857D01*
X143426190Y-89790476D01*
X143426190Y-89885714D01*
X142973809Y-89480952D02*
X142950000Y-89457142D01*
X142926190Y-89409523D01*
X142926190Y-89290476D01*
X142950000Y-89242857D01*
X142973809Y-89219047D01*
X143021428Y-89195238D01*
X143069047Y-89195238D01*
X143140476Y-89219047D01*
X143426190Y-89504761D01*
X143426190Y-89195238D01*
G04 #@! TO.C,Q1*
X143373809Y-72547619D02*
X143350000Y-72595238D01*
X143302380Y-72642857D01*
X143230952Y-72714285D01*
X143207142Y-72761904D01*
X143207142Y-72809523D01*
X143326190Y-72785714D02*
X143302380Y-72833333D01*
X143254761Y-72880952D01*
X143159523Y-72904761D01*
X142992857Y-72904761D01*
X142897619Y-72880952D01*
X142850000Y-72833333D01*
X142826190Y-72785714D01*
X142826190Y-72690476D01*
X142850000Y-72642857D01*
X142897619Y-72595238D01*
X142992857Y-72571428D01*
X143159523Y-72571428D01*
X143254761Y-72595238D01*
X143302380Y-72642857D01*
X143326190Y-72690476D01*
X143326190Y-72785714D01*
X143326190Y-72095238D02*
X143326190Y-72380952D01*
X143326190Y-72238095D02*
X142826190Y-72238095D01*
X142897619Y-72285714D01*
X142945238Y-72333333D01*
X142969047Y-72380952D01*
G04 #@! TO.C,R15*
X135278571Y-121326190D02*
X135111904Y-121088095D01*
X134992857Y-121326190D02*
X134992857Y-120826190D01*
X135183333Y-120826190D01*
X135230952Y-120850000D01*
X135254761Y-120873809D01*
X135278571Y-120921428D01*
X135278571Y-120992857D01*
X135254761Y-121040476D01*
X135230952Y-121064285D01*
X135183333Y-121088095D01*
X134992857Y-121088095D01*
X135754761Y-121326190D02*
X135469047Y-121326190D01*
X135611904Y-121326190D02*
X135611904Y-120826190D01*
X135564285Y-120897619D01*
X135516666Y-120945238D01*
X135469047Y-120969047D01*
X136207142Y-120826190D02*
X135969047Y-120826190D01*
X135945238Y-121064285D01*
X135969047Y-121040476D01*
X136016666Y-121016666D01*
X136135714Y-121016666D01*
X136183333Y-121040476D01*
X136207142Y-121064285D01*
X136230952Y-121111904D01*
X136230952Y-121230952D01*
X136207142Y-121278571D01*
X136183333Y-121302380D01*
X136135714Y-121326190D01*
X136016666Y-121326190D01*
X135969047Y-121302380D01*
X135945238Y-121278571D01*
G04 #@! TO.C,R6*
X126516666Y-96426190D02*
X126350000Y-96188095D01*
X126230952Y-96426190D02*
X126230952Y-95926190D01*
X126421428Y-95926190D01*
X126469047Y-95950000D01*
X126492857Y-95973809D01*
X126516666Y-96021428D01*
X126516666Y-96092857D01*
X126492857Y-96140476D01*
X126469047Y-96164285D01*
X126421428Y-96188095D01*
X126230952Y-96188095D01*
X126945238Y-95926190D02*
X126850000Y-95926190D01*
X126802380Y-95950000D01*
X126778571Y-95973809D01*
X126730952Y-96045238D01*
X126707142Y-96140476D01*
X126707142Y-96330952D01*
X126730952Y-96378571D01*
X126754761Y-96402380D01*
X126802380Y-96426190D01*
X126897619Y-96426190D01*
X126945238Y-96402380D01*
X126969047Y-96378571D01*
X126992857Y-96330952D01*
X126992857Y-96211904D01*
X126969047Y-96164285D01*
X126945238Y-96140476D01*
X126897619Y-96116666D01*
X126802380Y-96116666D01*
X126754761Y-96140476D01*
X126730952Y-96164285D01*
X126707142Y-96211904D01*
G04 #@! TO.C,R9*
X145616666Y-111526190D02*
X145450000Y-111288095D01*
X145330952Y-111526190D02*
X145330952Y-111026190D01*
X145521428Y-111026190D01*
X145569047Y-111050000D01*
X145592857Y-111073809D01*
X145616666Y-111121428D01*
X145616666Y-111192857D01*
X145592857Y-111240476D01*
X145569047Y-111264285D01*
X145521428Y-111288095D01*
X145330952Y-111288095D01*
X145854761Y-111526190D02*
X145950000Y-111526190D01*
X145997619Y-111502380D01*
X146021428Y-111478571D01*
X146069047Y-111407142D01*
X146092857Y-111311904D01*
X146092857Y-111121428D01*
X146069047Y-111073809D01*
X146045238Y-111050000D01*
X145997619Y-111026190D01*
X145902380Y-111026190D01*
X145854761Y-111050000D01*
X145830952Y-111073809D01*
X145807142Y-111121428D01*
X145807142Y-111240476D01*
X145830952Y-111288095D01*
X145854761Y-111311904D01*
X145902380Y-111335714D01*
X145997619Y-111335714D01*
X146045238Y-111311904D01*
X146069047Y-111288095D01*
X146092857Y-111240476D01*
G04 #@! TO.C,R10*
X108828571Y-123076190D02*
X108661904Y-122838095D01*
X108542857Y-123076190D02*
X108542857Y-122576190D01*
X108733333Y-122576190D01*
X108780952Y-122600000D01*
X108804761Y-122623809D01*
X108828571Y-122671428D01*
X108828571Y-122742857D01*
X108804761Y-122790476D01*
X108780952Y-122814285D01*
X108733333Y-122838095D01*
X108542857Y-122838095D01*
X109304761Y-123076190D02*
X109019047Y-123076190D01*
X109161904Y-123076190D02*
X109161904Y-122576190D01*
X109114285Y-122647619D01*
X109066666Y-122695238D01*
X109019047Y-122719047D01*
X109614285Y-122576190D02*
X109661904Y-122576190D01*
X109709523Y-122600000D01*
X109733333Y-122623809D01*
X109757142Y-122671428D01*
X109780952Y-122766666D01*
X109780952Y-122885714D01*
X109757142Y-122980952D01*
X109733333Y-123028571D01*
X109709523Y-123052380D01*
X109661904Y-123076190D01*
X109614285Y-123076190D01*
X109566666Y-123052380D01*
X109542857Y-123028571D01*
X109519047Y-122980952D01*
X109495238Y-122885714D01*
X109495238Y-122766666D01*
X109519047Y-122671428D01*
X109542857Y-122623809D01*
X109566666Y-122600000D01*
X109614285Y-122576190D01*
G04 #@! TO.C,R12*
X161278571Y-103426190D02*
X161111904Y-103188095D01*
X160992857Y-103426190D02*
X160992857Y-102926190D01*
X161183333Y-102926190D01*
X161230952Y-102950000D01*
X161254761Y-102973809D01*
X161278571Y-103021428D01*
X161278571Y-103092857D01*
X161254761Y-103140476D01*
X161230952Y-103164285D01*
X161183333Y-103188095D01*
X160992857Y-103188095D01*
X161754761Y-103426190D02*
X161469047Y-103426190D01*
X161611904Y-103426190D02*
X161611904Y-102926190D01*
X161564285Y-102997619D01*
X161516666Y-103045238D01*
X161469047Y-103069047D01*
X161945238Y-102973809D02*
X161969047Y-102950000D01*
X162016666Y-102926190D01*
X162135714Y-102926190D01*
X162183333Y-102950000D01*
X162207142Y-102973809D01*
X162230952Y-103021428D01*
X162230952Y-103069047D01*
X162207142Y-103140476D01*
X161921428Y-103426190D01*
X162230952Y-103426190D01*
G04 #@! TO.C,R14*
X146026190Y-106421428D02*
X145788095Y-106588095D01*
X146026190Y-106707142D02*
X145526190Y-106707142D01*
X145526190Y-106516666D01*
X145550000Y-106469047D01*
X145573809Y-106445238D01*
X145621428Y-106421428D01*
X145692857Y-106421428D01*
X145740476Y-106445238D01*
X145764285Y-106469047D01*
X145788095Y-106516666D01*
X145788095Y-106707142D01*
X146026190Y-105945238D02*
X146026190Y-106230952D01*
X146026190Y-106088095D02*
X145526190Y-106088095D01*
X145597619Y-106135714D01*
X145645238Y-106183333D01*
X145669047Y-106230952D01*
X145692857Y-105516666D02*
X146026190Y-105516666D01*
X145502380Y-105635714D02*
X145859523Y-105754761D01*
X145859523Y-105445238D01*
G04 #@! TO.C,R16*
X124478571Y-121826190D02*
X124311904Y-121588095D01*
X124192857Y-121826190D02*
X124192857Y-121326190D01*
X124383333Y-121326190D01*
X124430952Y-121350000D01*
X124454761Y-121373809D01*
X124478571Y-121421428D01*
X124478571Y-121492857D01*
X124454761Y-121540476D01*
X124430952Y-121564285D01*
X124383333Y-121588095D01*
X124192857Y-121588095D01*
X124954761Y-121826190D02*
X124669047Y-121826190D01*
X124811904Y-121826190D02*
X124811904Y-121326190D01*
X124764285Y-121397619D01*
X124716666Y-121445238D01*
X124669047Y-121469047D01*
X125383333Y-121326190D02*
X125288095Y-121326190D01*
X125240476Y-121350000D01*
X125216666Y-121373809D01*
X125169047Y-121445238D01*
X125145238Y-121540476D01*
X125145238Y-121730952D01*
X125169047Y-121778571D01*
X125192857Y-121802380D01*
X125240476Y-121826190D01*
X125335714Y-121826190D01*
X125383333Y-121802380D01*
X125407142Y-121778571D01*
X125430952Y-121730952D01*
X125430952Y-121611904D01*
X125407142Y-121564285D01*
X125383333Y-121540476D01*
X125335714Y-121516666D01*
X125240476Y-121516666D01*
X125192857Y-121540476D01*
X125169047Y-121564285D01*
X125145238Y-121611904D01*
G04 #@! TO.C,R17*
X158778571Y-108426190D02*
X158611904Y-108188095D01*
X158492857Y-108426190D02*
X158492857Y-107926190D01*
X158683333Y-107926190D01*
X158730952Y-107950000D01*
X158754761Y-107973809D01*
X158778571Y-108021428D01*
X158778571Y-108092857D01*
X158754761Y-108140476D01*
X158730952Y-108164285D01*
X158683333Y-108188095D01*
X158492857Y-108188095D01*
X159254761Y-108426190D02*
X158969047Y-108426190D01*
X159111904Y-108426190D02*
X159111904Y-107926190D01*
X159064285Y-107997619D01*
X159016666Y-108045238D01*
X158969047Y-108069047D01*
X159421428Y-107926190D02*
X159754761Y-107926190D01*
X159540476Y-108426190D01*
G04 #@! TO.C,R18*
X135678571Y-113926190D02*
X135511904Y-113688095D01*
X135392857Y-113926190D02*
X135392857Y-113426190D01*
X135583333Y-113426190D01*
X135630952Y-113450000D01*
X135654761Y-113473809D01*
X135678571Y-113521428D01*
X135678571Y-113592857D01*
X135654761Y-113640476D01*
X135630952Y-113664285D01*
X135583333Y-113688095D01*
X135392857Y-113688095D01*
X136154761Y-113926190D02*
X135869047Y-113926190D01*
X136011904Y-113926190D02*
X136011904Y-113426190D01*
X135964285Y-113497619D01*
X135916666Y-113545238D01*
X135869047Y-113569047D01*
X136440476Y-113640476D02*
X136392857Y-113616666D01*
X136369047Y-113592857D01*
X136345238Y-113545238D01*
X136345238Y-113521428D01*
X136369047Y-113473809D01*
X136392857Y-113450000D01*
X136440476Y-113426190D01*
X136535714Y-113426190D01*
X136583333Y-113450000D01*
X136607142Y-113473809D01*
X136630952Y-113521428D01*
X136630952Y-113545238D01*
X136607142Y-113592857D01*
X136583333Y-113616666D01*
X136535714Y-113640476D01*
X136440476Y-113640476D01*
X136392857Y-113664285D01*
X136369047Y-113688095D01*
X136345238Y-113735714D01*
X136345238Y-113830952D01*
X136369047Y-113878571D01*
X136392857Y-113902380D01*
X136440476Y-113926190D01*
X136535714Y-113926190D01*
X136583333Y-113902380D01*
X136607142Y-113878571D01*
X136630952Y-113830952D01*
X136630952Y-113735714D01*
X136607142Y-113688095D01*
X136583333Y-113664285D01*
X136535714Y-113640476D01*
G04 #@! TO.C,R11*
X161278571Y-101926190D02*
X161111904Y-101688095D01*
X160992857Y-101926190D02*
X160992857Y-101426190D01*
X161183333Y-101426190D01*
X161230952Y-101450000D01*
X161254761Y-101473809D01*
X161278571Y-101521428D01*
X161278571Y-101592857D01*
X161254761Y-101640476D01*
X161230952Y-101664285D01*
X161183333Y-101688095D01*
X160992857Y-101688095D01*
X161754761Y-101926190D02*
X161469047Y-101926190D01*
X161611904Y-101926190D02*
X161611904Y-101426190D01*
X161564285Y-101497619D01*
X161516666Y-101545238D01*
X161469047Y-101569047D01*
X162230952Y-101926190D02*
X161945238Y-101926190D01*
X162088095Y-101926190D02*
X162088095Y-101426190D01*
X162040476Y-101497619D01*
X161992857Y-101545238D01*
X161945238Y-101569047D01*
G04 #@! TO.C,R7*
X129816666Y-92826190D02*
X129650000Y-92588095D01*
X129530952Y-92826190D02*
X129530952Y-92326190D01*
X129721428Y-92326190D01*
X129769047Y-92350000D01*
X129792857Y-92373809D01*
X129816666Y-92421428D01*
X129816666Y-92492857D01*
X129792857Y-92540476D01*
X129769047Y-92564285D01*
X129721428Y-92588095D01*
X129530952Y-92588095D01*
X129983333Y-92326190D02*
X130316666Y-92326190D01*
X130102380Y-92826190D01*
G04 #@! TO.C,R8*
X129816666Y-94726190D02*
X129650000Y-94488095D01*
X129530952Y-94726190D02*
X129530952Y-94226190D01*
X129721428Y-94226190D01*
X129769047Y-94250000D01*
X129792857Y-94273809D01*
X129816666Y-94321428D01*
X129816666Y-94392857D01*
X129792857Y-94440476D01*
X129769047Y-94464285D01*
X129721428Y-94488095D01*
X129530952Y-94488095D01*
X130102380Y-94440476D02*
X130054761Y-94416666D01*
X130030952Y-94392857D01*
X130007142Y-94345238D01*
X130007142Y-94321428D01*
X130030952Y-94273809D01*
X130054761Y-94250000D01*
X130102380Y-94226190D01*
X130197619Y-94226190D01*
X130245238Y-94250000D01*
X130269047Y-94273809D01*
X130292857Y-94321428D01*
X130292857Y-94345238D01*
X130269047Y-94392857D01*
X130245238Y-94416666D01*
X130197619Y-94440476D01*
X130102380Y-94440476D01*
X130054761Y-94464285D01*
X130030952Y-94488095D01*
X130007142Y-94535714D01*
X130007142Y-94630952D01*
X130030952Y-94678571D01*
X130054761Y-94702380D01*
X130102380Y-94726190D01*
X130197619Y-94726190D01*
X130245238Y-94702380D01*
X130269047Y-94678571D01*
X130292857Y-94630952D01*
X130292857Y-94535714D01*
X130269047Y-94488095D01*
X130245238Y-94464285D01*
X130197619Y-94440476D01*
G04 #@! TO.C,R4*
X149416666Y-96226190D02*
X149250000Y-95988095D01*
X149130952Y-96226190D02*
X149130952Y-95726190D01*
X149321428Y-95726190D01*
X149369047Y-95750000D01*
X149392857Y-95773809D01*
X149416666Y-95821428D01*
X149416666Y-95892857D01*
X149392857Y-95940476D01*
X149369047Y-95964285D01*
X149321428Y-95988095D01*
X149130952Y-95988095D01*
X149845238Y-95892857D02*
X149845238Y-96226190D01*
X149726190Y-95702380D02*
X149607142Y-96059523D01*
X149916666Y-96059523D01*
G04 #@! TO.C,R3*
X126116666Y-87226190D02*
X125950000Y-86988095D01*
X125830952Y-87226190D02*
X125830952Y-86726190D01*
X126021428Y-86726190D01*
X126069047Y-86750000D01*
X126092857Y-86773809D01*
X126116666Y-86821428D01*
X126116666Y-86892857D01*
X126092857Y-86940476D01*
X126069047Y-86964285D01*
X126021428Y-86988095D01*
X125830952Y-86988095D01*
X126283333Y-86726190D02*
X126592857Y-86726190D01*
X126426190Y-86916666D01*
X126497619Y-86916666D01*
X126545238Y-86940476D01*
X126569047Y-86964285D01*
X126592857Y-87011904D01*
X126592857Y-87130952D01*
X126569047Y-87178571D01*
X126545238Y-87202380D01*
X126497619Y-87226190D01*
X126354761Y-87226190D01*
X126307142Y-87202380D01*
X126283333Y-87178571D01*
G04 #@! TO.C,R1*
X148616666Y-89826190D02*
X148450000Y-89588095D01*
X148330952Y-89826190D02*
X148330952Y-89326190D01*
X148521428Y-89326190D01*
X148569047Y-89350000D01*
X148592857Y-89373809D01*
X148616666Y-89421428D01*
X148616666Y-89492857D01*
X148592857Y-89540476D01*
X148569047Y-89564285D01*
X148521428Y-89588095D01*
X148330952Y-89588095D01*
X149092857Y-89826190D02*
X148807142Y-89826190D01*
X148950000Y-89826190D02*
X148950000Y-89326190D01*
X148902380Y-89397619D01*
X148854761Y-89445238D01*
X148807142Y-89469047D01*
G04 #@! TD*
M02*
